<?xml version="1.0" encoding="utf-8"?>
<!-- Generator: Adobe Illustrator 21.1.0, SVG Export Plug-In . SVG Version: 6.00 Build 0)  -->
<svg version="1.1" id="Слой_1" xmlns="http://www.w3.org/2000/svg" xmlns:xlink="http://www.w3.org/1999/xlink" x="0px" y="0px"
	 width="1008px" height="1008px" viewBox="0 0 1008 1008" style="enable-background:new 0 0 1008 1008;" xml:space="preserve">
<style type="text/css">
	.st0{fill:none;stroke:#FF0000;stroke-miterlimit:10;}
</style>
<path class="st0" d="M528.935,531.17v432h432v-432H528.935z"/>
<path class="st0" d="M528.935,53.17v432h432v-432H528.935z M844.119,460.9c-13.475-56.185,28.738-111.025,92.536-105.557v45.328
	c-2.923-1.32-6.259-2.352-9.966-2.799c7.148-11.073,5.361-24.781-3.049-34.016c-1.075,0.944-6.734,6.095-8.493,14.719
	c-5.158-6.786-12.176-9.365-13.529-9.835c-3.952,10.749-0.685,23.657,9.811,30.867c-4.197,1.519-7.974,3.823-11.259,6.622
	c-2.767-12.368-13.186-20.486-24.944-21.55c-0.155,1.422-0.845,9.043,3.686,16.589c-8.387-1.517-15.303,1.324-16.618,1.892
	c4.193,10.209,14.924,17.704,27.513,16.197c-2.055,3.978-3.436,8.077-4.161,12.958c-8.93-7.94-21.353-8.754-31.202-3.786
	c0.621,1.289,4.066,8.121,11.903,12.128c-7.92,3.15-12.286,9.219-13.102,10.397c9.458,6.806,23.259,7.088,33.167-1.872
	c1.047,4.135,2.782,8.134,5.336,11.717H844.119z M598.57,460.9c2.554-3.583,4.288-7.582,5.336-11.717
	c9.743,8.809,23.522,8.812,33.167,1.872c-0.815-1.178-5.182-7.247-13.102-10.397c7.837-4.007,11.282-10.839,11.903-12.128
	c-9.927-5.008-22.318-4.114-31.202,3.786c-0.724-4.869-2.101-8.971-4.162-12.958c12.373,1.482,23.236-5.78,27.514-16.197
	c-1.315-0.568-8.231-3.409-16.618-1.892c4.531-7.546,3.841-15.166,3.686-16.589c-11.32,1.024-22.092,8.777-24.946,21.562
	c-3.289-2.8-7.072-5.102-11.273-6.623c10.439-7.159,13.812-20.044,9.827-30.878c-1.353,0.47-8.371,3.049-13.529,9.835
	c-1.759-8.624-7.418-13.775-8.493-14.719c-8.212,9.02-10.353,22.702-3.049,34.016c-3.899,0.469-7.395,1.582-10.424,3
	c0-13.66,0-29.038,0-45.488c64.133-5.874,106.461,49.363,92.995,105.515H598.57z M579.747,97.458
	c-6.873,3.413-11.122-1.621-8.777-7.265c2.282-5.489-6.026-8.953-8.311-3.454c-5.509,13.254,6.67,25.948,21.094,18.778
	c8.668-4.309,14.201-17.22,6.974-28.077h13.842c18.735,31.691-34.177,57.476-51.364,30.307c0-18.07,0-29.325,0-30.307h25.145
	C590.03,86.172,583.88,95.404,579.747,97.458z M661.154,77.44c3.243,61.947-55.486,97.11-107.949,92.044c0-18.194,0-34.728,0-48.608
	c3.781,2.875,8.068,4.789,12.51,5.914c-8.808,9.739-8.817,23.519-1.873,33.17c1.178-0.815,7.247-5.182,10.397-13.102
	c4.007,7.837,10.839,11.282,12.128,11.903c5.007-9.925,4.117-22.317-3.788-31.205c4.773-0.709,8.863-2.041,12.961-4.158
	c-1.483,12.385,5.791,23.24,16.197,27.513c0.568-1.315,3.409-8.231,1.892-16.618c7.546,4.531,15.166,3.841,16.589,3.686
	c-1.016-11.238-8.705-22.07-21.551-24.944c2.799-3.286,5.102-7.065,6.621-11.262c7.177,10.451,20.066,13.786,30.869,9.814
	c-0.47-1.353-3.049-8.371-9.835-13.529c8.624-1.759,13.775-7.418,14.719-8.493c-8.87-8.077-22.547-10.453-34.016-3.049
	c-0.401-3.335-1.273-6.372-2.407-9.076H661.154z M626.672,160.452c27.838-17.627,42.563-44.788,43.552-75.103
	C677.872,119.023,664.821,146.031,626.672,160.452z M662.783,455.175c25.867-68.563-29.223-139.348-103.925-118.038
	c22.089-12.795,48.652-14.575,71.29-4.318C669.378,350.596,690.795,406.955,662.783,455.175z M657.655,441.536
	c0.744-49.986-36.886-95.896-96.993-95.489C626.369,327.102,671.883,384.76,657.655,441.536z M611.139,297.864
	c-0.186,1.735-1.124,12.402,6.423,21.33c-7.464-1.656-15.113-2.282-22.744-1.903c-5.663-12.46-18.906-17.811-30.737-14.734
	c0.4,1.661,2.993,11.637,12.592,17.563c-8.126,2.143-16.038,5.445-23.467,9.892c0-18.178,0-37.168,0-56.22
	c18.057,43.007,57.355-23.998,76.416,34.076C622.692,299.061,612.786,298.01,611.139,297.864z M553.205,460.9
	c0-1.015,0-9.139,0-22.372c8.574-13.861,18.975-8.186,21.366-3.378c3.392,6.821-1.563,11.141-7.265,8.777
	c-5.502-2.283-8.941,6.029-3.453,8.311c13.236,5.499,25.959-6.646,18.777-21.094c-4.297-8.646-17.815-14.898-29.425-6.012
	c0-4.342,0-9.004,0-13.959c31.109-20.648,58.815,30.991,32.825,49.727H553.205z M684.395,402.657
	c13.491-6.151,18.786-20.871,14.081-33.453c-7.082,2.502-13.811,8.233-16.915,15.992c-1.829-7.233-4.9-16.266-9.997-25.391
	c10.637-8.883,12.2-23.261,5.875-33.884c-7.332,4.186-13.256,12.015-14.204,21.497c-5.802-7.212-23.921-18.494-19.314-43.674
	c6.135-33.563,34.77-30.23,42.915-20.7c8.429,9.865,2.257,21.522-5.489,23.043c-14.384,2.828-15.049-14.356-6.745-9.561
	c5.149,2.972,9.658-4.815,4.502-7.793c-4.628-2.675-10.151-2.577-14.073,0.245c-11.869,8.553-1.124,29.696,18.051,25.94
	c14.111-2.773,23.733-22.356,10.597-37.723c-12.625-14.772-49.008-16.034-57.877,21.428c-17.38-41.622-48.878-17.874-62.604-18.351
	c9.454-8.491,11.045-21.706,5.738-31.861c-9.045,4.519-15.848,13.937-15.697,25.234c-4.316-7.074-8.224-22.63,5.283-33.347
	c20.517-16.284,2.619-30.134,6.018-37.536c1.79-3.902,7.107-7.103,9.969-6.012c2.017,0.767,4.998,4.494,1.336,7.749
	c-4.446,3.949,1.528,10.684,5.977,6.729c8.425-7.482,4.762-19.513-4.111-22.889c-8.01-3.051-17.883,3.116-21.35,10.669
	c-6.454,14.062,12.509,21.588-3.434,34.241c-3.174,2.519-7.065,5.614-9.72,11.224c0-22.818,0-45.162,0-65.71
	c26.115,2.719,56.02-1.97,76.989-9.983c9.895,10.824,25.285,11.375,35.76,3.358c-1.031-1.399-7.495-9.833-19-11.37
	c6.652-3.945,12.817-8.716,18.049-14.481c12.625,6.295,26.584,1.732,33.687-8.565c-6.7-4.805-15.979-6.894-24.669-4.214
	c2.998-5.646,5.216-11.917,6.395-19.586c13.296-4.405,20.043-17.388,17.864-29.727c-1.604,0.253-10.85,1.893-17.491,9.865
	c-0.54-5.116-1.587-10.663-3.319-16.622h135.378c-1.731,5.959-2.778,11.506-3.319,16.622c-6.641-7.971-15.887-9.611-17.491-9.865
	c-2.154,12.194,4.431,25.276,17.864,29.727c1.175,7.641,3.385,13.917,6.395,19.586c-8.635-2.663-17.915-0.629-24.669,4.214
	c7.03,10.189,20.946,14.917,33.687,8.565c5.232,5.766,11.396,10.537,18.048,14.481c-11.504,1.537-17.969,9.971-19,11.37
	c10.362,7.931,25.77,7.569,35.76-3.358c21.085,8.057,50.826,12.627,76.531,10.032v64.731c-2.632-5.031-6.267-7.917-9.262-10.294
	c-16.064-12.75,3.057-20.099-3.434-34.242c-3.467-7.552-13.338-13.719-21.349-10.669c-8.963,3.41-12.482,15.456-4.112,22.889
	c4.442,3.949,10.429-2.775,5.977-6.729c-3.603-3.202-0.764-6.95,1.336-7.749c2.873-1.091,8.179,2.112,9.969,6.012
	c3.37,7.341-14.618,21.158,6.018,37.537c3.13,2.483,5.832,4.628,7.582,8.928c3.033,7.449,1.767,17.755-2.299,24.42
	c0.151-11.321-6.691-20.735-15.697-25.235c-5.309,10.158-3.719,23.367,5.737,31.861c-13.883,0.482-45.176-23.381-62.603,18.352
	c-11.731-49.549-71.096-32.475-63.56-0.371c5.489,23.371,34.261,20.145,38.58,5.061c3.479-12.159-7.963-20.567-18.322-14.581
	c-5.147,2.973-0.656,10.768,4.502,7.793c3.482-2.012,6.366,0.129,5.168,4.312c-1.742,6.086-17.758,9.87-21.166-4.641
	c-4.887-20.822,39.035-34.267,46.679,7.547c4.83,26.4-14.458,37.638-19.314,43.674c-0.95-9.5-6.908-17.332-14.204-21.497
	c-6.217,10.445-4.918,24.871,5.875,33.884c-5.097,9.125-8.168,18.159-9.997,25.392c-3.111-7.778-9.854-13.498-16.915-15.992
	c-4.697,12.564,0.57,27.294,14.081,33.453c-1.767,25.994,7.768,46.923,14.543,58.243H669.853
	C676.627,449.58,686.163,428.651,684.395,402.657z M875.701,77.44c-1.134,2.704-2.006,5.741-2.407,9.076
	c-11.073-7.148-24.781-5.361-34.016,3.049c0.944,1.075,6.095,6.734,14.719,8.493c-6.786,5.158-9.365,12.176-9.835,13.529
	c10.68,3.927,23.619,0.743,30.869-9.814c1.519,4.198,3.822,7.976,6.621,11.262c-12.368,2.767-20.487,13.186-21.551,24.944
	c1.422,0.155,9.043,0.845,16.589-3.686c-1.516,8.388,1.324,15.303,1.892,16.618c10.195-4.187,17.706-14.91,16.197-27.513
	c3.981,2.057,8.062,3.431,12.96,4.159c-8.147,9.16-8.603,21.659-3.788,31.204c1.289-0.621,8.121-4.066,12.128-11.903
	c3.15,7.92,9.219,12.286,10.397,13.102c6.832-9.495,7.06-23.292-1.874-33.17c4.266-1.08,8.383-2.899,12.053-5.588v48.321
	c-53.711,4.967-110.67-31.353-107.49-92.083H875.701z M899.592,77.44c-7.235,10.87-1.677,23.777,6.974,28.077
	c14.385,7.152,26.616-5.493,21.094-18.778c-2.285-5.501-10.592-2.034-8.311,3.454c2.313,5.568-1.811,10.726-8.777,7.265
	c-4.125-2.05-10.301-11.272,1.397-20.018h24.686v31.005c-17.901,26.203-69.362,0.219-50.905-31.005H899.592z M931.458,337.137
	c-74.878-21.361-129.716,49.674-103.923,118.038C784.697,381.433,856.36,293.641,931.458,337.137z M820.094,85.349
	c0.986,30.212,15.613,57.411,43.552,75.103C825.494,146.03,812.447,119.019,820.094,85.349z M936.655,329.745
	c-7.297-4.31-15.049-7.526-23.01-9.625c9.6-5.927,12.193-15.903,12.593-17.564c-11.618-3.021-24.985,2.077-30.738,14.735
	c-7.631-0.379-15.28,0.247-22.744,1.902c7.547-8.927,6.609-19.595,6.423-21.33c-1.647,0.146-11.553,1.197-18.483,10.004
	c18.959-57.764,57.001,8.308,75.958-33.025V329.745z M929.657,346.047c-60.216-0.407-97.735,45.622-96.994,95.489
	C818.45,384.817,863.897,327.083,929.657,346.047z M936.655,410.878v13.912c-11.421-8.345-24.707-2.216-28.968,6.354
	c-7.154,14.396,5.502,26.612,18.778,21.094c5.5-2.287,2.036-10.59-3.453-8.311c-5.589,2.319-10.714-1.833-7.266-8.777
	c2.182-4.39,12.138-10.599,20.908,2.654V460.9h-32.366C878.547,442.343,905.533,390.998,936.655,410.878z"/>
<path class="st0" d="M42.935,531.17v432h432v-432H42.935z M67.205,555.44h183.859c-3.795,3.3-7.264,7.023-10.199,11.02
	c-8.4-3.54-18.08-0.55-23,7.1c11.08,27.82,17.45,59.24,21.03,88.73c-13.27,0-23.52,0-23.52,0v22.75
	c-26.75-3.81-55.88-10.35-80.89-20.26c-7.62,4.89-10.68,14.5-7.12,22.95c-6.73,4.95-12.53,11.16-16.97,18.04
	c4.69,7.26,10.38,13.16,16.97,18.03c-3.57,8.41-0.47,18.15,7.12,22.95c25.3-10,53.83-16.28,80.89-19.96
	c0,21.14-0.01,22.46-0.01,22.46h25.91c-1.19,47.31-10.17,111.99-31.8,166.55c6.99,10.44,18.73,12.34,27.7,8.56
	c4.079,5.49,8.658,10.308,13.769,14.54H67.205C67.205,931.645,67.205,561.289,67.205,555.44z M450.655,938.9H266.918
	c5.204-4.31,9.769-9.15,13.777-14.54c10.06,4.24,21.68,0.72,27.65-8.48c0.02-0.03,0.03-0.05,0.05-0.08
	c-20.24-51.05-30.47-113.59-31.8-166.55h25.91c0,0-0.01-0.23-0.01-22.46c26.94,3.66,55.49,9.93,80.89,19.96
	c7.58-4.8,10.69-14.53,7.12-22.95c6.52-4.82,12.23-10.71,16.97-18.03c-4.33-6.71-10.08-12.97-16.97-18.04
	c3.55-8.42,0.52-18.05-7.12-22.95c-25.01,9.91-54.15,16.45-80.89,20.26v-22.75h-23.52c0.16-1.29,0.31-2.57,0.48-3.85
	c0,0,4.87-45.5,20.55-84.88c-4.94-7.68-14.63-10.63-23-7.1c-2.883-3.929-6.349-7.671-10.199-11.02h183.849V938.9z"/>
<path class="st0" d="M42.935,54.17v432h432v-432H42.935z M272.014,107.605c1.5-0.639,7.655-3.229,9.663-4.075
	c-12.058,35.433-15.968,68.162-18.797,91.596c-4.092,0-3.781,0-7.89,0c-2.036-16.872-5.829-53.49-18.797-91.596
	c1.47,0.619,8.157,3.434,9.663,4.075c7.105-9.629,8.771-12.231,13.079-16.357C263.172,95.306,264.628,97.594,272.014,107.605z
	 M272.543,91.746c0.331,0.192,2.479,1.488,2.99,4.164c0.614,3.211-1.686,5.484-1.855,5.646c-0.629-1.027-1.78-3.241-1.757-6.199
	C271.933,93.87,272.239,92.633,272.543,91.746z M293.665,190.202h3.901v7.495c-1.429,0.322-3.123,0.625-3.613,0.156
	C292.174,196.077,294.121,193.349,293.665,190.202z M302.236,213.057c-0.474,1.626-0.365,3.549-0.539,5.052l-7.528,1.075
	C296.006,216.077,298.744,213.805,302.236,213.057z M297.566,201.693v8.794c-1,0.799-3,1.947-4.934,4.153v-13.055
	C294.12,202.211,295.862,202.035,297.566,201.693z M376.404,206.08c-2.822,6.653-1.945,4.585-4.082,9.625
	c9.053,6.646,12.251,8.767,16.398,13.054c-4.026,4.201-6.488,5.769-16.398,13.064l4.082,9.625
	c-33.776-11.498-64.964-15.357-83.772-17.911c0-1.142,0-8.101,0-9.146C308.592,222.097,341.479,217.984,376.404,206.08z
	 M305.672,217.532c0.154-1.841-0.029-3.598,0.871-4.202c1.095-0.743,4.818-0.639,6.941,2.99
	C310.9,216.741,308.295,217.151,305.672,217.532z M314.248,211.21c4.023-0.674,7.988-1.397,11.904-2.159
	c0.039,1.787,1.21,2.756,1.37,4.739c-3.28,0.645-6.598,1.26-9.946,1.837C316.793,214.122,315.824,212.48,314.248,211.21z
	 M330.078,209.021c0.689-1,5.945-2.258,8.909,2.355c-2.506,0.567-5.042,1.114-7.607,1.642
	C331.076,210.734,330.301,210.022,330.078,209.021z M339.584,206.207c2.908-0.674,5.776-1.368,8.605-2.081
	c0.069,1.632,0.999,3.146,2.046,4.553c-2.389,0.616-4.797,1.212-7.245,1.778C342.168,209.041,341.18,207.438,339.584,206.207z
	 M352.144,203.696c0.078-0.215,0.313-0.498,0.744-0.791c1.419-0.381,2.829-0.762,4.229-1.163c3.087-0.026,4.691,1.277,5.757,3.459
	c-2.79,0.831-5.639,1.632-8.527,2.404C353.798,206.839,351.808,204.576,352.144,203.696z M386.791,206.07
	c-0.337,1.756-0.726,2.485-2.349,6.322c0.614,0.45,3.546,2.584,4.082,3.019c-1.184,1.337-1.91,2.978-2.722,4.123
	c-0.837-0.664-0.853-0.657-6.892-5.101c-0.027-1.983,0.301-2.337,1.733-5.716C382.275,206.331,384.167,205.785,386.791,206.07z
	 M382.027,202.878c0.76-2.764,1.314-5.57,1.66-8.406c1.889,2.169,3.035,4.866,3.299,7.69
	C385.335,201.917,383.614,202.143,382.027,202.878z M378.581,200.185c-1.878,0.627-3.77,1.251-5.677,1.871
	c-2.092,0.681-4.173,1.348-6.241,2.002c-0.656-1.446-1.527-2.99-3.074-4.202c5.61-1.7,10.994-3.508,16.124-5.404
	c-0.057,0.799-0.16,1.681-0.336,2.628C379.161,198.245,378.878,199.285,378.581,200.185z M392.742,225.941
	c-1.156-1.356-2.457-2.671-3.916-3.914c0.91-1.224,1.917-3.284,2.751-4.133c1.629,1.369,3.212,2.907,4.708,4.625
	C395.417,223.872,394.227,225.056,392.742,225.941z M399.086,225.599c0.82,1.006,1.629,2.061,2.419,3.161
	c-0.959,1.339-1.958,2.628-3.015,3.879c-1.863-0.517-3.106-2.011-3.461-3.846C396.574,227.999,397.95,226.917,399.086,225.599z
	 M391.911,232.551c0.666,1.329,2.173,2.267,3.838,3.107c-1.341,1.417-2.761,2.765-4.249,4.055c-1.257-1.073-2.81-2.25-4.307-2.824
	C388.846,235.531,390.423,234.085,391.911,232.551z M387.035,253.51c-3.286-1.568-5.889-4.271-7.548-7.416
	c0-2.23,2.953-8.623,8.889-3.87c-0.533,0.433-3.333,2.47-3.936,2.912C385.977,248.765,386.926,250.529,387.035,253.51z
	 M381.855,255.127c1.442,1.04,3.06,1.813,4.778,2.282c-0.636,2.56-2.017,4.915-4.033,6.752c-0.82-1.859-1.351-3.83-1.576-5.853
	C381.745,257.389,382.026,256.248,381.855,255.127z M377.827,262.456c-4.691-1.755-9.439-3.351-14.238-4.784
	c1.028-1.612,2.314-3.544,4.445-3.781c2.748,0.861,5.545,1.784,8.393,2.776C376.746,258.597,377.209,260.53,377.827,262.456z
	 M362.815,252.308c-1.176,1.115-2.238,2.734-3.133,4.221c-2.506-0.733-5.051-1.427-7.646-2.111c0.626-1,1.725-3.097,2.017-4.563
	C357.02,250.647,359.947,251.458,362.815,252.308z M350.255,248.879c-0.076,1.059-1.41,3.186-2.125,4.544
	c-2.898-0.723-5.854-1.427-8.86-2.091c1.367-2.1,4.193-3.282,6.765-3.488C347.455,248.175,348.855,248.527,350.255,248.879z
	 M338.539,246.06c-1.905,1.248-2.866,2.54-3.72,4.241c-3.71-0.792-6.537-1.391-10.384-2.095c-0.845-2.049-1.522-3.823-2.565-5.462
	C327.901,243.789,332.822,244.809,338.539,246.06z M319.358,247.403c-2.82-0.479-5.678-0.948-8.566-1.388
	c1.152-1.96,1.341-3.71,1.743-4.71C315.834,241.501,318.105,244.329,319.358,247.403z M308.609,240.71
	c-0.486,1.512-0.561,2.879-2.183,4.661c0,0-1.893-0.273-8.86-1.221c0,1.293,0,2.586,0,3.879c-1.788-0.908-3.469-2.146-4.929-3.72
	c-0.002-1.935-0.003-3.871-0.005-5.807C306.125,240.348,306.247,240.358,308.609,240.71z M297.585,252.803l-0.019,4.909
	c-0.729,0.001-1.526,0.035-2.381,0.118c-0.911,0.089-1.747,0.222-2.5,0.375c0.009-2.934,0.038-5.441,0.047-8.375
	C294.18,251.076,295.816,252.079,297.585,252.803z M292.632,262.402c0.645-0.189,1.466-0.371,2.428-0.447
	c0.979-0.077,1.831-0.023,2.506,0.066c0,1.769,0,3.537,0,5.306h-5.38c-0.432-0.852-1.019-1.841-1.813-2.871
	c-0.64-0.831-1.286-1.52-1.875-2.081L292.632,262.402z M289.161,195.127h-7.181c-0.474-1.9-1.122-3.845-0.039-4.925h7.68
	C290.127,191.263,289.547,193.103,289.161,195.127z M287.698,200.051v57.426h-57.525v-57.426
	C236.321,200.051,280.845,200.051,287.698,200.051z M287.289,267.414c-1.667-0.021-3.333-0.042-5-0.063
	c-0.4-0.565-0.856-1.153-1.375-1.75c-1.166-1.341-2.356-2.389-3.426-3.199h5.426c0.682,0.472,1.505,1.133,2.324,2.035
	C286.22,265.519,286.868,266.585,287.289,267.414z M254.779,452.183c1.452,0.962,2.974,1.927,4.572,2.89
	c1.634-0.804,3.216-1.827,4.686-3.08c1.307,0.892,2.164,2.305,2.338,3.891c-2.324,2.143-4.823,4.083-7.481,5.806
	c-1.6-1.192-3.2-2.383-4.801-3.575C254.851,456.296,255.125,454.253,254.779,452.183z M258.935,449.308
	c-6.728-5.905-9.66-10.453-16.77-20.1c-11.525,4.867-12.263,5.556-15.106,5.052c20.821-56.971,27.133-111.683,29.399-171.858
	c1.911,0,3.042,0,4.953,0c2.215,58.809,8.625,115.014,29.399,171.858c-1.32,0.234-2.877,0.114-4.347-0.508l-10.759-4.544
	C268.591,438.86,265.662,443.404,258.935,449.308z M274.113,447.789c-0.595,0.772-2.647,3.118-4.595,5.086
	c-0.636-1.857-1.39-3.518-2.653-4.358c1.469-1.534,2.878-3.146,4.2-4.807c0.001-0.002,0.003-0.004,0.004-0.005c0,0,0,0.001,0,0.002
	C271.721,445.579,273.108,446.632,274.113,447.789z M250.322,455.263c-2.53-2.571-4.481-4.84-6.564-7.474
	c1.004-1.157,2.391-2.209,3.043-4.083c0-0.001,0-0.001,0-0.001l0.005,0.005c1.199,1.503,2.409,2.997,3.63,4.481
	C251.296,450.51,251.255,453.003,250.322,455.263z M244.074,306.178c0.333-3.654,0.626-7.328,0.891-11.022
	c1.508,0.352,3.211,0.655,4.934,0.362c-0.352,4.837-0.754,9.654-1.204,14.442C247.305,308.648,245.502,307.529,244.074,306.178z
	 M242.574,320.981c0.411-3.527,0.727-6.507,1.07-10.074c2.771,1.978,3.587,3.103,4.053,4.866
	C249.039,320.851,242.574,320.981,242.574,320.981z M245.229,291.208c0.225-3.361,0.421-6.732,0.587-10.123
	c1.877,0.71,3.319,0.995,4.866,1.475c-0.147,2.941-0.313,5.882-0.509,8.804C248.754,292.019,247.04,291.648,245.229,291.208z
	 M246.012,276.922c0.101-2.194,0.187-4.527,0.382-9.595c-1.632,0.015-3.265,0.03-4.897,0.045c0.302-0.619,0.733-1.347,1.352-2.082
	c1.39-1.651,3.007-2.483,3.989-2.887c1.559,0,3.117,0,4.676,0c-0.308,8.246-0.452,12.253-0.627,16.152
	C249.575,278.172,247.804,277.78,246.012,276.922z M247.168,324.313c-0.392,3.381-0.822,6.742-1.273,10.094
	c-1.406-0.6-3.006-0.919-4.797-1.378c0.323-2.462,0.636-4.925,0.93-7.397C243.878,325.227,245.565,325,247.168,324.313z
	 M245.317,338.55c-0.294,2.071-0.597,4.123-0.92,6.175c-1.513,2.349-3.091,3.119-5.653,4.073c0.666-4.065,1.228-7.767,1.806-11.88
	C241.923,337.296,244.188,337.666,245.317,338.55z M243.35,351.243c-0.92,5.521-1.909,10.983-2.996,16.386
	c-1.465-0.992-3.107-1.584-4.591-2.257c0.773-3.899,1.498-7.837,2.173-11.794C239.6,353.041,241.509,352.416,243.35,351.243z
	 M239.434,372.144c-0.46,2.257-0.95,4.514-1.449,6.752c-1.121-0.095-2.877-1.126-4.601-2.13c0.548-2.472,1.077-4.964,1.596-7.465
	C236.016,369.817,238.415,370.514,239.434,372.144z M237.104,382.726c-0.715,3.107-1.459,6.185-2.242,9.244
	c-1.663-2.072-3.141-2.954-4.141-3.811c0.607-2.443,1.194-4.915,1.762-7.387C233.951,381.593,235.518,382.443,237.104,382.726z
	 M233.491,397.246c-0.724,2.746-1.478,5.472-2.251,8.179c-1.475,0.3-3.396-1.85-4.396-2.648c0.989-3.449,1.928-6.938,2.829-10.465
	C231.907,394.143,233.204,396.245,233.491,397.246z M230.114,409.294c-0.881,2.961-1.792,5.892-2.722,8.794
	c-1.566-0.854-3.12-1.329-4.513-2.12c0.96-2.98,1.88-5.99,2.761-9.029C226.922,408.034,228.401,409.06,230.114,409.294z
	 M226.139,421.899c-0.783,2.365-1.586,3.796-2.418,6.122c-1.559,0.918-3.038,0.889-5.288,0.889c1.214-3.352,2.087-5.731,3.223-9.161
	C223.219,420.541,225.089,421.153,226.139,421.899z M222.027,432.692c-0.382,1.065-0.783,3.043-1.185,4.099
	c1.692,1.269,3.696,2.089,5.818,2.373c-3.885,2.927-5.158,3.643-5.158,3.643c-2.465-1.046-4.666-2.657-6.436-4.727
	c0.548-1.397,1.379-3.816,1.907-5.223C219.125,432.732,220.331,432.96,222.027,432.692z M234.737,437.688
	c0.027-0.012,3.972-1.668,3.975-1.669c1.799,0.506,7.065,4.186,2.598,8.644c-0.044-0.059-2.429-3.287-2.473-3.347
	c-3.916,1.655-7.136,3.363-12.294,2.803C230.29,441.5,233.737,438.529,234.737,437.688z M269.175,309.959
	c-0.45-4.788-0.852-9.605-1.204-14.442c1.723,0.293,3.426-0.01,4.934-0.362c0.264,3.694,0.558,7.368,0.891,11.022
	C272.366,307.53,270.566,308.647,269.175,309.959z M274.227,310.907c0.343,3.567,0.724,7.114,1.136,10.641
	c-0.01-0.01-0.019-0.01-0.029-0.01C267.732,320.04,268.896,314.712,274.227,310.907z M267.697,291.364
	c-0.196-2.922-0.362-5.863-0.509-8.804c1.537-0.477,2.992-0.767,4.866-1.475c0.166,3.391,0.362,6.762,0.587,10.123
	C270.83,291.648,269.116,292.019,267.697,291.364z M279.158,436.018l0.002,0.001c0.027,0.012,3.945,1.657,3.973,1.669
	c1.001,0.842,4.43,3.801,8.194,6.431c-5.21,0.565-8.561-1.225-12.294-2.803c-0.044,0.06-2.429,3.288-2.473,3.347
	C272.293,440.403,277.027,436.617,279.158,436.018z M291.21,439.164c2.122-0.284,4.126-1.104,5.818-2.373
	c-0.401-1.055-1.292-3.01-1.674-4.075c3.53,0.556,4.064,0.368,5.678,0.463c0.529,1.407,1.223,3.505,1.772,4.902
	c-1.771,2.07-3.971,3.681-6.436,4.727C296.367,442.807,295.095,442.091,291.21,439.164z M293.66,428.045
	c-0.832-2.326-1.145-3.781-1.928-6.146c1.05-0.746,2.919-1.358,4.484-2.15c1.136,3.43,2.144,6.13,3.358,9.481
	C297.634,429.231,295.329,429.029,293.66,428.045z M290.478,418.089c-0.93-2.902-1.841-5.833-2.722-8.794
	c1.713-0.234,3.192-1.26,4.474-2.355c0.881,3.039,1.801,6.048,2.761,9.029C293.598,416.76,292.044,417.234,290.478,418.089z
	 M286.63,405.425c-0.773-2.707-1.527-5.433-2.251-8.179c0.287-1,1.575-3.096,3.818-4.935c0.901,3.527,1.841,7.016,2.829,10.465
	C290.026,403.576,288.106,405.725,286.63,405.425z M283.008,391.97c-0.783-3.058-1.527-6.136-2.242-9.244
	c1.586-0.283,3.152-1.133,4.621-1.954c0.568,2.472,1.155,4.944,1.762,7.387C286.149,389.016,284.672,389.898,283.008,391.97z
	 M279.885,378.896c-0.499-2.238-0.989-4.495-1.449-6.752c1.016-1.625,3.377-2.306,4.455-2.844c0.519,2.501,1.047,4.993,1.596,7.465
	C282.741,377.782,281.001,378.801,279.885,378.896z M277.516,367.629c-1.087-5.403-2.075-10.866-2.996-16.386
	c1.84,1.173,3.75,1.798,5.414,2.335c0.676,3.957,1.4,7.895,2.173,11.794C280.623,366.046,278.981,366.638,277.516,367.629z
	 M273.473,344.726c-0.323-2.052-0.626-4.104-0.92-6.175c1.13-0.884,3.396-1.254,4.768-1.632c0.578,4.114,1.204,8.208,1.87,12.273
	C276.628,348.237,274.986,347.075,273.473,344.726z M271.975,334.407c-0.45-3.352-0.881-6.713-1.273-10.094
	c1.602,0.687,3.29,0.914,5.14,1.319c0.294,2.472,0.607,4.935,0.93,7.397C274.972,333.49,273.379,333.808,271.975,334.407z
	 M271.476,267.327c0.195,5.068,0.281,7.403,0.382,9.595c-1.79,0.857-3.562,1.249-4.875,1.632c-0.176-3.946-0.328-8.162-0.627-16.152
	c1.559,0,3.117,0,4.676,0c2.262,1.317,4.291,2.974,6.028,4.925H271.476z M240.382,262.402c-0.986,0.669-2.18,1.634-3.322,2.991
	c-0.585,0.695-1.057,1.375-1.438,2c-1.542,0-3.083,0-4.625,0c0.236-0.663,0.595-1.473,1.148-2.327
	c0.808-1.248,1.721-2.11,2.412-2.664H240.382z M141.467,251.448l4.082-9.625c-9.895-7.284-12.367-8.858-16.398-13.064
	c4.176-4.317,7.414-6.46,16.398-13.054c-2.135-5.034-1.259-2.97-4.082-9.625c30.649,10.447,56.642,14.411,83.772,18.311
	c0,1.877,0,7.267,0,9.146C209.128,235.725,176.341,239.577,141.467,251.448z M207.078,246.016c-2.888,0.44-5.747,0.909-8.566,1.388
	c1.253-3.073,3.523-5.902,6.823-6.097C205.737,242.306,205.926,244.056,207.078,246.016z M195.917,242.847
	c-1.047,1.644-1.728,3.433-2.565,5.462c-3.847,0.703-6.602,1.313-10.313,2.104c-0.818-1.628-1.738-2.943-3.72-4.241
	C185.036,244.922,189.886,243.893,195.917,242.847z M178.6,251.331c-3.005,0.664-5.962,1.368-8.86,2.091
	c-0.712-1.354-2.049-3.484-2.125-4.544c1.4-0.352,2.8-0.704,4.219-1.036C174.457,248.053,177.254,249.265,178.6,251.331z
	 M165.834,254.419c-2.594,0.684-5.14,1.378-7.646,2.111c-0.885-1.472-1.953-3.102-3.133-4.221c2.868-0.85,5.795-1.661,8.762-2.453
	C164.109,251.322,165.208,253.419,165.834,254.419z M154.282,257.673c-4.799,1.433-9.547,3.028-14.238,4.784
	c0.598-1.867,1.07-3.798,1.4-5.79c2.719-0.947,5.515-1.874,8.393-2.776C151.948,254.126,153.226,256.019,154.282,257.673z
	 M136.846,258.308c-0.225,2.02-0.755,3.991-1.576,5.853c-2.017-1.837-3.397-4.192-4.033-6.752c1.715-0.468,3.334-1.24,4.778-2.282
	C135.844,256.248,136.125,257.389,136.846,258.308z M130.835,253.51c0.109-2.987,1.066-4.762,2.594-8.374
	c-0.602-0.442-3.403-2.479-3.936-2.912c5.556-4.449,8.889,1.076,8.889,3.87C136.731,249.226,134.137,251.934,130.835,253.51z
	 M122.842,228.793c-0.354,1.83-1.594,3.328-3.461,3.846c-1.057-1.251-2.056-2.541-3.015-3.879c0.757-1.054,1.564-2.111,2.419-3.161
	C119.918,226.915,121.294,227.998,122.842,228.793z M121.584,222.519c1.398-1.604,2.964-3.159,4.708-4.625
	c0.834,0.849,1.841,2.91,2.751,4.133c-1.359,1.158-2.675,2.459-3.916,3.914C123.737,225.112,122.512,223.964,121.584,222.519z
	 M125.959,232.551c1.488,1.534,3.064,2.98,4.719,4.338c-1.492,0.571-3.034,1.737-4.307,2.824c-1.488-1.29-2.907-2.638-4.249-4.055
	C123.786,234.818,125.294,233.88,125.959,232.551z M131.08,206.07c5.704-0.62,7.929,4.827,7.881,8.364
	c-6.039,4.443-6.055,4.436-6.892,5.101c-0.811-1.144-1.538-2.787-2.722-4.123c0.537-0.435,3.468-2.569,4.082-3.019
	C131.812,208.572,131.417,207.831,131.08,206.07z M130.884,202.162c0.264-2.824,1.41-5.521,3.299-7.69
	c0.346,2.834,0.9,5.64,1.66,8.406C134.328,202.176,132.614,201.905,130.884,202.162z M138.158,194.452
	c5.13,1.896,10.514,3.703,16.124,5.404c-1.547,1.212-2.418,2.755-3.074,4.202c-2.04-0.623-4.122-1.29-6.241-2.002
	c-1.949-0.655-3.848-1.322-5.698-1.996c-0.248-0.934-0.482-1.935-0.688-3C138.406,196.153,138.267,195.282,138.158,194.452z
	 M154.996,205.201c1.049-2.148,2.634-3.486,5.757-3.459c0.695,0.198,1.398,0.395,2.107,0.589c0.923,0.252,1.837,0.495,2.742,0.729
	c-0.177,0.544-0.402,1.133-0.688,1.75c-0.511,1.105-1.088,2.019-1.625,2.75c-1.346-0.369-2.702-0.747-4.066-1.135
	C157.8,206.02,156.391,205.612,154.996,205.201z M167.635,208.679c1.048-1.407,1.978-2.922,2.046-4.553
	c2.829,0.713,5.698,1.407,8.605,2.081c-1.596,1.231-2.585,2.834-3.407,4.25C172.432,209.891,170.024,209.295,167.635,208.679z
	 M179.143,211.476c0.398-0.621,1.409-2.008,3.28-2.873c2.503-1.157,4.816-0.579,5.449-0.398c-0.356,0.919-0.697,1.945-0.99,3.072
	c-0.156,0.602-0.286,1.184-0.393,1.741C183.925,212.49,181.65,212.043,179.143,211.476z M190.56,213.83
	c0.003-0.605,0.068-1.406,0.313-2.313c0.285-1.057,0.713-1.877,1.063-2.438c1.872,0.37,3.77,0.732,5.695,1.083
	c2.021,0.369,3.602,0.609,5.576,0.938c-1.576,1.27-2.545,2.912-3.328,4.417c-1.651-0.285-2.901-0.473-4.582-0.784
	C193.699,214.439,192.121,214.138,190.56,213.83z M204.081,216.289c2.133-3.645,5.861-4.501,6.938-3.771
	c0.9,0.604,1.026,3.173,1.18,5.014C209.575,217.151,206.665,216.709,204.081,216.289z M225.206,197.393
	c-0.494,0.225-1.249,0.499-2.203,0.589c-1.178,0.111-2.132-0.108-2.699-0.286v-7.495h3.901
	C224.539,192.599,224.872,194.996,225.206,197.393z M225.238,201.585v13.055c-1.934-2.206-3.934-3.354-4.934-4.153v-8.794
	C222.008,202.035,223.75,202.211,225.238,201.585z M223.701,219.184l-7.528-1.075c-0.173-1.503-0.064-3.426-0.539-5.052
	C219.123,213.804,221.864,216.076,223.701,219.184z M225.239,238.502c-0.002,1.936-0.003,3.871-0.005,5.807
	c-1.367,1.474-3.02,2.75-4.929,3.72c0-1.293,0-2.586,0-3.879c-6.932,0.944-6.354,0.861-8.86,1.221
	c-1.609-1.767-1.685-3.109-2.183-4.661C211.737,240.341,212.14,240.294,225.239,238.502z M220.285,252.756
	c1.768-0.724,3.404-1.726,4.853-2.973c-0.095,2.83-0.171,5.28-0.266,8.109c-0.613-0.178-1.445-0.353-2.438-0.375
	c-0.843-0.019-1.567,0.078-2.131,0.194C220.304,255.933,220.285,254.535,220.285,252.756z M220.304,262.021
	c0.525-0.164,1.408-0.37,2.506-0.284c1.095,0.085,1.935,0.423,2.428,0.665c1.281,0.004,2.562,0.008,3.843,0.012
	c-0.436,0.685-0.878,1.435-1.313,2.25c-0.496,0.931-0.916,1.825-1.273,2.663h-6.191V262.021z M229.206,195.143
	c-0.231-1.647-0.462-3.294-0.693-4.941h7.022c1.038,1.035,0.5,2.762-0.039,4.925C233.268,195.132,231.434,195.137,229.206,195.143z
	 M237.404,98.612c-1.612-0.688-3.271-0.971-5.065-0.689c-0.762-1.54-1.072-3.175-1.834-4.715c2.589-0.589,4.681-0.465,7.585,0.612
	C237.468,95.363,237.245,97.004,237.404,98.612z M230.51,103.199c0.227,3.598-1.995,4.457-2.995,5.456
	c-1.351-4.075-2.581-7.51-4.049-11.311c0.832-0.898,2.185-1.995,3.187-2.671C228.083,97.412,229.081,100.461,230.51,103.199z
	 M232.894,109.217c1.899,5.882,3.543,11.533,5.197,17.894c-1.643-1.627-3.778-2.959-6.031-3.459
	c-1.008-3.674-1.927-6.785-3.024-10.283C230.412,111.857,231.874,110.767,232.894,109.217z M236.262,140.427
	c-0.891-3.957-1.831-7.837-2.829-11.628C239.138,132.121,242.893,137.476,236.262,140.427z M241.539,141.497
	c1.214,5.511,2.29,10.89,3.308,16.655c-1.62-0.421-2.841,0.075-5.12-0.655c-0.783-4.299-1.566-8.261-2.457-12.414
	C238.836,143.303,240.286,143.132,241.539,141.497z M239.852,190.202h4.046c2.559,1.041,5.351,2.221,5.786,4.925h-10.155
	C239.92,193.602,240.263,191.873,239.852,190.202z M243.947,186c-0.246-2.044-0.641-5.404-1.38-10.768
	c1-0.499,2.851-0.806,4.621-2.56c0.96,6.727,1.383,10.405,2.027,15.771C247.497,187.372,245.48,186.647,243.947,186z
	 M241.989,171.275c-0.48-3.234-0.989-6.43-1.527-9.586c0.911,0.137,1.655,0.156,2.281,0.166
	C246.482,161.926,247.612,169.146,241.989,171.275z M275.304,175.232c-0.717,5.205-1.099,8.43-1.38,10.768
	c-1.531,0.646-3.549,1.371-5.267,2.443c0.641-5.35,1.065-9.034,2.027-15.771C272.452,174.426,274.304,174.733,275.304,175.232z
	 M275.127,161.855c0.626-0.01,1.37-0.029,2.281-0.166c-0.538,3.156-1.048,6.351-1.527,9.586
	C270.31,169.166,271.341,161.927,275.127,161.855z M273.972,190.202h3.652c-0.411,1.671-0.068,3.4,0.323,4.925h-9.761
	C268.622,192.42,271.418,191.241,273.972,190.202z M273.023,158.152c1.018-5.765,2.097-11.042,3.311-16.553
	c1.254,1.636,2.702,1.805,4.268,3.586c-0.891,4.153-1.676,8.013-2.459,12.313C275.857,158.229,274.649,157.729,273.023,158.152z
	 M284.438,128.799c-0.999,3.791-1.938,7.67-2.829,11.628C274.893,137.601,278.737,132.118,284.438,128.799z M279.821,127.06
	c1.655-6.361,3.256-11.961,5.155-17.843c1.019,1.549,2.484,2.641,3.857,4.153c-1.096,3.498-1.973,6.557-2.981,10.231
	C283.596,124.102,281.462,125.436,279.821,127.06z M287.36,103.199c1.429-2.738,2.677-5.631,4.106-8.369
	c1.002,0.676,2.105,1.617,2.937,2.515c-1.468,3.801-2.869,7.749-4.219,11.823C289.184,108.169,287.132,106.81,287.36,103.199z
	 M285.531,97.923c-1.804-0.283-3.712,0.102-5.344,0.799c0.159-1.607-0.064-3.248-0.686-4.791c2.905-1.077,5.544-1.256,8.133-0.668
	C286.873,94.803,286.293,96.383,285.531,97.923z M245.327,91.746c0.302,0.884,0.602,2.107,0.618,3.575
	c0.031,2.971-1.122,5.199-1.754,6.235c-0.422-0.257-2.144-1.37-2.569-3.42C241.126,95.745,242.594,93.04,245.327,91.746z
	 M249.101,87.094c0.676-0.711,1.375-1.428,2.097-2.149c1.28-1.277,2.55-2.481,3.8-3.615c-0.056,0.788-0.043,1.952,0.325,3.289
	c0.27,0.979,0.651,1.763,0.987,2.336c-1.482,1.309-3.03,2.835-4.566,4.605c-0.6,0.692-1.161,1.377-1.684,2.051
	C249.662,91.034,249.115,89.22,249.101,87.094z M267.841,93.83c-1.939-2.503-3.786-4.552-6.1-6.7
	c-0.609-0.903-1.314-2.141-1.868-3.702c-0.696-1.963-0.896-3.709-0.938-4.952c3.72,2.668,6.841,5.446,9.866,8.836
	C268.786,89.438,268.239,91.251,267.841,93.83z M67.205,78.44h183.859c-3.796,3.301-7.266,7.024-10.201,11.019
	c-8.396-3.54-18.074-0.552-22.996,7.104c11.079,27.82,17.449,59.24,21.029,88.724c-13.269,0-10.414,0-23.525,0
	c0,8.425,0,14.443,0,22.757c-26.747-3.815-55.88-10.353-80.884-20.266c-7.618,4.888-10.685,14.505-7.117,22.953
	c-6.73,4.946-12.534,11.156-16.976,18.038c4.696,7.258,10.386,13.163,16.976,18.028c-3.571,8.412-0.478,18.151,7.117,22.953
	c25.304-9.998,53.826-16.279,80.884-19.963l-0.005,22.461c8.636,0.001,17.272,0.002,25.909,0.003
	c-1.189,47.306-10.167,111.991-31.797,166.552c6.985,10.437,18.728,12.336,27.695,8.56c4.084,5.487,8.665,10.305,13.776,14.537
	H67.205C67.205,454.645,67.205,84.289,67.205,78.44z M450.655,461.9H266.919c5.205-4.31,9.771-9.151,13.779-14.537
	c10.059,4.236,21.68,0.717,27.646-8.482c0.02-0.029,0.029-0.049,0.049-0.078c-20.239-51.051-30.467-113.598-31.797-166.552H302.5
	c0-7.488,0-14.976,0-22.464c26.936,3.667,55.49,9.929,80.884,19.963c7.586-4.796,10.693-14.529,7.117-22.953
	c6.524-4.817,12.237-10.704,16.976-18.028c-4.329-6.707-10.082-12.972-16.976-18.038c3.559-8.427,0.522-18.052-7.117-22.953
	c-25.011,9.916-54.147,16.452-80.884,20.266c0-8.773,0-14.09,0-22.757c-9.19,0-15.163,0-23.525,0c0.157-1.29,0.313-2.57,0.48-3.85
	c0,0,4.868-45.497,20.549-84.874c-4.938-7.681-14.627-10.633-22.996-7.104c-2.886-3.929-6.35-7.671-10.199-11.019h183.847V461.9z"/>
</svg>
