<?xml version="1.0" encoding="utf-8"?>
<!-- Generator: Adobe Illustrator 24.1.2, SVG Export Plug-In . SVG Version: 6.00 Build 0)  -->
<svg version="1.1" xmlns="http://www.w3.org/2000/svg" xmlns:xlink="http://www.w3.org/1999/xlink" x="0px" y="0px"
	 viewBox="0 0 1198.6 1141.9" style="enable-background:new 0 0 1198.6 1141.9;" xml:space="preserve">
<style type="text/css">
	.st0{fill-rule:evenodd;clip-rule:evenodd;fill:none;stroke:#000000;stroke-width:0.216;stroke-miterlimit:2.6131;}
	.st1{fill-rule:evenodd;clip-rule:evenodd;fill:#ED3237;}
	.st2{fill-rule:evenodd;clip-rule:evenodd;fill:#3374A9;}
	.st3{fill-rule:evenodd;clip-rule:evenodd;fill:none;stroke:#3374A9;stroke-width:0.216;stroke-miterlimit:2.6131;}
	.st4{fill-rule:evenodd;clip-rule:evenodd;fill:#FEFEFE;}
	.st5{fill-rule:evenodd;clip-rule:evenodd;}
	.st6{fill-rule:evenodd;clip-rule:evenodd;fill:#373435;}
	.st7{fill-rule:evenodd;clip-rule:evenodd;fill:none;stroke:#FF0000;stroke-width:7.9999;stroke-miterlimit:2.6131;}
</style>
<g id="Layer_1">
	<path class="st0" d="M313.6,450.9v8.5h40.2v-8.5H313.6L313.6,450.9z M273.4,459.4v-8.5h-40.2v8.5H273.4L273.4,459.4z M152.9,450.9
		v8.5h40.2v-8.5H152.9L152.9,450.9z M353.8,195.4h-40.2v-8.5h-40.2v8.5h-40.2v-8.5h-40.2v8.5h-40.2v-8.5h-48.7v59.9h8.5v59.9h-8.5
		v59.9h8.5v59.9h-8.5v59.9l19.1-0.1l1.4-0.2l2.4-0.7l1-0.4l1.9-1.1l1.7-1.4l1.4-1.5l2.1-3.4l1.3-1.6l1.5-1.4l1.5-1.1l2-1.1l1.7-0.7
		l1.6-0.5l2.4-0.4h212.7l2,0.3l2,0.5l1.7,0.7l1.8,1l1.6,1.2l1.2,1.2l1.3,1.6l1.7,2.8l0.8,1.1l1.7,1.8l0.8,0.7l1.9,1.2l2.1,0.8l2,0.5
		l1,0.1l18.9,0.1v-59.9H394v-59.9h8.5v-59.9H394v-59.9h8.5v-59.9h-48.7V195.4L353.8,195.4z M377,433.8V314.1
		c-4.9,11.4-9.3,23-13.2,34.7c-7.9,23.4-14.6,50.2-20.2,80.4l3.3,4.6H377L377,433.8z M377,293.5v-10.6l-25.4,8.3
		c-5.1,9.3-10.6,22.1-16.4,38.5c1.4,0.9,2.5,1.9,3.4,2.9c2.7,3.5,3.6,7.9,3.6,12.3c0,13.5-6.2,29-11.8,41c-2.3,4.9-4.8,9.8-7.4,14.5
		L337,420c5-26.8,11.2-51.7,18.6-74.6C361.1,328.8,368.2,311.5,377,293.5L377,293.5z M377,274.1v-4.8c-22.1-12.2-42.2-25-60.4-38.2
		c-7.8-5.7-15.7-11.8-23.5-18.6h-30.7v4.6c3.1,3.5,7,7.3,11.6,11.5c0.6-0.4,1.2-0.8,2-1.1c4.3-1.9,9.1-0.6,11.9,3.1
		c4,5.3,7.3,11,10,16.9c-0.1-1-0.3-2-0.4-3c-0.7-4.6,1.9-8.9,6.2-10.6c4.3-1.7,9.1-0.2,11.8,3.6c6.9,10,11.3,21.1,14,32.7
		c7.9,5,15.3,9.2,22.1,12.4L377,274.1L377,274.1z M377,259.7v-47.3h-70.3c5.1,4.1,10.2,8.1,15.5,12
		C338.1,236.2,356.4,247.9,377,259.7L377,259.7z M253.7,212.5h-30.7c-7.8,6.7-15.6,12.9-23.4,18.6c-19.8,14.3-41.9,28.1-66.1,41.2
		l30.9,10.1c6.9-3.4,14.4-7.6,22.6-12.7c2.7-11.5,7-22.5,13.8-32.3c2.6-3.8,7.4-5.3,11.8-3.6c4.3,1.7,6.9,6,6.2,10.7
		c-0.1,0.8-0.2,1.7-0.4,2.5c2.6-5.7,5.8-11.2,9.7-16.3c2.8-3.7,7.6-5,11.9-3.1c0.7,0.3,1.3,0.7,1.9,1.1c4.7-4.2,8.6-8,11.7-11.6
		V212.5L253.7,212.5z M209.3,212.5h-79.6V265c24.4-13.6,45.7-27.1,64.2-40.7C199.1,220.5,204.2,216.5,209.3,212.5L209.3,212.5z
		 M129.7,294.1v132.5v7.2h39.4l3.2-4.5c-5.6-30.2-12.4-57.1-20.2-80.5C146,330.2,138.5,312,129.7,294.1L129.7,294.1z M208.4,433.8
		h98.8c-16.4-1.9-32.8-2.8-49.2-2.8C241.5,431,225,431.9,208.4,433.8L208.4,433.8z M340.5,285.9c-2.9-1.5-5.9-3.1-9.1-4.9
		c0.3,2.5,0.6,5.1,0.8,7.6L340.5,285.9L340.5,285.9z M270,236.5c-2.8-2.5-5.3-4.9-7.6-7.3v28.2c1.4,1.7,2.9,3.3,4.4,4.8
		c3.1,1.3,5.8,3.3,8.1,5.8c-1.1-10.2-2.9-20.4-4.6-29.9C270,237.6,270,237,270,236.5L270,236.5z M340.1,295l-7.4,2.4
		c0,1.4,0.1,2.8,0.1,4.2c0,3.1,0,6.9-0.4,10.7C334.9,306,337.5,300.2,340.1,295L340.1,295z M253.7,257.3v-28.2
		c-2.4,2.4-4.9,4.8-7.7,7.3c0,0.6-0.1,1.2-0.2,1.8c-1.7,9.5-3.5,19.8-4.6,29.9c2.2-2.4,4.8-4.4,7.7-5.7
		C250.6,260.7,252.2,259,253.7,257.3L253.7,257.3z M185,280.7c-3.4,2-6.6,3.7-9.6,5.2l8.7,2.8C184.3,286.1,184.6,283.4,185,280.7
		L185,280.7z M183.6,297.5l-7.9-2.6c2.8,5.6,5.6,11.9,8.4,18.8c-0.5-4.3-0.6-8.7-0.6-12.2C183.6,300.3,183.6,298.9,183.6,297.5
		L183.6,297.5z M332.7,428.7l-14.7-20.2c-2.8,4.5-5.7,8.8-8.9,13c-1.2,1.6-2.9,2.8-4.7,3.4C313.7,425.9,323.1,427.2,332.7,428.7
		L332.7,428.7z M198.2,408.4l-14.8,20.4c9.7-1.6,19.2-2.8,28.5-3.8c-1.8-0.6-3.3-1.8-4.6-3.4C204,417.3,201,412.9,198.2,408.4
		L198.2,408.4z M220.2,424.1c13-1.1,25.6-1.7,37.7-1.7c12.4,0,25.2,0.6,38.4,1.8c-4.1-2.3-6-7.2-4.5-11.7c0.3-0.9,0.6-1.9,0.9-2.8
		c-1,1.7-2.1,3.5-3.1,5.1c-2.6,4.2-7.8,5.8-12.3,3.9c-4.5-1.9-6.9-6.8-5.8-11.5c0.5-1.9,0.9-3.7,1.4-5.6c-3.9,3.9-8.8,6.6-14.7,6.6
		c-6,0-10.9-2.8-14.9-6.7c0.5,1.9,0.9,3.9,1.4,5.8c1.1,4.8-1.3,9.6-5.8,11.5c-4.5,1.9-9.6,0.3-12.3-3.9c-1-1.5-1.9-3.1-2.9-4.7
		c0.3,0.8,0.5,1.6,0.8,2.3C226.1,416.9,224.2,421.7,220.2,424.1L220.2,424.1z M180.9,330c-5.9-16.5-11.4-29.5-16.5-38.8l-31.8-10.4
		c11.7,22.6,21,44.2,27.7,64.7c7.4,22.9,13.7,47.8,18.7,74.6l14.5-19.9c-2.6-4.7-5-9.4-7.3-14.2c-5.7-12.1-11.9-27.5-11.9-41.1
		c0-4.3,0.9-8.7,3.6-12.2C178.6,331.8,179.6,330.9,180.9,330L180.9,330z M332.2,345c0,9.1-3.6,21.4-10.9,36.8
		c-6.2,13.1-12.8,24.4-20,33.8c11.7-35.6,17.5-56.9,17.5-64c0-2.2-0.3-3.8-0.9-4.9c-1.3-2.3-6.7-4.8-16.1-7.5c1.5,3.1,2.3,6,2.3,8.7
		c0,16.8-7.6,37.4-22.9,61.7c2.4-9.7,4.7-19.4,7.1-29.2c2.7-12.3,4-22.1,4-29.3c0-5.4-0.7-9.2-2.1-11.2c-1.2-1.8-4.5-4.1-9.8-6.8
		c0.8,4.6,1.2,9.7,1.2,15.2c0,6.7-0.8,13.2-2.4,19.6c-1.6,6.3-4,12.5-7.2,18.4c-4.5,8-9.1,12.1-13.8,12.1c-4.8,0-9.4-4-13.9-12.1
		c-3.3-5.9-5.7-12-7.3-18.4c-1.6-6.4-2.4-12.9-2.4-19.6c0-5.5,0.4-10.6,1.1-15.2c-5.2,2.7-8.5,5-9.7,6.8c-1.4,2-2,5.8-2,11.2
		c0,7.2,1.3,17,4,29.3c2.4,9.8,4.7,19.5,7.1,29.2c-15.2-24.3-22.9-44.8-22.9-61.7c0-2.7,0.8-5.6,2.4-8.7c-9.5,2.7-14.9,5.2-16.1,7.5
		c-0.6,1.1-1,2.7-1,4.9c0,7.3,5.9,28.6,17.6,64c-7.1-9.3-13.8-20.6-20.1-33.7c-7.3-15.4-10.9-27.7-10.9-36.8c0-2.8,0.5-4.9,1.5-6.2
		c2-2.6,19.8-8.3,53.3-16.9l0.5-1.1c-14.6,1.3-25.6,1.9-33.1,1.9c-4.9,0-7.8-0.3-8.9-1c-2.7-1.5-4-8.2-4-20.1
		c0-24.1,5.2-43.7,15.5-58.7c-3.5,24.1-5.2,40.7-5.2,50c0,11.1,1.6,17.8,4.7,20.3c1.2,0.9,3.7,1.4,7.5,1.4c3,0,6.1-0.2,9.1-0.7
		c-4.4-4.3-6.6-10-6.6-17c0-24.6,5.9-44.7,17.7-60.4c-3.9,21.5-5.9,38.4-5.9,50.7c0,13.7,1.3,21.4,3.7,23c1.1,0.7,2.9,1.1,5.6,1.1
		c3.3,0,7.5-0.4,12.7-1.3c-6.2-3.6-9.3-9.8-9.3-18.9c0-5,1.2-9.5,3.7-13.5c2.9-4.7,6.7-7,11.4-7c4.7,0,8.5,2.3,11.4,6.9
		c2.5,4,3.8,8.6,3.8,13.6c0,9-3.1,15.3-9.3,18.9c5.2,0.9,9.5,1.3,12.6,1.3c2.7,0,4.6-0.4,5.7-1.1c2.5-1.6,3.7-9.3,3.7-23
		c0-12.1-2-29-6-50.7c11.8,15.7,17.8,35.8,17.8,60.4c0,7-2.2,12.7-6.6,17c3,0.4,6.1,0.7,9.1,0.7c3.8,0,6.3-0.5,7.5-1.4
		c3.2-2.4,4.7-9.2,4.7-20.3c0-9.2-1.7-25.8-5.1-50c10.4,15.1,15.6,34.7,15.6,58.7c0,11.9-1.4,18.6-4.1,20.1c-1,0.7-3.9,1-8.8,1
		c-7.5,0-18.6-0.7-33.3-2l0.5,1.1c33.6,8.7,51.5,14.4,53.5,16.9C331.6,340.1,332.2,342.2,332.2,345z"/>
	<rect x="133.8" y="857.9" class="st1" width="141.7" height="141.7"/>
	<path class="st2" d="M305.8,940.6l-0.1-1.1c0.5-0.1,0.9-0.3,1.2-0.6c0.3-0.3,0.4-0.7,0.4-1.1c0-0.5-0.2-0.9-0.6-1.3
		c-0.4-0.3-0.9-0.5-1.5-0.5c-0.6,0-1.1,0.2-1.4,0.5c-0.3,0.3-0.5,0.8-0.5,1.3c0,0.3,0.1,0.6,0.2,0.9c0.2,0.3,0.4,0.5,0.6,0.6l-0.1,1
		l-4.4-0.8v-4.3h1v3.4l2.3,0.5c-0.4-0.5-0.5-1.1-0.5-1.6c0-0.7,0.3-1.4,0.8-1.9c0.5-0.5,1.2-0.8,2-0.8c0.8,0,1.4,0.2,2,0.7
		c0.7,0.5,1,1.3,1,2.3c0,0.8-0.2,1.4-0.7,1.9C307.1,940.2,306.6,940.5,305.8,940.6L305.8,940.6z M305.8,926.2l0.1-1
		c0.7,0.1,1.3,0.4,1.7,0.9c0.4,0.5,0.6,1,0.6,1.7c0,0.9-0.3,1.5-0.8,2.1c-0.6,0.5-1.4,0.8-2.4,0.8c-0.7,0-1.3-0.1-1.8-0.3
		c-0.5-0.2-0.9-0.6-1.1-1c-0.3-0.5-0.4-0.9-0.4-1.5c0-0.7,0.2-1.2,0.5-1.7c0.3-0.4,0.8-0.7,1.5-0.8l0.2,1c-0.4,0.1-0.7,0.3-0.9,0.5
		c-0.2,0.2-0.3,0.5-0.3,0.9c0,0.5,0.2,1,0.6,1.3c0.4,0.3,1,0.5,1.8,0.5c0.8,0,1.4-0.2,1.8-0.5c0.4-0.3,0.6-0.7,0.6-1.3
		c0-0.4-0.1-0.8-0.4-1C306.7,926.5,306.3,926.3,305.8,926.2L305.8,926.2z M308.1,924.3h-6.2v-0.9h0.9c-0.3-0.2-0.6-0.5-0.7-0.8
		c-0.2-0.3-0.3-0.7-0.3-1.1c0-0.5,0.1-0.8,0.3-1.1c0.2-0.3,0.5-0.5,0.8-0.6c-0.7-0.5-1.1-1.1-1.1-1.9c0-0.6,0.2-1.1,0.5-1.4
		c0.3-0.3,0.9-0.5,1.6-0.5h4.3v1.1h-3.9c-0.4,0-0.7,0-0.9,0.1c-0.2,0.1-0.3,0.2-0.4,0.4c-0.1,0.2-0.2,0.4-0.2,0.6
		c0,0.4,0.1,0.8,0.4,1.1c0.3,0.3,0.8,0.4,1.4,0.4h3.6v1.1h-4c-0.5,0-0.8,0.1-1.1,0.3c-0.2,0.2-0.4,0.5-0.4,0.8
		c0,0.3,0.1,0.6,0.2,0.8c0.2,0.3,0.4,0.4,0.7,0.5c0.3,0.1,0.7,0.2,1.3,0.2h3.2V924.3z"/>
	<line class="st3" x1="133.8" y1="857.9" x2="310.9" y2="857.9"/>
	<line class="st3" x1="133.8" y1="999.6" x2="310.9" y2="999.6"/>
	<line class="st3" x1="303.9" y1="912.2" x2="303.9" y2="857.9"/>
	<line class="st3" x1="303.9" y1="999.6" x2="303.9" y2="944.3"/>
	<line class="st3" x1="275.5" y1="857.9" x2="275.5" y2="1035"/>
	<line class="st3" x1="133.8" y1="857.9" x2="133.8" y2="1035"/>
	<line class="st3" x1="221.2" y1="1027.9" x2="275.5" y2="1027.9"/>
	<line class="st3" x1="133.8" y1="1027.9" x2="189.1" y2="1027.9"/>
	<path class="st2" d="M192.8,1029.9l1.1-0.1c0.1,0.5,0.3,0.9,0.6,1.2c0.3,0.3,0.7,0.4,1.1,0.4c0.5,0,0.9-0.2,1.3-0.6
		c0.3-0.4,0.5-0.9,0.5-1.5c0-0.6-0.2-1.1-0.5-1.4c-0.3-0.3-0.8-0.5-1.3-0.5c-0.3,0-0.6,0.1-0.9,0.2c-0.3,0.2-0.5,0.4-0.6,0.6l-1-0.1
		l0.8-4.4h4.3v1h-3.4l-0.5,2.3c0.5-0.4,1.1-0.5,1.6-0.5c0.7,0,1.4,0.3,1.9,0.8c0.5,0.5,0.8,1.2,0.8,2c0,0.8-0.2,1.4-0.7,2
		c-0.5,0.7-1.3,1-2.3,1c-0.8,0-1.4-0.2-1.9-0.7C193.1,1031.2,192.8,1030.7,192.8,1029.9L192.8,1029.9z M207.1,1029.9l1,0.1
		c-0.1,0.7-0.4,1.3-0.9,1.7c-0.5,0.4-1,0.6-1.7,0.6c-0.9,0-1.5-0.3-2.1-0.8c-0.5-0.6-0.8-1.4-0.8-2.4c0-0.7,0.1-1.3,0.3-1.8
		c0.2-0.5,0.6-0.9,1-1.1c0.5-0.3,0.9-0.4,1.5-0.4c0.7,0,1.2,0.2,1.7,0.5c0.4,0.3,0.7,0.8,0.8,1.5l-1,0.2c-0.1-0.4-0.3-0.7-0.5-0.9
		c-0.2-0.2-0.5-0.3-0.9-0.3c-0.5,0-1,0.2-1.3,0.6c-0.3,0.4-0.5,1-0.5,1.8c0,0.8,0.2,1.4,0.5,1.8c0.3,0.4,0.7,0.6,1.3,0.6
		c0.4,0,0.8-0.1,1-0.4C206.9,1030.8,207.1,1030.4,207.1,1029.9L207.1,1029.9z M209.1,1032.2v-6.2h0.9v0.9c0.2-0.3,0.5-0.6,0.8-0.7
		c0.3-0.2,0.7-0.3,1.1-0.3c0.5,0,0.8,0.1,1.1,0.3c0.3,0.2,0.5,0.5,0.6,0.8c0.5-0.7,1.1-1.1,1.9-1.1c0.6,0,1.1,0.2,1.4,0.5
		c0.3,0.3,0.5,0.9,0.5,1.6v4.3h-1.1v-3.9c0-0.4,0-0.7-0.1-0.9c-0.1-0.2-0.2-0.3-0.4-0.4c-0.2-0.1-0.4-0.2-0.6-0.2
		c-0.4,0-0.8,0.1-1.1,0.4c-0.3,0.3-0.4,0.8-0.4,1.4v3.6h-1.1v-4c0-0.5-0.1-0.8-0.3-1.1c-0.2-0.2-0.5-0.4-0.8-0.4
		c-0.3,0-0.6,0.1-0.8,0.2s-0.4,0.4-0.5,0.7c-0.1,0.3-0.2,0.7-0.2,1.3v3.2H209.1z"/>
	<path class="st2" d="M373.9,944.6h1v5.7c-0.3,0-0.5,0-0.7-0.1c-0.4-0.1-0.8-0.4-1.1-0.7c-0.4-0.3-0.8-0.8-1.3-1.4
		c-0.8-0.9-1.4-1.6-1.8-1.9c-0.4-0.3-0.9-0.5-1.3-0.5c-0.4,0-0.8,0.2-1.1,0.4c-0.3,0.3-0.4,0.7-0.4,1.2c0,0.5,0.2,0.9,0.5,1.2
		c0.3,0.3,0.7,0.5,1.3,0.5l-0.1,1.1c-0.8-0.1-1.4-0.4-1.8-0.8c-0.4-0.5-0.6-1.1-0.6-2c0-0.8,0.2-1.5,0.7-2c0.5-0.5,1-0.7,1.7-0.7
		c0.3,0,0.7,0.1,1,0.2c0.3,0.1,0.7,0.4,1.1,0.7c0.4,0.3,0.9,0.9,1.5,1.6c0.5,0.6,0.9,1,1.1,1.2c0.2,0.2,0.4,0.3,0.6,0.4V944.6
		L373.9,944.6z M367.5,939.9h-1.2v-1.1h1.2V939.9L367.5,939.9z M374.9,939.9h-6.2v-1.1h6.2V939.9L374.9,939.9z M374.9,937.2h-6.2
		v-0.9h0.9c-0.7-0.5-1-1.1-1-2c0-0.4,0.1-0.7,0.2-1c0.1-0.3,0.3-0.5,0.5-0.7c0.2-0.2,0.5-0.3,0.8-0.3c0.2,0,0.5-0.1,1-0.1h3.8v1.1
		h-3.8c-0.4,0-0.8,0-1,0.1c-0.2,0.1-0.4,0.2-0.5,0.4c-0.1,0.2-0.2,0.5-0.2,0.7c0,0.4,0.1,0.8,0.4,1.2c0.3,0.3,0.8,0.5,1.6,0.5h3.4
		V937.2L374.9,937.2z M372.6,926.5l0.1-1c0.7,0.1,1.3,0.4,1.7,0.9c0.4,0.5,0.6,1,0.6,1.7c0,0.9-0.3,1.5-0.8,2
		c-0.6,0.5-1.4,0.8-2.4,0.8c-0.7,0-1.3-0.1-1.8-0.3c-0.5-0.2-0.9-0.6-1.1-1c-0.3-0.5-0.4-0.9-0.4-1.5c0-0.7,0.2-1.2,0.5-1.7
		c0.3-0.4,0.8-0.7,1.5-0.8l0.2,1c-0.4,0.1-0.7,0.3-0.9,0.5c-0.2,0.2-0.3,0.5-0.3,0.9c0,0.5,0.2,1,0.6,1.3c0.4,0.3,1,0.5,1.8,0.5
		c0.8,0,1.4-0.2,1.8-0.5c0.4-0.3,0.6-0.7,0.6-1.3c0-0.4-0.1-0.8-0.4-1C373.6,926.7,373.2,926.5,372.6,926.5L372.6,926.5z
		 M374.9,924.5h-8.6v-1.1h3.1c-0.6-0.5-0.9-1.1-0.9-1.9c0-0.5,0.1-0.9,0.3-1.2c0.2-0.3,0.4-0.6,0.8-0.7c0.3-0.1,0.8-0.2,1.4-0.2h3.9
		v1.1H371c-0.5,0-0.9,0.1-1.1,0.3c-0.2,0.2-0.4,0.5-0.4,1c0,0.3,0.1,0.6,0.2,0.9c0.2,0.3,0.4,0.5,0.7,0.6c0.3,0.1,0.7,0.2,1.1,0.2
		h3.4V924.5L374.9,924.5z M372.9,913.6l0.1-1.1c0.6,0.2,1.1,0.5,1.5,1c0.4,0.5,0.5,1.1,0.5,1.8c0,0.9-0.3,1.6-0.8,2.2
		c-0.6,0.5-1.3,0.8-2.4,0.8c-1,0-1.9-0.3-2.4-0.8c-0.6-0.5-0.9-1.2-0.9-2.1c0-0.8,0.3-1.5,0.8-2c0.6-0.5,1.4-0.8,2.4-0.8
		c0.1,0,0.2,0,0.3,0v4.6c0.7,0,1.2-0.2,1.6-0.6c0.4-0.3,0.5-0.8,0.5-1.3c0-0.4-0.1-0.7-0.3-1C373.7,914,373.4,913.8,372.9,913.6
		L372.9,913.6z M371.2,917.1v-3.5c-0.5,0-0.9,0.2-1.2,0.4c-0.4,0.3-0.6,0.8-0.6,1.3c0,0.5,0.2,0.9,0.5,1.2
		C370.2,916.9,370.7,917,371.2,917.1L371.2,917.1z M373.1,911.6l-0.2-1c0.4-0.1,0.7-0.2,1-0.5c0.2-0.3,0.3-0.6,0.3-1.1
		c0-0.5-0.1-0.8-0.3-1.1c-0.2-0.2-0.4-0.4-0.7-0.4c-0.2,0-0.4,0.1-0.6,0.3c-0.1,0.1-0.2,0.5-0.4,1.1c-0.2,0.8-0.4,1.3-0.5,1.6
		c-0.1,0.3-0.3,0.5-0.6,0.7c-0.3,0.2-0.5,0.2-0.8,0.2c-0.3,0-0.5-0.1-0.8-0.2c-0.2-0.1-0.4-0.3-0.6-0.5c-0.1-0.2-0.2-0.4-0.3-0.7
		c-0.1-0.3-0.1-0.6-0.1-0.9c0-0.5,0.1-0.9,0.2-1.3c0.1-0.4,0.3-0.6,0.6-0.8c0.2-0.2,0.6-0.3,1-0.4l0.1,1c-0.3,0-0.6,0.2-0.8,0.4
		c-0.2,0.2-0.3,0.5-0.3,0.9c0,0.5,0.1,0.8,0.2,1c0.2,0.2,0.3,0.3,0.6,0.3c0.1,0,0.3,0,0.4-0.1c0.1-0.1,0.2-0.2,0.3-0.4
		c0-0.1,0.1-0.4,0.3-0.9c0.2-0.7,0.4-1.3,0.5-1.6c0.1-0.3,0.3-0.5,0.6-0.7c0.2-0.2,0.5-0.3,0.9-0.3c0.4,0,0.7,0.1,1,0.3
		c0.3,0.2,0.5,0.5,0.7,0.9c0.2,0.4,0.3,0.8,0.3,1.3c0,0.8-0.2,1.4-0.5,1.8C374.2,911.2,373.7,911.5,373.1,911.6z"/>
	<line class="st3" x1="200.5" y1="857.9" x2="377.7" y2="857.9"/>
	<line class="st3" x1="200.5" y1="999.6" x2="377.7" y2="999.6"/>
	<line class="st3" x1="370.6" y1="902.8" x2="370.6" y2="857.9"/>
	<line class="st3" x1="370.6" y1="999.6" x2="370.6" y2="954"/>
	<line class="st3" x1="275.5" y1="913" x2="275.5" y2="1090.1"/>
	<line class="st3" x1="133.8" y1="913" x2="133.8" y2="1090.1"/>
	<line class="st3" x1="230.6" y1="1083.1" x2="275.5" y2="1083.1"/>
	<line class="st3" x1="133.8" y1="1083.1" x2="179.4" y2="1083.1"/>
	<path class="st2" d="M188.7,1086.4v1H183c0-0.3,0-0.5,0.1-0.7c0.1-0.4,0.4-0.8,0.7-1.1c0.3-0.4,0.8-0.8,1.4-1.3
		c0.9-0.8,1.6-1.4,1.9-1.8c0.3-0.4,0.5-0.9,0.5-1.3c0-0.4-0.2-0.8-0.4-1.1c-0.3-0.3-0.7-0.4-1.2-0.4c-0.5,0-0.9,0.2-1.2,0.5
		c-0.3,0.3-0.5,0.7-0.5,1.3l-1.1-0.1c0.1-0.8,0.4-1.4,0.8-1.8c0.5-0.4,1.1-0.6,2-0.6c0.8,0,1.5,0.2,2,0.7c0.5,0.5,0.7,1,0.7,1.7
		c0,0.3-0.1,0.7-0.2,1c-0.1,0.3-0.4,0.7-0.7,1.1c-0.3,0.4-0.9,0.9-1.6,1.5c-0.6,0.5-1,0.9-1.2,1.1c-0.2,0.2-0.3,0.4-0.4,0.6H188.7
		L188.7,1086.4z M193.5,1080v-1.2h1.1v1.2H193.5L193.5,1080z M193.5,1087.4v-6.2h1.1v6.2H193.5L193.5,1087.4z M196.2,1087.4v-6.2
		h0.9v0.9c0.5-0.7,1.1-1,2-1c0.4,0,0.7,0.1,1,0.2c0.3,0.1,0.5,0.3,0.7,0.5c0.2,0.2,0.3,0.5,0.3,0.8c0,0.2,0.1,0.5,0.1,1v3.8h-1.1
		v-3.8c0-0.4,0-0.8-0.1-1c-0.1-0.2-0.2-0.4-0.4-0.5c-0.2-0.1-0.5-0.2-0.7-0.2c-0.4,0-0.8,0.1-1.2,0.4c-0.3,0.3-0.5,0.8-0.5,1.6v3.4
		H196.2L196.2,1087.4z M206.9,1085.1l1,0.1c-0.1,0.7-0.4,1.3-0.9,1.7s-1,0.6-1.7,0.6c-0.9,0-1.5-0.3-2-0.8c-0.5-0.6-0.8-1.4-0.8-2.4
		c0-0.7,0.1-1.3,0.3-1.8c0.2-0.5,0.6-0.9,1-1.1c0.5-0.3,0.9-0.4,1.5-0.4c0.7,0,1.2,0.2,1.7,0.5c0.4,0.3,0.7,0.8,0.8,1.5l-1,0.2
		c-0.1-0.4-0.3-0.7-0.5-0.9c-0.2-0.2-0.5-0.3-0.9-0.3c-0.5,0-1,0.2-1.3,0.6c-0.3,0.4-0.5,1-0.5,1.8c0,0.8,0.2,1.4,0.5,1.8
		c0.3,0.4,0.7,0.6,1.3,0.6c0.4,0,0.8-0.1,1-0.4C206.7,1086,206.8,1085.6,206.9,1085.1L206.9,1085.1z M208.8,1087.4v-8.6h1.1v3.1
		c0.5-0.6,1.1-0.9,1.9-0.9c0.5,0,0.9,0.1,1.2,0.3c0.3,0.2,0.6,0.4,0.7,0.8c0.1,0.3,0.2,0.8,0.2,1.4v3.9h-1.1v-3.9
		c0-0.5-0.1-0.9-0.3-1.1c-0.2-0.2-0.5-0.4-1-0.4c-0.3,0-0.6,0.1-0.9,0.2c-0.3,0.2-0.5,0.4-0.6,0.7c-0.1,0.3-0.2,0.7-0.2,1.1v3.4
		H208.8L208.8,1087.4z M219.8,1085.4l1.1,0.1c-0.2,0.6-0.5,1.1-1,1.5c-0.5,0.3-1.1,0.5-1.8,0.5c-0.9,0-1.6-0.3-2.2-0.8
		c-0.5-0.6-0.8-1.3-0.8-2.4c0-1,0.3-1.9,0.8-2.4c0.5-0.6,1.2-0.9,2.1-0.9c0.8,0,1.5,0.3,2,0.8c0.5,0.6,0.8,1.4,0.8,2.4
		c0,0.1,0,0.2,0,0.3h-4.6c0,0.7,0.2,1.2,0.6,1.6c0.3,0.4,0.8,0.5,1.3,0.5c0.4,0,0.7-0.1,1-0.3
		C219.4,1086.1,219.6,1085.8,219.8,1085.4L219.8,1085.4z M216.3,1083.7h3.5c0-0.5-0.2-0.9-0.4-1.2c-0.3-0.4-0.8-0.6-1.3-0.6
		c-0.5,0-0.9,0.2-1.2,0.5C216.5,1082.7,216.3,1083.1,216.3,1083.7L216.3,1083.7z M221.8,1085.5l1-0.2c0.1,0.4,0.2,0.7,0.5,1
		c0.3,0.2,0.6,0.3,1.1,0.3c0.5,0,0.8-0.1,1.1-0.3c0.2-0.2,0.4-0.4,0.4-0.7c0-0.2-0.1-0.4-0.3-0.6c-0.1-0.1-0.5-0.2-1.1-0.4
		c-0.8-0.2-1.3-0.4-1.6-0.5c-0.3-0.1-0.5-0.3-0.7-0.6c-0.2-0.3-0.2-0.5-0.2-0.8c0-0.3,0.1-0.5,0.2-0.8c0.1-0.2,0.3-0.4,0.5-0.6
		c0.2-0.1,0.4-0.2,0.7-0.3c0.3-0.1,0.6-0.1,0.9-0.1c0.5,0,0.9,0.1,1.3,0.2c0.4,0.1,0.6,0.3,0.8,0.6c0.2,0.2,0.3,0.6,0.4,1l-1,0.1
		c0-0.3-0.2-0.6-0.4-0.8c-0.2-0.2-0.5-0.3-0.9-0.3c-0.5,0-0.8,0.1-1,0.2c-0.2,0.2-0.3,0.3-0.3,0.6c0,0.1,0,0.3,0.1,0.4
		c0.1,0.1,0.2,0.2,0.4,0.3c0.1,0,0.4,0.1,0.9,0.3c0.7,0.2,1.3,0.4,1.6,0.5c0.3,0.1,0.5,0.3,0.7,0.6c0.2,0.2,0.3,0.5,0.3,0.9
		c0,0.4-0.1,0.7-0.3,1c-0.2,0.3-0.5,0.5-0.9,0.7c-0.4,0.2-0.8,0.3-1.3,0.3c-0.8,0-1.4-0.2-1.8-0.5
		C222.2,1086.7,221.9,1086.2,221.8,1085.5z"/>
	<path class="st4" d="M181.2,918.4l3.4-0.3c0.2,1.1,0.6,2,1.2,2.5c0.6,0.5,1.5,0.8,2.5,0.8c1.1,0,2-0.2,2.5-0.7
		c0.6-0.5,0.8-1,0.8-1.7c0-0.4-0.1-0.8-0.4-1c-0.2-0.3-0.7-0.5-1.2-0.7c-0.4-0.1-1.3-0.4-2.8-0.8c-1.9-0.5-3.2-1-3.9-1.7
		c-1.1-0.9-1.6-2.1-1.6-3.5c0-0.9,0.2-1.7,0.7-2.5c0.5-0.8,1.2-1.3,2.1-1.7c0.9-0.4,2.1-0.6,3.4-0.6c2.1,0,3.8,0.5,4.9,1.4
		c1.1,1,1.7,2.2,1.7,3.8l-3.5,0.1c-0.1-0.9-0.5-1.5-0.9-1.9c-0.5-0.4-1.2-0.6-2.2-0.6c-1,0-1.8,0.2-2.3,0.6
		c-0.4,0.3-0.5,0.6-0.5,1.1c0,0.4,0.2,0.8,0.5,1c0.4,0.4,1.5,0.8,3.2,1.2c1.7,0.4,2.9,0.8,3.7,1.2c0.8,0.4,1.4,1,1.9,1.7
		c0.5,0.7,0.7,1.7,0.7,2.7c0,1-0.3,1.9-0.8,2.8c-0.5,0.9-1.3,1.5-2.3,1.9c-1,0.4-2.2,0.6-3.7,0.6c-2.2,0-3.8-0.5-5-1.5
		C182.1,921.7,181.4,920.3,181.2,918.4L181.2,918.4z M198.1,909.8v-3h3.3v3H198.1L198.1,909.8z M198.1,923.9v-12.5h3.3v12.5H198.1
		L198.1,923.9z M203.4,923.9v-2.6l4.7-5.3c0.8-0.9,1.3-1.5,1.7-1.9c-0.4,0-0.9,0-1.5,0l-4.4,0v-2.7h10.3v2.3l-4.8,5.5l-1.7,1.8
		c0.9,0,1.5-0.1,1.7-0.1h5.1v2.9H203.4L203.4,923.9z M224,920l3.3,0.6c-0.4,1.2-1.1,2.1-2,2.8c-0.9,0.6-2.1,0.9-3.4,0.9
		c-2.2,0-3.8-0.7-4.8-2.1c-0.8-1.1-1.2-2.6-1.2-4.3c0-2.1,0.5-3.7,1.6-4.9c1.1-1.2,2.4-1.8,4.1-1.8c1.8,0,3.3,0.6,4.4,1.8
		c1.1,1.2,1.6,3.1,1.5,5.6h-8.2c0,1,0.3,1.7,0.8,2.3c0.5,0.5,1.1,0.8,1.9,0.8c0.5,0,0.9-0.1,1.3-0.4
		C223.5,921.1,223.8,920.6,224,920L224,920z M224.2,916.7c0-1-0.3-1.7-0.7-2.2c-0.5-0.5-1-0.7-1.7-0.7c-0.7,0-1.3,0.3-1.8,0.8
		c-0.5,0.5-0.7,1.2-0.7,2.1H224.2L224.2,916.7z M155.2,950.7h-3.3v-12.5h3v1.8c0.5-0.8,1-1.4,1.4-1.6c0.4-0.3,0.9-0.4,1.4-0.4
		c0.8,0,1.5,0.2,2.2,0.6l-1,2.9c-0.6-0.4-1.1-0.5-1.5-0.5c-0.5,0-0.9,0.1-1.2,0.4c-0.3,0.3-0.6,0.7-0.8,1.4
		c-0.2,0.7-0.3,2.1-0.3,4.2V950.7L155.2,950.7z M168.6,946.8l3.3,0.6c-0.4,1.2-1.1,2.1-2,2.8c-0.9,0.6-2.1,0.9-3.4,0.9
		c-2.2,0-3.8-0.7-4.8-2.1c-0.8-1.1-1.2-2.6-1.2-4.3c0-2.1,0.5-3.7,1.6-4.9c1.1-1.2,2.4-1.8,4.1-1.8c1.8,0,3.3,0.6,4.4,1.8
		c1.1,1.2,1.6,3.1,1.5,5.6h-8.2c0,1,0.3,1.7,0.8,2.3c0.5,0.5,1.1,0.8,1.9,0.8c0.5,0,0.9-0.1,1.3-0.4
		C168.2,947.9,168.4,947.4,168.6,946.8L168.6,946.8z M168.8,943.5c0-1-0.3-1.7-0.7-2.2c-0.5-0.5-1-0.7-1.7-0.7
		c-0.7,0-1.3,0.3-1.8,0.8c-0.5,0.5-0.7,1.2-0.7,2.1H168.8L168.8,943.5z M173.3,938.3h1.8v-0.9c0-1,0.1-1.8,0.3-2.3
		c0.2-0.5,0.6-0.9,1.2-1.3c0.6-0.3,1.4-0.5,2.3-0.5c0.9,0,1.9,0.1,2.8,0.4l-0.4,2.3c-0.5-0.1-1.1-0.2-1.5-0.2c-0.5,0-0.8,0.1-1,0.3
		c-0.2,0.2-0.3,0.7-0.3,1.3v0.9h2.5v2.6h-2.5v9.9h-3.3v-9.9h-1.8V938.3L173.3,938.3z M189.9,946.8l3.3,0.6c-0.4,1.2-1.1,2.1-2,2.8
		c-0.9,0.6-2.1,0.9-3.4,0.9c-2.2,0-3.8-0.7-4.8-2.1c-0.8-1.1-1.2-2.6-1.2-4.3c0-2.1,0.5-3.7,1.6-4.9c1.1-1.2,2.4-1.8,4.1-1.8
		c1.8,0,3.3,0.6,4.4,1.8c1.1,1.2,1.6,3.1,1.5,5.6h-8.2c0,1,0.3,1.7,0.8,2.3c0.5,0.5,1.1,0.8,1.9,0.8c0.5,0,0.9-0.1,1.3-0.4
		C189.5,947.9,189.8,947.4,189.9,946.8L189.9,946.8z M190.1,943.5c0-1-0.3-1.7-0.7-2.2c-0.5-0.5-1-0.7-1.7-0.7
		c-0.7,0-1.3,0.3-1.8,0.8c-0.5,0.5-0.7,1.2-0.7,2.1H190.1L190.1,943.5z M199.2,950.7h-3.3v-12.5h3v1.8c0.5-0.8,1-1.4,1.4-1.6
		c0.4-0.3,0.9-0.4,1.4-0.4c0.8,0,1.5,0.2,2.2,0.6l-1,2.9c-0.6-0.4-1.1-0.5-1.5-0.5c-0.5,0-0.9,0.1-1.2,0.4c-0.3,0.3-0.6,0.7-0.8,1.4
		c-0.2,0.7-0.3,2.1-0.3,4.2V950.7L199.2,950.7z M212.6,946.8l3.3,0.6c-0.4,1.2-1.1,2.1-2,2.8c-0.9,0.6-2.1,0.9-3.4,0.9
		c-2.2,0-3.8-0.7-4.8-2.1c-0.8-1.1-1.2-2.6-1.2-4.3c0-2.1,0.5-3.7,1.6-4.9c1.1-1.2,2.4-1.8,4.1-1.8c1.8,0,3.3,0.6,4.4,1.8
		c1.1,1.2,1.6,3.1,1.5,5.6h-8.2c0,1,0.3,1.7,0.8,2.3c0.5,0.5,1.1,0.8,1.9,0.8c0.5,0,0.9-0.1,1.3-0.4
		C212.2,947.9,212.4,947.4,212.6,946.8L212.6,946.8z M212.8,943.5c0-1-0.3-1.7-0.7-2.2c-0.5-0.5-1-0.7-1.7-0.7
		c-0.7,0-1.3,0.3-1.8,0.8c-0.5,0.5-0.7,1.2-0.7,2.1H212.8L212.8,943.5z M230.1,950.7h-3.3v-6.3c0-1.3-0.1-2.2-0.2-2.6
		c-0.1-0.4-0.4-0.7-0.7-0.9c-0.3-0.2-0.7-0.3-1.2-0.3c-0.6,0-1.1,0.2-1.5,0.5c-0.5,0.3-0.8,0.7-0.9,1.2c-0.2,0.5-0.3,1.5-0.3,2.9
		v5.6h-3.3v-12.5h3v1.8c1.1-1.4,2.5-2.1,4.1-2.1c0.7,0,1.4,0.1,2,0.4c0.6,0.3,1.1,0.6,1.4,1c0.3,0.4,0.5,0.9,0.6,1.4
		c0.1,0.5,0.2,1.3,0.2,2.2V950.7L230.1,950.7z M244.3,942l-3.2,0.6c-0.1-0.6-0.4-1.1-0.7-1.5c-0.4-0.3-0.9-0.5-1.5-0.5
		c-0.8,0-1.5,0.3-2,0.9c-0.5,0.6-0.7,1.5-0.7,2.8c0,1.5,0.2,2.5,0.7,3.1c0.5,0.6,1.2,0.9,2,0.9c0.6,0,1.1-0.2,1.5-0.5
		c0.4-0.4,0.7-1,0.8-1.8l3.2,0.6c-0.3,1.5-1,2.6-1.9,3.4c-1,0.8-2.2,1.1-3.8,1.1c-1.8,0-3.3-0.6-4.3-1.7c-1.1-1.2-1.6-2.7-1.6-4.8
		c0-2.1,0.5-3.7,1.6-4.8c1.1-1.1,2.6-1.7,4.4-1.7c1.5,0,2.7,0.3,3.6,1C243.3,939.7,243.9,940.6,244.3,942L244.3,942z M254,946.8
		l3.3,0.6c-0.4,1.2-1.1,2.1-2,2.8c-0.9,0.6-2.1,0.9-3.4,0.9c-2.2,0-3.8-0.7-4.8-2.1c-0.8-1.1-1.2-2.6-1.2-4.3c0-2.1,0.5-3.7,1.6-4.9
		c1.1-1.2,2.4-1.8,4.1-1.8c1.8,0,3.3,0.6,4.4,1.8c1.1,1.2,1.6,3.1,1.5,5.6h-8.2c0,1,0.3,1.7,0.8,2.3c0.5,0.5,1.1,0.8,1.9,0.8
		c0.5,0,0.9-0.1,1.3-0.4C253.5,947.9,253.8,947.4,254,946.8L254,946.8z M254.2,943.5c0-1-0.3-1.7-0.7-2.2c-0.5-0.5-1-0.7-1.7-0.7
		c-0.7,0-1.3,0.3-1.8,0.8c-0.5,0.5-0.7,1.2-0.7,2.1H254.2z"/>
	<rect x="329.6" y="138.6" class="st5" width="539.4" height="3.9"/>
	<path class="st6" d="M449,110.9V48.5c0-2,0.7-3.7,2.1-5.2c1.4-1.4,3.1-2.1,5.2-2.1h7.1v56.7h34v13H449L449,110.9z M530.8,83.9
		c-1.9,1-4.5,1.8-7.9,2.6c-3.1,0.7-4.7,1-4.7,1c-2.4,0.7-4.2,1.6-5.3,2.6c-0.9,1.5-1.4,3-1.4,4.5c0,2,0.6,3.6,1.8,4.9
		c1.2,1.1,3,1.6,5.3,1.6c3.8,0,6.8-1.1,8.9-3.2c2.2-2.2,3.2-5.1,3.2-8.9V83.9L530.8,83.9z M534,108.7c-2.8,1.5-5.8,2.4-9,2.7
		c-3.2,0.3-6,0.5-8.4,0.5c-4.9,0-9.1-1.3-12.8-4c-3.6-2.6-5.5-7-5.5-13.1c0-5.7,1.7-9.7,5-12.2c3.3-2.4,7.5-4.1,12.7-4.9
		c0.7,0,1.5-0.1,2.4-0.3c0.9-0.2,2-0.4,3.2-0.5c5.9-0.8,8.9-2.6,8.9-5.3c0-2-1.1-3.4-3.1-4c-2.1-0.6-4-0.9-5.8-0.9
		c-1.9,0-3.6,0.3-5.1,0.8c-1.5,0.6-2.6,1.6-3.2,3.1h-13.6c0.5-4.2,2.4-7.7,5.7-10.4c3.6-3.1,8.8-4.7,15.6-4.7c7.6,0,13.2,1.3,17,3.9
		c3.9,2.7,5.9,6.5,5.9,11.3v18.4c0,5.4-1,9.6-2.9,12.7C539,105.1,536.7,107.3,534,108.7L534,108.7z M592.9,110.9h-7.1
		c-2,0-3.7-0.6-5-1.9c-1.3-1.3-1.9-2.9-1.9-5l0,0V76.5c0-3.2-1-5.6-2.9-7.1c-2-1.5-4.1-2.2-6.6-2.2c-2.4,0-4.6,0.7-6.4,2.2
		c-1.9,1.5-2.8,3.9-2.8,7.1v34.4h-14.2V79.3c0-9.2,2.4-15.3,7.2-18.4c4.8-3.1,10.1-4.8,15.9-5.1c5.9,0,11.4,1.6,16.4,4.6
		c5,3.1,7.5,9.4,7.5,18.8V110.9L592.9,110.9z M619.1,110.9c-4.5,0.3-9.3,0.2-14.5-0.2c-5.2-0.4-7.8-3.7-7.8-9.9V41.3h7.3
		c1.7,0,3.3,0.7,4.7,2c1.3,1.3,2,3,2,4.9v9.1h8.3v2.9c0,2-0.7,3.7-2,5c-1.3,1.3-3,1.9-4.9,1.9h-1.4v29.9c0,2.3,1.3,3.4,4,3.4h4.2
		V110.9L619.1,110.9z M657.7,94.3c-1.6,0-2.9,0.3-3.7,1c-0.9,0.7-1.4,1.2-1.5,1.6c-0.4,0.4-0.8,0.8-1.1,1.1
		c-0.3,0.3-0.7,0.6-1.1,0.7c-1.6,0.9-3.6,1.4-5.9,1.4c-3.5,0-6.1-1.1-7.9-3.3c-1.9-2-2.9-5.2-3-9.4h35c0.1-0.3,0.2-0.7,0.2-1.4
		c0-0.1,0-0.4,0-0.8c0-0.4,0-0.9,0-1.4c0-8.9-2.2-15.8-6.5-20.8c-4.5-4.9-10.7-7.3-18.8-7.3c-7.7,0-13.7,2.5-18,7.5
		c-4.2,4.9-6.3,11.6-6.3,20.2c0,9.1,2.2,16,6.5,20.8c4.3,5,10.3,7.5,18,7.5c6.3,0,11.6-1.6,15.8-4.7c4.2-3,7-7.3,8.5-13H657.7
		L657.7,94.3z M633.4,78.5c0.1-3.5,1.1-6.2,3-8.1c1.9-1.9,4.3-2.8,7.3-2.8c3.2,0,5.7,0.9,7.5,2.8c1.6,1.7,2.6,4.4,2.8,8.1H633.4
		L633.4,78.5z M670.8,110.9V84.8c0-5.3,0.8-9.7,2.3-13.3c1.6-3.6,3.7-6.5,6.4-8.6c2.6-2,5.6-3.5,9-4.5c3.4-1,7-1.4,10.6-1.4
		c0.3,0,0.6,0,1,0c0.4,0,0.7,0,1,0v14.4h-4.7c-3.9,0-6.8,1-8.7,2.8c-1.9,1.9-2.8,4.9-2.8,8.9v27.7H670.8L670.8,110.9z M749.6,110.9
		h-7.1c-2,0-3.7-0.6-5-1.9c-1.3-1.3-1.9-2.9-1.9-5l0,0V76.5c0-3.2-1-5.6-2.9-7.1c-2-1.5-4.1-2.2-6.6-2.2c-2.4,0-4.6,0.7-6.4,2.2
		c-1.9,1.5-2.8,3.9-2.8,7.1v34.4h-14.2V79.3c0-9.2,2.4-15.3,7.2-18.4c4.8-3.1,10.1-4.8,15.9-5.1c5.9,0,11.4,1.6,16.4,4.6
		c5,3.1,7.5,9.4,7.5,18.8V110.9z"/>
	<path class="st0" d="M629.1,450.9v8.5h59.7v-8.5H629.1L629.1,450.9z M726.4,485.8l1,0.3l2,0.3l18.9,0.1v-59.9h8.5v-59.9h-8.5v-59.9
		h8.5v-59.9h-8.5v-59.9h-59.7v8.5h-59.7v-8.5h-59.7v8.5h-59.7v-8.5h-59.7v59.9h-8.5v59.9h8.5v59.9h-8.5v59.9h8.5v59.9l19.1-0.1
		l1.4-0.2l2.4-0.7l1-0.4l1.9-1.1l1.7-1.4l1.4-1.5l2-3.2l1.2-1.6l1.4-1.5l1.8-1.4l1.6-0.9l1.9-0.8l2.2-0.6l1.8-0.2l211.1-0.1l1.6,0.1
		l2,0.3l1.5,0.4l2.4,1l2.5,1.6l2.2,2l1.4,1.8l1.4,2.4l1.8,2.2l1.6,1.4l1.9,1.2L726.4,485.8L726.4,485.8z M731.4,433.8V286.1
		c-10.5,20.4-19.3,41.3-26.3,62.6c-7.9,23.4-14.6,50.2-20.2,80.4l3.3,4.6H731.4L731.4,433.8z M731.4,267.1v-54.7h-83.5
		c5.1,4.1,10.2,8.1,15.5,12C682.7,238.6,705.4,252.9,731.4,267.1L731.4,267.1z M634.3,212.5h-30.7v4.6c3.1,3.5,7,7.3,11.6,11.5
		c0.6-0.4,1.2-0.8,2-1.1c4.3-1.9,9.1-0.6,11.9,3.1c4,5.3,7.3,11,10,16.9c-0.1-1-0.3-2-0.4-3c-0.7-4.6,1.9-8.9,6.2-10.6
		c4.3-1.7,9.1-0.2,11.8,3.6c6.9,10,11.3,21.1,14,32.7c7.9,5,15.3,9.2,22.1,12.4l31-10.1c-24.3-13.1-46.3-26.9-65.9-41.2
		C650,225.4,642.2,219.2,634.3,212.5L634.3,212.5z M595,212.5h-30.7c-7.8,6.7-15.6,12.9-23.4,18.6c-19.8,14.3-41.9,28.1-66.1,41.2
		l30.9,10.1c6.9-3.4,14.4-7.6,22.6-12.7c2.7-11.5,7-22.5,13.8-32.3c2.6-3.8,7.4-5.3,11.8-3.6c4.3,1.7,6.9,6,6.2,10.7
		c-0.1,0.8-0.2,1.7-0.4,2.5c2.6-5.7,5.8-11.2,9.7-16.3c2.8-3.7,7.6-5,11.9-3.1c0.7,0.3,1.3,0.7,1.9,1.1c4.7-4.2,8.6-8,11.7-11.6
		V212.5L595,212.5z M550.5,212.5h-83.4v54.7c25.9-14.3,48.6-28.6,68-42.8C540.4,220.5,545.5,216.5,550.5,212.5L550.5,212.5z
		 M467.1,286.5v140.1v7.2h43.2l3.2-4.5c-5.6-30.2-12.4-57.1-20.2-80.5C486.4,327.6,477.6,306.8,467.1,286.5L467.1,286.5z
		 M549.7,433.8h98.8c-16.4-1.9-32.8-2.8-49.2-2.8C582.8,431,566.3,431.9,549.7,433.8L549.7,433.8z M681.7,285.9
		c-2.9-1.5-5.9-3.1-9.1-4.9c0.3,2.5,0.6,5.1,0.8,7.6L681.7,285.9L681.7,285.9z M611.2,236.5c-2.8-2.5-5.3-4.9-7.6-7.3v28.2
		c1.4,1.7,2.9,3.3,4.4,4.8c3.1,1.3,5.8,3.3,8.1,5.8c-1.1-10.2-2.9-20.4-4.6-29.9C611.3,237.6,611.2,237,611.2,236.5L611.2,236.5z
		 M724.6,280.8l-31.8,10.4c-5.1,9.3-10.6,22.1-16.4,38.5c1.4,0.9,2.5,1.9,3.4,2.9c2.7,3.5,3.6,7.9,3.6,12.3c0,13.5-6.2,29-11.8,41
		c-2.3,4.9-4.8,9.8-7.4,14.5l14.2,19.5c5-26.8,11.2-51.7,18.6-74.6C703.6,325,712.9,303.4,724.6,280.8L724.6,280.8z M681.4,295
		l-7.4,2.4c0,1.4,0.1,2.8,0.1,4.2c0,3.1,0,6.9-0.4,10.7C676.2,306,678.8,300.2,681.4,295L681.4,295z M595,257.3v-28.2
		c-2.4,2.4-4.9,4.8-7.7,7.3c0,0.6-0.1,1.2-0.2,1.8c-1.7,9.5-3.5,19.8-4.6,29.9c2.2-2.4,4.8-4.4,7.7-5.7
		C591.9,260.7,593.4,259,595,257.3L595,257.3z M526.2,280.7c-3.4,2-6.6,3.7-9.6,5.2l8.7,2.8C525.6,286.1,525.9,283.4,526.2,280.7
		L526.2,280.7z M524.9,297.5L517,295c2.8,5.6,5.6,11.9,8.4,18.8c-0.5-4.3-0.6-8.7-0.6-12.2C524.9,300.3,524.9,298.9,524.9,297.5
		L524.9,297.5z M674,428.7l-14.7-20.2c-2.8,4.5-5.7,8.8-8.9,13c-1.2,1.6-2.9,2.8-4.7,3.4C655,425.9,664.4,427.2,674,428.7L674,428.7
		z M539.5,408.4l-14.8,20.4c9.7-1.6,19.2-2.8,28.5-3.8c-1.8-0.6-3.3-1.8-4.6-3.4C545.3,417.3,542.3,412.9,539.5,408.4L539.5,408.4z
		 M561.4,424.1c13-1.2,25.6-1.7,37.7-1.7c12.4,0,25.2,0.6,38.4,1.8c-4.1-2.3-6-7.2-4.5-11.7c0.3-0.9,0.6-1.9,0.9-2.8
		c-1,1.7-2.1,3.5-3.1,5.1c-2.6,4.2-7.8,5.8-12.3,3.9c-4.5-1.9-6.9-6.8-5.8-11.5c0.5-1.9,0.9-3.7,1.4-5.6c-3.9,3.9-8.8,6.6-14.7,6.6
		c-6,0-10.9-2.8-14.9-6.7c0.5,1.9,0.9,3.9,1.4,5.8c1.1,4.8-1.3,9.6-5.8,11.5c-4.5,1.9-9.6,0.3-12.3-3.9c-1-1.5-1.9-3.1-2.9-4.7
		c0.3,0.8,0.5,1.6,0.8,2.3C567.3,416.9,565.5,421.7,561.4,424.1L561.4,424.1z M522.1,330c-5.9-16.5-11.4-29.5-16.5-38.8l-31.8-10.4
		c11.7,22.6,21,44.2,27.7,64.7c7.4,22.9,13.7,47.8,18.7,74.6l14.5-19.9c-2.6-4.7-5-9.4-7.3-14.2c-5.7-12.1-11.9-27.5-11.9-41.1
		c0-4.3,0.9-8.7,3.6-12.2C519.8,331.8,520.9,330.9,522.1,330L522.1,330z M509.8,450.9v8.5h59.7v-8.5H509.8L509.8,450.9z M673.4,345
		c0,9.1-3.6,21.4-10.9,36.8c-6.2,13.1-12.8,24.4-20,33.8c11.7-35.6,17.5-56.9,17.5-64c0-2.2-0.3-3.8-0.9-4.9
		c-1.3-2.3-6.7-4.8-16.1-7.5c1.5,3.1,2.3,6,2.3,8.7c0,16.8-7.6,37.4-22.9,61.7c2.4-9.7,4.7-19.4,7.1-29.2c2.7-12.3,4-22.1,4-29.3
		c0-5.4-0.7-9.2-2.1-11.2c-1.2-1.8-4.5-4.1-9.8-6.8c0.8,4.6,1.2,9.7,1.2,15.2c0,6.7-0.8,13.2-2.4,19.6c-1.6,6.3-4,12.5-7.2,18.4
		c-4.5,8-9.1,12.1-13.8,12.1c-4.8,0-9.4-4-13.9-12.1c-3.3-5.9-5.7-12-7.3-18.4c-1.6-6.4-2.4-12.9-2.4-19.6c0-5.5,0.4-10.6,1.1-15.2
		c-5.2,2.7-8.5,5-9.7,6.8c-1.4,2-2,5.8-2,11.2c0,7.2,1.3,17,4,29.3c2.4,9.8,4.7,19.5,7.1,29.2c-15.2-24.3-22.9-44.8-22.9-61.7
		c0-2.7,0.8-5.6,2.4-8.7c-9.5,2.7-14.9,5.2-16.1,7.5c-0.6,1.1-1,2.7-1,4.9c0,7.3,5.9,28.6,17.6,64c-7.1-9.3-13.8-20.6-20.1-33.7
		c-7.3-15.4-10.9-27.7-10.9-36.8c0-2.8,0.5-4.9,1.5-6.2c2-2.6,19.8-8.3,53.3-16.9l0.5-1.1c-14.6,1.3-25.6,1.9-33.1,1.9
		c-4.9,0-7.8-0.3-8.9-1c-2.7-1.5-4-8.2-4-20.1c0-24.1,5.2-43.7,15.5-58.7c-3.5,24.1-5.2,40.7-5.2,50c0,11.1,1.6,17.8,4.7,20.3
		c1.2,0.9,3.7,1.4,7.5,1.4c3,0,6.1-0.2,9.1-0.7c-4.4-4.3-6.6-10-6.6-17c0-24.6,5.9-44.7,17.7-60.4c-3.9,21.5-5.9,38.4-5.9,50.7
		c0,13.7,1.3,21.4,3.7,23c1.1,0.7,2.9,1.1,5.6,1.1c3.3,0,7.5-0.4,12.7-1.3c-6.2-3.6-9.3-9.8-9.3-18.9c0-5,1.2-9.5,3.7-13.5
		c2.9-4.7,6.7-7,11.4-7c4.7,0,8.5,2.3,11.4,6.9c2.5,4,3.8,8.6,3.8,13.6c0,9-3.1,15.3-9.3,18.9c5.2,0.9,9.5,1.3,12.6,1.3
		c2.7,0,4.6-0.4,5.7-1.1c2.5-1.6,3.7-9.3,3.7-23c0-12.1-2-29-6-50.7c11.8,15.7,17.8,35.8,17.8,60.4c0,7-2.2,12.7-6.6,17
		c3,0.4,6.1,0.7,9.1,0.7c3.8,0,6.3-0.5,7.5-1.4c3.2-2.4,4.7-9.2,4.7-20.3c0-9.2-1.7-25.8-5.1-50c10.4,15.1,15.6,34.7,15.6,58.7
		c0,11.9-1.4,18.6-4.1,20.1c-1,0.7-3.9,1-8.8,1c-7.5,0-18.6-0.7-33.3-2l0.5,1.1c33.6,8.7,51.5,14.4,53.5,16.9
		C672.9,340.1,673.4,342.2,673.4,345z"/>
	<path class="st0" d="M987.7,450.9v8.5h40.2v-8.5H987.7L987.7,450.9z M947.5,459.4v-8.5h-40.2v8.5H947.5L947.5,459.4z M827,450.9
		v8.5h40.2v-8.5H827L827,450.9z M1027.9,195.4h-40.2v-8.5h-40.2v8.5h-40.2v-8.5h-40.2v8.5H827v-8.5h-48.7v59.9h8.5v59.9h-8.5v59.9
		h8.5v59.9h-8.5v59.9l19.1-0.1l1.4-0.2l2.4-0.7l1-0.4l1.9-1.1l1.7-1.4l1.4-1.5l2.1-3.4l1.3-1.6l1.5-1.4l1.5-1.1l2-1.1l1.7-0.7
		l1.6-0.5l2.4-0.4h212.7l2,0.3l2,0.5l1.7,0.7l1.8,1l1.6,1.2l1.2,1.2l1.3,1.6l1.7,2.8l0.8,1.1l1.7,1.8l0.8,0.7l1.9,1.2l2.1,0.8l2,0.5
		l1,0.1l18.9,0.1v-59.9h-8.5v-59.9h8.5v-59.9h-8.5v-59.9h8.5v-59.9h-48.7V195.4L1027.9,195.4z M1051.1,433.8V314.1
		c-4.9,11.4-9.3,23-13.2,34.7c-7.9,23.4-14.6,50.2-20.2,80.4l3.3,4.6H1051.1L1051.1,433.8z M1051.1,293.5v-10.6l-25.4,8.3
		c-5.1,9.3-10.6,22.1-16.4,38.5c1.4,0.9,2.5,1.9,3.4,2.9c2.7,3.5,3.6,7.9,3.6,12.3c0,13.5-6.2,29-11.8,41c-2.3,4.9-4.8,9.8-7.4,14.5
		l14.2,19.5c5-26.8,11.2-51.7,18.6-74.6C1035.2,328.8,1042.3,311.5,1051.1,293.5L1051.1,293.5z M1051.1,274.1v-4.8
		c-22.1-12.2-42.2-25-60.4-38.2c-7.8-5.7-15.7-11.8-23.5-18.6h-30.7v4.6c3.1,3.5,7,7.3,11.6,11.5c0.6-0.4,1.2-0.8,2-1.1
		c4.3-1.9,9.1-0.6,11.9,3.1c4,5.3,7.3,11,10,16.9c-0.1-1-0.3-2-0.4-3c-0.7-4.6,1.9-8.9,6.2-10.6c4.3-1.7,9.1-0.2,11.8,3.6
		c6.9,10,11.3,21.1,14,32.7c7.9,5,15.3,9.2,22.1,12.4L1051.1,274.1L1051.1,274.1z M1051.1,259.7v-47.3h-70.3
		c5.1,4.1,10.2,8.1,15.5,12C1012.2,236.2,1030.5,247.9,1051.1,259.7L1051.1,259.7z M927.8,212.5H897c-7.8,6.7-15.6,12.9-23.4,18.6
		c-19.8,14.3-41.9,28.1-66.1,41.2l30.9,10.1c6.9-3.4,14.4-7.6,22.6-12.7c2.7-11.5,7-22.5,13.8-32.3c2.6-3.8,7.4-5.3,11.8-3.6
		c4.3,1.7,6.9,6,6.2,10.7c-0.1,0.8-0.2,1.7-0.4,2.5c2.6-5.7,5.8-11.2,9.7-16.3c2.8-3.7,7.6-5,11.9-3.1c0.7,0.3,1.3,0.7,1.9,1.1
		c4.7-4.2,8.6-8,11.7-11.6V212.5L927.8,212.5z M883.4,212.5h-79.6V265c24.4-13.6,45.7-27.1,64.2-40.7
		C873.2,220.5,878.3,216.5,883.4,212.5L883.4,212.5z M803.8,294.1v132.5v7.2h39.4l3.2-4.5c-5.6-30.2-12.4-57.1-20.2-80.5
		C820.1,330.2,812.6,312,803.8,294.1L803.8,294.1z M882.5,433.8h98.8c-16.4-1.9-32.8-2.8-49.2-2.8
		C915.6,431,899.1,431.9,882.5,433.8L882.5,433.8z M1014.6,285.9c-2.9-1.5-5.9-3.1-9.1-4.9c0.3,2.5,0.6,5.1,0.8,7.6L1014.6,285.9
		L1014.6,285.9z M944.1,236.5c-2.8-2.5-5.3-4.9-7.6-7.3v28.2c1.4,1.7,2.9,3.3,4.4,4.8c3.1,1.3,5.8,3.3,8.1,5.8
		c-1.1-10.2-2.9-20.4-4.6-29.9C944.1,237.6,944.1,237,944.1,236.5L944.1,236.5z M1014.2,295l-7.4,2.4c0,1.4,0.1,2.8,0.1,4.2
		c0,3.1,0,6.9-0.4,10.7C1009,306,1011.6,300.2,1014.2,295L1014.2,295z M927.8,257.3v-28.2c-2.4,2.4-4.9,4.8-7.7,7.3
		c0,0.6-0.1,1.2-0.2,1.8c-1.7,9.5-3.5,19.8-4.6,29.9c2.2-2.4,4.8-4.4,7.7-5.7C924.7,260.7,926.3,259,927.8,257.3L927.8,257.3z
		 M859,280.7c-3.4,2-6.6,3.7-9.6,5.2l8.7,2.8C858.4,286.1,858.7,283.4,859,280.7L859,280.7z M857.7,297.5l-7.9-2.6
		c2.8,5.6,5.6,11.9,8.4,18.8c-0.5-4.3-0.6-8.7-0.6-12.2C857.7,300.3,857.7,298.9,857.7,297.5L857.7,297.5z M1006.8,428.7l-14.7-20.2
		c-2.8,4.5-5.7,8.8-8.9,13c-1.2,1.6-2.9,2.8-4.7,3.4C987.8,425.9,997.2,427.2,1006.8,428.7L1006.8,428.7z M872.3,408.4l-14.8,20.4
		c9.7-1.6,19.2-2.8,28.5-3.8c-1.8-0.6-3.3-1.8-4.6-3.4C878.1,417.3,875.1,412.9,872.3,408.4L872.3,408.4z M894.3,424.1
		c13-1.1,25.6-1.7,37.7-1.7c12.4,0,25.2,0.6,38.4,1.8c-4.1-2.3-6-7.2-4.5-11.7c0.3-0.9,0.6-1.9,0.9-2.8c-1,1.7-2.1,3.5-3.1,5.1
		c-2.6,4.2-7.8,5.8-12.3,3.9c-4.5-1.9-6.9-6.8-5.8-11.5c0.5-1.9,0.9-3.7,1.4-5.6c-3.9,3.9-8.8,6.6-14.7,6.6c-6,0-10.9-2.8-14.9-6.7
		c0.5,1.9,0.9,3.9,1.4,5.8c1.1,4.8-1.3,9.6-5.8,11.5c-4.5,1.9-9.6,0.3-12.3-3.9c-1-1.5-1.9-3.1-2.9-4.7c0.3,0.8,0.5,1.6,0.8,2.3
		C900.1,416.9,898.3,421.7,894.3,424.1L894.3,424.1z M855,330c-5.9-16.5-11.4-29.5-16.5-38.8l-31.8-10.4
		c11.7,22.6,21,44.2,27.7,64.7c7.4,22.9,13.7,47.8,18.7,74.6l14.5-19.9c-2.6-4.7-5-9.4-7.3-14.2c-5.7-12.1-11.9-27.5-11.9-41.1
		c0-4.3,0.9-8.7,3.6-12.2C852.7,331.8,853.7,330.9,855,330L855,330z M1006.2,345c0,9.1-3.6,21.4-10.9,36.8
		c-6.2,13.1-12.8,24.4-20,33.8c11.7-35.6,17.5-56.9,17.5-64c0-2.2-0.3-3.8-0.9-4.9c-1.3-2.3-6.7-4.8-16.1-7.5c1.5,3.1,2.3,6,2.3,8.7
		c0,16.8-7.6,37.4-22.9,61.7c2.4-9.7,4.7-19.4,7.1-29.2c2.7-12.3,4-22.1,4-29.3c0-5.4-0.7-9.2-2.1-11.2c-1.2-1.8-4.5-4.1-9.8-6.8
		c0.8,4.6,1.2,9.7,1.2,15.2c0,6.7-0.8,13.2-2.4,19.6c-1.6,6.3-4,12.5-7.2,18.4c-4.5,8-9.1,12.1-13.8,12.1c-4.8,0-9.4-4-13.9-12.1
		c-3.3-5.9-5.7-12-7.3-18.4c-1.6-6.4-2.4-12.9-2.4-19.6c0-5.5,0.4-10.6,1.1-15.2c-5.2,2.7-8.5,5-9.7,6.8c-1.4,2-2,5.8-2,11.2
		c0,7.2,1.3,17,4,29.3c2.4,9.8,4.7,19.5,7.1,29.2c-15.2-24.3-22.9-44.8-22.9-61.7c0-2.7,0.8-5.6,2.4-8.7c-9.5,2.7-14.9,5.2-16.1,7.5
		c-0.6,1.1-1,2.7-1,4.9c0,7.3,5.9,28.6,17.6,64c-7.1-9.3-13.8-20.6-20.1-33.7c-7.3-15.4-10.9-27.7-10.9-36.8c0-2.8,0.5-4.9,1.5-6.2
		c2-2.6,19.8-8.3,53.3-16.9l0.5-1.1c-14.6,1.3-25.6,1.9-33.1,1.9c-4.9,0-7.8-0.3-8.9-1c-2.7-1.5-4-8.2-4-20.1
		c0-24.1,5.2-43.7,15.5-58.7c-3.5,24.1-5.2,40.7-5.2,50c0,11.1,1.6,17.8,4.7,20.3c1.2,0.9,3.7,1.4,7.5,1.4c3,0,6.1-0.2,9.1-0.7
		c-4.4-4.3-6.6-10-6.6-17c0-24.6,5.9-44.7,17.7-60.4c-3.9,21.5-5.9,38.4-5.9,50.7c0,13.7,1.3,21.4,3.7,23c1.1,0.7,2.9,1.1,5.6,1.1
		c3.3,0,7.5-0.4,12.7-1.3c-6.2-3.6-9.3-9.8-9.3-18.9c0-5,1.2-9.5,3.7-13.5c2.9-4.7,6.7-7,11.4-7c4.7,0,8.5,2.3,11.4,6.9
		c2.5,4,3.8,8.6,3.8,13.6c0,9-3.1,15.3-9.3,18.9c5.2,0.9,9.5,1.3,12.6,1.3c2.7,0,4.6-0.4,5.7-1.1c2.5-1.6,3.7-9.3,3.7-23
		c0-12.1-2-29-6-50.7c11.8,15.7,17.8,35.8,17.8,60.4c0,7-2.2,12.7-6.6,17c3,0.4,6.1,0.7,9.1,0.7c3.8,0,6.3-0.5,7.5-1.4
		c3.2-2.4,4.7-9.2,4.7-20.3c0-9.2-1.7-25.8-5.1-50c10.4,15.1,15.6,34.7,15.6,58.7c0,11.9-1.4,18.6-4.1,20.1c-1,0.7-3.9,1-8.8,1
		c-7.5,0-18.6-0.7-33.3-2l0.5,1.1c33.6,8.7,51.5,14.4,53.5,16.9C1005.7,340.1,1006.2,342.2,1006.2,345z"/>
	<rect x="966.5" y="773.7" class="st0" width="59.7" height="8.5"/>
	<polygon class="st0" points="1063.9,808.6 1064.9,808.9 1066.9,809.2 1085.8,809.3 1085.8,749.4 1094.3,749.4 1094.3,689.5 
		1085.8,689.5 1085.8,629.6 1094.3,629.6 1094.3,569.7 1085.8,569.7 1085.8,509.8 1026.2,509.8 1026.2,518.3 966.5,518.3 
		966.5,509.8 906.9,509.8 906.9,518.3 847.2,518.3 847.2,509.8 787.6,509.8 787.6,569.7 779.1,569.7 779.1,629.6 787.6,629.6 
		787.6,689.5 779.1,689.5 779.1,749.4 787.6,749.4 787.6,809.3 806.6,809.2 808,809 810.4,808.3 811.4,807.9 813.3,806.8 
		815.1,805.4 816.4,803.9 818.4,800.6 819.7,799 821.1,797.5 822.9,796.2 824.5,795.2 826.4,794.4 828.6,793.8 830.4,793.6 
		1041.5,793.5 1043.1,793.6 1045.1,793.9 1046.6,794.3 1049,795.2 1051.5,796.8 1053.7,798.8 1055.1,800.6 1056.5,803 1058.3,805.2 
		1059.9,806.6 1061.8,807.8 	"/>
	<path class="st0" d="M1068.8,756.6V609c-10.5,20.4-19.3,41.3-26.3,62.6c-7.9,23.4-14.6,50.2-20.2,80.4l3.3,4.6H1068.8L1068.8,756.6
		z M1068.8,590v-54.7h-83.5c5.1,4.1,10.2,8.1,15.5,12C1020.1,561.4,1042.8,575.7,1068.8,590L1068.8,590z M971.7,535.3H941v4.6
		c3.1,3.5,7,7.3,11.6,11.5c0.6-0.4,1.2-0.8,2-1.1c4.3-1.9,9.1-0.6,11.9,3.1c4,5.3,7.3,11,10,16.9c-0.1-1-0.3-2-0.4-3
		c-0.7-4.6,1.9-8.9,6.2-10.6c4.3-1.7,9.1-0.2,11.8,3.6c6.9,10,11.3,21.1,14,32.7c7.9,5,15.3,9.2,22.1,12.4l31-10.1
		c-24.3-13.1-46.3-26.9-65.9-41.2C987.4,548.2,979.6,542,971.7,535.3L971.7,535.3z M932.4,535.3h-30.7c-7.8,6.7-15.6,12.9-23.4,18.6
		c-19.8,14.3-41.9,28.1-66.1,41.2l30.9,10.1c6.9-3.4,14.4-7.6,22.6-12.7c2.7-11.5,7-22.5,13.8-32.3c2.6-3.8,7.4-5.3,11.8-3.6
		c4.3,1.7,6.9,6,6.2,10.7c-0.1,0.8-0.2,1.7-0.4,2.5c2.6-5.7,5.8-11.2,9.7-16.3c2.8-3.7,7.6-5,11.9-3.1c0.7,0.3,1.3,0.7,1.9,1.1
		c4.7-4.2,8.6-8,11.7-11.6V535.3L932.4,535.3z M888,535.3h-83.4V590c25.9-14.3,48.6-28.6,68-42.8C877.8,543.3,882.9,539.4,888,535.3
		L888,535.3z M804.6,609.3v140.1v7.2h43.2l3.2-4.5c-5.6-30.2-12.4-57.1-20.2-80.5C823.8,650.4,815,629.6,804.6,609.3L804.6,609.3z
		 M887.1,756.6h98.8c-16.4-1.9-32.8-2.8-49.2-2.8C920.2,753.8,903.7,754.8,887.1,756.6L887.1,756.6z M1019.2,608.8
		c-2.9-1.5-5.9-3.1-9.1-4.9c0.3,2.5,0.6,5.1,0.8,7.6L1019.2,608.8L1019.2,608.8z M948.7,559.3c-2.8-2.5-5.3-4.9-7.6-7.3v28.2
		c1.4,1.7,2.9,3.3,4.4,4.8c3.1,1.3,5.8,3.3,8.1,5.8c-1.1-10.2-2.9-20.4-4.6-29.9C948.7,560.5,948.7,559.9,948.7,559.3L948.7,559.3z
		 M1062,603.7l-31.8,10.4c-5.1,9.3-10.6,22.1-16.4,38.5c1.4,0.9,2.5,1.9,3.4,2.9c2.7,3.5,3.6,7.9,3.6,12.3c0,13.5-6.2,29-11.8,41
		c-2.3,4.9-4.8,9.8-7.4,14.5l14.2,19.5c5-26.8,11.2-51.7,18.6-74.6C1041.1,647.8,1050.3,626.3,1062,603.7L1062,603.7z M1018.8,617.8
		l-7.4,2.4c0,1.4,0.1,2.8,0.1,4.2c0,3.1,0,6.9-0.4,10.7C1013.6,628.8,1016.2,623,1018.8,617.8L1018.8,617.8z M932.4,580.1v-28.2
		c-2.4,2.4-4.9,4.8-7.7,7.3c0,0.6-0.1,1.2-0.2,1.8c-1.7,9.5-3.5,19.8-4.6,29.9c2.2-2.4,4.8-4.4,7.7-5.7
		C929.3,583.6,930.9,581.9,932.4,580.1L932.4,580.1z M863.7,603.5c-3.4,2-6.6,3.7-9.6,5.2l8.7,2.8
		C863,608.9,863.3,606.2,863.7,603.5L863.7,603.5z M862.3,620.4l-7.9-2.6c2.8,5.6,5.6,11.9,8.4,18.8c-0.5-4.3-0.6-8.7-0.6-12.2
		C862.3,623.1,862.3,621.7,862.3,620.4L862.3,620.4z M1011.4,751.6l-14.7-20.2c-2.8,4.5-5.7,8.8-8.9,13c-1.2,1.6-2.9,2.8-4.7,3.4
		C992.4,748.8,1001.8,750,1011.4,751.6L1011.4,751.6z M876.9,731.2L862,751.6c9.7-1.6,19.2-2.8,28.5-3.8c-1.8-0.6-3.3-1.8-4.6-3.4
		C882.7,740.2,879.7,735.7,876.9,731.2L876.9,731.2z M898.9,746.9c13-1.1,25.6-1.7,37.7-1.7c12.4,0,25.2,0.6,38.4,1.8
		c-4.1-2.3-6-7.2-4.5-11.7c0.3-0.9,0.6-1.9,0.9-2.8c-1,1.7-2.1,3.5-3.1,5.1c-2.6,4.2-7.8,5.8-12.3,3.9c-4.5-1.9-6.9-6.8-5.8-11.5
		c0.5-1.9,0.9-3.7,1.4-5.6c-3.9,3.9-8.8,6.6-14.7,6.6c-6,0-10.9-2.8-14.9-6.7c0.5,1.9,0.9,3.9,1.4,5.8c1.1,4.8-1.3,9.6-5.8,11.5
		c-4.5,1.9-9.6,0.3-12.3-3.9c-1-1.5-1.9-3.1-2.9-4.7c0.3,0.8,0.5,1.6,0.8,2.3C904.8,739.7,902.9,744.6,898.9,746.9L898.9,746.9z
		 M859.6,652.9c-5.9-16.5-11.4-29.5-16.5-38.8l-31.8-10.4c11.7,22.6,21,44.2,27.7,64.7c7.4,22.9,13.7,47.8,18.7,74.6l14.5-19.9
		c-2.6-4.7-5-9.4-7.3-14.2c-5.7-12.1-11.9-27.5-11.9-41.1c0-4.3,0.9-8.7,3.6-12.2C857.3,654.6,858.3,653.7,859.6,652.9z"/>
	<rect x="847.2" y="773.7" class="st0" width="59.7" height="8.5"/>
</g>
<g id="_x30_">
	<path class="st7" d="M75.6,4h1047.3c39.4,0,71.6,32.2,71.6,71.6v990.6c0,39.4-32.2,71.6-71.6,71.6H75.6
		c-39.4,0-71.6-32.2-71.6-71.6V75.6C4,36.2,36.2,4,75.6,4z"/>
	<polygon class="st0" points="291.7,800.8 291.7,809.3 351.3,809.3 351.3,800.8 411,800.8 411,760.6 419.5,760.6 419.5,720.4 
		411,720.4 411,680.3 419.5,680.3 419.5,640.1 411,640.1 411,599.9 419.5,599.9 419.5,559.7 411,559.7 411,519.5 351.3,519.5 
		351.3,511 291.7,511 291.7,519.5 232,519.5 232,511 172.4,511 172.4,519.5 112.7,519.5 112.7,559.7 104.2,559.7 104.2,599.9 
		112.7,599.9 112.7,640.1 104.2,640.1 104.2,680.3 112.7,680.3 112.7,720.4 104.2,720.4 104.2,760.6 112.7,760.6 112.7,800.8 
		172.4,800.8 172.4,809.3 232,809.3 232,800.8 	"/>
	<polygon class="st0" points="148.5,542.8 146.3,543.6 144.2,544.6 142.3,545.9 140.5,547.4 139,549.1 137.7,551 136.7,553.1 
		136,555.3 135.5,557.5 135.4,559.8 135.4,760.5 135.5,762.8 136,765 136.7,767.2 137.7,769.3 139,771.2 140.5,772.9 142.3,774.5 
		144.2,775.8 146.3,776.8 148.5,777.5 150.7,778 153,778.1 370.7,778.1 373,778 375.2,777.5 377.4,776.8 379.5,775.8 381.4,774.5 
		383.1,772.9 384.7,771.2 385.9,769.3 387,767.2 387.7,765 388.1,762.8 388.3,760.5 388.3,559.8 388.1,557.5 387.7,555.3 387,553.1 
		385.9,551 384.7,549.1 383.1,547.4 381.4,545.9 379.5,544.6 377.4,543.6 375.2,542.8 373,542.4 370.7,542.2 153,542.2 150.7,542.4 
			"/>
	<polygon class="st0" points="441.6,680.3 441.6,640.1 450.1,640.1 450.1,599.9 441.6,599.9 441.6,559.7 450.1,559.7 450.1,519.5 
		509.8,519.5 509.8,511 569.4,511 569.4,519.5 629.1,519.5 629.1,511 688.8,511 688.8,519.5 748.4,519.5 748.4,559.7 756.9,559.7 
		756.9,599.9 748.4,599.9 748.4,640.1 756.9,640.1 756.9,680.3 748.4,680.3 748.4,720.4 756.9,720.4 756.9,760.6 748.4,760.6 
		748.4,800.8 688.8,800.8 688.8,809.3 629.1,809.3 629.1,800.8 569.4,800.8 569.4,809.3 509.8,809.3 509.8,800.8 450.1,800.8 
		450.1,760.6 441.6,760.6 441.6,720.4 450.1,720.4 450.1,680.3 	"/>
	<path class="st0" d="M1010.9,667.8c0,9.1-3.6,21.4-10.9,36.8c-6.2,13.1-12.8,24.4-20,33.8c11.7-35.6,17.5-56.9,17.5-64
		c0-2.2-0.3-3.8-0.9-4.9c-1.3-2.3-6.7-4.8-16.1-7.5c1.5,3.1,2.3,6,2.3,8.7c0,16.8-7.6,37.4-22.9,61.7c2.4-9.7,4.7-19.4,7.1-29.2
		c2.7-12.3,4-22.1,4-29.3c0-5.4-0.7-9.2-2.1-11.2c-1.2-1.8-4.5-4.1-9.8-6.8c0.8,4.6,1.2,9.7,1.2,15.2c0,6.7-0.8,13.2-2.4,19.6
		c-1.6,6.3-4,12.5-7.2,18.4c-4.5,8-9.1,12.1-13.8,12.1c-4.8,0-9.4-4-13.9-12.1c-3.3-5.9-5.7-12-7.3-18.4c-1.6-6.4-2.4-12.9-2.4-19.6
		c0-5.5,0.4-10.6,1.1-15.2c-5.2,2.7-8.5,5-9.7,6.8c-1.4,2-2,5.8-2,11.2c0,7.2,1.3,17,4,29.3c2.4,9.8,4.7,19.5,7.1,29.2
		c-15.2-24.3-22.9-44.8-22.9-61.7c0-2.7,0.8-5.6,2.4-8.7c-9.5,2.7-14.9,5.2-16.1,7.5c-0.6,1.1-1,2.7-1,4.9c0,7.3,5.9,28.6,17.6,64
		c-7.1-9.3-13.8-20.6-20.1-33.7c-7.3-15.4-10.9-27.7-10.9-36.8c0-2.8,0.5-4.9,1.5-6.2c2-2.6,19.8-8.3,53.3-16.9l0.5-1.1
		c-14.6,1.3-25.6,1.9-33.1,1.9c-4.9,0-7.8-0.3-8.9-1c-2.7-1.5-4-8.2-4-20.1c0-24.1,5.2-43.7,15.5-58.7c-3.5,24.1-5.2,40.7-5.2,50
		c0,11.1,1.6,17.8,4.7,20.3c1.2,0.9,3.7,1.4,7.5,1.4c3,0,6.1-0.2,9.1-0.7c-4.4-4.3-6.6-10-6.6-17c0-24.6,5.9-44.7,17.7-60.4
		c-3.9,21.5-5.9,38.4-5.9,50.7c0,13.7,1.3,21.4,3.7,23c1.1,0.7,2.9,1.1,5.6,1.1c3.3,0,7.5-0.4,12.7-1.3c-6.2-3.6-9.3-9.8-9.3-18.9
		c0-5,1.2-9.5,3.7-13.5c2.9-4.7,6.7-7,11.4-7c4.7,0,8.5,2.3,11.4,6.9c2.5,4,3.8,8.6,3.8,13.6c0,9-3.1,15.3-9.3,18.9
		c5.2,0.9,9.5,1.3,12.6,1.3c2.7,0,4.6-0.4,5.7-1.1c2.5-1.6,3.7-9.3,3.7-23c0-12.1-2-29-6-50.7c11.8,15.7,17.8,35.8,17.8,60.4
		c0,7-2.2,12.7-6.6,17c3,0.4,6.1,0.7,9.1,0.7c3.8,0,6.3-0.5,7.5-1.4c3.2-2.4,4.7-9.2,4.7-20.3c0-9.2-1.7-25.8-5.1-50
		c10.4,15.1,15.6,34.7,15.6,58.7c0,11.9-1.4,18.6-4.1,20.1c-1,0.7-3.9,1-8.8,1c-7.5,0-18.6-0.7-33.3-2l0.5,1.1
		c33.6,8.7,51.5,14.4,53.5,16.9C1010.3,662.9,1010.9,665,1010.9,667.8z"/>
</g>
</svg>
