<?xml version="1.0" encoding="iso-8859-1"?>
<!-- Generator: Adobe Illustrator 22.1.0, SVG Export Plug-In . SVG Version: 6.00 Build 0)  -->
<svg version="1.1" id="Layer_1" xmlns="http://www.w3.org/2000/svg" xmlns:xlink="http://www.w3.org/1999/xlink" x="0px" y="0px"
	 width="864px" height="864px" viewBox="0 0 864 864" enable-background="new 0 0 864 864" xml:space="preserve">
<path d="M605.12,577.098c1.911-1.803,3.783-3.687,5.586-5.698c14.495-16.167,24.19-38.148,29.941-60.569
	c14.18-55.29,4.549-115.472-24.558-153.46c-24.366-31.799-57.996-50.707-92.714-42.653c3.238-2.216,6.067-4.418,7.961-5.815
	c10.213-7.539,19.237-17.301,22.102-30.014c10.379-1.476,13.84-23.434,15.555-31.528c3.917-18.487,3.644-38.043,0.118-56.568
	c-5.947-31.24-22.986-61.531-51.935-76.619c-12.06-6.285-24.593-11.659-38.263-13.047c-8.433-0.856-34.889-1.699-50.089,15.198
	c-12.32-2.534-16.264-28.477-25.535-37.991c-4.59-4.711-9.565-6.75-13.079-6.002c-4.057,0.864-6.167,5.443-3.49,13.916
	c3.552,11.238,10.648,22.698,7.481,35.328c-1.469,0.753-9.4,0.592-12.001,1.17c-6.85-10.448-38.448,3.724-46.155,8.302
	c-22.879,13.59-40.542,37.224-46.636,63.07c-6.067,25.732-2.124,53.066,7.541,77.403c4.099,10.322,24.442,55.577,41.487,51.05
	c1.19,1.658,2.502,3.177,3.897,4.593c-19.193,22.469-34.361,50.978-44.398,80.781c-10.662,31.659-16.183,66.661-9.021,97
	c5.21,22.068,17.78,39.198,33.77,49.636c-1.354,0.221-2.709,0.443-4.102,0.681c-31.982,5.453-53.095,19.129-66.335,36.727
	c-22.066,29.33-22.264,69.556-14.464,100.766c4.372,17.495,12.099,33.597,21.55,47.858c15.39,23.224,36.271,42.247,60.384,48.173
	c24.113,5.926,51.445,6.299,66.468-17.275c5.283,14.952,17.669,16.392,31.054,17.882c13.386,1.49,27.208,2.966,34.658-10.568
	c7.6,8.998,16.98,7.279,27.58,8.328c10.599,1.049,22.278,2.939,24.632-9.606c12.94,17.867,34.599,13.416,54.11,10.729
	c22.625-3.116,43.648-15.96,60.247-34.713c20.016-22.614,33.601-53.822,35.809-86.93
	C657.488,618.456,639.522,595.493,605.12,577.098z M441.274,166.446c6.756-7.975,19.296-9.653,28.329-4.394
	c9.033,5.259,14.212,15.638,15.381,26.024c0.752,6.676-0.015,13.69-3.296,19.552c-5.051,9.025-16.361,13.853-26.381,11.909
	c-7.79-1.511-15.088-7.566-18.778-15.67c-1.876-4.119-2.637-8.761-2.65-13.283C433.861,183.474,435.157,173.666,441.274,166.446z
	 M429.868,228.866c1.233-2.715,5.766-3.959,7.958-1.939c2.855,2.631,6.494,6.924,9.368,13.449
	c-3.571,1.339-12.97,3.611-19.689,4.344C426.954,240.298,427.864,233.28,429.868,228.866z M374.221,183.096
	c5.981-8.571,18.063-12.325,27.548-7.934c8.587,3.976,13.89,12.328,16.864,18.786c2.016,4.379,3.515,9.253,3.213,14.061
	c-0.693,11.023-3.829,16.906-10.943,21.535c-8.402,5.466-20.244,5.931-28.468-0.018c-5.443-3.937-9.09-9.978-11.217-16.35
	C367.909,203.261,368.24,191.667,374.221,183.096z M339.607,240.684c4.714,9.016,16.576,15.718,30.802,19.938
	c-0.155,1.605-0.252,4.236-0.308,6.36c-0.053,2,1.191,3.804,3.077,4.472l20.397,7.223c2.523,0.894,5.275-0.533,5.992-3.111
	c0.761-2.732,1.965-7.215,2.632-9.794c6.612,0.276,14.169-0.02,21.333-0.646l1.251,5.951c0.542,2.579,3.069,4.234,5.65,3.701
	l30.754-6.359c2.594-0.536,4.258-3.077,3.713-5.669l-1.327-6.311c6.352-2.225,18.834-7.822,19.121-7.967
	c1.634,2.05,3.72,4.64,5.12,6.35c1.696,2.071,4.788,2.269,6.738,0.435l15.761-14.825c1.457-1.371,1.87-3.522,1.016-5.332
	c-0.637-1.35-1.395-2.925-2.062-4.23c10.873-9.41,18.642-20.021,19.309-29.913c0,0,5.496,41.09-5.232,57.89
	c-3.887,6.088-9.825,11.676-16.794,16.658c-1.523-1.626-3.665-3.738-5.42-5.436c-1.816-1.757-4.524-2.198-6.805-1.109
	c-4.219,2.015-11.202,5.419-16.887,8.531c-2.689,1.472-3.833,4.726-2.698,7.574c0.819,2.056,1.772,4.064,2.799,6.042
	c-9.972,4.101-19.588,7.034-26.871,8.565c-5.612,1.18-12.83,2.156-20.776,2.663l-1.43-9.366c-0.469-3.073-3.293-5.216-6.379-4.842
	c-6.2,0.751-14.039,1.783-18.626,2.394c-2.328,0.31-4.226,2.003-4.805,4.279c-0.546,2.147-1.187,4.742-1.57,6.517
	c-11.18-1.572-21.659-4.604-29.377-9.75C351.123,280.508,339.607,240.684,339.607,240.684z M470.592,453.583
	c7.72,2.079,12.318,31.125,6.13,38.728c-6.188,7.603-29.349,1.365-30.881-8.317C444.309,474.312,462.872,451.503,470.592,453.583z
	 M413.324,457.041c-17.074-1.143-32.869-22.923-35.224-41.263c-0.258-2.01-1.105-8.028-1.105-8.028l79.156-25.064
	c1.086,7.861-2.549,31.291-4.317,38.916C446.952,442.656,430.398,458.185,413.324,457.041z M396.021,703.704
	c-17.027,6.134-35.956,6.646-44.54-0.959c-9.012-7.984-12.422-20.541-13.711-32.512c-1.51-14.028-0.424-29.171,7.802-40.635
	l81.932,48.586C423.013,689.62,410.174,698.604,396.021,703.704z M461.087,738.816c-3.125,6.259-35.198,5.892-38.223,0
	c-3.025-5.892,10.949-33.102,19.112-33.102C450.138,705.714,464.212,732.558,461.087,738.816z M550.319,670.232
	c-1.289,11.971-4.698,24.528-13.711,32.512c-8.584,7.605-27.514,7.093-44.54,0.959c-14.153-5.099-26.993-14.084-31.483-25.521
	l81.932-48.586C550.743,641.061,551.829,656.204,550.319,670.232z M512.829,557.39l-24.274-11.196l-17.144,8.713l-24.885-17.722
	l-27.531,3.604l-10.449-16.145l-26.613-2.51c0,0-7.209-54.093-8.918-67.36l25.575,43.747l26.748,3.651l10.215,17.764l18.507-6.475
	l13.506,15.097l17.755-10.231l24.964,10.277l44.086-24.985C546.231,514.235,512.829,557.39,512.829,557.39z M564.165,445.439
	c-6.535,17.297-26.941,34.831-43.816,31.993c-16.875-2.838-29.387-21.776-29.264-43.389c0.044-7.827,1.93-31.463,4.805-38.859
	l71.209,42.699C567.098,437.884,564.881,443.543,564.165,445.439z"/>
<g>
</g>
<g>
</g>
<g>
</g>
<g>
</g>
<g>
</g>
<g>
</g>
<g>
</g>
<g>
</g>
<g>
</g>
<g>
</g>
<g>
</g>
<g>
</g>
<g>
</g>
<g>
</g>
<g>
</g>
</svg>
