  0
SECTION
  2
HEADER
  9
$ACADVER
  1
AC1021
  9
$ACADMAINTVER
 70
    25
  9
$DWGCODEPAGE
  3
ANSI_1252
  9
$INSBASE
 10
0.0
 20
0.0
 30
0.0
  9
$EXTMIN
 10
1.000000000000000E+20
 20
1.000000000000000E+20
 30
1.000000000000000E+20
  9
$EXTMAX
 10
-1.000000000000000E+20
 20
-1.000000000000000E+20
 30
-1.000000000000000E+20
  9
$LIMMIN
 10
0.0
 20
0.0
  9
$LIMMAX
 10
12.0
 20
9.0
  9
$ORTHOMODE
 70
     0
  9
$REGENMODE
 70
     1
  9
$FILLMODE
 70
     1
  9
$QTEXTMODE
 70
     0
  9
$MIRRTEXT
 70
     1
  9
$LTSCALE
 40
1.0
  9
$ATTMODE
 70
     1
  9
$TEXTSIZE
 40
0.2
  9
$TRACEWID
 40
0.05
  9
$TEXTSTYLE
  7
Standard
  9
$CLAYER
  8
0
  9
$CELTYPE
  6
ByLayer
  9
$CECOLOR
 62
   256
  9
$CELTSCALE
 40
1.0
  9
$DISPSILH
 70
     0
  9
$DIMSCALE
 40
1.0
  9
$DIMASZ
 40
0.18
  9
$DIMEXO
 40
0.0625
  9
$DIMDLI
 40
0.38
  9
$DIMRND
 40
0.0
  9
$DIMDLE
 40
0.0
  9
$DIMEXE
 40
0.18
  9
$DIMTP
 40
0.0
  9
$DIMTM
 40
0.0
  9
$DIMTXT
 40
0.18
  9
$DIMCEN
 40
0.09
  9
$DIMTSZ
 40
0.0
  9
$DIMTOL
 70
     0
  9
$DIMLIM
 70
     0
  9
$DIMTIH
 70
     1
  9
$DIMTOH
 70
     1
  9
$DIMSE1
 70
     0
  9
$DIMSE2
 70
     0
  9
$DIMTAD
 70
     0
  9
$DIMZIN
 70
     0
  9
$DIMBLK
  1

  9
$DIMASO
 70
     1
  9
$DIMSHO
 70
     1
  9
$DIMPOST
  1

  9
$DIMAPOST
  1

  9
$DIMALT
 70
     0
  9
$DIMALTD
 70
     2
  9
$DIMALTF
 40
25.4
  9
$DIMLFAC
 40
1.0
  9
$DIMTOFL
 70
     0
  9
$DIMTVP
 40
0.0
  9
$DIMTIX
 70
     0
  9
$DIMSOXD
 70
     0
  9
$DIMSAH
 70
     0
  9
$DIMBLK1
  1

  9
$DIMBLK2
  1

  9
$DIMSTYLE
  2
Standard
  9
$DIMCLRD
 70
     0
  9
$DIMCLRE
 70
     0
  9
$DIMCLRT
 70
     0
  9
$DIMTFAC
 40
1.0
  9
$DIMGAP
 40
0.09
  9
$DIMJUST
 70
     0
  9
$DIMSD1
 70
     0
  9
$DIMSD2
 70
     0
  9
$DIMTOLJ
 70
     1
  9
$DIMTZIN
 70
     0
  9
$DIMALTZ
 70
     0
  9
$DIMALTTZ
 70
     0
  9
$DIMUPT
 70
     0
  9
$DIMDEC
 70
     4
  9
$DIMTDEC
 70
     4
  9
$DIMALTU
 70
     2
  9
$DIMALTTD
 70
     2
  9
$DIMTXSTY
  7
Standard
  9
$DIMAUNIT
 70
     0
  9
$DIMADEC
 70
     0
  9
$DIMALTRND
 40
0.0
  9
$DIMAZIN
 70
     0
  9
$DIMDSEP
 70
    46
  9
$DIMATFIT
 70
     3
  9
$DIMFRAC
 70
     0
  9
$DIMLDRBLK
  1

  9
$DIMLUNIT
 70
     2
  9
$DIMLWD
 70
    -2
  9
$DIMLWE
 70
    -2
  9
$DIMTMOVE
 70
     0
  9
$DIMFXL
 40
1.0
  9
$DIMFXLON
 70
     0
  9
$DIMJOGANG
 40
0.7853981633974483
  9
$DIMTFILL
 70
     0
  9
$DIMTFILLCLR
 70
     0
  9
$DIMARCSYM
 70
     0
  9
$DIMLTYPE
  6

  9
$DIMLTEX1
  6

  9
$DIMLTEX2
  6

  9
$LUNITS
 70
     2
  9
$LUPREC
 70
     4
  9
$SKETCHINC
 40
0.1
  9
$FILLETRAD
 40
0.5
  9
$AUNITS
 70
     0
  9
$AUPREC
 70
     0
  9
$MENU
  1
.
  9
$ELEVATION
 40
0.0
  9
$PELEVATION
 40
0.0
  9
$THICKNESS
 40
0.0
  9
$LIMCHECK
 70
     0
  9
$CHAMFERA
 40
0.5
  9
$CHAMFERB
 40
0.5
  9
$CHAMFERC
 40
1.0
  9
$CHAMFERD
 40
0.0
  9
$SKPOLY
 70
     0
  9
$TDCREATE
 40
2459455.41996412
  9
$TDUCREATE
 40
2459455.336630787
  9
$TDUPDATE
 40
2459455.419964178
  9
$TDUUPDATE
 40
2459455.336630845
  9
$TDINDWG
 40
0.0000000116
  9
$TDUSRTIMER
 40
0.0000000116
  9
$USRTIMER
 70
     1
  9
$ANGBASE
 50
0.0
  9
$ANGDIR
 70
     0
  9
$PDMODE
 70
     0
  9
$PDSIZE
 40
0.0
  9
$PLINEWID
 40
0.0
  9
$SPLFRAME
 70
     0
  9
$SPLINETYPE
 70
     6
  9
$SPLINESEGS
 70
     8
  9
$HANDSEED
  5
70
  9
$SURFTAB1
 70
     6
  9
$SURFTAB2
 70
     6
  9
$SURFTYPE
 70
     6
  9
$SURFU
 70
     6
  9
$SURFV
 70
     6
  9
$UCSBASE
  2

  9
$UCSNAME
  2

  9
$UCSORG
 10
0.0
 20
0.0
 30
0.0
  9
$UCSXDIR
 10
1.0
 20
0.0
 30
0.0
  9
$UCSYDIR
 10
0.0
 20
1.0
 30
0.0
  9
$UCSORTHOREF
  2

  9
$UCSORTHOVIEW
 70
     0
  9
$UCSORGTOP
 10
0.0
 20
0.0
 30
0.0
  9
$UCSORGBOTTOM
 10
0.0
 20
0.0
 30
0.0
  9
$UCSORGLEFT
 10
0.0
 20
0.0
 30
0.0
  9
$UCSORGRIGHT
 10
0.0
 20
0.0
 30
0.0
  9
$UCSORGFRONT
 10
0.0
 20
0.0
 30
0.0
  9
$UCSORGBACK
 10
0.0
 20
0.0
 30
0.0
  9
$PUCSBASE
  2

  9
$PUCSNAME
  2

  9
$PUCSORG
 10
0.0
 20
0.0
 30
0.0
  9
$PUCSXDIR
 10
1.0
 20
0.0
 30
0.0
  9
$PUCSYDIR
 10
0.0
 20
1.0
 30
0.0
  9
$PUCSORTHOREF
  2

  9
$PUCSORTHOVIEW
 70
     0
  9
$PUCSORGTOP
 10
0.0
 20
0.0
 30
0.0
  9
$PUCSORGBOTTOM
 10
0.0
 20
0.0
 30
0.0
  9
$PUCSORGLEFT
 10
0.0
 20
0.0
 30
0.0
  9
$PUCSORGRIGHT
 10
0.0
 20
0.0
 30
0.0
  9
$PUCSORGFRONT
 10
0.0
 20
0.0
 30
0.0
  9
$PUCSORGBACK
 10
0.0
 20
0.0
 30
0.0
  9
$USERI1
 70
     0
  9
$USERI2
 70
     0
  9
$USERI3
 70
     0
  9
$USERI4
 70
     0
  9
$USERI5
 70
     0
  9
$USERR1
 40
0.0
  9
$USERR2
 40
0.0
  9
$USERR3
 40
0.0
  9
$USERR4
 40
0.0
  9
$USERR5
 40
0.0
  9
$WORLDVIEW
 70
     1
  9
$SHADEDGE
 70
     3
  9
$SHADEDIF
 70
    70
  9
$TILEMODE
 70
     1
  9
$MAXACTVP
 70
    64
  9
$PINSBASE
 10
0.0
 20
0.0
 30
0.0
  9
$PLIMCHECK
 70
     0
  9
$PEXTMIN
 10
1.000000000000000E+20
 20
1.000000000000000E+20
 30
1.000000000000000E+20
  9
$PEXTMAX
 10
-1.000000000000000E+20
 20
-1.000000000000000E+20
 30
-1.000000000000000E+20
  9
$PLIMMIN
 10
0.0
 20
0.0
  9
$PLIMMAX
 10
12.0
 20
9.0
  9
$UNITMODE
 70
     0
  9
$VISRETAIN
 70
     1
  9
$PLINEGEN
 70
     0
  9
$PSLTSCALE
 70
     1
  9
$TREEDEPTH
 70
  3020
  9
$CMLSTYLE
  2
Standard
  9
$CMLJUST
 70
     0
  9
$CMLSCALE
 40
1.0
  9
$PROXYGRAPHICS
 70
     1
  9
$MEASUREMENT
 70
     0
  9
$CELWEIGHT
370
    -1
  9
$ENDCAPS
280
     0
  9
$JOINSTYLE
280
     0
  9
$LWDISPLAY
290
     1
  9
$INSUNITS
 70
     1
  9
$HYPERLINKBASE
  1

  9
$STYLESHEET
  1

  9
$XEDIT
290
     1
  9
$CEPSNTYPE
380
     0
  9
$PSTYLEMODE
290
     1
  9
$FINGERPRINTGUID
  2
{A652A9DC-1341-4D0A-BA1A-B9DC296E19EA}
  9
$VERSIONGUID
  2
{FAEB1C32-E019-11D5-929B-00C0DF256EC4}
  9
$EXTNAMES
290
     1
  9
$PSVPSCALE
 40
0.0
  9
$OLESTARTUP
290
     0
  9
$SORTENTS
280
   127
  9
$INDEXCTL
280
     0
  9
$HIDETEXT
280
     1
  9
$XCLIPFRAME
290
     0
  9
$HALOGAP
280
     0
  9
$OBSCOLOR
 70
   257
  9
$OBSLTYPE
280
     0
  9
$INTERSECTIONDISPLAY
280
     0
  9
$INTERSECTIONCOLOR
 70
   257
  9
$DIMASSOC
280
     2
  9
$PROJECTNAME
  1

  9
$CAMERADISPLAY
290
     0
  9
$LENSLENGTH
 40
50.0
  9
$CAMERAHEIGHT
 40
0.0
  9
$STEPSPERSEC
 40
2.0
  9
$STEPSIZE
 40
6.0
  9
$3DDWFPREC
 40
2.0
  9
$PSOLWIDTH
 40
0.25
  9
$PSOLHEIGHT
 40
4.0
  9
$LOFTANG1
 40
1.570796326794897
  9
$LOFTANG2
 40
1.570796326794897
  9
$LOFTMAG1
 40
0.0
  9
$LOFTMAG2
 40
0.0
  9
$LOFTPARAM
 70
     7
  9
$LOFTNORMALS
280
     1
  9
$LATITUDE
 40
37.795
  9
$LONGITUDE
 40
-122.394
  9
$NORTHDIRECTION
 40
0.0
  9
$TIMEZONE
 70
 -8000
  9
$LIGHTGLYPHDISPLAY
280
     1
  9
$TILEMODELIGHTSYNCH
280
     1
  9
$CMATERIAL
347
3C
  9
$SOLIDHIST
280
     1
  9
$SHOWHIST
280
     1
  9
$DWFFRAME
280
     2
  9
$DGNFRAME
280
     2
  9
$REALWORLDSCALE
290
     1
  9
$INTERFERECOLOR
 62
   256
  9
$CSHADOW
280
     0
  9
$SHADOWPLANELOCATION
 40
0.0
  0
ENDSEC
  0
SECTION
  2
CLASSES
  0
CLASS
  1
ACDBDICTIONARYWDFLT
  2
AcDbDictionaryWithDefault
  3
ObjectDBX Classes
 90
        0
 91
        4
280
     0
281
     0
  0
CLASS
  1
VISUALSTYLE
  2
AcDbVisualStyle
  3
ObjectDBX Classes
 90
     4095
 91
        4
280
     0
281
     0
  0
CLASS
  1
MATERIAL
  2
AcDbMaterial
  3
ObjectDBX Classes
 90
     1153
 91
        4
280
     0
281
     0
  0
CLASS
  1
SUN
  2
AcDbSun
  3
SCENEOE
 90
     1024
 91
        4
280
     0
281
     0
  0
ENDSEC
  0
SECTION
  2
TABLES
  0
TABLE
  2
VPORT
  5
8
330
0
100
AcDbSymbolTable
 70
     1
  0
VPORT
  5
29
330
8
100
AcDbSymbolTableRecord
100
AcDbViewportTableRecord
  2
*Active
 70
     0
 10
0.0
 20
0.0
 11
1.0
 21
1.0
 12
0.0
 22
0.0
 13
0.0
 23
0.0
 14
0.5
 24
0.5
 15
0.5
 25
0.5
 16
0.0
 26
0.0
 36
1.0
 17
6.0
 27
-6.0
 37
0.0
 40
12.0
 41
1.0
 42
50.0
 43
0.0
 44
0.0
 50
0.0
 51
0.0
 71
     0
 72
   100
 73
     1
 74
     3
 75
     0
 76
     0
 77
     0
 78
     0
281
     0
 65
     1
110
0.0
120
0.0
130
0.0
111
1.0
121
0.0
131
0.0
112
0.0
122
1.0
132
0.0
 79
     0
146
0.0
 60
     3
 61
     5
292
     1
282
     1
141
0.0
142
0.0
 63
   250
361
3F
  0
ENDTAB
  0
TABLE
  2
LTYPE
  5
5
330
0
100
AcDbSymbolTable
 70
     1
  0
LTYPE
  5
14
330
5
100
AcDbSymbolTableRecord
100
AcDbLinetypeTableRecord
  2
ByBlock
 70
     0
  3

 72
    65
 73
     0
 40
0.0
  0
LTYPE
  5
15
330
5
100
AcDbSymbolTableRecord
100
AcDbLinetypeTableRecord
  2
ByLayer
 70
     0
  3

 72
    65
 73
     0
 40
0.0
  0
LTYPE
  5
16
330
5
100
AcDbSymbolTableRecord
100
AcDbLinetypeTableRecord
  2
Continuous
 70
     0
  3
Solid line
 72
    65
 73
     0
 40
0.0
  0
ENDTAB
  0
TABLE
  2
LAYER
  5
2
330
0
100
AcDbSymbolTable
 70
     2
  0
LAYER
  5
10
330
2
100
AcDbSymbolTableRecord
100
AcDbLayerTableRecord
  2
0
 70
     0
 62
     7
  6
Continuous
370
    -3
390
F
347
3E
  0
LAYER
  5
40
330
2
100
AcDbSymbolTableRecord
100
AcDbLayerTableRecord
  2
Layer 1
 70
     0
 62
     7
  6
Continuous
370
    -3
390
F
347
3E
  0
ENDTAB
  0
TABLE
  2
STYLE
  5
3
330
0
100
AcDbSymbolTable
 70
     1
  0
STYLE
  5
11
330
3
100
AcDbSymbolTableRecord
100
AcDbTextStyleTableRecord
  2
Standard
 70
     0
 40
0.0
 41
1.0
 50
0.0
 71
     0
 42
0.2
  3
txt
  4

  0
ENDTAB
  0
TABLE
  2
VIEW
  5
6
330
0
100
AcDbSymbolTable
 70
     0
  0
ENDTAB
  0
TABLE
  2
UCS
  5
7
330
0
100
AcDbSymbolTable
 70
     0
  0
ENDTAB
  0
TABLE
  2
APPID
  5
9
330
0
100
AcDbSymbolTable
 70
     1
  0
APPID
  5
12
330
9
100
AcDbSymbolTableRecord
100
AcDbRegAppTableRecord
  2
ACAD
 70
     0
  0
ENDTAB
  0
TABLE
  2
DIMSTYLE
  5
A
330
0
100
AcDbSymbolTable
 70
     1
100
AcDbDimStyleTable
  0
DIMSTYLE
105
27
330
A
100
AcDbSymbolTableRecord
100
AcDbDimStyleTableRecord
  2
Standard
 70
     0
178
     0
340
11
  0
ENDTAB
  0
TABLE
  2
BLOCK_RECORD
  5
1
330
0
100
AcDbSymbolTable
 70
     1
  0
BLOCK_RECORD
  5
1F
330
1
100
AcDbSymbolTableRecord
100
AcDbBlockTableRecord
  2
*Model_Space
340
22
 70
     0
280
     1
281
     0
  0
BLOCK_RECORD
  5
1B
330
1
100
AcDbSymbolTableRecord
100
AcDbBlockTableRecord
  2
*Paper_Space
340
1E
 70
     0
280
     1
281
     0
  0
BLOCK_RECORD
  5
23
330
1
100
AcDbSymbolTableRecord
100
AcDbBlockTableRecord
  2
*Paper_Space0
340
26
 70
     0
280
     1
281
     0
  0
ENDTAB
  0
ENDSEC
  0
SECTION
  2
BLOCKS
  0
BLOCK
  5
20
330
1F
100
AcDbEntity
  8
0
100
AcDbBlockBegin
  2
*Model_Space
 70
     0
 10
0.0
 20
0.0
 30
0.0
  3
*Model_Space
  1

  0
ENDBLK
  5
21
330
1F
100
AcDbEntity
  8
0
100
AcDbBlockEnd
  0
BLOCK
  5
1C
330
1B
100
AcDbEntity
 67
     1
  8
0
100
AcDbBlockBegin
  2
*Paper_Space
 70
     0
 10
0.0
 20
0.0
 30
0.0
  3
*Paper_Space
  1

  0
ENDBLK
  5
1D
330
1B
100
AcDbEntity
 67
     1
  8
0
100
AcDbBlockEnd
  0
BLOCK
  5
24
330
23
100
AcDbEntity
  8
0
100
AcDbBlockBegin
  2
*Paper_Space0
 70
     0
 10
0.0
 20
0.0
 30
0.0
  3
*Paper_Space0
  1

  0
ENDBLK
  5
25
330
23
100
AcDbEntity
  8
0
100
AcDbBlockEnd
  0
ENDSEC
  0
SECTION
  2
ENTITIES
  0
SPLINE
  5
41
330
1F
100
AcDbEntity
  8
Layer 1
370
     0
100
AcDbSpline
210
0.0
220
0.0
230
1.0
 70
    11
 71
     3
 72
   119
 73
   115
 74
     0
 42
0.0000000001
 43
0.0000000001
 12
1.0
 22
0.0
 32
0.0
 13
1.0
 23
0.0
 33
0.0
 40
0.0
 40
0.0
 40
0.0
 40
0.0
 40
1.0
 40
1.0
 40
1.0
 40
2.0
 40
2.0
 40
2.0
 40
3.0
 40
3.0
 40
3.0
 40
4.0
 40
4.0
 40
4.0
 40
5.0
 40
5.0
 40
5.0
 40
6.0
 40
6.0
 40
6.0
 40
7.0
 40
7.0
 40
7.0
 40
8.0
 40
8.0
 40
8.0
 40
9.0
 40
9.0
 40
9.0
 40
10.0
 40
10.0
 40
10.0
 40
11.0
 40
11.0
 40
11.0
 40
12.0
 40
12.0
 40
12.0
 40
13.0
 40
13.0
 40
13.0
 40
14.0
 40
14.0
 40
14.0
 40
15.0
 40
15.0
 40
15.0
 40
16.0
 40
16.0
 40
16.0
 40
17.0
 40
17.0
 40
17.0
 40
18.0
 40
18.0
 40
18.0
 40
19.0
 40
19.0
 40
19.0
 40
20.0
 40
20.0
 40
20.0
 40
21.0
 40
21.0
 40
21.0
 40
22.0
 40
22.0
 40
22.0
 40
23.0
 40
23.0
 40
23.0
 40
24.0
 40
24.0
 40
24.0
 40
25.0
 40
25.0
 40
25.0
 40
26.0
 40
26.0
 40
26.0
 40
27.0
 40
27.0
 40
27.0
 40
28.0
 40
28.0
 40
28.0
 40
29.0
 40
29.0
 40
29.0
 40
30.0
 40
30.0
 40
30.0
 40
31.0
 40
31.0
 40
31.0
 40
32.0
 40
32.0
 40
32.0
 40
33.0
 40
33.0
 40
33.0
 40
34.0
 40
34.0
 40
34.0
 40
35.0
 40
35.0
 40
35.0
 40
36.0
 40
36.0
 40
36.0
 40
37.0
 40
37.0
 40
37.0
 40
38.0
 40
38.0
 40
38.0
 40
38.0
 10
8.404442947797001
 20
-8.015246102270718
 30
0.0
 10
8.430990493130542
 20
-7.99020435240805
 30
0.0
 10
8.456978255737415
 20
-7.964040027507457
 30
0.0
 10
8.482026024769185
 20
-7.936102054110885
 30
0.0
 10
8.683340145039715
 20
-7.7115539410986
 30
0.0
 10
8.818003002625902
 20
-7.406267703308761
 30
0.0
 10
8.897868347883382
 20
-7.094872008878282
 30
0.0
 10
9.09481756735858
 20
-6.326959456112793
 30
0.0
 10
8.961053572358624
 20
-5.491087474577689
 30
0.0
 10
8.556780092262468
 20
-4.963476203564697
 30
0.0
 10
8.218369363698027
 20
-4.521819670552822
 30
0.0
 10
7.751278831636859
 20
-4.259214357685171
 30
0.0
 10
7.269088210683271
 20
-4.371068577146287
 30
0.0
 10
7.314065448618647
 20
-4.340291562322262
 30
0.0
 10
7.353355574945529
 20
-4.309714183273538
 30
0.0
 10
7.379654327956106
 20
-4.290301359718038
 30
0.0
 10
7.521498054283458
 20
-4.185595906762867
 30
0.0
 10
7.646841231706806
 20
-4.050011113108907
 30
0.0
 10
7.68662894267964
 20
-3.873433771466466
 30
0.0
 10
7.830783026748096
 20
-3.852935491082512
 30
0.0
 10
7.878847095239027
 20
-3.54796726606033
 30
0.0
 10
7.902665950578719
 20
-3.435551257482846
 30
0.0
 10
7.957069207331086
 20
-3.178785541840991
 30
0.0
 10
7.953272114821301
 20
-2.90717354560392
 30
0.0
 10
7.9042981486008
 20
-2.649888175029421
 30
0.0
 10
7.821706119739146
 20
-2.215992357382409
 30
0.0
 10
7.585054460853421
 20
-1.795285542437265
 30
0.0
 10
7.182983996649378
 20
-1.585737198832375
 30
0.0
 10
7.015483562015889
 20
-1.498441189315915
 30
0.0
 10
6.841413204305304
 20
-1.423806502009862
 30
0.0
 10
6.651548546865595
 20
-1.404529109759197
 30
0.0
 10
6.534428557633241
 20
-1.392637237999237
 30
0.0
 10
6.166977344531333
 20
-1.380927947702099
 30
0.0
 10
5.955870036128468
 20
-1.615614347875332
 30
0.0
 10
5.78475408725314
 20
-1.580421269318625
 30
0.0
 10
5.729987673964817
 20
-1.220098758825631
 30
0.0
 10
5.601220592516079
 20
-1.087956929899204
 30
0.0
 10
5.537463546975965
 20
-1.022528561737848
 30
0.0
 10
5.46837251441477
 20
-0.9942093742980028
 30
0.0
 10
5.419570094513738
 20
-1.004599463366491
 30
0.0
 10
5.363217630166496
 20
-1.016596670585778
 30
0.0
 10
5.333914308578136
 20
-1.080203236898291
 30
0.0
 10
5.371102741692842
 20
-1.197878996077912
 30
0.0
 10
5.420430835695621
 20
-1.353968089284914
 30
0.0
 10
5.518995732969794
 20
-1.513133981098968
 30
0.0
 10
5.475008648352021
 20
-1.688551629494024
 30
0.0
 10
5.454602661894342
 20
-1.699009935812354
 30
0.0
 10
5.344453873679375
 20
-1.696778830464445
 30
0.0
 10
5.308322807937278
 20
-1.704797366905925
 30
0.0
 10
5.213180811493644
 20
-1.559681218975659
 30
0.0
 10
4.774317172946048
 20
-1.756522093406993
 30
0.0
 10
4.667280295157891
 20
-1.820100570263687
 30
0.0
 10
4.349512307035891
 20
-2.008850678224285
 30
0.0
 10
4.104191038250607
 20
-2.337100046146197
 30
0.0
 10
4.019559514257531
 20
-2.696071253175331
 30
0.0
 10
3.935300175554062
 20
-3.053462428314636
 30
0.0
 10
3.990057560088732
 20
-3.433099449267767
 30
0.0
 10
4.124300079032486
 20
-3.771116925450757
 30
0.0
 10
4.181237405977678
 20
-3.914482498366586
 30
0.0
 10
4.463775197333512
 20
-4.543023196916793
 30
0.0
 10
4.700504102222718
 20
-4.480138930896765
 30
0.0
 10
4.717031737387679
 20
-4.503167268694129
 30
0.0
 10
4.735255775045125
 20
-4.524258437234821
 30
0.0
 10
4.754633486780853
 20
-4.543937107425765
 30
0.0
 10
4.48806053827876
 20
-4.856007951990756
 30
0.0
 10
4.277393632415358
 20
-5.251963943579906
 30
0.0
 10
4.13799368874427
 20
-5.665898190088089
 30
0.0
 10
3.989912096835383
 20
-6.105604512310265
 30
0.0
 10
3.913232898423669
 20
-6.59174370819614
 30
0.0
 10
4.012707693427387
 20
-7.013116644522117
 30
0.0
 10
4.085064125227543
 20
-7.31961975766583
 30
0.0
 10
4.259657147455338
 20
-7.557537448453104
 30
0.0
 10
4.481730378770963
 20
-7.702504120350618
 30
0.0
 10
4.462923484905269
 20
-7.705579915762806
 30
0.0
 10
4.444101543116807
 20
-7.708660727149258
 30
0.0
 10
4.4247599463957
 20
-7.711958228623441
 30
0.0
 10
3.980560314437348
 20
-7.787691414290975
 30
0.0
 10
3.687325456388736
 20
-7.977633317734166
 30
0.0
 10
3.503438837064234
 20
-8.222051711153856
 30
0.0
 10
3.196959800596927
 20
-8.62941703777978
 30
0.0
 10
3.194222081849425
 20
-9.188106282072011
 30
0.0
 10
3.302547061825849
 20
-9.62157975468689
 30
0.0
 10
3.363270446137512
 20
-9.86456859544435
 30
0.0
 10
3.470595240847817
 20
-10.08821082350644
 30
0.0
 10
3.601847235941679
 20
-10.286279608435
 30
0.0
 10
3.815593949996671
 20
-10.60883785196898
 30
0.0
 10
4.105607549379758
 20
-10.87304326062349
 30
0.0
 10
4.440517127915339
 20
-10.95534335978358
 30
0.0
 10
4.775424700061194
 20
-11.03764446213851
 30
0.0
 10
5.155037644337932
 20
-11.04282295395771
 30
0.0
 10
5.363681106187502
 20
-10.71541125373617
 30
0.0
 10
5.437061799930196
 20
-10.92307660060631
 30
0.0
 10
5.609077614586605
 20
-10.94307428675979
 30
0.0
 10
5.794992693899176
 20
-10.96376518055503
 30
0.0
 10
5.980905766822048
 20
-10.98445406796062
 30
0.0
 10
6.172884155812122
 20
-11.00496438668276
 30
0.0
 10
6.276356682295828
 20
-10.81698071958807
 30
0.0
 10
6.381911841289517
 20
-10.94195973728064
 30
0.0
 10
6.512193746962768
 20
-10.91807667747051
 30
0.0
 10
6.659406572130997
 20
-10.93265008906635
 30
0.0
 10
6.806618394104311
 20
-10.94722249746734
 30
0.0
 10
6.968821959926218
 20
-10.97346507156628
 30
0.0
 10
7.001521096084136
 20
-10.79922718031558
 30
0.0
 10
7.181242450388607
 20
-11.04738548413863
 30
0.0
 10
7.482062464703201
 20
-10.98555758229635
 30
0.0
 10
7.753049470548325
 20
-10.94823472107166
 30
0.0
 10
8.06728922238047
 20
-10.90495388562876
 30
0.0
 10
8.359268080476037
 20
-10.72657179644996
 30
0.0
 10
8.589813292305683
 20
-10.46610629819879
 30
0.0
 10
8.867818649326106
 20
-10.15202003517879
 30
0.0
 10
9.05649552406261
 20
-9.718576658409422
 30
0.0
 10
9.087161184258195
 20
-9.258740228313526
 30
0.0
 10
9.131780281631892
 20
-8.589670457795844
 30
0.0
 10
8.882244591278878
 20
-8.270734750867657
 30
0.0
 10
8.404442947797001
 20
-8.015246102270718
 30
0.0
  0
SPLINE
  5
42
330
1F
100
AcDbEntity
  8
Layer 1
370
     0
100
AcDbSpline
210
0.0
220
0.0
230
1.0
 70
    11
 71
     3
 72
    26
 73
    22
 74
     0
 42
0.0000000001
 43
0.0000000001
 12
1.0
 22
0.0
 32
0.0
 13
1.0
 23
0.0
 33
0.0
 40
0.0
 40
0.0
 40
0.0
 40
0.0
 40
1.0
 40
1.0
 40
1.0
 40
2.0
 40
2.0
 40
2.0
 40
3.0
 40
3.0
 40
3.0
 40
4.0
 40
4.0
 40
4.0
 40
5.0
 40
5.0
 40
5.0
 40
6.0
 40
6.0
 40
6.0
 40
7.0
 40
7.0
 40
7.0
 40
7.0
 10
6.128808790047489
 20
-2.311753325048913
 30
0.0
 10
6.222647636380113
 20
-2.200990581585327
 30
0.0
 10
6.396808281627273
 20
-2.177678339645227
 30
0.0
 10
6.522263816873899
 20
-2.250718950333547
 30
0.0
 10
6.647720355315414
 20
-2.323760564216703
 30
0.0
 10
6.719649426109148
 20
-2.467906622726357
 30
0.0
 10
6.735895163521086
 20
-2.612164035864453
 30
0.0
 10
6.7463374187218
 20
-2.704879303964301
 30
0.0
 10
6.735692518161234
 20
-2.802297549524142
 30
0.0
 10
6.690123395263956
 20
-2.88371383402077
 30
0.0
 10
6.619965966576501
 20
-3.009056008249281
 30
0.0
 10
6.462885887345212
 20
-3.07611932916729
 30
0.0
 10
6.323723530365517
 20
-3.049121604195749
 30
0.0
 10
6.215532279196572
 20
-3.02813232443086
 30
0.0
 10
6.114173234210764
 20
-2.944038838944544
 30
0.0
 10
6.062914939475427
 20
-2.83148450050981
 30
0.0
 10
6.036862844215976
 20
-2.774278610967233
 30
0.0
 10
6.026288295477116
 20
-2.709798971512024
 30
0.0
 10
6.026115745962796
 20
-2.646998973859455
 30
0.0
 10
6.025845886547964
 20
-2.548252498317323
 30
0.0
 10
6.043853234117679
 20
-2.412029672738337
 30
0.0
 10
6.128808790047489
 20
-2.311753325048913
 30
0.0
  0
SPLINE
  5
43
330
1F
100
AcDbEntity
  8
Layer 1
370
     0
100
AcDbSpline
210
0.0
220
0.0
230
1.0
 70
    11
 71
     3
 72
    17
 73
    13
 74
     0
 42
0.0000000001
 43
0.0000000001
 12
1.0
 22
0.0
 32
0.0
 13
1.0
 23
0.0
 33
0.0
 40
0.0
 40
0.0
 40
0.0
 40
0.0
 40
1.0
 40
1.0
 40
1.0
 40
2.0
 40
2.0
 40
2.0
 40
3.0
 40
3.0
 40
3.0
 40
4.0
 40
4.0
 40
4.0
 40
4.0
 10
5.970393287981765
 20
-3.178699267083819
 30
0.0
 10
5.98751882727773
 20
-3.140997198205569
 30
0.0
 10
6.050473316937314
 20
-3.123715160512916
 30
0.0
 10
6.080927303019406
 20
-3.151774520486419
 30
0.0
 10
6.120583595466769
 20
-3.188311880143045
 30
0.0
 10
6.171123548849159
 20
-3.247942785262315
 30
0.0
 10
6.211043681542302
 20
-3.338565388903652
 30
0.0
 10
6.161443721734991
 20
-3.357167631019795
 30
0.0
 10
6.030911017349025
 20
-3.388720115463393
 30
0.0
 10
5.93758680997482
 20
-3.398897527223539
 30
0.0
 10
5.929922401315631
 20
-3.337465887347308
 30
0.0
 10
5.942551621290855
 20
-3.239996478850078
 30
0.0
 10
5.970393287981765
 20
-3.178699267083819
 30
0.0
  0
SPLINE
  5
44
330
1F
100
AcDbEntity
  8
Layer 1
370
     0
100
AcDbSpline
210
0.0
220
0.0
230
1.0
 70
    11
 71
     3
 72
    26
 73
    22
 74
     0
 42
0.0000000001
 43
0.0000000001
 12
1.0
 22
0.0
 32
0.0
 13
1.0
 23
0.0
 33
0.0
 40
0.0
 40
0.0
 40
0.0
 40
0.0
 40
1.0
 40
1.0
 40
1.0
 40
2.0
 40
2.0
 40
2.0
 40
3.0
 40
3.0
 40
3.0
 40
4.0
 40
4.0
 40
4.0
 40
5.0
 40
5.0
 40
5.0
 40
6.0
 40
6.0
 40
6.0
 40
7.0
 40
7.0
 40
7.0
 40
7.0
 10
5.197519936679681
 20
-2.542995757299764
 30
0.0
 10
5.280595505459334
 20
-2.423947627564404
 30
0.0
 10
5.448396898548038
 20
-2.371812594369417
 30
0.0
 10
5.580131430365074
 20
-2.432806841290774
 30
0.0
 10
5.699394243798476
 20
-2.488026698651601
 30
0.0
 10
5.773047806540553
 20
-2.604026119235729
 30
0.0
 10
5.814353351322451
 20
-2.693719764445329
 30
0.0
 10
5.842358538774028
 20
-2.754533436293551
 30
0.0
 10
5.863171902493516
 20
-2.822228976815912
 30
0.0
 10
5.858975458280699
 20
-2.889011706027216
 30
0.0
 10
5.849355599822338
 20
-3.042103316422476
 30
0.0
 10
5.805799502735251
 20
-3.123824114784902
 30
0.0
 10
5.706986422428423
 20
-3.188108231588355
 30
0.0
 10
5.590286305044931
 20
-3.264028989787195
 30
0.0
 10
5.425813979264376
 20
-3.27047755119314
 30
0.0
 10
5.311593223150504
 20
-3.187856429680828
 30
0.0
 10
5.235995468787804
 20
-3.133173281565127
 30
0.0
 10
5.185348173556374
 20
-3.049278102592439
 30
0.0
 10
5.155808097983254
 20
-2.960776252865458
 30
0.0
 10
5.10984672589935
 20
-2.823075721271417
 30
0.0
 10
5.114445371094866
 20
-2.662044890229961
 30
0.0
 10
5.197519936679681
 20
-2.542995757299764
 30
0.0
  0
SPLINE
  5
45
330
1F
100
AcDbEntity
  8
Layer 1
370
     0
100
AcDbSpline
210
0.0
220
0.0
230
1.0
 70
    11
 71
     3
 72
   110
 73
   106
 74
     0
 42
0.0000000001
 43
0.0000000001
 12
1.0
 22
0.0
 32
0.0
 13
1.0
 23
0.0
 33
0.0
 40
0.0
 40
0.0
 40
0.0
 40
0.0
 40
1.0
 40
1.0
 40
1.0
 40
2.0
 40
2.0
 40
2.0
 40
3.0
 40
3.0
 40
3.0
 40
4.0
 40
4.0
 40
4.0
 40
5.0
 40
5.0
 40
5.0
 40
6.0
 40
6.0
 40
6.0
 40
7.0
 40
7.0
 40
7.0
 40
8.0
 40
8.0
 40
8.0
 40
9.0
 40
9.0
 40
9.0
 40
10.0
 40
10.0
 40
10.0
 40
11.0
 40
11.0
 40
11.0
 40
12.0
 40
12.0
 40
12.0
 40
13.0
 40
13.0
 40
13.0
 40
14.0
 40
14.0
 40
14.0
 40
15.0
 40
15.0
 40
15.0
 40
16.0
 40
16.0
 40
16.0
 40
17.0
 40
17.0
 40
17.0
 40
18.0
 40
18.0
 40
18.0
 40
19.0
 40
19.0
 40
19.0
 40
20.0
 40
20.0
 40
20.0
 40
21.0
 40
21.0
 40
21.0
 40
22.0
 40
22.0
 40
22.0
 40
23.0
 40
23.0
 40
23.0
 40
24.0
 40
24.0
 40
24.0
 40
25.0
 40
25.0
 40
25.0
 40
26.0
 40
26.0
 40
26.0
 40
27.0
 40
27.0
 40
27.0
 40
28.0
 40
28.0
 40
28.0
 40
29.0
 40
29.0
 40
29.0
 40
30.0
 40
30.0
 40
30.0
 40
31.0
 40
31.0
 40
31.0
 40
32.0
 40
32.0
 40
32.0
 40
33.0
 40
33.0
 40
33.0
 40
34.0
 40
34.0
 40
34.0
 40
35.0
 40
35.0
 40
35.0
 40
35.0
 10
4.716764887557385
 20
-3.342827963824182
 30
0.0
 10
4.782234386707614
 20
-3.468053767450025
 30
0.0
 10
4.946986067450249
 20
-3.561136204865218
 30
0.0
 10
5.144576328435025
 20
-3.619737832067686
 30
0.0
 10
5.142417453116372
 20
-3.642025812065248
 30
0.0
 10
5.141076181601016
 20
-3.678575210060078
 30
0.0
 10
5.140296699202028
 20
-3.708073151449462
 30
0.0
 10
5.139562360571327
 20
-3.735852620059644
 30
0.0
 10
5.156835369510341
 20
-3.760902395481126
 30
0.0
 10
5.183029790256455
 20
-3.770178938265366
 30
0.0
 10
5.183029790256455
 20
-3.770178938265366
 30
0.0
 10
5.46631496177603
 20
-3.870500429723077
 30
0.0
 10
5.46631496177603
 20
-3.870500429723077
 30
0.0
 10
5.501360570689674
 20
-3.882910953220845
 30
0.0
 10
5.539572262552079
 20
-3.863103874089006
 30
0.0
 10
5.549544019367848
 20
-3.827288814724877
 30
0.0
 10
5.560108664340368
 20
-3.789339959913352
 30
0.0
 10
5.57682891291664
 20
-3.727083693869859
 30
0.0
 10
5.586096426947228
 20
-3.691266628116018
 30
0.0
 10
5.677933899552727
 20
-3.695094819666224
 30
0.0
 10
5.782891154415425
 20
-3.690991752726934
 30
0.0
 10
5.882393035680113
 20
-3.682289037397279
 30
0.0
 10
5.882393035680113
 20
-3.682289037397279
 30
0.0
 10
5.899768370493891
 20
-3.76493523878086
 30
0.0
 10
5.899768370493891
 20
-3.76493523878086
 30
0.0
 10
5.907300357432809
 20
-3.800761333288341
 30
0.0
 10
5.94239411969929
 20
-3.823747536901982
 30
0.0
 10
5.978247300467741
 20
-3.816332923760607
 30
0.0
 10
5.978247300467741
 20
-3.816332923760607
 30
0.0
 10
6.405379578431469
 20
-3.728010645911884
 30
0.0
 10
6.405379578431469
 20
-3.728010645911884
 30
0.0
 10
6.441400292739975
 20
-3.720562927340425
 30
0.0
 10
6.464516911684212
 20
-3.685268526103805
 30
0.0
 10
6.456949812925536
 20
-3.649272891666556
 30
0.0
 10
6.456949812925536
 20
-3.649272891666556
 30
0.0
 10
6.438523129908238
 20
-3.561626767147193
 30
0.0
 10
6.438523129908238
 20
-3.561626767147193
 30
0.0
 10
6.526751107440987
 20
-3.530721343382298
 30
0.0
 10
6.70010217444365
 20
-3.452990796767065
 30
0.0
 10
6.704098902728775
 20
-3.450972368727485
 30
0.0
 10
6.726791170251166
 20
-3.479451064148596
 30
0.0
 10
6.755770459902729
 20
-3.515414596350613
 30
0.0
 10
6.775209366524374
 20
-3.539162224855924
 30
0.0
 10
6.798758362449234
 20
-3.567927834004321
 30
0.0
 10
6.841711153175942
 20
-3.570671571920936
 30
0.0
 10
6.86879039178037
 20
-3.545199451467321
 30
0.0
 10
6.86879039178037
 20
-3.545199451467321
 30
0.0
 10
7.087696536952383
 20
-3.33929772114464
 30
0.0
 10
7.087696536952383
 20
-3.33929772114464
 30
0.0
 10
7.107939002649421
 20
-3.320259089268436
 30
0.0
 10
7.11366222927255
 20
-3.290375921056377
 30
0.0
 10
7.101803462942648
 20
-3.265242880462299
 30
0.0
 10
7.092954281164793
 20
-3.24648915592368
 30
0.0
 10
7.082434779960572
 20
-3.224619508178863
 30
0.0
 10
7.073162249955758
 20
-3.206495790006481
 30
0.0
 10
7.224176180413147
 20
-3.075801571249586
 30
0.0
 10
7.332078815357439
 20
-2.928421212541328
 30
0.0
 10
7.341338303829211
 20
-2.791038693714945
 30
0.0
 10
7.341338303829211
 20
-2.791038693714945
 30
0.0
 10
7.417671400017475
 20
-3.361736180369803
 30
0.0
 10
7.268671884820226
 20
-3.595065257910063
 30
0.0
 10
7.214681944346315
 20
-3.679615523120219
 30
0.0
 10
7.132212305256466
 20
-3.757235718301887
 30
0.0
 10
7.035428078842263
 20
-3.826427070348144
 30
0.0
 10
7.014274712220817
 20
-3.803846157454195
 30
0.0
 10
6.984528981703306
 20
-3.774510733630601
 30
0.0
 10
6.960151346831783
 20
-3.75092562269112
 30
0.0
 10
6.934927015506268
 20
-3.726521904753478
 30
0.0
 10
6.897312224580016
 20
-3.720401412969472
 30
0.0
 10
6.865639356754374
 20
-3.735524575343485
 30
0.0
 10
6.807039735941594
 20
-3.763504682923793
 30
0.0
 10
6.710061892921203
 20
-3.810782246651784
 30
0.0
 10
6.63109440705509
 20
-3.854004896793337
 30
0.0
 10
6.593747469153969
 20
-3.874445995070801
 30
0.0
 10
6.577859872303734
 20
-3.919646945457885
 30
0.0
 10
6.593622069797624
 20
-3.959197902445946
 30
0.0
 10
6.60500030579404
 20
-3.9877468215066
 30
0.0
 10
6.618234452264232
 20
-4.015646673498862
 30
0.0
 10
6.632500886235725
 20
-4.043121170874441
 30
0.0
 10
6.494004821125094
 20
-4.100073545742386
 30
0.0
 10
6.360445477874666
 20
-4.140812285433652
 30
0.0
 10
6.259293341080618
 20
-4.162078009878365
 30
0.0
 10
6.181348110767329
 20
-4.178465197764227
 30
0.0
 10
6.081104868507964
 20
-4.192023376171177
 30
0.0
 10
5.970743402984655
 20
-4.199063797633231
 30
0.0
 10
5.970743402984655
 20
-4.199063797633231
 30
0.0
 10
5.950886164110291
 20
-4.068984537319819
 30
0.0
 10
5.950886164110291
 20
-4.068984537319819
 30
0.0
 10
5.944370413555134
 20
-4.026302609202781
 30
0.0
 10
5.905152517257496
 20
-3.996543837152217
 30
0.0
 10
5.862290014067349
 20
-4.001737376894186
 30
0.0
 10
5.776172758500416
 20
-4.012170603341247
 30
0.0
 10
5.667301037330376
 20
-4.026500238588369
 30
0.0
 10
5.603592145143087
 20
-4.034987267025119
 30
0.0
 10
5.571257168715962
 20
-4.039294985713935
 30
0.0
 10
5.544892204845243
 20
-4.062801847455072
 30
0.0
 10
5.536859623675847
 20
-4.094418536369113
 30
0.0
 10
5.529282492968655
 20
-4.124241512890118
 30
0.0
 10
5.520371113110071
 20
-4.160284297485355
 30
0.0
 10
5.515056186791171
 20
-4.184937810940824
 30
0.0
 10
5.359784697387466
 20
-4.163100265431214
 30
0.0
 10
5.214232159697151
 20
-4.120993167963623
 30
0.0
 10
5.10704279629168
 20
-4.04952556680117
 30
0.0
 10
4.876703239406462
 20
-3.895947470305423
 30
0.0
 10
4.716764887557385
 20
-3.342827963824182
 30
0.0
 10
4.716764887557385
 20
-3.342827963824182
 30
0.0
  0
SPLINE
  5
46
330
1F
100
AcDbEntity
  8
Layer 1
370
     0
100
AcDbSpline
210
0.0
220
0.0
230
1.0
 70
    11
 71
     3
 72
    14
 73
    10
 74
     0
 42
0.0000000001
 43
0.0000000001
 12
1.0
 22
0.0
 32
0.0
 13
1.0
 23
0.0
 33
0.0
 40
0.0
 40
0.0
 40
0.0
 40
0.0
 40
1.0
 40
1.0
 40
1.0
 40
2.0
 40
2.0
 40
2.0
 40
3.0
 40
3.0
 40
3.0
 40
3.0
 10
6.536006583133384
 20
-6.29975983412631
 30
0.0
 10
6.643233064748301
 20
-6.328638804292823
 30
0.0
 10
6.70708441060439
 20
-6.732057562376187
 30
0.0
 10
6.62114271413634
 20
-6.837650842774236
 30
0.0
 10
6.535200014473427
 20
-6.943245126367097
 30
0.0
 10
6.213523579213188
 20
-6.856607212672694
 30
0.0
 10
6.192239797261158
 20
-6.722132955718406
 30
0.0
 10
6.170956015309103
 20
-6.587660705153868
 30
0.0
 10
6.428781104713304
 20
-6.270879860764934
 30
0.0
 10
6.536006583133384
 20
-6.29975983412631
 30
0.0
  0
SPLINE
  5
47
330
1F
100
AcDbEntity
  8
Layer 1
370
     0
100
AcDbSpline
210
0.0
220
0.0
230
1.0
 70
    11
 71
     3
 72
    20
 73
    16
 74
     0
 42
0.0000000001
 43
0.0000000001
 12
1.0
 22
0.0
 32
0.0
 13
1.0
 23
0.0
 33
0.0
 40
0.0
 40
0.0
 40
0.0
 40
0.0
 40
1.0
 40
1.0
 40
1.0
 40
2.0
 40
2.0
 40
2.0
 40
3.0
 40
3.0
 40
3.0
 40
4.0
 40
4.0
 40
4.0
 40
5.0
 40
5.0
 40
5.0
 40
5.0
 10
5.740610504238664
 20
-6.347794809966571
 30
0.0
 10
5.503478315019479
 20
-6.331913232285463
 30
0.0
 10
5.284090636319105
 20
-6.029413869790814
 30
0.0
 10
5.251382471407535
 20
-5.774696678034047
 30
0.0
 10
5.247798056206054
 20
-5.746786794093269
 30
0.0
 10
5.236031583802438
 20
-5.663192573575808
 30
0.0
 10
5.236031583802438
 20
-5.663192573575808
 30
0.0
 10
5.236031583802438
 20
-5.663192573575808
 30
0.0
 10
6.335419779129627
 20
-5.31507593483103
 30
0.0
 10
6.335419779129627
 20
-5.31507593483103
 30
0.0
 10
6.350498800930179
 20
-5.424249617651134
 30
0.0
 10
6.300014023264566
 20
-5.74966997609412
 30
0.0
 10
6.275461832489023
 20
-5.85557123731131
 30
0.0
 10
6.207666927674912
 20
-6.147997520310279
 30
0.0
 10
5.977743696652712
 20
-6.363677390842516
 30
0.0
 10
5.740610504238664
 20
-6.347794809966571
 30
0.0
  0
SPLINE
  5
48
330
1F
100
AcDbEntity
  8
Layer 1
370
     0
100
AcDbSpline
210
0.0
220
0.0
230
1.0
 70
    11
 71
     3
 72
    20
 73
    16
 74
     0
 42
0.0000000001
 43
0.0000000001
 12
1.0
 22
0.0
 32
0.0
 13
1.0
 23
0.0
 33
0.0
 40
0.0
 40
0.0
 40
0.0
 40
0.0
 40
1.0
 40
1.0
 40
1.0
 40
2.0
 40
2.0
 40
2.0
 40
3.0
 40
3.0
 40
3.0
 40
4.0
 40
4.0
 40
4.0
 40
5.0
 40
5.0
 40
5.0
 40
5.0
 10
5.500288155394312
 20
-9.77366008127059
 30
0.0
 10
5.263804030048655
 20
-9.858860416743987
 30
0.0
 10
5.000900768310354
 20
-9.865968052261021
 30
0.0
 10
4.881673066696723
 20
-9.760340663238088
 30
0.0
 10
4.756502438787682
 20
-9.649448507638756
 30
0.0
 10
4.709147629056184
 20
-9.475046092432597
 30
0.0
 10
4.691246620140646
 20
-9.308780590660287
 30
0.0
 10
4.67026981581292
 20
-9.113942093150904
 30
0.0
 10
4.685353853587736
 20
-8.903622292705853
 30
0.0
 10
4.79960470554714
 20
-8.744410253928688
 30
0.0
 10
4.79960470554714
 20
-8.744410253928688
 30
0.0
 10
5.937553704544749
 20
-9.4192092702386
 30
0.0
 10
5.937553704544749
 20
-9.4192092702386
 30
0.0
 10
5.875185080677978
 20
-9.578055142895284
 30
0.0
 10
5.696864186385053
 20
-9.702837534397126
 30
0.0
 10
5.500288155394312
 20
-9.77366008127059
 30
0.0
  0
SPLINE
  5
49
330
1F
100
AcDbEntity
  8
Layer 1
370
     0
100
AcDbSpline
210
0.0
220
0.0
230
1.0
 70
    11
 71
     3
 72
    14
 73
    10
 74
     0
 42
0.0000000001
 43
0.0000000001
 12
1.0
 22
0.0
 32
0.0
 13
1.0
 23
0.0
 33
0.0
 40
0.0
 40
0.0
 40
0.0
 40
0.0
 40
1.0
 40
1.0
 40
1.0
 40
2.0
 40
2.0
 40
2.0
 40
3.0
 40
3.0
 40
3.0
 40
3.0
 10
6.403992159953001
 20
-10.26134018444708
 30
0.0
 10
6.360595957102279
 20
-10.34827002784307
 30
0.0
 10
5.915131296437203
 20
-10.34317781078102
 30
0.0
 10
5.873116492895885
 20
-10.26134018444708
 30
0.0
 10
5.831101689354555
 20
-10.17950356130801
 30
0.0
 10
6.025189797115622
 20
-9.801589025913497
 30
0.0
 10
6.138554828021875
 20
-9.801589025913497
 30
0.0
 10
6.251920862122965
 20
-9.801589025913497
 30
0.0
 10
6.447389365998561
 20
-10.17441034105112
 30
0.0
 10
6.403992159953001
 20
-10.26134018444708
 30
0.0
  0
SPLINE
  5
4A
330
1F
100
AcDbEntity
  8
Layer 1
370
     0
100
AcDbSpline
210
0.0
220
0.0
230
1.0
 70
    11
 71
     3
 72
    20
 73
    16
 74
     0
 42
0.0000000001
 43
0.0000000001
 12
1.0
 22
0.0
 32
0.0
 13
1.0
 23
0.0
 33
0.0
 40
0.0
 40
0.0
 40
0.0
 40
0.0
 40
1.0
 40
1.0
 40
1.0
 40
2.0
 40
2.0
 40
2.0
 40
3.0
 40
3.0
 40
3.0
 40
4.0
 40
4.0
 40
4.0
 40
5.0
 40
5.0
 40
5.0
 40
5.0
 10
7.643313998611802
 20
-9.308780590660287
 30
0.0
 10
7.625412989696289
 20
-9.475046092432597
 30
0.0
 10
7.578058179964803
 20
-9.649448507638756
 30
0.0
 10
7.452887552055724
 20
-9.760340663238088
 30
0.0
 10
7.333659850442118
 20
-9.865968052261021
 30
0.0
 10
7.070755585508979
 20
-9.858860416743987
 30
0.0
 10
6.83427146016331
 20
-9.77366008127059
 30
0.0
 10
6.637695429172557
 20
-9.702837534397126
 30
0.0
 10
6.459374534879644
 20
-9.578055142895284
 30
0.0
 10
6.397006914207723
 20
-9.4192092702386
 30
0.0
 10
6.397006914207723
 20
-9.4192092702386
 30
0.0
 10
7.534954910010482
 20
-8.744410253928688
 30
0.0
 10
7.534954910010482
 20
-8.744410253928688
 30
0.0
 10
7.649206765164712
 20
-8.903622292705853
 30
0.0
 10
7.664290802939528
 20
-9.113942093150904
 30
0.0
 10
7.643313998611802
 20
-9.308780590660287
 30
0.0
  0
SPLINE
  5
4B
330
1F
100
AcDbEntity
  8
Layer 1
370
     0
100
AcDbSpline
210
0.0
220
0.0
230
1.0
 70
    11
 71
     3
 72
    53
 73
    49
 74
     0
 42
0.0000000001
 43
0.0000000001
 12
1.0
 22
0.0
 32
0.0
 13
1.0
 23
0.0
 33
0.0
 40
0.0
 40
0.0
 40
0.0
 40
0.0
 40
1.0
 40
1.0
 40
1.0
 40
2.0
 40
2.0
 40
2.0
 40
3.0
 40
3.0
 40
3.0
 40
4.0
 40
4.0
 40
4.0
 40
5.0
 40
5.0
 40
5.0
 40
6.0
 40
6.0
 40
6.0
 40
7.0
 40
7.0
 40
7.0
 40
8.0
 40
8.0
 40
8.0
 40
9.0
 40
9.0
 40
9.0
 40
10.0
 40
10.0
 40
10.0
 40
11.0
 40
11.0
 40
11.0
 40
12.0
 40
12.0
 40
12.0
 40
13.0
 40
13.0
 40
13.0
 40
14.0
 40
14.0
 40
14.0
 40
15.0
 40
15.0
 40
15.0
 40
16.0
 40
16.0
 40
16.0
 40
16.0
 10
7.122630791237624
 20
-7.741533416016333
 30
0.0
 10
7.122630791237624
 20
-7.741533416016333
 30
0.0
 10
6.785493116938697
 20
-7.586036207771232
 30
0.0
 10
6.785493116938697
 20
-7.586036207771232
 30
0.0
 10
6.785493116938697
 20
-7.586036207771232
 30
0.0
 10
6.547378799960673
 20
-7.707053608998446
 30
0.0
 10
6.547378799960673
 20
-7.707053608998446
 30
0.0
 10
6.547378799960673
 20
-7.707053608998446
 30
0.0
 10
6.201756103614722
 20
-7.460919752384117
 30
0.0
 10
6.201756103614722
 20
-7.460919752384117
 30
0.0
 10
6.201756103614722
 20
-7.460919752384117
 30
0.0
 10
5.819381363914052
 20
-7.51098017862791
 30
0.0
 10
5.819381363914052
 20
-7.51098017862791
 30
0.0
 10
5.819381363914052
 20
-7.51098017862791
 30
0.0
 10
5.674256187230134
 20
-7.286743056019329
 30
0.0
 10
5.674256187230134
 20
-7.286743056019329
 30
0.0
 10
5.674256187230134
 20
-7.286743056019329
 30
0.0
 10
5.304627038107368
 20
-7.251885044542759
 30
0.0
 10
5.304627038107368
 20
-7.251885044542759
 30
0.0
 10
5.304627038107368
 20
-7.251885044542759
 30
0.0
 10
5.204499163255857
 20
-6.500595430453055
 30
0.0
 10
5.180769592257875
 20
-6.316323584305892
 30
0.0
 10
5.180769592257875
 20
-6.316323584305892
 30
0.0
 10
5.535971796232994
 20
-6.923925599932722
 30
0.0
 10
5.535971796232994
 20
-6.923925599932722
 30
0.0
 10
5.535971796232994
 20
-6.923925599932722
 30
0.0
 10
5.907475916531666
 20
-6.974633086855166
 30
0.0
 10
5.907475916531666
 20
-6.974633086855166
 30
0.0
 10
5.907475916531666
 20
-6.974633086855166
 30
0.0
 10
6.049347732314851
 20
-7.221356822041697
 30
0.0
 10
6.049347732314851
 20
-7.221356822041697
 30
0.0
 10
6.049347732314851
 20
-7.221356822041697
 30
0.0
 10
6.306390329735475
 20
-7.131425419652512
 30
0.0
 10
6.306390329735475
 20
-7.131425419652512
 30
0.0
 10
6.306390329735475
 20
-7.131425419652512
 30
0.0
 10
6.493979741253825
 20
-7.34111120095195
 30
0.0
 10
6.493979741253825
 20
-7.34111120095195
 30
0.0
 10
6.493979741253825
 20
-7.34111120095195
 30
0.0
 10
6.740573061109798
 20
-7.199013666327396
 30
0.0
 10
6.740573061109798
 20
-7.199013666327396
 30
0.0
 10
6.740573061109798
 20
-7.199013666327396
 30
0.0
 10
7.087292249427592
 20
-7.341747226487288
 30
0.0
 10
7.087292249427592
 20
-7.341747226487288
 30
0.0
 10
7.087292249427592
 20
-7.341747226487288
 30
0.0
 10
7.699604264878316
 20
-6.994729086103992
 30
0.0
 10
7.699604264878316
 20
-6.994729086103992
 30
0.0
 10
7.586538186037589
 20
-7.142156594970224
 30
0.0
 10
7.122630791237624
 20
-7.741533416016333
 30
0.0
 10
7.122630791237624
 20
-7.741533416016333
 30
0.0
  0
SPLINE
  5
4C
330
1F
100
AcDbEntity
  8
Layer 1
370
     0
100
AcDbSpline
210
0.0
220
0.0
230
1.0
 70
    11
 71
     3
 72
    20
 73
    16
 74
     0
 42
0.0000000001
 43
0.0000000001
 12
1.0
 22
0.0
 32
0.0
 13
1.0
 23
0.0
 33
0.0
 40
0.0
 40
0.0
 40
0.0
 40
0.0
 40
1.0
 40
1.0
 40
1.0
 40
2.0
 40
2.0
 40
2.0
 40
3.0
 40
3.0
 40
3.0
 40
4.0
 40
4.0
 40
4.0
 40
5.0
 40
5.0
 40
5.0
 40
5.0
 10
7.83562344190265
 20
-6.186648611517285
 30
0.0
 10
7.744866410151316
 20
-6.426885688799327
 30
0.0
 10
7.461440791352642
 20
-6.670415251581314
 30
0.0
 10
7.227068391167651
 20
-6.630997719508387
 30
0.0
 10
6.992694987787849
 20
-6.591582193825161
 30
0.0
 10
6.818915556583938
 20
-6.32855553912024
 30
0.0
 10
6.820619984635262
 20
-6.028378572704898
 30
0.0
 10
6.82123795266327
 20
-5.919670372295514
 30
0.0
 10
6.847418328681467
 20
-5.591398934086883
 30
0.0
 10
6.887349496517951
 20
-5.488676797351508
 30
0.0
 10
6.887349496517951
 20
-5.488676797351508
 30
0.0
 10
7.876357165619639
 20
-6.081722455694944
 30
0.0
 10
7.876357165619639
 20
-6.081722455694944
 30
0.0
 10
7.876357165619639
 20
-6.081722455694944
 30
0.0
 10
7.845568112457435
 20
-6.160325781830301
 30
0.0
 10
7.83562344190265
 20
-6.186648611517285
 30
0.0
  0
HATCH
  5
4D
330
1F
100
AcDbEntity
  8
Layer 1
 62
     7
100
AcDbHatch
 10
0.0
 20
0.0
 30
0.0
210
0.0
220
0.0
230
1.0
  2
SOLID
 70
     1
 71
     0
 91
       12
 92
        1
 93
        1
 72
     4
 94
        3
 73
     0
 74
     1
 95
      119
 96
      115
 40
0.0
 40
0.0
 40
0.0
 40
0.0
 40
1.0
 40
1.0
 40
1.0
 40
2.0
 40
2.0
 40
2.0
 40
3.0
 40
3.0
 40
3.0
 40
4.0
 40
4.0
 40
4.0
 40
5.0
 40
5.0
 40
5.0
 40
6.0
 40
6.0
 40
6.0
 40
7.0
 40
7.0
 40
7.0
 40
8.0
 40
8.0
 40
8.0
 40
9.0
 40
9.0
 40
9.0
 40
10.0
 40
10.0
 40
10.0
 40
11.0
 40
11.0
 40
11.0
 40
12.0
 40
12.0
 40
12.0
 40
13.0
 40
13.0
 40
13.0
 40
14.0
 40
14.0
 40
14.0
 40
15.0
 40
15.0
 40
15.0
 40
16.0
 40
16.0
 40
16.0
 40
17.0
 40
17.0
 40
17.0
 40
18.0
 40
18.0
 40
18.0
 40
19.0
 40
19.0
 40
19.0
 40
20.0
 40
20.0
 40
20.0
 40
21.0
 40
21.0
 40
21.0
 40
22.0
 40
22.0
 40
22.0
 40
23.0
 40
23.0
 40
23.0
 40
24.0
 40
24.0
 40
24.0
 40
25.0
 40
25.0
 40
25.0
 40
26.0
 40
26.0
 40
26.0
 40
27.0
 40
27.0
 40
27.0
 40
28.0
 40
28.0
 40
28.0
 40
29.0
 40
29.0
 40
29.0
 40
30.0
 40
30.0
 40
30.0
 40
31.0
 40
31.0
 40
31.0
 40
32.0
 40
32.0
 40
32.0
 40
33.0
 40
33.0
 40
33.0
 40
34.0
 40
34.0
 40
34.0
 40
35.0
 40
35.0
 40
35.0
 40
36.0
 40
36.0
 40
36.0
 40
37.0
 40
37.0
 40
37.0
 40
38.0
 40
38.0
 40
38.0
 40
38.0
 10
8.404442947797001
 20
-8.015246102270718
 10
8.430990493130542
 20
-7.99020435240805
 10
8.456978255737415
 20
-7.964040027507457
 10
8.482026024769185
 20
-7.936102054110885
 10
8.683340145039715
 20
-7.7115539410986
 10
8.818003002625902
 20
-7.406267703308761
 10
8.897868347883382
 20
-7.094872008878282
 10
9.09481756735858
 20
-6.326959456112793
 10
8.961053572358624
 20
-5.491087474577689
 10
8.556780092262468
 20
-4.963476203564697
 10
8.218369363698027
 20
-4.521819670552822
 10
7.751278831636859
 20
-4.259214357685171
 10
7.269088210683271
 20
-4.371068577146287
 10
7.314065448618647
 20
-4.340291562322262
 10
7.353355574945529
 20
-4.309714183273538
 10
7.379654327956106
 20
-4.290301359718038
 10
7.521498054283458
 20
-4.185595906762867
 10
7.646841231706806
 20
-4.050011113108907
 10
7.68662894267964
 20
-3.873433771466466
 10
7.830783026748096
 20
-3.852935491082512
 10
7.878847095239027
 20
-3.54796726606033
 10
7.902665950578719
 20
-3.435551257482846
 10
7.957069207331086
 20
-3.178785541840991
 10
7.953272114821301
 20
-2.90717354560392
 10
7.9042981486008
 20
-2.649888175029421
 10
7.821706119739146
 20
-2.215992357382409
 10
7.585054460853421
 20
-1.795285542437265
 10
7.182983996649378
 20
-1.585737198832375
 10
7.015483562015889
 20
-1.498441189315915
 10
6.841413204305304
 20
-1.423806502009862
 10
6.651548546865595
 20
-1.404529109759197
 10
6.534428557633241
 20
-1.392637237999237
 10
6.166977344531333
 20
-1.380927947702099
 10
5.955870036128468
 20
-1.615614347875332
 10
5.78475408725314
 20
-1.580421269318625
 10
5.729987673964817
 20
-1.220098758825631
 10
5.601220592516079
 20
-1.087956929899204
 10
5.537463546975965
 20
-1.022528561737848
 10
5.46837251441477
 20
-0.9942093742980028
 10
5.419570094513738
 20
-1.004599463366491
 10
5.363217630166496
 20
-1.016596670585778
 10
5.333914308578136
 20
-1.080203236898291
 10
5.371102741692842
 20
-1.197878996077912
 10
5.420430835695621
 20
-1.353968089284914
 10
5.518995732969794
 20
-1.513133981098968
 10
5.475008648352021
 20
-1.688551629494024
 10
5.454602661894342
 20
-1.699009935812354
 10
5.344453873679375
 20
-1.696778830464445
 10
5.308322807937278
 20
-1.704797366905925
 10
5.213180811493644
 20
-1.559681218975659
 10
4.774317172946048
 20
-1.756522093406993
 10
4.667280295157891
 20
-1.820100570263687
 10
4.349512307035891
 20
-2.008850678224285
 10
4.104191038250607
 20
-2.337100046146197
 10
4.019559514257531
 20
-2.696071253175331
 10
3.935300175554062
 20
-3.053462428314636
 10
3.990057560088732
 20
-3.433099449267767
 10
4.124300079032486
 20
-3.771116925450757
 10
4.181237405977678
 20
-3.914482498366586
 10
4.463775197333512
 20
-4.543023196916793
 10
4.700504102222718
 20
-4.480138930896765
 10
4.717031737387679
 20
-4.503167268694129
 10
4.735255775045125
 20
-4.524258437234821
 10
4.754633486780853
 20
-4.543937107425765
 10
4.48806053827876
 20
-4.856007951990756
 10
4.277393632415358
 20
-5.251963943579906
 10
4.13799368874427
 20
-5.665898190088089
 10
3.989912096835383
 20
-6.105604512310265
 10
3.913232898423669
 20
-6.59174370819614
 10
4.012707693427387
 20
-7.013116644522117
 10
4.085064125227543
 20
-7.31961975766583
 10
4.259657147455338
 20
-7.557537448453104
 10
4.481730378770963
 20
-7.702504120350618
 10
4.462923484905269
 20
-7.705579915762806
 10
4.444101543116807
 20
-7.708660727149258
 10
4.4247599463957
 20
-7.711958228623441
 10
3.980560314437348
 20
-7.787691414290975
 10
3.687325456388736
 20
-7.977633317734166
 10
3.503438837064234
 20
-8.222051711153856
 10
3.196959800596927
 20
-8.62941703777978
 10
3.194222081849425
 20
-9.188106282072011
 10
3.302547061825849
 20
-9.62157975468689
 10
3.363270446137512
 20
-9.86456859544435
 10
3.470595240847817
 20
-10.08821082350644
 10
3.601847235941679
 20
-10.286279608435
 10
3.815593949996671
 20
-10.60883785196898
 10
4.105607549379758
 20
-10.87304326062349
 10
4.440517127915339
 20
-10.95534335978358
 10
4.775424700061194
 20
-11.03764446213851
 10
5.155037644337932
 20
-11.04282295395771
 10
5.363681106187502
 20
-10.71541125373617
 10
5.437061799930196
 20
-10.92307660060631
 10
5.609077614586605
 20
-10.94307428675979
 10
5.794992693899176
 20
-10.96376518055503
 10
5.980905766822048
 20
-10.98445406796062
 10
6.172884155812122
 20
-11.00496438668276
 10
6.276356682295828
 20
-10.81698071958807
 10
6.381911841289517
 20
-10.94195973728064
 10
6.512193746962768
 20
-10.91807667747051
 10
6.659406572130997
 20
-10.93265008906635
 10
6.806618394104311
 20
-10.94722249746734
 10
6.968821959926218
 20
-10.97346507156628
 10
7.001521096084136
 20
-10.79922718031558
 10
7.181242450388607
 20
-11.04738548413863
 10
7.482062464703201
 20
-10.98555758229635
 10
7.753049470548325
 20
-10.94823472107166
 10
8.06728922238047
 20
-10.90495388562876
 10
8.359268080476037
 20
-10.72657179644996
 10
8.589813292305683
 20
-10.46610629819879
 10
8.867818649326106
 20
-10.15202003517879
 10
9.05649552406261
 20
-9.718576658409422
 10
9.087161184258195
 20
-9.258740228313526
 10
9.131780281631892
 20
-8.589670457795844
 10
8.882244591278878
 20
-8.270734750867657
 10
8.404442947797001
 20
-8.015246102270718
 97
        0
 92
        1
 93
        1
 72
     4
 94
        3
 73
     0
 74
     1
 95
       26
 96
       22
 40
0.0
 40
0.0
 40
0.0
 40
0.0
 40
1.0
 40
1.0
 40
1.0
 40
2.0
 40
2.0
 40
2.0
 40
3.0
 40
3.0
 40
3.0
 40
4.0
 40
4.0
 40
4.0
 40
5.0
 40
5.0
 40
5.0
 40
6.0
 40
6.0
 40
6.0
 40
7.0
 40
7.0
 40
7.0
 40
7.0
 10
6.128808790047489
 20
-2.311753325048913
 10
6.222647636380113
 20
-2.200990581585327
 10
6.396808281627273
 20
-2.177678339645227
 10
6.522263816873899
 20
-2.250718950333547
 10
6.647720355315414
 20
-2.323760564216703
 10
6.719649426109148
 20
-2.467906622726357
 10
6.735895163521086
 20
-2.612164035864453
 10
6.7463374187218
 20
-2.704879303964301
 10
6.735692518161234
 20
-2.802297549524142
 10
6.690123395263956
 20
-2.88371383402077
 10
6.619965966576501
 20
-3.009056008249281
 10
6.462885887345212
 20
-3.07611932916729
 10
6.323723530365517
 20
-3.049121604195749
 10
6.215532279196572
 20
-3.02813232443086
 10
6.114173234210764
 20
-2.944038838944544
 10
6.062914939475427
 20
-2.83148450050981
 10
6.036862844215976
 20
-2.774278610967233
 10
6.026288295477116
 20
-2.709798971512024
 10
6.026115745962796
 20
-2.646998973859455
 10
6.025845886547964
 20
-2.548252498317323
 10
6.043853234117679
 20
-2.412029672738337
 10
6.128808790047489
 20
-2.311753325048913
 97
        0
 92
        1
 93
        1
 72
     4
 94
        3
 73
     0
 74
     1
 95
       17
 96
       13
 40
0.0
 40
0.0
 40
0.0
 40
0.0
 40
1.0
 40
1.0
 40
1.0
 40
2.0
 40
2.0
 40
2.0
 40
3.0
 40
3.0
 40
3.0
 40
4.0
 40
4.0
 40
4.0
 40
4.0
 10
5.970393287981765
 20
-3.178699267083819
 10
5.98751882727773
 20
-3.140997198205569
 10
6.050473316937314
 20
-3.123715160512916
 10
6.080927303019406
 20
-3.151774520486419
 10
6.120583595466769
 20
-3.188311880143045
 10
6.171123548849159
 20
-3.247942785262315
 10
6.211043681542302
 20
-3.338565388903652
 10
6.161443721734991
 20
-3.357167631019795
 10
6.030911017349025
 20
-3.388720115463393
 10
5.93758680997482
 20
-3.398897527223539
 10
5.929922401315631
 20
-3.337465887347308
 10
5.942551621290855
 20
-3.239996478850078
 10
5.970393287981765
 20
-3.178699267083819
 97
        0
 92
        1
 93
        1
 72
     4
 94
        3
 73
     0
 74
     1
 95
       26
 96
       22
 40
0.0
 40
0.0
 40
0.0
 40
0.0
 40
1.0
 40
1.0
 40
1.0
 40
2.0
 40
2.0
 40
2.0
 40
3.0
 40
3.0
 40
3.0
 40
4.0
 40
4.0
 40
4.0
 40
5.0
 40
5.0
 40
5.0
 40
6.0
 40
6.0
 40
6.0
 40
7.0
 40
7.0
 40
7.0
 40
7.0
 10
5.197519936679681
 20
-2.542995757299764
 10
5.280595505459334
 20
-2.423947627564404
 10
5.448396898548038
 20
-2.371812594369417
 10
5.580131430365074
 20
-2.432806841290774
 10
5.699394243798476
 20
-2.488026698651601
 10
5.773047806540553
 20
-2.604026119235729
 10
5.814353351322451
 20
-2.693719764445329
 10
5.842358538774028
 20
-2.754533436293551
 10
5.863171902493516
 20
-2.822228976815912
 10
5.858975458280699
 20
-2.889011706027216
 10
5.849355599822338
 20
-3.042103316422476
 10
5.805799502735251
 20
-3.123824114784902
 10
5.706986422428423
 20
-3.188108231588355
 10
5.590286305044931
 20
-3.264028989787195
 10
5.425813979264376
 20
-3.27047755119314
 10
5.311593223150504
 20
-3.187856429680828
 10
5.235995468787804
 20
-3.133173281565127
 10
5.185348173556374
 20
-3.049278102592439
 10
5.155808097983254
 20
-2.960776252865458
 10
5.10984672589935
 20
-2.823075721271417
 10
5.114445371094866
 20
-2.662044890229961
 10
5.197519936679681
 20
-2.542995757299764
 97
        0
 92
        1
 93
        1
 72
     4
 94
        3
 73
     0
 74
     1
 95
      110
 96
      106
 40
0.0
 40
0.0
 40
0.0
 40
0.0
 40
1.0
 40
1.0
 40
1.0
 40
2.0
 40
2.0
 40
2.0
 40
3.0
 40
3.0
 40
3.0
 40
4.0
 40
4.0
 40
4.0
 40
5.0
 40
5.0
 40
5.0
 40
6.0
 40
6.0
 40
6.0
 40
7.0
 40
7.0
 40
7.0
 40
8.0
 40
8.0
 40
8.0
 40
9.0
 40
9.0
 40
9.0
 40
10.0
 40
10.0
 40
10.0
 40
11.0
 40
11.0
 40
11.0
 40
12.0
 40
12.0
 40
12.0
 40
13.0
 40
13.0
 40
13.0
 40
14.0
 40
14.0
 40
14.0
 40
15.0
 40
15.0
 40
15.0
 40
16.0
 40
16.0
 40
16.0
 40
17.0
 40
17.0
 40
17.0
 40
18.0
 40
18.0
 40
18.0
 40
19.0
 40
19.0
 40
19.0
 40
20.0
 40
20.0
 40
20.0
 40
21.0
 40
21.0
 40
21.0
 40
22.0
 40
22.0
 40
22.0
 40
23.0
 40
23.0
 40
23.0
 40
24.0
 40
24.0
 40
24.0
 40
25.0
 40
25.0
 40
25.0
 40
26.0
 40
26.0
 40
26.0
 40
27.0
 40
27.0
 40
27.0
 40
28.0
 40
28.0
 40
28.0
 40
29.0
 40
29.0
 40
29.0
 40
30.0
 40
30.0
 40
30.0
 40
31.0
 40
31.0
 40
31.0
 40
32.0
 40
32.0
 40
32.0
 40
33.0
 40
33.0
 40
33.0
 40
34.0
 40
34.0
 40
34.0
 40
35.0
 40
35.0
 40
35.0
 40
35.0
 10
4.716764887557385
 20
-3.342827963824182
 10
4.782234386707614
 20
-3.468053767450025
 10
4.946986067450249
 20
-3.561136204865218
 10
5.144576328435025
 20
-3.619737832067686
 10
5.142417453116372
 20
-3.642025812065248
 10
5.141076181601016
 20
-3.678575210060078
 10
5.140296699202028
 20
-3.708073151449462
 10
5.139562360571327
 20
-3.735852620059644
 10
5.156835369510341
 20
-3.760902395481126
 10
5.183029790256455
 20
-3.770178938265366
 10
5.183029790256455
 20
-3.770178938265366
 10
5.46631496177603
 20
-3.870500429723077
 10
5.46631496177603
 20
-3.870500429723077
 10
5.501360570689674
 20
-3.882910953220845
 10
5.539572262552079
 20
-3.863103874089006
 10
5.549544019367848
 20
-3.827288814724877
 10
5.560108664340368
 20
-3.789339959913352
 10
5.57682891291664
 20
-3.727083693869859
 10
5.586096426947228
 20
-3.691266628116018
 10
5.677933899552727
 20
-3.695094819666224
 10
5.782891154415425
 20
-3.690991752726934
 10
5.882393035680113
 20
-3.682289037397279
 10
5.882393035680113
 20
-3.682289037397279
 10
5.899768370493891
 20
-3.76493523878086
 10
5.899768370493891
 20
-3.76493523878086
 10
5.907300357432809
 20
-3.800761333288341
 10
5.94239411969929
 20
-3.823747536901982
 10
5.978247300467741
 20
-3.816332923760607
 10
5.978247300467741
 20
-3.816332923760607
 10
6.405379578431469
 20
-3.728010645911884
 10
6.405379578431469
 20
-3.728010645911884
 10
6.441400292739975
 20
-3.720562927340425
 10
6.464516911684212
 20
-3.685268526103805
 10
6.456949812925536
 20
-3.649272891666556
 10
6.456949812925536
 20
-3.649272891666556
 10
6.438523129908238
 20
-3.561626767147193
 10
6.438523129908238
 20
-3.561626767147193
 10
6.526751107440987
 20
-3.530721343382298
 10
6.70010217444365
 20
-3.452990796767065
 10
6.704098902728775
 20
-3.450972368727485
 10
6.726791170251166
 20
-3.479451064148596
 10
6.755770459902729
 20
-3.515414596350613
 10
6.775209366524374
 20
-3.539162224855924
 10
6.798758362449234
 20
-3.567927834004321
 10
6.841711153175942
 20
-3.570671571920936
 10
6.86879039178037
 20
-3.545199451467321
 10
6.86879039178037
 20
-3.545199451467321
 10
7.087696536952383
 20
-3.33929772114464
 10
7.087696536952383
 20
-3.33929772114464
 10
7.107939002649421
 20
-3.320259089268436
 10
7.11366222927255
 20
-3.290375921056377
 10
7.101803462942648
 20
-3.265242880462299
 10
7.092954281164793
 20
-3.24648915592368
 10
7.082434779960572
 20
-3.224619508178863
 10
7.073162249955758
 20
-3.206495790006481
 10
7.224176180413147
 20
-3.075801571249586
 10
7.332078815357439
 20
-2.928421212541328
 10
7.341338303829211
 20
-2.791038693714945
 10
7.341338303829211
 20
-2.791038693714945
 10
7.417671400017475
 20
-3.361736180369803
 10
7.268671884820226
 20
-3.595065257910063
 10
7.214681944346315
 20
-3.679615523120219
 10
7.132212305256466
 20
-3.757235718301887
 10
7.035428078842263
 20
-3.826427070348144
 10
7.014274712220817
 20
-3.803846157454195
 10
6.984528981703306
 20
-3.774510733630601
 10
6.960151346831783
 20
-3.75092562269112
 10
6.934927015506268
 20
-3.726521904753478
 10
6.897312224580016
 20
-3.720401412969472
 10
6.865639356754374
 20
-3.735524575343485
 10
6.807039735941594
 20
-3.763504682923793
 10
6.710061892921203
 20
-3.810782246651784
 10
6.63109440705509
 20
-3.854004896793337
 10
6.593747469153969
 20
-3.874445995070801
 10
6.577859872303734
 20
-3.919646945457885
 10
6.593622069797624
 20
-3.959197902445946
 10
6.60500030579404
 20
-3.9877468215066
 10
6.618234452264232
 20
-4.015646673498862
 10
6.632500886235725
 20
-4.043121170874441
 10
6.494004821125094
 20
-4.100073545742386
 10
6.360445477874666
 20
-4.140812285433652
 10
6.259293341080618
 20
-4.162078009878365
 10
6.181348110767329
 20
-4.178465197764227
 10
6.081104868507964
 20
-4.192023376171177
 10
5.970743402984655
 20
-4.199063797633231
 10
5.970743402984655
 20
-4.199063797633231
 10
5.950886164110291
 20
-4.068984537319819
 10
5.950886164110291
 20
-4.068984537319819
 10
5.944370413555134
 20
-4.026302609202781
 10
5.905152517257496
 20
-3.996543837152217
 10
5.862290014067349
 20
-4.001737376894186
 10
5.776172758500416
 20
-4.012170603341247
 10
5.667301037330376
 20
-4.026500238588369
 10
5.603592145143087
 20
-4.034987267025119
 10
5.571257168715962
 20
-4.039294985713935
 10
5.544892204845243
 20
-4.062801847455072
 10
5.536859623675847
 20
-4.094418536369113
 10
5.529282492968655
 20
-4.124241512890118
 10
5.520371113110071
 20
-4.160284297485355
 10
5.515056186791171
 20
-4.184937810940824
 10
5.359784697387466
 20
-4.163100265431214
 10
5.214232159697151
 20
-4.120993167963623
 10
5.10704279629168
 20
-4.04952556680117
 10
4.876703239406462
 20
-3.895947470305423
 10
4.716764887557385
 20
-3.342827963824182
 10
4.716764887557385
 20
-3.342827963824182
 97
        0
 92
        1
 93
        1
 72
     4
 94
        3
 73
     0
 74
     1
 95
       14
 96
       10
 40
0.0
 40
0.0
 40
0.0
 40
0.0
 40
1.0
 40
1.0
 40
1.0
 40
2.0
 40
2.0
 40
2.0
 40
3.0
 40
3.0
 40
3.0
 40
3.0
 10
6.536006583133384
 20
-6.29975983412631
 10
6.643233064748301
 20
-6.328638804292823
 10
6.70708441060439
 20
-6.732057562376187
 10
6.62114271413634
 20
-6.837650842774236
 10
6.535200014473427
 20
-6.943245126367097
 10
6.213523579213188
 20
-6.856607212672694
 10
6.192239797261158
 20
-6.722132955718406
 10
6.170956015309103
 20
-6.587660705153868
 10
6.428781104713304
 20
-6.270879860764934
 10
6.536006583133384
 20
-6.29975983412631
 97
        0
 92
        1
 93
        1
 72
     4
 94
        3
 73
     0
 74
     1
 95
       20
 96
       16
 40
0.0
 40
0.0
 40
0.0
 40
0.0
 40
1.0
 40
1.0
 40
1.0
 40
2.0
 40
2.0
 40
2.0
 40
3.0
 40
3.0
 40
3.0
 40
4.0
 40
4.0
 40
4.0
 40
5.0
 40
5.0
 40
5.0
 40
5.0
 10
5.740610504238664
 20
-6.347794809966571
 10
5.503478315019479
 20
-6.331913232285463
 10
5.284090636319105
 20
-6.029413869790814
 10
5.251382471407535
 20
-5.774696678034047
 10
5.247798056206054
 20
-5.746786794093269
 10
5.236031583802438
 20
-5.663192573575808
 10
5.236031583802438
 20
-5.663192573575808
 10
5.236031583802438
 20
-5.663192573575808
 10
6.335419779129627
 20
-5.31507593483103
 10
6.335419779129627
 20
-5.31507593483103
 10
6.350498800930179
 20
-5.424249617651134
 10
6.300014023264566
 20
-5.74966997609412
 10
6.275461832489023
 20
-5.85557123731131
 10
6.207666927674912
 20
-6.147997520310279
 10
5.977743696652712
 20
-6.363677390842516
 10
5.740610504238664
 20
-6.347794809966571
 97
        0
 92
        1
 93
        1
 72
     4
 94
        3
 73
     0
 74
     1
 95
       20
 96
       16
 40
0.0
 40
0.0
 40
0.0
 40
0.0
 40
1.0
 40
1.0
 40
1.0
 40
2.0
 40
2.0
 40
2.0
 40
3.0
 40
3.0
 40
3.0
 40
4.0
 40
4.0
 40
4.0
 40
5.0
 40
5.0
 40
5.0
 40
5.0
 10
5.500288155394312
 20
-9.77366008127059
 10
5.263804030048655
 20
-9.858860416743987
 10
5.000900768310354
 20
-9.865968052261021
 10
4.881673066696723
 20
-9.760340663238088
 10
4.756502438787682
 20
-9.649448507638756
 10
4.709147629056184
 20
-9.475046092432597
 10
4.691246620140646
 20
-9.308780590660287
 10
4.67026981581292
 20
-9.113942093150904
 10
4.685353853587736
 20
-8.903622292705853
 10
4.79960470554714
 20
-8.744410253928688
 10
4.79960470554714
 20
-8.744410253928688
 10
5.937553704544749
 20
-9.4192092702386
 10
5.937553704544749
 20
-9.4192092702386
 10
5.875185080677978
 20
-9.578055142895284
 10
5.696864186385053
 20
-9.702837534397126
 10
5.500288155394312
 20
-9.77366008127059
 97
        0
 92
        1
 93
        1
 72
     4
 94
        3
 73
     0
 74
     1
 95
       14
 96
       10
 40
0.0
 40
0.0
 40
0.0
 40
0.0
 40
1.0
 40
1.0
 40
1.0
 40
2.0
 40
2.0
 40
2.0
 40
3.0
 40
3.0
 40
3.0
 40
3.0
 10
6.403992159953001
 20
-10.26134018444708
 10
6.360595957102279
 20
-10.34827002784307
 10
5.915131296437203
 20
-10.34317781078102
 10
5.873116492895885
 20
-10.26134018444708
 10
5.831101689354555
 20
-10.17950356130801
 10
6.025189797115622
 20
-9.801589025913497
 10
6.138554828021875
 20
-9.801589025913497
 10
6.251920862122965
 20
-9.801589025913497
 10
6.447389365998561
 20
-10.17441034105112
 10
6.403992159953001
 20
-10.26134018444708
 97
        0
 92
        1
 93
        1
 72
     4
 94
        3
 73
     0
 74
     1
 95
       20
 96
       16
 40
0.0
 40
0.0
 40
0.0
 40
0.0
 40
1.0
 40
1.0
 40
1.0
 40
2.0
 40
2.0
 40
2.0
 40
3.0
 40
3.0
 40
3.0
 40
4.0
 40
4.0
 40
4.0
 40
5.0
 40
5.0
 40
5.0
 40
5.0
 10
7.643313998611802
 20
-9.308780590660287
 10
7.625412989696289
 20
-9.475046092432597
 10
7.578058179964803
 20
-9.649448507638756
 10
7.452887552055724
 20
-9.760340663238088
 10
7.333659850442118
 20
-9.865968052261021
 10
7.070755585508979
 20
-9.858860416743987
 10
6.83427146016331
 20
-9.77366008127059
 10
6.637695429172557
 20
-9.702837534397126
 10
6.459374534879644
 20
-9.578055142895284
 10
6.397006914207723
 20
-9.4192092702386
 10
6.397006914207723
 20
-9.4192092702386
 10
7.534954910010482
 20
-8.744410253928688
 10
7.534954910010482
 20
-8.744410253928688
 10
7.649206765164712
 20
-8.903622292705853
 10
7.664290802939528
 20
-9.113942093150904
 10
7.643313998611802
 20
-9.308780590660287
 97
        0
 92
        1
 93
        1
 72
     4
 94
        3
 73
     0
 74
     1
 95
       53
 96
       49
 40
0.0
 40
0.0
 40
0.0
 40
0.0
 40
1.0
 40
1.0
 40
1.0
 40
2.0
 40
2.0
 40
2.0
 40
3.0
 40
3.0
 40
3.0
 40
4.0
 40
4.0
 40
4.0
 40
5.0
 40
5.0
 40
5.0
 40
6.0
 40
6.0
 40
6.0
 40
7.0
 40
7.0
 40
7.0
 40
8.0
 40
8.0
 40
8.0
 40
9.0
 40
9.0
 40
9.0
 40
10.0
 40
10.0
 40
10.0
 40
11.0
 40
11.0
 40
11.0
 40
12.0
 40
12.0
 40
12.0
 40
13.0
 40
13.0
 40
13.0
 40
14.0
 40
14.0
 40
14.0
 40
15.0
 40
15.0
 40
15.0
 40
16.0
 40
16.0
 40
16.0
 40
16.0
 10
7.122630791237624
 20
-7.741533416016333
 10
7.122630791237624
 20
-7.741533416016333
 10
6.785493116938697
 20
-7.586036207771232
 10
6.785493116938697
 20
-7.586036207771232
 10
6.785493116938697
 20
-7.586036207771232
 10
6.547378799960673
 20
-7.707053608998446
 10
6.547378799960673
 20
-7.707053608998446
 10
6.547378799960673
 20
-7.707053608998446
 10
6.201756103614722
 20
-7.460919752384117
 10
6.201756103614722
 20
-7.460919752384117
 10
6.201756103614722
 20
-7.460919752384117
 10
5.819381363914052
 20
-7.51098017862791
 10
5.819381363914052
 20
-7.51098017862791
 10
5.819381363914052
 20
-7.51098017862791
 10
5.674256187230134
 20
-7.286743056019329
 10
5.674256187230134
 20
-7.286743056019329
 10
5.674256187230134
 20
-7.286743056019329
 10
5.304627038107368
 20
-7.251885044542759
 10
5.304627038107368
 20
-7.251885044542759
 10
5.304627038107368
 20
-7.251885044542759
 10
5.204499163255857
 20
-6.500595430453055
 10
5.180769592257875
 20
-6.316323584305892
 10
5.180769592257875
 20
-6.316323584305892
 10
5.535971796232994
 20
-6.923925599932722
 10
5.535971796232994
 20
-6.923925599932722
 10
5.535971796232994
 20
-6.923925599932722
 10
5.907475916531666
 20
-6.974633086855166
 10
5.907475916531666
 20
-6.974633086855166
 10
5.907475916531666
 20
-6.974633086855166
 10
6.049347732314851
 20
-7.221356822041697
 10
6.049347732314851
 20
-7.221356822041697
 10
6.049347732314851
 20
-7.221356822041697
 10
6.306390329735475
 20
-7.131425419652512
 10
6.306390329735475
 20
-7.131425419652512
 10
6.306390329735475
 20
-7.131425419652512
 10
6.493979741253825
 20
-7.34111120095195
 10
6.493979741253825
 20
-7.34111120095195
 10
6.493979741253825
 20
-7.34111120095195
 10
6.740573061109798
 20
-7.199013666327396
 10
6.740573061109798
 20
-7.199013666327396
 10
6.740573061109798
 20
-7.199013666327396
 10
7.087292249427592
 20
-7.341747226487288
 10
7.087292249427592
 20
-7.341747226487288
 10
7.087292249427592
 20
-7.341747226487288
 10
7.699604264878316
 20
-6.994729086103992
 10
7.699604264878316
 20
-6.994729086103992
 10
7.586538186037589
 20
-7.142156594970224
 10
7.122630791237624
 20
-7.741533416016333
 10
7.122630791237624
 20
-7.741533416016333
 97
        0
 92
        1
 93
        1
 72
     4
 94
        3
 73
     0
 74
     1
 95
       20
 96
       16
 40
0.0
 40
0.0
 40
0.0
 40
0.0
 40
1.0
 40
1.0
 40
1.0
 40
2.0
 40
2.0
 40
2.0
 40
3.0
 40
3.0
 40
3.0
 40
4.0
 40
4.0
 40
4.0
 40
5.0
 40
5.0
 40
5.0
 40
5.0
 10
7.83562344190265
 20
-6.186648611517285
 10
7.744866410151316
 20
-6.426885688799327
 10
7.461440791352642
 20
-6.670415251581314
 10
7.227068391167651
 20
-6.630997719508387
 10
6.992694987787849
 20
-6.591582193825161
 10
6.818915556583938
 20
-6.32855553912024
 10
6.820619984635262
 20
-6.028378572704898
 10
6.82123795266327
 20
-5.919670372295514
 10
6.847418328681467
 20
-5.591398934086883
 10
6.887349496517951
 20
-5.488676797351508
 10
6.887349496517951
 20
-5.488676797351508
 10
7.876357165619639
 20
-6.081722455694944
 10
7.876357165619639
 20
-6.081722455694944
 10
7.876357165619639
 20
-6.081722455694944
 10
7.845568112457435
 20
-6.160325781830301
 10
7.83562344190265
 20
-6.186648611517285
 97
        0
 75
     2
 76
     1
 98
        0
  0
ENDSEC
  0
SECTION
  2
OBJECTS
  0
DICTIONARY
  5
C
330
0
100
AcDbDictionary
281
     1
  3
ACAD_GROUP
350
D
  3
ACAD_LAYOUT
350
1A
  3
ACAD_MATERIAL
350
3B
  3
ACAD_MLEADERSTYLE
350
6F
  3
ACAD_MLINESTYLE
350
17
  3
ACAD_PLOTSETTINGS
350
19
  3
ACAD_PLOTSTYLENAME
350
E
  3
ACAD_TABLESTYLE
350
6E
  3
ACAD_VISUALSTYLE
350
2A
  0
SUN
  5
3F
330
29
100
AcDbSun
 90
        1
290
     0
 63
     7
421
 16777215
 40
1.0
291
     1
 91
  2455826
 92
 54000000
292
     0
 70
     2
 71
   256
280
     1
  0
DICTIONARY
  5
D
102
{ACAD_REACTORS
330
C
102
}
330
C
100
AcDbDictionary
281
     1
  0
DICTIONARY
  5
1A
102
{ACAD_REACTORS
330
C
102
}
330
C
100
AcDbDictionary
281
     1
  3
Layout1
350
1E
  3
Layout2
350
26
  3
Model
350
22
  0
DICTIONARY
  5
3B
102
{ACAD_REACTORS
330
C
102
}
330
C
100
AcDbDictionary
281
     1
  3
ByBlock
350
3D
  3
ByLayer
350
3C
  3
Global
350
3E
  0
DICTIONARY
  5
6F
102
{ACAD_REACTORS
330
C
102
}
330
C
100
AcDbDictionary
281
     1
  0
DICTIONARY
  5
17
102
{ACAD_REACTORS
330
C
102
}
330
C
100
AcDbDictionary
281
     1
  3
Standard
350
18
  0
DICTIONARY
  5
19
102
{ACAD_REACTORS
330
C
102
}
330
C
100
AcDbDictionary
281
     1
  0
ACDBDICTIONARYWDFLT
  5
E
102
{ACAD_REACTORS
330
C
102
}
330
C
100
AcDbDictionary
281
     1
  3
Normal
350
F
100
AcDbDictionaryWithDefault
340
F
  0
DICTIONARY
  5
6E
102
{ACAD_REACTORS
330
C
102
}
330
C
100
AcDbDictionary
281
     1
  0
DICTIONARY
  5
2A
102
{ACAD_REACTORS
330
C
102
}
330
C
100
AcDbDictionary
281
     1
  3
2dWireframe
350
2F
  3
3D Hidden
350
31
  3
3dWireframe
350
30
  3
Basic
350
32
  3
Brighten
350
36
  3
ColorChange
350
3A
  3
Conceptual
350
34
  3
Dim
350
35
  3
Facepattern
350
39
  3
Flat
350
2B
  3
FlatWithEdges
350
2C
  3
Gouraud
350
2D
  3
GouraudWithEdges
350
2E
  3
Linepattern
350
38
  3
Realistic
350
33
  3
Thicken
350
37
  0
LAYOUT
  5
1E
102
{ACAD_REACTORS
330
1A
102
}
330
1A
100
AcDbPlotSettings
  1

  2
none_device
  4

  6

 40
0.0
 41
0.0
 42
0.0
 43
0.0
 44
0.0
 45
0.0
 46
0.0
 47
0.0
 48
0.0
 49
0.0
140
0.0
141
0.0
142
1.0
143
1.0
 70
   688
 72
     0
 73
     0
 74
     5
  7

 75
    16
 76
     0
 77
     2
 78
   300
147
1.0
148
0.0
149
0.0
100
AcDbLayout
  1
Layout1
 70
     1
 71
     1
 10
0.0
 20
0.0
 11
12.0
 21
9.0
 12
0.0
 22
0.0
 32
0.0
 14
1.000000000000000E+20
 24
1.000000000000000E+20
 34
1.000000000000000E+20
 15
-1.000000000000000E+20
 25
-1.000000000000000E+20
 35
-1.000000000000000E+20
146
0.0
 13
0.0
 23
0.0
 33
0.0
 16
1.0
 26
0.0
 36
0.0
 17
0.0
 27
1.0
 37
0.0
 76
     0
330
1B
  0
LAYOUT
  5
26
102
{ACAD_REACTORS
330
1A
102
}
330
1A
100
AcDbPlotSettings
  1

  2
none_device
  4

  6

 40
0.0
 41
0.0
 42
0.0
 43
0.0
 44
0.0
 45
0.0
 46
0.0
 47
0.0
 48
0.0
 49
0.0
140
0.0
141
0.0
142
1.0
143
1.0
 70
   688
 72
     0
 73
     0
 74
     5
  7

 75
    16
 76
     0
 77
     2
 78
   300
147
1.0
148
0.0
149
0.0
100
AcDbLayout
  1
Layout2
 70
     1
 71
     2
 10
0.0
 20
0.0
 11
0.0
 21
0.0
 12
0.0
 22
0.0
 32
0.0
 14
0.0
 24
0.0
 34
0.0
 15
0.0
 25
0.0
 35
0.0
146
0.0
 13
0.0
 23
0.0
 33
0.0
 16
1.0
 26
0.0
 36
0.0
 17
0.0
 27
1.0
 37
0.0
 76
     0
330
23
  0
LAYOUT
  5
22
102
{ACAD_REACTORS
330
1A
102
}
330
1A
100
AcDbPlotSettings
  1

  2
none_device
  4

  6

 40
0.0
 41
0.0
 42
0.0
 43
0.0
 44
0.0
 45
0.0
 46
0.0
 47
0.0
 48
0.0
 49
0.0
140
0.0
141
0.0
142
1.0
143
1.0
 70
  1712
 72
     0
 73
     0
 74
     0
  7

 75
     0
 76
     0
 77
     2
 78
   300
147
1.0
148
0.0
149
0.0
100
AcDbLayout
  1
Model
 70
     1
 71
     0
 10
0.0
 20
0.0
 11
12.0
 21
9.0
 12
0.0
 22
0.0
 32
0.0
 14
1.000000000000000E+20
 24
1.000000000000000E+20
 34
1.000000000000000E+20
 15
-1.000000000000000E+20
 25
-1.000000000000000E+20
 35
-1.000000000000000E+20
146
0.0
 13
0.0
 23
0.0
 33
0.0
 16
1.0
 26
0.0
 36
0.0
 17
0.0
 27
1.0
 37
0.0
 76
     0
330
1F
331
29
  0
MATERIAL
  5
3D
102
{ACAD_REACTORS
330
3B
102
}
330
3B
100
AcDbMaterial
  1
ByBlock
 72
     1
 94
      127
  0
MATERIAL
  5
3C
102
{ACAD_REACTORS
330
3B
102
}
330
3B
100
AcDbMaterial
  1
ByLayer
 72
     1
 94
      127
  0
MATERIAL
  5
3E
102
{ACAD_REACTORS
330
3B
102
}
330
3B
100
AcDbMaterial
  1
Global
 72
     1
 94
      127
  0
MLINESTYLE
  5
18
102
{ACAD_REACTORS
330
17
102
}
330
17
100
AcDbMlineStyle
  2
Standard
 70
     0
  3

 62
   256
 51
90.0
 52
90.0
 71
     2
 49
0.5
 62
   256
  6
BYLAYER
 49
-0.5
 62
   256
  6
BYLAYER
  0
ACDBPLACEHOLDER
  5
F
102
{ACAD_REACTORS
330
E
102
}
330
E
  0
VISUALSTYLE
  5
2F
102
{ACAD_REACTORS
330
2A
102
}
102
{ACAD_XDICTIONARY
360
56
102
}
330
2A
100
AcDbVisualStyle
  2
2dWireframe
 70
     4
 71
     0
 72
     2
 73
     0
 90
        0
 40
-0.6
 41
-30.0
 62
     5
 63
     7
421
 16777215
 74
     1
 91
        4
 64
     7
 65
   257
 75
     1
175
     1
 42
1.0
 92
        0
 66
   257
 43
1.0
 76
     1
 77
     6
 78
     2
 67
     7
 79
     5
170
     0
171
     0
290
     0
174
     0
 93
        1
 44
0.0
173
     0
291
     0
 45
0.0
  0
VISUALSTYLE
  5
31
102
{ACAD_REACTORS
330
2A
102
}
102
{ACAD_XDICTIONARY
360
5A
102
}
330
2A
100
AcDbVisualStyle
  2
3D Hidden
 70
     6
 71
     1
 72
     2
 73
     2
 90
        0
 40
-0.6
 41
-30.0
 62
     5
 63
     7
421
 16777215
 74
     2
 91
        2
 64
     7
 65
   257
 75
     2
175
     1
 42
40.0
 92
        0
 66
   257
 43
1.0
 76
     1
 77
     6
 78
     2
 67
     7
 79
     3
170
     0
171
     0
290
     0
174
     0
 93
        1
 44
0.0
173
     0
291
     0
 45
0.0
  0
VISUALSTYLE
  5
30
102
{ACAD_REACTORS
330
2A
102
}
102
{ACAD_XDICTIONARY
360
58
102
}
330
2A
100
AcDbVisualStyle
  2
3dWireframe
 70
     5
 71
     0
 72
     2
 73
     0
 90
        0
 40
-0.6
 41
-30.0
 62
     5
 63
     7
421
 16777215
 74
     1
 91
        4
 64
     7
 65
   257
 75
     1
175
     1
 42
1.0
 92
        0
 66
   257
 43
1.0
 76
     1
 77
     6
 78
     2
 67
     7
 79
     5
170
     0
171
     0
290
     0
174
     0
 93
        1
 44
0.0
173
     0
291
     0
 45
0.0
  0
VISUALSTYLE
  5
32
102
{ACAD_REACTORS
330
2A
102
}
102
{ACAD_XDICTIONARY
360
5C
102
}
330
2A
100
AcDbVisualStyle
  2
Basic
 70
     7
 71
     1
 72
     0
 73
     1
 90
        0
 40
-0.6
 41
-30.0
 62
     5
 63
     7
421
 16777215
 74
     0
 91
        4
 64
     7
 65
   257
 75
     1
175
     1
 42
1.0
 92
        8
 66
     7
 43
1.0
 76
     1
 77
     6
 78
     2
 67
     7
 79
     5
170
     0
171
     0
290
     0
174
     0
 93
        1
 44
0.0
173
     0
291
     1
 45
0.0
  0
VISUALSTYLE
  5
36
102
{ACAD_REACTORS
330
2A
102
}
102
{ACAD_XDICTIONARY
360
64
102
}
330
2A
100
AcDbVisualStyle
  2
Brighten
 70
    12
 71
     2
 72
     2
 73
     0
 90
        0
 40
-0.6
 41
-30.0
 62
     5
 63
     7
421
 16777215
 74
     1
 91
        4
 64
     7
 65
   257
 75
     1
175
     1
 42
1.0
 92
        8
 66
     7
 43
1.0
 76
     1
 77
     6
 78
     2
 67
     7
 79
     5
170
     0
171
     0
290
     0
174
     0
 93
        1
 44
50.0
173
     0
291
     1
 45
0.0
  0
VISUALSTYLE
  5
3A
102
{ACAD_REACTORS
330
2A
102
}
102
{ACAD_XDICTIONARY
360
6C
102
}
330
2A
100
AcDbVisualStyle
  2
ColorChange
 70
    16
 71
     2
 72
     2
 73
     3
 90
        0
 40
-0.6
 41
-30.0
 62
     5
 63
     8
421
  8421504
 74
     1
 91
        4
 64
     7
 65
   257
 75
     1
175
     1
 42
1.0
 92
        8
 66
     8
424
  8421504
 43
1.0
 76
     1
 77
     6
 78
     2
 67
     7
 79
     5
170
     0
171
     0
290
     0
174
     0
 93
        1
 44
0.0
173
     0
291
     1
 45
0.0
  0
VISUALSTYLE
  5
34
102
{ACAD_REACTORS
330
2A
102
}
102
{ACAD_XDICTIONARY
360
60
102
}
330
2A
100
AcDbVisualStyle
  2
Conceptual
 70
     9
 71
     3
 72
     2
 73
     0
 90
        0
 40
-0.6
 41
-30.0
 62
     5
 63
     7
421
 16777215
 74
     2
 91
        2
 64
     7
 65
   257
 75
     1
175
     1
 42
40.0
 92
        8
 66
     7
 43
1.0
 76
     1
 77
     6
 78
     2
 67
     7
 79
     3
170
     0
171
     0
290
     0
174
     0
 93
        1
 44
0.0
173
     0
291
     0
 45
0.0
  0
VISUALSTYLE
  5
35
102
{ACAD_REACTORS
330
2A
102
}
102
{ACAD_XDICTIONARY
360
62
102
}
330
2A
100
AcDbVisualStyle
  2
Dim
 70
    11
 71
     2
 72
     2
 73
     0
 90
        0
 40
-0.6
 41
-30.0
 62
     5
 63
     7
421
 16777215
 74
     1
 91
        4
 64
     7
 65
   257
 75
     1
175
     1
 42
1.0
 92
        8
 66
     7
 43
1.0
 76
     1
 77
     6
 78
     2
 67
     7
 79
     5
170
     0
171
     0
290
     0
174
     0
 93
        1
 44
-50.0
173
     0
291
     1
 45
0.0
  0
VISUALSTYLE
  5
39
102
{ACAD_REACTORS
330
2A
102
}
102
{ACAD_XDICTIONARY
360
6A
102
}
330
2A
100
AcDbVisualStyle
  2
Facepattern
 70
    15
 71
     2
 72
     2
 73
     0
 90
        0
 40
-0.6
 41
-30.0
 62
     5
 63
     7
421
 16777215
 74
     1
 91
        4
 64
     7
 65
   257
 75
     1
175
     1
 42
1.0
 92
        8
 66
     7
 43
1.0
 76
     1
 77
     6
 78
     2
 67
     7
 79
     5
170
     0
171
     0
290
     0
174
     0
 93
        1
 44
0.0
173
     0
291
     1
 45
0.0
  0
VISUALSTYLE
  5
2B
102
{ACAD_REACTORS
330
2A
102
}
102
{ACAD_XDICTIONARY
360
4E
102
}
330
2A
100
AcDbVisualStyle
  2
Flat
 70
     0
 71
     2
 72
     1
 73
     1
 90
        2
 40
-0.6
 41
30.0
 62
     5
 63
     7
421
 16777215
 74
     0
 91
        4
 64
     7
 65
   257
 75
     1
175
     1
 42
1.0
 92
        8
 66
     7
 43
1.0
 76
     1
 77
     6
 78
     2
 67
     7
 79
     5
170
     0
171
     0
290
     0
174
     0
 93
       13
 44
0.0
173
     0
291
     1
 45
0.0
  0
VISUALSTYLE
  5
2C
102
{ACAD_REACTORS
330
2A
102
}
102
{ACAD_XDICTIONARY
360
50
102
}
330
2A
100
AcDbVisualStyle
  2
FlatWithEdges
 70
     1
 71
     2
 72
     1
 73
     1
 90
        2
 40
-0.6
 41
30.0
 62
     5
 63
     7
421
 16777215
 74
     1
 91
        4
 64
     7
 65
   257
 75
     1
175
     1
 42
1.0
 92
        0
 66
   257
 43
1.0
 76
     1
 77
     6
 78
     2
 67
     7
 79
     5
170
     0
171
     0
290
     0
174
     0
 93
       13
 44
0.0
173
     0
291
     1
 45
0.0
  0
VISUALSTYLE
  5
2D
102
{ACAD_REACTORS
330
2A
102
}
102
{ACAD_XDICTIONARY
360
52
102
}
330
2A
100
AcDbVisualStyle
  2
Gouraud
 70
     2
 71
     2
 72
     2
 73
     1
 90
        2
 40
-0.6
 41
30.0
 62
     5
 63
     7
421
 16777215
 74
     0
 91
        4
 64
     7
 65
   257
 75
     1
175
     1
 42
1.0
 92
        0
 66
     7
 43
1.0
 76
     1
 77
     6
 78
     2
 67
     7
 79
     5
170
     0
171
     0
290
     0
174
     0
 93
       13
 44
0.0
173
     0
291
     1
 45
0.0
  0
VISUALSTYLE
  5
2E
102
{ACAD_REACTORS
330
2A
102
}
102
{ACAD_XDICTIONARY
360
54
102
}
330
2A
100
AcDbVisualStyle
  2
GouraudWithEdges
 70
     3
 71
     2
 72
     2
 73
     1
 90
        2
 40
-0.6
 41
30.0
 62
     5
 63
     7
421
 16777215
 74
     1
 91
        4
 64
     7
 65
   257
 75
     1
175
     1
 42
1.0
 92
        0
 66
   257
 43
1.0
 76
     1
 77
     6
 78
     2
 67
     7
 79
     5
170
     0
171
     0
290
     0
174
     0
 93
       13
 44
0.0
173
     0
291
     1
 45
0.0
  0
VISUALSTYLE
  5
38
102
{ACAD_REACTORS
330
2A
102
}
102
{ACAD_XDICTIONARY
360
68
102
}
330
2A
100
AcDbVisualStyle
  2
Linepattern
 70
    14
 71
     2
 72
     2
 73
     0
 90
        0
 40
-0.6
 41
-30.0
 62
     5
 63
     7
421
 16777215
 74
     1
 91
        4
 64
     7
 65
   257
 75
     7
175
     7
 42
1.0
 92
        8
 66
     7
 43
1.0
 76
     1
 77
     6
 78
     2
 67
     7
 79
     5
170
     0
171
     0
290
     0
174
     0
 93
        1
 44
0.0
173
     0
291
     1
 45
0.0
  0
VISUALSTYLE
  5
33
102
{ACAD_REACTORS
330
2A
102
}
102
{ACAD_XDICTIONARY
360
5E
102
}
330
2A
100
AcDbVisualStyle
  2
Realistic
 70
     8
 71
     2
 72
     2
 73
     0
 90
        0
 40
-0.6
 41
-30.0
 62
     5
 63
     7
421
 16777215
 74
     1
 91
        0
 64
     7
 65
   257
 75
     1
175
     1
 42
1.0
 92
        8
 66
     8
424
  7895160
 43
1.0
 76
     1
 77
     6
 78
     2
 67
     7
 79
     5
170
     0
171
     0
290
     0
174
     0
 93
       13
 44
0.0
173
     0
291
     0
 45
0.0
  0
VISUALSTYLE
  5
37
102
{ACAD_REACTORS
330
2A
102
}
102
{ACAD_XDICTIONARY
360
66
102
}
330
2A
100
AcDbVisualStyle
  2
Thicken
 70
    13
 71
     2
 72
     2
 73
     0
 90
        0
 40
-0.6
 41
-30.0
 62
     5
 63
     7
421
 16777215
 74
     1
 91
        4
 64
     7
 65
   257
 75
     1
175
     1
 42
1.0
 92
       12
 66
     7
 43
1.0
 76
     1
 77
     6
 78
     2
 67
     7
 79
     5
170
     0
171
     0
290
     0
174
     0
 93
        1
 44
0.0
173
     0
291
     1
 45
0.0
  0
DICTIONARY
  5
56
330
2F
100
AcDbDictionary
280
     1
281
     1
  3
ACAD_XREC_ROUNDTRIP
360
57
  0
DICTIONARY
  5
5A
330
31
100
AcDbDictionary
280
     1
281
     1
  3
ACAD_XREC_ROUNDTRIP
360
5B
  0
DICTIONARY
  5
58
330
30
100
AcDbDictionary
280
     1
281
     1
  3
ACAD_XREC_ROUNDTRIP
360
59
  0
DICTIONARY
  5
5C
330
32
100
AcDbDictionary
280
     1
281
     1
  3
ACAD_XREC_ROUNDTRIP
360
5D
  0
DICTIONARY
  5
64
330
36
100
AcDbDictionary
280
     1
281
     1
  3
ACAD_XREC_ROUNDTRIP
360
65
  0
DICTIONARY
  5
6C
330
3A
100
AcDbDictionary
280
     1
281
     1
  3
ACAD_XREC_ROUNDTRIP
360
6D
  0
DICTIONARY
  5
60
330
34
100
AcDbDictionary
280
     1
281
     1
  3
ACAD_XREC_ROUNDTRIP
360
61
  0
DICTIONARY
  5
62
330
35
100
AcDbDictionary
280
     1
281
     1
  3
ACAD_XREC_ROUNDTRIP
360
63
  0
DICTIONARY
  5
6A
330
39
100
AcDbDictionary
280
     1
281
     1
  3
ACAD_XREC_ROUNDTRIP
360
6B
  0
DICTIONARY
  5
4E
330
2B
100
AcDbDictionary
280
     1
281
     1
  3
ACAD_XREC_ROUNDTRIP
360
4F
  0
DICTIONARY
  5
50
330
2C
100
AcDbDictionary
280
     1
281
     1
  3
ACAD_XREC_ROUNDTRIP
360
51
  0
DICTIONARY
  5
52
330
2D
100
AcDbDictionary
280
     1
281
     1
  3
ACAD_XREC_ROUNDTRIP
360
53
  0
DICTIONARY
  5
54
330
2E
100
AcDbDictionary
280
     1
281
     1
  3
ACAD_XREC_ROUNDTRIP
360
55
  0
DICTIONARY
  5
68
330
38
100
AcDbDictionary
280
     1
281
     1
  3
ACAD_XREC_ROUNDTRIP
360
69
  0
DICTIONARY
  5
5E
330
33
100
AcDbDictionary
280
     1
281
     1
  3
ACAD_XREC_ROUNDTRIP
360
5F
  0
DICTIONARY
  5
66
330
37
100
AcDbDictionary
280
     1
281
     1
  3
ACAD_XREC_ROUNDTRIP
360
67
  0
XRECORD
  5
57
102
{ACAD_REACTORS
330
56
102
}
330
56
100
AcDbXrecord
280
     1
102
RTVSPropertyOp0
 70
     1
102
RTVSPropertyOp1
 70
     1
102
RTVSPropertyOp2
 70
     1
102
RTVSPropertyOp3
 70
     1
102
RTVSPropertyOp4
 70
     1
102
RTVSPropertyOp5
 70
     1
102
RTVSPropertyOp6
 70
     1
102
RTVSPropertyOp7
 70
     1
102
RTVSPropertyOp8
 70
     1
102
RTVSPropertyOp9
 70
     1
102
RTVSPropertyOp10
 70
     1
102
RTVSPropertyOp11
 70
     1
102
RTVSPropertyOp12
 70
     1
102
RTVSPropertyOp13
 70
     1
102
RTVSPropertyOp14
 70
     1
102
RTVSPropertyOp15
 70
     1
102
RTVSPropertyOp16
 70
     1
102
RTVSPropertyOp17
 70
     1
102
RTVSPropertyOp18
 70
     1
102
RTVSPropertyOp19
 70
     1
102
RTVSPropertyOp20
 70
     1
102
RTVSPropertyOp21
 70
     1
102
RTVSPropertyOp22
 70
     1
102
RTVSPropertyOp23
 70
     1
102
RTVSPropertyOp24
 70
     1
102
RTVSPropertyOp25
 70
     1
102
RTVSPropertyOp26
 70
     1
102
RTVSPropertyOp27
 70
     1
102
RTVSPropertyOp28
 70
     1
102
RTVSPropertyOp29
 70
     1
102
RTVSPropertyOp30
 70
     1
102
RTVSPropertyOp31
 70
     1
102
RTVSPropertyOp32
 70
     1
  0
XRECORD
  5
5B
102
{ACAD_REACTORS
330
5A
102
}
330
5A
100
AcDbXrecord
280
     1
102
RTVSPropertyOp0
 70
     1
102
RTVSPropertyOp1
 70
     1
102
RTVSPropertyOp2
 70
     1
102
RTVSPropertyOp3
 70
     1
102
RTVSPropertyOp4
 70
     1
102
RTVSPropertyOp5
 70
     1
102
RTVSPropertyOp6
 70
     1
102
RTVSPropertyOp7
 70
     1
102
RTVSPropertyOp8
 70
     1
102
RTVSPropertyOp9
 70
     1
102
RTVSPropertyOp10
 70
     1
102
RTVSPropertyOp11
 70
     1
102
RTVSPropertyOp12
 70
     1
102
RTVSPropertyOp13
 70
     1
102
RTVSPropertyOp14
 70
     1
102
RTVSPropertyOp15
 70
     1
102
RTVSPropertyOp16
 70
     1
102
RTVSPropertyOp17
 70
     1
102
RTVSPropertyOp18
 70
     1
102
RTVSPropertyOp19
 70
     1
102
RTVSPropertyOp20
 70
     1
102
RTVSPropertyOp21
 70
     1
102
RTVSPropertyOp22
 70
     1
102
RTVSPropertyOp23
 70
     1
102
RTVSPropertyOp24
 70
     1
102
RTVSPropertyOp25
 70
     1
102
RTVSPropertyOp26
 70
     1
102
RTVSPropertyOp27
 70
     1
102
RTVSPropertyOp28
 70
     1
102
RTVSPropertyOp29
 70
     1
102
RTVSPropertyOp30
 70
     1
102
RTVSPropertyOp31
 70
     1
102
RTVSPropertyOp32
 70
     1
  0
XRECORD
  5
59
102
{ACAD_REACTORS
330
58
102
}
330
58
100
AcDbXrecord
280
     1
102
RTVSPropertyOp0
 70
     1
102
RTVSPropertyOp1
 70
     1
102
RTVSPropertyOp2
 70
     1
102
RTVSPropertyOp3
 70
     1
102
RTVSPropertyOp4
 70
     1
102
RTVSPropertyOp5
 70
     1
102
RTVSPropertyOp6
 70
     1
102
RTVSPropertyOp7
 70
     1
102
RTVSPropertyOp8
 70
     1
102
RTVSPropertyOp9
 70
     1
102
RTVSPropertyOp10
 70
     1
102
RTVSPropertyOp11
 70
     1
102
RTVSPropertyOp12
 70
     1
102
RTVSPropertyOp13
 70
     1
102
RTVSPropertyOp14
 70
     1
102
RTVSPropertyOp15
 70
     1
102
RTVSPropertyOp16
 70
     1
102
RTVSPropertyOp17
 70
     1
102
RTVSPropertyOp18
 70
     1
102
RTVSPropertyOp19
 70
     1
102
RTVSPropertyOp20
 70
     1
102
RTVSPropertyOp21
 70
     1
102
RTVSPropertyOp22
 70
     1
102
RTVSPropertyOp23
 70
     1
102
RTVSPropertyOp24
 70
     1
102
RTVSPropertyOp25
 70
     1
102
RTVSPropertyOp26
 70
     1
102
RTVSPropertyOp27
 70
     1
102
RTVSPropertyOp28
 70
     1
102
RTVSPropertyOp29
 70
     1
102
RTVSPropertyOp30
 70
     1
102
RTVSPropertyOp31
 70
     1
102
RTVSPropertyOp32
 70
     1
  0
XRECORD
  5
5D
102
{ACAD_REACTORS
330
5C
102
}
330
5C
100
AcDbXrecord
280
     1
102
RTVSPropertyOp0
 70
     1
102
RTVSPropertyOp1
 70
     1
102
RTVSPropertyOp2
 70
     1
102
RTVSPropertyOp3
 70
     1
102
RTVSPropertyOp4
 70
     1
102
RTVSPropertyOp5
 70
     1
102
RTVSPropertyOp6
 70
     1
102
RTVSPropertyOp7
 70
     1
102
RTVSPropertyOp8
 70
     1
102
RTVSPropertyOp9
 70
     1
102
RTVSPropertyOp10
 70
     1
102
RTVSPropertyOp11
 70
     1
102
RTVSPropertyOp12
 70
     1
102
RTVSPropertyOp13
 70
     1
102
RTVSPropertyOp14
 70
     1
102
RTVSPropertyOp15
 70
     1
102
RTVSPropertyOp16
 70
     1
102
RTVSPropertyOp17
 70
     1
102
RTVSPropertyOp18
 70
     1
102
RTVSPropertyOp19
 70
     1
102
RTVSPropertyOp20
 70
     1
102
RTVSPropertyOp21
 70
     1
102
RTVSPropertyOp22
 70
     1
102
RTVSPropertyOp23
 70
     1
102
RTVSPropertyOp24
 70
     1
102
RTVSPropertyOp25
 70
     1
102
RTVSPropertyOp26
 70
     1
102
RTVSPropertyOp27
 70
     1
102
RTVSPropertyOp28
 70
     1
102
RTVSPropertyOp29
 70
     1
102
RTVSPropertyOp30
 70
     1
102
RTVSPropertyOp31
 70
     1
102
RTVSPropertyOp32
 70
     1
  0
XRECORD
  5
65
102
{ACAD_REACTORS
330
64
102
}
330
64
100
AcDbXrecord
280
     1
102
RTVSPropertyOp0
 70
     1
102
RTVSPropertyOp1
 70
     1
102
RTVSPropertyOp2
 70
     1
102
RTVSPropertyOp3
 70
     1
102
RTVSPropertyOp4
 70
     1
102
RTVSPropertyOp5
 70
     1
102
RTVSPropertyOp6
 70
     1
102
RTVSPropertyOp7
 70
     1
102
RTVSPropertyOp8
 70
     1
102
RTVSPropertyOp9
 70
     1
102
RTVSPropertyOp10
 70
     1
102
RTVSPropertyOp11
 70
     1
102
RTVSPropertyOp12
 70
     1
102
RTVSPropertyOp13
 70
     1
102
RTVSPropertyOp14
 70
     1
102
RTVSPropertyOp15
 70
     1
102
RTVSPropertyOp16
 70
     1
102
RTVSPropertyOp17
 70
     1
102
RTVSPropertyOp18
 70
     1
102
RTVSPropertyOp19
 70
     1
102
RTVSPropertyOp20
 70
     1
102
RTVSPropertyOp21
 70
     1
102
RTVSPropertyOp22
 70
     1
102
RTVSPropertyOp23
 70
     1
102
RTVSPropertyOp24
 70
     1
102
RTVSPropertyOp25
 70
     1
102
RTVSPropertyOp26
 70
     1
102
RTVSPropertyOp27
 70
     1
102
RTVSPropertyOp28
 70
     1
102
RTVSPropertyOp29
 70
     1
102
RTVSPropertyOp30
 70
     1
102
RTVSPropertyOp31
 70
     1
102
RTVSPropertyOp32
 70
     1
  0
XRECORD
  5
6D
102
{ACAD_REACTORS
330
6C
102
}
330
6C
100
AcDbXrecord
280
     1
102
RTVSPropertyOp0
 70
     1
102
RTVSPropertyOp1
 70
     1
102
RTVSPropertyOp2
 70
     1
102
RTVSPropertyOp3
 70
     1
102
RTVSPropertyOp4
 70
     1
102
RTVSPropertyOp5
 70
     1
102
RTVSPropertyOp6
 70
     1
102
RTVSPropertyOp7
 70
     1
102
RTVSPropertyOp8
 70
     1
102
RTVSPropertyOp9
 70
     1
102
RTVSPropertyOp10
 70
     1
102
RTVSPropertyOp11
 70
     1
102
RTVSPropertyOp12
 70
     1
102
RTVSPropertyOp13
 70
     1
102
RTVSPropertyOp14
 70
     1
102
RTVSPropertyOp15
 70
     1
102
RTVSPropertyOp16
 70
     1
102
RTVSPropertyOp17
 70
     1
102
RTVSPropertyOp18
 70
     1
102
RTVSPropertyOp19
 70
     1
102
RTVSPropertyOp20
 70
     1
102
RTVSPropertyOp21
 70
     1
102
RTVSPropertyOp22
 70
     1
102
RTVSPropertyOp23
 70
     1
102
RTVSPropertyOp24
 70
     1
102
RTVSPropertyOp25
 70
     1
102
RTVSPropertyOp26
 70
     1
102
RTVSPropertyOp27
 70
     1
102
RTVSPropertyOp28
 70
     1
102
RTVSPropertyOp29
 70
     1
102
RTVSPropertyOp30
 70
     1
102
RTVSPropertyOp31
 70
     1
102
RTVSPropertyOp32
 70
     1
  0
XRECORD
  5
61
102
{ACAD_REACTORS
330
60
102
}
330
60
100
AcDbXrecord
280
     1
102
RTVSPropertyOp0
 70
     1
102
RTVSPropertyOp1
 70
     1
102
RTVSPropertyOp2
 70
     1
102
RTVSPropertyOp3
 70
     1
102
RTVSPropertyOp4
 70
     1
102
RTVSPropertyOp5
 70
     1
102
RTVSPropertyOp6
 70
     1
102
RTVSPropertyOp7
 70
     1
102
RTVSPropertyOp8
 70
     1
102
RTVSPropertyOp9
 70
     1
102
RTVSPropertyOp10
 70
     1
102
RTVSPropertyOp11
 70
     1
102
RTVSPropertyOp12
 70
     1
102
RTVSPropertyOp13
 70
     1
102
RTVSPropertyOp14
 70
     1
102
RTVSPropertyOp15
 70
     1
102
RTVSPropertyOp16
 70
     1
102
RTVSPropertyOp17
 70
     1
102
RTVSPropertyOp18
 70
     1
102
RTVSPropertyOp19
 70
     1
102
RTVSPropertyOp20
 70
     1
102
RTVSPropertyOp21
 70
     1
102
RTVSPropertyOp22
 70
     1
102
RTVSPropertyOp23
 70
     1
102
RTVSPropertyOp24
 70
     1
102
RTVSPropertyOp25
 70
     1
102
RTVSPropertyOp26
 70
     1
102
RTVSPropertyOp27
 70
     1
102
RTVSPropertyOp28
 70
     1
102
RTVSPropertyOp29
 70
     1
102
RTVSPropertyOp30
 70
     1
102
RTVSPropertyOp31
 70
     1
102
RTVSPropertyOp32
 70
     1
  0
XRECORD
  5
63
102
{ACAD_REACTORS
330
62
102
}
330
62
100
AcDbXrecord
280
     1
102
RTVSPropertyOp0
 70
     1
102
RTVSPropertyOp1
 70
     1
102
RTVSPropertyOp2
 70
     1
102
RTVSPropertyOp3
 70
     1
102
RTVSPropertyOp4
 70
     1
102
RTVSPropertyOp5
 70
     1
102
RTVSPropertyOp6
 70
     1
102
RTVSPropertyOp7
 70
     1
102
RTVSPropertyOp8
 70
     1
102
RTVSPropertyOp9
 70
     1
102
RTVSPropertyOp10
 70
     1
102
RTVSPropertyOp11
 70
     1
102
RTVSPropertyOp12
 70
     1
102
RTVSPropertyOp13
 70
     1
102
RTVSPropertyOp14
 70
     1
102
RTVSPropertyOp15
 70
     1
102
RTVSPropertyOp16
 70
     1
102
RTVSPropertyOp17
 70
     1
102
RTVSPropertyOp18
 70
     1
102
RTVSPropertyOp19
 70
     1
102
RTVSPropertyOp20
 70
     1
102
RTVSPropertyOp21
 70
     1
102
RTVSPropertyOp22
 70
     1
102
RTVSPropertyOp23
 70
     1
102
RTVSPropertyOp24
 70
     1
102
RTVSPropertyOp25
 70
     1
102
RTVSPropertyOp26
 70
     1
102
RTVSPropertyOp27
 70
     1
102
RTVSPropertyOp28
 70
     1
102
RTVSPropertyOp29
 70
     1
102
RTVSPropertyOp30
 70
     1
102
RTVSPropertyOp31
 70
     1
102
RTVSPropertyOp32
 70
     1
  0
XRECORD
  5
6B
102
{ACAD_REACTORS
330
6A
102
}
330
6A
100
AcDbXrecord
280
     1
102
RTVSPropertyOp0
 70
     1
102
RTVSPropertyOp1
 70
     1
102
RTVSPropertyOp2
 70
     1
102
RTVSPropertyOp3
 70
     1
102
RTVSPropertyOp4
 70
     1
102
RTVSPropertyOp5
 70
     1
102
RTVSPropertyOp6
 70
     1
102
RTVSPropertyOp7
 70
     1
102
RTVSPropertyOp8
 70
     1
102
RTVSPropertyOp9
 70
     1
102
RTVSPropertyOp10
 70
     1
102
RTVSPropertyOp11
 70
     1
102
RTVSPropertyOp12
 70
     1
102
RTVSPropertyOp13
 70
     1
102
RTVSPropertyOp14
 70
     1
102
RTVSPropertyOp15
 70
     1
102
RTVSPropertyOp16
 70
     1
102
RTVSPropertyOp17
 70
     1
102
RTVSPropertyOp18
 70
     1
102
RTVSPropertyOp19
 70
     1
102
RTVSPropertyOp20
 70
     1
102
RTVSPropertyOp21
 70
     1
102
RTVSPropertyOp22
 70
     1
102
RTVSPropertyOp23
 70
     1
102
RTVSPropertyOp24
 70
     1
102
RTVSPropertyOp25
 70
     1
102
RTVSPropertyOp26
 70
     1
102
RTVSPropertyOp27
 70
     1
102
RTVSPropertyOp28
 70
     1
102
RTVSPropertyOp29
 70
     1
102
RTVSPropertyOp30
 70
     1
102
RTVSPropertyOp31
 70
     1
102
RTVSPropertyOp32
 70
     1
  0
XRECORD
  5
4F
102
{ACAD_REACTORS
330
4E
102
}
330
4E
100
AcDbXrecord
280
     1
102
RTVSPropertyOp0
 70
     1
102
RTVSPropertyOp1
 70
     1
102
RTVSPropertyOp2
 70
     1
102
RTVSPropertyOp3
 70
     1
102
RTVSPropertyOp4
 70
     1
102
RTVSPropertyOp5
 70
     1
102
RTVSPropertyOp6
 70
     1
102
RTVSPropertyOp7
 70
     1
102
RTVSPropertyOp8
 70
     1
102
RTVSPropertyOp9
 70
     1
102
RTVSPropertyOp10
 70
     1
102
RTVSPropertyOp11
 70
     1
102
RTVSPropertyOp12
 70
     1
102
RTVSPropertyOp13
 70
     1
102
RTVSPropertyOp14
 70
     1
102
RTVSPropertyOp15
 70
     1
102
RTVSPropertyOp16
 70
     1
102
RTVSPropertyOp17
 70
     1
102
RTVSPropertyOp18
 70
     1
102
RTVSPropertyOp19
 70
     1
102
RTVSPropertyOp20
 70
     1
102
RTVSPropertyOp21
 70
     1
102
RTVSPropertyOp22
 70
     1
102
RTVSPropertyOp23
 70
     1
102
RTVSPropertyOp24
 70
     1
102
RTVSPropertyOp25
 70
     1
102
RTVSPropertyOp26
 70
     1
102
RTVSPropertyOp27
 70
     1
102
RTVSPropertyOp28
 70
     1
102
RTVSPropertyOp29
 70
     1
102
RTVSPropertyOp30
 70
     1
102
RTVSPropertyOp31
 70
     1
102
RTVSPropertyOp32
 70
     1
  0
XRECORD
  5
51
102
{ACAD_REACTORS
330
50
102
}
330
50
100
AcDbXrecord
280
     1
102
RTVSPropertyOp0
 70
     1
102
RTVSPropertyOp1
 70
     1
102
RTVSPropertyOp2
 70
     1
102
RTVSPropertyOp3
 70
     1
102
RTVSPropertyOp4
 70
     1
102
RTVSPropertyOp5
 70
     1
102
RTVSPropertyOp6
 70
     1
102
RTVSPropertyOp7
 70
     1
102
RTVSPropertyOp8
 70
     1
102
RTVSPropertyOp9
 70
     1
102
RTVSPropertyOp10
 70
     1
102
RTVSPropertyOp11
 70
     1
102
RTVSPropertyOp12
 70
     1
102
RTVSPropertyOp13
 70
     1
102
RTVSPropertyOp14
 70
     1
102
RTVSPropertyOp15
 70
     1
102
RTVSPropertyOp16
 70
     1
102
RTVSPropertyOp17
 70
     1
102
RTVSPropertyOp18
 70
     1
102
RTVSPropertyOp19
 70
     1
102
RTVSPropertyOp20
 70
     1
102
RTVSPropertyOp21
 70
     1
102
RTVSPropertyOp22
 70
     1
102
RTVSPropertyOp23
 70
     1
102
RTVSPropertyOp24
 70
     1
102
RTVSPropertyOp25
 70
     1
102
RTVSPropertyOp26
 70
     1
102
RTVSPropertyOp27
 70
     1
102
RTVSPropertyOp28
 70
     1
102
RTVSPropertyOp29
 70
     1
102
RTVSPropertyOp30
 70
     1
102
RTVSPropertyOp31
 70
     1
102
RTVSPropertyOp32
 70
     1
  0
XRECORD
  5
53
102
{ACAD_REACTORS
330
52
102
}
330
52
100
AcDbXrecord
280
     1
102
RTVSPropertyOp0
 70
     1
102
RTVSPropertyOp1
 70
     1
102
RTVSPropertyOp2
 70
     1
102
RTVSPropertyOp3
 70
     1
102
RTVSPropertyOp4
 70
     1
102
RTVSPropertyOp5
 70
     1
102
RTVSPropertyOp6
 70
     1
102
RTVSPropertyOp7
 70
     1
102
RTVSPropertyOp8
 70
     1
102
RTVSPropertyOp9
 70
     1
102
RTVSPropertyOp10
 70
     1
102
RTVSPropertyOp11
 70
     1
102
RTVSPropertyOp12
 70
     1
102
RTVSPropertyOp13
 70
     1
102
RTVSPropertyOp14
 70
     1
102
RTVSPropertyOp15
 70
     1
102
RTVSPropertyOp16
 70
     1
102
RTVSPropertyOp17
 70
     1
102
RTVSPropertyOp18
 70
     1
102
RTVSPropertyOp19
 70
     1
102
RTVSPropertyOp20
 70
     1
102
RTVSPropertyOp21
 70
     1
102
RTVSPropertyOp22
 70
     1
102
RTVSPropertyOp23
 70
     1
102
RTVSPropertyOp24
 70
     1
102
RTVSPropertyOp25
 70
     1
102
RTVSPropertyOp26
 70
     1
102
RTVSPropertyOp27
 70
     1
102
RTVSPropertyOp28
 70
     1
102
RTVSPropertyOp29
 70
     1
102
RTVSPropertyOp30
 70
     1
102
RTVSPropertyOp31
 70
     1
102
RTVSPropertyOp32
 70
     1
  0
XRECORD
  5
55
102
{ACAD_REACTORS
330
54
102
}
330
54
100
AcDbXrecord
280
     1
102
RTVSPropertyOp0
 70
     1
102
RTVSPropertyOp1
 70
     1
102
RTVSPropertyOp2
 70
     1
102
RTVSPropertyOp3
 70
     1
102
RTVSPropertyOp4
 70
     1
102
RTVSPropertyOp5
 70
     1
102
RTVSPropertyOp6
 70
     1
102
RTVSPropertyOp7
 70
     1
102
RTVSPropertyOp8
 70
     1
102
RTVSPropertyOp9
 70
     1
102
RTVSPropertyOp10
 70
     1
102
RTVSPropertyOp11
 70
     1
102
RTVSPropertyOp12
 70
     1
102
RTVSPropertyOp13
 70
     1
102
RTVSPropertyOp14
 70
     1
102
RTVSPropertyOp15
 70
     1
102
RTVSPropertyOp16
 70
     1
102
RTVSPropertyOp17
 70
     1
102
RTVSPropertyOp18
 70
     1
102
RTVSPropertyOp19
 70
     1
102
RTVSPropertyOp20
 70
     1
102
RTVSPropertyOp21
 70
     1
102
RTVSPropertyOp22
 70
     1
102
RTVSPropertyOp23
 70
     1
102
RTVSPropertyOp24
 70
     1
102
RTVSPropertyOp25
 70
     1
102
RTVSPropertyOp26
 70
     1
102
RTVSPropertyOp27
 70
     1
102
RTVSPropertyOp28
 70
     1
102
RTVSPropertyOp29
 70
     1
102
RTVSPropertyOp30
 70
     1
102
RTVSPropertyOp31
 70
     1
102
RTVSPropertyOp32
 70
     1
  0
XRECORD
  5
69
102
{ACAD_REACTORS
330
68
102
}
330
68
100
AcDbXrecord
280
     1
102
RTVSPropertyOp0
 70
     1
102
RTVSPropertyOp1
 70
     1
102
RTVSPropertyOp2
 70
     1
102
RTVSPropertyOp3
 70
     1
102
RTVSPropertyOp4
 70
     1
102
RTVSPropertyOp5
 70
     1
102
RTVSPropertyOp6
 70
     1
102
RTVSPropertyOp7
 70
     1
102
RTVSPropertyOp8
 70
     1
102
RTVSPropertyOp9
 70
     1
102
RTVSPropertyOp10
 70
     1
102
RTVSPropertyOp11
 70
     1
102
RTVSPropertyOp12
 70
     1
102
RTVSPropertyOp13
 70
     1
102
RTVSPropertyOp14
 70
     1
102
RTVSPropertyOp15
 70
     1
102
RTVSPropertyOp16
 70
     1
102
RTVSPropertyOp17
 70
     1
102
RTVSPropertyOp18
 70
     1
102
RTVSPropertyOp19
 70
     1
102
RTVSPropertyOp20
 70
     1
102
RTVSPropertyOp21
 70
     1
102
RTVSPropertyOp22
 70
     1
102
RTVSPropertyOp23
 70
     1
102
RTVSPropertyOp24
 70
     1
102
RTVSPropertyOp25
 70
     1
102
RTVSPropertyOp26
 70
     1
102
RTVSPropertyOp27
 70
     1
102
RTVSPropertyOp28
 70
     1
102
RTVSPropertyOp29
 70
     1
102
RTVSPropertyOp30
 70
     1
102
RTVSPropertyOp31
 70
     1
102
RTVSPropertyOp32
 70
     1
  0
XRECORD
  5
5F
102
{ACAD_REACTORS
330
5E
102
}
330
5E
100
AcDbXrecord
280
     1
102
RTVSPropertyOp0
 70
     1
102
RTVSPropertyOp1
 70
     1
102
RTVSPropertyOp2
 70
     1
102
RTVSPropertyOp3
 70
     1
102
RTVSPropertyOp4
 70
     1
102
RTVSPropertyOp5
 70
     1
102
RTVSPropertyOp6
 70
     1
102
RTVSPropertyOp7
 70
     1
102
RTVSPropertyOp8
 70
     1
102
RTVSPropertyOp9
 70
     1
102
RTVSPropertyOp10
 70
     1
102
RTVSPropertyOp11
 70
     1
102
RTVSPropertyOp12
 70
     1
102
RTVSPropertyOp13
 70
     1
102
RTVSPropertyOp14
 70
     1
102
RTVSPropertyOp15
 70
     1
102
RTVSPropertyOp16
 70
     1
102
RTVSPropertyOp17
 70
     1
102
RTVSPropertyOp18
 70
     1
102
RTVSPropertyOp19
 70
     1
102
RTVSPropertyOp20
 70
     1
102
RTVSPropertyOp21
 70
     1
102
RTVSPropertyOp22
 70
     1
102
RTVSPropertyOp23
 70
     1
102
RTVSPropertyOp24
 70
     1
102
RTVSPropertyOp25
 70
     1
102
RTVSPropertyOp26
 70
     1
102
RTVSPropertyOp27
 70
     1
102
RTVSPropertyOp28
 70
     1
102
RTVSPropertyOp29
 70
     1
102
RTVSPropertyOp30
 70
     1
102
RTVSPropertyOp31
 70
     1
102
RTVSPropertyOp32
 70
     1
  0
XRECORD
  5
67
102
{ACAD_REACTORS
330
66
102
}
330
66
100
AcDbXrecord
280
     1
102
RTVSPropertyOp0
 70
     1
102
RTVSPropertyOp1
 70
     1
102
RTVSPropertyOp2
 70
     1
102
RTVSPropertyOp3
 70
     1
102
RTVSPropertyOp4
 70
     1
102
RTVSPropertyOp5
 70
     1
102
RTVSPropertyOp6
 70
     1
102
RTVSPropertyOp7
 70
     1
102
RTVSPropertyOp8
 70
     1
102
RTVSPropertyOp9
 70
     1
102
RTVSPropertyOp10
 70
     1
102
RTVSPropertyOp11
 70
     1
102
RTVSPropertyOp12
 70
     1
102
RTVSPropertyOp13
 70
     1
102
RTVSPropertyOp14
 70
     1
102
RTVSPropertyOp15
 70
     1
102
RTVSPropertyOp16
 70
     1
102
RTVSPropertyOp17
 70
     1
102
RTVSPropertyOp18
 70
     1
102
RTVSPropertyOp19
 70
     1
102
RTVSPropertyOp20
 70
     1
102
RTVSPropertyOp21
 70
     1
102
RTVSPropertyOp22
 70
     1
102
RTVSPropertyOp23
 70
     1
102
RTVSPropertyOp24
 70
     1
102
RTVSPropertyOp25
 70
     1
102
RTVSPropertyOp26
 70
     1
102
RTVSPropertyOp27
 70
     1
102
RTVSPropertyOp28
 70
     1
102
RTVSPropertyOp29
 70
     1
102
RTVSPropertyOp30
 70
     1
102
RTVSPropertyOp31
 70
     1
102
RTVSPropertyOp32
 70
     1
  0
ENDSEC
  0
EOF
