  0
SECTION
  2
HEADER
  9
$ACADVER
  1
AC1024
  9
$ACADMAINTVER
 70
     6
  9
$DWGCODEPAGE
  3
ANSI_1251
  9
$INSBASE
 10
0.0
 20
0.0
 30
0.0
  9
$EXTMIN
 10
1.000000000000000E+20
 20
1.000000000000000E+20
 30
1.000000000000000E+20
  9
$EXTMAX
 10
-1.000000000000000E+20
 20
-1.000000000000000E+20
 30
-1.000000000000000E+20
  9
$LIMMIN
 10
0.0
 20
0.0
  9
$LIMMAX
 10
12.0
 20
9.0
  9
$ORTHOMODE
 70
     0
  9
$REGENMODE
 70
     1
  9
$FILLMODE
 70
     1
  9
$QTEXTMODE
 70
     0
  9
$MIRRTEXT
 70
     1
  9
$LTSCALE
 40
1.0
  9
$ATTMODE
 70
     1
  9
$TEXTSIZE
 40
0.2
  9
$TRACEWID
 40
0.05
  9
$TEXTSTYLE
  7
Standard
  9
$CLAYER
  8
0
  9
$CELTYPE
  6
ByLayer
  9
$CECOLOR
 62
   256
  9
$CELTSCALE
 40
1.0
  9
$DISPSILH
 70
     0
  9
$DIMSCALE
 40
1.0
  9
$DIMASZ
 40
0.18
  9
$DIMEXO
 40
0.0625
  9
$DIMDLI
 40
0.38
  9
$DIMRND
 40
0.0
  9
$DIMDLE
 40
0.0
  9
$DIMEXE
 40
0.18
  9
$DIMTP
 40
0.0
  9
$DIMTM
 40
0.0
  9
$DIMTXT
 40
0.18
  9
$DIMCEN
 40
0.09
  9
$DIMTSZ
 40
0.0
  9
$DIMTOL
 70
     0
  9
$DIMLIM
 70
     0
  9
$DIMTIH
 70
     1
  9
$DIMTOH
 70
     1
  9
$DIMSE1
 70
     0
  9
$DIMSE2
 70
     0
  9
$DIMTAD
 70
     0
  9
$DIMZIN
 70
     0
  9
$DIMBLK
  1

  9
$DIMASO
 70
     1
  9
$DIMSHO
 70
     1
  9
$DIMPOST
  1

  9
$DIMAPOST
  1

  9
$DIMALT
 70
     0
  9
$DIMALTD
 70
     2
  9
$DIMALTF
 40
25.4
  9
$DIMLFAC
 40
1.0
  9
$DIMTOFL
 70
     0
  9
$DIMTVP
 40
0.0
  9
$DIMTIX
 70
     0
  9
$DIMSOXD
 70
     0
  9
$DIMSAH
 70
     0
  9
$DIMBLK1
  1

  9
$DIMBLK2
  1

  9
$DIMSTYLE
  2
Standard
  9
$DIMCLRD
 70
     0
  9
$DIMCLRE
 70
     0
  9
$DIMCLRT
 70
     0
  9
$DIMTFAC
 40
1.0
  9
$DIMGAP
 40
0.09
  9
$DIMJUST
 70
     0
  9
$DIMSD1
 70
     0
  9
$DIMSD2
 70
     0
  9
$DIMTOLJ
 70
     1
  9
$DIMTZIN
 70
     0
  9
$DIMALTZ
 70
     0
  9
$DIMALTTZ
 70
     0
  9
$DIMUPT
 70
     0
  9
$DIMDEC
 70
     4
  9
$DIMTDEC
 70
     4
  9
$DIMALTU
 70
     2
  9
$DIMALTTD
 70
     2
  9
$DIMTXSTY
  7
Standard
  9
$DIMAUNIT
 70
     0
  9
$DIMADEC
 70
     0
  9
$DIMALTRND
 40
0.0
  9
$DIMAZIN
 70
     0
  9
$DIMDSEP
 70
    46
  9
$DIMATFIT
 70
     3
  9
$DIMFRAC
 70
     0
  9
$DIMLDRBLK
  1

  9
$DIMLUNIT
 70
     2
  9
$DIMLWD
 70
    -2
  9
$DIMLWE
 70
    -2
  9
$DIMTMOVE
 70
     0
  9
$DIMFXL
 40
1.0
  9
$DIMFXLON
 70
     0
  9
$DIMJOGANG
 40
0.7853981633974483
  9
$DIMTFILL
 70
     0
  9
$DIMTFILLCLR
 70
     0
  9
$DIMARCSYM
 70
     0
  9
$DIMLTYPE
  6

  9
$DIMLTEX1
  6

  9
$DIMLTEX2
  6

  9
$DIMTXTDIRECTION
 70
     0
  9
$LUNITS
 70
     2
  9
$LUPREC
 70
     4
  9
$SKETCHINC
 40
0.1
  9
$FILLETRAD
 40
0.5
  9
$AUNITS
 70
     0
  9
$AUPREC
 70
     0
  9
$MENU
  1
.
  9
$ELEVATION
 40
0.0
  9
$PELEVATION
 40
0.0
  9
$THICKNESS
 40
0.0
  9
$LIMCHECK
 70
     0
  9
$CHAMFERA
 40
0.5
  9
$CHAMFERB
 40
0.5
  9
$CHAMFERC
 40
1.0
  9
$CHAMFERD
 40
0.0
  9
$SKPOLY
 70
     0
  9
$TDCREATE
 40
2460155.936925567
  9
$TDUCREATE
 40
2460155.686925567
  9
$TDUPDATE
 40
2460155.936926111
  9
$TDUUPDATE
 40
2460155.686926111
  9
$TDINDWG
 40
0.0000000116
  9
$TDUSRTIMER
 40
0.0000000116
  9
$USRTIMER
 70
     1
  9
$ANGBASE
 50
0.0
  9
$ANGDIR
 70
     0
  9
$PDMODE
 70
     0
  9
$PDSIZE
 40
0.0
  9
$PLINEWID
 40
0.0
  9
$SPLFRAME
 70
     0
  9
$SPLINETYPE
 70
     6
  9
$SPLINESEGS
 70
     8
  9
$HANDSEED
  5
4A
  9
$SURFTAB1
 70
     6
  9
$SURFTAB2
 70
     6
  9
$SURFTYPE
 70
     6
  9
$SURFU
 70
     6
  9
$SURFV
 70
     6
  9
$UCSBASE
  2

  9
$UCSNAME
  2

  9
$UCSORG
 10
0.0
 20
0.0
 30
0.0
  9
$UCSXDIR
 10
1.0
 20
0.0
 30
0.0
  9
$UCSYDIR
 10
0.0
 20
1.0
 30
0.0
  9
$UCSORTHOREF
  2

  9
$UCSORTHOVIEW
 70
     0
  9
$UCSORGTOP
 10
0.0
 20
0.0
 30
0.0
  9
$UCSORGBOTTOM
 10
0.0
 20
0.0
 30
0.0
  9
$UCSORGLEFT
 10
0.0
 20
0.0
 30
0.0
  9
$UCSORGRIGHT
 10
0.0
 20
0.0
 30
0.0
  9
$UCSORGFRONT
 10
0.0
 20
0.0
 30
0.0
  9
$UCSORGBACK
 10
0.0
 20
0.0
 30
0.0
  9
$PUCSBASE
  2

  9
$PUCSNAME
  2

  9
$PUCSORG
 10
0.0
 20
0.0
 30
0.0
  9
$PUCSXDIR
 10
1.0
 20
0.0
 30
0.0
  9
$PUCSYDIR
 10
0.0
 20
1.0
 30
0.0
  9
$PUCSORTHOREF
  2

  9
$PUCSORTHOVIEW
 70
     0
  9
$PUCSORGTOP
 10
0.0
 20
0.0
 30
0.0
  9
$PUCSORGBOTTOM
 10
0.0
 20
0.0
 30
0.0
  9
$PUCSORGLEFT
 10
0.0
 20
0.0
 30
0.0
  9
$PUCSORGRIGHT
 10
0.0
 20
0.0
 30
0.0
  9
$PUCSORGFRONT
 10
0.0
 20
0.0
 30
0.0
  9
$PUCSORGBACK
 10
0.0
 20
0.0
 30
0.0
  9
$USERI1
 70
     0
  9
$USERI2
 70
     0
  9
$USERI3
 70
     0
  9
$USERI4
 70
     0
  9
$USERI5
 70
     0
  9
$USERR1
 40
0.0
  9
$USERR2
 40
0.0
  9
$USERR3
 40
0.0
  9
$USERR4
 40
0.0
  9
$USERR5
 40
0.0
  9
$WORLDVIEW
 70
     1
  9
$SHADEDGE
 70
     3
  9
$SHADEDIF
 70
    70
  9
$TILEMODE
 70
     1
  9
$MAXACTVP
 70
    64
  9
$PINSBASE
 10
0.0
 20
0.0
 30
0.0
  9
$PLIMCHECK
 70
     0
  9
$PEXTMIN
 10
1.000000000000000E+20
 20
1.000000000000000E+20
 30
1.000000000000000E+20
  9
$PEXTMAX
 10
-1.000000000000000E+20
 20
-1.000000000000000E+20
 30
-1.000000000000000E+20
  9
$PLIMMIN
 10
0.0
 20
0.0
  9
$PLIMMAX
 10
12.0
 20
9.0
  9
$UNITMODE
 70
     0
  9
$VISRETAIN
 70
     1
  9
$PLINEGEN
 70
     0
  9
$PSLTSCALE
 70
     1
  9
$TREEDEPTH
 70
  3020
  9
$CMLSTYLE
  2
Standard
  9
$CMLJUST
 70
     0
  9
$CMLSCALE
 40
1.0
  9
$PROXYGRAPHICS
 70
     1
  9
$MEASUREMENT
 70
     0
  9
$CELWEIGHT
370
    -1
  9
$ENDCAPS
280
     0
  9
$JOINSTYLE
280
     0
  9
$LWDISPLAY
290
     1
  9
$INSUNITS
 70
     1
  9
$HYPERLINKBASE
  1

  9
$STYLESHEET
  1

  9
$XEDIT
290
     1
  9
$CEPSNTYPE
380
     0
  9
$PSTYLEMODE
290
     1
  9
$FINGERPRINTGUID
  2
{33E463DB-98B6-4852-B506-966B26C32991}
  9
$VERSIONGUID
  2
{FAEB1C32-E019-11D5-929B-00C0DF256EC4}
  9
$EXTNAMES
290
     1
  9
$PSVPSCALE
 40
0.0
  9
$OLESTARTUP
290
     0
  9
$SORTENTS
280
   127
  9
$INDEXCTL
280
     0
  9
$HIDETEXT
280
     1
  9
$XCLIPFRAME
280
     2
  9
$HALOGAP
280
     0
  9
$OBSCOLOR
 70
   257
  9
$OBSLTYPE
280
     0
  9
$INTERSECTIONDISPLAY
280
     0
  9
$INTERSECTIONCOLOR
 70
   257
  9
$DIMASSOC
280
     2
  9
$PROJECTNAME
  1

  9
$CAMERADISPLAY
290
     0
  9
$LENSLENGTH
 40
50.0
  9
$CAMERAHEIGHT
 40
0.0
  9
$STEPSPERSEC
 40
2.0
  9
$STEPSIZE
 40
6.0
  9
$3DDWFPREC
 40
2.0
  9
$PSOLWIDTH
 40
0.25
  9
$PSOLHEIGHT
 40
4.0
  9
$LOFTANG1
 40
1.570796326794897
  9
$LOFTANG2
 40
1.570796326794897
  9
$LOFTMAG1
 40
0.0
  9
$LOFTMAG2
 40
0.0
  9
$LOFTPARAM
 70
     7
  9
$LOFTNORMALS
280
     1
  9
$LATITUDE
 40
37.795
  9
$LONGITUDE
 40
-122.394
  9
$NORTHDIRECTION
 40
0.0
  9
$TIMEZONE
 70
 -8000
  9
$LIGHTGLYPHDISPLAY
280
     1
  9
$TILEMODELIGHTSYNCH
280
     1
  9
$CMATERIAL
347
3C
  9
$SOLIDHIST
280
     1
  9
$SHOWHIST
280
     1
  9
$DWFFRAME
280
     2
  9
$DGNFRAME
280
     2
  9
$REALWORLDSCALE
290
     1
  9
$INTERFERECOLOR
 62
   256
  9
$CSHADOW
280
     0
  9
$SHADOWPLANELOCATION
 40
0.0
  0
ENDSEC
  0
SECTION
  2
CLASSES
  0
CLASS
  1
ACDBDICTIONARYWDFLT
  2
AcDbDictionaryWithDefault
  3
ObjectDBX Classes
 90
        0
 91
        4
280
     0
281
     0
  0
CLASS
  1
VISUALSTYLE
  2
AcDbVisualStyle
  3
ObjectDBX Classes
 90
     4095
 91
        4
280
     0
281
     0
  0
CLASS
  1
MATERIAL
  2
AcDbMaterial
  3
ObjectDBX Classes
 90
     1153
 91
        4
280
     0
281
     0
  0
CLASS
  1
SUN
  2
AcDbSun
  3
SCENEOE
 90
     1024
 91
        4
280
     0
281
     0
  0
ENDSEC
  0
SECTION
  2
TABLES
  0
TABLE
  2
VPORT
  5
8
330
0
100
AcDbSymbolTable
 70
     1
  0
VPORT
  5
29
330
8
100
AcDbSymbolTableRecord
100
AcDbViewportTableRecord
  2
*Active
 70
     0
 10
0.0
 20
0.0
 11
1.0
 21
1.0
 12
0.0
 22
0.0
 13
0.0
 23
0.0
 14
0.5
 24
0.5
 15
0.5
 25
0.5
 16
0.0
 26
0.0
 36
1.0
 17
21.72020047966139
 27
-28.14481811797847
 37
0.0
 40
6.999999999999996
 41
0.7142857142857146
 42
50.0
 43
0.0
 44
0.0
 50
0.0
 51
0.0
 71
     0
 72
   100
 73
     1
 74
     3
 75
     0
 76
     0
 77
     0
 78
     0
281
     0
 65
     1
110
0.0
120
0.0
130
0.0
111
1.0
121
0.0
131
0.0
112
0.0
122
1.0
132
0.0
 79
     0
146
0.0
 60
     3
 61
     5
292
     1
282
     1
141
0.0
142
0.0
 63
   250
361
3F
  0
ENDTAB
  0
TABLE
  2
LTYPE
  5
5
330
0
100
AcDbSymbolTable
 70
     1
  0
LTYPE
  5
14
330
5
100
AcDbSymbolTableRecord
100
AcDbLinetypeTableRecord
  2
ByBlock
 70
     0
  3

 72
    65
 73
     0
 40
0.0
  0
LTYPE
  5
15
330
5
100
AcDbSymbolTableRecord
100
AcDbLinetypeTableRecord
  2
ByLayer
 70
     0
  3

 72
    65
 73
     0
 40
0.0
  0
LTYPE
  5
16
330
5
100
AcDbSymbolTableRecord
100
AcDbLinetypeTableRecord
  2
Continuous
 70
     0
  3
Solid line
 72
    65
 73
     0
 40
0.0
  0
ENDTAB
  0
TABLE
  2
LAYER
  5
2
330
0
100
AcDbSymbolTable
 70
     2
  0
LAYER
  5
10
330
2
100
AcDbSymbolTableRecord
100
AcDbLayerTableRecord
  2
0
 70
     0
 62
     7
  6
Continuous
370
    -3
390
F
347
3E
  0
LAYER
  5
40
330
2
100
AcDbSymbolTableRecord
100
AcDbLayerTableRecord
  2
_U+0421_U+043B_U+043E_U+0439 1
 70
     0
 62
     7
  6
Continuous
370
    -3
390
F
347
3E
  0
ENDTAB
  0
TABLE
  2
STYLE
  5
3
330
0
100
AcDbSymbolTable
 70
     1
  0
STYLE
  5
11
330
3
100
AcDbSymbolTableRecord
100
AcDbTextStyleTableRecord
  2
Standard
 70
     0
 40
0.0
 41
1.0
 50
0.0
 71
     0
 42
0.2
  3
txt
  4

  0
ENDTAB
  0
TABLE
  2
VIEW
  5
6
330
0
100
AcDbSymbolTable
 70
     0
  0
ENDTAB
  0
TABLE
  2
UCS
  5
7
330
0
100
AcDbSymbolTable
 70
     0
  0
ENDTAB
  0
TABLE
  2
APPID
  5
9
330
0
100
AcDbSymbolTable
 70
     1
  0
APPID
  5
12
330
9
100
AcDbSymbolTableRecord
100
AcDbRegAppTableRecord
  2
ACAD
 70
     0
  0
ENDTAB
  0
TABLE
  2
DIMSTYLE
  5
A
330
0
100
AcDbSymbolTable
 70
     1
100
AcDbDimStyleTable
  0
DIMSTYLE
105
27
330
A
100
AcDbSymbolTableRecord
100
AcDbDimStyleTableRecord
  2
Standard
 70
     0
178
     0
340
11
  0
ENDTAB
  0
TABLE
  2
BLOCK_RECORD
  5
1
330
0
100
AcDbSymbolTable
 70
     1
  0
BLOCK_RECORD
  5
1F
330
1
100
AcDbSymbolTableRecord
100
AcDbBlockTableRecord
  2
*Model_Space
340
22
 70
     0
280
     1
281
     0
  0
BLOCK_RECORD
  5
1B
330
1
100
AcDbSymbolTableRecord
100
AcDbBlockTableRecord
  2
*Paper_Space
340
1E
 70
     0
280
     1
281
     0
  0
BLOCK_RECORD
  5
23
330
1
100
AcDbSymbolTableRecord
100
AcDbBlockTableRecord
  2
*Paper_Space0
340
26
 70
     0
280
     1
281
     0
  0
ENDTAB
  0
ENDSEC
  0
SECTION
  2
BLOCKS
  0
BLOCK
  5
20
330
1F
100
AcDbEntity
  8
0
100
AcDbBlockBegin
  2
*Model_Space
 70
     0
 10
0.0
 20
0.0
 30
0.0
  3
*Model_Space
  1

  0
ENDBLK
  5
21
330
1F
100
AcDbEntity
  8
0
100
AcDbBlockEnd
  0
BLOCK
  5
1C
330
1B
100
AcDbEntity
 67
     1
  8
0
100
AcDbBlockBegin
  2
*Paper_Space
 70
     0
 10
0.0
 20
0.0
 30
0.0
  3
*Paper_Space
  1

  0
ENDBLK
  5
1D
330
1B
100
AcDbEntity
 67
     1
  8
0
100
AcDbBlockEnd
  0
BLOCK
  5
24
330
23
100
AcDbEntity
  8
0
100
AcDbBlockBegin
  2
*Paper_Space0
 70
     0
 10
0.0
 20
0.0
 30
0.0
  3
*Paper_Space0
  1

  0
ENDBLK
  5
25
330
23
100
AcDbEntity
  8
0
100
AcDbBlockEnd
  0
ENDSEC
  0
SECTION
  2
ENTITIES
  0
SPLINE
  5
41
330
1F
100
AcDbEntity
  8
_U+0421_U+043B_U+043E_U+0439 1
 62
     7
420
 16777215
370
    35
100
AcDbSpline
210
0.0
220
0.0
230
1.0
 70
    11
 71
     3
 72
    56
 73
    52
 74
     0
 42
0.0000000001
 43
0.0000000001
 12
1.0
 22
0.0
 32
0.0
 13
1.0
 23
0.0
 33
0.0
 40
0.0
 40
0.0
 40
0.0
 40
0.0
 40
1.0
 40
1.0
 40
1.0
 40
2.0
 40
2.0
 40
2.0
 40
3.0
 40
3.0
 40
3.0
 40
4.0
 40
4.0
 40
4.0
 40
5.0
 40
5.0
 40
5.0
 40
6.0
 40
6.0
 40
6.0
 40
7.0
 40
7.0
 40
7.0
 40
8.0
 40
8.0
 40
8.0
 40
9.0
 40
9.0
 40
9.0
 40
10.0
 40
10.0
 40
10.0
 40
11.0
 40
11.0
 40
11.0
 40
12.0
 40
12.0
 40
12.0
 40
13.0
 40
13.0
 40
13.0
 40
14.0
 40
14.0
 40
14.0
 40
15.0
 40
15.0
 40
15.0
 40
16.0
 40
16.0
 40
16.0
 40
17.0
 40
17.0
 40
17.0
 40
17.0
 10
23.70577414814766
 20
-27.82278307117412
 30
0.0
 10
23.72425750219698
 20
-27.48805286153035
 30
0.0
 10
23.59041704824984
 20
-26.91331369081945
 30
0.0
 10
22.98801256039319
 20
-27.22136382577873
 30
0.0
 10
22.6925143531339
 20
-27.37247203376925
 30
0.0
 10
22.42300478998158
 20
-27.5005199558314
 30
0.0
 10
22.0811101253116
 20
-27.49994971896924
 30
0.0
 10
21.49151127216727
 20
-27.49896634293357
 30
0.0
 10
20.85287079142775
 20
-27.22418951761038
 30
0.0
 10
20.8528706853647
 20
-26.54567459703192
 30
0.0
 10
20.8528706853647
 20
-26.2270493523071
 30
0.0
 10
20.8561845186591
 20
-25.96762949810618
 30
0.0
 10
21.11816094912039
 20
-25.78595951009973
 30
0.0
 10
21.26925489224032
 20
-25.68118242201485
 30
0.0
 10
21.64516879713991
 20
-25.58458539722265
 30
0.0
 10
21.87536132243496
 20
-25.58458539722265
 30
0.0
 10
22.8398824506508
 20
-25.58458539722265
 30
0.0
 10
22.96335208679953
 20
-25.82375294261154
 30
0.0
 10
22.94190698033086
 20
-26.15267016929071
 30
0.0
 10
22.91771690023408
 20
-26.52366947197328
 30
0.0
 10
23.6430460830368
 20
-26.51895463262182
 30
0.0
 10
23.6430460830368
 20
-26.09052181629964
 30
0.0
 10
23.6430460830368
 20
-25.15944930880406
 30
0.0
 10
23.23223007924442
 20
-24.82971323712756
 30
0.0
 10
21.73134652182933
 20
-24.82971323712756
 30
0.0
 10
19.59626570212527
 20
-24.82971323712756
 30
0.0
 10
19.95738925570034
 20
-26.12239882685677
 30
0.0
 10
19.96978076493992
 20
-27.74767577179606
 30
0.0
 10
19.97002155210031
 20
-27.77909227734542
 30
0.0
 10
19.97220669558047
 20
-27.80919969829475
 30
0.0
 10
19.97614657549159
 20
-27.83812917183175
 30
0.0
 10
19.97609841805956
 20
-27.83972264114684
 30
0.0
 10
19.97590879817085
 20
-27.84128103888848
 30
0.0
 10
19.97590879817085
 20
-27.84288594458624
 30
0.0
 10
19.97590879817085
 20
-27.84288594458624
 30
0.0
 10
19.97590879817085
 20
-31.42185462273311
 30
0.0
 10
19.97590879817085
 20
-31.42185462273311
 30
0.0
 10
19.97590879817085
 20
-31.50430026764126
 30
0.0
 10
20.04248343816819
 20
-31.57175357732826
 30
0.0
 10
20.12384842949016
 20
-31.57175357732826
 30
0.0
 10
20.12384842949016
 20
-31.57175357732826
 30
0.0
 10
23.55933642674098
 20
-31.57175357732826
 30
0.0
 10
23.55933642674098
 20
-31.57175357732826
 30
0.0
 10
23.64070141806297
 20
-31.57175357732826
 30
0.0
 10
23.70727605806031
 20
-31.50430026764126
 30
0.0
 10
23.70727605806031
 20
-31.42185462273311
 30
0.0
 10
23.70727605806031
 20
-31.42185462273311
 30
0.0
 10
23.70727605806031
 20
-27.84288594458624
 30
0.0
 10
23.70727605806031
 20
-27.84288594458624
 30
0.0
 10
23.70727605806031
 20
-27.83605537444557
 30
0.0
 10
23.70665904096199
 20
-27.82937805183234
 30
0.0
 10
23.70577414814766
 20
-27.82278307117412
 30
0.0
  0
SPLINE
  5
42
330
1F
100
AcDbEntity
  8
_U+0421_U+043B_U+043E_U+0439 1
 62
     7
420
 16777215
370
    35
100
AcDbSpline
210
0.0
220
0.0
230
1.0
 70
    11
 71
     3
 72
    83
 73
    79
 74
     0
 42
0.0000000001
 43
0.0000000001
 12
1.0
 22
0.0
 32
0.0
 13
1.0
 23
0.0
 33
0.0
 40
0.0
 40
0.0
 40
0.0
 40
0.0
 40
1.0
 40
1.0
 40
1.0
 40
2.0
 40
2.0
 40
2.0
 40
3.0
 40
3.0
 40
3.0
 40
4.0
 40
4.0
 40
4.0
 40
5.0
 40
5.0
 40
5.0
 40
6.0
 40
6.0
 40
6.0
 40
7.0
 40
7.0
 40
7.0
 40
8.0
 40
8.0
 40
8.0
 40
9.0
 40
9.0
 40
9.0
 40
10.0
 40
10.0
 40
10.0
 40
11.0
 40
11.0
 40
11.0
 40
12.0
 40
12.0
 40
12.0
 40
13.0
 40
13.0
 40
13.0
 40
14.0
 40
14.0
 40
14.0
 40
15.0
 40
15.0
 40
15.0
 40
16.0
 40
16.0
 40
16.0
 40
17.0
 40
17.0
 40
17.0
 40
18.0
 40
18.0
 40
18.0
 40
19.0
 40
19.0
 40
19.0
 40
20.0
 40
20.0
 40
20.0
 40
21.0
 40
21.0
 40
21.0
 40
22.0
 40
22.0
 40
22.0
 40
23.0
 40
23.0
 40
23.0
 40
24.0
 40
24.0
 40
24.0
 40
25.0
 40
25.0
 40
25.0
 40
26.0
 40
26.0
 40
26.0
 40
26.0
 10
22.64234367413888
 20
-31.35283529104933
 30
0.0
 10
22.63514714788382
 20
-31.35065170438977
 30
0.0
 10
22.62790246419685
 20
-31.34819974395085
 30
0.0
 10
22.6205735050036
 20
-31.34515309161447
 30
0.0
 10
22.39364063589187
 20
-31.25081208390528
 30
0.0
 10
22.16508245344761
 20
-31.15954517585075
 30
0.0
 10
21.94074105614908
 20
-31.06030939636985
 30
0.0
 10
21.8748556693982
 20
-31.03116796854116
 30
0.0
 10
21.8260059742421
 20
-31.03508836051168
 30
0.0
 10
21.76263079363783
 20
-31.06295348803716
 30
0.0
 10
21.54539863724868
 20
-31.15847778013727
 30
0.0
 10
21.32508139536756
 20
-31.24816951708883
 30
0.0
 10
21.10537515090578
 20
-31.33893932371102
 30
0.0
 10
21.09101520663032
 20
-31.34487251902689
 30
0.0
 10
21.07752510597169
 20
-31.34944249753155
 30
0.0
 10
21.06468513064601
 20
-31.35283529104933
 30
0.0
 10
21.06468513064601
 20
-31.35283529104933
 30
0.0
 10
20.97392643023088
 20
-31.35283529104933
 30
0.0
 10
20.97392643023088
 20
-31.35283529104933
 30
0.0
 10
20.95327291155182
 20
-31.34577370597933
 30
0.0
 10
20.93432296203226
 20
-31.33334921987456
 30
0.0
 10
20.91608935431471
 20
-31.31546271741887
 30
0.0
 10
20.83986215902678
 20
-31.24069927194569
 30
0.0
 10
20.86652632719614
 20
-31.13025736232433
 30
0.0
 10
20.96880970307345
 20
-31.08830261138094
 30
0.0
 10
21.12961037859506
 20
-31.02234365569282
 30
0.0
 10
21.28947800387019
 20
-30.95448778533675
 30
0.0
 10
21.44967972133036
 20
-30.8873089488332
 30
0.0
 10
21.45697557228899
 20
-30.88425009768866
 30
0.0
 10
21.46365440614926
 20
-30.87996831602666
 30
0.0
 10
21.47647933227737
 20
-30.87314308286454
 30
0.0
 10
21.38551596277597
 20
-30.83449115922889
 30
0.0
 10
21.29953688749381
 20
-30.80221006315158
 30
0.0
 10
21.21805150259181
 20
-30.76225591674557
 30
0.0
 10
21.11567783152921
 20
-30.71205477149015
 30
0.0
 10
21.11282149383962
 20
-30.57924329741665
 30
0.0
 10
21.21001222127554
 20
-30.52120746762446
 30
0.0
 10
21.24993172262217
 20
-30.49737099649175
 30
0.0
 10
21.29326739180624
 20
-30.48960340539969
 30
0.0
 10
21.3387641257545
 20
-30.50865336918299
 30
0.0
 10
21.48878656601083
 20
-30.57147265662259
 30
0.0
 10
21.63947418079761
 20
-30.63302784256724
 30
0.0
 10
21.78826559669675
 20
-30.69819692542733
 30
0.0
 10
21.83347338605255
 20
-30.7179955910611
 30
0.0
 10
21.87017235912941
 20
-30.72204254566623
 30
0.0
 10
21.91767063634807
 20
-30.70044455582974
 30
0.0
 10
22.05770040944991
 20
-30.63676677726638
 30
0.0
 10
22.20049020537716
 20
-30.57811490766241
 30
0.0
 10
22.34283153521834
 20
-30.5187509326324
 30
0.0
 10
22.41954030482702
 20
-30.48675803339787
 30
0.0
 10
22.4787287986807
 20
-30.4983789230154
 30
0.0
 10
22.52536024212203
 20
-30.55110369670756
 30
0.0
 10
22.56988780774984
 20
-30.60143902885271
 30
0.0
 10
22.57530852869728
 20
-30.68081362380801
 30
0.0
 10
22.52399377498702
 20
-30.72935268145238
 30
0.0
 10
22.48932343373611
 20
-30.76215375172723
 30
0.0
 10
22.43834879188994
 20
-30.7813760236757
 30
0.0
 10
22.39282195954666
 20
-30.80349703741182
 30
0.0
 10
22.34682860208014
 20
-30.8258513533538
 30
0.0
 10
22.29852669771384
 20
-30.84421360932755
 30
0.0
 10
22.25138960123579
 20
-30.86461916566693
 30
0.0
 10
22.24819917136119
 20
-30.86600068069043
 30
0.0
 10
22.24629996263386
 20
-30.86988905078945
 30
0.0
 10
22.24043378543989
 20
-30.87628732566615
 30
0.0
 10
22.31270605161904
 20
-30.90594415313927
 30
0.0
 10
22.38272394800942
 20
-30.93457933042956
 30
0.0
 10
22.4526485393752
 20
-30.96339291528908
 30
0.0
 10
22.55159400324222
 20
-31.00417048124561
 30
0.0
 10
22.65064782133138
 20
-31.04472236925115
 30
0.0
 10
22.74931637996398
 20
-31.0860458318725
 30
0.0
 10
22.82957676018779
 20
-31.11966269744266
 30
0.0
 10
22.86577910974648
 20
-31.20401745582689
 30
0.0
 10
22.8309372076438
 20
-31.27384343369984
 30
0.0
 10
22.81117159161861
 20
-31.31345296377554
 30
0.0
 10
22.78176244982119
 20
-31.34012870750603
 30
0.0
 10
22.74648713082984
 20
-31.35283529104933
 30
0.0
 10
22.74648713082984
 20
-31.35283529104933
 30
0.0
 10
22.64234367413888
 20
-31.35283529104933
 30
0.0
 10
22.64234367413888
 20
-31.35283529104933
 30
0.0
  0
SPLINE
  5
43
330
1F
100
AcDbEntity
  8
_U+0421_U+043B_U+043E_U+0439 1
 62
     7
420
 16777215
370
    35
100
AcDbSpline
210
0.0
220
0.0
230
1.0
 70
    11
 71
     3
 72
    38
 73
    34
 74
     0
 42
0.0000000001
 43
0.0000000001
 12
1.0
 22
0.0
 32
0.0
 13
1.0
 23
0.0
 33
0.0
 40
0.0
 40
0.0
 40
0.0
 40
0.0
 40
1.0
 40
1.0
 40
1.0
 40
2.0
 40
2.0
 40
2.0
 40
3.0
 40
3.0
 40
3.0
 40
4.0
 40
4.0
 40
4.0
 40
5.0
 40
5.0
 40
5.0
 40
6.0
 40
6.0
 40
6.0
 40
7.0
 40
7.0
 40
7.0
 40
8.0
 40
8.0
 40
8.0
 40
9.0
 40
9.0
 40
9.0
 40
10.0
 40
10.0
 40
10.0
 40
11.0
 40
11.0
 40
11.0
 40
11.0
 10
21.97617589663421
 20
-29.61893634618018
 30
0.0
 10
21.94455753264063
 20
-29.60620384016955
 30
0.0
 10
21.90833712404492
 20
-29.59865354034782
 30
0.0
 10
21.88248862238134
 20
-29.57942669384622
 30
0.0
 10
21.85023518225237
 20
-29.55543468790956
 30
0.0
 10
21.82772760243862
 20
-29.55085022332021
 30
0.0
 10
21.796000884223
 20
-29.57804289154627
 30
0.0
 10
21.78041894510877
 20
-29.59139448707073
 30
0.0
 10
21.7569873445672
 20
-29.5987557053661
 30
0.0
 10
21.73571078911067
 20
-29.60452726647392
 30
0.0
 10
21.68989200233555
 20
-29.61695708955722
 30
0.0
 10
21.64512665938683
 20
-29.61498393233834
 30
0.0
 10
21.61137431918471
 20
-29.57914688368421
 30
0.0
 10
21.57788082517994
 20
-29.54359040761761
 30
0.0
 10
21.5803789919686
 20
-29.50227990622996
 30
0.0
 10
21.60036131643824
 20
-29.46272755806742
 30
0.0
 10
21.63637705594765
 20
-29.39141408802523
 30
0.0
 10
21.67528224138128
 20
-29.32131668667087
 30
0.0
 10
21.7128420285564
 20
-29.25065127831186
 30
0.0
 10
21.73316446488995
 20
-29.21241563900445
 30
0.0
 10
21.75263210680431
 20
-29.17379040026165
 30
0.0
 10
21.77355651103878
 20
-29.13583457111632
 30
0.0
 10
21.78934913891832
 20
-29.10718643259237
 30
0.0
 10
21.81039694657238
 20
-29.08219717408911
 30
0.0
 10
21.84964224387007
 20
-29.08252425463274
 30
0.0
 10
21.88920056447609
 20
-29.08285133517635
 30
0.0
 10
21.90882471804467
 20
-29.10834531936699
 30
0.0
 10
21.92321476071515
 20
-29.13796250071363
 30
0.0
 10
21.97518565943725
 20
-29.24496434643563
 30
0.0
 10
22.02818592326995
 20
-29.35156896846701
 30
0.0
 10
22.07848335122756
 20
-29.45922726255278
 30
0.0
 10
22.11694910009358
 20
-29.54155778120899
 30
0.0
 10
22.06998657430679
 20
-29.61206384263649
 30
0.0
 10
21.97617589663421
 20
-29.61893634618018
 30
0.0
  0
SPLINE
  5
44
330
1F
100
AcDbEntity
  8
_U+0421_U+043B_U+043E_U+0439 1
 62
     7
420
 16777215
370
    35
100
AcDbSpline
210
0.0
220
0.0
230
1.0
 70
    11
 71
     3
 72
    17
 73
    13
 74
     0
 42
0.0000000001
 43
0.0000000001
 12
1.0
 22
0.0
 32
0.0
 13
1.0
 23
0.0
 33
0.0
 40
0.0
 40
0.0
 40
0.0
 40
0.0
 40
1.0
 40
1.0
 40
1.0
 40
2.0
 40
2.0
 40
2.0
 40
3.0
 40
3.0
 40
3.0
 40
4.0
 40
4.0
 40
4.0
 40
4.0
 10
22.08343453721234
 20
-29.01525850162107
 30
0.0
 10
22.08248944760799
 20
-28.82624940565905
 30
0.0
 10
22.25188923459354
 20
-28.67064827067742
 30
0.0
 10
22.46312579069
 20
-28.67546756232375
 30
0.0
 10
22.66443589610101
 20
-28.68006117601918
 30
0.0
 10
22.81226416335858
 20
-28.83762250698601
 30
0.0
 10
22.8122762027166
 20
-29.01462950057567
 30
0.0
 10
22.81229426175362
 20
-29.19960460316634
 30
0.0
 10
22.64402617442175
 20
-29.35776367573271
 30
0.0
 10
22.44700208046495
 20
-29.35832482090778
 30
0.0
 10
22.24817810248457
 20
-29.35888977821039
 30
0.0
 10
22.08437962681672
 20
-29.20432706677292
 30
0.0
 10
22.08343453721234
 20
-29.01525850162107
 30
0.0
  0
SPLINE
  5
45
330
1F
100
AcDbEntity
  8
_U+0421_U+043B_U+043E_U+0439 1
 62
     7
420
 16777215
370
    35
100
AcDbSpline
210
0.0
220
0.0
230
1.0
 70
    11
 71
     3
 72
    17
 73
    13
 74
     0
 42
0.0000000001
 43
0.0000000001
 12
1.0
 22
0.0
 32
0.0
 13
1.0
 23
0.0
 33
0.0
 40
0.0
 40
0.0
 40
0.0
 40
0.0
 40
1.0
 40
1.0
 40
1.0
 40
2.0
 40
2.0
 40
2.0
 40
3.0
 40
3.0
 40
3.0
 40
4.0
 40
4.0
 40
4.0
 40
4.0
 10
21.24953743364707
 20
-29.3580877065743
 30
0.0
 10
21.04285175488121
 20
-29.36099940959553
 30
0.0
 10
20.8772564050292
 20
-29.20824288419029
 30
0.0
 10
20.87553778667229
 20
-29.01308253921664
 30
0.0
 10
20.87393956189539
 20
-28.83120059691848
 30
0.0
 10
21.03749424056342
 20
-28.67594789039481
 30
0.0
 10
21.23326323144693
 20
-28.67352032757215
 30
0.0
 10
21.43768852074489
 20
-28.67098526275269
 30
0.0
 10
21.60706422901444
 20
-28.8225859510853
 30
0.0
 10
21.60818388931006
 20
-29.00910344048194
 30
0.0
 10
21.60929752992668
 20
-29.19433395561835
 30
0.0
 10
21.44382558349439
 20
-29.35535059899474
 30
0.0
 10
21.24953743364707
 20
-29.3580877065743
 30
0.0
  0
SPLINE
  5
46
330
1F
100
AcDbEntity
  8
_U+0421_U+043B_U+043E_U+0439 1
 62
     7
420
 16777215
370
    35
100
AcDbSpline
210
0.0
220
0.0
230
1.0
 70
    11
 71
     3
 72
   176
 73
   172
 74
     0
 42
0.0000000001
 43
0.0000000001
 12
1.0
 22
0.0
 32
0.0
 13
1.0
 23
0.0
 33
0.0
 40
0.0
 40
0.0
 40
0.0
 40
0.0
 40
1.0
 40
1.0
 40
1.0
 40
2.0
 40
2.0
 40
2.0
 40
3.0
 40
3.0
 40
3.0
 40
4.0
 40
4.0
 40
4.0
 40
5.0
 40
5.0
 40
5.0
 40
6.0
 40
6.0
 40
6.0
 40
7.0
 40
7.0
 40
7.0
 40
8.0
 40
8.0
 40
8.0
 40
9.0
 40
9.0
 40
9.0
 40
10.0
 40
10.0
 40
10.0
 40
11.0
 40
11.0
 40
11.0
 40
12.0
 40
12.0
 40
12.0
 40
13.0
 40
13.0
 40
13.0
 40
14.0
 40
14.0
 40
14.0
 40
15.0
 40
15.0
 40
15.0
 40
16.0
 40
16.0
 40
16.0
 40
17.0
 40
17.0
 40
17.0
 40
18.0
 40
18.0
 40
18.0
 40
19.0
 40
19.0
 40
19.0
 40
20.0
 40
20.0
 40
20.0
 40
21.0
 40
21.0
 40
21.0
 40
22.0
 40
22.0
 40
22.0
 40
23.0
 40
23.0
 40
23.0
 40
24.0
 40
24.0
 40
24.0
 40
25.0
 40
25.0
 40
25.0
 40
26.0
 40
26.0
 40
26.0
 40
27.0
 40
27.0
 40
27.0
 40
28.0
 40
28.0
 40
28.0
 40
29.0
 40
29.0
 40
29.0
 40
30.0
 40
30.0
 40
30.0
 40
31.0
 40
31.0
 40
31.0
 40
32.0
 40
32.0
 40
32.0
 40
33.0
 40
33.0
 40
33.0
 40
34.0
 40
34.0
 40
34.0
 40
35.0
 40
35.0
 40
35.0
 40
36.0
 40
36.0
 40
36.0
 40
37.0
 40
37.0
 40
37.0
 40
38.0
 40
38.0
 40
38.0
 40
39.0
 40
39.0
 40
39.0
 40
40.0
 40
40.0
 40
40.0
 40
41.0
 40
41.0
 40
41.0
 40
42.0
 40
42.0
 40
42.0
 40
43.0
 40
43.0
 40
43.0
 40
44.0
 40
44.0
 40
44.0
 40
45.0
 40
45.0
 40
45.0
 40
46.0
 40
46.0
 40
46.0
 40
47.0
 40
47.0
 40
47.0
 40
48.0
 40
48.0
 40
48.0
 40
49.0
 40
49.0
 40
49.0
 40
50.0
 40
50.0
 40
50.0
 40
51.0
 40
51.0
 40
51.0
 40
52.0
 40
52.0
 40
52.0
 40
53.0
 40
53.0
 40
53.0
 40
54.0
 40
54.0
 40
54.0
 40
55.0
 40
55.0
 40
55.0
 40
56.0
 40
56.0
 40
56.0
 40
57.0
 40
57.0
 40
57.0
 40
57.0
 10
20.91690502082047
 20
-29.40823624446946
 30
0.0
 10
20.97056142966499
 20
-29.50967085912018
 30
0.0
 10
21.01368340024436
 20
-29.6147292822181
 30
0.0
 10
21.03036092093804
 20
-29.72695602995749
 30
0.0
 10
21.03514054607101
 20
-29.75913114888893
 30
0.0
 10
21.04719194344653
 20
-29.76848534746642
 30
0.0
 10
21.0816214975372
 20
-29.76332601404286
 30
0.0
 10
21.1344983579502
 20
-29.75540288814689
 30
0.0
 10
21.18793504851095
 20
-29.7502046710223
 30
0.0
 10
21.24130853244206
 20
-29.74557064877482
 30
0.0
 10
21.29811624324775
 20
-29.74063928057861
 30
0.0
 10
21.32310694065268
 20
-29.7614146132902
 30
0.0
 10
21.32494294275036
 20
-29.81320465330759
 30
0.0
 10
21.3257194813425
 20
-29.8351281988367
 30
0.0
 10
21.32480148029357
 20
-29.85710053959843
 30
0.0
 10
21.3247352638245
 20
-29.87905153244585
 30
0.0
 10
21.324678076874
 20
-29.90089273601989
 30
0.0
 10
21.32472322446647
 20
-29.92273546444499
 30
0.0
 10
21.32472322446647
 20
-29.95118613476191
 30
0.0
 10
21.33405673676963
 20
-29.94402467195005
 30
0.0
 10
21.33919754264313
 20
-29.94017289827548
 30
0.0
 10
21.34422698445488
 20
-29.93620447349791
 30
0.0
 10
21.39295929587037
 20
-29.89775078049476
 30
0.0
 10
21.42191094206292
 20
-29.90272713179605
 30
0.0
 10
21.45344804038981
 20
-29.95547249097699
 30
0.0
 10
21.47895944002898
 20
-29.99813553521873
 30
0.0
 10
21.50400130470542
 20
-30.04103493136843
 30
0.0
 10
21.53301013784865
 20
-30.0902014652072
 30
0.0
 10
21.56551038481696
 20
-30.05148702267979
 30
0.0
 10
21.59406172235547
 20
-30.01864478142751
 30
0.0
 10
21.62122251404303
 20
-29.98486551922383
 30
0.0
 10
21.6733017669874
 20
-29.92009670975618
 30
0.0
 10
21.71881054029364
 20
-29.92185562540688
 30
0.0
 10
21.76176095002117
 20
-29.99126226924952
 30
0.0
 10
21.78320003681079
 20
-30.02590764683211
 30
0.0
 10
21.80408832297121
 20
-30.06083664670432
 30
0.0
 10
21.82887736112929
 20
-30.10164242240459
 30
0.0
 10
21.86251532743025
 20
-30.06191395394941
 30
0.0
 10
21.89305315904168
 20
-30.02603420946669
 30
0.0
 10
21.9233652526904
 20
-29.99000045503112
 30
0.0
 10
21.971591911069
 20
-29.93267520581387
 30
0.0
 10
22.01761235709101
 20
-29.93547788198723
 30
0.0
 10
22.05711951042548
 20
-29.99843974299705
 30
0.0
 10
22.07863986288183
 20
-30.03273669212177
 30
0.0
 10
22.09982311331365
 20
-30.0672112863902
 30
0.0
 10
22.12379046528708
 20
-30.10584948636668
 30
0.0
 10
22.15796719285928
 20
-30.06428128515671
 30
0.0
 10
22.18801141079201
 20
-30.02740581295853
 30
0.0
 10
22.21844389802085
 20
-29.99080252666719
 30
0.0
 10
22.26707989457208
 20
-29.93230771671821
 30
0.0
 10
22.30385110379716
 20
-29.93283988972394
 30
0.0
 10
22.34905287347397
 20
-29.99230374249565
 30
0.0
 10
22.35211989992887
 20
-29.99633468616503
 30
0.0
 10
22.35599356337108
 20
-29.99985099261539
 30
0.0
 10
22.36819244288224
 20
-30.01294183861551
 30
0.0
 10
22.36949570338771
 20
-29.98647881160218
 30
0.0
 10
22.37079896389307
 20
-29.9697412843895
 30
0.0
 10
22.37103975105343
 20
-29.95299079594318
 30
0.0
 10
22.37145510890501
 20
-29.92329660962006
 30
0.0
 10
22.37109693800405
 20
-29.89359479904182
 30
0.0
 10
22.37129558741134
 20
-29.86389680059116
 30
0.0
 10
22.37175910269502
 20
-29.79458012295862
 30
0.0
 10
22.4014030119736
 20
-29.76953901952073
 30
0.0
 10
22.47562565415162
 20
-29.77718538495666
 30
0.0
 10
22.53149730487151
 20
-29.78294169755433
 30
0.0
 10
22.58719438490001
 20
-29.7900810500264
 30
0.0
 10
22.64620228838347
 20
-29.79698176331393
 30
0.0
 10
22.6584583548453
 20
-29.74166855501661
 30
0.0
 10
22.66545623169291
 20
-29.68773533689164
 30
0.0
 10
22.6828832024233
 20
-29.6367854897859
 30
0.0
 10
22.70719367610023
 20
-29.56572971956593
 30
0.0
 10
22.7373823663292
 20
-29.49616982819584
 30
0.0
 10
22.76888033674246
 20
-29.42743869335474
 30
0.0
 10
22.78433586259755
 20
-29.39372499974492
 30
0.0
 10
22.82449615110441
 20
-29.38236104752403
 30
0.0
 10
22.8569843587147
 20
-29.39557845615877
 30
0.0
 10
22.89062834469468
 20
-29.40926551890743
 30
0.0
 10
22.90563540446353
 20
-29.44623171974131
 30
0.0
 10
22.8875252001657
 20
-29.48147331407242
 30
0.0
 10
22.82359620909268
 20
-29.60586989779634
 30
0.0
 10
22.79024417754456
 20
-29.73655267984706
 30
0.0
 10
22.78403186880751
 20
-29.87370845447445
 30
0.0
 10
22.7821176108827
 20
-29.91605814183173
 30
0.0
 10
22.74929832092698
 20
-29.93886991307954
 30
0.0
 10
22.69909720783345
 20
-29.93379825858953
 30
0.0
 10
22.63896964405436
 20
-29.92772477697993
 30
0.0
 10
22.57920025117639
 20
-29.91865725039403
 30
0.0
 10
22.51389877328933
 20
-29.9101889902587
 30
0.0
 10
22.51263464069749
 20
-29.9269951357672
 30
0.0
 10
22.51082271731583
 20
-29.94057850864659
 30
0.0
 10
22.51073242213071
 20
-29.95416950578106
 30
0.0
 10
22.51016055262489
 20
-30.04067964108099
 30
0.0
 10
22.51018463134094
 20
-30.12719358850849
 30
0.0
 10
22.50955557488459
 20
-30.21370372380842
 30
0.0
 10
22.50922750237851
 20
-30.25874019866152
 30
0.0
 10
22.49050028098228
 20
-30.28636211244962
 30
0.0
 10
22.45342507796729
 20
-30.29454446301878
 30
0.0
 10
22.41207590285613
 20
-30.30367069636888
 30
0.0
 10
22.38681431989592
 20
-30.2824447701811
 30
0.0
 10
22.36725939263589
 20
-30.25277955602733
 30
0.0
 10
22.33977955796088
 20
-30.21107716792779
 30
0.0
 10
22.3124532251007
 20
-30.16928481361798
 30
0.0
 10
22.2812983763908
 20
-30.12179180377284
 30
0.0
 10
22.24317574922828
 20
-30.16682294164742
 30
0.0
 10
22.2084783194218
 20
-30.20841706532471
 30
0.0
 10
22.17306454781326
 20
-30.24949731420851
 30
0.0
 10
22.12768820744519
 20
-30.3021420332221
 30
0.0
 10
22.09104943115845
 20
-30.2995345379793
 30
0.0
 10
22.05330905361294
 20
-30.24118230160052
 30
0.0
 10
22.04110415442273
 20
-30.22230464598235
 30
0.0
 10
22.02993464002192
 20
-30.20286355791258
 30
0.0
 10
22.01832267921403
 20
-30.18366568358045
 30
0.0
 10
22.00746317828223
 20
-30.16571285010541
 30
0.0
 10
21.99664581510345
 20
-30.14774095599273
 30
0.0
 10
21.98164477501367
 20
-30.12287444799643
 30
0.0
 10
21.9601244225573
 20
-30.14867111511444
 30
0.0
 10
21.94161992928439
 20
-30.17042921430794
 30
0.0
 10
21.92363312840621
 20
-30.19254107893794
 30
0.0
 10
21.90679006653967
 20
-30.21324779335365
 30
0.0
 10
21.8915813475241
 20
-30.23514541641546
 30
0.0
 10
21.87372697958413
 20
-30.25507826893896
 30
0.0
 10
21.83596854300157
 20
-30.29723963719526
 30
0.0
 10
21.79579922497616
 20
-30.29469999782282
 30
0.0
 10
21.7657489873644
 20
-30.24793967889233
 30
0.0
 10
21.73813070007218
 20
-30.20497090202123
 30
0.0
 10
21.7124537592604
 20
-30.16096370160603
 30
0.0
 10
21.68285198773477
 20
-30.11237432387805
 30
0.0
 10
21.64844952219965
 20
-30.1539310887053
 30
0.0
 10
21.61742108674907
 20
-30.19027591274888
 30
0.0
 10
21.58774707907532
 20
-30.22752116131927
 30
0.0
 10
21.54143467862145
 20
-30.285640095492
 30
0.0
 10
21.49464672352577
 20
-30.28314848892647
 30
0.0
 10
21.45592814814144
 20
-30.2195172183192
 30
0.0
 10
21.43534987545008
 20
-30.18568916088298
 30
0.0
 10
21.41537056081999
 20
-30.15155537081725
 30
0.0
 10
21.39486753411612
 20
-30.11768766725448
 30
0.0
 10
21.39372981478351
 20
-30.11581057564993
 30
0.0
 10
21.39027752887189
 20
-30.11510838175549
 30
0.0
 10
21.38229844434583
 20
-30.11091732872907
 30
0.0
 10
21.35444839941177
 20
-30.13909123858608
 30
0.0
 10
21.3246238997629
 20
-30.1674832021387
 30
0.0
 10
21.29712299621133
 20
-30.19764932985231
 30
0.0
 10
21.27457929832349
 20
-30.22237326427833
 30
0.0
 10
21.24710247348808
 20
-30.23275521244273
 30
0.0
 10
21.21470757090239
 20
-30.22234352968336
 30
0.0
 10
21.18244510125497
 20
-30.21197759245466
 30
0.0
 10
21.17368345845764
 20
-30.1859567722368
 30
0.0
 10
21.17396337353163
 20
-30.15653019726763
 30
0.0
 10
21.17468874485209
 20
-30.08035245247404
 30
0.0
 10
21.17497768944455
 20
-30.00417242040392
 30
0.0
 10
21.17541712601216
 20
-29.92799391318481
 30
0.0
 10
21.17549538183928
 20
-29.91407202337915
 30
0.0
 10
21.17542916537018
 20
-29.90015165842454
 30
0.0
 10
21.17542916537018
 20
-29.87962182672706
 30
0.0
 10
21.12809943916389
 20
-29.88417655672151
 30
0.0
 10
21.08541088547316
 20
-29.88813049541439
 30
0.0
 10
21.04276145969607
 20
-29.89246259716004
 30
0.0
 10
21.02453387165757
 20
-29.8943137662974
 30
0.0
 10
21.00648085431029
 20
-29.89802906580576
 30
0.0
 10
20.98822316787669
 20
-29.89902555594686
 30
0.0
 10
20.93879558353577
 20
-29.90172377982536
 30
0.0
 10
20.9084443619736
 20
-29.88023939138982
 30
0.0
 10
20.90556996524699
 20
-29.83560623963123
 30
0.0
 10
20.8971424146347
 20
-29.70487618719893
 30
0.0
 10
20.85949835195336
 20
-29.58186721790253
 30
0.0
 10
20.79614424022571
 20
-29.46479601847505
 30
0.0
 10
20.77686320836066
 20
-29.42916787441055
 30
0.0
 10
20.79058807650063
 20
-29.39011339010582
 30
0.0
 10
20.82484305989993
 20
-29.37459498128305
 30
0.0
 10
20.85763827113962
 20
-29.35974064507912
 30
0.0
 10
20.89831324220184
 20
-29.37309224060358
 30
0.0
 10
20.91690502082047
 20
-29.40823624446946
 30
0.0
  0
SPLINE
  5
47
330
1F
100
AcDbEntity
  8
_U+0421_U+043B_U+043E_U+0439 1
 62
     7
420
 16777215
370
    35
100
AcDbSpline
210
0.0
220
0.0
230
1.0
 70
    11
 71
     3
 72
    50
 73
    46
 74
     0
 42
0.0000000001
 43
0.0000000001
 12
1.0
 22
0.0
 32
0.0
 13
1.0
 23
0.0
 33
0.0
 40
0.0
 40
0.0
 40
0.0
 40
0.0
 40
1.0
 40
1.0
 40
1.0
 40
2.0
 40
2.0
 40
2.0
 40
3.0
 40
3.0
 40
3.0
 40
4.0
 40
4.0
 40
4.0
 40
5.0
 40
5.0
 40
5.0
 40
6.0
 40
6.0
 40
6.0
 40
7.0
 40
7.0
 40
7.0
 40
8.0
 40
8.0
 40
8.0
 40
9.0
 40
9.0
 40
9.0
 40
10.0
 40
10.0
 40
10.0
 40
11.0
 40
11.0
 40
11.0
 40
12.0
 40
12.0
 40
12.0
 40
13.0
 40
13.0
 40
13.0
 40
14.0
 40
14.0
 40
14.0
 40
15.0
 40
15.0
 40
15.0
 40
15.0
 10
21.85309452978153
 20
-27.8987320883148
 30
0.0
 10
22.36289211551512
 20
-27.894227678404
 30
0.0
 10
22.8055883393379
 20
-28.17850870362253
 30
0.0
 10
22.97432897147203
 20
-28.61907857163232
 30
0.0
 10
22.9869010710818
 20
-28.65190861407652
 30
0.0
 10
22.99842273670454
 20
-28.68515722812549
 30
0.0
 10
23.00840938418009
 20
-28.71871386208035
 30
0.0
 10
23.02134567436994
 20
-28.76218202766022
 30
0.0
 10
22.99965075122236
 20
-28.80130589268634
 30
0.0
 10
22.96069740835666
 20
-28.80832325707689
 30
0.0
 10
22.92029934252883
 20
-28.81559984614066
 30
0.0
 10
22.89199481182967
 20
-28.79310981845795
 30
0.0
 10
22.87928425960273
 20
-28.74789798573751
 30
0.0
 10
22.81468106448066
 20
-28.51807167769251
 30
0.0
 10
22.6812729382885
 20
-28.32819722877702
 30
0.0
 10
22.46744491037872
 20
-28.19357880624564
 30
0.0
 10
22.19482568742993
 20
-28.02194996220085
 30
0.0
 10
21.89303810984423
 20
-27.97245711024394
 30
0.0
 10
21.57247816326965
 20
-28.05190337319722
 30
0.0
 10
21.21823811264105
 20
-28.13969667062987
 30
0.0
 10
20.9759370030198
 20
-28.3435982240713
 30
0.0
 10
20.84943043881127
 20
-28.66004979366822
 30
0.0
 10
20.83783954687982
 20
-28.68904712307557
 30
0.0
 10
20.83028183988439
 20
-28.71938784623085
 30
0.0
 10
20.82070754042087
 20
-28.74906678404378
 30
0.0
 10
20.80860497577386
 20
-28.78659031792517
 30
0.0
 10
20.7806255077411
 20
-28.80522323495473
 30
0.0
 10
20.74353224568911
 20
-28.80064715704604
 30
0.0
 10
20.72604206832913
 20
-28.79848873042831
 30
0.0
 10
20.71009593863492
 20
-28.78922602291194
 30
0.0
 10
20.70010327148035
 20
-28.77571736773251
 30
0.0
 10
20.70010327148035
 20
-28.77571736773251
 30
0.0
 10
20.69679846770451
 20
-28.70989412378506
 30
0.0
 10
20.69679846770451
 20
-28.70989412378506
 30
0.0
 10
20.71444515671879
 20
-28.64765885428589
 30
0.0
 10
20.73439437295383
 20
-28.58522992870727
 30
0.0
 10
20.7634363143315
 20
-28.52715445278861
 30
0.0
 10
20.90980480942959
 20
-28.23450657002751
 30
0.0
 10
21.15728585283778
 20
-28.04287930486541
 30
0.0
 10
21.49057742051589
 20
-27.94853296017759
 30
0.0
 10
21.60645022175554
 20
-27.91573341475383
 30
0.0
 10
21.73053988484215
 20
-27.90721483453482
 30
0.0
 10
21.85087326822731
 20
-27.88760601285293
 30
0.0
 10
21.85161368874535
 20
-27.89131521295722
 30
0.0
 10
21.85235410926346
 20
-27.89502365063602
 30
0.0
 10
21.85309452978153
 20
-27.8987320883148
 30
0.0
  0
ENDSEC
  0
SECTION
  2
OBJECTS
  0
DICTIONARY
  5
C
330
0
100
AcDbDictionary
281
     1
  3
ACAD_GROUP
350
D
  3
ACAD_LAYOUT
350
1A
  3
ACAD_MATERIAL
350
3B
  3
ACAD_MLEADERSTYLE
350
49
  3
ACAD_MLINESTYLE
350
17
  3
ACAD_PLOTSETTINGS
350
19
  3
ACAD_PLOTSTYLENAME
350
E
  3
ACAD_TABLESTYLE
350
48
  3
ACAD_VISUALSTYLE
350
2A
  0
SUN
  5
3F
330
29
100
AcDbSun
 90
        1
290
     0
 63
     7
421
 16777215
 40
1.0
291
     1
 91
  2455826
 92
 54000000
292
     0
 70
     2
 71
   256
280
     1
  0
DICTIONARY
  5
D
102
{ACAD_REACTORS
330
C
102
}
330
C
100
AcDbDictionary
281
     1
  0
DICTIONARY
  5
1A
102
{ACAD_REACTORS
330
C
102
}
330
C
100
AcDbDictionary
281
     1
  3
Layout1
350
1E
  3
Layout2
350
26
  3
Model
350
22
  0
DICTIONARY
  5
3B
102
{ACAD_REACTORS
330
C
102
}
330
C
100
AcDbDictionary
281
     1
  3
ByBlock
350
3D
  3
ByLayer
350
3C
  3
Global
350
3E
  0
DICTIONARY
  5
49
102
{ACAD_REACTORS
330
C
102
}
330
C
100
AcDbDictionary
281
     1
  0
DICTIONARY
  5
17
102
{ACAD_REACTORS
330
C
102
}
330
C
100
AcDbDictionary
281
     1
  3
Standard
350
18
  0
DICTIONARY
  5
19
102
{ACAD_REACTORS
330
C
102
}
330
C
100
AcDbDictionary
281
     1
  0
ACDBDICTIONARYWDFLT
  5
E
102
{ACAD_REACTORS
330
C
102
}
330
C
100
AcDbDictionary
281
     1
  3
Normal
350
F
100
AcDbDictionaryWithDefault
340
F
  0
DICTIONARY
  5
48
102
{ACAD_REACTORS
330
C
102
}
330
C
100
AcDbDictionary
281
     1
  0
DICTIONARY
  5
2A
102
{ACAD_REACTORS
330
C
102
}
330
C
100
AcDbDictionary
281
     1
  3
2dWireframe
350
2F
  3
3D Hidden
350
31
  3
3dWireframe
350
30
  3
Basic
350
32
  3
Brighten
350
36
  3
ColorChange
350
3A
  3
Conceptual
350
34
  3
Dim
350
35
  3
Facepattern
350
39
  3
Flat
350
2B
  3
FlatWithEdges
350
2C
  3
Gouraud
350
2D
  3
GouraudWithEdges
350
2E
  3
Linepattern
350
38
  3
Realistic
350
33
  3
Thicken
350
37
  0
LAYOUT
  5
1E
102
{ACAD_REACTORS
330
1A
102
}
330
1A
100
AcDbPlotSettings
  1

  2
none_device
  4

  6

 40
0.0
 41
0.0
 42
0.0
 43
0.0
 44
0.0
 45
0.0
 46
0.0
 47
0.0
 48
0.0
 49
0.0
140
0.0
141
0.0
142
1.0
143
1.0
 70
   688
 72
     0
 73
     0
 74
     5
  7

 75
    16
 76
     0
 77
     2
 78
   300
147
1.0
148
0.0
149
0.0
100
AcDbLayout
  1
Layout1
 70
     1
 71
     1
 10
0.0
 20
0.0
 11
12.0
 21
9.0
 12
0.0
 22
0.0
 32
0.0
 14
1.000000000000000E+20
 24
1.000000000000000E+20
 34
1.000000000000000E+20
 15
-1.000000000000000E+20
 25
-1.000000000000000E+20
 35
-1.000000000000000E+20
146
0.0
 13
0.0
 23
0.0
 33
0.0
 16
1.0
 26
0.0
 36
0.0
 17
0.0
 27
1.0
 37
0.0
 76
     0
330
1B
  0
LAYOUT
  5
26
102
{ACAD_REACTORS
330
1A
102
}
330
1A
100
AcDbPlotSettings
  1

  2
none_device
  4

  6

 40
0.0
 41
0.0
 42
0.0
 43
0.0
 44
0.0
 45
0.0
 46
0.0
 47
0.0
 48
0.0
 49
0.0
140
0.0
141
0.0
142
1.0
143
1.0
 70
   688
 72
     0
 73
     0
 74
     5
  7

 75
    16
 76
     0
 77
     2
 78
   300
147
1.0
148
0.0
149
0.0
100
AcDbLayout
  1
Layout2
 70
     1
 71
     2
 10
0.0
 20
0.0
 11
0.0
 21
0.0
 12
0.0
 22
0.0
 32
0.0
 14
0.0
 24
0.0
 34
0.0
 15
0.0
 25
0.0
 35
0.0
146
0.0
 13
0.0
 23
0.0
 33
0.0
 16
1.0
 26
0.0
 36
0.0
 17
0.0
 27
1.0
 37
0.0
 76
     0
330
23
  0
LAYOUT
  5
22
102
{ACAD_REACTORS
330
1A
102
}
330
1A
100
AcDbPlotSettings
  1

  2
none_device
  4

  6

 40
0.0
 41
0.0
 42
0.0
 43
0.0
 44
0.0
 45
0.0
 46
0.0
 47
0.0
 48
0.0
 49
0.0
140
0.0
141
0.0
142
1.0
143
1.0
 70
  1712
 72
     0
 73
     0
 74
     0
  7

 75
     0
 76
     0
 77
     2
 78
   300
147
1.0
148
0.0
149
0.0
100
AcDbLayout
  1
Model
 70
     1
 71
     0
 10
0.0
 20
0.0
 11
12.0
 21
9.0
 12
0.0
 22
0.0
 32
0.0
 14
1.000000000000000E+20
 24
1.000000000000000E+20
 34
1.000000000000000E+20
 15
-1.000000000000000E+20
 25
-1.000000000000000E+20
 35
-1.000000000000000E+20
146
0.0
 13
0.0
 23
0.0
 33
0.0
 16
1.0
 26
0.0
 36
0.0
 17
0.0
 27
1.0
 37
0.0
 76
     0
330
1F
331
29
  0
MATERIAL
  5
3D
102
{ACAD_REACTORS
330
3B
102
}
330
3B
100
AcDbMaterial
  1
ByBlock
 72
     1
 94
      127
  0
MATERIAL
  5
3C
102
{ACAD_REACTORS
330
3B
102
}
330
3B
100
AcDbMaterial
  1
ByLayer
 72
     1
 94
      127
  0
MATERIAL
  5
3E
102
{ACAD_REACTORS
330
3B
102
}
330
3B
100
AcDbMaterial
  1
Global
 72
     1
 94
      127
  0
MLINESTYLE
  5
18
102
{ACAD_REACTORS
330
17
102
}
330
17
100
AcDbMlineStyle
  2
Standard
 70
     0
  3

 62
   256
 51
90.0
 52
90.0
 71
     2
 49
0.5
 62
   256
  6
BYLAYER
 49
-0.5
 62
   256
  6
BYLAYER
  0
ACDBPLACEHOLDER
  5
F
102
{ACAD_REACTORS
330
E
102
}
330
E
  0
VISUALSTYLE
  5
2F
102
{ACAD_REACTORS
330
2A
102
}
330
2A
100
AcDbVisualStyle
  2
2dWireframe
 70
     4
177
     2
291
     0
 71
     0
176
     1
 72
     2
176
     1
 73
     0
176
     1
 90
        0
176
     1
 40
-0.6
176
     1
 41
-30.0
176
     1
 62
     5
 63
     7
421
 16777215
176
     1
 74
     1
176
     1
 91
        4
176
     1
 64
     7
176
     1
 65
   257
176
     1
 75
     1
176
     1
175
     1
176
     1
 42
1.0
176
     1
 92
        0
176
     1
 66
   257
176
     1
 43
1.0
176
     1
 76
     1
176
     1
 77
     6
176
     1
 78
     2
176
     1
 67
     7
176
     1
 79
     5
176
     1
170
     0
176
     1
171
     0
176
     1
290
     0
176
     1
 93
        1
176
     1
 44
0.0
176
     1
173
     0
176
     1
  0
VISUALSTYLE
  5
31
102
{ACAD_REACTORS
330
2A
102
}
330
2A
100
AcDbVisualStyle
  2
3D Hidden
 70
     6
177
     2
291
     0
 71
     1
176
     1
 72
     2
176
     1
 73
     2
176
     1
 90
        0
176
     1
 40
-0.6
176
     1
 41
-30.0
176
     1
 62
     5
 63
     7
421
 16777215
176
     1
 74
     2
176
     1
 91
        2
176
     1
 64
     7
176
     1
 65
   257
176
     1
 75
     2
176
     1
175
     1
176
     1
 42
40.0
176
     1
 92
        0
176
     1
 66
   257
176
     1
 43
1.0
176
     1
 76
     1
176
     1
 77
     6
176
     1
 78
     2
176
     1
 67
     7
176
     1
 79
     3
176
     1
170
     0
176
     1
171
     0
176
     1
290
     0
176
     1
 93
        1
176
     1
 44
0.0
176
     1
173
     0
176
     1
  0
VISUALSTYLE
  5
30
102
{ACAD_REACTORS
330
2A
102
}
330
2A
100
AcDbVisualStyle
  2
3dWireframe
 70
     5
177
     2
291
     0
 71
     0
176
     1
 72
     2
176
     1
 73
     0
176
     1
 90
        0
176
     1
 40
-0.6
176
     1
 41
-30.0
176
     1
 62
     5
 63
     7
421
 16777215
176
     1
 74
     1
176
     1
 91
        4
176
     1
 64
     7
176
     1
 65
   257
176
     1
 75
     1
176
     1
175
     1
176
     1
 42
1.0
176
     1
 92
        0
176
     1
 66
   257
176
     1
 43
1.0
176
     1
 76
     1
176
     1
 77
     6
176
     1
 78
     2
176
     1
 67
     7
176
     1
 79
     5
176
     1
170
     0
176
     1
171
     0
176
     1
290
     0
176
     1
 93
        1
176
     1
 44
0.0
176
     1
173
     0
176
     1
  0
VISUALSTYLE
  5
32
102
{ACAD_REACTORS
330
2A
102
}
330
2A
100
AcDbVisualStyle
  2
Basic
 70
     7
177
     2
291
     1
 71
     1
176
     1
 72
     0
176
     1
 73
     1
176
     1
 90
        0
176
     1
 40
-0.6
176
     1
 41
-30.0
176
     1
 62
     5
 63
     7
421
 16777215
176
     1
 74
     0
176
     1
 91
        4
176
     1
 64
     7
176
     1
 65
   257
176
     1
 75
     1
176
     1
175
     1
176
     1
 42
1.0
176
     1
 92
        8
176
     1
 66
     7
176
     1
 43
1.0
176
     1
 76
     1
176
     1
 77
     6
176
     1
 78
     2
176
     1
 67
     7
176
     1
 79
     5
176
     1
170
     0
176
     1
171
     0
176
     1
290
     0
176
     1
 93
        1
176
     1
 44
0.0
176
     1
173
     0
176
     1
  0
VISUALSTYLE
  5
36
102
{ACAD_REACTORS
330
2A
102
}
330
2A
100
AcDbVisualStyle
  2
Brighten
 70
    12
177
     2
291
     1
 71
     2
176
     1
 72
     2
176
     1
 73
     0
176
     1
 90
        0
176
     1
 40
-0.6
176
     1
 41
-30.0
176
     1
 62
     5
 63
     7
421
 16777215
176
     1
 74
     1
176
     1
 91
        4
176
     1
 64
     7
176
     1
 65
   257
176
     1
 75
     1
176
     1
175
     1
176
     1
 42
1.0
176
     1
 92
        8
176
     1
 66
     7
176
     1
 43
1.0
176
     1
 76
     1
176
     1
 77
     6
176
     1
 78
     2
176
     1
 67
     7
176
     1
 79
     5
176
     1
170
     0
176
     1
171
     0
176
     1
290
     0
176
     1
 93
        1
176
     1
 44
50.0
176
     1
173
     0
176
     1
  0
VISUALSTYLE
  5
3A
102
{ACAD_REACTORS
330
2A
102
}
330
2A
100
AcDbVisualStyle
  2
ColorChange
 70
    16
177
     2
291
     1
 71
     2
176
     1
 72
     2
176
     1
 73
     3
176
     1
 90
        0
176
     1
 40
-0.6
176
     1
 41
-30.0
176
     1
 62
     5
 63
     8
421
  8421504
176
     1
 74
     1
176
     1
 91
        4
176
     1
 64
     7
176
     1
 65
   257
176
     1
 75
     1
176
     1
175
     1
176
     1
 42
1.0
176
     1
 92
        8
176
     1
 66
     8
424
  8421504
176
     1
 43
1.0
176
     1
 76
     1
176
     1
 77
     6
176
     1
 78
     2
176
     1
 67
     7
176
     1
 79
     5
176
     1
170
     0
176
     1
171
     0
176
     1
290
     0
176
     1
 93
        1
176
     1
 44
0.0
176
     1
173
     0
176
     1
  0
VISUALSTYLE
  5
34
102
{ACAD_REACTORS
330
2A
102
}
330
2A
100
AcDbVisualStyle
  2
Conceptual
 70
     9
177
     2
291
     0
 71
     3
176
     1
 72
     2
176
     1
 73
     0
176
     1
 90
        0
176
     1
 40
-0.6
176
     1
 41
-30.0
176
     1
 62
     5
 63
     7
421
 16777215
176
     1
 74
     2
176
     1
 91
        2
176
     1
 64
     7
176
     1
 65
   257
176
     1
 75
     1
176
     1
175
     1
176
     1
 42
40.0
176
     1
 92
        8
176
     1
 66
     7
176
     1
 43
1.0
176
     1
 76
     1
176
     1
 77
     6
176
     1
 78
     2
176
     1
 67
     7
176
     1
 79
     3
176
     1
170
     0
176
     1
171
     0
176
     1
290
     0
176
     1
 93
        1
176
     1
 44
0.0
176
     1
173
     0
176
     1
  0
VISUALSTYLE
  5
35
102
{ACAD_REACTORS
330
2A
102
}
330
2A
100
AcDbVisualStyle
  2
Dim
 70
    11
177
     2
291
     1
 71
     2
176
     1
 72
     2
176
     1
 73
     0
176
     1
 90
        0
176
     1
 40
-0.6
176
     1
 41
-30.0
176
     1
 62
     5
 63
     7
421
 16777215
176
     1
 74
     1
176
     1
 91
        4
176
     1
 64
     7
176
     1
 65
   257
176
     1
 75
     1
176
     1
175
     1
176
     1
 42
1.0
176
     1
 92
        8
176
     1
 66
     7
176
     1
 43
1.0
176
     1
 76
     1
176
     1
 77
     6
176
     1
 78
     2
176
     1
 67
     7
176
     1
 79
     5
176
     1
170
     0
176
     1
171
     0
176
     1
290
     0
176
     1
 93
        1
176
     1
 44
-50.0
176
     1
173
     0
176
     1
  0
VISUALSTYLE
  5
39
102
{ACAD_REACTORS
330
2A
102
}
330
2A
100
AcDbVisualStyle
  2
Facepattern
 70
    15
177
     2
291
     1
 71
     2
176
     1
 72
     2
176
     1
 73
     0
176
     1
 90
        0
176
     1
 40
-0.6
176
     1
 41
-30.0
176
     1
 62
     5
 63
     7
421
 16777215
176
     1
 74
     1
176
     1
 91
        4
176
     1
 64
     7
176
     1
 65
   257
176
     1
 75
     1
176
     1
175
     1
176
     1
 42
1.0
176
     1
 92
        8
176
     1
 66
     7
176
     1
 43
1.0
176
     1
 76
     1
176
     1
 77
     6
176
     1
 78
     2
176
     1
 67
     7
176
     1
 79
     5
176
     1
170
     0
176
     1
171
     0
176
     1
290
     0
176
     1
 93
        1
176
     1
 44
0.0
176
     1
173
     0
176
     1
  0
VISUALSTYLE
  5
2B
102
{ACAD_REACTORS
330
2A
102
}
330
2A
100
AcDbVisualStyle
  2
Flat
 70
     0
177
     2
291
     1
 71
     2
176
     1
 72
     1
176
     1
 73
     1
176
     1
 90
        2
176
     1
 40
-0.6
176
     1
 41
30.0
176
     1
 62
     5
 63
     7
421
 16777215
176
     1
 74
     0
176
     1
 91
        4
176
     1
 64
     7
176
     1
 65
   257
176
     1
 75
     1
176
     1
175
     1
176
     1
 42
1.0
176
     1
 92
        8
176
     1
 66
     7
176
     1
 43
1.0
176
     1
 76
     1
176
     1
 77
     6
176
     1
 78
     2
176
     1
 67
     7
176
     1
 79
     5
176
     1
170
     0
176
     1
171
     0
176
     1
290
     0
176
     1
 93
       13
176
     1
 44
0.0
176
     1
173
     0
176
     1
  0
VISUALSTYLE
  5
2C
102
{ACAD_REACTORS
330
2A
102
}
330
2A
100
AcDbVisualStyle
  2
FlatWithEdges
 70
     1
177
     2
291
     1
 71
     2
176
     1
 72
     1
176
     1
 73
     1
176
     1
 90
        2
176
     1
 40
-0.6
176
     1
 41
30.0
176
     1
 62
     5
 63
     7
421
 16777215
176
     1
 74
     1
176
     1
 91
        4
176
     1
 64
     7
176
     1
 65
   257
176
     1
 75
     1
176
     1
175
     1
176
     1
 42
1.0
176
     1
 92
        0
176
     1
 66
   257
176
     1
 43
1.0
176
     1
 76
     1
176
     1
 77
     6
176
     1
 78
     2
176
     1
 67
     7
176
     1
 79
     5
176
     1
170
     0
176
     1
171
     0
176
     1
290
     0
176
     1
 93
       13
176
     1
 44
0.0
176
     1
173
     0
176
     1
  0
VISUALSTYLE
  5
2D
102
{ACAD_REACTORS
330
2A
102
}
330
2A
100
AcDbVisualStyle
  2
Gouraud
 70
     2
177
     2
291
     1
 71
     2
176
     1
 72
     2
176
     1
 73
     1
176
     1
 90
        2
176
     1
 40
-0.6
176
     1
 41
30.0
176
     1
 62
     5
 63
     7
421
 16777215
176
     1
 74
     0
176
     1
 91
        4
176
     1
 64
     7
176
     1
 65
   257
176
     1
 75
     1
176
     1
175
     1
176
     1
 42
1.0
176
     1
 92
        0
176
     1
 66
     7
176
     1
 43
1.0
176
     1
 76
     1
176
     1
 77
     6
176
     1
 78
     2
176
     1
 67
     7
176
     1
 79
     5
176
     1
170
     0
176
     1
171
     0
176
     1
290
     0
176
     1
 93
       13
176
     1
 44
0.0
176
     1
173
     0
176
     1
  0
VISUALSTYLE
  5
2E
102
{ACAD_REACTORS
330
2A
102
}
330
2A
100
AcDbVisualStyle
  2
GouraudWithEdges
 70
     3
177
     2
291
     1
 71
     2
176
     1
 72
     2
176
     1
 73
     1
176
     1
 90
        2
176
     1
 40
-0.6
176
     1
 41
30.0
176
     1
 62
     5
 63
     7
421
 16777215
176
     1
 74
     1
176
     1
 91
        4
176
     1
 64
     7
176
     1
 65
   257
176
     1
 75
     1
176
     1
175
     1
176
     1
 42
1.0
176
     1
 92
        0
176
     1
 66
   257
176
     1
 43
1.0
176
     1
 76
     1
176
     1
 77
     6
176
     1
 78
     2
176
     1
 67
     7
176
     1
 79
     5
176
     1
170
     0
176
     1
171
     0
176
     1
290
     0
176
     1
 93
       13
176
     1
 44
0.0
176
     1
173
     0
176
     1
  0
VISUALSTYLE
  5
38
102
{ACAD_REACTORS
330
2A
102
}
330
2A
100
AcDbVisualStyle
  2
Linepattern
 70
    14
177
     2
291
     1
 71
     2
176
     1
 72
     2
176
     1
 73
     0
176
     1
 90
        0
176
     1
 40
-0.6
176
     1
 41
-30.0
176
     1
 62
     5
 63
     7
421
 16777215
176
     1
 74
     1
176
     1
 91
        4
176
     1
 64
     7
176
     1
 65
   257
176
     1
 75
     7
176
     1
175
     7
176
     1
 42
1.0
176
     1
 92
        8
176
     1
 66
     7
176
     1
 43
1.0
176
     1
 76
     1
176
     1
 77
     6
176
     1
 78
     2
176
     1
 67
     7
176
     1
 79
     5
176
     1
170
     0
176
     1
171
     0
176
     1
290
     0
176
     1
 93
        1
176
     1
 44
0.0
176
     1
173
     0
176
     1
  0
VISUALSTYLE
  5
33
102
{ACAD_REACTORS
330
2A
102
}
330
2A
100
AcDbVisualStyle
  2
Realistic
 70
     8
177
     2
291
     0
 71
     2
176
     1
 72
     2
176
     1
 73
     0
176
     1
 90
        0
176
     1
 40
-0.6
176
     1
 41
-30.0
176
     1
 62
     5
 63
     7
421
 16777215
176
     1
 74
     1
176
     1
 91
        0
176
     1
 64
     7
176
     1
 65
   257
176
     1
 75
     1
176
     1
175
     1
176
     1
 42
1.0
176
     1
 92
        8
176
     1
 66
     8
424
  7895160
176
     1
 43
1.0
176
     1
 76
     1
176
     1
 77
     6
176
     1
 78
     2
176
     1
 67
     7
176
     1
 79
     5
176
     1
170
     0
176
     1
171
     0
176
     1
290
     0
176
     1
 93
       13
176
     1
 44
0.0
176
     1
173
     0
176
     1
  0
VISUALSTYLE
  5
37
102
{ACAD_REACTORS
330
2A
102
}
330
2A
100
AcDbVisualStyle
  2
Thicken
 70
    13
177
     2
291
     1
 71
     2
176
     1
 72
     2
176
     1
 73
     0
176
     1
 90
        0
176
     1
 40
-0.6
176
     1
 41
-30.0
176
     1
 62
     5
 63
     7
421
 16777215
176
     1
 74
     1
176
     1
 91
        4
176
     1
 64
     7
176
     1
 65
   257
176
     1
 75
     1
176
     1
175
     1
176
     1
 42
1.0
176
     1
 92
       12
176
     1
 66
     7
176
     1
 43
1.0
176
     1
 76
     1
176
     1
 77
     6
176
     1
 78
     2
176
     1
 67
     7
176
     1
 79
     5
176
     1
170
     0
176
     1
171
     0
176
     1
290
     0
176
     1
 93
        1
176
     1
 44
0.0
176
     1
173
     0
176
     1
  0
ENDSEC
  0
EOF
