<?xml version="1.0" encoding="utf-8"?>
<!-- Generator: Adobe Illustrator 25.4.1, SVG Export Plug-In . SVG Version: 6.00 Build 0)  -->
<svg version="1.1" id="Layer_1" xmlns="http://www.w3.org/2000/svg" xmlns:xlink="http://www.w3.org/1999/xlink" x="0px" y="0px"
	 viewBox="0 0 2419.1 799.1" style="enable-background:new 0 0 2419.1 799.1;" xml:space="preserve">
<style type="text/css">
	
		.st0{fill-rule:evenodd;clip-rule:evenodd;fill:none;stroke:#FF0000;stroke-width:5.6693;stroke-linecap:round;stroke-linejoin:round;stroke-miterlimit:2.6131;}
	.st1{fill-rule:evenodd;clip-rule:evenodd;fill:#ED3237;stroke:#373435;stroke-width:0.216;stroke-miterlimit:2.6131;}
	.st2{fill-rule:evenodd;clip-rule:evenodd;fill:#FEFEFE;stroke:#FEFEFE;stroke-width:0.216;stroke-miterlimit:2.6131;}
	.st3{fill-rule:evenodd;clip-rule:evenodd;fill:none;stroke:#3374A9;stroke-width:0.216;stroke-miterlimit:2.6131;}
	.st4{fill-rule:evenodd;clip-rule:evenodd;fill:#3374A9;stroke:#3374A9;stroke-width:0.216;stroke-miterlimit:2.6131;}
	.st5{fill-rule:evenodd;clip-rule:evenodd;}
	.st6{fill-rule:evenodd;clip-rule:evenodd;fill:#373435;}
	.st7{fill-rule:evenodd;clip-rule:evenodd;fill:#FFFF00;}
	
		.st8{fill-rule:evenodd;clip-rule:evenodd;fill:none;stroke:#000000;stroke-width:0.2835;stroke-linecap:round;stroke-linejoin:round;stroke-miterlimit:2.6131;}
	
		.st9{fill-rule:evenodd;clip-rule:evenodd;fill:none;stroke:#FFFF00;stroke-width:0.2835;stroke-linecap:round;stroke-linejoin:round;stroke-miterlimit:2.6131;}
</style>
<g>
	<path class="st0" d="M48.4,2.8h1108.1c25.1,0,45.6,20.5,45.6,45.6v702.3c0,25.1-20.5,45.6-45.6,45.6H48.4
		c-25.1,0-45.6-20.5-45.6-45.6V48.4C2.8,23.3,23.3,2.8,48.4,2.8z"/>
	<g>
		<rect x="1046.8" y="650.7" class="st1" width="85" height="85"/>
		<path class="st2" d="M1073.1,686.1l2.3-0.2c0.1,0.8,0.4,1.4,0.8,1.7c0.4,0.4,1,0.5,1.7,0.5c0.8,0,1.3-0.2,1.7-0.5
			c0.4-0.3,0.6-0.7,0.6-1.1c0-0.3-0.1-0.5-0.2-0.7c-0.2-0.2-0.4-0.4-0.9-0.5c-0.3-0.1-0.9-0.3-1.9-0.5c-1.3-0.3-2.2-0.7-2.7-1.2
			c-0.7-0.7-1.1-1.5-1.1-2.4c0-0.6,0.2-1.2,0.5-1.7c0.3-0.5,0.8-0.9,1.5-1.2c0.6-0.3,1.4-0.4,2.3-0.4c1.5,0,2.6,0.3,3.3,1
			c0.7,0.7,1.1,1.5,1.2,2.6l-2.4,0.1c-0.1-0.6-0.3-1.1-0.7-1.3c-0.3-0.3-0.8-0.4-1.5-0.4c-0.7,0-1.2,0.1-1.6,0.4
			c-0.3,0.2-0.4,0.4-0.4,0.7c0,0.3,0.1,0.5,0.4,0.7c0.3,0.3,1,0.5,2.2,0.8c1.2,0.3,2,0.6,2.6,0.9c0.6,0.3,1,0.7,1.3,1.2
			c0.3,0.5,0.5,1.1,0.5,1.9c0,0.7-0.2,1.3-0.6,1.9c-0.4,0.6-0.9,1-1.6,1.3c-0.7,0.3-1.5,0.4-2.6,0.4c-1.5,0-2.6-0.3-3.4-1
			C1073.8,688.4,1073.3,687.4,1073.1,686.1L1073.1,686.1z M1084.8,680.1V678h2.3v2.1H1084.8L1084.8,680.1z M1084.8,689.9v-8.6h2.3
			v8.6H1084.8L1084.8,689.9z M1088.4,689.9v-1.8l3.2-3.7c0.5-0.6,0.9-1,1.2-1.3c-0.3,0-0.6,0-1,0l-3,0v-1.9h7.1v1.6l-3.3,3.8
			l-1.2,1.3c0.6,0,1,0,1.2,0h3.5v2H1088.4L1088.4,689.9z M1102.6,687.2l2.3,0.4c-0.3,0.8-0.8,1.5-1.4,1.9c-0.6,0.4-1.4,0.7-2.4,0.7
			c-1.5,0-2.6-0.5-3.3-1.5c-0.6-0.8-0.8-1.8-0.8-3c0-1.4,0.4-2.5,1.1-3.3c0.7-0.8,1.7-1.2,2.8-1.2c1.3,0,2.3,0.4,3,1.3
			c0.7,0.8,1.1,2.1,1.1,3.9h-5.7c0,0.7,0.2,1.2,0.5,1.6c0.3,0.4,0.8,0.6,1.3,0.6c0.4,0,0.7-0.1,0.9-0.3
			C1102.3,687.9,1102.5,687.6,1102.6,687.2L1102.6,687.2z M1102.7,684.9c0-0.7-0.2-1.2-0.5-1.5c-0.3-0.3-0.7-0.5-1.2-0.5
			c-0.5,0-0.9,0.2-1.2,0.5c-0.3,0.4-0.5,0.9-0.5,1.5H1102.7L1102.7,684.9z M1055.2,708.4h-2.3v-8.6h2.1v1.2c0.4-0.6,0.7-1,1-1.1
			c0.3-0.2,0.6-0.3,1-0.3c0.5,0,1,0.1,1.5,0.4l-0.7,2c-0.4-0.2-0.7-0.4-1.1-0.4c-0.3,0-0.6,0.1-0.8,0.3c-0.2,0.2-0.4,0.5-0.5,0.9
			c-0.1,0.5-0.2,1.4-0.2,2.9V708.4L1055.2,708.4z M1064.4,705.7l2.3,0.4c-0.3,0.8-0.8,1.5-1.4,1.9c-0.6,0.4-1.4,0.7-2.4,0.7
			c-1.5,0-2.6-0.5-3.3-1.5c-0.6-0.8-0.8-1.8-0.8-3c0-1.4,0.4-2.5,1.1-3.3c0.7-0.8,1.7-1.2,2.8-1.2c1.3,0,2.3,0.4,3,1.3
			c0.7,0.8,1.1,2.1,1.1,3.9h-5.7c0,0.7,0.2,1.2,0.5,1.6c0.3,0.4,0.8,0.6,1.3,0.6c0.4,0,0.7-0.1,0.9-0.3
			C1064.1,706.4,1064.3,706.1,1064.4,705.7L1064.4,705.7z M1064.6,703.4c0-0.7-0.2-1.2-0.5-1.5c-0.3-0.3-0.7-0.5-1.2-0.5
			c-0.5,0-0.9,0.2-1.2,0.5c-0.3,0.4-0.5,0.9-0.5,1.5H1064.6L1064.6,703.4z M1067.7,699.8h1.3v-0.6c0-0.7,0.1-1.3,0.2-1.6
			c0.2-0.4,0.4-0.6,0.9-0.9c0.4-0.2,0.9-0.3,1.6-0.3c0.6,0,1.3,0.1,1.9,0.3l-0.3,1.6c-0.4-0.1-0.7-0.1-1.1-0.1
			c-0.3,0-0.6,0.1-0.7,0.2c-0.1,0.2-0.2,0.5-0.2,0.9v0.6h1.7v1.8h-1.7v6.8h-2.3v-6.8h-1.3V699.8L1067.7,699.8z M1079.2,705.7
			l2.3,0.4c-0.3,0.8-0.8,1.5-1.4,1.9c-0.6,0.4-1.4,0.7-2.4,0.7c-1.5,0-2.6-0.5-3.3-1.5c-0.6-0.8-0.8-1.8-0.8-3
			c0-1.4,0.4-2.5,1.1-3.3c0.7-0.8,1.7-1.2,2.8-1.2c1.3,0,2.3,0.4,3,1.3c0.7,0.8,1.1,2.1,1.1,3.9h-5.7c0,0.7,0.2,1.2,0.5,1.6
			c0.3,0.4,0.8,0.6,1.3,0.6c0.4,0,0.7-0.1,0.9-0.3C1078.8,706.4,1079,706.1,1079.2,705.7L1079.2,705.7z M1079.3,703.4
			c0-0.7-0.2-1.2-0.5-1.5c-0.3-0.3-0.7-0.5-1.2-0.5c-0.5,0-0.9,0.2-1.2,0.5c-0.3,0.4-0.5,0.9-0.5,1.5H1079.3L1079.3,703.4z
			 M1085.6,708.4h-2.3v-8.6h2.1v1.2c0.4-0.6,0.7-1,1-1.1c0.3-0.2,0.6-0.3,1-0.3c0.5,0,1,0.1,1.5,0.4l-0.7,2
			c-0.4-0.2-0.7-0.4-1.1-0.4c-0.3,0-0.6,0.1-0.8,0.3c-0.2,0.2-0.4,0.5-0.5,0.9c-0.1,0.5-0.2,1.4-0.2,2.9V708.4L1085.6,708.4z
			 M1094.8,705.7l2.3,0.4c-0.3,0.8-0.7,1.5-1.4,1.9c-0.6,0.4-1.4,0.7-2.4,0.7c-1.5,0-2.6-0.5-3.3-1.5c-0.6-0.8-0.8-1.8-0.8-3
			c0-1.4,0.4-2.5,1.1-3.3c0.7-0.8,1.7-1.2,2.8-1.2c1.3,0,2.3,0.4,3,1.3c0.7,0.8,1.1,2.1,1.1,3.9h-5.7c0,0.7,0.2,1.2,0.5,1.6
			c0.3,0.4,0.8,0.6,1.3,0.6c0.4,0,0.7-0.1,0.9-0.3C1094.5,706.4,1094.7,706.1,1094.8,705.7L1094.8,705.7z M1094.9,703.4
			c0-0.7-0.2-1.2-0.5-1.5c-0.3-0.3-0.7-0.5-1.2-0.5c-0.5,0-0.9,0.2-1.2,0.5c-0.3,0.4-0.5,0.9-0.5,1.5H1094.9L1094.9,703.4z
			 M1106.8,708.4h-2.3V704c0-0.9,0-1.5-0.1-1.8c-0.1-0.3-0.3-0.5-0.5-0.6c-0.2-0.2-0.5-0.2-0.8-0.2c-0.4,0-0.8,0.1-1.1,0.3
			c-0.3,0.2-0.5,0.5-0.6,0.9c-0.1,0.4-0.2,1-0.2,2v3.9h-2.3v-8.6h2.1v1.3c0.8-1,1.7-1.4,2.8-1.4c0.5,0,1,0.1,1.4,0.3
			c0.4,0.2,0.7,0.4,0.9,0.7c0.2,0.3,0.4,0.6,0.4,1c0.1,0.4,0.1,0.9,0.1,1.5V708.4L1106.8,708.4z M1116.6,702.3l-2.2,0.4
			c-0.1-0.4-0.2-0.8-0.5-1c-0.3-0.2-0.6-0.3-1-0.3c-0.6,0-1,0.2-1.4,0.6c-0.3,0.4-0.5,1-0.5,2c0,1,0.2,1.7,0.5,2.2
			c0.3,0.4,0.8,0.6,1.4,0.6c0.4,0,0.8-0.1,1.1-0.4c0.3-0.2,0.5-0.7,0.6-1.3l2.2,0.4c-0.2,1-0.7,1.8-1.3,2.3
			c-0.7,0.5-1.5,0.8-2.6,0.8c-1.3,0-2.3-0.4-3-1.2c-0.7-0.8-1.1-1.9-1.1-3.3c0-1.4,0.4-2.5,1.1-3.3c0.7-0.8,1.8-1.2,3-1.2
			c1,0,1.9,0.2,2.5,0.7C1115.9,700.7,1116.3,701.4,1116.6,702.3L1116.6,702.3z M1123.3,705.7l2.3,0.4c-0.3,0.8-0.7,1.5-1.4,1.9
			c-0.6,0.4-1.4,0.7-2.4,0.7c-1.5,0-2.6-0.5-3.3-1.5c-0.6-0.8-0.8-1.8-0.8-3c0-1.4,0.4-2.5,1.1-3.3c0.7-0.8,1.7-1.2,2.8-1.2
			c1.3,0,2.3,0.4,3,1.3c0.7,0.8,1.1,2.1,1.1,3.9h-5.7c0,0.7,0.2,1.2,0.5,1.6c0.3,0.4,0.8,0.6,1.3,0.6c0.4,0,0.7-0.1,0.9-0.3
			C1123,706.4,1123.2,706.1,1123.3,705.7L1123.3,705.7z M1123.4,703.4c0-0.7-0.2-1.2-0.5-1.5c-0.3-0.3-0.7-0.5-1.2-0.5
			c-0.5,0-0.9,0.2-1.2,0.5c-0.3,0.4-0.5,0.9-0.5,1.5H1123.4z"/>
		<line class="st3" x1="1138.9" y1="735.7" x2="1188.2" y2="735.7"/>
		<line class="st3" x1="1138.9" y1="650.7" x2="1188.2" y2="650.7"/>
		<line class="st3" x1="1181.1" y1="708.7" x2="1181.1" y2="735.7"/>
		<line class="st3" x1="1181.1" y1="650.7" x2="1181.1" y2="676.7"/>
		<path class="st4" d="M1183.1,705.1l-0.1-1.1c0.6-0.1,1-0.3,1.3-0.6c0.3-0.3,0.4-0.6,0.4-1.1c0-0.5-0.2-0.9-0.5-1.3
			c-0.3-0.3-0.8-0.5-1.3-0.5c-0.5,0-0.9,0.2-1.2,0.5c-0.3,0.3-0.5,0.7-0.5,1.2c0,0.2,0,0.4,0.1,0.7l-0.9-0.1c0-0.1,0-0.1,0-0.2
			c0-0.5-0.1-0.9-0.4-1.2c-0.2-0.4-0.6-0.5-1.1-0.5c-0.4,0-0.7,0.1-1,0.4c-0.3,0.3-0.4,0.6-0.4,1c0,0.4,0.1,0.8,0.4,1
			c0.3,0.3,0.7,0.5,1.2,0.5l-0.2,1.1c-0.7-0.1-1.3-0.4-1.6-0.9c-0.4-0.5-0.6-1-0.6-1.7c0-0.5,0.1-0.9,0.3-1.3
			c0.2-0.4,0.5-0.7,0.8-0.9c0.3-0.2,0.7-0.3,1.1-0.3c0.4,0,0.7,0.1,1,0.3c0.3,0.2,0.5,0.5,0.7,0.9c0.1-0.5,0.4-0.9,0.7-1.2
			c0.4-0.3,0.8-0.4,1.4-0.4c0.8,0,1.4,0.3,1.9,0.8c0.5,0.5,0.8,1.2,0.8,2.1c0,0.8-0.2,1.4-0.7,1.9
			C1184.4,704.7,1183.9,705,1183.1,705.1L1183.1,705.1z M1183.1,690.7l0.1-1c0.7,0.1,1.3,0.4,1.7,0.9s0.6,1,0.6,1.7
			c0,0.9-0.3,1.5-0.8,2c-0.6,0.5-1.4,0.8-2.4,0.8c-0.7,0-1.3-0.1-1.8-0.3c-0.5-0.2-0.9-0.6-1.1-1c-0.3-0.5-0.4-0.9-0.4-1.5
			c0-0.7,0.2-1.2,0.5-1.7c0.3-0.4,0.8-0.7,1.5-0.8l0.2,1c-0.4,0.1-0.7,0.3-0.9,0.5c-0.2,0.2-0.3,0.5-0.3,0.9c0,0.5,0.2,1,0.6,1.3
			c0.4,0.3,1,0.5,1.8,0.5c0.8,0,1.4-0.2,1.8-0.5c0.4-0.3,0.6-0.7,0.6-1.3c0-0.4-0.1-0.8-0.4-1C1184.1,691,1183.7,690.8,1183.1,690.7
			L1183.1,690.7z M1185.4,688.8h-6.2v-0.9h0.9c-0.3-0.2-0.6-0.5-0.7-0.8c-0.2-0.3-0.3-0.7-0.3-1.1c0-0.5,0.1-0.8,0.3-1.1
			c0.2-0.3,0.5-0.5,0.8-0.6c-0.7-0.5-1.1-1.1-1.1-1.9c0-0.6,0.2-1.1,0.5-1.4c0.3-0.3,0.9-0.5,1.6-0.5h4.3v1.1h-3.9
			c-0.4,0-0.7,0-0.9,0.1c-0.2,0.1-0.3,0.2-0.4,0.4c-0.1,0.2-0.2,0.4-0.2,0.6c0,0.4,0.1,0.8,0.4,1.1c0.3,0.3,0.8,0.4,1.4,0.4h3.6v1.1
			h-4c-0.5,0-0.8,0.1-1.1,0.3c-0.2,0.2-0.4,0.5-0.4,0.8c0,0.3,0.1,0.6,0.2,0.8c0.2,0.3,0.4,0.4,0.7,0.5c0.3,0.1,0.7,0.2,1.3,0.2h3.2
			V688.8z"/>
		<line class="st3" x1="1046.8" y1="742.8" x2="1046.8" y2="782.5"/>
		<line class="st3" x1="1131.8" y1="742.8" x2="1131.8" y2="782.5"/>
		<line class="st3" x1="1073.8" y1="775.4" x2="1046.8" y2="775.4"/>
		<line class="st3" x1="1131.8" y1="775.4" x2="1105.8" y2="775.4"/>
		<path class="st4" d="M1077.4,777.5l1.1-0.1c0.1,0.6,0.3,1,0.6,1.3c0.3,0.3,0.6,0.4,1.1,0.4c0.5,0,0.9-0.2,1.3-0.5
			c0.3-0.3,0.5-0.8,0.5-1.3c0-0.5-0.2-0.9-0.5-1.2c-0.3-0.3-0.7-0.5-1.2-0.5c-0.2,0-0.4,0-0.7,0.1l0.1-0.9c0.1,0,0.1,0,0.2,0
			c0.5,0,0.9-0.1,1.2-0.4c0.4-0.2,0.5-0.6,0.5-1.1c0-0.4-0.1-0.7-0.4-1c-0.3-0.3-0.6-0.4-1-0.4c-0.4,0-0.8,0.1-1,0.4
			c-0.3,0.3-0.5,0.7-0.5,1.2l-1.1-0.2c0.1-0.7,0.4-1.3,0.9-1.6c0.5-0.4,1-0.6,1.7-0.6c0.5,0,0.9,0.1,1.3,0.3
			c0.4,0.2,0.7,0.5,0.9,0.8c0.2,0.3,0.3,0.7,0.3,1.1c0,0.4-0.1,0.7-0.3,1c-0.2,0.3-0.5,0.5-0.9,0.7c0.5,0.1,0.9,0.4,1.2,0.7
			c0.3,0.4,0.4,0.8,0.4,1.4c0,0.8-0.3,1.4-0.8,1.9c-0.5,0.5-1.2,0.8-2.1,0.8c-0.8,0-1.4-0.2-1.9-0.7
			C1077.8,778.8,1077.5,778.2,1077.4,777.5L1077.4,777.5z M1091.8,777.5l1,0.1c-0.1,0.7-0.4,1.3-0.9,1.7c-0.5,0.4-1,0.6-1.7,0.6
			c-0.9,0-1.5-0.3-2.1-0.8c-0.5-0.6-0.8-1.4-0.8-2.4c0-0.7,0.1-1.3,0.3-1.8c0.2-0.5,0.6-0.9,1-1.1c0.5-0.3,0.9-0.4,1.5-0.4
			c0.7,0,1.2,0.2,1.7,0.5c0.4,0.3,0.7,0.8,0.8,1.5l-1,0.2c-0.1-0.4-0.3-0.7-0.5-0.9c-0.2-0.2-0.5-0.3-0.9-0.3c-0.5,0-1,0.2-1.3,0.6
			c-0.3,0.4-0.5,1-0.5,1.8c0,0.8,0.2,1.4,0.5,1.8c0.3,0.4,0.7,0.6,1.3,0.6c0.4,0,0.8-0.1,1-0.4
			C1091.6,778.4,1091.7,778,1091.8,777.5L1091.8,777.5z M1093.7,779.7v-6.2h0.9v0.9c0.2-0.3,0.5-0.6,0.8-0.7
			c0.3-0.2,0.7-0.3,1.1-0.3c0.5,0,0.8,0.1,1.1,0.3c0.3,0.2,0.5,0.5,0.6,0.8c0.5-0.7,1.1-1.1,1.9-1.1c0.6,0,1.1,0.2,1.4,0.5
			c0.3,0.3,0.5,0.9,0.5,1.6v4.3h-1.1v-3.9c0-0.4,0-0.7-0.1-0.9c-0.1-0.2-0.2-0.3-0.4-0.4c-0.2-0.1-0.4-0.2-0.6-0.2
			c-0.4,0-0.8,0.1-1.1,0.4c-0.3,0.3-0.4,0.8-0.4,1.4v3.6h-1.1v-4c0-0.5-0.1-0.8-0.3-1.1c-0.2-0.2-0.5-0.4-0.8-0.4
			c-0.3,0-0.6,0.1-0.8,0.2c-0.3,0.2-0.4,0.4-0.5,0.7c-0.1,0.3-0.2,0.7-0.2,1.3v3.2H1093.7z"/>
		<line class="st3" x1="1131.8" y1="742.8" x2="1131.8" y2="761.4"/>
		<line class="st3" x1="1046.8" y1="742.8" x2="1046.8" y2="761.4"/>
		<line class="st3" x1="1158.3" y1="754.3" x2="1131.8" y2="754.3"/>
		<line class="st3" x1="1046.8" y1="754.3" x2="1020.3" y2="754.3"/>
		<path class="st4" d="M1064,758.6h-1.1v-6.7c-0.3,0.2-0.6,0.5-1,0.7c-0.4,0.2-0.8,0.4-1.1,0.5v-1c0.6-0.3,1.1-0.6,1.5-1
			c0.4-0.4,0.8-0.8,0.9-1.1h0.7V758.6L1064,758.6z M1067.3,758.6v-1.2h1.2v1.2H1067.3L1067.3,758.6z M1074,758.6h-1.1v-6.7
			c-0.3,0.2-0.6,0.5-1,0.7c-0.4,0.2-0.8,0.4-1.1,0.5v-1c0.6-0.3,1.1-0.6,1.5-1c0.4-0.4,0.8-0.8,0.9-1.1h0.7V758.6L1074,758.6z
			 M1078.3,754c-0.4-0.2-0.8-0.4-1-0.7c-0.2-0.3-0.3-0.7-0.3-1.1c0-0.6,0.2-1.2,0.7-1.6c0.4-0.4,1-0.6,1.8-0.6
			c0.7,0,1.4,0.2,1.8,0.7c0.5,0.4,0.7,1,0.7,1.6c0,0.4-0.1,0.7-0.3,1c-0.2,0.3-0.5,0.5-0.9,0.7c0.5,0.2,0.9,0.4,1.2,0.8
			c0.3,0.4,0.4,0.8,0.4,1.4c0,0.7-0.3,1.3-0.8,1.8c-0.5,0.5-1.2,0.8-2,0.8c-0.8,0-1.5-0.2-2-0.8c-0.5-0.5-0.8-1.1-0.8-1.9
			c0-0.6,0.1-1,0.4-1.4C1077.4,754.4,1077.8,754.1,1078.3,754L1078.3,754z M1078.1,752.2c0,0.4,0.1,0.7,0.4,1c0.3,0.3,0.6,0.4,1,0.4
			c0.4,0,0.7-0.1,1-0.4c0.3-0.3,0.4-0.6,0.4-0.9c0-0.4-0.1-0.7-0.4-1c-0.3-0.3-0.6-0.4-1-0.4c-0.4,0-0.7,0.1-1,0.4
			C1078.2,751.5,1078.1,751.8,1078.1,752.2L1078.1,752.2z M1077.8,756.2c0,0.3,0.1,0.6,0.2,0.9c0.1,0.3,0.4,0.5,0.6,0.7
			c0.3,0.2,0.6,0.2,0.9,0.2c0.5,0,0.9-0.2,1.2-0.5c0.3-0.3,0.5-0.7,0.5-1.2c0-0.5-0.2-0.9-0.5-1.3c-0.3-0.3-0.8-0.5-1.3-0.5
			c-0.5,0-0.9,0.2-1.2,0.5C1077.9,755.3,1077.8,755.7,1077.8,756.2L1077.8,756.2z M1087,751.2V750h1.1v1.2H1087L1087,751.2z
			 M1087,758.6v-6.2h1.1v6.2H1087L1087,758.6z M1089.6,758.6v-6.2h0.9v0.9c0.5-0.7,1.1-1,2-1c0.4,0,0.7,0.1,1,0.2
			c0.3,0.1,0.5,0.3,0.7,0.5c0.2,0.2,0.3,0.5,0.3,0.8c0,0.2,0.1,0.5,0.1,1v3.8h-1.1v-3.8c0-0.4,0-0.8-0.1-1c-0.1-0.2-0.2-0.4-0.4-0.5
			c-0.2-0.1-0.5-0.2-0.7-0.2c-0.4,0-0.8,0.1-1.2,0.4c-0.3,0.3-0.5,0.8-0.5,1.6v3.4H1089.6L1089.6,758.6z M1100.4,756.4l1,0.1
			c-0.1,0.7-0.4,1.3-0.9,1.7c-0.5,0.4-1,0.6-1.7,0.6c-0.9,0-1.5-0.3-2.1-0.8c-0.5-0.6-0.8-1.4-0.8-2.4c0-0.7,0.1-1.3,0.3-1.8
			c0.2-0.5,0.6-0.9,1-1.1c0.5-0.3,0.9-0.4,1.5-0.4c0.7,0,1.2,0.2,1.7,0.5c0.4,0.3,0.7,0.8,0.8,1.5l-1,0.2c-0.1-0.4-0.3-0.7-0.5-0.9
			c-0.2-0.2-0.5-0.3-0.9-0.3c-0.5,0-1,0.2-1.3,0.6c-0.3,0.4-0.5,1-0.5,1.8c0,0.8,0.2,1.4,0.5,1.8c0.3,0.4,0.7,0.6,1.3,0.6
			c0.4,0,0.8-0.1,1-0.4C1100.1,757.3,1100.3,756.9,1100.4,756.4L1100.4,756.4z M1102.3,758.6V750h1.1v3.1c0.5-0.6,1.1-0.9,1.9-0.9
			c0.5,0,0.9,0.1,1.2,0.3c0.3,0.2,0.6,0.4,0.7,0.8c0.1,0.3,0.2,0.8,0.2,1.4v3.9h-1.1v-3.9c0-0.5-0.1-0.9-0.3-1.1
			c-0.2-0.2-0.5-0.4-1-0.4c-0.3,0-0.6,0.1-0.9,0.2c-0.3,0.2-0.5,0.4-0.6,0.7c-0.1,0.3-0.2,0.7-0.2,1.1v3.4H1102.3L1102.3,758.6z
			 M1113.2,756.6l1.1,0.1c-0.2,0.6-0.5,1.1-1,1.5c-0.5,0.4-1.1,0.5-1.8,0.5c-0.9,0-1.6-0.3-2.2-0.8c-0.5-0.6-0.8-1.3-0.8-2.4
			c0-1,0.3-1.9,0.8-2.4c0.5-0.6,1.2-0.9,2.1-0.9c0.8,0,1.5,0.3,2,0.8c0.5,0.6,0.8,1.4,0.8,2.4c0,0.1,0,0.2,0,0.3h-4.6
			c0,0.7,0.2,1.2,0.6,1.6c0.3,0.4,0.8,0.5,1.3,0.5c0.4,0,0.7-0.1,1-0.3C1112.9,757.4,1113.1,757.1,1113.2,756.6L1113.2,756.6z
			 M1109.8,754.9h3.5c0-0.5-0.2-0.9-0.4-1.2c-0.3-0.4-0.8-0.6-1.3-0.6c-0.5,0-0.9,0.2-1.2,0.5C1110,753.9,1109.8,754.4,1109.8,754.9
			L1109.8,754.9z M1115.2,756.8l1-0.2c0.1,0.4,0.2,0.7,0.5,1c0.3,0.2,0.6,0.3,1.1,0.3c0.5,0,0.8-0.1,1.1-0.3
			c0.2-0.2,0.4-0.4,0.4-0.7c0-0.2-0.1-0.4-0.3-0.6c-0.1-0.1-0.5-0.2-1.1-0.4c-0.8-0.2-1.3-0.4-1.6-0.5c-0.3-0.1-0.5-0.3-0.7-0.6
			c-0.2-0.2-0.2-0.5-0.2-0.8c0-0.3,0.1-0.5,0.2-0.8c0.1-0.2,0.3-0.4,0.5-0.6c0.2-0.1,0.4-0.2,0.7-0.3c0.3-0.1,0.6-0.1,0.9-0.1
			c0.5,0,0.9,0.1,1.3,0.2c0.4,0.1,0.6,0.3,0.8,0.6c0.2,0.2,0.3,0.6,0.4,1l-1,0.1c0-0.3-0.2-0.6-0.4-0.8s-0.5-0.3-0.9-0.3
			c-0.5,0-0.8,0.1-1,0.2c-0.2,0.2-0.3,0.3-0.3,0.6c0,0.1,0,0.3,0.1,0.4c0.1,0.1,0.2,0.2,0.4,0.3c0.1,0,0.4,0.1,0.9,0.3
			c0.7,0.2,1.3,0.4,1.6,0.5c0.3,0.1,0.5,0.3,0.7,0.6c0.2,0.2,0.3,0.5,0.3,0.9c0,0.4-0.1,0.7-0.3,1c-0.2,0.3-0.5,0.5-0.9,0.7
			c-0.4,0.2-0.8,0.3-1.3,0.3c-0.8,0-1.4-0.2-1.8-0.5C1115.6,757.9,1115.4,757.4,1115.2,756.8z"/>
		<line class="st3" x1="1138.9" y1="735.7" x2="1165.4" y2="735.7"/>
		<line class="st3" x1="1138.9" y1="650.7" x2="1165.4" y2="650.7"/>
		<line class="st3" x1="1158.3" y1="762.2" x2="1158.3" y2="735.7"/>
		<line class="st3" x1="1158.3" y1="650.7" x2="1158.3" y2="624.2"/>
		<path class="st4" d="M1162.6,718.6v1.1h-6.7c0.2,0.3,0.5,0.6,0.7,1c0.2,0.4,0.4,0.8,0.5,1.1h-1c-0.3-0.6-0.6-1.1-1-1.5
			c-0.4-0.4-0.8-0.8-1.1-0.9v-0.7H1162.6L1162.6,718.6z M1162.6,715.3h-1.2v-1.2h1.2V715.3L1162.6,715.3z M1162.6,708.5v1.1h-6.7
			c0.2,0.3,0.5,0.6,0.7,1c0.2,0.4,0.4,0.8,0.5,1.1h-1c-0.3-0.6-0.6-1.1-1-1.5c-0.4-0.4-0.8-0.8-1.1-0.9v-0.7H1162.6L1162.6,708.5z
			 M1157.9,704.2c-0.2,0.4-0.4,0.8-0.7,1c-0.3,0.2-0.7,0.3-1.1,0.3c-0.6,0-1.2-0.2-1.6-0.7c-0.4-0.4-0.6-1-0.6-1.8
			c0-0.7,0.2-1.4,0.7-1.8c0.4-0.5,1-0.7,1.6-0.7c0.4,0,0.7,0.1,1,0.3c0.3,0.2,0.5,0.5,0.7,0.9c0.2-0.5,0.4-0.9,0.8-1.2
			c0.4-0.3,0.8-0.4,1.4-0.4c0.7,0,1.3,0.3,1.8,0.8c0.5,0.5,0.8,1.2,0.8,2c0,0.8-0.2,1.5-0.8,2c-0.5,0.5-1.1,0.8-1.9,0.8
			c-0.6,0-1-0.1-1.4-0.4C1158.3,705.1,1158.1,704.7,1157.9,704.2L1157.9,704.2z M1156.1,704.4c0.4,0,0.7-0.1,1-0.4
			c0.3-0.3,0.4-0.6,0.4-1c0-0.4-0.1-0.7-0.4-1c-0.3-0.3-0.6-0.4-0.9-0.4c-0.4,0-0.7,0.1-1,0.4c-0.3,0.3-0.4,0.6-0.4,1
			c0,0.4,0.1,0.7,0.4,1C1155.5,704.3,1155.8,704.4,1156.1,704.4L1156.1,704.4z M1160.1,704.8c0.3,0,0.6-0.1,0.9-0.2
			c0.3-0.1,0.5-0.4,0.7-0.6c0.2-0.3,0.2-0.6,0.2-0.9c0-0.5-0.2-0.9-0.5-1.3s-0.7-0.5-1.2-0.5c-0.5,0-0.9,0.2-1.3,0.5
			c-0.3,0.3-0.5,0.8-0.5,1.3c0,0.5,0.2,0.9,0.5,1.2C1159.2,704.6,1159.6,704.8,1160.1,704.8L1160.1,704.8z M1155.2,695.5h-1.2v-1.1
			h1.2V695.5L1155.2,695.5z M1162.6,695.5h-6.2v-1.1h6.2V695.5L1162.6,695.5z M1162.6,692.9h-6.2v-0.9h0.9c-0.7-0.5-1-1.1-1-2
			c0-0.4,0.1-0.7,0.2-1c0.1-0.3,0.3-0.5,0.5-0.7c0.2-0.2,0.5-0.3,0.8-0.3c0.2,0,0.5-0.1,1-0.1h3.8v1.1h-3.8c-0.4,0-0.8,0-1,0.1
			c-0.2,0.1-0.4,0.2-0.5,0.4c-0.1,0.2-0.2,0.5-0.2,0.7c0,0.4,0.1,0.8,0.4,1.2c0.3,0.3,0.8,0.5,1.6,0.5h3.4V692.9L1162.6,692.9z
			 M1160.3,682.1l0.1-1c0.7,0.1,1.3,0.4,1.7,0.9c0.4,0.5,0.6,1,0.6,1.7c0,0.9-0.3,1.5-0.8,2c-0.6,0.5-1.4,0.8-2.4,0.8
			c-0.7,0-1.3-0.1-1.8-0.3c-0.5-0.2-0.9-0.6-1.1-1c-0.3-0.5-0.4-0.9-0.4-1.5c0-0.7,0.2-1.2,0.5-1.7c0.3-0.4,0.8-0.7,1.5-0.8l0.2,1
			c-0.4,0.1-0.7,0.3-0.9,0.5c-0.2,0.2-0.3,0.5-0.3,0.9c0,0.5,0.2,1,0.6,1.3c0.4,0.3,1,0.5,1.8,0.5c0.8,0,1.4-0.2,1.8-0.5
			c0.4-0.3,0.6-0.7,0.6-1.3c0-0.4-0.1-0.8-0.4-1C1161.2,682.4,1160.8,682.2,1160.3,682.1L1160.3,682.1z M1162.6,680.2h-8.6v-1.1h3.1
			c-0.6-0.5-0.9-1.1-0.9-1.9c0-0.5,0.1-0.9,0.3-1.2c0.2-0.3,0.4-0.6,0.8-0.7c0.3-0.1,0.8-0.2,1.4-0.2h3.9v1.1h-3.9
			c-0.5,0-0.9,0.1-1.2,0.3c-0.2,0.2-0.4,0.5-0.4,1c0,0.3,0.1,0.6,0.2,0.9c0.2,0.3,0.4,0.5,0.7,0.6c0.3,0.1,0.7,0.2,1.1,0.2h3.4
			V680.2L1162.6,680.2z M1160.6,669.3l0.1-1.1c0.6,0.2,1.1,0.5,1.5,1c0.4,0.5,0.5,1.1,0.5,1.8c0,0.9-0.3,1.6-0.8,2.2
			c-0.6,0.5-1.3,0.8-2.4,0.8c-1,0-1.9-0.3-2.4-0.8c-0.6-0.5-0.9-1.2-0.9-2.1c0-0.8,0.3-1.5,0.8-2c0.6-0.5,1.4-0.8,2.4-0.8
			c0.1,0,0.2,0,0.3,0v4.6c0.7,0,1.2-0.2,1.6-0.6c0.4-0.3,0.5-0.8,0.5-1.3c0-0.4-0.1-0.7-0.3-1C1161.4,669.7,1161,669.4,1160.6,669.3
			L1160.6,669.3z M1158.9,672.7v-3.5c-0.5,0-0.9,0.2-1.2,0.4c-0.4,0.3-0.6,0.8-0.6,1.3c0,0.5,0.2,0.9,0.5,1.2
			C1157.9,672.5,1158.3,672.7,1158.9,672.7L1158.9,672.7z M1160.7,667.3l-0.2-1c0.4-0.1,0.7-0.2,1-0.5c0.2-0.3,0.3-0.6,0.3-1.1
			c0-0.5-0.1-0.8-0.3-1.1c-0.2-0.2-0.4-0.4-0.7-0.4c-0.2,0-0.4,0.1-0.6,0.3c-0.1,0.1-0.2,0.5-0.4,1.1c-0.2,0.8-0.4,1.3-0.5,1.6
			c-0.1,0.3-0.3,0.5-0.6,0.7c-0.2,0.2-0.5,0.2-0.8,0.2c-0.3,0-0.5-0.1-0.8-0.2c-0.2-0.1-0.4-0.3-0.6-0.5c-0.1-0.2-0.2-0.4-0.3-0.7
			c-0.1-0.3-0.1-0.6-0.1-0.9c0-0.5,0.1-0.9,0.2-1.3c0.1-0.4,0.3-0.6,0.6-0.8c0.2-0.2,0.6-0.3,1-0.4l0.1,1c-0.3,0-0.6,0.2-0.8,0.4
			c-0.2,0.2-0.3,0.5-0.3,0.9c0,0.5,0.1,0.8,0.2,1c0.2,0.2,0.3,0.3,0.6,0.3c0.1,0,0.3,0,0.4-0.1c0.1-0.1,0.2-0.2,0.3-0.4
			c0-0.1,0.1-0.4,0.3-0.9c0.2-0.7,0.4-1.3,0.5-1.6c0.1-0.3,0.3-0.5,0.6-0.7c0.2-0.2,0.5-0.3,0.9-0.3c0.4,0,0.7,0.1,1,0.3
			c0.3,0.2,0.5,0.5,0.7,0.9c0.2,0.4,0.3,0.8,0.3,1.3c0,0.8-0.2,1.4-0.5,1.8C1161.9,666.9,1161.4,667.2,1160.7,667.3z"/>
	</g>
	<path class="st5" d="M1076.5,61.4l4.6-0.6c0.5,2.6,1.4,4.5,2.7,5.7c1.3,1.2,2.8,1.7,4.7,1.7c2.2,0,4.1-0.8,5.5-2.3
		c1.5-1.5,2.2-3.4,2.2-5.6c0-2.1-0.7-3.9-2.1-5.3c-1.4-1.4-3.2-2.1-5.3-2.1c-0.9,0-2,0.2-3.3,0.5l0.5-4.1c0.3,0,0.6,0.1,0.7,0.1
		c2,0,3.8-0.5,5.4-1.5c1.6-1,2.4-2.6,2.4-4.7c0-1.7-0.6-3.1-1.7-4.2c-1.2-1.1-2.6-1.7-4.5-1.7c-1.8,0-3.3,0.6-4.5,1.7
		c-1.2,1.1-2,2.9-2.3,5.1l-4.6-0.8c0.6-3.1,1.9-5.5,3.9-7.2c2-1.7,4.5-2.6,7.5-2.6c2.1,0,4,0.4,5.7,1.3c1.7,0.9,3.1,2.1,4,3.6
		c0.9,1.5,1.4,3.1,1.4,4.9c0,1.6-0.4,3.1-1.3,4.4c-0.9,1.3-2.2,2.4-3.9,3.2c2.2,0.5,4,1.6,5.2,3.2c1.2,1.6,1.8,3.7,1.8,6.1
		c0,3.3-1.2,6.1-3.6,8.4c-2.4,2.3-5.5,3.4-9.1,3.4c-3.3,0-6.1-1-8.3-3C1078,67.1,1076.8,64.6,1076.5,61.4L1076.5,61.4z M1107.1,71.5
		V44.1h4.2v3.9c0.9-1.3,2-2.4,3.4-3.2c1.4-0.8,3-1.2,4.9-1.2c2,0,3.7,0.4,5,1.3c1.3,0.8,2.2,2,2.7,3.5c2.2-3.2,5-4.8,8.5-4.8
		c2.7,0,4.8,0.7,6.3,2.3c1.5,1.5,2.2,3.8,2.2,6.9v18.8h-4.6V54.2c0-1.8-0.2-3.2-0.5-4s-0.8-1.5-1.6-2c-0.8-0.5-1.7-0.7-2.8-0.7
		c-1.9,0-3.5,0.6-4.8,1.9c-1.3,1.3-1.9,3.3-1.9,6.1v15.9h-4.6V53.7c0-2.1-0.4-3.6-1.1-4.6c-0.8-1-2-1.5-3.7-1.5
		c-1.3,0-2.5,0.3-3.6,1c-1.1,0.7-1.9,1.7-2.4,3c-0.5,1.3-0.7,3.2-0.7,5.7v14.2H1107.1L1107.1,71.5z M1151,71.5V44.1h4.2v3.9
		c0.9-1.3,2-2.4,3.4-3.2c1.4-0.8,3-1.2,4.9-1.2c2,0,3.7,0.4,5,1.3c1.3,0.8,2.2,2,2.7,3.5c2.2-3.2,5-4.8,8.5-4.8
		c2.7,0,4.8,0.7,6.3,2.3c1.5,1.5,2.2,3.8,2.2,6.9v18.8h-4.6V54.2c0-1.8-0.2-3.2-0.5-4s-0.8-1.5-1.6-2c-0.8-0.5-1.7-0.7-2.8-0.7
		c-1.9,0-3.5,0.6-4.8,1.9c-1.3,1.3-1.9,3.3-1.9,6.1v15.9h-4.6V53.7c0-2.1-0.4-3.6-1.1-4.6c-0.8-1-2-1.5-3.7-1.5
		c-1.3,0-2.5,0.3-3.6,1c-1.1,0.7-1.9,1.7-2.4,3c-0.5,1.3-0.7,3.2-0.7,5.7v14.2H1151z"/>
	<g>
		<path class="st6" d="M108.9,773.5h-9.2v-1.6h9.2V773.5L108.9,773.5z M108.9,769.2h-9.2v-1.6h9.2V769.2L108.9,769.2z M87.6,777.4
			l-3.1-10.1h1.8l1.6,5.8l0.6,2.2c0-0.1,0.2-0.8,0.5-2.1l1.6-5.9h1.8l1.5,5.9l0.5,1.9l0.6-2l1.7-5.8h1.7l-3.2,10.1h-1.8l-1.6-6
			l-0.4-1.7l-2,7.8H87.6L87.6,777.4z M76.1,772.4c0,1.3,0.3,2.3,0.8,2.9c0.6,0.6,1.3,1,2.1,1c0.9,0,1.6-0.3,2.1-1
			c0.6-0.6,0.8-1.6,0.8-3c0-1.2-0.3-2.2-0.9-2.8c-0.6-0.6-1.3-1-2.1-1c-0.9,0-1.6,0.3-2.1,1C76.4,770.1,76.1,771.1,76.1,772.4
			L76.1,772.4z M74.3,772.4c0-1.9,0.5-3.2,1.6-4.1c0.9-0.7,1.9-1.1,3.2-1.1c1.4,0,2.5,0.5,3.4,1.4c0.9,0.9,1.3,2.2,1.3,3.8
			c0,1.3-0.2,2.3-0.6,3.1c-0.4,0.7-1,1.3-1.7,1.7c-0.7,0.4-1.6,0.6-2.4,0.6c-1.4,0-2.6-0.5-3.4-1.4
			C74.8,775.4,74.3,774.1,74.3,772.4L74.3,772.4z M70.6,777.4v-13.9h1.7v13.9H70.6L70.6,777.4z M66.3,777.4v-13.9H68v13.9H66.3
			L66.3,777.4z M56.8,771.4h5.6c-0.1-0.9-0.3-1.5-0.6-1.9c-0.5-0.7-1.2-1-2.1-1c-0.8,0-1.4,0.3-2,0.8
			C57.1,769.8,56.8,770.5,56.8,771.4L56.8,771.4z M62.4,774.2l1.8,0.2c-0.3,1-0.8,1.8-1.5,2.4c-0.8,0.6-1.7,0.9-2.9,0.9
			c-1.5,0-2.6-0.5-3.5-1.4c-0.9-0.9-1.3-2.2-1.3-3.8c0-1.7,0.4-3,1.3-3.9c0.9-0.9,2-1.4,3.4-1.4c1.3,0,2.4,0.5,3.3,1.4
			c0.9,0.9,1.3,2.2,1.3,3.9c0,0.1,0,0.3,0,0.5h-7.5c0.1,1.1,0.4,2,0.9,2.5c0.6,0.6,1.3,0.9,2.1,0.9c0.6,0,1.2-0.2,1.6-0.5
			C61.8,775.4,62.1,774.9,62.4,774.2L62.4,774.2z M48.4,777.4h1.8v-5.9l5.6-8h-2.2l-2.7,4.1c-0.6,0.9-1.1,1.7-1.5,2.5
			c-0.4-0.8-0.9-1.6-1.4-2.3l-2.8-4.2H43l5.4,8V777.4z"/>
		<path class="st7" d="M115.5,773.4l1.5-0.1c0.1,0.6,0.2,1.1,0.5,1.5c0.3,0.4,0.7,0.7,1.2,1c0.6,0.2,1.2,0.4,1.9,0.4
			c0.6,0,1.2-0.1,1.6-0.3c0.5-0.2,0.8-0.4,1-0.8c0.2-0.3,0.3-0.7,0.3-1c0-0.4-0.1-0.7-0.3-1c-0.2-0.3-0.6-0.5-1.1-0.7
			c-0.3-0.1-1-0.3-2.2-0.6c-1.1-0.3-1.9-0.5-2.3-0.8c-0.6-0.3-1-0.7-1.3-1.1c-0.3-0.4-0.4-1-0.4-1.5c0-0.6,0.2-1.2,0.5-1.7
			c0.3-0.5,0.9-0.9,1.5-1.2c0.7-0.3,1.4-0.4,2.2-0.4c0.9,0,1.7,0.1,2.4,0.4c0.7,0.3,1.2,0.7,1.6,1.3c0.4,0.6,0.6,1.2,0.6,1.9
			l-1.5,0.1c-0.1-0.8-0.4-1.3-0.8-1.7c-0.5-0.4-1.2-0.6-2.1-0.6c-1,0-1.7,0.2-2.1,0.5c-0.4,0.4-0.7,0.8-0.7,1.3
			c0,0.4,0.2,0.8,0.5,1.1c0.3,0.3,1.1,0.6,2.4,0.9c1.3,0.3,2.2,0.6,2.7,0.8c0.7,0.3,1.2,0.7,1.6,1.2c0.3,0.5,0.5,1.1,0.5,1.7
			c0,0.6-0.2,1.3-0.6,1.8c-0.4,0.6-0.9,1-1.6,1.3c-0.7,0.3-1.5,0.5-2.3,0.5c-1.1,0-2-0.2-2.8-0.5c-0.7-0.3-1.3-0.8-1.7-1.4
			C115.7,774.9,115.5,774.2,115.5,773.4L115.5,773.4z M136,773l1.6,0.4c-0.3,1.3-0.9,2.3-1.8,3c-0.9,0.7-1.9,1-3.2,1
			c-1.3,0-2.4-0.3-3.2-0.8c-0.8-0.5-1.4-1.3-1.9-2.3c-0.4-1-0.6-2.1-0.6-3.3c0-1.3,0.2-2.4,0.7-3.3c0.5-0.9,1.2-1.7,2.1-2.1
			c0.9-0.5,1.9-0.7,2.9-0.7c1.2,0,2.2,0.3,3.1,0.9c0.8,0.6,1.4,1.5,1.7,2.6l-1.6,0.4c-0.3-0.9-0.7-1.5-1.2-1.9
			c-0.5-0.4-1.2-0.6-2-0.6c-0.9,0-1.7,0.2-2.3,0.7c-0.6,0.4-1.1,1-1.3,1.8c-0.3,0.8-0.4,1.5-0.4,2.3c0,1,0.1,1.9,0.4,2.7
			c0.3,0.8,0.8,1.3,1.4,1.7c0.6,0.4,1.3,0.6,2.1,0.6c0.9,0,1.7-0.3,2.3-0.8C135.3,774.8,135.7,774.1,136,773L136,773z M139.1,771.4
			c0-2,0.5-3.6,1.6-4.7c1.1-1.1,2.5-1.7,4.2-1.7c1.1,0,2.1,0.3,3,0.8c0.9,0.5,1.6,1.3,2.1,2.2c0.5,1,0.7,2,0.7,3.3
			c0,1.2-0.2,2.3-0.7,3.3c-0.5,1-1.2,1.7-2.1,2.2c-0.9,0.5-1.9,0.7-3,0.7c-1.1,0-2.2-0.3-3.1-0.8c-0.9-0.6-1.6-1.3-2-2.3
			C139.3,773.5,139.1,772.4,139.1,771.4L139.1,771.4z M140.7,771.4c0,1.5,0.4,2.6,1.2,3.5c0.8,0.8,1.8,1.3,3,1.3
			c1.2,0,2.2-0.4,3-1.3c0.8-0.8,1.2-2.1,1.2-3.6c0-1-0.2-1.8-0.5-2.6c-0.3-0.7-0.8-1.3-1.5-1.7c-0.6-0.4-1.4-0.6-2.2-0.6
			c-1.1,0-2.1,0.4-2.9,1.2C141.1,768.3,140.7,769.6,140.7,771.4L140.7,771.4z M152.8,777.3v-12.2h5.4c1.1,0,1.9,0.1,2.5,0.3
			c0.6,0.2,1,0.6,1.3,1.2c0.3,0.6,0.5,1.2,0.5,1.8c0,0.9-0.3,1.6-0.8,2.2c-0.6,0.6-1.4,1-2.6,1.1c0.4,0.2,0.7,0.4,1,0.6
			c0.5,0.4,0.9,1,1.3,1.6l2.1,3.3h-2l-1.6-2.5c-0.5-0.7-0.9-1.3-1.2-1.7c-0.3-0.4-0.6-0.7-0.8-0.8c-0.2-0.2-0.5-0.3-0.7-0.3
			c-0.2,0-0.5-0.1-0.9-0.1h-1.9v5.4H152.8L152.8,777.3z M154.4,770.5h3.5c0.7,0,1.3-0.1,1.7-0.2c0.4-0.1,0.7-0.4,0.9-0.7
			c0.2-0.3,0.3-0.7,0.3-1.1c0-0.6-0.2-1-0.6-1.4c-0.4-0.4-1.1-0.6-2-0.6h-3.8V770.5L154.4,770.5z M165.1,777.3v-12.2h8.8v1.4h-7.2
			v3.7h6.7v1.4h-6.7v4.1h7.5v1.4H165.1z"/>
		<path class="st7" d="M184.3,777.3v-12.5h1.7v5.2h6.5v-5.2h1.7v12.5h-1.7v-5.9h-6.5v5.9H184.3L184.3,777.3z M202.6,776.2
			c-0.6,0.5-1.1,0.8-1.7,1c-0.5,0.2-1.1,0.3-1.7,0.3c-1,0-1.8-0.2-2.3-0.7c-0.5-0.5-0.8-1.1-0.8-1.9c0-0.4,0.1-0.8,0.3-1.2
			c0.2-0.4,0.5-0.7,0.8-0.9c0.3-0.2,0.7-0.4,1.1-0.5c0.3-0.1,0.8-0.2,1.4-0.2c1.2-0.1,2.2-0.3,2.7-0.5c0-0.2,0-0.3,0-0.4
			c0-0.6-0.1-1.1-0.4-1.3c-0.4-0.3-1-0.5-1.8-0.5c-0.7,0-1.3,0.1-1.6,0.4c-0.3,0.3-0.6,0.7-0.8,1.3l-1.5-0.2
			c0.1-0.6,0.4-1.2,0.7-1.6c0.3-0.4,0.8-0.7,1.4-0.9c0.6-0.2,1.3-0.3,2.1-0.3c0.8,0,1.4,0.1,1.9,0.3c0.5,0.2,0.8,0.4,1.1,0.7
			c0.2,0.3,0.4,0.6,0.5,1c0,0.3,0.1,0.7,0.1,1.4v2c0,1.4,0,2.3,0.1,2.7c0.1,0.4,0.2,0.7,0.4,1.1h-1.6
			C202.7,777,202.6,776.6,202.6,776.2L202.6,776.2z M202.5,772.8c-0.6,0.2-1.4,0.4-2.5,0.6c-0.6,0.1-1.1,0.2-1.3,0.3
			c-0.3,0.1-0.5,0.3-0.6,0.5c-0.1,0.2-0.2,0.5-0.2,0.7c0,0.4,0.2,0.7,0.5,1c0.3,0.3,0.8,0.4,1.4,0.4c0.6,0,1.1-0.1,1.6-0.4
			c0.5-0.3,0.8-0.6,1-1.1c0.2-0.3,0.2-0.9,0.2-1.5L202.5,772.8L202.5,772.8z M206.4,777.3v-12.5h1.5v12.5H206.4L206.4,777.3z
			 M210.6,777.3v-7.9h-1.4v-1.2h1.4v-1c0-0.6,0.1-1.1,0.2-1.4c0.1-0.4,0.4-0.7,0.8-1c0.4-0.2,0.9-0.4,1.6-0.4c0.4,0,0.9,0.1,1.4,0.2
			l-0.2,1.3c-0.3-0.1-0.6-0.1-0.9-0.1c-0.5,0-0.8,0.1-1,0.3c-0.2,0.2-0.3,0.6-0.3,1.1v0.8h1.8v1.2h-1.7v7.9H210.6L210.6,777.3z
			 M229.1,772.9l1.7,0.4c-0.3,1.4-1,2.4-1.9,3.1c-0.9,0.7-2,1.1-3.3,1.1c-1.3,0-2.4-0.3-3.3-0.8c-0.8-0.5-1.5-1.3-1.9-2.4
			c-0.4-1-0.7-2.2-0.7-3.4c0-1.3,0.2-2.4,0.7-3.4c0.5-1,1.2-1.7,2.1-2.2c0.9-0.5,1.9-0.8,3-0.8c1.3,0,2.3,0.3,3.2,1
			c0.9,0.6,1.4,1.5,1.8,2.7l-1.6,0.4c-0.3-0.9-0.7-1.6-1.3-2c-0.6-0.4-1.2-0.6-2.1-0.6c-1,0-1.8,0.2-2.4,0.7
			c-0.6,0.5-1.1,1.1-1.4,1.9c-0.3,0.8-0.4,1.6-0.4,2.4c0,1.1,0.2,2,0.5,2.8c0.3,0.8,0.8,1.4,1.4,1.8c0.7,0.4,1.4,0.6,2.1,0.6
			c0.9,0,1.7-0.3,2.4-0.8C228.5,774.8,228.9,774,229.1,772.9L229.1,772.9z M238.6,777.3V776c-0.7,1-1.7,1.5-2.9,1.5
			c-0.5,0-1-0.1-1.5-0.3c-0.5-0.2-0.8-0.5-1-0.8c-0.2-0.3-0.4-0.7-0.5-1.1c-0.1-0.3-0.1-0.8-0.1-1.4v-5.6h1.5v5c0,0.8,0,1.3,0.1,1.6
			c0.1,0.4,0.3,0.7,0.6,1c0.3,0.2,0.7,0.3,1.2,0.3c0.5,0,0.9-0.1,1.3-0.4c0.4-0.2,0.7-0.6,0.9-1c0.2-0.4,0.3-1,0.3-1.8v-4.9h1.5v9.1
			H238.6L238.6,777.3z M245.7,775.9l0.2,1.4c-0.4,0.1-0.8,0.1-1.2,0.1c-0.6,0-1-0.1-1.3-0.3c-0.3-0.2-0.5-0.4-0.6-0.7
			c-0.1-0.3-0.2-0.9-0.2-1.8v-5.2h-1.1v-1.2h1.1V766l1.5-0.9v3.2h1.5v1.2h-1.5v5.3c0,0.4,0,0.7,0.1,0.8c0.1,0.1,0.1,0.2,0.3,0.3
			c0.1,0.1,0.3,0.1,0.5,0.1C245.2,776,245.4,776,245.7,775.9z"/>
		
			<rect x="171" y="770.5" transform="matrix(0.2562 -0.9666 0.9666 0.2562 -611.8452 746.9434)" class="st7" width="16.8" height="1"/>
	</g>
</g>
<g>
	<path class="st5" d="M2243.6,71.4h-4.7V41.2c-1.1,1.1-2.6,2.2-4.5,3.3c-1.9,1.1-3.5,1.9-5,2.4v-4.6c2.7-1.2,5-2.7,7-4.5
		c2-1.8,3.4-3.5,4.2-5.2h3.1V71.4L2243.6,71.4z M2253.5,72.1l11.2-39.9h3.8l-11.2,39.9H2253.5L2253.5,72.1z M2278,50.5
		c-2-0.7-3.4-1.8-4.4-3.1c-0.9-1.3-1.4-2.9-1.4-4.8c0-2.8,1-5.2,3-7.1c2-1.9,4.7-2.9,8.1-2.9c3.4,0,6.1,1,8.1,2.9
		c2,2,3.1,4.3,3.1,7.2c0,1.8-0.5,3.4-1.4,4.7c-0.9,1.3-2.4,2.4-4.3,3.1c2.4,0.8,4.2,2,5.4,3.7c1.2,1.7,1.9,3.8,1.9,6.2
		c0,3.3-1.2,6.1-3.5,8.3c-2.3,2.2-5.4,3.4-9.2,3.4c-3.8,0-6.9-1.1-9.2-3.4c-2.3-2.3-3.5-5.1-3.5-8.4c0-2.5,0.6-4.6,1.9-6.3
		C2273.9,52.3,2275.7,51.1,2278,50.5L2278,50.5z M2277.1,42.5c0,1.8,0.6,3.3,1.7,4.5c1.2,1.2,2.7,1.7,4.6,1.7c1.8,0,3.3-0.6,4.5-1.7
		c1.2-1.2,1.7-2.6,1.7-4.2c0-1.7-0.6-3.2-1.8-4.4c-1.2-1.2-2.7-1.8-4.5-1.8c-1.8,0-3.3,0.6-4.5,1.7
		C2277.7,39.5,2277.1,40.9,2277.1,42.5L2277.1,42.5z M2275.5,60.3c0,1.4,0.3,2.7,0.9,3.9c0.6,1.3,1.6,2.2,2.9,2.9
		c1.3,0.7,2.6,1,4.1,1c2.3,0,4.2-0.7,5.6-2.2c1.5-1.5,2.2-3.3,2.2-5.6c0-2.3-0.8-4.2-2.3-5.7c-1.5-1.5-3.4-2.2-5.7-2.2
		c-2.2,0-4.1,0.7-5.5,2.2C2276.2,56.3,2275.5,58.1,2275.5,60.3L2275.5,60.3z M2302,38.2v-5.4h4.7v5.4H2302L2302,38.2z M2302,71.4
		v-28h4.7v28H2302L2302,71.4z M2314,71.4v-28h4.3v4c2-3,5-4.6,8.9-4.6c1.7,0,3.2,0.3,4.6,0.9c1.4,0.6,2.5,1.4,3.2,2.4
		c0.7,1,1.2,2.1,1.5,3.5c0.2,0.9,0.3,2.4,0.3,4.6v17.2h-4.7v-17c0-1.9-0.2-3.4-0.5-4.3c-0.4-1-1-1.7-2-2.3c-0.9-0.6-2-0.9-3.3-0.9
		c-2,0-3.7,0.6-5.2,1.9c-1.5,1.3-2.2,3.7-2.2,7.3v15.3H2314L2314,71.4z M2362.2,61.2l4.6,0.6c-0.5,3.2-1.8,5.7-3.9,7.5
		c-2.1,1.8-4.7,2.7-7.7,2.7c-3.8,0-6.9-1.2-9.2-3.7c-2.3-2.5-3.5-6.1-3.5-10.7c0-3,0.5-5.7,1.5-7.9c1-2.3,2.5-4,4.6-5.1
		c2-1.1,4.3-1.7,6.7-1.7c3,0,5.5,0.8,7.4,2.3c1.9,1.5,3.2,3.7,3.7,6.5l-4.6,0.7c-0.4-1.9-1.2-3.3-2.3-4.2c-1.1-0.9-2.5-1.4-4-1.4
		c-2.4,0-4.3,0.9-5.8,2.6c-1.5,1.7-2.2,4.4-2.2,8.1c0,3.8,0.7,6.5,2.2,8.2c1.4,1.7,3.3,2.6,5.6,2.6c1.9,0,3.4-0.6,4.7-1.7
		C2361.1,65.3,2361.9,63.6,2362.2,61.2L2362.2,61.2z M2370.9,71.4V32.8h4.7v13.9c2.2-2.6,5-3.9,8.3-3.9c2.1,0,3.8,0.4,5.4,1.2
		c1.5,0.8,2.6,1.9,3.3,3.4c0.7,1.4,1,3.5,1,6.3v17.7h-4.7V53.8c0-2.4-0.5-4.1-1.5-5.2c-1-1.1-2.5-1.6-4.3-1.6
		c-1.4,0-2.7,0.4-3.9,1.1c-1.2,0.7-2.1,1.7-2.6,3c-0.5,1.2-0.8,3-0.8,5.1v15.3H2370.9z"/>
	<g>
		<rect x="2252.2" y="650.7" class="st1" width="85" height="85"/>
		<path class="st2" d="M2278.5,686.1l2.3-0.2c0.1,0.8,0.4,1.4,0.8,1.7c0.4,0.4,1,0.5,1.7,0.5c0.8,0,1.3-0.2,1.7-0.5
			c0.4-0.3,0.6-0.7,0.6-1.1c0-0.3-0.1-0.5-0.2-0.7c-0.2-0.2-0.4-0.4-0.9-0.5c-0.3-0.1-0.9-0.3-1.9-0.5c-1.3-0.3-2.2-0.7-2.7-1.2
			c-0.7-0.7-1.1-1.5-1.1-2.4c0-0.6,0.2-1.2,0.5-1.7c0.3-0.5,0.8-0.9,1.5-1.2c0.6-0.3,1.4-0.4,2.3-0.4c1.5,0,2.6,0.3,3.3,1
			c0.8,0.7,1.1,1.5,1.2,2.6l-2.4,0.1c-0.1-0.6-0.3-1.1-0.7-1.3c-0.3-0.3-0.8-0.4-1.5-0.4c-0.7,0-1.2,0.1-1.6,0.4
			c-0.3,0.2-0.4,0.4-0.4,0.7c0,0.3,0.1,0.5,0.4,0.7c0.3,0.3,1,0.5,2.2,0.8c1.2,0.3,2,0.6,2.6,0.9c0.6,0.3,1,0.7,1.3,1.2
			c0.3,0.5,0.5,1.1,0.5,1.9c0,0.7-0.2,1.3-0.6,1.9c-0.4,0.6-0.9,1-1.6,1.3c-0.7,0.3-1.5,0.4-2.6,0.4c-1.5,0-2.6-0.3-3.4-1
			C2279.2,688.4,2278.7,687.4,2278.5,686.1L2278.5,686.1z M2290.2,680.1V678h2.3v2.1H2290.2L2290.2,680.1z M2290.2,689.9v-8.6h2.3
			v8.6H2290.2L2290.2,689.9z M2293.8,689.9v-1.8l3.2-3.7c0.5-0.6,0.9-1,1.2-1.3c-0.3,0-0.6,0-1,0l-3,0v-1.9h7.1v1.6l-3.3,3.8
			l-1.2,1.3c0.6,0,1,0,1.2,0h3.5v2H2293.8L2293.8,689.9z M2308,687.2l2.3,0.4c-0.3,0.8-0.8,1.5-1.4,1.9c-0.6,0.4-1.4,0.7-2.4,0.7
			c-1.5,0-2.6-0.5-3.3-1.5c-0.6-0.8-0.8-1.8-0.8-3c0-1.4,0.4-2.5,1.1-3.3c0.7-0.8,1.7-1.2,2.8-1.2c1.3,0,2.3,0.4,3,1.3
			c0.7,0.8,1.1,2.1,1.1,3.9h-5.7c0,0.7,0.2,1.2,0.5,1.6c0.3,0.4,0.8,0.6,1.3,0.6c0.4,0,0.7-0.1,0.9-0.3
			C2307.7,687.9,2307.9,687.6,2308,687.2L2308,687.2z M2308.1,684.9c0-0.7-0.2-1.2-0.5-1.5c-0.3-0.3-0.7-0.5-1.2-0.5
			c-0.5,0-0.9,0.2-1.2,0.5c-0.3,0.4-0.5,0.9-0.5,1.5H2308.1L2308.1,684.9z M2260.6,708.4h-2.3v-8.6h2.1v1.2c0.4-0.6,0.7-1,1-1.1
			c0.3-0.2,0.6-0.3,1-0.3c0.5,0,1,0.1,1.5,0.4l-0.7,2c-0.4-0.2-0.7-0.4-1.1-0.4c-0.3,0-0.6,0.1-0.8,0.3c-0.2,0.2-0.4,0.5-0.5,0.9
			c-0.1,0.5-0.2,1.4-0.2,2.9V708.4L2260.6,708.4z M2269.9,705.7l2.3,0.4c-0.3,0.8-0.8,1.5-1.4,1.9c-0.6,0.4-1.4,0.7-2.4,0.7
			c-1.5,0-2.6-0.5-3.3-1.5c-0.6-0.8-0.8-1.8-0.8-3c0-1.4,0.4-2.5,1.1-3.3c0.7-0.8,1.7-1.2,2.8-1.2c1.3,0,2.3,0.4,3,1.3
			c0.7,0.8,1.1,2.1,1.1,3.9h-5.7c0,0.7,0.2,1.2,0.5,1.6c0.3,0.4,0.8,0.6,1.3,0.6c0.4,0,0.7-0.1,0.9-0.3
			C2269.5,706.4,2269.7,706.1,2269.9,705.7L2269.9,705.7z M2270,703.4c0-0.7-0.2-1.2-0.5-1.5c-0.3-0.3-0.7-0.5-1.2-0.5
			c-0.5,0-0.9,0.2-1.2,0.5c-0.3,0.4-0.5,0.9-0.5,1.5H2270L2270,703.4z M2273.1,699.8h1.3v-0.6c0-0.7,0.1-1.3,0.2-1.6
			c0.2-0.4,0.4-0.6,0.9-0.9c0.4-0.2,0.9-0.3,1.6-0.3c0.6,0,1.3,0.1,1.9,0.3l-0.3,1.6c-0.4-0.1-0.7-0.1-1.1-0.1
			c-0.3,0-0.6,0.1-0.7,0.2c-0.1,0.2-0.2,0.5-0.2,0.9v0.6h1.7v1.8h-1.7v6.8h-2.3v-6.8h-1.3V699.8L2273.1,699.8z M2284.6,705.7
			l2.3,0.4c-0.3,0.8-0.8,1.5-1.4,1.9c-0.6,0.4-1.4,0.7-2.4,0.7c-1.5,0-2.6-0.5-3.3-1.5c-0.6-0.8-0.8-1.8-0.8-3
			c0-1.4,0.4-2.5,1.1-3.3c0.7-0.8,1.7-1.2,2.8-1.2c1.3,0,2.3,0.4,3,1.3c0.7,0.8,1.1,2.1,1.1,3.9h-5.7c0,0.7,0.2,1.2,0.5,1.6
			c0.3,0.4,0.8,0.6,1.3,0.6c0.4,0,0.7-0.1,0.9-0.3C2284.3,706.4,2284.4,706.1,2284.6,705.7L2284.6,705.7z M2284.7,703.4
			c0-0.7-0.2-1.2-0.5-1.5c-0.3-0.3-0.7-0.5-1.2-0.5c-0.5,0-0.9,0.2-1.2,0.5c-0.3,0.4-0.5,0.9-0.5,1.5H2284.7L2284.7,703.4z
			 M2291,708.4h-2.3v-8.6h2.1v1.2c0.4-0.6,0.7-1,1-1.1c0.3-0.2,0.6-0.3,1-0.3c0.5,0,1,0.1,1.5,0.4l-0.7,2c-0.4-0.2-0.7-0.4-1.1-0.4
			c-0.3,0-0.6,0.1-0.8,0.3c-0.2,0.2-0.4,0.5-0.5,0.9c-0.1,0.5-0.2,1.4-0.2,2.9V708.4L2291,708.4z M2300.2,705.7l2.3,0.4
			c-0.3,0.8-0.7,1.5-1.4,1.9c-0.6,0.4-1.4,0.7-2.4,0.7c-1.5,0-2.6-0.5-3.3-1.5c-0.6-0.8-0.8-1.8-0.8-3c0-1.4,0.4-2.5,1.1-3.3
			c0.7-0.8,1.7-1.2,2.8-1.2c1.3,0,2.3,0.4,3,1.3c0.7,0.8,1.1,2.1,1.1,3.9h-5.7c0,0.7,0.2,1.2,0.5,1.6c0.3,0.4,0.8,0.6,1.3,0.6
			c0.4,0,0.7-0.1,0.9-0.3C2299.9,706.4,2300.1,706.1,2300.2,705.7L2300.2,705.7z M2300.3,703.4c0-0.7-0.2-1.2-0.5-1.5
			c-0.3-0.3-0.7-0.5-1.2-0.5c-0.5,0-0.9,0.2-1.2,0.5c-0.3,0.4-0.5,0.9-0.5,1.5H2300.3L2300.3,703.4z M2312.2,708.4h-2.3V704
			c0-0.9,0-1.5-0.1-1.8c-0.1-0.3-0.3-0.5-0.5-0.6c-0.2-0.2-0.5-0.2-0.8-0.2c-0.4,0-0.8,0.1-1.1,0.3c-0.3,0.2-0.5,0.5-0.6,0.9
			c-0.1,0.4-0.2,1-0.2,2v3.9h-2.3v-8.6h2.1v1.3c0.8-1,1.7-1.4,2.8-1.4c0.5,0,1,0.1,1.4,0.3c0.4,0.2,0.7,0.4,0.9,0.7
			c0.2,0.3,0.4,0.6,0.4,1c0.1,0.4,0.1,0.9,0.1,1.5V708.4L2312.2,708.4z M2322,702.3l-2.2,0.4c-0.1-0.4-0.2-0.8-0.5-1
			c-0.3-0.2-0.6-0.3-1-0.3c-0.6,0-1,0.2-1.4,0.6c-0.3,0.4-0.5,1-0.5,2c0,1,0.2,1.7,0.5,2.2c0.3,0.4,0.8,0.6,1.4,0.6
			c0.4,0,0.8-0.1,1.1-0.4c0.3-0.2,0.5-0.7,0.6-1.3l2.2,0.4c-0.2,1-0.7,1.8-1.3,2.3c-0.7,0.5-1.5,0.8-2.6,0.8c-1.3,0-2.3-0.4-3-1.2
			c-0.7-0.8-1.1-1.9-1.1-3.3c0-1.4,0.4-2.5,1.1-3.3c0.7-0.8,1.8-1.2,3-1.2c1,0,1.9,0.2,2.5,0.7
			C2321.3,700.7,2321.7,701.4,2322,702.3L2322,702.3z M2328.7,705.7l2.3,0.4c-0.3,0.8-0.7,1.5-1.4,1.9c-0.6,0.4-1.4,0.7-2.4,0.7
			c-1.5,0-2.6-0.5-3.3-1.5c-0.6-0.8-0.8-1.8-0.8-3c0-1.4,0.4-2.5,1.1-3.3c0.7-0.8,1.7-1.2,2.8-1.2c1.3,0,2.3,0.4,3,1.3
			c0.7,0.8,1.1,2.1,1.1,3.9h-5.7c0,0.7,0.2,1.2,0.5,1.6c0.3,0.4,0.8,0.6,1.3,0.6c0.4,0,0.7-0.1,0.9-0.3
			C2328.4,706.4,2328.6,706.1,2328.7,705.7L2328.7,705.7z M2328.8,703.4c0-0.7-0.2-1.2-0.5-1.5c-0.3-0.3-0.7-0.5-1.2-0.5
			c-0.5,0-0.9,0.2-1.2,0.5c-0.3,0.4-0.5,0.9-0.5,1.5H2328.8z"/>
		<line class="st3" x1="2344.3" y1="735.7" x2="2393.6" y2="735.7"/>
		<line class="st3" x1="2344.3" y1="650.7" x2="2393.6" y2="650.7"/>
		<line class="st3" x1="2386.5" y1="708.7" x2="2386.5" y2="735.7"/>
		<line class="st3" x1="2386.5" y1="650.7" x2="2386.5" y2="676.7"/>
		<path class="st4" d="M2388.5,705.1l-0.1-1.1c0.6-0.1,1-0.3,1.3-0.6c0.3-0.3,0.4-0.6,0.4-1.1c0-0.5-0.2-0.9-0.5-1.3
			c-0.3-0.3-0.8-0.5-1.3-0.5c-0.5,0-0.9,0.2-1.2,0.5c-0.3,0.3-0.5,0.7-0.5,1.2c0,0.2,0,0.4,0.1,0.7l-0.9-0.1c0-0.1,0-0.1,0-0.2
			c0-0.5-0.1-0.9-0.4-1.2c-0.2-0.4-0.6-0.5-1.1-0.5c-0.4,0-0.7,0.1-1,0.4c-0.3,0.3-0.4,0.6-0.4,1c0,0.4,0.1,0.8,0.4,1
			c0.3,0.3,0.6,0.5,1.2,0.5l-0.2,1.1c-0.7-0.1-1.3-0.4-1.6-0.9c-0.4-0.5-0.6-1-0.6-1.7c0-0.5,0.1-0.9,0.3-1.3
			c0.2-0.4,0.5-0.7,0.8-0.9c0.3-0.2,0.7-0.3,1.1-0.3c0.4,0,0.7,0.1,1,0.3c0.3,0.2,0.5,0.5,0.7,0.9c0.1-0.5,0.4-0.9,0.7-1.2
			c0.4-0.3,0.8-0.4,1.4-0.4c0.8,0,1.4,0.3,1.9,0.8c0.5,0.5,0.8,1.2,0.8,2.1c0,0.8-0.2,1.4-0.7,1.9
			C2389.8,704.7,2389.3,705,2388.5,705.1L2388.5,705.1z M2388.5,690.7l0.1-1c0.7,0.1,1.3,0.4,1.7,0.9c0.4,0.5,0.6,1,0.6,1.7
			c0,0.9-0.3,1.5-0.8,2c-0.6,0.5-1.4,0.8-2.4,0.8c-0.7,0-1.3-0.1-1.8-0.3c-0.5-0.2-0.9-0.6-1.1-1c-0.3-0.5-0.4-0.9-0.4-1.5
			c0-0.7,0.2-1.2,0.5-1.7c0.3-0.4,0.8-0.7,1.5-0.8l0.2,1c-0.4,0.1-0.7,0.3-0.9,0.5c-0.2,0.2-0.3,0.5-0.3,0.9c0,0.5,0.2,1,0.6,1.3
			c0.4,0.3,1,0.5,1.8,0.5c0.8,0,1.4-0.2,1.8-0.5c0.4-0.3,0.6-0.7,0.6-1.3c0-0.4-0.1-0.8-0.4-1C2389.5,691,2389.1,690.8,2388.5,690.7
			L2388.5,690.7z M2390.8,688.8h-6.2v-0.9h0.9c-0.3-0.2-0.6-0.5-0.7-0.8c-0.2-0.3-0.3-0.7-0.3-1.1c0-0.5,0.1-0.8,0.3-1.1
			c0.2-0.3,0.5-0.5,0.8-0.6c-0.7-0.5-1.1-1.1-1.1-1.9c0-0.6,0.2-1.1,0.5-1.4c0.3-0.3,0.9-0.5,1.6-0.5h4.3v1.1h-3.9
			c-0.4,0-0.7,0-0.9,0.1c-0.2,0.1-0.3,0.2-0.4,0.4c-0.1,0.2-0.2,0.4-0.2,0.6c0,0.4,0.1,0.8,0.4,1.1c0.3,0.3,0.8,0.4,1.4,0.4h3.6v1.1
			h-4c-0.5,0-0.8,0.1-1.1,0.3c-0.2,0.2-0.4,0.5-0.4,0.8c0,0.3,0.1,0.6,0.2,0.8c0.2,0.3,0.4,0.4,0.7,0.5c0.3,0.1,0.7,0.2,1.3,0.2h3.2
			V688.8z"/>
		<line class="st3" x1="2252.2" y1="742.8" x2="2252.2" y2="782.5"/>
		<line class="st3" x1="2337.2" y1="742.8" x2="2337.2" y2="782.5"/>
		<line class="st3" x1="2279.2" y1="775.4" x2="2252.2" y2="775.4"/>
		<line class="st3" x1="2337.2" y1="775.4" x2="2311.3" y2="775.4"/>
		<path class="st4" d="M2282.8,777.5l1.1-0.1c0.1,0.6,0.3,1,0.6,1.3c0.3,0.3,0.6,0.4,1.1,0.4c0.5,0,0.9-0.2,1.3-0.5
			c0.3-0.3,0.5-0.8,0.5-1.3c0-0.5-0.2-0.9-0.5-1.2c-0.3-0.3-0.7-0.5-1.2-0.5c-0.2,0-0.4,0-0.7,0.1l0.1-0.9c0.1,0,0.1,0,0.2,0
			c0.5,0,0.9-0.1,1.2-0.4c0.4-0.2,0.5-0.6,0.5-1.1c0-0.4-0.1-0.7-0.4-1c-0.3-0.3-0.6-0.4-1-0.4c-0.4,0-0.8,0.1-1,0.4
			c-0.3,0.3-0.4,0.7-0.5,1.2l-1.1-0.2c0.1-0.7,0.4-1.3,0.9-1.6c0.5-0.4,1-0.6,1.7-0.6c0.5,0,0.9,0.1,1.3,0.3
			c0.4,0.2,0.7,0.5,0.9,0.8c0.2,0.3,0.3,0.7,0.3,1.1c0,0.4-0.1,0.7-0.3,1c-0.2,0.3-0.5,0.5-0.9,0.7c0.5,0.1,0.9,0.4,1.2,0.7
			c0.3,0.4,0.4,0.8,0.4,1.4c0,0.8-0.3,1.4-0.8,1.9c-0.5,0.5-1.2,0.8-2.1,0.8c-0.8,0-1.4-0.2-1.9-0.7
			C2283.2,778.8,2282.9,778.2,2282.8,777.5L2282.8,777.5z M2297.2,777.5l1,0.1c-0.1,0.7-0.4,1.3-0.9,1.7c-0.5,0.4-1,0.6-1.7,0.6
			c-0.9,0-1.5-0.3-2.1-0.8c-0.5-0.6-0.8-1.4-0.8-2.4c0-0.7,0.1-1.3,0.3-1.8c0.2-0.5,0.6-0.9,1-1.1c0.5-0.3,0.9-0.4,1.5-0.4
			c0.7,0,1.2,0.2,1.7,0.5c0.4,0.3,0.7,0.8,0.8,1.5l-1,0.2c-0.1-0.4-0.3-0.7-0.5-0.9c-0.2-0.2-0.5-0.3-0.9-0.3c-0.5,0-1,0.2-1.3,0.6
			c-0.3,0.4-0.5,1-0.5,1.8c0,0.8,0.2,1.4,0.5,1.8c0.3,0.4,0.7,0.6,1.3,0.6c0.4,0,0.8-0.1,1-0.4C2297,778.4,2297.1,778,2297.2,777.5
			L2297.2,777.5z M2299.1,779.7v-6.2h0.9v0.9c0.2-0.3,0.5-0.6,0.8-0.7c0.3-0.2,0.7-0.3,1.1-0.3c0.5,0,0.8,0.1,1.1,0.3
			c0.3,0.2,0.5,0.5,0.6,0.8c0.5-0.7,1.1-1.1,1.9-1.1c0.6,0,1.1,0.2,1.4,0.5c0.3,0.3,0.5,0.9,0.5,1.6v4.3h-1.1v-3.9
			c0-0.4,0-0.7-0.1-0.9c-0.1-0.2-0.2-0.3-0.4-0.4c-0.2-0.1-0.4-0.2-0.6-0.2c-0.4,0-0.8,0.1-1.1,0.4c-0.3,0.3-0.4,0.8-0.4,1.4v3.6
			h-1.1v-4c0-0.5-0.1-0.8-0.3-1.1c-0.2-0.2-0.5-0.4-0.8-0.4c-0.3,0-0.6,0.1-0.8,0.2c-0.3,0.2-0.4,0.4-0.5,0.7
			c-0.1,0.3-0.2,0.7-0.2,1.3v3.2H2299.1z"/>
		<line class="st3" x1="2337.2" y1="742.8" x2="2337.2" y2="761.4"/>
		<line class="st3" x1="2252.2" y1="742.8" x2="2252.2" y2="761.4"/>
		<line class="st3" x1="2363.7" y1="754.3" x2="2337.2" y2="754.3"/>
		<line class="st3" x1="2252.2" y1="754.3" x2="2225.7" y2="754.3"/>
		<path class="st4" d="M2269.4,758.6h-1.1v-6.7c-0.3,0.2-0.6,0.5-1,0.7c-0.4,0.2-0.8,0.4-1.1,0.5v-1c0.6-0.3,1.1-0.6,1.5-1
			c0.4-0.4,0.8-0.8,0.9-1.1h0.7V758.6L2269.4,758.6z M2272.7,758.6v-1.2h1.2v1.2H2272.7L2272.7,758.6z M2279.4,758.6h-1.1v-6.7
			c-0.3,0.2-0.6,0.5-1,0.7c-0.4,0.2-0.8,0.4-1.1,0.5v-1c0.6-0.3,1.1-0.6,1.5-1c0.4-0.4,0.8-0.8,0.9-1.1h0.7V758.6L2279.4,758.6z
			 M2283.7,754c-0.4-0.2-0.8-0.4-1-0.7c-0.2-0.3-0.3-0.7-0.3-1.1c0-0.6,0.2-1.2,0.7-1.6c0.4-0.4,1-0.6,1.8-0.6
			c0.7,0,1.4,0.2,1.8,0.7c0.5,0.4,0.7,1,0.7,1.6c0,0.4-0.1,0.7-0.3,1c-0.2,0.3-0.5,0.5-0.9,0.7c0.5,0.2,0.9,0.4,1.2,0.8
			c0.3,0.4,0.4,0.8,0.4,1.4c0,0.7-0.3,1.3-0.8,1.8c-0.5,0.5-1.2,0.8-2,0.8c-0.8,0-1.5-0.2-2-0.8c-0.5-0.5-0.8-1.1-0.8-1.9
			c0-0.6,0.1-1,0.4-1.4C2282.8,754.4,2283.2,754.1,2283.7,754L2283.7,754z M2283.5,752.2c0,0.4,0.1,0.7,0.4,1c0.3,0.3,0.6,0.4,1,0.4
			c0.4,0,0.7-0.1,1-0.4c0.3-0.3,0.4-0.6,0.4-0.9c0-0.4-0.1-0.7-0.4-1c-0.3-0.3-0.6-0.4-1-0.4c-0.4,0-0.7,0.1-1,0.4
			C2283.6,751.5,2283.5,751.8,2283.5,752.2L2283.5,752.2z M2283.2,756.2c0,0.3,0.1,0.6,0.2,0.9c0.1,0.3,0.4,0.5,0.6,0.7
			c0.3,0.2,0.6,0.2,0.9,0.2c0.5,0,0.9-0.2,1.3-0.5c0.3-0.3,0.5-0.7,0.5-1.2c0-0.5-0.2-0.9-0.5-1.3c-0.3-0.3-0.8-0.5-1.3-0.5
			c-0.5,0-0.9,0.2-1.2,0.5C2283.3,755.3,2283.2,755.7,2283.2,756.2L2283.2,756.2z M2292.4,751.2V750h1.1v1.2H2292.4L2292.4,751.2z
			 M2292.4,758.6v-6.2h1.1v6.2H2292.4L2292.4,758.6z M2295.1,758.6v-6.2h0.9v0.9c0.5-0.7,1.1-1,2-1c0.4,0,0.7,0.1,1,0.2
			c0.3,0.1,0.6,0.3,0.7,0.5c0.2,0.2,0.3,0.5,0.3,0.8c0,0.2,0.1,0.5,0.1,1v3.8h-1.1v-3.8c0-0.4,0-0.8-0.1-1c-0.1-0.2-0.2-0.4-0.4-0.5
			c-0.2-0.1-0.5-0.2-0.7-0.2c-0.4,0-0.8,0.1-1.2,0.4c-0.3,0.3-0.5,0.8-0.5,1.6v3.4H2295.1L2295.1,758.6z M2305.8,756.4l1,0.1
			c-0.1,0.7-0.4,1.3-0.9,1.7c-0.5,0.4-1,0.6-1.7,0.6c-0.9,0-1.5-0.3-2.1-0.8c-0.5-0.6-0.8-1.4-0.8-2.4c0-0.7,0.1-1.3,0.3-1.8
			c0.2-0.5,0.6-0.9,1-1.1c0.5-0.3,0.9-0.4,1.5-0.4c0.7,0,1.2,0.2,1.7,0.5c0.4,0.3,0.7,0.8,0.8,1.5l-1,0.2c-0.1-0.4-0.3-0.7-0.5-0.9
			c-0.2-0.2-0.5-0.3-0.9-0.3c-0.5,0-1,0.2-1.3,0.6c-0.3,0.4-0.5,1-0.5,1.8c0,0.8,0.2,1.4,0.5,1.8c0.3,0.4,0.7,0.6,1.3,0.6
			c0.4,0,0.8-0.1,1-0.4C2305.5,757.3,2305.7,756.9,2305.8,756.4L2305.8,756.4z M2307.7,758.6V750h1.1v3.1c0.5-0.6,1.1-0.9,1.9-0.9
			c0.5,0,0.9,0.1,1.2,0.3c0.3,0.2,0.6,0.4,0.7,0.8c0.1,0.3,0.2,0.8,0.2,1.4v3.9h-1.1v-3.9c0-0.5-0.1-0.9-0.3-1.1
			c-0.2-0.2-0.5-0.4-1-0.4c-0.3,0-0.6,0.1-0.9,0.2c-0.3,0.2-0.5,0.4-0.6,0.7c-0.1,0.3-0.2,0.7-0.2,1.1v3.4H2307.7L2307.7,758.6z
			 M2318.6,756.6l1.1,0.1c-0.2,0.6-0.5,1.1-1,1.5c-0.5,0.4-1.1,0.5-1.8,0.5c-0.9,0-1.6-0.3-2.2-0.8c-0.5-0.6-0.8-1.3-0.8-2.4
			c0-1,0.3-1.9,0.8-2.4c0.5-0.6,1.2-0.9,2.1-0.9c0.8,0,1.5,0.3,2,0.8c0.5,0.6,0.8,1.4,0.8,2.4c0,0.1,0,0.2,0,0.3h-4.6
			c0,0.7,0.2,1.2,0.6,1.6c0.3,0.4,0.8,0.5,1.3,0.5c0.4,0,0.7-0.1,1-0.3C2318.3,757.4,2318.5,757.1,2318.6,756.6L2318.6,756.6z
			 M2315.2,754.9h3.5c0-0.5-0.2-0.9-0.4-1.2c-0.3-0.4-0.8-0.6-1.3-0.6c-0.5,0-0.9,0.2-1.2,0.5
			C2315.4,753.9,2315.2,754.4,2315.2,754.9L2315.2,754.9z M2320.7,756.8l1-0.2c0.1,0.4,0.2,0.7,0.5,1c0.3,0.2,0.6,0.3,1.1,0.3
			c0.5,0,0.8-0.1,1.1-0.3c0.2-0.2,0.4-0.4,0.4-0.7c0-0.2-0.1-0.4-0.3-0.6c-0.1-0.1-0.5-0.2-1.1-0.4c-0.8-0.2-1.3-0.4-1.6-0.5
			c-0.3-0.1-0.5-0.3-0.7-0.6c-0.2-0.2-0.2-0.5-0.2-0.8c0-0.3,0.1-0.5,0.2-0.8c0.1-0.2,0.3-0.4,0.5-0.6c0.2-0.1,0.4-0.2,0.7-0.3
			c0.3-0.1,0.6-0.1,0.9-0.1c0.5,0,0.9,0.1,1.3,0.2c0.4,0.1,0.6,0.3,0.8,0.6c0.2,0.2,0.3,0.6,0.4,1l-1,0.1c0-0.3-0.2-0.6-0.4-0.8
			s-0.5-0.3-0.9-0.3c-0.5,0-0.8,0.1-1,0.2c-0.2,0.2-0.3,0.3-0.3,0.6c0,0.1,0,0.3,0.1,0.4c0.1,0.1,0.2,0.2,0.4,0.3
			c0.1,0,0.4,0.1,0.9,0.3c0.7,0.2,1.3,0.4,1.6,0.5c0.3,0.1,0.5,0.3,0.7,0.6c0.2,0.2,0.3,0.5,0.3,0.9c0,0.4-0.1,0.7-0.3,1
			c-0.2,0.3-0.5,0.5-0.9,0.7c-0.4,0.2-0.8,0.3-1.3,0.3c-0.8,0-1.4-0.2-1.8-0.5C2321,757.9,2320.8,757.4,2320.7,756.8z"/>
		<line class="st3" x1="2344.3" y1="735.7" x2="2370.8" y2="735.7"/>
		<line class="st3" x1="2344.3" y1="650.7" x2="2370.8" y2="650.7"/>
		<line class="st3" x1="2363.7" y1="762.2" x2="2363.7" y2="735.7"/>
		<line class="st3" x1="2363.7" y1="650.7" x2="2363.7" y2="624.2"/>
		<path class="st4" d="M2368,718.6v1.1h-6.7c0.2,0.3,0.5,0.6,0.7,1c0.2,0.4,0.4,0.8,0.5,1.1h-1c-0.3-0.6-0.6-1.1-1-1.5
			c-0.4-0.4-0.8-0.8-1.1-0.9v-0.7H2368L2368,718.6z M2368,715.3h-1.2v-1.2h1.2V715.3L2368,715.3z M2368,708.5v1.1h-6.7
			c0.2,0.3,0.5,0.6,0.7,1c0.2,0.4,0.4,0.8,0.5,1.1h-1c-0.3-0.6-0.6-1.1-1-1.5c-0.4-0.4-0.8-0.8-1.1-0.9v-0.7H2368L2368,708.5z
			 M2363.3,704.2c-0.2,0.4-0.4,0.8-0.7,1c-0.3,0.2-0.7,0.3-1.1,0.3c-0.6,0-1.1-0.2-1.6-0.7c-0.4-0.4-0.6-1-0.6-1.8
			c0-0.7,0.2-1.4,0.7-1.8s1-0.7,1.6-0.7c0.4,0,0.7,0.1,1,0.3c0.3,0.2,0.5,0.5,0.7,0.9c0.2-0.5,0.4-0.9,0.8-1.2
			c0.4-0.3,0.8-0.4,1.4-0.4c0.7,0,1.3,0.3,1.9,0.8c0.5,0.5,0.8,1.2,0.8,2c0,0.8-0.2,1.5-0.8,2c-0.5,0.5-1.1,0.8-1.9,0.8
			c-0.6,0-1-0.1-1.4-0.4C2363.7,705.1,2363.5,704.7,2363.3,704.2L2363.3,704.2z M2361.6,704.4c0.4,0,0.7-0.1,1-0.4
			c0.3-0.3,0.4-0.6,0.4-1c0-0.4-0.1-0.7-0.4-1c-0.3-0.3-0.6-0.4-0.9-0.4c-0.4,0-0.7,0.1-1,0.4c-0.3,0.3-0.4,0.6-0.4,1
			c0,0.4,0.1,0.7,0.4,1C2360.9,704.3,2361.2,704.4,2361.6,704.4L2361.6,704.4z M2365.5,704.8c0.3,0,0.6-0.1,0.9-0.2
			c0.3-0.1,0.5-0.4,0.7-0.6c0.2-0.3,0.2-0.6,0.2-0.9c0-0.5-0.2-0.9-0.5-1.3c-0.3-0.3-0.7-0.5-1.2-0.5c-0.5,0-0.9,0.2-1.3,0.5
			c-0.3,0.3-0.5,0.8-0.5,1.3c0,0.5,0.2,0.9,0.5,1.2C2364.6,704.6,2365,704.8,2365.5,704.8L2365.5,704.8z M2360.6,695.5h-1.2v-1.1
			h1.2V695.5L2360.6,695.5z M2368,695.5h-6.2v-1.1h6.2V695.5L2368,695.5z M2368,692.9h-6.2v-0.9h0.9c-0.7-0.5-1-1.1-1-2
			c0-0.4,0.1-0.7,0.2-1c0.1-0.3,0.3-0.5,0.5-0.7c0.2-0.2,0.5-0.3,0.8-0.3c0.2,0,0.5-0.1,1-0.1h3.8v1.1h-3.8c-0.4,0-0.8,0-1,0.1
			c-0.2,0.1-0.4,0.2-0.5,0.4c-0.1,0.2-0.2,0.5-0.2,0.7c0,0.4,0.1,0.8,0.4,1.2c0.3,0.3,0.8,0.5,1.6,0.5h3.4V692.9L2368,692.9z
			 M2365.7,682.1l0.1-1c0.7,0.1,1.3,0.4,1.7,0.9c0.4,0.5,0.6,1,0.6,1.7c0,0.9-0.3,1.5-0.8,2c-0.6,0.5-1.4,0.8-2.4,0.8
			c-0.7,0-1.3-0.1-1.8-0.3c-0.5-0.2-0.9-0.6-1.1-1c-0.3-0.5-0.4-0.9-0.4-1.5c0-0.7,0.2-1.2,0.5-1.7c0.3-0.4,0.8-0.7,1.5-0.8l0.2,1
			c-0.4,0.1-0.7,0.3-0.9,0.5c-0.2,0.2-0.3,0.5-0.3,0.9c0,0.5,0.2,1,0.6,1.3c0.4,0.3,1,0.5,1.8,0.5c0.8,0,1.4-0.2,1.8-0.5
			c0.4-0.3,0.6-0.7,0.6-1.3c0-0.4-0.1-0.8-0.4-1C2366.6,682.4,2366.3,682.2,2365.7,682.1L2365.7,682.1z M2368,680.2h-8.6v-1.1h3.1
			c-0.6-0.5-0.9-1.1-0.9-1.9c0-0.5,0.1-0.9,0.3-1.2c0.2-0.3,0.4-0.6,0.8-0.7s0.8-0.2,1.4-0.2h3.9v1.1h-3.9c-0.5,0-0.9,0.1-1.1,0.3
			c-0.2,0.2-0.4,0.5-0.4,1c0,0.3,0.1,0.6,0.2,0.9c0.2,0.3,0.4,0.5,0.7,0.6c0.3,0.1,0.7,0.2,1.1,0.2h3.4V680.2L2368,680.2z
			 M2366,669.3l0.1-1.1c0.6,0.2,1.1,0.5,1.5,1s0.5,1.1,0.5,1.8c0,0.9-0.3,1.6-0.8,2.2c-0.6,0.5-1.3,0.8-2.4,0.8
			c-1,0-1.9-0.3-2.4-0.8c-0.6-0.5-0.9-1.2-0.9-2.1c0-0.8,0.3-1.5,0.8-2c0.6-0.5,1.4-0.8,2.4-0.8c0.1,0,0.2,0,0.3,0v4.6
			c0.7,0,1.2-0.2,1.6-0.6c0.4-0.3,0.5-0.8,0.5-1.3c0-0.4-0.1-0.7-0.3-1C2366.8,669.7,2366.4,669.4,2366,669.3L2366,669.3z
			 M2364.3,672.7v-3.5c-0.5,0-0.9,0.2-1.2,0.4c-0.4,0.3-0.6,0.8-0.6,1.3c0,0.5,0.2,0.9,0.5,1.2
			C2363.3,672.5,2363.8,672.7,2364.3,672.7L2364.3,672.7z M2366.1,667.3l-0.2-1c0.4-0.1,0.7-0.2,1-0.5c0.2-0.3,0.3-0.6,0.3-1.1
			c0-0.5-0.1-0.8-0.3-1.1c-0.2-0.2-0.4-0.4-0.7-0.4c-0.2,0-0.4,0.1-0.6,0.3c-0.1,0.1-0.2,0.5-0.4,1.1c-0.2,0.8-0.4,1.3-0.5,1.6
			c-0.1,0.3-0.3,0.5-0.6,0.7c-0.2,0.2-0.5,0.2-0.8,0.2c-0.3,0-0.5-0.1-0.8-0.2c-0.2-0.1-0.4-0.3-0.6-0.5c-0.1-0.2-0.2-0.4-0.3-0.7
			c-0.1-0.3-0.1-0.6-0.1-0.9c0-0.5,0.1-0.9,0.2-1.3c0.1-0.4,0.3-0.6,0.6-0.8c0.2-0.2,0.6-0.3,1-0.4l0.1,1c-0.3,0-0.6,0.2-0.8,0.4
			c-0.2,0.2-0.3,0.5-0.3,0.9c0,0.5,0.1,0.8,0.2,1c0.2,0.2,0.3,0.3,0.6,0.3c0.1,0,0.3,0,0.4-0.1c0.1-0.1,0.2-0.2,0.3-0.4
			c0-0.1,0.1-0.4,0.3-0.9c0.2-0.7,0.4-1.3,0.5-1.6c0.1-0.3,0.3-0.5,0.6-0.7c0.2-0.2,0.5-0.3,0.9-0.3c0.4,0,0.7,0.1,1,0.3
			c0.3,0.2,0.6,0.5,0.7,0.9c0.2,0.4,0.3,0.8,0.3,1.3c0,0.8-0.2,1.4-0.5,1.8C2367.3,666.9,2366.8,667.2,2366.1,667.3z"/>
	</g>
	<g>
		<path class="st6" d="M1316.6,773.5h-9.2v-1.6h9.2V773.5L1316.6,773.5z M1316.6,769.2h-9.2v-1.6h9.2V769.2L1316.6,769.2z
			 M1295.3,777.4l-3.1-10.1h1.8l1.6,5.8l0.6,2.2c0-0.1,0.2-0.8,0.5-2.1l1.6-5.9h1.8l1.5,5.9l0.5,1.9l0.6-2l1.7-5.8h1.7l-3.2,10.1
			h-1.8l-1.6-6l-0.4-1.7l-2,7.8H1295.3L1295.3,777.4z M1283.8,772.4c0,1.3,0.3,2.3,0.8,2.9c0.6,0.6,1.3,1,2.1,1c0.9,0,1.6-0.3,2.1-1
			c0.6-0.6,0.8-1.6,0.8-3c0-1.2-0.3-2.2-0.9-2.8c-0.6-0.6-1.3-1-2.1-1c-0.9,0-1.6,0.3-2.1,1C1284.1,770.1,1283.8,771.1,1283.8,772.4
			L1283.8,772.4z M1282.1,772.4c0-1.9,0.5-3.2,1.6-4.1c0.9-0.7,1.9-1.1,3.2-1.1c1.4,0,2.5,0.5,3.4,1.4c0.9,0.9,1.3,2.2,1.3,3.8
			c0,1.3-0.2,2.3-0.6,3.1c-0.4,0.7-1,1.3-1.7,1.7c-0.7,0.4-1.6,0.6-2.4,0.6c-1.4,0-2.6-0.5-3.4-1.4
			C1282.5,775.4,1282.1,774.1,1282.1,772.4L1282.1,772.4z M1278.3,777.4v-13.9h1.7v13.9H1278.3L1278.3,777.4z M1274,777.4v-13.9h1.7
			v13.9H1274L1274,777.4z M1264.5,771.4h5.6c-0.1-0.9-0.3-1.5-0.6-1.9c-0.5-0.7-1.2-1-2.1-1c-0.8,0-1.4,0.3-2,0.8
			C1264.9,769.8,1264.6,770.5,1264.5,771.4L1264.5,771.4z M1270.1,774.2l1.8,0.2c-0.3,1-0.8,1.8-1.5,2.4c-0.8,0.6-1.7,0.9-2.9,0.9
			c-1.5,0-2.6-0.5-3.5-1.4c-0.9-0.9-1.3-2.2-1.3-3.8c0-1.7,0.4-3,1.3-3.9c0.9-0.9,2-1.4,3.4-1.4c1.3,0,2.4,0.5,3.3,1.4
			c0.9,0.9,1.3,2.2,1.3,3.9c0,0.1,0,0.3,0,0.5h-7.5c0.1,1.1,0.4,2,0.9,2.5c0.6,0.6,1.3,0.9,2.1,0.9c0.6,0,1.2-0.2,1.6-0.5
			C1269.5,775.4,1269.8,774.9,1270.1,774.2L1270.1,774.2z M1256.2,777.4h1.8v-5.9l5.6-8h-2.2l-2.7,4.1c-0.6,0.9-1.1,1.7-1.5,2.5
			c-0.4-0.8-0.9-1.6-1.4-2.3l-2.8-4.2h-2.2l5.4,8V777.4z"/>
		<path class="st7" d="M1323.2,773.4l1.5-0.1c0.1,0.6,0.2,1.1,0.5,1.5c0.3,0.4,0.7,0.7,1.2,1c0.6,0.2,1.2,0.4,1.9,0.4
			c0.6,0,1.2-0.1,1.6-0.3c0.5-0.2,0.8-0.4,1-0.8c0.2-0.3,0.3-0.7,0.3-1c0-0.4-0.1-0.7-0.3-1c-0.2-0.3-0.6-0.5-1.1-0.7
			c-0.3-0.1-1-0.3-2.2-0.6c-1.1-0.3-1.9-0.5-2.3-0.8c-0.6-0.3-1-0.7-1.3-1.1c-0.3-0.4-0.4-1-0.4-1.5c0-0.6,0.2-1.2,0.5-1.7
			c0.3-0.5,0.9-0.9,1.5-1.2c0.7-0.3,1.4-0.4,2.2-0.4c0.9,0,1.7,0.1,2.4,0.4c0.7,0.3,1.2,0.7,1.6,1.3c0.4,0.6,0.6,1.2,0.6,1.9
			l-1.5,0.1c-0.1-0.8-0.4-1.3-0.8-1.7c-0.5-0.4-1.2-0.6-2.1-0.6c-1,0-1.7,0.2-2.1,0.5c-0.4,0.4-0.7,0.8-0.7,1.3
			c0,0.4,0.2,0.8,0.5,1.1c0.3,0.3,1.1,0.6,2.4,0.9c1.3,0.3,2.2,0.6,2.7,0.8c0.7,0.3,1.2,0.7,1.6,1.2c0.3,0.5,0.5,1.1,0.5,1.7
			c0,0.6-0.2,1.3-0.6,1.8c-0.4,0.6-0.9,1-1.6,1.3c-0.7,0.3-1.5,0.5-2.3,0.5c-1.1,0-2-0.2-2.8-0.5c-0.7-0.3-1.3-0.8-1.7-1.4
			C1323.4,774.9,1323.2,774.2,1323.2,773.4L1323.2,773.4z M1343.7,773l1.6,0.4c-0.3,1.3-0.9,2.3-1.8,3c-0.9,0.7-1.9,1-3.2,1
			c-1.3,0-2.4-0.3-3.2-0.8c-0.8-0.5-1.4-1.3-1.9-2.3c-0.4-1-0.6-2.1-0.6-3.3c0-1.3,0.2-2.4,0.7-3.3c0.5-0.9,1.2-1.7,2.1-2.1
			c0.9-0.5,1.9-0.7,2.9-0.7c1.2,0,2.2,0.3,3.1,0.9c0.8,0.6,1.4,1.5,1.7,2.6l-1.6,0.4c-0.3-0.9-0.7-1.5-1.2-1.9
			c-0.5-0.4-1.2-0.6-2-0.6c-0.9,0-1.7,0.2-2.3,0.7c-0.6,0.4-1.1,1-1.3,1.8c-0.3,0.8-0.4,1.5-0.4,2.3c0,1,0.1,1.9,0.4,2.7
			c0.3,0.8,0.8,1.3,1.4,1.7c0.6,0.4,1.3,0.6,2.1,0.6c0.9,0,1.7-0.3,2.3-0.8C1343.1,774.8,1343.5,774.1,1343.7,773L1343.7,773z
			 M1346.8,771.4c0-2,0.5-3.6,1.6-4.7c1.1-1.1,2.5-1.7,4.2-1.7c1.1,0,2.1,0.3,3,0.8c0.9,0.5,1.6,1.3,2.1,2.2c0.5,1,0.7,2,0.7,3.3
			c0,1.2-0.2,2.3-0.7,3.3c-0.5,1-1.2,1.7-2.1,2.2c-0.9,0.5-1.9,0.7-3,0.7c-1.1,0-2.2-0.3-3.1-0.8c-0.9-0.6-1.6-1.3-2-2.3
			C1347,773.5,1346.8,772.4,1346.8,771.4L1346.8,771.4z M1348.5,771.4c0,1.5,0.4,2.6,1.2,3.5c0.8,0.8,1.8,1.3,3,1.3
			c1.2,0,2.2-0.4,3-1.3c0.8-0.8,1.2-2.1,1.2-3.6c0-1-0.2-1.8-0.5-2.6c-0.3-0.7-0.8-1.3-1.5-1.7c-0.6-0.4-1.4-0.6-2.2-0.6
			c-1.1,0-2.1,0.4-2.9,1.2C1348.9,768.3,1348.5,769.6,1348.5,771.4L1348.5,771.4z M1360.5,777.3v-12.2h5.4c1.1,0,1.9,0.1,2.5,0.3
			c0.6,0.2,1,0.6,1.3,1.2c0.3,0.6,0.5,1.2,0.5,1.8c0,0.9-0.3,1.6-0.8,2.2c-0.6,0.6-1.4,1-2.6,1.1c0.4,0.2,0.7,0.4,1,0.6
			c0.5,0.4,0.9,1,1.3,1.6l2.1,3.3h-2l-1.6-2.5c-0.5-0.7-0.9-1.3-1.2-1.7c-0.3-0.4-0.6-0.7-0.8-0.8c-0.2-0.2-0.5-0.3-0.7-0.3
			c-0.2,0-0.5-0.1-0.9-0.1h-1.9v5.4H1360.5L1360.5,777.3z M1362.1,770.5h3.5c0.7,0,1.3-0.1,1.7-0.2c0.4-0.1,0.7-0.4,0.9-0.7
			c0.2-0.3,0.3-0.7,0.3-1.1c0-0.6-0.2-1-0.6-1.4c-0.4-0.4-1.1-0.6-2-0.6h-3.8V770.5L1362.1,770.5z M1372.8,777.3v-12.2h8.8v1.4h-7.2
			v3.7h6.7v1.4h-6.7v4.1h7.5v1.4H1372.8z"/>
		<path class="st7" d="M1392,777.3v-12.5h1.7v5.2h6.5v-5.2h1.7v12.5h-1.7v-5.9h-6.5v5.9H1392L1392,777.3z M1410.3,776.2
			c-0.6,0.5-1.1,0.8-1.7,1c-0.5,0.2-1.1,0.3-1.7,0.3c-1,0-1.8-0.2-2.3-0.7c-0.5-0.5-0.8-1.1-0.8-1.9c0-0.4,0.1-0.8,0.3-1.2
			c0.2-0.4,0.5-0.7,0.8-0.9c0.3-0.2,0.7-0.4,1.1-0.5c0.3-0.1,0.8-0.2,1.4-0.2c1.2-0.1,2.2-0.3,2.7-0.5c0-0.2,0-0.3,0-0.4
			c0-0.6-0.1-1.1-0.4-1.3c-0.4-0.3-1-0.5-1.8-0.5c-0.7,0-1.3,0.1-1.6,0.4c-0.3,0.3-0.6,0.7-0.8,1.3l-1.5-0.2
			c0.1-0.6,0.4-1.2,0.7-1.6c0.3-0.4,0.8-0.7,1.4-0.9c0.6-0.2,1.3-0.3,2.1-0.3c0.8,0,1.4,0.1,1.9,0.3c0.5,0.2,0.8,0.4,1.1,0.7
			c0.2,0.3,0.4,0.6,0.5,1c0,0.3,0.1,0.7,0.1,1.4v2c0,1.4,0,2.3,0.1,2.7c0.1,0.4,0.2,0.7,0.4,1.1h-1.6
			C1410.5,777,1410.4,776.6,1410.3,776.2L1410.3,776.2z M1410.2,772.8c-0.6,0.2-1.4,0.4-2.5,0.6c-0.6,0.1-1.1,0.2-1.3,0.3
			c-0.3,0.1-0.5,0.3-0.6,0.5c-0.1,0.2-0.2,0.5-0.2,0.7c0,0.4,0.2,0.7,0.5,1c0.3,0.3,0.8,0.4,1.4,0.4c0.6,0,1.1-0.1,1.6-0.4
			c0.5-0.3,0.8-0.6,1-1.1c0.2-0.3,0.2-0.9,0.2-1.5L1410.2,772.8L1410.2,772.8z M1414.1,777.3v-12.5h1.5v12.5H1414.1L1414.1,777.3z
			 M1418.4,777.3v-7.9h-1.4v-1.2h1.4v-1c0-0.6,0.1-1.1,0.2-1.4c0.1-0.4,0.4-0.7,0.8-1c0.4-0.2,0.9-0.4,1.6-0.4
			c0.4,0,0.9,0.1,1.4,0.2l-0.2,1.3c-0.3-0.1-0.6-0.1-0.9-0.1c-0.5,0-0.8,0.1-1,0.3c-0.2,0.2-0.3,0.6-0.3,1.1v0.8h1.8v1.2h-1.7v7.9
			H1418.4L1418.4,777.3z M1436.8,772.9l1.7,0.4c-0.3,1.4-1,2.4-1.9,3.1c-0.9,0.7-2,1.1-3.3,1.1c-1.3,0-2.4-0.3-3.3-0.8
			c-0.8-0.5-1.5-1.3-1.9-2.4c-0.4-1-0.7-2.2-0.7-3.4c0-1.3,0.2-2.4,0.7-3.4c0.5-1,1.2-1.7,2.1-2.2c0.9-0.5,1.9-0.8,3-0.8
			c1.3,0,2.3,0.3,3.2,1c0.9,0.6,1.4,1.5,1.8,2.7l-1.6,0.4c-0.3-0.9-0.7-1.6-1.3-2c-0.6-0.4-1.2-0.6-2.1-0.6c-1,0-1.8,0.2-2.4,0.7
			c-0.6,0.5-1.1,1.1-1.4,1.9c-0.3,0.8-0.4,1.6-0.4,2.4c0,1.1,0.2,2,0.5,2.8c0.3,0.8,0.8,1.4,1.4,1.8c0.7,0.4,1.4,0.6,2.1,0.6
			c0.9,0,1.7-0.3,2.4-0.8C1436.2,774.8,1436.6,774,1436.8,772.9L1436.8,772.9z M1446.3,777.3V776c-0.7,1-1.7,1.5-2.9,1.5
			c-0.5,0-1-0.1-1.5-0.3c-0.5-0.2-0.8-0.5-1-0.8c-0.2-0.3-0.4-0.7-0.5-1.1c-0.1-0.3-0.1-0.8-0.1-1.4v-5.6h1.5v5c0,0.8,0,1.3,0.1,1.6
			c0.1,0.4,0.3,0.7,0.6,1c0.3,0.2,0.7,0.3,1.2,0.3c0.5,0,0.9-0.1,1.3-0.4c0.4-0.2,0.7-0.6,0.9-1c0.2-0.4,0.3-1,0.3-1.8v-4.9h1.5v9.1
			H1446.3L1446.3,777.3z M1453.4,775.9l0.2,1.4c-0.4,0.1-0.8,0.1-1.2,0.1c-0.6,0-1-0.1-1.3-0.3c-0.3-0.2-0.5-0.4-0.6-0.7
			c-0.1-0.3-0.2-0.9-0.2-1.8v-5.2h-1.1v-1.2h1.1V766l1.5-0.9v3.2h1.5v1.2h-1.5v5.3c0,0.4,0,0.7,0.1,0.8c0.1,0.1,0.1,0.2,0.3,0.3
			c0.1,0.1,0.3,0.1,0.5,0.1C1452.9,776,1453.2,776,1453.4,775.9z"/>
		
			<rect x="1378.8" y="770.5" transform="matrix(0.2562 -0.9666 0.9666 0.2562 286.4341 1914.358)" class="st7" width="16.8" height="1"/>
	</g>
	<path class="st0" d="M1262.7,2.8h1108.1c25.1,0,45.6,20.5,45.6,45.6v702.3c0,25.1-20.5,45.6-45.6,45.6H1262.7
		c-25.1,0-45.6-20.5-45.6-45.6V48.4C1217.1,23.3,1237.6,2.8,1262.7,2.8z"/>
</g>
<g>
	<g>
		<polygon class="st8" points="765.5,378.8 765.5,389.1 765.5,399.5 757,399.5 757,389.1 757,378.8 		"/>
		
			<rect x="853.4" y="473.7" transform="matrix(0.9945 -0.1051 0.1051 0.9945 -45.4882 93.1264)" class="st8" width="14.2" height="8.5"/>
		
			<rect x="901.2" y="453.8" transform="matrix(0.7691 -0.6391 0.6391 0.7691 -83.0748 686.2114)" class="st8" width="14.2" height="8.5"/>
		
			<rect x="929.9" y="410.8" transform="matrix(0.2855 -0.9584 0.9584 0.2855 271.697 1194.5188)" class="st8" width="14.2" height="8.5"/>
		
			<rect x="856.3" y="293.2" transform="matrix(0.1051 -0.9945 0.9945 0.1051 471.4266 1124.4757)" class="st8" width="8.5" height="14.2"/>
		
			<rect x="904" y="313.1" transform="matrix(0.6391 -0.7691 0.7691 0.6391 81.5474 814.1762)" class="st8" width="8.5" height="14.2"/>
		
			<rect x="805.5" y="461" transform="matrix(0.4641 -0.8858 0.8858 0.4641 19.317 968.0775)" class="st8" width="8.5" height="14.2"/>
		
			<rect x="802.7" y="306" transform="matrix(0.8858 -0.4641 0.4641 0.8858 -51.4841 411.2523)" class="st8" width="14.2" height="8.5"/>
		<path class="st8" d="M789,307.7c-2.2,1.7-3.3,4-3.3,6.7v16c0,4.7-3.8,8.5-8.5,8.5h-2.4v-66.2c0-4.7-3.8-8.5-8.5-8.5h-20.8
			c-4.7,0-8.5,3.8-8.5,8.5c0,77.6,0,155.3,0,232.9c0,4.7,3.8,8.5,8.5,8.5h20.8c4.7,0,8.5-3.8,8.5-8.5v-66.2h2.4
			c4.7,0,8.5,3.8,8.5,8.5v16c0,2.7,1.2,5.1,3.3,6.7c17.3,13.3,39,21.2,62.5,21.2c56.7,0,102.7-46,102.7-102.7
			c0-56.7-46-102.7-102.7-102.7C828,286.4,806.3,294.4,789,307.7z"/>
		
			<rect x="932.7" y="356.2" transform="matrix(0.9584 -0.2855 0.2855 0.9584 -64.7124 282.6506)" class="st8" width="8.5" height="14.2"/>
		
			<ellipse transform="matrix(0.2228 -0.9749 0.9749 0.2228 282.4114 1132.5446)" class="st9" cx="851.5" cy="389.1" rx="72.3" ry="72.3"/>
	</g>
	<path class="st8" d="M407.7,508.2c0,35.2-28.6,63.8-63.8,63.8c-35.2,0-63.8-28.6-63.8-63.8c0-35.2,28.6-63.8,63.8-63.8
		C379.1,444.4,407.7,473,407.7,508.2L407.7,508.2z M416.2,508.2c0,39.9-32.4,72.3-72.3,72.3s-72.3-32.4-72.3-72.3
		c0-39.9,32.4-72.3,72.3-72.3S416.2,468.3,416.2,508.2z"/>
	<path class="st8" d="M719.9,508.7V399.4h8.5v-20.4h-8.5v-95.9c-1.3,0-2.6-0.1-3.9-0.5c-1-0.3-1.9-0.6-2.8-1.1
		c-1.4-0.7-3.2,0.1-3.4,1.6l-2.4,19.3c-0.1,0.8-0.7,1.4-1.5,1.7c-15.9,5.5-32.9,8.1-49.9,7.4c-14.8-0.6-29.5-3.6-43.2-8.6
		c-5.8-2.1-11.4-4.5-16.8-7.3c-0.8-0.4-1.3-1.2-1.2-2.1c1.6-11.4,3.1-22.8,4.7-34.2c0.3-1.9-2.2-3.1-3.7-1.8
		c-2.4,1.9-4.9,3.7-7.5,5.3c-6.3,3.8-13.2,6.7-20.4,8.5c-3,0.8-6,1.3-9,1.7c-1,0.1-1.8,0.9-1.9,1.8c-0.5,4-0.9,7.9-1.4,11.9
		c-0.1,1-1.1,1.8-2.2,1.9c-8.2,0.2-16.2-2.2-22.7-6.8c-0.8-0.6-1.1-1.6-0.7-2.5c0.9-1.9,1.8-4.1,2.6-6.7c0.4-1.6,0.8-3.1,1-4.6
		c0.2-1.5-1.3-2.7-2.9-2.3c-12.7,3.7-25.5,6.9-38.4,9.6c-0.8,0.2-1.7-0.1-2.2-0.7c-5.3-5.6-11.8-9.6-18.8-11.6
		c-0.9-0.3-1.8-0.5-2.8-0.7c-1.3-0.3-2-1.4-1.7-2.6l0.5-1.7c0.4-1.1-0.4-2.3-1.7-2.6c-0.6-0.1-1.3-0.3-2.1-0.5
		c-1.4-0.4-2.9-0.9-4.5-2.1c-0.1-0.1-0.2-0.2-0.3-0.3c-1.3-1-3.4-0.4-3.7,1.2c-0.7,3.2-1.5,6.5-2.4,9.9c-0.9,3.6-1.9,7-3,10.3
		c-0.5,1.5,0.9,2.9,2.5,2.6c1.3-0.2,2.8-0.3,4.5,0c1.1,0.2,2.1,0.4,3,0.7c1.3,0.5,2.8-0.3,3.1-1.5c0.1-0.5,0.2-1,0.4-1.5
		c0.2-1,1.2-1.7,2.2-1.6c3.6,0,7.1,0.7,10.4,1.9c2.1,0.8,1.7,3.6-0.5,4c-12.8,2.2-26.4,3.9-40.6,5.2c-1.2,0.1-2.5,0.2-3.7,0.3
		c-2.4,0.2-2.9,3.1-0.7,4c3.4,1.3,6.7,2.7,9.9,4.3c9.5,4.9,17.9,11.5,24.7,19.3c1.7,2,3.3,4,4.8,6.1c1.1,1.5-0.3,3.5-2.2,3.2
		c-14.6-2-29.5-2.3-44.1-0.8c-3.6,0.3-7.1,0.8-10.7,1.3c-1.5,0.2-2.8-0.9-2.7-2.2c0.3-4.5,0-9.1-1-13.5c-0.5-2.4-1.3-4.7-2.1-7
		c-0.6-1.6-2.9-1.9-4-0.6c-4.1,5.1-8.6,9.7-14,13.8c-9.9,7.5-21.7,12.9-34,16.3c-3.8,1-7.5,1.8-11.4,2.4c-1.4,0.2-2.3,1.6-1.7,2.8
		c2.1,4.9,4.1,9.8,5.9,14.7c0.5,1.3-0.5,2.6-2,2.7c-5.6,0.4-11.1-1.2-15.4-4.6c-0.6-0.5-0.9-1.2-0.8-1.9c0.7-4.8,0.6-9.6-0.3-14.4
		c-0.5-2.7-1.4-5.4-2.4-7.9c-0.6-1.4-2.5-1.8-3.7-0.8c-8.7,7.8-18.2,14.7-28.7,20.4c-13,7.1-27.1,12.4-41.8,15.7
		c-4,0.9-8.1,1.6-12.1,2.2c-2.1,0.3-2.6,2.8-0.8,3.8c9.9,5.5,19.2,11.5,27.9,18.5c2.1,1.7,4.2,3.5,6.2,5.3c1.4,1.2,0.6,3.3-1.3,3.6
		c-4,0.5-7.9,1.3-11.6,2.5c-1.2,0.4-2.6-0.3-2.9-1.4l-0.9-3c-0.4-1.2-1.9-1.9-3.1-1.3c-2.9,1.2-5.9,2-9.3,1.8
		c-1.3-0.1-2.6-0.3-3.9-0.7c-1.8-0.5-3.4,1.1-2.8,2.7c3.5,8.9,6.6,18,8.9,27.3c0.4,1.7,2.8,2.2,4,0.9c0.9-1,1.9-2,3.1-2.8
		c2.2-1.6,4.9-2.7,7.6-3.2c0.5-0.1,1.1-0.2,1.6-0.2c1.6-0.2,2.5-1.7,1.8-3l-1.1-2.1c-0.5-1-0.1-2.3,1.1-2.8
		c6.8-2.9,14.2-4.3,21.7-4.3c0.7,0,1.3,0.3,1.7,0.8c3.7,4.2,7.6,9,11.4,14.4c3.1,4.4,5.8,8.6,8.1,12.5c0.9,1.5,3.3,1.4,4.1-0.2
		c2.4-5.2,4.4-10.5,5.7-16c0.2-1.1,1.3-1.8,2.5-1.6c12.4,1.3,25.1,0.4,37.1-2.7c1.4-0.4,2.8,0.5,2.9,1.9c0.2,3.8,0.3,7.6,0.4,11.4
		c0,1.1,0.9,2,2.1,2c19.6,1.4,39,6.4,55.4,16.7c2.2,1.4,4.2,2.8,6.2,4.3c1.5,1.1,3.7,0.1,3.7-1.6c0-1.3-0.1-2.6-0.2-4
		c-0.4-3.9-1.2-7.7-2.4-11.4c-0.4-1.1,0.3-2.2,1.4-2.6c13.7-4.3,28.3-6.2,42.8-5.8c3.6,0.1,7.2,0.3,10.8,0.7
		c1.4,0.1,2.3,1.4,1.9,2.6c-2.5,8.7-6.5,17-11.9,24.5c-1,1.3-2,2.6-3.1,3.9c-0.8,1-2.3,1.1-3.3,0.3c-3.3-2.7-7.4-4.4-11.8-4.8
		c-1.4-0.1-2.4-1.4-1.9-2.7l0.5-1.4c0.4-1.3-0.6-2.6-2.1-2.7c-1.6-0.1-3.2-0.2-4.8-0.7c-1.1-0.3-2.1-0.7-3.1-1.2
		c-1.4-0.7-3.2,0.1-3.3,1.6c-0.3,2.9-0.8,5.8-1.4,8.7c-0.7,2.9-1.6,5.7-2.7,8.5c-0.5,1.4,0.6,2.8,2.2,2.7c1.5,0,2.9,0,4.4,0.3
		c1.3,0.3,2.6,0.7,3.8,1.3c1.4,0.6,3.1-0.2,3.2-1.7l0.2-2c0.1-1.1,1.2-1.9,2.4-1.9c2.8,0.2,5.5,0.9,8,1.9c1.4,0.6,1.8,2.3,0.7,3.3
		c-5.3,5.1-12,10.7-20.1,16.2c-3.7,2.5-7.4,4.7-10.9,6.7c-2,1.1-1,4,1.3,3.8c7.2-0.4,15.7-0.4,25.1,0.7c3.4,0.4,16.4,1.9,32.6,7.2
		c8.3,2.7,19.1,7,30.9,13.8c1.6,0.9,3.7-0.3,3.5-2.1c-0.3-2-0.7-4.1-1.1-6.2c-0.8-3.8-1.7-7.3-2.7-10.6c-0.2-0.8,0.1-1.7,0.9-2.2
		c3.8-2.4,8.1-4.1,12.6-4.9c1.5-0.3,2.9,0.9,2.7,2.2c-0.3,2.8-0.6,5.5-0.9,8.3c-0.1,0.9,0.5,1.8,1.4,2.1c6.1,2.2,11.7,5.1,16.8,9
		c1.4,1.1,4.7,3.7,8.3,7.8c1.8,2.1,3.4,4.2,4.7,6.1c1.1,1.7,4,1.1,4.2-0.9c0.6-7.1,1.2-14.2,1.8-21.3c0.3-3.1,0.5-6.3,0.8-9.4
		c0.1-0.8,0.6-1.5,1.4-1.8c13.6-5,27.7-8.9,42.1-11.5c15.3-2.8,30.9-4.2,46.5-4.2c8,0,16.1,0.4,24.1,1.1c1.3,0.1,2.2,1.2,2,2.3
		l-3,24.3c-0.2,1.6,1.7,2.8,3.3,2.1c2.8-1.3,5.8-2.5,8.9-3.2c5.7-1.4,11.8-1.6,17.6-0.7c1.1,0.2,1.9,1.1,1.9,2.1
		c0,0.5-0.1,1-0.1,1.5c0,0.7-0.6,1.2-1.3,1.2l-41.5,2.2c-1.3,0.1-2.4-0.9-2.4-2.1c0.1-2.7,0.1-5.4,0.2-8.1c0-1.3-1.2-2.2-2.5-2.1
		c-3.1,0.3-6.2,0.6-9.3,1c-1.4,0.1-2.3,1.4-1.9,2.6c0.8,2.5,1.6,4.9,2.4,7.4c0.4,1.3-0.6,2.6-2.1,2.7c-5.3,0.2-10.6,0.4-15.9,0.6
		c-1.3,0-2.3,1.1-2.2,2.3c0.3,2.5,0.6,5,0.9,7.5c0.1,1.2,1.3,2,2.6,1.8l16.2-2.6c1.4-0.2,2.7,0.8,2.6,2.2c-0.2,2.7-0.3,5.4-0.5,8.1
		c-0.1,1.3,1.1,2.3,2.5,2.2c3.2-0.4,6.4-0.7,9.5-1.1c1.4-0.2,2.3-1.4,1.9-2.6c-0.9-2.7-1.8-5.4-2.7-8.1c-0.4-1.2,0.5-2.5,1.9-2.6
		c13.4-1.5,26.7-3,40.1-4.5c0.5-0.1,0.9,0.3,0.9,0.7c0.1,1.4,1.7,2.3,3.1,1.7C718.3,509.2,719.1,508.9,719.9,508.7L719.9,508.7z
		 M663.2,430.3c1.6,0,2.9,1.3,2.7,2.7l-0.4,4c-0.1,1.2-1.2,2.2-2.5,2.3c-4.3,0.3-8.6,0.7-12.9,1c-1.5,0.1-2.8-0.9-2.9-2.3l-0.5-4.9
		c-0.2-1.5,1.1-2.7,2.7-2.7L663.2,430.3L663.2,430.3z M638.8,430.4c1.5,0,2.7,1,2.9,2.4l0.6,5.3c0.2,1.5-1,2.8-2.6,2.9
		c-7.3,0.5-14.7,0.9-22.1,1.4c-1.5,0.1-2.9-1-3-2.4l-0.7-6.6c-0.2-1.5,1.2-2.9,2.8-2.9L638.8,430.4L638.8,430.4z M608.6,432.4
		c0.4,2.7,0.7,5.4,1.1,8.1c0.2,1.2-0.8,2.3-2.2,2.4c-4.8,0.2-9.6,0.5-14.4,0.7c-1.6,0.1-2.7-1.3-2.4-2.7c0.9-3.5,3.9-6.5,6.9-8.2
		c3.1-1.7,7.1-2.1,7.3-2.2c0.4,0,0.8-0.1,1.2-0.1C607.4,430.5,608.4,431.3,608.6,432.4L608.6,432.4z M664.6,445.8l-0.6,5.5
		c-0.1,0.9-0.9,1.6-1.9,1.6l-11.6,0.3c-1,0-1.9-0.7-2-1.6l-0.5-4.8c-0.1-1,0.7-1.9,1.8-1.9c4.2-0.3,8.4-0.6,12.7-0.9
		C663.7,443.7,664.7,444.6,664.6,445.8L664.6,445.8z M536.4,456.4l-0.7,6.9c-0.1,0.6-1,0.8-1.3,0.2c-0.9-1.6-1.6-3.2-2.2-4.8
		c-0.3-0.9,0.2-1.8,1.1-2.1c0.7-0.3,1.5-0.5,2.2-0.8C535.9,455.6,536.4,455.9,536.4,456.4L536.4,456.4z M615.5,448.9
		c-0.1-1.1,0.8-2,1.9-2c7.9-0.4,15.8-0.9,23.6-1.5c1.1-0.1,2.1,0.7,2.2,1.7l0.4,4.2c0.1,1.1-0.8,2-2,2.1l-23.8,0.5
		c-1.1,0-2-0.7-2.1-1.7L615.5,448.9L615.5,448.9z M610.5,448.6l0.4,3.9c0.1,0.8-0.6,1.5-1.5,1.5l-6.4,0.1c-0.1,0-0.2,0-0.3,0
		c-3.2-0.5-6.2-1.9-8.4-3.7c-1-0.8-0.4-2.4,1-2.4c4.6-0.2,9.1-0.4,13.7-0.7C609.7,447.3,610.4,447.8,610.5,448.6L610.5,448.6z
		 M531.2,445.1c0.7-0.1,1.4-0.3,2.2-0.4c0.8-0.1,1.6,0.4,1.7,1.1l0.7,4.2c0.1,0.6-0.3,1.2-0.9,1.5c-0.8,0.3-1.7,0.6-2.6,0.9
		c-0.9,0.3-1.8-0.2-2-1.1c-0.2-1.6-0.3-3.2-0.3-4.9C530.1,445.8,530.6,445.3,531.2,445.1L531.2,445.1z M523.7,446.9
		c0.8-0.2,1.7,0.3,1.7,1.1c0.1,1.9,0.3,3.7,0.6,5.5c0.1,0.6-0.2,1.1-0.8,1.3c-3.2,1.3-6.4,2.6-9.6,4.1c-0.8,0.4-1.8-0.1-1.9-1
		c-0.2-1.8-0.3-3.7-0.2-5.6c0-1.1,0.8-2.1,1.9-2.6C518,448.7,520.8,447.7,523.7,446.9L523.7,446.9z M507.2,453.5
		c0.7-0.4,1.6,0.1,1.6,0.8c0,2.1,0.2,4.1,0.6,6.1c0.1,0.7-0.2,1.3-0.9,1.7c-1.9,0.9-3.7,1.9-5.5,2.9c-0.7,0.4-1.6-0.1-1.6-0.8
		c-0.1-3,1-6,3-8.6c0.5-0.6,1.2-1.2,1.9-1.6C506.5,453.8,506.9,453.7,507.2,453.5L507.2,453.5z M479.3,461.5
		c3.5,0.3,6.7,1.9,8.8,4.4c0.6,0.7,0.3,1.8-0.7,2.1l-5,1.5c-0.7,0.2-1.5-0.1-1.8-0.7l-2.8-5.4C477.4,462.5,478.2,461.5,479.3,461.5
		L479.3,461.5z M472.8,464.3l3,5.8c0.4,0.7,0,1.6-0.9,1.9l-7.7,2.4c-1,0.3-2-0.4-2-1.3c0.1-3.6,2.1-7.1,5.4-9.2
		C471.4,463.3,472.4,463.6,472.8,464.3L472.8,464.3z M527.9,460.4c0.8,2.1,1.9,4.2,3.1,6.2c0.6,1,0.1,2.2-1,2.6l-9.4,3.8
		c-1,0.4-2.2,0-2.7-0.9c-1.1-2.2-2-4.4-2.7-6.7c-0.3-0.9,0.2-1.8,1-2.2c2.9-1.4,5.9-2.7,8.9-3.9
		C526.3,458.9,527.5,459.4,527.9,460.4L527.9,460.4z M510.9,467.1c0.8,2.5,1.8,4.8,3,7.1c0.3,0.6,0,1.2-0.6,1.5
		c-0.2,0.1-0.5,0.1-0.7,0.1c-3.8-0.6-7.1-2.4-9.1-5c-0.4-0.5-0.2-1.2,0.4-1.6c1.7-1,3.5-1.9,5.2-2.8
		C509.8,466.1,510.7,466.4,510.9,467.1L510.9,467.1z M481.8,482c0.3,0.6,0,1.4-0.8,1.6c-2.5,0.6-5.2,0.5-7.7-0.3
		c-2.2-0.7-4-1.8-5.4-3.3c-0.6-0.6-0.3-1.6,0.5-1.8l8.8-2.7c0.6-0.2,1.3,0.1,1.5,0.6L481.8,482L481.8,482z M490.4,473
		c-0.1,2.3-1,4.6-2.5,6.5c-0.5,0.7-1.7,0.6-2.1-0.2l-2.3-4.4c-0.3-0.6,0-1.3,0.7-1.5l4.5-1.4C489.6,471.7,490.4,472.2,490.4,473
		L490.4,473z M682.3,403.1l-20.7,0.6c-1.6,0-2.8-1.2-2.7-2.6l0.7-5.4c0.2-1.2,1.3-2.2,2.7-2.1l20.6,0.8c1.5,0.1,2.6,1.3,2.4,2.7
		l-0.6,4C684.6,402.2,683.5,403.1,682.3,403.1L682.3,403.1z M656.8,377.8l-1,8.5c-0.2,1.4-1.5,2.5-3.1,2.4l-23.8-1
		c-1.7-0.1-2.9-1.4-2.8-2.9l0.5-9.6c0.1-1.5,1.6-2.7,3.3-2.6l24.3,2.1C655.8,375,657,376.3,656.8,377.8L656.8,377.8z M548.2,305.5
		l-1.4,7.9c-0.2,0.9-1.2,1.4-2.1,1.1c-1.2-0.4-2.5-0.9-3.7-1.3c-0.7-0.3-1.1-1-0.9-1.7c0.9-3.3,2.1-5.8,3.3-7.7
		c0.4-0.6,1.2-0.9,2-0.6l2,0.8C548,304.3,548.3,304.9,548.2,305.5L548.2,305.5z M537.6,300.3c1.1,0.4,1.5,1.6,1,2.6
		c-1.1,1.9-2,4-2.7,6.2c-0.3,1.1-1.7,1.7-2.8,1.2c-2.4-1-4.8-2-7.1-3.1c-0.9-0.4-1.3-1.3-1-2.2c0.7-2.3,1.6-4.5,2.7-6.7
		c0.5-0.9,1.7-1.3,2.7-0.9L537.6,300.3L537.6,300.3z M523.2,294.7c0.5,0.2,0.8,0.8,0.5,1.3c-1.3,2.4-2.3,4.9-3.2,7.5
		c-0.2,0.6-0.9,0.9-1.5,0.6c-1.7-0.9-3.5-1.8-5.2-2.8c-0.7-0.4-0.9-1.3-0.4-1.9c2-2.4,5.3-4.2,8.9-4.8c0.2,0,0.4,0,0.6,0.1
		L523.2,294.7L523.2,294.7z M534.2,322c0,1-1,1.7-2,1.4c-2.5-0.8-4.9-1.6-7.2-2.6c-1-0.4-1.7-1.3-1.7-2.4c-0.1-1.8,0-3.6,0.2-5.4
		c0.1-1,1.3-1.6,2.2-1.1c0.9,0.4,1.7,0.8,2.6,1.1c1.7,0.7,3.5,1.5,5.3,2.2c0.6,0.2,1,0.8,0.9,1.4c-0.2,1.4-0.2,2.8-0.2,4.2
		C534.2,321.2,534.2,321.6,534.2,322L534.2,322z M519.2,309.6c-0.2,1.4-0.4,2.8-0.5,4.3c-0.1,0.9-0.1,1.7-0.1,2.5
		c0,0.7-0.8,1.1-1.4,0.7c-0.5-0.3-1.1-0.6-1.6-0.9c-0.4-0.2-0.7-0.5-1-0.8c-2.4-2.7-3.6-6.1-3.5-9.3c0-0.6,0.8-1,1.4-0.7
		c2,1.1,4.1,2.2,6.2,3.2C519.1,308.9,519.3,309.3,519.2,309.6L519.2,309.6z M486.7,295.1l-8.4-2.6c-1-0.3-1.3-1.4-0.6-2.1
		c3.1-3.1,8.2-4.5,12.7-3.4c0.9,0.2,1.3,1.1,0.9,1.8l-2.9,5.6C488.1,295,487.4,295.3,486.7,295.1L486.7,295.1z M545.7,320.3
		l-0.9,4.8c-0.1,0.5-0.7,0.9-1.3,0.8c-1.1-0.2-2.2-0.4-3.2-0.6c-0.7-0.1-1.2-0.7-1.3-1.3c-0.1-1.5-0.2-3.4-0.1-5.5
		c0-0.7,0.8-1.1,1.5-0.9c1.5,0.5,3,1.1,4.5,1.6C545.5,319.3,545.8,319.8,545.7,320.3L545.7,320.3z M499.5,297.1
		c0.1,0.9-0.9,1.6-1.9,1.3l-4-1.2c-0.8-0.3-1.2-1.1-0.8-1.8l2-3.9c0.5-0.9,1.9-1,2.5-0.2C498.6,293,499.3,295,499.5,297.1
		L499.5,297.1z M622.1,373l-0.6,10.4c0,0.9-1.3,1.3-2,0.7l-10.5-9.6c-0.7-0.6-0.3-1.7,0.6-1.8c1.5-0.2,3.1-0.4,4.5-0.5
		c2.5-0.2,4.7-0.3,6.8-0.3C621.6,371.9,622.1,372.4,622.1,373L622.1,373z M482.2,306.4c-0.4,0.8-1.4,1-2.2,0.5
		c-3.2-2.1-5.3-5.6-5.4-9.2c0-0.9,1-1.6,2-1.3l7.7,2.4c0.8,0.3,1.2,1.1,0.9,1.9L482.2,306.4L482.2,306.4z M497.3,304.3
		c-2.1,2.7-5.6,4.4-9.2,4.6c-1,0.1-1.7-0.9-1.3-1.7l3-5.7c0.3-0.5,1-0.8,1.6-0.6l5.3,1.6C497.5,302.7,497.8,303.7,497.3,304.3
		L497.3,304.3z M683.6,390l-20.1-0.8c-1.7-0.1-3-1.4-2.8-3l1-8.1c0.2-1.5,1.6-2.5,3.2-2.4l20.2,1.7c1.7,0.1,2.9,1.5,2.6,3l-1,7.2
		C686.5,389,685.1,390.1,683.6,390L683.6,390z M621.7,337l-1.5,7.3c-0.3,1.3-1.6,2.2-3.1,2c-0.3,0-0.7-0.1-1-0.2
		c-0.3,0-4.2-0.8-7.1-2.7c-2.8-1.8-5.3-4.9-6-8.2c-0.4-1.7,1.2-3.2,3-2.9c4.5,0.6,9,1.2,13.4,1.8C621,334.3,622,335.6,621.7,337
		L621.7,337z M533.6,396c-0.4,4.2-0.9,8.3-1.3,12.5c-0.1,1.1-1.3,1.8-2.5,1.5c-3.2-1-7-1.9-11.2-2.6c-0.8-0.1-1.4-0.7-1.5-1.4
		c-0.8-5.1-1.4-10.4-1.8-15.5c-0.1-1.1,1.1-2,2.3-1.8c4.7,1,9.4,2.4,14,4.2C533,393.4,533.8,394.6,533.6,396L533.6,396z
		 M512.3,403.3c0.2,1.7-1.3,3.2-3.1,3.1c-4.2-0.3-8.1-0.2-11.5,0c-1.5,0.1-2.8-0.8-3.1-2.1c-1-4.3-2-9-2.8-13.8
		c-0.3-1.5,1-3,2.7-3.1c3.2-0.3,6.4-0.3,9.6-0.2c1.4,0,2.7,0.1,4.1,0.2c1.5,0.1,2.6,1.2,2.7,2.6
		C511.2,394.3,511.7,398.8,512.3,403.3L512.3,403.3z M651.4,404l-23.7,0.7c-1.5,0-2.7-1.1-2.6-2.5l0.4-7.9c0.1-1.3,1.3-2.3,2.7-2.2
		l24,1c1.5,0.1,2.6,1.3,2.4,2.6l-0.8,6.2C653.7,403.1,652.7,404,651.4,404L651.4,404z M620.9,395l-0.5,9.2c0,0.5-0.5,0.9-1.1,0.9
		c-2.1-0.1-4.4-0.4-7.2-0.7c-1.9-0.3-3.6-0.6-5.1-1c-0.8-0.2-1-1.2-0.3-1.6l12.6-7.5C620,393.8,620.9,394.3,620.9,395L620.9,395z
		 M467.8,387.3c0.2,1.2-0.9,2.2-2.2,2.2c-3.1-0.1-6.2,0-9.3,0.3c-2.9,0.3-5.8,0.8-8.6,1.5c-1.1,0.3-2.3-0.4-2.6-1.4
		c-0.9-3.5-1.7-7-2.3-10.5c-0.2-1,0.6-2,1.7-2.2c6.5-1.1,13.2-1.7,19.9-1.6c1.1,0,1.9,0.8,2.1,1.7
		C466.8,380.7,467.3,384,467.8,387.3L467.8,387.3z M614,392.6l-11.6,6.9c-1.2,0.7-2.7,0.6-3.7-0.2c-2.5-2-4.4-4.4-5.4-6.9
		c-0.5-1.1,0.5-2.3,1.8-2.3l18.5,1C614.4,391.3,614.7,392.2,614,392.6L614,392.6z M433,374.6c-4.9,0.7-9.8,1.3-14.7,1.9
		c-0.9,0.1-1.8-0.5-1.9-1.4c-0.7-6.4,0.5-12.9,3.1-18.6c0.5-1.1,2.2-1.3,2.9-0.2c1.4,2.1,2.9,4.3,4.4,6.4c2.3,3.2,4.7,6.4,7.1,9.5
		C434.8,373.2,434.2,374.5,433,374.6L433,374.6z M350.2,364.3l0,11.9c0,0.6-0.5,1.2-1.1,1.4c-0.6,0.2-1.3,0.3-2,0.4
		c-0.5,0.1-1,0.1-1.5,0.2c-0.9,0.1-1.7-0.6-1.7-1.4c0-4.3,0.6-8.5,1.8-12.6c0.2-0.6,0.7-1,1.3-1c0.5,0,0.9-0.1,1.4-0.2
		C349.4,362.8,350.2,363.5,350.2,364.3L350.2,364.3z M339.8,363c1.1,0.1,1.8,1.1,1.6,2.1c-0.9,3.7-1.4,7.5-1.4,11.4
		c0,1-0.9,1.8-2,1.7c-1.6-0.1-3.3-0.3-4.9-0.6c-1-0.2-1.6-1-1.5-1.8c0.4-3.8,0.9-7.6,1.6-11.4c0.3-1.4,1.8-2.3,3.3-1.9
		C337.5,362.7,338.6,362.9,339.8,363L339.8,363z M328.1,362.8c0.6-0.4,1.4,0.1,1.3,0.7c-0.7,4-1.3,8.1-1.7,12.1
		c0,0.5-0.6,0.8-1.1,0.7c-1.8-0.5-3.5-1.1-5.2-1.8c-0.8-0.4-1.3-1.2-1-2C321.8,368.7,324.5,365.3,328.1,362.8L328.1,362.8z
		 M434.8,380.5c-2.7,5.2-5.2,10.5-7.4,15.9c-0.3,0.7-1.3,0.9-1.9,0.3c-3.8-4.1-6.6-9-8-14.5c-0.2-0.6,0.3-1.2,0.9-1.2
		c5.1-0.6,10.1-1.2,15.1-1.9C434.5,379,435.2,379.8,434.8,380.5L434.8,380.5z M310.2,370.1c0,0.6-0.6,1-1.2,0.8l-2.7-0.8
		c-0.4-0.1-0.6-0.4-0.6-0.7c0-0.3-0.1-0.7-0.1-1c-0.1-0.4-0.1-0.7-0.2-1c-0.1-0.3,0-0.7,0.4-0.9l2.1-1.4c0.5-0.3,1.2-0.1,1.4,0.4
		C309.8,367,310.2,368.5,310.2,370.1L310.2,370.1z M305.5,361.5l-1.9,1.2c-0.4,0.3-0.9,0.2-1.3-0.1c-0.5-0.5-1.1-0.9-1.7-1.2
		c-0.4-0.2-0.5-0.7-0.4-1.1l0.8-2.1c0.2-0.5,0.9-0.8,1.5-0.5c1.1,0.7,2.1,1.4,3.1,2.3C306,360.5,305.9,361.2,305.5,361.5
		L305.5,361.5z M535.9,373.7c-0.4,4.3-0.9,8.6-1.3,13c-0.1,1.4-1.8,2.3-3.2,1.8c-4.5-1.7-9.1-3-13.7-3.9c-1.5-0.3-2.6-1.5-2.7-3
		c0-2.8,0-5.5,0.1-8.3c0.1-1.3,1.3-2.2,2.6-2c5.7,0.6,10.9,0.5,15.6,0.1C534.8,371.2,536.1,372.3,535.9,373.7L535.9,373.7z
		 M510.8,372.3c-0.1,3-0.2,5.9-0.2,8.9c0,1.2-1.1,2.2-2.4,2c-1.3-0.1-2.6-0.2-3.9-0.2c-3.8-0.1-7.6,0-11.3,0.3
		c-1.2,0.1-2.3-0.7-2.4-1.8c-0.2-1.6-0.4-3.2-0.6-4.9c-0.4-3.9-0.7-7.7-0.9-11.3c-0.1-1.6,1.8-2.7,3.3-1.9c4.5,2.4,9.9,4.6,16.3,6.2
		C510,370,510.9,371.1,510.8,372.3L510.8,372.3z M465.8,368.7c0.1,1.5-1.1,2.7-2.7,2.7c-3.2,0-6.4,0.1-9.6,0.4
		c-2.8,0.2-5.6,0.6-8.4,1c-1.6,0.3-3-0.8-3.2-2.2c-0.5-4.1-0.8-8.3-0.8-12.4c0-1.2,0.8-2.2,2.1-2.5c6.4-1.5,13-2,19.6-1.4
		c1.4,0.1,2.4,1.2,2.5,2.4C465.2,360.8,465.5,364.8,465.8,368.7L465.8,368.7z M615.5,386c0.5,0.5,0.1,1.3-0.6,1.3l-19.5-1.1
		c-1.5-0.1-2.5-1.5-1.9-2.8c1.6-3.4,4.7-6.2,7.9-8.1c0.9-0.5,2-0.4,2.7,0.3L615.5,386L615.5,386z M538,353.8
		c-0.4,3.6-0.7,7.1-1.1,10.7c-0.1,1.4-1.4,2.6-2.9,2.8c-4.6,0.5-10,0.7-15.8,0c-1.4-0.2-2.5-1.3-2.4-2.7c0.5-4.6,1.1-9.2,2-13.8
		c0.3-1.4,1.7-2.3,3.2-2c5.1,0.9,10,1.7,14.8,2.3C537.1,351.3,538.1,352.4,538,353.8L538,353.8z M513.6,349.2
		c-0.9,4.9-1.6,9.8-2.1,14.7c-0.1,1.2-1.4,2-2.6,1.7c-7.6-2-13.7-5-18.3-7.8c-1.2-0.7-1.9-1.9-1.9-3.2c0-3.8,0-7.4,0.1-10.9
		c0-1.3,1.4-2.1,2.7-1.7c6.3,1.8,13.2,3.6,20.5,5.1C513.1,347.3,513.8,348.3,513.6,349.2L513.6,349.2z M465.3,337.7
		c-0.2,3.6-0.3,7.3-0.3,10.9c0,1.1-1.1,2-2.3,1.9c-3.1-0.3-6.2-0.3-9.3-0.1c-3.3,0.2-6.6,0.6-9.8,1.3c-1.3,0.3-2.6-0.7-2.5-1.9
		c0.1-3.4,0.4-6.9,0.9-10.3c0.2-1.3,1.2-2.3,2.5-2.6c6.2-1.5,12.7-1.9,19-1.1C464.6,335.9,465.4,336.7,465.3,337.7L465.3,337.7z
		 M437.3,341.5c-1,8.6-1.1,17.2-0.3,25.7c0.1,0.7-1,1.1-1.5,0.5c-3.6-4.8-7.1-9.7-10.4-14.6c-0.7-1-0.6-2.3,0.1-3.3
		c2.8-3.7,6.2-6.8,10.2-9.2C436.3,340,437.4,340.6,437.3,341.5L437.3,341.5z M296.2,355.6c0.5,0.1,0.9,0.6,0.7,1l-1.1,2.8
		c-0.1,0.3-0.4,0.5-0.8,0.5c-0.7,0-1.3,0.1-2,0.2c-0.3,0.1-0.7-0.1-0.9-0.3l-2.2-2.8c-0.4-0.5-0.1-1.1,0.5-1.2
		C292.4,355.4,294.4,355.4,296.2,355.6L296.2,355.6z M298.5,364.8c1.9,1.4,3.1,3.8,2.6,6.1c-0.5,2.6-3.1,4.4-5.8,4.8
		c-2.8,0.4-5.5-0.9-6.8-3.2c-1.5-2.6-0.3-5.6,2.1-7.4C292.9,363.4,296.1,363.1,298.5,364.8L298.5,364.8z M285.7,364.6
		c-0.2,0.3-0.6,0.4-1,0.3l-4.9-1.3c-0.6-0.2-0.8-0.8-0.5-1.3c1.3-1.6,2.9-3.1,4.8-4.2c0.4-0.2,0.9-0.1,1.2,0.2l2.4,3.1
		c0.3,0.3,0.2,0.8-0.1,1.1C286.9,363.2,286.3,363.9,285.7,364.6L285.7,364.6z M439.3,385c1.5,7,3.6,13.8,6.2,20.5
		c0.3,0.8-0.5,1.6-1.4,1.4c-4.5-1.1-8.7-3.1-12.4-5.9c-0.8-0.6-1.1-1.6-0.7-2.5c0.8-2,1.6-4,2.4-5.9c1.1-2.6,2.4-5.3,3.7-7.9
		C437.6,383.9,439.1,384,439.3,385L439.3,385z M305.3,374.2l3.2,1c0.4,0.1,0.7,0.6,0.5,1c-0.9,1.9-2.2,3.7-3.8,5.1
		c-0.4,0.3-1,0.3-1.3-0.2l-1.9-3.3c-0.2-0.3-0.1-0.7,0.2-0.9c0.9-0.7,1.6-1.5,2.1-2.4C304.6,374.2,305,374.1,305.3,374.2
		L305.3,374.2z M284,372.1c0.1,0.5-0.1,0.9-0.6,1.2l-4.5,2.2c-0.6,0.3-1.4,0-1.6-0.6c-0.8-2.2-1-4.4-0.7-6.6c0.1-0.6,0.8-1,1.5-0.9
		l4.8,1.3c0.5,0.1,0.8,0.6,0.8,1C283.7,370.6,283.8,371.3,284,372.1L284,372.1z M468.8,394.9c0.6,3,1.2,6,1.8,8.9
		c0.3,1.2-0.8,2.3-2.1,2.1c-3.6-0.4-7.3-0.3-10.9,0.2c-1.7,0.2-3.4,0.6-5.1,1.1c-1,0.3-2-0.2-2.4-1.1c-1.2-2.9-2.3-5.9-3.2-8.8
		c-0.3-1,0.3-2,1.4-2.2c6.1-1.5,12.5-2,18.8-1.6C467.9,393.5,468.7,394.1,468.8,394.9L468.8,394.9z M350.7,382.5
		c0.5,3.7,1.4,7.4,2.4,11c0.2,0.7-0.3,1.5-1.1,1.7c-1.1,0.2-2.2,0.4-3.3,0.6c-0.7,0.1-1.4-0.3-1.6-0.9c-1.5-3.8-2.4-7.7-2.9-11.7
		c-0.1-0.8,0.5-1.4,1.4-1.5c1.1-0.1,2.3-0.2,3.5-0.3C349.8,381.2,350.6,381.7,350.7,382.5L350.7,382.5z M340.2,383.3
		c0.4,3.6,1.2,7.2,2.4,10.6c0.4,1.1-0.5,2.3-1.8,2.3c-2.8,0-5.7-0.3-8.4-0.8c-0.9-0.2-1.6-0.9-1.6-1.7c0-3.6,0.1-7.3,0.3-10.9
		c0.1-1.1,1.1-1.8,2.3-1.6c1.7,0.3,3.4,0.4,5.1,0.5C339.3,381.8,340.1,382.4,340.2,383.3L340.2,383.3z M327.3,380.9
		c-0.3,3.6-0.4,7.3-0.4,11c0,0.8-1,1.1-1.6,0.6c-3.7-3.6-5.8-8.6-5.8-13.6c0-0.6,0.7-1,1.3-0.8c1.9,0.8,3.8,1.4,5.8,2
		C327.1,380.1,327.3,380.5,327.3,380.9L327.3,380.9z M299.7,384.6c-2.2,0.8-4.6,1.2-6.9,1.1c-0.6,0-1-0.6-0.8-1.1l1.7-4.5
		c0.1-0.3,0.5-0.5,0.8-0.5c0.8,0,1.7-0.1,2.5-0.3c0.4-0.1,0.8,0.1,1,0.4l2.1,3.7C300.4,383.8,300.2,384.4,299.7,384.6L299.7,384.6z
		 M287.5,383.7c-0.2,0.5-0.8,0.7-1.3,0.5c-0.3-0.1-0.6-0.3-1-0.5c-0.3-0.2-1.5-0.8-2.9-2c-0.4-0.3-0.9-0.7-1.3-1.2
		c-0.4-0.4-0.3-1.1,0.2-1.3l4.8-2.4c0.4-0.2,0.8-0.1,1.1,0.1c0.5,0.5,1.1,0.9,1.8,1.2c0.4,0.2,0.5,0.6,0.4,1L287.5,383.7
		L287.5,383.7z M675,351.4l-14.6-1.3c-1.7-0.2-2.9-1.6-2.5-3.1l0.9-4.6c0.3-1.4,1.7-2.3,3.3-2.1c4.8,0.7,9.7,1.5,14.5,2.3
		c1.6,0.3,2.7,1.7,2.3,3.1l-0.9,3.7C677.8,350.7,676.5,351.6,675,351.4L675,351.4z M654,342l-1,4.8c-0.3,1.5-1.8,2.5-3.4,2.3
		l-21.6-1.9c-1.8-0.2-3.1-1.7-2.8-3.4l1.2-6c0.3-1.5,1.9-2.5,3.5-2.3c7.1,1,14.3,2,21.3,3.1C653.1,338.9,654.3,340.4,654,342
		L654,342z M677.9,338.2c-4.9-0.8-9.9-1.6-14.8-2.3c-1.6-0.2-2.6-1.6-2.3-3l0.5-2.6c0.3-1.4,1.7-2.3,3.2-2.1l15,1.8
		c1.6,0.2,2.8,1.6,2.4,3.1l-0.7,3.1C680.8,337.6,679.4,338.5,677.9,338.2L677.9,338.2z M652.7,334.3c-7.2-1.1-14.6-2.1-21.9-3.2
		c-1.6-0.2-2.6-1.6-2.3-3l0.4-1.7c0.3-1.3,1.6-2.2,3.1-2.1l22,2.6c1.6,0.2,2.7,1.6,2.4,3l-0.5,2.3
		C655.7,333.6,654.2,334.6,652.7,334.3L652.7,334.3z M624.2,324.9l-0.8,3.9c-0.1,0.7-0.9,1.2-1.7,1.1c-4.5-0.6-9.2-1.2-13.8-1.9
		c-1.3-0.2-1.7-1.7-0.7-2.4c2.2-1.5,4.9-2.6,7.8-3c0.7-0.1,1.4-0.1,2.2,0l5.7,0.7C623.8,323.4,624.4,324.1,624.2,324.9z"/>
	<polygon class="st8" points="854.5,571 854.5,564.7 863,564.7 863,557.6 863,550.6 854.5,550.6 854.5,544.3 797.6,544.3 
		784.2,557.6 784.2,557.6 797.6,571 	"/>
	<polygon class="st8" points="948.2,571 948.2,564.7 956.7,564.7 956.7,557.6 956.7,550.6 948.2,550.6 948.2,544.3 891.3,544.3 
		877.9,557.6 877.9,557.6 891.3,571 	"/>
	<polygon class="st8" points="854.5,537.2 854.5,530.9 863,530.9 863,523.8 863,516.7 854.5,516.7 854.5,510.4 797.6,510.4 
		784.2,523.8 784.2,523.8 797.6,537.2 	"/>
	<polygon class="st8" points="948.2,537.2 948.2,530.9 956.7,530.9 956.7,523.8 956.7,516.7 948.2,516.7 948.2,510.4 891.3,510.4 
		877.9,523.8 877.9,523.8 891.3,537.2 	"/>
	<polygon class="st8" points="541.3,587.7 541.3,581.4 549.8,581.4 549.8,574.3 549.8,567.3 541.3,567.3 541.3,561 484.4,561 
		471,574.3 471,574.3 484.4,587.7 	"/>
	<polygon class="st8" points="635,587.7 635,581.4 643.5,581.4 643.5,574.3 643.5,567.3 635,567.3 635,561 578,561 564.7,574.3 
		564.7,574.3 578,587.7 	"/>
	<polygon class="st8" points="541.3,553.9 541.3,547.6 549.8,547.6 549.8,540.5 549.8,533.4 541.3,533.4 541.3,527.1 484.4,527.1 
		471,540.5 471,540.5 484.4,553.9 	"/>
	<polygon class="st8" points="635,553.9 635,547.6 643.5,547.6 643.5,540.5 643.5,533.4 635,533.4 635,527.1 578,527.1 564.7,540.5 
		564.7,540.5 578,553.9 	"/>
</g>
<g>
	<g>
		<polygon class="st8" points="1912.6,378.4 1912.6,389 1912.6,399.7 1903.8,399.7 1903.8,389 1903.8,378.4 		"/>
		
			<rect x="2003.4" y="476.4" transform="matrix(0.9945 -0.1051 0.1051 0.9945 -39.4079 214.0452)" class="st8" width="14.6" height="8.8"/>
		
			<rect x="2052.7" y="455.9" transform="matrix(0.7691 -0.6391 0.6391 0.7691 181.4183 1422.7618)" class="st8" width="14.6" height="8.8"/>
		
			<rect x="2082.3" y="411.4" transform="matrix(0.2855 -0.9584 0.9584 0.2855 1094.5083 2299.7375)" class="st8" width="14.6" height="8.8"/>
		
			<rect x="2006.3" y="289.9" transform="matrix(0.1051 -0.9945 0.9945 0.1051 1503.6401 2265.5332)" class="st8" width="8.8" height="14.6"/>
		
			<rect x="2055.6" y="310.5" transform="matrix(0.6391 -0.7692 0.7692 0.6391 499.0695 1699.1738)" class="st8" width="8.8" height="14.6"/>
		
			<rect x="1953.8" y="463.3" transform="matrix(0.4641 -0.8858 0.8858 0.4641 632.553 1986.7186)" class="st8" width="8.8" height="14.6"/>
		
			<rect x="1950.9" y="303.1" transform="matrix(0.8858 -0.4641 0.4641 0.8858 80.9603 943.9816)" class="st8" width="14.6" height="8.8"/>
		<path class="st8" d="M1936.8,304.9c-2.2,1.7-3.4,4.1-3.4,7v16.5c0,4.8-3.9,8.8-8.8,8.8h-2.5v-68.4c0-4.8-3.9-8.8-8.8-8.8h-21.5
			c-4.8,0-8.8,3.9-8.8,8.8c0,80.2,0,160.4,0,240.6c0,4.8,3.9,8.8,8.8,8.8h21.5c4.8,0,8.8-3.9,8.8-8.8V441h2.5c4.8,0,8.8,3.9,8.8,8.8
			v16.5c0,2.8,1.2,5.2,3.4,7c17.9,13.8,40.3,21.9,64.6,21.9c58.6,0,106.1-47.5,106.1-106.1c0-58.6-47.5-106.1-106.1-106.1
			C1977.1,283,1954.7,291.1,1936.8,304.9z"/>
		
			<rect x="2085.3" y="355" transform="matrix(0.9584 -0.2855 0.2855 0.9584 -16.4544 611.751)" class="st8" width="8.8" height="14.6"/>
		
			<ellipse transform="matrix(0.7071 -0.7071 0.7071 0.7071 311.0919 1529.14)" class="st9" cx="2001.4" cy="389" rx="74.7" ry="74.7"/>
	</g>
	<path class="st8" d="M1542.9,512c0,36.4-29.5,65.9-65.9,65.9s-65.9-29.5-65.9-65.9c0-36.4,29.5-65.9,65.9-65.9
		S1542.9,475.6,1542.9,512L1542.9,512z M1551.6,512c0,41.2-33.4,74.7-74.7,74.7c-41.2,0-74.7-33.4-74.7-74.7
		c0-41.2,33.4-74.7,74.7-74.7C1518.2,437.4,1551.6,470.8,1551.6,512z"/>
	<path class="st8" d="M1865.4,512.5V399.6h8.8v-21.1h-8.8v-99c-1.4,0-2.7-0.1-4-0.5c-1-0.3-2-0.7-2.9-1.1c-1.5-0.8-3.3,0.1-3.5,1.6
		l-2.5,19.9c-0.1,0.8-0.7,1.5-1.5,1.8c-16.4,5.7-34,8.4-51.6,7.7c-15.3-0.6-30.4-3.8-44.6-8.9c-6-2.2-11.8-4.7-17.4-7.5
		c-0.8-0.4-1.3-1.3-1.2-2.1c1.6-11.8,3.2-23.5,4.9-35.3c0.3-2-2.2-3.2-3.9-1.9c-2.5,1.9-5,3.8-7.8,5.5c-6.5,3.9-13.6,6.9-21.1,8.8
		c-3.1,0.8-6.2,1.3-9.3,1.8c-1.1,0.1-1.9,0.9-2,1.9c-0.5,4.1-1,8.2-1.5,12.3c-0.1,1.1-1.1,1.9-2.3,1.9c-8.4,0.2-16.8-2.3-23.5-7
		c-0.9-0.6-1.2-1.7-0.7-2.6c1-1.9,1.9-4.2,2.6-6.9c0.5-1.7,0.8-3.3,1-4.7c0.2-1.6-1.4-2.8-3-2.3c-13.1,3.8-26.3,7.2-39.7,9.9
		c-0.9,0.2-1.7-0.1-2.3-0.7c-5.4-5.8-12.1-9.9-19.5-12c-0.9-0.3-1.9-0.5-2.9-0.7c-1.3-0.3-2.1-1.5-1.7-2.7l0.5-1.7
		c0.4-1.2-0.4-2.4-1.7-2.7c-0.7-0.1-1.4-0.3-2.1-0.6c-1.5-0.5-3-0.9-4.7-2.1c-0.1-0.1-0.2-0.2-0.3-0.3c-1.4-1.1-3.5-0.4-3.8,1.2
		c-0.7,3.3-1.5,6.7-2.5,10.2c-1,3.7-2,7.3-3.1,10.7c-0.5,1.5,0.9,3,2.6,2.7c1.3-0.2,2.9-0.3,4.6,0c1.2,0.2,2.2,0.5,3.1,0.8
		c1.4,0.5,2.9-0.3,3.2-1.6c0.1-0.5,0.2-1.1,0.4-1.6c0.2-1,1.2-1.7,2.3-1.7c3.7,0,7.3,0.7,10.7,2c2.2,0.8,1.8,3.7-0.5,4.1
		c-13.2,2.2-27.2,4.1-42,5.3c-1.3,0.1-2.5,0.2-3.8,0.3c-2.4,0.2-3,3.2-0.7,4.1c3.5,1.3,6.9,2.8,10.3,4.5
		c9.8,5.1,18.5,11.9,25.5,19.9c1.8,2,3.4,4.2,5,6.3c1.1,1.6-0.3,3.6-2.3,3.3c-15.1-2.1-30.4-2.3-45.6-0.9c-3.7,0.4-7.4,0.8-11,1.4
		c-1.5,0.2-2.8-0.9-2.7-2.3c0.3-4.7,0-9.4-1-14c-0.5-2.5-1.3-4.8-2.2-7.2c-0.6-1.6-3-2-4.1-0.6c-4.2,5.3-8.9,10.1-14.5,14.3
		c-10.2,7.7-22.4,13.3-35.1,16.8c-3.9,1.1-7.8,1.9-11.8,2.5c-1.5,0.2-2.3,1.6-1.8,2.9c2.2,5,4.2,10.1,6.1,15.2
		c0.5,1.3-0.5,2.7-2,2.8c-5.8,0.5-11.5-1.3-15.9-4.7c-0.6-0.5-0.9-1.2-0.8-1.9c0.8-4.9,0.7-10-0.3-14.9c-0.6-2.8-1.4-5.5-2.5-8.2
		c-0.6-1.5-2.6-1.9-3.8-0.8c-9,8-18.8,15.2-29.6,21.1c-13.4,7.3-28,12.8-43.1,16.2c-4.1,0.9-8.3,1.6-12.5,2.3
		c-2.2,0.3-2.7,2.9-0.8,4c10.2,5.7,19.9,11.9,28.8,19.1c2.2,1.8,4.3,3.6,6.4,5.5c1.4,1.2,0.6,3.4-1.3,3.7c-4.1,0.5-8.1,1.3-12,2.6
		c-1.3,0.4-2.7-0.3-3-1.5l-0.9-3.1c-0.4-1.3-1.9-1.9-3.3-1.4c-3,1.3-6.1,2.1-9.6,1.9c-1.4-0.1-2.7-0.3-4-0.7
		c-1.8-0.5-3.5,1.1-2.9,2.8c3.6,9.2,6.8,18.6,9.2,28.2c0.4,1.8,2.9,2.3,4.1,0.9c0.9-1.1,2-2.1,3.2-2.9c2.3-1.6,5-2.8,7.9-3.3
		c0.6-0.1,1.1-0.2,1.7-0.2c1.6-0.2,2.6-1.7,1.9-3.1l-1.1-2.1c-0.6-1.1-0.1-2.4,1.1-2.9c7-3,14.7-4.5,22.4-4.4c0.7,0,1.4,0.3,1.8,0.8
		c3.8,4.3,7.8,9.3,11.8,14.8c3.2,4.5,6,8.8,8.4,13c0.9,1.6,3.4,1.5,4.2-0.2c2.5-5.3,4.6-10.8,5.9-16.5c0.3-1.1,1.4-1.8,2.6-1.7
		c12.8,1.4,25.9,0.4,38.3-2.8c1.4-0.4,2.9,0.6,3,1.9c0.2,3.9,0.3,7.8,0.4,11.7c0,1.1,1,2,2.2,2.1c20.2,1.5,40.3,6.7,57.2,17.3
		c2.2,1.4,4.4,2.9,6.5,4.5c1.5,1.2,3.8,0.2,3.8-1.7c0-1.4-0.1-2.7-0.2-4.1c-0.4-4-1.2-8-2.5-11.8c-0.4-1.1,0.3-2.3,1.5-2.7
		c14.2-4.5,29.2-6.4,44.2-6c3.7,0.1,7.5,0.4,11.2,0.8c1.4,0.2,2.4,1.4,2,2.7c-2.6,9-6.7,17.6-12.3,25.3c-1,1.4-2.1,2.7-3.2,4.1
		c-0.8,1-2.4,1.1-3.4,0.3c-3.4-2.8-7.7-4.5-12.2-4.9c-1.5-0.1-2.4-1.5-2-2.8l0.5-1.5c0.4-1.3-0.6-2.7-2.2-2.8
		c-1.7-0.1-3.3-0.2-5-0.7c-1.1-0.3-2.2-0.8-3.2-1.3c-1.5-0.7-3.3,0.2-3.4,1.7c-0.3,3-0.8,6-1.5,8.9c-0.7,3-1.7,5.9-2.7,8.8
		c-0.5,1.4,0.6,2.9,2.3,2.8c1.5,0,3,0,4.5,0.4c1.4,0.3,2.7,0.8,3.9,1.3c1.5,0.7,3.2-0.2,3.4-1.7l0.2-2.1c0.1-1.1,1.3-2,2.5-1.9
		c2.9,0.2,5.7,0.9,8.3,2c1.5,0.6,1.8,2.4,0.7,3.4c-5.5,5.3-12.4,11.1-20.8,16.7c-3.8,2.6-7.6,4.9-11.2,6.9c-2.1,1.2-1.1,4.1,1.4,4
		c7.5-0.4,16.2-0.4,26,0.7c3.5,0.4,16.9,2,33.6,7.4c8.5,2.8,19.7,7.2,32,14.3c1.7,1,3.9-0.3,3.6-2.1c-0.3-2.1-0.7-4.2-1.2-6.4
		c-0.8-3.9-1.8-7.6-2.8-11c-0.3-0.9,0.1-1.8,0.9-2.3c3.9-2.5,8.3-4.2,13-5.1c1.5-0.3,3,0.9,2.8,2.3c-0.3,2.9-0.6,5.7-0.9,8.6
		c-0.1,1,0.5,1.9,1.5,2.2c6.3,2.3,12.1,5.3,17.3,9.3c1.4,1.1,4.9,3.8,8.5,8c1.9,2.2,3.5,4.3,4.8,6.3c1.2,1.8,4.2,1.1,4.3-1
		c0.6-7.3,1.2-14.7,1.8-22c0.3-3.2,0.6-6.5,0.9-9.7c0.1-0.8,0.6-1.5,1.5-1.8c14.1-5.2,28.6-9.2,43.5-11.9c15.8-2.9,31.9-4.3,48-4.3
		c8.3,0,16.6,0.4,24.9,1.2c1.3,0.1,2.2,1.2,2.1,2.4l-3.1,25.1c-0.2,1.7,1.7,2.9,3.4,2.2c2.9-1.4,6-2.5,9.2-3.3
		c5.9-1.4,12.2-1.7,18.2-0.7c1.2,0.2,2,1.1,2,2.2c0,0.5-0.1,1-0.1,1.6c0,0.7-0.6,1.2-1.4,1.3l-42.8,2.3c-1.4,0.1-2.5-0.9-2.5-2.2
		c0.1-2.8,0.1-5.6,0.2-8.4c0-1.3-1.2-2.3-2.6-2.2c-3.2,0.3-6.4,0.7-9.6,1c-1.4,0.1-2.4,1.5-2,2.7c0.8,2.6,1.7,5.1,2.5,7.7
		c0.4,1.3-0.6,2.7-2.2,2.7c-5.5,0.2-11,0.4-16.4,0.6c-1.4,0-2.4,1.1-2.2,2.4c0.3,2.6,0.6,5.2,0.9,7.7c0.1,1.2,1.4,2.1,2.7,1.9
		l16.7-2.7c1.5-0.2,2.8,0.9,2.7,2.2c-0.2,2.8-0.3,5.6-0.5,8.3c-0.1,1.3,1.2,2.4,2.6,2.2c3.3-0.4,6.6-0.7,9.9-1.1
		c1.4-0.2,2.4-1.5,2-2.7c-0.9-2.8-1.8-5.6-2.8-8.4c-0.4-1.3,0.5-2.6,2-2.7c13.8-1.5,27.6-3.1,41.4-4.6c0.5-0.1,0.9,0.3,1,0.7
		c0.1,1.4,1.7,2.3,3.2,1.8C1863.7,513,1864.5,512.8,1865.4,512.5L1865.4,512.5z M1806.8,431.6c1.7,0,3,1.3,2.8,2.8l-0.4,4.1
		c-0.1,1.2-1.2,2.2-2.6,2.3c-4.5,0.3-8.9,0.7-13.4,1c-1.5,0.1-2.9-0.9-3-2.3l-0.5-5.1c-0.2-1.5,1.1-2.8,2.8-2.8L1806.8,431.6
		L1806.8,431.6z M1781.7,431.7c1.5,0,2.8,1.1,3,2.5l0.6,5.5c0.2,1.5-1.1,2.9-2.7,3c-7.5,0.5-15.2,1-22.8,1.4c-1.6,0.1-3-1-3.1-2.5
		l-0.7-6.8c-0.2-1.6,1.2-3,2.9-3L1781.7,431.7L1781.7,431.7z M1750.4,433.8c0.4,2.8,0.7,5.6,1.1,8.3c0.2,1.3-0.9,2.4-2.3,2.5
		c-4.9,0.3-9.9,0.5-14.9,0.7c-1.6,0.1-2.8-1.3-2.5-2.7c0.9-3.6,4-6.7,7.1-8.4c3.2-1.7,7.3-2.2,7.6-2.2c0.4,0,0.9-0.1,1.3-0.1
		C1749.2,431.8,1750.3,432.6,1750.4,433.8L1750.4,433.8z M1808.3,447.5l-0.6,5.7c-0.1,0.9-0.9,1.6-1.9,1.7l-12,0.3
		c-1.1,0-1.9-0.7-2-1.7l-0.5-4.9c-0.1-1,0.7-1.9,1.8-2c4.3-0.3,8.7-0.6,13.1-1C1807.4,445.4,1808.4,446.4,1808.3,447.5L1808.3,447.5
		z M1675.8,458.5l-0.7,7.1c-0.1,0.6-1,0.8-1.3,0.2c-0.9-1.6-1.7-3.3-2.3-5c-0.3-0.9,0.2-1.9,1.1-2.2c0.8-0.3,1.5-0.5,2.3-0.8
		C1675.4,457.6,1675.9,458,1675.8,458.5L1675.8,458.5z M1757.5,450.8c-0.1-1.1,0.8-2,2-2.1c8.2-0.5,16.3-1,24.4-1.5
		c1.1-0.1,2.2,0.7,2.3,1.7l0.4,4.3c0.1,1.1-0.8,2.1-2.1,2.1l-24.5,0.6c-1.1,0-2.1-0.7-2.2-1.8L1757.5,450.8L1757.5,450.8z
		 M1752.4,450.4l0.4,4c0.1,0.8-0.6,1.6-1.5,1.6l-6.6,0.1c-0.1,0-0.2,0-0.3,0c-3.3-0.6-6.4-2-8.7-3.9c-1-0.9-0.4-2.5,1-2.5
		c4.7-0.2,9.4-0.4,14.1-0.7C1751.6,449.1,1752.3,449.7,1752.4,450.4L1752.4,450.4z M1670.5,446.9c0.7-0.1,1.5-0.3,2.2-0.4
		c0.8-0.1,1.6,0.4,1.8,1.1l0.8,4.3c0.1,0.7-0.3,1.3-1,1.5c-0.9,0.3-1.8,0.6-2.6,0.9c-0.9,0.3-1.9-0.2-2-1.1c-0.2-1.7-0.3-3.4-0.3-5
		C1669.3,447.6,1669.8,447,1670.5,446.9L1670.5,446.9z M1662.7,448.7c0.9-0.3,1.8,0.3,1.8,1.2c0.1,1.9,0.3,3.8,0.6,5.7
		c0.1,0.6-0.2,1.1-0.8,1.4c-3.3,1.3-6.6,2.7-9.9,4.2c-0.9,0.4-1.9-0.1-2-1c-0.2-1.9-0.3-3.8-0.3-5.8c0-1.1,0.8-2.2,1.9-2.6
		C1656.9,450.5,1659.8,449.5,1662.7,448.7L1662.7,448.7z M1645.7,455.5c0.7-0.4,1.6,0.1,1.6,0.8c0,2.1,0.2,4.3,0.6,6.4
		c0.1,0.7-0.3,1.4-0.9,1.7c-1.9,1-3.8,2-5.7,3c-0.7,0.4-1.6-0.1-1.6-0.8c-0.1-3.1,1-6.2,3.1-8.8c0.5-0.7,1.2-1.2,1.9-1.7
		C1645,455.9,1645.3,455.7,1645.7,455.5L1645.7,455.5z M1616.9,463.8c3.6,0.3,6.9,1.9,9.1,4.5c0.6,0.7,0.3,1.8-0.7,2.1l-5.1,1.6
		c-0.7,0.2-1.5-0.1-1.8-0.7l-2.9-5.6C1614.9,464.8,1615.7,463.8,1616.9,463.8L1616.9,463.8z M1610.2,466.7l3.1,6
		c0.4,0.8,0,1.6-0.9,1.9l-8,2.5c-1,0.3-2-0.4-2-1.4c0.1-3.7,2.2-7.4,5.6-9.5C1608.7,465.7,1609.8,465.9,1610.2,466.7L1610.2,466.7z
		 M1667.1,462.7c0.9,2.2,1.9,4.3,3.2,6.4c0.6,1,0.1,2.2-1,2.7l-9.7,3.9c-1,0.4-2.3,0-2.7-0.9c-1.1-2.2-2.1-4.6-2.8-6.9
		c-0.3-0.9,0.2-1.8,1.1-2.2c3-1.4,6.1-2.7,9.2-4C1665.4,461.1,1666.7,461.6,1667.1,462.7L1667.1,462.7z M1649.5,469.6
		c0.8,2.5,1.9,5,3.1,7.4c0.3,0.6,0,1.3-0.6,1.5c-0.2,0.1-0.5,0.1-0.7,0.1c-3.9-0.6-7.3-2.5-9.4-5.2c-0.4-0.5-0.3-1.3,0.4-1.6
		c1.8-1,3.6-1.9,5.4-2.9C1648.4,468.5,1649.3,468.9,1649.5,469.6L1649.5,469.6z M1619.5,484.9c0.3,0.7,0,1.4-0.8,1.6
		c-2.5,0.6-5.3,0.6-8-0.3c-2.2-0.7-4.2-1.9-5.6-3.4c-0.6-0.6-0.3-1.6,0.6-1.9l9.1-2.8c0.6-0.2,1.3,0.1,1.6,0.6L1619.5,484.9
		L1619.5,484.9z M1628.4,475.7c-0.1,2.4-1,4.8-2.6,6.7c-0.6,0.7-1.7,0.6-2.1-0.2l-2.4-4.6c-0.3-0.6,0-1.4,0.7-1.6l4.7-1.5
		C1627.5,474.3,1628.4,474.9,1628.4,475.7L1628.4,475.7z M1826.5,403.5l-21.4,0.7c-1.6,0-2.9-1.2-2.7-2.7l0.7-5.6
		c0.2-1.3,1.4-2.2,2.8-2.2l21.3,0.9c1.6,0.1,2.7,1.3,2.5,2.8l-0.6,4.1C1828.9,402.5,1827.8,403.4,1826.5,403.5L1826.5,403.5z
		 M1800.3,377.4l-1.1,8.7c-0.2,1.5-1.6,2.6-3.2,2.5l-24.6-1c-1.7-0.1-3-1.4-2.9-3l0.6-9.9c0.1-1.6,1.6-2.8,3.4-2.7l25.1,2.1
		C1799.2,374.4,1800.5,375.8,1800.3,377.4L1800.3,377.4z M1688.1,302.7l-1.5,8.2c-0.2,0.9-1.2,1.5-2.1,1.1c-1.3-0.4-2.6-0.9-3.9-1.4
		c-0.7-0.3-1.1-1-1-1.7c0.9-3.4,2.2-6,3.4-8c0.4-0.7,1.3-0.9,2-0.6l2.1,0.8C1687.8,301.4,1688.2,302,1688.1,302.7L1688.1,302.7z
		 M1677.1,297.3c1.1,0.4,1.6,1.7,1,2.7c-1.1,2-2.1,4.2-2.8,6.4c-0.4,1.1-1.7,1.7-2.9,1.2c-2.5-1-4.9-2.1-7.3-3.2
		c-0.9-0.4-1.4-1.4-1.1-2.2c0.7-2.4,1.7-4.7,2.8-6.9c0.5-0.9,1.7-1.4,2.8-0.9L1677.1,297.3L1677.1,297.3z M1662.3,291.5
		c0.6,0.2,0.8,0.8,0.5,1.3c-1.3,2.5-2.4,5.1-3.3,7.7c-0.2,0.6-1,0.9-1.6,0.6c-1.8-0.9-3.6-1.9-5.3-2.8c-0.8-0.4-0.9-1.3-0.4-2
		c2.1-2.5,5.4-4.3,9.2-4.9c0.2,0,0.4,0,0.6,0.1L1662.3,291.5L1662.3,291.5z M1673.6,319.7c0,1-1.1,1.7-2.1,1.4
		c-2.6-0.8-5.1-1.7-7.5-2.7c-1-0.4-1.7-1.4-1.7-2.4c-0.1-1.9,0-3.7,0.2-5.6c0.1-1,1.3-1.6,2.3-1.2c0.9,0.4,1.8,0.8,2.7,1.2
		c1.8,0.8,3.6,1.5,5.5,2.3c0.6,0.3,1,0.9,0.9,1.5c-0.2,1.4-0.2,2.9-0.2,4.3C1673.6,318.9,1673.6,319.3,1673.6,319.7L1673.6,319.7z
		 M1658.1,306.9c-0.2,1.4-0.4,2.9-0.5,4.5c-0.1,0.9-0.1,1.8-0.1,2.6c0,0.7-0.8,1.1-1.5,0.7c-0.6-0.3-1.1-0.6-1.6-0.9
		c-0.4-0.2-0.7-0.5-1-0.8c-2.5-2.8-3.7-6.3-3.6-9.6c0-0.7,0.8-1.1,1.5-0.7c2.1,1.2,4.2,2.3,6.4,3.4
		C1658,306.2,1658.2,306.5,1658.1,306.9L1658.1,306.9z M1624.5,291.9l-8.6-2.7c-1-0.3-1.4-1.5-0.6-2.2c3.2-3.2,8.4-4.6,13.1-3.5
		c0.9,0.2,1.4,1.1,1,1.9l-3,5.8C1626,291.8,1625.2,292.1,1624.5,291.9L1624.5,291.9z M1685.4,317.9l-0.9,5c-0.1,0.6-0.7,0.9-1.3,0.8
		c-1.1-0.2-2.2-0.4-3.3-0.6c-0.7-0.1-1.2-0.7-1.3-1.4c-0.1-1.6-0.2-3.5-0.1-5.7c0-0.7,0.8-1.1,1.5-0.9c1.5,0.6,3.1,1.1,4.7,1.6
		C1685.2,316.9,1685.5,317.4,1685.4,317.9L1685.4,317.9z M1637.7,293.9c0.1,1-1,1.7-2,1.4l-4.1-1.3c-0.9-0.3-1.3-1.1-0.9-1.9l2.1-4
		c0.5-1,1.9-1.1,2.6-0.2C1636.8,289.7,1637.6,291.8,1637.7,293.9L1637.7,293.9z M1764.3,372.3l-0.6,10.7c-0.1,1-1.3,1.4-2,0.7
		l-10.9-9.9c-0.7-0.6-0.3-1.7,0.6-1.9c1.6-0.2,3.2-0.4,4.7-0.5c2.6-0.2,4.9-0.3,7-0.3C1763.8,371.2,1764.4,371.7,1764.3,372.3
		L1764.3,372.3z M1619.9,303.6c-0.4,0.8-1.5,1-2.3,0.5c-3.4-2.2-5.5-5.8-5.6-9.5c0-1,1-1.7,2-1.4l8,2.5c0.9,0.3,1.3,1.2,0.9,1.9
		L1619.9,303.6L1619.9,303.6z M1635.4,301.4c-2.2,2.8-5.7,4.5-9.5,4.7c-1,0.1-1.7-0.9-1.3-1.8l3.1-5.9c0.3-0.6,1-0.8,1.7-0.6
		l5.5,1.7C1635.6,299.8,1636,300.7,1635.4,301.4L1635.4,301.4z M1827.9,389.9l-20.8-0.8c-1.8-0.1-3.1-1.5-2.9-3.1l1-8.3
		c0.2-1.5,1.7-2.6,3.3-2.5l20.8,1.8c1.7,0.1,3,1.6,2.7,3.1l-1.1,7.4C1830.9,388.9,1829.5,390,1827.9,389.9L1827.9,389.9z
		 M1764,335.2l-1.6,7.6c-0.3,1.3-1.7,2.3-3.2,2.1c-0.3,0-0.7-0.1-1.1-0.2c-0.3-0.1-4.4-0.9-7.3-2.8c-2.8-1.9-5.5-5-6.2-8.5
		c-0.4-1.7,1.2-3.3,3.1-3c4.6,0.6,9.3,1.2,13.9,1.9C1763.2,332.4,1764.3,333.8,1764,335.2L1764,335.2z M1673,396.1
		c-0.4,4.3-0.9,8.6-1.3,12.9c-0.1,1.1-1.4,1.9-2.5,1.5c-3.3-1-7.2-1.9-11.6-2.7c-0.8-0.1-1.5-0.7-1.6-1.5
		c-0.9-5.3-1.5-10.7-1.8-16.1c-0.1-1.2,1.1-2.1,2.4-1.8c4.9,1,9.7,2.5,14.4,4.4C1672.3,393.4,1673.1,394.7,1673,396.1L1673,396.1z
		 M1651,403.6c0.3,1.7-1.3,3.3-3.2,3.2c-4.4-0.3-8.4-0.2-11.8,0c-1.5,0.1-2.9-0.9-3.2-2.2c-1-4.5-2-9.3-2.9-14.3
		c-0.3-1.6,1-3.1,2.8-3.2c3.3-0.3,6.7-0.4,10-0.2c1.4,0.1,2.8,0.1,4.2,0.3c1.5,0.1,2.7,1.3,2.8,2.6
		C1649.8,394.4,1650.3,399,1651,403.6L1651,403.6z M1794.7,404.4l-24.5,0.7c-1.5,0-2.8-1.1-2.7-2.5l0.5-8.2c0.1-1.3,1.3-2.4,2.8-2.3
		l24.8,1c1.5,0.1,2.7,1.3,2.5,2.7l-0.8,6.4C1797.1,403.5,1796,404.4,1794.7,404.4L1794.7,404.4z M1763.1,395.1l-0.5,9.5
		c0,0.5-0.5,0.9-1.1,0.9c-2.2-0.1-4.6-0.4-7.4-0.8c-2-0.3-3.7-0.6-5.3-1c-0.9-0.2-1-1.3-0.3-1.7l13-7.8
		C1762.2,393.9,1763.1,394.3,1763.1,395.1L1763.1,395.1z M1604.9,387.2c0.2,1.2-0.9,2.3-2.2,2.3c-3.2-0.1-6.4,0-9.6,0.3
		c-3,0.3-6,0.8-8.9,1.5c-1.2,0.3-2.4-0.4-2.7-1.5c-0.9-3.6-1.7-7.2-2.4-10.9c-0.2-1.1,0.6-2.1,1.7-2.3c6.8-1.2,13.6-1.7,20.5-1.7
		c1.1,0,2,0.8,2.1,1.8C1604,380.3,1604.4,383.8,1604.9,387.2L1604.9,387.2z M1756,392.6l-12,7.1c-1.2,0.7-2.8,0.6-3.9-0.2
		c-2.6-2-4.5-4.5-5.6-7.1c-0.5-1.2,0.5-2.4,1.9-2.3l19.1,1.1C1756.4,391.2,1756.7,392.2,1756,392.6L1756,392.6z M1569,374.1
		c-5,0.7-10.1,1.4-15.1,2c-1,0.1-1.8-0.5-1.9-1.4c-0.7-6.6,0.5-13.3,3.2-19.2c0.5-1.2,2.3-1.3,3-0.2c1.5,2.2,3,4.4,4.6,6.6
		c2.4,3.3,4.8,6.6,7.3,9.8C1570.9,372.6,1570.3,373.9,1569,374.1L1569,374.1z M1483.5,363.4l0,12.3c0,0.6-0.5,1.2-1.2,1.4
		c-0.6,0.2-1.3,0.3-2.1,0.4c-0.5,0.1-1.1,0.1-1.6,0.2c-0.9,0.1-1.7-0.6-1.7-1.4c0-4.4,0.6-8.8,1.8-13.1c0.2-0.6,0.7-1,1.4-1.1
		c0.5,0,1-0.1,1.4-0.2C1482.6,361.8,1483.5,362.5,1483.5,363.4L1483.5,363.4z M1472.7,362.1c1.1,0.1,1.9,1.1,1.6,2.1
		c-1,3.9-1.5,7.8-1.5,11.8c0,1-0.9,1.8-2,1.7c-1.7-0.1-3.4-0.3-5.1-0.6c-1-0.2-1.7-1-1.6-1.9c0.4-3.9,1-7.9,1.6-11.7
		c0.3-1.4,1.8-2.4,3.4-2C1470.4,361.7,1471.5,361.9,1472.7,362.1L1472.7,362.1z M1460.6,361.9c0.6-0.4,1.5,0.1,1.4,0.8
		c-0.8,4.2-1.3,8.4-1.8,12.5c-0.1,0.5-0.6,0.8-1.1,0.7c-1.8-0.5-3.6-1.2-5.3-1.9c-0.9-0.4-1.3-1.3-1-2.1
		C1454.1,367.9,1457,364.4,1460.6,361.9L1460.6,361.9z M1570.9,380.2c-2.8,5.4-5.4,10.9-7.6,16.5c-0.3,0.7-1.4,0.9-1.9,0.3
		c-3.9-4.2-6.8-9.3-8.3-15c-0.2-0.6,0.3-1.2,1-1.3c5.2-0.6,10.4-1.2,15.6-2C1570.6,378.5,1571.3,379.4,1570.9,380.2L1570.9,380.2z
		 M1442.2,369.4c0,0.6-0.6,1.1-1.3,0.9l-2.8-0.8c-0.4-0.1-0.6-0.4-0.7-0.8c0-0.3-0.1-0.7-0.1-1.1c-0.1-0.4-0.2-0.7-0.2-1
		c-0.1-0.4,0-0.7,0.4-0.9l2.2-1.4c0.5-0.3,1.2-0.1,1.5,0.4C1441.8,366.1,1442.1,367.8,1442.2,369.4L1442.2,369.4z M1437.3,360.5
		l-2,1.3c-0.4,0.3-0.9,0.2-1.3-0.1c-0.5-0.5-1.1-0.9-1.7-1.3c-0.4-0.2-0.6-0.7-0.4-1.1l0.9-2.2c0.2-0.6,1-0.8,1.5-0.5
		c1.1,0.7,2.2,1.5,3.2,2.4C1437.9,359.5,1437.8,360.2,1437.3,360.5L1437.3,360.5z M1675.4,373.1c-0.5,4.5-0.9,8.9-1.4,13.4
		c-0.2,1.5-1.8,2.4-3.3,1.9c-4.6-1.7-9.4-3.1-14.2-4c-1.6-0.3-2.7-1.6-2.7-3.1c0-2.9,0-5.7,0.1-8.6c0.1-1.3,1.3-2.3,2.7-2.1
		c5.9,0.7,11.3,0.5,16.1,0.1C1674.2,370.5,1675.5,371.6,1675.4,373.1L1675.4,373.1z M1649.4,371.6c-0.1,3.1-0.2,6.1-0.2,9.2
		c0,1.2-1.2,2.2-2.5,2.1c-1.3-0.1-2.7-0.2-4-0.2c-3.9-0.1-7.8,0-11.7,0.4c-1.3,0.1-2.4-0.7-2.5-1.8c-0.2-1.6-0.4-3.3-0.6-5
		c-0.4-4-0.8-7.9-1-11.7c-0.1-1.7,1.9-2.8,3.5-1.9c4.6,2.4,10.3,4.8,16.9,6.4C1648.6,369.3,1649.5,370.4,1649.4,371.6L1649.4,371.6z
		 M1602.9,368c0.1,1.5-1.2,2.8-2.8,2.8c-3.3,0-6.6,0.1-9.9,0.4c-2.9,0.2-5.8,0.6-8.7,1.1c-1.6,0.3-3.1-0.8-3.3-2.3
		c-0.5-4.3-0.8-8.5-0.9-12.8c0-1.2,0.9-2.2,2.1-2.5c6.6-1.5,13.5-2.1,20.3-1.5c1.4,0.1,2.5,1.2,2.6,2.5
		C1602.4,359.7,1602.6,363.9,1602.9,368L1602.9,368z M1757.6,385.8c0.6,0.5,0.1,1.4-0.6,1.3l-20.2-1.1c-1.6-0.1-2.6-1.6-2-2.9
		c1.6-3.5,4.8-6.4,8.2-8.3c0.9-0.5,2.1-0.4,2.8,0.3L1757.6,385.8L1757.6,385.8z M1677.5,352.5c-0.4,3.7-0.8,7.4-1.1,11.1
		c-0.2,1.5-1.4,2.7-3,2.9c-4.8,0.6-10.3,0.7-16.3,0c-1.5-0.2-2.6-1.4-2.4-2.8c0.5-4.8,1.1-9.5,2-14.2c0.3-1.4,1.8-2.4,3.3-2.1
		c5.3,0.9,10.4,1.7,15.2,2.3C1676.6,349.9,1677.6,351.1,1677.5,352.5L1677.5,352.5z M1652.3,347.8c-1,5-1.7,10.1-2.2,15.2
		c-0.1,1.2-1.4,2-2.7,1.7c-7.8-2-14.2-5.1-18.9-8c-1.2-0.8-1.9-2-2-3.3c0-3.9,0-7.6,0.2-11.2c0-1.3,1.4-2.2,2.8-1.8
		c6.5,1.9,13.6,3.7,21.2,5.3C1651.8,345.8,1652.5,346.8,1652.3,347.8L1652.3,347.8z M1602.4,335.9c-0.2,3.7-0.3,7.5-0.3,11.3
		c0,1.2-1.1,2.1-2.4,2c-3.2-0.3-6.4-0.3-9.7-0.1c-3.4,0.2-6.8,0.7-10.1,1.4c-1.4,0.3-2.7-0.7-2.6-2c0.2-3.6,0.5-7.1,0.9-10.6
		c0.2-1.3,1.2-2.4,2.6-2.7c6.4-1.5,13.1-1.9,19.7-1.2C1601.7,334,1602.5,334.9,1602.4,335.9L1602.4,335.9z M1573.4,339.8
		c-1,8.8-1.1,17.7-0.3,26.6c0.1,0.8-1,1.1-1.5,0.5c-3.7-4.9-7.3-10-10.7-15.1c-0.7-1.1-0.7-2.4,0.1-3.4c2.9-3.8,6.4-7.1,10.6-9.5
		C1572.4,338.3,1573.5,338.9,1573.4,339.8L1573.4,339.8z M1427.8,354.4c0.6,0.1,0.9,0.6,0.7,1.1l-1.1,2.9c-0.1,0.3-0.5,0.5-0.8,0.5
		c-0.7,0-1.4,0.1-2.1,0.2c-0.3,0.1-0.7-0.1-0.9-0.3l-2.3-2.9c-0.4-0.5-0.1-1.1,0.5-1.2C1423.8,354.2,1425.8,354.2,1427.8,354.4
		L1427.8,354.4z M1430.1,363.9c2,1.4,3.2,3.9,2.7,6.3c-0.6,2.7-3.2,4.6-6,5c-2.9,0.4-5.7-0.9-7.1-3.3c-1.5-2.7-0.3-5.8,2.2-7.6
		C1424.4,362.4,1427.6,362.1,1430.1,363.9L1430.1,363.9z M1416.9,363.7c-0.2,0.3-0.6,0.4-1,0.3l-5-1.4c-0.6-0.2-0.9-0.8-0.5-1.3
		c1.3-1.7,3-3.2,5-4.3c0.4-0.2,1-0.1,1.3,0.2l2.5,3.2c0.3,0.4,0.2,0.9-0.1,1.1C1418.2,362.2,1417.5,362.9,1416.9,363.7L1416.9,363.7
		z M1575.5,384.8c1.5,7.2,3.7,14.3,6.4,21.2c0.3,0.8-0.5,1.7-1.4,1.4c-4.7-1.2-9-3.3-12.8-6.1c-0.8-0.6-1.1-1.6-0.8-2.5
		c0.8-2.1,1.6-4.1,2.5-6.1c1.2-2.7,2.5-5.5,3.8-8.1C1573.8,383.6,1575.3,383.8,1575.5,384.8L1575.5,384.8z M1437.1,373.6l3.3,1
		c0.5,0.1,0.7,0.6,0.5,1c-0.9,2-2.2,3.8-3.9,5.3c-0.4,0.4-1.1,0.3-1.3-0.2l-2-3.4c-0.2-0.3-0.1-0.7,0.2-0.9c0.9-0.7,1.6-1.5,2.2-2.4
		C1436.4,373.6,1436.8,373.5,1437.1,373.6L1437.1,373.6z M1415.1,371.4c0.1,0.5-0.1,1-0.6,1.2l-4.6,2.3c-0.7,0.3-1.5,0-1.7-0.6
		c-0.8-2.2-1-4.6-0.7-6.8c0.1-0.7,0.8-1.1,1.5-0.9l4.9,1.3c0.5,0.1,0.9,0.6,0.9,1.1C1414.8,369.9,1414.9,370.7,1415.1,371.4
		L1415.1,371.4z M1606,395c0.6,3.1,1.2,6.2,1.9,9.2c0.3,1.2-0.8,2.3-2.2,2.2c-3.8-0.4-7.5-0.4-11.3,0.2c-1.8,0.3-3.5,0.6-5.3,1.1
		c-1,0.3-2.1-0.2-2.4-1.1c-1.2-3-2.3-6.1-3.3-9.1c-0.3-1,0.3-2,1.4-2.3c6.3-1.5,12.9-2.1,19.4-1.7
		C1605.1,393.5,1605.9,394.2,1606,395L1606,395z M1484,382.2c0.6,3.8,1.4,7.6,2.5,11.4c0.2,0.8-0.3,1.5-1.1,1.7
		c-1.1,0.2-2.3,0.4-3.5,0.6c-0.7,0.1-1.4-0.3-1.7-0.9c-1.5-3.9-2.5-8-3-12.1c-0.1-0.8,0.6-1.5,1.4-1.5c1.2-0.1,2.4-0.2,3.6-0.4
		C1483.1,380.9,1483.9,381.4,1484,382.2L1484,382.2z M1473.2,383c0.4,3.7,1.2,7.4,2.5,11c0.4,1.2-0.6,2.4-1.9,2.4
		c-2.9,0-5.8-0.3-8.7-0.8c-0.9-0.2-1.6-0.9-1.6-1.8c0-3.7,0.1-7.5,0.3-11.3c0.1-1.1,1.2-1.9,2.3-1.7c1.8,0.3,3.5,0.4,5.3,0.5
		C1472.3,381.4,1473.1,382.1,1473.2,383L1473.2,383z M1459.9,380.5c-0.3,3.8-0.4,7.5-0.4,11.3c0,0.8-1.1,1.2-1.7,0.6
		c-3.8-3.8-6-8.8-5.9-14.1c0-0.6,0.7-1,1.4-0.8c2,0.8,4,1.5,6,2C1459.6,379.7,1459.9,380.1,1459.9,380.5L1459.9,380.5z
		 M1431.3,384.3c-2.3,0.8-4.7,1.2-7.1,1.2c-0.6,0-1-0.6-0.8-1.1l1.8-4.6c0.1-0.3,0.5-0.6,0.9-0.6c0.9,0,1.7-0.1,2.6-0.3
		c0.4-0.1,0.8,0.1,1,0.4l2.2,3.8C1432.1,383.6,1431.8,384.1,1431.3,384.3L1431.3,384.3z M1418.8,383.4c-0.2,0.5-0.8,0.7-1.4,0.5
		c-0.3-0.1-0.7-0.3-1-0.5c-0.3-0.2-1.6-0.8-3-2c-0.4-0.3-0.9-0.8-1.4-1.3c-0.4-0.4-0.3-1.1,0.3-1.4l5-2.5c0.4-0.2,0.8-0.1,1.2,0.1
		c0.6,0.5,1.2,0.9,1.8,1.3c0.4,0.2,0.5,0.7,0.4,1L1418.8,383.4L1418.8,383.4z M1819.1,350.1l-15.1-1.3c-1.7-0.2-2.9-1.6-2.6-3.2
		l1-4.8c0.3-1.5,1.8-2.4,3.4-2.2c5,0.8,10,1.5,15,2.3c1.7,0.3,2.7,1.7,2.4,3.2l-0.9,3.8C1821.9,349.3,1820.6,350.2,1819.1,350.1
		L1819.1,350.1z M1797.3,340.3l-1,5c-0.3,1.5-1.8,2.5-3.5,2.4l-22.3-2c-1.9-0.2-3.2-1.8-2.9-3.5l1.3-6.2c0.3-1.6,1.9-2.6,3.7-2.4
		c7.4,1,14.8,2.1,22,3.2C1796.4,337.2,1797.6,338.7,1797.3,340.3L1797.3,340.3z M1822,336.4c-5.1-0.8-10.2-1.6-15.3-2.4
		c-1.6-0.2-2.7-1.7-2.4-3.1l0.5-2.6c0.3-1.4,1.7-2.4,3.3-2.2l15.5,1.8c1.7,0.2,2.9,1.7,2.5,3.2l-0.7,3.2
		C1825.1,335.8,1823.6,336.7,1822,336.4L1822,336.4z M1796,332.4c-7.5-1.1-15-2.2-22.6-3.3c-1.6-0.2-2.7-1.6-2.4-3.1l0.4-1.8
		c0.3-1.4,1.7-2.3,3.2-2.1l22.7,2.7c1.7,0.2,2.8,1.6,2.5,3.1l-0.5,2.4C1799,331.7,1797.6,332.7,1796,332.4L1796,332.4z
		 M1766.6,322.7l-0.8,4.1c-0.2,0.7-0.9,1.2-1.7,1.1c-4.7-0.6-9.5-1.3-14.2-1.9c-1.3-0.2-1.8-1.7-0.7-2.5c2.2-1.6,5.1-2.7,8.1-3.1
		c0.7-0.1,1.5-0.1,2.2,0l5.8,0.7C1766.1,321.1,1766.7,321.9,1766.6,322.7z"/>
	<polygon class="st8" points="2004.5,576.9 2004.5,570.4 2013.3,570.4 2013.3,563.1 2013.3,555.8 2004.5,555.8 2004.5,549.3 
		1945.7,549.3 1931.9,563.1 1931.9,563.1 1945.7,576.9 	"/>
	<polygon class="st8" points="2101.2,576.9 2101.2,570.4 2110,570.4 2110,563.1 2110,555.8 2101.2,555.8 2101.2,549.3 2042.4,549.3 
		2028.6,563.1 2028.6,563.1 2042.4,576.9 	"/>
	<polygon class="st8" points="2004.5,542 2004.5,535.5 2013.3,535.5 2013.3,528.1 2013.3,520.8 2004.5,520.8 2004.5,514.3 
		1945.7,514.3 1931.9,528.1 1931.9,528.1 1945.7,542 	"/>
	<polygon class="st8" points="2101.2,542 2101.2,535.5 2110,535.5 2110,528.1 2110,520.8 2101.2,520.8 2101.2,514.3 2042.4,514.3 
		2028.6,528.1 2028.6,528.1 2042.4,542 	"/>
	<polygon class="st8" points="1680.9,594.2 1680.9,587.7 1689.7,587.7 1689.7,580.4 1689.7,573 1680.9,573 1680.9,566.5 
		1622.1,566.5 1608.3,580.4 1608.3,580.4 1622.1,594.2 	"/>
	<polygon class="st8" points="1777.7,594.2 1777.7,587.7 1786.4,587.7 1786.4,580.4 1786.4,573 1777.7,573 1777.7,566.5 
		1718.9,566.5 1705.1,580.4 1705.1,580.4 1718.9,594.2 	"/>
	<polygon class="st8" points="1680.9,559.2 1680.9,552.7 1689.7,552.7 1689.7,545.4 1689.7,538.1 1680.9,538.1 1680.9,531.6 
		1622.1,531.6 1608.3,545.4 1608.3,545.4 1622.1,559.2 	"/>
	<polygon class="st8" points="1777.7,559.2 1777.7,552.7 1786.4,552.7 1786.4,545.4 1786.4,538.1 1777.7,538.1 1777.7,531.6 
		1718.9,531.6 1705.1,545.4 1705.1,545.4 1718.9,559.2 	"/>
</g>
</svg>
