<?xml version="1.0" encoding="utf-8"?>
<!-- Generator: Adobe Illustrator 25.4.1, SVG Export Plug-In . SVG Version: 6.00 Build 0)  -->
<svg version="1.1" id="Layer_1" xmlns="http://www.w3.org/2000/svg" xmlns:xlink="http://www.w3.org/1999/xlink" x="0px" y="0px"
	 viewBox="0 0 750 500" enable-background="new 0 0 750 500" xml:space="preserve">
<path fill="#3F3F3F" d="M153.3,341.65h-33.6v-3.6H82.5v37.2h3.6v33.6h-3.6v37.2h37.2v-3.6h33.6v3.6h12.05v-49h-19.59
	c-1.77,3.24-5.2,5.43-9.15,5.43c-5.76,0-10.43-4.67-10.43-10.43s4.67-10.43,10.43-10.43c3.95,0,7.38,2.19,9.15,5.43h24.59
	c2.76,0,5,2.24,5,5v54h15.15v-37.2h-3.6v-33.6h3.6v-37.2h-37.2V341.65z"/>
<path fill="#3F3F3F" d="M190.5,130.76v-38.4h-3.6V53.95L82.5,53.96v38.4h3.6v38.4h-3.6v38.4h3.6v38.4h-3.6v38.4h3.6v38.39h33.6v3.6
	h33.6v-3.6l37.2,0.01v-38.4h-3.6v-38.4h3.6v-38.4h-3.6v-38.4L190.5,130.76L190.5,130.76z M124.51,273.14
	c-3.87,2.07-8.35-1.17-11.71-2.88c-2.61-1.34-5.33-1.86-8.26-1.61c-1.5,0.13-2.88,0.29-4.29,0.79c-0.75,0.27-1.23,0.3-2.04,0.2
	c-0.06-0.01-0.08-0.1-0.01-0.11c1.23-0.18,1.94-1.03,3.06-1.38c1.07-0.33,2.17-0.56,3.29-0.64c2.3-0.16,4.7-0.14,6.9,0.62
	c2.05,0.71,3.87,1.82,5.83,2.72c1.4,0.65,2.91,1.28,4.48,1.35c1.1,0.05,1.79,0.02,2.76,0.48
	C124.69,272.77,124.68,273.05,124.51,273.14z M178.88,266.04c-2.39-0.1-4.4-0.53-6.58,0.85c-1.63,1.03-3.11,2.35-4.85,3.21
	c-3.61,1.77-7.28,2.24-11.24,2.55c-0.08,0.01-0.1-0.13-0.02-0.14c4.76-0.77,9.23-2.32,13.11-5.24c1.3-0.98,2.69-2.13,4.3-2.58
	c1.77-0.5,3.45-0.34,5.27-0.23C179.89,264.51,179.9,266.08,178.88,266.04z M179.7,243.12c-0.56-1.02-1.1-2.06-1.55-3.16
	c-0.31-0.75-0.58-1.51-0.83-2.28c0.04-0.2,0.03-0.4-0.02-0.83c-0.15-1.32-0.26-2.44,0.1-3.76c0.47-1.73,0.9-3.08,0.81-4.89
	c-0.01-0.1-0.16-0.11-0.16,0c-0.08,1.95-1.22,3.83-1.82,5.75c-0.18-0.69-0.36-1.38-0.54-2.07c-0.26-0.99-0.47-1.83-0.8-2.56
	c0.49-0.94,1.18-1.83,1.21-2.96c0.05-2.02-0.15-4.01-0.13-6.04c0-0.11-0.15-0.1-0.16,0c-0.13,1.33-0.26,2.62-0.55,3.88v0
	c-0.4-0.74-1-1.33-1.43-2.04c-0.05-0.08-0.16-0.01-0.12,0.07c0.28,0.64,0.63,1.26,0.97,1.87c0.16,0.3,0.34,0.62,0.37,0.96
	c-0.15,0.52-0.34,1.03-0.58,1.54c-0.26,0.56-0.39,0.99-0.46,1.4c-0.29-0.29-0.63-0.55-1.07-0.8c-1.3-0.73-3.07-1.26-4.6-1.05
	c-0.96-1.4-1.94-2.79-2.95-4.16c-0.08-0.11-0.3-0.05-0.24,0.1c0.48,1.18,1.07,2.32,1.58,3.49c-1.07-0.5-2.27-0.54-3.55-0.86
	c-0.1-0.03-0.15,0.11-0.07,0.16c0.61,0.39,1.26,0.69,1.93,0.97c-0.36,0.29-0.69,0.61-1,0.96c-0.12,0.13,0,0.3,0.16,0.27
	c0.62-0.09,1.12-0.51,1.6-0.89c0.03-0.02,0.04-0.05,0.06-0.07c0.41,0.12,0.82,0.21,1.23,0.33c0.09,0.22,0.18,0.44,0.26,0.66
	c0.13,0.39,0.48,0.57,0.88,0.5c2.19-0.4,4.93,0.79,5.3,3.03c0.16,1,0.38,1.98,0.62,2.96c-0.71-0.02-1.42,0-2.13,0.01
	c-0.03-0.13-0.1-0.26-0.23-0.33c-0.22-0.12-0.48-0.81-0.64-1.07c-0.21-0.34-0.39-0.8-0.66-1.1c-0.06-0.06-0.15-0.01-0.15,0.06
	c-0.04,0.41,0.18,0.87,0.24,1.28c0.05,0.37,0.32,0.77,0.38,1.15c-0.09,0-0.19,0-0.28-0.01c-0.71-0.04-1.42-0.59-1.98-0.96
	c-0.83-0.54-1.82-0.99-2.72-1.39c-0.08-0.04-0.17,0.06-0.1,0.13c0.5,0.53,0.98,1.3,1.52,1.98c-0.26,0.04-0.53,0.11-0.76,0.14
	c-0.84,0.12-1.62,0.37-2.36,0.76c-0.06,0.03-0.03,0.12,0.03,0.12c0.81-0.01,1.62-0.05,2.43-0.12c0.44-0.04,0.96,0.01,1.41-0.11
	c0.43,0.38,0.92,0.66,1.5,0.72c1.21,0.12,2.43,0.22,3.65,0.29c-0.58,0.33-1.17,0.66-1.8,0.89c-0.56-0.35-1.21-0.54-1.79-0.09
	c-0.06,0.04-0.05,0.14,0,0.19c0.55,0.57,1.38,1.24,2.18,0.97c1-0.35,1.88-0.95,2.84-1.37c0.15,0.52,0.29,1.04,0.45,1.56
	c0.32,1.08,0.72,2.1,1.14,3.1c0.13,0.54,0.26,1.09,0.38,1.63c-0.73-0.21-1.49-0.19-2.22-0.42c-1.54-0.49-2.62-1.79-3.62-2.99
	c-0.05-0.06-0.15,0.02-0.11,0.09c0.34,0.51,0.66,1.01,0.99,1.48c-0.3,0-0.6,0.03-0.94,0.05c-0.54,0.04-1.08,0.04-1.62,0.08
	c-0.1,0.01-0.14,0.13-0.05,0.19c0.72,0.5,2.25,0.78,2.97,0.17c0.24,0.32,0.49,0.62,0.77,0.9c-0.38,0.03-0.76,0.06-1.15,0.12
	c-0.72,0.12-1.81,0.53-2.35,1.04c-0.05,0.04-0.01,0.13,0.05,0.13c0.81-0.03,1.6-0.25,2.42-0.26c0.64-0.01,1.3-0.12,1.89-0.34
	c0.35,0.22,0.73,0.42,1.18,0.56c0.85,0.27,1.54,0.48,2.15,1.03c0.26,1.33,0.48,2.67,0.63,4.01c0.23,2.01,0.03,3.94-0.1,5.95
	c-0.09,1.38,0.32,2.83,0.69,4.21c-0.09,0.06-0.17,0.12-0.26,0.18c-0.72,0.02-1.42,0.11-1.9,0.15c-1.49,0.14-2.71,0.7-3.88,1.41
	c-0.88,0.03-1.75,0.07-2.63,0.11c-1.19-2.16-2.16-4.41-3.14-6.67c0.67-0.16,1.28-0.4,1.95-0.61c0.79-0.25,1.66-0.51,2.29-1.07
	c0.21-0.18,0.35-0.4,0.47-0.62c0.01-0.02,0.02-0.03,0.03-0.04c0.01-0.03,0.01-0.05,0.02-0.08c0.51-1.16-0.04-2.67-0.8-3.63
	c-0.14-0.18-0.43-0.22-0.63-0.17c-0.03,0.01-0.05,0.02-0.07,0.03c-0.12-0.03-0.26-0.02-0.41,0.01c-1.58,0.4-3.18,0.76-4.79,1.13
	c-0.45-1.17-1.17-2.23-1.63-3.4c-0.12-0.31-0.44-0.58-0.79-0.45c-0.32,0.12-0.65,0.24-0.97,0.35c-0.24,0.07-0.49,0.15-0.74,0.22
	c-0.26,0.06-0.53,0.12-0.79,0.2c-0.09,0.03-0.16,0.07-0.21,0.11c-0.37,0.09-0.74,0.16-1.12,0.2c-0.26,0.02-0.5,0.26-0.41,0.54
	c0.23,0.7,0.5,1.37,0.78,2.04c0.06,0.35,0.13,0.7,0.24,1.05c0.04,0.16,0.06,0.32,0.1,0.48c-1.91,0.49-3.8,1.03-5.63,1.69
	c-0.05,0.02-0.08,0.06-0.12,0.08c-0.15,0.04-0.3,0.07-0.45,0.1c-0.22,0.06-0.42,0.34-0.32,0.57c0.18,0.45,0.39,0.89,0.6,1.32
	c0.24,0.84,0.8,1.75,1.03,2.26c0.11,0.25,0.49,0.39,0.74,0.3c1.85-0.64,3.76-1.25,5.7-1.78c0.04,0.1,0.08,0.21,0.12,0.32
	c0.61,1.63,1.35,3.22,1.92,4.87c0.11,0.33,0.19,0.63,0.27,0.93c-1.7,0.06-3.4,0.11-5.1,0.17c-0.36-0.07-0.73-0.13-1.1-0.19
	c-1.4-0.31-2.96-0.61-4.34-0.57c-0.05-0.01-0.1-0.01-0.15-0.02c-1.23-0.12-2.62,0.45-3.95,1.08c-3.56,0.1-7.12,0.2-10.68,0.29
	c-4.38,0.11-8.77,0.09-13.15,0.03c-1.44-0.46-2.89-0.9-4.41-1.01c-0.66-0.05-1.34-0.08-2.02-0.06c0.21-0.82,0.32-1.85,0.27-2.85
	c0.27,0.01,0.53,0.01,0.82-0.06c0.3-0.07,0.41-0.49,0.18-0.7c-0.33-0.3-0.73-0.51-1.16-0.66c-0.19-0.85-0.62-1.73-1.39-2.13
	c-0.33-0.21-0.71-0.35-1.16-0.4c-1.58-0.15-2.54,0.75-3.21,2.02c-0.72,0.09-1.38,0.31-1.82,0.77c-0.1,0.1-0.1,0.27,0,0.38
	c0.3,0.3,0.66,0.47,1.05,0.57c-0.19,0.48-0.37,0.98-0.53,1.46c-0.2,0.62-0.55,1.37-0.63,2.07c-1.32-0.39-2.96-0.31-4.36,0.21
	c-0.8-0.01-1.61-0.02-2.41-0.02c-0.16-1.29-0.21-2.62-0.35-3.93c0.5-0.07,0.99-0.19,1.46-0.34c0.28-0.04,0.56-0.08,0.84-0.13
	c1.17-0.21,0.78-1.85-0.26-1.94c-0.04,0-0.07,0-0.11,0c-0.06-0.01-0.12-0.01-0.19,0c-0.68-0.03-1.32,0.02-1.93,0.13
	c-0.04-0.51-0.08-1.01-0.1-1.51c-0.01-0.38-0.34-0.59-0.69-0.53c-0.83,0.15-1.65,0.33-2.47,0.47c-0.23,0.04-0.38,0.34-0.31,0.55
	c0.07,0.22,0.12,0.43,0.18,0.65c0.04,0.27,0.09,0.54,0.15,0.8c-0.84,0.03-1.68,0.06-2.53,0.06c-1.28,0.02-1.28,1.98,0,1.98
	c0.86,0,1.71-0.02,2.57-0.06c0.11,0,0.21,0,0.32,0c0.15,0.89,0.31,1.77,0.49,2.66c-0.08-0.02-0.17-0.07-0.25-0.08
	c-0.08-0.03-0.17-0.04-0.26-0.04c-0.47-0.05-0.97-0.01-1.55,0.19c-2.03,0.71-3.47-1.12-5.27-1.98v-18.14
	c0.15-0.08,0.29-0.18,0.4-0.3c0.05-0.01,0.1-0.02,0.15-0.05c0.58-0.34,1.08-1.16,1.56-1.65c0.07-0.07,0.14-0.14,0.22-0.21
	c7.04-5.04,12.48-12.04,17.3-19.33c1.04,2.66,2.12,5.34,2.73,8.18c1.76,8.19-4.06,15.21-4.26,23.17c0,0.15,0.17,0.22,0.28,0.17
	c0.09,0.13,0.23,0.23,0.44,0.23c5.23,0,9.73-1.57,13.52-5.18c2.13-2.03,3.87-4.29,6.38-5.89c2.57-1.64,5.79-2.07,8.64-3.04
	c1.4-0.02,2.53,0.37,2.56,1.83c-0.01,0.03-0.03,0.07-0.05,0.1c-0.03,0.06,0,0.11,0.04,0.13c-0.01,0.1,0,0.18-0.01,0.29
	c-0.03,0.22,0.31,0.24,0.37,0.05c0.81-2.73,4.52-1.74,6.67-1.98c1.82-0.2,2.94-1.38,3.57-3.06c0.02-0.06-0.06-0.08-0.09-0.04
	c-0.03,0.04-0.07,0.08-0.11,0.12c-0.01-0.05-0.04-0.09-0.1-0.08c-0.32,0.04-0.42,0.27-0.6,0.09c-0.27-0.27-0.27-0.15-0.6-0.38
	c-0.55-0.38-0.63-1.2-0.68-1.82c-0.08-0.95,0.06-1.9,0.31-2.81c0.36-1.3,0.62-3,2.19-3.18c0,0,0-0.01,0.01-0.01
	c0.04,0.01,0.07,0.01,0.1,0.02c0.06,0.01,0.1-0.07,0.04-0.1c-0.64-0.41-1.08-1.01-1.42-1.7c-0.03-1.54-0.01-2.99,0.28-4.54
	c0.18-0.93,0.71-1.3,0.44-2.28c-0.06-0.23-0.26-0.47-0.51-0.51c-0.52-0.09-0.91-0.3-1.22-0.6c0.04-0.14,0.06-0.3,0.02-0.48
	c-0.66-2.74-0.46-7.86,3.26-8.13c0.11-0.01,0.11-0.17,0-0.17c-0.1,0-0.19,0.01-0.29,0.01c0.13-0.04,0.27-0.1,0.39-0.2
	c0.07-0.06,0.04-0.17-0.03-0.21c-0.5-0.29-0.84-0.72-1.08-1.2c0.17-1.73,1.52-2.75,2.01-4.4c0.5-1.66,0.64-3.46,0.84-5.18
	c0.4-3.49,0.71-6.95-0.51-10.18c-2.31,1.38-4.74,2.58-5.56,5.42c-0.02,0.09-0.16,0.05-0.14-0.04c0.82-3.32,3.12-4.97,5.65-6.56
	c1.11-1.49,2.34-2.87,3.94-3.85c1.31-0.81,5.4-0.58,5.4-2.55c0-0.09-0.05-0.16-0.12-0.19c-0.02-4.24-1.64-8.54-3.18-12.42
	c-0.97-2.44-2.08-4.81-2.99-7.28c-0.95-2.56-0.75-5.42-0.64-8.1c0.02-0.39,0.04-0.77,0.06-1.16c0.51-0.62,0.99-1.28,1.48-1.92
	c1.83-2.39,2.98-5.19,4.52-7.77c3.05-5.12,5.55-10.54,7.88-16.02c1.78-4.19,3.94-8.33,5.42-12.64c0.68-1.98,1.56-4.94,1.35-7.5
	c0.05,0,0.1,0,0.16,0L179.7,243.12L179.7,243.12z M107.12,223.39c0.06-0.06,0.14,0.03,0.09,0.09c-2.25,2.58-4.06,5.86-7.15,7.56
	c-0.11,0.06-0.25-0.1-0.14-0.18C102.62,228.64,104.71,225.9,107.12,223.39z M99.98,228.09c2.78-4.04,7.07-6.39,9.08-11.05
	c0.05-0.11,0.24-0.06,0.23,0.06c-0.63,4.74-6.65,7.42-9.27,11.01C100,228.14,99.96,228.12,99.98,228.09z M119.68,219.07
	c-0.59-3.4,0.09-6.17,1.69-9.21c0.08-0.15,0.34-0.05,0.28,0.12c-0.81,2.14-1.36,4.17-1.14,6.48c0.2,2.12,0.89,4.24,0.95,6.37
	c0.13,4.81-1.3,9.28-3.56,13.49c-0.05,0.09-0.18,0.01-0.14-0.08c1.43-2.8,2.64-5.85,2.85-9.03
	C120.81,224.38,120.16,221.82,119.68,219.07z M123.3,232.04c0.74-2.59,1.42-4.94,3.01-7.15c1.29-1.79,3.22-2.98,4.98-4.24
	c2.71-1.93,4.32-4.48,4.98-7.73c0.01-0.07,0.13-0.06,0.13,0.02c-0.09,2.41-0.86,4.78-2.49,6.6c-1.86,2.07-4.39,3.44-6.18,5.54
	c-2.26,2.66-2.48,5.96-4.22,8.81c-1.61,2.63-3.9,4.65-6.12,6.77c-0.07,0.07-0.18-0.04-0.11-0.11
	C119.66,238.08,122.33,235.43,123.3,232.04z M127.01,140.94c-0.58-0.65-0.75-1.48-0.64-2.33c0.02-0.15,0.25-0.17,0.25,0
	c-0.02,0.7,0.35,1.41,0.99,1.75c0.29,0.16,0.65,0.19,0.96,0.25c0.29-0.72,0.55-1.46,0.8-2.2c0.05-0.14,0.26-0.12,0.26,0.04
	c0.03,1.74-0.28,3.52-1.18,5.03c-0.3,0.51-0.67,1.25-1.17,1.61c-1.08,0.8-2.03,1.32-2.67,2.59c-0.07,0.13-0.3,0.04-0.24-0.1
	c0.65-1.58,1.93-2.75,2.83-4.18c0.38-0.6,0.69-1.23,0.98-1.87C127.75,141.49,127.28,141.24,127.01,140.94z M129.77,148.81
	c2.29-0.74,4.41-1.89,6.71-2.61c0.09-0.03,0.12,0.1,0.04,0.14c-2.77,1.05-5.23,2.93-8.05,3.82c-1.74,0.55-4.25,0.89-6.18,0.5
	c-0.07,0.04-0.15,0.07-0.23,0.1c-0.45,0.16-0.92,0.45-1.25,0.8c-0.65,0.69-1.26,1.43-1.92,2.11c-0.07,0.07-0.18-0.02-0.14-0.1
	c0.59-1,0.93-2.12,1.62-3.07c0.12-0.16,0.26-0.33,0.41-0.5c-1.42-0.21-2.64,0.05-3.88,1.02c-0.1,0.08-0.22-0.02-0.17-0.13
	c0.8-1.88,3.42-2.02,5.13-1.63c0.15-0.04,0.3-0.05,0.45-0.03C124.71,148.75,127.38,149.58,129.77,148.81z M143.63,110.62
	c-0.91-0.26-1.73-0.77-2.65-0.96c-0.08-0.01-0.05-0.13,0.02-0.13c1.1-0.03,1.99-0.31,3.03,0.13c0.33,0.14,0.65,0.29,0.97,0.46
	c0.04-0.07,0.09-0.14,0.13-0.21c0.02-0.04,0.1-0.01,0.08,0.03c-0.03,0.08-0.07,0.15-0.11,0.23c0.51,0.28,1.01,0.59,1.44,0.98
	c1.56,1.41,2.48,3.19,3.37,5.07c0.05,0.1-0.1,0.18-0.15,0.09c-0.91-1.68-2.08-3.45-3.7-4.54c-0.45-0.3-0.91-0.54-1.38-0.75
	c-1.86,3.43-5.5,6.95-3.96,11c0.6,1.58,1.48,3.22,1.48,4.95c0,0.04-0.01,0.08-0.01,0.12c0.47-1.27,1.39-2.12,2.69-2.88
	c1.84-1.07,3.82-1.83,4.22-4.14c0.01-0.09,0.15-0.06,0.15,0.02c0.05,1.7-0.68,3.39-2.18,4.26c-1.72,1-4.21,1.57-4.94,3.66
	c-0.13,1.21-0.45,2.4-0.72,3.6c-0.02,0.1-0.17,0.06-0.15-0.04c0.5-2.93,0.4-4.92-1.21-7.45c-0.92-1.45-1.39-2.85-1.33-4.58
	c0.06-1.68,0.92-2.8,2.01-3.94c1.4-1.46,2.67-2.97,3.76-4.66C144.2,110.83,143.93,110.71,143.63,110.62z M150.89,132.09
	c0.2,0.11,0.38,0.14,0.6,0.12c0.28-0.02,0.44,0,0.71,0.09c0.09,0.03,0.13,0.13,0.09,0.21c-0.39,0.75-1.49,0.66-2.01,0.07
	c-0.51-0.58-0.2-1.43,0.13-2.02c0.05-0.1,0.23-0.03,0.19,0.08C150.42,131.09,150.37,131.8,150.89,132.09z M150.45,136.08
	c0.56-0.11,0.93-0.46,1.42-0.7c0.15-0.07,0.32-0.01,0.38,0.15c0.41,1.23-1.16,1.72-2.07,1.64c-0.48-0.04-1.13-0.24-1.47-0.6
	c-0.27-0.29-0.08-0.56,0.05-0.85c0.04-0.09,0.16-0.04,0.17,0.04c0,0.09,0.01,0.16,0.05,0.23
	C149.46,135.99,149.95,136.18,150.45,136.08z M149.05,175.62c-0.65-1.73-0.85-3.05-0.46-4.87c0.02-0.09,0.16-0.07,0.16,0.02
	c0.06,2.15,1.2,4.1,1.45,6.24c0.26,2.24,0.07,4.39-0.3,6.6c-0.01,0.07-0.14,0.06-0.13-0.02C150.03,180.9,150.02,178.2,149.05,175.62
	z M144.39,195.75c0.01,0.08-0.1,0.11-0.12,0.03c-0.65-2.65-0.93-5.62,0.15-8.21c1.06-2.56,2.42-4.93,3.43-7.52
	c0.06-0.17,0.3-0.15,0.31,0.04c0.11,2.09-1.15,3.92-2.09,5.7C144.42,188.92,143.85,192.27,144.39,195.75z M145.07,219.98
	c-1.48,2.52-2.76,5.4-4.92,7.43c-2.09,1.96-4.76,3.66-7.45,4.65c-0.1,0.04-0.2-0.1-0.14-0.18c1.45-2.32,5.09-3.06,7.12-4.94
	c2.19-2.03,3.67-4.54,5.25-7.04C144.99,219.81,145.12,219.89,145.07,219.98z M134.17,233.47c2.32-1.56,4.98-2.26,7.35-3.67
	c5.63-3.35,7.09-10.55,8.06-16.55c0.02-0.1,0.18-0.07,0.17,0.02c-0.49,5.57-1.43,12.5-6,16.31c-2.16,1.8-5.11,2.33-7.62,3.47
	c-2.99,1.36-5.23,3.37-7.25,5.93c-0.04,0.06-0.14-0.02-0.1-0.08C130.3,236.83,132.02,234.91,134.17,233.47z M138.65,132.19
	c-0.08,0.15-0.33,0.08-0.32-0.09c0.08-2.44-2.07-3.21-3.02-5.12c-0.93-1.86-0.64-3.44-0.22-5.4c0.02-0.09,0.18-0.07,0.17,0.02
	c-0.21,1.67-0.17,3.48,0.78,4.96c0.58,0.89,1.41,1.49,2.06,2.31C138.98,129.98,139.29,130.88,138.65,132.19z M134.22,116.1
	c0,0.06-0.1,0.07-0.11,0.01c-0.65-3.59,2.9-6.14,3.81-9.37c0.02-0.08,0.12-0.07,0.15,0C139.53,110.8,133.91,112.37,134.22,116.1z
	 M135.1,132.16c-0.05,0.09-0.2,0.07-0.22-0.03c-0.18-0.76-0.39-1.45-0.79-2.13c-0.37-0.63-0.82-1.22-1.16-1.86
	c-0.04-0.08,0.07-0.17,0.13-0.1C133.98,129.22,136.12,130.39,135.1,132.16z M117.96,161.89c1.47-1.32,2.97-3.27,4.87-4.02
	c0.96-0.38,1.93-0.54,2.95-0.67c1.54-0.2,2.29-0.93,3.31-2.02c0.25-0.27,0.69,0.01,0.6,0.35c-0.46,1.69-1.67,2.67-3.43,2.79
	c-1.64,0.11-3.39-0.04-4.83,0.92c-1.21,0.81-2.25,1.81-3.38,2.73C117.98,162.03,117.9,161.95,117.96,161.89z M122.93,188.2
	c1.28-1.11,2.56-2.63,3.06-4.3c0.28-0.93,0.58-1.83,0.66-2.81c0.05-0.59,0.03-0.61,0.34-1.1c0.08-0.12,0.27-0.13,0.34,0
	c0.74,1.32-0.23,3.42-0.91,4.63c-0.86,1.51-1.95,2.73-3.38,3.72C122.96,188.41,122.85,188.27,122.93,188.2z M127,169.03
	c-0.13,0-0.12-0.18,0-0.2c2.85-0.28,5.63-0.51,8.1,0.88c-0.51-3.08-1.69-6.26-1.13-9.31c0.76-4.15,2.95-7.78,2.61-12.14
	c-0.01-0.1,0.15-0.12,0.18-0.02c0.49,2.27,0.11,4.31-0.35,6.35c2.29-0.53,5.94,0.24,6.23,2.84c0.02,0.15-0.21,0.16-0.25,0.03
	c-0.58-1.84-4.3-2.32-6.16-2.1c-0.33,1.41-0.66,2.85-0.73,4.39c-0.05,1.18-0.06,2.35-0.06,3.53c0.38,2.43,0.86,4.92,0.54,7.32
	c-0.02,0.16-0.13,0.34-0.32,0.32c-0.09-0.01-0.18-0.02-0.27-0.01c0,0.07,0,0.13-0.01,0.2c0,0.07-0.1,0.07-0.11,0
	c-0.01-0.08-0.02-0.15-0.03-0.23c-0.15-0.05-0.24-0.21-0.2-0.35C132.59,169.46,129.63,169.02,127,169.03z M139.12,174.64
	c-1.1,2.74-2.92,5.05-4.76,7.32c-0.02,0.03-0.07-0.01-0.05-0.04c1.72-2.37,2.73-5.15,4.6-7.41
	C138.99,174.42,139.17,174.52,139.12,174.64z M125.94,235.87c2.03-3.56,4.15-6.26,7.44-8.72c4.08-3.06,7.12-6.32,8.36-11.43
	c1.17-4.79,1.42-9.57,1.84-14.45c0.05-0.53,0.79-0.54,0.83,0c0.34,4.96-0.53,10.73-1.99,15.48c-1.33,4.33-3.71,7.43-7.28,10.19
	c-1.88,1.45-3.94,2.75-5.42,4.65c-1.69,2.17-2.82,4.65-4.4,6.88c-2.21,3.12-5.33,4.81-8.81,6.22c-0.09,0.04-0.15-0.12-0.07-0.16
	C120.78,242.5,123.57,240.04,125.94,235.87z M158.72,174.9c0.04,0.08-0.07,0.14-0.11,0.07c-0.93-1.55-1.07-3.23-0.83-5.01
	c0.3-2.27,0.44-4.42,0.53-6.69c0.01-0.18,0.26-0.27,0.36-0.1C160.71,166.76,156.79,171.13,158.72,174.9z M172.74,117.08
	c1.76-4.22,4.17-7.92,4.36-12.64c0-0.09,0.14-0.09,0.14,0c0.21,4.61-1.75,8.97-4.32,12.72
	C172.86,117.24,172.69,117.19,172.74,117.08z M179.7,67.85c-0.98-0.51-2.08-0.88-2.92-1.28c-1.71-0.8-3.45-1.05-5.31-0.73
	c-0.08,0.01-0.1,0.14-0.02,0.17c1.3,0.55,2.55,1.24,3.81,1.92c-0.19,0.08-0.38,0.17-0.57,0.23c-1.29,0.43-2.64,0.85-3.97,1.16
	c-0.12,0.03-0.09,0.17,0,0.21c1.33,0.55,2.55,0.62,3.95,0.35c0.82-0.16,1.87-0.38,2.59-0.9c0.78,0.42,1.6,0.95,2.44,1.24v7.07
	c-3.18-1.01-6.62-1.62-9.76-2.32c-1.36-0.3-2.72-0.63-4.07-0.97c0.02-0.18,0.01-0.37-0.09-0.58c-0.51-1.09-1.04-2.26-1.91-3.11
	c-0.08-0.08-0.25-0.05-0.27,0.07c-0.15,0.91-0.21,2.06,0.07,3.03c-0.03-0.01-0.05-0.01-0.08-0.02c-2.27-0.65-4.59-0.92-6.81-1.77
	c-0.06-0.02-0.08,0.06-0.04,0.09c1.45,1.07,3.1,2.4,4.79,3.03c2.3,0.86,4.71,1.4,7.1,1.95c0.04,0.01,0.07,0.02,0.11,0.03
	c-0.83,0.09-1.66,0.19-2.5,0.28c-3.2,0.33-6.39,0.7-9.5,1.56c-0.1,0.03-0.11,0.18,0,0.21c2.84,0.71,5.67,0.57,8.56,0.31
	c2.11-0.19,4.27-0.25,6.37-0.58c0.95,0.82,1.92,1.56,3.08,2.27c1.9,1.16,3.53,2.5,4.97,4.15V97c-0.16-0.08-0.32-0.17-0.49-0.25
	c-0.02-1.04-0.13-2.05-0.21-2.78c-0.1-0.94-0.65-1.48-1.59-1.59c-0.87-0.1-1.78,0.01-2.66-0.03c-0.43-0.02-0.98,0.34-1.04,0.79
	c-0.01,0.07-0.01,0.13-0.02,0.2c0.3,1.23,0.45,2.48,0.39,3.75c0,0.09-0.13,0.11-0.15,0.02c-0.21-0.81-0.45-1.61-0.68-2.42
	c-2.45-0.64-4.97-1.05-7.48-1.36c-3.23-0.4-7.11-0.79-10.32-0.07c-1.87,0.42-3.73,0.81-5.59,1.26c-1.9,0.46-3.6,1.52-5.49,1.92
	c-0.21,0.04-0.16,0.37,0.05,0.37c3.1-0.05,6.61,0.81,9.75,1.09c3.22,0.29,6.45,0.3,9.68,0.55c3.33,0.26,6.59,0.92,9.78,1.87
	c0.16,0.05,0.32,0.1,0.48,0.16c0.2,6.04-1.62,11.75-4.01,17.31c-2.23,5.18-4.54,10.32-7.09,15.35c0,0,0,0,0,0.01
	c-1.46,4.65-4.23,8.32-6.73,12.45c-2.49,4.1-4.62,8.4-7.1,12.51c-0.01,0.01-0.02,0-0.01-0.01c2.31-4.21,4.25-8.62,6.55-12.83
	c1.2-2.2,2.49-4.32,3.76-6.46c0.01-0.23,0.03-0.46,0.04-0.69c0.12-2.57-0.25-6.25-2.61-7.78c-0.03-0.02-0.05-0.02-0.08-0.02
	c0.09-0.4,0.14-0.8,0.14-1.14c-0.02-1.33-1.24-1.62-2.3-1.33c-0.1-0.34-0.21-0.68-0.32-1.03c-0.46-1.46,0.5-3.18,0.76-4.63
	c0.61-3.44-0.56-7.76-1.89-10.92c-0.91-2.17-2.22-4.11-3.82-5.71c-0.02-0.02-0.03-0.04-0.05-0.06c-2-2.46-5.26-4.6-8.51-4.81
	c-2.91-0.19-4.43,1.26-5.29,3.31c-0.73,0.96-1.33,2.06-1.82,3.25c-0.23,0.41-0.44,0.82-0.63,1.23c-1.62,2.01-2.85,4.29-3.49,7.11
	c-0.52,2.3-0.34,5.13,0.73,7.26c0.12,0.23,0.22,0.46,0.33,0.69c-1.14,1.13-2.94,1.69-4.44,2.25c-1.75,0.66-3.39,1.64-4.65,3.03
	c-0.88,0.97-1.31,2.35-1.43,3.63c-0.31,3.5-0.04,6.24-2.43,9.13c-3.19,3.85-6.9,6.85-7.43,12.19c-0.51,5.12,0.98,10.22,4.91,13.72
	c0.19,0.17,0.48,0.11,0.63-0.05c2.07,0.3,4.18-0.4,6.29-1.08c0.28,2.02,0.48,4.05,0.49,6.11c0.01,4.64-1.5,8.77-3.74,12.77
	c-3.36,5.99-8.13,12.64-8.71,19.7c-0.15,1.78,0,3.48,0.31,5.13c2.33-2.7,4.83-5.27,7.14-7.94c4.24-4.91,8.6-9.69,12.51-14.88
	c0.06-0.08,0.19-0.01,0.13,0.08c-3.52,5.11-7.22,10.14-11.38,14.76c-2.29,2.55-4.66,5.05-6.95,7.6c-0.42,0.47-0.83,0.97-1.22,1.48
	c0.02,0.07,0.03,0.13,0.04,0.2c-3.35,4.23-6.49,8.63-10.05,12.71c-2.05,2.35-4,4.78-6.16,7.03c-0.45,0.46-0.85,1.02-1.21,1.6V125.85
	c0.49-1.04,0.89-2.13,1.46-3.13c0.89-1.55,1.69-3.14,2.57-4.68c1.97-3.47,4.18-6.81,6.38-10.14c0.95-1.44,1.89-2.91,2.82-4.37
	c0.53-0.74,1.01-1.5,1.46-2.29c2.17-3.39,4.39-6.74,6.89-9.87c0.12,0.03,0.24,0.04,0.38,0.02c0.22-0.04,0.45-0.07,0.67-0.1
	c0.67,0.51,1.74,0.63,2.51,0.84c1.24,0.33,2.54,0.25,3.8,0.39c0.09,0.01,0.11-0.14,0.02-0.16c-1.23-0.29-2.33-0.92-3.53-1.28
	c-0.12-0.04-0.25-0.08-0.38-0.13c2.01-0.25,4.03-0.43,6.05-0.64c0.65,0.23,1.38,0.36,2.07,0.49c0.11,0.17,0.23,0.34,0.32,0.51
	c0.34,0.65,0.68,1.2,0.7,1.96c0,0.11,0.15,0.1,0.16,0c0.06-0.6,0-1.47-0.22-2.03c-0.03-0.07-0.06-0.16-0.09-0.25
	c0.07,0.02,0.15,0.03,0.22,0.06c1.83,0.58,3.58,1.62,5.41,2.26c0.05,0.02,0.08-0.06,0.04-0.09c-1.94-0.88-3.77-2.13-5.58-3.27
	c2.84-0.34,5.69-0.66,8.56-0.69c0.1,0,0.1-0.15,0-0.16c-3.66-0.29-7.29-0.76-10.96-0.81c-0.75-0.01-1.52,0.02-2.28,0.07
	c0-0.02,0.01-0.04,0.01-0.07c0.21-0.38,0.35-0.82,0.49-1.17c0.06-0.14,0.12-0.28,0.18-0.41c0.14-0.09,0.27-0.18,0.4-0.29
	c0.91-0.77,1.89-1.82,3.11-2.02c1.12-0.19,2.08-0.19,3.01-0.91c0.03-0.03,0.07-0.05,0.1-0.08c0.04-0.01,0.07-0.02,0.11-0.03
	c0.54-0.17,1.04-0.43,1.54-0.69c0.89-0.46,1.93-1.09,2.98-1.02c0.49,0.26,1.03,0.47,1.5,0.75c0.71,0.41,1.38,0.92,2.15,1.2
	c0.03,0.03,0.05,0.06,0.08,0.08c0.01,0.01,0.02,0,0.02-0.01c-0.41-0.6-0.79-1.22-1.26-1.78c-0.1-0.13-0.22-0.26-0.35-0.39
	c0.53,0.17,1.05,0.42,1.51,0.72c0.47,0.3,1.09,0.73,1.33,1.28c0.03,0.11,0.06,0.22,0.09,0.33c0,0.01,0,0.01,0,0.02s0.01,0,0.01,0
	c0.03-0.24-0.03-0.48-0.14-0.7c-0.13-0.67-0.3-1.34-0.63-1.93c-0.33-0.59-0.85-1.25-1.47-1.61c-0.44-2.16-0.88-3.83-3-5.05
	c-1.44-0.83-3.06-0.56-4.62-0.02c-0.04-0.01-0.07-0.03-0.11-0.04c-0.48-0.17-0.96-0.29-1.45-0.38c-0.12-0.05-0.24-0.09-0.36-0.15
	c-0.65-0.28-1.4-0.63-2.13-0.53c-0.32,0.04-0.63,0.14-0.93,0.26c-0.99-0.12-1.97-0.28-2.96-0.43c-1.21-0.19-2.45-0.38-3.66-0.1
	c-2.59,0.58-4.7,2.18-6.5,4.08c-0.94,0.99-1.87,1.98-2.66,3.08c-0.5,0.7-1.18,1.5-1.53,2.35c-0.62,0.13-1.24,0.27-1.86,0.4
	c-2.33,0.52-4.56,1.22-6.52,2.59c-0.01,0-0.02,0-0.03,0c-0.09-0.01-0.15,0.06-0.16,0.14c-0.09,0.1,0.03,0.24,0.15,0.23
	c0.03,0,0.05-0.01,0.08-0.01c0.52,0.15,0.99,0.33,1.55,0.34c0.51,0.01,1.03-0.04,1.53-0.12c1.17-0.18,2.32-0.47,3.46-0.77
	c0.04-0.01,0.08-0.02,0.13-0.04c-0.14,0.08-0.27,0.16-0.41,0.24c-1.72,0.97-3.95,1.67-5.24,3.24c-0.12,0.14,0.06,0.38,0.23,0.32
	c0.04-0.01,0.09-0.03,0.13-0.04c0.6,0.93,1.96,0.67,3.16,0.2c0.03,0.02,0.07,0.03,0.1,0.04c-0.47,0.42-0.9,0.89-1.24,1.31
	c-0.28,0.34,0.03,0.85,0.46,0.65c0.05-0.02,0.1-0.05,0.15-0.08c0.34,0,0.7-0.2,1-0.4c1.01-0.44,1.91-1.17,2.81-1.79
	c0.03-0.02,0.05-0.04,0.08-0.06c0.15-0.06,0.29-0.13,0.42-0.19c-0.17,0.36-0.33,0.72-0.54,1.07c-0.04,0.06,0.04,0.11,0.09,0.07
	c0.81-0.62,1.79-0.86,2.54-1.58c0.03-0.03,0.06-0.06,0.09-0.09c0.21-0.03,0.41-0.07,0.62-0.12c1.03-0.25,2.01-0.64,3.02-0.96
	c0.21-0.07,0.42-0.14,0.63-0.22c0.99,0.41,1.91,0.81,3.05,0.67c0.73-0.09,1.51-0.29,2.22-0.03c0.6,0.21,1.16,0.39,1.69,0.71
	c0.01,0.02,0.03,0.04,0.04,0.06c-0.69,0.07-1.38,0.16-2.07,0.26c-1.19,0.08-2.38,0.15-3.57,0.16c-0.12,0-0.24,0.06-0.33,0.14
	c-0.63,0-1.24,0.66-1.63,1.07c-0.3,0.31-0.63,0.66-0.93,1.02c-0.98,0.8-1.88,1.73-2.76,2.59c-2.3,2.24-4.68,4.39-6.94,6.65
	c-2.38,2.37-4.75,4.78-7.07,7.22c0.02-2.75,0.02-5.5-0.1-8.24c0.21-2.57,0.37-5.14,0.41-7.7c0.16-0.11,0.31-0.26,0.39-0.49
	c1.65-4.64,2.65-9.35,4.84-13.8c1.95-3.95,4.39-7.46,5.79-11.69c0.04-0.11-0.13-0.15-0.17-0.05c-1.3,3.34-3.61,5.97-5.72,8.75
	c-0.04-0.61-0.09-1.22-0.14-1.83c-0.19-2.16-0.59-4.22-0.49-6.4c0-0.08-0.12-0.1-0.14-0.02c-0.35,1.86-0.99,3.76-1.15,5.64
	c-0.09,1.06-0.07,2.08-0.01,3.14c0.05,0.9,0.22,1.13,0.48,1.5c-0.18,0.27-0.37,0.54-0.55,0.82c-1.62,2.62-2.45,5.69-3.27,8.72
	c-0.15-2.16-0.4-4.31-0.83-6.43c0.01-0.16,0.03-0.32,0.04-0.48c0.07-1.05,0-2.05-0.1-3.1c0.1-1.1,0.17-2.2,0.15-3.31
	c0-0.15-0.17-0.22-0.28-0.16c0.02-0.78,0.02-1.55-0.06-2.34c-0.01-0.13-0.21-0.14-0.21,0c-0.09,2.28-0.55,4.49-0.92,6.71
	c-0.02,0.01-0.04,0.01-0.05,0.04c0,0.09,0,0.19-0.01,0.28c-0.18,1.11-0.31,2.22-0.37,3.34v-19.4h86.4L179.7,67.85L179.7,67.85z
	 M95.17,116.94c1.04-1.19,1.42-2.77,2.25-4.1c0.77-1.24,1.66-2.33,2.54-3.49c1.8-2.41,3.5-4.88,5.43-7.19
	c0.04-0.06,0.12,0.02,0.08,0.08c-2.2,2.82-4.23,5.81-6.29,8.72c-1.37,1.93-1.93,4.74-3.66,6.32
	C95.27,117.48,94.96,117.17,95.17,116.94z M115.33,84.05c-0.11-0.01-0.16-0.19-0.03-0.21c3.42-0.54,9.98-1.62,10.6-5.92
	c0.02-0.11,0.17-0.09,0.2,0C127.7,82.97,118.38,84.38,115.33,84.05z"/>
<path fill="#3F3F3F" d="M349.5,130.76v-38.4h-3.6V53.95l-104.4,0.01v38.4h3.6v38.4h-3.6v38.4h3.6v38.4h-3.6v38.4h3.6v38.39h33.6v3.6
	h33.6v-3.6l37.2,0.01v-38.4h-3.6v-38.4h3.6v-38.4h-3.6v-38.4L349.5,130.76L349.5,130.76z M283.51,273.14
	c-3.87,2.07-8.35-1.17-11.7-2.88c-2.61-1.34-5.33-1.86-8.26-1.61c-1.5,0.13-2.88,0.29-4.29,0.79c-0.75,0.27-1.23,0.3-2.04,0.2
	c-0.05-0.01-0.08-0.1-0.01-0.11c1.23-0.18,1.94-1.03,3.06-1.38c1.07-0.33,2.16-0.56,3.29-0.64c2.3-0.16,4.7-0.14,6.9,0.62
	c2.05,0.71,3.87,1.82,5.83,2.72c1.4,0.65,2.91,1.28,4.48,1.35c1.1,0.05,1.79,0.02,2.76,0.48
	C283.69,272.77,283.68,273.05,283.51,273.14z M337.88,266.04c-2.39-0.1-4.4-0.53-6.58,0.85c-1.63,1.03-3.11,2.35-4.85,3.21
	c-3.61,1.77-7.28,2.24-11.24,2.55c-0.08,0.01-0.1-0.13-0.02-0.14c4.76-0.77,9.23-2.32,13.11-5.24c1.3-0.98,2.69-2.13,4.3-2.58
	c1.77-0.5,3.45-0.34,5.27-0.23C338.89,264.51,338.9,266.08,337.88,266.04z M338.7,243.12c-0.56-1.02-1.1-2.06-1.55-3.16
	c-0.31-0.75-0.58-1.51-0.83-2.28c0.04-0.2,0.03-0.4-0.02-0.83c-0.15-1.32-0.27-2.44,0.1-3.76c0.47-1.73,0.9-3.08,0.81-4.89
	c-0.01-0.1-0.16-0.11-0.16,0c-0.08,1.95-1.22,3.83-1.82,5.75c-0.18-0.69-0.36-1.38-0.54-2.07c-0.26-0.99-0.47-1.83-0.8-2.56
	c0.49-0.94,1.18-1.83,1.21-2.96c0.05-2.02-0.15-4.01-0.13-6.04c0-0.11-0.15-0.1-0.16,0c-0.13,1.33-0.26,2.62-0.55,3.88v0
	c-0.4-0.74-1-1.33-1.43-2.04c-0.05-0.08-0.16-0.01-0.12,0.07c0.28,0.64,0.63,1.26,0.97,1.87c0.16,0.3,0.34,0.62,0.37,0.96
	c-0.15,0.52-0.34,1.03-0.58,1.54c-0.26,0.56-0.39,0.99-0.46,1.4c-0.29-0.29-0.63-0.55-1.07-0.8c-1.3-0.73-3.07-1.26-4.6-1.05
	c-0.96-1.4-1.94-2.79-2.95-4.16c-0.08-0.11-0.3-0.05-0.24,0.1c0.48,1.18,1.07,2.32,1.58,3.49c-1.07-0.5-2.27-0.54-3.55-0.86
	c-0.1-0.03-0.16,0.11-0.07,0.16c0.61,0.39,1.26,0.69,1.93,0.97c-0.36,0.29-0.69,0.61-1,0.96c-0.12,0.13,0,0.3,0.16,0.27
	c0.62-0.09,1.12-0.51,1.6-0.89c0.03-0.02,0.04-0.05,0.06-0.07c0.41,0.12,0.82,0.21,1.23,0.33c0.09,0.22,0.18,0.44,0.26,0.66
	c0.13,0.39,0.48,0.57,0.88,0.5c2.19-0.4,4.93,0.79,5.3,3.03c0.16,1,0.38,1.98,0.61,2.96c-0.71-0.02-1.42,0-2.13,0.01
	c-0.03-0.13-0.1-0.26-0.23-0.33c-0.22-0.12-0.48-0.81-0.64-1.07c-0.21-0.34-0.39-0.8-0.66-1.1c-0.06-0.06-0.15-0.01-0.15,0.06
	c-0.04,0.41,0.18,0.87,0.24,1.28c0.05,0.37,0.32,0.77,0.38,1.15c-0.09,0-0.19,0-0.28-0.01c-0.71-0.04-1.42-0.59-1.98-0.96
	c-0.83-0.54-1.82-0.99-2.72-1.39c-0.08-0.04-0.17,0.06-0.1,0.13c0.5,0.53,0.98,1.3,1.52,1.98c-0.27,0.04-0.53,0.11-0.76,0.14
	c-0.84,0.12-1.62,0.37-2.36,0.76c-0.06,0.03-0.03,0.12,0.03,0.12c0.81-0.01,1.62-0.05,2.43-0.12c0.44-0.04,0.96,0.01,1.41-0.11
	c0.43,0.38,0.92,0.66,1.5,0.72c1.21,0.12,2.43,0.22,3.65,0.29c-0.58,0.33-1.17,0.66-1.8,0.89c-0.56-0.35-1.21-0.54-1.79-0.09
	c-0.06,0.04-0.05,0.14,0,0.19c0.55,0.57,1.39,1.24,2.18,0.97c1-0.35,1.88-0.95,2.84-1.37c0.15,0.52,0.29,1.04,0.45,1.56
	c0.33,1.08,0.72,2.1,1.14,3.1c0.13,0.54,0.26,1.09,0.38,1.63c-0.73-0.21-1.49-0.19-2.22-0.42c-1.54-0.49-2.62-1.79-3.61-2.99
	c-0.05-0.06-0.15,0.02-0.11,0.09c0.34,0.51,0.66,1.01,0.99,1.48c-0.3,0-0.6,0.03-0.94,0.05c-0.54,0.04-1.08,0.04-1.61,0.08
	c-0.1,0.01-0.14,0.13-0.05,0.19c0.72,0.5,2.25,0.78,2.97,0.17c0.24,0.32,0.49,0.62,0.77,0.9c-0.38,0.03-0.76,0.06-1.14,0.12
	c-0.72,0.12-1.81,0.53-2.35,1.04c-0.05,0.04-0.01,0.13,0.05,0.13c0.81-0.03,1.6-0.25,2.42-0.26c0.64-0.01,1.3-0.12,1.89-0.34
	c0.35,0.22,0.73,0.42,1.17,0.56c0.85,0.27,1.54,0.48,2.15,1.03c0.26,1.33,0.48,2.67,0.64,4.01c0.23,2.01,0.03,3.94-0.1,5.95
	c-0.09,1.38,0.32,2.83,0.69,4.21c-0.09,0.06-0.17,0.12-0.26,0.18c-0.72,0.02-1.42,0.11-1.9,0.15c-1.49,0.14-2.71,0.7-3.88,1.41
	c-0.88,0.03-1.75,0.07-2.63,0.11c-1.19-2.16-2.16-4.41-3.14-6.67c0.67-0.16,1.28-0.4,1.95-0.61c0.79-0.25,1.66-0.51,2.29-1.07
	c0.21-0.18,0.35-0.4,0.47-0.62c0.01-0.02,0.02-0.03,0.03-0.04c0.01-0.03,0.02-0.05,0.02-0.08c0.51-1.16-0.04-2.67-0.8-3.63
	c-0.14-0.18-0.43-0.22-0.63-0.17c-0.03,0.01-0.05,0.02-0.07,0.03c-0.12-0.03-0.26-0.02-0.41,0.01c-1.58,0.4-3.18,0.76-4.79,1.13
	c-0.45-1.17-1.17-2.23-1.63-3.4c-0.12-0.31-0.44-0.58-0.8-0.45c-0.32,0.12-0.65,0.24-0.97,0.35c-0.24,0.07-0.49,0.15-0.73,0.22
	c-0.26,0.06-0.53,0.12-0.79,0.2c-0.09,0.03-0.16,0.07-0.21,0.11c-0.37,0.09-0.74,0.16-1.12,0.2c-0.26,0.02-0.5,0.26-0.41,0.54
	c0.23,0.7,0.5,1.37,0.78,2.04c0.06,0.35,0.14,0.7,0.24,1.05c0.03,0.16,0.06,0.32,0.1,0.48c-1.91,0.49-3.8,1.03-5.63,1.69
	c-0.05,0.02-0.08,0.06-0.12,0.08c-0.15,0.04-0.3,0.07-0.45,0.1c-0.22,0.06-0.42,0.34-0.32,0.57c0.18,0.45,0.39,0.89,0.6,1.32
	c0.23,0.84,0.8,1.75,1.03,2.26c0.11,0.25,0.49,0.39,0.74,0.3c1.85-0.64,3.77-1.25,5.7-1.78c0.04,0.1,0.08,0.21,0.12,0.32
	c0.61,1.63,1.35,3.22,1.92,4.87c0.11,0.33,0.19,0.63,0.27,0.93c-1.7,0.06-3.4,0.11-5.1,0.17c-0.36-0.07-0.73-0.13-1.1-0.19
	c-1.4-0.31-2.96-0.61-4.34-0.57c-0.05-0.01-0.1-0.01-0.15-0.02c-1.23-0.12-2.61,0.45-3.95,1.08c-3.56,0.1-7.12,0.2-10.68,0.29
	c-4.38,0.11-8.77,0.09-13.15,0.03c-1.44-0.46-2.89-0.9-4.41-1.01c-0.66-0.05-1.34-0.08-2.02-0.06c0.2-0.82,0.32-1.85,0.27-2.85
	c0.27,0.01,0.53,0.01,0.82-0.06c0.3-0.07,0.41-0.49,0.18-0.7c-0.33-0.3-0.73-0.51-1.16-0.66c-0.19-0.85-0.62-1.73-1.39-2.13
	c-0.33-0.21-0.71-0.35-1.16-0.4c-1.58-0.15-2.53,0.75-3.2,2.02c-0.72,0.09-1.38,0.31-1.83,0.77c-0.1,0.1-0.1,0.27,0,0.38
	c0.3,0.3,0.66,0.47,1.05,0.57c-0.2,0.48-0.37,0.98-0.53,1.46c-0.2,0.62-0.55,1.37-0.63,2.07c-1.32-0.39-2.96-0.31-4.35,0.21
	c-0.8-0.01-1.61-0.02-2.41-0.02c-0.16-1.29-0.22-2.62-0.35-3.93c0.5-0.07,0.99-0.19,1.46-0.34c0.28-0.04,0.56-0.08,0.84-0.13
	c1.16-0.21,0.77-1.85-0.26-1.94c-0.04,0-0.07,0-0.11,0c-0.06-0.01-0.12-0.01-0.19,0c-0.68-0.03-1.32,0.02-1.93,0.13
	c-0.04-0.51-0.08-1.01-0.1-1.51c-0.01-0.38-0.34-0.59-0.69-0.53c-0.83,0.15-1.65,0.33-2.47,0.47c-0.23,0.04-0.38,0.34-0.31,0.55
	c0.07,0.22,0.12,0.43,0.18,0.65c0.04,0.27,0.09,0.54,0.15,0.8c-0.84,0.03-1.68,0.06-2.53,0.06c-1.28,0.02-1.28,1.98,0,1.98
	c0.86,0,1.71-0.02,2.57-0.06c0.11,0,0.21,0,0.32,0c0.15,0.89,0.31,1.77,0.49,2.66c-0.09-0.02-0.16-0.07-0.25-0.08
	c-0.08-0.03-0.17-0.04-0.26-0.04c-0.47-0.05-0.97-0.01-1.55,0.19c-2.03,0.71-3.47-1.12-5.27-1.98v-18.14
	c0.15-0.08,0.29-0.18,0.4-0.3c0.05-0.01,0.1-0.02,0.15-0.05c0.58-0.34,1.08-1.16,1.55-1.65c0.07-0.07,0.15-0.14,0.22-0.21
	c7.04-5.04,12.48-12.04,17.3-19.33c1.04,2.66,2.12,5.34,2.73,8.18c1.76,8.19-4.06,15.21-4.26,23.17c0,0.15,0.17,0.22,0.28,0.17
	c0.09,0.13,0.23,0.23,0.44,0.23c5.23,0,9.73-1.57,13.52-5.18c2.13-2.03,3.87-4.29,6.38-5.89c2.57-1.64,5.79-2.07,8.64-3.04
	c1.4-0.02,2.53,0.37,2.56,1.83c-0.02,0.03-0.03,0.07-0.05,0.1c-0.03,0.06,0,0.11,0.04,0.13c-0.01,0.1,0,0.18-0.01,0.29
	c-0.03,0.22,0.31,0.24,0.37,0.05c0.81-2.73,4.52-1.74,6.67-1.98c1.82-0.2,2.94-1.38,3.57-3.06c0.02-0.06-0.06-0.08-0.09-0.04
	c-0.03,0.04-0.08,0.08-0.11,0.12c-0.01-0.05-0.04-0.09-0.1-0.08c-0.32,0.04-0.42,0.27-0.6,0.09c-0.27-0.27-0.27-0.15-0.59-0.38
	c-0.55-0.38-0.63-1.2-0.68-1.82c-0.08-0.95,0.06-1.9,0.31-2.81c0.36-1.3,0.62-3,2.19-3.18c0,0,0-0.01,0.01-0.01
	c0.04,0.01,0.07,0.01,0.1,0.02c0.06,0.01,0.1-0.07,0.04-0.1c-0.64-0.41-1.08-1.01-1.42-1.7c-0.03-1.54-0.01-2.99,0.28-4.54
	c0.17-0.93,0.71-1.3,0.44-2.28c-0.06-0.23-0.27-0.47-0.51-0.51c-0.52-0.09-0.91-0.3-1.22-0.6c0.04-0.14,0.06-0.3,0.02-0.48
	c-0.66-2.74-0.46-7.86,3.26-8.13c0.11-0.01,0.11-0.17,0-0.17c-0.1,0-0.19,0.01-0.29,0.01c0.14-0.04,0.27-0.1,0.39-0.2
	c0.07-0.06,0.04-0.17-0.03-0.21c-0.5-0.29-0.84-0.72-1.08-1.2c0.17-1.73,1.52-2.75,2.02-4.4c0.5-1.66,0.64-3.46,0.84-5.18
	c0.4-3.49,0.71-6.95-0.51-10.18c-2.31,1.38-4.74,2.58-5.56,5.42c-0.03,0.09-0.16,0.05-0.14-0.04c0.82-3.32,3.12-4.97,5.65-6.56
	c1.11-1.49,2.34-2.87,3.94-3.85c1.31-0.81,5.4-0.58,5.4-2.55c0-0.09-0.05-0.16-0.12-0.19c-0.02-4.24-1.64-8.54-3.18-12.42
	c-0.97-2.44-2.08-4.81-2.99-7.28c-0.95-2.56-0.75-5.42-0.64-8.1c0.02-0.39,0.04-0.77,0.06-1.16c0.51-0.62,0.99-1.28,1.48-1.92
	c1.83-2.39,2.98-5.19,4.52-7.77c3.05-5.12,5.55-10.54,7.88-16.02c1.78-4.19,3.94-8.33,5.42-12.64c0.68-1.98,1.56-4.94,1.35-7.5
	c0.05,0,0.11,0,0.16,0L338.7,243.12L338.7,243.12z M266.12,223.39c0.06-0.06,0.14,0.03,0.09,0.09c-2.25,2.58-4.06,5.86-7.15,7.56
	c-0.11,0.06-0.25-0.1-0.14-0.18C261.62,228.64,263.71,225.9,266.12,223.39z M258.98,228.09c2.78-4.04,7.07-6.39,9.08-11.05
	c0.05-0.11,0.24-0.06,0.23,0.06c-0.63,4.74-6.65,7.42-9.27,11.01C259,228.14,258.96,228.12,258.98,228.09z M278.68,219.07
	c-0.59-3.4,0.09-6.17,1.69-9.21c0.08-0.15,0.34-0.05,0.28,0.12c-0.81,2.14-1.36,4.17-1.14,6.48c0.2,2.12,0.89,4.24,0.95,6.37
	c0.13,4.81-1.3,9.28-3.56,13.49c-0.05,0.09-0.18,0.01-0.14-0.08c1.43-2.8,2.64-5.85,2.85-9.03
	C279.81,224.38,279.16,221.82,278.68,219.07z M282.3,232.04c0.74-2.59,1.42-4.94,3.01-7.15c1.29-1.79,3.22-2.98,4.98-4.24
	c2.72-1.93,4.32-4.48,4.98-7.73c0.02-0.07,0.13-0.06,0.13,0.02c-0.09,2.41-0.86,4.78-2.49,6.6c-1.86,2.07-4.39,3.44-6.18,5.54
	c-2.26,2.66-2.48,5.96-4.22,8.81c-1.61,2.63-3.9,4.65-6.12,6.77c-0.07,0.07-0.18-0.04-0.11-0.11
	C278.66,238.08,281.33,235.43,282.3,232.04z M286.01,140.94c-0.58-0.65-0.75-1.48-0.64-2.33c0.02-0.15,0.25-0.17,0.25,0
	c-0.02,0.7,0.35,1.41,0.99,1.75c0.29,0.16,0.65,0.19,0.96,0.25c0.29-0.72,0.55-1.46,0.8-2.2c0.05-0.14,0.26-0.12,0.26,0.04
	c0.03,1.74-0.28,3.52-1.18,5.03c-0.3,0.51-0.67,1.25-1.17,1.61c-1.08,0.8-2.03,1.32-2.67,2.59c-0.07,0.13-0.3,0.04-0.24-0.1
	c0.65-1.58,1.93-2.75,2.83-4.18c0.38-0.6,0.69-1.23,0.98-1.87C286.75,141.49,286.28,141.24,286.01,140.94z M288.77,148.81
	c2.29-0.74,4.41-1.89,6.71-2.61c0.09-0.03,0.12,0.1,0.04,0.14c-2.77,1.05-5.23,2.93-8.05,3.82c-1.74,0.55-4.25,0.89-6.17,0.5
	c-0.08,0.04-0.15,0.07-0.23,0.1c-0.45,0.16-0.92,0.45-1.25,0.8c-0.65,0.69-1.26,1.43-1.92,2.11c-0.07,0.07-0.18-0.02-0.14-0.1
	c0.59-1,0.93-2.12,1.62-3.07c0.12-0.16,0.26-0.33,0.41-0.5c-1.42-0.21-2.64,0.05-3.88,1.02c-0.1,0.08-0.22-0.02-0.17-0.13
	c0.8-1.88,3.42-2.02,5.13-1.63c0.15-0.04,0.3-0.05,0.45-0.03C283.71,148.75,286.38,149.58,288.77,148.81z M302.63,110.62
	c-0.91-0.26-1.73-0.77-2.65-0.96c-0.08-0.01-0.05-0.13,0.02-0.13c1.1-0.03,1.99-0.31,3.03,0.13c0.33,0.14,0.65,0.29,0.97,0.46
	c0.04-0.07,0.09-0.14,0.13-0.21c0.02-0.04,0.1-0.01,0.08,0.03c-0.03,0.08-0.07,0.15-0.11,0.23c0.51,0.28,1.01,0.59,1.44,0.98
	c1.56,1.41,2.48,3.19,3.37,5.07c0.05,0.1-0.1,0.18-0.15,0.09c-0.91-1.68-2.08-3.45-3.7-4.54c-0.45-0.3-0.91-0.54-1.38-0.75
	c-1.86,3.43-5.5,6.95-3.96,11c0.6,1.58,1.48,3.22,1.47,4.95c0,0.04-0.01,0.08-0.01,0.12c0.47-1.27,1.39-2.12,2.69-2.88
	c1.84-1.07,3.82-1.83,4.22-4.14c0.02-0.09,0.15-0.06,0.15,0.02c0.05,1.7-0.68,3.39-2.18,4.26c-1.72,1-4.2,1.57-4.94,3.66
	c-0.13,1.21-0.45,2.4-0.72,3.6c-0.02,0.1-0.17,0.06-0.15-0.04c0.5-2.93,0.4-4.92-1.21-7.45c-0.92-1.45-1.39-2.85-1.33-4.58
	c0.06-1.68,0.92-2.8,2.01-3.94c1.4-1.46,2.67-2.97,3.76-4.66C303.2,110.83,302.93,110.71,302.63,110.62z M309.89,132.09
	c0.2,0.11,0.38,0.14,0.6,0.12c0.28-0.02,0.44,0,0.71,0.09c0.09,0.03,0.13,0.13,0.09,0.21c-0.39,0.75-1.49,0.66-2.01,0.07
	c-0.51-0.58-0.2-1.43,0.13-2.02c0.05-0.1,0.23-0.03,0.19,0.08C309.42,131.09,309.37,131.8,309.89,132.09z M309.45,136.08
	c0.56-0.11,0.92-0.46,1.42-0.7c0.15-0.07,0.32-0.01,0.38,0.15c0.41,1.23-1.16,1.72-2.07,1.64c-0.48-0.04-1.13-0.24-1.47-0.6
	c-0.27-0.29-0.08-0.56,0.05-0.85c0.04-0.09,0.16-0.04,0.17,0.04c0,0.09,0.01,0.16,0.05,0.23
	C308.46,135.99,308.95,136.18,309.45,136.08z M308.05,175.62c-0.65-1.73-0.85-3.05-0.46-4.87c0.02-0.09,0.16-0.07,0.16,0.02
	c0.06,2.15,1.2,4.1,1.45,6.24c0.26,2.24,0.07,4.39-0.3,6.6c-0.01,0.07-0.14,0.06-0.13-0.02C309.03,180.9,309.02,178.2,308.05,175.62
	z M303.39,195.75c0.01,0.08-0.1,0.11-0.12,0.03c-0.65-2.65-0.93-5.62,0.15-8.21c1.06-2.56,2.42-4.93,3.42-7.52
	c0.06-0.17,0.3-0.15,0.31,0.04c0.11,2.09-1.15,3.92-2.09,5.7C303.42,188.92,302.85,192.27,303.39,195.75z M304.07,219.98
	c-1.48,2.52-2.76,5.4-4.92,7.43c-2.09,1.96-4.76,3.66-7.45,4.65c-0.1,0.04-0.2-0.1-0.14-0.18c1.45-2.32,5.09-3.06,7.11-4.94
	c2.19-2.03,3.67-4.54,5.26-7.04C303.99,219.81,304.12,219.89,304.07,219.98z M293.17,233.47c2.32-1.56,4.98-2.26,7.35-3.67
	c5.63-3.35,7.09-10.55,8.06-16.55c0.02-0.1,0.18-0.07,0.17,0.02c-0.49,5.57-1.42,12.5-6,16.31c-2.16,1.8-5.11,2.33-7.62,3.47
	c-2.99,1.36-5.23,3.37-7.25,5.93c-0.04,0.06-0.14-0.02-0.1-0.08C289.3,236.83,291.02,234.91,293.17,233.47z M297.65,132.19
	c-0.08,0.15-0.33,0.08-0.32-0.09c0.08-2.44-2.07-3.21-3.02-5.12c-0.93-1.86-0.65-3.44-0.22-5.4c0.02-0.09,0.18-0.07,0.17,0.02
	c-0.21,1.67-0.17,3.48,0.77,4.96c0.58,0.89,1.41,1.49,2.06,2.31C297.98,129.98,298.29,130.88,297.65,132.19z M293.22,116.1
	c0.01,0.06-0.1,0.07-0.11,0.01c-0.65-3.59,2.9-6.14,3.81-9.37c0.02-0.08,0.12-0.07,0.15,0C298.53,110.8,292.91,112.37,293.22,116.1z
	 M294.1,132.16c-0.05,0.09-0.2,0.07-0.22-0.03c-0.18-0.76-0.39-1.45-0.79-2.13c-0.37-0.63-0.82-1.22-1.16-1.86
	c-0.04-0.08,0.07-0.17,0.13-0.1C292.98,129.22,295.12,130.39,294.1,132.16z M276.96,161.89c1.47-1.32,2.97-3.27,4.87-4.02
	c0.95-0.38,1.93-0.54,2.95-0.67c1.54-0.2,2.29-0.93,3.31-2.02c0.25-0.27,0.69,0.01,0.6,0.35c-0.46,1.69-1.67,2.67-3.43,2.79
	c-1.64,0.11-3.39-0.04-4.83,0.92c-1.21,0.81-2.26,1.81-3.38,2.73C276.98,162.03,276.9,161.95,276.96,161.89z M281.93,188.2
	c1.28-1.11,2.56-2.63,3.06-4.3c0.28-0.93,0.58-1.83,0.66-2.81c0.05-0.59,0.03-0.61,0.34-1.1c0.08-0.12,0.27-0.13,0.34,0
	c0.74,1.32-0.23,3.42-0.91,4.63c-0.86,1.51-1.95,2.73-3.38,3.72C281.96,188.41,281.85,188.27,281.93,188.2z M286,169.03
	c-0.13,0-0.12-0.18,0-0.2c2.85-0.28,5.63-0.51,8.1,0.88c-0.51-3.08-1.69-6.26-1.13-9.31c0.76-4.15,2.95-7.78,2.61-12.14
	c-0.01-0.1,0.16-0.12,0.18-0.02c0.49,2.27,0.11,4.31-0.35,6.35c2.29-0.53,5.94,0.24,6.23,2.84c0.02,0.15-0.21,0.16-0.25,0.03
	c-0.58-1.84-4.3-2.32-6.16-2.1c-0.33,1.41-0.66,2.85-0.73,4.39c-0.05,1.18-0.06,2.35-0.06,3.53c0.38,2.43,0.86,4.92,0.54,7.32
	c-0.02,0.16-0.13,0.34-0.32,0.32c-0.09-0.01-0.18-0.02-0.27-0.01c0,0.07,0,0.13-0.01,0.2c0,0.07-0.1,0.07-0.11,0
	c-0.01-0.08-0.02-0.15-0.03-0.23c-0.15-0.05-0.23-0.21-0.2-0.35C291.59,169.46,288.63,169.02,286,169.03z M298.12,174.64
	c-1.1,2.74-2.92,5.05-4.77,7.32c-0.02,0.03-0.07-0.01-0.05-0.04c1.72-2.37,2.73-5.15,4.61-7.41
	C297.99,174.42,298.17,174.52,298.12,174.64z M284.94,235.87c2.03-3.56,4.15-6.26,7.44-8.72c4.08-3.06,7.12-6.32,8.36-11.43
	c1.17-4.79,1.42-9.57,1.84-14.45c0.05-0.53,0.79-0.54,0.83,0c0.34,4.96-0.53,10.73-1.99,15.48c-1.33,4.33-3.72,7.43-7.28,10.19
	c-1.88,1.45-3.94,2.75-5.42,4.65c-1.69,2.17-2.82,4.65-4.4,6.88c-2.21,3.12-5.33,4.81-8.81,6.22c-0.09,0.04-0.15-0.12-0.07-0.16
	C279.78,242.5,282.57,240.04,284.94,235.87z M317.72,174.9c0.04,0.08-0.07,0.14-0.11,0.07c-0.93-1.55-1.07-3.23-0.83-5.01
	c0.3-2.27,0.44-4.42,0.53-6.69c0.01-0.18,0.26-0.27,0.36-0.1C319.71,166.76,315.79,171.13,317.72,174.9z M331.74,117.08
	c1.76-4.22,4.17-7.92,4.36-12.64c0-0.09,0.14-0.09,0.14,0c0.21,4.61-1.75,8.97-4.32,12.72
	C331.86,117.24,331.69,117.19,331.74,117.08z M338.7,67.85c-0.98-0.51-2.08-0.88-2.92-1.28c-1.71-0.8-3.45-1.05-5.31-0.73
	c-0.08,0.01-0.1,0.14-0.02,0.17c1.3,0.55,2.55,1.24,3.81,1.92c-0.19,0.08-0.38,0.17-0.57,0.23c-1.29,0.43-2.64,0.85-3.97,1.16
	c-0.12,0.03-0.09,0.17,0,0.21c1.33,0.55,2.55,0.62,3.95,0.35c0.83-0.16,1.87-0.38,2.59-0.9c0.78,0.42,1.6,0.95,2.44,1.24v7.07
	c-3.18-1.01-6.62-1.62-9.76-2.32c-1.36-0.3-2.72-0.63-4.07-0.97c0.02-0.18,0.01-0.37-0.09-0.58c-0.51-1.09-1.04-2.26-1.91-3.11
	c-0.08-0.08-0.25-0.05-0.27,0.07c-0.15,0.91-0.21,2.06,0.07,3.03c-0.03-0.01-0.05-0.01-0.08-0.02c-2.27-0.65-4.59-0.92-6.81-1.77
	c-0.06-0.02-0.08,0.06-0.04,0.09c1.45,1.07,3.1,2.4,4.79,3.03c2.3,0.86,4.71,1.4,7.1,1.95c0.04,0.01,0.07,0.02,0.11,0.03
	c-0.83,0.09-1.66,0.19-2.5,0.28c-3.2,0.33-6.39,0.7-9.5,1.56c-0.1,0.03-0.11,0.18,0,0.21c2.84,0.71,5.67,0.57,8.56,0.31
	c2.11-0.19,4.27-0.25,6.37-0.58c0.95,0.82,1.92,1.56,3.08,2.27c1.9,1.16,3.53,2.5,4.97,4.15V97c-0.16-0.08-0.32-0.17-0.49-0.25
	c-0.02-1.04-0.13-2.05-0.21-2.78c-0.1-0.94-0.65-1.48-1.59-1.59c-0.87-0.1-1.78,0.01-2.66-0.03c-0.43-0.02-0.98,0.34-1.04,0.79
	c-0.01,0.07-0.01,0.13-0.02,0.2c0.3,1.23,0.45,2.48,0.39,3.75c0,0.09-0.13,0.11-0.15,0.02c-0.21-0.81-0.45-1.61-0.68-2.42
	c-2.45-0.64-4.97-1.05-7.48-1.36c-3.23-0.4-7.11-0.79-10.32-0.07c-1.87,0.42-3.73,0.81-5.59,1.26c-1.9,0.46-3.6,1.52-5.49,1.92
	c-0.21,0.04-0.16,0.37,0.05,0.37c3.1-0.05,6.61,0.81,9.75,1.09c3.22,0.29,6.45,0.3,9.68,0.55c3.33,0.26,6.59,0.92,9.78,1.87
	c0.16,0.05,0.32,0.1,0.48,0.16c0.2,6.04-1.62,11.75-4.01,17.31c-2.23,5.18-4.54,10.32-7.09,15.35c0,0,0,0,0,0.01
	c-1.47,4.65-4.23,8.32-6.73,12.45c-2.49,4.1-4.62,8.4-7.1,12.51c-0.01,0.01-0.02,0-0.01-0.01c2.31-4.21,4.25-8.62,6.55-12.83
	c1.2-2.2,2.49-4.32,3.76-6.46c0.01-0.23,0.03-0.46,0.04-0.69c0.12-2.57-0.25-6.25-2.61-7.78c-0.03-0.02-0.05-0.02-0.08-0.02
	c0.09-0.4,0.14-0.8,0.14-1.14c-0.02-1.33-1.24-1.62-2.3-1.33c-0.1-0.34-0.21-0.68-0.33-1.03c-0.46-1.46,0.5-3.18,0.76-4.63
	c0.61-3.44-0.56-7.76-1.89-10.92c-0.91-2.17-2.22-4.11-3.82-5.71c-0.02-0.02-0.03-0.04-0.05-0.06c-2-2.46-5.26-4.6-8.51-4.81
	c-2.91-0.19-4.43,1.26-5.29,3.31c-0.73,0.96-1.33,2.06-1.82,3.25c-0.23,0.41-0.44,0.82-0.63,1.23c-1.62,2.01-2.85,4.29-3.49,7.11
	c-0.52,2.3-0.34,5.13,0.73,7.26c0.12,0.23,0.22,0.46,0.33,0.69c-1.14,1.13-2.93,1.69-4.44,2.25c-1.75,0.66-3.39,1.64-4.65,3.03
	c-0.88,0.97-1.31,2.35-1.43,3.63c-0.31,3.5-0.04,6.24-2.43,9.13c-3.19,3.85-6.9,6.85-7.42,12.19c-0.51,5.12,0.98,10.22,4.91,13.72
	c0.2,0.17,0.48,0.11,0.63-0.05c2.07,0.3,4.18-0.4,6.29-1.08c0.28,2.02,0.48,4.05,0.49,6.11c0.01,4.64-1.5,8.77-3.74,12.77
	c-3.36,5.99-8.13,12.64-8.71,19.7c-0.15,1.78,0,3.48,0.31,5.13c2.33-2.7,4.83-5.27,7.14-7.94c4.24-4.91,8.6-9.69,12.51-14.88
	c0.06-0.08,0.19-0.01,0.14,0.08c-3.52,5.11-7.23,10.14-11.38,14.76c-2.3,2.55-4.66,5.05-6.95,7.6c-0.42,0.47-0.83,0.97-1.22,1.48
	c0.02,0.07,0.03,0.13,0.04,0.2c-3.35,4.23-6.49,8.63-10.05,12.71c-2.05,2.35-4,4.78-6.16,7.03c-0.45,0.46-0.85,1.02-1.21,1.6V125.85
	c0.49-1.04,0.89-2.13,1.46-3.13c0.89-1.55,1.69-3.14,2.57-4.68c1.97-3.47,4.18-6.81,6.38-10.14c0.95-1.44,1.89-2.91,2.82-4.37
	c0.53-0.74,1.01-1.5,1.46-2.29c2.17-3.39,4.39-6.74,6.89-9.87c0.12,0.03,0.24,0.04,0.38,0.02c0.22-0.04,0.45-0.07,0.67-0.1
	c0.67,0.51,1.74,0.63,2.51,0.84c1.24,0.33,2.54,0.25,3.8,0.39c0.09,0.01,0.11-0.14,0.02-0.16c-1.23-0.29-2.33-0.92-3.53-1.28
	c-0.12-0.04-0.25-0.08-0.38-0.13c2.02-0.25,4.03-0.43,6.05-0.64c0.65,0.23,1.38,0.36,2.07,0.49c0.11,0.17,0.23,0.34,0.32,0.51
	c0.34,0.65,0.68,1.2,0.7,1.96c0,0.11,0.15,0.1,0.16,0c0.06-0.6,0.01-1.47-0.22-2.03c-0.03-0.07-0.06-0.16-0.09-0.25
	c0.07,0.02,0.15,0.03,0.22,0.06c1.83,0.58,3.58,1.62,5.41,2.26c0.05,0.02,0.08-0.06,0.04-0.09c-1.94-0.88-3.77-2.13-5.58-3.27
	c2.84-0.34,5.69-0.66,8.55-0.69c0.1,0,0.1-0.15,0-0.16c-3.66-0.29-7.29-0.76-10.96-0.81c-0.75-0.01-1.52,0.02-2.28,0.07
	c0-0.02,0.01-0.04,0.01-0.07c0.21-0.38,0.35-0.82,0.49-1.17c0.06-0.14,0.12-0.28,0.18-0.41c0.14-0.09,0.27-0.18,0.4-0.29
	c0.91-0.77,1.89-1.82,3.11-2.02c1.12-0.19,2.08-0.19,3.01-0.91c0.03-0.03,0.07-0.05,0.1-0.08c0.04-0.01,0.08-0.02,0.11-0.03
	c0.54-0.17,1.04-0.43,1.54-0.69c0.89-0.46,1.93-1.09,2.98-1.02c0.49,0.26,1.03,0.47,1.5,0.75c0.71,0.41,1.38,0.92,2.15,1.2
	c0.03,0.03,0.05,0.06,0.08,0.08c0.01,0.01,0.02,0,0.02-0.01c-0.41-0.6-0.79-1.22-1.26-1.78c-0.1-0.13-0.22-0.26-0.35-0.39
	c0.53,0.17,1.05,0.42,1.51,0.72c0.47,0.3,1.09,0.73,1.33,1.28c0.03,0.11,0.06,0.22,0.09,0.33c0,0.01,0,0.01,0,0.02s0.01,0,0.01,0
	c0.03-0.24-0.03-0.48-0.14-0.7c-0.13-0.67-0.3-1.34-0.63-1.93c-0.33-0.59-0.85-1.25-1.47-1.61c-0.44-2.16-0.88-3.83-3-5.05
	c-1.44-0.83-3.06-0.56-4.62-0.02c-0.04-0.01-0.08-0.03-0.11-0.04c-0.48-0.17-0.96-0.29-1.45-0.38c-0.12-0.05-0.24-0.09-0.36-0.15
	c-0.65-0.28-1.4-0.63-2.13-0.53c-0.32,0.04-0.63,0.14-0.93,0.26c-0.99-0.12-1.97-0.28-2.96-0.43c-1.21-0.19-2.45-0.38-3.66-0.1
	c-2.59,0.58-4.7,2.18-6.5,4.08c-0.94,0.99-1.87,1.98-2.66,3.08c-0.5,0.7-1.18,1.5-1.53,2.35c-0.62,0.13-1.24,0.27-1.86,0.4
	c-2.33,0.52-4.56,1.22-6.52,2.59c-0.01,0-0.02,0-0.03,0c-0.09-0.01-0.15,0.06-0.16,0.14c-0.09,0.1,0.03,0.24,0.15,0.23
	c0.02,0,0.05-0.01,0.08-0.01c0.52,0.15,0.99,0.33,1.55,0.34c0.51,0.01,1.03-0.04,1.53-0.12c1.17-0.18,2.32-0.47,3.46-0.77
	c0.04-0.01,0.08-0.02,0.13-0.04c-0.14,0.08-0.27,0.16-0.41,0.24c-1.72,0.97-3.95,1.67-5.24,3.24c-0.12,0.14,0.06,0.38,0.23,0.32
	c0.04-0.01,0.09-0.03,0.13-0.04c0.6,0.93,1.95,0.67,3.16,0.2c0.03,0.02,0.07,0.03,0.1,0.04c-0.47,0.42-0.9,0.89-1.24,1.31
	c-0.28,0.34,0.03,0.85,0.46,0.65c0.05-0.02,0.1-0.05,0.15-0.08c0.34,0,0.7-0.2,1-0.4c1.01-0.44,1.91-1.17,2.81-1.79
	c0.03-0.02,0.05-0.04,0.08-0.06c0.15-0.06,0.29-0.13,0.42-0.19c-0.17,0.36-0.33,0.72-0.54,1.07c-0.04,0.06,0.04,0.11,0.09,0.07
	c0.81-0.62,1.79-0.86,2.54-1.58c0.03-0.03,0.06-0.06,0.09-0.09c0.21-0.03,0.41-0.07,0.62-0.12c1.03-0.25,2.02-0.64,3.02-0.96
	c0.21-0.07,0.42-0.14,0.63-0.22c0.99,0.41,1.91,0.81,3.05,0.67c0.73-0.09,1.51-0.29,2.22-0.03c0.6,0.21,1.16,0.39,1.69,0.71
	c0.01,0.02,0.03,0.04,0.04,0.06c-0.69,0.07-1.38,0.16-2.07,0.26c-1.19,0.08-2.38,0.15-3.57,0.16c-0.12,0-0.23,0.06-0.33,0.14
	c-0.63,0-1.24,0.66-1.63,1.07c-0.3,0.31-0.63,0.66-0.93,1.02c-0.98,0.8-1.88,1.73-2.76,2.59c-2.3,2.24-4.68,4.39-6.95,6.65
	c-2.38,2.37-4.75,4.78-7.07,7.22c0.02-2.75,0.02-5.5-0.1-8.24c0.21-2.57,0.37-5.14,0.41-7.7c0.16-0.11,0.31-0.26,0.39-0.49
	c1.65-4.64,2.65-9.35,4.84-13.8c1.95-3.95,4.39-7.46,5.79-11.69c0.04-0.11-0.13-0.15-0.17-0.05c-1.3,3.34-3.61,5.97-5.72,8.75
	c-0.04-0.61-0.09-1.22-0.14-1.83c-0.19-2.16-0.59-4.22-0.49-6.4c0-0.08-0.12-0.1-0.14-0.02c-0.35,1.86-0.99,3.76-1.15,5.64
	c-0.09,1.06-0.08,2.08-0.01,3.14c0.05,0.9,0.22,1.13,0.48,1.5c-0.18,0.27-0.37,0.54-0.55,0.82c-1.62,2.62-2.45,5.69-3.27,8.72
	c-0.15-2.16-0.4-4.31-0.83-6.43c0.01-0.16,0.03-0.32,0.04-0.48c0.07-1.05,0-2.05-0.1-3.1c0.1-1.1,0.17-2.2,0.15-3.31
	c0-0.15-0.17-0.22-0.28-0.16c0.02-0.78,0.02-1.55-0.05-2.34c-0.01-0.13-0.21-0.14-0.21,0c-0.09,2.28-0.55,4.49-0.92,6.71
	c-0.02,0.01-0.04,0.01-0.05,0.04c0,0.09,0,0.19-0.01,0.28c-0.18,1.11-0.31,2.22-0.37,3.34v-19.4h86.4L338.7,67.85L338.7,67.85z
	 M254.17,116.94c1.04-1.19,1.42-2.77,2.25-4.1c0.77-1.24,1.66-2.33,2.53-3.49c1.8-2.41,3.5-4.88,5.43-7.19
	c0.05-0.06,0.12,0.02,0.08,0.08c-2.2,2.82-4.23,5.81-6.3,8.72c-1.37,1.93-1.93,4.74-3.66,6.32
	C254.27,117.48,253.96,117.17,254.17,116.94z M274.33,84.05c-0.11-0.01-0.16-0.19-0.03-0.21c3.42-0.54,9.98-1.62,10.6-5.92
	c0.02-0.11,0.17-0.09,0.2,0C286.7,82.97,277.38,84.38,274.33,84.05z"/>
<path fill="#3F3F3F" d="M508.5,130.76v-38.4h-3.6V53.95l-104.4,0.01v38.4h3.6v38.4h-3.6v38.4h3.6v38.4h-3.6v38.4h3.6v38.39h33.6v3.6
	h33.6v-3.6l37.2,0.01v-38.4h-3.6v-38.4h3.6v-38.4h-3.6v-38.4L508.5,130.76L508.5,130.76z M442.51,273.14
	c-3.87,2.07-8.35-1.17-11.71-2.88c-2.61-1.34-5.33-1.86-8.26-1.61c-1.5,0.13-2.88,0.29-4.29,0.79c-0.75,0.27-1.23,0.3-2.04,0.2
	c-0.06-0.01-0.08-0.1-0.02-0.11c1.23-0.18,1.94-1.03,3.06-1.38c1.07-0.33,2.16-0.56,3.28-0.64c2.3-0.16,4.7-0.14,6.91,0.62
	c2.05,0.71,3.87,1.82,5.83,2.72c1.4,0.65,2.91,1.28,4.48,1.35c1.1,0.05,1.79,0.02,2.76,0.48
	C442.69,272.77,442.68,273.05,442.51,273.14z M496.88,266.04c-2.39-0.1-4.4-0.53-6.58,0.85c-1.63,1.03-3.11,2.35-4.85,3.21
	c-3.61,1.77-7.28,2.24-11.24,2.55c-0.08,0.01-0.1-0.13-0.02-0.14c4.76-0.77,9.23-2.32,13.11-5.24c1.3-0.98,2.69-2.13,4.3-2.58
	c1.77-0.5,3.45-0.34,5.27-0.23C497.89,264.51,497.9,266.08,496.88,266.04z M497.7,243.12c-0.56-1.02-1.1-2.06-1.55-3.16
	c-0.31-0.75-0.58-1.51-0.83-2.28c0.04-0.2,0.03-0.4-0.02-0.83c-0.15-1.32-0.26-2.44,0.1-3.76c0.47-1.73,0.9-3.08,0.81-4.89
	c-0.01-0.1-0.16-0.11-0.16,0c-0.08,1.95-1.22,3.83-1.82,5.75c-0.18-0.69-0.36-1.38-0.54-2.07c-0.26-0.99-0.47-1.83-0.8-2.56
	c0.49-0.94,1.18-1.83,1.21-2.96c0.05-2.02-0.15-4.01-0.13-6.04c0-0.11-0.15-0.1-0.16,0c-0.13,1.33-0.26,2.62-0.55,3.88v0
	c-0.4-0.74-1-1.33-1.43-2.04c-0.05-0.08-0.16-0.01-0.12,0.07c0.28,0.64,0.63,1.26,0.97,1.87c0.16,0.3,0.34,0.62,0.37,0.96
	c-0.15,0.52-0.34,1.03-0.58,1.54c-0.26,0.56-0.39,0.99-0.46,1.4c-0.29-0.29-0.63-0.55-1.07-0.8c-1.3-0.73-3.07-1.26-4.6-1.05
	c-0.96-1.4-1.94-2.79-2.95-4.16c-0.08-0.11-0.3-0.05-0.24,0.1c0.48,1.18,1.07,2.32,1.58,3.49c-1.07-0.5-2.27-0.54-3.55-0.86
	c-0.1-0.03-0.16,0.11-0.07,0.16c0.61,0.39,1.26,0.69,1.93,0.97c-0.36,0.29-0.69,0.61-1,0.96c-0.11,0.13,0,0.3,0.16,0.27
	c0.62-0.09,1.12-0.51,1.6-0.89c0.02-0.02,0.04-0.05,0.06-0.07c0.41,0.12,0.82,0.21,1.23,0.33c0.09,0.22,0.18,0.44,0.26,0.66
	c0.13,0.39,0.48,0.57,0.88,0.5c2.19-0.4,4.93,0.79,5.3,3.03c0.17,1,0.38,1.98,0.61,2.96c-0.71-0.02-1.42,0-2.13,0.01
	c-0.03-0.13-0.1-0.26-0.23-0.33c-0.22-0.12-0.48-0.81-0.64-1.07c-0.21-0.34-0.39-0.8-0.66-1.1c-0.06-0.06-0.15-0.01-0.15,0.06
	c-0.04,0.41,0.18,0.87,0.24,1.28c0.05,0.37,0.32,0.77,0.38,1.15c-0.09,0-0.19,0-0.28-0.01c-0.71-0.04-1.42-0.59-1.98-0.96
	c-0.83-0.54-1.82-0.99-2.72-1.39c-0.08-0.04-0.17,0.06-0.1,0.13c0.5,0.53,0.98,1.3,1.52,1.98c-0.27,0.04-0.53,0.11-0.76,0.14
	c-0.84,0.12-1.62,0.37-2.36,0.76c-0.06,0.03-0.03,0.12,0.03,0.12c0.81-0.01,1.62-0.05,2.43-0.12c0.44-0.04,0.96,0.01,1.41-0.11
	c0.43,0.38,0.92,0.66,1.5,0.72c1.21,0.12,2.43,0.22,3.65,0.29c-0.58,0.33-1.17,0.66-1.8,0.89c-0.56-0.35-1.21-0.54-1.79-0.09
	c-0.06,0.04-0.05,0.14,0,0.19c0.55,0.57,1.39,1.24,2.18,0.97c1-0.35,1.87-0.95,2.84-1.37c0.15,0.52,0.29,1.04,0.45,1.56
	c0.32,1.08,0.72,2.1,1.14,3.1c0.13,0.54,0.26,1.09,0.38,1.63c-0.73-0.21-1.49-0.19-2.22-0.42c-1.54-0.49-2.62-1.79-3.61-2.99
	c-0.05-0.06-0.15,0.02-0.11,0.09c0.34,0.51,0.66,1.01,0.99,1.48c-0.3,0-0.6,0.03-0.94,0.05c-0.54,0.04-1.08,0.04-1.61,0.08
	c-0.1,0.01-0.14,0.13-0.05,0.19c0.72,0.5,2.25,0.78,2.97,0.17c0.24,0.32,0.49,0.62,0.77,0.9c-0.38,0.03-0.76,0.06-1.14,0.12
	c-0.72,0.12-1.81,0.53-2.35,1.04c-0.05,0.04-0.01,0.13,0.05,0.13c0.81-0.03,1.6-0.25,2.42-0.26c0.64-0.01,1.3-0.12,1.89-0.34
	c0.35,0.22,0.73,0.42,1.18,0.56c0.85,0.27,1.54,0.48,2.15,1.03c0.26,1.33,0.48,2.67,0.64,4.01c0.23,2.01,0.03,3.94-0.1,5.95
	c-0.09,1.38,0.32,2.83,0.69,4.21c-0.09,0.06-0.17,0.12-0.26,0.18c-0.72,0.02-1.42,0.11-1.9,0.15c-1.49,0.14-2.71,0.7-3.88,1.41
	c-0.88,0.03-1.75,0.07-2.63,0.11c-1.19-2.16-2.16-4.41-3.14-6.67c0.67-0.16,1.28-0.4,1.95-0.61c0.78-0.25,1.66-0.51,2.29-1.07
	c0.21-0.18,0.35-0.4,0.47-0.62c0.01-0.02,0.02-0.03,0.03-0.04c0.02-0.03,0.02-0.05,0.02-0.08c0.51-1.16-0.04-2.67-0.8-3.63
	c-0.14-0.18-0.43-0.22-0.63-0.17c-0.03,0.01-0.05,0.02-0.07,0.03c-0.12-0.03-0.26-0.02-0.41,0.01c-1.58,0.4-3.18,0.76-4.79,1.13
	c-0.45-1.17-1.17-2.23-1.63-3.4c-0.12-0.31-0.44-0.58-0.8-0.45c-0.32,0.12-0.65,0.24-0.97,0.35c-0.24,0.07-0.49,0.15-0.73,0.22
	c-0.27,0.06-0.53,0.12-0.79,0.2c-0.09,0.03-0.16,0.07-0.22,0.11c-0.37,0.09-0.74,0.16-1.12,0.2c-0.26,0.02-0.5,0.26-0.41,0.54
	c0.23,0.7,0.5,1.37,0.78,2.04c0.05,0.35,0.14,0.7,0.24,1.05c0.03,0.16,0.06,0.32,0.1,0.48c-1.91,0.49-3.8,1.03-5.63,1.69
	c-0.05,0.02-0.08,0.06-0.12,0.08c-0.15,0.04-0.3,0.07-0.45,0.1c-0.23,0.06-0.42,0.34-0.32,0.57c0.18,0.45,0.39,0.89,0.6,1.32
	c0.24,0.84,0.8,1.75,1.03,2.26c0.11,0.25,0.49,0.39,0.74,0.3c1.85-0.64,3.77-1.25,5.7-1.78c0.04,0.1,0.08,0.21,0.12,0.32
	c0.61,1.63,1.35,3.22,1.92,4.87c0.11,0.33,0.19,0.63,0.27,0.93c-1.7,0.06-3.4,0.11-5.1,0.17c-0.36-0.07-0.73-0.13-1.1-0.19
	c-1.4-0.31-2.96-0.61-4.34-0.57c-0.05-0.01-0.1-0.01-0.15-0.02c-1.23-0.12-2.61,0.45-3.95,1.08c-3.56,0.1-7.12,0.2-10.68,0.29
	c-4.38,0.11-8.77,0.09-13.15,0.03c-1.44-0.46-2.89-0.9-4.41-1.01c-0.66-0.05-1.34-0.08-2.02-0.06c0.21-0.82,0.32-1.85,0.27-2.85
	c0.27,0.01,0.53,0.01,0.82-0.06c0.3-0.07,0.41-0.49,0.18-0.7c-0.33-0.3-0.73-0.51-1.16-0.66c-0.19-0.85-0.62-1.73-1.39-2.13
	c-0.33-0.21-0.71-0.35-1.16-0.4c-1.58-0.15-2.53,0.75-3.2,2.02c-0.72,0.09-1.38,0.31-1.83,0.77c-0.1,0.1-0.1,0.27,0,0.38
	c0.3,0.3,0.66,0.47,1.05,0.57c-0.2,0.48-0.37,0.98-0.53,1.46c-0.2,0.62-0.55,1.37-0.63,2.07c-1.32-0.39-2.96-0.31-4.35,0.21
	c-0.8-0.01-1.61-0.02-2.41-0.02c-0.16-1.29-0.22-2.62-0.35-3.93c0.5-0.07,0.99-0.19,1.46-0.34c0.28-0.04,0.56-0.08,0.84-0.13
	c1.16-0.21,0.78-1.85-0.26-1.94c-0.04,0-0.07,0-0.11,0c-0.06-0.01-0.12-0.01-0.19,0c-0.68-0.03-1.31,0.02-1.93,0.13
	c-0.04-0.51-0.08-1.01-0.1-1.51c-0.01-0.38-0.34-0.59-0.69-0.53c-0.83,0.15-1.65,0.33-2.47,0.47c-0.23,0.04-0.39,0.34-0.31,0.55
	c0.07,0.22,0.12,0.43,0.18,0.65c0.03,0.27,0.09,0.54,0.15,0.8c-0.84,0.03-1.68,0.06-2.52,0.06c-1.28,0.02-1.28,1.98,0,1.98
	c0.86,0,1.71-0.02,2.57-0.06c0.11,0,0.21,0,0.32,0c0.15,0.89,0.31,1.77,0.49,2.66c-0.08-0.02-0.16-0.07-0.25-0.08
	c-0.08-0.03-0.17-0.04-0.26-0.04c-0.47-0.05-0.98-0.01-1.55,0.19c-2.03,0.71-3.47-1.12-5.27-1.98v-18.14
	c0.15-0.08,0.29-0.18,0.4-0.3c0.05-0.01,0.1-0.02,0.15-0.05c0.58-0.34,1.08-1.16,1.55-1.65c0.07-0.07,0.15-0.14,0.22-0.21
	c7.04-5.04,12.48-12.04,17.3-19.33c1.04,2.66,2.12,5.34,2.73,8.18c1.76,8.19-4.06,15.21-4.26,23.17c0,0.15,0.17,0.22,0.28,0.17
	c0.09,0.13,0.23,0.23,0.44,0.23c5.23,0,9.73-1.57,13.52-5.18c2.13-2.03,3.87-4.29,6.38-5.89c2.57-1.64,5.78-2.07,8.64-3.04
	c1.4-0.02,2.53,0.37,2.56,1.83c-0.02,0.03-0.03,0.07-0.05,0.1c-0.03,0.06,0,0.11,0.04,0.13c-0.01,0.1,0,0.18-0.01,0.29
	c-0.03,0.22,0.31,0.24,0.37,0.05c0.81-2.73,4.52-1.74,6.67-1.98c1.82-0.2,2.94-1.38,3.57-3.06c0.02-0.06-0.06-0.08-0.09-0.04
	c-0.03,0.04-0.07,0.08-0.11,0.12c-0.01-0.05-0.04-0.09-0.1-0.08c-0.32,0.04-0.42,0.27-0.6,0.09c-0.27-0.27-0.27-0.15-0.6-0.38
	c-0.55-0.38-0.63-1.2-0.68-1.82c-0.08-0.95,0.06-1.9,0.31-2.81c0.36-1.3,0.62-3,2.19-3.18c0,0,0-0.01,0.01-0.01
	c0.03,0.01,0.07,0.01,0.1,0.02c0.06,0.01,0.1-0.07,0.04-0.1c-0.64-0.41-1.08-1.01-1.42-1.7c-0.04-1.54-0.01-2.99,0.28-4.54
	c0.17-0.93,0.71-1.3,0.44-2.28c-0.06-0.23-0.27-0.47-0.51-0.51c-0.52-0.09-0.91-0.3-1.22-0.6c0.04-0.14,0.06-0.3,0.02-0.48
	c-0.66-2.74-0.46-7.86,3.26-8.13c0.11-0.01,0.11-0.17,0-0.17c-0.1,0-0.2,0.01-0.29,0.01c0.14-0.04,0.27-0.1,0.39-0.2
	c0.07-0.06,0.04-0.17-0.03-0.21c-0.5-0.29-0.84-0.72-1.08-1.2c0.17-1.73,1.52-2.75,2.01-4.4c0.5-1.66,0.64-3.46,0.84-5.18
	c0.4-3.49,0.71-6.95-0.51-10.18c-2.31,1.38-4.74,2.58-5.56,5.42c-0.02,0.09-0.16,0.05-0.14-0.04c0.82-3.32,3.12-4.97,5.65-6.56
	c1.11-1.49,2.34-2.87,3.94-3.85c1.31-0.81,5.4-0.58,5.4-2.55c0-0.09-0.05-0.16-0.12-0.19c-0.02-4.24-1.64-8.54-3.18-12.42
	c-0.97-2.44-2.08-4.81-2.99-7.28c-0.95-2.56-0.75-5.42-0.64-8.1c0.02-0.39,0.04-0.77,0.06-1.16c0.51-0.62,0.99-1.28,1.48-1.92
	c1.83-2.39,2.98-5.19,4.52-7.77c3.05-5.12,5.55-10.54,7.88-16.02c1.78-4.19,3.94-8.33,5.42-12.64c0.68-1.98,1.56-4.94,1.35-7.5
	c0.05,0,0.1,0,0.16,0L497.7,243.12L497.7,243.12z M425.12,223.39c0.06-0.06,0.14,0.03,0.09,0.09c-2.25,2.58-4.06,5.86-7.15,7.56
	c-0.11,0.06-0.25-0.1-0.14-0.18C420.62,228.64,422.71,225.9,425.12,223.39z M417.98,228.09c2.78-4.04,7.07-6.39,9.08-11.05
	c0.05-0.11,0.24-0.06,0.23,0.06c-0.63,4.74-6.65,7.42-9.27,11.01C418,228.14,417.96,228.12,417.98,228.09z M437.68,219.07
	c-0.59-3.4,0.09-6.17,1.69-9.21c0.08-0.15,0.34-0.05,0.28,0.12c-0.81,2.14-1.36,4.17-1.14,6.48c0.2,2.12,0.89,4.24,0.95,6.37
	c0.13,4.81-1.3,9.28-3.56,13.49c-0.05,0.09-0.18,0.01-0.14-0.08c1.43-2.8,2.64-5.85,2.85-9.03
	C438.81,224.38,438.16,221.82,437.68,219.07z M441.3,232.04c0.74-2.59,1.42-4.94,3.01-7.15c1.29-1.79,3.22-2.98,4.98-4.24
	c2.71-1.93,4.32-4.48,4.98-7.73c0.01-0.07,0.13-0.06,0.13,0.02c-0.1,2.41-0.86,4.78-2.49,6.6c-1.86,2.07-4.39,3.44-6.18,5.54
	c-2.26,2.66-2.48,5.96-4.22,8.81c-1.61,2.63-3.9,4.65-6.12,6.77c-0.07,0.07-0.18-0.04-0.11-0.11
	C437.66,238.08,440.33,235.43,441.3,232.04z M445.01,140.94c-0.58-0.65-0.75-1.48-0.64-2.33c0.02-0.15,0.25-0.17,0.25,0
	c-0.02,0.7,0.35,1.41,0.99,1.75c0.29,0.16,0.65,0.19,0.96,0.25c0.28-0.72,0.54-1.46,0.8-2.2c0.05-0.14,0.26-0.12,0.26,0.04
	c0.03,1.74-0.28,3.52-1.18,5.03c-0.3,0.51-0.68,1.25-1.17,1.61c-1.08,0.8-2.03,1.32-2.67,2.59c-0.07,0.13-0.3,0.04-0.24-0.1
	c0.65-1.58,1.93-2.75,2.83-4.18c0.38-0.6,0.69-1.23,0.98-1.87C445.75,141.49,445.28,141.24,445.01,140.94z M447.77,148.81
	c2.29-0.74,4.41-1.89,6.71-2.61c0.09-0.03,0.12,0.1,0.04,0.14c-2.77,1.05-5.23,2.93-8.05,3.82c-1.74,0.55-4.25,0.89-6.18,0.5
	c-0.07,0.04-0.15,0.07-0.23,0.1c-0.45,0.16-0.92,0.45-1.25,0.8c-0.65,0.69-1.26,1.43-1.92,2.11c-0.07,0.07-0.18-0.02-0.14-0.1
	c0.59-1,0.93-2.12,1.62-3.07c0.11-0.16,0.26-0.33,0.41-0.5c-1.42-0.21-2.64,0.05-3.88,1.02c-0.1,0.08-0.22-0.02-0.17-0.13
	c0.8-1.88,3.42-2.02,5.13-1.63c0.15-0.04,0.3-0.05,0.45-0.03C442.71,148.75,445.38,149.58,447.77,148.81z M461.63,110.62
	c-0.91-0.26-1.73-0.77-2.65-0.96c-0.08-0.01-0.06-0.13,0.02-0.13c1.1-0.03,1.98-0.31,3.03,0.13c0.33,0.14,0.65,0.29,0.97,0.46
	c0.04-0.07,0.09-0.14,0.13-0.21c0.02-0.04,0.1-0.01,0.08,0.03c-0.03,0.08-0.07,0.15-0.11,0.23c0.51,0.28,1.01,0.59,1.44,0.98
	c1.56,1.41,2.48,3.19,3.37,5.07c0.05,0.1-0.1,0.18-0.15,0.09c-0.91-1.68-2.08-3.45-3.69-4.54c-0.45-0.3-0.91-0.54-1.38-0.75
	c-1.86,3.43-5.5,6.95-3.97,11c0.6,1.58,1.48,3.22,1.48,4.95c0,0.04-0.01,0.08-0.01,0.12c0.47-1.27,1.39-2.12,2.69-2.88
	c1.84-1.07,3.82-1.83,4.22-4.14c0.02-0.09,0.15-0.06,0.15,0.02c0.05,1.7-0.68,3.39-2.18,4.26c-1.72,1-4.21,1.57-4.94,3.66
	c-0.13,1.21-0.44,2.4-0.72,3.6c-0.02,0.1-0.17,0.06-0.15-0.04c0.5-2.93,0.39-4.92-1.21-7.45c-0.92-1.45-1.39-2.85-1.33-4.58
	c0.06-1.68,0.92-2.8,2.01-3.94c1.4-1.46,2.67-2.97,3.76-4.66C462.2,110.83,461.93,110.71,461.63,110.62z M468.89,132.09
	c0.2,0.11,0.38,0.14,0.6,0.12c0.28-0.02,0.44,0,0.71,0.09c0.09,0.03,0.13,0.13,0.09,0.21c-0.39,0.75-1.49,0.66-2.01,0.07
	c-0.51-0.58-0.2-1.43,0.13-2.02c0.05-0.1,0.23-0.03,0.19,0.08C468.42,131.09,468.37,131.8,468.89,132.09z M468.45,136.08
	c0.56-0.11,0.93-0.46,1.42-0.7c0.15-0.07,0.32-0.01,0.38,0.15c0.41,1.23-1.16,1.72-2.07,1.64c-0.48-0.04-1.13-0.24-1.47-0.6
	c-0.27-0.29-0.08-0.56,0.05-0.85c0.04-0.09,0.16-0.04,0.17,0.04c0,0.09,0.01,0.16,0.05,0.23
	C467.46,135.99,467.95,136.18,468.45,136.08z M467.05,175.62c-0.65-1.73-0.85-3.05-0.46-4.87c0.02-0.09,0.16-0.07,0.16,0.02
	c0.06,2.15,1.2,4.1,1.45,6.24c0.26,2.24,0.07,4.39-0.3,6.6c-0.01,0.07-0.14,0.06-0.13-0.02C468.03,180.9,468.02,178.2,467.05,175.62
	z M462.39,195.75c0.01,0.08-0.1,0.11-0.12,0.03c-0.65-2.65-0.93-5.62,0.15-8.21c1.06-2.56,2.42-4.93,3.43-7.52
	c0.06-0.17,0.3-0.15,0.31,0.04c0.11,2.09-1.15,3.92-2.09,5.7C462.42,188.92,461.85,192.27,462.39,195.75z M463.07,219.98
	c-1.48,2.52-2.76,5.4-4.92,7.43c-2.09,1.96-4.76,3.66-7.45,4.65c-0.1,0.04-0.2-0.1-0.14-0.18c1.45-2.32,5.09-3.06,7.11-4.94
	c2.19-2.03,3.67-4.54,5.26-7.04C462.99,219.81,463.12,219.89,463.07,219.98z M452.17,233.47c2.32-1.56,4.98-2.26,7.35-3.67
	c5.64-3.35,7.09-10.55,8.06-16.55c0.02-0.1,0.18-0.07,0.17,0.02c-0.49,5.57-1.43,12.5-6,16.31c-2.16,1.8-5.11,2.33-7.62,3.47
	c-2.99,1.36-5.23,3.37-7.25,5.93c-0.04,0.06-0.14-0.02-0.1-0.08C448.3,236.83,450.02,234.91,452.17,233.47z M456.65,132.19
	c-0.08,0.15-0.33,0.08-0.32-0.09c0.08-2.44-2.07-3.21-3.02-5.12c-0.93-1.86-0.64-3.44-0.22-5.4c0.02-0.09,0.18-0.07,0.17,0.02
	c-0.21,1.67-0.17,3.48,0.78,4.96c0.58,0.89,1.41,1.49,2.06,2.31C456.98,129.98,457.29,130.88,456.65,132.19z M452.22,116.1
	c0.01,0.06-0.1,0.07-0.11,0.01c-0.65-3.59,2.9-6.14,3.81-9.37c0.02-0.08,0.12-0.07,0.15,0C457.53,110.8,451.91,112.37,452.22,116.1z
	 M453.1,132.16c-0.05,0.09-0.2,0.07-0.22-0.03c-0.18-0.76-0.39-1.45-0.79-2.13c-0.37-0.63-0.81-1.22-1.16-1.86
	c-0.04-0.08,0.07-0.17,0.13-0.1C451.98,129.22,454.12,130.39,453.1,132.16z M435.96,161.89c1.47-1.32,2.97-3.27,4.87-4.02
	c0.95-0.38,1.93-0.54,2.95-0.67c1.54-0.2,2.29-0.93,3.31-2.02c0.25-0.27,0.69,0.01,0.6,0.35c-0.46,1.69-1.67,2.67-3.43,2.79
	c-1.64,0.11-3.39-0.04-4.83,0.92c-1.21,0.81-2.26,1.81-3.38,2.73C435.98,162.03,435.9,161.95,435.96,161.89z M440.93,188.2
	c1.28-1.11,2.56-2.63,3.06-4.3c0.28-0.93,0.58-1.83,0.66-2.81c0.05-0.59,0.03-0.61,0.34-1.1c0.08-0.12,0.27-0.13,0.34,0
	c0.74,1.32-0.23,3.42-0.91,4.63c-0.86,1.51-1.95,2.73-3.38,3.72C440.96,188.41,440.85,188.27,440.93,188.2z M445,169.03
	c-0.13,0-0.12-0.18,0-0.2c2.85-0.28,5.63-0.51,8.1,0.88c-0.51-3.08-1.69-6.26-1.13-9.31c0.76-4.15,2.95-7.78,2.61-12.14
	c-0.01-0.1,0.16-0.12,0.18-0.02c0.49,2.27,0.11,4.31-0.35,6.35c2.29-0.53,5.95,0.24,6.23,2.84c0.02,0.15-0.21,0.16-0.25,0.03
	c-0.58-1.84-4.3-2.32-6.16-2.1c-0.33,1.41-0.66,2.85-0.73,4.39c-0.05,1.18-0.06,2.35-0.06,3.53c0.38,2.43,0.86,4.92,0.54,7.32
	c-0.02,0.16-0.13,0.34-0.32,0.32c-0.09-0.01-0.18-0.02-0.27-0.01c0,0.07,0,0.13-0.01,0.2c0,0.07-0.1,0.07-0.11,0
	c-0.01-0.08-0.02-0.15-0.03-0.23c-0.15-0.05-0.23-0.21-0.2-0.35C450.59,169.46,447.63,169.02,445,169.03z M457.12,174.64
	c-1.1,2.74-2.92,5.05-4.77,7.32c-0.02,0.03-0.07-0.01-0.05-0.04c1.72-2.37,2.73-5.15,4.6-7.41
	C456.99,174.42,457.17,174.52,457.12,174.64z M443.94,235.87c2.03-3.56,4.15-6.26,7.44-8.72c4.08-3.06,7.12-6.32,8.36-11.43
	c1.17-4.79,1.42-9.57,1.84-14.45c0.04-0.53,0.79-0.54,0.83,0c0.34,4.96-0.53,10.73-1.99,15.48c-1.33,4.33-3.71,7.43-7.28,10.19
	c-1.88,1.45-3.94,2.75-5.42,4.65c-1.69,2.17-2.82,4.65-4.4,6.88c-2.21,3.12-5.33,4.81-8.81,6.22c-0.09,0.04-0.15-0.12-0.07-0.16
	C438.78,242.5,441.57,240.04,443.94,235.87z M476.72,174.9c0.04,0.08-0.07,0.14-0.11,0.07c-0.93-1.55-1.07-3.23-0.83-5.01
	c0.3-2.27,0.44-4.42,0.53-6.69c0.01-0.18,0.26-0.27,0.35-0.1C478.71,166.76,474.79,171.13,476.72,174.9z M490.74,117.08
	c1.76-4.22,4.17-7.92,4.36-12.64c0-0.09,0.14-0.09,0.14,0c0.21,4.61-1.75,8.97-4.32,12.72
	C490.86,117.24,490.69,117.19,490.74,117.08z M497.7,67.85c-0.98-0.51-2.08-0.88-2.92-1.28c-1.71-0.8-3.45-1.05-5.31-0.73
	c-0.08,0.01-0.1,0.14-0.02,0.17c1.3,0.55,2.55,1.24,3.81,1.92c-0.19,0.08-0.38,0.17-0.57,0.23c-1.29,0.43-2.64,0.85-3.97,1.16
	c-0.12,0.03-0.09,0.17,0,0.21c1.33,0.55,2.55,0.62,3.95,0.35c0.83-0.16,1.87-0.38,2.59-0.9c0.79,0.42,1.6,0.95,2.44,1.24v7.07
	c-3.18-1.01-6.62-1.62-9.76-2.32c-1.36-0.3-2.72-0.63-4.07-0.97c0.02-0.18,0.01-0.37-0.09-0.58c-0.51-1.09-1.04-2.26-1.91-3.11
	c-0.08-0.08-0.25-0.05-0.27,0.07c-0.15,0.91-0.21,2.06,0.07,3.03c-0.03-0.01-0.05-0.01-0.08-0.02c-2.27-0.65-4.59-0.92-6.81-1.77
	c-0.06-0.02-0.08,0.06-0.04,0.09c1.45,1.07,3.1,2.4,4.79,3.03c2.3,0.86,4.71,1.4,7.1,1.95c0.04,0.01,0.07,0.02,0.11,0.03
	c-0.83,0.09-1.66,0.19-2.5,0.28c-3.2,0.33-6.39,0.7-9.5,1.56c-0.1,0.03-0.11,0.18,0,0.21c2.84,0.71,5.67,0.57,8.55,0.31
	c2.11-0.19,4.27-0.25,6.37-0.58c0.95,0.82,1.92,1.56,3.09,2.27c1.9,1.16,3.53,2.5,4.97,4.15V97c-0.16-0.08-0.32-0.17-0.49-0.25
	c-0.02-1.04-0.13-2.05-0.21-2.78c-0.1-0.94-0.65-1.48-1.59-1.59c-0.87-0.1-1.78,0.01-2.66-0.03c-0.43-0.02-0.98,0.34-1.04,0.79
	c-0.01,0.07-0.01,0.13-0.02,0.2c0.3,1.23,0.45,2.48,0.39,3.75c-0.01,0.09-0.13,0.11-0.15,0.02c-0.21-0.81-0.45-1.61-0.68-2.42
	c-2.45-0.64-4.97-1.05-7.48-1.36c-3.23-0.4-7.11-0.79-10.32-0.07c-1.87,0.42-3.73,0.81-5.59,1.26c-1.9,0.46-3.6,1.52-5.49,1.92
	c-0.21,0.04-0.16,0.37,0.05,0.37c3.1-0.05,6.61,0.81,9.75,1.09c3.22,0.29,6.45,0.3,9.68,0.55c3.33,0.26,6.59,0.92,9.78,1.87
	c0.16,0.05,0.32,0.1,0.48,0.16c0.2,6.04-1.62,11.75-4.01,17.31c-2.23,5.18-4.53,10.32-7.08,15.35c0,0,0,0,0,0.01
	c-1.47,4.65-4.23,8.32-6.73,12.45c-2.49,4.1-4.62,8.4-7.1,12.51c-0.01,0.01-0.02,0-0.01-0.01c2.31-4.21,4.24-8.62,6.55-12.83
	c1.2-2.2,2.49-4.32,3.76-6.46c0.01-0.23,0.03-0.46,0.04-0.69c0.12-2.57-0.25-6.25-2.61-7.78c-0.03-0.02-0.05-0.02-0.08-0.02
	c0.09-0.4,0.14-0.8,0.14-1.14c-0.02-1.33-1.24-1.62-2.3-1.33c-0.1-0.34-0.21-0.68-0.32-1.03c-0.46-1.46,0.5-3.18,0.76-4.63
	c0.61-3.44-0.56-7.76-1.89-10.92c-0.91-2.17-2.22-4.11-3.82-5.71c-0.02-0.02-0.03-0.04-0.05-0.06c-2-2.46-5.26-4.6-8.51-4.81
	c-2.91-0.19-4.43,1.26-5.29,3.31c-0.73,0.96-1.33,2.06-1.82,3.25c-0.23,0.41-0.44,0.82-0.63,1.23c-1.61,2.01-2.86,4.29-3.49,7.11
	c-0.52,2.3-0.34,5.13,0.73,7.26c0.12,0.23,0.22,0.46,0.33,0.69c-1.14,1.13-2.94,1.69-4.44,2.25c-1.76,0.66-3.39,1.64-4.65,3.03
	c-0.88,0.97-1.31,2.35-1.43,3.63c-0.31,3.5-0.03,6.24-2.43,9.13c-3.19,3.85-6.9,6.85-7.42,12.19c-0.51,5.12,0.98,10.22,4.91,13.72
	c0.19,0.17,0.48,0.11,0.63-0.05c2.07,0.3,4.18-0.4,6.3-1.08c0.28,2.02,0.48,4.05,0.49,6.11c0.01,4.64-1.5,8.77-3.74,12.77
	c-3.36,5.99-8.13,12.64-8.71,19.7c-0.15,1.78,0,3.48,0.31,5.13c2.33-2.7,4.83-5.27,7.14-7.94c4.24-4.91,8.61-9.69,12.51-14.88
	c0.06-0.08,0.19-0.01,0.14,0.08c-3.52,5.11-7.22,10.14-11.38,14.76c-2.3,2.55-4.66,5.05-6.95,7.6c-0.42,0.47-0.83,0.97-1.22,1.48
	c0.02,0.07,0.03,0.13,0.04,0.2c-3.35,4.23-6.49,8.63-10.05,12.71c-2.05,2.35-4,4.78-6.16,7.03c-0.45,0.46-0.85,1.02-1.21,1.6V125.85
	c0.49-1.04,0.89-2.13,1.46-3.13c0.89-1.55,1.69-3.14,2.57-4.68c1.97-3.47,4.18-6.81,6.38-10.14c0.95-1.44,1.89-2.91,2.82-4.37
	c0.53-0.74,1.01-1.5,1.46-2.29c2.17-3.39,4.39-6.74,6.89-9.87c0.12,0.03,0.24,0.04,0.38,0.02c0.22-0.04,0.45-0.07,0.67-0.1
	c0.67,0.51,1.74,0.63,2.51,0.84c1.24,0.33,2.54,0.25,3.8,0.39c0.09,0.01,0.11-0.14,0.02-0.16c-1.23-0.29-2.33-0.92-3.53-1.28
	c-0.12-0.04-0.25-0.08-0.38-0.13c2.02-0.25,4.03-0.43,6.05-0.64c0.65,0.23,1.38,0.36,2.07,0.49c0.11,0.17,0.23,0.34,0.32,0.51
	c0.34,0.65,0.68,1.2,0.7,1.96c0,0.11,0.15,0.1,0.16,0c0.06-0.6,0.01-1.47-0.22-2.03c-0.03-0.07-0.06-0.16-0.09-0.25
	c0.07,0.02,0.15,0.03,0.22,0.06c1.83,0.58,3.58,1.62,5.41,2.26c0.05,0.02,0.09-0.06,0.04-0.09c-1.94-0.88-3.77-2.13-5.58-3.27
	c2.84-0.34,5.69-0.66,8.56-0.69c0.1,0,0.1-0.15,0-0.16c-3.66-0.29-7.29-0.76-10.97-0.81c-0.75-0.01-1.52,0.02-2.28,0.07
	c0-0.02,0.01-0.04,0.01-0.07c0.21-0.38,0.35-0.82,0.49-1.17c0.06-0.14,0.12-0.28,0.18-0.41c0.14-0.09,0.27-0.18,0.4-0.29
	c0.91-0.77,1.89-1.82,3.11-2.02c1.12-0.19,2.08-0.19,3.01-0.91c0.03-0.03,0.07-0.05,0.1-0.08c0.04-0.01,0.08-0.02,0.11-0.03
	c0.54-0.17,1.04-0.43,1.54-0.69c0.89-0.46,1.93-1.09,2.98-1.02c0.49,0.26,1.03,0.47,1.5,0.75c0.71,0.41,1.38,0.92,2.15,1.2
	c0.03,0.03,0.05,0.06,0.08,0.08c0.01,0.01,0.02,0,0.02-0.01c-0.41-0.6-0.79-1.22-1.26-1.78c-0.1-0.13-0.22-0.26-0.35-0.39
	c0.53,0.17,1.05,0.42,1.51,0.72c0.47,0.3,1.09,0.73,1.33,1.28c0.03,0.11,0.06,0.22,0.09,0.33c0,0.01,0,0.01,0,0.02
	c0,0.01,0.01,0,0.01,0c0.03-0.24-0.03-0.48-0.14-0.7c-0.13-0.67-0.3-1.34-0.63-1.93c-0.33-0.59-0.85-1.25-1.47-1.61
	c-0.44-2.16-0.88-3.83-3-5.05c-1.44-0.83-3.06-0.56-4.62-0.02c-0.04-0.01-0.07-0.03-0.11-0.04c-0.48-0.17-0.96-0.29-1.45-0.38
	c-0.12-0.05-0.24-0.09-0.36-0.15c-0.65-0.28-1.4-0.63-2.13-0.53c-0.32,0.04-0.63,0.14-0.93,0.26c-0.99-0.12-1.97-0.28-2.96-0.43
	c-1.21-0.19-2.45-0.38-3.66-0.1c-2.59,0.58-4.7,2.18-6.5,4.08c-0.94,0.99-1.87,1.98-2.66,3.08c-0.5,0.7-1.18,1.5-1.53,2.35
	c-0.62,0.13-1.24,0.27-1.86,0.4c-2.33,0.52-4.56,1.22-6.52,2.59c-0.01,0-0.02,0-0.02,0c-0.1-0.01-0.15,0.06-0.16,0.14
	c-0.09,0.1,0.03,0.24,0.15,0.23c0.02,0,0.05-0.01,0.08-0.01c0.52,0.15,0.99,0.33,1.55,0.34c0.51,0.01,1.03-0.04,1.53-0.12
	c1.17-0.18,2.32-0.47,3.46-0.77c0.04-0.01,0.09-0.02,0.13-0.04c-0.14,0.08-0.27,0.16-0.41,0.24c-1.72,0.97-3.95,1.67-5.24,3.24
	c-0.12,0.14,0.06,0.38,0.23,0.32c0.04-0.01,0.09-0.03,0.13-0.04c0.6,0.93,1.95,0.67,3.15,0.2c0.03,0.02,0.07,0.03,0.1,0.04
	c-0.47,0.42-0.9,0.89-1.24,1.31c-0.28,0.34,0.03,0.85,0.47,0.65c0.05-0.02,0.1-0.05,0.15-0.08c0.34,0,0.7-0.2,1-0.4
	c1.01-0.44,1.91-1.17,2.81-1.79c0.03-0.02,0.05-0.04,0.08-0.06c0.15-0.06,0.29-0.13,0.42-0.19c-0.17,0.36-0.33,0.72-0.54,1.07
	c-0.04,0.06,0.04,0.11,0.09,0.07c0.81-0.62,1.79-0.86,2.54-1.58c0.03-0.03,0.06-0.06,0.09-0.09c0.21-0.03,0.41-0.07,0.62-0.12
	c1.03-0.25,2.02-0.64,3.02-0.96c0.21-0.07,0.42-0.14,0.63-0.22c0.99,0.41,1.91,0.81,3.05,0.67c0.73-0.09,1.51-0.29,2.22-0.03
	c0.6,0.21,1.16,0.39,1.69,0.71c0.01,0.02,0.03,0.04,0.04,0.06c-0.69,0.07-1.38,0.16-2.07,0.26c-1.19,0.08-2.38,0.15-3.57,0.16
	c-0.12,0-0.23,0.06-0.33,0.14c-0.63,0-1.24,0.66-1.63,1.07c-0.3,0.31-0.63,0.66-0.93,1.02c-0.98,0.8-1.88,1.73-2.76,2.59
	c-2.3,2.24-4.68,4.39-6.95,6.65c-2.38,2.37-4.75,4.78-7.07,7.22c0.02-2.75,0.02-5.5-0.1-8.24c0.21-2.57,0.37-5.14,0.41-7.7
	c0.16-0.11,0.31-0.26,0.39-0.49c1.65-4.64,2.65-9.35,4.84-13.8c1.95-3.95,4.39-7.46,5.79-11.69c0.04-0.11-0.13-0.15-0.17-0.05
	c-1.3,3.34-3.61,5.97-5.72,8.75c-0.04-0.61-0.09-1.22-0.14-1.83c-0.19-2.16-0.59-4.22-0.48-6.4c0-0.08-0.12-0.1-0.14-0.02
	c-0.35,1.86-0.99,3.76-1.15,5.64c-0.09,1.06-0.07,2.08-0.01,3.14c0.05,0.9,0.22,1.13,0.48,1.5c-0.18,0.27-0.37,0.54-0.55,0.82
	c-1.62,2.62-2.45,5.69-3.27,8.72c-0.15-2.16-0.4-4.31-0.83-6.43c0.01-0.16,0.03-0.32,0.04-0.48c0.07-1.05,0-2.05-0.1-3.1
	c0.1-1.1,0.17-2.2,0.15-3.31c0-0.15-0.17-0.22-0.28-0.16c0.02-0.78,0.02-1.55-0.05-2.34c-0.01-0.13-0.2-0.14-0.21,0
	c-0.09,2.28-0.55,4.49-0.92,6.71c-0.02,0.01-0.05,0.01-0.05,0.04c0,0.09,0,0.19-0.01,0.28c-0.18,1.11-0.31,2.22-0.37,3.34v-19.4
	h86.4L497.7,67.85L497.7,67.85z M413.16,116.94c1.04-1.19,1.42-2.77,2.25-4.1c0.77-1.24,1.66-2.33,2.53-3.49
	c1.8-2.41,3.5-4.88,5.43-7.19c0.05-0.06,0.12,0.02,0.08,0.08c-2.2,2.82-4.23,5.81-6.3,8.72c-1.37,1.93-1.93,4.74-3.66,6.32
	C413.27,117.48,412.96,117.17,413.16,116.94z M433.33,84.05c-0.11-0.01-0.16-0.19-0.03-0.21c3.42-0.54,9.98-1.62,10.6-5.92
	c0.02-0.11,0.17-0.09,0.2,0C445.7,82.97,436.38,84.38,433.33,84.05z"/>
<path fill="#3F3F3F" d="M667.5,130.76v-38.4h-3.6V53.95l-104.4,0.01v38.4h3.6v38.4h-3.6v38.4h3.6v38.4h-3.6v38.4h3.6v38.39h33.6v3.6
	h33.6v-3.6l37.2,0.01v-38.4h-3.6v-38.4h3.6v-38.4h-3.6v-38.4L667.5,130.76L667.5,130.76z M601.51,273.14
	c-3.87,2.07-8.35-1.17-11.71-2.88c-2.61-1.34-5.33-1.86-8.26-1.61c-1.5,0.13-2.88,0.29-4.29,0.79c-0.75,0.27-1.23,0.3-2.04,0.2
	c-0.06-0.01-0.08-0.1-0.02-0.11c1.23-0.18,1.94-1.03,3.06-1.38c1.07-0.33,2.16-0.56,3.28-0.64c2.3-0.16,4.7-0.14,6.91,0.62
	c2.05,0.71,3.87,1.82,5.83,2.72c1.4,0.65,2.91,1.28,4.48,1.35c1.1,0.05,1.79,0.02,2.76,0.48
	C601.69,272.77,601.68,273.05,601.51,273.14z M655.88,266.04c-2.39-0.1-4.4-0.53-6.58,0.85c-1.63,1.03-3.11,2.35-4.85,3.21
	c-3.61,1.77-7.28,2.24-11.24,2.55c-0.08,0.01-0.1-0.13-0.02-0.14c4.76-0.77,9.23-2.32,13.11-5.24c1.3-0.98,2.69-2.13,4.3-2.58
	c1.77-0.5,3.45-0.34,5.27-0.23C656.89,264.51,656.9,266.08,655.88,266.04z M656.7,243.12c-0.56-1.02-1.1-2.06-1.55-3.16
	c-0.31-0.75-0.58-1.51-0.83-2.28c0.04-0.2,0.03-0.4-0.02-0.83c-0.15-1.32-0.26-2.44,0.1-3.76c0.47-1.73,0.9-3.08,0.81-4.89
	c-0.01-0.1-0.16-0.11-0.16,0c-0.08,1.95-1.22,3.83-1.82,5.75c-0.18-0.69-0.36-1.38-0.54-2.07c-0.26-0.99-0.47-1.83-0.8-2.56
	c0.49-0.94,1.18-1.83,1.21-2.96c0.05-2.02-0.15-4.01-0.13-6.04c0-0.11-0.15-0.1-0.16,0c-0.13,1.33-0.26,2.62-0.55,3.88v0
	c-0.4-0.74-1-1.33-1.43-2.04c-0.05-0.08-0.16-0.01-0.12,0.07c0.28,0.64,0.63,1.26,0.97,1.87c0.16,0.3,0.34,0.62,0.37,0.96
	c-0.15,0.52-0.34,1.03-0.58,1.54c-0.26,0.56-0.39,0.99-0.46,1.4c-0.29-0.29-0.63-0.55-1.07-0.8c-1.3-0.73-3.07-1.26-4.6-1.05
	c-0.96-1.4-1.94-2.79-2.95-4.16c-0.08-0.11-0.3-0.05-0.24,0.1c0.48,1.18,1.07,2.32,1.58,3.49c-1.07-0.5-2.27-0.54-3.55-0.86
	c-0.1-0.03-0.16,0.11-0.07,0.16c0.61,0.39,1.26,0.69,1.93,0.97c-0.36,0.29-0.69,0.61-1,0.96c-0.11,0.13,0,0.3,0.16,0.27
	c0.62-0.09,1.12-0.51,1.6-0.89c0.03-0.02,0.04-0.05,0.06-0.07c0.41,0.12,0.82,0.21,1.23,0.33c0.09,0.22,0.18,0.44,0.26,0.66
	c0.13,0.39,0.48,0.57,0.88,0.5c2.19-0.4,4.93,0.79,5.3,3.03c0.16,1,0.38,1.98,0.61,2.96c-0.71-0.02-1.42,0-2.13,0.01
	c-0.03-0.13-0.1-0.26-0.23-0.33c-0.22-0.12-0.48-0.81-0.64-1.07c-0.21-0.34-0.39-0.8-0.66-1.1c-0.06-0.06-0.15-0.01-0.15,0.06
	c-0.03,0.41,0.18,0.87,0.24,1.28c0.05,0.37,0.32,0.77,0.38,1.15c-0.09,0-0.19,0-0.28-0.01c-0.71-0.04-1.42-0.59-1.98-0.96
	c-0.83-0.54-1.82-0.99-2.72-1.39c-0.08-0.04-0.17,0.06-0.1,0.13c0.5,0.53,0.98,1.3,1.52,1.98c-0.27,0.04-0.53,0.11-0.76,0.14
	c-0.84,0.12-1.62,0.37-2.36,0.76c-0.06,0.03-0.03,0.12,0.03,0.12c0.81-0.01,1.62-0.05,2.43-0.12c0.44-0.04,0.96,0.01,1.41-0.11
	c0.43,0.38,0.92,0.66,1.5,0.72c1.21,0.12,2.43,0.22,3.65,0.29c-0.58,0.33-1.17,0.66-1.8,0.89c-0.56-0.35-1.21-0.54-1.78-0.09
	c-0.06,0.04-0.05,0.14,0,0.19c0.55,0.57,1.39,1.24,2.18,0.97c1-0.35,1.87-0.95,2.84-1.37c0.15,0.52,0.29,1.04,0.45,1.56
	c0.32,1.08,0.72,2.1,1.14,3.1c0.13,0.54,0.26,1.09,0.38,1.63c-0.73-0.21-1.49-0.19-2.22-0.42c-1.54-0.49-2.62-1.79-3.61-2.99
	c-0.05-0.06-0.15,0.02-0.11,0.09c0.34,0.51,0.66,1.01,0.99,1.48c-0.3,0-0.6,0.03-0.94,0.05c-0.54,0.04-1.08,0.04-1.61,0.08
	c-0.1,0.01-0.14,0.13-0.05,0.19c0.72,0.5,2.25,0.78,2.97,0.17c0.24,0.32,0.49,0.62,0.77,0.9c-0.38,0.03-0.76,0.06-1.15,0.12
	c-0.72,0.12-1.81,0.53-2.35,1.04c-0.05,0.04-0.01,0.13,0.05,0.13c0.81-0.03,1.6-0.25,2.42-0.26c0.64-0.01,1.3-0.12,1.89-0.34
	c0.35,0.22,0.73,0.42,1.18,0.56c0.85,0.27,1.54,0.48,2.15,1.03c0.26,1.33,0.48,2.67,0.64,4.01c0.23,2.01,0.03,3.94-0.1,5.95
	c-0.09,1.38,0.32,2.83,0.69,4.21c-0.09,0.06-0.17,0.12-0.26,0.18c-0.72,0.02-1.42,0.11-1.9,0.15c-1.49,0.14-2.71,0.7-3.88,1.41
	c-0.88,0.03-1.75,0.07-2.63,0.11c-1.19-2.16-2.16-4.41-3.14-6.67c0.67-0.16,1.28-0.4,1.95-0.61c0.78-0.25,1.66-0.51,2.29-1.07
	c0.21-0.18,0.35-0.4,0.47-0.62c0.01-0.02,0.02-0.03,0.03-0.04c0.02-0.03,0.02-0.05,0.02-0.08c0.51-1.16-0.04-2.67-0.8-3.63
	c-0.14-0.18-0.43-0.22-0.63-0.17c-0.03,0.01-0.05,0.02-0.07,0.03c-0.12-0.03-0.26-0.02-0.41,0.01c-1.58,0.4-3.18,0.76-4.79,1.13
	c-0.45-1.17-1.17-2.23-1.63-3.4c-0.12-0.31-0.44-0.58-0.79-0.45c-0.32,0.12-0.65,0.24-0.97,0.35c-0.24,0.07-0.49,0.15-0.73,0.22
	c-0.27,0.06-0.53,0.12-0.79,0.2c-0.09,0.03-0.16,0.07-0.22,0.11c-0.37,0.09-0.74,0.16-1.12,0.2c-0.26,0.02-0.5,0.26-0.41,0.54
	c0.23,0.7,0.5,1.37,0.78,2.04c0.05,0.35,0.14,0.7,0.24,1.05c0.03,0.16,0.06,0.32,0.1,0.48c-1.91,0.49-3.8,1.03-5.63,1.69
	c-0.05,0.02-0.08,0.06-0.12,0.08c-0.15,0.04-0.3,0.07-0.45,0.1c-0.22,0.06-0.42,0.34-0.32,0.57c0.18,0.45,0.39,0.89,0.6,1.32
	c0.24,0.84,0.8,1.75,1.03,2.26c0.11,0.25,0.49,0.39,0.74,0.3c1.85-0.64,3.77-1.25,5.7-1.78c0.04,0.1,0.08,0.21,0.12,0.32
	c0.61,1.63,1.35,3.22,1.92,4.87c0.11,0.33,0.19,0.63,0.27,0.93c-1.7,0.06-3.4,0.11-5.1,0.17c-0.36-0.07-0.73-0.13-1.1-0.19
	c-1.4-0.31-2.97-0.61-4.34-0.57c-0.05-0.01-0.1-0.01-0.15-0.02c-1.23-0.12-2.61,0.45-3.95,1.08c-3.56,0.1-7.12,0.2-10.68,0.29
	c-4.38,0.11-8.77,0.09-13.15,0.03c-1.44-0.46-2.89-0.9-4.41-1.01c-0.66-0.05-1.34-0.08-2.02-0.06c0.21-0.82,0.32-1.85,0.27-2.85
	c0.27,0.01,0.53,0.01,0.82-0.06c0.3-0.07,0.41-0.49,0.18-0.7c-0.33-0.3-0.73-0.51-1.16-0.66c-0.19-0.85-0.62-1.73-1.39-2.13
	c-0.33-0.21-0.71-0.35-1.16-0.4c-1.58-0.15-2.53,0.75-3.2,2.02c-0.72,0.09-1.38,0.31-1.83,0.77c-0.1,0.1-0.1,0.27,0,0.38
	c0.3,0.3,0.66,0.47,1.05,0.57c-0.2,0.48-0.37,0.98-0.53,1.46c-0.2,0.62-0.55,1.37-0.63,2.07c-1.32-0.39-2.96-0.31-4.35,0.21
	c-0.8-0.01-1.61-0.02-2.41-0.02c-0.16-1.29-0.22-2.62-0.35-3.93c0.5-0.07,0.99-0.19,1.46-0.34c0.28-0.04,0.56-0.08,0.84-0.13
	c1.16-0.21,0.78-1.85-0.26-1.94c-0.04,0-0.07,0-0.11,0c-0.06-0.01-0.12-0.01-0.19,0c-0.68-0.03-1.31,0.02-1.93,0.13
	c-0.04-0.51-0.08-1.01-0.1-1.51c-0.01-0.38-0.34-0.59-0.69-0.53c-0.83,0.15-1.65,0.33-2.47,0.47c-0.23,0.04-0.39,0.34-0.31,0.55
	c0.07,0.22,0.12,0.43,0.18,0.65c0.03,0.27,0.09,0.54,0.15,0.8c-0.84,0.03-1.68,0.06-2.53,0.06c-1.28,0.02-1.28,1.98,0,1.98
	c0.86,0,1.71-0.02,2.57-0.06c0.11,0,0.21,0,0.32,0c0.15,0.89,0.31,1.77,0.49,2.66c-0.08-0.02-0.16-0.07-0.25-0.08
	c-0.08-0.03-0.17-0.04-0.26-0.04c-0.47-0.05-0.97-0.01-1.55,0.19c-2.03,0.71-3.47-1.12-5.27-1.98v-18.14
	c0.15-0.08,0.29-0.18,0.4-0.3c0.05-0.01,0.1-0.02,0.15-0.05c0.58-0.34,1.08-1.16,1.55-1.65c0.07-0.07,0.15-0.14,0.22-0.21
	c7.04-5.04,12.48-12.04,17.3-19.33c1.04,2.66,2.12,5.34,2.73,8.18c1.76,8.19-4.06,15.21-4.26,23.17c0,0.15,0.17,0.22,0.28,0.17
	c0.09,0.13,0.23,0.23,0.44,0.23c5.23,0,9.73-1.57,13.52-5.18c2.13-2.03,3.87-4.29,6.38-5.89c2.57-1.64,5.78-2.07,8.64-3.04
	c1.4-0.02,2.53,0.37,2.56,1.83c-0.02,0.03-0.03,0.07-0.04,0.1c-0.03,0.06,0,0.11,0.04,0.13c-0.01,0.1,0,0.18-0.01,0.29
	c-0.03,0.22,0.31,0.24,0.37,0.05c0.81-2.73,4.52-1.74,6.67-1.98c1.82-0.2,2.94-1.38,3.57-3.06c0.02-0.06-0.06-0.08-0.09-0.04
	c-0.03,0.04-0.07,0.08-0.11,0.12c-0.01-0.05-0.04-0.09-0.1-0.08c-0.32,0.04-0.42,0.27-0.6,0.09c-0.27-0.27-0.27-0.15-0.59-0.38
	c-0.55-0.38-0.63-1.2-0.68-1.82c-0.08-0.95,0.06-1.9,0.31-2.81c0.36-1.3,0.62-3,2.19-3.18c0,0,0-0.01,0.01-0.01
	c0.03,0.01,0.07,0.01,0.1,0.02c0.06,0.01,0.1-0.07,0.04-0.1c-0.64-0.41-1.08-1.01-1.42-1.7c-0.03-1.54-0.01-2.99,0.28-4.54
	c0.17-0.93,0.71-1.3,0.44-2.28c-0.06-0.23-0.27-0.47-0.51-0.51c-0.52-0.09-0.91-0.3-1.22-0.6c0.04-0.14,0.06-0.3,0.02-0.48
	c-0.66-2.74-0.46-7.86,3.26-8.13c0.11-0.01,0.11-0.17,0-0.17c-0.1,0-0.2,0.01-0.29,0.01c0.14-0.04,0.27-0.1,0.39-0.2
	c0.07-0.06,0.04-0.17-0.03-0.21c-0.5-0.29-0.84-0.72-1.08-1.2c0.17-1.73,1.52-2.75,2.01-4.4c0.5-1.66,0.65-3.46,0.84-5.18
	c0.4-3.49,0.71-6.95-0.51-10.18c-2.31,1.38-4.74,2.58-5.56,5.42c-0.03,0.09-0.16,0.05-0.14-0.04c0.82-3.32,3.12-4.97,5.65-6.56
	c1.11-1.49,2.34-2.87,3.94-3.85c1.31-0.81,5.4-0.58,5.4-2.55c0-0.09-0.05-0.16-0.12-0.19c-0.02-4.24-1.64-8.54-3.18-12.42
	c-0.97-2.44-2.08-4.81-2.99-7.28c-0.95-2.56-0.75-5.42-0.64-8.1c0.02-0.39,0.04-0.77,0.06-1.16c0.51-0.62,0.99-1.28,1.48-1.92
	c1.83-2.39,2.98-5.19,4.52-7.77c3.05-5.12,5.55-10.54,7.88-16.02c1.78-4.19,3.94-8.33,5.42-12.64c0.68-1.98,1.56-4.94,1.35-7.5
	c0.05,0,0.1,0,0.16,0L656.7,243.12L656.7,243.12z M584.12,223.39c0.06-0.06,0.14,0.03,0.09,0.09c-2.25,2.58-4.06,5.86-7.15,7.56
	c-0.11,0.06-0.25-0.1-0.14-0.18C579.62,228.64,581.71,225.9,584.12,223.39z M576.98,228.09c2.78-4.04,7.07-6.39,9.08-11.05
	c0.05-0.11,0.24-0.06,0.22,0.06c-0.63,4.74-6.65,7.42-9.27,11.01C577,228.14,576.96,228.12,576.98,228.09z M596.68,219.07
	c-0.59-3.4,0.09-6.17,1.69-9.21c0.08-0.15,0.34-0.05,0.28,0.12c-0.81,2.14-1.36,4.17-1.14,6.48c0.2,2.12,0.89,4.24,0.95,6.37
	c0.13,4.81-1.3,9.28-3.56,13.49c-0.05,0.09-0.18,0.01-0.14-0.08c1.43-2.8,2.64-5.85,2.85-9.03
	C597.81,224.38,597.16,221.82,596.68,219.07z M600.3,232.04c0.74-2.59,1.42-4.94,3.01-7.15c1.29-1.79,3.22-2.98,4.98-4.24
	c2.72-1.93,4.32-4.48,4.98-7.73c0.01-0.07,0.13-0.06,0.13,0.02c-0.09,2.41-0.86,4.78-2.49,6.6c-1.86,2.07-4.39,3.44-6.18,5.54
	c-2.26,2.66-2.48,5.96-4.22,8.81c-1.61,2.63-3.9,4.65-6.12,6.77c-0.07,0.07-0.18-0.04-0.11-0.11
	C596.66,238.08,599.33,235.43,600.3,232.04z M604.01,140.94c-0.58-0.65-0.75-1.48-0.64-2.33c0.02-0.15,0.25-0.17,0.25,0
	c-0.02,0.7,0.35,1.41,0.99,1.75c0.29,0.16,0.65,0.19,0.96,0.25c0.28-0.72,0.54-1.46,0.8-2.2c0.05-0.14,0.26-0.12,0.26,0.04
	c0.03,1.74-0.28,3.52-1.18,5.03c-0.3,0.51-0.68,1.25-1.17,1.61c-1.08,0.8-2.03,1.32-2.67,2.59c-0.07,0.13-0.3,0.04-0.24-0.1
	c0.65-1.58,1.93-2.75,2.83-4.18c0.38-0.6,0.69-1.23,0.98-1.87C604.75,141.49,604.28,141.24,604.01,140.94z M606.77,148.81
	c2.29-0.74,4.41-1.89,6.71-2.61c0.09-0.03,0.12,0.1,0.04,0.14c-2.77,1.05-5.23,2.93-8.05,3.82c-1.74,0.55-4.25,0.89-6.18,0.5
	c-0.07,0.04-0.15,0.07-0.23,0.1c-0.45,0.16-0.92,0.45-1.25,0.8c-0.65,0.69-1.26,1.43-1.92,2.11c-0.07,0.07-0.18-0.02-0.14-0.1
	c0.59-1,0.93-2.12,1.62-3.07c0.11-0.16,0.26-0.33,0.41-0.5c-1.42-0.21-2.64,0.05-3.88,1.02c-0.1,0.08-0.22-0.02-0.17-0.13
	c0.8-1.88,3.42-2.02,5.13-1.63c0.15-0.04,0.3-0.05,0.45-0.03C601.71,148.75,604.38,149.58,606.77,148.81z M620.63,110.62
	c-0.91-0.26-1.73-0.77-2.65-0.96c-0.08-0.01-0.06-0.13,0.02-0.13c1.1-0.03,1.98-0.31,3.03,0.13c0.33,0.14,0.65,0.29,0.97,0.46
	c0.04-0.07,0.09-0.14,0.13-0.21c0.02-0.04,0.1-0.01,0.08,0.03c-0.03,0.08-0.07,0.15-0.11,0.23c0.51,0.28,1.01,0.59,1.44,0.98
	c1.56,1.41,2.48,3.19,3.37,5.07c0.05,0.1-0.09,0.18-0.15,0.09c-0.91-1.68-2.08-3.45-3.69-4.54c-0.45-0.3-0.91-0.54-1.38-0.75
	c-1.86,3.43-5.5,6.95-3.97,11c0.6,1.58,1.48,3.22,1.47,4.95c0,0.04-0.01,0.08-0.01,0.12c0.47-1.27,1.39-2.12,2.69-2.88
	c1.84-1.07,3.82-1.83,4.22-4.14c0.02-0.09,0.15-0.06,0.15,0.02c0.05,1.7-0.68,3.39-2.18,4.26c-1.72,1-4.21,1.57-4.94,3.66
	c-0.13,1.21-0.44,2.4-0.72,3.6c-0.02,0.1-0.17,0.06-0.15-0.04c0.5-2.93,0.4-4.92-1.21-7.45c-0.92-1.45-1.4-2.85-1.33-4.58
	c0.06-1.68,0.92-2.8,2.01-3.94c1.4-1.46,2.67-2.97,3.76-4.66C621.2,110.83,620.93,110.71,620.63,110.62z M627.89,132.09
	c0.2,0.11,0.38,0.14,0.6,0.12c0.28-0.02,0.44,0,0.71,0.09c0.09,0.03,0.13,0.13,0.09,0.21c-0.39,0.75-1.49,0.66-2.01,0.07
	c-0.51-0.58-0.2-1.43,0.13-2.02c0.05-0.1,0.23-0.03,0.19,0.08C627.42,131.09,627.37,131.8,627.89,132.09z M627.45,136.08
	c0.56-0.11,0.93-0.46,1.42-0.7c0.15-0.07,0.32-0.01,0.38,0.15c0.41,1.23-1.16,1.72-2.07,1.64c-0.48-0.04-1.13-0.24-1.47-0.6
	c-0.27-0.29-0.08-0.56,0.05-0.85c0.04-0.09,0.16-0.04,0.17,0.04c0,0.09,0.01,0.16,0.05,0.23
	C626.46,135.99,626.95,136.18,627.45,136.08z M626.05,175.62c-0.65-1.73-0.85-3.05-0.46-4.87c0.02-0.09,0.16-0.07,0.16,0.02
	c0.06,2.15,1.2,4.1,1.45,6.24c0.26,2.24,0.07,4.39-0.3,6.6c-0.01,0.07-0.14,0.06-0.13-0.02C627.03,180.9,627.02,178.2,626.05,175.62
	z M621.39,195.75c0.01,0.08-0.1,0.11-0.12,0.03c-0.65-2.65-0.93-5.62,0.15-8.21c1.06-2.56,2.42-4.93,3.43-7.52
	c0.06-0.17,0.3-0.15,0.31,0.04c0.1,2.09-1.15,3.92-2.09,5.7C621.42,188.92,620.85,192.27,621.39,195.75z M622.07,219.98
	c-1.48,2.52-2.76,5.4-4.92,7.43c-2.09,1.96-4.76,3.66-7.45,4.65c-0.1,0.04-0.2-0.1-0.14-0.18c1.45-2.32,5.09-3.06,7.11-4.94
	c2.19-2.03,3.67-4.54,5.26-7.04C621.99,219.81,622.12,219.89,622.07,219.98z M611.17,233.47c2.32-1.56,4.98-2.26,7.35-3.67
	c5.64-3.35,7.09-10.55,8.06-16.55c0.02-0.1,0.18-0.07,0.17,0.02c-0.49,5.57-1.43,12.5-6,16.31c-2.16,1.8-5.11,2.33-7.62,3.47
	c-2.99,1.36-5.23,3.37-7.25,5.93c-0.04,0.06-0.14-0.02-0.1-0.08C607.3,236.83,609.02,234.91,611.17,233.47z M615.65,132.19
	c-0.08,0.15-0.33,0.08-0.32-0.09c0.08-2.44-2.07-3.21-3.02-5.12c-0.93-1.86-0.65-3.44-0.22-5.4c0.02-0.09,0.18-0.07,0.17,0.02
	c-0.21,1.67-0.17,3.48,0.78,4.96c0.58,0.89,1.41,1.49,2.06,2.31C615.98,129.98,616.29,130.88,615.65,132.19z M611.22,116.1
	c0.01,0.06-0.1,0.07-0.11,0.01c-0.65-3.59,2.9-6.14,3.81-9.37c0.02-0.08,0.12-0.07,0.15,0C616.53,110.8,610.91,112.37,611.22,116.1z
	 M612.1,132.16c-0.05,0.09-0.2,0.07-0.22-0.03c-0.18-0.76-0.39-1.45-0.79-2.13c-0.37-0.63-0.81-1.22-1.16-1.86
	c-0.04-0.08,0.07-0.17,0.13-0.1C610.98,129.22,613.12,130.39,612.1,132.16z M594.96,161.89c1.47-1.32,2.97-3.27,4.87-4.02
	c0.95-0.38,1.93-0.54,2.95-0.67c1.54-0.2,2.29-0.93,3.31-2.02c0.25-0.27,0.69,0.01,0.6,0.35c-0.46,1.69-1.67,2.67-3.43,2.79
	c-1.64,0.11-3.39-0.04-4.83,0.92c-1.21,0.81-2.26,1.81-3.38,2.73C594.98,162.03,594.9,161.95,594.96,161.89z M599.93,188.2
	c1.28-1.11,2.56-2.63,3.06-4.3c0.28-0.93,0.58-1.83,0.66-2.81c0.05-0.59,0.03-0.61,0.34-1.1c0.08-0.12,0.27-0.13,0.34,0
	c0.74,1.32-0.23,3.42-0.91,4.63c-0.86,1.51-1.95,2.73-3.38,3.72C599.96,188.41,599.85,188.27,599.93,188.2z M604,169.03
	c-0.13,0-0.12-0.18,0-0.2c2.85-0.28,5.63-0.51,8.1,0.88c-0.51-3.08-1.69-6.26-1.13-9.31c0.76-4.15,2.95-7.78,2.61-12.14
	c-0.01-0.1,0.16-0.12,0.18-0.02c0.49,2.27,0.11,4.31-0.35,6.35c2.29-0.53,5.95,0.24,6.23,2.84c0.02,0.15-0.21,0.16-0.25,0.03
	c-0.58-1.84-4.3-2.32-6.16-2.1c-0.33,1.41-0.66,2.85-0.72,4.39c-0.05,1.18-0.06,2.35-0.06,3.53c0.38,2.43,0.86,4.92,0.54,7.32
	c-0.02,0.16-0.13,0.34-0.32,0.32c-0.09-0.01-0.18-0.02-0.27-0.01c0,0.07,0,0.13-0.01,0.2c0,0.07-0.1,0.07-0.11,0
	c-0.01-0.08-0.02-0.15-0.03-0.23c-0.15-0.05-0.23-0.21-0.2-0.35C609.59,169.46,606.63,169.02,604,169.03z M616.12,174.64
	c-1.1,2.74-2.92,5.05-4.77,7.32c-0.02,0.03-0.07-0.01-0.05-0.04c1.72-2.37,2.73-5.15,4.6-7.41
	C615.99,174.42,616.17,174.52,616.12,174.64z M602.94,235.87c2.03-3.56,4.15-6.26,7.44-8.72c4.08-3.06,7.12-6.32,8.36-11.43
	c1.17-4.79,1.42-9.57,1.84-14.45c0.04-0.53,0.79-0.54,0.83,0c0.34,4.96-0.53,10.73-1.99,15.48c-1.33,4.33-3.72,7.43-7.28,10.19
	c-1.88,1.45-3.94,2.75-5.42,4.65c-1.69,2.17-2.82,4.65-4.4,6.88c-2.21,3.12-5.33,4.81-8.81,6.22c-0.09,0.04-0.15-0.12-0.07-0.16
	C597.78,242.5,600.57,240.04,602.94,235.87z M635.72,174.9c0.04,0.08-0.07,0.14-0.11,0.07c-0.93-1.55-1.07-3.23-0.83-5.01
	c0.3-2.27,0.44-4.42,0.53-6.69c0.01-0.18,0.26-0.27,0.35-0.1C637.71,166.76,633.79,171.13,635.72,174.9z M649.74,117.08
	c1.76-4.22,4.17-7.92,4.36-12.64c0-0.09,0.14-0.09,0.14,0c0.21,4.61-1.75,8.97-4.32,12.72
	C649.86,117.24,649.69,117.19,649.74,117.08z M656.7,67.85c-0.98-0.51-2.08-0.88-2.92-1.28c-1.71-0.8-3.45-1.05-5.31-0.73
	c-0.08,0.01-0.1,0.14-0.02,0.17c1.3,0.55,2.55,1.24,3.81,1.92c-0.19,0.08-0.38,0.17-0.57,0.23c-1.29,0.43-2.64,0.85-3.97,1.16
	c-0.12,0.03-0.09,0.17,0,0.21c1.33,0.55,2.55,0.62,3.95,0.35c0.83-0.16,1.87-0.38,2.59-0.9c0.78,0.42,1.6,0.95,2.44,1.24v7.07
	c-3.18-1.01-6.62-1.62-9.76-2.32c-1.36-0.3-2.72-0.63-4.07-0.97c0.02-0.18,0.01-0.37-0.09-0.58c-0.51-1.09-1.04-2.26-1.91-3.11
	c-0.08-0.08-0.25-0.05-0.27,0.07c-0.15,0.91-0.21,2.06,0.07,3.03c-0.03-0.01-0.05-0.01-0.08-0.02c-2.27-0.65-4.59-0.92-6.81-1.77
	c-0.06-0.02-0.08,0.06-0.04,0.09c1.45,1.07,3.1,2.4,4.79,3.03c2.3,0.86,4.71,1.4,7.1,1.95c0.04,0.01,0.07,0.02,0.11,0.03
	c-0.83,0.09-1.66,0.19-2.5,0.28c-3.2,0.33-6.39,0.7-9.5,1.56c-0.1,0.03-0.11,0.18,0,0.21c2.84,0.71,5.67,0.57,8.55,0.31
	c2.11-0.19,4.27-0.25,6.37-0.58c0.95,0.82,1.92,1.56,3.09,2.27c1.9,1.16,3.53,2.5,4.97,4.15V97c-0.16-0.08-0.32-0.17-0.49-0.25
	c-0.02-1.04-0.13-2.05-0.21-2.78c-0.1-0.94-0.65-1.48-1.59-1.59c-0.87-0.1-1.78,0.01-2.66-0.03c-0.43-0.02-0.98,0.34-1.04,0.79
	c-0.01,0.07-0.01,0.13-0.02,0.2c0.3,1.23,0.45,2.48,0.39,3.75c-0.01,0.09-0.13,0.11-0.15,0.02c-0.21-0.81-0.45-1.61-0.68-2.42
	c-2.45-0.64-4.97-1.05-7.48-1.36c-3.23-0.4-7.11-0.79-10.32-0.07c-1.87,0.42-3.73,0.81-5.59,1.26c-1.9,0.46-3.6,1.52-5.49,1.92
	c-0.21,0.04-0.16,0.37,0.05,0.37c3.1-0.05,6.61,0.81,9.75,1.09c3.22,0.29,6.45,0.3,9.68,0.55c3.33,0.26,6.59,0.92,9.78,1.87
	c0.16,0.05,0.32,0.1,0.48,0.16c0.2,6.04-1.62,11.75-4.01,17.31c-2.23,5.18-4.53,10.32-7.09,15.35c0,0,0,0,0,0.01
	c-1.47,4.65-4.23,8.32-6.73,12.45c-2.49,4.1-4.62,8.4-7.1,12.51c-0.01,0.01-0.02,0-0.01-0.01c2.31-4.21,4.24-8.62,6.55-12.83
	c1.2-2.2,2.49-4.32,3.76-6.46c0.01-0.23,0.03-0.46,0.04-0.69c0.12-2.57-0.25-6.25-2.61-7.78c-0.03-0.02-0.05-0.02-0.08-0.02
	c0.09-0.4,0.14-0.8,0.14-1.14c-0.02-1.33-1.24-1.62-2.3-1.33c-0.1-0.34-0.21-0.68-0.32-1.03c-0.46-1.46,0.5-3.18,0.76-4.63
	c0.61-3.44-0.56-7.76-1.89-10.92c-0.91-2.17-2.22-4.11-3.82-5.71c-0.02-0.02-0.03-0.04-0.05-0.06c-2-2.46-5.26-4.6-8.51-4.81
	c-2.91-0.19-4.43,1.26-5.29,3.31c-0.73,0.96-1.33,2.06-1.82,3.25c-0.23,0.41-0.44,0.82-0.63,1.23c-1.61,2.01-2.85,4.29-3.49,7.11
	c-0.52,2.3-0.34,5.13,0.73,7.26c0.12,0.23,0.22,0.46,0.33,0.69c-1.14,1.13-2.94,1.69-4.44,2.25c-1.76,0.66-3.39,1.64-4.65,3.03
	c-0.88,0.97-1.31,2.35-1.43,3.63c-0.31,3.5-0.03,6.24-2.43,9.13c-3.19,3.85-6.9,6.85-7.42,12.19c-0.51,5.12,0.98,10.22,4.91,13.72
	c0.19,0.17,0.48,0.11,0.63-0.05c2.07,0.3,4.18-0.4,6.29-1.08c0.28,2.02,0.48,4.05,0.49,6.11c0.01,4.64-1.5,8.77-3.74,12.77
	c-3.36,5.99-8.13,12.64-8.71,19.7c-0.15,1.78,0,3.48,0.31,5.13c2.33-2.7,4.84-5.27,7.14-7.94c4.24-4.91,8.6-9.69,12.51-14.88
	c0.06-0.08,0.19-0.01,0.14,0.08c-3.52,5.11-7.22,10.14-11.38,14.76c-2.29,2.55-4.66,5.05-6.95,7.6c-0.42,0.47-0.83,0.97-1.22,1.48
	c0.02,0.07,0.03,0.13,0.04,0.2c-3.35,4.23-6.49,8.63-10.05,12.71c-2.05,2.35-4,4.78-6.16,7.03c-0.45,0.46-0.85,1.02-1.22,1.6V125.85
	c0.49-1.04,0.89-2.13,1.46-3.13c0.89-1.55,1.69-3.14,2.57-4.68c1.97-3.47,4.18-6.81,6.38-10.14c0.95-1.44,1.89-2.91,2.82-4.37
	c0.53-0.74,1.01-1.5,1.46-2.29c2.17-3.39,4.39-6.74,6.89-9.87c0.12,0.03,0.24,0.04,0.38,0.02c0.22-0.04,0.45-0.07,0.67-0.1
	c0.67,0.51,1.74,0.63,2.51,0.84c1.24,0.33,2.54,0.25,3.8,0.39c0.09,0.01,0.11-0.14,0.02-0.16c-1.23-0.29-2.33-0.92-3.53-1.28
	c-0.12-0.04-0.25-0.08-0.38-0.13c2.02-0.25,4.03-0.43,6.05-0.64c0.65,0.23,1.38,0.36,2.07,0.49c0.11,0.17,0.23,0.34,0.32,0.51
	c0.34,0.65,0.68,1.2,0.7,1.96c0,0.11,0.15,0.1,0.16,0c0.06-0.6,0.01-1.47-0.22-2.03c-0.03-0.07-0.06-0.16-0.09-0.25
	c0.07,0.02,0.15,0.03,0.22,0.06c1.83,0.58,3.58,1.62,5.41,2.26c0.05,0.02,0.09-0.06,0.04-0.09c-1.94-0.88-3.77-2.13-5.58-3.27
	c2.84-0.34,5.69-0.66,8.56-0.69c0.1,0,0.1-0.15,0-0.16c-3.66-0.29-7.29-0.76-10.97-0.81c-0.75-0.01-1.52,0.02-2.28,0.07
	c0-0.02,0.01-0.04,0.01-0.07c0.21-0.38,0.35-0.82,0.49-1.17c0.06-0.14,0.12-0.28,0.18-0.41c0.14-0.09,0.27-0.18,0.4-0.29
	c0.91-0.77,1.89-1.82,3.11-2.02c1.12-0.19,2.08-0.19,3.01-0.91c0.03-0.03,0.07-0.05,0.1-0.08c0.04-0.01,0.08-0.02,0.11-0.03
	c0.54-0.17,1.04-0.43,1.54-0.69c0.89-0.46,1.93-1.09,2.98-1.02c0.49,0.26,1.03,0.47,1.5,0.75c0.71,0.41,1.38,0.92,2.15,1.2
	c0.03,0.03,0.05,0.06,0.08,0.08c0.01,0.01,0.02,0,0.02-0.01c-0.41-0.6-0.79-1.22-1.26-1.78c-0.1-0.13-0.22-0.26-0.35-0.39
	c0.53,0.17,1.05,0.42,1.51,0.72c0.47,0.3,1.09,0.73,1.33,1.28c0.03,0.11,0.06,0.22,0.09,0.33c0,0.01,0,0.01,0,0.02
	c0,0.01,0.01,0,0.01,0c0.03-0.24-0.03-0.48-0.14-0.7c-0.13-0.67-0.3-1.34-0.63-1.93c-0.33-0.59-0.85-1.25-1.47-1.61
	c-0.44-2.16-0.88-3.83-3-5.05c-1.44-0.83-3.06-0.56-4.62-0.02c-0.04-0.01-0.07-0.03-0.11-0.04c-0.48-0.17-0.96-0.29-1.45-0.38
	c-0.12-0.05-0.24-0.09-0.36-0.15c-0.65-0.28-1.4-0.63-2.13-0.53c-0.32,0.04-0.63,0.14-0.93,0.26c-0.99-0.12-1.97-0.28-2.96-0.43
	c-1.21-0.19-2.45-0.38-3.66-0.1c-2.59,0.58-4.7,2.18-6.5,4.08c-0.94,0.99-1.87,1.98-2.66,3.08c-0.5,0.7-1.18,1.5-1.53,2.35
	c-0.62,0.13-1.24,0.27-1.86,0.4c-2.33,0.52-4.56,1.22-6.52,2.59c-0.01,0-0.02,0-0.03,0c-0.09-0.01-0.15,0.06-0.16,0.14
	c-0.09,0.1,0.03,0.24,0.15,0.23c0.03,0,0.05-0.01,0.08-0.01c0.52,0.15,0.99,0.33,1.55,0.34c0.51,0.01,1.03-0.04,1.53-0.12
	c1.17-0.18,2.32-0.47,3.46-0.77c0.04-0.01,0.09-0.02,0.13-0.04c-0.14,0.08-0.27,0.16-0.41,0.24c-1.72,0.97-3.95,1.67-5.24,3.24
	c-0.12,0.14,0.06,0.38,0.23,0.32c0.04-0.01,0.09-0.03,0.13-0.04c0.6,0.93,1.95,0.67,3.16,0.2c0.03,0.02,0.07,0.03,0.1,0.04
	c-0.47,0.42-0.9,0.89-1.24,1.31c-0.28,0.34,0.03,0.85,0.47,0.65c0.05-0.02,0.1-0.05,0.15-0.08c0.34,0,0.7-0.2,1-0.4
	c1.01-0.44,1.91-1.17,2.81-1.79c0.03-0.02,0.05-0.04,0.08-0.06c0.15-0.06,0.29-0.13,0.42-0.19c-0.17,0.36-0.33,0.72-0.54,1.07
	c-0.03,0.06,0.04,0.11,0.09,0.07c0.81-0.62,1.79-0.86,2.54-1.58c0.03-0.03,0.06-0.06,0.09-0.09c0.21-0.03,0.41-0.07,0.62-0.12
	c1.03-0.25,2.02-0.64,3.02-0.96c0.21-0.07,0.42-0.14,0.63-0.22c0.99,0.41,1.91,0.81,3.05,0.67c0.73-0.09,1.51-0.29,2.22-0.03
	c0.59,0.21,1.16,0.39,1.69,0.71c0.01,0.02,0.03,0.04,0.04,0.06c-0.69,0.07-1.38,0.16-2.07,0.26c-1.19,0.08-2.38,0.15-3.57,0.16
	c-0.12,0-0.23,0.06-0.33,0.14c-0.63,0-1.24,0.66-1.63,1.07c-0.3,0.31-0.63,0.66-0.93,1.02c-0.98,0.8-1.88,1.73-2.76,2.59
	c-2.3,2.24-4.68,4.39-6.95,6.65c-2.38,2.37-4.75,4.78-7.07,7.22c0.02-2.75,0.02-5.5-0.1-8.24c0.21-2.57,0.37-5.14,0.41-7.7
	c0.16-0.11,0.31-0.26,0.39-0.49c1.65-4.64,2.65-9.35,4.84-13.8c1.95-3.95,4.39-7.46,5.79-11.69c0.04-0.11-0.13-0.15-0.17-0.05
	c-1.3,3.34-3.61,5.97-5.72,8.75c-0.04-0.61-0.09-1.22-0.14-1.83c-0.19-2.16-0.59-4.22-0.48-6.4c0-0.08-0.12-0.1-0.14-0.02
	c-0.35,1.86-0.99,3.76-1.15,5.64c-0.09,1.06-0.07,2.08-0.01,3.14c0.05,0.9,0.22,1.13,0.48,1.5c-0.18,0.27-0.37,0.54-0.55,0.82
	c-1.62,2.62-2.45,5.69-3.27,8.72c-0.15-2.16-0.4-4.31-0.83-6.43c0.01-0.16,0.03-0.32,0.04-0.48c0.07-1.05,0-2.05-0.1-3.1
	c0.1-1.1,0.17-2.2,0.15-3.31c0-0.15-0.17-0.22-0.28-0.16c0.02-0.78,0.02-1.55-0.05-2.34c-0.01-0.13-0.21-0.14-0.21,0
	c-0.09,2.28-0.55,4.49-0.92,6.71c-0.02,0.01-0.04,0.01-0.04,0.04c0,0.09,0,0.19-0.01,0.28c-0.18,1.11-0.31,2.22-0.37,3.34v-19.4
	h86.4L656.7,67.85L656.7,67.85z M572.16,116.94c1.04-1.19,1.42-2.77,2.25-4.1c0.77-1.24,1.66-2.33,2.53-3.49
	c1.8-2.41,3.5-4.88,5.43-7.19c0.05-0.06,0.12,0.02,0.08,0.08c-2.2,2.82-4.23,5.81-6.29,8.72c-1.37,1.93-1.93,4.74-3.66,6.32
	C572.27,117.48,571.96,117.17,572.16,116.94z M592.33,84.05c-0.11-0.01-0.16-0.19-0.03-0.21c3.42-0.54,9.98-1.62,10.6-5.92
	c0.02-0.11,0.17-0.09,0.2,0C604.7,82.97,595.38,84.38,592.33,84.05z"/>
</svg>
