  0
SECTION
  2
HEADER
  9
$ACADVER
  1
AC1024
  9
$ACADMAINTVER
 70
     6
  9
$DWGCODEPAGE
  3
ANSI_1252
  9
$INSBASE
 10
0.0
 20
0.0
 30
0.0
  9
$EXTMIN
 10
1.000000000000000E+20
 20
1.000000000000000E+20
 30
1.000000000000000E+20
  9
$EXTMAX
 10
-1.000000000000000E+20
 20
-1.000000000000000E+20
 30
-1.000000000000000E+20
  9
$LIMMIN
 10
0.0
 20
0.0
  9
$LIMMAX
 10
12.0
 20
9.0
  9
$ORTHOMODE
 70
     0
  9
$REGENMODE
 70
     1
  9
$FILLMODE
 70
     1
  9
$QTEXTMODE
 70
     0
  9
$MIRRTEXT
 70
     1
  9
$LTSCALE
 40
1.0
  9
$ATTMODE
 70
     1
  9
$TEXTSIZE
 40
0.2
  9
$TRACEWID
 40
0.05
  9
$TEXTSTYLE
  7
Standard
  9
$CLAYER
  8
0
  9
$CELTYPE
  6
ByLayer
  9
$CECOLOR
 62
   256
  9
$CELTSCALE
 40
1.0
  9
$DISPSILH
 70
     0
  9
$DIMSCALE
 40
1.0
  9
$DIMASZ
 40
0.18
  9
$DIMEXO
 40
0.0625
  9
$DIMDLI
 40
0.38
  9
$DIMRND
 40
0.0
  9
$DIMDLE
 40
0.0
  9
$DIMEXE
 40
0.18
  9
$DIMTP
 40
0.0
  9
$DIMTM
 40
0.0
  9
$DIMTXT
 40
0.18
  9
$DIMCEN
 40
0.09
  9
$DIMTSZ
 40
0.0
  9
$DIMTOL
 70
     0
  9
$DIMLIM
 70
     0
  9
$DIMTIH
 70
     1
  9
$DIMTOH
 70
     1
  9
$DIMSE1
 70
     0
  9
$DIMSE2
 70
     0
  9
$DIMTAD
 70
     0
  9
$DIMZIN
 70
     0
  9
$DIMBLK
  1

  9
$DIMASO
 70
     1
  9
$DIMSHO
 70
     1
  9
$DIMPOST
  1

  9
$DIMAPOST
  1

  9
$DIMALT
 70
     0
  9
$DIMALTD
 70
     2
  9
$DIMALTF
 40
25.4
  9
$DIMLFAC
 40
1.0
  9
$DIMTOFL
 70
     0
  9
$DIMTVP
 40
0.0
  9
$DIMTIX
 70
     0
  9
$DIMSOXD
 70
     0
  9
$DIMSAH
 70
     0
  9
$DIMBLK1
  1

  9
$DIMBLK2
  1

  9
$DIMSTYLE
  2
Standard
  9
$DIMCLRD
 70
     0
  9
$DIMCLRE
 70
     0
  9
$DIMCLRT
 70
     0
  9
$DIMTFAC
 40
1.0
  9
$DIMGAP
 40
0.09
  9
$DIMJUST
 70
     0
  9
$DIMSD1
 70
     0
  9
$DIMSD2
 70
     0
  9
$DIMTOLJ
 70
     1
  9
$DIMTZIN
 70
     0
  9
$DIMALTZ
 70
     0
  9
$DIMALTTZ
 70
     0
  9
$DIMUPT
 70
     0
  9
$DIMDEC
 70
     4
  9
$DIMTDEC
 70
     4
  9
$DIMALTU
 70
     2
  9
$DIMALTTD
 70
     2
  9
$DIMTXSTY
  7
Standard
  9
$DIMAUNIT
 70
     0
  9
$DIMADEC
 70
     0
  9
$DIMALTRND
 40
0.0
  9
$DIMAZIN
 70
     0
  9
$DIMDSEP
 70
    46
  9
$DIMATFIT
 70
     3
  9
$DIMFRAC
 70
     0
  9
$DIMLDRBLK
  1

  9
$DIMLUNIT
 70
     2
  9
$DIMLWD
 70
    -2
  9
$DIMLWE
 70
    -2
  9
$DIMTMOVE
 70
     0
  9
$DIMFXL
 40
1.0
  9
$DIMFXLON
 70
     0
  9
$DIMJOGANG
 40
0.7853981633974483
  9
$DIMTFILL
 70
     0
  9
$DIMTFILLCLR
 70
     0
  9
$DIMARCSYM
 70
     0
  9
$DIMLTYPE
  6

  9
$DIMLTEX1
  6

  9
$DIMLTEX2
  6

  9
$DIMTXTDIRECTION
 70
     0
  9
$LUNITS
 70
     2
  9
$LUPREC
 70
     4
  9
$SKETCHINC
 40
0.1
  9
$FILLETRAD
 40
0.5
  9
$AUNITS
 70
     0
  9
$AUPREC
 70
     0
  9
$MENU
  1
.
  9
$ELEVATION
 40
0.0
  9
$PELEVATION
 40
0.0
  9
$THICKNESS
 40
0.0
  9
$LIMCHECK
 70
     0
  9
$CHAMFERA
 40
0.5
  9
$CHAMFERB
 40
0.5
  9
$CHAMFERC
 40
1.0
  9
$CHAMFERD
 40
0.0
  9
$SKPOLY
 70
     0
  9
$TDCREATE
 40
2459480.766408819
  9
$TDUCREATE
 40
2459480.683075486
  9
$TDUPDATE
 40
2459480.766408866
  9
$TDUUPDATE
 40
2459480.683075532
  9
$TDINDWG
 40
0.0000000116
  9
$TDUSRTIMER
 40
0.0000000116
  9
$USRTIMER
 70
     1
  9
$ANGBASE
 50
0.0
  9
$ANGDIR
 70
     0
  9
$PDMODE
 70
     0
  9
$PDSIZE
 40
0.0
  9
$PLINEWID
 40
0.0
  9
$SPLFRAME
 70
     0
  9
$SPLINETYPE
 70
     6
  9
$SPLINESEGS
 70
     8
  9
$HANDSEED
  5
4B
  9
$SURFTAB1
 70
     6
  9
$SURFTAB2
 70
     6
  9
$SURFTYPE
 70
     6
  9
$SURFU
 70
     6
  9
$SURFV
 70
     6
  9
$UCSBASE
  2

  9
$UCSNAME
  2

  9
$UCSORG
 10
0.0
 20
0.0
 30
0.0
  9
$UCSXDIR
 10
1.0
 20
0.0
 30
0.0
  9
$UCSYDIR
 10
0.0
 20
1.0
 30
0.0
  9
$UCSORTHOREF
  2

  9
$UCSORTHOVIEW
 70
     0
  9
$UCSORGTOP
 10
0.0
 20
0.0
 30
0.0
  9
$UCSORGBOTTOM
 10
0.0
 20
0.0
 30
0.0
  9
$UCSORGLEFT
 10
0.0
 20
0.0
 30
0.0
  9
$UCSORGRIGHT
 10
0.0
 20
0.0
 30
0.0
  9
$UCSORGFRONT
 10
0.0
 20
0.0
 30
0.0
  9
$UCSORGBACK
 10
0.0
 20
0.0
 30
0.0
  9
$PUCSBASE
  2

  9
$PUCSNAME
  2

  9
$PUCSORG
 10
0.0
 20
0.0
 30
0.0
  9
$PUCSXDIR
 10
1.0
 20
0.0
 30
0.0
  9
$PUCSYDIR
 10
0.0
 20
1.0
 30
0.0
  9
$PUCSORTHOREF
  2

  9
$PUCSORTHOVIEW
 70
     0
  9
$PUCSORGTOP
 10
0.0
 20
0.0
 30
0.0
  9
$PUCSORGBOTTOM
 10
0.0
 20
0.0
 30
0.0
  9
$PUCSORGLEFT
 10
0.0
 20
0.0
 30
0.0
  9
$PUCSORGRIGHT
 10
0.0
 20
0.0
 30
0.0
  9
$PUCSORGFRONT
 10
0.0
 20
0.0
 30
0.0
  9
$PUCSORGBACK
 10
0.0
 20
0.0
 30
0.0
  9
$USERI1
 70
     0
  9
$USERI2
 70
     0
  9
$USERI3
 70
     0
  9
$USERI4
 70
     0
  9
$USERI5
 70
     0
  9
$USERR1
 40
0.0
  9
$USERR2
 40
0.0
  9
$USERR3
 40
0.0
  9
$USERR4
 40
0.0
  9
$USERR5
 40
0.0
  9
$WORLDVIEW
 70
     1
  9
$SHADEDGE
 70
     3
  9
$SHADEDIF
 70
    70
  9
$TILEMODE
 70
     1
  9
$MAXACTVP
 70
    64
  9
$PINSBASE
 10
0.0
 20
0.0
 30
0.0
  9
$PLIMCHECK
 70
     0
  9
$PEXTMIN
 10
1.000000000000000E+20
 20
1.000000000000000E+20
 30
1.000000000000000E+20
  9
$PEXTMAX
 10
-1.000000000000000E+20
 20
-1.000000000000000E+20
 30
-1.000000000000000E+20
  9
$PLIMMIN
 10
0.0
 20
0.0
  9
$PLIMMAX
 10
12.0
 20
9.0
  9
$UNITMODE
 70
     0
  9
$VISRETAIN
 70
     1
  9
$PLINEGEN
 70
     0
  9
$PSLTSCALE
 70
     1
  9
$TREEDEPTH
 70
  3020
  9
$CMLSTYLE
  2
Standard
  9
$CMLJUST
 70
     0
  9
$CMLSCALE
 40
1.0
  9
$PROXYGRAPHICS
 70
     1
  9
$MEASUREMENT
 70
     0
  9
$CELWEIGHT
370
    -1
  9
$ENDCAPS
280
     0
  9
$JOINSTYLE
280
     0
  9
$LWDISPLAY
290
     1
  9
$INSUNITS
 70
     1
  9
$HYPERLINKBASE
  1

  9
$STYLESHEET
  1

  9
$XEDIT
290
     1
  9
$CEPSNTYPE
380
     0
  9
$PSTYLEMODE
290
     1
  9
$FINGERPRINTGUID
  2
{3CE06957-2B61-4059-A27B-3559EA9EB27B}
  9
$VERSIONGUID
  2
{FAEB1C32-E019-11D5-929B-00C0DF256EC4}
  9
$EXTNAMES
290
     1
  9
$PSVPSCALE
 40
0.0
  9
$OLESTARTUP
290
     0
  9
$SORTENTS
280
   127
  9
$INDEXCTL
280
     0
  9
$HIDETEXT
280
     1
  9
$XCLIPFRAME
280
     2
  9
$HALOGAP
280
     0
  9
$OBSCOLOR
 70
   257
  9
$OBSLTYPE
280
     0
  9
$INTERSECTIONDISPLAY
280
     0
  9
$INTERSECTIONCOLOR
 70
   257
  9
$DIMASSOC
280
     2
  9
$PROJECTNAME
  1

  9
$CAMERADISPLAY
290
     0
  9
$LENSLENGTH
 40
50.0
  9
$CAMERAHEIGHT
 40
0.0
  9
$STEPSPERSEC
 40
2.0
  9
$STEPSIZE
 40
6.0
  9
$3DDWFPREC
 40
2.0
  9
$PSOLWIDTH
 40
0.25
  9
$PSOLHEIGHT
 40
4.0
  9
$LOFTANG1
 40
1.570796326794897
  9
$LOFTANG2
 40
1.570796326794897
  9
$LOFTMAG1
 40
0.0
  9
$LOFTMAG2
 40
0.0
  9
$LOFTPARAM
 70
     7
  9
$LOFTNORMALS
280
     1
  9
$LATITUDE
 40
37.795
  9
$LONGITUDE
 40
-122.394
  9
$NORTHDIRECTION
 40
0.0
  9
$TIMEZONE
 70
 -8000
  9
$LIGHTGLYPHDISPLAY
280
     1
  9
$TILEMODELIGHTSYNCH
280
     1
  9
$CMATERIAL
347
3C
  9
$SOLIDHIST
280
     1
  9
$SHOWHIST
280
     1
  9
$DWFFRAME
280
     2
  9
$DGNFRAME
280
     2
  9
$REALWORLDSCALE
290
     1
  9
$INTERFERECOLOR
 62
   256
  9
$CSHADOW
280
     0
  9
$SHADOWPLANELOCATION
 40
0.0
  0
ENDSEC
  0
SECTION
  2
CLASSES
  0
CLASS
  1
ACDBDICTIONARYWDFLT
  2
AcDbDictionaryWithDefault
  3
ObjectDBX Classes
 90
        0
 91
        4
280
     0
281
     0
  0
CLASS
  1
VISUALSTYLE
  2
AcDbVisualStyle
  3
ObjectDBX Classes
 90
     4095
 91
        4
280
     0
281
     0
  0
CLASS
  1
MATERIAL
  2
AcDbMaterial
  3
ObjectDBX Classes
 90
     1153
 91
        4
280
     0
281
     0
  0
CLASS
  1
SUN
  2
AcDbSun
  3
SCENEOE
 90
     1024
 91
        4
280
     0
281
     0
  0
ENDSEC
  0
SECTION
  2
TABLES
  0
TABLE
  2
VPORT
  5
8
330
0
100
AcDbSymbolTable
 70
     1
  0
VPORT
  5
29
330
8
100
AcDbSymbolTableRecord
100
AcDbViewportTableRecord
  2
*Active
 70
     0
 10
0.0
 20
0.0
 11
1.0
 21
1.0
 12
0.0
 22
0.0
 13
0.0
 23
0.0
 14
0.5
 24
0.5
 15
0.5
 25
0.5
 16
0.0
 26
0.0
 36
1.0
 17
1000.0
 27
-1000.0
 37
0.0
 40
2000.0
 41
1.0
 42
50.0
 43
0.0
 44
0.0
 50
0.0
 51
0.0
 71
     0
 72
   100
 73
     1
 74
     3
 75
     0
 76
     0
 77
     0
 78
     0
281
     0
 65
     1
110
0.0
120
0.0
130
0.0
111
1.0
121
0.0
131
0.0
112
0.0
122
1.0
132
0.0
 79
     0
146
0.0
 60
     3
 61
     5
292
     1
282
     1
141
0.0
142
0.0
 63
   250
361
3F
  0
ENDTAB
  0
TABLE
  2
LTYPE
  5
5
330
0
100
AcDbSymbolTable
 70
     1
  0
LTYPE
  5
14
330
5
100
AcDbSymbolTableRecord
100
AcDbLinetypeTableRecord
  2
ByBlock
 70
     0
  3

 72
    65
 73
     0
 40
0.0
  0
LTYPE
  5
15
330
5
100
AcDbSymbolTableRecord
100
AcDbLinetypeTableRecord
  2
ByLayer
 70
     0
  3

 72
    65
 73
     0
 40
0.0
  0
LTYPE
  5
16
330
5
100
AcDbSymbolTableRecord
100
AcDbLinetypeTableRecord
  2
Continuous
 70
     0
  3
Solid line
 72
    65
 73
     0
 40
0.0
  0
ENDTAB
  0
TABLE
  2
LAYER
  5
2
330
0
100
AcDbSymbolTable
 70
     2
  0
LAYER
  5
10
330
2
100
AcDbSymbolTableRecord
100
AcDbLayerTableRecord
  2
0
 70
     0
 62
     7
  6
Continuous
370
    -3
390
F
347
3E
  0
LAYER
  5
40
330
2
100
AcDbSymbolTableRecord
100
AcDbLayerTableRecord
  2
Livello 1
 70
     0
 62
     7
  6
Continuous
370
    -3
390
F
347
3E
  0
ENDTAB
  0
TABLE
  2
STYLE
  5
3
330
0
100
AcDbSymbolTable
 70
     1
  0
STYLE
  5
11
330
3
100
AcDbSymbolTableRecord
100
AcDbTextStyleTableRecord
  2
Standard
 70
     0
 40
0.0
 41
1.0
 50
0.0
 71
     0
 42
0.2
  3
txt
  4

  0
ENDTAB
  0
TABLE
  2
VIEW
  5
6
330
0
100
AcDbSymbolTable
 70
     0
  0
ENDTAB
  0
TABLE
  2
UCS
  5
7
330
0
100
AcDbSymbolTable
 70
     0
  0
ENDTAB
  0
TABLE
  2
APPID
  5
9
330
0
100
AcDbSymbolTable
 70
     1
  0
APPID
  5
12
330
9
100
AcDbSymbolTableRecord
100
AcDbRegAppTableRecord
  2
ACAD
 70
     0
  0
ENDTAB
  0
TABLE
  2
DIMSTYLE
  5
A
330
0
100
AcDbSymbolTable
 70
     1
100
AcDbDimStyleTable
  0
DIMSTYLE
105
27
330
A
100
AcDbSymbolTableRecord
100
AcDbDimStyleTableRecord
  2
Standard
 70
     0
178
     0
340
11
  0
ENDTAB
  0
TABLE
  2
BLOCK_RECORD
  5
1
330
0
100
AcDbSymbolTable
 70
     1
  0
BLOCK_RECORD
  5
1F
330
1
100
AcDbSymbolTableRecord
100
AcDbBlockTableRecord
  2
*Model_Space
340
22
 70
     0
280
     1
281
     0
  0
BLOCK_RECORD
  5
1B
330
1
100
AcDbSymbolTableRecord
100
AcDbBlockTableRecord
  2
*Paper_Space
340
1E
 70
     0
280
     1
281
     0
  0
BLOCK_RECORD
  5
23
330
1
100
AcDbSymbolTableRecord
100
AcDbBlockTableRecord
  2
*Paper_Space0
340
26
 70
     0
280
     1
281
     0
  0
ENDTAB
  0
ENDSEC
  0
SECTION
  2
BLOCKS
  0
BLOCK
  5
20
330
1F
100
AcDbEntity
  8
0
100
AcDbBlockBegin
  2
*Model_Space
 70
     0
 10
0.0
 20
0.0
 30
0.0
  3
*Model_Space
  1

  0
ENDBLK
  5
21
330
1F
100
AcDbEntity
  8
0
100
AcDbBlockEnd
  0
BLOCK
  5
1C
330
1B
100
AcDbEntity
 67
     1
  8
0
100
AcDbBlockBegin
  2
*Paper_Space
 70
     0
 10
0.0
 20
0.0
 30
0.0
  3
*Paper_Space
  1

  0
ENDBLK
  5
1D
330
1B
100
AcDbEntity
 67
     1
  8
0
100
AcDbBlockEnd
  0
BLOCK
  5
24
330
23
100
AcDbEntity
  8
0
100
AcDbBlockBegin
  2
*Paper_Space0
 70
     0
 10
0.0
 20
0.0
 30
0.0
  3
*Paper_Space0
  1

  0
ENDBLK
  5
25
330
23
100
AcDbEntity
  8
0
100
AcDbBlockEnd
  0
ENDSEC
  0
SECTION
  2
ENTITIES
  0
SPLINE
  5
41
330
1F
100
AcDbEntity
  8
Livello 1
370
     0
100
AcDbSpline
210
0.0
220
0.0
230
1.0
 70
    11
 71
     3
 72
    17
 73
    13
 74
     0
 42
0.0000000001
 43
0.0000000001
 12
1.0
 22
0.0
 32
0.0
 13
1.0
 23
0.0
 33
0.0
 40
0.0
 40
0.0
 40
0.0
 40
0.0
 40
1.0
 40
1.0
 40
1.0
 40
2.0
 40
2.0
 40
2.0
 40
3.0
 40
3.0
 40
3.0
 40
4.0
 40
4.0
 40
4.0
 40
4.0
 10
1071.49034607867
 20
-353.9996353367078
 30
0.0
 10
714.7955178798438
 20
-314.5375346017099
 30
0.0
 10
393.5216243968407
 20
-571.5298241579967
 30
0.0
 10
354.0249108425942
 20
-928.5120365783514
 30
0.0
 10
311.4055430478566
 20
-1313.721080947545
 30
0.0
 10
612.7014449989547
 20
-1650.0
 30
0.0
 10
1001.096102831154
 20
-1650.0
 30
0.0
 10
1326.773900222031
 20
-1650.0
 30
0.0
 10
1609.120165766653
 20
-1404.818487212782
 30
0.0
 10
1646.002747320315
 20
-1071.463522255544
 30
0.0
 10
1685.404205251489
 20
-715.3390947530552
 30
0.0
 10
1429.086120938564
 20
-393.5670573161715
 30
0.0
 10
1071.49034607867
 20
-353.9996353367078
 30
0.0
  0
SPLINE
  5
42
330
1F
100
AcDbEntity
  8
Livello 1
370
     0
100
AcDbSpline
210
0.0
220
0.0
230
1.0
 70
    11
 71
     3
 72
    11
 73
     7
 74
     0
 42
0.0000000001
 43
0.0000000001
 12
1.0
 22
0.0
 32
0.0
 13
1.0
 23
0.0
 33
0.0
 40
0.0
 40
0.0
 40
0.0
 40
0.0
 40
1.0
 40
1.0
 40
1.0
 40
2.0
 40
2.0
 40
2.0
 40
2.0
 10
1246.59883248187
 20
-1551.139073394568
 30
0.0
 10
1307.435844159283
 20
-1473.420192806341
 30
0.0
 10
1272.376198003467
 20
-1520.992518111276
 30
0.0
 10
1345.173223628353
 20
-1495.233692555268
 30
0.0
 10
1314.216942920793
 20
-1516.836395285516
 30
0.0
 10
1281.221528410151
 20
-1535.580614084041
 30
0.0
 10
1246.59883248187
 20
-1551.139073394568
 30
0.0
  0
SPLINE
  5
43
330
1F
100
AcDbEntity
  8
Livello 1
370
     0
100
AcDbSpline
210
0.0
220
0.0
230
1.0
 70
    11
 71
     3
 72
    14
 73
    10
 74
     0
 42
0.0000000001
 43
0.0000000001
 12
1.0
 22
0.0
 32
0.0
 13
1.0
 23
0.0
 33
0.0
 40
0.0
 40
0.0
 40
0.0
 40
0.0
 40
1.0
 40
1.0
 40
1.0
 40
2.0
 40
2.0
 40
2.0
 40
3.0
 40
3.0
 40
3.0
 40
3.0
 10
1247.992317996504
 20
-1392.801765778937
 30
0.0
 10
1239.301613336911
 20
-1367.274078849145
 30
0.0
 10
1243.508391273865
 20
-1334.642518889548
 30
0.0
 10
1262.526371914118
 20
-1314.722546688048
 30
0.0
 10
1296.706249112196
 20
-1278.921387801627
 30
0.0
 10
1359.943395924838
 20
-1311.596300643901
 30
0.0
 10
1365.381086066385
 20
-1356.371119165247
 30
0.0
 10
1373.032869858956
 20
-1419.385211525721
 30
0.0
 10
1269.550313066486
 20
-1456.124070039697
 30
0.0
 10
1247.992317996504
 20
-1392.801765778937
 30
0.0
  0
SPLINE
  5
44
330
1F
100
AcDbEntity
  8
Livello 1
370
     0
100
AcDbSpline
210
0.0
220
0.0
230
1.0
 70
    11
 71
     3
 72
   371
 73
   367
 74
     0
 42
0.0000000001
 43
0.0000000001
 12
1.0
 22
0.0
 32
0.0
 13
1.0
 23
0.0
 33
0.0
 40
0.0
 40
0.0
 40
0.0
 40
0.0
 40
1.0
 40
1.0
 40
1.0
 40
2.0
 40
2.0
 40
2.0
 40
3.0
 40
3.0
 40
3.0
 40
4.0
 40
4.0
 40
4.0
 40
5.0
 40
5.0
 40
5.0
 40
6.0
 40
6.0
 40
6.0
 40
7.0
 40
7.0
 40
7.0
 40
8.0
 40
8.0
 40
8.0
 40
9.0
 40
9.0
 40
9.0
 40
10.0
 40
10.0
 40
10.0
 40
11.0
 40
11.0
 40
11.0
 40
12.0
 40
12.0
 40
12.0
 40
13.0
 40
13.0
 40
13.0
 40
14.0
 40
14.0
 40
14.0
 40
15.0
 40
15.0
 40
15.0
 40
16.0
 40
16.0
 40
16.0
 40
17.0
 40
17.0
 40
17.0
 40
18.0
 40
18.0
 40
18.0
 40
19.0
 40
19.0
 40
19.0
 40
20.0
 40
20.0
 40
20.0
 40
21.0
 40
21.0
 40
21.0
 40
22.0
 40
22.0
 40
22.0
 40
23.0
 40
23.0
 40
23.0
 40
24.0
 40
24.0
 40
24.0
 40
25.0
 40
25.0
 40
25.0
 40
26.0
 40
26.0
 40
26.0
 40
27.0
 40
27.0
 40
27.0
 40
28.0
 40
28.0
 40
28.0
 40
29.0
 40
29.0
 40
29.0
 40
30.0
 40
30.0
 40
30.0
 40
31.0
 40
31.0
 40
31.0
 40
32.0
 40
32.0
 40
32.0
 40
33.0
 40
33.0
 40
33.0
 40
34.0
 40
34.0
 40
34.0
 40
35.0
 40
35.0
 40
35.0
 40
36.0
 40
36.0
 40
36.0
 40
37.0
 40
37.0
 40
37.0
 40
38.0
 40
38.0
 40
38.0
 40
39.0
 40
39.0
 40
39.0
 40
40.0
 40
40.0
 40
40.0
 40
41.0
 40
41.0
 40
41.0
 40
42.0
 40
42.0
 40
42.0
 40
43.0
 40
43.0
 40
43.0
 40
44.0
 40
44.0
 40
44.0
 40
45.0
 40
45.0
 40
45.0
 40
46.0
 40
46.0
 40
46.0
 40
47.0
 40
47.0
 40
47.0
 40
48.0
 40
48.0
 40
48.0
 40
49.0
 40
49.0
 40
49.0
 40
50.0
 40
50.0
 40
50.0
 40
51.0
 40
51.0
 40
51.0
 40
52.0
 40
52.0
 40
52.0
 40
53.0
 40
53.0
 40
53.0
 40
54.0
 40
54.0
 40
54.0
 40
55.0
 40
55.0
 40
55.0
 40
56.0
 40
56.0
 40
56.0
 40
57.0
 40
57.0
 40
57.0
 40
58.0
 40
58.0
 40
58.0
 40
59.0
 40
59.0
 40
59.0
 40
60.0
 40
60.0
 40
60.0
 40
61.0
 40
61.0
 40
61.0
 40
62.0
 40
62.0
 40
62.0
 40
63.0
 40
63.0
 40
63.0
 40
64.0
 40
64.0
 40
64.0
 40
65.0
 40
65.0
 40
65.0
 40
66.0
 40
66.0
 40
66.0
 40
67.0
 40
67.0
 40
67.0
 40
68.0
 40
68.0
 40
68.0
 40
69.0
 40
69.0
 40
69.0
 40
70.0
 40
70.0
 40
70.0
 40
71.0
 40
71.0
 40
71.0
 40
72.0
 40
72.0
 40
72.0
 40
73.0
 40
73.0
 40
73.0
 40
74.0
 40
74.0
 40
74.0
 40
75.0
 40
75.0
 40
75.0
 40
76.0
 40
76.0
 40
76.0
 40
77.0
 40
77.0
 40
77.0
 40
78.0
 40
78.0
 40
78.0
 40
79.0
 40
79.0
 40
79.0
 40
80.0
 40
80.0
 40
80.0
 40
81.0
 40
81.0
 40
81.0
 40
82.0
 40
82.0
 40
82.0
 40
83.0
 40
83.0
 40
83.0
 40
84.0
 40
84.0
 40
84.0
 40
85.0
 40
85.0
 40
85.0
 40
86.0
 40
86.0
 40
86.0
 40
87.0
 40
87.0
 40
87.0
 40
88.0
 40
88.0
 40
88.0
 40
89.0
 40
89.0
 40
89.0
 40
90.0
 40
90.0
 40
90.0
 40
91.0
 40
91.0
 40
91.0
 40
92.0
 40
92.0
 40
92.0
 40
93.0
 40
93.0
 40
93.0
 40
94.0
 40
94.0
 40
94.0
 40
95.0
 40
95.0
 40
95.0
 40
96.0
 40
96.0
 40
96.0
 40
97.0
 40
97.0
 40
97.0
 40
98.0
 40
98.0
 40
98.0
 40
99.0
 40
99.0
 40
99.0
 40
100.0
 40
100.0
 40
100.0
 40
101.0
 40
101.0
 40
101.0
 40
102.0
 40
102.0
 40
102.0
 40
103.0
 40
103.0
 40
103.0
 40
104.0
 40
104.0
 40
104.0
 40
105.0
 40
105.0
 40
105.0
 40
106.0
 40
106.0
 40
106.0
 40
107.0
 40
107.0
 40
107.0
 40
108.0
 40
108.0
 40
108.0
 40
109.0
 40
109.0
 40
109.0
 40
110.0
 40
110.0
 40
110.0
 40
111.0
 40
111.0
 40
111.0
 40
112.0
 40
112.0
 40
112.0
 40
113.0
 40
113.0
 40
113.0
 40
114.0
 40
114.0
 40
114.0
 40
115.0
 40
115.0
 40
115.0
 40
116.0
 40
116.0
 40
116.0
 40
117.0
 40
117.0
 40
117.0
 40
118.0
 40
118.0
 40
118.0
 40
119.0
 40
119.0
 40
119.0
 40
120.0
 40
120.0
 40
120.0
 40
121.0
 40
121.0
 40
121.0
 40
122.0
 40
122.0
 40
122.0
 40
122.0
 10
1150.641871627036
 20
-1102.704403025504
 30
0.0
 10
1087.526267717616
 20
-1157.396290229146
 30
0.0
 10
1020.727217097847
 20
-1258.287254273879
 30
0.0
 10
1066.253937178129
 20
-1342.220176994326
 30
0.0
 10
1069.148516255469
 20
-1347.556645896402
 30
0.0
 10
1072.34811382879
 20
-1352.806409033128
 30
0.0
 10
1074.072939232459
 20
-1358.627307691195
 30
0.0
 10
1081.297387467206
 20
-1383.012142959335
 30
0.0
 10
1053.581734739786
 20
-1411.318381943409
 30
0.0
 10
1043.309424021087
 20
-1431.392798789446
 30
0.0
 10
1027.522781457541
 20
-1462.248729185989
 30
0.0
 10
1055.822149783869
 20
-1467.265954427457
 30
0.0
 10
1071.116427465582
 20
-1445.914079089845
 30
0.0
 10
1078.206172100583
 20
-1436.016170833378
 30
0.0
 10
1086.864362098164
 20
-1423.2471017978
 30
0.0
 10
1098.815822861996
 20
-1425.568706727074
 30
0.0
 10
1113.087437007691
 20
-1440.373329082116
 30
0.0
 10
1076.986872275276
 20
-1460.031829209967
 30
0.0
 10
1082.78299785753
 20
-1478.883849596225
 30
0.0
 10
1084.257770027185
 20
-1483.680439631209
 30
0.0
 10
1089.830163768473
 20
-1487.444979456919
 30
0.0
 10
1094.395377146133
 20
-1485.359879985823
 30
0.0
 10
1102.414112124228
 20
-1481.696271090095
 30
0.0
 10
1113.397874614007
 20
-1448.542541141822
 30
0.0
 10
1128.439002427227
 20
-1448.212459260541
 30
0.0
 10
1132.782806439785
 20
-1448.11714098055
 30
0.0
 10
1137.159899272967
 20
-1450.881467870202
 30
0.0
 10
1138.559578056553
 20
-1454.994669384054
 30
0.0
 10
1143.480904399066
 20
-1469.452952526812
 30
0.0
 10
1114.340025653624
 20
-1488.001793043808
 30
0.0
 10
1122.891381761752
 20
-1501.270097618968
 30
0.0
 10
1124.403313545126
 20
-1503.615411155955
 30
0.0
 10
1127.334278077567
 20
-1504.627526780785
 30
0.0
 10
1130.108088410305
 20
-1504.930029261253
 30
0.0
 10
1154.292029516757
 20
-1507.566716748559
 30
0.0
 10
1154.434474702697
 20
-1464.176771227207
 30
0.0
 10
1178.542548264455
 20
-1465.522742756584
 30
0.0
 10
1187.203834896516
 20
-1466.006398353953
 30
0.0
 10
1197.013972919529
 20
-1474.432727845075
 30
0.0
 10
1196.08420841782
 20
-1483.660117967453
 30
0.0
 10
1195.119606778249
 20
-1493.235008540045
 30
0.0
 10
1183.977141771522
 20
-1499.554175039422
 30
0.0
 10
1182.242252305807
 20
-1509.390053836523
 30
0.0
 10
1095.389639390038
 20
-1540.611363330248
 30
0.0
 10
916.5774576167314
 20
-1555.482629489718
 30
0.0
 10
994.0218413685361
 20
-1533.49725646984
 30
0.0
 10
1046.563038585771
 20
-1526.872442262809
 30
0.0
 10
1090.696833746686
 20
-1518.801400646349
 30
0.0
 10
1033.690503177027
 20
-1505.307431588135
 30
0.0
 10
954.8284327832171
 20
-1486.663649349812
 30
0.0
 10
953.5110136655821
 20
-1497.094495073316
 30
0.0
 10
948.7087890671646
 20
-1486.202454873041
 30
0.0
 10
955.2573968273173
 20
-1480.589901653375
 30
0.0
 10
988.4409318824328
 20
-1470.6806713271
 30
0.0
 10
1010.115050745302
 20
-1472.424657156591
 30
0.0
 10
1014.221188061754
 20
-1472.741771880999
 30
0.0
 10
1016.551405505666
 20
-1467.826832347097
 30
0.0
 10
1013.793078345312
 20
-1464.782647116588
 30
0.0
 10
975.8513892106439
 20
-1423.050990962751
 30
0.0
 10
933.0959702112104
 20
-1456.155580678744
 30
0.0
 10
889.5390716400088
 20
-1465.179016329641
 30
0.0
 10
867.580062405259
 20
-1469.745197405575
 30
0.0
 10
861.8094840574431
 20
-1455.602770979467
 30
0.0
 10
846.4780467620076
 20
-1444.64716850946
 30
0.0
 10
868.7536868720272
 20
-1439.193124267083
 30
0.0
 10
891.964510594089
 20
-1436.117295303016
 30
0.0
 10
914.6210367447748
 20
-1432.090122165728
 30
0.0
 10
941.0436567972811
 20
-1427.409017960679
 30
0.0
 10
932.9978991742464
 20
-1411.858749916762
 30
0.0
 10
924.8159316015517
 20
-1414.031614364192
 30
0.0
 10
881.6434278823781
 20
-1425.462840535894
 30
0.0
 10
848.2694498069304
 20
-1394.21315371164
 30
0.0
 10
805.1921675979229
 20
-1399.397597214864
 30
0.0
 10
773.3870254125777
 20
-1403.222048848997
 30
0.0
 10
705.1314110877356
 20
-1427.219559250098
 30
0.0
 10
675.11958471041
 20
-1384.8746718274
 30
0.0
 10
653.0218873694321
 20
-1353.683487443795
 30
0.0
 10
680.8695580992262
 20
-1370.999741088244
 30
0.0
 10
618.3118252305576
 20
-1328.510989085509
 30
0.0
 10
576.5978363500326
 20
-1300.178428708381
 30
0.0
 10
549.8506560552833
 20
-1242.451259098354
 30
0.0
 10
577.1211675766408
 20
-1198.12129147359
 30
0.0
 10
601.9492086542941
 20
-1157.786756482725
 30
0.0
 10
614.5857997961539
 20
-1122.113527308131
 30
0.0
 10
618.1368653826084
 20
-1073.708969330652
 30
0.0
 10
621.0005733241924
 20
-1034.887240941109
 30
0.0
 10
643.3202930045263
 20
-1017.982605093253
 30
0.0
 10
661.9914028453331
 20
-1050.65617073674
 30
0.0
 10
673.1532218175398
 20
-1070.141646413191
 30
0.0
 10
696.9508577729848
 20
-1086.313529659641
 30
0.0
 10
717.3243901555325
 20
-1076.895793286754
 30
0.0
 10
742.3591315845242
 20
-1065.321831619629
 30
0.0
 10
746.4497857285896
 20
-1022.94196955673
 30
0.0
 10
773.8627424358892
 20
-1020.024746339779
 30
0.0
 10
800.1500725108126
 20
-1017.250161848422
 30
0.0
 10
813.5794020787725
 20
-1054.667376852509
 30
0.0
 10
839.3271435960851
 20
-1060.660525803356
 30
0.0
 10
858.859939718137
 20
-1065.210836627595
 30
0.0
 10
879.3766914452426
 20
-1050.053681791318
 30
0.0
 10
898.5920825334051
 20
-1055.777230003016
 30
0.0
 10
929.2077334485002
 20
-1064.893721903189
 30
0.0
 10
926.2272227644262
 20
-1112.140912744908
 30
0.0
 10
988.5996343993775
 20
-1145.19806640543
 30
0.0
 10
1005.578069869871
 20
-1154.227044655805
 30
0.0
 10
1008.705907685691
 20
-1142.394643661595
 30
0.0
 10
1003.218071606492
 20
-1139.109889484069
 30
0.0
 10
928.1928332569914
 20
-1094.15631200278
 30
0.0
 10
948.2992628187039
 20
-1063.995545097034
 30
0.0
 10
936.501081800363
 20
-1020.928479757917
 30
0.0
 10
929.7541698374407
 20
-996.3075251285009
 30
0.0
 10
897.9729972552777
 20
-982.6676182176616
 30
0.0
 10
898.1802301479693
 20
-970.2089939692505
 30
0.0
 10
898.3775259375361
 20
-960.2629751930926
 30
0.0
 10
918.9099713683554
 20
-961.6822323437173
 30
0.0
 10
933.4253496061228
 20
-974.9020402889146
 30
0.0
 10
948.5663438812226
 20
-988.7115785087481
 30
0.0
 10
952.0384452885155
 20
-1013.349853954862
 30
0.0
 10
970.5725767917465
 20
-1023.576199005545
 30
0.0
 10
981.9093556119024
 20
-1029.838851925715
 30
0.0
 10
996.7329448531145
 20
-1029.807111422328
 30
0.0
 10
1005.802213077515
 20
-1039.01872806284
 30
0.0
 10
1016.67836751922
 20
-1050.069455273184
 30
0.0
 10
1013.649859000752
 20
-1068.048805355904
 30
0.0
 10
1017.455622772939
 20
-1083.205960192183
 30
0.0
 10
1018.5967325777
 20
-1087.724530513033
 30
0.0
 10
1024.748196966184
 20
-1088.453884702185
 30
0.0
 10
1027.000224389552
 20
-1084.363327327945
 30
0.0
 10
1035.783828083453
 20
-1068.476915072342
 30
0.0
 10
1029.917254066848
 20
-1045.535014700641
 30
0.0
 10
1017.66154896566
 20
-1030.710844840462
 30
0.0
 10
1003.249812109882
 20
-1013.238858962828
 30
0.0
 10
972.2215346507292
 20
-1014.253587372998
 30
0.0
 10
966.51443730969
 20
-986.1431137497639
 30
0.0
 10
979.404178320041
 20
-974.3788058321334
 30
0.0
 10
988.4726723858221
 20
-958.5240373100933
 30
0.0
 10
992.2304383236133
 20
-941.496031400593
 30
0.0
 10
993.5760008911548
 20
-935.3506326947954
 30
0.0
 10
984.1726482847153
 20
-927.7098121850959
 30
0.0
 10
975.7733743958033
 20
-944.0962366629665
 30
0.0
 10
972.2377919817336
 20
-950.9455082768673
 30
0.0
 10
969.7163573588678
 20
-959.031401515178
 30
0.0
 10
963.153040584948
 20
-963.1060886377218
 30
0.0
 10
950.1835612368159
 20
-971.1285976390809
 30
0.0
 10
932.9972398896825
 20
-957.445924662974
 30
0.0
 10
924.0866741822265
 20
-947.9965445565285
 30
0.0
 10
904.9156063263763
 20
-927.6473864388627
 30
0.0
 10
958.5779084044552
 20
-921.6959024261196
 30
0.0
 10
960.8700468168081
 20
-908.6291272207473
 30
0.0
 10
961.6147874085182
 20
-904.3483203658307
 30
0.0
 10
959.3000531369908
 20
-904.2214551221023
 30
0.0
 10
955.1304348137619
 20
-903.0007037493888
 30
0.0
 10
946.6324956503613
 20
-900.5273637307419
 30
0.0
 10
926.5446277983137
 20
-911.7049561848162
 30
0.0
 10
918.6009862062892
 20
-912.7671985802426
 30
0.0
 10
886.9696315946712
 20
-917.0044893480099
 30
0.0
 10
868.0278721283339
 20
-852.2370328907073
 30
0.0
 10
929.3029549586681
 20
-842.8000973508879
 30
0.0
 10
936.643526986305
 20
-841.6744707185135
 30
0.0
 10
983.7007586568234
 20
-844.5283096985149
 30
0.0
 10
978.2622943566621
 20
-829.0381698861365
 30
0.0
 10
948.7985265838051
 20
-823.8293401658466
 30
0.0
 10
918.8257647865375
 20
-842.9005805384331
 30
0.0
 10
904.8232852596702
 20
-777.4309177008581
 30
0.0
 10
904.0305468335682
 20
-773.76847004306
 30
0.0
 10
900.5584454262753
 20
-772.6427466408568
 30
0.0
 10
898.8777470639052
 20
-777.1296732281462
 30
0.0
 10
894.977535940172
 20
-787.4986570044239
 30
0.0
 10
903.2532915798511
 20
-801.514314956632
 30
0.0
 10
900.5739285986601
 20
-813.3102666078248
 30
0.0
 10
897.4347153976414
 20
-827.230703049865
 30
0.0
 10
880.7872084494993
 20
-834.1592291524103
 30
0.0
 10
875.6824065142282
 20
-847.4772734188555
 30
0.0
 10
867.887639235656
 20
-867.8921401008429
 30
0.0
 10
874.5917976508026
 20
-880.570035728244
 30
0.0
 10
867.785988597976
 20
-888.4935518437906
 30
0.0
 10
861.5627637258222
 20
-895.7152924378861
 30
0.0
 10
830.5124627210389
 20
-903.328287370281
 30
0.0
 10
819.6193876260841
 20
-883.7847320422607
 30
0.0
 10
808.7594905153837
 20
-864.3150298476758
 30
0.0
 10
829.7508014760824
 20
-852.4873376930955
 30
0.0
 10
837.646445233715
 20
-836.5850551858002
 30
0.0
 10
845.383386474401
 20
-820.9997906330827
 30
0.0
 10
836.5842996081155
 20
-801.0862052401917
 30
0.0
 10
821.9976029043919
 20
-792.6514567740869
 30
0.0
 10
815.9576173570786
 20
-789.1634851150975
 30
0.0
 10
808.1564209509943
 20
-786.2302948766264
 30
0.0
 10
817.2891701821718
 20
-803.7974054945989
 30
0.0
 10
825.5331853184616
 20
-819.6521740166409
 30
0.0
 10
820.1907166870842
 20
-832.1139988502055
 30
0.0
 10
809.2983049143731
 20
-846.6845349927553
 30
0.0
 10
795.0607537479245
 20
-865.7419977225909
 30
0.0
 10
766.6646155941926
 20
-865.7261274708981
 30
0.0
 10
753.2678006882397
 20
-862.8246777358127
 30
0.0
 10
745.2451949170518
 20
-861.0965621580126
 30
0.0
 10
740.5042475328246
 20
-871.433805430901
 30
0.0
 10
747.0048574585853
 20
-876.4439664749698
 30
0.0
 10
773.133485016564
 20
-896.6429260888781
 30
0.0
 10
810.0910433404752
 20
-900.3528877319313
 30
0.0
 10
840.5325085662425
 20
-915.0978998732917
 30
0.0
 10
854.2304711750785
 20
-921.7410517548196
 30
0.0
 10
868.3573176589762
 20
-937.8494539944895
 30
0.0
 10
859.5257161306836
 20
-950.2637648427972
 30
0.0
 10
857.3379438727097
 20
-953.3395938068679
 30
0.0
 10
854.0090618099766
 20
-955.5116893528011
 30
0.0
 10
852.1534035996592
 20
-958.8094115311105
 30
0.0
 10
846.7311966304987
 20
-968.5126188948398
 30
0.0
 10
857.1954986867695
 20
-979.5474758534929
 30
0.0
 10
867.2634315299911
 20
-984.3039064101031
 30
0.0
 10
904.9615234567555
 20
-1002.115438625799
 30
0.0
 10
890.9764636288692
 20
-1018.753730365806
 30
0.0
 10
882.5631283220355
 20
-1023.179829792492
 30
0.0
 10
854.2149880026936
 20
-1038.130864896397
 30
0.0
 10
826.4691430891235
 20
-994.8314959334966
 30
0.0
 10
810.9790032767451
 20
-979.9121045631546
 30
0.0
 10
797.8825619150575
 20
-967.2917707522993
 30
0.0
 10
778.6029156614968
 20
-957.6996551504308
 30
0.0
 10
761.7974803550296
 20
-964.6440515046706
 30
0.0
 10
738.5386587985722
 20
-974.252037358232
 30
0.0
 10
730.8009433992665
 20
-1013.524233183847
 30
0.0
 10
678.9083169929709
 20
-984.4149014021368
 30
0.0
 10
662.34054838261
 20
-975.124030272982
 30
0.0
 10
646.390558350402
 20
-962.8840986536543
 30
0.0
 10
626.6510618770135
 20
-963.439073613823
 30
0.0
 10
609.2425570061569
 20
-963.9464378189059
 30
0.0
 10
593.6254551802231
 20
-973.6811921463704
 30
0.0
 10
585.5238852298753
 20
-989.0920774701044
 30
0.0
 10
538.9242740156951
 20
-1077.591099828529
 30
0.0
 10
472.5377426359064
 20
-1042.618443869367
 30
0.0
 10
485.3694363415216
 20
-992.2630311745143
 30
0.0
 10
492.6310441899932
 20
-963.8037023234847
 30
0.0
 10
529.0490139562953
 20
-927.0364902500787
 30
0.0
 10
549.5015105180046
 20
-836.3471949500381
 30
0.0
 10
560.428430492193
 20
-787.7241710843537
 30
0.0
 10
605.7279917120868
 20
-802.0595398490223
 30
0.0
 10
616.4406838478535
 20
-845.0039334002122
 30
0.0
 10
618.390789409721
 20
-852.7728086839415
 30
0.0
 10
622.4659603814016
 20
-875.5561033085269
 30
0.0
 10
628.4424649219363
 20
-870.244697791748
 30
0.0
 10
638.272731069048
 20
-861.5404453563206
 30
0.0
 10
632.2482286941213
 20
-834.3812191364777
 30
0.0
 10
645.2331912146383
 20
-832.7006175439346
 30
0.0
 10
656.9175672548317
 20
-831.1785249286804
 30
0.0
 10
707.0505311195939
 20
-833.6360914654597
 30
0.0
 10
706.9870501128171
 20
-818.9069495757922
 30
0.0
 10
706.9715669404322
 20
-813.3261368595176
 30
0.0
 10
689.3571358768568
 20
-814.5786287356204
 30
0.0
 10
683.9031884043088
 20
-815.7677363747734
 30
0.0
 10
635.171287336354
 20
-826.4582838937313
 30
0.0
 10
643.2423169781996
 20
-798.5953171521869
 30
0.0
 10
670.4266351605747
 20
-781.1251058620455
 30
0.0
 10
682.6815661031487
 20
-773.229365334586
 30
0.0
 10
697.7915940334806
 20
-769.5511441949202
 30
0.0
 10
707.9230078834771
 20
-758.5320607181366
 30
0.0
 10
712.5997001023079
 20
-753.4426451854251
 30
0.0
 10
711.5058139733228
 20
-747.00561303627
 30
0.0
 10
703.5149487055241
 20
-748.8923343611859
 30
0.0
 10
691.3707224455011
 20
-751.7461733411856
 30
0.0
 10
679.6220912399112
 20
-757.0575788579663
 30
0.0
 10
668.9990866666958
 20
-763.5262547406837
 30
0.0
 10
660.5174048342997
 20
-768.6949247620414
 30
0.0
 10
654.2064637702533
 20
-776.4161892906886
 30
0.0
 10
646.3743010193994
 20
-782.393467989843
 30
0.0
 10
627.5159647344517
 20
-796.7726213219339
 30
0.0
 10
617.1043508851326
 20
-784.7472840175105
 30
0.0
 10
611.2089198990288
 20
-780.0311229632316
 30
0.0
 10
589.8473678750615
 20
-762.9190300163154
 30
0.0
 10
556.4347103536293
 20
-766.5473989029251
 30
0.0
 10
550.3739872818896
 20
-743.3907761335522
 30
0.0
 10
547.2192909084843
 20
-731.309450261344
 30
0.0
 10
553.6084219930744
 20
-718.720760184051
 30
0.0
 10
564.928943482224
 20
-713.4569654223542
 30
0.0
 10
584.8108851415545
 20
-704.1659975233688
 30
0.0
 10
586.3011404835925
 20
-706.2747088323522
 30
0.0
 10
696.5707458909383
 20
-715.3119462438826
 30
0.0
 10
717.4513521690878
 20
-717.0242883398132
 30
0.0
 10
723.0485189861938
 20
-706.227194847097
 30
0.0
 10
735.2724835839981
 20
-700.0437964155699
 30
0.0
 10
768.4405354667288
 20
-683.2694242236976
 30
0.0
 10
833.2391602143798
 20
-728.4713847632102
 30
0.0
 10
882.8325355215311
 20
-720.8611152265948
 30
0.0
 10
892.4723586483105
 20
-719.3866333664264
 30
0.0
 10
884.1803456776288
 20
-711.8397480667627
 30
0.0
 10
875.6824065142282
 20
-707.067447258456
 30
0.0
 10
874.08911828274
 20
-706.1717230328377
 30
0.0
 10
742.674602024752
 20
-666.3896161301182
 30
0.0
 10
812.4530012877767
 20
-648.7853026882603
 30
0.0
 10
840.9598441240632
 20
-641.61901311978
 30
0.0
 10
872.4797123064309
 20
-634.7538712541827
 30
0.0
 10
898.5765993610203
 20
-648.2462947496115
 30
0.0
 10
911.7040070674775
 20
-655.0162151050426
 30
0.0
 10
925.0698556286607
 20
-666.9866427550442
 30
0.0
 10
939.0852232713878
 20
-662.3253369387712
 30
0.0
 10
948.3449345161207
 20
-659.2495079747023
 30
0.0
 10
954.1155128639384
 20
-650.1330160745292
 30
0.0
 10
968.6859522366594
 20
-663.1339456165679
 30
0.0
 10
996.6694638463377
 20
-688.1209795206505
 30
0.0
 10
1005.675251063958
 20
-727.2981473757518
 30
0.0
 10
1019.738616541081
 20
-762.0676431322081
 30
0.0
 10
1022.973051252264
 20
-770.0742818818726
 30
0.0
 10
1034.673684623462
 20
-766.6020837047527
 30
0.0
 10
1033.531800660081
 20
-758.3418112374602
 30
0.0
 10
1028.221072532097
 20
-720.100117303884
 30
0.0
 10
1012.889635236659
 20
-683.2694242236976
 30
0.0
 10
989.3606323220902
 20
-652.6697403301241
 30
0.0
 10
951.5313713929136
 20
-603.4248331714571
 30
0.0
 10
932.9654993862932
 20
-641.967771577747
 30
0.0
 10
917.3011738845853
 20
-627.8094748999429
 30
0.0
 10
906.2972832707037
 20
-617.8685040702785
 30
0.0
 10
917.5705810840809
 20
-591.1373875668778
 30
0.0
 10
925.196817642216
 20
-554.6872902178784
 30
0.0
 10
926.448632129528
 20
-548.7100115187241
 30
0.0
 10
918.2518406690124
 20
-543.9219372285479
 30
0.0
 10
915.0808869646044
 20
-548.5515025414334
 30
0.0
 10
899.2178352778483
 20
-571.6583290611197
 30
0.0
 10
906.1028725226915
 20
-608.8518342995485
 30
0.0
 10
869.5781658015185
 20
-615.6171540357009
 30
0.0
 10
857.8612750993161
 20
-617.8051198333305
 30
0.0
 10
845.7642725150672
 20
-617.8843743219732
 30
0.0
 10
833.888679295922
 20
-617.3136258799404
 30
0.0
 10
806.882391051693
 20
-616.0090768408882
 30
0.0
 10
801.8601339880279
 20
-597.593138622793
 30
0.0
 10
818.92187071015
 20
-579.389046670769
 30
0.0
 10
867.9571568370702
 20
-526.7560421361195
 30
0.0
 10
841.7874477569585
 20
-517.09453900478
 30
0.0
 10
826.500883592511
 20
-537.611673553296
 30
0.0
 10
818.8746470343758
 20
-547.9014028409274
 30
0.0
 10
814.1654401535379
 20
-558.9680970727932
 30
0.0
 10
805.3980937906399
 20
-569.9078292911054
 30
0.0
 10
799.1668910643766
 20
-577.6925748265312
 30
0.0
 10
796.1391567045266
 20
-591.5813675350109
 30
0.0
 10
786.6890024394615
 20
-581.5294017133128
 30
0.0
 10
783.7882300931687
 20
-578.4694430009404
 30
0.0
 10
767.9172042401224
 20
-557.3508797172017
 30
0.0
 10
737.349551159421
 20
-547.2037891551645
 30
0.0
 10
726.5841014002654
 20
-543.6206927558378
 30
0.0
 10
718.6567171392453
 20
-551.3736010180473
 30
0.0
 10
727.3768398263674
 20
-558.6351120966938
 30
0.0
 10
740.3618023468844
 20
-569.4322055894099
 30
0.0
 10
758.4360836302876
 20
-575.964362478906
 30
0.0
 10
770.2791621874258
 20
-587.6493191380614
 30
0.0
 10
787.6404433825082
 20
-604.7724497879026
 30
0.0
 10
778.9365780263888
 20
-635.2928791928298
 30
0.0
 10
762.3997757607976
 20
-653.1929747869035
 30
0.0
 10
733.4493400356878
 20
-684.5695268548843
 30
0.0
 10
702.6432461002605
 20
-668.334259371486
 30
0.0
 10
701.1212502548333
 20
-632.3915262275732
 30
0.0
 10
700.7721047175546
 20
-623.8616530211275
 30
0.0
 10
701.8659908465415
 20
-615.3635203180729
 30
0.0
 10
702.7539507828114
 20
-606.8495173633237
 30
0.0
 10
703.3562461885795
 20
-601.0624881448475
 30
0.0
 10
694.8745643561833
 20
-599.6196500182359
 30
0.0
 10
693.5902352068624
 20
-605.2956842446802
 30
0.0
 10
687.4542539907652
 20
-632.2329204804537
 30
0.0
 10
697.1730412967081
 20
-675.2627854740331
 30
0.0
 10
629.1090154931026
 20
-661.0093640558898
 30
0.0
 10
610.7874000040501
 20
-657.1699320522657
 30
0.0
 10
596.9483863126588
 20
-649.124707947025
 30
0.0
 10
603.7096453544473
 20
-631.4719225577428
 30
0.0
 10
829.9998792608258
 20
-389.1277772582089
 30
0.0
 10
1216.400128511128
 20
-404.5940703643555
 30
0.0
 10
1422.354515490752
 20
-661.8021024819936
 30
0.0
 10
1552.203212204384
 20
-823.9421710693405
 30
0.0
 10
1572.329608704538
 20
-1034.919018237162
 30
0.0
 10
1498.87545005094
 20
-1209.555420740115
 30
0.0
 10
1456.894607663338
 20
-1093.455685553927
 30
0.0
 10
1250.803494061231
 20
-1015.910926993722
 30
0.0
 10
1150.641871627036
 20
-1102.704403025504
 30
0.0
  0
SPLINE
  5
45
330
1F
100
AcDbEntity
  8
Livello 1
370
     0
100
AcDbSpline
210
0.0
220
0.0
230
1.0
 70
    11
 71
     3
 72
    14
 73
    10
 74
     0
 42
0.0000000001
 43
0.0000000001
 12
1.0
 22
0.0
 32
0.0
 13
1.0
 23
0.0
 33
0.0
 40
0.0
 40
0.0
 40
0.0
 40
0.0
 40
1.0
 40
1.0
 40
1.0
 40
2.0
 40
2.0
 40
2.0
 40
3.0
 40
3.0
 40
3.0
 40
3.0
 10
1139.850100474829
 20
-1329.229505053991
 30
0.0
 10
1113.929721585424
 20
-1323.695625704007
 30
0.0
 10
1095.390170971861
 20
-1295.996423847246
 30
0.0
 10
1104.700976685459
 20
-1270.02388602087
 30
0.0
 10
1116.832816407576
 20
-1236.18086459199
 30
0.0
 10
1163.687992678475
 20
-1227.243106563034
 30
0.0
 10
1195.456365777616
 20
-1243.093810752323
 30
0.0
 10
1246.147498006852
 20
-1268.385959922214
 30
0.0
 10
1201.90355875865
 20
-1342.477584735225
 30
0.0
 10
1139.850100474829
 20
-1329.229505053991
 30
0.0
  0
SPLINE
  5
46
330
1F
100
AcDbEntity
  8
Livello 1
370
     0
100
AcDbSpline
210
0.0
220
0.0
230
1.0
 70
    11
 71
     3
 72
    17
 73
    13
 74
     0
 42
0.0000000001
 43
0.0000000001
 12
1.0
 22
0.0
 32
0.0
 13
1.0
 23
0.0
 33
0.0
 40
0.0
 40
0.0
 40
0.0
 40
0.0
 40
1.0
 40
1.0
 40
1.0
 40
2.0
 40
2.0
 40
2.0
 40
3.0
 40
3.0
 40
3.0
 40
4.0
 40
4.0
 40
4.0
 40
4.0
 10
1194.902842364863
 20
-1419.45614380921
 30
0.0
 10
1193.858502387509
 20
-1419.188091387297
 30
0.0
 10
1193.058796533833
 20
-1418.375805456059
 30
0.0
 10
1192.293927818022
 20
-1417.616646160066
 30
0.0
 10
1168.938336434165
 20
-1394.427498879342
 30
0.0
 10
1147.650522722295
 20
-1406.393378347459
 30
0.0
 10
1155.774543272599
 20
-1389.706873158872
 30
0.0
 10
1160.194214829844
 20
-1380.638282323263
 30
0.0
 10
1194.161972566251
 20
-1334.514782717373
 30
0.0
 10
1206.155237895518
 20
-1348.435122389586
 30
0.0
 10
1220.530589296195
 20
-1365.120563110073
 30
0.0
 10
1202.653718460693
 20
-1421.446602389102
 30
0.0
 10
1194.902842364863
 20
-1419.45614380921
 30
0.0
  0
SPLINE
  5
47
330
1F
100
AcDbEntity
  8
Livello 1
370
     0
100
AcDbSpline
210
0.0
220
0.0
230
1.0
 70
    11
 71
     3
 72
    41
 73
    37
 74
     0
 42
0.0000000001
 43
0.0000000001
 12
1.0
 22
0.0
 32
0.0
 13
1.0
 23
0.0
 33
0.0
 40
0.0
 40
0.0
 40
0.0
 40
0.0
 40
1.0
 40
1.0
 40
1.0
 40
2.0
 40
2.0
 40
2.0
 40
3.0
 40
3.0
 40
3.0
 40
4.0
 40
4.0
 40
4.0
 40
5.0
 40
5.0
 40
5.0
 40
6.0
 40
6.0
 40
6.0
 40
7.0
 40
7.0
 40
7.0
 40
8.0
 40
8.0
 40
8.0
 40
9.0
 40
9.0
 40
9.0
 40
10.0
 40
10.0
 40
10.0
 40
11.0
 40
11.0
 40
11.0
 40
12.0
 40
12.0
 40
12.0
 40
12.0
 10
1600.302615709323
 20
-1066.406718154667
 30
0.0
 10
1588.411539317791
 20
-1173.874546749157
 30
0.0
 10
1548.835002384994
 20
-1271.67332772899
 30
0.0
 10
1489.508130758133
 20
-1353.527634556776
 30
0.0
 10
1505.095040397913
 20
-1317.775634742677
 30
0.0
 10
1512.218848012164
 20
-1279.230180320876
 30
0.0
 10
1506.951472766856
 20
-1242.10646820331
 30
0.0
 10
1635.180759452305
 20
-973.9744348031873
 30
0.0
 10
1531.372293795934
 20
-653.5898616445465
 30
0.0
 10
1274.239391823226
 20
-509.6438386556565
 30
0.0
 10
1007.129060862087
 20
-360.1168669147737
 30
0.0
 10
667.843667213383
 20
-452.5716367522145
 30
0.0
 10
513.8282813434125
 20
-718.4828999482888
 30
0.0
 10
311.5562148635436
 20
-1064.079263582791
 30
0.0
 10
532.3736778355214
 20
-1513.36334535947
 30
0.0
 10
938.2452611695117
 20
-1558.246526907988
 30
0.0
 10
1043.246151877878
 20
-1569.913561659374
 30
0.0
 10
1146.741598094506
 20
-1551.939899450113
 30
0.0
 10
1239.621340846659
 20
-1508.086951340689
 30
0.0
 10
1237.884903063701
 20
-1516.122330729091
 30
0.0
 10
1223.864116310642
 20
-1526.272324385953
 30
0.0
 10
1222.568174782033
 20
-1540.845183004358
 30
0.0
 10
1221.945238400956
 20
-1547.861387760697
 30
0.0
 10
1224.96317033069
 20
-1554.989671362926
 30
0.0
 10
1231.34481104836
 20
-1557.764322858027
 30
0.0
 10
1159.7095915342
 20
-1587.61297612111
 30
0.0
 10
1081.566794666704
 20
-1603.975495927545
 30
0.0
 10
1000.464389397854
 20
-1603.975495927545
 30
0.0
 10
639.1787946797558
 20
-1603.975495927545
 30
0.0
 10
360.3681661288592
 20
-1289.28325410248
 30
0.0
 10
399.7250424535887
 20
-933.5688406792287
 30
0.0
 10
433.8654375620845
 20
-625.0132139672478
 30
0.0
 10
696.02960901609
 20
-396.0008370649684
 30
0.0
 10
999.5617204478185
 20
-396.0008370649684
 30
0.0
 10
1360.852402024508
 20
-396.0008370649684
 30
0.0
 10
1639.659281489261
 20
-710.6933757132156
 30
0.0
 10
1600.302615709323
 20
-1066.406718154667
 30
0.0
  0
HATCH
  5
48
330
1F
100
AcDbEntity
  8
Livello 1
 62
     7
420
 16777215
100
AcDbHatch
 10
0.0
 20
0.0
 30
0.0
210
0.0
220
0.0
230
1.0
  2
SOLID
 70
     1
 71
     0
 91
        7
 92
        1
 93
        1
 72
     4
 94
        3
 73
     0
 74
     1
 95
       17
 96
       13
 40
0.0
 40
0.0
 40
0.0
 40
0.0
 40
1.0
 40
1.0
 40
1.0
 40
2.0
 40
2.0
 40
2.0
 40
3.0
 40
3.0
 40
3.0
 40
4.0
 40
4.0
 40
4.0
 40
4.0
 10
1071.49034607867
 20
-353.9996353367078
 10
714.7955178798438
 20
-314.5375346017099
 10
393.5216243968407
 20
-571.5298241579967
 10
354.0249108425942
 20
-928.5120365783514
 10
311.4055430478566
 20
-1313.721080947545
 10
612.7014449989547
 20
-1650.0
 10
1001.096102831154
 20
-1650.0
 10
1326.773900222031
 20
-1650.0
 10
1609.120165766653
 20
-1404.818487212782
 10
1646.002747320315
 20
-1071.463522255544
 10
1685.404205251489
 20
-715.3390947530552
 10
1429.086120938564
 20
-393.5670573161715
 10
1071.49034607867
 20
-353.9996353367078
 97
        0
 97
        0
 92
        1
 93
        1
 72
     4
 94
        3
 73
     0
 74
     1
 95
       11
 96
        7
 40
0.0
 40
0.0
 40
0.0
 40
0.0
 40
1.0
 40
1.0
 40
1.0
 40
2.0
 40
2.0
 40
2.0
 40
2.0
 10
1246.59883248187
 20
-1551.139073394568
 10
1307.435844159283
 20
-1473.420192806341
 10
1272.376198003467
 20
-1520.992518111276
 10
1345.173223628353
 20
-1495.233692555268
 10
1314.216942920793
 20
-1516.836395285516
 10
1281.221528410151
 20
-1535.580614084041
 10
1246.59883248187
 20
-1551.139073394568
 97
        0
 97
        0
 92
        1
 93
        1
 72
     4
 94
        3
 73
     0
 74
     1
 95
       14
 96
       10
 40
0.0
 40
0.0
 40
0.0
 40
0.0
 40
1.0
 40
1.0
 40
1.0
 40
2.0
 40
2.0
 40
2.0
 40
3.0
 40
3.0
 40
3.0
 40
3.0
 10
1247.992317996504
 20
-1392.801765778937
 10
1239.301613336911
 20
-1367.274078849145
 10
1243.508391273865
 20
-1334.642518889548
 10
1262.526371914118
 20
-1314.722546688048
 10
1296.706249112196
 20
-1278.921387801627
 10
1359.943395924838
 20
-1311.596300643901
 10
1365.381086066385
 20
-1356.371119165247
 10
1373.032869858956
 20
-1419.385211525721
 10
1269.550313066486
 20
-1456.124070039697
 10
1247.992317996504
 20
-1392.801765778937
 97
        0
 97
        0
 92
        1
 93
        1
 72
     4
 94
        3
 73
     0
 74
     1
 95
      371
 96
      367
 40
0.0
 40
0.0
 40
0.0
 40
0.0
 40
1.0
 40
1.0
 40
1.0
 40
2.0
 40
2.0
 40
2.0
 40
3.0
 40
3.0
 40
3.0
 40
4.0
 40
4.0
 40
4.0
 40
5.0
 40
5.0
 40
5.0
 40
6.0
 40
6.0
 40
6.0
 40
7.0
 40
7.0
 40
7.0
 40
8.0
 40
8.0
 40
8.0
 40
9.0
 40
9.0
 40
9.0
 40
10.0
 40
10.0
 40
10.0
 40
11.0
 40
11.0
 40
11.0
 40
12.0
 40
12.0
 40
12.0
 40
13.0
 40
13.0
 40
13.0
 40
14.0
 40
14.0
 40
14.0
 40
15.0
 40
15.0
 40
15.0
 40
16.0
 40
16.0
 40
16.0
 40
17.0
 40
17.0
 40
17.0
 40
18.0
 40
18.0
 40
18.0
 40
19.0
 40
19.0
 40
19.0
 40
20.0
 40
20.0
 40
20.0
 40
21.0
 40
21.0
 40
21.0
 40
22.0
 40
22.0
 40
22.0
 40
23.0
 40
23.0
 40
23.0
 40
24.0
 40
24.0
 40
24.0
 40
25.0
 40
25.0
 40
25.0
 40
26.0
 40
26.0
 40
26.0
 40
27.0
 40
27.0
 40
27.0
 40
28.0
 40
28.0
 40
28.0
 40
29.0
 40
29.0
 40
29.0
 40
30.0
 40
30.0
 40
30.0
 40
31.0
 40
31.0
 40
31.0
 40
32.0
 40
32.0
 40
32.0
 40
33.0
 40
33.0
 40
33.0
 40
34.0
 40
34.0
 40
34.0
 40
35.0
 40
35.0
 40
35.0
 40
36.0
 40
36.0
 40
36.0
 40
37.0
 40
37.0
 40
37.0
 40
38.0
 40
38.0
 40
38.0
 40
39.0
 40
39.0
 40
39.0
 40
40.0
 40
40.0
 40
40.0
 40
41.0
 40
41.0
 40
41.0
 40
42.0
 40
42.0
 40
42.0
 40
43.0
 40
43.0
 40
43.0
 40
44.0
 40
44.0
 40
44.0
 40
45.0
 40
45.0
 40
45.0
 40
46.0
 40
46.0
 40
46.0
 40
47.0
 40
47.0
 40
47.0
 40
48.0
 40
48.0
 40
48.0
 40
49.0
 40
49.0
 40
49.0
 40
50.0
 40
50.0
 40
50.0
 40
51.0
 40
51.0
 40
51.0
 40
52.0
 40
52.0
 40
52.0
 40
53.0
 40
53.0
 40
53.0
 40
54.0
 40
54.0
 40
54.0
 40
55.0
 40
55.0
 40
55.0
 40
56.0
 40
56.0
 40
56.0
 40
57.0
 40
57.0
 40
57.0
 40
58.0
 40
58.0
 40
58.0
 40
59.0
 40
59.0
 40
59.0
 40
60.0
 40
60.0
 40
60.0
 40
61.0
 40
61.0
 40
61.0
 40
62.0
 40
62.0
 40
62.0
 40
63.0
 40
63.0
 40
63.0
 40
64.0
 40
64.0
 40
64.0
 40
65.0
 40
65.0
 40
65.0
 40
66.0
 40
66.0
 40
66.0
 40
67.0
 40
67.0
 40
67.0
 40
68.0
 40
68.0
 40
68.0
 40
69.0
 40
69.0
 40
69.0
 40
70.0
 40
70.0
 40
70.0
 40
71.0
 40
71.0
 40
71.0
 40
72.0
 40
72.0
 40
72.0
 40
73.0
 40
73.0
 40
73.0
 40
74.0
 40
74.0
 40
74.0
 40
75.0
 40
75.0
 40
75.0
 40
76.0
 40
76.0
 40
76.0
 40
77.0
 40
77.0
 40
77.0
 40
78.0
 40
78.0
 40
78.0
 40
79.0
 40
79.0
 40
79.0
 40
80.0
 40
80.0
 40
80.0
 40
81.0
 40
81.0
 40
81.0
 40
82.0
 40
82.0
 40
82.0
 40
83.0
 40
83.0
 40
83.0
 40
84.0
 40
84.0
 40
84.0
 40
85.0
 40
85.0
 40
85.0
 40
86.0
 40
86.0
 40
86.0
 40
87.0
 40
87.0
 40
87.0
 40
88.0
 40
88.0
 40
88.0
 40
89.0
 40
89.0
 40
89.0
 40
90.0
 40
90.0
 40
90.0
 40
91.0
 40
91.0
 40
91.0
 40
92.0
 40
92.0
 40
92.0
 40
93.0
 40
93.0
 40
93.0
 40
94.0
 40
94.0
 40
94.0
 40
95.0
 40
95.0
 40
95.0
 40
96.0
 40
96.0
 40
96.0
 40
97.0
 40
97.0
 40
97.0
 40
98.0
 40
98.0
 40
98.0
 40
99.0
 40
99.0
 40
99.0
 40
100.0
 40
100.0
 40
100.0
 40
101.0
 40
101.0
 40
101.0
 40
102.0
 40
102.0
 40
102.0
 40
103.0
 40
103.0
 40
103.0
 40
104.0
 40
104.0
 40
104.0
 40
105.0
 40
105.0
 40
105.0
 40
106.0
 40
106.0
 40
106.0
 40
107.0
 40
107.0
 40
107.0
 40
108.0
 40
108.0
 40
108.0
 40
109.0
 40
109.0
 40
109.0
 40
110.0
 40
110.0
 40
110.0
 40
111.0
 40
111.0
 40
111.0
 40
112.0
 40
112.0
 40
112.0
 40
113.0
 40
113.0
 40
113.0
 40
114.0
 40
114.0
 40
114.0
 40
115.0
 40
115.0
 40
115.0
 40
116.0
 40
116.0
 40
116.0
 40
117.0
 40
117.0
 40
117.0
 40
118.0
 40
118.0
 40
118.0
 40
119.0
 40
119.0
 40
119.0
 40
120.0
 40
120.0
 40
120.0
 40
121.0
 40
121.0
 40
121.0
 40
122.0
 40
122.0
 40
122.0
 40
122.0
 10
1150.641871627036
 20
-1102.704403025504
 10
1087.526267717616
 20
-1157.396290229146
 10
1020.727217097847
 20
-1258.287254273879
 10
1066.253937178129
 20
-1342.220176994326
 10
1069.148516255469
 20
-1347.556645896402
 10
1072.34811382879
 20
-1352.806409033128
 10
1074.072939232459
 20
-1358.627307691195
 10
1081.297387467206
 20
-1383.012142959335
 10
1053.581734739786
 20
-1411.318381943409
 10
1043.309424021087
 20
-1431.392798789446
 10
1027.522781457541
 20
-1462.248729185989
 10
1055.822149783869
 20
-1467.265954427457
 10
1071.116427465582
 20
-1445.914079089845
 10
1078.206172100583
 20
-1436.016170833378
 10
1086.864362098164
 20
-1423.2471017978
 10
1098.815822861996
 20
-1425.568706727074
 10
1113.087437007691
 20
-1440.373329082116
 10
1076.986872275276
 20
-1460.031829209967
 10
1082.78299785753
 20
-1478.883849596225
 10
1084.257770027185
 20
-1483.680439631209
 10
1089.830163768473
 20
-1487.444979456919
 10
1094.395377146133
 20
-1485.359879985823
 10
1102.414112124228
 20
-1481.696271090095
 10
1113.397874614007
 20
-1448.542541141822
 10
1128.439002427227
 20
-1448.212459260541
 10
1132.782806439785
 20
-1448.11714098055
 10
1137.159899272967
 20
-1450.881467870202
 10
1138.559578056553
 20
-1454.994669384054
 10
1143.480904399066
 20
-1469.452952526812
 10
1114.340025653624
 20
-1488.001793043808
 10
1122.891381761752
 20
-1501.270097618968
 10
1124.403313545126
 20
-1503.615411155955
 10
1127.334278077567
 20
-1504.627526780785
 10
1130.108088410305
 20
-1504.930029261253
 10
1154.292029516757
 20
-1507.566716748559
 10
1154.434474702697
 20
-1464.176771227207
 10
1178.542548264455
 20
-1465.522742756584
 10
1187.203834896516
 20
-1466.006398353953
 10
1197.013972919529
 20
-1474.432727845075
 10
1196.08420841782
 20
-1483.660117967453
 10
1195.119606778249
 20
-1493.235008540045
 10
1183.977141771522
 20
-1499.554175039422
 10
1182.242252305807
 20
-1509.390053836523
 10
1095.389639390038
 20
-1540.611363330248
 10
916.5774576167314
 20
-1555.482629489718
 10
994.0218413685361
 20
-1533.49725646984
 10
1046.563038585771
 20
-1526.872442262809
 10
1090.696833746686
 20
-1518.801400646349
 10
1033.690503177027
 20
-1505.307431588135
 10
954.8284327832171
 20
-1486.663649349812
 10
953.5110136655821
 20
-1497.094495073316
 10
948.7087890671646
 20
-1486.202454873041
 10
955.2573968273173
 20
-1480.589901653375
 10
988.4409318824328
 20
-1470.6806713271
 10
1010.115050745302
 20
-1472.424657156591
 10
1014.221188061754
 20
-1472.741771880999
 10
1016.551405505666
 20
-1467.826832347097
 10
1013.793078345312
 20
-1464.782647116588
 10
975.8513892106439
 20
-1423.050990962751
 10
933.0959702112104
 20
-1456.155580678744
 10
889.5390716400088
 20
-1465.179016329641
 10
867.580062405259
 20
-1469.745197405575
 10
861.8094840574431
 20
-1455.602770979467
 10
846.4780467620076
 20
-1444.64716850946
 10
868.7536868720272
 20
-1439.193124267083
 10
891.964510594089
 20
-1436.117295303016
 10
914.6210367447748
 20
-1432.090122165728
 10
941.0436567972811
 20
-1427.409017960679
 10
932.9978991742464
 20
-1411.858749916762
 10
924.8159316015517
 20
-1414.031614364192
 10
881.6434278823781
 20
-1425.462840535894
 10
848.2694498069304
 20
-1394.21315371164
 10
805.1921675979229
 20
-1399.397597214864
 10
773.3870254125777
 20
-1403.222048848997
 10
705.1314110877356
 20
-1427.219559250098
 10
675.11958471041
 20
-1384.8746718274
 10
653.0218873694321
 20
-1353.683487443795
 10
680.8695580992262
 20
-1370.999741088244
 10
618.3118252305576
 20
-1328.510989085509
 10
576.5978363500326
 20
-1300.178428708381
 10
549.8506560552833
 20
-1242.451259098354
 10
577.1211675766408
 20
-1198.12129147359
 10
601.9492086542941
 20
-1157.786756482725
 10
614.5857997961539
 20
-1122.113527308131
 10
618.1368653826084
 20
-1073.708969330652
 10
621.0005733241924
 20
-1034.887240941109
 10
643.3202930045263
 20
-1017.982605093253
 10
661.9914028453331
 20
-1050.65617073674
 10
673.1532218175398
 20
-1070.141646413191
 10
696.9508577729848
 20
-1086.313529659641
 10
717.3243901555325
 20
-1076.895793286754
 10
742.3591315845242
 20
-1065.321831619629
 10
746.4497857285896
 20
-1022.94196955673
 10
773.8627424358892
 20
-1020.024746339779
 10
800.1500725108126
 20
-1017.250161848422
 10
813.5794020787725
 20
-1054.667376852509
 10
839.3271435960851
 20
-1060.660525803356
 10
858.859939718137
 20
-1065.210836627595
 10
879.3766914452426
 20
-1050.053681791318
 10
898.5920825334051
 20
-1055.777230003016
 10
929.2077334485002
 20
-1064.893721903189
 10
926.2272227644262
 20
-1112.140912744908
 10
988.5996343993775
 20
-1145.19806640543
 10
1005.578069869871
 20
-1154.227044655805
 10
1008.705907685691
 20
-1142.394643661595
 10
1003.218071606492
 20
-1139.109889484069
 10
928.1928332569914
 20
-1094.15631200278
 10
948.2992628187039
 20
-1063.995545097034
 10
936.501081800363
 20
-1020.928479757917
 10
929.7541698374407
 20
-996.3075251285009
 10
897.9729972552777
 20
-982.6676182176616
 10
898.1802301479693
 20
-970.2089939692505
 10
898.3775259375361
 20
-960.2629751930926
 10
918.9099713683554
 20
-961.6822323437173
 10
933.4253496061228
 20
-974.9020402889146
 10
948.5663438812226
 20
-988.7115785087481
 10
952.0384452885155
 20
-1013.349853954862
 10
970.5725767917465
 20
-1023.576199005545
 10
981.9093556119024
 20
-1029.838851925715
 10
996.7329448531145
 20
-1029.807111422328
 10
1005.802213077515
 20
-1039.01872806284
 10
1016.67836751922
 20
-1050.069455273184
 10
1013.649859000752
 20
-1068.048805355904
 10
1017.455622772939
 20
-1083.205960192183
 10
1018.5967325777
 20
-1087.724530513033
 10
1024.748196966184
 20
-1088.453884702185
 10
1027.000224389552
 20
-1084.363327327945
 10
1035.783828083453
 20
-1068.476915072342
 10
1029.917254066848
 20
-1045.535014700641
 10
1017.66154896566
 20
-1030.710844840462
 10
1003.249812109882
 20
-1013.238858962828
 10
972.2215346507292
 20
-1014.253587372998
 10
966.51443730969
 20
-986.1431137497639
 10
979.404178320041
 20
-974.3788058321334
 10
988.4726723858221
 20
-958.5240373100933
 10
992.2304383236133
 20
-941.496031400593
 10
993.5760008911548
 20
-935.3506326947954
 10
984.1726482847153
 20
-927.7098121850959
 10
975.7733743958033
 20
-944.0962366629665
 10
972.2377919817336
 20
-950.9455082768673
 10
969.7163573588678
 20
-959.031401515178
 10
963.153040584948
 20
-963.1060886377218
 10
950.1835612368159
 20
-971.1285976390809
 10
932.9972398896825
 20
-957.445924662974
 10
924.0866741822265
 20
-947.9965445565285
 10
904.9156063263763
 20
-927.6473864388627
 10
958.5779084044552
 20
-921.6959024261196
 10
960.8700468168081
 20
-908.6291272207473
 10
961.6147874085182
 20
-904.3483203658307
 10
959.3000531369908
 20
-904.2214551221023
 10
955.1304348137619
 20
-903.0007037493888
 10
946.6324956503613
 20
-900.5273637307419
 10
926.5446277983137
 20
-911.7049561848162
 10
918.6009862062892
 20
-912.7671985802426
 10
886.9696315946712
 20
-917.0044893480099
 10
868.0278721283339
 20
-852.2370328907073
 10
929.3029549586681
 20
-842.8000973508879
 10
936.643526986305
 20
-841.6744707185135
 10
983.7007586568234
 20
-844.5283096985149
 10
978.2622943566621
 20
-829.0381698861365
 10
948.7985265838051
 20
-823.8293401658466
 10
918.8257647865375
 20
-842.9005805384331
 10
904.8232852596702
 20
-777.4309177008581
 10
904.0305468335682
 20
-773.76847004306
 10
900.5584454262753
 20
-772.6427466408568
 10
898.8777470639052
 20
-777.1296732281462
 10
894.977535940172
 20
-787.4986570044239
 10
903.2532915798511
 20
-801.514314956632
 10
900.5739285986601
 20
-813.3102666078248
 10
897.4347153976414
 20
-827.230703049865
 10
880.7872084494993
 20
-834.1592291524103
 10
875.6824065142282
 20
-847.4772734188555
 10
867.887639235656
 20
-867.8921401008429
 10
874.5917976508026
 20
-880.570035728244
 10
867.785988597976
 20
-888.4935518437906
 10
861.5627637258222
 20
-895.7152924378861
 10
830.5124627210389
 20
-903.328287370281
 10
819.6193876260841
 20
-883.7847320422607
 10
808.7594905153837
 20
-864.3150298476758
 10
829.7508014760824
 20
-852.4873376930955
 10
837.646445233715
 20
-836.5850551858002
 10
845.383386474401
 20
-820.9997906330827
 10
836.5842996081155
 20
-801.0862052401917
 10
821.9976029043919
 20
-792.6514567740869
 10
815.9576173570786
 20
-789.1634851150975
 10
808.1564209509943
 20
-786.2302948766264
 10
817.2891701821718
 20
-803.7974054945989
 10
825.5331853184616
 20
-819.6521740166409
 10
820.1907166870842
 20
-832.1139988502055
 10
809.2983049143731
 20
-846.6845349927553
 10
795.0607537479245
 20
-865.7419977225909
 10
766.6646155941926
 20
-865.7261274708981
 10
753.2678006882397
 20
-862.8246777358127
 10
745.2451949170518
 20
-861.0965621580126
 10
740.5042475328246
 20
-871.433805430901
 10
747.0048574585853
 20
-876.4439664749698
 10
773.133485016564
 20
-896.6429260888781
 10
810.0910433404752
 20
-900.3528877319313
 10
840.5325085662425
 20
-915.0978998732917
 10
854.2304711750785
 20
-921.7410517548196
 10
868.3573176589762
 20
-937.8494539944895
 10
859.5257161306836
 20
-950.2637648427972
 10
857.3379438727097
 20
-953.3395938068679
 10
854.0090618099766
 20
-955.5116893528011
 10
852.1534035996592
 20
-958.8094115311105
 10
846.7311966304987
 20
-968.5126188948398
 10
857.1954986867695
 20
-979.5474758534929
 10
867.2634315299911
 20
-984.3039064101031
 10
904.9615234567555
 20
-1002.115438625799
 10
890.9764636288692
 20
-1018.753730365806
 10
882.5631283220355
 20
-1023.179829792492
 10
854.2149880026936
 20
-1038.130864896397
 10
826.4691430891235
 20
-994.8314959334966
 10
810.9790032767451
 20
-979.9121045631546
 10
797.8825619150575
 20
-967.2917707522993
 10
778.6029156614968
 20
-957.6996551504308
 10
761.7974803550296
 20
-964.6440515046706
 10
738.5386587985722
 20
-974.252037358232
 10
730.8009433992665
 20
-1013.524233183847
 10
678.9083169929709
 20
-984.4149014021368
 10
662.34054838261
 20
-975.124030272982
 10
646.390558350402
 20
-962.8840986536543
 10
626.6510618770135
 20
-963.439073613823
 10
609.2425570061569
 20
-963.9464378189059
 10
593.6254551802231
 20
-973.6811921463704
 10
585.5238852298753
 20
-989.0920774701044
 10
538.9242740156951
 20
-1077.591099828529
 10
472.5377426359064
 20
-1042.618443869367
 10
485.3694363415216
 20
-992.2630311745143
 10
492.6310441899932
 20
-963.8037023234847
 10
529.0490139562953
 20
-927.0364902500787
 10
549.5015105180046
 20
-836.3471949500381
 10
560.428430492193
 20
-787.7241710843537
 10
605.7279917120868
 20
-802.0595398490223
 10
616.4406838478535
 20
-845.0039334002122
 10
618.390789409721
 20
-852.7728086839415
 10
622.4659603814016
 20
-875.5561033085269
 10
628.4424649219363
 20
-870.244697791748
 10
638.272731069048
 20
-861.5404453563206
 10
632.2482286941213
 20
-834.3812191364777
 10
645.2331912146383
 20
-832.7006175439346
 10
656.9175672548317
 20
-831.1785249286804
 10
707.0505311195939
 20
-833.6360914654597
 10
706.9870501128171
 20
-818.9069495757922
 10
706.9715669404322
 20
-813.3261368595176
 10
689.3571358768568
 20
-814.5786287356204
 10
683.9031884043088
 20
-815.7677363747734
 10
635.171287336354
 20
-826.4582838937313
 10
643.2423169781996
 20
-798.5953171521869
 10
670.4266351605747
 20
-781.1251058620455
 10
682.6815661031487
 20
-773.229365334586
 10
697.7915940334806
 20
-769.5511441949202
 10
707.9230078834771
 20
-758.5320607181366
 10
712.5997001023079
 20
-753.4426451854251
 10
711.5058139733228
 20
-747.00561303627
 10
703.5149487055241
 20
-748.8923343611859
 10
691.3707224455011
 20
-751.7461733411856
 10
679.6220912399112
 20
-757.0575788579663
 10
668.9990866666958
 20
-763.5262547406837
 10
660.5174048342997
 20
-768.6949247620414
 10
654.2064637702533
 20
-776.4161892906886
 10
646.3743010193994
 20
-782.393467989843
 10
627.5159647344517
 20
-796.7726213219339
 10
617.1043508851326
 20
-784.7472840175105
 10
611.2089198990288
 20
-780.0311229632316
 10
589.8473678750615
 20
-762.9190300163154
 10
556.4347103536293
 20
-766.5473989029251
 10
550.3739872818896
 20
-743.3907761335522
 10
547.2192909084843
 20
-731.309450261344
 10
553.6084219930744
 20
-718.720760184051
 10
564.928943482224
 20
-713.4569654223542
 10
584.8108851415545
 20
-704.1659975233688
 10
586.3011404835925
 20
-706.2747088323522
 10
696.5707458909383
 20
-715.3119462438826
 10
717.4513521690878
 20
-717.0242883398132
 10
723.0485189861938
 20
-706.227194847097
 10
735.2724835839981
 20
-700.0437964155699
 10
768.4405354667288
 20
-683.2694242236976
 10
833.2391602143798
 20
-728.4713847632102
 10
882.8325355215311
 20
-720.8611152265948
 10
892.4723586483105
 20
-719.3866333664264
 10
884.1803456776288
 20
-711.8397480667627
 10
875.6824065142282
 20
-707.067447258456
 10
874.08911828274
 20
-706.1717230328377
 10
742.674602024752
 20
-666.3896161301182
 10
812.4530012877767
 20
-648.7853026882603
 10
840.9598441240632
 20
-641.61901311978
 10
872.4797123064309
 20
-634.7538712541827
 10
898.5765993610203
 20
-648.2462947496115
 10
911.7040070674775
 20
-655.0162151050426
 10
925.0698556286607
 20
-666.9866427550442
 10
939.0852232713878
 20
-662.3253369387712
 10
948.3449345161207
 20
-659.2495079747023
 10
954.1155128639384
 20
-650.1330160745292
 10
968.6859522366594
 20
-663.1339456165679
 10
996.6694638463377
 20
-688.1209795206505
 10
1005.675251063958
 20
-727.2981473757518
 10
1019.738616541081
 20
-762.0676431322081
 10
1022.973051252264
 20
-770.0742818818726
 10
1034.673684623462
 20
-766.6020837047527
 10
1033.531800660081
 20
-758.3418112374602
 10
1028.221072532097
 20
-720.100117303884
 10
1012.889635236659
 20
-683.2694242236976
 10
989.3606323220902
 20
-652.6697403301241
 10
951.5313713929136
 20
-603.4248331714571
 10
932.9654993862932
 20
-641.967771577747
 10
917.3011738845853
 20
-627.8094748999429
 10
906.2972832707037
 20
-617.8685040702785
 10
917.5705810840809
 20
-591.1373875668778
 10
925.196817642216
 20
-554.6872902178784
 10
926.448632129528
 20
-548.7100115187241
 10
918.2518406690124
 20
-543.9219372285479
 10
915.0808869646044
 20
-548.5515025414334
 10
899.2178352778483
 20
-571.6583290611197
 10
906.1028725226915
 20
-608.8518342995485
 10
869.5781658015185
 20
-615.6171540357009
 10
857.8612750993161
 20
-617.8051198333305
 10
845.7642725150672
 20
-617.8843743219732
 10
833.888679295922
 20
-617.3136258799404
 10
806.882391051693
 20
-616.0090768408882
 10
801.8601339880279
 20
-597.593138622793
 10
818.92187071015
 20
-579.389046670769
 10
867.9571568370702
 20
-526.7560421361195
 10
841.7874477569585
 20
-517.09453900478
 10
826.500883592511
 20
-537.611673553296
 10
818.8746470343758
 20
-547.9014028409274
 10
814.1654401535379
 20
-558.9680970727932
 10
805.3980937906399
 20
-569.9078292911054
 10
799.1668910643766
 20
-577.6925748265312
 10
796.1391567045266
 20
-591.5813675350109
 10
786.6890024394615
 20
-581.5294017133128
 10
783.7882300931687
 20
-578.4694430009404
 10
767.9172042401224
 20
-557.3508797172017
 10
737.349551159421
 20
-547.2037891551645
 10
726.5841014002654
 20
-543.6206927558378
 10
718.6567171392453
 20
-551.3736010180473
 10
727.3768398263674
 20
-558.6351120966938
 10
740.3618023468844
 20
-569.4322055894099
 10
758.4360836302876
 20
-575.964362478906
 10
770.2791621874258
 20
-587.6493191380614
 10
787.6404433825082
 20
-604.7724497879026
 10
778.9365780263888
 20
-635.2928791928298
 10
762.3997757607976
 20
-653.1929747869035
 10
733.4493400356878
 20
-684.5695268548843
 10
702.6432461002605
 20
-668.334259371486
 10
701.1212502548333
 20
-632.3915262275732
 10
700.7721047175546
 20
-623.8616530211275
 10
701.8659908465415
 20
-615.3635203180729
 10
702.7539507828114
 20
-606.8495173633237
 10
703.3562461885795
 20
-601.0624881448475
 10
694.8745643561833
 20
-599.6196500182359
 10
693.5902352068624
 20
-605.2956842446802
 10
687.4542539907652
 20
-632.2329204804537
 10
697.1730412967081
 20
-675.2627854740331
 10
629.1090154931026
 20
-661.0093640558898
 10
610.7874000040501
 20
-657.1699320522657
 10
596.9483863126588
 20
-649.124707947025
 10
603.7096453544473
 20
-631.4719225577428
 10
829.9998792608258
 20
-389.1277772582089
 10
1216.400128511128
 20
-404.5940703643555
 10
1422.354515490752
 20
-661.8021024819936
 10
1552.203212204384
 20
-823.9421710693405
 10
1572.329608704538
 20
-1034.919018237162
 10
1498.87545005094
 20
-1209.555420740115
 10
1456.894607663338
 20
-1093.455685553927
 10
1250.803494061231
 20
-1015.910926993722
 10
1150.641871627036
 20
-1102.704403025504
 97
        0
 97
        0
 92
        1
 93
        1
 72
     4
 94
        3
 73
     0
 74
     1
 95
       14
 96
       10
 40
0.0
 40
0.0
 40
0.0
 40
0.0
 40
1.0
 40
1.0
 40
1.0
 40
2.0
 40
2.0
 40
2.0
 40
3.0
 40
3.0
 40
3.0
 40
3.0
 10
1139.850100474829
 20
-1329.229505053991
 10
1113.929721585424
 20
-1323.695625704007
 10
1095.390170971861
 20
-1295.996423847246
 10
1104.700976685459
 20
-1270.02388602087
 10
1116.832816407576
 20
-1236.18086459199
 10
1163.687992678475
 20
-1227.243106563034
 10
1195.456365777616
 20
-1243.093810752323
 10
1246.147498006852
 20
-1268.385959922214
 10
1201.90355875865
 20
-1342.477584735225
 10
1139.850100474829
 20
-1329.229505053991
 97
        0
 97
        0
 92
        1
 93
        1
 72
     4
 94
        3
 73
     0
 74
     1
 95
       17
 96
       13
 40
0.0
 40
0.0
 40
0.0
 40
0.0
 40
1.0
 40
1.0
 40
1.0
 40
2.0
 40
2.0
 40
2.0
 40
3.0
 40
3.0
 40
3.0
 40
4.0
 40
4.0
 40
4.0
 40
4.0
 10
1194.902842364863
 20
-1419.45614380921
 10
1193.858502387509
 20
-1419.188091387297
 10
1193.058796533833
 20
-1418.375805456059
 10
1192.293927818022
 20
-1417.616646160066
 10
1168.938336434165
 20
-1394.427498879342
 10
1147.650522722295
 20
-1406.393378347459
 10
1155.774543272599
 20
-1389.706873158872
 10
1160.194214829844
 20
-1380.638282323263
 10
1194.161972566251
 20
-1334.514782717373
 10
1206.155237895518
 20
-1348.435122389586
 10
1220.530589296195
 20
-1365.120563110073
 10
1202.653718460693
 20
-1421.446602389102
 10
1194.902842364863
 20
-1419.45614380921
 97
        0
 97
        0
 92
        1
 93
        1
 72
     4
 94
        3
 73
     0
 74
     1
 95
       41
 96
       37
 40
0.0
 40
0.0
 40
0.0
 40
0.0
 40
1.0
 40
1.0
 40
1.0
 40
2.0
 40
2.0
 40
2.0
 40
3.0
 40
3.0
 40
3.0
 40
4.0
 40
4.0
 40
4.0
 40
5.0
 40
5.0
 40
5.0
 40
6.0
 40
6.0
 40
6.0
 40
7.0
 40
7.0
 40
7.0
 40
8.0
 40
8.0
 40
8.0
 40
9.0
 40
9.0
 40
9.0
 40
10.0
 40
10.0
 40
10.0
 40
11.0
 40
11.0
 40
11.0
 40
12.0
 40
12.0
 40
12.0
 40
12.0
 10
1600.302615709323
 20
-1066.406718154667
 10
1588.411539317791
 20
-1173.874546749157
 10
1548.835002384994
 20
-1271.67332772899
 10
1489.508130758133
 20
-1353.527634556776
 10
1505.095040397913
 20
-1317.775634742677
 10
1512.218848012164
 20
-1279.230180320876
 10
1506.951472766856
 20
-1242.10646820331
 10
1635.180759452305
 20
-973.9744348031873
 10
1531.372293795934
 20
-653.5898616445465
 10
1274.239391823226
 20
-509.6438386556565
 10
1007.129060862087
 20
-360.1168669147737
 10
667.843667213383
 20
-452.5716367522145
 10
513.8282813434125
 20
-718.4828999482888
 10
311.5562148635436
 20
-1064.079263582791
 10
532.3736778355214
 20
-1513.36334535947
 10
938.2452611695117
 20
-1558.246526907988
 10
1043.246151877878
 20
-1569.913561659374
 10
1146.741598094506
 20
-1551.939899450113
 10
1239.621340846659
 20
-1508.086951340689
 10
1237.884903063701
 20
-1516.122330729091
 10
1223.864116310642
 20
-1526.272324385953
 10
1222.568174782033
 20
-1540.845183004358
 10
1221.945238400956
 20
-1547.861387760697
 10
1224.96317033069
 20
-1554.989671362926
 10
1231.34481104836
 20
-1557.764322858027
 10
1159.7095915342
 20
-1587.61297612111
 10
1081.566794666704
 20
-1603.975495927545
 10
1000.464389397854
 20
-1603.975495927545
 10
639.1787946797558
 20
-1603.975495927545
 10
360.3681661288592
 20
-1289.28325410248
 10
399.7250424535887
 20
-933.5688406792287
 10
433.8654375620845
 20
-625.0132139672478
 10
696.02960901609
 20
-396.0008370649684
 10
999.5617204478185
 20
-396.0008370649684
 10
1360.852402024508
 20
-396.0008370649684
 10
1639.659281489261
 20
-710.6933757132156
 10
1600.302615709323
 20
-1066.406718154667
 97
        0
 97
        0
 75
     2
 76
     1
 98
        0
  0
ENDSEC
  0
SECTION
  2
OBJECTS
  0
DICTIONARY
  5
C
330
0
100
AcDbDictionary
281
     1
  3
ACAD_GROUP
350
D
  3
ACAD_LAYOUT
350
1A
  3
ACAD_MATERIAL
350
3B
  3
ACAD_MLEADERSTYLE
350
4A
  3
ACAD_MLINESTYLE
350
17
  3
ACAD_PLOTSETTINGS
350
19
  3
ACAD_PLOTSTYLENAME
350
E
  3
ACAD_TABLESTYLE
350
49
  3
ACAD_VISUALSTYLE
350
2A
  0
SUN
  5
3F
330
29
100
AcDbSun
 90
        1
290
     0
 63
     7
421
 16777215
 40
1.0
291
     1
 91
  2455826
 92
 54000000
292
     0
 70
     2
 71
   256
280
     1
  0
DICTIONARY
  5
D
102
{ACAD_REACTORS
330
C
102
}
330
C
100
AcDbDictionary
281
     1
  0
DICTIONARY
  5
1A
102
{ACAD_REACTORS
330
C
102
}
330
C
100
AcDbDictionary
281
     1
  3
Layout1
350
1E
  3
Layout2
350
26
  3
Model
350
22
  0
DICTIONARY
  5
3B
102
{ACAD_REACTORS
330
C
102
}
330
C
100
AcDbDictionary
281
     1
  3
ByBlock
350
3D
  3
ByLayer
350
3C
  3
Global
350
3E
  0
DICTIONARY
  5
4A
102
{ACAD_REACTORS
330
C
102
}
330
C
100
AcDbDictionary
281
     1
  0
DICTIONARY
  5
17
102
{ACAD_REACTORS
330
C
102
}
330
C
100
AcDbDictionary
281
     1
  3
Standard
350
18
  0
DICTIONARY
  5
19
102
{ACAD_REACTORS
330
C
102
}
330
C
100
AcDbDictionary
281
     1
  0
ACDBDICTIONARYWDFLT
  5
E
102
{ACAD_REACTORS
330
C
102
}
330
C
100
AcDbDictionary
281
     1
  3
Normal
350
F
100
AcDbDictionaryWithDefault
340
F
  0
DICTIONARY
  5
49
102
{ACAD_REACTORS
330
C
102
}
330
C
100
AcDbDictionary
281
     1
  0
DICTIONARY
  5
2A
102
{ACAD_REACTORS
330
C
102
}
330
C
100
AcDbDictionary
281
     1
  3
2dWireframe
350
2F
  3
3D Hidden
350
31
  3
3dWireframe
350
30
  3
Basic
350
32
  3
Brighten
350
36
  3
ColorChange
350
3A
  3
Conceptual
350
34
  3
Dim
350
35
  3
Facepattern
350
39
  3
Flat
350
2B
  3
FlatWithEdges
350
2C
  3
Gouraud
350
2D
  3
GouraudWithEdges
350
2E
  3
Linepattern
350
38
  3
Realistic
350
33
  3
Thicken
350
37
  0
LAYOUT
  5
1E
102
{ACAD_REACTORS
330
1A
102
}
330
1A
100
AcDbPlotSettings
  1

  2
none_device
  4

  6

 40
0.0
 41
0.0
 42
0.0
 43
0.0
 44
0.0
 45
0.0
 46
0.0
 47
0.0
 48
0.0
 49
0.0
140
0.0
141
0.0
142
1.0
143
1.0
 70
   688
 72
     0
 73
     0
 74
     5
  7

 75
    16
 76
     0
 77
     2
 78
   300
147
1.0
148
0.0
149
0.0
100
AcDbLayout
  1
Layout1
 70
     1
 71
     1
 10
0.0
 20
0.0
 11
12.0
 21
9.0
 12
0.0
 22
0.0
 32
0.0
 14
1.000000000000000E+20
 24
1.000000000000000E+20
 34
1.000000000000000E+20
 15
-1.000000000000000E+20
 25
-1.000000000000000E+20
 35
-1.000000000000000E+20
146
0.0
 13
0.0
 23
0.0
 33
0.0
 16
1.0
 26
0.0
 36
0.0
 17
0.0
 27
1.0
 37
0.0
 76
     0
330
1B
  0
LAYOUT
  5
26
102
{ACAD_REACTORS
330
1A
102
}
330
1A
100
AcDbPlotSettings
  1

  2
none_device
  4

  6

 40
0.0
 41
0.0
 42
0.0
 43
0.0
 44
0.0
 45
0.0
 46
0.0
 47
0.0
 48
0.0
 49
0.0
140
0.0
141
0.0
142
1.0
143
1.0
 70
   688
 72
     0
 73
     0
 74
     5
  7

 75
    16
 76
     0
 77
     2
 78
   300
147
1.0
148
0.0
149
0.0
100
AcDbLayout
  1
Layout2
 70
     1
 71
     2
 10
0.0
 20
0.0
 11
0.0
 21
0.0
 12
0.0
 22
0.0
 32
0.0
 14
0.0
 24
0.0
 34
0.0
 15
0.0
 25
0.0
 35
0.0
146
0.0
 13
0.0
 23
0.0
 33
0.0
 16
1.0
 26
0.0
 36
0.0
 17
0.0
 27
1.0
 37
0.0
 76
     0
330
23
  0
LAYOUT
  5
22
102
{ACAD_REACTORS
330
1A
102
}
330
1A
100
AcDbPlotSettings
  1

  2
none_device
  4

  6

 40
0.0
 41
0.0
 42
0.0
 43
0.0
 44
0.0
 45
0.0
 46
0.0
 47
0.0
 48
0.0
 49
0.0
140
0.0
141
0.0
142
1.0
143
1.0
 70
  1712
 72
     0
 73
     0
 74
     0
  7

 75
     0
 76
     0
 77
     2
 78
   300
147
1.0
148
0.0
149
0.0
100
AcDbLayout
  1
Model
 70
     1
 71
     0
 10
0.0
 20
0.0
 11
12.0
 21
9.0
 12
0.0
 22
0.0
 32
0.0
 14
1.000000000000000E+20
 24
1.000000000000000E+20
 34
1.000000000000000E+20
 15
-1.000000000000000E+20
 25
-1.000000000000000E+20
 35
-1.000000000000000E+20
146
0.0
 13
0.0
 23
0.0
 33
0.0
 16
1.0
 26
0.0
 36
0.0
 17
0.0
 27
1.0
 37
0.0
 76
     0
330
1F
331
29
  0
MATERIAL
  5
3D
102
{ACAD_REACTORS
330
3B
102
}
330
3B
100
AcDbMaterial
  1
ByBlock
 72
     1
 94
      127
  0
MATERIAL
  5
3C
102
{ACAD_REACTORS
330
3B
102
}
330
3B
100
AcDbMaterial
  1
ByLayer
 72
     1
 94
      127
  0
MATERIAL
  5
3E
102
{ACAD_REACTORS
330
3B
102
}
330
3B
100
AcDbMaterial
  1
Global
 72
     1
 94
      127
  0
MLINESTYLE
  5
18
102
{ACAD_REACTORS
330
17
102
}
330
17
100
AcDbMlineStyle
  2
Standard
 70
     0
  3

 62
   256
 51
90.0
 52
90.0
 71
     2
 49
0.5
 62
   256
  6
BYLAYER
 49
-0.5
 62
   256
  6
BYLAYER
  0
ACDBPLACEHOLDER
  5
F
102
{ACAD_REACTORS
330
E
102
}
330
E
  0
VISUALSTYLE
  5
2F
102
{ACAD_REACTORS
330
2A
102
}
330
2A
100
AcDbVisualStyle
  2
2dWireframe
 70
     4
177
     2
291
     0
 71
     0
176
     1
 72
     2
176
     1
 73
     0
176
     1
 90
        0
176
     1
 40
-0.6
176
     1
 41
-30.0
176
     1
 62
     5
 63
     7
421
 16777215
176
     1
 74
     1
176
     1
 91
        4
176
     1
 64
     7
176
     1
 65
   257
176
     1
 75
     1
176
     1
175
     1
176
     1
 42
1.0
176
     1
 92
        0
176
     1
 66
   257
176
     1
 43
1.0
176
     1
 76
     1
176
     1
 77
     6
176
     1
 78
     2
176
     1
 67
     7
176
     1
 79
     5
176
     1
170
     0
176
     1
171
     0
176
     1
290
     0
176
     1
 93
        1
176
     1
 44
0.0
176
     1
173
     0
176
     1
  0
VISUALSTYLE
  5
31
102
{ACAD_REACTORS
330
2A
102
}
330
2A
100
AcDbVisualStyle
  2
3D Hidden
 70
     6
177
     2
291
     0
 71
     1
176
     1
 72
     2
176
     1
 73
     2
176
     1
 90
        0
176
     1
 40
-0.6
176
     1
 41
-30.0
176
     1
 62
     5
 63
     7
421
 16777215
176
     1
 74
     2
176
     1
 91
        2
176
     1
 64
     7
176
     1
 65
   257
176
     1
 75
     2
176
     1
175
     1
176
     1
 42
40.0
176
     1
 92
        0
176
     1
 66
   257
176
     1
 43
1.0
176
     1
 76
     1
176
     1
 77
     6
176
     1
 78
     2
176
     1
 67
     7
176
     1
 79
     3
176
     1
170
     0
176
     1
171
     0
176
     1
290
     0
176
     1
 93
        1
176
     1
 44
0.0
176
     1
173
     0
176
     1
  0
VISUALSTYLE
  5
30
102
{ACAD_REACTORS
330
2A
102
}
330
2A
100
AcDbVisualStyle
  2
3dWireframe
 70
     5
177
     2
291
     0
 71
     0
176
     1
 72
     2
176
     1
 73
     0
176
     1
 90
        0
176
     1
 40
-0.6
176
     1
 41
-30.0
176
     1
 62
     5
 63
     7
421
 16777215
176
     1
 74
     1
176
     1
 91
        4
176
     1
 64
     7
176
     1
 65
   257
176
     1
 75
     1
176
     1
175
     1
176
     1
 42
1.0
176
     1
 92
        0
176
     1
 66
   257
176
     1
 43
1.0
176
     1
 76
     1
176
     1
 77
     6
176
     1
 78
     2
176
     1
 67
     7
176
     1
 79
     5
176
     1
170
     0
176
     1
171
     0
176
     1
290
     0
176
     1
 93
        1
176
     1
 44
0.0
176
     1
173
     0
176
     1
  0
VISUALSTYLE
  5
32
102
{ACAD_REACTORS
330
2A
102
}
330
2A
100
AcDbVisualStyle
  2
Basic
 70
     7
177
     2
291
     1
 71
     1
176
     1
 72
     0
176
     1
 73
     1
176
     1
 90
        0
176
     1
 40
-0.6
176
     1
 41
-30.0
176
     1
 62
     5
 63
     7
421
 16777215
176
     1
 74
     0
176
     1
 91
        4
176
     1
 64
     7
176
     1
 65
   257
176
     1
 75
     1
176
     1
175
     1
176
     1
 42
1.0
176
     1
 92
        8
176
     1
 66
     7
176
     1
 43
1.0
176
     1
 76
     1
176
     1
 77
     6
176
     1
 78
     2
176
     1
 67
     7
176
     1
 79
     5
176
     1
170
     0
176
     1
171
     0
176
     1
290
     0
176
     1
 93
        1
176
     1
 44
0.0
176
     1
173
     0
176
     1
  0
VISUALSTYLE
  5
36
102
{ACAD_REACTORS
330
2A
102
}
330
2A
100
AcDbVisualStyle
  2
Brighten
 70
    12
177
     2
291
     1
 71
     2
176
     1
 72
     2
176
     1
 73
     0
176
     1
 90
        0
176
     1
 40
-0.6
176
     1
 41
-30.0
176
     1
 62
     5
 63
     7
421
 16777215
176
     1
 74
     1
176
     1
 91
        4
176
     1
 64
     7
176
     1
 65
   257
176
     1
 75
     1
176
     1
175
     1
176
     1
 42
1.0
176
     1
 92
        8
176
     1
 66
     7
176
     1
 43
1.0
176
     1
 76
     1
176
     1
 77
     6
176
     1
 78
     2
176
     1
 67
     7
176
     1
 79
     5
176
     1
170
     0
176
     1
171
     0
176
     1
290
     0
176
     1
 93
        1
176
     1
 44
50.0
176
     1
173
     0
176
     1
  0
VISUALSTYLE
  5
3A
102
{ACAD_REACTORS
330
2A
102
}
330
2A
100
AcDbVisualStyle
  2
ColorChange
 70
    16
177
     2
291
     1
 71
     2
176
     1
 72
     2
176
     1
 73
     3
176
     1
 90
        0
176
     1
 40
-0.6
176
     1
 41
-30.0
176
     1
 62
     5
 63
     8
421
  8421504
176
     1
 74
     1
176
     1
 91
        4
176
     1
 64
     7
176
     1
 65
   257
176
     1
 75
     1
176
     1
175
     1
176
     1
 42
1.0
176
     1
 92
        8
176
     1
 66
     8
424
  8421504
176
     1
 43
1.0
176
     1
 76
     1
176
     1
 77
     6
176
     1
 78
     2
176
     1
 67
     7
176
     1
 79
     5
176
     1
170
     0
176
     1
171
     0
176
     1
290
     0
176
     1
 93
        1
176
     1
 44
0.0
176
     1
173
     0
176
     1
  0
VISUALSTYLE
  5
34
102
{ACAD_REACTORS
330
2A
102
}
330
2A
100
AcDbVisualStyle
  2
Conceptual
 70
     9
177
     2
291
     0
 71
     3
176
     1
 72
     2
176
     1
 73
     0
176
     1
 90
        0
176
     1
 40
-0.6
176
     1
 41
-30.0
176
     1
 62
     5
 63
     7
421
 16777215
176
     1
 74
     2
176
     1
 91
        2
176
     1
 64
     7
176
     1
 65
   257
176
     1
 75
     1
176
     1
175
     1
176
     1
 42
40.0
176
     1
 92
        8
176
     1
 66
     7
176
     1
 43
1.0
176
     1
 76
     1
176
     1
 77
     6
176
     1
 78
     2
176
     1
 67
     7
176
     1
 79
     3
176
     1
170
     0
176
     1
171
     0
176
     1
290
     0
176
     1
 93
        1
176
     1
 44
0.0
176
     1
173
     0
176
     1
  0
VISUALSTYLE
  5
35
102
{ACAD_REACTORS
330
2A
102
}
330
2A
100
AcDbVisualStyle
  2
Dim
 70
    11
177
     2
291
     1
 71
     2
176
     1
 72
     2
176
     1
 73
     0
176
     1
 90
        0
176
     1
 40
-0.6
176
     1
 41
-30.0
176
     1
 62
     5
 63
     7
421
 16777215
176
     1
 74
     1
176
     1
 91
        4
176
     1
 64
     7
176
     1
 65
   257
176
     1
 75
     1
176
     1
175
     1
176
     1
 42
1.0
176
     1
 92
        8
176
     1
 66
     7
176
     1
 43
1.0
176
     1
 76
     1
176
     1
 77
     6
176
     1
 78
     2
176
     1
 67
     7
176
     1
 79
     5
176
     1
170
     0
176
     1
171
     0
176
     1
290
     0
176
     1
 93
        1
176
     1
 44
-50.0
176
     1
173
     0
176
     1
  0
VISUALSTYLE
  5
39
102
{ACAD_REACTORS
330
2A
102
}
330
2A
100
AcDbVisualStyle
  2
Facepattern
 70
    15
177
     2
291
     1
 71
     2
176
     1
 72
     2
176
     1
 73
     0
176
     1
 90
        0
176
     1
 40
-0.6
176
     1
 41
-30.0
176
     1
 62
     5
 63
     7
421
 16777215
176
     1
 74
     1
176
     1
 91
        4
176
     1
 64
     7
176
     1
 65
   257
176
     1
 75
     1
176
     1
175
     1
176
     1
 42
1.0
176
     1
 92
        8
176
     1
 66
     7
176
     1
 43
1.0
176
     1
 76
     1
176
     1
 77
     6
176
     1
 78
     2
176
     1
 67
     7
176
     1
 79
     5
176
     1
170
     0
176
     1
171
     0
176
     1
290
     0
176
     1
 93
        1
176
     1
 44
0.0
176
     1
173
     0
176
     1
  0
VISUALSTYLE
  5
2B
102
{ACAD_REACTORS
330
2A
102
}
330
2A
100
AcDbVisualStyle
  2
Flat
 70
     0
177
     2
291
     1
 71
     2
176
     1
 72
     1
176
     1
 73
     1
176
     1
 90
        2
176
     1
 40
-0.6
176
     1
 41
30.0
176
     1
 62
     5
 63
     7
421
 16777215
176
     1
 74
     0
176
     1
 91
        4
176
     1
 64
     7
176
     1
 65
   257
176
     1
 75
     1
176
     1
175
     1
176
     1
 42
1.0
176
     1
 92
        8
176
     1
 66
     7
176
     1
 43
1.0
176
     1
 76
     1
176
     1
 77
     6
176
     1
 78
     2
176
     1
 67
     7
176
     1
 79
     5
176
     1
170
     0
176
     1
171
     0
176
     1
290
     0
176
     1
 93
       13
176
     1
 44
0.0
176
     1
173
     0
176
     1
  0
VISUALSTYLE
  5
2C
102
{ACAD_REACTORS
330
2A
102
}
330
2A
100
AcDbVisualStyle
  2
FlatWithEdges
 70
     1
177
     2
291
     1
 71
     2
176
     1
 72
     1
176
     1
 73
     1
176
     1
 90
        2
176
     1
 40
-0.6
176
     1
 41
30.0
176
     1
 62
     5
 63
     7
421
 16777215
176
     1
 74
     1
176
     1
 91
        4
176
     1
 64
     7
176
     1
 65
   257
176
     1
 75
     1
176
     1
175
     1
176
     1
 42
1.0
176
     1
 92
        0
176
     1
 66
   257
176
     1
 43
1.0
176
     1
 76
     1
176
     1
 77
     6
176
     1
 78
     2
176
     1
 67
     7
176
     1
 79
     5
176
     1
170
     0
176
     1
171
     0
176
     1
290
     0
176
     1
 93
       13
176
     1
 44
0.0
176
     1
173
     0
176
     1
  0
VISUALSTYLE
  5
2D
102
{ACAD_REACTORS
330
2A
102
}
330
2A
100
AcDbVisualStyle
  2
Gouraud
 70
     2
177
     2
291
     1
 71
     2
176
     1
 72
     2
176
     1
 73
     1
176
     1
 90
        2
176
     1
 40
-0.6
176
     1
 41
30.0
176
     1
 62
     5
 63
     7
421
 16777215
176
     1
 74
     0
176
     1
 91
        4
176
     1
 64
     7
176
     1
 65
   257
176
     1
 75
     1
176
     1
175
     1
176
     1
 42
1.0
176
     1
 92
        0
176
     1
 66
     7
176
     1
 43
1.0
176
     1
 76
     1
176
     1
 77
     6
176
     1
 78
     2
176
     1
 67
     7
176
     1
 79
     5
176
     1
170
     0
176
     1
171
     0
176
     1
290
     0
176
     1
 93
       13
176
     1
 44
0.0
176
     1
173
     0
176
     1
  0
VISUALSTYLE
  5
2E
102
{ACAD_REACTORS
330
2A
102
}
330
2A
100
AcDbVisualStyle
  2
GouraudWithEdges
 70
     3
177
     2
291
     1
 71
     2
176
     1
 72
     2
176
     1
 73
     1
176
     1
 90
        2
176
     1
 40
-0.6
176
     1
 41
30.0
176
     1
 62
     5
 63
     7
421
 16777215
176
     1
 74
     1
176
     1
 91
        4
176
     1
 64
     7
176
     1
 65
   257
176
     1
 75
     1
176
     1
175
     1
176
     1
 42
1.0
176
     1
 92
        0
176
     1
 66
   257
176
     1
 43
1.0
176
     1
 76
     1
176
     1
 77
     6
176
     1
 78
     2
176
     1
 67
     7
176
     1
 79
     5
176
     1
170
     0
176
     1
171
     0
176
     1
290
     0
176
     1
 93
       13
176
     1
 44
0.0
176
     1
173
     0
176
     1
  0
VISUALSTYLE
  5
38
102
{ACAD_REACTORS
330
2A
102
}
330
2A
100
AcDbVisualStyle
  2
Linepattern
 70
    14
177
     2
291
     1
 71
     2
176
     1
 72
     2
176
     1
 73
     0
176
     1
 90
        0
176
     1
 40
-0.6
176
     1
 41
-30.0
176
     1
 62
     5
 63
     7
421
 16777215
176
     1
 74
     1
176
     1
 91
        4
176
     1
 64
     7
176
     1
 65
   257
176
     1
 75
     7
176
     1
175
     7
176
     1
 42
1.0
176
     1
 92
        8
176
     1
 66
     7
176
     1
 43
1.0
176
     1
 76
     1
176
     1
 77
     6
176
     1
 78
     2
176
     1
 67
     7
176
     1
 79
     5
176
     1
170
     0
176
     1
171
     0
176
     1
290
     0
176
     1
 93
        1
176
     1
 44
0.0
176
     1
173
     0
176
     1
  0
VISUALSTYLE
  5
33
102
{ACAD_REACTORS
330
2A
102
}
330
2A
100
AcDbVisualStyle
  2
Realistic
 70
     8
177
     2
291
     0
 71
     2
176
     1
 72
     2
176
     1
 73
     0
176
     1
 90
        0
176
     1
 40
-0.6
176
     1
 41
-30.0
176
     1
 62
     5
 63
     7
421
 16777215
176
     1
 74
     1
176
     1
 91
        0
176
     1
 64
     7
176
     1
 65
   257
176
     1
 75
     1
176
     1
175
     1
176
     1
 42
1.0
176
     1
 92
        8
176
     1
 66
     8
424
  7895160
176
     1
 43
1.0
176
     1
 76
     1
176
     1
 77
     6
176
     1
 78
     2
176
     1
 67
     7
176
     1
 79
     5
176
     1
170
     0
176
     1
171
     0
176
     1
290
     0
176
     1
 93
       13
176
     1
 44
0.0
176
     1
173
     0
176
     1
  0
VISUALSTYLE
  5
37
102
{ACAD_REACTORS
330
2A
102
}
330
2A
100
AcDbVisualStyle
  2
Thicken
 70
    13
177
     2
291
     1
 71
     2
176
     1
 72
     2
176
     1
 73
     0
176
     1
 90
        0
176
     1
 40
-0.6
176
     1
 41
-30.0
176
     1
 62
     5
 63
     7
421
 16777215
176
     1
 74
     1
176
     1
 91
        4
176
     1
 64
     7
176
     1
 65
   257
176
     1
 75
     1
176
     1
175
     1
176
     1
 42
1.0
176
     1
 92
       12
176
     1
 66
     7
176
     1
 43
1.0
176
     1
 76
     1
176
     1
 77
     6
176
     1
 78
     2
176
     1
 67
     7
176
     1
 79
     5
176
     1
170
     0
176
     1
171
     0
176
     1
290
     0
176
     1
 93
        1
176
     1
 44
0.0
176
     1
173
     0
176
     1
  0
ENDSEC
  0
EOF
