<?xml version="1.0" encoding="utf-8"?>
<!-- Generator: Adobe Illustrator 19.2.1, SVG Export Plug-In . SVG Version: 6.00 Build 0)  -->
<svg version="1.1" id="Livello_1" xmlns="http://www.w3.org/2000/svg" xmlns:xlink="http://www.w3.org/1999/xlink" x="0px" y="0px"
	 width="2000px" height="2000px" viewBox="0 0 2000 2000" enable-background="new 0 0 2000 2000" xml:space="preserve">
<path d="M1071.49,354c-356.695-39.462-677.969,217.53-717.465,574.512C311.406,1313.721,612.701,1650,1001.096,1650
	c325.678,0,608.024-245.182,644.907-578.536C1685.404,715.339,1429.086,393.567,1071.49,354z M1246.599,1551.139
	c60.837-77.719,25.777-30.146,98.574-55.905C1314.217,1516.836,1281.222,1535.581,1246.599,1551.139z M1247.992,1392.802
	c-8.691-25.528-4.484-58.159,14.534-78.079c34.18-35.801,97.417-3.126,102.855,41.649
	C1373.033,1419.385,1269.55,1456.124,1247.992,1392.802z M1150.642,1102.704c-63.116,54.692-129.915,155.583-84.388,239.516
	c2.895,5.336,6.094,10.586,7.819,16.407c7.224,24.385-20.491,52.691-30.764,72.766c-15.787,30.856,12.513,35.873,27.807,14.521
	c7.09-9.898,15.748-22.667,27.699-20.345c14.272,14.805-21.829,34.463-16.033,53.315c1.475,4.797,7.047,8.561,11.612,6.476
	c8.019-3.664,19.002-36.817,34.044-37.147c4.344-0.095,8.721,2.669,10.121,6.782c4.921,14.458-24.22,33.007-15.668,46.276
	c1.512,2.345,4.443,3.357,7.217,3.66c24.184,2.637,24.326-40.753,48.435-39.407c8.661,0.484,18.471,8.91,17.542,18.137
	c-0.965,9.575-12.107,15.894-13.842,25.73c-86.853,31.221-265.665,46.093-188.22,24.107c52.541-6.625,96.675-14.696,39.669-28.19
	c-78.862-18.644-80.18-8.213-84.982-19.105c6.549-5.613,39.732-15.522,61.406-13.778c4.106,0.317,6.436-4.598,3.678-7.642
	c-37.942-41.732-80.697-8.627-124.254,0.396c-21.959,4.566-27.73-9.576-43.061-20.532c22.276-5.454,45.487-8.53,68.143-12.557
	c26.423-4.681,18.377-20.231,10.195-18.058c-43.172,11.431-76.546-19.818-119.624-14.634
	c-31.805,3.824-100.061,27.822-130.073-14.523c-22.098-31.191,5.75-13.875-56.808-56.364c-41.714-28.333-68.461-86.06-41.191-130.39
	c24.828-40.335,37.465-76.008,41.016-124.412c2.864-38.822,25.183-55.726,43.855-23.053c11.162,19.485,34.959,35.657,55.333,26.24
	c25.035-11.574,29.125-53.954,56.538-56.871c26.287-2.775,39.717,34.643,65.464,40.636c19.533,4.55,40.05-10.607,59.265-4.883
	c30.616,9.116,27.635,56.364,90.008,89.421c16.978,9.029,20.106-2.803,14.618-6.088c-75.025-44.953-54.919-75.114-66.717-118.181
	c-6.747-24.621-38.528-38.261-38.321-50.719c0.197-9.946,20.73-8.527,35.245,4.693c15.141,13.81,18.613,38.448,37.147,48.674
	c11.337,6.263,26.16,6.231,35.23,15.443c10.876,11.051,7.848,29.03,11.653,44.187c1.141,4.519,7.293,5.248,9.545,1.157
	c8.784-15.886,2.917-38.828-9.339-53.652c-14.412-17.472-45.44-16.457-51.147-44.568c12.89-11.764,21.958-27.619,25.716-44.647
	c1.346-6.145-8.058-13.786-16.457,2.6c-3.536,6.849-6.057,14.935-12.62,19.01c-12.969,8.023-30.156-5.66-39.066-15.11
	c-19.171-20.349,34.491-26.301,36.783-39.367c0.745-4.281-1.57-4.408-5.74-5.628c-8.498-2.473-28.586,8.704-36.529,9.766
	c-31.631,4.237-50.573-60.53,10.702-69.967c7.341-1.126,54.398,1.728,48.959-13.762c-29.464-5.209-59.437,13.862-73.439-51.607
	c-0.793-3.662-4.265-4.788-5.946-0.301c-3.9,10.369,4.376,24.385,1.696,36.181c-3.139,13.92-19.787,20.849-24.891,34.167
	c-7.795,20.415-1.091,33.093-7.896,41.016c-6.223,7.222-37.274,14.835-48.167-4.709c-10.86-19.47,10.131-31.297,18.027-47.2
	c7.737-15.585-1.062-35.499-15.649-43.934c-6.04-3.488-13.841-6.421-4.708,11.146c8.244,15.855,2.902,28.317-7.991,42.887
	c-14.238,19.057-42.634,19.042-56.03,16.14c-8.023-1.728-12.764,8.609-6.263,13.619c26.129,20.199,63.086,23.909,93.528,38.654
	c13.698,6.643,27.825,22.752,18.993,35.166c-2.188,3.076-5.517,5.248-7.372,8.546c-5.422,9.703,5.042,20.738,15.11,25.495
	c37.698,17.812,23.713,34.45,15.3,38.876c-28.348,14.951-56.094-28.348-71.584-43.268c-13.096-12.62-32.376-22.212-49.182-15.268
	c-23.259,9.608-30.997,48.88-82.889,19.771c-16.568-9.291-32.518-21.531-52.257-20.976c-17.409,0.507-33.026,10.242-41.127,25.653
	c-46.6,88.499-112.986,53.526-100.154,3.171c7.262-28.459,43.68-65.227,64.132-155.916c10.927-48.623,56.226-34.288,66.939,8.657
	c1.95,7.769,6.025,30.552,12.002,25.241c9.83-8.704,3.806-35.863,16.791-37.544c11.684-1.522,61.817,0.935,61.754-13.794
	c-0.016-5.581-17.63-4.328-23.084-3.139c-48.732,10.691-40.661-17.172-13.477-34.643c12.255-7.896,27.365-11.574,37.496-22.593
	c4.677-5.089,3.583-11.526-4.408-9.64c-12.144,2.854-23.893,8.165-34.516,14.634c-8.482,5.169-14.793,12.89-22.625,18.867
	c-18.858,14.379-29.27,2.354-35.165-2.362c-21.362-17.112-54.774-13.484-60.835-36.64c-3.155-12.081,3.234-24.67,14.555-29.934
	c19.882-9.291,21.372-7.182,131.642,1.855c20.881,1.712,26.478-9.085,38.702-15.268c33.168-16.774,97.967,28.428,147.56,20.817
	c9.64-1.474,1.348-9.021-7.15-13.794c-1.593-0.896-133.008-40.678-63.229-58.282c28.507-7.166,60.027-14.031,86.124-0.539
	c13.127,6.77,26.493,18.74,40.509,14.079c9.26-3.076,15.03-12.192,29.601,0.809c27.983,24.987,36.989,64.164,51.053,98.934
	c3.234,8.007,14.935,4.534,13.793-3.726c-5.311-38.242-20.642-75.072-44.171-105.672c-37.829-49.245-56.395-10.702-72.06-24.86
	c-11.004-9.941,0.269-36.672,7.896-73.122c1.252-5.977-6.945-10.765-10.116-6.136c-15.863,23.107-8.978,60.3-45.503,67.066
	c-11.717,2.188-23.814,2.267-35.69,1.696c-27.006-1.305-32.029-19.72-14.967-37.925c49.035-52.633,22.866-62.294,7.579-41.777
	c-7.626,10.29-12.335,21.356-21.103,32.296c-6.231,7.785-9.259,21.674-18.709,11.622c-2.901-3.06-18.772-24.179-49.339-34.326
	c-10.765-3.583-18.693,4.17-9.973,11.431c12.985,10.797,31.059,17.329,42.902,29.014c17.361,17.123,8.657,47.644-7.879,65.544
	c-28.95,31.377-59.757,15.141-61.279-20.801c-0.349-8.53,0.745-17.028,1.633-25.542c0.602-5.787-7.879-7.23-9.164-1.554
	c-6.136,26.937,3.583,69.967-64.481,55.714c-18.322-3.839-32.161-11.885-25.399-29.537c226.29-242.344,612.69-226.878,818.645,30.33
	c129.849,162.14,149.975,373.117,76.521,547.753C1456.895,1093.456,1250.803,1015.911,1150.642,1102.704z M1139.85,1329.229
	c-25.92-5.534-44.46-33.233-35.149-59.206c12.132-33.843,58.987-42.781,90.755-26.93
	C1246.147,1268.386,1201.904,1342.478,1139.85,1329.229z M1194.903,1419.456c-1.044-0.268-1.844-1.08-2.609-1.839
	c-23.356-23.189-44.643-11.223-36.519-27.91c4.42-9.069,38.387-55.192,50.381-41.272
	C1220.531,1365.121,1202.654,1421.447,1194.903,1419.456z M1600.303,1066.407c-11.891,107.468-51.468,205.267-110.794,287.121
	c15.587-35.752,22.711-74.297,17.443-111.421c128.229-268.132,24.421-588.517-232.712-732.463
	c-267.11-149.527-606.396-57.072-760.411,208.839c-202.272,345.596,18.545,794.88,424.417,839.764
	c105.001,11.667,208.496-6.307,301.376-50.16c-1.736,8.035-15.757,18.185-17.053,32.758c-0.623,7.016,2.395,14.144,8.777,16.919
	c-71.635,29.849-149.778,46.211-230.88,46.211c-361.286,0-640.096-314.692-600.739-670.407
	c34.14-308.556,296.305-537.568,599.837-537.568C1360.852,396.001,1639.659,710.693,1600.303,1066.407z"/>
</svg>
