<?xml version="1.0" encoding="utf-8"?>
<!-- Generator: Adobe Illustrator 25.4.1, SVG Export Plug-In . SVG Version: 6.00 Build 0)  -->
<svg version="1.1" xmlns="http://www.w3.org/2000/svg" xmlns:xlink="http://www.w3.org/1999/xlink" x="0px" y="0px"
	 viewBox="0 0 1139.9 597.1" style="enable-background:new 0 0 1139.9 597.1;" xml:space="preserve">
<style type="text/css">
	
		.st0{fill-rule:evenodd;clip-rule:evenodd;fill:none;stroke:#FF0000;stroke-width:5.6693;stroke-linecap:round;stroke-linejoin:round;stroke-miterlimit:2.6131;}
	
		.st1{fill-rule:evenodd;clip-rule:evenodd;stroke:#000000;stroke-width:0.216;stroke-linecap:round;stroke-linejoin:round;stroke-miterlimit:2.6131;}
	.st2{fill-rule:evenodd;clip-rule:evenodd;fill:#ED3237;stroke:#373435;stroke-width:0.216;stroke-miterlimit:2.6131;}
	.st3{fill-rule:evenodd;clip-rule:evenodd;fill:#FEFEFE;stroke:#FEFEFE;stroke-width:0.216;stroke-miterlimit:2.6131;}
	.st4{fill-rule:evenodd;clip-rule:evenodd;fill:none;stroke:#3374A9;stroke-width:0.216;stroke-miterlimit:2.6131;}
	.st5{fill-rule:evenodd;clip-rule:evenodd;fill:#3374A9;stroke:#3374A9;stroke-width:0.216;stroke-miterlimit:2.6131;}
	.st6{fill-rule:evenodd;clip-rule:evenodd;}
	
		.st7{fill-rule:evenodd;clip-rule:evenodd;fill:none;stroke:#000000;stroke-width:0.2835;stroke-linecap:round;stroke-linejoin:round;stroke-miterlimit:2.6131;}
</style>
<g id="Layer_1">
	<g>
		<path class="st0" d="M25,2.8h510.9C548,2.8,558,12.8,558,25v547.2c0,12.2-10,22.1-22.1,22.1H25c-12.2,0-22.1-10-22.1-22.1V25
			C2.8,12.8,12.8,2.8,25,2.8z"/>
		<g>
			<path class="st1" d="M395.4,557.4l5.7-0.8c0.7,3.3,1.8,5.6,3.3,7c1.6,1.4,3.5,2.2,5.8,2.2c2.7,0,5-0.9,6.9-2.8
				c1.8-1.9,2.8-4.2,2.8-6.9c0-2.6-0.9-4.8-2.6-6.5c-1.7-1.7-3.9-2.6-6.6-2.6c-1.1,0-2.4,0.2-4.1,0.6l0.6-5c0.4,0,0.7,0.1,0.9,0.1
				c2.5,0,4.7-0.6,6.6-1.9c2-1.3,2.9-3.2,2.9-5.9c0-2.1-0.7-3.8-2.1-5.2c-1.4-1.4-3.3-2.1-5.5-2.1c-2.2,0-4.1,0.7-5.6,2.1
				c-1.5,1.4-2.4,3.5-2.9,6.4l-5.7-1c0.7-3.8,2.3-6.8,4.8-9c2.5-2.1,5.6-3.2,9.3-3.2c2.5,0,4.9,0.5,7,1.6c2.2,1.1,3.8,2.6,4.9,4.5
				c1.1,1.9,1.7,3.9,1.7,6c0,2-0.5,3.8-1.6,5.5c-1.1,1.7-2.7,3-4.8,3.9c2.8,0.6,4.9,2,6.4,4c1.5,2,2.3,4.5,2.3,7.5
				c0,4.1-1.5,7.5-4.5,10.4c-3,2.8-6.7,4.3-11.3,4.3c-4.1,0-7.5-1.2-10.2-3.7C397.3,564.5,395.7,561.3,395.4,557.4L395.4,557.4z
				 M433.2,569.8v-33.9h5.2v4.8c1.1-1.7,2.5-3,4.2-4c1.8-1,3.8-1.5,6-1.5c2.5,0,4.6,0.5,6.2,1.6c1.6,1,2.7,2.5,3.4,4.4
				c2.7-3.9,6.2-5.9,10.5-5.9c3.4,0,6,0.9,7.8,2.8c1.8,1.9,2.7,4.7,2.7,8.6v23.2h-5.7v-21.3c0-2.3-0.2-3.9-0.6-4.9
				c-0.4-1-1-1.8-2-2.4c-1-0.6-2.1-0.9-3.4-0.9c-2.4,0-4.4,0.8-5.9,2.4c-1.6,1.6-2.4,4.1-2.4,7.6v19.6h-5.7v-22
				c0-2.5-0.5-4.5-1.4-5.7c-0.9-1.3-2.5-1.9-4.6-1.9c-1.6,0-3.1,0.4-4.5,1.3c-1.4,0.8-2.4,2.1-3,3.7c-0.6,1.6-0.9,4-0.9,7.1v17.6
				H433.2L433.2,569.8z M487.6,569.8v-33.9h5.2v4.8c1.1-1.7,2.5-3,4.2-4c1.8-1,3.8-1.5,6-1.5c2.5,0,4.6,0.5,6.2,1.6
				c1.6,1,2.7,2.5,3.4,4.4c2.7-3.9,6.2-5.9,10.5-5.9c3.4,0,6,0.9,7.8,2.8c1.8,1.9,2.7,4.7,2.7,8.6v23.2h-5.7v-21.3
				c0-2.3-0.2-3.9-0.6-4.9c-0.4-1-1-1.8-2-2.4c-1-0.6-2.1-0.9-3.4-0.9c-2.4,0-4.4,0.8-5.9,2.4c-1.6,1.6-2.4,4.1-2.4,7.6v19.6h-5.7
				v-22c0-2.5-0.5-4.5-1.4-5.7c-0.9-1.3-2.5-1.9-4.6-1.9c-1.6,0-3.1,0.4-4.5,1.3c-1.4,0.8-2.4,2.1-3,3.7c-0.6,1.6-0.9,4-0.9,7.1
				v17.6H487.6z"/>
			<g>
				<rect x="38.5" y="440.2" class="st2" width="85" height="85"/>
				<path class="st3" d="M64.8,475.6l2.3-0.2c0.1,0.8,0.4,1.4,0.8,1.7c0.4,0.4,1,0.5,1.7,0.5c0.8,0,1.3-0.2,1.7-0.5
					c0.4-0.3,0.6-0.7,0.6-1.1c0-0.3-0.1-0.5-0.2-0.7c-0.2-0.2-0.4-0.4-0.9-0.5c-0.3-0.1-0.9-0.3-1.9-0.5c-1.3-0.3-2.2-0.7-2.7-1.2
					c-0.7-0.7-1.1-1.5-1.1-2.4c0-0.6,0.2-1.2,0.5-1.7c0.3-0.5,0.8-0.9,1.5-1.2c0.6-0.3,1.4-0.4,2.3-0.4c1.5,0,2.6,0.3,3.3,1
					c0.7,0.7,1.1,1.5,1.2,2.6l-2.4,0.1c-0.1-0.6-0.3-1.1-0.7-1.3c-0.3-0.3-0.8-0.4-1.5-0.4c-0.7,0-1.2,0.1-1.6,0.4
					c-0.3,0.2-0.4,0.4-0.4,0.7c0,0.3,0.1,0.5,0.4,0.7c0.3,0.3,1,0.5,2.2,0.8c1.2,0.3,2,0.6,2.6,0.9c0.6,0.3,1,0.7,1.3,1.2
					c0.3,0.5,0.5,1.1,0.5,1.9c0,0.7-0.2,1.3-0.6,1.9c-0.4,0.6-0.9,1-1.6,1.3c-0.7,0.3-1.5,0.4-2.6,0.4c-1.5,0-2.6-0.3-3.4-1
					C65.5,477.9,65,476.9,64.8,475.6L64.8,475.6z M76.5,469.7v-2.1h2.3v2.1H76.5L76.5,469.7z M76.5,479.4v-8.6h2.3v8.6H76.5
					L76.5,479.4z M80.1,479.4v-1.8l3.2-3.7c0.5-0.6,0.9-1,1.2-1.3c-0.3,0-0.6,0-1,0l-3,0v-1.9h7.1v1.6l-3.3,3.8l-1.2,1.3
					c0.6,0,1,0,1.2,0h3.5v2H80.1L80.1,479.4z M94.3,476.7l2.3,0.4c-0.3,0.8-0.8,1.5-1.4,1.9c-0.6,0.4-1.4,0.7-2.4,0.7
					c-1.5,0-2.6-0.5-3.3-1.5c-0.6-0.8-0.8-1.8-0.8-3c0-1.4,0.4-2.5,1.1-3.3c0.7-0.8,1.7-1.2,2.8-1.2c1.3,0,2.3,0.4,3,1.3
					c0.7,0.8,1.1,2.1,1.1,3.9H91c0,0.7,0.2,1.2,0.5,1.6c0.3,0.4,0.8,0.6,1.3,0.6c0.4,0,0.7-0.1,0.9-0.3
					C94,477.5,94.2,477.2,94.3,476.7L94.3,476.7z M94.4,474.4c0-0.7-0.2-1.2-0.5-1.5c-0.3-0.3-0.7-0.5-1.2-0.5
					c-0.5,0-0.9,0.2-1.2,0.5c-0.3,0.4-0.5,0.9-0.5,1.5H94.4L94.4,474.4z M46.9,497.9h-2.3v-8.6h2.1v1.2c0.4-0.6,0.7-1,1-1.1
					c0.3-0.2,0.6-0.3,1-0.3c0.5,0,1,0.1,1.5,0.4l-0.7,2c-0.4-0.2-0.7-0.4-1.1-0.4c-0.3,0-0.6,0.1-0.8,0.3c-0.2,0.2-0.4,0.5-0.5,0.9
					c-0.1,0.5-0.2,1.4-0.2,2.9V497.9L46.9,497.9z M56.2,495.2l2.3,0.4c-0.3,0.8-0.8,1.5-1.4,1.9c-0.6,0.4-1.4,0.7-2.4,0.7
					c-1.5,0-2.6-0.5-3.3-1.5c-0.6-0.8-0.8-1.8-0.8-3c0-1.4,0.4-2.5,1.1-3.3c0.7-0.8,1.7-1.2,2.8-1.2c1.3,0,2.3,0.4,3,1.3
					c0.7,0.8,1.1,2.1,1.1,3.9h-5.7c0,0.7,0.2,1.2,0.5,1.6c0.3,0.4,0.8,0.6,1.3,0.6c0.4,0,0.7-0.1,0.9-0.3
					C55.8,496,56,495.6,56.2,495.2L56.2,495.2z M56.3,492.9c0-0.7-0.2-1.2-0.5-1.5c-0.3-0.3-0.7-0.5-1.2-0.5c-0.5,0-0.9,0.2-1.2,0.5
					c-0.3,0.4-0.5,0.9-0.5,1.5H56.3L56.3,492.9z M59.4,489.3h1.3v-0.6c0-0.7,0.1-1.3,0.2-1.6c0.2-0.4,0.4-0.6,0.9-0.9
					c0.4-0.2,0.9-0.3,1.6-0.3c0.6,0,1.3,0.1,1.9,0.3l-0.3,1.6c-0.4-0.1-0.7-0.1-1.1-0.1c-0.3,0-0.6,0.1-0.7,0.2
					c-0.1,0.2-0.2,0.5-0.2,0.9v0.6h1.7v1.8h-1.7v6.8h-2.3v-6.8h-1.3V489.3L59.4,489.3z M70.9,495.2l2.3,0.4
					c-0.3,0.8-0.8,1.5-1.4,1.9c-0.6,0.4-1.4,0.7-2.4,0.7c-1.5,0-2.6-0.5-3.3-1.5c-0.6-0.8-0.8-1.8-0.8-3c0-1.4,0.4-2.5,1.1-3.3
					c0.7-0.8,1.7-1.2,2.8-1.2c1.3,0,2.3,0.4,3,1.3c0.7,0.8,1.1,2.1,1.1,3.9h-5.7c0,0.7,0.2,1.2,0.5,1.6c0.3,0.4,0.8,0.6,1.3,0.6
					c0.4,0,0.7-0.1,0.9-0.3C70.6,496,70.7,495.6,70.9,495.2L70.9,495.2z M71,492.9c0-0.7-0.2-1.2-0.5-1.5c-0.3-0.3-0.7-0.5-1.2-0.5
					c-0.5,0-0.9,0.2-1.2,0.5c-0.3,0.4-0.5,0.9-0.5,1.5H71L71,492.9z M77.3,497.9H75v-8.6h2.1v1.2c0.4-0.6,0.7-1,1-1.1
					c0.3-0.2,0.6-0.3,1-0.3c0.5,0,1,0.1,1.5,0.4l-0.7,2c-0.4-0.2-0.7-0.4-1.1-0.4c-0.3,0-0.6,0.1-0.8,0.3c-0.2,0.2-0.4,0.5-0.5,0.9
					c-0.1,0.5-0.2,1.4-0.2,2.9V497.9L77.3,497.9z M86.5,495.2l2.3,0.4c-0.3,0.8-0.7,1.5-1.4,1.9c-0.6,0.4-1.4,0.7-2.4,0.7
					c-1.5,0-2.6-0.5-3.3-1.5c-0.6-0.8-0.8-1.8-0.8-3c0-1.4,0.4-2.5,1.1-3.3c0.7-0.8,1.7-1.2,2.8-1.2c1.3,0,2.3,0.4,3,1.3
					c0.7,0.8,1.1,2.1,1.1,3.9h-5.7c0,0.7,0.2,1.2,0.5,1.6c0.3,0.4,0.8,0.6,1.3,0.6c0.4,0,0.7-0.1,0.9-0.3
					C86.2,496,86.4,495.6,86.5,495.2L86.5,495.2z M86.6,492.9c0-0.7-0.2-1.2-0.5-1.5c-0.3-0.3-0.7-0.5-1.2-0.5
					c-0.5,0-0.9,0.2-1.2,0.5c-0.3,0.4-0.5,0.9-0.5,1.5H86.6L86.6,492.9z M98.5,497.9h-2.3v-4.4c0-0.9,0-1.5-0.1-1.8
					c-0.1-0.3-0.3-0.5-0.5-0.6c-0.2-0.2-0.5-0.2-0.8-0.2c-0.4,0-0.8,0.1-1.1,0.3c-0.3,0.2-0.5,0.5-0.6,0.9c-0.1,0.4-0.2,1-0.2,2v3.9
					h-2.3v-8.6h2.1v1.3c0.8-1,1.7-1.4,2.8-1.4c0.5,0,1,0.1,1.4,0.3c0.4,0.2,0.7,0.4,0.9,0.7c0.2,0.3,0.4,0.6,0.4,1
					c0.1,0.4,0.1,0.9,0.1,1.5V497.9L98.5,497.9z M108.3,491.9l-2.2,0.4c-0.1-0.4-0.2-0.8-0.5-1c-0.3-0.2-0.6-0.3-1-0.3
					c-0.6,0-1,0.2-1.4,0.6c-0.3,0.4-0.5,1-0.5,2c0,1,0.2,1.7,0.5,2.2c0.3,0.4,0.8,0.6,1.4,0.6c0.4,0,0.8-0.1,1.1-0.4
					c0.3-0.2,0.5-0.7,0.6-1.3l2.2,0.4c-0.2,1-0.7,1.8-1.3,2.3c-0.7,0.5-1.5,0.8-2.6,0.8c-1.3,0-2.3-0.4-3-1.2
					c-0.7-0.8-1.1-1.9-1.1-3.3c0-1.4,0.4-2.5,1.1-3.3c0.7-0.8,1.8-1.2,3-1.2c1,0,1.9,0.2,2.5,0.7C107.6,490.3,108,491,108.3,491.9
					L108.3,491.9z M115,495.2l2.3,0.4c-0.3,0.8-0.7,1.5-1.4,1.9c-0.6,0.4-1.4,0.7-2.4,0.7c-1.5,0-2.6-0.5-3.3-1.5
					c-0.6-0.8-0.8-1.8-0.8-3c0-1.4,0.4-2.5,1.1-3.3c0.7-0.8,1.7-1.2,2.8-1.2c1.3,0,2.3,0.4,3,1.3c0.7,0.8,1.1,2.1,1.1,3.9h-5.7
					c0,0.7,0.2,1.2,0.5,1.6c0.3,0.4,0.8,0.6,1.3,0.6c0.4,0,0.7-0.1,0.9-0.3C114.7,496,114.9,495.6,115,495.2L115,495.2z
					 M115.1,492.9c0-0.7-0.2-1.2-0.5-1.5c-0.3-0.3-0.7-0.5-1.2-0.5c-0.5,0-0.9,0.2-1.2,0.5c-0.3,0.4-0.5,0.9-0.5,1.5H115.1z"/>
				<line class="st4" x1="130.6" y1="525.3" x2="179.9" y2="525.3"/>
				<line class="st4" x1="130.6" y1="440.2" x2="179.9" y2="440.2"/>
				<line class="st4" x1="172.8" y1="498.3" x2="172.8" y2="525.3"/>
				<line class="st4" x1="172.8" y1="440.2" x2="172.8" y2="466.2"/>
				<path class="st5" d="M174.9,494.6l-0.1-1.1c0.6-0.1,1-0.3,1.3-0.6c0.3-0.3,0.4-0.6,0.4-1.1c0-0.5-0.2-0.9-0.5-1.3
					c-0.3-0.3-0.8-0.5-1.3-0.5c-0.5,0-0.9,0.2-1.2,0.5c-0.3,0.3-0.5,0.7-0.5,1.2c0,0.2,0,0.4,0.1,0.7l-0.9-0.1c0-0.1,0-0.1,0-0.2
					c0-0.5-0.1-0.9-0.4-1.2c-0.2-0.4-0.6-0.5-1.1-0.5c-0.4,0-0.7,0.1-1,0.4c-0.3,0.3-0.4,0.6-0.4,1c0,0.4,0.1,0.8,0.4,1
					c0.3,0.3,0.6,0.5,1.2,0.5l-0.2,1.1c-0.7-0.1-1.3-0.4-1.6-0.9c-0.4-0.5-0.6-1-0.6-1.7c0-0.5,0.1-0.9,0.3-1.3
					c0.2-0.4,0.5-0.7,0.8-0.9c0.3-0.2,0.7-0.3,1.1-0.3c0.4,0,0.7,0.1,1,0.3c0.3,0.2,0.5,0.5,0.7,0.9c0.1-0.5,0.4-0.9,0.7-1.2
					c0.4-0.3,0.8-0.4,1.4-0.4c0.8,0,1.4,0.3,1.9,0.8c0.5,0.5,0.8,1.2,0.8,2.1c0,0.8-0.2,1.4-0.7,1.9
					C176.1,494.3,175.6,494.6,174.9,494.6L174.9,494.6z M174.9,480.3l0.1-1c0.7,0.1,1.3,0.4,1.7,0.9c0.4,0.5,0.6,1,0.6,1.7
					c0,0.9-0.3,1.5-0.8,2.1c-0.6,0.5-1.4,0.8-2.4,0.8c-0.7,0-1.3-0.1-1.8-0.3c-0.5-0.2-0.9-0.6-1.1-1c-0.3-0.5-0.4-0.9-0.4-1.5
					c0-0.7,0.2-1.2,0.5-1.7c0.3-0.4,0.8-0.7,1.5-0.8l0.2,1c-0.4,0.1-0.7,0.3-0.9,0.5c-0.2,0.2-0.3,0.5-0.3,0.9c0,0.5,0.2,1,0.6,1.3
					c0.4,0.3,1,0.5,1.8,0.5c0.8,0,1.4-0.2,1.8-0.5c0.4-0.3,0.6-0.7,0.6-1.3c0-0.4-0.1-0.8-0.4-1
					C175.8,480.5,175.4,480.3,174.9,480.3L174.9,480.3z M177.1,478.3h-6.2v-0.9h0.9c-0.3-0.2-0.6-0.5-0.7-0.8
					c-0.2-0.3-0.3-0.7-0.3-1.1c0-0.5,0.1-0.8,0.3-1.1c0.2-0.3,0.5-0.5,0.8-0.6c-0.7-0.5-1.1-1.1-1.1-1.9c0-0.6,0.2-1.1,0.5-1.4
					c0.3-0.3,0.9-0.5,1.6-0.5h4.3v1.1h-3.9c-0.4,0-0.7,0-0.9,0.1c-0.2,0.1-0.3,0.2-0.4,0.4c-0.1,0.2-0.2,0.4-0.2,0.6
					c0,0.4,0.1,0.8,0.4,1.1c0.3,0.3,0.8,0.4,1.4,0.4h3.6v1.1h-4c-0.5,0-0.8,0.1-1.1,0.3c-0.2,0.2-0.4,0.5-0.4,0.8
					c0,0.3,0.1,0.6,0.2,0.8c0.2,0.3,0.4,0.4,0.7,0.5c0.3,0.1,0.7,0.2,1.3,0.2h3.2V478.3z"/>
				<line class="st4" x1="38.5" y1="532.4" x2="38.5" y2="572.1"/>
				<line class="st4" x1="123.5" y1="532.4" x2="123.5" y2="572.1"/>
				<line class="st4" x1="65.5" y1="565" x2="38.5" y2="565"/>
				<line class="st4" x1="123.5" y1="565" x2="97.6" y2="565"/>
				<path class="st5" d="M69.1,567l1.1-0.1c0.1,0.6,0.3,1,0.6,1.3c0.3,0.3,0.6,0.4,1.1,0.4c0.5,0,0.9-0.2,1.3-0.5
					c0.3-0.3,0.5-0.8,0.5-1.3c0-0.5-0.2-0.9-0.5-1.2c-0.3-0.3-0.7-0.5-1.2-0.5c-0.2,0-0.4,0-0.7,0.1l0.1-0.9c0.1,0,0.1,0,0.2,0
					c0.5,0,0.9-0.1,1.2-0.4c0.4-0.2,0.5-0.6,0.5-1.1c0-0.4-0.1-0.7-0.4-1c-0.3-0.3-0.6-0.4-1-0.4c-0.4,0-0.8,0.1-1,0.4
					c-0.3,0.3-0.5,0.7-0.5,1.2l-1.1-0.2c0.1-0.7,0.4-1.3,0.9-1.6c0.5-0.4,1-0.6,1.7-0.6c0.5,0,0.9,0.1,1.3,0.3
					c0.4,0.2,0.7,0.5,0.9,0.8c0.2,0.3,0.3,0.7,0.3,1.1c0,0.4-0.1,0.7-0.3,1c-0.2,0.3-0.5,0.5-0.9,0.7c0.5,0.1,0.9,0.4,1.2,0.7
					c0.3,0.4,0.4,0.8,0.4,1.4c0,0.8-0.3,1.4-0.8,1.9c-0.5,0.5-1.2,0.8-2.1,0.8c-0.8,0-1.4-0.2-1.9-0.7
					C69.5,568.3,69.2,567.7,69.1,567L69.1,567z M83.5,567l1,0.1c-0.1,0.7-0.4,1.3-0.9,1.7c-0.5,0.4-1,0.6-1.7,0.6
					c-0.9,0-1.5-0.3-2.1-0.8c-0.5-0.6-0.8-1.4-0.8-2.4c0-0.7,0.1-1.3,0.3-1.8c0.2-0.5,0.6-0.9,1-1.1c0.5-0.3,0.9-0.4,1.5-0.4
					c0.7,0,1.2,0.2,1.7,0.5c0.4,0.3,0.7,0.8,0.8,1.5l-1,0.2c-0.1-0.4-0.3-0.7-0.5-0.9c-0.2-0.2-0.5-0.3-0.9-0.3
					c-0.5,0-1,0.2-1.3,0.6c-0.3,0.4-0.5,1-0.5,1.8c0,0.8,0.2,1.4,0.5,1.8c0.3,0.4,0.7,0.6,1.3,0.6c0.4,0,0.8-0.1,1-0.4
					C83.3,567.9,83.4,567.5,83.5,567L83.5,567z M85.4,569.3v-6.2h0.9v0.9c0.2-0.3,0.5-0.6,0.8-0.7c0.3-0.2,0.7-0.3,1.1-0.3
					c0.5,0,0.8,0.1,1.1,0.3c0.3,0.2,0.5,0.5,0.6,0.8c0.5-0.7,1.1-1.1,1.9-1.1c0.6,0,1.1,0.2,1.4,0.5c0.3,0.3,0.5,0.9,0.5,1.6v4.3
					h-1.1v-3.9c0-0.4,0-0.7-0.1-0.9c-0.1-0.2-0.2-0.3-0.4-0.4c-0.2-0.1-0.4-0.2-0.6-0.2c-0.4,0-0.8,0.1-1.1,0.4
					c-0.3,0.3-0.4,0.8-0.4,1.4v3.6h-1.1v-4c0-0.5-0.1-0.8-0.3-1.1c-0.2-0.2-0.5-0.4-0.8-0.4c-0.3,0-0.6,0.1-0.8,0.2
					c-0.3,0.2-0.4,0.4-0.5,0.7c-0.1,0.3-0.2,0.7-0.2,1.3v3.2H85.4z"/>
				<line class="st4" x1="123.5" y1="532.4" x2="123.5" y2="551"/>
				<line class="st4" x1="38.5" y1="532.4" x2="38.5" y2="551"/>
				<line class="st4" x1="150" y1="543.9" x2="123.5" y2="543.9"/>
				<line class="st4" x1="38.5" y1="543.9" x2="12" y2="543.9"/>
				<path class="st5" d="M55.7,548.2h-1.1v-6.7c-0.3,0.2-0.6,0.5-1,0.7c-0.4,0.2-0.8,0.4-1.1,0.5v-1c0.6-0.3,1.1-0.6,1.5-1
					c0.4-0.4,0.8-0.8,0.9-1.1h0.7V548.2L55.7,548.2z M59,548.2V547h1.2v1.2H59L59,548.2z M65.7,548.2h-1.1v-6.7
					c-0.3,0.2-0.6,0.5-1,0.7c-0.4,0.2-0.8,0.4-1.1,0.5v-1c0.6-0.3,1.1-0.6,1.5-1c0.4-0.4,0.8-0.8,0.9-1.1h0.7V548.2L65.7,548.2z
					 M70,543.5c-0.4-0.2-0.8-0.4-1-0.7c-0.2-0.3-0.3-0.7-0.3-1.1c0-0.6,0.2-1.2,0.7-1.6c0.4-0.4,1-0.6,1.8-0.6
					c0.7,0,1.4,0.2,1.8,0.7c0.5,0.4,0.7,1,0.7,1.6c0,0.4-0.1,0.7-0.3,1c-0.2,0.3-0.5,0.5-0.9,0.7c0.5,0.2,0.9,0.4,1.2,0.8
					c0.3,0.4,0.4,0.8,0.4,1.4c0,0.7-0.3,1.3-0.8,1.8c-0.5,0.5-1.2,0.8-2,0.8c-0.8,0-1.5-0.2-2-0.8c-0.5-0.5-0.8-1.1-0.8-1.9
					c0-0.6,0.1-1,0.4-1.4C69.1,543.9,69.5,543.7,70,543.5L70,543.5z M69.8,541.7c0,0.4,0.1,0.7,0.4,1c0.3,0.3,0.6,0.4,1,0.4
					c0.4,0,0.7-0.1,1-0.4c0.3-0.3,0.4-0.6,0.4-0.9c0-0.4-0.1-0.7-0.4-1c-0.3-0.3-0.6-0.4-1-0.4c-0.4,0-0.7,0.1-1,0.4
					C69.9,541.1,69.8,541.4,69.8,541.7L69.8,541.7z M69.5,545.7c0,0.3,0.1,0.6,0.2,0.9c0.1,0.3,0.4,0.5,0.6,0.7
					c0.3,0.2,0.6,0.2,0.9,0.2c0.5,0,0.9-0.2,1.3-0.5c0.3-0.3,0.5-0.7,0.5-1.2c0-0.5-0.2-0.9-0.5-1.3c-0.3-0.3-0.8-0.5-1.3-0.5
					c-0.5,0-0.9,0.2-1.2,0.5C69.6,544.8,69.5,545.2,69.5,545.7L69.5,545.7z M78.7,540.8v-1.2h1.1v1.2H78.7L78.7,540.8z M78.7,548.2
					V542h1.1v6.2H78.7L78.7,548.2z M81.4,548.2V542h0.9v0.9c0.5-0.7,1.1-1,2-1c0.4,0,0.7,0.1,1,0.2c0.3,0.1,0.5,0.3,0.7,0.5
					c0.2,0.2,0.3,0.5,0.3,0.8c0,0.2,0.1,0.5,0.1,1v3.8h-1.1v-3.8c0-0.4,0-0.8-0.1-1c-0.1-0.2-0.2-0.4-0.4-0.5
					c-0.2-0.1-0.5-0.2-0.7-0.2c-0.4,0-0.8,0.1-1.2,0.4c-0.3,0.3-0.5,0.8-0.5,1.6v3.4H81.4L81.4,548.2z M92.1,545.9l1,0.1
					c-0.1,0.7-0.4,1.3-0.9,1.7c-0.5,0.4-1,0.6-1.7,0.6c-0.9,0-1.5-0.3-2-0.8c-0.5-0.6-0.8-1.4-0.8-2.4c0-0.7,0.1-1.3,0.3-1.8
					c0.2-0.5,0.6-0.9,1-1.1c0.5-0.3,0.9-0.4,1.5-0.4c0.7,0,1.2,0.2,1.7,0.5c0.4,0.3,0.7,0.8,0.8,1.5l-1,0.2
					c-0.1-0.4-0.3-0.7-0.5-0.9c-0.2-0.2-0.5-0.3-0.9-0.3c-0.5,0-1,0.2-1.3,0.6c-0.3,0.4-0.5,1-0.5,1.8c0,0.8,0.2,1.4,0.5,1.8
					c0.3,0.4,0.7,0.6,1.3,0.6c0.4,0,0.8-0.1,1-0.4C91.8,546.8,92,546.4,92.1,545.9L92.1,545.9z M94,548.2v-8.6h1.1v3.1
					c0.5-0.6,1.1-0.9,1.9-0.9c0.5,0,0.9,0.1,1.2,0.3c0.3,0.2,0.6,0.4,0.7,0.8c0.1,0.3,0.2,0.8,0.2,1.4v3.9H98v-3.9
					c0-0.5-0.1-0.9-0.3-1.1c-0.2-0.2-0.5-0.4-1-0.4c-0.3,0-0.6,0.1-0.9,0.2c-0.3,0.2-0.5,0.4-0.6,0.7c-0.1,0.3-0.2,0.7-0.2,1.1v3.4
					H94L94,548.2z M104.9,546.2l1.1,0.1c-0.2,0.6-0.5,1.1-1,1.5c-0.5,0.4-1.1,0.5-1.8,0.5c-0.9,0-1.6-0.3-2.2-0.8
					c-0.5-0.6-0.8-1.3-0.8-2.4c0-1,0.3-1.9,0.8-2.4c0.5-0.6,1.2-0.9,2.1-0.9c0.8,0,1.5,0.3,2,0.8c0.5,0.6,0.8,1.4,0.8,2.4
					c0,0.1,0,0.2,0,0.3h-4.6c0,0.7,0.2,1.2,0.6,1.6c0.3,0.4,0.8,0.5,1.3,0.5c0.4,0,0.7-0.1,1-0.3
					C104.6,546.9,104.8,546.6,104.9,546.2L104.9,546.2z M101.5,544.5h3.5c0-0.5-0.2-0.9-0.4-1.2c-0.3-0.4-0.8-0.6-1.3-0.6
					c-0.5,0-0.9,0.2-1.2,0.5C101.7,543.5,101.5,543.9,101.5,544.5L101.5,544.5z M107,546.3l1-0.2c0.1,0.4,0.2,0.7,0.5,1
					c0.3,0.2,0.6,0.3,1.1,0.3c0.5,0,0.8-0.1,1.1-0.3c0.2-0.2,0.4-0.4,0.4-0.7c0-0.2-0.1-0.4-0.3-0.6c-0.1-0.1-0.5-0.2-1.1-0.4
					c-0.8-0.2-1.3-0.4-1.6-0.5c-0.3-0.1-0.5-0.3-0.7-0.6c-0.2-0.2-0.2-0.5-0.2-0.8c0-0.3,0.1-0.5,0.2-0.8c0.1-0.2,0.3-0.4,0.5-0.6
					c0.2-0.1,0.4-0.2,0.7-0.3c0.3-0.1,0.6-0.1,0.9-0.1c0.5,0,0.9,0.1,1.3,0.2c0.4,0.1,0.6,0.3,0.8,0.6c0.2,0.2,0.3,0.6,0.4,1l-1,0.1
					c0-0.3-0.2-0.6-0.4-0.8c-0.2-0.2-0.5-0.3-0.9-0.3c-0.5,0-0.8,0.1-1,0.2c-0.2,0.2-0.3,0.3-0.3,0.6c0,0.1,0,0.3,0.1,0.4
					c0.1,0.1,0.2,0.2,0.4,0.3c0.1,0,0.4,0.1,0.9,0.3c0.7,0.2,1.3,0.4,1.6,0.5c0.3,0.1,0.5,0.3,0.7,0.6c0.2,0.2,0.3,0.5,0.3,0.9
					c0,0.4-0.1,0.7-0.3,1c-0.2,0.3-0.5,0.5-0.9,0.7c-0.4,0.2-0.8,0.3-1.3,0.3c-0.8,0-1.4-0.2-1.8-0.5
					C107.3,547.5,107.1,547,107,546.3z"/>
				<line class="st4" x1="130.6" y1="525.3" x2="157.1" y2="525.3"/>
				<line class="st4" x1="130.6" y1="440.2" x2="157.1" y2="440.2"/>
				<line class="st4" x1="150" y1="551.7" x2="150" y2="525.3"/>
				<line class="st4" x1="150" y1="440.2" x2="150" y2="413.8"/>
				<path class="st5" d="M154.3,508.1v1.1h-6.7c0.2,0.3,0.5,0.6,0.7,1c0.2,0.4,0.4,0.8,0.5,1.1h-1c-0.3-0.6-0.6-1.1-1-1.5
					c-0.4-0.4-0.8-0.8-1.1-0.9v-0.7H154.3L154.3,508.1z M154.3,504.8h-1.2v-1.2h1.2V504.8L154.3,504.8z M154.3,498.1v1.1h-6.7
					c0.2,0.3,0.5,0.6,0.7,1c0.2,0.4,0.4,0.8,0.5,1.1h-1c-0.3-0.6-0.6-1.1-1-1.5c-0.4-0.4-0.8-0.8-1.1-0.9v-0.7H154.3L154.3,498.1z
					 M149.6,493.8c-0.2,0.4-0.4,0.8-0.7,1c-0.3,0.2-0.7,0.3-1.1,0.3c-0.6,0-1.1-0.2-1.6-0.7c-0.4-0.4-0.6-1-0.6-1.8
					c0-0.7,0.2-1.4,0.7-1.8c0.4-0.5,1-0.7,1.6-0.7c0.4,0,0.7,0.1,1,0.3c0.3,0.2,0.5,0.5,0.7,0.9c0.2-0.5,0.4-0.9,0.8-1.2
					c0.4-0.3,0.8-0.4,1.4-0.4c0.7,0,1.3,0.3,1.8,0.8c0.5,0.5,0.8,1.2,0.8,2c0,0.8-0.2,1.5-0.8,2c-0.5,0.5-1.1,0.8-1.9,0.8
					c-0.6,0-1-0.1-1.4-0.4C150,494.7,149.8,494.3,149.6,493.8L149.6,493.8z M147.9,494c0.4,0,0.7-0.1,1-0.4c0.3-0.3,0.4-0.6,0.4-1
					c0-0.4-0.1-0.7-0.4-1c-0.3-0.3-0.6-0.4-0.9-0.4c-0.4,0-0.7,0.1-1,0.4c-0.3,0.3-0.4,0.6-0.4,1c0,0.4,0.1,0.7,0.4,1
					C147.2,493.8,147.5,494,147.9,494L147.9,494z M151.8,494.3c0.3,0,0.6-0.1,0.9-0.2c0.3-0.1,0.5-0.4,0.7-0.6
					c0.2-0.3,0.2-0.6,0.2-0.9c0-0.5-0.2-0.9-0.5-1.2c-0.3-0.3-0.7-0.5-1.2-0.5c-0.5,0-0.9,0.2-1.3,0.5c-0.3,0.3-0.5,0.8-0.5,1.3
					c0,0.5,0.2,0.9,0.5,1.2S151.3,494.3,151.8,494.3L151.8,494.3z M146.9,485.1h-1.2V484h1.2V485.1L146.9,485.1z M154.3,485.1h-6.2
					V484h6.2V485.1L154.3,485.1z M154.3,482.4h-6.2v-0.9h0.9c-0.7-0.5-1-1.1-1-2c0-0.4,0.1-0.7,0.2-1c0.1-0.3,0.3-0.5,0.5-0.7
					c0.2-0.2,0.5-0.3,0.8-0.3c0.2,0,0.5-0.1,1-0.1h3.8v1.1h-3.8c-0.4,0-0.8,0-1,0.1c-0.2,0.1-0.4,0.2-0.5,0.4
					c-0.1,0.2-0.2,0.5-0.2,0.7c0,0.4,0.1,0.8,0.4,1.2c0.3,0.3,0.8,0.5,1.6,0.5h3.4V482.4L154.3,482.4z M152,471.7l0.1-1
					c0.7,0.1,1.3,0.4,1.7,0.9c0.4,0.5,0.6,1,0.6,1.7c0,0.9-0.3,1.5-0.8,2c-0.6,0.5-1.4,0.8-2.4,0.8c-0.7,0-1.3-0.1-1.8-0.3
					c-0.5-0.2-0.9-0.6-1.1-1c-0.3-0.5-0.4-0.9-0.4-1.5c0-0.7,0.2-1.2,0.5-1.7c0.3-0.4,0.8-0.7,1.5-0.8l0.2,1
					c-0.4,0.1-0.7,0.3-0.9,0.5c-0.2,0.2-0.3,0.5-0.3,0.9c0,0.5,0.2,1,0.6,1.3c0.4,0.3,1,0.5,1.8,0.5c0.8,0,1.4-0.2,1.8-0.5
					c0.4-0.3,0.6-0.7,0.6-1.3c0-0.4-0.1-0.8-0.4-1C152.9,471.9,152.6,471.8,152,471.7L152,471.7z M154.3,469.8h-8.6v-1.1h3.1
					c-0.6-0.5-0.9-1.1-0.9-1.9c0-0.5,0.1-0.9,0.3-1.2c0.2-0.3,0.4-0.6,0.8-0.7c0.3-0.1,0.8-0.2,1.4-0.2h3.9v1.1h-3.9
					c-0.5,0-0.9,0.1-1.2,0.3c-0.2,0.2-0.4,0.5-0.4,1c0,0.3,0.1,0.6,0.2,0.9c0.2,0.3,0.4,0.5,0.7,0.6c0.3,0.1,0.7,0.2,1.1,0.2h3.4
					V469.8L154.3,469.8z M152.3,458.8l0.1-1.1c0.6,0.2,1.1,0.5,1.5,1c0.3,0.5,0.5,1.1,0.5,1.8c0,0.9-0.3,1.6-0.8,2.2
					c-0.6,0.5-1.3,0.8-2.4,0.8c-1,0-1.9-0.3-2.4-0.8c-0.6-0.5-0.9-1.2-0.9-2.1c0-0.8,0.3-1.5,0.8-2c0.6-0.5,1.4-0.8,2.4-0.8
					c0.1,0,0.2,0,0.3,0v4.6c0.7,0,1.2-0.2,1.6-0.6c0.4-0.3,0.5-0.8,0.5-1.3c0-0.4-0.1-0.7-0.3-1C153.1,459.2,152.7,459,152.3,458.8
					L152.3,458.8z M150.6,462.3v-3.5c-0.5,0-0.9,0.2-1.2,0.4c-0.4,0.3-0.6,0.8-0.6,1.3c0,0.5,0.2,0.9,0.5,1.2
					C149.6,462.1,150.1,462.3,150.6,462.3L150.6,462.3z M152.4,456.8l-0.2-1c0.4-0.1,0.7-0.2,1-0.5c0.2-0.3,0.3-0.6,0.3-1.1
					c0-0.5-0.1-0.8-0.3-1.1c-0.2-0.2-0.4-0.4-0.7-0.4c-0.2,0-0.4,0.1-0.6,0.3c-0.1,0.1-0.2,0.5-0.4,1.1c-0.2,0.8-0.4,1.3-0.5,1.6
					c-0.1,0.3-0.3,0.5-0.6,0.7c-0.2,0.2-0.5,0.2-0.8,0.2c-0.3,0-0.5-0.1-0.8-0.2c-0.2-0.1-0.4-0.3-0.6-0.5c-0.1-0.2-0.2-0.4-0.3-0.7
					c-0.1-0.3-0.1-0.6-0.1-0.9c0-0.5,0.1-0.9,0.2-1.3c0.1-0.4,0.3-0.6,0.6-0.8c0.2-0.2,0.6-0.3,1-0.4l0.1,1c-0.3,0-0.6,0.2-0.8,0.4
					c-0.2,0.2-0.3,0.5-0.3,0.9c0,0.5,0.1,0.8,0.2,1c0.2,0.2,0.3,0.3,0.6,0.3c0.1,0,0.3,0,0.4-0.1c0.1-0.1,0.2-0.2,0.3-0.4
					c0-0.1,0.1-0.4,0.3-0.9c0.2-0.7,0.4-1.3,0.5-1.6c0.1-0.3,0.3-0.5,0.6-0.7c0.2-0.2,0.5-0.3,0.9-0.3c0.3,0,0.7,0.1,1,0.3
					c0.3,0.2,0.5,0.5,0.7,0.9c0.2,0.4,0.3,0.8,0.3,1.3c0,0.8-0.2,1.4-0.5,1.8C153.6,456.4,153.1,456.7,152.4,456.8z"/>
			</g>
		</g>
	</g>
	<g>
		<path class="st0" d="M604.1,2.8h510.9c12.2,0,22.1,10,22.1,22.1v547.2c0,12.2-10,22.1-22.1,22.1H604.1c-12.2,0-22.1-10-22.1-22.1
			V25C581.9,12.8,591.9,2.8,604.1,2.8z"/>
		<g>
			<path class="st6" d="M907.7,573.4h-8.6v-32.5c-3.1,3-6.8,5.1-11.1,6.6v-7.8c2.2-0.7,4.7-2.1,7.3-4.2c2.6-2.1,4.4-4.4,5.4-7.2h7
				V573.4L907.7,573.4z M917.8,574.2l11.2-46.5h6.5l-11.2,46.5H917.8L917.8,574.2z M945.4,549.1c-2.2-0.9-3.8-2.2-4.8-3.9
				c-1-1.6-1.5-3.5-1.5-5.4c0-3.4,1.2-6.1,3.5-8.3c2.3-2.2,5.7-3.3,10-3.3c4.3,0,7.6,1.1,9.9,3.3c2.4,2.2,3.5,5,3.5,8.3
				c0,2.1-0.5,3.9-1.6,5.6c-1.1,1.6-2.6,2.9-4.6,3.7c2.5,1,4.4,2.5,5.7,4.4c1.3,1.9,1.9,4.2,1.9,6.7c0,4.2-1.3,7.5-4,10.2
				c-2.6,2.6-6.2,3.9-10.5,3.9c-4.1,0-7.5-1.1-10.2-3.2c-3.2-2.5-4.8-6-4.8-10.5c0-2.4,0.6-4.7,1.8-6.7
				C940.9,551.8,942.8,550.2,945.4,549.1L945.4,549.1z M947.2,540.5c0,1.7,0.5,3.1,1.4,4c1,1,2.3,1.4,3.9,1.4c1.6,0,2.9-0.5,3.9-1.5
				c1-1,1.5-2.3,1.5-4c0-1.6-0.5-2.9-1.4-3.9c-1-1-2.2-1.5-3.8-1.5c-1.7,0-3,0.5-3.9,1.5C947.7,537.5,947.2,538.8,947.2,540.5
				L947.2,540.5z M946.4,559.7c0,2.4,0.6,4.3,1.8,5.6c1.2,1.3,2.7,2,4.5,2c1.8,0,3.2-0.6,4.4-1.9c1.2-1.3,1.7-3.1,1.7-5.6
				c0-2.1-0.6-3.8-1.8-5.1c-1.2-1.3-2.7-1.9-4.5-1.9c-2.1,0-3.7,0.7-4.7,2.2C946.9,556.4,946.4,558,946.4,559.7L946.4,559.7z
				 M992.2,536.4v-8h8.6v8H992.2L992.2,536.4z M992.2,573.4v-32.6h8.6v32.6H992.2L992.2,573.4z M1039.3,573.4h-8.6v-16.6
				c0-3.5-0.2-5.8-0.6-6.8c-0.4-1-1-1.8-1.8-2.4c-0.8-0.6-1.8-0.9-3-0.9c-1.5,0-2.9,0.4-4,1.2c-1.2,0.8-2,1.9-2.5,3.2
				c-0.4,1.4-0.7,3.8-0.7,7.5v14.7h-8.6v-32.6h8v4.8c2.9-3.7,6.4-5.5,10.8-5.5c1.9,0,3.7,0.3,5.2,1c1.6,0.7,2.8,1.6,3.6,2.6
				c0.8,1.1,1.4,2.3,1.7,3.6c0.3,1.3,0.5,3.3,0.5,5.8V573.4L1039.3,573.4z M1076.4,550.5l-8.5,1.5c-0.3-1.7-0.9-3-1.9-3.8
				c-1-0.8-2.3-1.3-3.9-1.3c-2.1,0-3.9,0.7-5.1,2.2c-1.3,1.5-1.9,4-1.9,7.5c0,3.9,0.6,6.6,1.9,8.2c1.3,1.6,3,2.4,5.2,2.4
				c1.6,0,3-0.5,4-1.4c1-0.9,1.8-2.5,2.2-4.8l8.5,1.4c-0.9,3.9-2.6,6.8-5.1,8.8c-2.5,2-5.8,3-10,3c-4.8,0-8.5-1.5-11.4-4.5
				c-2.8-3-4.2-7.2-4.2-12.5c0-5.4,1.4-9.6,4.3-12.6c2.8-3,6.7-4.5,11.5-4.5c4,0,7.1,0.9,9.4,2.6
				C1073.7,544.4,1075.4,547,1076.4,550.5L1076.4,550.5z M1091.4,528.5v16.7c2.8-3.3,6.1-5,10-5c2,0,3.8,0.4,5.4,1.1
				c1.6,0.7,2.8,1.7,3.6,2.8c0.8,1.1,1.4,2.4,1.7,3.8c0.3,1.4,0.4,3.5,0.4,6.5v19.1h-8.6v-17.2c0-3.4-0.2-5.6-0.5-6.5
				c-0.3-0.9-0.9-1.7-1.8-2.2c-0.8-0.5-1.9-0.8-3.1-0.8c-1.4,0-2.7,0.3-3.9,1c-1.1,0.7-2,1.7-2.5,3.1c-0.5,1.4-0.8,3.5-0.8,6.2v16.3
				h-8.6v-45H1091.4z"/>
			<g>
				<rect x="617.6" y="440.2" class="st2" width="85" height="85"/>
				<path class="st3" d="M643.9,475.6l2.3-0.2c0.1,0.8,0.4,1.4,0.8,1.7c0.4,0.4,1,0.5,1.7,0.5c0.8,0,1.3-0.2,1.7-0.5
					c0.4-0.3,0.6-0.7,0.6-1.1c0-0.3-0.1-0.5-0.2-0.7c-0.2-0.2-0.4-0.4-0.9-0.5c-0.3-0.1-0.9-0.3-1.9-0.5c-1.3-0.3-2.2-0.7-2.7-1.2
					c-0.7-0.7-1.1-1.5-1.1-2.4c0-0.6,0.2-1.2,0.5-1.7c0.3-0.5,0.8-0.9,1.5-1.2c0.6-0.3,1.4-0.4,2.3-0.4c1.5,0,2.6,0.3,3.3,1
					c0.7,0.7,1.1,1.5,1.2,2.6l-2.4,0.1c-0.1-0.6-0.3-1.1-0.7-1.3c-0.3-0.3-0.8-0.4-1.5-0.4c-0.7,0-1.2,0.1-1.6,0.4
					c-0.3,0.2-0.4,0.4-0.4,0.7c0,0.3,0.1,0.5,0.4,0.7c0.3,0.3,1,0.5,2.2,0.8c1.2,0.3,2,0.6,2.6,0.9c0.6,0.3,1,0.7,1.3,1.2
					c0.3,0.5,0.5,1.1,0.5,1.9c0,0.7-0.2,1.3-0.6,1.9c-0.4,0.6-0.9,1-1.6,1.3c-0.7,0.3-1.5,0.4-2.6,0.4c-1.5,0-2.6-0.3-3.4-1
					C644.6,477.9,644.1,476.9,643.9,475.6L643.9,475.6z M655.6,469.7v-2.1h2.3v2.1H655.6L655.6,469.7z M655.6,479.4v-8.6h2.3v8.6
					H655.6L655.6,479.4z M659.2,479.4v-1.8l3.2-3.7c0.5-0.6,0.9-1,1.2-1.3c-0.3,0-0.6,0-1,0l-3,0v-1.9h7.1v1.6l-3.3,3.8l-1.2,1.3
					c0.6,0,1,0,1.2,0h3.5v2H659.2L659.2,479.4z M673.4,476.7l2.3,0.4c-0.3,0.8-0.8,1.5-1.4,1.9c-0.6,0.4-1.4,0.7-2.4,0.7
					c-1.5,0-2.6-0.5-3.3-1.5c-0.6-0.8-0.8-1.8-0.8-3c0-1.4,0.4-2.5,1.1-3.3c0.7-0.8,1.7-1.2,2.8-1.2c1.3,0,2.3,0.4,3,1.3
					c0.7,0.8,1.1,2.1,1.1,3.9h-5.7c0,0.7,0.2,1.2,0.5,1.6c0.3,0.4,0.8,0.6,1.3,0.6c0.4,0,0.7-0.1,0.9-0.3
					C673.1,477.5,673.3,477.2,673.4,476.7L673.4,476.7z M673.5,474.4c0-0.7-0.2-1.2-0.5-1.5c-0.3-0.3-0.7-0.5-1.2-0.5
					c-0.5,0-0.9,0.2-1.2,0.5c-0.3,0.4-0.5,0.9-0.5,1.5H673.5L673.5,474.4z M626,497.9h-2.3v-8.6h2.1v1.2c0.4-0.6,0.7-1,1-1.1
					c0.3-0.2,0.6-0.3,1-0.3c0.5,0,1,0.1,1.5,0.4l-0.7,2c-0.4-0.2-0.7-0.4-1.1-0.4c-0.3,0-0.6,0.1-0.8,0.3c-0.2,0.2-0.4,0.5-0.5,0.9
					c-0.1,0.5-0.2,1.4-0.2,2.9V497.9L626,497.9z M635.2,495.2l2.3,0.4c-0.3,0.8-0.8,1.5-1.4,1.9c-0.6,0.4-1.4,0.7-2.4,0.7
					c-1.5,0-2.6-0.5-3.3-1.5c-0.6-0.8-0.8-1.8-0.8-3c0-1.4,0.4-2.5,1.1-3.3c0.7-0.8,1.7-1.2,2.8-1.2c1.3,0,2.3,0.4,3,1.3
					c0.7,0.8,1.1,2.1,1.1,3.9h-5.7c0,0.7,0.2,1.2,0.5,1.6c0.3,0.4,0.8,0.6,1.3,0.6c0.4,0,0.7-0.1,0.9-0.3
					C634.9,496,635.1,495.6,635.2,495.2L635.2,495.2z M635.4,492.9c0-0.7-0.2-1.2-0.5-1.5c-0.3-0.3-0.7-0.5-1.2-0.5
					c-0.5,0-0.9,0.2-1.2,0.5c-0.3,0.4-0.5,0.9-0.5,1.5H635.4L635.4,492.9z M638.5,489.3h1.3v-0.6c0-0.7,0.1-1.3,0.2-1.6
					c0.2-0.4,0.4-0.6,0.9-0.9c0.4-0.2,0.9-0.3,1.6-0.3c0.6,0,1.3,0.1,1.9,0.3l-0.3,1.6c-0.4-0.1-0.7-0.1-1.1-0.1
					c-0.3,0-0.6,0.1-0.7,0.2c-0.1,0.2-0.2,0.5-0.2,0.9v0.6h1.7v1.8H642v6.8h-2.3v-6.8h-1.3V489.3L638.5,489.3z M649.9,495.2l2.3,0.4
					c-0.3,0.8-0.8,1.5-1.4,1.9c-0.6,0.4-1.4,0.7-2.4,0.7c-1.5,0-2.6-0.5-3.3-1.5c-0.6-0.8-0.8-1.8-0.8-3c0-1.4,0.4-2.5,1.1-3.3
					c0.7-0.8,1.7-1.2,2.8-1.2c1.3,0,2.3,0.4,3,1.3c0.7,0.8,1.1,2.1,1.1,3.9h-5.7c0,0.7,0.2,1.2,0.5,1.6c0.3,0.4,0.8,0.6,1.3,0.6
					c0.4,0,0.7-0.1,0.9-0.3C649.6,496,649.8,495.6,649.9,495.2L649.9,495.2z M650.1,492.9c0-0.7-0.2-1.2-0.5-1.5
					c-0.3-0.3-0.7-0.5-1.2-0.5c-0.5,0-0.9,0.2-1.2,0.5c-0.3,0.4-0.5,0.9-0.5,1.5H650.1L650.1,492.9z M656.4,497.9h-2.3v-8.6h2.1v1.2
					c0.4-0.6,0.7-1,1-1.1c0.3-0.2,0.6-0.3,1-0.3c0.5,0,1,0.1,1.5,0.4l-0.7,2c-0.4-0.2-0.7-0.4-1.1-0.4c-0.3,0-0.6,0.1-0.8,0.3
					c-0.2,0.2-0.4,0.5-0.5,0.9c-0.1,0.5-0.2,1.4-0.2,2.9V497.9L656.4,497.9z M665.6,495.2l2.3,0.4c-0.3,0.8-0.7,1.5-1.4,1.9
					c-0.6,0.4-1.4,0.7-2.4,0.7c-1.5,0-2.6-0.5-3.3-1.5c-0.6-0.8-0.8-1.8-0.8-3c0-1.4,0.4-2.5,1.1-3.3c0.7-0.8,1.7-1.2,2.8-1.2
					c1.3,0,2.3,0.4,3,1.3c0.7,0.8,1.1,2.1,1.1,3.9h-5.7c0,0.7,0.2,1.2,0.5,1.6c0.3,0.4,0.8,0.6,1.3,0.6c0.4,0,0.7-0.1,0.9-0.3
					C665.3,496,665.5,495.6,665.6,495.2L665.6,495.2z M665.7,492.9c0-0.7-0.2-1.2-0.5-1.5c-0.3-0.3-0.7-0.5-1.2-0.5
					c-0.5,0-0.9,0.2-1.2,0.5c-0.3,0.4-0.5,0.9-0.5,1.5H665.7L665.7,492.9z M677.6,497.9h-2.3v-4.4c0-0.9,0-1.5-0.1-1.8
					c-0.1-0.3-0.3-0.5-0.5-0.6c-0.2-0.2-0.5-0.2-0.8-0.2c-0.4,0-0.8,0.1-1.1,0.3c-0.3,0.2-0.5,0.5-0.6,0.9c-0.1,0.4-0.2,1-0.2,2v3.9
					h-2.3v-8.6h2.1v1.3c0.8-1,1.7-1.4,2.8-1.4c0.5,0,1,0.1,1.4,0.3c0.4,0.2,0.7,0.4,0.9,0.7c0.2,0.3,0.4,0.6,0.4,1
					c0.1,0.4,0.1,0.9,0.1,1.5V497.9L677.6,497.9z M687.4,491.9l-2.2,0.4c-0.1-0.4-0.2-0.8-0.5-1c-0.3-0.2-0.6-0.3-1-0.3
					c-0.6,0-1,0.2-1.4,0.6c-0.3,0.4-0.5,1-0.5,2c0,1,0.2,1.7,0.5,2.2c0.3,0.4,0.8,0.6,1.4,0.6c0.4,0,0.8-0.1,1.1-0.4
					c0.3-0.2,0.5-0.7,0.6-1.3l2.2,0.4c-0.2,1-0.7,1.8-1.3,2.3s-1.5,0.8-2.6,0.8c-1.3,0-2.3-0.4-3-1.2c-0.7-0.8-1.1-1.9-1.1-3.3
					c0-1.4,0.4-2.5,1.1-3.3c0.7-0.8,1.8-1.2,3-1.2c1,0,1.9,0.2,2.5,0.7C686.7,490.3,687.1,491,687.4,491.9L687.4,491.9z
					 M694.1,495.2l2.3,0.4c-0.3,0.8-0.7,1.5-1.4,1.9c-0.6,0.4-1.4,0.7-2.4,0.7c-1.5,0-2.6-0.5-3.3-1.5c-0.6-0.8-0.8-1.8-0.8-3
					c0-1.4,0.4-2.5,1.1-3.3c0.7-0.8,1.7-1.2,2.8-1.2c1.3,0,2.3,0.4,3,1.3c0.7,0.8,1.1,2.1,1.1,3.9h-5.7c0,0.7,0.2,1.2,0.5,1.6
					c0.3,0.4,0.8,0.6,1.3,0.6c0.4,0,0.7-0.1,0.9-0.3C693.8,496,694,495.6,694.1,495.2L694.1,495.2z M694.2,492.9
					c0-0.7-0.2-1.2-0.5-1.5c-0.3-0.3-0.7-0.5-1.2-0.5c-0.5,0-0.9,0.2-1.2,0.5c-0.3,0.4-0.5,0.9-0.5,1.5H694.2z"/>
				<line class="st4" x1="709.7" y1="525.3" x2="759" y2="525.3"/>
				<line class="st4" x1="709.7" y1="440.2" x2="759" y2="440.2"/>
				<line class="st4" x1="751.9" y1="498.3" x2="751.9" y2="525.3"/>
				<line class="st4" x1="751.9" y1="440.2" x2="751.9" y2="466.2"/>
				<path class="st5" d="M753.9,494.6l-0.1-1.1c0.6-0.1,1-0.3,1.3-0.6c0.3-0.3,0.4-0.6,0.4-1.1c0-0.5-0.2-0.9-0.5-1.3
					c-0.3-0.3-0.8-0.5-1.3-0.5c-0.5,0-0.9,0.2-1.2,0.5c-0.3,0.3-0.5,0.7-0.5,1.2c0,0.2,0,0.4,0.1,0.7l-0.9-0.1c0-0.1,0-0.1,0-0.2
					c0-0.5-0.1-0.9-0.4-1.2c-0.2-0.4-0.6-0.5-1.1-0.5c-0.4,0-0.7,0.1-1,0.4c-0.3,0.3-0.4,0.6-0.4,1c0,0.4,0.1,0.8,0.4,1
					c0.3,0.3,0.7,0.5,1.2,0.5l-0.2,1.1c-0.7-0.1-1.3-0.4-1.6-0.9c-0.4-0.5-0.6-1-0.6-1.7c0-0.5,0.1-0.9,0.3-1.3
					c0.2-0.4,0.5-0.7,0.8-0.9c0.3-0.2,0.7-0.3,1.1-0.3c0.4,0,0.7,0.1,1,0.3c0.3,0.2,0.5,0.5,0.7,0.9c0.1-0.5,0.4-0.9,0.7-1.2
					c0.4-0.3,0.8-0.4,1.4-0.4c0.8,0,1.4,0.3,1.9,0.8c0.5,0.5,0.8,1.2,0.8,2.1c0,0.8-0.2,1.4-0.7,1.9
					C755.2,494.3,754.7,494.6,753.9,494.6L753.9,494.6z M753.9,480.3l0.1-1c0.7,0.1,1.3,0.4,1.7,0.9c0.4,0.5,0.6,1,0.6,1.7
					c0,0.9-0.3,1.5-0.8,2.1c-0.6,0.5-1.4,0.8-2.4,0.8c-0.7,0-1.3-0.1-1.8-0.3c-0.5-0.2-0.9-0.6-1.1-1c-0.3-0.5-0.4-0.9-0.4-1.5
					c0-0.7,0.2-1.2,0.5-1.7c0.3-0.4,0.8-0.7,1.5-0.8l0.2,1c-0.4,0.1-0.7,0.3-0.9,0.5c-0.2,0.2-0.3,0.5-0.3,0.9c0,0.5,0.2,1,0.6,1.3
					c0.4,0.3,1,0.5,1.8,0.5c0.8,0,1.4-0.2,1.8-0.5c0.4-0.3,0.6-0.7,0.6-1.3c0-0.4-0.1-0.8-0.4-1
					C754.9,480.5,754.5,480.3,753.9,480.3L753.9,480.3z M756.2,478.3H750v-0.9h0.9c-0.3-0.2-0.6-0.5-0.7-0.8
					c-0.2-0.3-0.3-0.7-0.3-1.1c0-0.5,0.1-0.8,0.3-1.1c0.2-0.3,0.5-0.5,0.8-0.6c-0.7-0.5-1.1-1.1-1.1-1.9c0-0.6,0.2-1.1,0.5-1.4
					c0.3-0.3,0.9-0.5,1.6-0.5h4.3v1.1h-3.9c-0.4,0-0.7,0-0.9,0.1c-0.2,0.1-0.3,0.2-0.4,0.4c-0.1,0.2-0.2,0.4-0.2,0.6
					c0,0.4,0.1,0.8,0.4,1.1c0.3,0.3,0.8,0.4,1.4,0.4h3.6v1.1h-4c-0.5,0-0.8,0.1-1.1,0.3c-0.2,0.2-0.4,0.5-0.4,0.8
					c0,0.3,0.1,0.6,0.2,0.8c0.2,0.3,0.4,0.4,0.7,0.5c0.3,0.1,0.7,0.2,1.3,0.2h3.2V478.3z"/>
				<line class="st4" x1="617.6" y1="532.4" x2="617.6" y2="572.1"/>
				<line class="st4" x1="702.6" y1="532.4" x2="702.6" y2="572.1"/>
				<line class="st4" x1="644.6" y1="565" x2="617.6" y2="565"/>
				<line class="st4" x1="702.6" y1="565" x2="676.6" y2="565"/>
				<path class="st5" d="M648.2,567l1.1-0.1c0.1,0.6,0.3,1,0.6,1.3c0.3,0.3,0.6,0.4,1.1,0.4c0.5,0,0.9-0.2,1.3-0.5
					c0.3-0.3,0.5-0.8,0.5-1.3c0-0.5-0.2-0.9-0.5-1.2c-0.3-0.3-0.7-0.5-1.2-0.5c-0.2,0-0.4,0-0.7,0.1l0.1-0.9c0.1,0,0.1,0,0.2,0
					c0.5,0,0.9-0.1,1.2-0.4c0.4-0.2,0.5-0.6,0.5-1.1c0-0.4-0.1-0.7-0.4-1c-0.3-0.3-0.6-0.4-1-0.4c-0.4,0-0.8,0.1-1,0.4
					c-0.3,0.3-0.5,0.7-0.5,1.2l-1.1-0.2c0.1-0.7,0.4-1.3,0.9-1.6c0.5-0.4,1-0.6,1.7-0.6c0.5,0,0.9,0.1,1.3,0.3
					c0.4,0.2,0.7,0.5,0.9,0.8c0.2,0.3,0.3,0.7,0.3,1.1c0,0.4-0.1,0.7-0.3,1c-0.2,0.3-0.5,0.5-0.9,0.7c0.5,0.1,0.9,0.4,1.2,0.7
					c0.3,0.4,0.4,0.8,0.4,1.4c0,0.8-0.3,1.4-0.8,1.9c-0.5,0.5-1.2,0.8-2.1,0.8c-0.8,0-1.4-0.2-1.9-0.7
					C648.6,568.3,648.3,567.7,648.2,567L648.2,567z M662.6,567l1,0.1c-0.1,0.7-0.4,1.3-0.9,1.7c-0.5,0.4-1,0.6-1.7,0.6
					c-0.9,0-1.5-0.3-2-0.8c-0.5-0.6-0.8-1.4-0.8-2.4c0-0.7,0.1-1.3,0.3-1.8c0.2-0.5,0.6-0.9,1-1.1c0.5-0.3,0.9-0.4,1.5-0.4
					c0.7,0,1.2,0.2,1.7,0.5c0.4,0.3,0.7,0.8,0.8,1.5l-1,0.2c-0.1-0.4-0.3-0.7-0.5-0.9c-0.2-0.2-0.5-0.3-0.9-0.3
					c-0.5,0-1,0.2-1.3,0.6c-0.3,0.4-0.5,1-0.5,1.8c0,0.8,0.2,1.4,0.5,1.8c0.3,0.4,0.7,0.6,1.3,0.6c0.4,0,0.8-0.1,1-0.4
					C662.4,567.9,662.5,567.5,662.6,567L662.6,567z M664.5,569.3v-6.2h0.9v0.9c0.2-0.3,0.5-0.6,0.8-0.7c0.3-0.2,0.7-0.3,1.1-0.3
					c0.5,0,0.8,0.1,1.1,0.3c0.3,0.2,0.5,0.5,0.6,0.8c0.5-0.7,1.1-1.1,1.9-1.1c0.6,0,1.1,0.2,1.4,0.5c0.3,0.3,0.5,0.9,0.5,1.6v4.3
					h-1.1v-3.9c0-0.4,0-0.7-0.1-0.9c-0.1-0.2-0.2-0.3-0.4-0.4c-0.2-0.1-0.4-0.2-0.6-0.2c-0.4,0-0.8,0.1-1.1,0.4
					c-0.3,0.3-0.4,0.8-0.4,1.4v3.6h-1.1v-4c0-0.5-0.1-0.8-0.3-1.1c-0.2-0.2-0.5-0.4-0.8-0.4c-0.3,0-0.6,0.1-0.8,0.2
					c-0.3,0.2-0.4,0.4-0.5,0.7c-0.1,0.3-0.2,0.7-0.2,1.3v3.2H664.5z"/>
				<line class="st4" x1="702.6" y1="532.4" x2="702.6" y2="551"/>
				<line class="st4" x1="617.6" y1="532.4" x2="617.6" y2="551"/>
				<line class="st4" x1="729.1" y1="543.9" x2="702.6" y2="543.9"/>
				<line class="st4" x1="617.6" y1="543.9" x2="591.1" y2="543.9"/>
				<path class="st5" d="M634.8,548.2h-1.1v-6.7c-0.3,0.2-0.6,0.5-1,0.7c-0.4,0.2-0.8,0.4-1.1,0.5v-1c0.6-0.3,1.1-0.6,1.5-1
					c0.4-0.4,0.8-0.8,0.9-1.1h0.7V548.2L634.8,548.2z M638.1,548.2V547h1.2v1.2H638.1L638.1,548.2z M644.8,548.2h-1.1v-6.7
					c-0.3,0.2-0.6,0.5-1,0.7c-0.4,0.2-0.8,0.4-1.1,0.5v-1c0.6-0.3,1.1-0.6,1.5-1c0.4-0.4,0.8-0.8,0.9-1.1h0.7V548.2L644.8,548.2z
					 M649.1,543.5c-0.4-0.2-0.8-0.4-1-0.7c-0.2-0.3-0.3-0.7-0.3-1.1c0-0.6,0.2-1.2,0.7-1.6c0.4-0.4,1-0.6,1.8-0.6
					c0.7,0,1.4,0.2,1.8,0.7c0.5,0.4,0.7,1,0.7,1.6c0,0.4-0.1,0.7-0.3,1c-0.2,0.3-0.5,0.5-0.9,0.7c0.5,0.2,0.9,0.4,1.2,0.8
					c0.3,0.4,0.4,0.8,0.4,1.4c0,0.7-0.3,1.3-0.8,1.8c-0.5,0.5-1.2,0.8-2,0.8c-0.8,0-1.5-0.2-2-0.8c-0.5-0.5-0.8-1.1-0.8-1.9
					c0-0.6,0.1-1,0.4-1.4C648.2,543.9,648.6,543.7,649.1,543.5L649.1,543.5z M648.9,541.7c0,0.4,0.1,0.7,0.4,1
					c0.3,0.3,0.6,0.4,1,0.4c0.4,0,0.7-0.1,1-0.4c0.3-0.3,0.4-0.6,0.4-0.9c0-0.4-0.1-0.7-0.4-1c-0.3-0.3-0.6-0.4-1-0.4
					c-0.4,0-0.7,0.1-1,0.4C649,541.1,648.9,541.4,648.9,541.7L648.9,541.7z M648.5,545.7c0,0.3,0.1,0.6,0.2,0.9
					c0.1,0.3,0.4,0.5,0.6,0.7c0.3,0.2,0.6,0.2,0.9,0.2c0.5,0,0.9-0.2,1.2-0.5c0.3-0.3,0.5-0.7,0.5-1.2c0-0.5-0.2-0.9-0.5-1.3
					c-0.3-0.3-0.8-0.5-1.3-0.5c-0.5,0-0.9,0.2-1.2,0.5C648.7,544.8,648.5,545.2,648.5,545.7L648.5,545.7z M657.8,540.8v-1.2h1.1v1.2
					H657.8L657.8,540.8z M657.8,548.2V542h1.1v6.2H657.8L657.8,548.2z M660.4,548.2V542h0.9v0.9c0.5-0.7,1.1-1,2-1
					c0.4,0,0.7,0.1,1,0.2c0.3,0.1,0.5,0.3,0.7,0.5c0.2,0.2,0.3,0.5,0.3,0.8c0,0.2,0.1,0.5,0.1,1v3.8h-1.1v-3.8c0-0.4,0-0.8-0.1-1
					c-0.1-0.2-0.2-0.4-0.4-0.5c-0.2-0.1-0.5-0.2-0.7-0.2c-0.4,0-0.8,0.1-1.2,0.4c-0.3,0.3-0.5,0.8-0.5,1.6v3.4H660.4L660.4,548.2z
					 M671.2,545.9l1,0.1c-0.1,0.7-0.4,1.3-0.9,1.7c-0.5,0.4-1,0.6-1.7,0.6c-0.9,0-1.5-0.3-2.1-0.8c-0.5-0.6-0.8-1.4-0.8-2.4
					c0-0.7,0.1-1.3,0.3-1.8c0.2-0.5,0.6-0.9,1-1.1c0.5-0.3,0.9-0.4,1.5-0.4c0.7,0,1.2,0.2,1.7,0.5c0.4,0.3,0.7,0.8,0.8,1.5l-1,0.2
					c-0.1-0.4-0.3-0.7-0.5-0.9c-0.2-0.2-0.5-0.3-0.9-0.3c-0.5,0-1,0.2-1.3,0.6c-0.3,0.4-0.5,1-0.5,1.8c0,0.8,0.2,1.4,0.5,1.8
					c0.3,0.4,0.7,0.6,1.3,0.6c0.4,0,0.8-0.1,1-0.4C670.9,546.8,671.1,546.4,671.2,545.9L671.2,545.9z M673.1,548.2v-8.6h1.1v3.1
					c0.5-0.6,1.1-0.9,1.9-0.9c0.5,0,0.9,0.1,1.2,0.3c0.3,0.2,0.6,0.4,0.7,0.8c0.1,0.3,0.2,0.8,0.2,1.4v3.9h-1.1v-3.9
					c0-0.5-0.1-0.9-0.3-1.1c-0.2-0.2-0.5-0.4-1-0.4c-0.3,0-0.6,0.1-0.9,0.2c-0.3,0.2-0.5,0.4-0.6,0.7c-0.1,0.3-0.2,0.7-0.2,1.1v3.4
					H673.1L673.1,548.2z M684,546.2l1.1,0.1c-0.2,0.6-0.5,1.1-1,1.5c-0.5,0.4-1.1,0.5-1.8,0.5c-0.9,0-1.6-0.3-2.2-0.8
					c-0.5-0.6-0.8-1.3-0.8-2.4c0-1,0.3-1.9,0.8-2.4c0.5-0.6,1.2-0.9,2.1-0.9c0.8,0,1.5,0.3,2,0.8c0.5,0.6,0.8,1.4,0.8,2.4
					c0,0.1,0,0.2,0,0.3h-4.6c0,0.7,0.2,1.2,0.6,1.6c0.3,0.4,0.8,0.5,1.3,0.5c0.4,0,0.7-0.1,1-0.3C683.7,546.9,683.9,546.6,684,546.2
					L684,546.2z M680.6,544.5h3.5c0-0.5-0.2-0.9-0.4-1.2c-0.3-0.4-0.8-0.6-1.3-0.6c-0.5,0-0.9,0.2-1.2,0.5
					C680.8,543.5,680.6,543.9,680.6,544.5L680.6,544.5z M686,546.3l1-0.2c0.1,0.4,0.2,0.7,0.5,1c0.3,0.2,0.6,0.3,1.1,0.3
					c0.5,0,0.8-0.1,1.1-0.3c0.2-0.2,0.4-0.4,0.4-0.7c0-0.2-0.1-0.4-0.3-0.6c-0.1-0.1-0.5-0.2-1.1-0.4c-0.8-0.2-1.3-0.4-1.6-0.5
					c-0.3-0.1-0.5-0.3-0.7-0.6c-0.2-0.2-0.2-0.5-0.2-0.8c0-0.3,0.1-0.5,0.2-0.8c0.1-0.2,0.3-0.4,0.5-0.6c0.2-0.1,0.4-0.2,0.7-0.3
					c0.3-0.1,0.6-0.1,0.9-0.1c0.5,0,0.9,0.1,1.3,0.2c0.4,0.1,0.6,0.3,0.8,0.6c0.2,0.2,0.3,0.6,0.4,1l-1,0.1c0-0.3-0.2-0.6-0.4-0.8
					c-0.2-0.2-0.5-0.3-0.9-0.3c-0.5,0-0.8,0.1-1,0.2c-0.2,0.2-0.3,0.3-0.3,0.6c0,0.1,0,0.3,0.1,0.4c0.1,0.1,0.2,0.2,0.4,0.3
					c0.1,0,0.4,0.1,0.9,0.3c0.7,0.2,1.3,0.4,1.6,0.5c0.3,0.1,0.5,0.3,0.7,0.6c0.2,0.2,0.3,0.5,0.3,0.9c0,0.4-0.1,0.7-0.3,1
					c-0.2,0.3-0.5,0.5-0.9,0.7c-0.4,0.2-0.8,0.3-1.3,0.3c-0.8,0-1.4-0.2-1.8-0.5C686.4,547.5,686.2,547,686,546.3z"/>
				<line class="st4" x1="709.7" y1="525.3" x2="736.2" y2="525.3"/>
				<line class="st4" x1="709.7" y1="440.2" x2="736.2" y2="440.2"/>
				<line class="st4" x1="729.1" y1="551.7" x2="729.1" y2="525.3"/>
				<line class="st4" x1="729.1" y1="440.2" x2="729.1" y2="413.8"/>
				<path class="st5" d="M733.4,508.1v1.1h-6.7c0.2,0.3,0.5,0.6,0.7,1c0.2,0.4,0.4,0.8,0.5,1.1h-1c-0.3-0.6-0.6-1.1-1-1.5
					c-0.4-0.4-0.8-0.8-1.1-0.9v-0.7H733.4L733.4,508.1z M733.4,504.8h-1.2v-1.2h1.2V504.8L733.4,504.8z M733.4,498.1v1.1h-6.7
					c0.2,0.3,0.5,0.6,0.7,1c0.2,0.4,0.4,0.8,0.5,1.1h-1c-0.3-0.6-0.6-1.1-1-1.5c-0.4-0.4-0.8-0.8-1.1-0.9v-0.7H733.4L733.4,498.1z
					 M728.7,493.8c-0.2,0.4-0.4,0.8-0.7,1c-0.3,0.2-0.7,0.3-1.1,0.3c-0.6,0-1.2-0.2-1.6-0.7c-0.4-0.4-0.6-1-0.6-1.8
					c0-0.7,0.2-1.4,0.7-1.8c0.4-0.5,1-0.7,1.6-0.7c0.4,0,0.7,0.1,1,0.3c0.3,0.2,0.5,0.5,0.7,0.9c0.2-0.5,0.4-0.9,0.8-1.2
					c0.4-0.3,0.8-0.4,1.4-0.4c0.7,0,1.3,0.3,1.8,0.8c0.5,0.5,0.8,1.2,0.8,2c0,0.8-0.2,1.5-0.8,2c-0.5,0.5-1.1,0.8-1.9,0.8
					c-0.6,0-1-0.1-1.4-0.4C729.1,494.7,728.9,494.3,728.7,493.8L728.7,493.8z M726.9,494c0.4,0,0.7-0.1,1-0.4c0.3-0.3,0.4-0.6,0.4-1
					c0-0.4-0.1-0.7-0.4-1c-0.3-0.3-0.6-0.4-0.9-0.4c-0.4,0-0.7,0.1-1,0.4c-0.3,0.3-0.4,0.6-0.4,1c0,0.4,0.1,0.7,0.4,1
					C726.3,493.8,726.6,494,726.9,494L726.9,494z M730.9,494.3c0.3,0,0.6-0.1,0.9-0.2c0.3-0.1,0.5-0.4,0.7-0.6
					c0.2-0.3,0.2-0.6,0.2-0.9c0-0.5-0.2-0.9-0.5-1.2c-0.3-0.3-0.7-0.5-1.2-0.5c-0.5,0-0.9,0.2-1.3,0.5c-0.3,0.3-0.5,0.8-0.5,1.3
					c0,0.5,0.2,0.9,0.5,1.2C730,494.2,730.4,494.3,730.9,494.3L730.9,494.3z M726,485.1h-1.2V484h1.2V485.1L726,485.1z M733.4,485.1
					h-6.2V484h6.2V485.1L733.4,485.1z M733.4,482.4h-6.2v-0.9h0.9c-0.7-0.5-1-1.1-1-2c0-0.4,0.1-0.7,0.2-1c0.1-0.3,0.3-0.5,0.5-0.7
					c0.2-0.2,0.5-0.3,0.8-0.3c0.2,0,0.5-0.1,1-0.1h3.8v1.1h-3.8c-0.4,0-0.8,0-1,0.1c-0.2,0.1-0.4,0.2-0.5,0.4
					c-0.1,0.2-0.2,0.5-0.2,0.7c0,0.4,0.1,0.8,0.4,1.2c0.3,0.3,0.8,0.5,1.6,0.5h3.4V482.4L733.4,482.4z M731.1,471.7l0.1-1
					c0.7,0.1,1.3,0.4,1.7,0.9c0.4,0.5,0.6,1,0.6,1.7c0,0.9-0.3,1.5-0.8,2c-0.6,0.5-1.4,0.8-2.4,0.8c-0.7,0-1.3-0.1-1.8-0.3
					c-0.5-0.2-0.9-0.6-1.1-1c-0.3-0.5-0.4-0.9-0.4-1.5c0-0.7,0.2-1.2,0.5-1.7c0.3-0.4,0.8-0.7,1.5-0.8l0.2,1
					c-0.4,0.1-0.7,0.3-0.9,0.5c-0.2,0.2-0.3,0.5-0.3,0.9c0,0.5,0.2,1,0.6,1.3c0.4,0.3,1,0.5,1.8,0.5c0.8,0,1.4-0.2,1.8-0.5
					c0.4-0.3,0.6-0.7,0.6-1.3c0-0.4-0.1-0.8-0.4-1C732,471.9,731.6,471.8,731.1,471.7L731.1,471.7z M733.4,469.8h-8.6v-1.1h3.1
					c-0.6-0.5-0.9-1.1-0.9-1.9c0-0.5,0.1-0.9,0.3-1.2c0.2-0.3,0.4-0.6,0.8-0.7c0.3-0.1,0.8-0.2,1.4-0.2h3.9v1.1h-3.9
					c-0.5,0-0.9,0.1-1.2,0.3c-0.2,0.2-0.4,0.5-0.4,1c0,0.3,0.1,0.6,0.2,0.9c0.2,0.3,0.4,0.5,0.7,0.6c0.3,0.1,0.7,0.2,1.1,0.2h3.4
					V469.8L733.4,469.8z M731.4,458.8l0.1-1.1c0.6,0.2,1.1,0.5,1.5,1c0.4,0.5,0.5,1.1,0.5,1.8c0,0.9-0.3,1.6-0.8,2.2
					c-0.6,0.5-1.3,0.8-2.4,0.8c-1,0-1.9-0.3-2.4-0.8c-0.6-0.5-0.9-1.2-0.9-2.1c0-0.8,0.3-1.5,0.8-2c0.6-0.5,1.4-0.8,2.4-0.8
					c0.1,0,0.2,0,0.3,0v4.6c0.7,0,1.2-0.2,1.6-0.6c0.4-0.3,0.5-0.8,0.5-1.3c0-0.4-0.1-0.7-0.3-1C732.2,459.2,731.8,459,731.4,458.8
					L731.4,458.8z M729.7,462.3v-3.5c-0.5,0-0.9,0.2-1.2,0.4c-0.4,0.3-0.6,0.8-0.6,1.3c0,0.5,0.2,0.9,0.5,1.2
					C728.7,462.1,729.1,462.3,729.7,462.3L729.7,462.3z M731.5,456.8l-0.2-1c0.4-0.1,0.7-0.2,1-0.5c0.2-0.3,0.3-0.6,0.3-1.1
					c0-0.5-0.1-0.8-0.3-1.1c-0.2-0.2-0.4-0.4-0.7-0.4c-0.2,0-0.4,0.1-0.6,0.3c-0.1,0.1-0.2,0.5-0.4,1.1c-0.2,0.8-0.4,1.3-0.5,1.6
					c-0.1,0.3-0.3,0.5-0.6,0.7c-0.2,0.2-0.5,0.2-0.8,0.2c-0.3,0-0.5-0.1-0.8-0.2c-0.2-0.1-0.4-0.3-0.6-0.5c-0.1-0.2-0.2-0.4-0.3-0.7
					c-0.1-0.3-0.1-0.6-0.1-0.9c0-0.5,0.1-0.9,0.2-1.3c0.1-0.4,0.3-0.6,0.6-0.8c0.2-0.2,0.6-0.3,1-0.4l0.1,1c-0.3,0-0.6,0.2-0.8,0.4
					s-0.3,0.5-0.3,0.9c0,0.5,0.1,0.8,0.2,1c0.2,0.2,0.3,0.3,0.6,0.3c0.1,0,0.3,0,0.4-0.1c0.1-0.1,0.2-0.2,0.3-0.4
					c0-0.1,0.1-0.4,0.3-0.9c0.2-0.7,0.4-1.3,0.5-1.6c0.1-0.3,0.3-0.5,0.6-0.7c0.2-0.2,0.5-0.3,0.9-0.3c0.4,0,0.7,0.1,1,0.3
					c0.3,0.2,0.5,0.5,0.7,0.9c0.2,0.4,0.3,0.8,0.3,1.3c0,0.8-0.2,1.4-0.5,1.8C732.7,456.4,732.2,456.7,731.5,456.8z"/>
			</g>
		</g>
	</g>
</g>
<g id="SectionCutEdges">
	<g>
		<polygon class="st7" points="338.7,166.7 335.9,170.7 334.5,172.6 328.9,178.9 324.5,183.1 321.7,185.3 316.9,188.9 312.7,181.6 
			305.3,185.9 309.5,193.1 307.3,194.2 302.9,196 298.3,197.6 293.7,198.9 290.2,199.7 285.4,200.4 280.6,200.8 274.6,200.9 
			268.6,200.5 263.8,199.9 259.1,198.9 255.6,198 252.1,196.9 246.5,194.7 243.3,193.1 247.5,185.9 240.1,181.6 235.9,188.9 
			230.1,184.6 226.4,181.4 224.7,179.8 220.6,175.4 217.5,171.6 214.1,166.7 211.1,161.5 208.1,154.9 207.2,152.7 205.7,148.1 
			204.5,143.4 203.4,137.5 202.8,131.5 211.2,131.5 211.2,123 202.8,123 203.2,118.2 204.2,112.3 205,108.8 207.2,101.9 209.5,96.3 
			212.3,90.9 214.8,86.8 219,81 223.8,75.6 229.1,70.7 235.9,65.7 240.1,72.9 247.5,68.7 243.3,61.4 248.8,58.9 253.3,57.3 
			259.1,55.6 263.8,54.6 266.2,54.3 271,53.8 279.4,53.6 285.4,54.1 289,54.6 294.9,55.9 298.3,56.9 301.8,58.1 305.1,59.4 
			309.5,61.4 305.3,68.7 312.7,72.9 316.9,65.7 321.7,69.2 324.5,71.5 327.2,73.9 329.8,76.5 333.7,81 336.6,84.8 339.3,88.9 
			342.2,94.1 344.7,99.6 346,103 347.7,108.8 348.3,111.1 349.4,117 350,123 341.6,123 341.6,131.5 350,131.5 349.2,138.7 
			348.5,142.3 347.1,148.1 345.1,153.8 343.3,158.2 342.2,160.4 		"/>
		<path class="st7" d="M185.8,158.4v-8.5h8.5l-6.1-65.6c-0.1-1.5,0-0.8-1.4-0.8c-1.7,0-3.3-0.9-4.2-2.4l-1.9-3.3
			c-1.1-1.9-3.2-2.8-5.3-2.3c-2.1,0.5-3.6,2.2-3.7,4.4l-1.3,23.9c-0.2,3.8,1.5,6.6-2.2,6.8c-0.1,0-0.2,0-0.4,0
			c-4.6,0.7-8.6-0.8-11.8-4.6c-5.1-5.9-7.3-16.3-6.3-22.4c0.1-0.9-0.1-1.8-0.8-2.4c-0.2-0.2-0.5-0.6-0.8-0.9
			C133.6,63.4,111.2,55,81.8,55c-8.1,0-16.8,0.7-25.9,2c-1.3,0.2-2.3,1.2-2.5,2.5c-0.2,1.3,0.6,2.6,1.8,3.1
			c19.3,7.8,20.2,29.6,19.1,36.6c-0.2,1.4,0.6,2.8,2,3.3c19,5.9,26.4,16.1,27.6,37.8c0,0.9,0.5,1.7,1.2,2.2c0.7,0.5,1.7,0.7,2.5,0.4
			c5.2-1.6,10.1-2.4,14.8-2.4c21.8,0,29.8,17.1,31.2,20.6c0.5,1.3,1.8,2,3.2,1.8c1.5-0.2,2.9-0.4,4.3-0.4c3.5,0,16,0.9,18.7,2.1
			c4.4,3.5,7.9,7.5,10.6,11.7c0.9,1.4,2.3,2.2,4,2.2v-20.1H185.8L185.8,158.4z M164.3,117.2v33.1c0,0.4-0.2,0.6-0.5,0.8
			c-0.3,0.1-0.7,0-0.9-0.2c-9.4-10.9-16.6-23-20.8-37.1c-3.4-11.3-4.4-22.6-4.6-34.2c0-0.3,0.2-0.6,0.5-0.8c0.3-0.1,0.6-0.1,0.9,0.1
			c1.7,1.5,3.3,3.1,4.8,4.8c0.2,0.2,0.2,0.4,0.2,0.6c-0.3,3.9,0.3,8.1,1.2,11.9c1.2,4.8,3.4,9.7,6.7,13.5c3.1,3.7,7.2,6.1,11.9,6.7
			C164,116.5,164.3,116.8,164.3,117.2L164.3,117.2z M134.2,116.2c2.4,8.1,5.8,15.7,10,22.8c0.2,0.3,0.1,0.7-0.1,1
			c-0.3,0.3-0.7,0.3-1,0.1c-6.1-3.7-13.1-5.5-20.6-5.5c-3.9,0-7.7,0.5-11.5,1.3c-0.3,0.1-0.5,0-0.7-0.2c-0.2-0.2-0.3-0.4-0.3-0.7
			c1.2-11.2,3.6-22.4,7.5-32.9c2.7-7.2,6.1-14.1,10.4-20.5c0.2-0.3,0.6-0.4,0.9-0.3c0.4,0.1,0.6,0.4,0.6,0.8
			C129.6,93.6,130.8,104.9,134.2,116.2L134.2,116.2z M109.7,99.2c-1.9,5.1-3.5,10.3-4.7,15.5c-0.1,0.3-0.3,0.6-0.7,0.6
			c-0.3,0.1-0.7-0.1-0.8-0.4c-4.5-7.8-11.4-12.8-20.4-16.4c-0.3-0.1-0.4-0.3-0.5-0.6c-0.1-0.3,0-0.5,0.2-0.7
			c5.7-7,12.4-13,20.3-17.5c6-3.4,12.4-5.6,19-6.9c0.3-0.1,0.7,0.1,0.8,0.4c0.2,0.3,0.2,0.6,0,0.9C117.4,81.9,113.1,90.3,109.7,99.2
			L109.7,99.2z M81.2,86.7c-0.2,0.2-0.5,0.3-0.8,0.2c-0.3-0.1-0.5-0.3-0.6-0.6c-0.4-2.4-1-4.8-1.8-7.1c-2.2-6.5-5.8-12.1-10.8-16.3
			c-0.3-0.2-0.4-0.6-0.3-0.9c0.1-0.3,0.4-0.5,0.7-0.6c4.7-0.4,9.5-0.6,14.2-0.6c10.5,0,21.3,1.1,31.5,4.2c0.4,0.1,0.6,0.4,0.6,0.8
			c0,0.4-0.2,0.7-0.6,0.8c-4.9,1.5-9.7,3.5-14.3,6.1C92.4,76.4,86.5,81.2,81.2,86.7z"/>
		<path class="st7" d="M185.8,264.5V256h8.5l-6.1-65.6c-0.1-1.5,0-0.8-1.4-0.8c-1.7,0-3.3-0.9-4.2-2.4l-1.9-3.3
			c-1.1-1.9-3.2-2.8-5.3-2.3c-2.1,0.5-3.6,2.2-3.7,4.4l-1.3,23.9c-0.2,3.8,1.5,6.6-2.2,6.8c-0.1,0-0.2,0-0.4,0
			c-4.6,0.7-8.6-0.8-11.8-4.6c-5.1-5.9-7.3-16.3-6.3-22.4c0.1-0.9-0.1-1.8-0.8-2.4c-0.2-0.2-0.5-0.6-0.8-0.9
			c-14.7-16.7-37-25.2-66.4-25.2c-8.1,0-16.8,0.7-25.9,2c-1.3,0.2-2.3,1.2-2.5,2.5c-0.2,1.3,0.6,2.6,1.8,3.1
			c19.3,7.8,20.2,29.6,19.1,36.6c-0.2,1.4,0.6,2.8,2,3.3c19,5.9,26.4,16.1,27.6,37.8c0,0.9,0.5,1.7,1.2,2.2c0.7,0.5,1.7,0.7,2.5,0.4
			c5.2-1.6,10.1-2.4,14.8-2.4c21.8,0,29.8,17.1,31.2,20.6c0.5,1.3,1.8,2,3.2,1.8c1.5-0.2,2.9-0.4,4.3-0.4c3.5,0,16,0.9,18.7,2.1
			c4.4,3.5,7.9,7.5,10.6,11.7c0.9,1.4,2.3,2.2,4,2.2v-20.1H185.8L185.8,264.5z M164.3,223.4v33.1c0,0.4-0.2,0.6-0.5,0.8
			c-0.3,0.1-0.7,0-0.9-0.2c-9.4-10.9-16.6-23-20.8-37.1c-3.4-11.3-4.4-22.6-4.6-34.2c0-0.3,0.2-0.6,0.5-0.8c0.3-0.1,0.6-0.1,0.9,0.1
			c1.7,1.5,3.3,3.1,4.8,4.8c0.2,0.2,0.2,0.4,0.2,0.6c-0.3,3.9,0.3,8.1,1.2,11.9c1.2,4.8,3.4,9.7,6.7,13.5c3.1,3.7,7.2,6.1,11.9,6.7
			C164,222.6,164.3,222.9,164.3,223.4L164.3,223.4z M134.2,222.3c2.4,8.1,5.8,15.7,10,22.8c0.2,0.3,0.1,0.7-0.1,1
			c-0.3,0.3-0.7,0.3-1,0.1c-6.1-3.7-13.1-5.5-20.6-5.5c-3.9,0-7.7,0.5-11.5,1.3c-0.3,0.1-0.5,0-0.7-0.2c-0.2-0.2-0.3-0.4-0.3-0.7
			c1.2-11.2,3.6-22.4,7.5-32.9c2.7-7.2,6.1-14.1,10.4-20.5c0.2-0.3,0.6-0.4,0.9-0.3c0.4,0.1,0.6,0.4,0.6,0.8
			C129.6,199.7,130.8,211,134.2,222.3L134.2,222.3z M109.7,205.3c-1.9,5.1-3.5,10.3-4.7,15.5c-0.1,0.3-0.3,0.6-0.7,0.6
			c-0.3,0.1-0.7-0.1-0.8-0.4c-4.5-7.8-11.4-12.8-20.4-16.4c-0.3-0.1-0.4-0.3-0.5-0.6c-0.1-0.3,0-0.5,0.2-0.7
			c5.7-7,12.4-13,20.3-17.5c6-3.4,12.4-5.6,19-6.9c0.3-0.1,0.7,0.1,0.8,0.4c0.2,0.3,0.2,0.6,0,0.9
			C117.4,188,113.1,196.4,109.7,205.3L109.7,205.3z M81.2,192.8c-0.2,0.2-0.5,0.3-0.8,0.2c-0.3-0.1-0.5-0.3-0.6-0.6
			c-0.4-2.4-1-4.8-1.8-7.1c-2.2-6.5-5.8-12.1-10.8-16.3c-0.3-0.2-0.4-0.6-0.3-0.9c0.1-0.3,0.4-0.5,0.7-0.6c4.7-0.4,9.5-0.6,14.2-0.6
			c10.5,0,21.3,1.1,31.5,4.2c0.4,0.1,0.6,0.4,0.6,0.8c0,0.4-0.2,0.7-0.6,0.8c-4.9,1.5-9.7,3.5-14.3,6.1
			C92.4,182.5,86.5,187.3,81.2,192.8z"/>
		<path class="st7" d="M185.8,370v-8.5h8.5l-6.1-65.6c-0.1-1.5,0-0.8-1.4-0.8c-1.7,0-3.3-0.9-4.2-2.4l-1.9-3.3
			c-1.1-1.9-3.2-2.8-5.3-2.3c-2.1,0.5-3.6,2.2-3.7,4.4l-1.3,23.9c-0.2,3.8,1.5,6.6-2.2,6.8c-0.1,0-0.2,0-0.4,0
			c-4.6,0.7-8.6-0.8-11.8-4.6c-5.1-5.9-7.3-16.3-6.3-22.4c0.1-0.9-0.1-1.8-0.8-2.4c-0.2-0.2-0.5-0.6-0.8-0.9
			c-14.7-16.7-37-25.2-66.4-25.2c-8.1,0-16.8,0.7-25.9,2c-1.3,0.2-2.3,1.2-2.5,2.5c-0.2,1.3,0.6,2.6,1.8,3.1
			c19.3,7.8,20.2,29.6,19.1,36.6c-0.2,1.4,0.6,2.8,2,3.3c19,5.9,26.4,16.1,27.6,37.8c0,0.9,0.5,1.7,1.2,2.2c0.7,0.5,1.7,0.7,2.5,0.4
			c5.2-1.6,10.1-2.4,14.8-2.4c21.8,0,29.8,17.1,31.2,20.6c0.5,1.3,1.8,2,3.2,1.8c1.5-0.2,2.9-0.4,4.3-0.4c3.5,0,16,0.9,18.7,2.1
			c4.4,3.5,7.9,7.5,10.6,11.7c0.9,1.4,2.3,2.2,4,2.2V370H185.8L185.8,370z M164.3,328.8v33.1c0,0.4-0.2,0.6-0.5,0.8
			c-0.3,0.1-0.7,0-0.9-0.2c-9.4-10.9-16.6-23-20.8-37.1c-3.4-11.3-4.4-22.6-4.6-34.2c0-0.3,0.2-0.6,0.5-0.8c0.3-0.1,0.6-0.1,0.9,0.1
			c1.7,1.5,3.3,3.1,4.8,4.8c0.2,0.2,0.2,0.4,0.2,0.6c-0.3,3.9,0.3,8.1,1.2,11.9c1.2,4.8,3.4,9.7,6.7,13.5c3.1,3.7,7.2,6.1,11.9,6.7
			C164,328.1,164.3,328.4,164.3,328.8L164.3,328.8z M134.2,327.8c2.4,8.1,5.8,15.7,10,22.8c0.2,0.3,0.1,0.7-0.1,1
			c-0.3,0.3-0.7,0.3-1,0.1c-6.1-3.7-13.1-5.5-20.6-5.5c-3.9,0-7.7,0.5-11.5,1.3c-0.3,0.1-0.5,0-0.7-0.2c-0.2-0.2-0.3-0.4-0.3-0.7
			c1.2-11.2,3.6-22.4,7.5-32.9c2.7-7.2,6.1-14.1,10.4-20.5c0.2-0.3,0.6-0.4,0.9-0.3c0.4,0.1,0.6,0.4,0.6,0.8
			C129.6,305.2,130.8,316.5,134.2,327.8L134.2,327.8z M109.7,310.8c-1.9,5.1-3.5,10.3-4.7,15.5c-0.1,0.3-0.3,0.6-0.7,0.6
			c-0.3,0.1-0.7-0.1-0.8-0.4c-4.5-7.8-11.4-12.8-20.4-16.4c-0.3-0.1-0.4-0.3-0.5-0.6c-0.1-0.3,0-0.5,0.2-0.7
			c5.7-7,12.4-13,20.3-17.5c6-3.4,12.4-5.6,19-6.9c0.3-0.1,0.7,0.1,0.8,0.4c0.2,0.3,0.2,0.6,0,0.9
			C117.4,293.5,113.1,301.9,109.7,310.8L109.7,310.8z M81.2,298.3c-0.2,0.2-0.5,0.3-0.8,0.2c-0.3-0.1-0.5-0.3-0.6-0.6
			c-0.4-2.4-1-4.8-1.8-7.1c-2.2-6.5-5.8-12.1-10.8-16.3c-0.3-0.2-0.4-0.6-0.3-0.9c0.1-0.3,0.4-0.5,0.7-0.6c4.7-0.4,9.5-0.6,14.2-0.6
			c10.5,0,21.3,1.1,31.5,4.2c0.4,0.1,0.6,0.4,0.6,0.8c0,0.4-0.2,0.7-0.6,0.8c-4.9,1.5-9.7,3.5-14.3,6.1
			C92.4,288,86.5,292.8,81.2,298.3z"/>
		<path class="st7" d="M366.9,158.4v-8.5h-8.5l6.1-65.6c0.1-1.5,0-0.8,1.4-0.8c1.7,0,3.3-0.9,4.2-2.4l1.9-3.3
			c1.1-1.9,3.2-2.8,5.3-2.3c2.1,0.5,3.6,2.2,3.7,4.4l1.3,23.9c0.2,3.8-1.5,6.6,2.2,6.8c0.1,0,0.2,0,0.4,0c4.6,0.7,8.6-0.8,11.8-4.6
			c5.1-5.9,7.3-16.3,6.3-22.4c-0.1-0.9,0.1-1.8,0.8-2.4c0.2-0.2,0.5-0.6,0.8-0.9c14.7-16.7,37-25.2,66.4-25.2c8.1,0,16.8,0.7,25.9,2
			c1.3,0.2,2.3,1.2,2.5,2.5c0.2,1.3-0.6,2.6-1.8,3.1c-19.3,7.8-20.2,29.6-19.1,36.6c0.2,1.4-0.6,2.8-2,3.3
			c-19,5.9-26.4,16.1-27.6,37.8c0,0.9-0.5,1.7-1.2,2.2c-0.7,0.5-1.7,0.7-2.5,0.4c-5.2-1.6-10.1-2.4-14.8-2.4
			c-21.8,0-29.8,17.1-31.2,20.6c-0.5,1.3-1.8,2-3.2,1.8c-1.5-0.2-2.9-0.4-4.3-0.4c-3.5,0-16,0.9-18.7,2.1
			c-4.4,3.5-7.9,7.5-10.6,11.7c-0.9,1.4-2.3,2.2-4,2.2v-20.1H366.9L366.9,158.4z M388.5,117.2v33.1c0,0.4,0.2,0.6,0.5,0.8
			c0.3,0.1,0.7,0,0.9-0.2c9.4-10.9,16.6-23,20.8-37.1c3.4-11.3,4.4-22.6,4.6-34.2c0-0.3-0.2-0.6-0.5-0.8c-0.3-0.1-0.6-0.1-0.9,0.1
			c-1.7,1.5-3.3,3.1-4.8,4.8c-0.2,0.2-0.2,0.4-0.2,0.6c0.3,3.9-0.3,8.1-1.2,11.9c-1.2,4.8-3.4,9.7-6.7,13.5
			c-3.1,3.7-7.2,6.1-11.9,6.7C388.8,116.5,388.5,116.8,388.5,117.2L388.5,117.2z M418.6,116.2c-2.4,8.1-5.8,15.7-10,22.8
			c-0.2,0.3-0.1,0.7,0.1,1c0.3,0.3,0.7,0.3,1,0.1c6.1-3.7,13.1-5.5,20.6-5.5c3.9,0,7.7,0.5,11.5,1.3c0.3,0.1,0.5,0,0.7-0.2
			c0.2-0.2,0.3-0.4,0.3-0.7c-1.2-11.2-3.6-22.4-7.5-32.9c-2.7-7.2-6.1-14.1-10.4-20.5c-0.2-0.3-0.6-0.4-0.9-0.3
			c-0.4,0.1-0.6,0.4-0.6,0.8C423.2,93.6,422,104.9,418.6,116.2L418.6,116.2z M443,99.2c1.9,5.1,3.5,10.3,4.7,15.5
			c0.1,0.3,0.3,0.6,0.7,0.6c0.3,0.1,0.7-0.1,0.8-0.4c4.5-7.8,11.4-12.8,20.4-16.4c0.3-0.1,0.4-0.3,0.5-0.6c0.1-0.3,0-0.5-0.2-0.7
			c-5.7-7-12.4-13-20.3-17.5c-6-3.4-12.4-5.6-19-6.9c-0.3-0.1-0.7,0.1-0.8,0.4c-0.2,0.3-0.2,0.6,0,0.9
			C435.3,81.9,439.7,90.3,443,99.2L443,99.2z M471.6,86.7c0.2,0.2,0.5,0.3,0.8,0.2c0.3-0.1,0.5-0.3,0.6-0.6c0.4-2.4,1-4.8,1.8-7.1
			c2.2-6.5,5.8-12.1,10.8-16.3c0.3-0.2,0.4-0.6,0.3-0.9c-0.1-0.3-0.4-0.5-0.7-0.6c-4.7-0.4-9.5-0.6-14.2-0.6
			c-10.5,0-21.3,1.1-31.5,4.2c-0.4,0.1-0.6,0.4-0.6,0.8c0,0.4,0.2,0.7,0.6,0.8c4.9,1.5,9.7,3.5,14.3,6.1
			C460.4,76.4,466.3,81.2,471.6,86.7z"/>
		<path class="st7" d="M375,264.5V256h-8.5l6.1-65.6c0.1-1.5,0-0.8,1.4-0.8c1.7,0,3.3-0.9,4.2-2.4l1.9-3.3c1.1-1.9,3.2-2.8,5.3-2.3
			c2.1,0.5,3.6,2.2,3.7,4.4l1.3,23.9c0.2,3.8-1.5,6.6,2.2,6.8c0.1,0,0.2,0,0.4,0c4.6,0.7,8.6-0.8,11.8-4.6
			c5.1-5.9,7.3-16.3,6.3-22.4c-0.1-0.9,0.1-1.8,0.8-2.4c0.2-0.2,0.5-0.6,0.8-0.9c14.7-16.7,37-25.2,66.4-25.2c8.1,0,16.8,0.7,25.9,2
			c1.3,0.2,2.3,1.2,2.5,2.5c0.2,1.3-0.6,2.6-1.8,3.1c-19.3,7.8-20.2,29.6-19.1,36.6c0.2,1.4-0.6,2.8-2,3.3
			c-19,5.9-26.4,16.1-27.6,37.8c0,0.9-0.5,1.7-1.2,2.2c-0.7,0.5-1.7,0.7-2.5,0.4c-5.2-1.6-10.1-2.4-14.8-2.4
			c-21.8,0-29.8,17.1-31.2,20.6c-0.5,1.3-1.8,2-3.2,1.8c-1.5-0.2-2.9-0.4-4.3-0.4c-3.5,0-16,0.9-18.7,2.1
			c-4.4,3.5-7.9,7.5-10.6,11.7c-0.9,1.4-2.3,2.2-4,2.2v-20.1H375L375,264.5z M396.5,223.4v33.1c0,0.4,0.2,0.6,0.5,0.8
			c0.3,0.1,0.7,0,0.9-0.2c9.4-10.9,16.6-23,20.8-37.1c3.4-11.3,4.4-22.6,4.6-34.2c0-0.3-0.2-0.6-0.5-0.8c-0.3-0.1-0.6-0.1-0.9,0.1
			c-1.7,1.5-3.3,3.1-4.8,4.8c-0.2,0.2-0.2,0.4-0.2,0.6c0.3,3.9-0.3,8.1-1.2,11.9c-1.2,4.8-3.4,9.7-6.7,13.5
			c-3.1,3.7-7.2,6.1-11.9,6.7C396.8,222.6,396.5,222.9,396.5,223.4L396.5,223.4z M426.6,222.3c-2.4,8.1-5.8,15.7-10,22.8
			c-0.2,0.3-0.1,0.7,0.1,1c0.3,0.3,0.7,0.3,1,0.1c6.1-3.7,13.1-5.5,20.6-5.5c3.9,0,7.7,0.5,11.5,1.3c0.3,0.1,0.5,0,0.7-0.2
			c0.2-0.2,0.3-0.4,0.3-0.7c-1.2-11.2-3.6-22.4-7.5-32.9c-2.7-7.2-6.1-14.1-10.4-20.5c-0.2-0.3-0.6-0.4-0.9-0.3
			c-0.4,0.1-0.6,0.4-0.6,0.8C431.2,199.7,430,211,426.6,222.3L426.6,222.3z M451.1,205.3c1.9,5.1,3.5,10.3,4.7,15.5
			c0.1,0.3,0.3,0.6,0.7,0.6c0.3,0.1,0.7-0.1,0.8-0.4c4.5-7.8,11.4-12.8,20.4-16.4c0.3-0.1,0.4-0.3,0.5-0.6c0.1-0.3,0-0.5-0.2-0.7
			c-5.7-7-12.4-13-20.3-17.5c-6-3.4-12.4-5.6-19-6.9c-0.3-0.1-0.7,0.1-0.8,0.4c-0.2,0.3-0.2,0.6,0,0.9
			C443.4,188,447.7,196.4,451.1,205.3L451.1,205.3z M479.6,192.8c0.2,0.2,0.5,0.3,0.8,0.2c0.3-0.1,0.5-0.3,0.6-0.6
			c0.4-2.4,1-4.8,1.8-7.1c2.2-6.5,5.8-12.1,10.8-16.3c0.3-0.2,0.4-0.6,0.3-0.9c-0.1-0.3-0.4-0.5-0.7-0.6c-4.7-0.4-9.5-0.6-14.2-0.6
			c-10.5,0-21.3,1.1-31.5,4.2c-0.4,0.1-0.6,0.4-0.6,0.8c0,0.4,0.2,0.7,0.6,0.8c4.9,1.5,9.7,3.5,14.3,6.1
			C468.4,182.5,474.3,187.3,479.6,192.8z"/>
		<path class="st7" d="M375,370v-8.5h-8.5l6.1-65.6c0.1-1.5,0-0.8,1.4-0.8c1.7,0,3.3-0.9,4.2-2.4l1.9-3.3c1.1-1.9,3.2-2.8,5.3-2.3
			c2.1,0.5,3.6,2.2,3.7,4.4l1.3,23.9c0.2,3.8-1.5,6.6,2.2,6.8c0.1,0,0.2,0,0.4,0c4.6,0.7,8.6-0.8,11.8-4.6
			c5.1-5.9,7.3-16.3,6.3-22.4c-0.1-0.9,0.1-1.8,0.8-2.4c0.2-0.2,0.5-0.6,0.8-0.9c14.7-16.7,37-25.2,66.4-25.2c8.1,0,16.8,0.7,25.9,2
			c1.3,0.2,2.3,1.2,2.5,2.5c0.2,1.3-0.6,2.6-1.8,3.1c-19.3,7.8-20.2,29.6-19.1,36.6c0.2,1.4-0.6,2.8-2,3.3
			c-19,5.9-26.4,16.1-27.6,37.8c0,0.9-0.5,1.7-1.2,2.2c-0.7,0.5-1.7,0.7-2.5,0.4c-5.2-1.6-10.1-2.4-14.8-2.4
			c-21.8,0-29.8,17.1-31.2,20.6c-0.5,1.3-1.8,2-3.2,1.8c-1.5-0.2-2.9-0.4-4.3-0.4c-3.5,0-16,0.9-18.7,2.1
			c-4.4,3.5-7.9,7.5-10.6,11.7c-0.9,1.4-2.3,2.2-4,2.2V370H375L375,370z M396.5,328.8v33.1c0,0.4,0.2,0.6,0.5,0.8
			c0.3,0.1,0.7,0,0.9-0.2c9.4-10.9,16.6-23,20.8-37.1c3.4-11.3,4.4-22.6,4.6-34.2c0-0.3-0.2-0.6-0.5-0.8c-0.3-0.1-0.6-0.1-0.9,0.1
			c-1.7,1.5-3.3,3.1-4.8,4.8c-0.2,0.2-0.2,0.4-0.2,0.6c0.3,3.9-0.3,8.1-1.2,11.9c-1.2,4.8-3.4,9.7-6.7,13.5
			c-3.1,3.7-7.2,6.1-11.9,6.7C396.8,328.1,396.5,328.4,396.5,328.8L396.5,328.8z M426.6,327.8c-2.4,8.1-5.8,15.7-10,22.8
			c-0.2,0.3-0.1,0.7,0.1,1c0.3,0.3,0.7,0.3,1,0.1c6.1-3.7,13.1-5.5,20.6-5.5c3.9,0,7.7,0.5,11.5,1.3c0.3,0.1,0.5,0,0.7-0.2
			c0.2-0.2,0.3-0.4,0.3-0.7c-1.2-11.2-3.6-22.4-7.5-32.9c-2.7-7.2-6.1-14.1-10.4-20.5c-0.2-0.3-0.6-0.4-0.9-0.3
			c-0.4,0.1-0.6,0.4-0.6,0.8C431.2,305.2,430,316.5,426.6,327.8L426.6,327.8z M451.1,310.8c1.9,5.1,3.5,10.3,4.7,15.5
			c0.1,0.3,0.3,0.6,0.7,0.6c0.3,0.1,0.7-0.1,0.8-0.4c4.5-7.8,11.4-12.8,20.4-16.4c0.3-0.1,0.4-0.3,0.5-0.6c0.1-0.3,0-0.5-0.2-0.7
			c-5.7-7-12.4-13-20.3-17.5c-6-3.4-12.4-5.6-19-6.9c-0.3-0.1-0.7,0.1-0.8,0.4c-0.2,0.3-0.2,0.6,0,0.9
			C443.4,293.5,447.7,301.9,451.1,310.8L451.1,310.8z M479.6,298.3c0.2,0.2,0.5,0.3,0.8,0.2c0.3-0.1,0.5-0.3,0.6-0.6
			c0.4-2.4,1-4.8,1.8-7.1c2.2-6.5,5.8-12.1,10.8-16.3c0.3-0.2,0.4-0.6,0.3-0.9c-0.1-0.3-0.4-0.5-0.7-0.6c-4.7-0.4-9.5-0.6-14.2-0.6
			c-10.5,0-21.3,1.1-31.5,4.2c-0.4,0.1-0.6,0.4-0.6,0.8c0,0.4,0.2,0.7,0.6,0.8c4.9,1.5,9.7,3.5,14.3,6.1
			C468.4,288,474.3,292.8,479.6,298.3z"/>
	</g>
	<g>
		<polygon class="st7" points="919.7,164.9 916.9,169 915.4,171 909.6,177.5 905.1,181.8 902.2,184.1 897.1,187.8 892.8,180.3 
			885.2,184.7 889.5,192.2 887.3,193.2 882.7,195.2 878,196.8 873.2,198.1 869.6,198.9 864.6,199.7 859.7,200.1 853.5,200.3 
			847.3,199.8 842.3,199.2 837.5,198.1 833.9,197.2 830.3,196 824.5,193.8 821.1,192.2 825.5,184.7 817.9,180.3 813.5,187.8 
			807.5,183.4 803.7,180.1 801.9,178.4 797.7,173.9 794.6,170 791,164.9 787.9,159.5 784.8,152.7 783.9,150.4 782.3,145.7 
			781.1,140.8 779.9,134.7 779.3,128.5 788,128.5 788,119.7 779.3,119.7 779.8,114.8 780.8,108.7 781.6,105 783.9,97.9 786.3,92.1 
			789.1,86.6 791.7,82.4 796.1,76.3 801.1,70.8 806.5,65.7 813.5,60.5 817.9,68 825.5,63.6 821.1,56.1 826.8,53.6 831.5,51.8 
			837.5,50.1 842.3,49.1 844.8,48.7 849.7,48.2 858.4,48.1 864.6,48.6 868.3,49.1 874.4,50.4 878,51.5 881.5,52.7 885,54 
			889.5,56.1 885.2,63.6 892.8,68 897.1,60.5 902.2,64.1 905.1,66.5 907.9,69 910.5,71.7 914.6,76.3 917.6,80.3 920.3,84.5 
			923.3,89.9 925.9,95.6 927.2,99.1 929,105 929.6,107.4 930.7,113.6 931.3,119.7 922.7,119.7 922.7,128.5 931.3,128.5 930.5,136 
			929.9,139.6 928.4,145.7 926.4,151.6 924.4,156.1 923.3,158.4 		"/>
		<path class="st7" d="M761.8,156.3v-8.8h8.8l-6.3-67.7c-0.1-1.5,0-0.9-1.4-0.9c-1.8,0-3.4-0.9-4.3-2.5l-1.9-3.4
			c-1.1-1.9-3.3-2.9-5.4-2.4c-2.2,0.5-3.7,2.3-3.8,4.5L746,99.9c-0.2,3.9,1.5,6.8-2.2,7c-0.1,0-0.2,0-0.4,0
			c-4.8,0.7-8.9-0.9-12.2-4.8c-5.3-6.1-7.5-16.8-6.5-23.2c0.1-0.9-0.2-1.8-0.8-2.5c-0.2-0.2-0.5-0.6-0.9-1
			c-15.1-17.2-38.2-26-68.6-26c-8.4,0-17.4,0.7-26.7,2c-1.4,0.2-2.4,1.3-2.6,2.6c-0.2,1.4,0.6,2.6,1.9,3.2
			c19.9,8,20.9,30.6,19.7,37.8c-0.2,1.5,0.6,2.9,2.1,3.4c19.6,6.1,27.3,16.6,28.5,39c0,0.9,0.5,1.8,1.3,2.3c0.8,0.5,1.7,0.7,2.6,0.4
			c5.3-1.6,10.5-2.5,15.2-2.5c22.5,0,30.8,17.7,32.2,21.2c0.5,1.3,1.9,2.1,3.3,1.8c1.5-0.2,3-0.4,4.4-0.4c3.6,0,16.6,0.9,19.3,2.2
			c4.5,3.6,8.1,7.7,11,12.1c0.9,1.4,2.4,2.3,4.1,2.3v-20.7H761.8L761.8,156.3z M739.6,113.8V148c0,0.4-0.2,0.7-0.6,0.8
			c-0.3,0.1-0.7,0-0.9-0.2c-9.7-11.3-17.2-23.8-21.5-38.3c-3.5-11.6-4.6-23.4-4.7-35.3c0-0.3,0.2-0.6,0.5-0.8
			c0.3-0.1,0.7-0.1,0.9,0.1c1.7,1.6,3.4,3.2,4.9,4.9c0.2,0.2,0.2,0.4,0.2,0.6c-0.3,4.1,0.3,8.4,1.3,12.3c1.3,5,3.5,10,6.9,13.9
			c3.2,3.8,7.5,6.3,12.3,6.9C739.2,113,739.6,113.4,739.6,113.8L739.6,113.8z M708.4,112.7c2.5,8.4,6,16.2,10.3,23.5
			c0.2,0.3,0.1,0.8-0.1,1c-0.3,0.3-0.7,0.3-1,0.1c-6.3-3.8-13.6-5.7-21.3-5.7c-4,0-8,0.5-11.9,1.4c-0.3,0.1-0.5,0-0.8-0.2
			c-0.2-0.2-0.3-0.4-0.3-0.7c1.3-11.6,3.7-23.1,7.8-34c2.8-7.5,6.3-14.5,10.7-21.1c0.2-0.3,0.6-0.5,0.9-0.3c0.4,0.1,0.6,0.4,0.6,0.8
			C703.7,89.4,705,101,708.4,112.7L708.4,112.7z M683.2,95.1c-2,5.2-3.6,10.6-4.9,16.1c-0.1,0.3-0.4,0.6-0.7,0.6
			c-0.4,0.1-0.7-0.1-0.9-0.4c-4.7-8-11.8-13.3-21.1-16.9c-0.3-0.1-0.4-0.3-0.5-0.6c-0.1-0.3,0-0.5,0.2-0.8c5.9-7.2,12.8-13.5,21-18
			c6.2-3.5,12.8-5.8,19.6-7.1c0.3-0.1,0.7,0.1,0.9,0.4c0.2,0.3,0.2,0.7,0,1C691.2,77.3,686.6,85.9,683.2,95.1L683.2,95.1z
			 M653.7,82.2c-0.2,0.2-0.5,0.3-0.9,0.2c-0.3-0.1-0.5-0.3-0.6-0.7c-0.4-2.5-1.1-5-1.9-7.3c-2.3-6.7-6-12.4-11.2-16.8
			c-0.3-0.2-0.4-0.6-0.3-0.9c0.1-0.3,0.4-0.6,0.7-0.6c4.9-0.4,9.8-0.7,14.7-0.7c10.9,0,22.1,1.2,32.5,4.3c0.4,0.1,0.6,0.4,0.6,0.8
			c0,0.4-0.2,0.7-0.6,0.8c-5.1,1.5-10,3.6-14.7,6.3C665.3,71.6,659.2,76.6,653.7,82.2z"/>
		<path class="st7" d="M761.8,265.9v-8.8h8.8l-6.3-67.7c-0.1-1.5,0-0.9-1.4-0.9c-1.8,0-3.4-0.9-4.3-2.5l-1.9-3.4
			c-1.1-1.9-3.3-2.9-5.4-2.4c-2.2,0.5-3.7,2.3-3.8,4.5l-1.4,24.7c-0.2,3.9,1.5,6.8-2.2,7c-0.1,0-0.2,0-0.4,0
			c-4.8,0.7-8.9-0.9-12.2-4.8c-5.3-6.1-7.5-16.8-6.5-23.2c0.1-0.9-0.2-1.8-0.8-2.5c-0.2-0.2-0.5-0.6-0.9-1
			c-15.1-17.2-38.2-26-68.6-26c-8.4,0-17.4,0.7-26.7,2c-1.4,0.2-2.4,1.3-2.6,2.6c-0.2,1.4,0.6,2.6,1.9,3.2
			c19.9,8,20.9,30.6,19.7,37.8c-0.2,1.5,0.6,2.9,2.1,3.4c19.6,6.1,27.3,16.6,28.5,39c0,0.9,0.5,1.8,1.3,2.3c0.8,0.5,1.7,0.7,2.6,0.4
			c5.3-1.6,10.5-2.5,15.2-2.5c22.5,0,30.8,17.7,32.2,21.2c0.5,1.3,1.9,2.1,3.3,1.8c1.5-0.2,3-0.4,4.4-0.4c3.6,0,16.6,0.9,19.3,2.2
			c4.5,3.6,8.1,7.7,11,12.1c0.9,1.4,2.4,2.3,4.1,2.3v-20.7H761.8L761.8,265.9z M739.6,223.4v34.2c0,0.4-0.2,0.7-0.6,0.8
			c-0.3,0.1-0.7,0-0.9-0.2c-9.7-11.3-17.2-23.8-21.5-38.3c-3.5-11.6-4.6-23.4-4.7-35.3c0-0.3,0.2-0.6,0.5-0.8
			c0.3-0.1,0.7-0.1,0.9,0.1c1.7,1.6,3.4,3.2,4.9,4.9c0.2,0.2,0.2,0.4,0.2,0.6c-0.3,4.1,0.3,8.4,1.3,12.3c1.3,5,3.5,10,6.9,13.9
			c3.2,3.8,7.5,6.3,12.3,6.9C739.2,222.6,739.6,223,739.6,223.4L739.6,223.4z M708.4,222.3c2.5,8.4,6,16.2,10.3,23.5
			c0.2,0.3,0.1,0.8-0.1,1c-0.3,0.3-0.7,0.3-1,0.1c-6.3-3.8-13.6-5.7-21.3-5.7c-4,0-8,0.5-11.9,1.4c-0.3,0.1-0.5,0-0.8-0.2
			c-0.2-0.2-0.3-0.4-0.3-0.7c1.3-11.6,3.7-23.1,7.8-34c2.8-7.5,6.3-14.5,10.7-21.1c0.2-0.3,0.6-0.5,0.9-0.3c0.4,0.1,0.6,0.4,0.6,0.8
			C703.7,199,705,210.6,708.4,222.3L708.4,222.3z M683.2,204.7c-2,5.2-3.6,10.6-4.9,16.1c-0.1,0.3-0.4,0.6-0.7,0.6
			c-0.4,0.1-0.7-0.1-0.9-0.4c-4.7-8-11.8-13.3-21.1-16.9c-0.3-0.1-0.4-0.3-0.5-0.6c-0.1-0.3,0-0.5,0.2-0.8c5.9-7.2,12.8-13.5,21-18
			c6.2-3.5,12.8-5.8,19.6-7.1c0.3-0.1,0.7,0.1,0.9,0.4c0.2,0.3,0.2,0.7,0,1C691.2,186.9,686.6,195.6,683.2,204.7L683.2,204.7z
			 M653.7,191.8c-0.2,0.2-0.5,0.3-0.9,0.2c-0.3-0.1-0.5-0.3-0.6-0.7c-0.4-2.5-1.1-5-1.9-7.3c-2.3-6.7-6-12.4-11.2-16.8
			c-0.3-0.2-0.4-0.6-0.3-0.9c0.1-0.3,0.4-0.6,0.7-0.6c4.9-0.4,9.8-0.7,14.7-0.7c10.9,0,22.1,1.2,32.5,4.3c0.4,0.1,0.6,0.4,0.6,0.8
			c0,0.4-0.2,0.7-0.6,0.8c-5.1,1.5-10,3.6-14.7,6.3C665.3,181.2,659.2,186.2,653.7,191.8z"/>
		<path class="st7" d="M761.8,374.9v-8.8h8.8l-6.3-67.7c-0.1-1.5,0-0.9-1.4-0.9c-1.8,0-3.4-0.9-4.3-2.5l-1.9-3.4
			c-1.1-1.9-3.3-2.9-5.4-2.4c-2.2,0.5-3.7,2.3-3.8,4.5l-1.4,24.7c-0.2,3.9,1.5,6.8-2.2,7c-0.1,0-0.2,0-0.4,0
			c-4.8,0.7-8.9-0.9-12.2-4.8c-5.3-6.1-7.5-16.8-6.5-23.2c0.1-0.9-0.2-1.8-0.8-2.5c-0.2-0.2-0.5-0.6-0.9-1
			c-15.1-17.2-38.2-26-68.6-26c-8.4,0-17.4,0.7-26.7,2c-1.4,0.2-2.4,1.3-2.6,2.6c-0.2,1.4,0.6,2.6,1.9,3.2
			c19.9,8,20.9,30.6,19.7,37.8c-0.2,1.5,0.6,2.9,2.1,3.4c19.6,6.1,27.3,16.6,28.5,39c0,0.9,0.5,1.8,1.3,2.3c0.8,0.5,1.7,0.7,2.6,0.4
			c5.3-1.6,10.5-2.5,15.2-2.5c22.5,0,30.8,17.7,32.2,21.2c0.5,1.3,1.9,2.1,3.3,1.8c1.5-0.2,3-0.4,4.4-0.4c3.6,0,16.6,0.9,19.3,2.2
			c4.5,3.6,8.1,7.7,11,12.1c0.9,1.4,2.4,2.3,4.1,2.3v-20.7H761.8L761.8,374.9z M739.6,332.4v34.2c0,0.4-0.2,0.7-0.6,0.8
			c-0.3,0.1-0.7,0-0.9-0.2c-9.7-11.3-17.2-23.8-21.5-38.3c-3.5-11.6-4.6-23.4-4.7-35.3c0-0.3,0.2-0.6,0.5-0.8
			c0.3-0.1,0.7-0.1,0.9,0.1c1.7,1.6,3.4,3.2,4.9,4.9c0.2,0.2,0.2,0.4,0.2,0.6c-0.3,4.1,0.3,8.4,1.3,12.3c1.3,5,3.5,10,6.9,13.9
			c3.2,3.8,7.5,6.3,12.3,6.9C739.2,331.6,739.6,331.9,739.6,332.4L739.6,332.4z M708.4,331.3c2.5,8.4,6,16.2,10.3,23.5
			c0.2,0.3,0.1,0.8-0.1,1c-0.3,0.3-0.7,0.3-1,0.1c-6.3-3.8-13.6-5.7-21.3-5.7c-4,0-8,0.5-11.9,1.4c-0.3,0.1-0.5,0-0.8-0.2
			c-0.2-0.2-0.3-0.4-0.3-0.7c1.3-11.6,3.7-23.1,7.8-34c2.8-7.5,6.3-14.5,10.7-21.1c0.2-0.3,0.6-0.5,0.9-0.3c0.4,0.1,0.6,0.4,0.6,0.8
			C703.7,307.9,705,319.6,708.4,331.3L708.4,331.3z M683.2,313.7c-2,5.2-3.6,10.6-4.9,16.1c-0.1,0.3-0.4,0.6-0.7,0.6
			c-0.4,0.1-0.7-0.1-0.9-0.4c-4.7-8-11.8-13.3-21.1-16.9c-0.3-0.1-0.4-0.3-0.5-0.6c-0.1-0.3,0-0.5,0.2-0.8c5.9-7.2,12.8-13.5,21-18
			c6.2-3.5,12.8-5.8,19.6-7.1c0.3-0.1,0.7,0.1,0.9,0.4c0.2,0.3,0.2,0.7,0,1C691.2,295.9,686.6,304.5,683.2,313.7L683.2,313.7z
			 M653.7,300.8c-0.2,0.2-0.5,0.3-0.9,0.2c-0.3-0.1-0.5-0.3-0.6-0.7c-0.4-2.5-1.1-5-1.9-7.3c-2.3-6.7-6-12.4-11.2-16.8
			c-0.3-0.2-0.4-0.6-0.3-0.9c0.1-0.3,0.4-0.6,0.7-0.6c4.9-0.4,9.8-0.7,14.7-0.7c10.9,0,22.1,1.2,32.5,4.3c0.4,0.1,0.6,0.4,0.6,0.8
			c0,0.4-0.2,0.7-0.6,0.8c-5.1,1.5-10,3.6-14.7,6.3C665.3,290.2,659.2,295.2,653.7,300.8z"/>
		<path class="st7" d="M948.9,156.3v-8.8h-8.8l6.3-67.7c0.1-1.5,0-0.9,1.4-0.9c1.8,0,3.4-0.9,4.3-2.5l1.9-3.4
			c1.1-1.9,3.3-2.9,5.4-2.4c2.2,0.5,3.7,2.3,3.8,4.5l1.4,24.7c0.2,3.9-1.5,6.8,2.2,7c0.1,0,0.2,0,0.4,0c4.8,0.7,8.9-0.9,12.2-4.8
			c5.3-6.1,7.5-16.8,6.5-23.2c-0.1-0.9,0.2-1.8,0.8-2.5c0.2-0.2,0.5-0.6,0.9-1c15.1-17.2,38.2-26,68.6-26c8.4,0,17.4,0.7,26.7,2
			c1.4,0.2,2.4,1.3,2.6,2.6c0.2,1.4-0.6,2.6-1.9,3.2c-19.9,8-20.9,30.6-19.7,37.8c0.2,1.5-0.6,2.9-2.1,3.4
			c-19.6,6.1-27.3,16.6-28.5,39c0,0.9-0.5,1.8-1.3,2.3c-0.8,0.5-1.7,0.7-2.6,0.4c-5.3-1.6-10.5-2.5-15.2-2.5
			c-22.5,0-30.8,17.7-32.2,21.2c-0.5,1.3-1.9,2.1-3.3,1.8c-1.5-0.2-3-0.4-4.4-0.4c-3.6,0-16.6,0.9-19.3,2.2
			c-4.5,3.6-8.1,7.7-11,12.1c-0.9,1.4-2.4,2.3-4.1,2.3v-20.7H948.9L948.9,156.3z M971.1,113.8V148c0,0.4,0.2,0.7,0.6,0.8
			c0.3,0.1,0.7,0,0.9-0.2c9.7-11.3,17.2-23.8,21.5-38.3c3.5-11.6,4.6-23.4,4.7-35.3c0-0.3-0.2-0.6-0.5-0.8c-0.3-0.1-0.7-0.1-0.9,0.1
			c-1.7,1.6-3.4,3.2-4.9,4.9c-0.2,0.2-0.2,0.4-0.2,0.6c0.3,4.1-0.3,8.4-1.3,12.3c-1.3,5-3.5,10-6.9,13.9c-3.2,3.8-7.5,6.3-12.3,6.9
			C971.4,113,971.1,113.4,971.1,113.8L971.1,113.8z M1002.2,112.7c-2.5,8.4-6,16.2-10.3,23.5c-0.2,0.3-0.1,0.8,0.1,1
			c0.3,0.3,0.7,0.3,1,0.1c6.3-3.8,13.6-5.7,21.3-5.7c4,0,8,0.5,11.9,1.4c0.3,0.1,0.5,0,0.8-0.2c0.2-0.2,0.3-0.4,0.3-0.7
			c-1.3-11.6-3.7-23.1-7.8-34c-2.8-7.5-6.3-14.5-10.7-21.1c-0.2-0.3-0.6-0.5-0.9-0.3c-0.4,0.1-0.6,0.4-0.6,0.8
			C1007,89.4,1005.7,101,1002.2,112.7L1002.2,112.7z M1027.5,95.1c2,5.2,3.6,10.6,4.9,16.1c0.1,0.3,0.4,0.6,0.7,0.6
			c0.4,0.1,0.7-0.1,0.9-0.4c4.7-8,11.8-13.3,21.1-16.9c0.3-0.1,0.4-0.3,0.5-0.6c0.1-0.3,0-0.5-0.2-0.8c-5.9-7.2-12.8-13.5-21-18
			c-6.2-3.5-12.8-5.8-19.6-7.1c-0.3-0.1-0.7,0.1-0.9,0.4c-0.2,0.3-0.2,0.7,0,1C1019.5,77.3,1024,85.9,1027.5,95.1L1027.5,95.1z
			 M1057,82.2c0.2,0.2,0.5,0.3,0.9,0.2c0.3-0.1,0.5-0.3,0.6-0.7c0.4-2.5,1.1-5,1.9-7.3c2.3-6.7,6-12.4,11.2-16.8
			c0.3-0.2,0.4-0.6,0.3-0.9c-0.1-0.3-0.4-0.6-0.7-0.6c-4.9-0.4-9.8-0.7-14.7-0.7c-10.9,0-22.1,1.2-32.5,4.3
			c-0.4,0.1-0.6,0.4-0.6,0.8c0,0.4,0.2,0.7,0.6,0.8c5.1,1.5,10,3.6,14.7,6.3C1045.4,71.6,1051.5,76.6,1057,82.2z"/>
		<path class="st7" d="M957.2,265.9v-8.8h-8.8l6.3-67.7c0.1-1.5,0-0.9,1.4-0.9c1.8,0,3.4-0.9,4.3-2.5l1.9-3.4
			c1.1-1.9,3.3-2.9,5.4-2.4c2.2,0.5,3.7,2.3,3.8,4.5l1.4,24.7c0.2,3.9-1.5,6.8,2.2,7c0.1,0,0.2,0,0.4,0c4.8,0.7,8.9-0.9,12.2-4.8
			c5.3-6.1,7.5-16.8,6.5-23.2c-0.1-0.9,0.2-1.8,0.8-2.5c0.2-0.2,0.5-0.6,0.9-1c15.1-17.2,38.2-26,68.6-26c8.4,0,17.4,0.7,26.7,2
			c1.4,0.2,2.4,1.3,2.6,2.6c0.2,1.4-0.6,2.6-1.9,3.2c-19.9,8-20.9,30.6-19.7,37.8c0.2,1.5-0.6,2.9-2.1,3.4
			c-19.6,6.1-27.3,16.6-28.5,39c0,0.9-0.5,1.8-1.3,2.3c-0.8,0.5-1.7,0.7-2.6,0.4c-5.3-1.6-10.5-2.5-15.3-2.5
			c-22.5,0-30.8,17.7-32.2,21.2c-0.5,1.3-1.9,2.1-3.3,1.8c-1.5-0.2-3-0.4-4.4-0.4c-3.6,0-16.6,0.9-19.3,2.2
			c-4.5,3.6-8.1,7.7-11,12.1c-0.9,1.4-2.4,2.3-4.1,2.3v-20.7H957.2L957.2,265.9z M979.4,223.4v34.2c0,0.4,0.2,0.7,0.6,0.8
			c0.3,0.1,0.7,0,0.9-0.2c9.7-11.3,17.2-23.8,21.5-38.3c3.5-11.6,4.6-23.4,4.7-35.3c0-0.3-0.2-0.6-0.5-0.8c-0.3-0.1-0.7-0.1-0.9,0.1
			c-1.7,1.6-3.4,3.2-4.9,4.9c-0.2,0.2-0.2,0.4-0.2,0.6c0.3,4.1-0.3,8.4-1.3,12.3c-1.3,5-3.5,10-6.9,13.9c-3.2,3.8-7.5,6.3-12.3,6.9
			C979.7,222.6,979.4,223,979.4,223.4L979.4,223.4z M1010.6,222.3c-2.5,8.4-6,16.2-10.3,23.5c-0.2,0.3-0.1,0.8,0.1,1
			c0.3,0.3,0.7,0.3,1,0.1c6.3-3.8,13.6-5.7,21.3-5.7c4,0,8,0.5,11.9,1.4c0.3,0.1,0.5,0,0.8-0.2c0.2-0.2,0.3-0.4,0.3-0.7
			c-1.3-11.6-3.7-23.1-7.8-34c-2.8-7.5-6.3-14.5-10.7-21.1c-0.2-0.3-0.6-0.5-0.9-0.3c-0.4,0.1-0.6,0.4-0.6,0.8
			C1015.3,199,1014,210.6,1010.6,222.3L1010.6,222.3z M1035.8,204.7c2,5.2,3.6,10.6,4.9,16.1c0.1,0.3,0.4,0.6,0.7,0.6
			c0.4,0.1,0.7-0.1,0.9-0.4c4.7-8,11.8-13.3,21.1-16.9c0.3-0.1,0.4-0.3,0.5-0.6c0.1-0.3,0-0.5-0.2-0.8c-5.9-7.2-12.8-13.5-21-18
			c-6.2-3.5-12.8-5.8-19.6-7.1c-0.3-0.1-0.7,0.1-0.9,0.4c-0.2,0.3-0.2,0.7,0,1C1027.8,186.9,1032.3,195.6,1035.8,204.7L1035.8,204.7
			z M1065.3,191.8c0.2,0.2,0.5,0.3,0.9,0.2c0.3-0.1,0.5-0.3,0.6-0.7c0.4-2.5,1.1-5,1.9-7.3c2.3-6.7,6-12.4,11.2-16.8
			c0.3-0.2,0.4-0.6,0.3-0.9c-0.1-0.3-0.4-0.6-0.7-0.6c-4.9-0.4-9.8-0.7-14.7-0.7c-10.9,0-22.1,1.2-32.5,4.3
			c-0.4,0.1-0.6,0.4-0.6,0.8c0,0.4,0.2,0.7,0.6,0.8c5.1,1.5,10,3.6,14.7,6.3C1053.7,181.2,1059.8,186.2,1065.3,191.8z"/>
		<path class="st7" d="M957.2,374.9v-8.8h-8.8l6.3-67.7c0.1-1.5,0-0.9,1.4-0.9c1.8,0,3.4-0.9,4.3-2.5l1.9-3.4
			c1.1-1.9,3.3-2.9,5.4-2.4c2.2,0.5,3.7,2.3,3.8,4.5l1.4,24.7c0.2,3.9-1.5,6.8,2.2,7c0.1,0,0.2,0,0.4,0c4.8,0.7,8.9-0.9,12.2-4.8
			c5.3-6.1,7.5-16.8,6.5-23.2c-0.1-0.9,0.2-1.8,0.8-2.5c0.2-0.2,0.5-0.6,0.9-1c15.1-17.2,38.2-26,68.6-26c8.4,0,17.4,0.7,26.7,2
			c1.4,0.2,2.4,1.3,2.6,2.6c0.2,1.4-0.6,2.6-1.9,3.2c-19.9,8-20.9,30.6-19.7,37.8c0.2,1.5-0.6,2.9-2.1,3.4
			c-19.6,6.1-27.3,16.6-28.5,39c0,0.9-0.5,1.8-1.3,2.3c-0.8,0.5-1.7,0.7-2.6,0.4c-5.3-1.6-10.5-2.5-15.3-2.5
			c-22.5,0-30.8,17.7-32.2,21.2c-0.5,1.3-1.9,2.1-3.3,1.8c-1.5-0.2-3-0.4-4.4-0.4c-3.6,0-16.6,0.9-19.3,2.2
			c-4.5,3.6-8.1,7.7-11,12.1c-0.9,1.4-2.4,2.3-4.1,2.3v-20.7H957.2L957.2,374.9z M979.4,332.4v34.2c0,0.4,0.2,0.7,0.6,0.8
			c0.3,0.1,0.7,0,0.9-0.2c9.7-11.3,17.2-23.8,21.5-38.3c3.5-11.6,4.6-23.4,4.7-35.3c0-0.3-0.2-0.6-0.5-0.8c-0.3-0.1-0.7-0.1-0.9,0.1
			c-1.7,1.6-3.4,3.2-4.9,4.9c-0.2,0.2-0.2,0.4-0.2,0.6c0.3,4.1-0.3,8.4-1.3,12.3c-1.3,5-3.5,10-6.9,13.9c-3.2,3.8-7.5,6.3-12.3,6.9
			C979.7,331.6,979.4,331.9,979.4,332.4L979.4,332.4z M1010.6,331.3c-2.5,8.4-6,16.2-10.3,23.5c-0.2,0.3-0.1,0.8,0.1,1
			c0.3,0.3,0.7,0.3,1,0.1c6.3-3.8,13.6-5.7,21.3-5.7c4,0,8,0.5,11.9,1.4c0.3,0.1,0.5,0,0.8-0.2c0.2-0.2,0.3-0.4,0.3-0.7
			c-1.3-11.6-3.7-23.1-7.8-34c-2.8-7.5-6.3-14.5-10.7-21.1c-0.2-0.3-0.6-0.5-0.9-0.3c-0.4,0.1-0.6,0.4-0.6,0.8
			C1015.3,307.9,1014,319.6,1010.6,331.3L1010.6,331.3z M1035.8,313.7c2,5.2,3.6,10.6,4.9,16.1c0.1,0.3,0.4,0.6,0.7,0.6
			c0.4,0.1,0.7-0.1,0.9-0.4c4.7-8,11.8-13.3,21.1-16.9c0.3-0.1,0.4-0.3,0.5-0.6c0.1-0.3,0-0.5-0.2-0.8c-5.9-7.2-12.8-13.5-21-18
			c-6.2-3.5-12.8-5.8-19.6-7.1c-0.3-0.1-0.7,0.1-0.9,0.4c-0.2,0.3-0.2,0.7,0,1C1027.8,295.9,1032.3,304.5,1035.8,313.7L1035.8,313.7
			z M1065.3,300.8c0.2,0.2,0.5,0.3,0.9,0.2c0.3-0.1,0.5-0.3,0.6-0.7c0.4-2.5,1.1-5,1.9-7.3c2.3-6.7,6-12.4,11.2-16.8
			c0.3-0.2,0.4-0.6,0.3-0.9c-0.1-0.3-0.4-0.6-0.7-0.6c-4.9-0.4-9.8-0.7-14.7-0.7c-10.9,0-22.1,1.2-32.5,4.3
			c-0.4,0.1-0.6,0.4-0.6,0.8c0,0.4,0.2,0.7,0.6,0.8c5.1,1.5,10,3.6,14.7,6.3C1053.7,290.2,1059.8,295.2,1065.3,300.8z"/>
	</g>
</g>
</svg>
