<?xml version="1.0" encoding="utf-8"?>
<!-- Generator: Adobe Illustrator 27.2.0, SVG Export Plug-In . SVG Version: 6.00 Build 0)  -->
<svg version="1.1" id="Layer_1" xmlns="http://www.w3.org/2000/svg" xmlns:xlink="http://www.w3.org/1999/xlink" x="0px" y="0px"
	 viewBox="0 0 144 72" style="enable-background:new 0 0 144 72;" xml:space="preserve">
<style type="text/css">
	.st0{fill:none;stroke:#8DC63F;stroke-miterlimit:10;}
	.st1{fill:none;stroke:#ED1C24;stroke-miterlimit:10;}
	.st2{fill:none;stroke:#39B54A;stroke-miterlimit:10;}
	.st3{fill:none;stroke:#8DC63F;stroke-linejoin:round;stroke-miterlimit:10;}
	.st4{fill-rule:evenodd;clip-rule:evenodd;}
	.st5{fill-rule:evenodd;clip-rule:evenodd;fill:none;stroke:#8DC63F;stroke-miterlimit:10;}
</style>
<path class="st0" d="M62.82,31.54c-0.01,1.14-0.08,2.26-0.19,3.35c-0.46,4.47-1.45,9.3-2.87,13.53c-0.35,1.05-0.87,1.99-1.62,2.79
	c-0.37,0.4-0.79,0.71-1.23,1c-1.51,1-2.99,0.27-3.82-0.57c-0.23-0.23-0.43-0.51-0.65-0.75c-0.72-0.77-1.46-0.83-2.3-0.21
	c-0.4,0.3-0.79,0.61-1.2,0.9c-1.16,0.84-2.3,0.75-3.51-0.22c-0.34-0.27-0.63-0.61-0.92-0.95c-0.29-0.34-0.59-0.66-0.91-0.96
	c-0.76-0.69-1.61-0.95-2.6-0.67c-0.65,0.18-1.29,0.39-1.96,0.48c-2.37,0.32-5.27-0.98-6.13-4.22c-0.34-1.26-0.09-2.39,0.71-3.39
	c0.44-0.54,0.93-1.03,1.41-1.53c1.08-1.13,1.94-2.41,2.48-3.91c0.44-1.21,0.7-2.47,0.86-3.75c0.21-1.76,0.33-3.53,0.73-5.26
	c1.17-5.05,4.04-9.82,9.06-11.21c4.62-1.28,9.79,0.74,12.32,5.02C62.27,24.09,62.85,27.87,62.82,31.54z"/>
<g>
	<g>
		<ellipse cx="46.66" cy="22.21" rx="1.37" ry="1.3"/>
		<ellipse cx="56.08" cy="22.21" rx="1.37" ry="1.3"/>
	</g>
	<ellipse cx="51.37" cy="29.12" rx="2.33" ry="2.59"/>
</g>
<path class="st0" d="M100.36,31.54c-0.01,1.14-0.08,2.26-0.19,3.35c-0.46,4.47-1.45,9.3-2.87,13.53c-0.35,1.05-0.87,1.99-1.62,2.79
	c-0.37,0.4-0.79,0.71-1.23,1c-1.51,1-2.99,0.27-3.82-0.57c-0.23-0.23-0.43-0.51-0.65-0.75c-0.72-0.77-1.46-0.83-2.3-0.21
	c-0.4,0.3-0.79,0.61-1.2,0.9c-1.16,0.84-2.3,0.75-3.51-0.22c-0.34-0.27-0.63-0.61-0.92-0.95c-0.29-0.34-0.59-0.66-0.91-0.96
	c-0.76-0.69-1.61-0.95-2.6-0.67c-0.65,0.18-1.29,0.39-1.96,0.48c-2.37,0.32-5.27-0.98-6.13-4.22c-0.34-1.26-0.09-2.39,0.71-3.39
	c0.44-0.54,0.93-1.03,1.41-1.53c1.08-1.13,1.94-2.41,2.48-3.91c0.44-1.21,0.7-2.47,0.86-3.75c0.21-1.76,0.33-3.53,0.73-5.26
	c1.17-5.05,4.04-9.82,9.06-11.21c4.62-1.28,9.79,0.74,12.32,5.02C99.81,24.09,100.4,27.87,100.36,31.54z"/>
<g>
	<g>
		<ellipse cx="84.2" cy="22.21" rx="1.37" ry="1.3"/>
		<ellipse cx="93.63" cy="22.21" rx="1.37" ry="1.3"/>
	</g>
	<ellipse cx="88.92" cy="29.12" rx="2.33" ry="2.59"/>
</g>
</svg>
