<?xml version="1.0" encoding="utf-8"?>
<!-- Generator: Adobe Illustrator 27.2.0, SVG Export Plug-In . SVG Version: 6.00 Build 0)  -->
<svg version="1.1" id="Layer_1" xmlns="http://www.w3.org/2000/svg" xmlns:xlink="http://www.w3.org/1999/xlink" x="0px" y="0px"
	 viewBox="0 0 144 72" style="enable-background:new 0 0 144 72;" xml:space="preserve">
<style type="text/css">
	.st0{fill:none;stroke:#8DC63F;stroke-miterlimit:10;}
	.st1{fill:none;stroke:#ED1C24;stroke-miterlimit:10;}
	.st2{fill:none;stroke:#39B54A;stroke-miterlimit:10;}
	.st3{fill:none;stroke:#8DC63F;stroke-linejoin:round;stroke-miterlimit:10;}
	.st4{fill-rule:evenodd;clip-rule:evenodd;}
	.st5{fill-rule:evenodd;clip-rule:evenodd;fill:none;stroke:#8DC63F;stroke-miterlimit:10;}
</style>
<g>
	<path class="st2" d="M39.4,18.76L29.17,44.55c-1.44,3.63,1.23,7.57,5.14,7.57h20.46c3.9,0,6.58-3.94,5.14-7.57L49.68,18.76
		C47.83,14.11,41.24,14.11,39.4,18.76z"/>
	<line class="st1" x1="36.65" y1="26.53" x2="52.42" y2="26.53"/>
	<line class="st1" x1="30.62" y1="40.45" x2="58.45" y2="40.45"/>
</g>
<g>
	<path class="st2" d="M83.3,18.76L73.07,44.55c-1.44,3.63,1.23,7.57,5.14,7.57h20.46c3.9,0,6.58-3.94,5.14-7.57L93.58,18.76
		C91.73,14.11,85.15,14.11,83.3,18.76z"/>
	<line class="st1" x1="80.56" y1="26.53" x2="96.33" y2="26.53"/>
	<line class="st1" x1="74.53" y1="40.45" x2="102.35" y2="40.45"/>
</g>
</svg>
