<?xml version="1.0" encoding="utf-8"?>
<!-- Generator: Adobe Illustrator 27.2.0, SVG Export Plug-In . SVG Version: 6.00 Build 0)  -->
<svg version="1.1" id="Layer_1" xmlns="http://www.w3.org/2000/svg" xmlns:xlink="http://www.w3.org/1999/xlink" x="0px" y="0px"
	 viewBox="0 0 144 72" style="enable-background:new 0 0 144 72;" xml:space="preserve">
<style type="text/css">
	.st0{fill:none;stroke:#8DC63F;stroke-miterlimit:10;}
	.st1{fill:none;stroke:#ED1C24;stroke-miterlimit:10;}
	.st2{fill:none;stroke:#39B54A;stroke-miterlimit:10;}
	.st3{fill:none;stroke:#8DC63F;stroke-linejoin:round;stroke-miterlimit:10;}
	.st4{fill-rule:evenodd;clip-rule:evenodd;}
	.st5{fill-rule:evenodd;clip-rule:evenodd;fill:none;stroke:#8DC63F;stroke-miterlimit:10;}
</style>
<g>
	<path class="st0" d="M53.85,20.2c-1.1,0-2.18,0.22-3.21,0.66c-0.85-0.56-1.75-0.98-2.69-1.25c-1.04-3.78-3.41-5.66-4.75-6.19
		c-0.33-0.13-0.68-0.2-1.02-0.2h0c-1.43,0-2.35,1.12-2.7,2.08l-0.45,1.23l1.09,0.73c1.14,0.75,1.73,1.62,1.83,2.67
		c-0.56,0.23-1.1,0.51-1.63,0.84c-0.96-0.38-1.96-0.57-2.98-0.57c-6.2,0-11.07,6.94-11.07,15.81s4.86,15.81,11.07,15.81
		c1,0,1.99-0.19,2.94-0.55c1.72,0.86,3.6,1.32,5.51,1.32c1.86,0,3.69-0.43,5.35-1.24c0.89,0.31,1.8,0.47,2.71,0.47
		c6.2,0,11.07-6.94,11.07-15.81S60.05,20.2,53.85,20.2z"/>
	<path class="st1" d="M40.22,21.05c-5.14,9.34-5.14,20.66,0,30.01"/>
	<path class="st1" d="M51.06,21.05c5.14,9.34,5.14,20.66,0,30.01"/>
</g>
<g>
	<path d="M38.88,25.38l-5.05,6.97c0,0,5.01,4.75,10.43,0L38.88,25.38z"/>
	<path d="M51.97,25.38l-5.05,6.97c0,0,5.01,4.75,10.43,0L51.97,25.38z"/>
</g>
<path d="M58.1,35.25c-0.35,0.55-0.78,1.08-1.26,1.57l0.42,0.53l-2.24,1.78l-0.42-0.53c-0.81,0.5-1.7,0.94-2.66,1.29l0.99,2.19
	l-0.03,0.03l0.08,0.11l-2.6,1.17l-1.23-2.72c-0.69,0.13-1.4,0.22-2.13,0.28l0.01,3.31l-2.86,0.01l-0.01-3.32
	c-0.76-0.06-1.51-0.16-2.23-0.3l-1.24,2.74l-2.6-1.17l0.08-0.11l-0.03-0.03l1-2.23c-0.95-0.36-1.84-0.8-2.64-1.3l-0.46,0.58
	l-2.24-1.78l0.47-0.59c-0.46-0.47-0.86-0.98-1.2-1.51c0.26,2.19,1.03,4.2,2.19,5.92l-1.46,1.84l2.24,1.78l1.1-1.39
	c0.56,0.53,1.17,1.01,1.82,1.43l-0.88,1.96l2.61,1.17l0.84-1.87c0.84,0.3,1.72,0.5,2.63,0.61l0.01,2.14l2.86-0.01l-0.01-2.13
	c0.87-0.1,1.72-0.3,2.53-0.58l0.83,1.83l2.61-1.17l-0.86-1.9c0.66-0.42,1.27-0.89,1.84-1.42l1.05,1.33l2.24-1.78l-1.39-1.76
	C57.05,39.51,57.84,37.47,58.1,35.25z"/>
<g>
	<path class="st0" d="M99.19,20.2c-1.1,0-2.18,0.22-3.21,0.66c-0.85-0.56-1.75-0.98-2.69-1.25c-1.04-3.78-3.41-5.66-4.75-6.19
		c-0.33-0.13-0.68-0.2-1.02-0.2h0c-1.43,0-2.35,1.12-2.7,2.08l-0.45,1.23l1.09,0.73c1.14,0.75,1.73,1.62,1.83,2.67
		c-0.56,0.23-1.1,0.51-1.63,0.84c-0.96-0.38-1.96-0.57-2.98-0.57c-6.2,0-11.07,6.94-11.07,15.81s4.86,15.81,11.07,15.81
		c1,0,1.99-0.19,2.94-0.55c1.72,0.86,3.6,1.32,5.51,1.32c1.86,0,3.69-0.43,5.35-1.24c0.89,0.31,1.8,0.47,2.71,0.47
		c6.2,0,11.07-6.94,11.07-15.81S105.4,20.2,99.19,20.2z"/>
	<path class="st1" d="M85.57,21.05c-5.14,9.34-5.14,20.66,0,30.01"/>
	<path class="st1" d="M96.41,21.05c5.14,9.34,5.14,20.66,0,30.01"/>
</g>
<g>
	<path d="M84.23,25.38l-5.05,6.97c0,0,5.01,4.75,10.43,0L84.23,25.38z"/>
	<path d="M97.32,25.38l-5.05,6.97c0,0,5.01,4.75,10.43,0L97.32,25.38z"/>
</g>
<path d="M103.45,35.25c-0.35,0.55-0.78,1.08-1.26,1.57l0.42,0.53l-2.24,1.78l-0.42-0.53c-0.81,0.5-1.7,0.94-2.66,1.29l0.99,2.19
	l-0.03,0.03l0.08,0.11l-2.6,1.17l-1.23-2.72c-0.69,0.13-1.4,0.22-2.13,0.28l0.01,3.31l-2.86,0.01l-0.01-3.32
	c-0.76-0.06-1.51-0.16-2.23-0.3l-1.24,2.74l-2.6-1.17l0.08-0.11l-0.03-0.03l1-2.23c-0.95-0.36-1.84-0.8-2.64-1.3l-0.46,0.58
	l-2.24-1.78l0.47-0.59c-0.46-0.47-0.86-0.98-1.2-1.51c0.26,2.19,1.03,4.2,2.19,5.92l-1.46,1.84l2.24,1.78l1.1-1.39
	c0.56,0.53,1.17,1.01,1.82,1.43l-0.88,1.96l2.61,1.17l0.84-1.87c0.84,0.3,1.72,0.5,2.63,0.61l0.01,2.14l2.86-0.01l-0.01-2.13
	c0.87-0.1,1.72-0.3,2.53-0.58l0.83,1.83l2.61-1.17l-0.86-1.9c0.66-0.42,1.27-0.89,1.84-1.42l1.05,1.33l2.24-1.78l-1.39-1.76
	C102.4,39.51,103.19,37.47,103.45,35.25z"/>
</svg>
