<?xml version="1.0" encoding="utf-8"?>
<!-- Generator: Adobe Illustrator 27.2.0, SVG Export Plug-In . SVG Version: 6.00 Build 0)  -->
<svg version="1.1" id="Layer_1" xmlns="http://www.w3.org/2000/svg" xmlns:xlink="http://www.w3.org/1999/xlink" x="0px" y="0px"
	 viewBox="0 0 144 72" style="enable-background:new 0 0 144 72;" xml:space="preserve">
<style type="text/css">
	.st0{fill:none;stroke:#8DC63F;stroke-miterlimit:10;}
	.st1{fill:none;stroke:#ED1C24;stroke-miterlimit:10;}
	.st2{fill:none;stroke:#39B54A;stroke-miterlimit:10;}
	.st3{fill:none;stroke:#8DC63F;stroke-linejoin:round;stroke-miterlimit:10;}
	.st4{fill-rule:evenodd;clip-rule:evenodd;}
	.st5{fill-rule:evenodd;clip-rule:evenodd;fill:none;stroke:#8DC63F;stroke-miterlimit:10;}
</style>
<path class="st5" d="M42,38.01c0-7.47,4.09-13.98,10.16-17.42c-2.91-1.65-6.28-2.6-9.87-2.6c-11.06,0-20.02,8.96-20.02,20.02
	c0,11.06,8.96,20.02,20.02,20.02c3.59,0,6.95-0.95,9.87-2.6C46.09,51.99,42,45.48,42,38.01z"/>
<path class="st5" d="M85.38,38.01c0-7.47,4.09-13.98,10.16-17.42c-2.91-1.65-6.28-2.6-9.87-2.6c-11.06,0-20.02,8.96-20.02,20.02
	c0,11.06,8.96,20.02,20.02,20.02c3.59,0,6.95-0.95,9.87-2.6C89.47,51.99,85.38,45.48,85.38,38.01z"/>
</svg>
