<?xml version="1.0" encoding="utf-8"?>
<!-- Generator: Adobe Illustrator 27.2.0, SVG Export Plug-In . SVG Version: 6.00 Build 0)  -->
<svg version="1.1" id="Layer_1" xmlns="http://www.w3.org/2000/svg" xmlns:xlink="http://www.w3.org/1999/xlink" x="0px" y="0px"
	 viewBox="0 0 303.5 273.88" style="enable-background:new 0 0 303.5 273.88;" xml:space="preserve">
<style type="text/css">
	.st0{fill:none;stroke:#8DC63F;stroke-miterlimit:10;}
	.st1{fill:none;stroke:#ED1C24;stroke-miterlimit:10;}
	.st2{fill:none;stroke:#39B54A;stroke-miterlimit:10;}
	.st3{fill:none;stroke:#8DC63F;stroke-linejoin:round;stroke-miterlimit:10;}
	.st4{fill-rule:evenodd;clip-rule:evenodd;}
	.st5{fill-rule:evenodd;clip-rule:evenodd;fill:none;stroke:#8DC63F;stroke-miterlimit:10;}
</style>
<path class="st0" d="M202.54,57.23c-6.92,0-13.68,1.4-20.2,4.18c-5.37-3.54-11.03-6.17-16.94-7.87
	c-6.54-23.75-21.47-35.59-29.89-38.96c-2.08-0.84-4.26-1.28-6.43-1.28h0c-8.99,0-14.76,7.05-16.96,13.08l-2.83,7.76l6.89,4.57
	c7.14,4.74,10.89,10.18,11.48,16.81c-3.52,1.42-6.94,3.19-10.26,5.28c-6.03-2.38-12.32-3.58-18.76-3.58
	c-39.03,0-69.6,43.67-69.6,99.42s30.57,99.42,69.6,99.42c6.31,0,12.5-1.16,18.48-3.47c10.79,5.44,22.67,8.29,34.66,8.29
	c11.68,0,23.21-2.68,33.66-7.78c5.57,1.97,11.29,2.96,17.08,2.96c39.03,0,69.6-43.67,69.6-99.42S241.57,57.23,202.54,57.23z"/>
<circle class="st2" cx="79.64" cy="93.86" r="1.8"/>
<circle class="st2" cx="123.39" cy="93.86" r="1.8"/>
<circle class="st2" cx="188.32" cy="93.86" r="1.8"/>
<circle class="st2" cx="232.08" cy="93.86" r="1.8"/>
<circle class="st2" cx="79.64" cy="153.86" r="1.8"/>
<circle class="st2" cx="123.39" cy="153.86" r="1.8"/>
<circle class="st2" cx="188.32" cy="153.86" r="1.8"/>
<circle class="st2" cx="232.08" cy="153.86" r="1.8"/>
<circle class="st2" cx="129.64" cy="213.86" r="1.8"/>
<circle class="st2" cx="173.39" cy="213.86" r="1.8"/>
</svg>
