<?xml version="1.0" encoding="utf-8"?>
<!-- Generator: Adobe Illustrator 27.2.0, SVG Export Plug-In . SVG Version: 6.00 Build 0)  -->
<svg version="1.1" id="Layer_1" xmlns="http://www.w3.org/2000/svg" xmlns:xlink="http://www.w3.org/1999/xlink" x="0px" y="0px"
	 viewBox="0 0 144 72" style="enable-background:new 0 0 144 72;" xml:space="preserve">
<style type="text/css">
	.st0{fill:none;stroke:#8DC63F;stroke-miterlimit:10;}
	.st1{fill:none;stroke:#ED1C24;stroke-miterlimit:10;}
	.st2{fill:none;stroke:#39B54A;stroke-miterlimit:10;}
	.st3{fill:none;stroke:#8DC63F;stroke-linejoin:round;stroke-miterlimit:10;}
	.st4{fill-rule:evenodd;clip-rule:evenodd;}
	.st5{fill-rule:evenodd;clip-rule:evenodd;fill:none;stroke:#8DC63F;stroke-miterlimit:10;}
</style>
<g>
	<path class="st3" d="M55.05,29.17c0-11.89-11.58-21.08-24.08-16.9c-4.95,1.66-8.82,5.39-10.59,10.3c-2.94,8.18-0.12,16,5.48,20.53
		c0,0-0.65,1.39-0.65,2.37c0,1.62,1.31,2.93,2.93,2.93c1.62,0,2.93-1.31,2.93-2.93c0-0.98-0.32,2.93,3.1,2.93
		c1.53,0,2.78-1.18,2.91-2.68c0.06,0.66,0.33,1.31,0.83,1.82c1.15,1.15,3,1.15,4.15,0c0.55-0.55,0.83-1.27,0.85-1.99
		c0.02,0.72,0.3,1.44,0.85,1.99c1.15,1.15,3,1.15,4.15,0c1.15-1.15,1.15-3,0-4.15c-0.11-0.11,0.46-0.29,0.46-0.29
		C52.45,39.82,55.05,34.8,55.05,29.17z"/>
	<path d="M33.17,36.23c0,1.16,0.95,2.11,2.11,2.11c0.8,0,1.5-0.45,1.85-1.11c0.36,0.66,1.05,1.11,1.85,1.11
		c1.16,0,2.11-0.95,2.11-2.11c0-1.15-3.84-5.37-3.84-5.37S33.17,35.07,33.17,36.23z"/>
	<g>
		<path class="st4" d="M38.68,25.88c0.53,7.45,12.34,5.09,11.53-1.78c-0.19-1.57-1.34-4.78-3.39-4.53
			C45.19,19.77,39.01,22.58,38.68,25.88z"/>
		<path class="st4" d="M35.57,25.88c-0.53,7.45-12.34,5.09-11.53-1.78c0.19-1.57,1.34-4.78,3.39-4.53
			C29.06,19.77,35.25,22.58,35.57,25.88z"/>
	</g>
</g>
<g>
	<path class="st3" d="M96.11,29.17c0-11.89-11.58-21.08-24.08-16.9c-4.95,1.66-8.82,5.39-10.59,10.3c-2.94,8.18-0.12,16,5.48,20.53
		c0,0-0.65,1.39-0.65,2.37c0,1.62,1.31,2.93,2.93,2.93s2.93-1.31,2.93-2.93c0-0.98-0.32,2.93,3.1,2.93c1.53,0,2.78-1.18,2.91-2.68
		c0.06,0.66,0.33,1.31,0.83,1.82c1.15,1.15,3,1.15,4.15,0c0.55-0.55,0.83-1.27,0.85-1.99c0.02,0.72,0.3,1.44,0.85,1.99
		c1.15,1.15,3,1.15,4.15,0c1.15-1.15,1.15-3,0-4.15c-0.11-0.11,0.46-0.29,0.46-0.29C93.51,39.82,96.11,34.8,96.11,29.17z"/>
	<path d="M74.23,36.23c0,1.16,0.95,2.11,2.11,2.11c0.8,0,1.5-0.45,1.85-1.11c0.36,0.66,1.05,1.11,1.85,1.11
		c1.16,0,2.11-0.95,2.11-2.11c0-1.15-3.84-5.37-3.84-5.37S74.23,35.07,74.23,36.23z"/>
	<g>
		<path class="st4" d="M79.74,25.88c0.53,7.45,12.34,5.09,11.53-1.78c-0.19-1.57-1.34-4.78-3.39-4.53
			C86.25,19.77,80.06,22.58,79.74,25.88z"/>
		<path class="st4" d="M76.63,25.88c-0.53,7.45-12.34,5.09-11.53-1.78c0.19-1.57,1.34-4.78,3.39-4.53
			C70.12,19.77,76.3,22.58,76.63,25.88z"/>
	</g>
</g>
</svg>
