<?xml version="1.0" encoding="utf-8"?>
<!-- Generator: Adobe Illustrator 19.2.1, SVG Export Plug-In . SVG Version: 6.00 Build 0)  -->
<svg version="1.1" id="Livello_1" xmlns="http://www.w3.org/2000/svg" xmlns:xlink="http://www.w3.org/1999/xlink" x="0px" y="0px"
	 width="2000px" height="2000px" viewBox="0 0 2000 2000" enable-background="new 0 0 2000 2000" xml:space="preserve">
<path d="M1339.302,632.709c-96.892-89.497-224.841-137.635-359.075-132.309c-358.204,14.211-584.529,389.866-432.802,712.334
	c83.062,176.522,265.616,295.071,472.443,286.866C1463.122,1482.015,1666.485,934.924,1339.302,632.709z M563.829,1020.289
	l-28.12-4.105c-0.335-8.449-2.389-71.948,9.518-75.266C578.73,931.581,568.552,974.277,563.829,1020.289z M640.256,1293.688
	l-8.688-67.826c9.822,15.708,18.867,29.102,32.21,45.584c0.497,16.228,1.282,33.249,2.442,51.403
	C652.514,1308.716,641.117,1294.875,640.256,1293.688z M663.15,1244.238c-14.06-19.327-26.498-39.915-37.11-61.576
	c-0.009-0.031-4.883-38.079-4.883-38.079c12.617-7.947,28.916-8.598,42.539,0.503
	C663.206,1177.953,662.645,1209.664,663.15,1244.238z M664.183,1104.751c-15.835-8.16-32.669-9.029-48.109,0.148
	c-3.658-12.375-7.052-25.345-10.074-38.898c-12.226-54.84-15.251-105.315-13.95-148.661c0.198-0.989,0.4-1.986,0.614-2.989
	c0.31-1.454,0.625-2.906,0.641-2.978l25.709-4.421c-6.444-9.725-12.098-19.284-17.068-28.564
	c50.362-164.384,200.312-287.115,381.602-294.308c335.199-13.298,546.375,356.595,368.509,637.808
	c-23.824-3.731-45.148-46.428-24.319-64.696c9.626-8.438,23.802-12.651,34.25-20.365c7.021-5.173,1.29-11.477-7.141-9.226
	c-23.939,6.431-37.081,21.93-39.434,24.159c-7.718,7.289-9.417-3.52-13.852-9.777c-6.244-8.785-9.349-17.512-14.754-25.745
	c-10.709-16.422-31.484-10.204,3.947,32.411c4.935,5.944,9.141,13.187,5.122,20.805c-4.019,7.618-11.498,7.719-18.324,7.648
	c-62.488-0.606-43.918-31.025-59.257-56.449c-2.234-3.696-8.744-0.398-8.058,4.262c4.224,28.335,11.687,49.365,2.791,56.504
	c-12.67,10.17-25.193-20.253-56.462,15.85c-16.095,18.582-28.054,40.693-34.986,64.273c-0.936-2.228-1.75-3.983-2.316-5.149
	c-3.345-54.875-33.151-77.122-66.246-75.022c-9.88-10.904-22.487-17.51-35.106-17.88c17.169-15.24,39.141-35.894,52.959-56.208
	c18.178-26.723,33.526-51.614,16.543-136.632c0,0-5.082-8.005-17.781,18.991l-19.585-1.112c0,0-9.713-20.999-15.627-20.88
	c-5.914,0.119-11.289,44.797-9.972,62.593c1.318,17.795-19.924,20.224-28.856,19.263c-8.932-0.962-28.628-6.169-49.426,24.002
	c-14.458,20.974-28.124,49.912-28.097,91.641c-19.291-2.169-39.046,9.714-53.779,26.095c-19.967,7.002-37.01,19.101-44.767,38.966
	c14.353-153.009,31.842-340.168,31.023-360.794l15.715-3.87c-35.178-45.542-47.429-69.852-60.281-93.639
	c-24.459,33.044-25.734,33.836-76.011,94.164l16.021,3.832l2.457,61.937c-26.105-26.955-35.982-51.306-43.54-67.034
	c-8.081,20.925-18.565,55.106-60.168,93.523l15.973,2.626C665.043,1035.633,664.379,1103.522,664.183,1104.751z M1013.406,1219.658
	c34.422-12.276,73.371,12.093,91.099,42.677c1.234,2.427,17.505,35.375,7.736,64.658c-3.481,10.433-9.97,19.325-19.355,26.573
	C1102.425,1287.53,1064.584,1225.383,1013.406,1219.658z M1073.923,1366.839c-1.91,3.48-12.949,21.847-33.511,23.677
	c3.019-15.554,4.031-39.113,1.364-63.614c17.415-4.804,27.451-16.37,32.08-27.927
	C1079.754,1319.741,1080.448,1343.472,1073.923,1366.839z M1023.24,1394.095c-3.16,3.307-15.574,14.155-37.469,8.124
	c2.492-13.206,7.222-43.105,6.542-76.655c9.259,2.651,19.811,3.769,32.027,3.656c0.625-0.006,1.236-0.026,1.849-0.047
	C1029.075,1355.379,1027.541,1380.666,1023.24,1394.095z M918.729,1181.342c0.121,1.499,0.275,3.027,0.431,4.556
	c-6.934-1.205-14.332-1.408-21.552-0.975C905.55,1180.941,912.466,1179.92,918.729,1181.342z M999.492,1192.915
	c-0.705-1.134-1.28-2.311-1.637-3.54c6.843-7.63,16.107-14.206,30.669-7.153C1019.65,1183.543,1009.26,1186.559,999.492,1192.915z
	 M1082.592,1205.613c6.947,5.438,12.195,13.348,15.731,23.621c-22.312-21.235-53.776-34.179-84.101-26.334
	C1029.988,1195.54,1066.612,1193.104,1082.592,1205.613z M991.092,1303.974c-1.948-20.345-6.337-41.004-14.739-59.304
	c1.693-0.5,3.323-1.089,4.882-1.761c23.237,7.511,36.357,37.04,42.364,68.807C1012.39,1312.61,1001.164,1309.908,991.092,1303.974z
	 M969.613,1402.155c-8.535,3.984-33.027,13.362-49.612-0.931c-3.627-27.17-17.387-93.77,16.809-141.525
	c10.556,29.983,22.402,48.533,39.301,58.849C977.769,1356.24,971.764,1391.123,969.613,1402.155z M903.317,1396.532
	c-10.741-1.418-28.65-6.137-39.034-21.63c-16.518-62.054,16.717-140.704,64.572-140.661c0.697,2.48,1.396,4.905,2.097,7.271
	C893.462,1284.062,895.104,1340.755,903.317,1396.532z M959.194,1246.471c0.138,0.01,0.272,0.028,0.411,0.036
	c6.507,12.552,10.707,26.773,13.281,41.424c-5.964-7.52-10.855-16.695-14.165-27.414
	C958.721,1260.517,957.377,1253.909,959.194,1246.471z M1001.002,1235.301c25.438-1.974,47.903,13.672,62.021,37.941
	c-4.025,8.486-5.262,26.919-24.038,34.848C1033.347,1278.377,1021.682,1249.925,1001.002,1235.301z M898.498,1200.795
	c-25.613,5.076-50.585,25.192-66.766,44.86C836.211,1215.465,868.224,1202.602,898.498,1200.795z M924.536,1217.582
	c0.073,0.316,0.144,0.629,0.218,0.946c-53.889,3.718-87.698,78.173-79.22,142.965
	C779.616,1306.775,870.227,1198.824,924.536,1217.582z M777.417,959.29l-2.495-40.745c0.158-9.247,7.788-16.617,17.035-16.459
	c9.247,0.158,16.63,7.787,16.471,17.034l-3.445,46.388L777.417,959.29z M785.736,1015.441c9.247,0.158,16.617,7.788,16.46,17.047
	l-7.084,53.442l-29.637-8.59l3.215-45.427C768.847,1022.666,776.476,1015.284,785.736,1015.441z M809.697,1335.266
	c6.29,22.073,22.916,39.634,41.858,49.151c1.567,2.275,3.243,4.364,5.001,6.292c-16.983-6.257-33.662-13.665-49.917-22.235
	C807.566,1358.311,808.592,1347.178,809.697,1335.266z M1037.951,1009.503c2.472-0.522,14.653,0.675,11.677,13.083
	C1037.304,1023.552,1036.102,1012.048,1037.951,1009.503z M1078.714,1011.817c1.548,2.739-0.948,14.032-13.083,11.677
	C1064.078,1010.829,1076.316,1011.018,1078.714,1011.817z M696.81,1033.3c-0.999-25.169,31.14-21.842,31.956-1.268l-2.388,44.418
	l-27.498-6.673L696.81,1033.3z M774.016,1189.255l-17.451,84.724l-30.15-11.987l0.866-82.161
	c-0.538-13.553,10.007-24.982,23.56-25.519C764.393,1153.773,778.752,1160.637,774.016,1189.255z M1196.424,1421.075
	c-11.433,5.349-23.116,10.255-35.037,14.671c-6.018-5.578-5.656-14.831-12.292-20.923c-3.193-2.937-8.404-0.143-7.709,4.139
	c1.186,7.436,3.67,14.661,7.289,21.28c-108.807,36.824-233.874,33.364-346.574-19.978c0.631-8.094,1.653-19.877,2.975-34.553
	c116.717,59.148,250.68,60.063,363.228,12.396C1174.404,1405.772,1197.594,1410.325,1196.424,1421.075z M1199.21,1400.213
	c-3.961-0.771-11.75-5.112-18.501-7.591c13.162-6.003,28.046-13.777,42.359-22.419
	C1226.184,1385.057,1214.266,1403.132,1199.21,1400.213z M1217.525,1324.647c-1.512-9.193,5.473-19.589,2.94-27.729
	c-1.103-3.508-3.81-2.803-4.579-0.026c-13.751,49.656-35.86,33.654-58.725,36.338c-4.873,11.643,31.391,11.572,36.98,12.766
	c7.621,1.638,15.129,5.039,20.761,10.407c-60.117,36.395-127.59,56.304-195.836,59.426c5.312-2.298,10.097-5.491,14.253-9.422
	c23.127,1.59,43.404-12.41,53.812-30.651c38.248-19.201,50.9-54.063,40.764-95.112c7.53-11.768,17.933-53.681,44.075-74.401
	c11.764-9.329,15.799-2.067,22.769,0.708c10.555,4.22,21.347-4.375,31.735-8.998c20.656-9.181,44.553-2.488,66.124,4.298
	c19.431,6.105,12.201,30.656-23.446,35.475c-36.672,4.973-41.301,15.121-33.846,16.711c32.884,7.045,76.431-16.191,103.445-12.795
	c-29.074,40.667-65.319,75.978-106.956,103.985C1226.82,1338.633,1218.922,1333.088,1217.525,1324.647z M1252.285,1390.064
	c-20.175-3.721-13.665-13.422-15.307-28.616c9.185-6.016,18.124-12.388,26.818-19.093c2.443,9.904,13.914,18.787,15.426,28.843
	C1270.487,1377.794,1261.496,1384.083,1252.285,1390.064z M1292.209,1361.039c-7.229-5.826-15.425-19.87-13.854-30.455
	c27.719-23.361,53.636-51.321,75.557-82.537c12.867,9.992,13.086,10.786,32.086,10.324
	C1360.614,1296.164,1329.253,1330.987,1292.209,1361.039z M1418.711,1152.485c5.711,4.253,10.769,8.996,15.149,13.839
	c-7.148,18.594-15.466,36.624-24.871,54.013c-17.638-3.06-20.68-15.439-21.719-28.386
	c145.423-292.945-76.431-636.725-404.35-623.716C804.08,575.331,650.223,691.05,591.845,857.939
	c-7.642-16.851-13.016-32.338-16.787-45.624c69.581-156.882,223.807-269.321,406.572-276.571
	c326.891-12.968,565.666,309.23,456.826,618.143c-4.34-3.856-9.492-6.947-15.856-8.904
	C1411.774,1141.651,1414.824,1149.587,1418.711,1152.485z"/>
</svg>
