  0
SECTION
  2
HEADER
  9
$ACADVER
  1
AC1024
  9
$ACADMAINTVER
 70
     6
  9
$DWGCODEPAGE
  3
ANSI_1252
  9
$INSBASE
 10
0.0
 20
0.0
 30
0.0
  9
$EXTMIN
 10
1.000000000000000E+20
 20
1.000000000000000E+20
 30
1.000000000000000E+20
  9
$EXTMAX
 10
-1.000000000000000E+20
 20
-1.000000000000000E+20
 30
-1.000000000000000E+20
  9
$LIMMIN
 10
0.0
 20
0.0
  9
$LIMMAX
 10
12.0
 20
9.0
  9
$ORTHOMODE
 70
     0
  9
$REGENMODE
 70
     1
  9
$FILLMODE
 70
     1
  9
$QTEXTMODE
 70
     0
  9
$MIRRTEXT
 70
     1
  9
$LTSCALE
 40
1.0
  9
$ATTMODE
 70
     1
  9
$TEXTSIZE
 40
0.2
  9
$TRACEWID
 40
0.05
  9
$TEXTSTYLE
  7
Standard
  9
$CLAYER
  8
0
  9
$CELTYPE
  6
ByLayer
  9
$CECOLOR
 62
   256
  9
$CELTSCALE
 40
1.0
  9
$DISPSILH
 70
     0
  9
$DIMSCALE
 40
1.0
  9
$DIMASZ
 40
0.18
  9
$DIMEXO
 40
0.0625
  9
$DIMDLI
 40
0.38
  9
$DIMRND
 40
0.0
  9
$DIMDLE
 40
0.0
  9
$DIMEXE
 40
0.18
  9
$DIMTP
 40
0.0
  9
$DIMTM
 40
0.0
  9
$DIMTXT
 40
0.18
  9
$DIMCEN
 40
0.09
  9
$DIMTSZ
 40
0.0
  9
$DIMTOL
 70
     0
  9
$DIMLIM
 70
     0
  9
$DIMTIH
 70
     1
  9
$DIMTOH
 70
     1
  9
$DIMSE1
 70
     0
  9
$DIMSE2
 70
     0
  9
$DIMTAD
 70
     0
  9
$DIMZIN
 70
     0
  9
$DIMBLK
  1

  9
$DIMASO
 70
     1
  9
$DIMSHO
 70
     1
  9
$DIMPOST
  1

  9
$DIMAPOST
  1

  9
$DIMALT
 70
     0
  9
$DIMALTD
 70
     2
  9
$DIMALTF
 40
25.4
  9
$DIMLFAC
 40
1.0
  9
$DIMTOFL
 70
     0
  9
$DIMTVP
 40
0.0
  9
$DIMTIX
 70
     0
  9
$DIMSOXD
 70
     0
  9
$DIMSAH
 70
     0
  9
$DIMBLK1
  1

  9
$DIMBLK2
  1

  9
$DIMSTYLE
  2
Standard
  9
$DIMCLRD
 70
     0
  9
$DIMCLRE
 70
     0
  9
$DIMCLRT
 70
     0
  9
$DIMTFAC
 40
1.0
  9
$DIMGAP
 40
0.09
  9
$DIMJUST
 70
     0
  9
$DIMSD1
 70
     0
  9
$DIMSD2
 70
     0
  9
$DIMTOLJ
 70
     1
  9
$DIMTZIN
 70
     0
  9
$DIMALTZ
 70
     0
  9
$DIMALTTZ
 70
     0
  9
$DIMUPT
 70
     0
  9
$DIMDEC
 70
     4
  9
$DIMTDEC
 70
     4
  9
$DIMALTU
 70
     2
  9
$DIMALTTD
 70
     2
  9
$DIMTXSTY
  7
Standard
  9
$DIMAUNIT
 70
     0
  9
$DIMADEC
 70
     0
  9
$DIMALTRND
 40
0.0
  9
$DIMAZIN
 70
     0
  9
$DIMDSEP
 70
    46
  9
$DIMATFIT
 70
     3
  9
$DIMFRAC
 70
     0
  9
$DIMLDRBLK
  1

  9
$DIMLUNIT
 70
     2
  9
$DIMLWD
 70
    -2
  9
$DIMLWE
 70
    -2
  9
$DIMTMOVE
 70
     0
  9
$DIMFXL
 40
1.0
  9
$DIMFXLON
 70
     0
  9
$DIMJOGANG
 40
0.7853981633974483
  9
$DIMTFILL
 70
     0
  9
$DIMTFILLCLR
 70
     0
  9
$DIMARCSYM
 70
     0
  9
$DIMLTYPE
  6

  9
$DIMLTEX1
  6

  9
$DIMLTEX2
  6

  9
$DIMTXTDIRECTION
 70
     0
  9
$LUNITS
 70
     2
  9
$LUPREC
 70
     4
  9
$SKETCHINC
 40
0.1
  9
$FILLETRAD
 40
0.5
  9
$AUNITS
 70
     0
  9
$AUPREC
 70
     0
  9
$MENU
  1
.
  9
$ELEVATION
 40
0.0
  9
$PELEVATION
 40
0.0
  9
$THICKNESS
 40
0.0
  9
$LIMCHECK
 70
     0
  9
$CHAMFERA
 40
0.5
  9
$CHAMFERB
 40
0.5
  9
$CHAMFERC
 40
1.0
  9
$CHAMFERD
 40
0.0
  9
$SKPOLY
 70
     0
  9
$TDCREATE
 40
2459489.585723275
  9
$TDUCREATE
 40
2459489.502389942
  9
$TDUPDATE
 40
2459489.585723496
  9
$TDUUPDATE
 40
2459489.502390162
  9
$TDINDWG
 40
0.0000000116
  9
$TDUSRTIMER
 40
0.0000000116
  9
$USRTIMER
 70
     1
  9
$ANGBASE
 50
0.0
  9
$ANGDIR
 70
     0
  9
$PDMODE
 70
     0
  9
$PDSIZE
 40
0.0
  9
$PLINEWID
 40
0.0
  9
$SPLFRAME
 70
     0
  9
$SPLINETYPE
 70
     6
  9
$SPLINESEGS
 70
     8
  9
$HANDSEED
  5
63
  9
$SURFTAB1
 70
     6
  9
$SURFTAB2
 70
     6
  9
$SURFTYPE
 70
     6
  9
$SURFU
 70
     6
  9
$SURFV
 70
     6
  9
$UCSBASE
  2

  9
$UCSNAME
  2

  9
$UCSORG
 10
0.0
 20
0.0
 30
0.0
  9
$UCSXDIR
 10
1.0
 20
0.0
 30
0.0
  9
$UCSYDIR
 10
0.0
 20
1.0
 30
0.0
  9
$UCSORTHOREF
  2

  9
$UCSORTHOVIEW
 70
     0
  9
$UCSORGTOP
 10
0.0
 20
0.0
 30
0.0
  9
$UCSORGBOTTOM
 10
0.0
 20
0.0
 30
0.0
  9
$UCSORGLEFT
 10
0.0
 20
0.0
 30
0.0
  9
$UCSORGRIGHT
 10
0.0
 20
0.0
 30
0.0
  9
$UCSORGFRONT
 10
0.0
 20
0.0
 30
0.0
  9
$UCSORGBACK
 10
0.0
 20
0.0
 30
0.0
  9
$PUCSBASE
  2

  9
$PUCSNAME
  2

  9
$PUCSORG
 10
0.0
 20
0.0
 30
0.0
  9
$PUCSXDIR
 10
1.0
 20
0.0
 30
0.0
  9
$PUCSYDIR
 10
0.0
 20
1.0
 30
0.0
  9
$PUCSORTHOREF
  2

  9
$PUCSORTHOVIEW
 70
     0
  9
$PUCSORGTOP
 10
0.0
 20
0.0
 30
0.0
  9
$PUCSORGBOTTOM
 10
0.0
 20
0.0
 30
0.0
  9
$PUCSORGLEFT
 10
0.0
 20
0.0
 30
0.0
  9
$PUCSORGRIGHT
 10
0.0
 20
0.0
 30
0.0
  9
$PUCSORGFRONT
 10
0.0
 20
0.0
 30
0.0
  9
$PUCSORGBACK
 10
0.0
 20
0.0
 30
0.0
  9
$USERI1
 70
     0
  9
$USERI2
 70
     0
  9
$USERI3
 70
     0
  9
$USERI4
 70
     0
  9
$USERI5
 70
     0
  9
$USERR1
 40
0.0
  9
$USERR2
 40
0.0
  9
$USERR3
 40
0.0
  9
$USERR4
 40
0.0
  9
$USERR5
 40
0.0
  9
$WORLDVIEW
 70
     1
  9
$SHADEDGE
 70
     3
  9
$SHADEDIF
 70
    70
  9
$TILEMODE
 70
     1
  9
$MAXACTVP
 70
    64
  9
$PINSBASE
 10
0.0
 20
0.0
 30
0.0
  9
$PLIMCHECK
 70
     0
  9
$PEXTMIN
 10
1.000000000000000E+20
 20
1.000000000000000E+20
 30
1.000000000000000E+20
  9
$PEXTMAX
 10
-1.000000000000000E+20
 20
-1.000000000000000E+20
 30
-1.000000000000000E+20
  9
$PLIMMIN
 10
0.0
 20
0.0
  9
$PLIMMAX
 10
12.0
 20
9.0
  9
$UNITMODE
 70
     0
  9
$VISRETAIN
 70
     1
  9
$PLINEGEN
 70
     0
  9
$PSLTSCALE
 70
     1
  9
$TREEDEPTH
 70
  3020
  9
$CMLSTYLE
  2
Standard
  9
$CMLJUST
 70
     0
  9
$CMLSCALE
 40
1.0
  9
$PROXYGRAPHICS
 70
     1
  9
$MEASUREMENT
 70
     0
  9
$CELWEIGHT
370
    -1
  9
$ENDCAPS
280
     0
  9
$JOINSTYLE
280
     0
  9
$LWDISPLAY
290
     1
  9
$INSUNITS
 70
     1
  9
$HYPERLINKBASE
  1

  9
$STYLESHEET
  1

  9
$XEDIT
290
     1
  9
$CEPSNTYPE
380
     0
  9
$PSTYLEMODE
290
     1
  9
$FINGERPRINTGUID
  2
{2EAD01C2-5B28-4A09-B236-4C1EAC55283D}
  9
$VERSIONGUID
  2
{FAEB1C32-E019-11D5-929B-00C0DF256EC4}
  9
$EXTNAMES
290
     1
  9
$PSVPSCALE
 40
0.0
  9
$OLESTARTUP
290
     0
  9
$SORTENTS
280
   127
  9
$INDEXCTL
280
     0
  9
$HIDETEXT
280
     1
  9
$XCLIPFRAME
280
     2
  9
$HALOGAP
280
     0
  9
$OBSCOLOR
 70
   257
  9
$OBSLTYPE
280
     0
  9
$INTERSECTIONDISPLAY
280
     0
  9
$INTERSECTIONCOLOR
 70
   257
  9
$DIMASSOC
280
     2
  9
$PROJECTNAME
  1

  9
$CAMERADISPLAY
290
     0
  9
$LENSLENGTH
 40
50.0
  9
$CAMERAHEIGHT
 40
0.0
  9
$STEPSPERSEC
 40
2.0
  9
$STEPSIZE
 40
6.0
  9
$3DDWFPREC
 40
2.0
  9
$PSOLWIDTH
 40
0.25
  9
$PSOLHEIGHT
 40
4.0
  9
$LOFTANG1
 40
1.570796326794897
  9
$LOFTANG2
 40
1.570796326794897
  9
$LOFTMAG1
 40
0.0
  9
$LOFTMAG2
 40
0.0
  9
$LOFTPARAM
 70
     7
  9
$LOFTNORMALS
280
     1
  9
$LATITUDE
 40
37.795
  9
$LONGITUDE
 40
-122.394
  9
$NORTHDIRECTION
 40
0.0
  9
$TIMEZONE
 70
 -8000
  9
$LIGHTGLYPHDISPLAY
280
     1
  9
$TILEMODELIGHTSYNCH
280
     1
  9
$CMATERIAL
347
3C
  9
$SOLIDHIST
280
     1
  9
$SHOWHIST
280
     1
  9
$DWFFRAME
280
     2
  9
$DGNFRAME
280
     2
  9
$REALWORLDSCALE
290
     1
  9
$INTERFERECOLOR
 62
   256
  9
$CSHADOW
280
     0
  9
$SHADOWPLANELOCATION
 40
0.0
  0
ENDSEC
  0
SECTION
  2
CLASSES
  0
CLASS
  1
ACDBDICTIONARYWDFLT
  2
AcDbDictionaryWithDefault
  3
ObjectDBX Classes
 90
        0
 91
        4
280
     0
281
     0
  0
CLASS
  1
VISUALSTYLE
  2
AcDbVisualStyle
  3
ObjectDBX Classes
 90
     4095
 91
        4
280
     0
281
     0
  0
CLASS
  1
MATERIAL
  2
AcDbMaterial
  3
ObjectDBX Classes
 90
     1153
 91
        4
280
     0
281
     0
  0
CLASS
  1
SUN
  2
AcDbSun
  3
SCENEOE
 90
     1024
 91
        4
280
     0
281
     0
  0
ENDSEC
  0
SECTION
  2
TABLES
  0
TABLE
  2
VPORT
  5
8
330
0
100
AcDbSymbolTable
 70
     1
  0
VPORT
  5
29
330
8
100
AcDbSymbolTableRecord
100
AcDbViewportTableRecord
  2
*Active
 70
     0
 10
0.0
 20
0.0
 11
1.0
 21
1.0
 12
0.0
 22
0.0
 13
0.0
 23
0.0
 14
0.5
 24
0.5
 15
0.5
 25
0.5
 16
0.0
 26
0.0
 36
1.0
 17
1000.0
 27
-1000.0
 37
0.0
 40
2000.0
 41
1.0
 42
50.0
 43
0.0
 44
0.0
 50
0.0
 51
0.0
 71
     0
 72
   100
 73
     1
 74
     3
 75
     0
 76
     0
 77
     0
 78
     0
281
     0
 65
     1
110
0.0
120
0.0
130
0.0
111
1.0
121
0.0
131
0.0
112
0.0
122
1.0
132
0.0
 79
     0
146
0.0
 60
     3
 61
     5
292
     1
282
     1
141
0.0
142
0.0
 63
   250
361
3F
  0
ENDTAB
  0
TABLE
  2
LTYPE
  5
5
330
0
100
AcDbSymbolTable
 70
     1
  0
LTYPE
  5
14
330
5
100
AcDbSymbolTableRecord
100
AcDbLinetypeTableRecord
  2
ByBlock
 70
     0
  3

 72
    65
 73
     0
 40
0.0
  0
LTYPE
  5
15
330
5
100
AcDbSymbolTableRecord
100
AcDbLinetypeTableRecord
  2
ByLayer
 70
     0
  3

 72
    65
 73
     0
 40
0.0
  0
LTYPE
  5
16
330
5
100
AcDbSymbolTableRecord
100
AcDbLinetypeTableRecord
  2
Continuous
 70
     0
  3
Solid line
 72
    65
 73
     0
 40
0.0
  0
ENDTAB
  0
TABLE
  2
LAYER
  5
2
330
0
100
AcDbSymbolTable
 70
     2
  0
LAYER
  5
10
330
2
100
AcDbSymbolTableRecord
100
AcDbLayerTableRecord
  2
0
 70
     0
 62
     7
  6
Continuous
370
    -3
390
F
347
3E
  0
LAYER
  5
40
330
2
100
AcDbSymbolTableRecord
100
AcDbLayerTableRecord
  2
Livello 1
 70
     0
 62
     7
  6
Continuous
370
    -3
390
F
347
3E
  0
ENDTAB
  0
TABLE
  2
STYLE
  5
3
330
0
100
AcDbSymbolTable
 70
     1
  0
STYLE
  5
11
330
3
100
AcDbSymbolTableRecord
100
AcDbTextStyleTableRecord
  2
Standard
 70
     0
 40
0.0
 41
1.0
 50
0.0
 71
     0
 42
0.2
  3
txt
  4

  0
ENDTAB
  0
TABLE
  2
VIEW
  5
6
330
0
100
AcDbSymbolTable
 70
     0
  0
ENDTAB
  0
TABLE
  2
UCS
  5
7
330
0
100
AcDbSymbolTable
 70
     0
  0
ENDTAB
  0
TABLE
  2
APPID
  5
9
330
0
100
AcDbSymbolTable
 70
     1
  0
APPID
  5
12
330
9
100
AcDbSymbolTableRecord
100
AcDbRegAppTableRecord
  2
ACAD
 70
     0
  0
ENDTAB
  0
TABLE
  2
DIMSTYLE
  5
A
330
0
100
AcDbSymbolTable
 70
     1
100
AcDbDimStyleTable
  0
DIMSTYLE
105
27
330
A
100
AcDbSymbolTableRecord
100
AcDbDimStyleTableRecord
  2
Standard
 70
     0
178
     0
340
11
  0
ENDTAB
  0
TABLE
  2
BLOCK_RECORD
  5
1
330
0
100
AcDbSymbolTable
 70
     1
  0
BLOCK_RECORD
  5
1F
330
1
100
AcDbSymbolTableRecord
100
AcDbBlockTableRecord
  2
*Model_Space
340
22
 70
     0
280
     1
281
     0
  0
BLOCK_RECORD
  5
1B
330
1
100
AcDbSymbolTableRecord
100
AcDbBlockTableRecord
  2
*Paper_Space
340
1E
 70
     0
280
     1
281
     0
  0
BLOCK_RECORD
  5
23
330
1
100
AcDbSymbolTableRecord
100
AcDbBlockTableRecord
  2
*Paper_Space0
340
26
 70
     0
280
     1
281
     0
  0
ENDTAB
  0
ENDSEC
  0
SECTION
  2
BLOCKS
  0
BLOCK
  5
20
330
1F
100
AcDbEntity
  8
0
100
AcDbBlockBegin
  2
*Model_Space
 70
     0
 10
0.0
 20
0.0
 30
0.0
  3
*Model_Space
  1

  0
ENDBLK
  5
21
330
1F
100
AcDbEntity
  8
0
100
AcDbBlockEnd
  0
BLOCK
  5
1C
330
1B
100
AcDbEntity
 67
     1
  8
0
100
AcDbBlockBegin
  2
*Paper_Space
 70
     0
 10
0.0
 20
0.0
 30
0.0
  3
*Paper_Space
  1

  0
ENDBLK
  5
1D
330
1B
100
AcDbEntity
 67
     1
  8
0
100
AcDbBlockEnd
  0
BLOCK
  5
24
330
23
100
AcDbEntity
  8
0
100
AcDbBlockBegin
  2
*Paper_Space0
 70
     0
 10
0.0
 20
0.0
 30
0.0
  3
*Paper_Space0
  1

  0
ENDBLK
  5
25
330
23
100
AcDbEntity
  8
0
100
AcDbBlockEnd
  0
ENDSEC
  0
SECTION
  2
ENTITIES
  0
SPLINE
  5
41
330
1F
100
AcDbEntity
  8
Livello 1
370
     0
100
AcDbSpline
210
0.0
220
0.0
230
1.0
 70
    11
 71
     3
 72
    17
 73
    13
 74
     0
 42
0.0000000001
 43
0.0000000001
 12
1.0
 22
0.0
 32
0.0
 13
1.0
 23
0.0
 33
0.0
 40
0.0
 40
0.0
 40
0.0
 40
0.0
 40
1.0
 40
1.0
 40
1.0
 40
2.0
 40
2.0
 40
2.0
 40
3.0
 40
3.0
 40
3.0
 40
4.0
 40
4.0
 40
4.0
 40
4.0
 10
1339.302206429909
 20
-632.7087113648049
 30
0.0
 10
1242.409766800485
 20
-543.2113406466251
 30
0.0
 10
1114.461533206577
 20
-495.0740017957396
 30
0.0
 10
980.2275154065865
 20
-500.3993455040982
 30
0.0
 10
622.0235659537238
 20
-514.6100439529082
 30
0.0
 10
395.6988522319652
 20
-890.2653094294292
 30
0.0
 10
547.4252439731226
 20
-1212.7331149823
 30
0.0
 10
630.4872320836475
 20
-1389.25504793982
 30
0.0
 10
813.0411965566936
 20
-1507.804517904744
 30
0.0
 10
1019.867862397608
 20
-1499.599272306736
 30
0.0
 10
1463.12163192096
 20
-1482.014469948703
 30
0.0
 10
1666.485204505852
 20
-934.9245286597479
 30
0.0
 10
1339.302206429909
 20
-632.7087113648049
 30
0.0
  0
SPLINE
  5
42
330
1F
100
AcDbEntity
  8
Livello 1
370
     0
100
AcDbSpline
210
0.0
220
0.0
230
1.0
 70
    11
 71
     3
 72
    14
 73
    10
 74
     0
 42
0.0000000001
 43
0.0000000001
 12
1.0
 22
0.0
 32
0.0
 13
1.0
 23
0.0
 33
0.0
 40
0.0
 40
0.0
 40
0.0
 40
0.0
 40
1.0
 40
1.0
 40
1.0
 40
2.0
 40
2.0
 40
2.0
 40
3.0
 40
3.0
 40
3.0
 40
3.0
 10
563.8289444593165
 20
-1020.289358971782
 30
0.0
 10
563.8289444593165
 20
-1020.289358971782
 30
0.0
 10
535.7094017252994
 20
-1016.183960807826
 30
0.0
 10
535.7094017252994
 20
-1016.183960807826
 30
0.0
 10
535.3742282636922
 20
-1007.735364271077
 30
0.0
 10
533.319964085008
 20
-944.2355387966008
 30
0.0
 10
545.2270550138655
 20
-940.9182897406426
 30
0.0
 10
578.7295492045378
 20
-931.5814601371285
 30
0.0
 10
568.551869345014
 20
-974.2771147814074
 30
0.0
 10
563.8289444593165
 20
-1020.289358971782
 30
0.0
  0
SPLINE
  5
43
330
1F
100
AcDbEntity
  8
Livello 1
370
     0
100
AcDbSpline
210
0.0
220
0.0
230
1.0
 70
    11
 71
     3
 72
    17
 73
    13
 74
     0
 42
0.0000000001
 43
0.0000000001
 12
1.0
 22
0.0
 32
0.0
 13
1.0
 23
0.0
 33
0.0
 40
0.0
 40
0.0
 40
0.0
 40
0.0
 40
1.0
 40
1.0
 40
1.0
 40
2.0
 40
2.0
 40
2.0
 40
3.0
 40
3.0
 40
3.0
 40
4.0
 40
4.0
 40
4.0
 40
4.0
 10
640.2556378243316
 20
-1293.687454179984
 30
0.0
 10
640.2556378243316
 20
-1293.687454179984
 30
0.0
 10
631.5678623521244
 20
-1225.861928793383
 30
0.0
 10
631.5678623521244
 20
-1225.861928793383
 30
0.0
 10
641.3899337114071
 20
-1241.570248856995
 30
0.0
 10
650.4350402689406
 20
-1254.963999259548
 30
0.0
 10
663.7778843513943
 20
-1271.446064902375
 30
0.0
 10
664.2753389502641
 20
-1287.673618475666
 30
0.0
 10
665.0602950738148
 20
-1304.695306106696
 30
0.0
 10
666.2200844083773
 20
-1322.849488618493
 30
0.0
 10
652.514454562157
 20
-1308.716182293429
 30
0.0
 10
641.116915086568
 20
-1294.874559015883
 30
0.0
 10
640.2556378243316
 20
-1293.687454179984
 30
0.0
  0
SPLINE
  5
44
330
1F
100
AcDbEntity
  8
Livello 1
370
     0
100
AcDbSpline
210
0.0
220
0.0
230
1.0
 70
    11
 71
     3
 72
    17
 73
    13
 74
     0
 42
0.0000000001
 43
0.0000000001
 12
1.0
 22
0.0
 32
0.0
 13
1.0
 23
0.0
 33
0.0
 40
0.0
 40
0.0
 40
0.0
 40
0.0
 40
1.0
 40
1.0
 40
1.0
 40
2.0
 40
2.0
 40
2.0
 40
3.0
 40
3.0
 40
3.0
 40
4.0
 40
4.0
 40
4.0
 40
4.0
 10
663.1502605957121
 20
-1244.237578190783
 30
0.0
 10
649.0901700424083
 20
-1224.910487682591
 30
0.0
 10
636.6525397796377
 20
-1204.322790709477
 30
0.0
 10
626.0400078479124
 20
-1182.661947323239
 30
0.0
 10
626.0307463790614
 20
-1182.631320981178
 30
0.0
 10
621.157279579731
 20
-1144.583125251065
 30
0.0
 10
621.157279579731
 20
-1144.583125251065
 30
0.0
 10
633.7747332970703
 20
-1136.635716721084
 30
0.0
 10
650.0736883108602
 20
-1135.98493091312
 30
0.0
 10
663.6965104876808
 20
-1145.086227831904
 30
0.0
 10
663.2060601940975
 20
-1177.95341238812
 30
0.0
 10
662.6453036911689
 20
-1209.664398180252
 30
0.0
 10
663.1502605957121
 20
-1244.237578190783
 30
0.0
  0
SPLINE
  5
45
330
1F
100
AcDbEntity
  8
Livello 1
370
     0
100
AcDbSpline
210
0.0
220
0.0
230
1.0
 70
    11
 71
     3
 72
   146
 73
   142
 74
     0
 42
0.0000000001
 43
0.0000000001
 12
1.0
 22
0.0
 32
0.0
 13
1.0
 23
0.0
 33
0.0
 40
0.0
 40
0.0
 40
0.0
 40
0.0
 40
1.0
 40
1.0
 40
1.0
 40
2.0
 40
2.0
 40
2.0
 40
3.0
 40
3.0
 40
3.0
 40
4.0
 40
4.0
 40
4.0
 40
5.0
 40
5.0
 40
5.0
 40
6.0
 40
6.0
 40
6.0
 40
7.0
 40
7.0
 40
7.0
 40
8.0
 40
8.0
 40
8.0
 40
9.0
 40
9.0
 40
9.0
 40
10.0
 40
10.0
 40
10.0
 40
11.0
 40
11.0
 40
11.0
 40
12.0
 40
12.0
 40
12.0
 40
13.0
 40
13.0
 40
13.0
 40
14.0
 40
14.0
 40
14.0
 40
15.0
 40
15.0
 40
15.0
 40
16.0
 40
16.0
 40
16.0
 40
17.0
 40
17.0
 40
17.0
 40
18.0
 40
18.0
 40
18.0
 40
19.0
 40
19.0
 40
19.0
 40
20.0
 40
20.0
 40
20.0
 40
21.0
 40
21.0
 40
21.0
 40
22.0
 40
22.0
 40
22.0
 40
23.0
 40
23.0
 40
23.0
 40
24.0
 40
24.0
 40
24.0
 40
25.0
 40
25.0
 40
25.0
 40
26.0
 40
26.0
 40
26.0
 40
27.0
 40
27.0
 40
27.0
 40
28.0
 40
28.0
 40
28.0
 40
29.0
 40
29.0
 40
29.0
 40
30.0
 40
30.0
 40
30.0
 40
31.0
 40
31.0
 40
31.0
 40
32.0
 40
32.0
 40
32.0
 40
33.0
 40
33.0
 40
33.0
 40
34.0
 40
34.0
 40
34.0
 40
35.0
 40
35.0
 40
35.0
 40
36.0
 40
36.0
 40
36.0
 40
37.0
 40
37.0
 40
37.0
 40
38.0
 40
38.0
 40
38.0
 40
39.0
 40
39.0
 40
39.0
 40
40.0
 40
40.0
 40
40.0
 40
41.0
 40
41.0
 40
41.0
 40
42.0
 40
42.0
 40
42.0
 40
43.0
 40
43.0
 40
43.0
 40
44.0
 40
44.0
 40
44.0
 40
45.0
 40
45.0
 40
45.0
 40
46.0
 40
46.0
 40
46.0
 40
47.0
 40
47.0
 40
47.0
 40
47.0
 10
664.183349609375
 20
-1104.750610351562
 30
0.0
 10
648.3486938476562
 20
-1096.5908203125
 30
0.0
 10
631.514404296875
 20
-1095.72119140625
 30
0.0
 10
616.0740356445312
 20
-1104.898193359375
 30
0.0
 10
612.415771484375
 20
-1092.523071289062
 30
0.0
 10
609.0215454101562
 20
-1079.552734375
 30
0.0
 10
606.0
 20
-1066.0
 30
0.0
 10
593.773681640625
 20
-1011.160095214844
 30
0.0
 10
590.7490234375
 20
-960.685302734375
 30
0.0
 10
592.05029296875
 20
-917.3388671875
 30
0.0
 10
592.2486572265625
 20
-916.3497924804688
 30
0.0
 10
592.4502563476562
 20
-915.3529663085938
 30
0.0
 10
592.6641845703125
 20
-914.350341796875
 30
0.0
 10
592.974365234375
 20
-912.8966064453125
 30
0.0
 10
593.2889404296875
 20
-911.444580078125
 30
0.0
 10
593.3048706054688
 20
-911.3719482421875
 30
0.0
 10
593.3048706054688
 20
-911.3719482421875
 30
0.0
 10
619.0134887695312
 20
-906.9513549804688
 30
0.0
 10
619.0134887695312
 20
-906.9513549804688
 30
0.0
 10
612.569580078125
 20
-897.2264404296875
 30
0.0
 10
606.9154052734375
 20
-887.6668701171875
 30
0.0
 10
601.9453125
 20
-878.3870849609375
 30
0.0
 10
652.3074951171875
 20
-714.0026245117188
 30
0.0
 10
802.2571411132812
 20
-591.271728515625
 30
0.0
 10
983.5473022460938
 20
-584.0795288085938
 30
0.0
 10
1318.746215820312
 20
-570.781494140625
 30
0.0
 10
1529.92236328125
 20
-940.6748657226562
 30
0.0
 10
1352.056030273438
 20
-1221.8876953125
 30
0.0
 10
1328.231689453125
 20
-1218.156372070312
 30
0.0
 10
1306.908081054688
 20
-1175.459716796875
 30
0.0
 10
1327.737182617188
 20
-1157.192138671875
 30
0.0
 10
1337.363037109375
 20
-1148.753784179688
 30
0.0
 10
1351.538818359375
 20
-1144.54150390625
 30
0.0
 10
1361.987060546875
 20
-1136.827392578125
 30
0.0
 10
1369.008178710938
 20
-1131.653930664062
 30
0.0
 10
1363.277221679688
 20
-1125.350830078125
 30
0.0
 10
1354.84619140625
 20
-1127.6015625
 30
0.0
 10
1330.907470703125
 20
-1134.032104492188
 30
0.0
 10
1317.765258789062
 20
-1149.53125
 30
0.0
 10
1315.412353515625
 20
-1151.7607421875
 30
0.0
 10
1307.694091796875
 20
-1159.049438476562
 30
0.0
 10
1305.995727539062
 20
-1148.240478515625
 30
0.0
 10
1301.560424804688
 20
-1141.9833984375
 30
0.0
 10
1295.316162109375
 20
-1133.1982421875
 30
0.0
 10
1292.211181640625
 20
-1124.471435546875
 30
0.0
 10
1286.806396484375
 20
-1116.238891601562
 30
0.0
 10
1276.097778320312
 20
-1099.81689453125
 30
0.0
 10
1255.322631835938
 20
-1106.034912109375
 30
0.0
 10
1290.753540039062
 20
-1148.64990234375
 30
0.0
 10
1295.688720703125
 20
-1154.594116210938
 30
0.0
 10
1299.894775390625
 20
-1161.836669921875
 30
0.0
 10
1295.875732421875
 20
-1169.454467773438
 30
0.0
 10
1291.856689453125
 20
-1177.072387695312
 30
0.0
 10
1284.377807617188
 20
-1177.173583984375
 30
0.0
 10
1277.551513671875
 20
-1177.102661132812
 30
0.0
 10
1215.063110351562
 20
-1176.496948242188
 30
0.0
 10
1233.633056640625
 20
-1146.078002929688
 30
0.0
 10
1218.294067382812
 20
-1120.653564453125
 30
0.0
 10
1216.06005859375
 20
-1116.9580078125
 30
0.0
 10
1209.550537109375
 20
-1120.255737304688
 30
0.0
 10
1210.236083984375
 20
-1124.916015625
 30
0.0
 10
1214.46044921875
 20
-1153.251098632812
 30
0.0
 10
1221.9228515625
 20
-1174.280517578125
 30
0.0
 10
1213.026977539062
 20
-1181.42041015625
 30
0.0
 10
1200.356689453125
 20
-1191.5908203125
 30
0.0
 10
1187.834106445312
 20
-1161.167724609375
 30
0.0
 10
1156.564697265625
 20
-1197.270874023438
 30
0.0
 10
1140.469604492188
 20
-1215.85302734375
 30
0.0
 10
1128.510864257812
 20
-1237.963745117188
 30
0.0
 10
1121.57861328125
 20
-1261.5439453125
 30
0.0
 10
1120.642700195312
 20
-1259.316162109375
 30
0.0
 10
1119.82861328125
 20
-1257.560668945312
 30
0.0
 10
1119.262329101562
 20
-1256.394897460938
 30
0.0
 10
1115.917724609375
 20
-1201.519409179688
 30
0.0
 10
1086.111328125
 20
-1179.272705078125
 30
0.0
 10
1053.015869140625
 20
-1181.372436523438
 30
0.0
 10
1043.135620117188
 20
-1170.468872070312
 30
0.0
 10
1030.529296875
 20
-1163.86279296875
 30
0.0
 10
1017.909973144531
 20
-1163.492065429688
 30
0.0
 10
1035.078491210938
 20
-1148.252563476562
 30
0.0
 10
1057.050903320312
 20
-1127.59814453125
 30
0.0
 10
1070.869262695312
 20
-1107.283935546875
 30
0.0
 10
1089.047241210938
 20
-1080.561157226562
 30
0.0
 10
1104.39501953125
 20
-1055.669555664062
 30
0.0
 10
1087.412353515625
 20
-970.652099609375
 30
0.0
 10
1087.412353515625
 20
-970.652099609375
 30
0.0
 10
1082.330688476562
 20
-962.6466064453125
 30
0.0
 10
1069.631469726562
 20
-989.6426391601562
 30
0.0
 10
1069.631469726562
 20
-989.6426391601562
 30
0.0
 10
1050.046630859375
 20
-988.53076171875
 30
0.0
 10
1050.046630859375
 20
-988.53076171875
 30
0.0
 10
1050.046630859375
 20
-988.53076171875
 30
0.0
 10
1040.333862304688
 20
-967.5321655273438
 30
0.0
 10
1034.420043945312
 20
-967.6505737304688
 30
0.0
 10
1028.50634765625
 20
-967.7692260742188
 30
0.0
 10
1023.130920410156
 20
-1012.447509765625
 30
0.0
 10
1024.448486328125
 20
-1030.243530273438
 30
0.0
 10
1025.765991210938
 20
-1048.038818359375
 30
0.0
 10
1004.524047851562
 20
-1050.467895507812
 30
0.0
 10
995.5921630859375
 20
-1049.506469726562
 30
0.0
 10
986.6605834960938
 20
-1048.544799804688
 30
0.0
 10
966.9636840820312
 20
-1043.337036132812
 30
0.0
 10
946.1663818359375
 20
-1073.508422851562
 30
0.0
 10
931.708740234375
 20
-1094.482666015625
 30
0.0
 10
918.0422973632812
 20
-1123.420532226562
 30
0.0
 10
918.0693969726562
 20
-1165.14892578125
 30
0.0
 10
898.7788696289062
 20
-1162.97998046875
 30
0.0
 10
879.0235595703125
 20
-1174.86279296875
 30
0.0
 10
864.2906494140625
 20
-1191.24365234375
 30
0.0
 10
844.3237915039062
 20
-1198.245239257812
 30
0.0
 10
827.2808837890625
 20
-1210.344970703125
 30
0.0
 10
819.523193359375
 20
-1230.20947265625
 30
0.0
 10
833.8757934570312
 20
-1077.2001953125
 30
0.0
 10
851.36474609375
 20
-890.0416870117188
 30
0.0
 10
850.5465087890625
 20
-869.4158935546875
 30
0.0
 10
850.5465087890625
 20
-869.4158935546875
 30
0.0
 10
866.2617797851562
 20
-865.5455932617188
 30
0.0
 10
866.2617797851562
 20
-865.5455932617188
 30
0.0
 10
831.083984375
 20
-820.0037841796875
 30
0.0
 10
818.8324584960938
 20
-795.693603515625
 30
0.0
 10
805.9805908203125
 20
-771.9061279296875
 30
0.0
 10
781.5213623046875
 20
-804.9496459960938
 30
0.0
 10
780.2466430664062
 20
-805.7426147460938
 30
0.0
 10
729.9692993164062
 20
-866.0698852539062
 30
0.0
 10
729.9692993164062
 20
-866.0698852539062
 30
0.0
 10
745.9901123046875
 20
-869.90185546875
 30
0.0
 10
745.9901123046875
 20
-869.90185546875
 30
0.0
 10
745.9901123046875
 20
-869.90185546875
 30
0.0
 10
748.4473266601562
 20
-931.8392944335938
 30
0.0
 10
748.4473266601562
 20
-931.8392944335938
 30
0.0
 10
722.3421630859375
 20
-904.8845825195312
 30
0.0
 10
712.465087890625
 20
-880.5332641601562
 30
0.0
 10
704.9077758789062
 20
-864.8057250976562
 30
0.0
 10
696.8269653320312
 20
-885.731201171875
 30
0.0
 10
686.3424072265625
 20
-919.9112548828125
 30
0.0
 10
644.7398681640625
 20
-958.328369140625
 30
0.0
 10
644.7398681640625
 20
-958.328369140625
 30
0.0
 10
660.7128295898438
 20
-960.9541015625
 30
0.0
 10
660.7128295898438
 20
-960.9541015625
 30
0.0
 10
665.0431518554688
 20
-1035.633178710938
 30
0.0
 10
664.378662109375
 20
-1103.522216796875
 30
0.0
 10
664.183349609375
 20
-1104.750610351562
 30
0.0
  0
SPLINE
  5
46
330
1F
100
AcDbEntity
  8
Livello 1
370
     0
100
AcDbSpline
210
0.0
220
0.0
230
1.0
 70
    11
 71
     3
 72
    17
 73
    13
 74
     0
 42
0.0000000001
 43
0.0000000001
 12
1.0
 22
0.0
 32
0.0
 13
1.0
 23
0.0
 33
0.0
 40
0.0
 40
0.0
 40
0.0
 40
0.0
 40
1.0
 40
1.0
 40
1.0
 40
2.0
 40
2.0
 40
2.0
 40
3.0
 40
3.0
 40
3.0
 40
4.0
 40
4.0
 40
4.0
 40
4.0
 10
1013.406303392592
 20
-1219.657983750974
 30
0.0
 10
1047.828399634484
 20
-1207.381986422097
 30
0.0
 10
1086.776818476352
 20
-1231.750588095743
 30
0.0
 10
1104.505366596281
 20
-1262.334868164955
 30
0.0
 10
1105.738871221545
 20
-1264.761559349758
 30
0.0
 10
1122.01004446013
 20
-1297.710307794758
 30
0.0
 10
1112.241655066657
 20
-1326.992372586436
 30
0.0
 10
1108.760488118338
 20
-1337.425771653201
 30
0.0
 10
1102.271660015062
 20
-1346.317344380564
 30
0.0
 10
1092.887080761677
 20
-1353.565795552957
 30
0.0
 10
1102.425194557523
 20
-1287.529792082736
 30
0.0
 10
1064.584192189279
 20
-1225.382945420297
 30
0.0
 10
1013.406303392592
 20
-1219.657983750974
 30
0.0
  0
SPLINE
  5
47
330
1F
100
AcDbEntity
  8
Livello 1
370
     0
100
AcDbSpline
210
0.0
220
0.0
230
1.0
 70
    11
 71
     3
 72
    17
 73
    13
 74
     0
 42
0.0000000001
 43
0.0000000001
 12
1.0
 22
0.0
 32
0.0
 13
1.0
 23
0.0
 33
0.0
 40
0.0
 40
0.0
 40
0.0
 40
0.0
 40
1.0
 40
1.0
 40
1.0
 40
2.0
 40
2.0
 40
2.0
 40
3.0
 40
3.0
 40
3.0
 40
4.0
 40
4.0
 40
4.0
 40
4.0
 10
1073.923347730495
 20
-1366.839010995798
 30
0.0
 10
1072.01373230639
 20
-1370.319017162383
 30
0.0
 10
1060.974591613891
 20
-1388.685961260635
 30
0.0
 10
1040.411897871982
 20
-1390.515877962865
 30
0.0
 10
1043.430952177179
 20
-1374.962105424765
 30
0.0
 10
1044.443259774966
 20
-1351.403042604739
 30
0.0
 10
1041.776139274894
 20
-1326.902188473705
 30
0.0
 10
1059.19150902406
 20
-1322.098352332443
 30
0.0
 10
1069.227315939883
 20
-1310.532025338529
 30
0.0
 10
1073.856290435795
 20
-1298.975461022179
 30
0.0
 10
1079.753828072739
 20
-1319.740662458575
 30
0.0
 10
1080.448228727008
 20
-1343.471622235371
 30
0.0
 10
1073.923347730495
 20
-1366.839010995798
 30
0.0
  0
SPLINE
  5
48
330
1F
100
AcDbEntity
  8
Livello 1
370
     0
100
AcDbSpline
210
0.0
220
0.0
230
1.0
 70
    11
 71
     3
 72
    20
 73
    16
 74
     0
 42
0.0000000001
 43
0.0000000001
 12
1.0
 22
0.0
 32
0.0
 13
1.0
 23
0.0
 33
0.0
 40
0.0
 40
0.0
 40
0.0
 40
0.0
 40
1.0
 40
1.0
 40
1.0
 40
2.0
 40
2.0
 40
2.0
 40
3.0
 40
3.0
 40
3.0
 40
4.0
 40
4.0
 40
4.0
 40
5.0
 40
5.0
 40
5.0
 40
5.0
 10
1023.239987558951
 20
-1394.094742396399
 30
0.0
 10
1020.07987192011
 20
-1397.401441830778
 30
0.0
 10
1007.665726926698
 20
-1408.250026244641
 30
0.0
 10
985.7713564706355
 20
-1402.21893296421
 30
0.0
 10
988.2630948489514
 20
-1389.01329459187
 30
0.0
 10
992.9934437992688
 20
-1359.113638860006
 30
0.0
 10
992.3136239441574
 20
-1325.563931878973
 30
0.0
 10
1001.572397439219
 20
-1328.215230795911
 30
0.0
 10
1012.124528863365
 20
-1329.3331811608
 30
0.0
 10
1024.340207948706
 20
-1329.219590785899
 30
0.0
 10
1024.965220508951
 20
-1329.213868318329
 30
0.0
 10
1025.576527100769
 20
-1329.193192713214
 30
0.0
 10
1026.188749947305
 20
-1329.173076792278
 30
0.0
 10
1029.074900328507
 20
-1355.378839071789
 30
0.0
 10
1027.540787919697
 20
-1380.666240159866
 30
0.0
 10
1023.239987558951
 20
-1394.094742396399
 30
0.0
  0
SPLINE
  5
49
330
1F
100
AcDbEntity
  8
Livello 1
370
     0
100
AcDbSpline
210
0.0
220
0.0
230
1.0
 70
    11
 71
     3
 72
    14
 73
    10
 74
     0
 42
0.0000000001
 43
0.0000000001
 12
1.0
 22
0.0
 32
0.0
 13
1.0
 23
0.0
 33
0.0
 40
0.0
 40
0.0
 40
0.0
 40
0.0
 40
1.0
 40
1.0
 40
1.0
 40
2.0
 40
2.0
 40
2.0
 40
3.0
 40
3.0
 40
3.0
 40
3.0
 10
918.7294191653746
 20
-1181.342363088312
 30
0.0
 10
918.8505884245078
 20
-1182.84164764894
 30
0.0
 10
919.0047640230823
 20
-1184.369126458234
 30
0.0
 10
919.1607957398537
 20
-1185.898319733209
 30
0.0
 10
912.226694805433
 20
-1184.692861734431
 30
0.0
 10
904.828714693128
 20
-1184.489858793575
 30
0.0
 10
897.6085651411686
 20
-1184.923219560205
 30
0.0
 10
905.5501014658876
 20
-1180.941361557543
 30
0.0
 10
912.4658886213629
 20
-1179.919869324731
 30
0.0
 10
918.7294191653746
 20
-1181.342363088312
 30
0.0
  0
SPLINE
  5
4A
330
1F
100
AcDbEntity
  8
Livello 1
370
     0
100
AcDbSpline
210
0.0
220
0.0
230
1.0
 70
    11
 71
     3
 72
    14
 73
    10
 74
     0
 42
0.0000000001
 43
0.0000000001
 12
1.0
 22
0.0
 32
0.0
 13
1.0
 23
0.0
 33
0.0
 40
0.0
 40
0.0
 40
0.0
 40
0.0
 40
1.0
 40
1.0
 40
1.0
 40
2.0
 40
2.0
 40
2.0
 40
3.0
 40
3.0
 40
3.0
 40
3.0
 10
999.4921881909622
 20
-1192.915208397655
 30
0.0
 10
998.787390203388
 20
-1191.781201077349
 30
0.0
 10
998.2120144686342
 20
-1190.604211152153
 30
0.0
 10
997.8553988489875
 20
-1189.375032080323
 30
0.0
 10
1004.697939958996
 20
-1181.744641392244
 30
0.0
 10
1013.961995588083
 20
-1175.169125668377
 30
0.0
 10
1028.52483746856
 20
-1182.221515561872
 30
0.0
 10
1019.649869567445
 20
-1183.543053237085
 30
0.0
 10
1009.259962856137
 20
-1186.55931472408
 30
0.0
 10
999.4921881909622
 20
-1192.915208397655
 30
0.0
  0
SPLINE
  5
4B
330
1F
100
AcDbEntity
  8
Livello 1
370
     0
100
AcDbSpline
210
0.0
220
0.0
230
1.0
 70
    11
 71
     3
 72
    14
 73
    10
 74
     0
 42
0.0000000001
 43
0.0000000001
 12
1.0
 22
0.0
 32
0.0
 13
1.0
 23
0.0
 33
0.0
 40
0.0
 40
0.0
 40
0.0
 40
0.0
 40
1.0
 40
1.0
 40
1.0
 40
2.0
 40
2.0
 40
2.0
 40
3.0
 40
3.0
 40
3.0
 40
3.0
 10
1082.591922355361
 20
-1205.61274070376
 30
0.0
 10
1089.538967350127
 20
-1211.050718087194
 30
0.0
 10
1094.787352815247
 20
-1218.961081708974
 30
0.0
 10
1098.322892025826
 20
-1229.23412811082
 30
0.0
 10
1076.011307018602
 20
-1207.998966394753
 30
0.0
 10
1044.546648248943
 20
-1195.055071414441
 30
0.0
 10
1014.221433005036
 20
-1202.900040000804
 30
0.0
 10
1029.98749193665
 20
-1195.539980263919
 30
0.0
 10
1066.611613842409
 20
-1193.104164957971
 30
0.0
 10
1082.591922355361
 20
-1205.61274070376
 30
0.0
  0
SPLINE
  5
4C
330
1F
100
AcDbEntity
  8
Livello 1
370
     0
100
AcDbSpline
210
0.0
220
0.0
230
1.0
 70
    11
 71
     3
 72
    17
 73
    13
 74
     0
 42
0.0000000001
 43
0.0000000001
 12
1.0
 22
0.0
 32
0.0
 13
1.0
 23
0.0
 33
0.0
 40
0.0
 40
0.0
 40
0.0
 40
0.0
 40
1.0
 40
1.0
 40
1.0
 40
2.0
 40
2.0
 40
2.0
 40
3.0
 40
3.0
 40
3.0
 40
4.0
 40
4.0
 40
4.0
 40
4.0
 10
991.0920346838247
 20
-1303.97397942952
 30
0.0
 10
989.1443974805534
 20
-1283.629038032177
 30
0.0
 10
984.7548772034734
 20
-1262.970303862818
 30
0.0
 10
976.3534429395131
 20
-1244.670095862657
 30
0.0
 10
978.0463269151387
 20
-1244.170513012101
 30
0.0
 10
979.6760536072898
 20
-1243.581348502128
 30
0.0
 10
981.235122838435
 20
-1242.908860219639
 30
0.0
 10
1004.472054616142
 20
-1250.419690532981
 30
0.0
 10
1017.591646008887
 20
-1279.949153101381
 30
0.0
 10
1023.599017741282
 20
-1311.716061546744
 30
0.0
 10
1012.389986794788
 20
-1312.609560746019
 30
0.0
 10
1001.163494678944
 20
-1309.907880024672
 30
0.0
 10
991.0920346838247
 20
-1303.97397942952
 30
0.0
  0
SPLINE
  5
4D
330
1F
100
AcDbEntity
  8
Livello 1
370
     0
100
AcDbSpline
210
0.0
220
0.0
230
1.0
 70
    11
 71
     3
 72
    17
 73
    13
 74
     0
 42
0.0000000001
 43
0.0000000001
 12
1.0
 22
0.0
 32
0.0
 13
1.0
 23
0.0
 33
0.0
 40
0.0
 40
0.0
 40
0.0
 40
0.0
 40
1.0
 40
1.0
 40
1.0
 40
2.0
 40
2.0
 40
2.0
 40
3.0
 40
3.0
 40
3.0
 40
4.0
 40
4.0
 40
4.0
 40
4.0
 10
969.6130289334651
 20
-1402.155157438316
 30
0.0
 10
961.077913966642
 20
-1406.138808706753
 30
0.0
 10
936.5858123518974
 20
-1415.516923919735
 30
0.0
 10
920.0006676919147
 20
-1401.223976372097
 30
0.0
 10
916.37382753359
 20
-1374.053712240046
 30
0.0
 10
902.6132618549
 20
-1307.454017339853
 30
0.0
 10
936.8094851882015
 20
-1259.699419258188
 30
0.0
 10
947.3653417386113
 20
-1289.682250552771
 30
0.0
 10
959.2113581471331
 20
-1308.232928819754
 30
0.0
 10
976.110191162451
 20
-1318.548912074071
 30
0.0
 10
977.7688032854494
 20
-1356.240370240106
 30
0.0
 10
971.7639500118603
 20
-1391.123364944167
 30
0.0
 10
969.6130289334651
 20
-1402.155157438316
 30
0.0
  0
SPLINE
  5
4E
330
1F
100
AcDbEntity
  8
Livello 1
370
     0
100
AcDbSpline
210
0.0
220
0.0
230
1.0
 70
    11
 71
     3
 72
    17
 73
    13
 74
     0
 42
0.0000000001
 43
0.0000000001
 12
1.0
 22
0.0
 32
0.0
 13
1.0
 23
0.0
 33
0.0
 40
0.0
 40
0.0
 40
0.0
 40
0.0
 40
1.0
 40
1.0
 40
1.0
 40
2.0
 40
2.0
 40
2.0
 40
3.0
 40
3.0
 40
3.0
 40
4.0
 40
4.0
 40
4.0
 40
4.0
 10
903.3171893198669
 20
-1396.531672080167
 30
0.0
 10
892.5761318777131
 20
-1395.11366330189
 30
0.0
 10
874.6673253154731
 20
-1390.394274029328
 30
0.0
 10
864.2831093203085
 20
-1374.901668424103
 30
0.0
 10
847.7647195844293
 20
-1312.847364613841
 30
0.0
 10
881.0005023712529
 20
-1234.197602796678
 30
0.0
 10
928.8553670558395
 20
-1234.240084876226
 30
0.0
 10
929.5527618767474
 20
-1236.719932470871
 30
0.0
 10
930.2512813363755
 20
-1239.145496361994
 30
0.0
 10
930.9527721877912
 20
-1241.510742945848
 30
0.0
 10
893.4623606983141
 20
-1284.06182277804
 30
0.0
 10
895.103861483406
 20
-1340.755521168354
 30
0.0
 10
903.3171893198669
 20
-1396.531672080167
 30
0.0
  0
SPLINE
  5
4F
330
1F
100
AcDbEntity
  8
Livello 1
370
     0
100
AcDbSpline
210
0.0
220
0.0
230
1.0
 70
    11
 71
     3
 72
    17
 73
    13
 74
     0
 42
0.0000000001
 43
0.0000000001
 12
1.0
 22
0.0
 32
0.0
 13
1.0
 23
0.0
 33
0.0
 40
0.0
 40
0.0
 40
0.0
 40
0.0
 40
1.0
 40
1.0
 40
1.0
 40
2.0
 40
2.0
 40
2.0
 40
3.0
 40
3.0
 40
3.0
 40
4.0
 40
4.0
 40
4.0
 40
4.0
 10
959.1941355966583
 20
-1246.470789142517
 30
0.0
 10
959.3322050988972
 20
-1246.480510502104
 30
0.0
 10
959.4664394424899
 20
-1246.498728485327
 30
0.0
 10
959.6050568245328
 20
-1246.507236041536
 30
0.0
 10
966.1116557466466
 20
-1259.059662730124
 30
0.0
 10
970.3125100669404
 20
-1273.280072839869
 30
0.0
 10
972.8859866779021
 20
-1287.93100924771
 30
0.0
 10
966.9223542256641
 20
-1280.411111573667
 30
0.0
 10
962.0305797084338
 20
-1271.235823269217
 30
0.0
 10
958.720844338427
 20
-1260.517223910952
 30
0.0
 10
958.720844338427
 20
-1260.517223910952
 30
0.0
 10
957.3768912975647
 20
-1253.90926623948
 30
0.0
 10
959.1941355966583
 20
-1246.470789142517
 30
0.0
  0
SPLINE
  5
50
330
1F
100
AcDbEntity
  8
Livello 1
370
     0
100
AcDbSpline
210
0.0
220
0.0
230
1.0
 70
    11
 71
     3
 72
    14
 73
    10
 74
     0
 42
0.0000000001
 43
0.0000000001
 12
1.0
 22
0.0
 32
0.0
 13
1.0
 23
0.0
 33
0.0
 40
0.0
 40
0.0
 40
0.0
 40
0.0
 40
1.0
 40
1.0
 40
1.0
 40
2.0
 40
2.0
 40
2.0
 40
3.0
 40
3.0
 40
3.0
 40
3.0
 10
1001.002050268784
 20
-1235.300672589274
 30
0.0
 10
1026.439669679859
 20
-1233.327126241376
 30
0.0
 10
1048.904701649932
 20
-1248.972554629956
 30
0.0
 10
1063.023480484968
 20
-1273.242014254985
 30
0.0
 10
1058.99864657129
 20
-1281.727685652262
 30
0.0
 10
1057.761835419093
 20
-1300.161120789824
 30
0.0
 10
1038.985710559769
 20
-1308.08970768478
 30
0.0
 10
1033.347121712204
 20
-1278.377002590165
 30
0.0
 10
1021.6819811721
 20
-1249.924985521546
 30
0.0
 10
1001.002050268784
 20
-1235.300672589274
 30
0.0
  0
SPLINE
  5
51
330
1F
100
AcDbEntity
  8
Livello 1
370
     0
100
AcDbSpline
210
0.0
220
0.0
230
1.0
 70
    11
 71
     3
 72
    11
 73
     7
 74
     0
 42
0.0000000001
 43
0.0000000001
 12
1.0
 22
0.0
 32
0.0
 13
1.0
 23
0.0
 33
0.0
 40
0.0
 40
0.0
 40
0.0
 40
0.0
 40
1.0
 40
1.0
 40
1.0
 40
2.0
 40
2.0
 40
2.0
 40
2.0
 10
898.4978122160328
 20
-1200.795192556507
 30
0.0
 10
872.8852680103682
 20
-1205.87147871864
 30
0.0
 10
847.9125795834616
 20
-1225.98713780395
 30
0.0
 10
831.732129079247
 20
-1245.655644859635
 30
0.0
 10
836.2114599617471
 20
-1215.464652090381
 30
0.0
 10
868.2243149409014
 20
-1202.601552936812
 30
0.0
 10
898.4978122160328
 20
-1200.795192556507
 30
0.0
  0
SPLINE
  5
52
330
1F
100
AcDbEntity
  8
Livello 1
370
     0
100
AcDbSpline
210
0.0
220
0.0
230
1.0
 70
    11
 71
     3
 72
    14
 73
    10
 74
     0
 42
0.0000000001
 43
0.0000000001
 12
1.0
 22
0.0
 32
0.0
 13
1.0
 23
0.0
 33
0.0
 40
0.0
 40
0.0
 40
0.0
 40
0.0
 40
1.0
 40
1.0
 40
1.0
 40
2.0
 40
2.0
 40
2.0
 40
3.0
 40
3.0
 40
3.0
 40
3.0
 10
924.5360666239858
 20
-1217.582422799187
 30
0.0
 10
924.6093972324725
 20
-1217.898391768267
 30
0.0
 10
924.6796343106398
 20
-1218.211503294555
 30
0.0
 10
924.7541905268818
 20
-1218.528317692104
 30
0.0
 10
870.8649456822013
 20
-1222.246004438362
 30
0.0
 10
837.056583956597
 20
-1296.701839687579
 30
0.0
 10
845.5346075627831
 20
-1361.493827255905
 30
0.0
 10
779.615591173485
 20
-1306.774542592091
 30
0.0
 10
870.2273590888663
 20
-1198.823744150648
 30
0.0
 10
924.5360666239858
 20
-1217.582422799187
 30
0.0
  0
SPLINE
  5
53
330
1F
100
AcDbEntity
  8
Livello 1
370
     0
100
AcDbSpline
210
0.0
220
0.0
230
1.0
 70
    11
 71
     3
 72
    20
 73
    16
 74
     0
 42
0.0000000001
 43
0.0000000001
 12
1.0
 22
0.0
 32
0.0
 13
1.0
 23
0.0
 33
0.0
 40
0.0
 40
0.0
 40
0.0
 40
0.0
 40
1.0
 40
1.0
 40
1.0
 40
2.0
 40
2.0
 40
2.0
 40
3.0
 40
3.0
 40
3.0
 40
4.0
 40
4.0
 40
4.0
 40
5.0
 40
5.0
 40
5.0
 40
5.0
 10
777.4167472827348
 20
-959.2903957216795
 30
0.0
 10
777.4167472827348
 20
-959.2903957216795
 30
0.0
 10
774.9214629111411
 20
-918.5455684336539
 30
0.0
 10
774.9214629111411
 20
-918.5455684336539
 30
0.0
 10
775.0794277972873
 20
-909.2986897522123
 30
0.0
 10
782.7092111290076
 20
-901.928230091883
 30
0.0
 10
791.9561016148264
 20
-902.0864925266833
 30
0.0
 10
801.2029802962688
 20
-902.2444574128267
 30
0.0
 10
808.5856394514904
 20
-909.8737567651187
 30
0.0
 10
808.4273652123165
 20
-919.1203497022807
 30
0.0
 10
808.4273652123165
 20
-919.1203497022807
 30
0.0
 10
804.9823553973993
 20
-965.508656621063
 30
0.0
 10
804.9823553973993
 20
-965.508656621063
 30
0.0
 10
804.9823553973993
 20
-965.508656621063
 30
0.0
 10
777.4167472827348
 20
-959.2903957216795
 30
0.0
 10
777.4167472827348
 20
-959.2903957216795
 30
0.0
  0
SPLINE
  5
54
330
1F
100
AcDbEntity
  8
Livello 1
370
     0
100
AcDbSpline
210
0.0
220
0.0
230
1.0
 70
    11
 71
     3
 72
    20
 73
    16
 74
     0
 42
0.0000000001
 43
0.0000000001
 12
1.0
 22
0.0
 32
0.0
 13
1.0
 23
0.0
 33
0.0
 40
0.0
 40
0.0
 40
0.0
 40
0.0
 40
1.0
 40
1.0
 40
1.0
 40
2.0
 40
2.0
 40
2.0
 40
3.0
 40
3.0
 40
3.0
 40
4.0
 40
4.0
 40
4.0
 40
5.0
 40
5.0
 40
5.0
 40
5.0
 10
785.7355332729212
 20
-1015.441142444783
 30
0.0
 10
794.9824119543609
 20
-1015.599107330927
 30
0.0
 10
802.3528716146911
 20
-1023.228890662649
 30
0.0
 10
802.1953907079769
 20
-1032.487968838985
 30
0.0
 10
802.1953907079769
 20
-1032.487968838985
 30
0.0
 10
795.1115744726458
 20
-1085.92956199282
 30
0.0
 10
795.1115744726458
 20
-1085.92956199282
 30
0.0
 10
795.1115744726458
 20
-1085.92956199282
 30
0.0
 10
765.4745455954717
 20
-1077.339905046058
 30
0.0
 10
765.4745455954717
 20
-1077.339905046058
 30
0.0
 10
765.4745455954717
 20
-1077.339905046058
 30
0.0
 10
768.689179053772
 20
-1031.912901826079
 30
0.0
 10
768.689179053772
 20
-1031.912901826079
 30
0.0
 10
768.8474414885713
 20
-1022.666011340261
 30
0.0
 10
776.4764550965847
 20
-1015.283661538069
 30
0.0
 10
785.7355332729212
 20
-1015.441142444783
 30
0.0
  0
SPLINE
  5
55
330
1F
100
AcDbEntity
  8
Livello 1
370
     0
100
AcDbSpline
210
0.0
220
0.0
230
1.0
 70
    11
 71
     3
 72
    17
 73
    13
 74
     0
 42
0.0000000001
 43
0.0000000001
 12
1.0
 22
0.0
 32
0.0
 13
1.0
 23
0.0
 33
0.0
 40
0.0
 40
0.0
 40
0.0
 40
0.0
 40
1.0
 40
1.0
 40
1.0
 40
2.0
 40
2.0
 40
2.0
 40
3.0
 40
3.0
 40
3.0
 40
4.0
 40
4.0
 40
4.0
 40
4.0
 10
809.6967474218618
 20
-1335.266172448944
 30
0.0
 10
815.9872028519794
 20
-1357.339380684509
 30
0.0
 10
832.6123298613556
 20
-1374.900264057454
 30
0.0
 10
851.5544316522082
 20
-1384.417482447476
 30
0.0
 10
853.1210458085634
 20
-1386.692082578345
 30
0.0
 10
854.7977288789234
 20
-1388.78141975078
 30
0.0
 10
856.5550280329844
 20
-1390.709311709023
 30
0.0
 10
839.5719464269696
 20
-1384.452085566456
 30
0.0
 10
822.8934035784705
 20
-1377.044650964664
 30
0.0
 10
806.6380884273185
 20
-1368.473954790745
 30
0.0
 10
807.5655304682832
 20
-1358.310544921591
 30
0.0
 10
808.5919198690717
 20
-1347.178230687012
 30
0.0
 10
809.6967474218618
 20
-1335.266172448944
 30
0.0
  0
SPLINE
  5
56
330
1F
100
AcDbEntity
  8
Livello 1
370
     0
100
AcDbSpline
210
0.0
220
0.0
230
1.0
 70
    11
 71
     3
 72
    11
 73
     7
 74
     0
 42
0.0000000001
 43
0.0000000001
 12
1.0
 22
0.0
 32
0.0
 13
1.0
 23
0.0
 33
0.0
 40
0.0
 40
0.0
 40
0.0
 40
0.0
 40
1.0
 40
1.0
 40
1.0
 40
2.0
 40
2.0
 40
2.0
 40
2.0
 10
1037.950700944844
 20
-1009.502575700382
 30
0.0
 10
1040.4226002756
 20
-1008.980432159329
 30
0.0
 10
1052.603846875947
 20
-1010.177396299106
 30
0.0
 10
1049.627478745077
 20
-1022.58539645754
 30
0.0
 10
1037.304368656245
 20
-1023.551703130281
 30
0.0
 10
1036.102066743748
 20
-1012.048263580029
 30
0.0
 10
1037.950700944844
 20
-1009.502575700382
 30
0.0
  0
SPLINE
  5
57
330
1F
100
AcDbEntity
  8
Livello 1
370
     0
100
AcDbSpline
210
0.0
220
0.0
230
1.0
 70
    11
 71
     3
 72
    11
 73
     7
 74
     0
 42
0.0000000001
 43
0.0000000001
 12
1.0
 22
0.0
 32
0.0
 13
1.0
 23
0.0
 33
0.0
 40
0.0
 40
0.0
 40
0.0
 40
0.0
 40
1.0
 40
1.0
 40
1.0
 40
2.0
 40
2.0
 40
2.0
 40
2.0
 10
1078.713496255197
 20
-1011.817168271235
 30
0.0
 10
1080.26186773207
 20
-1014.555908500377
 30
0.0
 10
1077.76518544656
 20
-1025.849070157332
 30
0.0
 10
1065.630687302411
 20
-1023.49424362012
 30
0.0
 10
1064.07801994757
 20
-1010.82902689042
 30
0.0
 10
1076.316451248384
 20
-1011.018511187031
 30
0.0
 10
1078.713496255197
 20
-1011.817168271235
 30
0.0
  0
SPLINE
  5
58
330
1F
100
AcDbEntity
  8
Livello 1
370
     0
100
AcDbSpline
210
0.0
220
0.0
230
1.0
 70
    11
 71
     3
 72
    17
 73
    13
 74
     0
 42
0.0000000001
 43
0.0000000001
 12
1.0
 22
0.0
 32
0.0
 13
1.0
 23
0.0
 33
0.0
 40
0.0
 40
0.0
 40
0.0
 40
0.0
 40
1.0
 40
1.0
 40
1.0
 40
2.0
 40
2.0
 40
2.0
 40
3.0
 40
3.0
 40
3.0
 40
4.0
 40
4.0
 40
4.0
 40
4.0
 10
696.8097586193671
 20
-1033.299755128333
 30
0.0
 10
695.8112382297095
 20
-1008.130411871061
 30
0.0
 10
727.9493780197454
 20
-1011.457998708327
 30
0.0
 10
728.7655916213098
 20
-1032.032000523272
 30
0.0
 10
728.7655916213098
 20
-1032.032000523272
 30
0.0
 10
726.3775467132373
 20
-1076.449609671356
 30
0.0
 10
726.3775467132373
 20
-1076.449609671356
 30
0.0
 10
726.3775467132373
 20
-1076.449609671356
 30
0.0
 10
698.8794396283083
 20
-1069.776877153559
 30
0.0
 10
698.8794396283083
 20
-1069.776877153559
 30
0.0
 10
698.8794396283083
 20
-1069.776877153559
 30
0.0
 10
696.8097586193671
 20
-1033.299755128333
 30
0.0
 10
696.8097586193671
 20
-1033.299755128333
 30
0.0
  0
SPLINE
  5
59
330
1F
100
AcDbEntity
  8
Livello 1
370
     0
100
AcDbSpline
210
0.0
220
0.0
230
1.0
 70
    11
 71
     3
 72
    20
 73
    16
 74
     0
 42
0.0000000001
 43
0.0000000001
 12
1.0
 22
0.0
 32
0.0
 13
1.0
 23
0.0
 33
0.0
 40
0.0
 40
0.0
 40
0.0
 40
0.0
 40
1.0
 40
1.0
 40
1.0
 40
2.0
 40
2.0
 40
2.0
 40
3.0
 40
3.0
 40
3.0
 40
4.0
 40
4.0
 40
4.0
 40
5.0
 40
5.0
 40
5.0
 40
5.0
 10
774.0157410232141
 20
-1189.254510354411
 30
0.0
 10
774.0157410232141
 20
-1189.254510354411
 30
0.0
 10
756.5645894729587
 20
-1273.97808019799
 30
0.0
 10
756.5645894729587
 20
-1273.97808019799
 30
0.0
 10
756.5645894729587
 20
-1273.97808019799
 30
0.0
 10
726.4143012149507
 20
-1261.991126822857
 30
0.0
 10
726.4143012149507
 20
-1261.991126822857
 30
0.0
 10
726.4143012149507
 20
-1261.991126822857
 30
0.0
 10
727.2805265822299
 20
-1179.829545981727
 30
0.0
 10
727.2805265822299
 20
-1179.829545981727
 30
0.0
 10
726.7428608490045
 20
-1166.276799800988
 30
0.0
 10
737.2877695084444
 20
-1154.847926650065
 30
0.0
 10
750.8405156891804
 20
-1154.310260916838
 30
0.0
 10
764.3929643212605
 20
-1153.772606987986
 30
0.0
 10
778.7519543578455
 20
-1160.636988949878
 30
0.0
 10
774.0157410232141
 20
-1189.254510354411
 30
0.0
  0
SPLINE
  5
5A
330
1F
100
AcDbEntity
  8
Livello 1
370
     0
100
AcDbSpline
210
0.0
220
0.0
230
1.0
 70
    11
 71
     3
 72
    29
 73
    25
 74
     0
 42
0.0000000001
 43
0.0000000001
 12
1.0
 22
0.0
 32
0.0
 13
1.0
 23
0.0
 33
0.0
 40
0.0
 40
0.0
 40
0.0
 40
0.0
 40
1.0
 40
1.0
 40
1.0
 40
2.0
 40
2.0
 40
2.0
 40
3.0
 40
3.0
 40
3.0
 40
4.0
 40
4.0
 40
4.0
 40
5.0
 40
5.0
 40
5.0
 40
6.0
 40
6.0
 40
6.0
 40
7.0
 40
7.0
 40
7.0
 40
8.0
 40
8.0
 40
8.0
 40
8.0
 10
1196.424098322681
 20
-1421.075317663508
 30
0.0
 10
1184.990973924458
 20
-1426.423822146917
 30
0.0
 10
1173.30847304177
 20
-1431.33072422136
 30
0.0
 10
1161.386847447418
 20
-1435.746444379183
 30
0.0
 10
1155.368544979183
 20
-1430.168805989648
 30
0.0
 10
1155.730973009464
 20
-1420.915007896288
 30
0.0
 10
1149.094457429383
 20
-1414.823378664394
 30
0.0
 10
1145.901799409692
 20
-1411.88612570519
 30
0.0
 10
1140.690672911624
 20
-1414.680543237271
 30
0.0
 10
1141.385335572139
 20
-1418.962011746778
 30
0.0
 10
1142.571402138748
 20
-1426.397865863531
 30
0.0
 10
1145.055332731758
 20
-1433.623387965195
 30
0.0
 10
1148.674785700014
 20
-1440.242397570757
 30
0.0
 10
1039.86760727649
 20
-1477.066397481562
 30
0.0
 10
914.8004524455719
 20
-1473.606709338434
 30
0.0
 10
802.1008797956101
 20
-1420.264234477821
 30
0.0
 10
802.7319560664891
 20
-1412.170687184527
 30
0.0
 10
803.7536670551835
 20
-1400.387093477348
 30
0.0
 10
805.0757622199626
 20
-1385.710950965622
 30
0.0
 10
921.79255023326
 20
-1444.858863964801
 30
0.0
 10
1055.755306310506
 20
-1445.774326328054
 30
0.0
 10
1168.303947166398
 20
-1398.106960141635
 30
0.0
 10
1174.404164688644
 20
-1405.771937765719
 30
0.0
 10
1197.593481786098
 20
-1410.324752604207
 30
0.0
 10
1196.424098322681
 20
-1421.075317663508
 30
0.0
  0
SPLINE
  5
5B
330
1F
100
AcDbEntity
  8
Livello 1
370
     0
100
AcDbSpline
210
0.0
220
0.0
230
1.0
 70
    11
 71
     3
 72
    14
 73
    10
 74
     0
 42
0.0000000001
 43
0.0000000001
 12
1.0
 22
0.0
 32
0.0
 13
1.0
 23
0.0
 33
0.0
 40
0.0
 40
0.0
 40
0.0
 40
0.0
 40
1.0
 40
1.0
 40
1.0
 40
2.0
 40
2.0
 40
2.0
 40
3.0
 40
3.0
 40
3.0
 40
3.0
 10
1199.209615894455
 20
-1400.213293394459
 30
0.0
 10
1195.248499647741
 20
-1399.44271234798
 30
0.0
 10
1187.459234453521
 20
-1395.100876078086
 30
0.0
 10
1180.708266674697
 20
-1392.622176757835
 30
0.0
 10
1193.870745252532
 20
-1386.619163840252
 30
0.0
 10
1208.754041046193
 20
-1378.845013600861
 30
0.0
 10
1223.067358624274
 20
-1370.202702893141
 30
0.0
 10
1226.183538023743
 20
-1385.056813936422
 30
0.0
 10
1214.266473987587
 20
-1403.131662481108
 30
0.0
 10
1199.209615894455
 20
-1400.213293394459
 30
0.0
  0
SPLINE
  5
5C
330
1F
100
AcDbEntity
  8
Livello 1
370
     0
100
AcDbSpline
210
0.0
220
0.0
230
1.0
 70
    11
 71
     3
 72
    59
 73
    55
 74
     0
 42
0.0000000001
 43
0.0000000001
 12
1.0
 22
0.0
 32
0.0
 13
1.0
 23
0.0
 33
0.0
 40
0.0
 40
0.0
 40
0.0
 40
0.0
 40
1.0
 40
1.0
 40
1.0
 40
2.0
 40
2.0
 40
2.0
 40
3.0
 40
3.0
 40
3.0
 40
4.0
 40
4.0
 40
4.0
 40
5.0
 40
5.0
 40
5.0
 40
6.0
 40
6.0
 40
6.0
 40
7.0
 40
7.0
 40
7.0
 40
8.0
 40
8.0
 40
8.0
 40
9.0
 40
9.0
 40
9.0
 40
10.0
 40
10.0
 40
10.0
 40
11.0
 40
11.0
 40
11.0
 40
12.0
 40
12.0
 40
12.0
 40
13.0
 40
13.0
 40
13.0
 40
14.0
 40
14.0
 40
14.0
 40
15.0
 40
15.0
 40
15.0
 40
16.0
 40
16.0
 40
16.0
 40
17.0
 40
17.0
 40
17.0
 40
18.0
 40
18.0
 40
18.0
 40
18.0
 10
1217.525029114589
 20
-1324.647173589405
 30
0.0
 10
1216.01266696417
 20
-1315.454341573051
 30
0.0
 10
1222.997590299132
 20
-1305.057771182626
 30
0.0
 10
1220.465197167134
 20
-1296.918663589342
 30
0.0
 10
1219.361930903651
 20
-1293.410368316636
 30
0.0
 10
1216.65531582005
 20
-1294.115865426338
 30
0.0
 10
1215.886633965974
 20
-1296.892884945286
 30
0.0
 10
1202.135590443808
 20
-1346.5486324179
 30
0.0
 10
1180.026574284759
 20
-1330.547254685553
 30
0.0
 10
1157.161282870571
 20
-1333.230549611479
 30
0.0
 10
1152.288697872355
 20
-1344.873964857696
 30
0.0
 10
1188.552135585192
 20
-1344.802322377745
 30
0.0
 10
1194.141444787381
 20
-1345.996759408474
 30
0.0
 10
1201.762363508755
 20
-1347.635108098399
 30
0.0
 10
1209.270221371373
 20
-1351.035944196778
 30
0.0
 10
1214.902891328304
 20
-1356.403282594209
 30
0.0
 10
1154.786273543983
 20
-1392.797929816068
 30
0.0
 10
1087.313235513151
 20
-1412.706960778236
 30
0.0
 10
1019.066947205316
 20
-1415.829273112551
 30
0.0
 10
1024.378540741385
 20
-1413.531538336461
 30
0.0
 10
1029.164368281205
 20
-1410.338259642424
 30
0.0
 10
1033.319511625552
 20
-1406.406780071968
 30
0.0
 10
1056.446719228494
 20
-1407.996790169858
 30
0.0
 10
1076.723898102387
 20
-1393.997055207619
 30
0.0
 10
1087.131762293657
 20
-1375.755884898546
 30
0.0
 10
1125.37984623846
 20
-1356.555094455292
 30
0.0
 10
1138.031229857415
 20
-1321.693123756415
 30
0.0
 10
1127.895902568423
 20
-1280.643613537057
 30
0.0
 10
1135.425405847223
 20
-1268.875189586579
 30
0.0
 10
1145.828900069329
 20
-1226.962915036496
 30
0.0
 10
1171.971315178153
 20
-1206.242091217468
 30
0.0
 10
1183.734970161333
 20
-1196.912974104725
 30
0.0
 10
1187.77032314932
 20
-1204.174697604234
 30
0.0
 10
1194.740770022703
 20
-1206.949859097862
 30
0.0
 10
1205.296158640416
 20
-1211.169738781711
 30
0.0
 10
1216.087625162756
 20
-1202.575358033726
 30
0.0
 10
1226.47546344428
 20
-1197.951973139352
 30
0.0
 10
1247.131255602508
 20
-1188.77075487508
 30
0.0
 10
1271.028944934764
 20
-1195.464136527553
 30
0.0
 10
1292.599208680263
 20
-1202.249852011704
 30
0.0
 10
1312.030660013141
 20
-1208.354840721535
 30
0.0
 10
1304.80055443803
 20
-1232.906202649725
 30
0.0
 10
1269.153466409605
 20
-1237.725225526563
 30
0.0
 10
1232.481818411483
 20
-1242.698229469494
 30
0.0
 10
1227.852451873498
 20
-1252.846532173779
 30
0.0
 10
1235.307845422494
 20
-1254.43609056919
 30
0.0
 10
1268.191581788637
 20
-1261.481065274285
 30
0.0
 10
1311.738954133247
 20
-1238.244970054493
 30
0.0
 10
1338.753028817049
 20
-1241.641135585334
 30
0.0
 10
1309.678657913882
 20
-1282.307751274562
 30
0.0
 10
1273.433746778483
 20
-1317.619462326074
 30
0.0
 10
1231.796668885478
 20
-1345.625825966774
 30
0.0
 10
1226.81983174655
 20
-1338.633310303976
 30
0.0
 10
1218.921714136211
 20
-1333.087631680053
 30
0.0
 10
1217.525029114589
 20
-1324.647173589405
 30
0.0
  0
SPLINE
  5
5D
330
1F
100
AcDbEntity
  8
Livello 1
370
     0
100
AcDbSpline
210
0.0
220
0.0
230
1.0
 70
    11
 71
     3
 72
    17
 73
    13
 74
     0
 42
0.0000000001
 43
0.0000000001
 12
1.0
 22
0.0
 32
0.0
 13
1.0
 23
0.0
 33
0.0
 40
0.0
 40
0.0
 40
0.0
 40
0.0
 40
1.0
 40
1.0
 40
1.0
 40
2.0
 40
2.0
 40
2.0
 40
3.0
 40
3.0
 40
3.0
 40
4.0
 40
4.0
 40
4.0
 40
4.0
 10
1252.284908282199
 20
-1390.063611957834
 30
0.0
 10
1232.109935703642
 20
-1386.342183899615
 30
0.0
 10
1238.619713999064
 20
-1376.641558038355
 30
0.0
 10
1236.97745661013
 20
-1361.447645421587
 30
0.0
 10
1246.162682015465
 20
-1355.431654721939
 30
0.0
 10
1255.101311890658
 20
-1349.059184137681
 30
0.0
 10
1263.795195036151
 20
-1342.354299696814
 30
0.0
 10
1266.238151696974
 20
-1352.257937639381
 30
0.0
 10
1277.708975280795
 20
-1361.140929552348
 30
0.0
 10
1279.221328418393
 20
-1371.197415076895
 30
0.0
 10
1270.486776717633
 20
-1377.793646648974
 30
0.0
 10
1261.49567526258
 20
-1384.082966039728
 30
0.0
 10
1252.284908282199
 20
-1390.063611957834
 30
0.0
  0
SPLINE
  5
5E
330
1F
100
AcDbEntity
  8
Livello 1
370
     0
100
AcDbSpline
210
0.0
220
0.0
230
1.0
 70
    11
 71
     3
 72
    17
 73
    13
 74
     0
 42
0.0000000001
 43
0.0000000001
 12
1.0
 22
0.0
 32
0.0
 13
1.0
 23
0.0
 33
0.0
 40
0.0
 40
0.0
 40
0.0
 40
0.0
 40
1.0
 40
1.0
 40
1.0
 40
2.0
 40
2.0
 40
2.0
 40
3.0
 40
3.0
 40
3.0
 40
4.0
 40
4.0
 40
4.0
 40
4.0
 10
1292.209401910615
 20
-1361.038620273186
 30
0.0
 10
1284.980851710559
 20
-1355.21306409617
 30
0.0
 10
1276.784306046167
 20
-1341.168456387004
 30
0.0
 10
1278.354820990859
 20
-1330.583171916249
 30
0.0
 10
1306.07374384946
 20
-1307.222531505999
 30
0.0
 10
1331.991063065694
 20
-1279.262246639169
 30
0.0
 10
1353.911862438528
 20
-1248.046429761573
 30
0.0
 10
1366.778772168303
 20
-1258.03809026922
 30
0.0
 10
1366.997433714076
 20
-1258.832273199983
 30
0.0
 10
1385.99793851888
 20
-1258.369944096656
 30
0.0
 10
1360.613789774086
 20
-1296.163901817454
 30
0.0
 10
1329.252772146667
 20
-1330.987119844431
 30
0.0
 10
1292.209401910615
 20
-1361.038620273186
 30
0.0
  0
SPLINE
  5
5F
330
1F
100
AcDbEntity
  8
Livello 1
370
     0
100
AcDbSpline
210
0.0
220
0.0
230
1.0
 70
    11
 71
     3
 72
    35
 73
    31
 74
     0
 42
0.0000000001
 43
0.0000000001
 12
1.0
 22
0.0
 32
0.0
 13
1.0
 23
0.0
 33
0.0
 40
0.0
 40
0.0
 40
0.0
 40
0.0
 40
1.0
 40
1.0
 40
1.0
 40
2.0
 40
2.0
 40
2.0
 40
3.0
 40
3.0
 40
3.0
 40
4.0
 40
4.0
 40
4.0
 40
5.0
 40
5.0
 40
5.0
 40
6.0
 40
6.0
 40
6.0
 40
7.0
 40
7.0
 40
7.0
 40
8.0
 40
8.0
 40
8.0
 40
9.0
 40
9.0
 40
9.0
 40
10.0
 40
10.0
 40
10.0
 40
10.0
 10
1418.710520837245
 20
-1152.484605572172
 30
0.0
 10
1424.421179028141
 20
-1156.737842785962
 30
0.0
 10
1429.479839511154
 20
-1161.480958516928
 30
0.0
 10
1433.859112998296
 20
-1166.324041103533
 30
0.0
 10
1426.710938895398
 20
-1184.917786126618
 30
0.0
 10
1418.393027104397
 20
-1202.947598351217
 30
0.0
 10
1408.987882017354
 20
-1220.337190500624
 30
0.0
 10
1391.349940655373
 20
-1217.277142485033
 30
0.0
 10
1388.307515655328
 20
-1204.898116474746
 30
0.0
 10
1387.269074142863
 20
-1191.951138458313
 30
0.0
 10
1532.692428181979
 20
-899.0058931926296
 30
0.0
 10
1310.838469140537
 20
-555.2264174498405
 30
0.0
 10
982.9187243405504
 20
-568.2356782798261
 30
0.0
 10
804.0803777232823
 20
-575.330568826801
 30
0.0
 10
650.2230463663818
 20
-691.0501145955222
 30
0.0
 10
591.8445827390406
 20
-857.9388239749569
 30
0.0
 10
584.2030793856229
 20
-841.0881221365216
 30
0.0
 10
578.8290516476218
 20
-825.6011915387307
 30
0.0
 10
575.0580342207377
 20
-812.3147010220828
 30
0.0
 10
644.6386753357319
 20
-655.4324366364208
 30
0.0
 10
798.8654828612207
 20
-542.9940025395399
 30
0.0
 10
981.629686444956
 20
-535.7433650512257
 30
0.0
 10
1308.520507992707
 20
-522.7749237546004
 30
0.0
 10
1547.29560900158
 20
-844.9733384936671
 30
0.0
 10
1438.455800869418
 20
-1153.886031428901
 30
0.0
 10
1434.115682498568
 20
-1150.029917734049
 30
0.0
 10
1428.963706783063
 20
-1146.938537803013
 30
0.0
 10
1422.599709592914
 20
-1144.981811130907
 30
0.0
 10
1411.774442257325
 20
-1141.651490114786
 30
0.0
 10
1414.823570685367
 20
-1149.587115326602
 30
0.0
 10
1418.710520837245
 20
-1152.484605572172
 30
0.0
  0
HATCH
  5
60
330
1F
100
AcDbEntity
  8
Livello 1
 62
     7
420
 16777215
100
AcDbHatch
 10
0.0
 20
0.0
 30
0.0
210
0.0
220
0.0
230
1.0
  2
SOLID
 70
     1
 71
     0
 91
       31
 92
        1
 93
        1
 72
     4
 94
        3
 73
     0
 74
     1
 95
       17
 96
       13
 40
0.0
 40
0.0
 40
0.0
 40
0.0
 40
1.0
 40
1.0
 40
1.0
 40
2.0
 40
2.0
 40
2.0
 40
3.0
 40
3.0
 40
3.0
 40
4.0
 40
4.0
 40
4.0
 40
4.0
 10
1339.302206429909
 20
-632.7087113648049
 10
1242.409766800485
 20
-543.2113406466251
 10
1114.461533206577
 20
-495.0740017957396
 10
980.2275154065865
 20
-500.3993455040982
 10
622.0235659537238
 20
-514.6100439529082
 10
395.6988522319652
 20
-890.2653094294292
 10
547.4252439731226
 20
-1212.7331149823
 10
630.4872320836475
 20
-1389.25504793982
 10
813.0411965566936
 20
-1507.804517904744
 10
1019.867862397608
 20
-1499.599272306736
 10
1463.12163192096
 20
-1482.014469948703
 10
1666.485204505852
 20
-934.9245286597479
 10
1339.302206429909
 20
-632.7087113648049
 97
        0
 97
        0
 92
        1
 93
        1
 72
     4
 94
        3
 73
     0
 74
     1
 95
       14
 96
       10
 40
0.0
 40
0.0
 40
0.0
 40
0.0
 40
1.0
 40
1.0
 40
1.0
 40
2.0
 40
2.0
 40
2.0
 40
3.0
 40
3.0
 40
3.0
 40
3.0
 10
563.8289444593165
 20
-1020.289358971782
 10
563.8289444593165
 20
-1020.289358971782
 10
535.7094017252994
 20
-1016.183960807826
 10
535.7094017252994
 20
-1016.183960807826
 10
535.3742282636922
 20
-1007.735364271077
 10
533.319964085008
 20
-944.2355387966008
 10
545.2270550138655
 20
-940.9182897406426
 10
578.7295492045378
 20
-931.5814601371285
 10
568.551869345014
 20
-974.2771147814074
 10
563.8289444593165
 20
-1020.289358971782
 97
        0
 97
        0
 92
        1
 93
        1
 72
     4
 94
        3
 73
     0
 74
     1
 95
       17
 96
       13
 40
0.0
 40
0.0
 40
0.0
 40
0.0
 40
1.0
 40
1.0
 40
1.0
 40
2.0
 40
2.0
 40
2.0
 40
3.0
 40
3.0
 40
3.0
 40
4.0
 40
4.0
 40
4.0
 40
4.0
 10
640.2556378243316
 20
-1293.687454179984
 10
640.2556378243316
 20
-1293.687454179984
 10
631.5678623521244
 20
-1225.861928793383
 10
631.5678623521244
 20
-1225.861928793383
 10
641.3899337114071
 20
-1241.570248856995
 10
650.4350402689406
 20
-1254.963999259548
 10
663.7778843513943
 20
-1271.446064902375
 10
664.2753389502641
 20
-1287.673618475666
 10
665.0602950738148
 20
-1304.695306106696
 10
666.2200844083773
 20
-1322.849488618493
 10
652.514454562157
 20
-1308.716182293429
 10
641.116915086568
 20
-1294.874559015883
 10
640.2556378243316
 20
-1293.687454179984
 97
        0
 97
        0
 92
        1
 93
        1
 72
     4
 94
        3
 73
     0
 74
     1
 95
       17
 96
       13
 40
0.0
 40
0.0
 40
0.0
 40
0.0
 40
1.0
 40
1.0
 40
1.0
 40
2.0
 40
2.0
 40
2.0
 40
3.0
 40
3.0
 40
3.0
 40
4.0
 40
4.0
 40
4.0
 40
4.0
 10
663.1502605957121
 20
-1244.237578190783
 10
649.0901700424083
 20
-1224.910487682591
 10
636.6525397796377
 20
-1204.322790709477
 10
626.0400078479124
 20
-1182.661947323239
 10
626.0307463790614
 20
-1182.631320981178
 10
621.157279579731
 20
-1144.583125251065
 10
621.157279579731
 20
-1144.583125251065
 10
633.7747332970703
 20
-1136.635716721084
 10
650.0736883108602
 20
-1135.98493091312
 10
663.6965104876808
 20
-1145.086227831904
 10
663.2060601940975
 20
-1177.95341238812
 10
662.6453036911689
 20
-1209.664398180252
 10
663.1502605957121
 20
-1244.237578190783
 97
        0
 97
        0
 92
        1
 93
        1
 72
     4
 94
        3
 73
     0
 74
     1
 95
      146
 96
      142
 40
0.0
 40
0.0
 40
0.0
 40
0.0
 40
1.0
 40
1.0
 40
1.0
 40
2.0
 40
2.0
 40
2.0
 40
3.0
 40
3.0
 40
3.0
 40
4.0
 40
4.0
 40
4.0
 40
5.0
 40
5.0
 40
5.0
 40
6.0
 40
6.0
 40
6.0
 40
7.0
 40
7.0
 40
7.0
 40
8.0
 40
8.0
 40
8.0
 40
9.0
 40
9.0
 40
9.0
 40
10.0
 40
10.0
 40
10.0
 40
11.0
 40
11.0
 40
11.0
 40
12.0
 40
12.0
 40
12.0
 40
13.0
 40
13.0
 40
13.0
 40
14.0
 40
14.0
 40
14.0
 40
15.0
 40
15.0
 40
15.0
 40
16.0
 40
16.0
 40
16.0
 40
17.0
 40
17.0
 40
17.0
 40
18.0
 40
18.0
 40
18.0
 40
19.0
 40
19.0
 40
19.0
 40
20.0
 40
20.0
 40
20.0
 40
21.0
 40
21.0
 40
21.0
 40
22.0
 40
22.0
 40
22.0
 40
23.0
 40
23.0
 40
23.0
 40
24.0
 40
24.0
 40
24.0
 40
25.0
 40
25.0
 40
25.0
 40
26.0
 40
26.0
 40
26.0
 40
27.0
 40
27.0
 40
27.0
 40
28.0
 40
28.0
 40
28.0
 40
29.0
 40
29.0
 40
29.0
 40
30.0
 40
30.0
 40
30.0
 40
31.0
 40
31.0
 40
31.0
 40
32.0
 40
32.0
 40
32.0
 40
33.0
 40
33.0
 40
33.0
 40
34.0
 40
34.0
 40
34.0
 40
35.0
 40
35.0
 40
35.0
 40
36.0
 40
36.0
 40
36.0
 40
37.0
 40
37.0
 40
37.0
 40
38.0
 40
38.0
 40
38.0
 40
39.0
 40
39.0
 40
39.0
 40
40.0
 40
40.0
 40
40.0
 40
41.0
 40
41.0
 40
41.0
 40
42.0
 40
42.0
 40
42.0
 40
43.0
 40
43.0
 40
43.0
 40
44.0
 40
44.0
 40
44.0
 40
45.0
 40
45.0
 40
45.0
 40
46.0
 40
46.0
 40
46.0
 40
47.0
 40
47.0
 40
47.0
 40
47.0
 10
664.183349609375
 20
-1104.750610351562
 10
648.3486938476562
 20
-1096.5908203125
 10
631.514404296875
 20
-1095.72119140625
 10
616.0740356445312
 20
-1104.898193359375
 10
612.415771484375
 20
-1092.523071289062
 10
609.0215454101562
 20
-1079.552734375
 10
606.0
 20
-1066.0
 10
593.773681640625
 20
-1011.160095214844
 10
590.7490234375
 20
-960.685302734375
 10
592.05029296875
 20
-917.3388671875
 10
592.2486572265625
 20
-916.3497924804688
 10
592.4502563476562
 20
-915.3529663085938
 10
592.6641845703125
 20
-914.350341796875
 10
592.974365234375
 20
-912.8966064453125
 10
593.2889404296875
 20
-911.444580078125
 10
593.3048706054688
 20
-911.3719482421875
 10
593.3048706054688
 20
-911.3719482421875
 10
619.0134887695312
 20
-906.9513549804688
 10
619.0134887695312
 20
-906.9513549804688
 10
612.569580078125
 20
-897.2264404296875
 10
606.9154052734375
 20
-887.6668701171875
 10
601.9453125
 20
-878.3870849609375
 10
652.3074951171875
 20
-714.0026245117188
 10
802.2571411132812
 20
-591.271728515625
 10
983.5473022460938
 20
-584.0795288085938
 10
1318.746215820312
 20
-570.781494140625
 10
1529.92236328125
 20
-940.6748657226562
 10
1352.056030273438
 20
-1221.8876953125
 10
1328.231689453125
 20
-1218.156372070312
 10
1306.908081054688
 20
-1175.459716796875
 10
1327.737182617188
 20
-1157.192138671875
 10
1337.363037109375
 20
-1148.753784179688
 10
1351.538818359375
 20
-1144.54150390625
 10
1361.987060546875
 20
-1136.827392578125
 10
1369.008178710938
 20
-1131.653930664062
 10
1363.277221679688
 20
-1125.350830078125
 10
1354.84619140625
 20
-1127.6015625
 10
1330.907470703125
 20
-1134.032104492188
 10
1317.765258789062
 20
-1149.53125
 10
1315.412353515625
 20
-1151.7607421875
 10
1307.694091796875
 20
-1159.049438476562
 10
1305.995727539062
 20
-1148.240478515625
 10
1301.560424804688
 20
-1141.9833984375
 10
1295.316162109375
 20
-1133.1982421875
 10
1292.211181640625
 20
-1124.471435546875
 10
1286.806396484375
 20
-1116.238891601562
 10
1276.097778320312
 20
-1099.81689453125
 10
1255.322631835938
 20
-1106.034912109375
 10
1290.753540039062
 20
-1148.64990234375
 10
1295.688720703125
 20
-1154.594116210938
 10
1299.894775390625
 20
-1161.836669921875
 10
1295.875732421875
 20
-1169.454467773438
 10
1291.856689453125
 20
-1177.072387695312
 10
1284.377807617188
 20
-1177.173583984375
 10
1277.551513671875
 20
-1177.102661132812
 10
1215.063110351562
 20
-1176.496948242188
 10
1233.633056640625
 20
-1146.078002929688
 10
1218.294067382812
 20
-1120.653564453125
 10
1216.06005859375
 20
-1116.9580078125
 10
1209.550537109375
 20
-1120.255737304688
 10
1210.236083984375
 20
-1124.916015625
 10
1214.46044921875
 20
-1153.251098632812
 10
1221.9228515625
 20
-1174.280517578125
 10
1213.026977539062
 20
-1181.42041015625
 10
1200.356689453125
 20
-1191.5908203125
 10
1187.834106445312
 20
-1161.167724609375
 10
1156.564697265625
 20
-1197.270874023438
 10
1140.469604492188
 20
-1215.85302734375
 10
1128.510864257812
 20
-1237.963745117188
 10
1121.57861328125
 20
-1261.5439453125
 10
1120.642700195312
 20
-1259.316162109375
 10
1119.82861328125
 20
-1257.560668945312
 10
1119.262329101562
 20
-1256.394897460938
 10
1115.917724609375
 20
-1201.519409179688
 10
1086.111328125
 20
-1179.272705078125
 10
1053.015869140625
 20
-1181.372436523438
 10
1043.135620117188
 20
-1170.468872070312
 10
1030.529296875
 20
-1163.86279296875
 10
1017.909973144531
 20
-1163.492065429688
 10
1035.078491210938
 20
-1148.252563476562
 10
1057.050903320312
 20
-1127.59814453125
 10
1070.869262695312
 20
-1107.283935546875
 10
1089.047241210938
 20
-1080.561157226562
 10
1104.39501953125
 20
-1055.669555664062
 10
1087.412353515625
 20
-970.652099609375
 10
1087.412353515625
 20
-970.652099609375
 10
1082.330688476562
 20
-962.6466064453125
 10
1069.631469726562
 20
-989.6426391601562
 10
1069.631469726562
 20
-989.6426391601562
 10
1050.046630859375
 20
-988.53076171875
 10
1050.046630859375
 20
-988.53076171875
 10
1050.046630859375
 20
-988.53076171875
 10
1040.333862304688
 20
-967.5321655273438
 10
1034.420043945312
 20
-967.6505737304688
 10
1028.50634765625
 20
-967.7692260742188
 10
1023.130920410156
 20
-1012.447509765625
 10
1024.448486328125
 20
-1030.243530273438
 10
1025.765991210938
 20
-1048.038818359375
 10
1004.524047851562
 20
-1050.467895507812
 10
995.5921630859375
 20
-1049.506469726562
 10
986.6605834960938
 20
-1048.544799804688
 10
966.9636840820312
 20
-1043.337036132812
 10
946.1663818359375
 20
-1073.508422851562
 10
931.708740234375
 20
-1094.482666015625
 10
918.0422973632812
 20
-1123.420532226562
 10
918.0693969726562
 20
-1165.14892578125
 10
898.7788696289062
 20
-1162.97998046875
 10
879.0235595703125
 20
-1174.86279296875
 10
864.2906494140625
 20
-1191.24365234375
 10
844.3237915039062
 20
-1198.245239257812
 10
827.2808837890625
 20
-1210.344970703125
 10
819.523193359375
 20
-1230.20947265625
 10
833.8757934570312
 20
-1077.2001953125
 10
851.36474609375
 20
-890.0416870117188
 10
850.5465087890625
 20
-869.4158935546875
 10
850.5465087890625
 20
-869.4158935546875
 10
866.2617797851562
 20
-865.5455932617188
 10
866.2617797851562
 20
-865.5455932617188
 10
831.083984375
 20
-820.0037841796875
 10
818.8324584960938
 20
-795.693603515625
 10
805.9805908203125
 20
-771.9061279296875
 10
781.5213623046875
 20
-804.9496459960938
 10
780.2466430664062
 20
-805.7426147460938
 10
729.9692993164062
 20
-866.0698852539062
 10
729.9692993164062
 20
-866.0698852539062
 10
745.9901123046875
 20
-869.90185546875
 10
745.9901123046875
 20
-869.90185546875
 10
745.9901123046875
 20
-869.90185546875
 10
748.4473266601562
 20
-931.8392944335938
 10
748.4473266601562
 20
-931.8392944335938
 10
722.3421630859375
 20
-904.8845825195312
 10
712.465087890625
 20
-880.5332641601562
 10
704.9077758789062
 20
-864.8057250976562
 10
696.8269653320312
 20
-885.731201171875
 10
686.3424072265625
 20
-919.9112548828125
 10
644.7398681640625
 20
-958.328369140625
 10
644.7398681640625
 20
-958.328369140625
 10
660.7128295898438
 20
-960.9541015625
 10
660.7128295898438
 20
-960.9541015625
 10
665.0431518554688
 20
-1035.633178710938
 10
664.378662109375
 20
-1103.522216796875
 10
664.183349609375
 20
-1104.750610351562
 97
        0
 97
        0
 92
        1
 93
        1
 72
     4
 94
        3
 73
     0
 74
     1
 95
       17
 96
       13
 40
0.0
 40
0.0
 40
0.0
 40
0.0
 40
1.0
 40
1.0
 40
1.0
 40
2.0
 40
2.0
 40
2.0
 40
3.0
 40
3.0
 40
3.0
 40
4.0
 40
4.0
 40
4.0
 40
4.0
 10
1013.406303392592
 20
-1219.657983750974
 10
1047.828399634484
 20
-1207.381986422097
 10
1086.776818476352
 20
-1231.750588095743
 10
1104.505366596281
 20
-1262.334868164955
 10
1105.738871221545
 20
-1264.761559349758
 10
1122.01004446013
 20
-1297.710307794758
 10
1112.241655066657
 20
-1326.992372586436
 10
1108.760488118338
 20
-1337.425771653201
 10
1102.271660015062
 20
-1346.317344380564
 10
1092.887080761677
 20
-1353.565795552957
 10
1102.425194557523
 20
-1287.529792082736
 10
1064.584192189279
 20
-1225.382945420297
 10
1013.406303392592
 20
-1219.657983750974
 97
        0
 97
        0
 92
        1
 93
        1
 72
     4
 94
        3
 73
     0
 74
     1
 95
       17
 96
       13
 40
0.0
 40
0.0
 40
0.0
 40
0.0
 40
1.0
 40
1.0
 40
1.0
 40
2.0
 40
2.0
 40
2.0
 40
3.0
 40
3.0
 40
3.0
 40
4.0
 40
4.0
 40
4.0
 40
4.0
 10
1073.923347730495
 20
-1366.839010995798
 10
1072.01373230639
 20
-1370.319017162383
 10
1060.974591613891
 20
-1388.685961260635
 10
1040.411897871982
 20
-1390.515877962865
 10
1043.430952177179
 20
-1374.962105424765
 10
1044.443259774966
 20
-1351.403042604739
 10
1041.776139274894
 20
-1326.902188473705
 10
1059.19150902406
 20
-1322.098352332443
 10
1069.227315939883
 20
-1310.532025338529
 10
1073.856290435795
 20
-1298.975461022179
 10
1079.753828072739
 20
-1319.740662458575
 10
1080.448228727008
 20
-1343.471622235371
 10
1073.923347730495
 20
-1366.839010995798
 97
        0
 97
        0
 92
        1
 93
        1
 72
     4
 94
        3
 73
     0
 74
     1
 95
       20
 96
       16
 40
0.0
 40
0.0
 40
0.0
 40
0.0
 40
1.0
 40
1.0
 40
1.0
 40
2.0
 40
2.0
 40
2.0
 40
3.0
 40
3.0
 40
3.0
 40
4.0
 40
4.0
 40
4.0
 40
5.0
 40
5.0
 40
5.0
 40
5.0
 10
1023.239987558951
 20
-1394.094742396399
 10
1020.07987192011
 20
-1397.401441830778
 10
1007.665726926698
 20
-1408.250026244641
 10
985.7713564706355
 20
-1402.21893296421
 10
988.2630948489514
 20
-1389.01329459187
 10
992.9934437992688
 20
-1359.113638860006
 10
992.3136239441574
 20
-1325.563931878973
 10
1001.572397439219
 20
-1328.215230795911
 10
1012.124528863365
 20
-1329.3331811608
 10
1024.340207948706
 20
-1329.219590785899
 10
1024.965220508951
 20
-1329.213868318329
 10
1025.576527100769
 20
-1329.193192713214
 10
1026.188749947305
 20
-1329.173076792278
 10
1029.074900328507
 20
-1355.378839071789
 10
1027.540787919697
 20
-1380.666240159866
 10
1023.239987558951
 20
-1394.094742396399
 97
        0
 97
        0
 92
        1
 93
        1
 72
     4
 94
        3
 73
     0
 74
     1
 95
       14
 96
       10
 40
0.0
 40
0.0
 40
0.0
 40
0.0
 40
1.0
 40
1.0
 40
1.0
 40
2.0
 40
2.0
 40
2.0
 40
3.0
 40
3.0
 40
3.0
 40
3.0
 10
918.7294191653746
 20
-1181.342363088312
 10
918.8505884245078
 20
-1182.84164764894
 10
919.0047640230823
 20
-1184.369126458234
 10
919.1607957398537
 20
-1185.898319733209
 10
912.226694805433
 20
-1184.692861734431
 10
904.828714693128
 20
-1184.489858793575
 10
897.6085651411686
 20
-1184.923219560205
 10
905.5501014658876
 20
-1180.941361557543
 10
912.4658886213629
 20
-1179.919869324731
 10
918.7294191653746
 20
-1181.342363088312
 97
        0
 97
        0
 92
        1
 93
        1
 72
     4
 94
        3
 73
     0
 74
     1
 95
       14
 96
       10
 40
0.0
 40
0.0
 40
0.0
 40
0.0
 40
1.0
 40
1.0
 40
1.0
 40
2.0
 40
2.0
 40
2.0
 40
3.0
 40
3.0
 40
3.0
 40
3.0
 10
999.4921881909622
 20
-1192.915208397655
 10
998.787390203388
 20
-1191.781201077349
 10
998.2120144686342
 20
-1190.604211152153
 10
997.8553988489875
 20
-1189.375032080323
 10
1004.697939958996
 20
-1181.744641392244
 10
1013.961995588083
 20
-1175.169125668377
 10
1028.52483746856
 20
-1182.221515561872
 10
1019.649869567445
 20
-1183.543053237085
 10
1009.259962856137
 20
-1186.55931472408
 10
999.4921881909622
 20
-1192.915208397655
 97
        0
 97
        0
 92
        1
 93
        1
 72
     4
 94
        3
 73
     0
 74
     1
 95
       14
 96
       10
 40
0.0
 40
0.0
 40
0.0
 40
0.0
 40
1.0
 40
1.0
 40
1.0
 40
2.0
 40
2.0
 40
2.0
 40
3.0
 40
3.0
 40
3.0
 40
3.0
 10
1082.591922355361
 20
-1205.61274070376
 10
1089.538967350127
 20
-1211.050718087194
 10
1094.787352815247
 20
-1218.961081708974
 10
1098.322892025826
 20
-1229.23412811082
 10
1076.011307018602
 20
-1207.998966394753
 10
1044.546648248943
 20
-1195.055071414441
 10
1014.221433005036
 20
-1202.900040000804
 10
1029.98749193665
 20
-1195.539980263919
 10
1066.611613842409
 20
-1193.104164957971
 10
1082.591922355361
 20
-1205.61274070376
 97
        0
 97
        0
 92
        1
 93
        1
 72
     4
 94
        3
 73
     0
 74
     1
 95
       17
 96
       13
 40
0.0
 40
0.0
 40
0.0
 40
0.0
 40
1.0
 40
1.0
 40
1.0
 40
2.0
 40
2.0
 40
2.0
 40
3.0
 40
3.0
 40
3.0
 40
4.0
 40
4.0
 40
4.0
 40
4.0
 10
991.0920346838247
 20
-1303.97397942952
 10
989.1443974805534
 20
-1283.629038032177
 10
984.7548772034734
 20
-1262.970303862818
 10
976.3534429395131
 20
-1244.670095862657
 10
978.0463269151387
 20
-1244.170513012101
 10
979.6760536072898
 20
-1243.581348502128
 10
981.235122838435
 20
-1242.908860219639
 10
1004.472054616142
 20
-1250.419690532981
 10
1017.591646008887
 20
-1279.949153101381
 10
1023.599017741282
 20
-1311.716061546744
 10
1012.389986794788
 20
-1312.609560746019
 10
1001.163494678944
 20
-1309.907880024672
 10
991.0920346838247
 20
-1303.97397942952
 97
        0
 97
        0
 92
        1
 93
        1
 72
     4
 94
        3
 73
     0
 74
     1
 95
       17
 96
       13
 40
0.0
 40
0.0
 40
0.0
 40
0.0
 40
1.0
 40
1.0
 40
1.0
 40
2.0
 40
2.0
 40
2.0
 40
3.0
 40
3.0
 40
3.0
 40
4.0
 40
4.0
 40
4.0
 40
4.0
 10
969.6130289334651
 20
-1402.155157438316
 10
961.077913966642
 20
-1406.138808706753
 10
936.5858123518974
 20
-1415.516923919735
 10
920.0006676919147
 20
-1401.223976372097
 10
916.37382753359
 20
-1374.053712240046
 10
902.6132618549
 20
-1307.454017339853
 10
936.8094851882015
 20
-1259.699419258188
 10
947.3653417386113
 20
-1289.682250552771
 10
959.2113581471331
 20
-1308.232928819754
 10
976.110191162451
 20
-1318.548912074071
 10
977.7688032854494
 20
-1356.240370240106
 10
971.7639500118603
 20
-1391.123364944167
 10
969.6130289334651
 20
-1402.155157438316
 97
        0
 97
        0
 92
        1
 93
        1
 72
     4
 94
        3
 73
     0
 74
     1
 95
       17
 96
       13
 40
0.0
 40
0.0
 40
0.0
 40
0.0
 40
1.0
 40
1.0
 40
1.0
 40
2.0
 40
2.0
 40
2.0
 40
3.0
 40
3.0
 40
3.0
 40
4.0
 40
4.0
 40
4.0
 40
4.0
 10
903.3171893198669
 20
-1396.531672080167
 10
892.5761318777131
 20
-1395.11366330189
 10
874.6673253154731
 20
-1390.394274029328
 10
864.2831093203085
 20
-1374.901668424103
 10
847.7647195844293
 20
-1312.847364613841
 10
881.0005023712529
 20
-1234.197602796678
 10
928.8553670558395
 20
-1234.240084876226
 10
929.5527618767474
 20
-1236.719932470871
 10
930.2512813363755
 20
-1239.145496361994
 10
930.9527721877912
 20
-1241.510742945848
 10
893.4623606983141
 20
-1284.06182277804
 10
895.103861483406
 20
-1340.755521168354
 10
903.3171893198669
 20
-1396.531672080167
 97
        0
 97
        0
 92
        1
 93
        1
 72
     4
 94
        3
 73
     0
 74
     1
 95
       17
 96
       13
 40
0.0
 40
0.0
 40
0.0
 40
0.0
 40
1.0
 40
1.0
 40
1.0
 40
2.0
 40
2.0
 40
2.0
 40
3.0
 40
3.0
 40
3.0
 40
4.0
 40
4.0
 40
4.0
 40
4.0
 10
959.1941355966583
 20
-1246.470789142517
 10
959.3322050988972
 20
-1246.480510502104
 10
959.4664394424899
 20
-1246.498728485327
 10
959.6050568245328
 20
-1246.507236041536
 10
966.1116557466466
 20
-1259.059662730124
 10
970.3125100669404
 20
-1273.280072839869
 10
972.8859866779021
 20
-1287.93100924771
 10
966.9223542256641
 20
-1280.411111573667
 10
962.0305797084338
 20
-1271.235823269217
 10
958.720844338427
 20
-1260.517223910952
 10
958.720844338427
 20
-1260.517223910952
 10
957.3768912975647
 20
-1253.90926623948
 10
959.1941355966583
 20
-1246.470789142517
 97
        0
 97
        0
 92
        1
 93
        1
 72
     4
 94
        3
 73
     0
 74
     1
 95
       14
 96
       10
 40
0.0
 40
0.0
 40
0.0
 40
0.0
 40
1.0
 40
1.0
 40
1.0
 40
2.0
 40
2.0
 40
2.0
 40
3.0
 40
3.0
 40
3.0
 40
3.0
 10
1001.002050268784
 20
-1235.300672589274
 10
1026.439669679859
 20
-1233.327126241376
 10
1048.904701649932
 20
-1248.972554629956
 10
1063.023480484968
 20
-1273.242014254985
 10
1058.99864657129
 20
-1281.727685652262
 10
1057.761835419093
 20
-1300.161120789824
 10
1038.985710559769
 20
-1308.08970768478
 10
1033.347121712204
 20
-1278.377002590165
 10
1021.6819811721
 20
-1249.924985521546
 10
1001.002050268784
 20
-1235.300672589274
 97
        0
 97
        0
 92
        1
 93
        1
 72
     4
 94
        3
 73
     0
 74
     1
 95
       11
 96
        7
 40
0.0
 40
0.0
 40
0.0
 40
0.0
 40
1.0
 40
1.0
 40
1.0
 40
2.0
 40
2.0
 40
2.0
 40
2.0
 10
898.4978122160328
 20
-1200.795192556507
 10
872.8852680103682
 20
-1205.87147871864
 10
847.9125795834616
 20
-1225.98713780395
 10
831.732129079247
 20
-1245.655644859635
 10
836.2114599617471
 20
-1215.464652090381
 10
868.2243149409014
 20
-1202.601552936812
 10
898.4978122160328
 20
-1200.795192556507
 97
        0
 97
        0
 92
        1
 93
        1
 72
     4
 94
        3
 73
     0
 74
     1
 95
       14
 96
       10
 40
0.0
 40
0.0
 40
0.0
 40
0.0
 40
1.0
 40
1.0
 40
1.0
 40
2.0
 40
2.0
 40
2.0
 40
3.0
 40
3.0
 40
3.0
 40
3.0
 10
924.5360666239858
 20
-1217.582422799187
 10
924.6093972324725
 20
-1217.898391768267
 10
924.6796343106398
 20
-1218.211503294555
 10
924.7541905268818
 20
-1218.528317692104
 10
870.8649456822013
 20
-1222.246004438362
 10
837.056583956597
 20
-1296.701839687579
 10
845.5346075627831
 20
-1361.493827255905
 10
779.615591173485
 20
-1306.774542592091
 10
870.2273590888663
 20
-1198.823744150648
 10
924.5360666239858
 20
-1217.582422799187
 97
        0
 97
        0
 92
        1
 93
        1
 72
     4
 94
        3
 73
     0
 74
     1
 95
       20
 96
       16
 40
0.0
 40
0.0
 40
0.0
 40
0.0
 40
1.0
 40
1.0
 40
1.0
 40
2.0
 40
2.0
 40
2.0
 40
3.0
 40
3.0
 40
3.0
 40
4.0
 40
4.0
 40
4.0
 40
5.0
 40
5.0
 40
5.0
 40
5.0
 10
777.4167472827348
 20
-959.2903957216795
 10
777.4167472827348
 20
-959.2903957216795
 10
774.9214629111411
 20
-918.5455684336539
 10
774.9214629111411
 20
-918.5455684336539
 10
775.0794277972873
 20
-909.2986897522123
 10
782.7092111290076
 20
-901.928230091883
 10
791.9561016148264
 20
-902.0864925266833
 10
801.2029802962688
 20
-902.2444574128267
 10
808.5856394514904
 20
-909.8737567651187
 10
808.4273652123165
 20
-919.1203497022807
 10
808.4273652123165
 20
-919.1203497022807
 10
804.9823553973993
 20
-965.508656621063
 10
804.9823553973993
 20
-965.508656621063
 10
804.9823553973993
 20
-965.508656621063
 10
777.4167472827348
 20
-959.2903957216795
 10
777.4167472827348
 20
-959.2903957216795
 97
        0
 97
        0
 92
        1
 93
        1
 72
     4
 94
        3
 73
     0
 74
     1
 95
       20
 96
       16
 40
0.0
 40
0.0
 40
0.0
 40
0.0
 40
1.0
 40
1.0
 40
1.0
 40
2.0
 40
2.0
 40
2.0
 40
3.0
 40
3.0
 40
3.0
 40
4.0
 40
4.0
 40
4.0
 40
5.0
 40
5.0
 40
5.0
 40
5.0
 10
785.7355332729212
 20
-1015.441142444783
 10
794.9824119543609
 20
-1015.599107330927
 10
802.3528716146911
 20
-1023.228890662649
 10
802.1953907079769
 20
-1032.487968838985
 10
802.1953907079769
 20
-1032.487968838985
 10
795.1115744726458
 20
-1085.92956199282
 10
795.1115744726458
 20
-1085.92956199282
 10
795.1115744726458
 20
-1085.92956199282
 10
765.4745455954717
 20
-1077.339905046058
 10
765.4745455954717
 20
-1077.339905046058
 10
765.4745455954717
 20
-1077.339905046058
 10
768.689179053772
 20
-1031.912901826079
 10
768.689179053772
 20
-1031.912901826079
 10
768.8474414885713
 20
-1022.666011340261
 10
776.4764550965847
 20
-1015.283661538069
 10
785.7355332729212
 20
-1015.441142444783
 97
        0
 97
        0
 92
        1
 93
        1
 72
     4
 94
        3
 73
     0
 74
     1
 95
       17
 96
       13
 40
0.0
 40
0.0
 40
0.0
 40
0.0
 40
1.0
 40
1.0
 40
1.0
 40
2.0
 40
2.0
 40
2.0
 40
3.0
 40
3.0
 40
3.0
 40
4.0
 40
4.0
 40
4.0
 40
4.0
 10
809.6967474218618
 20
-1335.266172448944
 10
815.9872028519794
 20
-1357.339380684509
 10
832.6123298613556
 20
-1374.900264057454
 10
851.5544316522082
 20
-1384.417482447476
 10
853.1210458085634
 20
-1386.692082578345
 10
854.7977288789234
 20
-1388.78141975078
 10
856.5550280329844
 20
-1390.709311709023
 10
839.5719464269696
 20
-1384.452085566456
 10
822.8934035784705
 20
-1377.044650964664
 10
806.6380884273185
 20
-1368.473954790745
 10
807.5655304682832
 20
-1358.310544921591
 10
808.5919198690717
 20
-1347.178230687012
 10
809.6967474218618
 20
-1335.266172448944
 97
        0
 97
        0
 92
        1
 93
        1
 72
     4
 94
        3
 73
     0
 74
     1
 95
       11
 96
        7
 40
0.0
 40
0.0
 40
0.0
 40
0.0
 40
1.0
 40
1.0
 40
1.0
 40
2.0
 40
2.0
 40
2.0
 40
2.0
 10
1037.950700944844
 20
-1009.502575700382
 10
1040.4226002756
 20
-1008.980432159329
 10
1052.603846875947
 20
-1010.177396299106
 10
1049.627478745077
 20
-1022.58539645754
 10
1037.304368656245
 20
-1023.551703130281
 10
1036.102066743748
 20
-1012.048263580029
 10
1037.950700944844
 20
-1009.502575700382
 97
        0
 97
        0
 92
        1
 93
        1
 72
     4
 94
        3
 73
     0
 74
     1
 95
       11
 96
        7
 40
0.0
 40
0.0
 40
0.0
 40
0.0
 40
1.0
 40
1.0
 40
1.0
 40
2.0
 40
2.0
 40
2.0
 40
2.0
 10
1078.713496255197
 20
-1011.817168271235
 10
1080.26186773207
 20
-1014.555908500377
 10
1077.76518544656
 20
-1025.849070157332
 10
1065.630687302411
 20
-1023.49424362012
 10
1064.07801994757
 20
-1010.82902689042
 10
1076.316451248384
 20
-1011.018511187031
 10
1078.713496255197
 20
-1011.817168271235
 97
        0
 97
        0
 92
        1
 93
        1
 72
     4
 94
        3
 73
     0
 74
     1
 95
       17
 96
       13
 40
0.0
 40
0.0
 40
0.0
 40
0.0
 40
1.0
 40
1.0
 40
1.0
 40
2.0
 40
2.0
 40
2.0
 40
3.0
 40
3.0
 40
3.0
 40
4.0
 40
4.0
 40
4.0
 40
4.0
 10
696.8097586193671
 20
-1033.299755128333
 10
695.8112382297095
 20
-1008.130411871061
 10
727.9493780197454
 20
-1011.457998708327
 10
728.7655916213098
 20
-1032.032000523272
 10
728.7655916213098
 20
-1032.032000523272
 10
726.3775467132373
 20
-1076.449609671356
 10
726.3775467132373
 20
-1076.449609671356
 10
726.3775467132373
 20
-1076.449609671356
 10
698.8794396283083
 20
-1069.776877153559
 10
698.8794396283083
 20
-1069.776877153559
 10
698.8794396283083
 20
-1069.776877153559
 10
696.8097586193671
 20
-1033.299755128333
 10
696.8097586193671
 20
-1033.299755128333
 97
        0
 97
        0
 92
        1
 93
        1
 72
     4
 94
        3
 73
     0
 74
     1
 95
       20
 96
       16
 40
0.0
 40
0.0
 40
0.0
 40
0.0
 40
1.0
 40
1.0
 40
1.0
 40
2.0
 40
2.0
 40
2.0
 40
3.0
 40
3.0
 40
3.0
 40
4.0
 40
4.0
 40
4.0
 40
5.0
 40
5.0
 40
5.0
 40
5.0
 10
774.0157410232141
 20
-1189.254510354411
 10
774.0157410232141
 20
-1189.254510354411
 10
756.5645894729587
 20
-1273.97808019799
 10
756.5645894729587
 20
-1273.97808019799
 10
756.5645894729587
 20
-1273.97808019799
 10
726.4143012149507
 20
-1261.991126822857
 10
726.4143012149507
 20
-1261.991126822857
 10
726.4143012149507
 20
-1261.991126822857
 10
727.2805265822299
 20
-1179.829545981727
 10
727.2805265822299
 20
-1179.829545981727
 10
726.7428608490045
 20
-1166.276799800988
 10
737.2877695084444
 20
-1154.847926650065
 10
750.8405156891804
 20
-1154.310260916838
 10
764.3929643212605
 20
-1153.772606987986
 10
778.7519543578455
 20
-1160.636988949878
 10
774.0157410232141
 20
-1189.254510354411
 97
        0
 97
        0
 92
        1
 93
        1
 72
     4
 94
        3
 73
     0
 74
     1
 95
       29
 96
       25
 40
0.0
 40
0.0
 40
0.0
 40
0.0
 40
1.0
 40
1.0
 40
1.0
 40
2.0
 40
2.0
 40
2.0
 40
3.0
 40
3.0
 40
3.0
 40
4.0
 40
4.0
 40
4.0
 40
5.0
 40
5.0
 40
5.0
 40
6.0
 40
6.0
 40
6.0
 40
7.0
 40
7.0
 40
7.0
 40
8.0
 40
8.0
 40
8.0
 40
8.0
 10
1196.424098322681
 20
-1421.075317663508
 10
1184.990973924458
 20
-1426.423822146917
 10
1173.30847304177
 20
-1431.33072422136
 10
1161.386847447418
 20
-1435.746444379183
 10
1155.368544979183
 20
-1430.168805989648
 10
1155.730973009464
 20
-1420.915007896288
 10
1149.094457429383
 20
-1414.823378664394
 10
1145.901799409692
 20
-1411.88612570519
 10
1140.690672911624
 20
-1414.680543237271
 10
1141.385335572139
 20
-1418.962011746778
 10
1142.571402138748
 20
-1426.397865863531
 10
1145.055332731758
 20
-1433.623387965195
 10
1148.674785700014
 20
-1440.242397570757
 10
1039.86760727649
 20
-1477.066397481562
 10
914.8004524455719
 20
-1473.606709338434
 10
802.1008797956101
 20
-1420.264234477821
 10
802.7319560664891
 20
-1412.170687184527
 10
803.7536670551835
 20
-1400.387093477348
 10
805.0757622199626
 20
-1385.710950965622
 10
921.79255023326
 20
-1444.858863964801
 10
1055.755306310506
 20
-1445.774326328054
 10
1168.303947166398
 20
-1398.106960141635
 10
1174.404164688644
 20
-1405.771937765719
 10
1197.593481786098
 20
-1410.324752604207
 10
1196.424098322681
 20
-1421.075317663508
 97
        0
 97
        0
 92
        1
 93
        1
 72
     4
 94
        3
 73
     0
 74
     1
 95
       14
 96
       10
 40
0.0
 40
0.0
 40
0.0
 40
0.0
 40
1.0
 40
1.0
 40
1.0
 40
2.0
 40
2.0
 40
2.0
 40
3.0
 40
3.0
 40
3.0
 40
3.0
 10
1199.209615894455
 20
-1400.213293394459
 10
1195.248499647741
 20
-1399.44271234798
 10
1187.459234453521
 20
-1395.100876078086
 10
1180.708266674697
 20
-1392.622176757835
 10
1193.870745252532
 20
-1386.619163840252
 10
1208.754041046193
 20
-1378.845013600861
 10
1223.067358624274
 20
-1370.202702893141
 10
1226.183538023743
 20
-1385.056813936422
 10
1214.266473987587
 20
-1403.131662481108
 10
1199.209615894455
 20
-1400.213293394459
 97
        0
 97
        0
 92
        1
 93
        1
 72
     4
 94
        3
 73
     0
 74
     1
 95
       59
 96
       55
 40
0.0
 40
0.0
 40
0.0
 40
0.0
 40
1.0
 40
1.0
 40
1.0
 40
2.0
 40
2.0
 40
2.0
 40
3.0
 40
3.0
 40
3.0
 40
4.0
 40
4.0
 40
4.0
 40
5.0
 40
5.0
 40
5.0
 40
6.0
 40
6.0
 40
6.0
 40
7.0
 40
7.0
 40
7.0
 40
8.0
 40
8.0
 40
8.0
 40
9.0
 40
9.0
 40
9.0
 40
10.0
 40
10.0
 40
10.0
 40
11.0
 40
11.0
 40
11.0
 40
12.0
 40
12.0
 40
12.0
 40
13.0
 40
13.0
 40
13.0
 40
14.0
 40
14.0
 40
14.0
 40
15.0
 40
15.0
 40
15.0
 40
16.0
 40
16.0
 40
16.0
 40
17.0
 40
17.0
 40
17.0
 40
18.0
 40
18.0
 40
18.0
 40
18.0
 10
1217.525029114589
 20
-1324.647173589405
 10
1216.01266696417
 20
-1315.454341573051
 10
1222.997590299132
 20
-1305.057771182626
 10
1220.465197167134
 20
-1296.918663589342
 10
1219.361930903651
 20
-1293.410368316636
 10
1216.65531582005
 20
-1294.115865426338
 10
1215.886633965974
 20
-1296.892884945286
 10
1202.135590443808
 20
-1346.5486324179
 10
1180.026574284759
 20
-1330.547254685553
 10
1157.161282870571
 20
-1333.230549611479
 10
1152.288697872355
 20
-1344.873964857696
 10
1188.552135585192
 20
-1344.802322377745
 10
1194.141444787381
 20
-1345.996759408474
 10
1201.762363508755
 20
-1347.635108098399
 10
1209.270221371373
 20
-1351.035944196778
 10
1214.902891328304
 20
-1356.403282594209
 10
1154.786273543983
 20
-1392.797929816068
 10
1087.313235513151
 20
-1412.706960778236
 10
1019.066947205316
 20
-1415.829273112551
 10
1024.378540741385
 20
-1413.531538336461
 10
1029.164368281205
 20
-1410.338259642424
 10
1033.319511625552
 20
-1406.406780071968
 10
1056.446719228494
 20
-1407.996790169858
 10
1076.723898102387
 20
-1393.997055207619
 10
1087.131762293657
 20
-1375.755884898546
 10
1125.37984623846
 20
-1356.555094455292
 10
1138.031229857415
 20
-1321.693123756415
 10
1127.895902568423
 20
-1280.643613537057
 10
1135.425405847223
 20
-1268.875189586579
 10
1145.828900069329
 20
-1226.962915036496
 10
1171.971315178153
 20
-1206.242091217468
 10
1183.734970161333
 20
-1196.912974104725
 10
1187.77032314932
 20
-1204.174697604234
 10
1194.740770022703
 20
-1206.949859097862
 10
1205.296158640416
 20
-1211.169738781711
 10
1216.087625162756
 20
-1202.575358033726
 10
1226.47546344428
 20
-1197.951973139352
 10
1247.131255602508
 20
-1188.77075487508
 10
1271.028944934764
 20
-1195.464136527553
 10
1292.599208680263
 20
-1202.249852011704
 10
1312.030660013141
 20
-1208.354840721535
 10
1304.80055443803
 20
-1232.906202649725
 10
1269.153466409605
 20
-1237.725225526563
 10
1232.481818411483
 20
-1242.698229469494
 10
1227.852451873498
 20
-1252.846532173779
 10
1235.307845422494
 20
-1254.43609056919
 10
1268.191581788637
 20
-1261.481065274285
 10
1311.738954133247
 20
-1238.244970054493
 10
1338.753028817049
 20
-1241.641135585334
 10
1309.678657913882
 20
-1282.307751274562
 10
1273.433746778483
 20
-1317.619462326074
 10
1231.796668885478
 20
-1345.625825966774
 10
1226.81983174655
 20
-1338.633310303976
 10
1218.921714136211
 20
-1333.087631680053
 10
1217.525029114589
 20
-1324.647173589405
 97
        0
 97
        0
 92
        1
 93
        1
 72
     4
 94
        3
 73
     0
 74
     1
 95
       17
 96
       13
 40
0.0
 40
0.0
 40
0.0
 40
0.0
 40
1.0
 40
1.0
 40
1.0
 40
2.0
 40
2.0
 40
2.0
 40
3.0
 40
3.0
 40
3.0
 40
4.0
 40
4.0
 40
4.0
 40
4.0
 10
1252.284908282199
 20
-1390.063611957834
 10
1232.109935703642
 20
-1386.342183899615
 10
1238.619713999064
 20
-1376.641558038355
 10
1236.97745661013
 20
-1361.447645421587
 10
1246.162682015465
 20
-1355.431654721939
 10
1255.101311890658
 20
-1349.059184137681
 10
1263.795195036151
 20
-1342.354299696814
 10
1266.238151696974
 20
-1352.257937639381
 10
1277.708975280795
 20
-1361.140929552348
 10
1279.221328418393
 20
-1371.197415076895
 10
1270.486776717633
 20
-1377.793646648974
 10
1261.49567526258
 20
-1384.082966039728
 10
1252.284908282199
 20
-1390.063611957834
 97
        0
 97
        0
 92
        1
 93
        1
 72
     4
 94
        3
 73
     0
 74
     1
 95
       17
 96
       13
 40
0.0
 40
0.0
 40
0.0
 40
0.0
 40
1.0
 40
1.0
 40
1.0
 40
2.0
 40
2.0
 40
2.0
 40
3.0
 40
3.0
 40
3.0
 40
4.0
 40
4.0
 40
4.0
 40
4.0
 10
1292.209401910615
 20
-1361.038620273186
 10
1284.980851710559
 20
-1355.21306409617
 10
1276.784306046167
 20
-1341.168456387004
 10
1278.354820990859
 20
-1330.583171916249
 10
1306.07374384946
 20
-1307.222531505999
 10
1331.991063065694
 20
-1279.262246639169
 10
1353.911862438528
 20
-1248.046429761573
 10
1366.778772168303
 20
-1258.03809026922
 10
1366.997433714076
 20
-1258.832273199983
 10
1385.99793851888
 20
-1258.369944096656
 10
1360.613789774086
 20
-1296.163901817454
 10
1329.252772146667
 20
-1330.987119844431
 10
1292.209401910615
 20
-1361.038620273186
 97
        0
 97
        0
 92
        1
 93
        1
 72
     4
 94
        3
 73
     0
 74
     1
 95
       35
 96
       31
 40
0.0
 40
0.0
 40
0.0
 40
0.0
 40
1.0
 40
1.0
 40
1.0
 40
2.0
 40
2.0
 40
2.0
 40
3.0
 40
3.0
 40
3.0
 40
4.0
 40
4.0
 40
4.0
 40
5.0
 40
5.0
 40
5.0
 40
6.0
 40
6.0
 40
6.0
 40
7.0
 40
7.0
 40
7.0
 40
8.0
 40
8.0
 40
8.0
 40
9.0
 40
9.0
 40
9.0
 40
10.0
 40
10.0
 40
10.0
 40
10.0
 10
1418.710520837245
 20
-1152.484605572172
 10
1424.421179028141
 20
-1156.737842785962
 10
1429.479839511154
 20
-1161.480958516928
 10
1433.859112998296
 20
-1166.324041103533
 10
1426.710938895398
 20
-1184.917786126618
 10
1418.393027104397
 20
-1202.947598351217
 10
1408.987882017354
 20
-1220.337190500624
 10
1391.349940655373
 20
-1217.277142485033
 10
1388.307515655328
 20
-1204.898116474746
 10
1387.269074142863
 20
-1191.951138458313
 10
1532.692428181979
 20
-899.0058931926296
 10
1310.838469140537
 20
-555.2264174498405
 10
982.9187243405504
 20
-568.2356782798261
 10
804.0803777232823
 20
-575.330568826801
 10
650.2230463663818
 20
-691.0501145955222
 10
591.8445827390406
 20
-857.9388239749569
 10
584.2030793856229
 20
-841.0881221365216
 10
578.8290516476218
 20
-825.6011915387307
 10
575.0580342207377
 20
-812.3147010220828
 10
644.6386753357319
 20
-655.4324366364208
 10
798.8654828612207
 20
-542.9940025395399
 10
981.629686444956
 20
-535.7433650512257
 10
1308.520507992707
 20
-522.7749237546004
 10
1547.29560900158
 20
-844.9733384936671
 10
1438.455800869418
 20
-1153.886031428901
 10
1434.115682498568
 20
-1150.029917734049
 10
1428.963706783063
 20
-1146.938537803013
 10
1422.599709592914
 20
-1144.981811130907
 10
1411.774442257325
 20
-1141.651490114786
 10
1414.823570685367
 20
-1149.587115326602
 10
1418.710520837245
 20
-1152.484605572172
 97
        0
 97
        0
 75
     2
 76
     1
 98
        0
  0
ENDSEC
  0
SECTION
  2
OBJECTS
  0
DICTIONARY
  5
C
330
0
100
AcDbDictionary
281
     1
  3
ACAD_GROUP
350
D
  3
ACAD_LAYOUT
350
1A
  3
ACAD_MATERIAL
350
3B
  3
ACAD_MLEADERSTYLE
350
62
  3
ACAD_MLINESTYLE
350
17
  3
ACAD_PLOTSETTINGS
350
19
  3
ACAD_PLOTSTYLENAME
350
E
  3
ACAD_TABLESTYLE
350
61
  3
ACAD_VISUALSTYLE
350
2A
  0
SUN
  5
3F
330
29
100
AcDbSun
 90
        1
290
     0
 63
     7
421
 16777215
 40
1.0
291
     1
 91
  2455826
 92
 54000000
292
     0
 70
     2
 71
   256
280
     1
  0
DICTIONARY
  5
D
102
{ACAD_REACTORS
330
C
102
}
330
C
100
AcDbDictionary
281
     1
  0
DICTIONARY
  5
1A
102
{ACAD_REACTORS
330
C
102
}
330
C
100
AcDbDictionary
281
     1
  3
Layout1
350
1E
  3
Layout2
350
26
  3
Model
350
22
  0
DICTIONARY
  5
3B
102
{ACAD_REACTORS
330
C
102
}
330
C
100
AcDbDictionary
281
     1
  3
ByBlock
350
3D
  3
ByLayer
350
3C
  3
Global
350
3E
  0
DICTIONARY
  5
62
102
{ACAD_REACTORS
330
C
102
}
330
C
100
AcDbDictionary
281
     1
  0
DICTIONARY
  5
17
102
{ACAD_REACTORS
330
C
102
}
330
C
100
AcDbDictionary
281
     1
  3
Standard
350
18
  0
DICTIONARY
  5
19
102
{ACAD_REACTORS
330
C
102
}
330
C
100
AcDbDictionary
281
     1
  0
ACDBDICTIONARYWDFLT
  5
E
102
{ACAD_REACTORS
330
C
102
}
330
C
100
AcDbDictionary
281
     1
  3
Normal
350
F
100
AcDbDictionaryWithDefault
340
F
  0
DICTIONARY
  5
61
102
{ACAD_REACTORS
330
C
102
}
330
C
100
AcDbDictionary
281
     1
  0
DICTIONARY
  5
2A
102
{ACAD_REACTORS
330
C
102
}
330
C
100
AcDbDictionary
281
     1
  3
2dWireframe
350
2F
  3
3D Hidden
350
31
  3
3dWireframe
350
30
  3
Basic
350
32
  3
Brighten
350
36
  3
ColorChange
350
3A
  3
Conceptual
350
34
  3
Dim
350
35
  3
Facepattern
350
39
  3
Flat
350
2B
  3
FlatWithEdges
350
2C
  3
Gouraud
350
2D
  3
GouraudWithEdges
350
2E
  3
Linepattern
350
38
  3
Realistic
350
33
  3
Thicken
350
37
  0
LAYOUT
  5
1E
102
{ACAD_REACTORS
330
1A
102
}
330
1A
100
AcDbPlotSettings
  1

  2
none_device
  4

  6

 40
0.0
 41
0.0
 42
0.0
 43
0.0
 44
0.0
 45
0.0
 46
0.0
 47
0.0
 48
0.0
 49
0.0
140
0.0
141
0.0
142
1.0
143
1.0
 70
   688
 72
     0
 73
     0
 74
     5
  7

 75
    16
 76
     0
 77
     2
 78
   300
147
1.0
148
0.0
149
0.0
100
AcDbLayout
  1
Layout1
 70
     1
 71
     1
 10
0.0
 20
0.0
 11
12.0
 21
9.0
 12
0.0
 22
0.0
 32
0.0
 14
1.000000000000000E+20
 24
1.000000000000000E+20
 34
1.000000000000000E+20
 15
-1.000000000000000E+20
 25
-1.000000000000000E+20
 35
-1.000000000000000E+20
146
0.0
 13
0.0
 23
0.0
 33
0.0
 16
1.0
 26
0.0
 36
0.0
 17
0.0
 27
1.0
 37
0.0
 76
     0
330
1B
  0
LAYOUT
  5
26
102
{ACAD_REACTORS
330
1A
102
}
330
1A
100
AcDbPlotSettings
  1

  2
none_device
  4

  6

 40
0.0
 41
0.0
 42
0.0
 43
0.0
 44
0.0
 45
0.0
 46
0.0
 47
0.0
 48
0.0
 49
0.0
140
0.0
141
0.0
142
1.0
143
1.0
 70
   688
 72
     0
 73
     0
 74
     5
  7

 75
    16
 76
     0
 77
     2
 78
   300
147
1.0
148
0.0
149
0.0
100
AcDbLayout
  1
Layout2
 70
     1
 71
     2
 10
0.0
 20
0.0
 11
0.0
 21
0.0
 12
0.0
 22
0.0
 32
0.0
 14
0.0
 24
0.0
 34
0.0
 15
0.0
 25
0.0
 35
0.0
146
0.0
 13
0.0
 23
0.0
 33
0.0
 16
1.0
 26
0.0
 36
0.0
 17
0.0
 27
1.0
 37
0.0
 76
     0
330
23
  0
LAYOUT
  5
22
102
{ACAD_REACTORS
330
1A
102
}
330
1A
100
AcDbPlotSettings
  1

  2
none_device
  4

  6

 40
0.0
 41
0.0
 42
0.0
 43
0.0
 44
0.0
 45
0.0
 46
0.0
 47
0.0
 48
0.0
 49
0.0
140
0.0
141
0.0
142
1.0
143
1.0
 70
  1712
 72
     0
 73
     0
 74
     0
  7

 75
     0
 76
     0
 77
     2
 78
   300
147
1.0
148
0.0
149
0.0
100
AcDbLayout
  1
Model
 70
     1
 71
     0
 10
0.0
 20
0.0
 11
12.0
 21
9.0
 12
0.0
 22
0.0
 32
0.0
 14
1.000000000000000E+20
 24
1.000000000000000E+20
 34
1.000000000000000E+20
 15
-1.000000000000000E+20
 25
-1.000000000000000E+20
 35
-1.000000000000000E+20
146
0.0
 13
0.0
 23
0.0
 33
0.0
 16
1.0
 26
0.0
 36
0.0
 17
0.0
 27
1.0
 37
0.0
 76
     0
330
1F
331
29
  0
MATERIAL
  5
3D
102
{ACAD_REACTORS
330
3B
102
}
330
3B
100
AcDbMaterial
  1
ByBlock
 72
     1
 94
      127
  0
MATERIAL
  5
3C
102
{ACAD_REACTORS
330
3B
102
}
330
3B
100
AcDbMaterial
  1
ByLayer
 72
     1
 94
      127
  0
MATERIAL
  5
3E
102
{ACAD_REACTORS
330
3B
102
}
330
3B
100
AcDbMaterial
  1
Global
 72
     1
 94
      127
  0
MLINESTYLE
  5
18
102
{ACAD_REACTORS
330
17
102
}
330
17
100
AcDbMlineStyle
  2
Standard
 70
     0
  3

 62
   256
 51
90.0
 52
90.0
 71
     2
 49
0.5
 62
   256
  6
BYLAYER
 49
-0.5
 62
   256
  6
BYLAYER
  0
ACDBPLACEHOLDER
  5
F
102
{ACAD_REACTORS
330
E
102
}
330
E
  0
VISUALSTYLE
  5
2F
102
{ACAD_REACTORS
330
2A
102
}
330
2A
100
AcDbVisualStyle
  2
2dWireframe
 70
     4
177
     2
291
     0
 71
     0
176
     1
 72
     2
176
     1
 73
     0
176
     1
 90
        0
176
     1
 40
-0.6
176
     1
 41
-30.0
176
     1
 62
     5
 63
     7
421
 16777215
176
     1
 74
     1
176
     1
 91
        4
176
     1
 64
     7
176
     1
 65
   257
176
     1
 75
     1
176
     1
175
     1
176
     1
 42
1.0
176
     1
 92
        0
176
     1
 66
   257
176
     1
 43
1.0
176
     1
 76
     1
176
     1
 77
     6
176
     1
 78
     2
176
     1
 67
     7
176
     1
 79
     5
176
     1
170
     0
176
     1
171
     0
176
     1
290
     0
176
     1
 93
        1
176
     1
 44
0.0
176
     1
173
     0
176
     1
  0
VISUALSTYLE
  5
31
102
{ACAD_REACTORS
330
2A
102
}
330
2A
100
AcDbVisualStyle
  2
3D Hidden
 70
     6
177
     2
291
     0
 71
     1
176
     1
 72
     2
176
     1
 73
     2
176
     1
 90
        0
176
     1
 40
-0.6
176
     1
 41
-30.0
176
     1
 62
     5
 63
     7
421
 16777215
176
     1
 74
     2
176
     1
 91
        2
176
     1
 64
     7
176
     1
 65
   257
176
     1
 75
     2
176
     1
175
     1
176
     1
 42
40.0
176
     1
 92
        0
176
     1
 66
   257
176
     1
 43
1.0
176
     1
 76
     1
176
     1
 77
     6
176
     1
 78
     2
176
     1
 67
     7
176
     1
 79
     3
176
     1
170
     0
176
     1
171
     0
176
     1
290
     0
176
     1
 93
        1
176
     1
 44
0.0
176
     1
173
     0
176
     1
  0
VISUALSTYLE
  5
30
102
{ACAD_REACTORS
330
2A
102
}
330
2A
100
AcDbVisualStyle
  2
3dWireframe
 70
     5
177
     2
291
     0
 71
     0
176
     1
 72
     2
176
     1
 73
     0
176
     1
 90
        0
176
     1
 40
-0.6
176
     1
 41
-30.0
176
     1
 62
     5
 63
     7
421
 16777215
176
     1
 74
     1
176
     1
 91
        4
176
     1
 64
     7
176
     1
 65
   257
176
     1
 75
     1
176
     1
175
     1
176
     1
 42
1.0
176
     1
 92
        0
176
     1
 66
   257
176
     1
 43
1.0
176
     1
 76
     1
176
     1
 77
     6
176
     1
 78
     2
176
     1
 67
     7
176
     1
 79
     5
176
     1
170
     0
176
     1
171
     0
176
     1
290
     0
176
     1
 93
        1
176
     1
 44
0.0
176
     1
173
     0
176
     1
  0
VISUALSTYLE
  5
32
102
{ACAD_REACTORS
330
2A
102
}
330
2A
100
AcDbVisualStyle
  2
Basic
 70
     7
177
     2
291
     1
 71
     1
176
     1
 72
     0
176
     1
 73
     1
176
     1
 90
        0
176
     1
 40
-0.6
176
     1
 41
-30.0
176
     1
 62
     5
 63
     7
421
 16777215
176
     1
 74
     0
176
     1
 91
        4
176
     1
 64
     7
176
     1
 65
   257
176
     1
 75
     1
176
     1
175
     1
176
     1
 42
1.0
176
     1
 92
        8
176
     1
 66
     7
176
     1
 43
1.0
176
     1
 76
     1
176
     1
 77
     6
176
     1
 78
     2
176
     1
 67
     7
176
     1
 79
     5
176
     1
170
     0
176
     1
171
     0
176
     1
290
     0
176
     1
 93
        1
176
     1
 44
0.0
176
     1
173
     0
176
     1
  0
VISUALSTYLE
  5
36
102
{ACAD_REACTORS
330
2A
102
}
330
2A
100
AcDbVisualStyle
  2
Brighten
 70
    12
177
     2
291
     1
 71
     2
176
     1
 72
     2
176
     1
 73
     0
176
     1
 90
        0
176
     1
 40
-0.6
176
     1
 41
-30.0
176
     1
 62
     5
 63
     7
421
 16777215
176
     1
 74
     1
176
     1
 91
        4
176
     1
 64
     7
176
     1
 65
   257
176
     1
 75
     1
176
     1
175
     1
176
     1
 42
1.0
176
     1
 92
        8
176
     1
 66
     7
176
     1
 43
1.0
176
     1
 76
     1
176
     1
 77
     6
176
     1
 78
     2
176
     1
 67
     7
176
     1
 79
     5
176
     1
170
     0
176
     1
171
     0
176
     1
290
     0
176
     1
 93
        1
176
     1
 44
50.0
176
     1
173
     0
176
     1
  0
VISUALSTYLE
  5
3A
102
{ACAD_REACTORS
330
2A
102
}
330
2A
100
AcDbVisualStyle
  2
ColorChange
 70
    16
177
     2
291
     1
 71
     2
176
     1
 72
     2
176
     1
 73
     3
176
     1
 90
        0
176
     1
 40
-0.6
176
     1
 41
-30.0
176
     1
 62
     5
 63
     8
421
  8421504
176
     1
 74
     1
176
     1
 91
        4
176
     1
 64
     7
176
     1
 65
   257
176
     1
 75
     1
176
     1
175
     1
176
     1
 42
1.0
176
     1
 92
        8
176
     1
 66
     8
424
  8421504
176
     1
 43
1.0
176
     1
 76
     1
176
     1
 77
     6
176
     1
 78
     2
176
     1
 67
     7
176
     1
 79
     5
176
     1
170
     0
176
     1
171
     0
176
     1
290
     0
176
     1
 93
        1
176
     1
 44
0.0
176
     1
173
     0
176
     1
  0
VISUALSTYLE
  5
34
102
{ACAD_REACTORS
330
2A
102
}
330
2A
100
AcDbVisualStyle
  2
Conceptual
 70
     9
177
     2
291
     0
 71
     3
176
     1
 72
     2
176
     1
 73
     0
176
     1
 90
        0
176
     1
 40
-0.6
176
     1
 41
-30.0
176
     1
 62
     5
 63
     7
421
 16777215
176
     1
 74
     2
176
     1
 91
        2
176
     1
 64
     7
176
     1
 65
   257
176
     1
 75
     1
176
     1
175
     1
176
     1
 42
40.0
176
     1
 92
        8
176
     1
 66
     7
176
     1
 43
1.0
176
     1
 76
     1
176
     1
 77
     6
176
     1
 78
     2
176
     1
 67
     7
176
     1
 79
     3
176
     1
170
     0
176
     1
171
     0
176
     1
290
     0
176
     1
 93
        1
176
     1
 44
0.0
176
     1
173
     0
176
     1
  0
VISUALSTYLE
  5
35
102
{ACAD_REACTORS
330
2A
102
}
330
2A
100
AcDbVisualStyle
  2
Dim
 70
    11
177
     2
291
     1
 71
     2
176
     1
 72
     2
176
     1
 73
     0
176
     1
 90
        0
176
     1
 40
-0.6
176
     1
 41
-30.0
176
     1
 62
     5
 63
     7
421
 16777215
176
     1
 74
     1
176
     1
 91
        4
176
     1
 64
     7
176
     1
 65
   257
176
     1
 75
     1
176
     1
175
     1
176
     1
 42
1.0
176
     1
 92
        8
176
     1
 66
     7
176
     1
 43
1.0
176
     1
 76
     1
176
     1
 77
     6
176
     1
 78
     2
176
     1
 67
     7
176
     1
 79
     5
176
     1
170
     0
176
     1
171
     0
176
     1
290
     0
176
     1
 93
        1
176
     1
 44
-50.0
176
     1
173
     0
176
     1
  0
VISUALSTYLE
  5
39
102
{ACAD_REACTORS
330
2A
102
}
330
2A
100
AcDbVisualStyle
  2
Facepattern
 70
    15
177
     2
291
     1
 71
     2
176
     1
 72
     2
176
     1
 73
     0
176
     1
 90
        0
176
     1
 40
-0.6
176
     1
 41
-30.0
176
     1
 62
     5
 63
     7
421
 16777215
176
     1
 74
     1
176
     1
 91
        4
176
     1
 64
     7
176
     1
 65
   257
176
     1
 75
     1
176
     1
175
     1
176
     1
 42
1.0
176
     1
 92
        8
176
     1
 66
     7
176
     1
 43
1.0
176
     1
 76
     1
176
     1
 77
     6
176
     1
 78
     2
176
     1
 67
     7
176
     1
 79
     5
176
     1
170
     0
176
     1
171
     0
176
     1
290
     0
176
     1
 93
        1
176
     1
 44
0.0
176
     1
173
     0
176
     1
  0
VISUALSTYLE
  5
2B
102
{ACAD_REACTORS
330
2A
102
}
330
2A
100
AcDbVisualStyle
  2
Flat
 70
     0
177
     2
291
     1
 71
     2
176
     1
 72
     1
176
     1
 73
     1
176
     1
 90
        2
176
     1
 40
-0.6
176
     1
 41
30.0
176
     1
 62
     5
 63
     7
421
 16777215
176
     1
 74
     0
176
     1
 91
        4
176
     1
 64
     7
176
     1
 65
   257
176
     1
 75
     1
176
     1
175
     1
176
     1
 42
1.0
176
     1
 92
        8
176
     1
 66
     7
176
     1
 43
1.0
176
     1
 76
     1
176
     1
 77
     6
176
     1
 78
     2
176
     1
 67
     7
176
     1
 79
     5
176
     1
170
     0
176
     1
171
     0
176
     1
290
     0
176
     1
 93
       13
176
     1
 44
0.0
176
     1
173
     0
176
     1
  0
VISUALSTYLE
  5
2C
102
{ACAD_REACTORS
330
2A
102
}
330
2A
100
AcDbVisualStyle
  2
FlatWithEdges
 70
     1
177
     2
291
     1
 71
     2
176
     1
 72
     1
176
     1
 73
     1
176
     1
 90
        2
176
     1
 40
-0.6
176
     1
 41
30.0
176
     1
 62
     5
 63
     7
421
 16777215
176
     1
 74
     1
176
     1
 91
        4
176
     1
 64
     7
176
     1
 65
   257
176
     1
 75
     1
176
     1
175
     1
176
     1
 42
1.0
176
     1
 92
        0
176
     1
 66
   257
176
     1
 43
1.0
176
     1
 76
     1
176
     1
 77
     6
176
     1
 78
     2
176
     1
 67
     7
176
     1
 79
     5
176
     1
170
     0
176
     1
171
     0
176
     1
290
     0
176
     1
 93
       13
176
     1
 44
0.0
176
     1
173
     0
176
     1
  0
VISUALSTYLE
  5
2D
102
{ACAD_REACTORS
330
2A
102
}
330
2A
100
AcDbVisualStyle
  2
Gouraud
 70
     2
177
     2
291
     1
 71
     2
176
     1
 72
     2
176
     1
 73
     1
176
     1
 90
        2
176
     1
 40
-0.6
176
     1
 41
30.0
176
     1
 62
     5
 63
     7
421
 16777215
176
     1
 74
     0
176
     1
 91
        4
176
     1
 64
     7
176
     1
 65
   257
176
     1
 75
     1
176
     1
175
     1
176
     1
 42
1.0
176
     1
 92
        0
176
     1
 66
     7
176
     1
 43
1.0
176
     1
 76
     1
176
     1
 77
     6
176
     1
 78
     2
176
     1
 67
     7
176
     1
 79
     5
176
     1
170
     0
176
     1
171
     0
176
     1
290
     0
176
     1
 93
       13
176
     1
 44
0.0
176
     1
173
     0
176
     1
  0
VISUALSTYLE
  5
2E
102
{ACAD_REACTORS
330
2A
102
}
330
2A
100
AcDbVisualStyle
  2
GouraudWithEdges
 70
     3
177
     2
291
     1
 71
     2
176
     1
 72
     2
176
     1
 73
     1
176
     1
 90
        2
176
     1
 40
-0.6
176
     1
 41
30.0
176
     1
 62
     5
 63
     7
421
 16777215
176
     1
 74
     1
176
     1
 91
        4
176
     1
 64
     7
176
     1
 65
   257
176
     1
 75
     1
176
     1
175
     1
176
     1
 42
1.0
176
     1
 92
        0
176
     1
 66
   257
176
     1
 43
1.0
176
     1
 76
     1
176
     1
 77
     6
176
     1
 78
     2
176
     1
 67
     7
176
     1
 79
     5
176
     1
170
     0
176
     1
171
     0
176
     1
290
     0
176
     1
 93
       13
176
     1
 44
0.0
176
     1
173
     0
176
     1
  0
VISUALSTYLE
  5
38
102
{ACAD_REACTORS
330
2A
102
}
330
2A
100
AcDbVisualStyle
  2
Linepattern
 70
    14
177
     2
291
     1
 71
     2
176
     1
 72
     2
176
     1
 73
     0
176
     1
 90
        0
176
     1
 40
-0.6
176
     1
 41
-30.0
176
     1
 62
     5
 63
     7
421
 16777215
176
     1
 74
     1
176
     1
 91
        4
176
     1
 64
     7
176
     1
 65
   257
176
     1
 75
     7
176
     1
175
     7
176
     1
 42
1.0
176
     1
 92
        8
176
     1
 66
     7
176
     1
 43
1.0
176
     1
 76
     1
176
     1
 77
     6
176
     1
 78
     2
176
     1
 67
     7
176
     1
 79
     5
176
     1
170
     0
176
     1
171
     0
176
     1
290
     0
176
     1
 93
        1
176
     1
 44
0.0
176
     1
173
     0
176
     1
  0
VISUALSTYLE
  5
33
102
{ACAD_REACTORS
330
2A
102
}
330
2A
100
AcDbVisualStyle
  2
Realistic
 70
     8
177
     2
291
     0
 71
     2
176
     1
 72
     2
176
     1
 73
     0
176
     1
 90
        0
176
     1
 40
-0.6
176
     1
 41
-30.0
176
     1
 62
     5
 63
     7
421
 16777215
176
     1
 74
     1
176
     1
 91
        0
176
     1
 64
     7
176
     1
 65
   257
176
     1
 75
     1
176
     1
175
     1
176
     1
 42
1.0
176
     1
 92
        8
176
     1
 66
     8
424
  7895160
176
     1
 43
1.0
176
     1
 76
     1
176
     1
 77
     6
176
     1
 78
     2
176
     1
 67
     7
176
     1
 79
     5
176
     1
170
     0
176
     1
171
     0
176
     1
290
     0
176
     1
 93
       13
176
     1
 44
0.0
176
     1
173
     0
176
     1
  0
VISUALSTYLE
  5
37
102
{ACAD_REACTORS
330
2A
102
}
330
2A
100
AcDbVisualStyle
  2
Thicken
 70
    13
177
     2
291
     1
 71
     2
176
     1
 72
     2
176
     1
 73
     0
176
     1
 90
        0
176
     1
 40
-0.6
176
     1
 41
-30.0
176
     1
 62
     5
 63
     7
421
 16777215
176
     1
 74
     1
176
     1
 91
        4
176
     1
 64
     7
176
     1
 65
   257
176
     1
 75
     1
176
     1
175
     1
176
     1
 42
1.0
176
     1
 92
       12
176
     1
 66
     7
176
     1
 43
1.0
176
     1
 76
     1
176
     1
 77
     6
176
     1
 78
     2
176
     1
 67
     7
176
     1
 79
     5
176
     1
170
     0
176
     1
171
     0
176
     1
290
     0
176
     1
 93
        1
176
     1
 44
0.0
176
     1
173
     0
176
     1
  0
ENDSEC
  0
EOF
