<?xml version="1.0" encoding="utf-8"?>
<!-- Generator: Adobe Illustrator 16.0.0, SVG Export Plug-In . SVG Version: 6.00 Build 0)  -->
<!DOCTYPE svg PUBLIC "-//W3C//DTD SVG 1.1//EN" "http://www.w3.org/Graphics/SVG/1.1/DTD/svg11.dtd">
<svg version="1.1" id="Layer_1" xmlns="http://www.w3.org/2000/svg" xmlns:xlink="http://www.w3.org/1999/xlink" x="0px" y="0px"
	 width="2765.38867px" height="825.29492px" viewBox="0 0 2765.38867 825.29492"
	 style="enable-background:new 0 0 2765.38867 825.29492;" xml:space="preserve">
<g>
	<path style="fill:#7D97AF;" d="M917.39063,203.74854c0.32227-1.7749,0.9668-3.5542,1.65137-5.43896
		c0.26758-0.7373,0.53516-1.4751,0.78516-2.21631c0.25293-0.74756,0.54102-1.4873,0.82813-2.22559
		c0.5293-1.36279,1.07813-2.77197,1.4502-4.28906c1.50391-6.10449-0.24902-9.96777-5.86621-12.91797
		c-1.29883-0.68164-2.72559-1.26514-4.35449-1.78516c-8.41113-2.69092-16.65039-2.74365-24.32324-0.16211
		c-5.7832,1.94434-11.49707,4.2749-17.02148,6.52832l-0.9375,0.38281c-3.33789,1.36279-6.70215,2.79639-9.9541,4.18164
		c-4.62402,1.97119-9.40527,4.00879-14.14746,5.85596c-6.6416,2.58936-12.08301,5.70703-16.63477,9.53076
		c-8.91797,7.49268-16.28125,13.82227-23.08887,21.34912c-4.03418,4.45996-8.71973,8.49023-13.92773,11.98145
		c-1.8418,1.23633-3.73633,1.81543-6.14258,1.87891c-7.82422,0.19629-15.50684-1.47461-23.37402-3.36719
		c-2.89551-0.69531-5.7832-1.43652-8.67188-2.17969c-7.33008-1.88184-14.9082-3.82813-22.54785-4.9873
		c-7.32031-1.11133-14.71191-2.5957-21.86035-4.03125c-3.95703-0.79443-8.04883-1.61572-12.0957-2.36816
		c-4.92773-0.91553-9.85156-1.85645-14.77441-2.79688c-10.54102-2.01416-21.44238-4.09814-32.22266-5.88965
		c-20.52734-3.41211-41.29492-4.58887-59.14648-5.42383c-13.52539-0.63525-27.91309-1.82617-41.48828-6.21387
		c-10.66699-3.44678-23.0459-7.50342-34.96387-12.02197c-6.68457-2.53418-13.45605-5.19775-20.00488-7.77539
		c-12.22168-4.80811-24.85938-9.78027-37.53418-14.14502c-20.19727-6.95557-44.31787-14.31348-70.07959-16.14941
		c-2.5459-0.18213-5.09229-0.40088-7.6377-0.62012c-6.12842-0.52637-12.46582-1.07275-18.75439-1.07275l-0.65283,0.00244
		c-16.6084,0.10205-33.03076,0.7959-48.91357,1.46777c-4.08105,0.17285-8.18701,0.54834-12.15918,0.91016
		c-4.11328,0.37646-8.36719,0.76465-12.52246,0.91943c-8.75586,0.32666-17.68213,0.45117-26.31445,0.57275
		c-3.94971,0.05566-7.8999,0.11035-11.85059,0.18457c-6.14746,0.12451-12.19043-1.01318-17.8833-3.36523
		c-1.67578-0.69189-3.47363-1.38721-5.40967-1.62988c-2.10645-0.26318-3.2207-0.96826-3.97852-2.51465
		c-0.7002-1.43066-1.78467-2.60303-2.57471-3.45752c-2.021-2.18701-4.03906-4.37842-6.05664-6.56836
		c-6.56934-7.13184-13.3623-14.50635-20.16357-21.65967c-4.04346-4.25342-9.28027-7.19531-16.48193-9.25635
		c-13.07617-3.73779-26.16895-4.26025-36.11572-4.29785l-0.30518-0.00098c-7.42969,0-13.89746,0.99316-19.77295,3.03613
		c-9.34521,3.25-18.06836,7.53223-25.92822,12.72852c-3.37842,2.23438-5.87451,4.86523-7.63037,8.04102
		c-4.03223,7.28857-6.45898,13.70459-7.6377,20.1958c-0.29346,1.62305-0.48877,3.25-0.67773,4.82324
		c-0.18945,1.59375-0.37012,3.09814-0.64404,4.58887c-2.05029,11.16846-0.82861,22.16064,3.73389,33.60449
		c2.07275,5.20508,3.85645,10.6709,5.58301,15.95752c0.7876,2.4126,1.57422,4.8252,2.39111,7.22607
		c0.47607,1.39941,0.93359,2.80615,1.39111,4.21191c0.9873,3.03662,2.00781,6.17822,3.21338,9.23291
		c6.59521,16.7085,15.06152,32.76514,22.47266,46.26807c2.50049,4.55371,5.14648,9.1084,7.70605,13.51074
		c1.24414,2.14063,2.48828,4.28223,3.71924,6.42871l4.18604,7.29785c3.6958,6.43848,7.38916,12.87402,11.05518,19.32715
		c3.0459,5.36719,6.83789,10.12695,11.26953,14.14941c4.62305,4.19336,8.19141,9.33984,10.90967,15.73633
		c1.16211,2.72852,2.39648,5.40625,3.70313,8.24219c0.41553,0.90039,0.8374,1.81543,1.26807,2.75488
		c-0.0293,0.03809-0.05713,0.0752-0.08496,0.11328c-0.81836,1.09668-1.66309,2.23047-2.46289,3.43848
		c-3.37744,5.09766-3.04297,9.88965,0.99512,14.24512c1.99316,2.14648,4.10254,3.89258,6.26855,5.19043
		c5.06494,3.03613,9.37891,5.37891,13.57764,7.37207c3.86328,1.83496,7.95752,3.25781,11.81836,4.55566
		c6.42041,2.16406,12.08789,3.93555,17.32324,5.41797c2.75391,0.78027,5.75244,1.34082,9.43799,1.76074
		c4.49609,0.51563,8.8999,0.98047,13.33594,1.0127c0.51807,0.00391,1.03613,0.00488,1.5542,0.00488
		c5.01953,0,10.10107-0.16992,15.01514-0.33398l4.03271-0.13086c1.44775-0.04395,2.88623-0.15332,4.27734-0.26074
		c1.15674-0.08789,2.31348-0.17676,3.46582-0.22559c1.15674-0.04297,2.31787-0.00977,3.47705,0.02344
		c0.43701,0.01367,0.87402,0.02637,1.40137,0.03809c0.20068,0.00391,0.40283,0.00879,0.60254,0.00879
		c2.63037,0,4.37988-1.06836,5.19775-3.1748c0.98291-2.52734,0.40137-5.11426-1.59717-7.09668
		c-1.9292-1.91699-3.99805-3.85938-6.49609-5.40137c0.35303,0.01855,0.70703,0.03223,1.06104,0.04199
		c12.35742,0.35645,24.40625,0.5752,35.81006,0.64941c6.62646,0.04395,13.25879-0.00781,19.88965-0.06055
		c4.70264-0.03711,9.4043-0.0752,14.10547-0.07715h0.29688c5.55615,0,11.37451,0.08887,17.29443,0.26563
		c1.63574,0.04785,3.25977,0.18457,4.97998,0.3291c1.58594,0.13379,3.22656,0.27148,4.87402,0.33301
		c4.91943,0.18359,9.84033,0.33105,14.76074,0.47754c9.06641,0.27148,18.44238,0.55176,27.63184,1.06934
		c10.25684,0.5791,19.6543,0.86133,28.72949,0.86133c6.22607,0,12.36377-0.13965,18.24268-0.41113
		c14.92725-0.69434,28.43408-1.09473,41.2915-1.22559c13.52246-0.13867,27.27832-0.17188,40.58203-0.2041
		c11.29883-0.02539,22.98145-0.05371,34.47656-0.14648c6.86719-0.05762,13.95605-0.4209,21.06836-1.08203
		c7.40234-0.68555,14.89941-1.52832,22.15137-2.34375c4.34961-0.48828,8.69922-0.97656,13.05176-1.4375
		c12.29297-1.29004,22.35938-3.33691,31.67578-6.43848c12.73145-4.23926,27.16211-9.04395,40.4873-15.90625
		c12.80957-6.59766,27.3291-14.07617,40.45801-23.20215c5.93457-4.12988,12.30957-6.90137,18.94629-8.2373
		c10.37305-2.08398,19.79297-6.93359,28.00098-14.41016c0.28125-0.25684,0.59766-0.50488,0.93262-0.75684
		c2.10059,1.14258,3.49219,3.04883,5.03809,5.77832c0.55273,0.97754,1.08984,1.9707,1.62695,2.96387
		c1.61621,2.99023,3.28906,6.08301,5.4707,8.85254c7.36816,9.35547,14.94727,16.93164,23.1709,23.16016
		c5.83301,4.41895,11.63281,6.88086,17.73242,7.52734l1.94336,0.21191c3.15234,0.34863,6.41211,0.70996,9.69043,0.70996
		l0.29785-0.00098c6.15625-0.0459,10.81543-1.79297,14.18359-5.33105c1.45801,0.65234,2.88965,1.39258,4.2334,2.0957
		c0.52051,0.27441,1.03125,0.57227,1.54102,0.87012c1.05371,0.61328,2.14258,1.24805,3.37793,1.74023
		c1.27051,0.50586,2.39941,0.75195,3.4541,0.75195c2.02344,0,4.72754-0.91211,6.12793-5.25488
		c0.99512-3.08105,1.08008-6.38477,0.25293-9.81836c-0.63379-2.62695-1.24902-4.99902-1.87793-7.25098
		c-0.08887-0.31348-0.12012-0.52051-0.13086-0.64844c0.03906-0.01758,0.08789-0.03711,0.14648-0.05859
		c1.72754-0.63184,3.79199-2.16602,3.81738-5.88086c0.00879-0.98633,0.04883-1.97168,0.08984-2.95898
		c0.03516-0.88379,0.07227-1.76855,0.08691-2.6543c0.12109-7.30957,2.44531-13.35449,7.10742-18.48047
		c0.80957-0.8916,1.59766-1.80664,2.38477-2.71973c0.52734-0.61328,1.05469-1.22559,1.58984-1.83301l1.39355-1.57813
		c2.25586-2.55859,4.51172-5.11719,6.79688-7.6543c2.83398-3.15527,3.67188-6.66113,2.49023-10.42578
		c-0.28809-0.91699-0.50781-1.88477-0.74121-2.9082c-0.12988-0.57617-0.26074-1.15234-0.4043-1.72168
		c-2.72754-10.87305-1.92383-21.03809,2.38965-30.21289c2.02246-4.29688,4.76367-8.37988,7.63086-12.5332
		c5.54102-8.02246,5.3877-10.66309-1.02832-17.65625C917.68164,213.80859,916.40234,209.22705,917.39063,203.74854z"/>
	<path style="fill:#7D97AF;" d="M972.21289,201.64209c0.78711,2.41211,1.57422,4.8252,2.39063,7.22656
		c0.47656,1.39844,0.93359,2.80566,1.3916,4.21094c0.9873,3.03711,2.00781,6.17871,3.21289,9.2334
		c6.5957,16.7085,15.06152,32.76514,22.47266,46.26807c2.50098,4.55371,5.14648,9.1084,7.70605,13.51074
		c1.24414,2.14063,2.48828,4.28223,3.71973,6.42871l4.18555,7.29785c3.69629,6.43848,7.38965,12.87402,11.05566,19.32715
		c3.0459,5.36719,6.83789,10.12695,11.26953,14.14941c4.62305,4.19336,8.19141,9.33984,10.90918,15.73633
		c1.16211,2.72852,2.39648,5.40625,3.70313,8.24219c0.41602,0.90039,0.83789,1.81543,1.26855,2.75488
		c-0.0293,0.03809-0.05762,0.0752-0.08496,0.11328c-0.81836,1.09668-1.66309,2.23047-2.46289,3.43848
		c-3.37793,5.09766-3.04297,9.88965,0.99512,14.24512c1.99316,2.14648,4.10254,3.89258,6.26855,5.19043
		c5.06445,3.03613,9.37891,5.37891,13.57715,7.37207c3.86328,1.83496,7.95801,3.25781,11.81836,4.55566
		c6.4209,2.16406,12.08789,3.93555,17.32324,5.41797c2.75391,0.78027,5.75293,1.34082,9.43848,1.76074
		c4.49609,0.51563,8.89941,0.98047,13.33594,1.0127c0.51758,0.00391,1.03613,0.00488,1.55371,0.00488
		c5.01953,0,10.10059-0.16992,15.01465-0.33398l4.0332-0.13086c1.44824-0.04395,2.88574-0.15332,4.27734-0.26074
		c1.15723-0.08789,2.31348-0.17676,3.46582-0.22559c1.15723-0.04297,2.31836-0.00977,3.47754,0.02344
		c0.43555,0.01367,0.87402,0.02637,1.40039,0.03809c0.2002,0.00391,0.40332,0.00879,0.60156,0.00879
		c2.63086,0,4.38184-1.06836,5.19922-3.1748c0.98242-2.52734,0.40137-5.11426-1.59668-7.09668
		c-1.92969-1.91699-3.99902-3.85938-6.49609-5.40137c0.35156,0.01855,0.70605,0.03223,1.05957,0.04199
		c12.35742,0.35645,24.40625,0.5752,35.81055,0.64941c6.62695,0.04395,13.25977-0.00781,19.88965-0.06055
		c4.70215-0.03711,9.40527-0.0752,14.10547-0.07715h0.29785c5.55469,0,11.37305,0.08887,17.29297,0.26563
		c1.63574,0.04785,3.26074,0.18457,4.98145,0.3291c1.58594,0.13379,3.22656,0.27148,4.87305,0.33301
		c4.91992,0.18359,9.84082,0.33105,14.76172,0.47754c9.06641,0.27148,18.44141,0.55176,27.63086,1.06934
		c10.25781,0.5791,19.6543,0.86133,28.72949,0.86133c6.22656,0,12.36328-0.13965,18.24219-0.41113
		c14.92871-0.69434,28.43457-1.09473,41.29297-1.22559c13.52246-0.13867,27.27832-0.17188,40.58105-0.2041
		c11.29785-0.02539,22.98242-0.05371,34.47656-0.14648c6.86719-0.05762,13.95703-0.4209,21.06836-1.08203
		c7.40234-0.68555,14.89941-1.52832,22.15137-2.34375c4.35059-0.48828,8.69922-0.97656,13.05273-1.4375
		c12.29199-1.29004,22.3584-3.33691,31.6748-6.43848c12.73047-4.23926,27.16211-9.04395,40.4873-15.90625
		c12.81055-6.59766,27.33008-14.07617,40.45898-23.20215c5.93457-4.12988,12.30957-6.90137,18.94629-8.2373
		c10.37207-2.08398,19.79199-6.93359,28-14.41016c0.28223-0.25684,0.59766-0.50488,0.93359-0.75684
		c2.10059,1.14258,3.49219,3.04883,5.03809,5.77832c0.55176,0.97754,1.08984,1.9707,1.62695,2.96387
		c1.61621,2.99023,3.28906,6.08301,5.4707,8.85254c7.36816,9.35547,14.94727,16.93164,23.16992,23.16016
		c5.83398,4.41895,11.63281,6.88086,17.7334,7.52734l1.94238,0.21191c3.15332,0.34863,6.41211,0.70996,9.69043,0.70996
		l0.29785-0.00098c6.15723-0.0459,10.81641-1.79297,14.18359-5.33105c1.45898,0.65234,2.88965,1.39258,4.23438,2.0957
		c0.51953,0.27441,1.03125,0.57227,1.54004,0.87012c1.05371,0.61328,2.14355,1.24805,3.37793,1.74023
		c1.27148,0.50586,2.39941,0.75195,3.45508,0.75195c2.02246,0,4.72656-0.91211,6.12695-5.25488
		c0.99512-3.08105,1.08105-6.38477,0.25293-9.81836c-0.63281-2.62695-1.24805-4.99902-1.87793-7.25098
		c-0.08887-0.31348-0.11914-0.52051-0.12988-0.64844c0.03906-0.01758,0.08691-0.03711,0.14551-0.05859
		c1.72852-0.63184,3.79102-2.16602,3.81738-5.88086c0.00879-0.98633,0.0498-1.97168,0.09082-2.95898
		c0.03418-0.88379,0.07129-1.76855,0.08594-2.6543c0.12109-7.30957,2.44531-13.35449,7.10742-18.48047
		c0.81055-0.8916,1.59863-1.80664,2.38477-2.71973c0.52832-0.61328,1.05469-1.22559,1.58984-1.83301l1.39453-1.57813
		c2.25488-2.55859,4.51074-5.11719,6.7959-7.6543c2.83398-3.15527,3.67285-6.66113,2.49023-10.42578
		c-0.28711-0.91699-0.50684-1.88477-0.74023-2.9082c-0.13184-0.57617-0.26074-1.15234-0.40527-1.72168
		c-2.72852-10.87305-1.92285-21.03809,2.39063-30.21191c2.02246-4.29785,4.76367-8.38086,7.62988-12.5332
		c5.54199-8.02344,5.38867-10.66406-1.02734-17.65674c-3.61914-3.94727-4.89941-8.52832-3.91113-14.00684
		c0.32227-1.77441,0.9668-3.55371,1.65137-5.43848c0.26758-0.73828,0.53516-1.47559,0.78516-2.2168
		c0.25293-0.74805,0.54199-1.4873,0.8291-2.22559c0.52832-1.36279,1.07715-2.77197,1.4502-4.28906
		c1.50391-6.10449-0.25-9.96777-5.86621-12.91797c-1.29883-0.68164-2.72559-1.26514-4.35449-1.78516
		c-8.41113-2.69092-16.65039-2.74365-24.32324-0.16211c-5.7832,1.94434-11.49805,4.2749-17.02344,6.52832l-0.93652,0.38281
		c-3.33887,1.36279-6.70117,2.79639-9.95313,4.18164c-4.625,1.97119-9.40527,4.00879-14.14844,5.85596
		c-6.64063,2.58936-12.08203,5.70654-16.63379,9.53076c-8.91895,7.49219-16.2832,13.82227-23.08984,21.34912
		c-4.0332,4.45996-8.71875,8.49023-13.92676,11.98145c-1.84277,1.23633-3.7373,1.81641-6.14355,1.87891
		c-7.82324,0.19727-15.50684-1.47461-23.37305-3.36719c-2.89648-0.69531-5.78418-1.43652-8.67188-2.17969
		c-7.33105-1.88086-14.9082-3.82813-22.54785-4.9873c-7.32031-1.11133-14.71191-2.59473-21.86035-4.03076
		c-3.95801-0.79492-8.0498-1.61621-12.0957-2.36914c-4.92773-0.91504-9.85254-1.85547-14.77539-2.79688
		c-10.54004-2.01367-21.44141-4.09766-32.22363-5.88867c-20.52539-3.41211-41.29395-4.58984-59.14551-5.42383
		c-13.52539-0.63574-27.91211-1.82617-41.48828-6.21484c-10.66602-3.44629-23.04492-7.50293-34.96289-12.02148
		c-6.68555-2.53418-13.45605-5.19775-20.00586-7.77539c-12.22168-4.80811-24.85938-9.78027-37.53516-14.14502
		c-20.19531-6.95557-44.31738-14.31348-70.0791-16.14941c-2.54492-0.18213-5.09082-0.40088-7.6377-0.62012
		c-6.12695-0.52637-12.46582-1.07275-18.75488-1.07275l-0.65137,0.00244c-16.60938,0.10205-33.03027,0.7959-48.91406,1.46777
		c-4.08105,0.17285-8.18652,0.54834-12.15918,0.91016c-4.11328,0.37646-8.36719,0.76465-12.52148,0.91943
		c-8.75586,0.32666-17.68262,0.45117-26.31445,0.57275c-3.9502,0.05566-7.90137,0.11035-11.85059,0.18457
		c-6.14844,0.12451-12.19043-1.01318-17.88379-3.36523c-1.67578-0.69189-3.47363-1.38721-5.40918-1.62988
		c-2.10645-0.26318-3.2207-0.96826-3.97852-2.51465c-0.7002-1.43066-1.78516-2.60303-2.5752-3.45752
		c-2.02051-2.18701-4.03906-4.37842-6.05664-6.56836c-6.56934-7.13184-13.3623-14.50635-20.16309-21.65967
		c-4.04395-4.25342-9.28027-7.19531-16.48242-9.25635c-13.07617-3.73779-26.16895-4.26025-36.11523-4.29785l-0.30566-0.00098
		c-7.42969,0-13.89746,0.99316-19.77246,3.03613c-9.3457,3.25-18.06836,7.53223-25.92871,12.72852
		c-3.37793,2.23438-5.87402,4.86523-7.62988,8.04102c-4.03223,7.28857-6.45898,13.70459-7.6377,20.1958
		c-0.29395,1.62305-0.48926,3.25-0.67773,4.82324c-0.18945,1.59375-0.37012,3.09814-0.64453,4.58887
		c-2.0498,11.16846-0.82813,22.16064,3.73438,33.60449C968.70215,190.88965,970.48633,196.35498,972.21289,201.64209z
		 M968.26953,153.05811c0.30469-1.65625,0.50293-3.31641,0.69531-4.92285c0.1875-1.56299,0.36426-3.03955,0.62891-4.50146
		c1.06934-5.89014,3.30859-11.78076,7.0459-18.53613c1.32227-2.39014,3.24121-4.39648,5.86719-6.1333
		c7.48047-4.9458,15.79199-9.02539,24.70703-12.125c5.28711-1.83838,11.16699-2.73145,17.97266-2.73145h0.28516
		c14.25,0.05371,24.92969,1.31396,34.62891,4.08691c6.22266,1.78076,10.67773,4.24902,14.02246,7.76807
		c6.77148,7.12207,13.5498,14.47998,20.10547,21.59619c2.01855,2.19238,4.03809,4.38525,6.06152,6.57568
		c0.59473,0.64307,1.33496,1.44238,1.68457,2.15576c1.5791,3.22754,4.26367,5.03613,8.20801,5.52979
		c1.26172,0.15918,2.6123,0.68555,3.99805,1.25684c6.38867,2.63867,13.11426,3.91211,20.0791,3.78027
		c3.94043-0.07471,7.88184-0.12939,11.82422-0.18555c8.66309-0.12109,17.62109-0.24707,26.43945-0.57666
		c4.30371-0.15869,8.63281-0.55469,12.81738-0.93604c3.90625-0.35693,7.94629-0.72559,11.89355-0.89307
		c15.83203-0.66943,32.20605-1.36182,48.71387-1.46387l0.61914-0.00098c6.05371,0,12.27148,0.53418,18.28418,1.05225
		c2.57227,0.22119,5.14746,0.44238,7.71777,0.62646c25.13184,1.79053,48.82422,9.02393,68.68555,15.86328
		c12.5625,4.32568,25.14453,9.27734,37.3125,14.06494c6.56543,2.58203,13.35254,5.25293,20.06836,7.80029
		c12.03613,4.5625,24.49121,8.64355,35.22168,12.11133c14.18945,4.58496,29.01172,5.82031,42.91699,6.47266
		c17.69629,0.82813,38.27051,1.99316,58.50293,5.35742c10.7168,1.78027,21.58398,3.85645,32.09375,5.86523
		c4.93359,0.94287,9.86523,1.88525,14.80273,2.80225c4.00781,0.74414,8.08008,1.5625,12.01855,2.35352
		c7.21094,1.44824,14.66699,2.94531,22.11719,4.0752c7.36523,1.11914,14.80664,3.0293,22.00684,4.87793
		c2.91504,0.74902,5.83105,1.49805,8.75293,2.2002c8.23145,1.98047,16.35254,3.74609,24.80176,3.5166
		c3.45703-0.09082,6.33203-0.98242,9.04688-2.80371c5.57715-3.74023,10.60352-8.0625,14.93652-12.85352
		c7.09863-7.84814,15.30762-14.74658,22.55273-20.83252c4.08789-3.43262,9.02734-6.25391,15.10254-8.62305
		c4.82129-1.87695,9.64258-3.93164,14.30664-5.91895c3.2334-1.37891,6.57617-2.80371,9.87598-4.14941l0.93652-0.38281
		c5.44727-2.22119,11.07813-4.51904,16.7002-6.40918c6.57129-2.21191,13.60254-2.14844,20.90527,0.18896
		c1.30859,0.41699,2.47754,0.89453,3.47754,1.41748c3.36426,1.76807,4.00293,3.16699,3.10547,6.80957
		c-0.28906,1.17676-0.74902,2.36328-1.23926,3.61914c-0.31738,0.81592-0.63184,1.63281-0.91016,2.45898
		c-0.23828,0.70068-0.49219,1.39941-0.74512,2.09766c-0.73145,2.01465-1.4873,4.09668-1.89063,6.3252
		c-1.29297,7.16016,0.47461,13.43164,5.25293,18.63867c4.61621,5.03369,4.61621,5.03369,0.56152,10.90479
		c-3.00195,4.34766-5.87891,8.63672-8.07617,13.30859c-4.8623,10.33789-5.78418,21.72168-2.74316,33.84082
		c0.13184,0.53027,0.25488,1.06738,0.37598,1.60254c0.24609,1.08496,0.50293,2.20703,0.85645,3.33301
		c0.59766,1.90625,0.19434,3.45313-1.34863,5.16992c-2.29395,2.5498-4.5625,5.12109-6.83105,7.69336l-1.3916,1.57617
		c-0.54785,0.62402-1.0918,1.25391-1.63379,1.88379c-0.75781,0.87793-1.5127,1.75586-2.28711,2.61133
		c-5.5127,6.05859-8.37793,13.47363-8.52051,22.04004c-0.0127,0.84082-0.0498,1.68262-0.08203,2.52441
		c-0.04297,1.04492-0.08691,2.08984-0.09473,3.13867c-0.00488,0.54004-0.08691,0.73438-0.08008,0.74121
		c-0.01367,0.00781-0.05859,0.03711-0.1582,0.07324c-1.48047,0.54102-4.77539,2.33301-3.39453,7.27344
		c0.61133,2.18945,1.20898,4.50098,1.82813,7.06348c0.59766,2.4834,0.55273,4.73242-0.14258,6.88184
		c-0.31445,0.98242-0.62793,1.47949-0.92578,1.48047c-0.19238,0-0.63184-0.04785-1.42383-0.36328
		c-0.85742-0.3418-1.72949-0.84863-2.64844-1.38672c-0.58301-0.33789-1.16504-0.67676-1.76074-0.98926
		c-1.43164-0.74902-2.96582-1.54004-4.57813-2.26172c-0.73145-0.32617-1.44824-0.4541-2.02441-0.55762
		c-0.18945-0.03418-0.38379-0.06836-0.57813-0.11133l-1.70703-0.39063l-1.06641,1.38281
		c-2.39941,3.1084-5.80762,4.51172-11.04297,4.54883l-0.25879,0.00195c-2.97656,0-5.94336-0.3291-9.08594-0.67773l-1.96875-0.21484
		c-5.08008-0.53711-9.9873-2.64648-15.00293-6.44629c-7.84961-5.94434-15.10547-13.20215-22.18164-22.18848
		c-1.89258-2.40137-3.38184-5.15723-4.95898-8.07422c-0.55469-1.02441-1.10742-2.04883-1.67969-3.05664
		c-1.88574-3.33301-4.30957-7.03809-9.22559-8.79492l-1.40918-0.50391l-1.18555,0.91211
		c-0.22852,0.17578-0.46582,0.35156-0.70801,0.52832c-0.58887,0.43066-1.25586,0.91895-1.88574,1.49609
		c-7.46484,6.79883-16.00879,11.2041-25.39453,13.09082c-7.37695,1.48438-14.44043,4.5498-20.99512,9.10938
		c-12.83008,8.9209-27.17969,16.30957-39.83984,22.83105c-12.94629,6.66797-27.16406,11.40137-39.70996,15.57813
		c-8.92969,2.97266-18.62695,4.93945-30.51563,6.18848c-4.36621,0.45996-8.72754,0.95117-13.0918,1.44141
		c-7.22559,0.81348-14.69434,1.65234-22.04297,2.33301c-6.95996,0.64648-13.89453,1.00293-20.60645,1.05957
		c-11.47949,0.09082-23.1543,0.11914-34.44629,0.14648c-13.31348,0.03125-27.08008,0.06445-40.625,0.20313
		c-12.9248,0.13281-26.49609,0.53418-41.49023,1.23145c-5.79297,0.26855-11.8457,0.40625-17.98828,0.40625
		c-8.97168,0-18.2666-0.28027-28.4209-0.85352c-9.26074-0.52344-18.6748-0.80371-27.77539-1.0752
		c-4.9082-0.14648-9.81543-0.29297-14.7207-0.47559c-1.51953-0.05859-3.02637-0.18457-4.62109-0.31836
		c-1.71582-0.14355-3.49219-0.29395-5.27441-0.34668c-5.97363-0.17676-11.84863-0.26758-17.45703-0.26758h-0.2998
		c-4.71582,0.00195-9.43164,0.04004-14.14746,0.07715c-6.60352,0.05273-13.20313,0.10547-19.80957,0.06055
		c-11.3623-0.07422-23.37012-0.29102-35.68945-0.64648c-2.66309-0.07617-5.30469-0.3916-8.10156-0.72461
		c-1.33789-0.15918-2.67578-0.31836-4.01855-0.4502c-0.46191-0.04492-0.92773-0.07227-1.39355-0.09863l-2.70703-0.17773
		l-1.72852,4.92871l2.21484,1.05859c0.84766,0.40527,1.6875,0.83203,2.52441,1.26074
		c1.97949,1.00977,4.02539,2.05371,6.22168,2.83008c3.35449,1.18262,5.89258,3.52441,8.41113,6.02148
		c0.4209,0.41992,0.50293,0.69629,0.45117,0.97559c-0.05664,0.00098-0.12109,0.00195-0.19727,0.00195l-1.84082-0.04199
		c-1.28809-0.03613-2.56543-0.07422-3.86523-0.02148c-1.21875,0.05078-2.43848,0.14355-3.6582,0.2373
		c-1.38965,0.10645-2.70117,0.20605-4.02637,0.24609l-4.04883,0.13184c-4.86914,0.16211-9.9043,0.33203-14.83105,0.33203
		l-1.51465-0.00586c-4.16602-0.03027-8.4082-0.47949-12.75293-0.97754c-3.38281-0.38574-6.10449-0.89063-8.56543-1.58984
		c-5.14941-1.45703-10.73242-3.20215-17.06934-5.33691c-3.70508-1.24707-7.62402-2.60742-11.21582-4.3125
		c-4.03516-1.91602-8.20215-4.17969-13.1123-7.12402c-1.72461-1.03223-3.43164-2.45313-5.07324-4.2207
		c-2.34766-2.5332-2.46582-4.50977-0.44531-7.55762c0.71484-1.08203,1.51367-2.15332,2.28613-3.18945
		c0.3623-0.48633,0.71875-0.96289,1.06055-1.43359l0.92969-1.27832l-0.65234-1.4375
		c-0.66309-1.46289-1.31055-2.86621-1.94141-4.2334c-1.28906-2.79688-2.50781-5.43945-3.63672-8.09473
		c-3.03223-7.13281-7.04395-12.90234-12.26172-17.63477c-1.00488-0.91113-1.97168-1.86426-2.90234-2.85938
		c2.84277,0.16602,5.69141,0.30762,8.55566,0.39258c49.89648,1.47461,99.82617,1.14746,149.75098,1.17676
		c29.19141,0.01563,58.38672-0.13574,87.57324,0.0625c13.14355,0.09082,26.28223,0.77734,39.40625,1.32715
		c11.48535,0.48242,22.94922,1.12012,34.41602,1.74316c20.80859,1.12402,41.66309,0.92383,62.49805,0.5752
		c14.68359-0.24512,29.39355-0.65137,43.99609-1.54688c12.18652-0.74609,24.28809-2.12598,36.32129-3.54785
		c16.85156-1.99121,33.8252-2.94141,50.97754-3.0498c13.16699-0.08594,26.34473-0.11035,39.49512-0.43359
		c10.28711-0.25488,20.57324-0.77637,30.80469-1.46387c7.92676-0.5332,15.32715-2.22852,21.95996-4.90918
		c2.15137-0.87012,4.21191-1.9043,5.90039-3.0752c2.88477-1.99805,1.96387-3.60547-2.20605-4.40332
		c-0.21191-0.04004-0.42676-0.06543-0.64355-0.08594c-10.50098-1.0293-20.06348-3.68262-29.76953-6.06836
		c-15.50977-3.81836-31.6875-5.97559-48.29883-7.24902c-18.9707-1.4541-37.99414-2.30469-57.10938-2.11035
		c-16.66699,0.16992-33.33691,0.54688-49.99609,0.99512c-27.96094,0.74902-55.92188,1.35938-83.9082,0.80566
		c-19.07617-0.37695-38.14648-0.9082-57.20703-1.4834c-15.22754-0.45801-30.45313-1.00195-45.65723-1.66309
		c-20.3584-0.88184-40.61914-2.26758-60.54102-5.0127c-2.64844-0.36426-5.27051-0.91211-7.7373-1.58594
		c-2.48828-0.67871-2.61523-1.51563-0.33008-2.42188c2.25781-0.89258,4.73047-1.64648,7.25781-2.23242
		c7.48926-1.73828,15.33008-2.75684,23.24121-3.46582c22.98242-2.05566,45.98438-4.04785,69.00293-5.94629
		c16.94141-1.39746,33.92871-2.58789,50.88281-3.91895c3.3623-0.26563,6.68652-0.7168,10.00586-1.13672
		c1.05469-0.13379,2.09766-0.3916,3.05566-0.69336c3.02539-0.95313,3.35352-2.54688,0.4209-3.62695
		c-2.94824-1.08496-6.15723-2.02637-9.46387-2.65039c-6.99219-1.31641-14.13574-2.3418-21.17578-3.56934
		c-6.41113-1.11914-12.79199-2.30176-19.13184-3.5498c-2.03125-0.40039-4.17578-0.85254-5.54004-2.19141
		c1.07031-1.10742,2.76855-1.47461,4.43652-1.70508c4.90625-0.67578,9.80469-1.4668,14.78125-1.82813
		c14.58301-1.04883,29.20898-1.89453,43.81543-2.85547c12.63574-0.83105,25.30664-1.59375,37.66797-3.45508
		c3.16406-0.47266,6.33691-1.10742,9.24609-1.97266c5.73438-1.70703,7.57324-4.46777,5.84375-8.14648
		c-0.96387-2.05273-2.91504-3.76563-5.35156-5.30127c-3.58105-2.25977-7.93359-3.87695-12.54102-5.2832
		c-9.65332-2.94629-20-4.6875-30.60547-5.75977c-13.07324-1.31934-26.20605-2.48926-39.38184-3.37988
		c-8.69727-0.58887-17.51953-0.7959-26.2793-0.77441c-21.17676,0.05566-42.34961,0.27539-63.52148,0.55664
		c-25.55273,0.33984-51.10547,0.84766-76.66211,1.21387c-24.46289,0.35059-48.92773,0.61816-73.39063,0.91797
		c-21.38965,0.2627-42.78809,0.44629-64.17773,0.79785c-18.42188,0.30273-36.83496,0.79395-55.25293,1.20508
		c-0.6582,0.01367-1.31836,0.02734-1.9707,0.08398c-1.05078,0.09082-1.95117,0.24512-2.74219,0.45605
		c-0.43945-1.35059-0.87891-2.70313-1.33594-4.04785c-0.80957-2.38086-1.58984-4.77148-2.37109-7.16211
		c-1.75098-5.36719-3.56348-10.91748-5.69922-16.28223C967.5332,173.2085,966.40918,163.19336,968.26953,153.05811z"/>
	<path style="fill:#7D97AF;" d="M1858.20801,201.64209c0.78809,2.41211,1.57422,4.8252,2.3916,7.22656
		c0.47559,1.39844,0.93359,2.80566,1.39063,4.21094c0.9873,3.03711,2.00781,6.17871,3.21289,9.2334
		c6.5957,16.7085,15.0625,32.76514,22.47266,46.26807c2.50098,4.55371,5.14648,9.1084,7.70703,13.51074
		c1.24414,2.14063,2.48828,4.28223,3.71875,6.42871l4.18555,7.29785c3.69629,6.43848,7.38965,12.87402,11.05566,19.32715
		c3.0459,5.36719,6.83789,10.12695,11.26953,14.14941c4.62305,4.19336,8.19141,9.33984,10.90918,15.73633
		c1.16211,2.72852,2.39648,5.40625,3.70313,8.24219c0.41602,0.90039,0.83789,1.81543,1.26855,2.75488
		c-0.0293,0.03809-0.05762,0.0752-0.08496,0.11328c-0.81836,1.09668-1.66309,2.23047-2.46289,3.43848
		c-3.37695,5.09766-3.04297,9.88965,0.99512,14.24512c1.99316,2.14648,4.10254,3.89258,6.26855,5.19043
		c5.06445,3.03613,9.37891,5.37891,13.57813,7.37207c3.86328,1.83496,7.95703,3.25781,11.81836,4.55566
		c6.41992,2.16406,12.08789,3.93555,17.32227,5.41797c2.75391,0.78027,5.75293,1.34082,9.43848,1.76074
		c4.49609,0.51563,8.89941,0.98047,13.33594,1.0127c0.51855,0.00391,1.03613,0.00488,1.55371,0.00488
		c5.01953,0,10.10156-0.16992,15.01563-0.33398l4.0332-0.13086c1.44727-0.04395,2.88574-0.15332,4.27734-0.26074
		c1.15625-0.08789,2.3125-0.17676,3.46484-0.22559c1.15723-0.04297,2.31836-0.00977,3.47754,0.02344
		c0.43652,0.01367,0.87402,0.02637,1.40137,0.03809c0.20117,0.00391,0.40234,0.00879,0.60254,0.00879
		c2.62988,0,4.37988-1.06836,5.19824-3.1748c0.98242-2.52734,0.40039-5.11426-1.59766-7.09668
		c-1.92969-1.91699-3.99805-3.85938-6.49609-5.40137c0.35352,0.01855,0.70703,0.03223,1.06055,0.04199
		c12.35742,0.35645,24.40625,0.5752,35.81055,0.64941c6.62695,0.04395,13.25879-0.00781,19.88965-0.06055
		c4.70215-0.03711,9.4043-0.0752,14.10547-0.07715h0.29688c5.55566,0,11.37402,0.08887,17.29395,0.26563
		c1.63672,0.04785,3.25977,0.18457,4.98047,0.3291c1.58594,0.13379,3.22656,0.27148,4.87402,0.33301
		c4.91895,0.18359,9.84082,0.33105,14.76074,0.47754c9.06641,0.27148,18.44238,0.55176,27.63184,1.06934
		c10.25684,0.5791,19.6543,0.86133,28.72949,0.86133c6.22656,0,12.36328-0.13965,18.24219-0.41113
		c14.92773-0.69434,28.43457-1.09473,41.29199-1.22559c13.52246-0.13867,27.27832-0.17188,40.58203-0.2041
		c11.29883-0.02539,22.98145-0.05371,34.47656-0.14648c6.86719-0.05762,13.95605-0.4209,21.06836-1.08203
		c7.40234-0.68555,14.89941-1.52832,22.15137-2.34375c4.34961-0.48828,8.69922-0.97656,13.05176-1.4375
		c12.29297-1.29004,22.35938-3.33691,31.67578-6.43848c12.73145-4.23926,27.16211-9.04395,40.4873-15.90625
		c12.80957-6.59766,27.3291-14.07617,40.45801-23.20215c5.93457-4.12988,12.30957-6.90137,18.94629-8.2373
		c10.37305-2.08398,19.79297-6.93359,28.00098-14.41016c0.28125-0.25684,0.59766-0.50488,0.93262-0.75684
		c2.10059,1.14258,3.49219,3.04883,5.03809,5.77832c0.55273,0.97754,1.08984,1.9707,1.62695,2.96387
		c1.61621,2.99023,3.28906,6.08301,5.4707,8.85254c7.36816,9.35547,14.94727,16.93164,23.1709,23.16016
		c5.83301,4.41895,11.63281,6.88086,17.73242,7.52734l1.94336,0.21191c3.15234,0.34863,6.41211,0.70996,9.69043,0.70996
		l0.29785-0.00098c6.15625-0.0459,10.81543-1.79297,14.18359-5.33105c1.45801,0.65234,2.88965,1.39258,4.2334,2.0957
		c0.52051,0.27441,1.03125,0.57227,1.54102,0.87012c1.05371,0.61328,2.14258,1.24805,3.37793,1.74023
		c1.27051,0.50586,2.39941,0.75195,3.4541,0.75195c2.02344,0,4.72754-0.91211,6.12793-5.25488
		c0.99512-3.08105,1.08008-6.38477,0.25293-9.81836c-0.63379-2.62695-1.24902-4.99902-1.87793-7.25098
		c-0.08887-0.31348-0.12012-0.52051-0.13086-0.64844c0.03906-0.01758,0.08789-0.03711,0.14648-0.05859
		c1.72754-0.63184,3.79199-2.16602,3.81738-5.88086c0.00879-0.98633,0.04883-1.97168,0.08984-2.95898
		c0.03516-0.88379,0.07227-1.76855,0.08691-2.6543c0.12109-7.30957,2.44531-13.35449,7.10742-18.48047
		c0.80957-0.8916,1.59766-1.80664,2.38477-2.71973c0.52734-0.61328,1.05469-1.22559,1.58984-1.83301l1.39355-1.57813
		c2.25586-2.55859,4.51172-5.11719,6.79688-7.6543c2.83398-3.15527,3.67188-6.66113,2.49023-10.42578
		c-0.28809-0.91699-0.50781-1.88477-0.74121-2.9082c-0.12988-0.57617-0.26074-1.15234-0.4043-1.72168
		c-2.72754-10.87305-1.92383-21.03809,2.38965-30.21191c2.02246-4.29785,4.76367-8.38086,7.63086-12.5332
		c5.54102-8.02344,5.3877-10.66406-1.02832-17.65674c-3.61914-3.94727-4.89844-8.52832-3.91016-14.00684
		c0.32227-1.77441,0.9668-3.55371,1.65137-5.43848c0.26758-0.73828,0.53516-1.47559,0.78516-2.2168
		c0.25293-0.74805,0.54102-1.4873,0.82813-2.22559c0.5293-1.3623,1.07813-2.77246,1.4502-4.28906
		c1.50391-6.10449-0.24902-9.96777-5.86621-12.91797c-1.29883-0.68164-2.72559-1.26465-4.35449-1.78516
		c-8.41113-2.69043-16.65039-2.74316-24.32324-0.16211c-5.7832,1.94434-11.49707,4.27441-17.02148,6.52832l-0.9375,0.38281
		c-3.33789,1.36328-6.70215,2.79688-9.9541,4.18164c-4.62402,1.9707-9.40527,4.00879-14.14746,5.85547
		c-6.6416,2.58984-12.08301,5.70703-16.63477,9.53125c-8.91797,7.49219-16.28125,13.82227-23.08887,21.34912
		c-4.03418,4.45996-8.71973,8.49023-13.92773,11.98145c-1.8418,1.23633-3.73633,1.81641-6.14258,1.87891
		c-7.82422,0.19727-15.50684-1.47461-23.37402-3.36719c-2.89551-0.69531-5.7832-1.43652-8.67188-2.17969
		c-7.33008-1.88086-14.9082-3.82813-22.54785-4.9873c-7.32031-1.11133-14.71191-2.59473-21.86035-4.03076
		c-3.95703-0.79492-8.04883-1.61621-12.0957-2.36914c-4.92773-0.91504-9.85156-1.85547-14.77441-2.79688
		c-10.54102-2.01367-21.44238-4.09766-32.22266-5.88867c-20.52734-3.41211-41.29492-4.58984-59.14648-5.42383
		c-13.52539-0.63574-27.91309-1.82617-41.48828-6.21484c-10.66699-3.44629-23.0459-7.50293-34.96387-12.02148
		c-6.68457-2.53418-13.45605-5.19727-20.00488-7.77539c-12.22168-4.80859-24.85938-9.78027-37.53418-14.14453
		c-20.19727-6.95605-44.31738-14.31396-70.0791-16.1499c-2.54688-0.18213-5.09277-0.40088-7.63867-0.62012
		c-6.12793-0.52637-12.46484-1.07275-18.75391-1.07275l-0.65234,0.00244c-16.60938,0.10205-33.03125,0.7959-48.91406,1.46777
		c-4.08105,0.17285-8.1875,0.54834-12.15918,0.91016c-4.11328,0.37646-8.36719,0.76465-12.52246,0.91943
		c-8.75586,0.32666-17.68164,0.45117-26.31445,0.57227c-3.94922,0.05664-7.90039,0.11133-11.85059,0.18555
		c-6.14746,0.12402-12.19043-1.01367-17.88379-3.36572c-1.67578-0.69189-3.47266-1.38721-5.40918-1.62988
		c-2.10645-0.26318-3.2207-0.96826-3.97852-2.51465c-0.7002-1.43066-1.78418-2.60303-2.5752-3.45752
		c-2.02051-2.18701-4.03906-4.37842-6.05664-6.56836c-6.56836-7.13184-13.36133-14.50635-20.16309-21.65967
		c-4.04395-4.25342-9.28027-7.19531-16.48145-9.25635c-13.07617-3.73779-26.16992-4.26025-36.11621-4.29785l-0.30566-0.00098
		c-7.42969,0-13.89648,0.99316-19.77246,3.03613c-9.34473,3.25-18.06836,7.53223-25.92871,12.72852
		c-3.37793,2.23438-5.87402,4.86523-7.62988,8.04102c-4.03223,7.28857-6.45898,13.70459-7.6377,20.1958
		c-0.29297,1.62305-0.48828,3.25-0.67773,4.82324c-0.18945,1.59375-0.37012,3.09814-0.64453,4.58838
		c-2.0498,11.16895-0.82813,22.16113,3.73438,33.60547C1854.69727,190.89014,1856.48145,196.35498,1858.20801,201.64209z
		 M1919.54883,216.46924c19.34766,1.19629,38.71875,1.47461,58.05469,1.3291c14.875-0.1123,29.73242-0.41406,44.59961-0.62305
		c17.02344-0.23828,34.04004-0.5332,51.07617-0.69141c21.35156-0.19922,42.71094-0.33398,64.07813-0.39453
		c15.12891-0.04492,30.26367-0.08594,45.4082,0.16211c20.0791,0.32813,40.17383,0.87109,60.25879,1.44531
		c29.70508,0.85156,59.41602,2.18848,89.11523,2.09375c17.76367-0.05664,35.52246-0.19824,53.2832-0.2832
		c16.54883-0.08203,33.07129-0.31348,49.52637-0.95508c6.19238,1.13281,12.36523,2.30664,18.41797,3.46289
		c4.93262,0.94287,9.86523,1.88525,14.80176,2.80225c4.00781,0.74414,8.08008,1.5625,12.01855,2.35352
		c7.21094,1.44824,14.66699,2.94531,22.11719,4.0752c7.36523,1.11914,14.80762,3.0293,22.00684,4.87793
		c2.91504,0.74902,5.83105,1.49805,8.75293,2.2002c8.23145,1.98047,16.35352,3.74609,24.80273,3.5166
		c3.45605-0.09082,6.33105-0.98242,9.04688-2.80371c5.57715-3.74023,10.60254-8.0625,14.93555-12.85352
		c7.09863-7.84814,15.30859-14.74658,22.55273-20.83252c4.08789-3.43262,9.02734-6.25391,15.10254-8.62305
		c4.82129-1.87695,9.64453-3.93164,14.30664-5.91895c3.2334-1.37891,6.57715-2.80371,9.87598-4.14941l0.93652-0.38281
		c5.44727-2.2207,11.0791-4.51953,16.7002-6.40918c6.57129-2.21191,13.60352-2.14844,20.90527,0.18848
		c1.30859,0.41797,2.47852,0.89453,3.47852,1.41797c3.36426,1.76758,4.00293,3.16699,3.10547,6.80957
		c-0.28906,1.17676-0.75,2.36328-1.23926,3.61914c-0.31738,0.81543-0.63281,1.63281-0.91113,2.45898
		c-0.23828,0.7002-0.49121,1.39941-0.74512,2.09766c-0.73047,2.01465-1.4873,4.09668-1.88965,6.3252
		c-1.29199,7.16016,0.47461,13.43164,5.25195,18.63867c4.61621,5.03369,4.61621,5.03369,0.56152,10.90479
		c-3.00098,4.34766-5.87793,8.63672-8.07617,13.30859c-4.86133,10.33789-5.78418,21.72168-2.74316,33.84082
		c0.13281,0.53027,0.25488,1.06738,0.37695,1.60254c0.24609,1.08496,0.50195,2.20703,0.85547,3.33301
		c0.59766,1.90625,0.19434,3.45313-1.34766,5.16992c-2.29395,2.5498-4.56348,5.12109-6.83203,7.69336l-1.39063,1.57617
		c-0.54883,0.62402-1.0918,1.25391-1.63477,1.88379c-0.75586,0.87793-1.51172,1.75586-2.28711,2.61133
		c-5.51172,6.05859-8.37793,13.47363-8.51953,22.04004c-0.01367,0.84082-0.0498,1.68262-0.08301,2.52441
		c-0.04297,1.04492-0.08594,2.08984-0.09375,3.13867c-0.00488,0.54004-0.08691,0.73438-0.08105,0.74121
		c-0.01367,0.00781-0.05859,0.03711-0.15625,0.07324c-1.48242,0.54102-4.77734,2.33301-3.39648,7.27344
		c0.6123,2.18945,1.20996,4.50098,1.8291,7.06348c0.59766,2.4834,0.55176,4.73242-0.14258,6.88184
		c-0.31543,0.98242-0.62793,1.47949-0.92676,1.48047c-0.19238,0-0.63184-0.04785-1.42285-0.36328
		c-0.8584-0.3418-1.72949-0.84863-2.64941-1.38672c-0.58203-0.33789-1.16406-0.67676-1.75977-0.98926
		c-1.43262-0.74902-2.96582-1.54004-4.5791-2.26172c-0.73047-0.32617-1.44824-0.4541-2.02441-0.55762
		c-0.18945-0.03418-0.38281-0.06836-0.57715-0.11133l-1.70703-0.39063l-1.06738,1.38281
		c-2.39941,3.1084-5.80664,4.51172-11.04199,4.54883l-0.25879,0.00195c-2.97656,0-5.94434-0.3291-9.08691-0.67773l-1.96875-0.21484
		c-5.08008-0.53711-9.9873-2.64648-15.00293-6.44629c-7.84961-5.94434-15.10352-13.20215-22.18066-22.18848
		c-1.89258-2.40137-3.38184-5.15723-4.95898-8.07422c-0.55469-1.02441-1.1084-2.04883-1.67969-3.05664
		c-1.88574-3.33301-4.31055-7.03809-9.22559-8.79492l-1.40918-0.50391l-1.18555,0.91211
		c-0.22852,0.17578-0.4668,0.35156-0.70898,0.52832c-0.58789,0.43066-1.25488,0.91895-1.88574,1.49609
		c-7.46387,6.79883-16.00781,11.2041-25.39453,13.09082c-7.37695,1.48438-14.44043,4.5498-20.99414,9.10938
		c-12.83008,8.9209-27.17969,16.30957-39.83887,22.83105c-12.94824,6.66797-27.16602,11.40137-39.70996,15.57813
		c-8.93066,2.97266-18.62793,4.93945-30.51758,6.18848c-4.36523,0.45996-8.72754,0.95117-13.09082,1.44141
		c-7.22559,0.81348-14.69531,1.65234-22.04395,2.33301c-6.95996,0.64648-13.89453,1.00293-20.60645,1.05957
		c-11.47949,0.09082-23.1543,0.11914-34.44629,0.14648c-13.31348,0.03125-27.08008,0.06445-40.625,0.20313
		c-12.92383,0.13281-26.49609,0.53418-41.48926,1.23145c-5.79395,0.26855-11.8457,0.40625-17.98828,0.40625
		c-8.97168,0-18.26758-0.28027-28.4209-0.85352c-9.26172-0.52344-18.6748-0.80371-27.77637-1.0752
		c-4.9082-0.14648-9.81445-0.29297-14.71973-0.47559c-1.52051-0.05859-3.02637-0.18457-4.62012-0.31836
		c-1.7168-0.14355-3.49219-0.29395-5.27539-0.34668c-5.97461-0.17676-11.84766-0.26758-17.45801-0.26758h-0.29883
		c-4.71582,0.00195-9.43066,0.04004-14.14746,0.07715c-6.60352,0.05273-13.2041,0.10547-19.81055,0.06055
		c-11.3623-0.07422-23.37012-0.29102-35.6875-0.64648c-2.66406-0.07617-5.30664-0.3916-8.10352-0.72461
		c-1.33789-0.15918-2.67578-0.31836-4.01758-0.4502c-0.46289-0.04492-0.92871-0.07227-1.39453-0.09863l-2.70703-0.17773
		l-1.72852,4.92871l2.21582,1.05859c0.84668,0.40527,1.68652,0.83203,2.52441,1.26074
		c1.97949,1.00977,4.02441,2.05371,6.22266,2.83008c3.35254,1.18262,5.8916,3.52441,8.41016,6.02148
		c0.4209,0.41992,0.50195,0.69629,0.45117,0.97559c-0.05664,0.00098-0.12109,0.00195-0.19629,0.00195l-1.84277-0.04199
		c-1.28809-0.03613-2.56543-0.07422-3.86328-0.02148c-1.2207,0.05078-2.43945,0.14355-3.66016,0.2373
		c-1.38867,0.10645-2.70117,0.20605-4.02539,0.24609l-4.04883,0.13184c-4.86914,0.16211-9.9043,0.33203-14.83203,0.33203
		l-1.51465-0.00586c-4.16504-0.03027-8.4082-0.47949-12.75293-0.97754c-3.38281-0.38574-6.10352-0.89063-8.56543-1.58984
		c-5.14941-1.45703-10.73242-3.20215-17.06934-5.33691c-3.70508-1.24707-7.62402-2.60742-11.21484-4.3125
		c-4.03613-1.91602-8.20313-4.17969-13.11328-7.12402c-1.72461-1.03223-3.43164-2.45313-5.07227-4.2207
		c-2.34863-2.5332-2.4668-4.50977-0.44629-7.55762c0.71582-1.08203,1.51367-2.15332,2.28613-3.18945
		c0.36328-0.48633,0.71875-0.96289,1.06055-1.43359l0.92969-1.27832l-0.65234-1.4375
		c-0.66309-1.46289-1.31055-2.86621-1.94141-4.2334c-1.28906-2.79688-2.50781-5.43945-3.63672-8.09473
		c-3.03223-7.13281-7.04297-12.90234-12.26172-17.63477c-4.00195-3.63281-7.43164-7.94238-10.19336-12.80566
		c-3.66992-6.45996-7.36914-12.9043-11.06641-19.34961l-4.18555-7.29688c-1.23633-2.15527-2.48633-4.30469-3.73438-6.4541
		c-2.54395-4.37598-5.17383-8.89941-7.6416-13.39551c-7.33008-13.35449-15.69727-29.22168-22.18164-45.6499
		c-0.23828-0.60352-0.44824-1.23242-0.6748-1.84766C1886.02148,220.99561,1901.7002,215.36865,1919.54883,216.46924z"/>
	<path style="fill:#7D97AF;" d="M917.39063,550.29199c0.32227-1.77539,0.9668-3.55469,1.65137-5.43945
		c0.26758-0.73633,0.53516-1.47461,0.78516-2.21582c0.25293-0.74707,0.54102-1.4873,0.82813-2.22559
		c0.5293-1.36328,1.07813-2.77148,1.4502-4.28906c1.50391-6.10449-0.24902-9.96777-5.86621-12.91797
		c-1.29883-0.68164-2.72559-1.26563-4.35449-1.78516c-8.41113-2.69141-16.65039-2.74414-24.32324-0.16211
		c-5.7832,1.94434-11.49707,4.27539-17.02148,6.52832l-0.9375,0.38281c-3.33789,1.3623-6.70215,2.7959-9.9541,4.18164
		c-4.62402,1.97168-9.40527,4.00879-14.14746,5.85645c-6.6416,2.58887-12.08301,5.70703-16.63477,9.53027
		c-8.91797,7.49316-16.28125,13.82227-23.08887,21.34863c-4.03418,4.45996-8.71973,8.49023-13.92773,11.98242
		c-1.8418,1.23535-3.73633,1.81445-6.14258,1.87793c-7.82422,0.19629-15.50684-1.47461-23.37402-3.36719
		c-2.89551-0.69434-5.7832-1.43652-8.67188-2.17871c-7.33008-1.88281-14.9082-3.82813-22.54785-4.98828
		c-7.32031-1.11133-14.71191-2.5957-21.86035-4.03125c-3.95703-0.79395-8.04883-1.61523-12.0957-2.36719
		c-4.92773-0.91602-9.85156-1.85742-14.77441-2.79688c-10.54102-2.01465-21.44238-4.09863-32.22266-5.89063
		c-20.52734-3.41211-41.29492-4.58789-59.14648-5.42383c-13.52539-0.63477-27.91309-1.82617-41.48828-6.21289
		c-10.66699-3.44727-23.0459-7.50391-34.96387-12.02246c-6.68457-2.53418-13.45605-5.19824-20.00488-7.77539
		c-12.22168-4.80762-24.85938-9.78027-37.53418-14.14551c-20.19727-6.95508-44.31787-14.3125-70.07959-16.14844
		c-2.5459-0.18262-5.09229-0.40137-7.6377-0.62109c-6.12842-0.52539-12.46582-1.07227-18.75439-1.07227l-0.65283,0.00195
		c-16.6084,0.10254-33.03076,0.79688-48.91357,1.46875c-4.08105,0.17188-8.18701,0.54785-12.15918,0.91016
		c-4.11328,0.37598-8.36719,0.76367-12.52246,0.91895c-8.75586,0.32715-17.68213,0.45117-26.31445,0.57324
		c-3.94971,0.05469-7.8999,0.10938-11.85059,0.18359c-6.14746,0.125-12.19043-1.0127-17.8833-3.36523
		c-1.67578-0.69141-3.47363-1.38672-5.40967-1.62891c-2.10645-0.26367-3.2207-0.96875-3.97852-2.51563
		c-0.7002-1.42969-1.78467-2.60254-2.57471-3.45703c-2.021-2.1875-4.03906-4.37891-6.05664-6.56836
		c-6.56934-7.13184-13.3623-14.50586-20.16357-21.66016c-4.04346-4.25293-9.28027-7.19531-16.48193-9.25586
		c-13.07617-3.73828-26.16895-4.25977-36.11572-4.29785l-0.30518-0.00098c-7.42969,0-13.89746,0.99316-19.77295,3.03613
		c-9.34521,3.25-18.06836,7.53223-25.92822,12.72852c-3.37842,2.23438-5.87451,4.86523-7.63037,8.04102
		c-4.03223,7.28809-6.45898,13.7041-7.6377,20.19629c-0.29346,1.62305-0.48877,3.25-0.67773,4.82227
		c-0.18945,1.59375-0.37012,3.09863-0.64404,4.58984c-2.05029,11.16797-0.82861,22.16016,3.73389,33.60352
		c2.07275,5.20508,3.85645,10.67188,5.58301,15.95801c0.7876,2.41309,1.57422,4.8252,2.39111,7.22559
		c0.47607,1.40039,0.93359,2.80664,1.39111,4.21289c0.9873,3.03613,2.00781,6.17773,3.21338,9.23242
		c6.59521,16.70801,15.06152,32.76563,22.47266,46.26758c2.50049,4.55371,5.14648,9.1084,7.70605,13.51074
		c1.24414,2.14063,2.48828,4.28223,3.71924,6.42871l4.18604,7.29785c3.6958,6.43848,7.38916,12.87402,11.05518,19.32715
		c3.0459,5.36719,6.83789,10.12695,11.26953,14.14941c4.62305,4.19336,8.19141,9.33984,10.90967,15.73633
		c1.16211,2.72852,2.39648,5.40625,3.70313,8.24219c0.41553,0.90039,0.8374,1.81543,1.26807,2.75488
		c-0.0293,0.03809-0.05713,0.0752-0.08496,0.11328c-0.81836,1.09668-1.66309,2.23047-2.46289,3.43848
		c-3.37744,5.09766-3.04297,9.88965,0.99512,14.24512c1.99316,2.14648,4.10254,3.89258,6.26855,5.19043
		c5.06494,3.03613,9.37891,5.37891,13.57764,7.37207c3.86328,1.83496,7.95752,3.25781,11.81836,4.55566
		c6.42041,2.16406,12.08789,3.93555,17.32324,5.41797c2.75391,0.78027,5.75244,1.34082,9.43799,1.76074
		c4.49609,0.51563,8.8999,0.98047,13.33594,1.0127c0.51807,0.00391,1.03613,0.00488,1.5542,0.00488
		c5.01953,0,10.10107-0.16992,15.01514-0.33398l4.03271-0.13086c1.44775-0.04395,2.88623-0.15332,4.27734-0.26074
		c1.15674-0.08789,2.31348-0.17676,3.46582-0.22559c1.15674-0.04297,2.31787-0.00977,3.47705,0.02344
		c0.43701,0.01367,0.87402,0.02637,1.40137,0.03809c0.20068,0.00391,0.40283,0.00879,0.60254,0.00879
		c2.63037,0,4.37988-1.06836,5.19775-3.1748c0.98291-2.52734,0.40137-5.11426-1.59717-7.09668
		c-1.9292-1.91699-3.99805-3.85938-6.49609-5.40137c0.35303,0.01855,0.70703,0.03223,1.06104,0.04199
		c12.35742,0.35645,24.40625,0.5752,35.81006,0.64941c6.62646,0.04395,13.25879-0.00781,19.88965-0.06055
		c4.70264-0.03711,9.4043-0.0752,14.10547-0.07715h0.29688c5.55615,0,11.37451,0.08887,17.29443,0.26563
		c1.63574,0.04785,3.25977,0.18457,4.97998,0.3291c1.58594,0.13379,3.22656,0.27148,4.87402,0.33301
		c4.91943,0.18359,9.84033,0.33105,14.76074,0.47754c9.06641,0.27148,18.44238,0.55176,27.63184,1.06934
		c10.25684,0.5791,19.6543,0.86133,28.72949,0.86133c6.22607,0,12.36377-0.13965,18.24268-0.41113
		c14.92725-0.69434,28.43408-1.09473,41.2915-1.22559c13.52246-0.13867,27.27832-0.17188,40.58203-0.2041
		c11.29883-0.02539,22.98145-0.05371,34.47656-0.14648c6.86719-0.05762,13.95605-0.4209,21.06836-1.08203
		c7.40234-0.68555,14.89941-1.52832,22.15137-2.34375c4.34961-0.48828,8.69922-0.97656,13.05176-1.4375
		c12.29297-1.29004,22.35938-3.33691,31.67578-6.43848c12.73145-4.23926,27.16211-9.04395,40.4873-15.90625
		c12.80957-6.59766,27.3291-14.07617,40.45801-23.20215c5.93457-4.12988,12.30957-6.90137,18.94629-8.2373
		c10.37305-2.08398,19.79297-6.93359,28.00098-14.41016c0.28125-0.25684,0.59766-0.50488,0.93262-0.75684
		c2.10059,1.14258,3.49219,3.04883,5.03809,5.77832c0.55273,0.97754,1.08984,1.9707,1.62695,2.96387
		c1.61621,2.99023,3.28906,6.08301,5.4707,8.85254c7.36816,9.35547,14.94727,16.93164,23.1709,23.16016
		c5.83301,4.41895,11.63281,6.88086,17.73242,7.52734l1.94336,0.21191c3.15234,0.34863,6.41211,0.70996,9.69043,0.70996
		l0.29785-0.00098c6.15625-0.0459,10.81543-1.79297,14.18359-5.33105c1.45801,0.65234,2.88965,1.39258,4.2334,2.0957
		c0.52051,0.27441,1.03125,0.57227,1.54102,0.87012c1.05371,0.61328,2.14258,1.24805,3.37793,1.74023
		c1.27051,0.50586,2.39941,0.75195,3.4541,0.75195c2.02344,0,4.72754-0.91211,6.12793-5.25488
		c0.99512-3.08105,1.08008-6.38477,0.25293-9.81836c-0.63379-2.62695-1.24902-4.99902-1.87793-7.25098
		c-0.08887-0.31348-0.12012-0.52051-0.13086-0.64844c0.03906-0.01758,0.08789-0.03711,0.14648-0.05859
		c1.72754-0.63184,3.79199-2.16602,3.81738-5.88086c0.00879-0.98633,0.04883-1.97168,0.08984-2.95898
		c0.03516-0.88379,0.07227-1.76855,0.08691-2.6543c0.12109-7.30957,2.44531-13.35449,7.10742-18.48047
		c0.80957-0.8916,1.59766-1.80664,2.38477-2.71973c0.52734-0.61328,1.05469-1.22559,1.58984-1.83301l1.39355-1.57813
		c2.25586-2.55859,4.51172-5.11719,6.79688-7.6543c2.83398-3.15527,3.67188-6.66113,2.49023-10.42578
		c-0.28809-0.91699-0.50781-1.88477-0.74121-2.9082c-0.12988-0.57617-0.26074-1.15234-0.4043-1.72168
		c-2.72754-10.87305-1.92383-21.03809,2.38965-30.21289c2.02246-4.29688,4.76367-8.37988,7.63086-12.5332
		c5.54102-8.02246,5.3877-10.66211-1.02832-17.65625C917.68164,560.35254,916.40234,555.77051,917.39063,550.29199z
		 M93.46924,477.54688c-1.7793,9.33301-2.77637,18.75879-3.26709,28.23926c-0.40186,7.78418-0.64453,15.58008-1.22705,23.34961
		c-0.20068,2.66504-0.45557,5.32617-0.73145,7.98438c-0.80957-2.3125-1.64795-4.62305-2.5542-6.89844
		c-4.17432-10.46973-5.29834-20.48438-3.43799-30.62012c0.3042-1.65625,0.50244-3.31641,0.69482-4.92285
		c0.1875-1.5625,0.36475-3.03906,0.62891-4.50195c1.06934-5.88965,3.30859-11.78027,7.04639-18.53516
		c1.02197-1.84766,2.40527-3.46387,4.19141-4.90527C94.625,470.35156,94.15479,473.95605,93.46924,477.54688z M917.82813,578.87109
		c-3.00098,4.34766-5.87793,8.63574-8.07617,13.30762c-4.86133,10.33789-5.78418,21.72266-2.74316,33.8418
		c0.13281,0.53027,0.25488,1.06738,0.37695,1.60254c0.24609,1.08496,0.50195,2.20703,0.85547,3.33301
		c0.59766,1.90625,0.19434,3.45313-1.34766,5.16992c-2.29395,2.5498-4.56348,5.12109-6.83203,7.69336l-1.39063,1.57617
		c-0.54883,0.62402-1.0918,1.25391-1.63477,1.88379c-0.75586,0.87793-1.51172,1.75586-2.28711,2.61133
		c-5.51172,6.05859-8.37793,13.47363-8.51953,22.04004c-0.01367,0.84082-0.0498,1.68262-0.08301,2.52441
		c-0.04297,1.04492-0.08594,2.08984-0.09375,3.13867c-0.00488,0.54004-0.08691,0.73438-0.08105,0.74121
		c-0.01367,0.00781-0.05859,0.03711-0.15625,0.07324c-1.48242,0.54102-4.77734,2.33301-3.39648,7.27344
		c0.6123,2.18945,1.20996,4.50098,1.8291,7.06348c0.59766,2.4834,0.55176,4.73242-0.14258,6.88184
		c-0.31543,0.98242-0.62793,1.47949-0.92676,1.48047c-0.19238,0-0.63184-0.04785-1.42285-0.36328
		c-0.8584-0.3418-1.72949-0.84863-2.64941-1.38672c-0.58203-0.33789-1.16406-0.67676-1.75977-0.98926
		c-1.43262-0.74902-2.96582-1.54004-4.5791-2.26172c-0.73047-0.32617-1.44824-0.4541-2.02441-0.55762
		c-0.18945-0.03418-0.38281-0.06836-0.57715-0.11133l-1.70703-0.39063l-1.06738,1.38281
		c-2.39941,3.1084-5.80664,4.51172-11.04199,4.54883l-0.25879,0.00195c-2.97656,0-5.94434-0.3291-9.08691-0.67773l-1.96875-0.21484
		c-5.08008-0.53711-9.9873-2.64648-15.00293-6.44629c-7.84961-5.94434-15.10352-13.20215-22.18066-22.18848
		c-1.89258-2.40137-3.38184-5.15723-4.95898-8.07422c-0.55469-1.02441-1.1084-2.04883-1.67969-3.05664
		c-1.88574-3.33301-4.31055-7.03809-9.22559-8.79492l-1.40918-0.50391l-1.18555,0.91211
		c-0.22852,0.17578-0.4668,0.35156-0.70898,0.52832c-0.58789,0.43066-1.25488,0.91895-1.88574,1.49609
		c-7.46387,6.79883-16.00781,11.2041-25.39453,13.09082c-7.37695,1.48438-14.44043,4.5498-20.99414,9.10938
		c-12.83008,8.9209-27.17969,16.30957-39.83887,22.83105c-12.94824,6.66797-27.16602,11.40137-39.70996,15.57813
		c-8.93066,2.97266-18.62793,4.93945-30.51758,6.18848c-4.36523,0.45996-8.72754,0.95117-13.09082,1.44141
		c-7.22559,0.81348-14.69531,1.65234-22.04395,2.33301c-6.95996,0.64648-13.89453,1.00293-20.60645,1.05957
		c-11.47949,0.09082-23.1543,0.11914-34.44629,0.14648c-13.31348,0.03125-27.08008,0.06445-40.625,0.20313
		c-12.92383,0.13281-26.49609,0.53418-41.48926,1.23145c-5.79395,0.26855-11.84619,0.40625-17.98828,0.40625
		c-8.97168,0-18.26758-0.28027-28.4209-0.85352c-9.26172-0.52344-18.67432-0.80371-27.77637-1.0752
		c-4.90771-0.14648-9.81445-0.29297-14.71973-0.47559c-1.52051-0.05859-3.02588-0.18457-4.62061-0.31836
		c-1.7168-0.14355-3.4917-0.29395-5.27539-0.34668c-5.97412-0.17676-11.84717-0.26758-17.45752-0.26758h-0.29883
		c-4.71582,0.00195-9.43115,0.04004-14.14697,0.07715c-6.604,0.05273-13.20459,0.10547-19.81055,0.06055
		c-11.36279-0.07422-23.37061-0.29102-35.68848-0.64648c-2.66406-0.07617-5.30566-0.3916-8.10254-0.72461
		c-1.33838-0.15918-2.67627-0.31836-4.01758-0.4502c-0.46289-0.04492-0.9292-0.07227-1.39502-0.09863l-2.70654-0.17773
		l-1.72852,4.92871l2.21533,1.05859c0.84717,0.40527,1.68652,0.83203,2.5249,1.26074c1.979,1.00977,4.02393,2.05371,6.22217,2.83008
		c3.35254,1.18262,5.8916,3.52441,8.41016,6.02148c0.4209,0.41992,0.50195,0.69629,0.45117,0.97559
		c-0.05615,0.00098-0.12109,0.00195-0.19629,0.00195l-1.84229-0.04199c-1.28857-0.03613-2.56592-0.07422-3.86426-0.02148
		c-1.22021,0.05078-2.43945,0.14355-3.65918,0.2373c-1.38867,0.10645-2.70166,0.20605-4.02588,0.24609l-4.04883,0.13184
		c-4.86865,0.16211-9.90381,0.33203-14.83154,0.33203l-1.51514-0.00586c-4.16553-0.03027-8.4082-0.47949-12.75244-0.97754
		c-3.3833-0.38574-6.10449-0.89063-8.56592-1.58984c-5.14941-1.45703-10.73242-3.20215-17.06885-5.33691
		c-3.70557-1.24707-7.62451-2.60742-11.21582-4.3125c-4.03564-1.91602-8.20215-4.17969-13.11279-7.12402
		c-1.72461-1.03223-3.43164-2.45313-5.07275-4.2207c-2.34814-2.5332-2.46582-4.50977-0.4458-7.55762
		c0.71533-1.08203,1.51367-2.15332,2.28662-3.18945c0.3623-0.48633,0.71875-0.96289,1.06055-1.43359l0.9292-1.27832l-0.65186-1.4375
		c-0.66357-1.46289-1.31104-2.86621-1.94141-4.2334c-1.28955-2.79688-2.50781-5.43945-3.63721-8.09473
		c-3.03223-7.13281-7.04346-12.90234-12.26172-17.63477c-4.00244-3.63281-7.43164-7.94238-10.19385-12.80566
		c-3.66992-6.45996-7.36816-12.9043-11.06592-19.34961l-4.18604-7.29688c-1.23633-2.15527-2.48633-4.30469-3.73438-6.4541
		c-2.54346-4.37598-5.17334-8.89941-7.64111-13.39551c-5.13867-9.36133-10.77588-19.9707-15.92725-31.12988
		c6.09814-0.31738,12.19482-0.7334,18.28809-1.15137c4.74805-0.32617,9.48291-0.91211,14.23535-1.12695
		c11.54053-0.52148,23.08154-0.6875,34.62109,0.21484c5.91992,0.46289,11.83838,0.92188,17.6582,2.13965
		c4.65381,0.97363,9.25195,2.22168,13.91016,3.17871c6.75195,1.38281,13.54346,1.36621,20.11719-0.77539
		c8.48145-2.76172,17.08838-5.17871,25.31201-8.70508c1.34766-0.57715,2.1709-1.38477,2.38916-2.79004
		c0.18848-1.21777,0.31934-2.44629,0.46826-3.66992c0.66699-5.54395,1.26563-11.09668,2.01221-16.63184
		c0.65723-4.88281,2.52734-9.22461,6.01514-12.84766c1.29785-1.35059,2.39648-2.92188,3.41064-4.50391
		c0.57617-0.89844,1.03076-2.00293,1.13525-3.05469c0.37549-3.83398-0.10889-7.52832-2.36719-10.81445
		c-2.02686-2.94922-4.03174-5.91211-6.08936-8.83887c-1.92529-2.7373-1.90137-2.6543-4.62939-0.66406
		c-3.36475,2.45605-6.77979,4.84766-10.25342,7.14355c-1.27197,0.83984-2.78076,1.3252-4.18018,1.97168
		c-0.15771-0.12305-0.31641-0.24707-0.4751-0.37207c0.2334-2.37891,0.31982-4.78613,0.72412-7.13672
		c0.59668-3.46484,0.89063-6.94043,1.01221-10.43164c3.39697,0.65137,6.86621,0.94922,10.39795,0.88281
		c3.94092-0.0752,7.88281-0.12988,11.82471-0.18555c8.66406-0.12109,17.62256-0.24805,26.44043-0.57715
		c4.30371-0.15918,8.63184-0.55469,12.81738-0.93652c3.90625-0.35645,7.94629-0.72461,11.89258-0.89258
		c15.8335-0.66992,32.20605-1.36133,48.71484-1.46387l0.61963-0.00098c6.05322,0,12.271,0.53418,18.28369,1.05273
		c2.57275,0.2207,5.146,0.44141,7.71777,0.62598c25.13037,1.79004,48.82373,9.02441,68.68506,15.86328
		c12.5625,4.3252,25.14453,9.27734,37.3125,14.06543c6.56445,2.58203,13.35254,5.25195,20.06836,7.7998
		c12.03516,4.56152,24.49121,8.64355,35.22168,12.1123c14.18848,4.58398,29.01172,5.82031,42.91699,6.4707
		c5.09961,0.23926,10.44336,0.50781,15.94336,0.84766c-0.35938,5.15039-0.84375,10.29199-1.11035,15.44531
		c-0.2832,5.44922-0.3291,10.91211-0.47852,16.36914c0.0459,0.00195,0.0918,0.00195,0.13867,0.00195
		c-0.14063,5.71875-0.29004,11.43652-0.41699,17.1543c-0.05078,2.29688,0.19629,2.65332,2.52637,3.10156
		c1.91602,0.36914,3.85938,0.61816,5.80273,0.8418c11.01563,1.25098,22.03809,2.4043,33.13477,2.72754
		c12.86914,0.375,25.69141-0.41895,38.51465-1.37109c7.3457-0.54688,14.69727-1.0918,22.05664-1.41992
		c9.46875-0.42285,18.91113,0.03906,28.29785,1.45996c6.3916,0.9668,12.80957,1.61719,19.2959,1.36914
		c3.31055-0.125,3.875-0.53418,4.56738-3.78516c0.05566-0.25488,0.09668-0.50977,0.12695-0.76953
		c0.59961-5.03027,1.2041-10.06055,1.7832-15.09375c0.06543-0.57227-0.03516-1.16504-0.04199-1.74805
		c-0.00781-0.63574-0.09277-1.29102,0.01953-1.90332c0.33691-1.8291,0.67969-3.65723,1.02148-5.48535
		c7.92871,1.8916,15.77051,3.52734,23.91504,3.30664c3.45605-0.09082,6.33105-0.98242,9.04688-2.80469
		c5.57715-3.73828,10.60254-8.0625,14.93555-12.85156c7.09863-7.84863,15.30859-14.74609,22.55273-20.83203
		c4.08789-3.43359,9.02734-6.25586,15.10254-8.62305c4.82129-1.87793,9.64453-3.93262,14.30664-5.91992
		c3.2334-1.37891,6.57715-2.80371,9.87598-4.14941l0.93652-0.38281c5.44727-2.22168,11.0791-4.51855,16.7002-6.40918
		c6.57129-2.21191,13.60352-2.14844,20.90527,0.18945c1.30859,0.41602,2.47852,0.89453,3.47852,1.41699
		c3.36426,1.76855,4.00293,3.16699,3.10547,6.80957c-0.28906,1.17676-0.75,2.36328-1.23926,3.61914
		c-0.31738,0.81641-0.63281,1.63281-0.91113,2.45898c-0.23828,0.70117-0.49121,1.39941-0.74512,2.09766
		c-0.73047,2.01465-1.4873,4.09766-1.88965,6.3252c-1.29199,7.15918,0.47461,13.43164,5.25195,18.63965
		C921.88281,573,921.88281,573,917.82813,578.87109z"/>
	<path style="fill:#7D97AF;" d="M1803.40918,550.29199c0.32227-1.77441,0.9668-3.55371,1.65137-5.43848
		c0.26758-0.73828,0.53516-1.47559,0.78516-2.2168c0.25293-0.74805,0.54102-1.4873,0.82813-2.22559
		c0.5293-1.3623,1.07813-2.77246,1.4502-4.28906c1.50391-6.10449-0.24902-9.96777-5.86621-12.91797
		c-1.29883-0.68164-2.72559-1.26465-4.35449-1.78516c-8.41113-2.69043-16.65039-2.74316-24.32324-0.16211
		c-5.7832,1.94434-11.49707,4.27441-17.02148,6.52832l-0.9375,0.38281c-3.33789,1.36328-6.70215,2.79688-9.9541,4.18164
		c-4.62402,1.9707-9.40527,4.00879-14.14746,5.85547c-6.6416,2.58984-12.08301,5.70703-16.63477,9.53125
		c-8.91797,7.49219-16.28125,13.82227-23.08887,21.34863c-4.03418,4.45996-8.71973,8.49023-13.92773,11.98145
		c-1.8418,1.23633-3.73633,1.81641-6.14258,1.87891c-7.82422,0.19727-15.50684-1.47461-23.37402-3.36719
		c-2.89551-0.69531-5.7832-1.43652-8.67188-2.17969c-7.33008-1.88086-14.9082-3.82813-22.54785-4.9873
		c-7.32031-1.11133-14.71191-2.59473-21.86035-4.03027c-3.95703-0.79492-8.04883-1.61621-12.0957-2.36914
		c-4.92773-0.91504-9.85156-1.85547-14.77441-2.79688c-10.54102-2.01367-21.44238-4.09766-32.22266-5.88867
		c-20.52734-3.41211-41.29492-4.58984-59.14648-5.42383c-13.52539-0.63574-27.91309-1.82617-41.48828-6.21484
		c-10.66699-3.44629-23.0459-7.50293-34.96387-12.02148c-6.68457-2.53418-13.45605-5.19727-20.00488-7.77539
		c-12.22168-4.80859-24.85938-9.78027-37.53418-14.14453c-20.19727-6.95605-44.31836-14.31445-70.08008-16.15039
		c-2.5459-0.18164-5.0918-0.40039-7.6377-0.61914c-6.12793-0.52734-12.46582-1.07324-18.75391-1.07324l-0.65332,0.00293
		c-16.6084,0.10156-33.03027,0.79492-48.91309,1.4668c-4.08105,0.17383-8.1875,0.54883-12.15918,0.91016
		c-4.11328,0.37695-8.36719,0.76563-12.52246,0.91992c-8.75586,0.32617-17.68262,0.45117-26.31445,0.57227
		c-3.9502,0.05664-7.90039,0.11133-11.85059,0.18555c-6.14746,0.12402-12.19043-1.01367-17.88379-3.36523
		c-1.67578-0.69238-3.47363-1.3877-5.40918-1.63086c-2.10645-0.2627-3.2207-0.96777-3.97852-2.51367
		c-0.7002-1.43164-1.78516-2.60352-2.5752-3.45801c-2.02051-2.18652-4.03906-4.37793-6.05664-6.56836
		c-6.56934-7.13184-13.3623-14.50684-20.16309-21.65918c-4.04395-4.25391-9.28027-7.19531-16.48242-9.25684
		c-13.07617-3.7373-26.16895-4.26074-36.11523-4.29785l-0.30566-0.00098c-7.42969,0-13.89746,0.99316-19.77246,3.03613
		c-9.3457,3.25-18.06836,7.53223-25.92871,12.72852c-3.37793,2.23438-5.87402,4.86523-7.62988,8.04102
		c-4.03223,7.28906-6.45898,13.70508-7.6377,20.19531c-0.29395,1.62305-0.48926,3.25-0.67773,4.82422
		c-0.18945,1.59375-0.37012,3.09766-0.64453,4.58789c-2.0498,11.16895-0.82813,22.16113,3.73438,33.60547
		c2.07227,5.20508,3.85645,10.66992,5.58301,15.95703c0.78711,2.41211,1.57422,4.8252,2.39063,7.22656
		c0.47656,1.39844,0.93359,2.80566,1.3916,4.21094c0.9873,3.03711,2.00781,6.17871,3.21289,9.2334
		c6.5957,16.70801,15.06152,32.76465,22.47266,46.26758c2.50098,4.55371,5.14648,9.1084,7.70605,13.51074
		c1.24414,2.14063,2.48828,4.28223,3.71973,6.42871l4.18555,7.29785c3.69629,6.43848,7.38965,12.87402,11.05566,19.32715
		c3.0459,5.36719,6.83789,10.12695,11.26953,14.14941c4.62305,4.19336,8.19141,9.33984,10.90918,15.73633
		c1.16211,2.72852,2.39648,5.40625,3.70313,8.24219c0.41602,0.90039,0.83789,1.81543,1.26855,2.75488
		c-0.0293,0.03809-0.05762,0.0752-0.08496,0.11328c-0.81836,1.09668-1.66309,2.23047-2.46289,3.43848
		c-3.37793,5.09766-3.04297,9.88965,0.99512,14.24512c1.99316,2.14648,4.10254,3.89258,6.26855,5.19043
		c5.06445,3.03613,9.37891,5.37891,13.57715,7.37207c3.86328,1.83496,7.95801,3.25781,11.81836,4.55566
		c6.4209,2.16406,12.08789,3.93555,17.32324,5.41797c2.75391,0.78027,5.75293,1.34082,9.43848,1.76074
		c4.49609,0.51563,8.89941,0.98047,13.33594,1.0127c0.51758,0.00391,1.03613,0.00488,1.55371,0.00488
		c5.01953,0,10.10156-0.16992,15.01563-0.33398l4.03223-0.13086c1.44824-0.04395,2.88672-0.15332,4.27734-0.26074
		c1.15723-0.08789,2.31348-0.17676,3.46582-0.22559c1.15723-0.04297,2.31836-0.00977,3.47754,0.02344
		c0.43652,0.01367,0.87402,0.02637,1.40137,0.03809c0.2002,0.00391,0.40234,0.00879,0.60254,0.00879
		c2.62988,0,4.37988-1.06836,5.19727-3.1748c0.9834-2.52734,0.40137-5.11426-1.59668-7.09668
		c-1.92969-1.91699-3.99805-3.85938-6.49609-5.40137c0.35254,0.01855,0.70703,0.03223,1.06055,0.04199
		c12.35742,0.35645,24.40625,0.5752,35.81055,0.64941c6.62598,0.04395,13.25879-0.00781,19.88965-0.06055
		c4.70215-0.03711,9.4043-0.0752,14.10547-0.07715h0.29688c5.55566,0,11.37402,0.08887,17.29395,0.26563
		c1.63574,0.04785,3.25977,0.18457,4.98047,0.3291c1.58594,0.13379,3.22656,0.27148,4.87402,0.33301
		c4.91895,0.18359,9.83984,0.33105,14.76074,0.47754c9.06641,0.27148,18.44238,0.55176,27.63184,1.06934
		c10.25684,0.5791,19.6543,0.86133,28.72949,0.86133c6.22559,0,12.36328-0.13965,18.24219-0.41113
		c14.92773-0.69434,28.43457-1.09473,41.29199-1.22559c13.52246-0.13867,27.27832-0.17188,40.58203-0.2041
		c11.29883-0.02539,22.98145-0.05371,34.47656-0.14648c6.86719-0.05762,13.95605-0.4209,21.06836-1.08203
		c7.40234-0.68555,14.89941-1.52832,22.15137-2.34375c4.34961-0.48828,8.69922-0.97656,13.05176-1.4375
		c12.29297-1.29004,22.35938-3.33691,31.67578-6.43848c12.73145-4.23926,27.16211-9.04395,40.4873-15.90625
		c12.80957-6.59766,27.3291-14.07617,40.45801-23.20215c5.93457-4.12988,12.30957-6.90137,18.94629-8.2373
		c10.37305-2.08398,19.79297-6.93359,28.00098-14.41016c0.28125-0.25684,0.59766-0.50488,0.93262-0.75684
		c2.10059,1.14258,3.49219,3.04883,5.03809,5.77832c0.55273,0.97754,1.08984,1.9707,1.62695,2.96387
		c1.61621,2.99023,3.28906,6.08301,5.4707,8.85254c7.36816,9.35547,14.94727,16.93164,23.1709,23.16016
		c5.83301,4.41895,11.63281,6.88086,17.73242,7.52734l1.94336,0.21191c3.15234,0.34863,6.41211,0.70996,9.69043,0.70996
		l0.29785-0.00098c6.15625-0.0459,10.81543-1.79297,14.18359-5.33105c1.45801,0.65234,2.88965,1.39258,4.2334,2.0957
		c0.52051,0.27441,1.03125,0.57227,1.54102,0.87012c1.05371,0.61328,2.14258,1.24805,3.37793,1.74023
		c1.27051,0.50586,2.39941,0.75195,3.4541,0.75195c2.02344,0,4.72754-0.91211,6.12793-5.25488
		c0.99512-3.08105,1.08008-6.38477,0.25293-9.81836c-0.63379-2.62695-1.24902-4.99902-1.87793-7.25098
		c-0.08887-0.31348-0.12012-0.52051-0.13086-0.64844c0.03906-0.01758,0.08789-0.03711,0.14648-0.05859
		c1.72754-0.63184,3.79199-2.16602,3.81738-5.88086c0.00879-0.98633,0.04883-1.97168,0.08984-2.95898
		c0.03516-0.88379,0.07227-1.76855,0.08691-2.6543c0.12109-7.30957,2.44531-13.35449,7.10742-18.48047
		c0.80957-0.8916,1.59766-1.80664,2.38477-2.71973c0.52734-0.61328,1.05469-1.22559,1.58984-1.83301l1.39355-1.57813
		c2.25586-2.55859,4.51172-5.11719,6.79688-7.6543c2.83398-3.15527,3.67188-6.66113,2.49023-10.42578
		c-0.28809-0.91699-0.50781-1.88477-0.74121-2.9082c-0.12988-0.57617-0.26074-1.15234-0.4043-1.72168
		c-2.72754-10.87305-1.92383-21.03809,2.38965-30.21191c2.02246-4.29785,4.76367-8.38086,7.63086-12.5332
		c5.54102-8.02344,5.3877-10.66406-1.02832-17.65625C1803.7002,560.35156,1802.4209,555.77051,1803.40918,550.29199z
		 M1501.56641,591.46875c0.21777-5.08203,1.11133-10.0752,2.15332-15.03516c1.2041-5.72559,1.79785-11.5,2.09668-17.30664
		c6.49414,0.5459,13.11816,1.23242,19.76172,2.12109c-0.80957,7.13281-1.50391,14.2793-2.3584,21.40723
		c-0.32031,2.7002-0.90918,5.37402-1.49707,8.03223c-0.56152,2.54102-2.28418,3.70898-4.86719,4.04004
		c-2.11426,0.27148-4.17969,0.9209-6.25684,1.44336c-1.26465,0.31738-2.49512,0.75879-3.76074,1.05762
		c-0.68848,0.16113-1.42285,0.21289-2.13184,0.18652c-2.37207-0.09277-3.2998-1.07129-3.27832-3.41602
		C1501.43262,593.15625,1501.5166,592.3125,1501.56641,591.46875z M1058.21973,454.22363
		c0.49609,0.50684,0.98828,1.01855,1.49512,1.51563c0.6377,0.62402,1.35449,1.24512,2.15039,1.61816
		c3.16699,1.4834,6.45605,2.55859,9.91406,3.01953c0.83301,0.66602,1.62012,1.36816,2.34375,2.12891
		c6.77148,7.12305,13.5498,14.48047,20.10547,21.59668c2.01855,2.19238,4.03809,4.38574,6.06152,6.5752
		c0.59473,0.64355,1.33496,1.44336,1.68457,2.15625c1.5791,3.22754,4.26367,5.03613,8.20801,5.5293
		c1.26172,0.16016,2.6123,0.68555,3.99805,1.25781c0.55176,0.22754,1.11035,0.43164,1.66797,0.63867
		c-0.47949,7.73926-0.23047,15.59473,0.17578,25.16895c0,7.23828,0.00098,16.46387-0.00391,25.68848
		c0,0.45313-0.03613,0.91016-0.08984,1.36035c-0.14941,1.20215-0.42188,2.31152-1.83398,2.68848
		c-1.43945,0.38867-2.99512-0.02539-3.84766-1.2207c-0.52441-0.73438-0.9375-1.56055-1.30566-2.38965
		c-2.13672-4.80957-4.1709-9.66504-6.38184-14.43848c-1.99512-4.30469-4.18066-8.5166-5.60742-13.05957
		c-0.64258-2.04785-1.89453-3.51855-4.03516-4.1377c-2.30469-0.66797-4.57031-1.51074-6.91016-2.01172
		c-3.1377-0.67188-5.70215-2.01563-7.55762-4.72559c-2.11133-3.08301-4.05371-6.2041-4.6123-9.9873
		c-0.26758-1.80469-1.17676-3.30371-2.44629-4.56641c-1.28906-1.28223-2.64258-2.50586-3.99902-3.72168
		c-0.9668-0.86816-1.97754-1.69238-2.98145-2.52246c-2.47559-2.04492-4.17676-4.61035-5.23047-7.625
		c-0.38379-1.10352-0.83105-2.18555-1.21484-3.28906c-0.51855-1.49414-1.24707-2.84473-2.38574-3.97559
		c-1.1875-1.17773-1.89258-2.63574-2.25684-4.25195c-1.5752-6.99805-3.14258-13.99707-4.68848-21.00293
		C1051.99316,452.7627,1055.16113,453.4209,1058.21973,454.22363z M1082.16797,569.23047
		c-2.5957,0.66992-5.25781,0.92285-7.38477,0.80859c-1.86328-0.16309-3.16895-0.23242-4.46094-0.39844
		c-2.28906-0.29199-3.65039-1.61816-4.03711-3.87012c-0.37402-2.17578-0.63281-4.37012-1.00977-6.5459
		c-1.28418-7.42188-2.64063-14.83203-3.88672-22.25977c-1.08398-6.4668-2.06348-12.9502-3.05957-19.43164
		c-0.11914-0.76172-0.13379-1.5625-0.04785-2.33008c0.13965-1.24902,0.98438-1.86523,2.20117-1.53125
		c0.86328,0.2373,1.70117,0.66406,2.46875,1.1377c2.43457,1.51074,4.82422,3.09277,7.24121,4.63086
		c1.45703,0.9248,2.4541,2.20215,2.66797,3.89941c0.36719,2.93164,1.49414,5.63281,2.29785,8.43555
		c1.57129,5.49121,2.90723,11.05078,4.4375,16.55469c1.21582,4.375,2.5625,8.71875,3.87012,13.07031
		c0.35254,1.18066,0.80859,2.33203,1.14648,3.51953C1085.32422,567.42969,1084.72559,568.56836,1082.16797,569.23047z
		 M979.4873,477.26953c-1.7793,9.33398-2.77637,18.75781-3.2666,28.24023c-0.40234,7.7832-0.64453,15.5791-1.22754,23.34961
		c-0.20605,2.73438-0.46875,5.4668-0.75391,8.19727c-0.80273-2.29199-1.63379-4.58105-2.53125-6.83496
		c-4.1748-10.46973-5.29883-20.48535-3.43848-30.62012c0.30469-1.65625,0.50293-3.31641,0.69531-4.92285
		c0.1875-1.56348,0.36426-3.04004,0.62891-4.50098c1.06934-5.89063,3.30859-11.78125,7.0459-18.53711
		c1.01758-1.83984,2.39355-3.4502,4.16895-4.88672C980.61133,470.27051,980.1543,473.77539,979.4873,477.26953z
		 M991.60156,553.91211c-2.39941,0.02637-3.05859-0.49805-3.10547-2.94141c-0.04883-2.33105,0.03027-4.67969,0.26953-6.99805
		c0.13672-1.32422-0.25098-2.19922-1.17383-3.06836c-1.08691-1.02441-2.08203-2.15234-3.05762-3.28711
		c-1.3291-1.54297-1.91504-3.31641-1.75684-5.39648c0.56543-7.44531,1.05078-14.89844,1.58594-22.3457
		c0.24512-3.375,1.21973-6.4043,3.50781-9.08984c1.62598-1.9082,2.77734-4.23242,4.02148-6.43555
		c0.35645-0.63086,0.3916-1.49023,0.41309-2.25c0.13086-4.80469,0.08203-9.62012,0.36914-14.41602
		c0.17285-2.90039,0.75488-5.78711,1.30957-8.65234c0.49609-2.55273,1.78027-4.76172,3.76758-6.46289
		c2.17676-1.85742,4.36621-3.72559,6.70117-5.37012c1.92188-1.34961,3.61523-2.88672,5.14844-4.5625
		c4.66113-1.3291,9.78516-1.98438,15.58496-1.98438h0.28516c4.96094,0.01855,9.48242,0.1875,13.68945,0.51172
		c-0.1377,6.64941-0.24316,13.29785-0.36133,19.94629c-0.06934,0-0.14063-0.00195-0.21191-0.00391
		c-0.17383,8.64063-0.36035,17.2793-0.51172,25.91895c-0.03906,2.2666-0.62793,4.35156-1.71973,6.32227
		c-0.81836,1.47754-1.63574,2.95898-2.39063,4.46973c-1.16992,2.3418-1.92383,4.80469-2.24805,7.41992
		c-0.24707,1.99414-0.71973,3.95996-1.05566,5.94531c-0.26172,1.54004-1.0293,2.75195-2.14258,3.83789
		c-2.19043,2.13281-4.34961,4.30273-6.45996,6.51563c-2.62012,2.74707-4.84863,5.79297-6.48633,9.22266
		c-1.54688,3.24219-3.56738,6.18262-5.6084,9.11816c-1.0166,1.46191-2.42676,2.33496-4.16211,2.68164
		c-0.76758,0.1543-1.54199,0.29395-2.31934,0.36523c-3.56738,0.32715-7.13965,0.63281-10.71094,0.93945
		C992.38379,553.89551,991.99121,553.90918,991.60156,553.91211z M1614.31934,673.93555
		c-2.0127,0.6748-4.14941,1.22168-6.30762,1.58691c-16.24512,2.74512-32.76074,4.12988-49.36133,5.01367
		c-12.39453,0.66016-24.80859,1.2041-37.22461,1.66211c-15.54004,0.5752-31.08789,1.10645-46.6416,1.4834
		c-22.81836,0.55273-45.61426-0.05664-68.41113-0.80566c-10.48145-0.34668-20.96777-0.64648-31.45508-0.84473
		c0.58594-1.76758,0.85059-3.58789,0.55566-5.50098c-0.34082-2.22266-0.59766-4.45605-0.70117-6.70605
		c-0.01563-0.34082-0.05469-0.68457-0.09082-1.1377c0.17871,0.15234,0.27246,0.22559,0.3623,0.30762
		c0.44336,0.41895,0.90137,0.82324,1.32324,1.26465c0.61133,0.63965,1.21289,1.29004,1.78418,1.96582
		c0.70605,0.83301,0.82227,1.8125,0.66699,2.86719c-0.10547,0.72656-0.15039,1.46387-0.1748,2.19922
		c-0.01953,0.55859,0.12891,1.09668,0.4082,1.59082c0.25488,0.4502,0.61328,0.7334,1.16602,0.68164
		c0.35156-0.03223,0.64453,0.09277,0.93164,0.28906c0.25684,0.17578,0.53516,0.33496,0.82617,0.44043
		c0.65527,0.23926,1.2666,0.06348,1.5625-0.55859c0.35254-0.74316,1.04199-1.19141,1.46973-1.86035
		c0.0918-0.14648,0.32813-0.25,0.51367-0.27441c0.46484-0.06641,0.71875-0.34473,0.9082-0.72754
		c0.2998-0.60156,0.45508-1.24512,0.53027-1.90918c0.18164-1.60938,0.09277-3.19824-0.33496-4.76953
		c-0.2959-1.08203-0.56543-2.17578-0.7959-3.27441c-0.14746-0.70215-0.18848-1.42383-0.30957-2.13184
		c-0.0625-0.36035-0.15723-0.72363-0.30176-1.06055c-0.77832-1.80176-1.71875-3.50977-2.97266-5.03516
		c-0.5791-0.70313-1.27148-1.22559-2.12988-1.54102c-0.90137-0.33203-1.80371-0.66211-2.69141-1.03027
		c-0.56152-0.23242-1.09473-0.53125-1.63379-0.80859c-0.30762-0.1582-0.4043-0.4082-0.43164-0.7627
		c-0.12012-1.46973,0.21289-2.85645,0.68457-4.22656c0.45508-1.32422,0.97559-2.63086,1.35059-3.97852
		c0.74219-2.66504,1.33105-5.375,1.49023-8.14355c0.1875-3.26855-0.1875-6.47949-1.35645-9.56836
		c-0.06641-0.17188-0.13477-0.34473-0.18555-0.51953c-0.7998-2.67871-2.46387-4.74023-4.70215-6.33398
		c-2.41016-1.71387-5.0166-3.07227-7.93359-3.72266c-3.36621-0.75195-6.77441-1.24512-10.23438-1.17383
		c-2.92578,0.05957-5.85352,0.11719-8.77148,0.31641c-3.74609,0.25684-7.48828,0.61914-11.22656,1.00195
		c-2.37402,0.24512-4.73926,0.57715-7.0332,1.28027c-0.31738,0.0957-0.63867,0.19238-0.94629,0.3125
		c-2.38184,0.93848-4.85059,1.58691-7.33496,2.16895c-1.25781,0.2959-2.54492,0.46484-3.82129,0.6875
		c-1.0332,0.18164-2.06836,0.08789-3.09961-0.01563c-2.39551-0.23828-4.78711-0.51074-7.18457-0.71582
		c-3.33301-0.28418-6.46973,0.43945-9.44336,1.93652c-1.70801,0.86035-3.28418,1.9209-4.85938,2.99219
		c-4.66406,3.16992-9.33887,6.32324-14.01855,9.46777c-2.07813,1.39844-4.05371,2.9082-5.80859,4.7041
		c-1.17383,1.2002-2.38574,2.36914-3.60449,3.52734c-0.5332,0.50781-1.12207,0.95898-1.7041,1.45117
		c-0.64258-0.33008-1.1875-0.64648-1.76367-0.89063c-0.43652-0.18848-0.90332-0.34961-1.37012-0.40527
		c-0.69922-0.07617-1.11523,0.33105-1.12695,1.0498c-0.0166,0.77832,0.0752,1.5498,0.41113,2.2666
		c0.20996,0.45215,0.44043,0.89258,0.69336,1.40039c-0.12793,0.23242-0.2627,0.51172-0.42773,0.77148
		c-0.66895,1.0625-1.36523,2.10645-2.01563,3.17969c-0.51465,0.85156-0.96191,1.74414-1.46582,2.60156
		c-0.52539,0.8916-0.60938,1.84668-0.45313,2.83398c0.17773,1.125,0.03809,2.19043-0.38965,3.24902
		c-0.59863,1.48633-1.15332,2.99219-1.69531,4.50098c-0.17969,0.5-0.28418,1.0293-0.39844,1.55078
		c-0.09766,0.45703-0.23047,0.875-0.52148,1.25879c-0.35059,0.46387-0.30371,1.01367-0.11719,1.53418
		c0.12207,0.34473,0.41016,0.5332,0.78027,0.52051c0.3584-0.0127,0.62793,0.13574,0.89453,0.35742
		c0.57227,0.47949,1.25098,0.65137,1.97754,0.5c0.47559-0.09668,0.92285-0.05469,1.36133,0.09668
		c0.75293,0.26172,1.45703,0.15234,2.1416-0.2041c0.92188-0.48242,1.76074-1.08887,2.51563-1.80371
		c0.64453-0.60938,1.28516-1.22266,1.93359-1.82617c0.1748-0.16406,0.35547-0.33789,0.56738-0.44141
		c0.29004-0.14453,0.60352-0.25098,0.9209-0.33105c0.48242-0.11914,0.98926-0.1543,1.45703-0.31055
		c0.50391-0.16699,1.00195-0.22852,1.52539-0.20117c0.48047,0.02344,0.96289,0.0332,1.44141,0.02344
		c0.52148-0.0127,1.00391-0.19238,1.35254-0.56543c0.70996-0.76172,1.61035-1.10059,2.59375-1.25293
		c0.7998-0.125,1.47754-0.41016,2.01465-1.04395c0.18652-0.21875,0.5293-0.31445,0.80371-0.45898
		c0.37012-0.19922,0.80859-0.32324,1.10645-0.59766c0.85938-0.79297,1.87402-1.30078,2.91113-1.79883
		c1.03223-0.49512,2.04688-1.03125,3.06055-1.56445c0.86719-0.45703,1.56641-1.10547,2.13672-1.89746
		c0.12109-0.16309,0.24805-0.32031,0.40918-0.52832c0.04297,0.10156,0.08496,0.16113,0.08496,0.21875
		c-0.0127,1.56445-0.00684,3.13379-0.06055,4.69824c-0.04492,1.33496-0.3418,2.62988-0.84375,3.87305
		c-0.93164,2.30664-1.80664,4.6416-2.82324,6.91113c-0.97168,2.17285-2.21094,4.2168-3.52832,6.20215
		c-1.06738,1.61133-2.47559,2.82324-4.33301,3.47461c-1.08105,0.37695-2.20703,0.47656-3.33203,0.53711
		c-1.21875,0.06445-2.44629,0.02148-3.66504,0.06152c-1.62012,0.05469-3.08301,0.56543-4.35547,1.58301
		c-0.35156,0.28223-0.66406,0.59082-0.83887,1.01074c-0.23926,0.56543,0.00098,0.96289,0.60156,0.97363
		c0.19824,0.00684,0.35645,0.0332,0.48145,0.20117c0.35645,0.47656,0.85156,0.57129,1.38965,0.44141
		c0.31348-0.0752,0.58105-0.02344,0.85449,0.10938c0.64551,0.31836,1.33398,0.41504,2.04785,0.41113
		c1.01953-0.00586,2.03906-0.0166,3.05566,0.00586c0.88867,0.0166,1.77441,0.09668,2.66211,0.1084
		c0.3623,0.00488,0.72461-0.00977,1.08691-0.02832c-7.81641,3.62109-16.17578,8.00098-16.18066,8.00293
		c-0.91602,0.18555-1.83984,0.35742-2.77148,0.51172c-0.99414,0.16406-1.99805,0.30859-3.01172,0.43066
		c-0.17578,0.02051-0.35352,0.0459-0.52441,0.08594c-3.40039,0.79785-4.15039,2.4043-1.79883,4.40332
		c1.37402,1.1709,3.05566,2.20508,4.81055,3.07422c5.40625,2.68164,11.44141,4.37695,17.90332,4.91016
		c8.34277,0.6875,16.72852,1.20898,25.11523,1.46387c10.72363,0.32227,21.46484,0.34766,32.20117,0.43359
		c13.98535,0.10742,27.82324,1.05762,41.5625,3.05078c9.80859,1.4209,19.67773,2.7998,29.61426,3.5459
		c11.9043,0.89746,23.89648,1.30273,35.87012,1.54785c16.98438,0.34766,33.98926,0.54883,50.9541-0.57617
		c9.34961-0.62207,18.69629-1.25977,28.05859-1.74219c7.125-0.36621,14.25488-0.77734,21.3877-1.04297
		c-7.20117,1.94336-15.04492,3.33496-24.19336,4.29492c-4.36523,0.45996-8.72754,0.95117-13.09082,1.44141
		c-7.22559,0.81348-14.69531,1.65234-22.04395,2.33301c-6.95996,0.64648-13.89453,1.00293-20.60645,1.05957
		c-11.47949,0.09082-23.1543,0.11914-34.44629,0.14648c-13.31348,0.03125-27.08008,0.06445-40.625,0.20313
		c-12.92383,0.13281-26.49609,0.53418-41.48926,1.23145c-5.79395,0.26855-11.84668,0.40625-17.98828,0.40625
		c-8.97168,0-18.26758-0.28027-28.4209-0.85352c-9.26172-0.52344-18.6748-0.80371-27.77637-1.0752
		c-4.9082-0.14648-9.81445-0.29297-14.71973-0.47559c-1.52051-0.05859-3.02637-0.18457-4.62109-0.31836
		c-1.7168-0.14355-3.49121-0.29395-5.27539-0.34668c-2.15625-0.0625-4.29297-0.1123-6.41504-0.15332
		c-0.06152-2.2002-1.85449-4.12891-5.43555-5.85547c-3.29395-1.59082-6.91895-2.64941-10.50098-3.4707
		c-8.87598-2.03809-17.20117-5.30371-25.11328-9.79883c-3.49707-1.98633-7.25195-3.64648-11.08008-4.87793
		c-9.91797-3.1875-19.86328-6.19824-29.02441-11.33398c-3.35645-1.88379-7.18555-2.44922-11.07422-2.50391
		c-11.24219-0.16113-21.51367,2.77148-30.64844,9.38867c-8.09473,5.85742-16.79199,10.62988-26.00977,14.49219
		c-2.45313,1.02734-4.85938,2.16797-7.28125,3.26563c-5.64551,2.54785-10.74805,5.83594-15.43262,9.69336
		c-1.34961-0.7666-2.74512-1.57813-4.21191-2.45898c-1.72461-1.03223-3.43164-2.45313-5.07324-4.2207
		c-2.34766-2.5332-2.46582-4.50977-0.44531-7.55762c0.71484-1.08203,1.51367-2.15332,2.28613-3.18945
		c0.3623-0.48633,0.71875-0.96289,1.06055-1.43359l0.92969-1.27832l-0.65234-1.4375
		c-0.66309-1.46289-1.31055-2.86621-1.94141-4.2334c-1.28906-2.79688-2.50781-5.43945-3.63672-8.09473
		c-3.03223-7.13281-7.04395-12.90234-12.26172-17.63477c-3.28418-2.97949-6.1748-6.42383-8.63477-10.24707
		c1.97559,0.17676,3.96875,0.08301,5.95605-0.33691c3.69629-0.78418,7.38574-1.62109,11.02539-2.62402
		c5.02148-1.38281,10.08789-2.00781,15.28613-1.50293c3.30859,0.32227,6.61914,0.6084,10.08594,0.92578
		c2.07324-0.18555,4.28809-0.29785,6.47754-0.60449c3.02832-0.42383,6.01758-1.21582,9.05469-1.45605
		c5.05273-0.39648,9.70117-1.93164,14.09082-4.31543c1.47461-0.80078,2.89746-1.78906,4.12305-2.92578
		c3.07715-2.8623,2.78809-5.06836-0.97363-6.88379c-1.85449-0.89551-3.89648-1.49121-5.91309-1.9541
		c-4.99902-1.14844-9.68848-2.98633-14.14453-5.51953c-1.96875-1.11816-4.08301-2.05273-6.23926-2.74609
		c-5.58496-1.79492-11.18555-3.49121-16.34668-6.38184c-1.88965-1.06152-4.0459-1.38086-6.23633-1.41211
		c-6.33105-0.08984-12.11621,1.56152-17.25977,5.28711c-4.55957,3.30078-9.45703,5.9873-14.64844,8.16309
		c-1.38086,0.57813-2.73633,1.2207-4.10156,1.83887c-0.84375,0.38184-1.66211,0.7959-2.46484,1.23535
		c-0.13281-0.23242-0.26465-0.46289-0.39648-0.69531l-4.18652-7.29688c-1.23633-2.15527-2.48633-4.30469-3.73438-6.4541
		c-2.54297-4.37598-5.17285-8.89941-7.64063-13.39551c-3.71484-6.76465-7.69336-14.17871-11.55957-21.98145
		c8.19727-0.30859,16.39258-0.62109,24.58984-0.79297c6.84961-0.14453,13.70703,0.00879,20.55664,0.14355
		c5.2832,0.10059,10.56641,0.34375,15.8457,0.58887c5.93066,0.27344,11.85449,0.83203,17.78613,0.88867
		c10.04785,0.09668,20.09961-0.08301,30.15039-0.18262c6.59863-0.06543,13.18555,0.04785,19.7168,1.0752
		c5.4707,0.86133,10.93555,1.77148,16.39551,2.70801c5.22266,0.89551,9.0459-1.95215,9.28223-6.97852
		c0.00879-0.19434,0-0.38965,0-0.58496c-0.0293,0.00293-0.05566,0.00488-0.08398,0.00586
		c-0.24414-3.75586-0.39844-7.51758-0.75586-11.2627c-0.2959-3.08984-1.23047-3.96973-4.35156-4.63281
		c-0.69922-0.14844-1.41504-0.25391-2.12695-0.29785c-1.56152-0.0957-3.125-0.17188-4.6875-0.25586
		c0.11133-0.84375,0.21191-1.68848,0.31445-2.5332c0.66699-5.54297,1.26563-11.09766,2.01172-16.63184
		c0.65723-4.88184,2.52734-9.22559,6.01563-12.84863c1.29785-1.34961,2.39648-2.91992,3.41016-4.50195
		c0.57617-0.90039,1.03125-2.00391,1.13574-3.05664c0.375-3.83301-0.10938-7.52734-2.36719-10.81348
		c-2.02734-2.9502-4.03223-5.91211-6.08984-8.83887c-1.9248-2.7373-1.90137-2.6543-4.62891-0.66406
		c-3.36523,2.45508-6.78027,4.84766-10.25391,7.14355c-1.27148,0.83887-2.78027,1.3252-4.17969,1.97168
		c-0.1582-0.12305-0.31641-0.24609-0.47559-0.37109c0.2334-2.37891,0.32031-4.78711,0.72461-7.1377
		c0.58008-3.37402,0.87695-6.75684,1.00586-10.15527c3.39746,0.65234,6.87012,0.94922,10.4043,0.88281
		c3.94043-0.07422,7.88281-0.12891,11.82422-0.18555c8.66406-0.12109,17.62305-0.24609,26.44043-0.57617
		c4.30371-0.1582,8.63184-0.55469,12.81738-0.93555c3.90625-0.35742,7.94629-0.72656,11.89258-0.89355
		c15.83398-0.66895,32.20605-1.3623,48.71484-1.46387l0.62012-0.00098c6.05273,0,12.27051,0.53418,18.2832,1.05176
		c2.57324,0.22168,5.14648,0.44336,7.71777,0.62695c25.13086,1.79102,48.82422,9.02344,68.68555,15.86328
		c12.5625,4.32617,25.14453,9.27734,37.3125,14.06445c6.56445,2.58203,13.35254,5.25391,20.06836,7.80078
		c12.03516,4.5625,24.49121,8.64355,35.22168,12.11133c14.18848,4.58496,29.01172,5.82031,42.91699,6.47266
		c5.09277,0.23828,10.42969,0.50684,15.92383,0.8457c-0.3584,5.05664-0.83008,10.10742-1.09082,15.16895
		c-0.2832,5.4502-0.3291,10.91113-0.47852,16.37012c0.0459,0.00098,0.0918,0.00195,0.13867,0.00195
		c-0.08496,3.42383-0.16699,6.84766-0.25,10.27148c-6.61523,0.6709-13.21973,1.41797-19.80176,2.23242
		c-8.64746,1.07227-17.08398,2.81445-24.95117,5.75977c-3.75879,1.40625-7.30664,3.02344-10.22656,5.2832
		c-1.98633,1.53418-3.57617,3.24805-4.36426,5.30078c-1.40723,3.67871,0.08887,6.43945,4.76563,8.14648
		c2.37207,0.86523,4.95703,1.49902,7.53809,1.97266c10.08008,1.86035,20.40918,2.62402,30.71094,3.45508
		c11.9082,0.96094,23.83203,1.80566,35.72168,2.85645c4.05957,0.35938,8.05371,1.15137,12.05273,1.82617
		c1.35938,0.23145,2.74512,0.59863,3.61719,1.70605c-1.11133,1.33984-2.86133,1.79102-4.5166,2.19141
		c-5.16895,1.24902-10.37012,2.43066-15.59961,3.5498c-5.73828,1.22754-11.56348,2.25293-17.26465,3.56934
		c-2.69336,0.62402-5.31152,1.56543-7.71582,2.65039c-2.39258,1.08008-2.12305,2.67383,0.34375,3.62598
		c0.78125,0.30273,1.63086,0.56055,2.49219,0.69336c2.7041,0.41992,5.41504,0.87207,8.1582,1.13672
		c13.82227,1.33203,27.67188,2.52246,41.4834,3.91992c18.76758,1.89941,37.52246,3.89063,56.25977,5.94629
		c6.4502,0.70801,12.84375,1.72852,18.94824,3.46582c2.06055,0.58594,4.07617,1.33984,5.91699,2.23145
		C1616.44922,672.4209,1616.34766,673.25781,1614.31934,673.93555z M1331.61523,677.36914
		c-0.22266-1.18066-0.34082-2.36426-0.26172-3.56934c0.1416-2.17383-0.20898-4.25195-1.2002-6.22363
		c-0.85352-1.69629-1.61426-3.43945-2.41504-5.16113c-0.05371-0.11523-0.09375-0.23535-0.13965-0.35254
		c0.16211-0.08008,0.30664-0.15234,0.47559-0.23535c0.28516,0.30859,0.58887,0.30664,0.86914-0.03809
		c0.27832,0.2041,0.52344,0.40234,0.78223,0.57422c0.58594,0.39258,0.86035,0.3418,1.31152-0.21875
		c0.04492-0.05664,0.09668-0.1084,0.16602-0.18457c0.11719,0.03125,0.24902,0.04199,0.35742,0.09473
		c0.39648,0.19531,0.78809,0.26367,1.2334,0.13184c0.18457-0.05273,0.43262,0.03906,0.63281,0.11426
		c0.38184,0.1416,0.74902,0.32227,1.12012,0.47949c0.35742,0.14746,0.70898,0.11914,0.99316-0.1377
		c0.54199-0.48926,1.15625-0.5166,1.81836-0.34375c0.4668,0.11914,0.93457,0.22949,1.39648,0.36133
		c0.45703,0.12793,0.90625,0.17285,1.34863-0.05273c0.32422-0.16602,0.65918-0.07813,0.97754,0.00391
		c0.41797,0.10645,0.78223,0.05566,1.17969-0.12402c0.30371-0.13867,0.67578-0.2002,1.01465-0.18262
		c0.65527,0.03516,1.18262-0.13086,1.6416-0.62109c0.43848-0.46387,0.72656-0.47559,1.29004-0.18262
		c0.08203,0.04199,0.16113,0.09082,0.24121,0.13867c0.66211,0.39063,0.78906,0.36621,1.21191-0.25293
		c0.13477-0.19727,0.2666-0.39941,0.40039-0.59766c0.13184-0.19336,0.29102-0.32715,0.55078-0.29395
		c0.35449,0.04688,0.60156-0.14746,0.80957-0.39648c0.30762-0.36816,0.60547-0.74512,0.9082-1.11719
		c0.13281-0.16211,0.26563-0.3125,0.50488-0.28516c0.34961,0.03711,0.50781-0.18066,0.58008-0.47266
		c0.10156-0.40723,0.17969-0.81934,0.28809-1.33203c0.1416,0.19141,0.2627,0.31641,0.34277,0.46484
		c0.39258,0.73145,0.77734,1.46777,1.15723,2.20605c0.7002,1.36133,1.37109,2.74023,2.10254,4.08301
		c0.46582,0.8584,1.00293,1.67871,1.53418,2.49805c1.8584,2.86426,3.37305,5.88672,4.3877,9.14941
		c0.02539,0.08887,0.04883,0.17773,0.07227,0.2666c0.46582,1.58594-0.10156,2.81055-1.33398,3.80664
		c-0.81445,0.66113-1.75684,1.00488-2.78711,1.14258c-0.33008,0.04492-0.65918,0.09082-0.9873,0.13965
		c-1.20605,0.17969-2.27246,0.6416-3.24219,1.30273c-7.01172,0.15234-14.00879,0.49414-20.99512,0.9834
		c0.19727-0.69043,0.26172-1.4082,0.19824-2.12695C1332.04883,679.6543,1331.83105,678.50879,1331.61523,677.36914z
		 M1322.6123,680.64453c-0.06641,0.41016-0.27344,0.69434-0.64551,0.83105c-0.42969,0.15918-0.87988,0.27148-1.32227,0.39551
		c-0.28418,0.08203-0.57715,0.13574-0.8584,0.22559c-0.96582,0.31836-1.4209,1.03906-1.56934,1.97949
		c-4.79297,0.46484-9.53809,1.04688-14.23242,1.76953c-3.03223-0.8457-6.66016-1.56934-9.76855-1.94141
		c0.45898-0.5498,0.95703-1.07031,1.5166-1.54395c0.64551-0.54297,1.20605-1.19824,1.74414-1.84961
		c1.26367-1.52344,2.52539-3.04395,3.7207-4.61816c1.52832-2.0127,3.02539-4.05469,4.25879-6.27051
		c0.66504-1.19238,1.33203-2.38477,1.99609-3.57813c0.59473-1.06641,1.08887-2.17578,1.33398-3.38281
		c0.01465-0.06641,0.04102-0.12891,0.08105-0.24512c0.13086,0.10352,0.22949,0.17188,0.31934,0.25195
		c1.44336,1.27051,2.87695,2.55469,4.32715,3.81348c1.76367,1.53223,3.35254,3.22949,4.89355,4.97852
		c1.00293,1.13867,1.98535,2.28906,2.72363,3.62305c0.68359,1.23438,1.22266,2.52148,1.4834,3.91309
		C1322.71582,679.54785,1322.70117,680.09277,1322.6123,680.64453z M1626.25098,594.09766
		c-0.08594,1.54102-0.45508,3.07617-0.79199,4.5918c-0.08301,0.37305-0.27344,0.6543-0.51074,0.88574
		c-12.66406-0.25098-25.32715-0.52246-37.99219-0.75879c-3.75293-0.94922-7.53418-1.75293-11.39746-2.19238
		c-2.125-0.24121-2.5625-0.82324-2.47168-2.93262c0.14258-3.31055,0.31934-6.62012,0.48145-9.92969
		c0.20215-4.73438-0.00098-9.44141-0.57813-14.14063c3.06055,0.58203,6.12012,1.1709,9.18359,1.73926
		c4.00781,0.74414,8.08008,1.5625,12.01855,2.35352c7.21094,1.44824,14.66699,2.94531,22.11719,4.0752
		c3.49805,0.53125,7.01367,1.24414,10.5127,2.04199c-0.00195,0.08105,0.00488,0.16113,0.00195,0.24316
		C1626.62988,584.74805,1626.50879,589.42676,1626.25098,594.09766z M1803.84668,578.87109
		c-3.00098,4.34766-5.87793,8.63672-8.07617,13.30859c-1.59082,3.38086-2.75,6.87695-3.49707,10.47168
		c-13.69043-0.38574-27.37598-0.81738-41.06934-1.0918c-17.43848-0.35254-34.88379-0.53613-52.32324-0.79883
		c-17.54492-0.2627-35.09082-0.51074-52.63379-0.80273c0.23633-2.00684,0.48047-4.0127,0.71094-6.02246
		c0.06543-0.57031-0.03516-1.16406-0.04199-1.74805c-0.00781-0.63477-0.09277-1.28906,0.01953-1.90234
		c0.32031-1.74023,0.64648-3.47949,0.97266-5.2207c7.94434,1.89844,15.80176,3.54102,23.96387,3.31934
		c3.45605-0.09082,6.33105-0.98242,9.04688-2.80371c5.57715-3.74023,10.60254-8.0625,14.93555-12.85352
		c7.09863-7.84766,15.30859-14.74609,22.55273-20.83203c4.08789-3.43262,9.02734-6.25391,15.10254-8.62305
		c4.82129-1.87695,9.64453-3.93164,14.30664-5.91895c3.2334-1.37891,6.57715-2.80371,9.87598-4.14941l0.93652-0.38281
		c5.44727-2.2207,11.0791-4.51953,16.7002-6.40918c6.57129-2.21191,13.60352-2.14844,20.90527,0.18848
		c1.30859,0.41797,2.47852,0.89453,3.47852,1.41797c3.36426,1.76758,4.00293,3.16699,3.10547,6.80957
		c-0.28906,1.17676-0.75,2.36328-1.23926,3.61914c-0.31738,0.81543-0.63281,1.63281-0.91113,2.45898
		c-0.23828,0.7002-0.49121,1.39941-0.74512,2.09766c-0.73047,2.01465-1.4873,4.09668-1.88965,6.3252
		c-1.29199,7.16016,0.47461,13.43164,5.25195,18.63867C1807.90137,573,1807.90137,573,1803.84668,578.87109z"/>
	<path style="fill:#7D97AF;" d="M2689.4043,550.29199c0.32227-1.77441,0.9668-3.55371,1.65137-5.43848
		c0.26758-0.73828,0.53516-1.47559,0.78516-2.2168c0.25293-0.74805,0.54102-1.4873,0.82813-2.22559
		c0.5293-1.3623,1.07813-2.77246,1.4502-4.28906c1.50391-6.10449-0.24902-9.96777-5.86621-12.91797
		c-1.29883-0.68164-2.72559-1.26465-4.35449-1.78516c-8.41113-2.69043-16.65039-2.74316-24.32324-0.16211
		c-5.7832,1.94434-11.49707,4.27441-17.02148,6.52832l-0.9375,0.38281c-3.33789,1.36328-6.70215,2.79688-9.9541,4.18164
		c-4.62402,1.9707-9.40527,4.00879-14.14746,5.85547c-6.6416,2.58984-12.08301,5.70703-16.63477,9.53125
		c-8.91797,7.49219-16.28125,13.82227-23.08887,21.34863c-4.03418,4.45996-8.71973,8.49023-13.92773,11.98145
		c-1.8418,1.23633-3.73633,1.81641-6.14258,1.87891c-7.82422,0.19727-15.50684-1.47461-23.37402-3.36719
		c-2.89551-0.69531-5.7832-1.43652-8.67188-2.17969c-7.33008-1.88086-14.9082-3.82813-22.54785-4.9873
		c-7.32031-1.11133-14.71191-2.59473-21.86035-4.03027c-3.95703-0.79492-8.04883-1.61621-12.0957-2.36914
		c-4.92773-0.91504-9.85156-1.85547-14.77441-2.79688c-10.54102-2.01367-21.44238-4.09766-32.22266-5.88867
		c-20.52734-3.41211-41.29492-4.58984-59.14648-5.42383c-13.52539-0.63574-27.91309-1.82617-41.48828-6.21484
		c-10.66699-3.44629-23.0459-7.50293-34.96387-12.02148c-6.68457-2.53418-13.45605-5.19727-20.00488-7.77539
		c-12.22168-4.80859-24.85938-9.78027-37.53418-14.14453c-20.19727-6.95605-44.31738-14.31445-70.0791-16.15039
		c-2.54688-0.18164-5.09277-0.40039-7.63867-0.61914c-6.12793-0.52734-12.46484-1.07324-18.75391-1.07324l-0.65234,0.00293
		c-16.60938,0.10156-33.03125,0.79492-48.91406,1.4668c-4.08105,0.17383-8.1875,0.54883-12.15918,0.91016
		c-4.11328,0.37695-8.36719,0.76563-12.52246,0.91992c-8.75586,0.32617-17.68164,0.45117-26.31445,0.57227
		c-3.94922,0.05664-7.90039,0.11133-11.85059,0.18555c-6.14746,0.12402-12.19043-1.01367-17.88379-3.36523
		c-1.67578-0.69238-3.47266-1.3877-5.40918-1.63086c-2.10645-0.2627-3.2207-0.96777-3.97852-2.51367
		c-0.7002-1.43164-1.78418-2.60352-2.5752-3.45801c-2.02051-2.18652-4.03906-4.37793-6.05664-6.56836
		c-6.56836-7.13184-13.36133-14.50684-20.16309-21.65918c-4.04395-4.25391-9.28027-7.19531-16.48145-9.25684
		c-13.07617-3.7373-26.16992-4.26074-36.11621-4.29785l-0.30566-0.00098c-7.42969,0-13.89648,0.99316-19.77246,3.03613
		c-9.34473,3.25-18.06836,7.53223-25.92871,12.72852c-3.37793,2.23438-5.87402,4.86523-7.62988,8.04102
		c-4.03223,7.28906-6.45898,13.70508-7.6377,20.19531c-0.29297,1.62305-0.48828,3.25-0.67773,4.82422
		c-0.18945,1.59375-0.37012,3.09766-0.64453,4.58789c-2.0498,11.16895-0.82813,22.16113,3.73438,33.60547
		c2.07227,5.20508,3.85645,10.66992,5.58301,15.95703c0.78809,2.41211,1.57422,4.8252,2.3916,7.22656
		c0.47559,1.39844,0.93359,2.80566,1.39063,4.21094c0.9873,3.03711,2.00781,6.17871,3.21289,9.2334
		c6.5957,16.70801,15.0625,32.76465,22.47266,46.26758c2.50098,4.55371,5.14648,9.1084,7.70703,13.51074
		c1.24414,2.14063,2.48828,4.28223,3.71875,6.42871l4.18555,7.29785c3.69629,6.43848,7.38965,12.87402,11.05566,19.32715
		c3.0459,5.36719,6.83789,10.12695,11.26953,14.14941c4.62305,4.19336,8.19141,9.33984,10.90918,15.73633
		c1.16211,2.72852,2.39648,5.40625,3.70313,8.24219c0.41602,0.90039,0.83789,1.81543,1.26855,2.75488
		c-0.0293,0.03809-0.05762,0.0752-0.08496,0.11328c-0.81836,1.09668-1.66309,2.23047-2.46289,3.43848
		c-3.37695,5.09766-3.04297,9.88965,0.99512,14.24512c1.99316,2.14648,4.10254,3.89258,6.26855,5.19043
		c5.06445,3.03613,9.37891,5.37891,13.57813,7.37207c3.86328,1.83496,7.95703,3.25781,11.81836,4.55566
		c6.41992,2.16406,12.08789,3.93555,17.32227,5.41797c2.75391,0.78027,5.75293,1.34082,9.43848,1.76074
		c4.49609,0.51563,8.89941,0.98047,13.33594,1.0127c0.51855,0.00391,1.03613,0.00488,1.55371,0.00488
		c5.01953,0,10.10156-0.16992,15.01563-0.33398l4.0332-0.13086c1.44727-0.04395,2.88574-0.15332,4.27734-0.26074
		c1.15625-0.08789,2.3125-0.17676,3.46484-0.22559c1.15723-0.04297,2.31836-0.00977,3.47754,0.02344
		c0.43652,0.01367,0.87402,0.02637,1.40137,0.03809c0.20117,0.00391,0.40234,0.00879,0.60254,0.00879
		c2.62988,0,4.37988-1.06836,5.19824-3.1748c0.98242-2.52734,0.40039-5.11426-1.59766-7.09668
		c-1.92969-1.91699-3.99805-3.85938-6.49609-5.40137c0.35352,0.01855,0.70703,0.03223,1.06055,0.04199
		c12.35742,0.35645,24.40625,0.5752,35.81055,0.64941c6.62695,0.04395,13.25879-0.00781,19.88965-0.06055
		c4.70215-0.03711,9.4043-0.0752,14.10547-0.07715h0.29688c5.55566,0,11.37402,0.08887,17.29395,0.26563
		c1.63672,0.04785,3.25977,0.18457,4.98047,0.3291c1.58594,0.13379,3.22656,0.27148,4.87402,0.33301
		c4.91895,0.18359,9.84082,0.33105,14.76074,0.47754c9.06641,0.27148,18.44238,0.55176,27.63184,1.06934
		c10.25684,0.5791,19.6543,0.86133,28.72949,0.86133c6.22656,0,12.36328-0.13965,18.24219-0.41113
		c14.92773-0.69434,28.43457-1.09473,41.29199-1.22559c13.52246-0.13867,27.27832-0.17188,40.58203-0.2041
		c11.29883-0.02539,22.98145-0.05371,34.47656-0.14648c6.86719-0.05762,13.95605-0.4209,21.06836-1.08203
		c7.40234-0.68555,14.89941-1.52832,22.15137-2.34375c4.34961-0.48828,8.69922-0.97656,13.05176-1.4375
		c12.29297-1.29004,22.35938-3.33691,31.67578-6.43848c12.73145-4.23926,27.16211-9.04395,40.4873-15.90625
		c12.80957-6.59766,27.3291-14.07617,40.45801-23.20215c5.93457-4.12988,12.30957-6.90137,18.94629-8.2373
		c10.37305-2.08398,19.79297-6.93359,28.00098-14.41016c0.28125-0.25684,0.59766-0.50488,0.93262-0.75684
		c2.10059,1.14258,3.49219,3.04883,5.03809,5.77832c0.55273,0.97754,1.08984,1.9707,1.62695,2.96387
		c1.61621,2.99023,3.28906,6.08301,5.4707,8.85254c7.36816,9.35547,14.94727,16.93164,23.1709,23.16016
		c5.83301,4.41895,11.63281,6.88086,17.73242,7.52734l1.94336,0.21191c3.15234,0.34863,6.41211,0.70996,9.69043,0.70996
		l0.29785-0.00098c6.15625-0.0459,10.81543-1.79297,14.18359-5.33105c1.45801,0.65234,2.88965,1.39258,4.2334,2.0957
		c0.52051,0.27441,1.03125,0.57227,1.54102,0.87012c1.05371,0.61328,2.14258,1.24805,3.37793,1.74023
		c1.27051,0.50586,2.39941,0.75195,3.4541,0.75195c2.02344,0,4.72754-0.91211,6.12793-5.25488
		c0.99512-3.08105,1.08008-6.38477,0.25293-9.81836c-0.63379-2.62695-1.24902-4.99902-1.87793-7.25098
		c-0.08887-0.31348-0.12012-0.52051-0.13086-0.64844c0.03906-0.01758,0.08789-0.03711,0.14648-0.05859
		c1.72754-0.63184,3.79199-2.16602,3.81738-5.88086c0.00879-0.98633,0.04883-1.97168,0.08984-2.95898
		c0.03516-0.88379,0.07227-1.76855,0.08691-2.6543c0.12109-7.30957,2.44531-13.35449,7.10742-18.48047
		c0.80957-0.8916,1.59766-1.80664,2.38477-2.71973c0.52734-0.61328,1.05469-1.22559,1.58984-1.83301l1.39355-1.57813
		c2.25586-2.55859,4.51172-5.11719,6.79688-7.6543c2.83398-3.15527,3.67188-6.66113,2.49023-10.42578
		c-0.28809-0.91699-0.50781-1.88477-0.74121-2.9082c-0.12988-0.57617-0.26074-1.15234-0.4043-1.72168
		c-2.72754-10.87305-1.92383-21.03809,2.38965-30.21191c2.02246-4.29785,4.76367-8.38086,7.63086-12.5332
		c5.54102-8.02344,5.3877-10.66406-1.02832-17.65625C2689.69531,560.35156,2688.41602,555.77051,2689.4043,550.29199z
		 M2689.8418,578.87109c-3.00098,4.34766-5.87793,8.63672-8.07617,13.30859c-4.86133,10.33789-5.78418,21.72168-2.74316,33.84082
		c0.13281,0.53027,0.25488,1.06738,0.37695,1.60254c0.24609,1.08496,0.50195,2.20703,0.85547,3.33301
		c0.59766,1.90625,0.19434,3.45313-1.34766,5.16992c-2.29395,2.5498-4.56348,5.12109-6.83203,7.69336l-1.39063,1.57617
		c-0.54883,0.62402-1.0918,1.25391-1.63477,1.88379c-0.75586,0.87793-1.51172,1.75586-2.28711,2.61133
		c-5.51172,6.05859-8.37793,13.47363-8.51953,22.04004c-0.01367,0.84082-0.0498,1.68262-0.08301,2.52441
		c-0.04297,1.04492-0.08594,2.08984-0.09375,3.13867c-0.00488,0.54004-0.08691,0.73438-0.08105,0.74121
		c-0.01367,0.00781-0.05859,0.03711-0.15625,0.07324c-1.48242,0.54102-4.77734,2.33301-3.39648,7.27344
		c0.6123,2.18945,1.20996,4.50098,1.8291,7.06348c0.59766,2.4834,0.55176,4.73242-0.14258,6.88184
		c-0.31543,0.98242-0.62793,1.47949-0.92676,1.48047c-0.19238,0-0.63184-0.04785-1.42285-0.36328
		c-0.8584-0.3418-1.72949-0.84863-2.64941-1.38672c-0.58203-0.33789-1.16406-0.67676-1.75977-0.98926
		c-1.43262-0.74902-2.96582-1.54004-4.5791-2.26172c-0.73047-0.32617-1.44824-0.4541-2.02441-0.55762
		c-0.18945-0.03418-0.38281-0.06836-0.57715-0.11133l-1.70703-0.39063l-1.06738,1.38281
		c-2.39941,3.1084-5.80664,4.51172-11.04199,4.54883l-0.25879,0.00195c-2.97656,0-5.94434-0.3291-9.08691-0.67773l-1.96875-0.21484
		c-5.08008-0.53711-9.9873-2.64648-15.00293-6.44629c-7.84961-5.94434-15.10352-13.20215-22.18066-22.18848
		c-1.89258-2.40137-3.38184-5.15723-4.95898-8.07422c-0.55469-1.02441-1.1084-2.04883-1.67969-3.05664
		c-1.88574-3.33301-4.31055-7.03809-9.22559-8.79492l-1.40918-0.50391l-1.18555,0.91211
		c-0.22852,0.17578-0.4668,0.35156-0.70898,0.52832c-0.58789,0.43066-1.25488,0.91895-1.88574,1.49609
		c-7.46387,6.79883-16.00781,11.2041-25.39453,13.09082c-7.37695,1.48438-14.44043,4.5498-20.99414,9.10938
		c-12.83008,8.9209-27.17969,16.30957-39.83887,22.83105c-12.94824,6.66797-27.16602,11.40137-39.70996,15.57813
		c-8.93066,2.97266-18.62793,4.93945-30.51758,6.18848c-4.36523,0.45996-8.72754,0.95117-13.09082,1.44141
		c-7.22559,0.81348-14.69531,1.65234-22.04395,2.33301c-6.95996,0.64648-13.89453,1.00293-20.60645,1.05957
		c-11.47949,0.09082-23.1543,0.11914-34.44629,0.14648c-13.31348,0.03125-27.08008,0.06445-40.625,0.20313
		c-12.92383,0.13281-26.49609,0.53418-41.48926,1.23145c-5.79395,0.26855-11.8457,0.40625-17.98828,0.40625
		c-8.97168,0-18.26758-0.28027-28.4209-0.85352c-9.26172-0.52344-18.6748-0.80371-27.77637-1.0752
		c-4.9082-0.14648-9.81445-0.29297-14.71973-0.47559c-1.52051-0.05859-3.02637-0.18457-4.62012-0.31836
		c-1.7168-0.14355-3.49219-0.29395-5.27539-0.34668c-5.97461-0.17676-11.84766-0.26758-17.45801-0.26758h-0.29883
		c-4.71582,0.00195-9.43066,0.04004-14.14746,0.07715c-6.60352,0.05273-13.2041,0.10547-19.81055,0.06055
		c-11.3623-0.07422-23.37012-0.29102-35.6875-0.64648c-2.66406-0.07617-5.30664-0.3916-8.10352-0.72461
		c-1.33789-0.15918-2.67578-0.31836-4.01758-0.4502c-0.46289-0.04492-0.92871-0.07227-1.39453-0.09863l-2.70703-0.17773
		l-1.72852,4.92871l2.21582,1.05859c0.84668,0.40527,1.68652,0.83203,2.52441,1.26074
		c1.97949,1.00977,4.02441,2.05371,6.22266,2.83008c3.35254,1.18262,5.8916,3.52441,8.41016,6.02148
		c0.4209,0.41992,0.50195,0.69629,0.45117,0.97559c-0.05664,0.00098-0.12109,0.00195-0.19629,0.00195l-1.84277-0.04199
		c-1.28809-0.03613-2.56543-0.07422-3.86328-0.02148c-1.2207,0.05078-2.43945,0.14355-3.66016,0.2373
		c-1.38867,0.10645-2.70117,0.20605-4.02539,0.24609l-4.04883,0.13184c-4.86914,0.16211-9.9043,0.33203-14.83203,0.33203
		l-1.51465-0.00586c-4.16504-0.03027-8.4082-0.47949-12.75293-0.97754c-3.38281-0.38574-6.10352-0.89063-8.56543-1.58984
		c-5.14941-1.45703-10.73242-3.20215-17.06934-5.33691c-3.70508-1.24707-7.62402-2.60742-11.21484-4.3125
		c-4.03613-1.91602-8.20313-4.17969-13.11328-7.12402c-1.72461-1.03223-3.43164-2.45313-5.07227-4.2207
		c-2.34863-2.5332-2.4668-4.50977-0.44629-7.55762c0.71582-1.08203,1.51367-2.15332,2.28613-3.18945
		c0.36328-0.48633,0.71875-0.96289,1.06055-1.43359l0.92969-1.27832l-0.65234-1.4375
		c-0.66309-1.46289-1.31055-2.86621-1.94141-4.2334c-1.28906-2.79688-2.50781-5.43945-3.63672-8.09473
		c-3.03223-7.13281-7.04297-12.90234-12.26172-17.63477c-4.00195-3.63281-7.43164-7.94238-10.19336-12.80566
		c-3.66992-6.45996-7.36914-12.9043-11.06641-19.34961l-4.18555-7.29688c-1.23633-2.15527-2.48633-4.30469-3.73438-6.4541
		c-2.54395-4.37598-5.17383-8.89941-7.6416-13.39551c-7.33008-13.35449-15.69727-29.22168-22.18164-45.64941
		c-1.14551-2.89941-2.13867-5.95898-3.10059-8.91699c-0.46582-1.42871-0.92969-2.85938-1.41406-4.28223
		c-0.80957-2.38086-1.58984-4.77148-2.37109-7.16211c-1.75098-5.36719-3.5625-10.91797-5.69922-16.28223
		c-4.17383-10.46973-5.29883-20.48535-3.4375-30.62012c0.30371-1.65625,0.50195-3.31641,0.69434-4.92285
		c0.1875-1.56348,0.36426-3.04004,0.62891-4.50098c1.06934-5.89063,3.30859-11.78125,7.0459-18.53711
		c1.32227-2.38965,3.24121-4.39648,5.86719-6.13281c7.48047-4.94531,15.79297-9.02539,24.70703-12.125
		c5.28711-1.83789,11.16699-2.73145,17.97266-2.73145h0.28516c14.25,0.05371,24.92969,1.31348,34.62891,4.08691
		c6.22266,1.78125,10.67773,4.24902,14.02246,7.76758c6.77246,7.12305,13.5498,14.48047,20.10547,21.59668
		c2.01855,2.19238,4.03809,4.38574,6.06152,6.5752c0.5957,0.64355,1.33594,1.44336,1.68555,2.15625
		c1.57813,3.22754,4.2627,5.03613,8.20703,5.5293c1.26172,0.16016,2.6123,0.68555,3.99805,1.25781
		c6.38867,2.63867,13.11523,3.91211,20.0791,3.7793c3.94043-0.07422,7.88281-0.12891,11.8252-0.18555
		c8.66406-0.12109,17.62207-0.24609,26.43945-0.57617c4.30469-0.1582,8.63281-0.55469,12.81836-0.93555
		c3.90625-0.35742,7.94531-0.72656,11.89258-0.89355c15.83301-0.66895,32.20508-1.3623,48.71484-1.46387l0.61914-0.00098
		c6.05273,0,12.27148,0.53418,18.2832,1.05176c2.57324,0.22168,5.14648,0.44336,7.71875,0.62695
		c25.12988,1.79102,48.82324,9.02344,68.68457,15.86328c12.5625,4.32617,25.14453,9.27734,37.3125,14.06445
		c6.56445,2.58203,13.35254,5.25391,20.06836,7.80078c12.03516,4.5625,24.49121,8.64355,35.22168,12.11133
		c14.18848,4.58496,29.01172,5.82031,42.91699,6.47266c17.69629,0.82813,38.27051,1.99316,58.50293,5.35742
		c10.71582,1.78027,21.58398,3.85645,32.09375,5.86523c4.93262,0.94238,9.86523,1.88477,14.80176,2.80176
		c4.00781,0.74414,8.08008,1.5625,12.01855,2.35352c7.21094,1.44824,14.66699,2.94531,22.11719,4.0752
		c7.36523,1.11914,14.80762,3.0293,22.00684,4.87793c2.91504,0.74902,5.83105,1.49805,8.75293,2.2002
		c8.23145,1.98047,16.35352,3.74609,24.80273,3.5166c3.45605-0.09082,6.33105-0.98242,9.04688-2.80371
		c5.57715-3.74023,10.60254-8.0625,14.93555-12.85352c7.09863-7.84766,15.30859-14.74609,22.55273-20.83203
		c4.08789-3.43262,9.02734-6.25391,15.10254-8.62305c4.82129-1.87695,9.64453-3.93164,14.30664-5.91895
		c3.2334-1.37891,6.57715-2.80371,9.87598-4.14941l0.93652-0.38281c5.44727-2.2207,11.0791-4.51953,16.7002-6.40918
		c6.57129-2.21191,13.60352-2.14844,20.90527,0.18848c1.30859,0.41797,2.47852,0.89453,3.47852,1.41797
		c3.36426,1.76758,4.00293,3.16699,3.10547,6.80957c-0.28906,1.17676-0.75,2.36328-1.23926,3.61914
		c-0.31738,0.81543-0.63281,1.63281-0.91113,2.45898c-0.23828,0.7002-0.49121,1.39941-0.74512,2.09766
		c-0.73047,2.01465-1.4873,4.09668-1.88965,6.3252c-1.29199,7.16016,0.47461,13.43164,5.25195,18.63867
		C2693.89648,573,2693.89648,573,2689.8418,578.87109z"/>
</g>
<g>
</g>
<g>
</g>
<g>
</g>
<g>
</g>
<g>
</g>
<g>
</g>
</svg>
