<?xml version="1.0" encoding="utf-8"?>
<!-- Generator: Adobe Illustrator 24.1.2, SVG Export Plug-In . SVG Version: 6.00 Build 0)  -->
<svg version="1.1" xmlns="http://www.w3.org/2000/svg" xmlns:xlink="http://www.w3.org/1999/xlink" x="0px" y="0px"
	 viewBox="0 0 1198.55 1141.86" style="enable-background:new 0 0 1198.55 1141.86;" xml:space="preserve">
<style type="text/css">
	.st0{fill-rule:evenodd;clip-rule:evenodd;}
	.st1{fill-rule:evenodd;clip-rule:evenodd;fill:#373435;}
	.st2{fill-rule:evenodd;clip-rule:evenodd;fill:none;stroke:#FF0000;stroke-width:7.9999;stroke-miterlimit:2.6131;}
	.st3{fill-rule:evenodd;clip-rule:evenodd;fill:none;stroke:#000000;stroke-width:0.5;stroke-miterlimit:2.6131;}
	.st4{fill-rule:evenodd;clip-rule:evenodd;fill:#ED3237;stroke:#373435;stroke-width:0.5;stroke-miterlimit:2.6131;}
	.st5{fill-rule:evenodd;clip-rule:evenodd;fill:#FEFEFE;}
	.st6{fill-rule:evenodd;clip-rule:evenodd;fill:none;stroke:#3374A9;stroke-width:0.216;stroke-miterlimit:2.6131;}
	.st7{fill-rule:evenodd;clip-rule:evenodd;fill:#3374A9;}
</style>
<g id="Layer_1">
	<rect x="329.55" y="138.61" class="st0" width="539.45" height="3.93"/>
	<path class="st1" d="M448.97,110.9V48.55c0-2.02,0.71-3.75,2.12-5.16c1.43-1.42,3.14-2.12,5.18-2.12h7.1v56.69h34.01v12.95H448.97
		L448.97,110.9z M530.78,83.85c-1.9,0.95-4.53,1.81-7.91,2.63c-3.11,0.67-4.66,1.02-4.66,1.02c-2.44,0.67-4.2,1.55-5.29,2.63
		c-0.95,1.49-1.42,2.97-1.42,4.46c0,2.02,0.6,3.64,1.83,4.85c1.21,1.09,2.97,1.62,5.27,1.62c3.78,0,6.77-1.09,8.93-3.25
		c2.16-2.16,3.25-5.11,3.25-8.9V83.85L530.78,83.85z M534.01,108.69c-2.83,1.49-5.84,2.4-9.02,2.75c-3.18,0.33-5.98,0.5-8.41,0.5
		c-4.87,0-9.12-1.31-12.77-3.96c-3.64-2.63-5.48-6.98-5.48-13.06c0-5.68,1.66-9.72,4.97-12.16c3.3-2.44,7.53-4.06,12.66-4.87
		c0.67,0,1.49-0.09,2.44-0.29c0.95-0.21,2.02-0.38,3.25-0.52c5.94-0.79,8.91-2.56,8.91-5.25c0-2.04-1.05-3.35-3.14-3.96
		c-2.09-0.6-4.01-0.92-5.77-0.92c-1.88,0-3.58,0.28-5.06,0.83c-1.49,0.55-2.56,1.59-3.23,3.11h-13.56c0.54-4.2,2.42-7.65,5.67-10.36
		c3.64-3.11,8.84-4.66,15.58-4.66c7.57,0,13.23,1.28,17.01,3.85c3.92,2.69,5.87,6.48,5.87,11.33v18.41c0,5.41-0.98,9.62-2.94,12.66
		C539.04,105.15,536.7,107.34,534.01,108.69L534.01,108.69z M592.89,110.9h-7.1c-2.02,0-3.68-0.64-4.96-1.92
		c-1.3-1.3-1.93-2.94-1.93-4.97l0,0V76.48c0-3.23-0.97-5.6-2.92-7.08c-1.95-1.49-4.15-2.23-6.56-2.23c-2.42,0-4.56,0.74-6.44,2.23
		c-1.88,1.49-2.83,3.85-2.83,7.08v34.43h-14.2V79.34c0-9.17,2.4-15.32,7.19-18.41c4.78-3.11,10.09-4.78,15.89-5.06
		c5.92,0,11.4,1.55,16.39,4.65c4.99,3.11,7.48,9.38,7.48,18.83V110.9L592.89,110.9z M619.08,110.9c-4.46,0.28-9.28,0.21-14.47-0.21
		c-5.2-0.4-7.81-3.71-7.81-9.91V41.26h7.31c1.74,0,3.3,0.67,4.66,2.02c1.35,1.35,2.02,2.95,2.02,4.85v9.09h8.29v2.85
		c0,2.02-0.67,3.68-2.02,4.96c-1.35,1.3-2.97,1.93-4.85,1.93h-1.42v29.93c0,2.3,1.35,3.44,4.04,3.44h4.25V110.9L619.08,110.9z
		 M657.68,94.32c-1.61,0-2.87,0.35-3.75,1.02c-0.86,0.67-1.38,1.23-1.5,1.62c-0.41,0.41-0.78,0.79-1.12,1.12
		c-0.33,0.35-0.71,0.59-1.11,0.71c-1.62,0.95-3.58,1.43-5.87,1.43c-3.51,0-6.15-1.09-7.89-3.26c-1.9-2.04-2.9-5.16-3.04-9.38h35.01
		c0.14-0.28,0.21-0.74,0.21-1.42c0-0.14,0-0.4,0-0.81c0-0.4,0-0.86,0-1.4c0-8.9-2.16-15.84-6.48-20.81
		c-4.46-4.85-10.73-7.27-18.83-7.27c-7.69,0-13.7,2.5-18.03,7.5c-4.2,4.85-6.29,11.59-6.29,20.23c0,9.05,2.16,15.99,6.49,20.85
		c4.32,4.99,10.35,7.5,18.03,7.5c6.34,0,11.61-1.55,15.79-4.66c4.18-2.97,7.01-7.29,8.5-12.95H657.68L657.68,94.32z M633.4,78.46
		c0.14-3.49,1.14-6.18,3.04-8.07c1.88-1.88,4.32-2.82,7.29-2.82c3.23,0,5.73,0.93,7.48,2.82c1.62,1.74,2.57,4.44,2.83,8.07H633.4
		L633.4,78.46z M670.85,110.9V84.77c0-5.27,0.78-9.69,2.33-13.27c1.55-3.59,3.68-6.46,6.39-8.62c2.57-2.02,5.58-3.51,9.02-4.46
		c3.44-0.95,6.98-1.42,10.62-1.42c0.28,0,0.6,0,1.02,0c0.4,0,0.74,0,1.02,0v14.41h-4.66c-3.92,0-6.82,0.95-8.71,2.83
		c-1.88,1.9-2.83,4.85-2.83,8.91v27.74H670.85L670.85,110.9z M749.58,110.9h-7.1c-2.02,0-3.68-0.64-4.96-1.92
		c-1.3-1.3-1.93-2.94-1.93-4.97l0,0V76.48c0-3.23-0.97-5.6-2.92-7.08c-1.95-1.49-4.15-2.23-6.56-2.23c-2.42,0-4.56,0.74-6.44,2.23
		c-1.88,1.49-2.83,3.85-2.83,7.08v34.43h-14.2V79.34c0-9.17,2.4-15.32,7.19-18.41c4.78-3.11,10.09-4.78,15.89-5.06
		c5.92,0,11.4,1.55,16.39,4.65c4.99,3.11,7.48,9.38,7.48,18.83V110.9z"/>
</g>
<g id="_x30_">
	<path class="st2" d="M75.61,4h1047.32c39.39,0,71.61,32.23,71.61,71.61v990.63c0,39.39-32.23,71.61-71.61,71.61H75.61
		c-39.39,0-71.61-32.23-71.61-71.61V75.61C4,36.23,36.23,4,75.61,4z"/>
	<path class="st3" d="M302.38,816.81v8.5h59.65v-8.5h59.65l0-40.18h8.5v-40.18h-8.5v-40.18h8.5v-40.18h-8.5v-40.18h8.5v-40.18h-8.5
		l0-40.18h-59.65v-8.5h-59.65v8.5h-59.65v-8.5h-59.65v8.5h-59.65v40.18h-8.5v40.18h8.5v40.18h-8.5v40.18h8.5v40.18h-8.5v40.18h8.5
		v40.18h59.65v8.5h59.65v-8.5H302.38L302.38,816.81z M158.55,549.73c7.24,0,13.61,3.68,17.36,9.27c1.74,2.6,1.94,5.69,0.56,8.5
		c-1.38,2.8-3.96,4.52-7.08,4.72c-6.14,0.39-11.31,3.86-13.57,8.66c-1.35,2.88-3.97,4.66-7.14,4.87c-3.17,0.21-6-1.22-7.71-3.9
		c-2.08-3.24-3.28-7.1-3.28-11.24C137.68,559.07,147.02,549.73,158.55,549.73L158.55,549.73z M327.5,590.36l0.12-0.61l2.02-9.89
		c0.78-3.83-1.04-7.57-4.54-9.31c-9.21-4.59-19.11-8.02-29.5-10.07c-3.92-0.78-7.74,1.19-9.39,4.82l-3.91,8.59l-0.26,0.57
		c-1.41,3.1-4.33,4.98-7.74,4.98c-3.41,0-6.33-1.88-7.74-4.98l-0.26-0.57l-4.17-9.18c-1.62-3.55-5.29-5.51-9.14-4.87
		c-10.46,1.75-20.46,4.87-29.79,9.18c-3.63,1.67-5.57,5.51-4.77,9.42l1.89,9.25l0.12,0.61c0.68,3.34-0.57,6.58-3.33,8.58
		c-2.76,2-6.22,2.2-9.19,0.52l-0.54-0.31l-8.76-4.96c-3.4-1.93-7.53-1.35-10.26,1.44c-7.28,7.42-13.58,15.79-18.71,24.91
		c-1.96,3.49-1.28,7.74,1.67,10.44l6.96,6.37l0.46,0.42c2.52,2.3,3.4,5.66,2.35,8.9c-1.05,3.24-3.74,5.44-7.13,5.82l-0.62,0.07
		l-10.02,1.13c-3.89,0.44-6.89,3.34-7.46,7.21c-0.83,5.65-1.26,11.44-1.26,17.32c0,4.67,0.27,9.28,0.8,13.81
		c0.46,3.97,3.51,7.01,7.49,7.46l9.36,1.06l0.62,0.07c3.39,0.38,6.08,2.58,7.13,5.82c1.05,3.24,0.17,6.6-2.35,8.9l-0.46,0.42
		l-7.44,6.81c-2.89,2.64-3.61,6.75-1.8,10.21c4.85,9.28,10.91,17.84,17.95,25.46c2.71,2.93,6.96,3.6,10.44,1.63l8.19-4.64l0.54-0.31
		c2.97-1.68,6.43-1.49,9.19,0.52c2.76,2.01,4.02,5.24,3.33,8.58l-0.12,0.61l-2.02,9.89c-0.78,3.83,1.04,7.57,4.54,9.31
		c9.21,4.59,19.11,8.02,29.5,10.07c3.92,0.78,7.74-1.19,9.39-4.82l3.91-8.59l0.26-0.57c1.41-3.11,4.33-4.98,7.74-4.98
		c3.41,0,6.33,1.88,7.74,4.98l0.26,0.57l4.17,9.18c1.62,3.55,5.29,5.51,9.14,4.87c10.46-1.75,20.46-4.87,29.79-9.18
		c3.63-1.67,5.57-5.51,4.77-9.42l-1.89-9.25l-0.12-0.61c-0.68-3.34,0.57-6.58,3.33-8.58c2.76-2.01,6.22-2.2,9.19-0.52l0.54,0.31
		l8.76,4.96c3.4,1.93,7.53,1.35,10.26-1.44c7.28-7.42,13.58-15.79,18.71-24.91c1.96-3.49,1.28-7.74-1.67-10.44l-6.96-6.37
		l-0.46-0.42c-2.52-2.3-3.4-5.66-2.35-8.9c1.05-3.24,3.74-5.44,7.13-5.82l0.62-0.07l10.02-1.13c3.89-0.44,6.89-3.34,7.46-7.21
		c0.83-5.65,1.26-11.44,1.26-17.32c0-4.67-0.27-9.28-0.8-13.81c-0.46-3.97-3.51-7.01-7.49-7.46l-9.36-1.06l-0.62-0.07
		c-3.39-0.38-6.08-2.58-7.13-5.82c-1.05-3.24-0.17-6.6,2.35-8.9l0.46-0.42l7.44-6.81c2.89-2.64,3.61-6.75,1.8-10.21
		c-4.85-9.28-10.91-17.84-17.95-25.46c-2.71-2.93-6.96-3.6-10.44-1.63l-8.19,4.64l-0.54,0.31c-2.97,1.68-6.43,1.49-9.19-0.52
		C328.07,596.94,326.81,593.71,327.5,590.36L327.5,590.36z M386.64,549.73c-7.24,0-13.61,3.68-17.36,9.27
		c-1.74,2.6-1.94,5.69-0.56,8.5c1.38,2.8,3.96,4.52,7.08,4.72c6.14,0.39,11.31,3.86,13.57,8.66c1.35,2.88,3.97,4.66,7.14,4.87
		c3.17,0.21,6-1.22,7.71-3.9c2.08-3.24,3.28-7.1,3.28-11.24C407.51,559.07,398.17,549.73,386.64,549.73L386.64,549.73z
		 M386.64,802.64c-7.24,0-13.61-3.68-17.36-9.27c-1.74-2.6-1.94-5.69-0.56-8.5c1.38-2.8,3.96-4.52,7.08-4.72
		c6.14-0.39,11.31-3.86,13.57-8.66c1.35-2.88,3.97-4.66,7.14-4.87c3.17-0.21,6,1.22,7.71,3.9c2.08,3.24,3.28,7.1,3.28,11.24
		C407.51,793.29,398.17,802.64,386.64,802.64L386.64,802.64z M158.55,802.64c7.24,0,13.61-3.68,17.36-9.27
		c1.74-2.6,1.94-5.69,0.56-8.5c-1.38-2.8-3.96-4.52-7.08-4.72c-6.14-0.39-11.31-3.86-13.57-8.66c-1.35-2.88-3.97-4.66-7.14-4.87
		c-3.17-0.21-6,1.22-7.71,3.9c-2.08,3.24-3.28,7.1-3.28,11.24C137.68,793.29,147.02,802.64,158.55,802.64z"/>
	<polygon class="st3" points="452.35,696.27 452.35,656.09 460.85,656.09 460.85,615.91 452.35,615.91 452.35,575.73 460.85,575.73 
		460.85,535.55 520.51,535.55 520.51,527.05 580.16,527.05 580.16,535.55 639.81,535.55 639.81,527.05 699.47,527.05 699.47,535.55 
		759.12,535.55 759.12,575.73 767.62,575.73 767.62,615.91 759.12,615.91 759.12,656.09 767.62,656.09 767.62,696.27 759.12,696.27 
		759.12,736.45 767.62,736.45 767.62,776.63 759.12,776.63 759.12,816.81 699.47,816.81 699.47,825.32 639.81,825.32 639.81,816.81 
		580.16,816.81 580.16,825.32 520.51,825.32 520.51,816.81 460.85,816.81 460.85,776.63 452.35,776.63 452.35,736.45 460.85,736.45 
		460.85,696.27 	"/>
	<rect x="520.5" y="458.8" class="st3" width="59.65" height="8.5"/>
	<polygon class="st3" points="737.15,493.73 738.14,494.01 740.17,494.34 759.12,494.4 759.12,434.5 767.62,434.5 767.62,374.59 
		759.12,374.59 759.12,314.69 767.62,314.69 767.62,254.78 759.12,254.78 759.12,194.88 699.47,194.88 699.47,203.38 639.81,203.38 
		639.81,194.88 580.16,194.88 580.16,203.38 520.5,203.38 520.5,194.88 460.85,194.88 460.85,254.78 452.35,254.78 452.35,314.69 
		460.85,314.69 460.85,374.59 452.35,374.59 452.35,434.5 460.85,434.5 460.85,494.4 479.92,494.34 481.32,494.14 483.72,493.46 
		484.69,493.04 486.61,491.92 488.33,490.5 489.7,488.96 491.71,485.75 492.95,484.11 494.4,482.64 496.19,481.27 497.8,480.34 
		499.69,479.54 501.88,478.96 503.72,478.71 714.78,478.64 716.37,478.71 718.41,479 719.86,479.37 722.29,480.34 724.82,481.92 
		727,483.96 728.38,485.75 729.8,488.13 731.59,490.34 733.19,491.72 735.08,492.89 	"/>
	<rect x="639.81" y="458.8" class="st3" width="59.65" height="8.5"/>
	<path class="st3" d="M196.47,418.71l9.78-12.22c0.38-0.48,1-0.65,1.58-0.45c0.58,0.2,0.95,0.72,0.95,1.34v19.42
		c0,0.55,0.29,1.02,0.78,1.27c15.76,7.94,34,12.44,54.48,11.96c76.95,0,121.65-66.18,123.78-122.16c0.11-2.85-1.66-5.33-4.39-6.16
		c-2.73-0.83-5.58,0.26-7.08,2.69c-10.27,16.75-22.78,30.99-38.25,41.94c-1.26,0.89-2.06,2.06-2.43,3.56l-5.74,23.18
		c-0.63,2.55-2.68,4.35-5.29,4.66c-2.61,0.31-5.02-0.98-6.22-3.31l-4.58-8.89c-1.42-2.76-4.6-4.03-7.53-3.02
		c-32.14,11.12-65.15,9.64-96.23-4.64c-0.9-0.41-1.85-0.39-2.73,0.07c-0.88,0.46-1.44,1.23-1.61,2.2l-1.2,6.78
		c-0.26,1.44-1.45,2.49-2.91,2.55c-1.47,0.07-2.74-0.87-3.13-2.28l-4.7-17.34c-0.2-0.75-0.62-1.33-1.27-1.76
		c-16.64-11.15-29.96-26.02-40.79-43.67c-1.49-2.44-4.35-3.52-7.08-2.69c-2.73,0.83-4.5,3.32-4.39,6.17
		c1.43,36.17,20.55,76.97,54.27,101.07C195.16,419.42,196,419.3,196.47,418.71L196.47,418.71z M275.57,338.69
		c-2.27-2.39-4.51-4.96-6.71-7.7c-1.22-1.51-2.89-2.31-4.83-2.31c-1.94,0-3.61,0.8-4.83,2.31c-2.2,2.74-4.44,5.31-6.71,7.7
		c-1.57,1.65-2.09,3.85-1.44,6.03c0.65,2.18,2.29,3.73,4.51,4.26c5.79,1.37,11.15,1.37,16.94,0c2.22-0.52,3.86-2.07,4.51-4.26
		C277.67,342.54,277.14,340.34,275.57,338.69L275.57,338.69z M305.55,218.41c-19.98,5.99-28.53,36.32-19.11,67.74
		c5.31,17.71,15.21,31.99,26.41,40c1.97,1.41,4.41,1.56,6.55,0.41c2.13-1.15,3.34-3.28,3.24-5.7c-0.32-7.67,2.6-14.02,7.78-15.58
		c5.58-1.67,12.05,2.76,15.96,10.31c1.11,2.15,3.21,3.39,5.62,3.35c2.42-0.05,4.46-1.38,5.49-3.57c6.11-13.07,7.04-31.8,1.3-50.93
		C349.37,233.02,325.53,212.41,305.55,218.41L305.55,218.41z M188.57,285.84c3.7,2.21,5.12,8.58,3.15,15.16
		c-1.41,4.71-4.23,8.38-7.29,10.01c-2.71,1.44-3.95,4.57-2.95,7.47c2.42,7.07,6.84,12.25,12.85,14.05c13.02,3.91,28.56-9.53,34.7-30
		c6.14-20.48,0.57-40.24-12.45-44.15c-10.57-3.17-22.79,5.07-30.3,19.23C184.72,280.54,185.73,284.15,188.57,285.84z"/>
	<polygon class="st3" points="364.5,203.38 324.32,203.38 324.32,194.88 284.14,194.88 284.14,203.38 243.96,203.38 243.96,194.88 
		203.78,194.88 203.78,203.38 163.6,203.38 163.6,194.88 114.91,194.88 114.91,254.78 123.42,254.78 123.42,314.69 114.91,314.69 
		114.91,374.59 123.42,374.59 123.42,434.5 114.91,434.5 114.91,494.4 133.98,494.34 135.38,494.14 137.78,493.46 138.75,493.04 
		140.67,491.92 142.39,490.5 143.76,488.96 145.89,485.58 147.15,483.96 148.61,482.51 150.08,481.38 152.04,480.25 153.75,479.54 
		155.39,479.07 157.78,478.71 370.43,478.71 372.47,479 374.46,479.54 376.17,480.25 377.96,481.27 379.6,482.51 380.82,483.69 
		382.12,485.29 383.86,488.13 384.69,489.27 386.43,491.06 387.25,491.72 389.14,492.89 391.21,493.73 393.21,494.21 394.23,494.34 
		413.18,494.4 413.18,434.5 404.68,434.5 404.68,374.59 413.18,374.59 413.18,314.69 404.68,314.69 404.68,254.78 413.18,254.78 
		413.18,194.88 364.5,194.88 	"/>
	<rect x="163.6" y="458.8" class="st3" width="40.18" height="8.5"/>
	<rect x="243.96" y="458.8" class="st3" width="40.18" height="8.5"/>
	<rect x="324.32" y="458.8" class="st3" width="40.18" height="8.5"/>
	<rect x="120.08" y="935.89" class="st4" width="85.04" height="85.04"/>
	<path class="st5" d="M146.41,971.25l2.33-0.23c0.14,0.78,0.42,1.35,0.85,1.72c0.43,0.37,1,0.55,1.73,0.55
		c0.77,0,1.35-0.16,1.73-0.49c0.39-0.33,0.58-0.71,0.58-1.14c0-0.28-0.08-0.52-0.25-0.72c-0.16-0.2-0.45-0.37-0.86-0.51
		c-0.28-0.1-0.91-0.27-1.9-0.52c-1.28-0.32-2.17-0.71-2.69-1.18c-0.72-0.65-1.09-1.45-1.09-2.39c0-0.6,0.17-1.17,0.51-1.7
		c0.34-0.53,0.83-0.93,1.47-1.2c0.64-0.28,1.41-0.41,2.32-0.41c1.48,0,2.6,0.33,3.34,0.99c0.75,0.66,1.14,1.54,1.18,2.64l-2.4,0.08
		c-0.1-0.61-0.32-1.05-0.65-1.32c-0.33-0.27-0.84-0.4-1.5-0.4c-0.69,0-1.23,0.14-1.62,0.43c-0.25,0.18-0.38,0.43-0.38,0.74
		c0,0.28,0.12,0.52,0.36,0.72c0.3,0.26,1.03,0.52,2.19,0.8c1.16,0.27,2.02,0.56,2.57,0.85c0.56,0.3,0.99,0.69,1.31,1.21
		c0.31,0.51,0.47,1.14,0.47,1.89c0,0.68-0.19,1.32-0.56,1.91c-0.38,0.59-0.91,1.03-1.6,1.32c-0.69,0.29-1.55,0.43-2.58,0.43
		c-1.5,0-2.65-0.34-3.45-1.04C147.05,973.58,146.57,972.57,146.41,971.25L146.41,971.25z M158.06,965.35v-2.1h2.27v2.1H158.06
		L158.06,965.35z M158.06,975.09v-8.58h2.27v8.58H158.06L158.06,975.09z M161.73,975.09v-1.79l3.21-3.68
		c0.53-0.6,0.92-1.03,1.17-1.28c-0.26,0.02-0.61,0.03-1.04,0.03l-3.03,0.02v-1.89h7.1v1.6l-3.28,3.78l-1.15,1.25
		c0.63-0.03,1.02-0.05,1.17-0.05h3.51v2H161.73L161.73,975.09z M175.89,972.38l2.27,0.38c-0.29,0.83-0.75,1.46-1.38,1.9
		c-0.63,0.43-1.41,0.65-2.35,0.65c-1.49,0-2.6-0.49-3.31-1.46c-0.57-0.78-0.85-1.77-0.85-2.96c0-1.42,0.37-2.54,1.11-3.34
		c0.74-0.81,1.68-1.21,2.82-1.21c1.27,0,2.28,0.42,3.02,1.27c0.74,0.84,1.09,2.14,1.06,3.88h-5.67c0.02,0.67,0.2,1.2,0.55,1.57
		c0.35,0.37,0.78,0.56,1.3,0.56c0.36,0,0.65-0.1,0.89-0.29C175.58,973.12,175.76,972.81,175.89,972.38L175.89,972.38z
		 M176.02,970.08c-0.02-0.66-0.18-1.16-0.51-1.5c-0.32-0.34-0.71-0.52-1.18-0.52c-0.49,0-0.9,0.18-1.22,0.54
		c-0.32,0.36-0.48,0.85-0.47,1.48H176.02L176.02,970.08z M128.5,993.57h-2.27v-8.58h2.1v1.22c0.36-0.58,0.69-0.95,0.98-1.13
		c0.29-0.18,0.62-0.27,0.98-0.27c0.52,0,1.02,0.14,1.5,0.43l-0.7,1.98c-0.38-0.25-0.74-0.37-1.07-0.37c-0.32,0-0.59,0.09-0.81,0.26
		c-0.22,0.18-0.39,0.49-0.52,0.95c-0.13,0.46-0.19,1.42-0.19,2.88V993.57L128.5,993.57z M137.73,990.86l2.27,0.38
		c-0.29,0.83-0.75,1.46-1.38,1.9c-0.63,0.43-1.41,0.65-2.35,0.65c-1.49,0-2.6-0.49-3.31-1.46c-0.57-0.78-0.85-1.77-0.85-2.96
		c0-1.42,0.37-2.54,1.11-3.34c0.74-0.81,1.68-1.21,2.82-1.21c1.27,0,2.28,0.42,3.02,1.27c0.74,0.84,1.09,2.14,1.06,3.88h-5.67
		c0.02,0.67,0.2,1.2,0.55,1.57c0.35,0.38,0.78,0.56,1.3,0.56c0.36,0,0.65-0.1,0.89-0.29C137.43,991.6,137.61,991.29,137.73,990.86
		L137.73,990.86z M137.87,988.56c-0.02-0.66-0.18-1.16-0.51-1.5c-0.32-0.34-0.71-0.52-1.18-0.52c-0.49,0-0.9,0.18-1.22,0.54
		c-0.32,0.36-0.48,0.85-0.47,1.48H137.87L137.87,988.56z M140.98,984.98h1.26v-0.65c0-0.72,0.08-1.26,0.23-1.62
		c0.15-0.36,0.44-0.65,0.85-0.87c0.42-0.22,0.94-0.34,1.57-0.34c0.65,0,1.28,0.1,1.91,0.29l-0.29,1.58
		c-0.37-0.09-0.72-0.13-1.07-0.13c-0.34,0-0.58,0.08-0.72,0.23c-0.15,0.15-0.22,0.45-0.22,0.89v0.61h1.7v1.79h-1.7v6.8h-2.27v-6.8
		h-1.26V984.98L140.98,984.98z M152.44,990.86l2.27,0.38c-0.29,0.83-0.75,1.46-1.38,1.9c-0.63,0.43-1.41,0.65-2.35,0.65
		c-1.49,0-2.6-0.49-3.31-1.46c-0.57-0.78-0.85-1.77-0.85-2.96c0-1.42,0.37-2.54,1.11-3.34c0.74-0.81,1.68-1.21,2.82-1.21
		c1.27,0,2.28,0.42,3.02,1.27c0.74,0.84,1.09,2.14,1.06,3.88h-5.67c0.02,0.67,0.2,1.2,0.55,1.57c0.35,0.38,0.78,0.56,1.3,0.56
		c0.36,0,0.65-0.1,0.89-0.29C152.13,991.6,152.32,991.29,152.44,990.86L152.44,990.86z M152.57,988.56
		c-0.02-0.66-0.18-1.16-0.51-1.5c-0.32-0.34-0.71-0.52-1.18-0.52c-0.49,0-0.9,0.18-1.22,0.54c-0.32,0.36-0.48,0.85-0.47,1.48H152.57
		L152.57,988.56z M158.84,993.57h-2.27v-8.58h2.1v1.22c0.36-0.58,0.69-0.95,0.98-1.13c0.29-0.18,0.62-0.27,0.98-0.27
		c0.52,0,1.02,0.14,1.5,0.43l-0.7,1.98c-0.38-0.25-0.74-0.37-1.07-0.37c-0.32,0-0.59,0.09-0.81,0.26c-0.22,0.18-0.39,0.49-0.52,0.95
		c-0.13,0.46-0.19,1.42-0.19,2.88V993.57L158.84,993.57z M168.08,990.86l2.27,0.38c-0.29,0.83-0.75,1.46-1.38,1.9
		c-0.63,0.43-1.41,0.65-2.35,0.65c-1.49,0-2.6-0.49-3.31-1.46c-0.57-0.78-0.85-1.77-0.85-2.96c0-1.42,0.37-2.54,1.11-3.34
		c0.74-0.81,1.68-1.21,2.82-1.21c1.27,0,2.28,0.42,3.02,1.27c0.74,0.84,1.09,2.14,1.06,3.88h-5.67c0.02,0.67,0.2,1.2,0.55,1.57
		c0.35,0.38,0.78,0.56,1.3,0.56c0.36,0,0.65-0.1,0.89-0.29C167.77,991.6,167.95,991.29,168.08,990.86L168.08,990.86z M168.21,988.56
		c-0.02-0.66-0.18-1.16-0.51-1.5c-0.32-0.34-0.71-0.52-1.18-0.52c-0.49,0-0.9,0.18-1.22,0.54c-0.32,0.36-0.48,0.85-0.47,1.48H168.21
		L168.21,988.56z M180.12,993.57h-2.27v-4.38c0-0.93-0.05-1.52-0.15-1.79c-0.1-0.27-0.26-0.48-0.48-0.63
		c-0.22-0.15-0.49-0.23-0.79-0.23c-0.4,0-0.75,0.11-1.07,0.32c-0.32,0.21-0.53,0.5-0.65,0.85c-0.12,0.36-0.18,1.01-0.18,1.97v3.88
		h-2.27v-8.58h2.1v1.26c0.75-0.96,1.7-1.44,2.84-1.44c0.5,0,0.96,0.09,1.38,0.27c0.42,0.18,0.73,0.41,0.95,0.69
		c0.21,0.28,0.36,0.6,0.45,0.95c0.09,0.36,0.13,0.86,0.13,1.52V993.57L180.12,993.57z M189.89,987.53l-2.23,0.4
		c-0.07-0.44-0.25-0.78-0.51-1c-0.27-0.22-0.61-0.34-1.04-0.34c-0.57,0-1.02,0.2-1.35,0.59c-0.34,0.39-0.5,1.04-0.5,1.96
		c0,1.02,0.17,1.74,0.51,2.16c0.34,0.42,0.8,0.63,1.37,0.63c0.43,0,0.78-0.12,1.06-0.37c0.28-0.25,0.47-0.67,0.58-1.27l2.23,0.38
		c-0.23,1.03-0.68,1.8-1.33,2.32c-0.66,0.52-1.54,0.79-2.64,0.79c-1.25,0-2.25-0.4-3-1.19c-0.75-0.79-1.12-1.89-1.12-3.29
		c0-1.42,0.38-2.52,1.12-3.31c0.75-0.79,1.76-1.19,3.04-1.19c1.04,0,1.87,0.23,2.49,0.68C189.18,985.93,189.62,986.61,189.89,987.53
		L189.89,987.53z M196.58,990.86l2.27,0.38c-0.29,0.83-0.75,1.46-1.38,1.9c-0.63,0.43-1.41,0.65-2.35,0.65
		c-1.49,0-2.6-0.49-3.31-1.46c-0.57-0.78-0.85-1.77-0.85-2.96c0-1.42,0.37-2.54,1.11-3.34c0.74-0.81,1.68-1.21,2.82-1.21
		c1.27,0,2.28,0.42,3.02,1.27c0.74,0.84,1.09,2.14,1.06,3.88h-5.67c0.02,0.67,0.2,1.2,0.55,1.57c0.35,0.38,0.78,0.56,1.3,0.56
		c0.36,0,0.65-0.1,0.89-0.29C196.27,991.6,196.46,991.29,196.58,990.86L196.58,990.86z M196.71,988.56
		c-0.02-0.66-0.18-1.16-0.51-1.5c-0.32-0.34-0.71-0.52-1.18-0.52c-0.49,0-0.9,0.18-1.22,0.54c-0.32,0.36-0.48,0.85-0.47,1.48H196.71
		z"/>
	<line class="st6" x1="212.21" y1="1020.93" x2="261.49" y2="1020.93"/>
	<line class="st6" x1="212.21" y1="935.89" x2="261.49" y2="935.89"/>
	<line class="st6" x1="254.4" y1="993.94" x2="254.4" y2="1020.93"/>
	<line class="st6" x1="254.4" y1="935.89" x2="254.4" y2="961.87"/>
	<path class="st7" d="M256.43,990.27l-0.14-1.06c0.6-0.12,1.03-0.33,1.3-0.62c0.26-0.29,0.4-0.65,0.4-1.07
		c0-0.5-0.17-0.92-0.52-1.26c-0.34-0.34-0.77-0.51-1.28-0.51c-0.48,0-0.88,0.16-1.2,0.48c-0.31,0.32-0.47,0.72-0.47,1.21
		c0,0.2,0.04,0.45,0.12,0.75l-0.92-0.12c0.01-0.07,0.01-0.13,0.01-0.17c0-0.45-0.12-0.86-0.35-1.22c-0.23-0.36-0.59-0.54-1.08-0.54
		c-0.39,0-0.71,0.13-0.96,0.39c-0.25,0.26-0.38,0.6-0.38,1.01c0,0.41,0.13,0.75,0.39,1.03c0.26,0.27,0.65,0.45,1.17,0.53l-0.19,1.06
		c-0.71-0.13-1.26-0.42-1.65-0.88c-0.39-0.46-0.58-1.03-0.58-1.71c0-0.47,0.1-0.9,0.3-1.29c0.2-0.4,0.47-0.7,0.82-0.91
		c0.35-0.21,0.72-0.31,1.11-0.31c0.37,0,0.71,0.1,1.01,0.3c0.3,0.2,0.55,0.5,0.73,0.89c0.12-0.51,0.36-0.9,0.73-1.18
		c0.37-0.28,0.83-0.42,1.39-0.42c0.75,0,1.39,0.27,1.91,0.82c0.52,0.55,0.78,1.24,0.78,2.08c0,0.75-0.23,1.38-0.68,1.88
		C257.73,989.92,257.15,990.2,256.43,990.27L256.43,990.27z M256.43,975.91l0.14-1.03c0.71,0.11,1.26,0.4,1.67,0.87
		c0.4,0.47,0.6,1.04,0.6,1.72c0,0.85-0.28,1.53-0.83,2.05c-0.56,0.52-1.35,0.78-2.39,0.78c-0.67,0-1.26-0.11-1.76-0.33
		c-0.5-0.22-0.88-0.56-1.13-1.02c-0.25-0.45-0.38-0.95-0.38-1.48c0-0.67,0.17-1.23,0.51-1.66c0.34-0.43,0.83-0.71,1.46-0.83
		l0.16,1.02c-0.42,0.1-0.73,0.27-0.94,0.52c-0.21,0.25-0.32,0.55-0.32,0.9c0,0.53,0.19,0.96,0.57,1.3c0.38,0.33,0.98,0.5,1.81,0.5
		c0.84,0,1.44-0.16,1.82-0.48c0.38-0.32,0.57-0.74,0.57-1.25c0-0.42-0.13-0.76-0.38-1.04C257.35,976.16,256.96,975.98,256.43,975.91
		L256.43,975.91z M258.71,973.98h-6.23v-0.95h0.88c-0.3-0.19-0.55-0.45-0.73-0.78c-0.19-0.32-0.28-0.69-0.28-1.11
		c0-0.46,0.1-0.84,0.29-1.13c0.19-0.29,0.46-0.5,0.8-0.62c-0.73-0.5-1.09-1.14-1.09-1.93c0-0.62,0.17-1.1,0.51-1.43
		c0.34-0.33,0.87-0.5,1.58-0.5h4.27v1.06h-3.92c-0.42,0-0.72,0.04-0.91,0.1c-0.19,0.07-0.33,0.19-0.45,0.37
		c-0.11,0.18-0.17,0.39-0.17,0.63c0,0.44,0.15,0.8,0.44,1.09c0.29,0.29,0.76,0.43,1.4,0.43h3.61v1.06h-4.04
		c-0.47,0-0.82,0.09-1.05,0.26c-0.23,0.17-0.35,0.45-0.35,0.84c0,0.3,0.08,0.57,0.23,0.82c0.16,0.25,0.38,0.43,0.69,0.55
		c0.3,0.11,0.73,0.17,1.3,0.17h3.23V973.98z"/>
	<line class="st6" x1="120.08" y1="1028.01" x2="120.08" y2="1067.71"/>
	<line class="st6" x1="205.12" y1="1028.01" x2="205.12" y2="1067.71"/>
	<line class="st6" x1="147.07" y1="1060.63" x2="120.08" y2="1060.63"/>
	<line class="st6" x1="205.12" y1="1060.63" x2="179.14" y2="1060.63"/>
	<path class="st7" d="M150.73,1062.66l1.06-0.14c0.12,0.6,0.33,1.03,0.62,1.3c0.29,0.26,0.65,0.4,1.07,0.4
		c0.5,0,0.92-0.17,1.26-0.52c0.34-0.34,0.51-0.77,0.51-1.28c0-0.48-0.16-0.88-0.48-1.2c-0.32-0.31-0.72-0.47-1.21-0.47
		c-0.2,0-0.45,0.04-0.75,0.12l0.12-0.92c0.07,0.01,0.13,0.01,0.17,0.01c0.45,0,0.86-0.12,1.22-0.35c0.36-0.23,0.54-0.59,0.54-1.08
		c0-0.39-0.13-0.71-0.39-0.96c-0.26-0.25-0.6-0.38-1.01-0.38c-0.41,0-0.75,0.13-1.03,0.39c-0.27,0.26-0.45,0.65-0.53,1.17
		l-1.06-0.19c0.13-0.71,0.42-1.26,0.88-1.65c0.46-0.39,1.03-0.58,1.71-0.58c0.47,0,0.9,0.1,1.29,0.3c0.4,0.2,0.7,0.47,0.91,0.82
		c0.21,0.35,0.31,0.72,0.31,1.11c0,0.37-0.1,0.71-0.3,1.01c-0.2,0.3-0.5,0.55-0.89,0.73c0.51,0.12,0.9,0.36,1.18,0.73
		c0.28,0.37,0.42,0.83,0.42,1.39c0,0.75-0.27,1.39-0.82,1.91c-0.55,0.52-1.24,0.78-2.08,0.78c-0.75,0-1.38-0.23-1.88-0.68
		C151.09,1063.96,150.8,1063.38,150.73,1062.66L150.73,1062.66z M165.1,1062.66l1.03,0.14c-0.11,0.71-0.4,1.26-0.87,1.67
		c-0.47,0.4-1.04,0.6-1.72,0.6c-0.85,0-1.53-0.28-2.05-0.83c-0.52-0.56-0.78-1.35-0.78-2.39c0-0.67,0.11-1.26,0.33-1.76
		c0.22-0.5,0.56-0.88,1.02-1.13c0.45-0.25,0.95-0.38,1.48-0.38c0.67,0,1.23,0.17,1.66,0.51c0.43,0.34,0.71,0.83,0.83,1.46
		l-1.02,0.16c-0.1-0.42-0.27-0.73-0.52-0.94c-0.25-0.21-0.55-0.32-0.9-0.32c-0.53,0-0.96,0.19-1.3,0.57
		c-0.33,0.38-0.5,0.98-0.5,1.81c0,0.84,0.16,1.44,0.48,1.82c0.32,0.38,0.74,0.57,1.25,0.57c0.42,0,0.76-0.13,1.04-0.38
		C164.85,1063.58,165.02,1063.19,165.1,1062.66L165.1,1062.66z M167.03,1064.94v-6.23h0.95v0.88c0.19-0.3,0.45-0.55,0.78-0.73
		c0.32-0.19,0.69-0.28,1.11-0.28c0.46,0,0.84,0.1,1.13,0.29c0.29,0.19,0.5,0.46,0.62,0.8c0.5-0.73,1.14-1.09,1.93-1.09
		c0.62,0,1.1,0.17,1.43,0.51c0.33,0.34,0.5,0.87,0.5,1.58v4.27h-1.06v-3.92c0-0.42-0.04-0.72-0.1-0.91
		c-0.07-0.19-0.19-0.33-0.37-0.45c-0.18-0.11-0.39-0.17-0.63-0.17c-0.44,0-0.8,0.15-1.09,0.44c-0.29,0.29-0.43,0.76-0.43,1.4v3.61
		h-1.06v-4.04c0-0.47-0.09-0.82-0.26-1.05c-0.17-0.23-0.45-0.35-0.84-0.35c-0.3,0-0.57,0.08-0.82,0.23
		c-0.25,0.16-0.43,0.38-0.55,0.69c-0.11,0.3-0.17,0.73-0.17,1.3v3.23H167.03z"/>
	<line class="st6" x1="205.12" y1="1028.01" x2="205.12" y2="1046.6"/>
	<line class="st6" x1="120.08" y1="1028.01" x2="120.08" y2="1046.6"/>
	<line class="st6" x1="231.57" y1="1039.52" x2="205.12" y2="1039.52"/>
	<line class="st6" x1="120.08" y1="1039.52" x2="93.62" y2="1039.52"/>
	<path class="st7" d="M137.25,1043.83h-1.06v-6.72c-0.25,0.24-0.59,0.49-1,0.73c-0.41,0.24-0.78,0.42-1.11,0.54v-1.02
		c0.59-0.28,1.11-0.61,1.55-1.01c0.44-0.39,0.76-0.78,0.94-1.15h0.68V1043.83L137.25,1043.83z M140.55,1043.83v-1.2h1.2v1.2H140.55
		L140.55,1043.83z M147.26,1043.83h-1.06v-6.72c-0.25,0.24-0.59,0.49-1,0.73c-0.41,0.24-0.78,0.42-1.11,0.54v-1.02
		c0.59-0.28,1.11-0.61,1.55-1.01c0.44-0.39,0.76-0.78,0.94-1.15h0.68V1043.83L147.26,1043.83z M151.6,1039.17
		c-0.44-0.16-0.76-0.39-0.97-0.69c-0.21-0.3-0.32-0.65-0.32-1.07c0-0.63,0.22-1.15,0.67-1.58c0.45-0.43,1.05-0.64,1.79-0.64
		c0.75,0,1.35,0.22,1.81,0.65c0.46,0.44,0.68,0.97,0.68,1.59c0,0.4-0.1,0.75-0.31,1.04c-0.21,0.3-0.52,0.52-0.95,0.68
		c0.53,0.17,0.92,0.45,1.2,0.83c0.27,0.38,0.41,0.84,0.41,1.37c0,0.73-0.26,1.35-0.78,1.85c-0.52,0.5-1.2,0.75-2.05,0.75
		c-0.85,0-1.53-0.25-2.05-0.75c-0.52-0.5-0.78-1.13-0.78-1.88c0-0.56,0.14-1.03,0.43-1.4
		C150.67,1039.56,151.07,1039.31,151.6,1039.17L151.6,1039.17z M151.39,1037.38c0,0.41,0.13,0.74,0.39,1
		c0.26,0.26,0.6,0.39,1.02,0.39c0.41,0,0.74-0.13,1-0.38c0.26-0.26,0.39-0.57,0.39-0.94c0-0.39-0.13-0.71-0.4-0.98
		c-0.26-0.26-0.6-0.4-1-0.4c-0.41,0-0.74,0.13-1,0.39C151.52,1036.71,151.39,1037.02,151.39,1037.38L151.39,1037.38z
		 M151.04,1041.35c0,0.3,0.07,0.59,0.21,0.87c0.14,0.28,0.35,0.5,0.64,0.65c0.28,0.15,0.59,0.23,0.91,0.23
		c0.51,0,0.92-0.16,1.25-0.49c0.33-0.32,0.49-0.74,0.49-1.24c0-0.51-0.17-0.93-0.5-1.26c-0.34-0.33-0.76-0.5-1.27-0.5
		c-0.5,0-0.91,0.16-1.23,0.49C151.2,1040.45,151.04,1040.86,151.04,1041.35L151.04,1041.35z M160.27,1036.44v-1.2h1.06v1.2H160.27
		L160.27,1036.44z M160.27,1043.83v-6.23h1.06v6.23H160.27L160.27,1043.83z M162.93,1043.83v-6.23h0.95v0.88
		c0.46-0.68,1.12-1.02,1.98-1.02c0.38,0,0.72,0.07,1.03,0.2c0.31,0.13,0.55,0.31,0.71,0.53c0.16,0.22,0.27,0.48,0.33,0.78
		c0.04,0.2,0.06,0.54,0.06,1.03v3.82h-1.06v-3.78c0-0.43-0.04-0.75-0.12-0.96c-0.08-0.21-0.23-0.38-0.44-0.51
		c-0.21-0.13-0.45-0.19-0.73-0.19c-0.45,0-0.83,0.14-1.16,0.43c-0.33,0.28-0.49,0.83-0.49,1.62v3.4H162.93L162.93,1043.83z
		 M173.68,1041.55l1.03,0.14c-0.11,0.71-0.4,1.26-0.87,1.67c-0.47,0.4-1.04,0.6-1.72,0.6c-0.85,0-1.53-0.28-2.05-0.83
		c-0.52-0.56-0.78-1.35-0.78-2.39c0-0.67,0.11-1.26,0.33-1.76c0.22-0.5,0.56-0.88,1.02-1.13c0.45-0.25,0.95-0.38,1.48-0.38
		c0.67,0,1.23,0.17,1.66,0.51c0.43,0.34,0.71,0.83,0.83,1.46l-1.02,0.16c-0.1-0.42-0.27-0.73-0.52-0.94
		c-0.25-0.21-0.55-0.32-0.9-0.32c-0.53,0-0.96,0.19-1.3,0.57c-0.33,0.38-0.5,0.98-0.5,1.81c0,0.84,0.16,1.44,0.48,1.82
		c0.32,0.38,0.74,0.57,1.25,0.57c0.42,0,0.76-0.13,1.04-0.38C173.43,1042.47,173.6,1042.08,173.68,1041.55L173.68,1041.55z
		 M175.61,1043.83v-8.59h1.06v3.09c0.49-0.57,1.11-0.86,1.86-0.86c0.46,0,0.86,0.09,1.2,0.27c0.34,0.18,0.58,0.43,0.73,0.75
		c0.15,0.32,0.22,0.79,0.22,1.39v3.94h-1.06v-3.94c0-0.53-0.11-0.91-0.34-1.15c-0.23-0.24-0.55-0.36-0.96-0.36
		c-0.31,0-0.6,0.08-0.88,0.24c-0.27,0.16-0.47,0.38-0.59,0.66c-0.12,0.28-0.17,0.66-0.17,1.15v3.4H175.61L175.61,1043.83z
		 M186.53,1041.81l1.09,0.14c-0.17,0.63-0.49,1.13-0.95,1.48c-0.46,0.35-1.06,0.53-1.78,0.53c-0.91,0-1.63-0.28-2.16-0.84
		c-0.53-0.56-0.8-1.34-0.8-2.35c0-1.04,0.27-1.86,0.81-2.43c0.54-0.58,1.24-0.87,2.09-0.87c0.83,0,1.51,0.28,2.03,0.85
		c0.53,0.57,0.79,1.36,0.79,2.39c0,0.06,0,0.16-0.01,0.28h-4.64c0.04,0.68,0.23,1.21,0.58,1.57c0.35,0.36,0.78,0.54,1.3,0.54
		c0.39,0,0.72-0.1,0.99-0.31C186.15,1042.59,186.37,1042.26,186.53,1041.81L186.53,1041.81z M183.07,1040.12h3.47
		c-0.05-0.52-0.18-0.92-0.4-1.18c-0.33-0.41-0.77-0.61-1.3-0.61c-0.48,0-0.89,0.16-1.22,0.49
		C183.29,1039.14,183.11,1039.58,183.07,1040.12L183.07,1040.12z M188.54,1041.97l1.04-0.17c0.06,0.42,0.22,0.74,0.49,0.96
		c0.27,0.22,0.64,0.33,1.12,0.33c0.49,0,0.85-0.1,1.08-0.3c0.23-0.2,0.35-0.43,0.35-0.69c0-0.24-0.11-0.43-0.32-0.56
		c-0.15-0.09-0.51-0.21-1.08-0.36c-0.77-0.19-1.31-0.36-1.61-0.5c-0.3-0.14-0.52-0.34-0.68-0.59c-0.15-0.25-0.23-0.53-0.23-0.83
		c0-0.28,0.06-0.53,0.19-0.77c0.13-0.24,0.3-0.43,0.52-0.59c0.16-0.12,0.39-0.22,0.67-0.31c0.28-0.08,0.59-0.13,0.91-0.13
		c0.49,0,0.92,0.07,1.28,0.21c0.37,0.14,0.64,0.33,0.82,0.57c0.17,0.24,0.3,0.56,0.36,0.97l-1.03,0.14
		c-0.05-0.32-0.18-0.58-0.41-0.76c-0.22-0.18-0.54-0.27-0.95-0.27c-0.48,0-0.83,0.08-1.03,0.24c-0.21,0.16-0.31,0.35-0.31,0.56
		c0,0.14,0.04,0.26,0.13,0.37c0.09,0.11,0.22,0.21,0.4,0.28c0.11,0.04,0.41,0.13,0.93,0.27c0.74,0.2,1.26,0.36,1.56,0.49
		c0.3,0.13,0.53,0.31,0.7,0.55c0.17,0.24,0.25,0.54,0.25,0.9c0,0.35-0.1,0.68-0.31,0.99c-0.21,0.31-0.5,0.55-0.89,0.72
		c-0.39,0.17-0.83,0.25-1.31,0.25c-0.81,0-1.43-0.17-1.85-0.5C188.92,1043.12,188.65,1042.63,188.54,1041.97z"/>
	<line class="st6" x1="212.21" y1="1020.93" x2="238.66" y2="1020.93"/>
	<line class="st6" x1="212.21" y1="935.89" x2="238.66" y2="935.89"/>
	<line class="st6" x1="231.57" y1="1047.38" x2="231.57" y2="1020.93"/>
	<line class="st6" x1="231.57" y1="935.89" x2="231.57" y2="909.43"/>
	<path class="st7" d="M235.89,1003.76v1.06h-6.72c0.24,0.25,0.49,0.59,0.73,1c0.24,0.41,0.42,0.78,0.54,1.11h-1.02
		c-0.28-0.59-0.61-1.11-1.01-1.55c-0.39-0.44-0.78-0.76-1.15-0.94v-0.68H235.89L235.89,1003.76z M235.89,1000.45h-1.2v-1.2h1.2
		V1000.45L235.89,1000.45z M235.89,993.75v1.06h-6.72c0.24,0.25,0.49,0.59,0.73,1c0.24,0.41,0.42,0.78,0.54,1.11h-1.02
		c-0.28-0.59-0.61-1.11-1.01-1.55c-0.39-0.44-0.78-0.76-1.15-0.94v-0.68H235.89L235.89,993.75z M231.23,989.41
		c-0.16,0.44-0.39,0.76-0.69,0.97c-0.3,0.21-0.65,0.32-1.07,0.32c-0.63,0-1.15-0.22-1.58-0.67c-0.43-0.45-0.64-1.05-0.64-1.79
		c0-0.75,0.22-1.35,0.65-1.81c0.44-0.46,0.97-0.68,1.59-0.68c0.4,0,0.75,0.1,1.04,0.31c0.3,0.21,0.52,0.52,0.68,0.95
		c0.17-0.53,0.45-0.92,0.83-1.2c0.38-0.27,0.84-0.41,1.37-0.41c0.73,0,1.35,0.26,1.85,0.78c0.5,0.52,0.75,1.2,0.75,2.05
		c0,0.85-0.25,1.53-0.75,2.05c-0.5,0.52-1.13,0.78-1.88,0.78c-0.56,0-1.03-0.14-1.4-0.43C231.62,990.34,231.37,989.93,231.23,989.41
		L231.23,989.41z M229.44,989.62c0.41,0,0.74-0.13,1-0.39c0.26-0.26,0.39-0.6,0.39-1.02c0-0.41-0.13-0.74-0.38-1
		c-0.26-0.26-0.57-0.39-0.94-0.39c-0.39,0-0.71,0.13-0.98,0.4c-0.26,0.26-0.4,0.6-0.4,1c0,0.41,0.13,0.74,0.39,1
		C228.77,989.49,229.08,989.62,229.44,989.62L229.44,989.62z M233.41,989.97c0.3,0,0.59-0.07,0.87-0.21
		c0.28-0.14,0.5-0.35,0.65-0.64c0.15-0.28,0.23-0.59,0.23-0.91c0-0.51-0.16-0.92-0.49-1.25c-0.32-0.33-0.74-0.49-1.24-0.49
		c-0.51,0-0.93,0.17-1.26,0.5c-0.33,0.34-0.5,0.76-0.5,1.27c0,0.5,0.16,0.91,0.49,1.23C232.51,989.8,232.92,989.97,233.41,989.97
		L233.41,989.97z M228.5,980.74h-1.2v-1.06h1.2V980.74L228.5,980.74z M235.89,980.74h-6.23v-1.06h6.23V980.74L235.89,980.74z
		 M235.89,978.07h-6.23v-0.95h0.88c-0.68-0.46-1.02-1.12-1.02-1.98c0-0.38,0.07-0.72,0.2-1.03c0.13-0.31,0.31-0.55,0.53-0.71
		c0.22-0.16,0.48-0.27,0.78-0.33c0.2-0.04,0.54-0.06,1.03-0.06h3.82v1.06h-3.78c-0.43,0-0.75,0.04-0.96,0.12
		c-0.21,0.08-0.38,0.23-0.51,0.44c-0.13,0.21-0.19,0.45-0.19,0.73c0,0.45,0.14,0.83,0.43,1.16c0.28,0.33,0.83,0.49,1.62,0.49h3.4
		V978.07L235.89,978.07z M233.61,967.33l0.14-1.03c0.71,0.11,1.26,0.4,1.67,0.87c0.4,0.47,0.6,1.04,0.6,1.72
		c0,0.85-0.28,1.53-0.83,2.05c-0.56,0.52-1.35,0.78-2.39,0.78c-0.67,0-1.26-0.11-1.76-0.33c-0.5-0.22-0.88-0.56-1.13-1.02
		c-0.25-0.45-0.38-0.95-0.38-1.48c0-0.67,0.17-1.23,0.51-1.66c0.34-0.43,0.83-0.71,1.46-0.83l0.16,1.02
		c-0.42,0.1-0.73,0.27-0.94,0.52c-0.21,0.25-0.32,0.55-0.32,0.9c0,0.53,0.19,0.96,0.57,1.3c0.38,0.33,0.98,0.5,1.81,0.5
		c0.84,0,1.44-0.16,1.82-0.48c0.38-0.32,0.57-0.74,0.57-1.25c0-0.42-0.13-0.76-0.38-1.04C234.52,967.58,234.13,967.4,233.61,967.33
		L233.61,967.33z M235.89,965.4h-8.59v-1.06h3.09c-0.57-0.49-0.86-1.11-0.86-1.86c0-0.46,0.09-0.86,0.27-1.2
		c0.18-0.34,0.43-0.58,0.75-0.73c0.32-0.15,0.79-0.22,1.39-0.22h3.94v1.06h-3.94c-0.53,0-0.91,0.11-1.15,0.34
		c-0.24,0.23-0.36,0.55-0.36,0.96c0,0.31,0.08,0.6,0.24,0.88c0.16,0.27,0.38,0.47,0.66,0.59c0.28,0.12,0.66,0.17,1.15,0.17h3.4
		V965.4L235.89,965.4z M233.87,954.48l0.14-1.09c0.63,0.17,1.13,0.49,1.48,0.95c0.35,0.46,0.53,1.06,0.53,1.78
		c0,0.91-0.28,1.63-0.84,2.16c-0.56,0.53-1.34,0.8-2.35,0.8c-1.04,0-1.86-0.27-2.43-0.81c-0.58-0.54-0.87-1.24-0.87-2.09
		c0-0.83,0.28-1.51,0.85-2.03c0.57-0.53,1.36-0.79,2.39-0.79c0.06,0,0.16,0,0.28,0.01v4.64c0.68-0.04,1.21-0.23,1.57-0.58
		c0.36-0.35,0.54-0.78,0.54-1.3c0-0.39-0.1-0.72-0.31-0.99C234.65,954.85,234.32,954.64,233.87,954.48L233.87,954.48z
		 M232.18,957.93v-3.47c-0.52,0.05-0.92,0.18-1.18,0.4c-0.41,0.33-0.61,0.77-0.61,1.3c0,0.48,0.16,0.89,0.49,1.22
		C231.2,957.71,231.64,957.9,232.18,957.93L232.18,957.93z M234.03,952.47l-0.17-1.04c0.42-0.06,0.74-0.22,0.96-0.49
		c0.22-0.27,0.33-0.64,0.33-1.12c0-0.49-0.1-0.85-0.3-1.08c-0.2-0.23-0.43-0.35-0.69-0.35c-0.24,0-0.43,0.11-0.56,0.32
		c-0.09,0.15-0.21,0.51-0.36,1.08c-0.19,0.77-0.36,1.31-0.5,1.61c-0.14,0.3-0.34,0.52-0.59,0.68c-0.25,0.15-0.53,0.23-0.83,0.23
		c-0.28,0-0.53-0.06-0.77-0.19c-0.24-0.13-0.43-0.3-0.59-0.52c-0.12-0.16-0.22-0.39-0.31-0.67c-0.08-0.28-0.13-0.59-0.13-0.91
		c0-0.49,0.07-0.92,0.21-1.28c0.14-0.37,0.33-0.64,0.57-0.82c0.24-0.17,0.56-0.3,0.97-0.36l0.14,1.03
		c-0.32,0.05-0.58,0.18-0.76,0.41c-0.18,0.22-0.27,0.54-0.27,0.95c0,0.48,0.08,0.83,0.24,1.03c0.16,0.21,0.35,0.31,0.56,0.31
		c0.14,0,0.26-0.04,0.37-0.13c0.11-0.09,0.21-0.22,0.28-0.4c0.04-0.11,0.13-0.41,0.27-0.93c0.2-0.74,0.36-1.26,0.49-1.56
		c0.13-0.3,0.31-0.53,0.55-0.7c0.24-0.17,0.54-0.25,0.9-0.25c0.35,0,0.68,0.1,0.99,0.31c0.31,0.21,0.55,0.5,0.72,0.89
		c0.17,0.39,0.25,0.83,0.25,1.31c0,0.81-0.17,1.43-0.5,1.85C235.18,952.08,234.69,952.35,234.03,952.47z"/>
	<path class="st3" d="M542.43,418.71l9.78-12.22c0.38-0.48,1-0.65,1.58-0.45c0.58,0.2,0.95,0.72,0.95,1.34v19.42
		c0,0.55,0.29,1.02,0.78,1.27c15.76,7.94,34,12.44,54.48,11.96c76.95,0,121.65-66.18,123.78-122.16c0.11-2.85-1.66-5.33-4.39-6.16
		c-2.73-0.83-5.58,0.26-7.08,2.69c-10.27,16.75-22.78,30.99-38.25,41.94c-1.26,0.89-2.06,2.06-2.43,3.56l-5.74,23.18
		c-0.63,2.55-2.68,4.35-5.29,4.66c-2.61,0.31-5.02-0.98-6.22-3.31l-4.58-8.89c-1.42-2.76-4.6-4.03-7.53-3.02
		c-32.14,11.12-65.15,9.64-96.23-4.64c-0.9-0.41-1.85-0.39-2.73,0.07c-0.88,0.46-1.44,1.23-1.61,2.2l-1.2,6.78
		c-0.26,1.44-1.45,2.49-2.91,2.55c-1.47,0.07-2.74-0.87-3.13-2.28l-4.7-17.34c-0.2-0.75-0.62-1.33-1.27-1.76
		c-16.64-11.15-29.96-26.02-40.79-43.67c-1.49-2.44-4.35-3.52-7.08-2.69c-2.73,0.83-4.5,3.32-4.39,6.17
		c1.43,36.17,20.55,76.97,54.27,101.07C541.11,419.42,541.95,419.3,542.43,418.71L542.43,418.71z M621.52,338.69
		c-2.27-2.39-4.51-4.96-6.71-7.7c-1.22-1.51-2.89-2.31-4.83-2.31c-1.94,0-3.61,0.8-4.83,2.31c-2.2,2.74-4.44,5.31-6.71,7.7
		c-1.57,1.65-2.09,3.85-1.44,6.03c0.65,2.18,2.29,3.73,4.51,4.26c5.79,1.37,11.15,1.37,16.94,0c2.22-0.52,3.86-2.07,4.51-4.26
		C623.62,342.54,623.09,340.34,621.52,338.69L621.52,338.69z M651.5,218.41c-19.98,5.99-28.53,36.32-19.11,67.74
		c5.31,17.71,15.21,31.99,26.41,40c1.97,1.41,4.42,1.56,6.55,0.41c2.13-1.15,3.34-3.28,3.24-5.7c-0.32-7.67,2.6-14.02,7.78-15.58
		c5.58-1.67,12.05,2.76,15.96,10.31c1.11,2.15,3.21,3.39,5.62,3.35c2.42-0.05,4.46-1.38,5.49-3.57c6.11-13.07,7.04-31.8,1.3-50.93
		C695.32,233.02,671.48,212.41,651.5,218.41L651.5,218.41z M534.52,285.84c3.7,2.21,5.12,8.58,3.15,15.16
		c-1.41,4.71-4.23,8.38-7.29,10.01c-2.71,1.44-3.95,4.57-2.95,7.47c2.42,7.07,6.84,12.25,12.85,14.05c13.02,3.91,28.56-9.53,34.7-30
		c6.14-20.48,0.57-40.24-12.45-44.15c-10.57-3.17-22.79,5.07-30.3,19.23C530.67,280.54,531.68,284.15,534.52,285.84z"/>
	<path class="st3" d="M1070.71,442h8.5v-59.65h-8.5V442L1070.71,442z M1105.64,225.36l0.27-0.99l0.34-2.03l0.06-18.95h-59.91v-8.5
		h-59.91v8.5H926.6v-8.5H866.7v8.5h-59.91v59.65h8.5v59.65h-8.5v59.65h8.5V442h-8.5v59.65h59.91v8.5h59.91v-8.5h59.91v8.5h59.91
		v-8.5h59.91l-0.07-19.07l-0.2-1.4l-0.68-2.4l-0.42-0.97l-1.12-1.92l-1.42-1.72l-1.54-1.37l-3.21-2.02l-1.64-1.24l-1.47-1.45
		l-1.38-1.79l-0.93-1.61l-0.8-1.89l-0.59-2.19l-0.24-1.84l-0.07-211.06l0.07-1.59l0.28-2.04l0.37-1.45l0.98-2.43l1.58-2.53
		l2.04-2.18l1.79-1.38l2.38-1.42l2.21-1.79l1.38-1.6l1.16-1.89L1105.64,225.36L1105.64,225.36z M1070.71,322.69h8.5v-59.65h-8.5
		V322.69L1070.71,322.69z M1030.62,766.03l-12.22-9.78c-0.48-0.38-0.66-1-0.45-1.58c0.2-0.58,0.72-0.95,1.34-0.95h19.42
		c0.55,0,1.02-0.29,1.27-0.78c7.94-15.76,12.44-34,11.96-54.48c0-76.95-66.18-121.65-122.16-123.78c-2.85-0.11-5.33,1.66-6.16,4.39
		c-0.83,2.73,0.26,5.58,2.69,7.08c16.75,10.27,30.99,22.78,41.94,38.25c0.89,1.26,2.06,2.06,3.56,2.43l23.18,5.75
		c2.55,0.63,4.35,2.68,4.66,5.29c0.31,2.61-0.98,5.02-3.31,6.22l-8.89,4.58c-2.76,1.42-4.03,4.6-3.02,7.53
		c11.12,32.14,9.64,65.15-4.64,96.23c-0.41,0.9-0.39,1.85,0.07,2.73c0.46,0.88,1.23,1.44,2.2,1.61l6.78,1.2
		c1.44,0.26,2.49,1.45,2.55,2.91c0.07,1.47-0.87,2.74-2.28,3.13l-17.34,4.7c-0.75,0.2-1.33,0.62-1.76,1.27
		c-11.15,16.64-26.02,29.96-43.67,40.79c-2.44,1.49-3.52,4.35-2.69,7.08c0.83,2.73,3.32,4.5,6.17,4.39
		c36.17-1.43,76.97-20.55,101.07-54.27C1031.33,767.35,1031.21,766.5,1030.62,766.03L1030.62,766.03z M950.6,686.93
		c-2.39,2.27-4.96,4.51-7.7,6.71c-1.51,1.22-2.31,2.89-2.31,4.83c0,1.94,0.8,3.61,2.31,4.83c2.74,2.2,5.31,4.44,7.7,6.71
		c1.65,1.57,3.85,2.09,6.03,1.44c2.18-0.65,3.73-2.29,4.26-4.51c1.37-5.79,1.37-11.15,0-16.94c-0.52-2.22-2.07-3.86-4.26-4.51
		C954.45,684.84,952.25,685.36,950.6,686.93L950.6,686.93z M830.32,656.95c5.99,19.98,36.32,28.53,67.74,19.11
		c17.71-5.31,31.99-15.21,40-26.41c1.41-1.97,1.56-4.42,0.41-6.55c-1.15-2.13-3.28-3.34-5.7-3.24c-7.67,0.32-14.02-2.6-15.58-7.78
		c-1.67-5.58,2.76-12.05,10.31-15.96c2.15-1.11,3.39-3.21,3.35-5.62c-0.05-2.42-1.38-4.46-3.57-5.49
		c-13.07-6.11-31.8-7.04-50.93-1.3C844.93,613.13,824.32,636.97,830.32,656.95L830.32,656.95z M897.75,773.93
		c2.21-3.7,8.58-5.12,15.16-3.15c4.71,1.41,8.38,4.23,10.01,7.29c1.44,2.71,4.57,3.95,7.47,2.95c7.07-2.42,12.25-6.84,14.05-12.85
		c3.91-13.02-9.53-28.56-30-34.7c-20.48-6.14-40.24-0.57-44.15,12.45c-3.17,10.57,5.07,22.79,19.23,30.3
		C892.45,777.78,896.06,776.77,897.75,773.93L897.75,773.93z M815.29,598.01v40.18h-8.5v40.18h8.5v40.18h-8.5v40.18h8.5v40.18h-8.5
		v48.68h59.91v-8.5h59.91v8.5h59.91v-8.5h59.91v8.5h59.9l-0.07-19.07l-0.2-1.4l-0.68-2.4l-0.42-0.97l-1.12-1.92l-1.42-1.72
		l-1.54-1.37l-3.38-2.13l-1.62-1.26l-1.45-1.47l-1.13-1.47l-1.13-1.96l-0.71-1.71l-0.47-1.64l-0.36-2.39V592.07l0.28-2.04l0.55-1.98
		l0.71-1.71l1.02-1.79l1.24-1.64l1.18-1.23l1.59-1.3l2.84-1.74l1.14-0.83l1.79-1.73l0.66-0.83l1.16-1.89l0.85-2.06l0.48-2l0.13-1.02
		l0.06-18.95h-59.91v8.5h-59.91v-8.5H926.6v8.5H866.7v-8.5h-59.91v48.68H815.29L815.29,598.01z M1070.71,798.91h8.5v-40.18h-8.5
		V798.91L1070.71,798.91z M1079.21,678.37h-8.5v40.18h8.5V678.37L1079.21,678.37z M1070.71,638.19h8.5v-40.18h-8.5V638.19
		L1070.71,638.19z M1030.62,420.08l-12.22-9.78c-0.48-0.38-0.66-1-0.45-1.58c0.2-0.58,0.72-0.95,1.34-0.95h19.42
		c0.55,0,1.02-0.29,1.27-0.78c7.94-15.76,12.44-34,11.96-54.48c0-76.95-66.18-121.65-122.16-123.78c-2.85-0.11-5.33,1.66-6.16,4.39
		c-0.83,2.73,0.26,5.58,2.69,7.08c16.75,10.27,30.99,22.78,41.94,38.25c0.89,1.26,2.06,2.06,3.56,2.43l23.18,5.74
		c2.55,0.63,4.35,2.68,4.66,5.29c0.31,2.61-0.98,5.02-3.31,6.22l-8.89,4.58c-2.76,1.42-4.03,4.6-3.02,7.53
		c11.12,32.14,9.64,65.15-4.64,96.23c-0.41,0.9-0.39,1.85,0.07,2.73c0.46,0.88,1.23,1.44,2.2,1.61l6.78,1.2
		c1.44,0.26,2.49,1.45,2.55,2.91c0.07,1.47-0.87,2.74-2.28,3.13l-17.34,4.7c-0.75,0.2-1.33,0.62-1.76,1.27
		c-11.15,16.64-26.02,29.96-43.67,40.79c-2.44,1.49-3.52,4.35-2.69,7.08c0.83,2.73,3.32,4.5,6.17,4.39
		c36.17-1.43,76.97-20.55,101.07-54.27C1031.33,421.39,1031.21,420.55,1030.62,420.08L1030.62,420.08z M950.6,340.98
		c-2.39,2.27-4.96,4.51-7.7,6.71c-1.51,1.22-2.31,2.89-2.31,4.83c0,1.94,0.8,3.61,2.31,4.83c2.74,2.2,5.31,4.44,7.7,6.71
		c1.65,1.57,3.85,2.09,6.03,1.44c2.18-0.65,3.73-2.29,4.26-4.51c1.37-5.79,1.37-11.15,0-16.94c-0.52-2.22-2.07-3.86-4.26-4.51
		C954.45,338.88,952.25,339.41,950.6,340.98L950.6,340.98z M830.32,311c5.99,19.98,36.32,28.53,67.74,19.11
		c17.71-5.31,31.99-15.21,40-26.41c1.41-1.97,1.56-4.41,0.41-6.55c-1.15-2.13-3.28-3.34-5.7-3.24c-7.67,0.32-14.02-2.6-15.58-7.78
		c-1.67-5.58,2.76-12.05,10.31-15.96c2.15-1.11,3.39-3.21,3.35-5.62c-0.05-2.42-1.38-4.46-3.57-5.49
		c-13.07-6.11-31.8-7.04-50.93-1.3C844.93,267.18,824.32,291.02,830.32,311L830.32,311z M897.75,427.98
		c2.21-3.7,8.58-5.12,15.16-3.15c4.71,1.41,8.38,4.23,10.01,7.29c1.44,2.71,4.57,3.95,7.47,2.95c7.07-2.42,12.25-6.84,14.05-12.85
		c3.91-13.02-9.53-28.56-30-34.7c-20.48-6.14-40.24-0.57-44.15,12.45c-3.17,10.57,5.07,22.79,19.23,30.3
		C892.45,431.83,896.06,430.82,897.75,427.98z"/>
</g>
</svg>
