<?xml version="1.0" encoding="utf-8"?>
<!-- Generator: Adobe Illustrator 21.1.0, SVG Export Plug-In . SVG Version: 6.00 Build 0)  -->
<svg version="1.1" id="Слой_1" xmlns="http://www.w3.org/2000/svg" xmlns:xlink="http://www.w3.org/1999/xlink" x="0px" y="0px"
	 width="1008px" height="1008px" viewBox="0 0 1008 1008" style="enable-background:new 0 0 1008 1008;" xml:space="preserve">
<style type="text/css">
	.st0{fill:none;stroke:#FF0000;stroke-miterlimit:10;}
</style>
<path class="st0" d="M43.674,531.17v432h432v-432H43.674z"/>
<path class="st0" d="M530.679,53.169v432h432v-432H530.679z M637.904,93.639c-2.36,2.95-6.56,2.34-7.68-1.66
	c-0.89-3.19,1.77-7.22,5.12-8.43c6.17-2.24,16.54,5.84,10.69,16.71c-8.47,15.75-25.72,4.19-32.47,17.8
	c-1.77,3.57-1.41,6.99-1.19,8.39c-6.48-8.78-1.34-21.35,13.48-23.18c1-0.12,11.61-0.2,12.65-6.32
	C638.604,96.339,638.674,95.189,637.904,93.639z M605.884,118.929c-2.46-7.54-2.46-15.61,0-23.19c-4.75,6.96-6.74,15.07-5.67,23.23
	c-8.54-12.54-4.96-35.33,7.63-27.59c5.17-5.04,13.34-3.61,15.35,3.61C611.434,97.319,605.434,107.749,605.884,118.929z
	 M594.536,116.284c-14.868-6.093-18.595-7.658-20.057-8.825c-0.652-0.521-0.854-0.962-1.392-1.69
	c-1.945-5.55-3.899-11.101-5.853-16.66c5.645,1.946,11.299,3.883,16.944,5.83c0.564,0.48,0.957,0.753,1.356,1.204
	C586.756,97.522,588.048,100.569,594.536,116.284z M597.114,122.069c-8.14-1.07-16.26,0.91-23.22,5.67c7.57-2.46,15.63-2.46,23.18,0
	c-11.39-0.46-21.64,5.68-23.94,17.31c-7.27-2.03-8.61-10.23-3.61-15.36C561.924,117.319,584.264,113.319,597.114,122.069z
	 M570.124,152.079c4,1.12,4.61,5.32,1.66,7.68c6.66,3.29,8.75-4.92,9.63-12.05c1.88-15.19,14.65-19.78,23.18-13.48
	c-19.05-3.08-21.42,27.25-5.16,24.82c-3.39,6.44-12.01,7.6-14.25-0.15c-2.11,8.87-11.77,12.82-17.92,9.59
	C556.064,162.599,562.914,150.059,570.124,152.079z M588.634,365.169c-38.32-6.26-25.81-54.45-4.05-34.29
	c-9.23,2.86-15.66,12-7.63,20.74c-2.44-9.08,6.58-18.02,13.08-10.56C580.754,346.029,581.894,357.259,588.634,365.169z
	 M580.784,202.039c-19.37,14.97-25.81-22.97-0.1-26.3C571.964,183.439,571.154,198.909,580.784,202.039z M564.834,294.579
	c19.37-14.98,25.7,22.99,0.1,26.3C573.664,313.179,574.474,297.709,564.834,294.579z M567.064,370.099
	c6.19-3.26,15.82,0.78,17.91,9.59c3.1-7.02,11.47-8.77,16.72-5.27c5.2,3.47,8.22,12.52,0.3,15.35c1.49-5.55-3.53-9.47-7.23-9.03
	c-9.9,1.18-8.68,26.58,9.63,23.62c-8.78,6.48-21.35,1.35-23.18-13.48c-0.12-1-0.2-11.6-6.32-12.65c-0.61-0.1-1.76-0.17-3.32,0.6
	c7.18,5.71-6.34,12.89-10.08,2.56C559.924,377.069,563.224,372.119,567.064,370.099z M625.254,428.089
	c15.84-0.11,11.49-16.24,1.5-13.55c2.84-7.93,11.9-4.89,15.36,0.3c3.46,5.19,1.82,13.59-5.27,16.72c8.87,2.1,12.82,11.76,9.59,17.91
	c-5.89,11.2-18.43,4.35-16.41-2.86c1.12-3.99,5.32-4.61,7.68-1.65c0.77-1.56,0.7-2.71,0.6-3.32c-1.28-7.48-14.04-5.08-20.63-8.58
	c-6.72-3.57-11.6-12.66-5.5-20.92C610.684,421.309,617.974,428.139,625.254,428.089z M622.994,443.599
	c-2.01,7.21-10.18,8.66-15.36,3.61c-12.37,7.6-16.38-14.73-7.63-27.59c-1.06,8.15,0.92,16.26,5.67,23.23
	c-2.45-7.57-2.45-15.64,0-23.19C605.224,431.049,611.354,441.299,622.994,443.599z M596.914,416.519
	c-12.7,8.65-35.28,4.88-27.6-7.62c-4.98-5.12-3.67-13.33,3.62-15.36c2.35,11.88,12.9,17.76,23.94,17.31
	c-7.54,2.46-15.61,2.46-23.19,0C580.644,415.609,588.754,417.589,596.914,416.519z M572.89,432.577
	c0.524-0.72,0.745-1.17,1.339-1.673c1.428-1.209,5.009-2.719,20.12-8.995c-6.419,15.764-7.797,19.004-8.989,20.41
	c-0.413,0.487-0.804,0.754-1.374,1.246c-5.657,1.975-11.304,3.94-16.952,5.914C568.98,443.848,570.935,438.208,572.89,432.577z
	 M722.074,449.029c-0.99,1-26.83,6.61-42.29-18.66c-26.84-7.21-36.81-41.12-38.05-45.16c0,0,0-0.01-0.01-0.02
	c-19.421-36.808-35.555-88.207-32.51-120.18c-4.71-0.8-8.25-2.13-8.69-4.3c-0.59-2.89,4.5-6.57,10.54-9.84
	c0.46-2.77,0.99-5.56,1.59-8.37c-9.37-4.03-14.79-8.75-14.19-12.22c0.97-5.6,17.53-7.13,18.57-7.22c-1.26-1.02-25-20.65-21.15-27.33
	c2.91-5.06,20.21-0.29,24.76,1.03c-2.86-2-19.8-14.16-17.88-27.68c0.55-3.89,2.97-10.04,6.19-10.31c2.07-0.18,3.37,2.16,6.53,5.15
	c2.59,2.45,6.5,5.41,12.38,7.74c-3.43-6.38-13.95-27.72-5.16-44.87c3.7-7.22,11.829-14.498,15.489-12.818
	c1.11,0.51,1.43,2.02,1.54,2.58c4.81,23,7.411,29.218,12.491,36.788c23.63-31.85,55.73-54.72,93.5-54.93
	c38.3-0.23,71.08,22.91,95.18,55.28c5.29-7.66,7.078-14.297,11.958-37.638c0.12-0.56,0.43-2.07,1.55-2.58
	c3.65-1.68,12.552,6.097,16.242,13.318c8.79,17.15-1.73,38.49-5.15,44.87c5.87-2.33,9.79-5.29,12.37-7.74
	c3.17-2.99,4.47-5.33,6.54-5.15c3.22,0.27,5.63,6.42,6.19,10.31c1.91,13.52-15.03,25.68-17.88,27.68
	c4.54-1.32,21.84-6.09,24.75-1.03c3.85,6.68-19.89,26.31-21.14,27.33c1.04,0.09,17.6,1.62,18.56,7.22
	c0.6,3.48-4.84,8.21-14.25,12.24c0.61,2.79,1.14,5.56,1.6,8.32c6.06,3.28,11.18,6.97,10.59,9.87c-0.44,2.17-3.98,3.5-8.7,4.3
	c3.331,34.964-15.423,87.82-32.5,120.18c0,0.01,0,0.01-0.01,0.02c-1.21,4.03-11.02,37.9-38.04,45.16
	c-15.47,25.27-41.3,19.66-42.3,18.66c-3.89,5.51-8.39,9.46-13.16,11.87h-22.88C730.474,458.489,725.964,454.539,722.074,449.029z
	 M875.484,105.529c6.72,3.57,11.61,12.66,5.5,20.92c3.46-21.38-25.54-11.1-33.65-26.19c-0.43-0.8-3.27-6.07-0.61-11.14
	c5.89-11.2,18.44-4.35,16.41,2.86c-0.04,0.16-0.9,3.04-3.46,3.46c-2.4,0.4-4.14-1.71-4.21-1.8
	C850.464,103.759,869.684,102.449,875.484,105.529z M855.254,444.959c2.36-2.96,6.56-2.35,7.68,1.65
	c2.01,7.17-10.49,14.12-16.41,2.86c-3.26-6.19,0.78-15.82,9.59-17.91c-1.16-0.52-3.35-1.68-4.97-4.07
	c-8.58-12.61,10.78-24.88,15.05-12.95c-5.55-1.49-9.47,3.53-9.03,7.23c1.18,9.95,26.58,8.64,23.62-9.63
	c6.47,8.75,1.37,21.35-13.48,23.18c-1,0.12-11.61,0.2-12.65,6.32C854.554,442.249,854.484,443.399,855.254,444.959z
	 M887.274,419.659c2.46,7.54,2.46,15.61,0,23.19c4.75-6.96,6.74-15.07,5.67-23.23c8.74,12.83,4.76,35.2-7.62,27.59
	c-5.17,5.04-13.35,3.61-15.36-3.61C881.844,441.249,887.724,430.699,887.274,419.659z M899.099,422.992
	c13.048,5.301,17.356,7.081,19.155,8.217c1.106,0.698,1.263,1.152,1.919,2.032c1.911,5.41,3.831,10.828,5.751,16.238
	c-5.546-1.897-11.102-3.785-16.648-5.682c-0.766-0.646-1.21-0.907-1.796-1.775C906.346,440.343,904.677,436.394,899.099,422.992z
	 M896.044,416.519c8.15,1.07,16.26-0.91,23.23-5.67c-7.58,2.46-15.64,2.46-23.19,0c11.39,0.46,21.64-5.68,23.94-17.31
	c7.27,2.03,8.61,10.23,3.61,15.36C931.234,421.269,908.894,425.279,896.044,416.519z M923.034,386.509c-4-1.12-4.61-5.33-1.66-7.68
	c-10.12-5-8.81,14.23-11.89,20.03c-3.57,6.72-12.66,11.6-20.92,5.5c18.29,2.96,19.56-22.44,9.63-23.62
	c-3.69-0.44-8.73,3.46-7.23,9.03c-7.93-2.83-4.9-11.89,0.3-15.35c5.19-3.46,13.58-1.82,16.71,5.27c2.11-8.87,11.77-12.82,17.92-9.59
	C937.094,375.989,930.244,388.529,923.034,386.509z M909.484,331.049c21.73-20.13,34.3,28.02-4.05,34.29
	c6.74-7.9,7.89-19.14-1.4-24.11c6.49-7.45,15.53,1.46,13.08,10.56C924.644,343.589,919.704,334.209,909.484,331.049z
	 M912.384,175.739c25.7,3.32,19.3,41.29-0.1,26.3C921.944,198.899,921.084,183.419,912.384,175.739z M929.244,294.739
	c-9.66,3.15-8.81,18.63-0.11,26.3C903.524,317.729,909.884,279.779,929.244,294.739z M926.104,168.489
	c-6.2,3.26-15.83-0.78-17.92-9.59c-3.28,5.24-10.18,4.48-12.94-0.7c14.87,1.49,11.97-26.96-6.47-23.97
	c1.53-1.13,4.13-2.64,7.51-2.78c21.98-0.9,10.91,35.41,25.3,28.31c-2.95-2.35-2.35-6.56,1.65-7.68
	C930.404,150.069,937.374,162.559,926.104,168.489z M920.224,145.049c-2.29-11.58-12.49-17.77-23.94-17.31
	c7.54-2.46,15.61-2.46,23.19,0c-6.96-4.75-15.07-6.74-23.23-5.67c12.83-8.74,35.2-4.76,27.6,7.62
	C928.824,134.809,927.514,143.019,920.224,145.049z M920.393,105.641c-0.602,0.827-0.796,1.291-1.652,1.901
	c-1.625,1.158-5.636,2.842-19.35,8.534c5.465-13.398,7.2-17.547,8.324-19.306c0.618-0.967,1.051-1.213,1.818-1.875
	c5.536-1.931,11.064-3.854,16.591-5.785C924.219,94.626,922.306,100.133,920.393,105.641z M893.154,118.969
	c1.06-8.15-0.92-16.26-5.67-23.23c2.45,7.58,2.45,15.64,0,23.19c0.44-11.03-5.44-21.59-17.32-23.94c2.01-7.21,10.18-8.66,15.36-3.61
	C897.894,83.779,901.904,106.109,893.154,118.969z"/>
<path class="st0" d="M43.679,53.169v432h432v-432H43.679z M255.199,435.609c-4.891,4.604-5.897,11.73-1.98,17.32
	C243.494,460.01,233.732,441.497,255.199,435.609z M196.719,407.019c3.9,12.01-14.55,16.04-24.63-3.18
	c-6.51-12.42-0.31-26.12,0.66-28.17C170.449,392.289,181.179,413.219,196.719,407.019z M180.489,298.659c8.15-7.86,9.61-20.45,3-30
	c-9.29,0.42-16.9,7.55-17.25,17.25c-3.88-15.35,7.03-27.27,24.37-26.25c15.68,0.93,29.18,16.33,24.38,34.13
	c-1.55-11.58-9-21.36-20.71-24.8C196.199,281.019,190.519,292.619,180.489,298.659z M124.859,259.159
	c11.96-11.96,29.1-9.22,40.13,1.88c-2.76,9.67-10.64,16.35-20.25,18c5.6-3.8,9.55-9.51,10.5-16.5
	C145.329,258.519,134.939,257.569,124.859,259.159z M156.999,238.159c-12.152,2.068-24.446-0.197-35.01-6.25
	c14.619,1.013,29.95-0.734,44.96-5.73c-4.16,9.66-1.51,20.32,6.24,27.23C164.989,252.479,158.269,246.719,156.999,238.159z
	 M148.049,127.889c-1.628,53.203,67.135,62.935,80.18,84.5c5.08,8.41,4.96,17.56,4.33,23.11
	c-11.681-55.561-81.79-16.346-109.88-66.25c15.047,14.195,32.776,19.883,61.88,23.24
	C165.894,182.983,133.861,157.672,148.049,127.889z M236.279,166.049c-0.99,1.63-1.56,3.46-1.68,5.37
	c-13.96-21.55,4.59-45.61,25.74-44.97c20.47,0.63,37.35,24.16,24.04,45.14c-0.16-1.73-0.73-3.44-1.73-4.98
	c8.69-17.2-5.38-35.54-21.82-36.39C243.509,129.339,227.289,147.969,236.279,166.049z M259.679,134.489
	c14.12,0,24.44,13.43,20.73,27.12c-10.48-13.65-31-13.64-41.47,0C235.229,147.919,245.559,134.489,259.679,134.489z
	 M259.649,213.169c3.22-1.75,5.3-2.21,6.24-1.37c1.67,1.48-0.32,7.08-5.98,16.79c-5.95-9.52-8.11-15.04-6.5-16.58
	C254.319,211.159,256.389,211.539,259.649,213.169z M371.679,127.889c12.572,26.401-11.69,51.964-36.51,64.6
	c25.143-2.91,45.521-7.819,61.88-23.24c-27.967,49.757-98.232,10.82-109.88,66.25c-0.63-5.55-0.75-14.7,4.33-23.11
	C304.567,190.768,373.276,181.259,371.679,127.889z M373.789,279.009c-9.61-1.64-17.49-8.32-20.25-18
	c11.12-11.19,28.22-13.78,40.13-1.87c-10.08-1.59-20.47-0.64-30.38,3.37C364.239,269.509,368.189,275.209,373.789,279.009z
	 M361.529,238.139c-1.27,8.54-7.97,14.31-16.2,15.25c7.75-6.91,10.41-17.56,6.25-27.24c14.458,4.819,29.617,6.763,44.96,5.74
	C386.179,237.828,373.889,240.241,361.529,238.139z M338.039,298.639c-10.04-6.05-15.71-17.67-13.79-29.67
	c-11.72,3.43-19.16,13.22-20.71,24.79c-4.74-17.57,8.49-33.18,24.38-34.12c17.41-1.03,28.23,10.96,24.37,26.25
	c-0.35-9.7-7.95-16.84-17.25-17.25C328.429,278.189,329.889,290.779,338.039,298.639z M344.079,375.669
	c0.97,2.05,7.18,15.75,0.66,28.17c-10.54,20.08-28.32,14.56-24.63,3.18C335.669,413.229,346.369,392.219,344.079,375.669z
	 M244.449,420.869c7.9-19.19-29.96-42.68-1.19-69.06c-17.25,33.32,16.41,48.68,6.98,73.15c-8.03,20.84-40.65,19.16-47.58,2.97
	c-6.21-14.52,6.03-23.67,10.87-15.77C203.519,429.759,235.909,441.639,244.449,420.869z M225.109,417.789
	c2.17,5.02,16.91,2,9.86-12.14c12.53,8.91-0.18,25.25-12.04,17.37c-6.67-4.44-5.48-15.1-0.35-16.98c4.34-1.59,9.43,2.37,8.37,7.51
	C227.209,409.719,224.009,415.209,225.109,417.789z M255.839,345.229c-3.99,11.92-4.66,25.68-0.46,37.77
	C246.259,391.519,240.299,367.969,255.839,345.229z M253.519,391.399c0.73-0.7,2.42-0.39,5.06,0.93c2.62-1.41,4.31-1.79,5.07-1.11
	c1.36,1.21-0.26,5.76-4.85,13.65C253.959,397.129,252.199,392.639,253.519,391.399z M261.769,382.989
	c4.23-12.11,3.56-25.88-0.39-37.77C277.699,369.199,270.459,391.139,261.769,382.989z M273.569,351.809
	c28.85,26.46-9.11,49.8-1.19,69.06c8.47,20.61,41.01,9.03,30.92-8.71c5.09-8.31,16.88,1.74,10.87,15.77
	c-6.93,16.18-39.55,17.88-47.58-2.97C257.159,400.479,290.829,385.129,273.569,351.809z M285.889,413.549
	c-1.07-5.14,4.03-9.1,8.36-7.51c5.11,1.87,6.36,12.52-0.35,16.98c-11.84,7.87-24.6-8.43-12.04-17.37
	c-7.1,14.23,7.73,17.09,9.86,12.14C292.819,415.219,289.629,409.709,285.889,413.549z M285.309,390.619
	c36.35,16.15,53.41-16.14,35.68-19.3c-1.12-10.63,12.42-13.25,17.53-0.33C345.719,389.209,312.459,417.919,285.309,390.619z
	 M303.839,378.959c9.65-1.5,5.04-26.97-17.16-19.31c4.86-4.52,11.73-6.1,17.87-4.02c19.84,6.71,12.03,35.41-4.73,32.61
	c-15.36-2.57-11.29-24.53,1.89-17.95C295.029,372.439,298.329,379.819,303.839,378.959z M318.879,359.999
	c-0.98-6.17-6.19-10.16-12.25-10.08C324.399,340.199,329.709,358.469,318.879,359.999z M260.739,333.029
	c29.12,22.94,51.83-1.5,36.51-8.16c1.22-9.4,13.78-8.68,15.62,3.51C315.479,345.659,279.609,363.399,260.739,333.029z
	 M317.759,239.459c1.18,9.29,16.19,10.57,19.4-1.97c4.87-19-32.24-28.6-44.55,5.91c-1.48-19.78,18.66-34.47,34.64-30.09
	c20.75,5.7,22.87,29.75,8.59,37.66c-7.46,4.14-17.19,2.05-22.03-3.61c-11.65-13.62,9.01-28.68,14.8-12.5
	C324.649,229.699,316.759,231.719,317.759,239.459z M303.749,260.579c1.35-6.1-2.05-11.71-7.73-13.85
	C316.119,244.169,314.389,263.119,303.749,260.579z M302.539,306.579c-0.71,3.72-5.55,5.44-6.12,5.63
	c-7.53-12.94-28.06-10.51-31.76,3.91C258.669,293.099,305.439,291.409,302.539,306.579z M274.959,321.179
	c-1.19-6.22,4.68-8.57,9.26-6.36c4.76,2.31,6.97,11,3.04,16.35c-6.29,8.54-21.85,3.77-22.22-9.36c5.26,10.48,15.55,8.07,16.64,4.23
	C282.679,322.529,279.019,318.419,274.959,321.179z M333.669,205.869c6.87,0.81,13.83,2.43,20.71,5
	c4.35-12.38,18.84-17.48,26.54-5.37c-7.87-4.79-17.97-2.4-19.04,7.37c14.214,2.236,28.404-2.229,39-12.25
	C384.315,228.055,356.223,226.252,333.669,205.869z M298.349,269.349c-1.25,15.33-20.48,28.37-37.39,20.75
	c34.22,0.21,37.47-35.35,19.37-37.13c-11.91-1.18-15.72,12.33-7.91,16.36c6.44,3.32,10.77-2.89,7.49-8.04
	c7.38,6.12,3.01,17.09-7.78,15.11c-10.14-1.87-13.74-18.13-4.02-26.58C279.169,240.199,300.019,248.759,298.349,269.349z
	 M279.949,235.809c-6.797-0.824-12.618,3.571-14.31,9.97C260.64,224.037,281.55,223.92,279.949,235.809z M252.979,245.659
	c-1.581-6.613-7.068-11.334-13.83-10.39C237.768,222.607,257.997,222.844,252.979,245.659z M248.769,249.819
	c9.69,8.42,6.17,24.7-4.02,26.58c-10.77,1.98-15.18-8.97-7.78-15.11c-3.26,5.12,1.03,11.37,7.49,8.04c7.75-4,4.09-17.55-7.91-16.36
	c-18.21,1.79-14.76,37.34,19.37,37.13c-16.85,7.6-36.14-5.36-37.39-20.75C216.909,249.359,237.289,239.829,248.769,249.819z
	 M235.149,326.039c1.12,3.92,11.42,6.18,16.64-4.23c-0.35,12.52-15.59,18.36-22.21,9.36c-3.94-5.35-1.73-14.04,3.04-16.35
	c4.38-2.11,10.48-0.03,9.25,6.36C237.809,318.419,234.149,322.549,235.149,326.039z M220.409,312.209c-0.56-0.19-5.4-1.91-6.12-5.63
	c-2.88-15.08,43.91-13.59,37.88,9.54C248.459,301.659,227.929,299.289,220.409,312.209z M214.749,260.579
	c-10.64,2.53-12.39-16.41,7.73-13.85C216.799,248.859,213.399,254.469,214.749,260.579z M182.569,237.489
	c3.19,12.45,18.21,11.33,19.4,1.97c0.99-7.7-6.86-9.79-10.85-4.6c3.46-9.68,16.13-9.31,18.09,2.3
	c1.84,10.91-13.23,20.51-25.32,13.81c-13.76-7.62-12.78-31.79,8.59-37.66c15.92-4.37,36.12,10.24,34.64,30.09
	C214.779,208.809,177.729,218.589,182.569,237.489z M138.809,205.499c7.7-12.1,22.19-7.01,26.54,5.37c6.48-2.42,13.42-4.15,20.71-5
	c-21.934,19.832-50.425,22.581-67.21-5.25c10.523,9.959,24.672,14.486,39,12.25C156.779,203.109,146.689,200.699,138.809,205.499z
	 M219.579,324.869c-15.33,6.67,7.41,31.08,36.52,8.16c-18.79,30.21-54.76,12.72-52.14-4.65
	C205.789,316.289,218.349,315.409,219.579,324.869z M212.989,378.959c5.49,0.85,8.84-6.51,2.13-8.67
	c13.21-6.6,17.24,15.38,1.89,17.95c-16.66,2.78-24.71-25.86-4.72-32.61c6.13-2.08,13-0.5,17.87,4.02
	C208.019,352.009,203.299,377.459,212.989,378.959z M210.209,349.919c-6.06-0.08-11.28,3.9-12.25,10.08
	C187.129,358.479,192.409,340.189,210.209,349.919z M195.839,371.319c-18.23,3.25-0.11,35.2,35.68,19.3
	c-26.53,26.67-60.64-0.83-53.21-19.63C183.369,358.189,196.969,360.599,195.839,371.319z M263.359,452.979
	c3.987-5.701,2.86-12.859-1.99-17.43C282.972,441.479,273.134,460.088,263.359,452.979z M451.399,460.899h-180.28
	c4.77-2.41,9.27-6.36,13.16-11.87c1,1,26.83,6.61,42.3-18.66c23.973-6.441,34.38-32.724,38.045-45.16
	c9.998-33.925-45.625-54.14-54.035-88.56l10.14-8.43c2.79,4.35,15.21,23.38,20.63,21.15c3.87-1.6,2.65-13.41,1.55-20.63
	c10.05,9.54,18.87,14.61,21.66,12.38c3.77-3.02-4.18-18.71-4.64-19.6c10.43,6.15,20.04,5.96,22.18,2.58
	c2.05-3.28-1.67-11.42-10.32-18.06c5.08,0.15,17.04,0.38,25.34-1.03c4.72-0.8,8.26-2.13,8.7-4.3c0.59-2.9-4.53-6.59-10.59-9.87
	c-3.51-1.91-7.34-3.68-10.55-5.08c3.27-0.99,6.27-2.08,8.95-3.24c9.41-4.03,14.85-8.76,14.25-12.24c-0.96-5.6-17.52-7.13-18.56-7.22
	c1.25-1.02,24.99-20.65,21.14-27.33c-2.91-5.06-20.21-0.29-24.75,1.03c2.85-2,19.79-14.16,17.88-27.68
	c-0.56-3.89-2.97-10.04-6.19-10.31c-2.07-0.18-3.37,2.16-6.54,5.15c-2.58,2.45-6.5,5.41-12.37,7.74
	c3.42-6.38,13.94-27.72,5.15-44.87c-3.69-7.22-12.587-14.998-16.237-13.317c-1.12,0.51-1.43,2.02-1.55,2.58
	c-4.88,23.34-6.673,29.977-11.963,37.637c-3.39,4.9-8.33,9.12-16.66,15.91c-15.45,12.57-57.33,22.03-57.43,50.89
	c-3.64-7.42-9.79-14.82-13.41-17.73c11.37-3.02,19.67-13.49,19.4-25.84c17.49-21.79,2-54.43-26.12-54.43
	c-28.17,0-43.58,32.68-26.12,54.43c-0.28,12.31,7.98,22.79,19.36,25.83c-3.56,2.88-9.76,10.36-13.38,17.74
	c-0.09-28.72-42.28-38.56-57.42-50.89c-8.54-6.95-13.5-11.2-16.9-16.26c-5.08-7.57-7.676-13.787-12.486-36.787
	c-0.11-0.56-0.43-2.07-1.54-2.58c-3.66-1.68-11.794,5.597-15.494,12.817c-8.79,17.15,1.73,38.49,5.16,44.87
	c-5.88-2.33-9.79-5.29-12.38-7.74c-3.16-2.99-4.46-5.33-6.53-5.15c-3.22,0.27-5.64,6.42-6.19,10.31
	c-1.92,13.52,15.02,25.68,17.88,27.68c-4.55-1.32-21.85-6.09-24.76-1.03c-3.85,6.68,19.89,26.31,21.15,27.33
	c-1.04,0.09-17.6,1.62-18.57,7.22c-1.15,6.65,16.26,13.374,23.21,15.48c-4.825,2.106-22.206,9.776-21.15,14.95
	c1.254,6.187,27.721,5.516,34.04,5.33c-8.64,6.64-12.37,14.78-10.31,18.06c2.13,3.38,11.75,3.57,22.18-2.58
	c-0.46,0.89-8.41,16.58-4.65,19.6c2.8,2.23,11.62-2.84,21.67-12.38c-1.11,7.22-2.33,19.03,1.54,20.63
	c5.43,2.23,17.85-16.8,20.63-21.15c3.38,2.81,6.77,5.62,10.15,8.43c-8.4,34.36-27.135,65.47-54.045,88.54
	c0.473,1.186,9.957,37.632,38.055,45.18c15.46,25.27,41.3,19.66,42.29,18.66c3.89,5.51,8.4,9.46,13.17,11.87H67.949V77.439h383.45
	V460.899z"/>
</svg>
