  0
SECTION
  2
HEADER
  9
$ACADVER
  1
AC1024
  9
$ACADMAINTVER
 70
     6
  9
$DWGCODEPAGE
  3
ANSI_1251
  9
$INSBASE
 10
0.0
 20
0.0
 30
0.0
  9
$EXTMIN
 10
1.000000000000000E+20
 20
1.000000000000000E+20
 30
1.000000000000000E+20
  9
$EXTMAX
 10
-1.000000000000000E+20
 20
-1.000000000000000E+20
 30
-1.000000000000000E+20
  9
$LIMMIN
 10
0.0
 20
0.0
  9
$LIMMAX
 10
12.0
 20
9.0
  9
$ORTHOMODE
 70
     0
  9
$REGENMODE
 70
     1
  9
$FILLMODE
 70
     1
  9
$QTEXTMODE
 70
     0
  9
$MIRRTEXT
 70
     1
  9
$LTSCALE
 40
1.0
  9
$ATTMODE
 70
     1
  9
$TEXTSIZE
 40
0.2
  9
$TRACEWID
 40
0.05
  9
$TEXTSTYLE
  7
Standard
  9
$CLAYER
  8
0
  9
$CELTYPE
  6
ByLayer
  9
$CECOLOR
 62
   256
  9
$CELTSCALE
 40
1.0
  9
$DISPSILH
 70
     0
  9
$DIMSCALE
 40
1.0
  9
$DIMASZ
 40
0.18
  9
$DIMEXO
 40
0.0625
  9
$DIMDLI
 40
0.38
  9
$DIMRND
 40
0.0
  9
$DIMDLE
 40
0.0
  9
$DIMEXE
 40
0.18
  9
$DIMTP
 40
0.0
  9
$DIMTM
 40
0.0
  9
$DIMTXT
 40
0.18
  9
$DIMCEN
 40
0.09
  9
$DIMTSZ
 40
0.0
  9
$DIMTOL
 70
     0
  9
$DIMLIM
 70
     0
  9
$DIMTIH
 70
     1
  9
$DIMTOH
 70
     1
  9
$DIMSE1
 70
     0
  9
$DIMSE2
 70
     0
  9
$DIMTAD
 70
     0
  9
$DIMZIN
 70
     0
  9
$DIMBLK
  1

  9
$DIMASO
 70
     1
  9
$DIMSHO
 70
     1
  9
$DIMPOST
  1

  9
$DIMAPOST
  1

  9
$DIMALT
 70
     0
  9
$DIMALTD
 70
     2
  9
$DIMALTF
 40
25.4
  9
$DIMLFAC
 40
1.0
  9
$DIMTOFL
 70
     0
  9
$DIMTVP
 40
0.0
  9
$DIMTIX
 70
     0
  9
$DIMSOXD
 70
     0
  9
$DIMSAH
 70
     0
  9
$DIMBLK1
  1

  9
$DIMBLK2
  1

  9
$DIMSTYLE
  2
Standard
  9
$DIMCLRD
 70
     0
  9
$DIMCLRE
 70
     0
  9
$DIMCLRT
 70
     0
  9
$DIMTFAC
 40
1.0
  9
$DIMGAP
 40
0.09
  9
$DIMJUST
 70
     0
  9
$DIMSD1
 70
     0
  9
$DIMSD2
 70
     0
  9
$DIMTOLJ
 70
     1
  9
$DIMTZIN
 70
     0
  9
$DIMALTZ
 70
     0
  9
$DIMALTTZ
 70
     0
  9
$DIMUPT
 70
     0
  9
$DIMDEC
 70
     4
  9
$DIMTDEC
 70
     4
  9
$DIMALTU
 70
     2
  9
$DIMALTTD
 70
     2
  9
$DIMTXSTY
  7
Standard
  9
$DIMAUNIT
 70
     0
  9
$DIMADEC
 70
     0
  9
$DIMALTRND
 40
0.0
  9
$DIMAZIN
 70
     0
  9
$DIMDSEP
 70
    46
  9
$DIMATFIT
 70
     3
  9
$DIMFRAC
 70
     0
  9
$DIMLDRBLK
  1

  9
$DIMLUNIT
 70
     2
  9
$DIMLWD
 70
    -2
  9
$DIMLWE
 70
    -2
  9
$DIMTMOVE
 70
     0
  9
$DIMFXL
 40
1.0
  9
$DIMFXLON
 70
     0
  9
$DIMJOGANG
 40
0.7853981633974483
  9
$DIMTFILL
 70
     0
  9
$DIMTFILLCLR
 70
     0
  9
$DIMARCSYM
 70
     0
  9
$DIMLTYPE
  6

  9
$DIMLTEX1
  6

  9
$DIMLTEX2
  6

  9
$DIMTXTDIRECTION
 70
     0
  9
$LUNITS
 70
     2
  9
$LUPREC
 70
     4
  9
$SKETCHINC
 40
0.1
  9
$FILLETRAD
 40
0.5
  9
$AUNITS
 70
     0
  9
$AUPREC
 70
     0
  9
$MENU
  1
.
  9
$ELEVATION
 40
0.0
  9
$PELEVATION
 40
0.0
  9
$THICKNESS
 40
0.0
  9
$LIMCHECK
 70
     0
  9
$CHAMFERA
 40
0.5
  9
$CHAMFERB
 40
0.5
  9
$CHAMFERC
 40
1.0
  9
$CHAMFERD
 40
0.0
  9
$SKPOLY
 70
     0
  9
$TDCREATE
 40
2460426.584046018
  9
$TDUCREATE
 40
2460426.459046018
  9
$TDUPDATE
 40
2460426.584046042
  9
$TDUUPDATE
 40
2460426.459046042
  9
$TDINDWG
 40
0.0000000116
  9
$TDUSRTIMER
 40
0.0000000116
  9
$USRTIMER
 70
     1
  9
$ANGBASE
 50
0.0
  9
$ANGDIR
 70
     0
  9
$PDMODE
 70
     0
  9
$PDSIZE
 40
0.0
  9
$PLINEWID
 40
0.0
  9
$SPLFRAME
 70
     0
  9
$SPLINETYPE
 70
     6
  9
$SPLINESEGS
 70
     8
  9
$HANDSEED
  5
A4
  9
$SURFTAB1
 70
     6
  9
$SURFTAB2
 70
     6
  9
$SURFTYPE
 70
     6
  9
$SURFU
 70
     6
  9
$SURFV
 70
     6
  9
$UCSBASE
  2

  9
$UCSNAME
  2

  9
$UCSORG
 10
0.0
 20
0.0
 30
0.0
  9
$UCSXDIR
 10
1.0
 20
0.0
 30
0.0
  9
$UCSYDIR
 10
0.0
 20
1.0
 30
0.0
  9
$UCSORTHOREF
  2

  9
$UCSORTHOVIEW
 70
     0
  9
$UCSORGTOP
 10
0.0
 20
0.0
 30
0.0
  9
$UCSORGBOTTOM
 10
0.0
 20
0.0
 30
0.0
  9
$UCSORGLEFT
 10
0.0
 20
0.0
 30
0.0
  9
$UCSORGRIGHT
 10
0.0
 20
0.0
 30
0.0
  9
$UCSORGFRONT
 10
0.0
 20
0.0
 30
0.0
  9
$UCSORGBACK
 10
0.0
 20
0.0
 30
0.0
  9
$PUCSBASE
  2

  9
$PUCSNAME
  2

  9
$PUCSORG
 10
0.0
 20
0.0
 30
0.0
  9
$PUCSXDIR
 10
1.0
 20
0.0
 30
0.0
  9
$PUCSYDIR
 10
0.0
 20
1.0
 30
0.0
  9
$PUCSORTHOREF
  2

  9
$PUCSORTHOVIEW
 70
     0
  9
$PUCSORGTOP
 10
0.0
 20
0.0
 30
0.0
  9
$PUCSORGBOTTOM
 10
0.0
 20
0.0
 30
0.0
  9
$PUCSORGLEFT
 10
0.0
 20
0.0
 30
0.0
  9
$PUCSORGRIGHT
 10
0.0
 20
0.0
 30
0.0
  9
$PUCSORGFRONT
 10
0.0
 20
0.0
 30
0.0
  9
$PUCSORGBACK
 10
0.0
 20
0.0
 30
0.0
  9
$USERI1
 70
     0
  9
$USERI2
 70
     0
  9
$USERI3
 70
     0
  9
$USERI4
 70
     0
  9
$USERI5
 70
     0
  9
$USERR1
 40
0.0
  9
$USERR2
 40
0.0
  9
$USERR3
 40
0.0
  9
$USERR4
 40
0.0
  9
$USERR5
 40
0.0
  9
$WORLDVIEW
 70
     1
  9
$SHADEDGE
 70
     3
  9
$SHADEDIF
 70
    70
  9
$TILEMODE
 70
     1
  9
$MAXACTVP
 70
    64
  9
$PINSBASE
 10
0.0
 20
0.0
 30
0.0
  9
$PLIMCHECK
 70
     0
  9
$PEXTMIN
 10
1.000000000000000E+20
 20
1.000000000000000E+20
 30
1.000000000000000E+20
  9
$PEXTMAX
 10
-1.000000000000000E+20
 20
-1.000000000000000E+20
 30
-1.000000000000000E+20
  9
$PLIMMIN
 10
0.0
 20
0.0
  9
$PLIMMAX
 10
12.0
 20
9.0
  9
$UNITMODE
 70
     0
  9
$VISRETAIN
 70
     1
  9
$PLINEGEN
 70
     0
  9
$PSLTSCALE
 70
     1
  9
$TREEDEPTH
 70
  3020
  9
$CMLSTYLE
  2
Standard
  9
$CMLJUST
 70
     0
  9
$CMLSCALE
 40
1.0
  9
$PROXYGRAPHICS
 70
     1
  9
$MEASUREMENT
 70
     0
  9
$CELWEIGHT
370
    -1
  9
$ENDCAPS
280
     0
  9
$JOINSTYLE
280
     0
  9
$LWDISPLAY
290
     1
  9
$INSUNITS
 70
     1
  9
$HYPERLINKBASE
  1

  9
$STYLESHEET
  1

  9
$XEDIT
290
     1
  9
$CEPSNTYPE
380
     0
  9
$PSTYLEMODE
290
     1
  9
$FINGERPRINTGUID
  2
{30A413C4-3520-4566-B409-AD13BC1D826F}
  9
$VERSIONGUID
  2
{FAEB1C32-E019-11D5-929B-00C0DF256EC4}
  9
$EXTNAMES
290
     1
  9
$PSVPSCALE
 40
0.0
  9
$OLESTARTUP
290
     0
  9
$SORTENTS
280
   127
  9
$INDEXCTL
280
     0
  9
$HIDETEXT
280
     1
  9
$XCLIPFRAME
280
     2
  9
$HALOGAP
280
     0
  9
$OBSCOLOR
 70
   257
  9
$OBSLTYPE
280
     0
  9
$INTERSECTIONDISPLAY
280
     0
  9
$INTERSECTIONCOLOR
 70
   257
  9
$DIMASSOC
280
     2
  9
$PROJECTNAME
  1

  9
$CAMERADISPLAY
290
     0
  9
$LENSLENGTH
 40
50.0
  9
$CAMERAHEIGHT
 40
0.0
  9
$STEPSPERSEC
 40
2.0
  9
$STEPSIZE
 40
6.0
  9
$3DDWFPREC
 40
2.0
  9
$PSOLWIDTH
 40
0.25
  9
$PSOLHEIGHT
 40
4.0
  9
$LOFTANG1
 40
1.570796326794897
  9
$LOFTANG2
 40
1.570796326794897
  9
$LOFTMAG1
 40
0.0
  9
$LOFTMAG2
 40
0.0
  9
$LOFTPARAM
 70
     7
  9
$LOFTNORMALS
280
     1
  9
$LATITUDE
 40
37.795
  9
$LONGITUDE
 40
-122.394
  9
$NORTHDIRECTION
 40
0.0
  9
$TIMEZONE
 70
 -8000
  9
$LIGHTGLYPHDISPLAY
280
     1
  9
$TILEMODELIGHTSYNCH
280
     1
  9
$CMATERIAL
347
3C
  9
$SOLIDHIST
280
     1
  9
$SHOWHIST
280
     1
  9
$DWFFRAME
280
     2
  9
$DGNFRAME
280
     2
  9
$REALWORLDSCALE
290
     1
  9
$INTERFERECOLOR
 62
   256
  9
$CSHADOW
280
     0
  9
$SHADOWPLANELOCATION
 40
0.0
  0
ENDSEC
  0
SECTION
  2
CLASSES
  0
CLASS
  1
ACDBDICTIONARYWDFLT
  2
AcDbDictionaryWithDefault
  3
ObjectDBX Classes
 90
        0
 91
        4
280
     0
281
     0
  0
CLASS
  1
VISUALSTYLE
  2
AcDbVisualStyle
  3
ObjectDBX Classes
 90
     4095
 91
        4
280
     0
281
     0
  0
CLASS
  1
MATERIAL
  2
AcDbMaterial
  3
ObjectDBX Classes
 90
     1153
 91
        4
280
     0
281
     0
  0
CLASS
  1
SUN
  2
AcDbSun
  3
SCENEOE
 90
     1024
 91
        4
280
     0
281
     0
  0
ENDSEC
  0
SECTION
  2
TABLES
  0
TABLE
  2
VPORT
  5
8
330
0
100
AcDbSymbolTable
 70
     1
  0
VPORT
  5
29
330
8
100
AcDbSymbolTableRecord
100
AcDbViewportTableRecord
  2
*Active
 70
     0
 10
0.0
 20
0.0
 11
1.0
 21
1.0
 12
0.0
 22
0.0
 13
0.0
 23
0.0
 14
0.5
 24
0.5
 15
0.5
 25
0.5
 16
0.0
 26
0.0
 36
1.0
 17
21.27777777777778
 27
-35.55555555555555
 37
0.0
 40
14.0
 41
1.0
 42
50.0
 43
0.0
 44
0.0
 50
0.0
 51
0.0
 71
     0
 72
   100
 73
     1
 74
     3
 75
     0
 76
     0
 77
     0
 78
     0
281
     0
 65
     1
110
0.0
120
0.0
130
0.0
111
1.0
121
0.0
131
0.0
112
0.0
122
1.0
132
0.0
 79
     0
146
0.0
 60
     3
 61
     5
292
     1
282
     1
141
0.0
142
0.0
 63
   250
361
3F
  0
ENDTAB
  0
TABLE
  2
LTYPE
  5
5
330
0
100
AcDbSymbolTable
 70
     1
  0
LTYPE
  5
14
330
5
100
AcDbSymbolTableRecord
100
AcDbLinetypeTableRecord
  2
ByBlock
 70
     0
  3

 72
    65
 73
     0
 40
0.0
  0
LTYPE
  5
15
330
5
100
AcDbSymbolTableRecord
100
AcDbLinetypeTableRecord
  2
ByLayer
 70
     0
  3

 72
    65
 73
     0
 40
0.0
  0
LTYPE
  5
16
330
5
100
AcDbSymbolTableRecord
100
AcDbLinetypeTableRecord
  2
Continuous
 70
     0
  3
Solid line
 72
    65
 73
     0
 40
0.0
  0
ENDTAB
  0
TABLE
  2
LAYER
  5
2
330
0
100
AcDbSymbolTable
 70
     2
  0
LAYER
  5
10
330
2
100
AcDbSymbolTableRecord
100
AcDbLayerTableRecord
  2
0
 70
     0
 62
     7
  6
Continuous
370
    -3
390
F
347
3E
  0
LAYER
  5
40
330
2
100
AcDbSymbolTableRecord
100
AcDbLayerTableRecord
  2
_U+0421_U+043B_U+043E_U+0439 1
 70
     0
 62
     7
  6
Continuous
370
    -3
390
F
347
3E
  0
ENDTAB
  0
TABLE
  2
STYLE
  5
3
330
0
100
AcDbSymbolTable
 70
     1
  0
STYLE
  5
11
330
3
100
AcDbSymbolTableRecord
100
AcDbTextStyleTableRecord
  2
Standard
 70
     0
 40
0.0
 41
1.0
 50
0.0
 71
     0
 42
0.2
  3
txt
  4

  0
ENDTAB
  0
TABLE
  2
VIEW
  5
6
330
0
100
AcDbSymbolTable
 70
     0
  0
ENDTAB
  0
TABLE
  2
UCS
  5
7
330
0
100
AcDbSymbolTable
 70
     0
  0
ENDTAB
  0
TABLE
  2
APPID
  5
9
330
0
100
AcDbSymbolTable
 70
     1
  0
APPID
  5
12
330
9
100
AcDbSymbolTableRecord
100
AcDbRegAppTableRecord
  2
ACAD
 70
     0
  0
ENDTAB
  0
TABLE
  2
DIMSTYLE
  5
A
330
0
100
AcDbSymbolTable
 70
     1
100
AcDbDimStyleTable
  0
DIMSTYLE
105
27
330
A
100
AcDbSymbolTableRecord
100
AcDbDimStyleTableRecord
  2
Standard
 70
     0
178
     0
340
11
  0
ENDTAB
  0
TABLE
  2
BLOCK_RECORD
  5
1
330
0
100
AcDbSymbolTable
 70
     2
  0
BLOCK_RECORD
  5
1F
330
1
100
AcDbSymbolTableRecord
100
AcDbBlockTableRecord
  2
*Model_Space
340
22
 70
     0
280
     1
281
     0
  0
BLOCK_RECORD
  5
1B
330
1
100
AcDbSymbolTableRecord
100
AcDbBlockTableRecord
  2
*Paper_Space
340
1E
 70
     0
280
     1
281
     0
  0
BLOCK_RECORD
  5
23
330
1
100
AcDbSymbolTableRecord
100
AcDbBlockTableRecord
  2
*Paper_Space0
340
26
 70
     0
280
     1
281
     0
  0
BLOCK_RECORD
  5
6A
330
1
100
AcDbSymbolTableRecord
100
AcDbBlockTableRecord
  2
block 2
340
0
102
{BLKREFS
331
6B
102
}
 70
     0
280
     1
281
     0
  0
ENDTAB
  0
ENDSEC
  0
SECTION
  2
BLOCKS
  0
BLOCK
  5
20
330
1F
100
AcDbEntity
  8
0
100
AcDbBlockBegin
  2
*Model_Space
 70
     0
 10
0.0
 20
0.0
 30
0.0
  3
*Model_Space
  1

  0
ENDBLK
  5
21
330
1F
100
AcDbEntity
  8
0
100
AcDbBlockEnd
  0
BLOCK
  5
1C
330
1B
100
AcDbEntity
 67
     1
  8
0
100
AcDbBlockBegin
  2
*Paper_Space
 70
     0
 10
0.0
 20
0.0
 30
0.0
  3
*Paper_Space
  1

  0
ENDBLK
  5
1D
330
1B
100
AcDbEntity
 67
     1
  8
0
100
AcDbBlockEnd
  0
BLOCK
  5
24
330
23
100
AcDbEntity
  8
0
100
AcDbBlockBegin
  2
*Paper_Space0
 70
     0
 10
0.0
 20
0.0
 30
0.0
  3
*Paper_Space0
  1

  0
ENDBLK
  5
25
330
23
100
AcDbEntity
  8
0
100
AcDbBlockEnd
  0
BLOCK
  5
6C
330
6A
100
AcDbEntity
  8
0
100
AcDbBlockBegin
  2
block 2
 70
     0
 10
0.0
 20
0.0
 30
0.0
  3
block 2
  1

  0
POLYLINE
  5
6E
330
6A
100
AcDbEntity
  8
_U+0421_U+043B_U+043E_U+0439 1
 62
     1
420
 16711680
370
    35
100
AcDb2dPolyline
 66
     1
 10
0.0
 20
0.0
 30
0.0
  0
VERTEX
  5
6F
330
6E
100
AcDbEntity
  8
_U+0421_U+043B_U+043E_U+0439 1
 62
     1
420
 16711680
370
    35
100
AcDbVertex
100
AcDb2dVertex
 10
14.88442821763819
 20
-29.29401277853279
 30
0.0
  0
VERTEX
  5
70
330
6E
100
AcDbEntity
  8
_U+0421_U+043B_U+043E_U+0439 1
 62
     1
420
 16711680
370
    35
100
AcDbVertex
100
AcDb2dVertex
 10
14.88442821763819
 20
-35.29401277853278
 30
0.0
  0
VERTEX
  5
71
330
6E
100
AcDbEntity
  8
_U+0421_U+043B_U+043E_U+0439 1
 62
     1
420
 16711680
370
    35
100
AcDbVertex
100
AcDb2dVertex
 10
20.88442821763818
 20
-35.29401277853278
 30
0.0
  0
VERTEX
  5
72
330
6E
100
AcDbEntity
  8
_U+0421_U+043B_U+043E_U+0439 1
 62
     1
420
 16711680
370
    35
100
AcDbVertex
100
AcDb2dVertex
 10
20.88442821763818
 20
-29.29401277853279
 30
0.0
  0
VERTEX
  5
73
330
6E
100
AcDbEntity
  8
_U+0421_U+043B_U+043E_U+0439 1
 62
     1
420
 16711680
370
    35
100
AcDbVertex
100
AcDb2dVertex
 10
14.88442821763819
 20
-29.29401277853279
 30
0.0
  0
SEQEND
  5
74
330
6E
100
AcDbEntity
  8
_U+0421_U+043B_U+043E_U+0439 1
 62
     1
420
 16711680
370
    35
  0
SPLINE
  5
75
330
6A
100
AcDbEntity
  8
_U+0421_U+043B_U+043E_U+0439 1
 62
     1
420
 16711680
370
    35
100
AcDbSpline
210
0.0
220
0.0
230
1.0
 70
    11
 71
     3
 72
    11
 73
     7
 74
     0
 42
0.0000000001
 43
0.0000000001
 12
1.0
 22
0.0
 32
0.0
 13
1.0
 23
0.0
 33
0.0
 40
0.0
 40
0.0
 40
0.0
 40
0.0
 40
1.0
 40
1.0
 40
1.0
 40
2.0
 40
2.0
 40
2.0
 40
2.0
 10
17.82220541897277
 20
-34.60567947910792
 30
0.0
 10
17.754270137775
 20
-34.66961815736514
 30
0.0
 10
17.74030821765042
 20
-34.76860281618166
 30
0.0
 10
17.79470569024013
 20
-34.84623428867818
 30
0.0
 10
17.65963774136402
 20
-34.94457917219724
 30
0.0
 10
17.52405720385805
 20
-34.68745379056084
 30
0.0
 10
17.82220541897277
 20
-34.60567947910792
 30
0.0
  0
SPLINE
  5
76
330
6A
100
AcDbEntity
  8
_U+0421_U+043B_U+043E_U+0439 1
 62
     1
420
 16711680
370
    35
100
AcDbSpline
210
0.0
220
0.0
230
1.0
 70
    11
 71
     3
 72
    14
 73
    10
 74
     0
 42
0.0000000001
 43
0.0000000001
 12
1.0
 22
0.0
 32
0.0
 13
1.0
 23
0.0
 33
0.0
 40
0.0
 40
0.0
 40
0.0
 40
0.0
 40
1.0
 40
1.0
 40
1.0
 40
2.0
 40
2.0
 40
2.0
 40
3.0
 40
3.0
 40
3.0
 40
3.0
 10
17.00998346801791
 20
-34.20859577278194
 30
0.0
 10
17.06415047376875
 20
-34.37540146397125
 30
0.0
 10
16.80790030422666
 20
-34.43137324538389
 30
0.0
 10
16.66790006686777
 20
-34.16442920784056
 30
0.0
 10
16.57748326456736
 20
-33.99192944519945
 30
0.0
 10
16.66359454522055
 20
-33.80165149787958
 30
0.0
 10
16.67706720825222
 20
-33.77317944519945
 30
0.0
 10
16.64512208563944
 20
-34.00401271071597
 30
0.0
 10
16.79415043986041
 20
-34.29470705343513
 30
0.0
 10
17.00998346801791
 20
-34.20859577278194
 30
0.0
  0
SPLINE
  5
77
330
6A
100
AcDbEntity
  8
_U+0421_U+043B_U+043E_U+0439 1
 62
     1
420
 16711680
370
    35
100
AcDbSpline
210
0.0
220
0.0
230
1.0
 70
    11
 71
     3
 72
    23
 73
    19
 74
     0
 42
0.0000000001
 43
0.0000000001
 12
1.0
 22
0.0
 32
0.0
 13
1.0
 23
0.0
 33
0.0
 40
0.0
 40
0.0
 40
0.0
 40
0.0
 40
1.0
 40
1.0
 40
1.0
 40
2.0
 40
2.0
 40
2.0
 40
3.0
 40
3.0
 40
3.0
 40
4.0
 40
4.0
 40
4.0
 40
5.0
 40
5.0
 40
5.0
 40
6.0
 40
6.0
 40
6.0
 40
6.0
 10
16.7845670726186
 20
-32.70359597623251
 30
0.0
 10
16.8977610084368
 20
-32.59442951301624
 30
0.0
 10
16.91803909139028
 20
-32.41956802891264
 30
0.0
 10
16.82623373928527
 20
-32.28692930956585
 30
0.0
 10
16.69720541897277
 20
-32.29276240554014
 30
0.0
 10
16.59151117797888
 20
-32.39179025113486
 30
0.0
 10
16.58665040595194
 20
-32.52651264289918
 30
0.0
 10
16.53276144924624
 20
-32.31331768982833
 30
0.0
 10
16.68428885403139
 20
-32.14776237163182
 30
0.0
 10
16.92512256035736
 20
-32.16192930956585
 30
0.0
 10
17.14290023640986
 20
-32.17484587450723
 30
0.0
 10
17.33040023640986
 20
-32.38873425476972
 30
0.0
 10
17.26373373928527
 20
-32.63595715516041
 30
0.0
 10
17.24220528333903
 20
-32.47512358446819
 30
0.0
 10
17.13873373928527
 20
-32.33928984423374
 30
0.0
 10
16.97609454522055
 20
-32.29151203254749
 30
0.0
 10
17.00276097452833
 20
-32.45859577278194
 30
0.0
 10
16.92387218736472
 20
-32.6197065448089
 30
0.0
 10
16.7845670726186
 20
-32.70359597623251
 30
0.0
  0
SPLINE
  5
78
330
6A
100
AcDbEntity
  8
_U+0421_U+043B_U+043E_U+0439 1
 62
     1
420
 16711680
370
    35
100
AcDbSpline
210
0.0
220
0.0
230
1.0
 70
    11
 71
     3
 72
    17
 73
    13
 74
     0
 42
0.0000000001
 43
0.0000000001
 12
1.0
 22
0.0
 32
0.0
 13
1.0
 23
0.0
 33
0.0
 40
0.0
 40
0.0
 40
0.0
 40
0.0
 40
1.0
 40
1.0
 40
1.0
 40
2.0
 40
2.0
 40
2.0
 40
3.0
 40
3.0
 40
3.0
 40
4.0
 40
4.0
 40
4.0
 40
4.0
 10
16.01192811591291
 20
-32.1549848651214
 30
0.0
 10
16.1780386844893
 20
-31.98887344883443
 30
0.0
 10
16.41609444349528
 20
-32.02692886875639
 30
0.0
 10
16.56928929484083
 20
-32.1810960440493
 30
0.0
 10
16.53095582587375
 20
-32.31540136224596
 30
0.0
 10
16.4215113136125
 20
-32.40817903829848
 30
0.0
 10
16.28803929484083
 20
-32.4310960440493
 30
0.0
 10
16.36581673353444
 20
-32.37831758810304
 30
0.0
 10
16.42067801418764
 20
-32.29901257508222
 30
0.0
 10
16.43387262817416
 20
-32.20192937738263
 30
0.0
 10
16.29623326456736
 20
-32.14609577278194
 30
0.0
 10
16.15192750556125
 20
-32.13290115879542
 30
0.0
 10
16.01192811591291
 20
-32.1549848651214
 30
0.0
  0
SPLINE
  5
79
330
6A
100
AcDbEntity
  8
_U+0421_U+043B_U+043E_U+0439 1
 62
     1
420
 16711680
370
    35
100
AcDbSpline
210
0.0
220
0.0
230
1.0
 70
    11
 71
     3
 72
    17
 73
    13
 74
     0
 42
0.0000000001
 43
0.0000000001
 12
1.0
 22
0.0
 32
0.0
 13
1.0
 23
0.0
 33
0.0
 40
0.0
 40
0.0
 40
0.0
 40
0.0
 40
1.0
 40
1.0
 40
1.0
 40
2.0
 40
2.0
 40
2.0
 40
3.0
 40
3.0
 40
3.0
 40
4.0
 40
4.0
 40
4.0
 40
4.0
 10
16.45831720825222
 20
-31.86331819845473
 30
0.0
 10
16.28953616226583
 20
-31.89203537192945
 30
0.0
 10
16.11878665112375
 20
-31.86058598502445
 30
0.0
 10
15.9720670726186
 20
-31.77651264289918
 30
0.0
 10
16.17511425819541
 20
-31.79058698173318
 30
0.0
 10
16.38803680675584
 20
-31.76631343022778
 30
0.0
 10
16.59651097452833
 20
-31.69692873312263
 30
0.0
 10
16.53873356974319
 20
-31.83109587450723
 30
0.0
 10
16.57553861667236
 20
-31.97915105707014
 30
0.0
 10
16.68317750556125
 20
-32.07512375401029
 30
0.0
 10
16.56928929484083
 20
-32.06220718906889
 30
0.0
 10
16.47595552069806
 20
-31.98220705343513
 30
0.0
 10
16.45831720825222
 20
-31.86331819845473
 30
0.0
  0
SPLINE
  5
7A
330
6A
100
AcDbEntity
  8
_U+0421_U+043B_U+043E_U+0439 1
 62
     1
420
 16711680
370
    35
100
AcDbSpline
210
0.0
220
0.0
230
1.0
 70
    11
 71
     3
 72
    20
 73
    16
 74
     0
 42
0.0000000001
 43
0.0000000001
 12
1.0
 22
0.0
 32
0.0
 13
1.0
 23
0.0
 33
0.0
 40
0.0
 40
0.0
 40
0.0
 40
0.0
 40
1.0
 40
1.0
 40
1.0
 40
2.0
 40
2.0
 40
2.0
 40
3.0
 40
3.0
 40
3.0
 40
4.0
 40
4.0
 40
4.0
 40
5.0
 40
5.0
 40
5.0
 40
5.0
 10
16.33401148315458
 20
-30.3317901494096
 30
0.0
 10
16.31139685555862
 20
-31.07072190235153
 30
0.0
 10
17.26643792569402
 20
-31.20588175818403
 30
0.0
 10
17.44762249254041
 20
-31.50540126052071
 30
0.0
 10
17.518178285455
 20
-31.62220729079402
 30
0.0
 10
17.51651083889458
 20
-31.7492901155011
 30
0.0
 10
17.50776161878833
 20
-31.82637327929236
 30
0.0
 10
17.34552900655542
 20
-31.05469074101418
 30
0.0
 10
16.37178540278583
 20
-31.59934381244569
 30
0.0
 10
15.98165043986041
 20
-30.90623439040347
 30
0.0
 10
16.19063234890334
 20
-31.1033886208907
 30
0.0
 10
16.43686583241931
 20
-31.18238915629556
 30
0.0
 10
16.84109495212167
 20
-31.22901203254749
 30
0.0
 10
16.58186680576848
 20
-31.09698132422404
 30
0.0
 10
16.13695887208403
 20
-30.74543771173499
 30
0.0
 10
16.33401148315458
 20
-30.3317901494096
 30
0.0
  0
SPLINE
  5
7B
330
6A
100
AcDbEntity
  8
_U+0421_U+043B_U+043E_U+0439 1
 62
     1
420
 16711680
370
    35
100
AcDbSpline
210
0.0
220
0.0
230
1.0
 70
    11
 71
     3
 72
    23
 73
    19
 74
     0
 42
0.0000000001
 43
0.0000000001
 12
1.0
 22
0.0
 32
0.0
 13
1.0
 23
0.0
 33
0.0
 40
0.0
 40
0.0
 40
0.0
 40
0.0
 40
1.0
 40
1.0
 40
1.0
 40
2.0
 40
2.0
 40
2.0
 40
3.0
 40
3.0
 40
3.0
 40
4.0
 40
4.0
 40
4.0
 40
5.0
 40
5.0
 40
5.0
 40
6.0
 40
6.0
 40
6.0
 40
6.0
 10
17.55942787855388
 20
-30.86179062412735
 30
0.0
 10
17.54567801418764
 20
-30.88442873312263
 30
0.0
 10
17.53776124579569
 20
-30.90984563714818
 30
0.0
 10
17.53609464694583
 20
-30.9363738896439
 30
0.0
 10
17.34220545288124
 20
-30.63706765592001
 30
0.0
 10
17.59984417222791
 20
-30.30290102316167
 30
0.0
 10
17.89359451131222
 20
-30.3117901155011
 30
0.0
 10
18.17790050767722
 20
-30.32054018331792
 30
0.0
 10
18.41234417222791
 20
-30.64734614577459
 30
0.0
 10
18.22748309502527
 20
-30.93873476339612
 30
0.0
 10
18.22526124579569
 20
-30.9147072568857
 30
0.0
 10
18.21734447740375
 20
-30.89095695170987
 30
0.0
 10
18.20345558851486
 20
-30.86956836799681
 30
0.0
 10
18.32415006686777
 20
-30.63067930956585
 30
0.0
 10
18.12873329847583
 20
-30.37595671435098
 30
0.0
 10
17.90039993123403
 20
-30.36415149787957
 30
0.0
 10
17.65984427395319
 20
-30.35192920784056
 30
0.0
 10
17.43456690307653
 20
-30.61067927565735
 30
0.0
 10
17.55942787855388
 20
-30.86179062412735
 30
0.0
  0
SPLINE
  5
7C
330
6A
100
AcDbEntity
  8
_U+0421_U+043B_U+043E_U+0439 1
 62
     1
420
 16711680
370
    35
100
AcDbSpline
210
0.0
220
0.0
230
1.0
 70
    11
 71
     3
 72
    14
 73
    10
 74
     0
 42
0.0000000001
 43
0.0000000001
 12
1.0
 22
0.0
 32
0.0
 13
1.0
 23
0.0
 33
0.0
 40
0.0
 40
0.0
 40
0.0
 40
0.0
 40
1.0
 40
1.0
 40
1.0
 40
2.0
 40
2.0
 40
2.0
 40
3.0
 40
3.0
 40
3.0
 40
3.0
 10
17.88442821763818
 20
-30.42345647699193
 30
0.0
 10
18.08053926093235
 20
-30.42345647699193
 30
0.0
 10
18.22387269599097
 20
-30.60998500075501
 30
0.0
 10
18.17234461303749
 20
-30.80012392355237
 30
0.0
 10
18.0267893287493
 20
-30.61054025113486
 30
0.0
 10
17.74178905748193
 20
-30.61067927565735
 30
0.0
 10
17.59637195000569
 20
-30.80012392355237
 30
0.0
 10
17.54484471476264
 20
-30.60998500075501
 30
0.0
 10
17.68831717434389
 20
-30.42345647699193
 30
0.0
 10
17.88442821763818
 20
-30.42345647699193
 30
0.0
  0
SPLINE
  5
7D
330
6A
100
AcDbEntity
  8
_U+0421_U+043B_U+043E_U+0439 1
 62
     1
420
 16711680
370
    35
100
AcDbSpline
210
0.0
220
0.0
230
1.0
 70
    11
 71
     3
 72
    17
 73
    13
 74
     0
 42
0.0000000001
 43
0.0000000001
 12
1.0
 22
0.0
 32
0.0
 13
1.0
 23
0.0
 33
0.0
 40
0.0
 40
0.0
 40
0.0
 40
0.0
 40
1.0
 40
1.0
 40
1.0
 40
2.0
 40
2.0
 40
2.0
 40
3.0
 40
3.0
 40
3.0
 40
4.0
 40
4.0
 40
4.0
 40
4.0
 10
17.88401114407041
 20
-31.51623500075501
 30
0.0
 10
17.92873380710208
 20
-31.49192944519945
 30
0.0
 10
17.95762208563944
 20
-31.48554025113486
 30
0.0
 10
17.97067767510346
 20
-31.49720729079402
 30
0.0
 10
17.99387272989944
 20
-31.51776257508221
 30
0.0
 10
17.96623312893374
 20
-31.59554001377584
 30
0.0
 10
17.88762239081527
 20
-31.73040143006278
 30
0.0
 10
17.80498333238416
 20
-31.5981789365732
 30
0.0
 10
17.7749837053768
 20
-31.52151284634957
 30
0.0
 10
17.79734461303749
 20
-31.50012341492596
 30
0.0
 10
17.80998312893374
 20
-31.48831819845473
 30
0.0
 10
17.83873323065902
 20
-31.4935960440493
 30
0.0
 10
17.88401114407041
 20
-31.51623500075501
 30
0.0
  0
SPLINE
  5
7E
330
6A
100
AcDbEntity
  8
_U+0421_U+043B_U+043E_U+0439 1
 62
     1
420
 16711680
370
    35
100
AcDbSpline
210
0.0
220
0.0
230
1.0
 70
    11
 71
     3
 72
    20
 73
    16
 74
     0
 42
0.0000000001
 43
0.0000000001
 12
1.0
 22
0.0
 32
0.0
 13
1.0
 23
0.0
 33
0.0
 40
0.0
 40
0.0
 40
0.0
 40
0.0
 40
1.0
 40
1.0
 40
1.0
 40
2.0
 40
2.0
 40
2.0
 40
3.0
 40
3.0
 40
3.0
 40
4.0
 40
4.0
 40
4.0
 40
5.0
 40
5.0
 40
5.0
 40
5.0
 10
19.43998377319374
 20
-30.3317901494096
 30
0.0
 10
19.61459603007597
 20
-30.69847718504959
 30
0.0
 10
19.27762886055084
 20
-31.0535143800864
 30
0.0
 10
18.93290030422666
 20
-31.22901203254749
 30
0.0
 10
19.28210971307597
 20
-31.18859747688667
 30
0.0
 10
19.5651423530643
 20
-31.12041136187847
 30
0.0
 10
19.79234481648791
 20
-30.90623439040347
 30
0.0
 10
19.40391907168082
 20
-31.5972991385918
 30
0.0
 10
18.42800655382487
 20
-31.05651415930667
 30
0.0
 10
18.26623363756
 20
-31.82637327929236
 30
0.0
 10
18.25748356974319
 20
-31.7492901155011
 30
0.0
 10
18.25581697089333
 20
-31.62220729079402
 30
0.0
 10
18.32637276380778
 20
-31.50540126052071
 30
0.0
 10
18.50787897470958
 20
-31.20510811054348
 30
0.0
 10
19.46216400379875
 20
-31.07303488087791
 30
0.0
 10
19.43998377319374
 20
-30.3317901494096
 30
0.0
  0
SPLINE
  5
7F
330
6A
100
AcDbEntity
  8
_U+0421_U+043B_U+043E_U+0439 1
 62
     1
420
 16711680
370
    35
100
AcDbSpline
210
0.0
220
0.0
230
1.0
 70
    11
 71
     3
 72
    17
 73
    13
 74
     0
 42
0.0000000001
 43
0.0000000001
 12
1.0
 22
0.0
 32
0.0
 13
1.0
 23
0.0
 33
0.0
 40
0.0
 40
0.0
 40
0.0
 40
0.0
 40
1.0
 40
1.0
 40
1.0
 40
2.0
 40
2.0
 40
2.0
 40
3.0
 40
3.0
 40
3.0
 40
4.0
 40
4.0
 40
4.0
 40
4.0
 10
19.46928912529875
 20
-32.43067897048152
 30
0.0
 10
19.33581710652707
 20
-32.40790098925335
 30
0.0
 10
19.22637259426569
 20
-32.31512331320083
 30
0.0
 10
19.18803912529875
 20
-32.18067897048152
 30
0.0
 10
19.34248350192638
 20
-32.02526226990653
 30
0.0
 10
19.57998316284208
 20
-31.98929052240222
 30
0.0
 10
19.74540030422666
 20
-32.15470681607626
 30
0.0
 10
19.60540006686777
 20
-32.13262395746069
 30
0.0
 10
19.46109430786166
 20
-32.1458177237368
 30
0.0
 10
19.32345579196542
 20
-32.20151230381485
 30
0.0
 10
19.33665040595194
 20
-32.29873452603707
 30
0.0
 10
19.39151083889458
 20
-32.37790136224596
 30
0.0
 10
19.46928912529875
 20
-32.43067897048152
 30
0.0
  0
SPLINE
  5
80
330
6A
100
AcDbEntity
  8
_U+0421_U+043B_U+043E_U+0439 1
 62
     1
420
 16711680
370
    35
100
AcDbSpline
210
0.0
220
0.0
230
1.0
 70
    11
 71
     3
 72
    17
 73
    13
 74
     0
 42
0.0000000001
 43
0.0000000001
 12
1.0
 22
0.0
 32
0.0
 13
1.0
 23
0.0
 33
0.0
 40
0.0
 40
0.0
 40
0.0
 40
0.0
 40
1.0
 40
1.0
 40
1.0
 40
2.0
 40
2.0
 40
2.0
 40
3.0
 40
3.0
 40
3.0
 40
4.0
 40
4.0
 40
4.0
 40
4.0
 10
19.29901121188722
 20
-31.8630401494096
 30
0.0
 10
19.28137205173097
 20
-31.98165095534485
 30
0.0
 10
19.18831717434389
 20
-32.0617901155011
 30
0.0
 10
19.07401104234514
 20
-32.07484570496515
 30
0.0
 10
19.18164993123403
 20
-31.97887385573555
 30
0.0
 10
19.21859485039638
 20
-31.83095684998458
 30
0.0
 10
19.16081659790069
 20
-31.69651250726542
 30
0.0
 10
19.36162640090403
 20
-31.76344910826654
 30
0.0
 10
19.57215728530208
 20
-31.79044104959722
 30
0.0
 10
19.78526134752097
 20
-31.77623459385404
 30
0.0
 10
19.64138135707513
 20
-31.85871542187235
 30
0.0
 10
19.47068090088388
 20
-31.89223573709167
 30
0.0
 10
19.29901121188722
 20
-31.8630401494096
 30
0.0
  0
SPLINE
  5
81
330
6A
100
AcDbEntity
  8
_U+0421_U+043B_U+043E_U+0439 1
 62
     1
420
 16711680
370
    35
100
AcDbSpline
210
0.0
220
0.0
230
1.0
 70
    11
 71
     3
 72
    23
 73
    19
 74
     0
 42
0.0000000001
 43
0.0000000001
 12
1.0
 22
0.0
 32
0.0
 13
1.0
 23
0.0
 33
0.0
 40
0.0
 40
0.0
 40
0.0
 40
0.0
 40
1.0
 40
1.0
 40
1.0
 40
2.0
 40
2.0
 40
2.0
 40
3.0
 40
3.0
 40
3.0
 40
4.0
 40
4.0
 40
4.0
 40
5.0
 40
5.0
 40
5.0
 40
6.0
 40
6.0
 40
6.0
 40
6.0
 10
18.97276134752097
 20
-32.70331792718737
 30
0.0
 10
18.83331720825222
 20
-32.61929031895167
 30
0.0
 10
18.75456659790069
 20
-32.45790149787958
 30
0.0
 10
18.78123387491889
 20
-32.2912348312129
 30
0.0
 10
18.61845565633166
 20
-32.33887361837653
 30
0.0
 10
18.51512228908999
 20
-32.47484553542305
 30
0.0
 10
18.4935946808543
 20
-32.63554008159263
 30
0.0
 10
18.42776148315458
 20
-32.39151220208971
 30
0.0
 10
18.61151121188722
 20
-32.17470684998458
 30
0.0
 10
18.83220585978222
 20
-32.16165126052071
 30
0.0
 10
19.07401104234514
 20
-32.14734614577459
 30
0.0
 10
19.22428892184819
 20
-32.31387378791861
 30
0.0
 10
19.17067801418764
 20
-32.52623459385404
 30
0.0
 10
19.16581639445014
 20
-32.39151220208971
 30
0.0
 10
19.06026117797888
 20
-32.29234617968291
 30
0.0
 10
18.9310946808543
 20
-32.28665126052071
 30
0.0
 10
18.8392893287493
 20
-32.41928997986749
 30
0.0
 10
18.85956656399235
 20
-32.5941514639711
 30
0.0
 10
18.97276134752097
 20
-32.70331792718737
 30
0.0
  0
SPLINE
  5
82
330
6A
100
AcDbEntity
  8
_U+0421_U+043B_U+043E_U+0439 1
 62
     1
420
 16711680
370
    35
100
AcDbSpline
210
0.0
220
0.0
230
1.0
 70
    11
 71
     3
 72
    14
 73
    10
 74
     0
 42
0.0000000001
 43
0.0000000001
 12
1.0
 22
0.0
 32
0.0
 13
1.0
 23
0.0
 33
0.0
 40
0.0
 40
0.0
 40
0.0
 40
0.0
 40
1.0
 40
1.0
 40
1.0
 40
2.0
 40
2.0
 40
2.0
 40
3.0
 40
3.0
 40
3.0
 40
3.0
 10
19.05664993123403
 20
-33.77317944519945
 30
0.0
 10
19.07012259426569
 20
-33.80165149787958
 30
0.0
 10
19.15637205173097
 20
-33.99192944519945
 30
0.0
 10
19.0658170726186
 20
-34.16442920784056
 30
0.0
 10
18.91942764119499
 20
-34.44331833408834
 30
0.0
 10
18.67248363756
 20
-34.36665139615431
 30
0.0
 10
18.72373367146847
 20
-34.20859577278194
 30
0.0
 10
18.93984474867111
 20
-34.29484607795777
 30
0.0
 10
19.08845602932431
 20
-34.00304038676846
 30
0.0
 10
19.05664993123403
 20
-33.77317944519945
 30
0.0
  0
SPLINE
  5
83
330
6A
100
AcDbEntity
  8
_U+0421_U+043B_U+043E_U+0439 1
 62
     1
420
 16711680
370
    35
100
AcDbSpline
210
0.0
220
0.0
230
1.0
 70
    11
 71
     3
 72
    20
 73
    16
 74
     0
 42
0.0000000001
 43
0.0000000001
 12
1.0
 22
0.0
 32
0.0
 13
1.0
 23
0.0
 33
0.0
 40
0.0
 40
0.0
 40
0.0
 40
0.0
 40
1.0
 40
1.0
 40
1.0
 40
2.0
 40
2.0
 40
2.0
 40
3.0
 40
3.0
 40
3.0
 40
4.0
 40
4.0
 40
4.0
 40
5.0
 40
5.0
 40
5.0
 40
5.0
 10
17.67289986341721
 20
-34.4009565448089
 30
0.0
 10
17.78262242472361
 20
-34.13442873312263
 30
0.0
 10
17.25678929484083
 20
-33.80817886875639
 30
0.0
 10
17.65637205173097
 20
-33.44178991205055
 30
0.0
 10
17.41678871839763
 20
-33.90456779155362
 30
0.0
 10
17.88428919311555
 20
-34.11790092143653
 30
0.0
 10
17.7533170726186
 20
-34.45776247335708
 30
0.0
 10
17.64178888793972
 20
-34.74720729079417
 30
0.0
 10
17.18873340020111
 20
-34.72387321147557
 30
0.0
 10
17.09248350192638
 20
-34.49901206645596
 30
0.0
 10
17.00623319675055
 20
-34.29734597623251
 30
0.0
 10
17.1762330611168
 20
-34.170262303815
 30
0.0
 10
17.24345565633166
 20
-34.2799848651214
 30
0.0
 10
17.10442774292028
 20
-34.52442897048167
 30
0.0
 10
17.55428905748193
 20
-34.68942903829848
 30
0.0
 10
17.67289986341721
 20
-34.4009565448089
 30
0.0
  0
SPLINE
  5
84
330
6A
100
AcDbEntity
  8
_U+0421_U+043B_U+043E_U+0439 1
 62
     1
420
 16711680
370
    35
100
AcDbSpline
210
0.0
220
0.0
230
1.0
 70
    11
 71
     3
 72
    20
 73
    16
 74
     0
 42
0.0000000001
 43
0.0000000001
 12
1.0
 22
0.0
 32
0.0
 13
1.0
 23
0.0
 33
0.0
 40
0.0
 40
0.0
 40
0.0
 40
0.0
 40
1.0
 40
1.0
 40
1.0
 40
2.0
 40
2.0
 40
2.0
 40
3.0
 40
3.0
 40
3.0
 40
4.0
 40
4.0
 40
4.0
 40
5.0
 40
5.0
 40
5.0
 40
5.0
 10
17.40428922702402
 20
-34.35817937738263
 30
0.0
 10
17.43442787855388
 20
-34.42790102316167
 30
0.0
 10
17.6391499651425
 20
-34.38595715516041
 30
0.0
 10
17.54123346801791
 20
-34.18956806282098
 30
0.0
 10
17.71526165269666
 20
-34.31331768982833
 30
0.0
 10
17.53873356974319
 20
-34.54026250726542
 30
0.0
 10
17.37401155097152
 20
-34.43081799500416
 30
0.0
 10
17.28137205173097
 20
-34.36915129442902
 30
0.0
 10
17.29789986341721
 20
-34.22109611186612
 30
0.0
 10
17.36914993123403
 20
-34.19498493293819
 30
0.0
 10
17.42942808200444
 20
-34.17290122661221
 30
0.0
 10
17.50012205173097
 20
-34.22790153178807
 30
0.0
 10
17.48539986341721
 20
-34.2992906241275
 30
0.0
 10
17.43345555460639
 20
-34.24609594232402
 30
0.0
 10
17.38901094061985
 20
-34.32234580669041
 30
0.0
 10
17.40428922702402
 20
-34.35817937738263
 30
0.0
  0
SPLINE
  5
85
330
6A
100
AcDbEntity
  8
_U+0421_U+043B_U+043E_U+0439 1
 62
     1
420
 16711680
370
    35
100
AcDbSpline
210
0.0
220
0.0
230
1.0
 70
    11
 71
     3
 72
    11
 73
     7
 74
     0
 42
0.0000000001
 43
0.0000000001
 12
1.0
 22
0.0
 32
0.0
 13
1.0
 23
0.0
 33
0.0
 40
0.0
 40
0.0
 40
0.0
 40
0.0
 40
1.0
 40
1.0
 40
1.0
 40
2.0
 40
2.0
 40
2.0
 40
2.0
 10
17.83109451131222
 20
-33.35040163351333
 30
0.0
 10
17.77567798027917
 20
-33.51595695170987
 30
0.0
 10
17.76637266208263
 20
-33.70706819845473
 30
0.0
 10
17.8247053172475
 20
-33.87498439040347
 30
0.0
 10
17.69803871839763
 20
-33.99331799500416
 30
0.0
 10
17.61526148315458
 20
-33.6662348312129
 30
0.0
 10
17.83109451131222
 20
-33.35040163351333
 30
0.0
  0
SPLINE
  5
86
330
6A
100
AcDbEntity
  8
_U+0421_U+043B_U+043E_U+0439 1
 62
     1
420
 16711680
370
    35
100
AcDbSpline
210
0.0
220
0.0
230
1.0
 70
    11
 71
     3
 72
    17
 73
    13
 74
     0
 42
0.0000000001
 43
0.0000000001
 12
1.0
 22
0.0
 32
0.0
 13
1.0
 23
0.0
 33
0.0
 40
0.0
 40
0.0
 40
0.0
 40
0.0
 40
1.0
 40
1.0
 40
1.0
 40
2.0
 40
2.0
 40
2.0
 40
3.0
 40
3.0
 40
3.0
 40
4.0
 40
4.0
 40
4.0
 40
4.0
 10
17.79887218736472
 20
-33.99165139615431
 30
0.0
 10
17.80901165269666
 20
-33.98192900438999
 30
0.0
 10
17.8324830611168
 20
-33.98623452603722
 30
0.0
 10
17.86914993123403
 20
-34.0045679610957
 30
0.0
 10
17.9055387523061
 20
-33.984985000755
 30
0.0
 10
17.9290110084368
 20
-33.97970715516041
 30
0.0
 10
17.93956669962597
 20
-33.98915149787958
 30
0.0
 10
17.9584553850643
 20
-34.0059565109004
 30
0.0
 10
17.93595545288124
 20
-34.06915163351333
 30
0.0
 10
17.87220592759902
 20
-34.17873432258668
 30
0.0
 10
17.80498333238416
 20
-34.07123445822028
 30
0.0
 10
17.7805387523061
 20
-34.00887348274293
 30
0.0
 10
17.79887218736472
 20
-33.99165139615431
 30
0.0
  0
SPLINE
  5
87
330
6A
100
AcDbEntity
  8
_U+0421_U+043B_U+043E_U+0439 1
 62
     1
420
 16711680
370
    35
100
AcDbSpline
210
0.0
220
0.0
230
1.0
 70
    11
 71
     3
 72
    11
 73
     7
 74
     0
 42
0.0000000001
 43
0.0000000001
 12
1.0
 22
0.0
 32
0.0
 13
1.0
 23
0.0
 33
0.0
 40
0.0
 40
0.0
 40
0.0
 40
0.0
 40
1.0
 40
1.0
 40
1.0
 40
2.0
 40
2.0
 40
2.0
 40
2.0
 10
17.91345552069805
 20
-33.87484536588097
 30
0.0
 10
17.97220609714111
 20
-33.70665112488695
 30
0.0
 10
17.96289993123403
 20
-33.51540170133014
 30
0.0
 10
17.90803865058083
 20
-33.35026260899068
 30
0.0
 10
18.13470541897277
 20
-33.68331789327888
 30
0.0
 10
18.03414999905083
 20
-33.9880401494096
 30
0.0
 10
17.91345552069805
 20
-33.87484536588097
 30
0.0
  0
SPLINE
  5
88
330
6A
100
AcDbEntity
  8
_U+0421_U+043B_U+043E_U+0439 1
 62
     1
420
 16711680
370
    35
100
AcDbSpline
210
0.0
220
0.0
230
1.0
 70
    11
 71
     3
 72
    20
 73
    16
 74
     0
 42
0.0000000001
 43
0.0000000001
 12
1.0
 22
0.0
 32
0.0
 13
1.0
 23
0.0
 33
0.0
 40
0.0
 40
0.0
 40
0.0
 40
0.0
 40
1.0
 40
1.0
 40
1.0
 40
2.0
 40
2.0
 40
2.0
 40
3.0
 40
3.0
 40
3.0
 40
4.0
 40
4.0
 40
4.0
 40
5.0
 40
5.0
 40
5.0
 40
5.0
 10
18.07734424004486
 20
-33.44178991205055
 30
0.0
 10
18.47803919311555
 20
-33.80929021722638
 30
0.0
 10
17.9508166657175
 20
-34.1334572568857
 30
0.0
 10
18.06081642835861
 20
-34.4009565448089
 30
0.0
 10
18.17845575805694
 20
-34.68720718906889
 30
0.0
 10
18.63039989732568
 20
-34.52637361837653
 30
0.0
 10
18.49026148315458
 20
-34.2799848651214
 30
0.0
 10
18.56095545288124
 20
-34.16456823236305
 30
0.0
 10
18.72470599541596
 20
-34.30415139615431
 30
0.0
 10
18.64123363756
 20
-34.49901206645596
 30
0.0
 10
18.54498373928527
 20
-34.72373503466348
 30
0.0
 10
18.09192825154653
 20
-34.74734546760611
 30
0.0
 10
17.98040006686777
 20
-34.45776247335708
 30
0.0
 10
17.84942794637082
 20
-34.11776274462444
 30
0.0
 10
18.31706659790069
 20
-33.90456779155362
 30
0.0
 10
18.07734424004486
 20
-33.44178991205055
 30
0.0
  0
SPLINE
  5
89
330
6A
100
AcDbEntity
  8
_U+0421_U+043B_U+043E_U+0439 1
 62
     1
420
 16711680
370
    35
100
AcDbSpline
210
0.0
220
0.0
230
1.0
 70
    11
 71
     3
 72
    20
 73
    16
 74
     0
 42
0.0000000001
 43
0.0000000001
 12
1.0
 22
0.0
 32
0.0
 13
1.0
 23
0.0
 33
0.0
 40
0.0
 40
0.0
 40
0.0
 40
0.0
 40
1.0
 40
1.0
 40
1.0
 40
2.0
 40
2.0
 40
2.0
 40
3.0
 40
3.0
 40
3.0
 40
4.0
 40
4.0
 40
4.0
 40
5.0
 40
5.0
 40
5.0
 40
5.0
 10
18.24845545288124
 20
-34.2992906241275
 30
0.0
 10
18.23359424004486
 20
-34.22790153178807
 30
0.0
 10
18.30442808200444
 20
-34.17290122661221
 30
0.0
 10
18.36456720825222
 20
-34.19498493293819
 30
0.0
 10
18.43553922702402
 20
-34.22095708734362
 30
0.0
 10
18.45290033813513
 20
-34.36887324538389
 30
0.0
 10
18.35970558851486
 20
-34.43081799500416
 30
0.0
 10
18.19526161878833
 20
-34.54012348274293
 30
0.0
 10
18.01803926093235
 20
-34.31373476339611
 30
0.0
 10
18.19248367146847
 20
-34.18956806282098
 30
0.0
 10
18.09387205173097
 20
-34.3872066804425
 30
0.0
 10
18.29984451131222
 20
-34.42692869921431
 30
0.0
 10
18.32942791246235
 20
-34.35817937738263
 30
0.0
 10
18.34470535115597
 20
-34.3224848312129
 30
0.0
 10
18.30039976169194
 20
-34.24595691780152
 30
0.0
 10
18.24845545288124
 20
-34.2992906241275
 30
0.0
  0
SPLINE
  5
8A
330
6A
100
AcDbEntity
  8
_U+0421_U+043B_U+043E_U+0439 1
 62
     1
420
 16711680
370
    35
100
AcDbSpline
210
0.0
220
0.0
230
1.0
 70
    11
 71
     3
 72
    14
 73
    10
 74
     0
 42
0.0000000001
 43
0.0000000001
 12
1.0
 22
0.0
 32
0.0
 13
1.0
 23
0.0
 33
0.0
 40
0.0
 40
0.0
 40
0.0
 40
0.0
 40
1.0
 40
1.0
 40
1.0
 40
2.0
 40
2.0
 40
2.0
 40
3.0
 40
3.0
 40
3.0
 40
3.0
 10
18.24040050767722
 20
-33.98081765592001
 30
0.0
 10
18.74526127970416
 20
-34.20512355055972
 30
0.0
 10
18.98220569024013
 20
-33.75665163351333
 30
0.0
 10
18.73595596150749
 20
-33.71276226990653
 30
0.0
 10
18.72040047376875
 20
-33.56512331320083
 30
0.0
 10
18.9084557241486
 20
-33.52873449212876
 30
0.0
 10
18.97942774292028
 20
-33.70817869921416
 30
0.0
 10
19.07942791246235
 20
-33.9612346955793
 30
0.0
 10
18.61748333238416
 20
-34.359985000755
 30
0.0
 10
18.24040050767722
 20
-33.98081765592001
 30
0.0
  0
SPLINE
  5
8B
330
6A
100
AcDbEntity
  8
_U+0421_U+043B_U+043E_U+0439 1
 62
     1
420
 16711680
370
    35
100
AcDbSpline
210
0.0
220
0.0
230
1.0
 70
    11
 71
     3
 72
    20
 73
    16
 74
     0
 42
0.0000000001
 43
0.0000000001
 12
1.0
 22
0.0
 32
0.0
 13
1.0
 23
0.0
 33
0.0
 40
0.0
 40
0.0
 40
0.0
 40
0.0
 40
1.0
 40
1.0
 40
1.0
 40
2.0
 40
2.0
 40
2.0
 40
3.0
 40
3.0
 40
3.0
 40
4.0
 40
4.0
 40
4.0
 40
5.0
 40
5.0
 40
5.0
 40
5.0
 10
18.49776117797888
 20
-33.81887358446819
 30
0.0
 10
18.63178929484083
 20
-33.79804025113486
 30
0.0
 10
18.56776087280305
 20
-33.44428981032527
 30
0.0
 10
18.25942821763818
 20
-33.55067917393209
 30
0.0
 10
18.32692801418764
 20
-33.48790112488695
 30
0.0
 10
18.42234461303749
 20
-33.46595729079402
 30
0.0
 10
18.50762259426569
 20
-33.4948455693314
 30
0.0
 10
18.78317767510346
 20
-33.58804031895167
 30
0.0
 10
18.67470548678958
 20
-33.98665159960485
 30
0.0
 10
18.44192757337819
 20
-33.94776203254764
 30
0.0
 10
18.22859444349528
 20
-33.91206833408834
 30
0.0
 10
18.28512232299833
 20
-33.60706802891264
 30
0.0
 10
18.46817777682861
 20
-33.69845715516041
 30
0.0
 10
18.3754001007761
 20
-33.72831775764527
 30
0.0
 10
18.42123326456736
 20
-33.83081782546209
 30
0.0
 10
18.49776117797888
 20
-33.81887358446819
 30
0.0
  0
SPLINE
  5
8C
330
6A
100
AcDbEntity
  8
_U+0421_U+043B_U+043E_U+0439 1
 62
     1
420
 16711680
370
    35
100
AcDbSpline
210
0.0
220
0.0
230
1.0
 70
    11
 71
     3
 72
    11
 73
     7
 74
     0
 42
0.0000000001
 43
0.0000000001
 12
1.0
 22
0.0
 32
0.0
 13
1.0
 23
0.0
 33
0.0
 40
0.0
 40
0.0
 40
0.0
 40
0.0
 40
1.0
 40
1.0
 40
1.0
 40
2.0
 40
2.0
 40
2.0
 40
2.0
 10
18.70664976169194
 20
-33.55553994595903
 30
0.0
 10
18.69303892184819
 20
-33.46984573887347
 30
0.0
 10
18.62067750556125
 20
-33.41442920784056
 30
0.0
 10
18.53651087280305
 20
-33.41554055631056
 30
0.0
 10
18.78331669962597
 20
-33.2805401155011
 30
0.0
 10
18.8570666657175
 20
-33.53429038676846
 30
0.0
 10
18.70664976169194
 20
-33.55553994595903
 30
0.0
  0
SPLINE
  5
8D
330
6A
100
AcDbEntity
  8
_U+0421_U+043B_U+043E_U+0439 1
 62
     1
420
 16711680
370
    35
100
AcDbSpline
210
0.0
220
0.0
230
1.0
 70
    11
 71
     3
 72
    14
 73
    10
 74
     0
 42
0.0000000001
 43
0.0000000001
 12
1.0
 22
0.0
 32
0.0
 13
1.0
 23
0.0
 33
0.0
 40
0.0
 40
0.0
 40
0.0
 40
0.0
 40
1.0
 40
1.0
 40
1.0
 40
2.0
 40
2.0
 40
2.0
 40
3.0
 40
3.0
 40
3.0
 40
3.0
 10
17.89915040595194
 20
-33.18095701952666
 30
0.0
 10
18.30359478257958
 20
-33.49956816454624
 30
0.0
 10
18.61901090671152
 20
-33.16012368619332
 30
0.0
 10
18.40623387491889
 20
-33.06762321147557
 30
0.0
 10
18.42317791246235
 20
-32.93706816454624
 30
0.0
 10
18.59762232299833
 20
-32.94706775764527
 30
0.0
 10
18.62317825154653
 20
-33.11637334710917
 30
0.0
 10
18.65942804809597
 20
-33.35637375401029
 30
0.0
 10
18.16123367146847
 20
-33.60276250726542
 30
0.0
 10
17.89915040595194
 20
-33.18095701952666
 30
0.0
  0
SPLINE
  5
8E
330
6A
100
AcDbEntity
  8
_U+0421_U+043B_U+043E_U+0439 1
 62
     1
420
 16711680
370
    35
100
AcDbSpline
210
0.0
220
0.0
230
1.0
 70
    11
 71
     3
 72
    26
 73
    22
 74
     0
 42
0.0000000001
 43
0.0000000001
 12
1.0
 22
0.0
 32
0.0
 13
1.0
 23
0.0
 33
0.0
 40
0.0
 40
0.0
 40
0.0
 40
0.0
 40
1.0
 40
1.0
 40
1.0
 40
2.0
 40
2.0
 40
2.0
 40
3.0
 40
3.0
 40
3.0
 40
4.0
 40
4.0
 40
4.0
 40
5.0
 40
5.0
 40
5.0
 40
6.0
 40
6.0
 40
6.0
 40
7.0
 40
7.0
 40
7.0
 40
7.0
 10
18.69109427395319
 20
-31.88137358446819
 30
0.0
 10
18.7074830611168
 20
-32.01040105707013
 30
0.0
 10
18.91595541897277
 20
-32.02817924174888
 30
0.0
 10
18.96053905748193
 20
-31.85401203254749
 30
0.0
 10
19.02817787855388
 20
-31.5901231436586
 30
0.0
 10
18.51276141533777
 20
-31.4567901494096
 30
0.0
 10
18.34178922702402
 20
-31.93609584059876
 30
0.0
 10
18.32123309502527
 20
-31.66137321147557
 30
0.0
 10
18.60095552069805
 20
-31.45734539978929
 30
0.0
 10
18.82290054158555
 20
-31.51817880093944
 30
0.0
 10
19.11109498603
 20
-31.59734563714818
 30
0.0
 10
19.14053936265764
 20
-31.93137324538389
 30
0.0
 10
18.94220562242333
 20
-32.0412348312129
 30
0.0
 10
18.83859420613638
 20
-32.09873503466348
 30
0.0
 10
18.70345558851486
 20
-32.06970688389305
 30
0.0
 10
18.63623384101055
 20
-31.99109614577459
 30
0.0
 10
18.47442794637082
 20
-31.80192869921416
 30
0.0
 10
18.76137201782263
 20
-31.59276206645596
 30
0.0
 10
18.84178922702402
 20
-31.81748503466348
 30
0.0
 10
18.78678892184819
 20
-31.74581789327888
 30
0.0
 10
18.6772053850643
 20
-31.77387372010179
 30
0.0
 10
18.69109427395319
 20
-31.88137358446819
 30
0.0
  0
SPLINE
  5
8F
330
6A
100
AcDbEntity
  8
_U+0421_U+043B_U+043E_U+0439 1
 62
     1
420
 16711680
370
    35
100
AcDbSpline
210
0.0
220
0.0
230
1.0
 70
    11
 71
     3
 72
    11
 73
     7
 74
     0
 42
0.0000000001
 43
0.0000000001
 12
1.0
 22
0.0
 32
0.0
 13
1.0
 23
0.0
 33
0.0
 40
0.0
 40
0.0
 40
0.0
 40
0.0
 40
1.0
 40
1.0
 40
1.0
 40
2.0
 40
2.0
 40
2.0
 40
2.0
 10
18.49651165269666
 20
-32.17470684998458
 30
0.0
 10
18.5152613136125
 20
-32.08998496684666
 30
0.0
 10
18.4680387523061
 20
-32.01206765592001
 30
0.0
 10
18.3891499651425
 20
-31.98234607795777
 30
0.0
 10
18.66831714043542
 20
-31.94679055631056
 30
0.0
 10
18.64428878621457
 20
-32.20998432258668
 30
0.0
 10
18.49651165269666
 20
-32.17470684998458
 30
0.0
  0
SPLINE
  5
90
330
6A
100
AcDbEntity
  8
_U+0421_U+043B_U+043E_U+0439 1
 62
     1
420
 16711680
370
    35
100
AcDbSpline
210
0.0
220
0.0
230
1.0
 70
    11
 71
     3
 72
    14
 73
    10
 74
     0
 42
0.0000000001
 43
0.0000000001
 12
1.0
 22
0.0
 32
0.0
 13
1.0
 23
0.0
 33
0.0
 40
0.0
 40
0.0
 40
0.0
 40
0.0
 40
1.0
 40
1.0
 40
1.0
 40
2.0
 40
2.0
 40
2.0
 40
3.0
 40
3.0
 40
3.0
 40
3.0
 10
18.47970579196542
 20
-32.81359573887347
 30
0.0
 10
18.46984437567847
 20
-32.86526284634957
 30
0.0
 10
18.40262262817416
 20
-32.8891513283375
 30
0.0
 10
18.39470585978222
 20
-32.89179025113486
 30
0.0
 10
18.29012211954791
 20
-32.71206799500416
 30
0.0
 10
18.00498367146847
 20
-32.74581789327888
 30
0.0
 10
17.95359461303749
 20
-32.94609543369779
 30
0.0
 10
17.87040030422666
 20
-32.62637378791861
 30
0.0
 10
18.5199830611168
 20
-32.60290153178807
 30
0.0
 10
18.47970579196542
 20
-32.81359573887347
 30
0.0
  0
SPLINE
  5
91
330
6A
100
AcDbEntity
  8
_U+0421_U+043B_U+043E_U+0439 1
 62
     1
420
 16711680
370
    35
100
AcDbSpline
210
0.0
220
0.0
230
1.0
 70
    11
 71
     3
 72
    20
 73
    16
 74
     0
 42
0.0000000001
 43
0.0000000001
 12
1.0
 22
0.0
 32
0.0
 13
1.0
 23
0.0
 33
0.0
 40
0.0
 40
0.0
 40
0.0
 40
0.0
 40
1.0
 40
1.0
 40
1.0
 40
2.0
 40
2.0
 40
2.0
 40
3.0
 40
3.0
 40
3.0
 40
4.0
 40
4.0
 40
4.0
 40
5.0
 40
5.0
 40
5.0
 40
5.0
 10
18.09664999905083
 20
-33.01637317756708
 30
0.0
 10
18.08012218736472
 20
-32.9299846955793
 30
0.0
 10
18.16164989732568
 20
-32.89734614577459
 30
0.0
 10
18.22526124579569
 20
-32.92804004768431
 30
0.0
 10
18.29137249254041
 20
-32.96012334710917
 30
0.0
 10
18.32206639445014
 20
-33.08081782546209
 30
0.0
 10
18.26748316284208
 20
-33.1551238896439
 30
0.0
 10
18.1801223569068
 20
-33.2737346955793
 30
0.0
 10
17.96401127970416
 20
-33.20748442431194
 30
0.0
 10
17.95887245863208
 20
-33.02512324538389
 30
0.0
 10
18.03192814982124
 20
-33.17067937738263
 30
0.0
 10
18.17484451131222
 20
-33.1372066804425
 30
0.0
 10
18.18998377319374
 20
-33.08387382182708
 30
0.0
 10
18.20387266208263
 20
-33.03512368619332
 30
0.0
 10
18.15303885403139
 20
-32.97804055631056
 30
0.0
 10
18.09664999905083
 20
-33.01637317756708
 30
0.0
  0
SPLINE
  5
92
330
6A
100
AcDbEntity
  8
_U+0421_U+043B_U+043E_U+0439 1
 62
     1
420
 16711680
370
    35
100
AcDbSpline
210
0.0
220
0.0
230
1.0
 70
    11
 71
     3
 72
    20
 73
    16
 74
     0
 42
0.0000000001
 43
0.0000000001
 12
1.0
 22
0.0
 32
0.0
 13
1.0
 23
0.0
 33
0.0
 40
0.0
 40
0.0
 40
0.0
 40
0.0
 40
1.0
 40
1.0
 40
1.0
 40
2.0
 40
2.0
 40
2.0
 40
3.0
 40
3.0
 40
3.0
 40
4.0
 40
4.0
 40
4.0
 40
5.0
 40
5.0
 40
5.0
 40
5.0
 10
18.91206697089333
 20
-31.41484543369779
 30
0.0
 10
19.00748356974319
 20
-31.42609539978929
 30
0.0
 10
19.10415054158555
 20
-31.44859617968291
 30
0.0
 10
19.1997053172475
 20
-31.48428987814223
 30
0.0
 10
19.26012249254041
 20
-31.31234536588082
 30
0.0
 10
19.4613723569068
 20
-31.24151237163182
 30
0.0
 10
19.56831697089333
 20
-31.40970661262569
 30
0.0
 10
19.45901148315458
 20
-31.34317914002375
 30
0.0
 10
19.31873319675055
 20
-31.37637378791861
 30
0.0
 10
19.30387198391416
 20
-31.51206765592001
 30
0.0
 10
19.50128410108041
 20
-31.54311942958472
 30
0.0
 10
19.6983708813043
 20
-31.48110984522665
 30
0.0
 10
19.84553865058083
 20
-31.34192876703112
 30
0.0
 10
19.61549163110847
 20
-31.72298365428987
 30
0.0
 10
19.22532362918889
 20
-31.69794546427639
 30
0.0
 10
18.91206697089333
 20
-31.41484543369779
 30
0.0
  0
SPLINE
  5
93
330
6A
100
AcDbEntity
  8
_U+0421_U+043B_U+043E_U+0439 1
 62
     1
420
 16711680
370
    35
100
AcDbSpline
210
0.0
220
0.0
230
1.0
 70
    11
 71
     3
 72
    26
 73
    22
 74
     0
 42
0.0000000001
 43
0.0000000001
 12
1.0
 22
0.0
 32
0.0
 13
1.0
 23
0.0
 33
0.0
 40
0.0
 40
0.0
 40
0.0
 40
0.0
 40
1.0
 40
1.0
 40
1.0
 40
2.0
 40
2.0
 40
2.0
 40
3.0
 40
3.0
 40
3.0
 40
4.0
 40
4.0
 40
4.0
 40
5.0
 40
5.0
 40
5.0
 40
6.0
 40
6.0
 40
6.0
 40
7.0
 40
7.0
 40
7.0
 40
7.0
 10
18.4215113136125
 20
-32.2965126768075
 30
0.0
 10
18.40415020250139
 20
-32.50942873312263
 30
0.0
 10
18.13706714043542
 20
-32.69054038676846
 30
0.0
 10
17.90220555460639
 20
-32.58470712125195
 30
0.0
 10
18.37748377319374
 20
-32.58762324538389
 30
0.0
 10
18.42262266208263
 20
-32.09373439040347
 30
0.0
 10
18.17123326456736
 20
-32.06901260899068
 30
0.0
 10
18.00581697089333
 20
-32.05262382182708
 30
0.0
 10
17.95290033813513
 20
-32.24026284634957
 30
0.0
 10
18.06137252644888
 20
-32.29623462776236
 30
0.0
 10
18.1508170048018
 20
-32.34234584059875
 30
0.0
 10
18.21095528333903
 20
-32.25609553542305
 30
0.0
 10
18.16540016859305
 20
-32.18456826627153
 30
0.0
 10
18.26790023640986
 20
-32.26956819845473
 30
0.0
 10
18.20720585978222
 20
-32.42192890266473
 30
0.0
 10
18.05734420613638
 20
-32.39442917393209
 30
0.0
 10
17.91651151706305
 20
-32.36845701952666
 30
0.0
 10
17.8665110084368
 20
-32.14262355055972
 30
0.0
 10
18.00151144924624
 20
-32.02526226990653
 30
0.0
 10
18.15512252644888
 20
-31.89165122661221
 30
0.0
 10
18.44470552069805
 20
-32.01054008159263
 30
0.0
 10
18.4215113136125
 20
-32.2965126768075
 30
0.0
  0
SPLINE
  5
94
330
6A
100
AcDbEntity
  8
_U+0421_U+043B_U+043E_U+0439 1
 62
     1
420
 16711680
370
    35
100
AcDbSpline
210
0.0
220
0.0
230
1.0
 70
    11
 71
     3
 72
    11
 73
     7
 74
     0
 42
0.0000000001
 43
0.0000000001
 12
1.0
 22
0.0
 32
0.0
 13
1.0
 23
0.0
 33
0.0
 40
0.0
 40
0.0
 40
0.0
 40
0.0
 40
1.0
 40
1.0
 40
1.0
 40
2.0
 40
2.0
 40
2.0
 40
2.0
 10
18.16595541897277
 20
-31.83067880093944
 30
0.0
 10
18.0715592278039
 20
-31.81923882234542
 30
0.0
 10
17.99070694302639
 20
-31.88027106054084
 30
0.0
 10
17.96720545288124
 20
-31.9691514639711
 30
0.0
 10
17.89777117764222
 20
-31.6671806818682
 30
0.0
 10
18.18818818669264
 20
-31.66555155751722
 30
0.0
 10
18.16595541897277
 20
-31.83067880093944
 30
0.0
  0
SPLINE
  5
95
330
6A
100
AcDbEntity
  8
_U+0421_U+043B_U+043E_U+0439 1
 62
     1
420
 16711680
370
    35
100
AcDbSpline
210
0.0
220
0.0
230
1.0
 70
    11
 71
     3
 72
    11
 73
     7
 74
     0
 42
0.0000000001
 43
0.0000000001
 12
1.0
 22
0.0
 32
0.0
 13
1.0
 23
0.0
 33
0.0
 40
0.0
 40
0.0
 40
0.0
 40
0.0
 40
1.0
 40
1.0
 40
1.0
 40
2.0
 40
2.0
 40
2.0
 40
2.0
 10
17.79137249254041
 20
-31.9674848651214
 30
0.0
 10
17.76940829478167
 20
-31.87564344569945
 30
0.0
 10
17.69320562207694
 20
-31.81007476029208
 30
0.0
 10
17.59928892184819
 20
-31.82317910611528
 30
0.0
 10
17.58010525896987
 20
-31.64732561049348
 30
0.0
 10
17.86107110111417
 20
-31.6506078215736
 30
0.0
 10
17.79137249254041
 20
-31.9674848651214
 30
0.0
  0
SPLINE
  5
96
330
6A
100
AcDbEntity
  8
_U+0421_U+043B_U+043E_U+0439 1
 62
     1
420
 16711680
370
    35
100
AcDbSpline
210
0.0
220
0.0
230
1.0
 70
    11
 71
     3
 72
    26
 73
    22
 74
     0
 42
0.0000000001
 43
0.0000000001
 12
1.0
 22
0.0
 32
0.0
 13
1.0
 23
0.0
 33
0.0
 40
0.0
 40
0.0
 40
0.0
 40
0.0
 40
1.0
 40
1.0
 40
1.0
 40
2.0
 40
2.0
 40
2.0
 40
3.0
 40
3.0
 40
3.0
 40
4.0
 40
4.0
 40
4.0
 40
5.0
 40
5.0
 40
5.0
 40
6.0
 40
6.0
 40
6.0
 40
7.0
 40
7.0
 40
7.0
 40
7.0
 10
17.7328999651425
 20
-32.02526226990653
 30
0.0
 10
17.86748333238416
 20
-32.14220647699194
 30
0.0
 10
17.81859417222791
 20
-32.36831799500416
 30
0.0
 10
17.67706720825222
 20
-32.39442917393209
 30
0.0
 10
17.52748360365153
 20
-32.42192890266473
 30
0.0
 10
17.46623312893374
 20
-32.2698453997893
 30
0.0
 10
17.56901124579569
 20
-32.18456826627153
 30
0.0
 10
17.52373333238416
 20
-32.25567930956585
 30
0.0
 10
17.58331720825222
 20
-32.3424848651214
 30
0.0
 10
17.67303888793972
 20
-32.29623462776236
 30
0.0
 10
17.78067777682861
 20
-32.2406790722068
 30
0.0
 10
17.72984481648791
 20
-32.05248479730444
 30
0.0
 10
17.56317814982124
 20
-32.06901260899068
 30
0.0
 10
17.31026117797888
 20
-32.09387341492597
 30
0.0
 10
17.35817801418764
 20
-32.58762324538389
 30
0.0
 10
17.83220585978222
 20
-32.58470712125195
 30
0.0
 10
17.59817757337819
 20
-32.69026233772333
 30
0.0
 10
17.33026121188722
 20
-32.51026203254749
 30
0.0
 10
17.3129001007761
 20
-32.2965126768075
 30
0.0
 10
17.29040016859305
 20
-32.01887392355236
 30
0.0
 10
17.57345579196542
 20
-31.88651240554014
 30
0.0
 10
17.7328999651425
 20
-32.02526226990653
 30
0.0
  0
SPLINE
  5
97
330
6A
100
AcDbEntity
  8
_U+0421_U+043B_U+043E_U+0439 1
 62
     1
420
 16711680
370
    35
100
AcDbSpline
210
0.0
220
0.0
230
1.0
 70
    11
 71
     3
 72
    20
 73
    16
 74
     0
 42
0.0000000001
 43
0.0000000001
 12
1.0
 22
0.0
 32
0.0
 13
1.0
 23
0.0
 33
0.0
 40
0.0
 40
0.0
 40
0.0
 40
0.0
 40
1.0
 40
1.0
 40
1.0
 40
2.0
 40
2.0
 40
2.0
 40
3.0
 40
3.0
 40
3.0
 40
4.0
 40
4.0
 40
4.0
 40
5.0
 40
5.0
 40
5.0
 40
5.0
 10
17.54373336629263
 20
-33.08387382182708
 30
0.0
 10
17.55928885403139
 20
-33.13831802891264
 30
0.0
 10
17.70234424004486
 20
-33.16970705343513
 30
0.0
 10
17.77484468085431
 20
-33.02512324538389
 30
0.0
 10
17.7699830611168
 20
-33.19901240554014
 30
0.0
 10
17.55831653008388
 20
-33.2801238896439
 30
0.0
 10
17.46637215345625
 20
-33.1551238896439
 30
0.0
 10
17.41164989732568
 20
-33.08081782546209
 30
0.0
 10
17.44234464694583
 20
-32.96012334710917
 30
0.0
 10
17.5085949182132
 20
-32.92804004768431
 30
0.0
 10
17.56942831936333
 20
-32.8987346955793
 30
0.0
 10
17.65415020250139
 20
-32.92762382182708
 30
0.0
 10
17.63706714043542
 20
-33.01637317756708
 30
0.0
 10
17.580678285455
 20
-32.97804055631056
 30
0.0
 10
17.52984447740375
 20
-33.03540173523847
 30
0.0
 10
17.54373336629263
 20
-33.08387382182708
 30
0.0
  0
SPLINE
  5
98
330
6A
100
AcDbEntity
  8
_U+0421_U+043B_U+043E_U+0439 1
 62
     1
420
 16711680
370
    35
100
AcDbSpline
210
0.0
220
0.0
230
1.0
 70
    11
 71
     3
 72
    14
 73
    10
 74
     0
 42
0.0000000001
 43
0.0000000001
 12
1.0
 22
0.0
 32
0.0
 13
1.0
 23
0.0
 33
0.0
 40
0.0
 40
0.0
 40
0.0
 40
0.0
 40
1.0
 40
1.0
 40
1.0
 40
2.0
 40
2.0
 40
2.0
 40
3.0
 40
3.0
 40
3.0
 40
3.0
 10
17.33901127970416
 20
-32.89179025113486
 30
0.0
 10
17.33123353583472
 20
-32.8891513283375
 30
0.0
 10
17.26401094061985
 20
-32.86526284634957
 30
0.0
 10
17.25401134752097
 20
-32.81359573887347
 30
0.0
 10
17.21401127970416
 20
-32.60415105707013
 30
0.0
 10
17.86387208563944
 20
-32.62484536588082
 30
0.0
 10
17.78012252644888
 20
-32.94609543369779
 30
0.0
 10
17.72859444349528
 20
-32.74526264289918
 30
0.0
 10
17.44345599541596
 20
-32.7123460440493
 30
0.0
 10
17.33901127970416
 20
-32.89179025113486
 30
0.0
  0
SPLINE
  5
99
330
6A
100
AcDbEntity
  8
_U+0421_U+043B_U+043E_U+0439 1
 62
     1
420
 16711680
370
    35
100
AcDbSpline
210
0.0
220
0.0
230
1.0
 70
    11
 71
     3
 72
    11
 73
     7
 74
     0
 42
0.0000000001
 43
0.0000000001
 12
1.0
 22
0.0
 32
0.0
 13
1.0
 23
0.0
 33
0.0
 40
0.0
 40
0.0
 40
0.0
 40
0.0
 40
1.0
 40
1.0
 40
1.0
 40
2.0
 40
2.0
 40
2.0
 40
2.0
 10
17.26040054158555
 20
-32.17470684998458
 30
0.0
 10
17.11262256035736
 20
-32.20984614577459
 30
0.0
 10
17.0883170048018
 20
-31.94679055631056
 30
0.0
 10
17.3677613814293
 20
-31.98234607795777
 30
0.0
 10
17.28887259426569
 20
-32.01192947910792
 30
0.0
 10
17.2416500329593
 20
-32.08984594232402
 30
0.0
 10
17.26040054158555
 20
-32.17470684998458
 30
0.0
  0
SPLINE
  5
9A
330
6A
100
AcDbEntity
  8
_U+0421_U+043B_U+043E_U+0439 1
 62
     1
420
 16711680
370
    35
100
AcDbSpline
210
0.0
220
0.0
230
1.0
 70
    11
 71
     3
 72
    26
 73
    22
 74
     0
 42
0.0000000001
 43
0.0000000001
 12
1.0
 22
0.0
 32
0.0
 13
1.0
 23
0.0
 33
0.0
 40
0.0
 40
0.0
 40
0.0
 40
0.0
 40
1.0
 40
1.0
 40
1.0
 40
2.0
 40
2.0
 40
2.0
 40
3.0
 40
3.0
 40
3.0
 40
4.0
 40
4.0
 40
4.0
 40
5.0
 40
5.0
 40
5.0
 40
6.0
 40
6.0
 40
6.0
 40
7.0
 40
7.0
 40
7.0
 40
7.0
 10
16.81345535115597
 20
-31.85401203254749
 30
0.0
 10
16.85776094061985
 20
-32.02692886875639
 30
0.0
 10
17.06637232299833
 20
-32.01137338101764
 30
0.0
 10
17.08290013468458
 20
-31.88137358446819
 30
0.0
 10
17.09664999905083
 20
-31.77442897048152
 30
0.0
 10
16.98762256035736
 20
-31.74540166742167
 30
0.0
 10
16.93220602932431
 20
-31.81748503466348
 30
0.0
 10
16.98026104234514
 20
-31.68303984423374
 30
0.0
 10
17.15623387491889
 20
-31.68817951301624
 30
0.0
 10
17.18345555460639
 20
-31.84942930956585
 30
0.0
 10
17.20901148315458
 20
-32.00095671435098
 30
0.0
 10
16.99970582587375
 20
-32.13429055631056
 30
0.0
 10
16.83178878621457
 20
-32.0412348312129
 30
0.0
 10
16.64067753946972
 20
-31.93540156569639
 30
0.0
 10
16.65428922702402
 20
-31.5997065109004
 30
0.0
 10
16.95109471476264
 20
-31.51817880093944
 30
0.0
 10
17.17220558851486
 20
-31.45748442431194
 30
0.0
 10
17.4527613136125
 20
-31.66040173523846
 30
0.0
 10
17.43220602932431
 20
-31.93609584059876
 30
0.0
 10
17.26081676744277
 20
-31.45567880093944
 30
0.0
 10
16.74623360365153
 20
-31.59151254117389
 30
0.0
 10
16.81345535115597
 20
-31.85401203254749
 30
0.0
  0
SPLINE
  5
9B
330
6A
100
AcDbEntity
  8
_U+0421_U+043B_U+043E_U+0439 1
 62
     1
420
 16711680
370
    35
100
AcDbSpline
210
0.0
220
0.0
230
1.0
 70
    11
 71
     3
 72
    20
 73
    16
 74
     0
 42
0.0000000001
 43
0.0000000001
 12
1.0
 22
0.0
 32
0.0
 13
1.0
 23
0.0
 33
0.0
 40
0.0
 40
0.0
 40
0.0
 40
0.0
 40
1.0
 40
1.0
 40
1.0
 40
2.0
 40
2.0
 40
2.0
 40
3.0
 40
3.0
 40
3.0
 40
4.0
 40
4.0
 40
4.0
 40
5.0
 40
5.0
 40
5.0
 40
5.0
 10
16.205678285455
 20
-31.40970661262569
 30
0.0
 10
16.31262205173097
 20
-31.24165139615431
 30
0.0
 10
16.51387276380778
 20
-31.31234536588082
 30
0.0
 10
16.57428909139028
 20
-31.48428987814223
 30
0.0
 10
16.66428882012292
 20
-31.45067900438999
 30
0.0
 10
16.76067774292028
 20
-31.42665149787957
 30
0.0
 10
16.861928285455
 20
-31.41484543369779
 30
0.0
 10
16.55728812821945
 20
-31.69029446570084
 30
0.0
 10
16.1615835696825
 20
-31.72847240655
 30
0.0
 10
15.92845575805695
 20
-31.34192876703112
 30
0.0
 10
16.07461358094666
 20
-31.48024737415193
 30
0.0
 10
16.27112289232861
 20
-31.54312247642236
 30
0.0
 10
16.47012242472361
 20
-31.51206765592001
 30
0.0
 10
16.45526121188722
 20
-31.37651281244126
 30
0.0
 10
16.31512195000569
 20
-31.3430401155011
 30
0.0
 10
16.205678285455
 20
-31.40970661262569
 30
0.0
  0
SPLINE
  5
9C
330
6A
100
AcDbEntity
  8
_U+0421_U+043B_U+043E_U+0439 1
 62
     1
420
 16711680
370
    35
100
AcDbSpline
210
0.0
220
0.0
230
1.0
 70
    11
 71
     3
 72
    14
 73
    10
 74
     0
 42
0.0000000001
 43
0.0000000001
 12
1.0
 22
0.0
 32
0.0
 13
1.0
 23
0.0
 33
0.0
 40
0.0
 40
0.0
 40
0.0
 40
0.0
 40
1.0
 40
1.0
 40
1.0
 40
2.0
 40
2.0
 40
2.0
 40
3.0
 40
3.0
 40
3.0
 40
3.0
 10
17.32748326456736
 20
-33.06762321147557
 30
0.0
 10
17.11456720825222
 20
-33.16026271071597
 30
0.0
 10
17.43040040595194
 20
-33.4992901155011
 30
0.0
 10
17.83470575805694
 20
-33.18095701952666
 30
0.0
 10
17.57373384101056
 20
-33.60053981032527
 30
0.0
 10
17.07415006686777
 20
-33.35762327929235
 30
0.0
 10
17.11053888793972
 20
-33.11637334710917
 30
0.0
 10
17.13595579196542
 20
-32.94845715516041
 30
0.0
 10
17.31040020250139
 20
-32.9362348651214
 30
0.0
 10
17.32748326456736
 20
-33.06762321147557
 30
0.0
  0
SPLINE
  5
9D
330
6A
100
AcDbEntity
  8
_U+0421_U+043B_U+043E_U+0439 1
 62
     1
420
 16711680
370
    35
100
AcDbSpline
210
0.0
220
0.0
230
1.0
 70
    11
 71
     3
 72
    20
 73
    16
 74
     0
 42
0.0000000001
 43
0.0000000001
 12
1.0
 22
0.0
 32
0.0
 13
1.0
 23
0.0
 33
0.0
 40
0.0
 40
0.0
 40
0.0
 40
0.0
 40
1.0
 40
1.0
 40
1.0
 40
2.0
 40
2.0
 40
2.0
 40
3.0
 40
3.0
 40
3.0
 40
4.0
 40
4.0
 40
4.0
 40
5.0
 40
5.0
 40
5.0
 40
5.0
 10
17.23595596150749
 20
-33.81887358446819
 30
0.0
 10
17.31220582587375
 20
-33.83067880093945
 30
0.0
 10
17.35873326456736
 20
-33.72845678216777
 30
0.0
 10
17.26553936265764
 20
-33.69845715516041
 30
0.0
 10
17.44901104234514
 20
-33.60678997986749
 30
0.0
 10
17.50498367146847
 20
-33.91206833408834
 30
0.0
 10
17.29178871839763
 20
-33.94776203254764
 30
0.0
 10
17.06040020250139
 20
-33.98637355055972
 30
0.0
 10
16.94859481648791
 20
-33.5885955693314
 30
0.0
 10
17.22623356974319
 20
-33.4948455693314
 30
0.0
 10
17.31137252644888
 20
-33.46595729079402
 30
0.0
 10
17.40678912529875
 20
-33.48790112488695
 30
0.0
 10
17.47442794637082
 20
-33.55067917393209
 30
0.0
 10
17.16692774292028
 20
-33.44456785937041
 30
0.0
 10
17.10137259426569
 20
-33.79804025113486
 30
0.0
 10
17.23595596150749
 20
-33.81887358446819
 30
0.0
  0
SPLINE
  5
9E
330
6A
100
AcDbEntity
  8
_U+0421_U+043B_U+043E_U+0439 1
 62
     1
420
 16711680
370
    35
100
AcDbSpline
210
0.0
220
0.0
230
1.0
 70
    11
 71
     3
 72
    11
 73
     7
 74
     0
 42
0.0000000001
 43
0.0000000001
 12
1.0
 22
0.0
 32
0.0
 13
1.0
 23
0.0
 33
0.0
 40
0.0
 40
0.0
 40
0.0
 40
0.0
 40
1.0
 40
1.0
 40
1.0
 40
2.0
 40
2.0
 40
2.0
 40
2.0
 10
17.19734444349528
 20
-33.41554055631056
 30
0.0
 10
17.11317781073708
 20
-33.41442920784056
 30
0.0
 10
17.04067821763818
 20
-33.46970671435098
 30
0.0
 10
17.02720555460639
 20
-33.55553994595903
 30
0.0
 10
16.87678865058083
 20
-33.53442941129111
 30
0.0
 10
16.95012239081527
 20
-33.28040109097861
 30
0.0
 10
17.19734444349528
 20
-33.41554055631056
 30
0.0
  0
SPLINE
  5
9F
330
6A
100
AcDbEntity
  8
_U+0421_U+043B_U+043E_U+0439 1
 62
     1
420
 16711680
370
    35
100
AcDbSpline
210
0.0
220
0.0
230
1.0
 70
    11
 71
     3
 72
    14
 73
    10
 74
     0
 42
0.0000000001
 43
0.0000000001
 12
1.0
 22
0.0
 32
0.0
 13
1.0
 23
0.0
 33
0.0
 40
0.0
 40
0.0
 40
0.0
 40
0.0
 40
1.0
 40
1.0
 40
1.0
 40
2.0
 40
2.0
 40
2.0
 40
3.0
 40
3.0
 40
3.0
 40
3.0
 10
16.99776117797888
 20
-33.71276226990653
 30
0.0
 10
16.7445670048018
 20
-33.75790115879542
 30
0.0
 10
16.99623360365153
 20
-34.2016513283375
 30
0.0
 10
17.49331663180917
 20
-33.98081765592001
 30
0.0
 10
17.12484485039638
 20
-34.35123493293819
 30
0.0
 10
16.65109420613638
 20
-33.96929048849375
 30
0.0
 10
16.75428939656611
 20
-33.70817869921416
 30
0.0
 10
16.82456714043542
 20
-33.53040109097861
 30
0.0
 10
17.01345569024013
 20
-33.56387378791861
 30
0.0
 10
16.99776117797888
 20
-33.71276226990653
 30
0.0
  0
SPLINE
  5
A0
330
6A
100
AcDbEntity
  8
_U+0421_U+043B_U+043E_U+0439 1
 62
     1
420
 16711680
370
    35
100
AcDbSpline
210
0.0
220
0.0
230
1.0
 70
    11
 71
     3
 72
    11
 73
     7
 74
     0
 42
0.0000000001
 43
0.0000000001
 12
1.0
 22
0.0
 32
0.0
 13
1.0
 23
0.0
 33
0.0
 40
0.0
 40
0.0
 40
0.0
 40
0.0
 40
1.0
 40
1.0
 40
1.0
 40
2.0
 40
2.0
 40
2.0
 40
2.0
 10
17.93553922702402
 20
-34.84692941129111
 30
0.0
 10
17.99091389031792
 20
-34.76774404835694
 30
0.0
 10
17.97526619568862
 20
-34.6683356211204
 30
0.0
 10
17.90790047376875
 20
-34.60484617968306
 30
0.0
 10
18.20794394337195
 20
-34.68721020138082
 30
0.0
 10
18.07130199783833
 20
-34.94566527309098
 30
0.0
 10
17.93553922702402
 20
-34.84692941129111
 30
0.0
  0
SPLINE
  5
A1
330
6A
100
AcDbEntity
  8
_U+0421_U+043B_U+043E_U+0439 1
 62
     1
420
 16711680
370
    35
100
AcDbSpline
210
0.0
220
0.0
230
1.0
 70
    11
 71
     3
 72
   209
 73
   205
 74
     0
 42
0.0000000001
 43
0.0000000001
 12
1.0
 22
0.0
 32
0.0
 13
1.0
 23
0.0
 33
0.0
 40
0.0
 40
0.0
 40
0.0
 40
0.0
 40
1.0
 40
1.0
 40
1.0
 40
2.0
 40
2.0
 40
2.0
 40
3.0
 40
3.0
 40
3.0
 40
4.0
 40
4.0
 40
4.0
 40
5.0
 40
5.0
 40
5.0
 40
6.0
 40
6.0
 40
6.0
 40
7.0
 40
7.0
 40
7.0
 40
8.0
 40
8.0
 40
8.0
 40
9.0
 40
9.0
 40
9.0
 40
10.0
 40
10.0
 40
10.0
 40
11.0
 40
11.0
 40
11.0
 40
12.0
 40
12.0
 40
12.0
 40
13.0
 40
13.0
 40
13.0
 40
14.0
 40
14.0
 40
14.0
 40
15.0
 40
15.0
 40
15.0
 40
16.0
 40
16.0
 40
16.0
 40
17.0
 40
17.0
 40
17.0
 40
18.0
 40
18.0
 40
18.0
 40
19.0
 40
19.0
 40
19.0
 40
20.0
 40
20.0
 40
20.0
 40
21.0
 40
21.0
 40
21.0
 40
22.0
 40
22.0
 40
22.0
 40
23.0
 40
23.0
 40
23.0
 40
24.0
 40
24.0
 40
24.0
 40
25.0
 40
25.0
 40
25.0
 40
26.0
 40
26.0
 40
26.0
 40
27.0
 40
27.0
 40
27.0
 40
28.0
 40
28.0
 40
28.0
 40
29.0
 40
29.0
 40
29.0
 40
30.0
 40
30.0
 40
30.0
 40
31.0
 40
31.0
 40
31.0
 40
32.0
 40
32.0
 40
32.0
 40
33.0
 40
33.0
 40
33.0
 40
34.0
 40
34.0
 40
34.0
 40
35.0
 40
35.0
 40
35.0
 40
36.0
 40
36.0
 40
36.0
 40
37.0
 40
37.0
 40
37.0
 40
38.0
 40
38.0
 40
38.0
 40
39.0
 40
39.0
 40
39.0
 40
40.0
 40
40.0
 40
40.0
 40
41.0
 40
41.0
 40
41.0
 40
42.0
 40
42.0
 40
42.0
 40
43.0
 40
43.0
 40
43.0
 40
44.0
 40
44.0
 40
44.0
 40
45.0
 40
45.0
 40
45.0
 40
46.0
 40
46.0
 40
46.0
 40
47.0
 40
47.0
 40
47.0
 40
48.0
 40
48.0
 40
48.0
 40
49.0
 40
49.0
 40
49.0
 40
50.0
 40
50.0
 40
50.0
 40
51.0
 40
51.0
 40
51.0
 40
52.0
 40
52.0
 40
52.0
 40
53.0
 40
53.0
 40
53.0
 40
54.0
 40
54.0
 40
54.0
 40
55.0
 40
55.0
 40
55.0
 40
56.0
 40
56.0
 40
56.0
 40
57.0
 40
57.0
 40
57.0
 40
58.0
 40
58.0
 40
58.0
 40
59.0
 40
59.0
 40
59.0
 40
60.0
 40
60.0
 40
60.0
 40
61.0
 40
61.0
 40
61.0
 40
62.0
 40
62.0
 40
62.0
 40
63.0
 40
63.0
 40
63.0
 40
64.0
 40
64.0
 40
64.0
 40
65.0
 40
65.0
 40
65.0
 40
66.0
 40
66.0
 40
66.0
 40
67.0
 40
67.0
 40
67.0
 40
68.0
 40
68.0
 40
68.0
 40
68.0
 10
20.54720559780556
 20
-34.95692934933582
 30
0.0
 10
20.54720559780556
 20
-34.95692934933582
 30
0.0
 10
18.04331714972625
 20
-34.95692934933582
 30
0.0
 10
18.04331714972625
 20
-34.95692934933582
 30
0.0
 10
18.10956657328305
 20
-34.92345665239569
 30
0.0
 10
18.17206657328305
 20
-34.86859621945306
 30
0.0
 10
18.22609455451139
 20
-34.79206830604153
 30
0.0
 10
18.23998344340028
 20
-34.80595719493041
 30
0.0
 10
18.59873368075917
 20
-34.88387365814666
 30
0.0
 10
18.8135943849693
 20
-34.53290116465708
 30
0.0
 10
19.14654794399708
 20
-34.44344057980457
 30
0.0
 10
19.29109360507555
 20
-34.07840287364138
 30
0.0
 10
19.3419977730986
 20
-33.90568016313791
 30
0.0
 10
19.48086090683596
 20
-33.43450426969654
 30
0.0
 10
18.70831721754305
 20
-33.15373381982194
 30
0.0
 10
18.59151118726959
 20
-32.67567934933582
 30
0.0
 10
18.59151118726959
 20
-32.67567934933582
 30
0.0
 10
18.73234472405347
 20
-32.55859527001722
 30
0.0
 10
18.73234472405347
 20
-32.55859527001722
 30
0.0
 10
18.77109441887763
 20
-32.61901159759971
 30
0.0
 10
18.94359418151874
 20
-32.88331756005638
 30
0.0
 10
19.01887256964806
 20
-32.85234560910153
 30
0.0
 10
19.07262250183124
 20
-32.83012372596347
 30
0.0
 10
19.05567761657736
 20
-32.66609513438362
 30
0.0
 10
19.04040017788375
 20
-32.56581776350681
 30
0.0
 10
19.17998334167499
 20
-32.69831830604153
 30
0.0
 10
19.30248344340028
 20
-32.76873422672305
 30
0.0
 10
19.34123313822445
 20
-32.73776227576819
 30
0.0
 10
19.39359452060292
 20
-32.69581756005638
 30
0.0
 10
19.28317768439416
 20
-32.4779017071918
 30
0.0
 10
19.27678933804
 20
-32.46554039263015
 30
0.0
 10
19.42165034742584
 20
-32.55095739838096
 30
0.0
 10
19.5551223661975
 20
-32.5483176278732
 30
0.0
 10
19.58484479187028
 20
-32.50137311561194
 30
0.0
 10
19.61331684455041
 20
-32.45581715315527
 30
0.0
 10
19.5616497370743
 20
-32.34276139414916
 30
0.0
 10
19.44151135681166
 20
-32.2505406638975
 30
0.0
 10
19.51206714972625
 20
-32.25262264089403
 30
0.0
 10
19.67817771830264
 20
-32.25581850949207
 30
0.0
 10
19.7934553265382
 20
-32.23623470144084
 30
0.0
 10
19.85901132290333
 20
-32.2251229121614
 30
0.0
 10
19.90817768439416
 20
-32.20665130029069
 30
0.0
 10
19.91428882941375
 20
-32.17651180105028
 30
0.0
 10
19.9224836468507
 20
-32.13623368418833
 30
0.0
 10
19.85137260355653
 20
-32.08498449799041
 30
0.0
 10
19.76720597079819
 20
-32.03942853553374
 30
0.0
 10
19.71845583516458
 20
-32.01290028303806
 30
0.0
 10
19.66526115336112
 20
-31.98831837385847
 30
0.0
 10
19.62067751485208
 20
-31.96887359032972
 30
0.0
 10
19.6660944527861
 20
-31.95512372596348
 30
0.0
 10
19.70776111945277
 20
-31.93998361637139
 30
0.0
 10
19.74498323994972
 20
-31.92387372596348
 30
0.0
 10
19.87567815911209
 20
-31.86790109684014
 30
0.0
 10
19.95123374857597
 20
-31.80220692366305
 30
0.0
 10
19.94289990661639
 20
-31.75387386159708
 30
0.0
 10
19.92956711581778
 20
-31.6760947274825
 30
0.0
 10
19.69956714972625
 20
-31.65484601600249
 30
0.0
 10
19.68512216274708
 20
-31.65359479529944
 30
0.0
 10
19.70248327385819
 20
-31.6394295527864
 30
0.0
 10
20.03220536044667
 20
-31.36679059608069
 30
0.0
 10
19.97873347730861
 20
-31.27401207231765
 30
0.0
 10
19.93831718363458
 20
-31.20373517615874
 30
0.0
 10
19.69803872768847
 20
-31.26998375200515
 30
0.0
 10
19.63498347730861
 20
-31.28831803477416
 30
0.0
 10
19.67456647155778
 20
-31.26054025699639
 30
0.0
 10
19.90984428324403
 20
-31.09165089338972
 30
0.0
 10
19.88331687845889
 20
-30.90387284434458
 30
0.0
 10
19.87553913458944
 20
-30.84984486311626
 30
0.0
 10
19.84206643764931
 20
-30.7644295527864
 30
0.0
 10
19.79734462232819
 20
-30.76067928151903
 30
0.0
 10
19.76859452060292
 20
-30.75817853553374
 30
0.0
 10
19.75053913458944
 20
-30.79067806081583
 30
0.0
 10
19.70651159417069
 20
-30.83220739838096
 30
0.0
 10
19.67067802347833
 20
-30.86623449799041
 30
0.0
 10
19.61623381639291
 20
-30.9073450665668
 30
0.0
 10
19.53470610643194
 20
-30.93970726274736
 30
0.0
 10
19.58220586907292
 20
-30.8510960838193
 30
0.0
 10
19.72831640374097
 20
-30.55470597422737
 30
0.0
 10
19.60623337558334
 20
-30.31651288611973
 30
0.0
 10
19.55498334167499
 20
-30.21623381982193
 30
0.0
 10
19.43140748603
 20
-30.10821413351333
 30
0.0
 10
19.38071270250139
 20
-30.1315482128318
 30
0.0
 10
19.36515721476264
 20
-30.13862998637791
 30
0.0
 10
19.36085169311555
 20
-30.15960234423374
 30
0.0
 10
19.35918509426569
 20
-30.1673809358136
 30
0.0
 10
19.29140724867111
 20
-30.49154712776236
 30
0.0
 10
19.26651084818541
 20
-30.58373497270819
 30
0.0
 10
19.19303893113889
 20
-30.69012264089403
 30
0.0
 10
19.14595539435514
 20
-30.75817853553374
 30
0.0
 10
19.07734424933556
 20
-30.81678923974388
 30
0.0
 10
18.96165041524264
 20
-30.91109533783416
 30
0.0
 10
18.74706691236722
 20
-31.08567962060318
 30
0.0
 10
18.16540017788375
 20
-31.21706796695735
 30
0.0
 10
18.16401162807902
 20
-31.61790109684014
 30
0.0
 10
18.11345586907292
 20
-31.51484493093304
 30
0.0
 10
18.02803886332208
 20
-31.41206850949207
 30
0.0
 10
17.97776115336112
 20
-31.3716513681075
 30
0.0
 10
18.13567775221097
 20
-31.32970665239569
 30
0.0
 10
18.25095536044667
 20
-31.18429039263015
 30
0.0
 10
18.24720593688986
 20
-31.01276295393652
 30
0.0
 10
18.49012246792277
 20
-30.71012352251291
 30
0.0
 10
18.27498371466764
 20
-30.25678998572903
 30
0.0
 10
17.88442822692889
 20
-30.25678998572903
 30
0.0
 10
17.49317761657736
 20
-30.25678998572903
 30
0.0
 10
17.27915021179222
 20
-30.71067962060318
 30
0.0
 10
17.52165051696791
 20
-31.01276295393652
 30
0.0
 10
17.51776122117806
 20
-31.18373429453987
 30
0.0
 10
17.63248357903388
 20
-31.32928957882806
 30
0.0
 10
17.79053920240625
 20
-31.37151234358501
 30
0.0
 10
17.74109479187028
 20
-31.41151241140179
 30
0.0
 10
17.65498351121708
 20
-31.51540102902332
 30
0.0
 10
17.60470580125611
 20
-31.61790109684014
 30
0.0
 10
17.60345542826347
 20
-31.21901261485237
 30
0.0
 10
17.01748317213292
 20
-31.0823447274825
 30
0.0
 10
16.80720603861514
 20
-30.91109533783416
 30
0.0
 10
16.6885943849693
 20
-30.81456823822471
 30
0.0
 10
16.61970603861514
 20
-30.75554046044693
 30
0.0
 10
16.57248347730861
 20
-30.68526186886707
 30
0.0
 10
16.50192768439417
 20
-30.58012372596348
 30
0.0
 10
16.46586946112777
 20
-30.49376982470249
 30
0.0
 10
16.39906393948056
 20
-30.17432538025804
 30
0.0
 10
16.39753551744277
 20
-30.16654678867818
 30
0.0
 10
16.39309097127305
 20
-30.14557443082236
 30
0.0
 10
16.37767450805695
 20
-30.13849265727625
 30
0.0
 10
16.32684154771625
 20
-30.11515857795777
 30
0.0
 10
16.21387226447223
 20
-30.21623381982193
 30
0.0
 10
16.16248320604125
 20
-30.31651288611973
 30
0.0
 10
16.04040017788375
 20
-30.55470597422737
 30
0.0
 10
16.18651156026222
 20
-30.8510960838193
 30
0.0
 10
16.23415034742584
 20
-30.93970726274736
 30
0.0
 10
16.15248361294235
 20
-30.9073450665668
 30
0.0
 10
16.09817758266889
 20
-30.86623449799041
 30
0.0
 10
16.06220583516458
 20
-30.83220739838096
 30
0.0
 10
16.01831647155778
 20
-30.79067806081583
 30
0.0
 10
16.0002610855443
 20
-30.75817853553374
 30
0.0
 10
15.97151098381903
 20
-30.76067928151903
 30
0.0
 10
15.92678916849791
 20
-30.7644295527864
 30
0.0
 10
15.89317829474569
 20
-30.84984486311626
 30
0.0
 10
15.88553872768848
 20
-30.90387284434458
 30
0.0
 10
15.8588722983807
 20
-31.09165089338972
 30
0.0
 10
16.09415011006695
 20
-31.26054025699639
 30
0.0
 10
16.13387212883861
 20
-31.28831803477416
 30
0.0
 10
16.07067785393625
 20
-31.26998375200515
 30
0.0
 10
15.83040024570055
 20
-31.20373517615874
 30
0.0
 10
15.78998310431598
 20
-31.27401207231765
 30
0.0
 10
15.73651122117806
 20
-31.36679059608069
 30
0.0
 10
16.06623330776652
 20
-31.6394295527864
 30
0.0
 10
16.08373344340028
 20
-31.65359479529944
 30
0.0
 10
16.06928930413153
 20
-31.65484601600249
 30
0.0
 10
15.83928933804
 20
-31.6760947274825
 30
0.0
 10
15.82581667500833
 20
-31.75387386159708
 30
0.0
 10
15.80984750454389
 20
-31.84623022552945
 30
0.0
 10
16.05164760084376
 20
-31.93962249169693
 30
0.0
 10
16.14817809129514
 20
-31.96887359032972
 30
0.0
 10
16.08116572828528
 20
-31.99812638438362
 30
0.0
 10
15.83975812194847
 20
-32.10464968624986
 30
0.0
 10
15.85442775221097
 20
-32.17651180105028
 30
0.0
 10
15.87184989847833
 20
-32.26243573768222
 30
0.0
 10
16.23944175638847
 20
-32.25312618093304
 30
0.0
 10
16.32720607252347
 20
-32.2505406638975
 30
0.0
 10
16.20720586907292
 20
-32.34276139414916
 30
0.0
 10
16.1553997370743
 20
-32.45581715315527
 30
0.0
 10
16.18401166198749
 20
-32.50137311561194
 30
0.0
 10
16.21359421542709
 20
-32.5483176278732
 30
0.0
 10
16.34720610643194
 20
-32.55095739838096
 30
0.0
 10
16.49206711581778
 20
-32.46554039263015
 30
0.0
 10
16.48567792175306
 20
-32.4779017071918
 30
0.0
 10
16.3752610855443
 20
-32.69581756005638
 30
0.0
 10
16.42748344340028
 20
-32.73776227576819
 30
0.0
 10
16.46637216274708
 20
-32.76873422672305
 30
0.0
 10
16.58887226447223
 20
-32.69831830604153
 30
0.0
 10
16.72845542826347
 20
-32.56581776350681
 30
0.0
 10
16.71303896504737
 20
-32.66609513438362
 30
0.0
 10
16.69609492750403
 20
-32.83012372596347
 30
0.0
 10
16.74984485968708
 20
-32.85234560910153
 30
0.0
 10
16.82526142462848
 20
-32.88331756005638
 30
0.0
 10
16.99776118726959
 20
-32.61901159759971
 30
0.0
 10
17.0363727052818
 20
-32.55859527001722
 30
0.0
 10
17.08331721754305
 20
-32.59762386159709
 30
0.0
 10
17.13039990661639
 20
-32.63665075775596
 30
0.0
 10
17.17734441887763
 20
-32.67567934933582
 30
0.0
 10
17.06067826083736
 20
-33.1529013681075
 30
0.0
 10
16.80046928324403
 20
-33.58498449799041
 30
0.0
 10
16.42671965623666
 20
-33.90540211409277
 30
0.0
 10
16.43329449890153
 20
-33.92186804291221
 30
0.0
 10
16.5650058229575
 20
-34.42806819753459
 30
0.0
 10
16.95526122117806
 20
-34.53290116465708
 30
0.0
 10
17.16998374857597
 20
-34.88387365814666
 30
0.0
 10
17.52887216274708
 20
-34.80595719493041
 30
0.0
 10
17.54262202711334
 20
-34.79206830604153
 30
0.0
 10
17.59665000834166
 20
-34.86859621945306
 30
0.0
 10
17.65928903286417
 20
-34.92345665239569
 30
0.0
 10
17.72553930413153
 20
-34.95692934933582
 30
0.0
 10
17.72553930413153
 20
-34.95692934933582
 30
0.0
 10
15.22151098381903
 20
-34.95692934933582
 30
0.0
 10
15.22151098381903
 20
-34.95692934933582
 30
0.0
 10
15.22151098381903
 20
-34.95692934933582
 30
0.0
 10
15.22151098381903
 20
-29.63109486311626
 30
0.0
 10
15.22151098381903
 20
-29.63109486311626
 30
0.0
 10
15.22151098381903
 20
-29.63109486311626
 30
0.0
 10
20.54720559780556
 20
-29.63109486311626
 30
0.0
 10
20.54720559780556
 20
-29.63109486311626
 30
0.0
 10
20.54720559780556
 20
-29.63109486311626
 30
0.0
 10
20.54720559780556
 20
-34.95692934933582
 30
0.0
 10
20.54720559780556
 20
-34.95692934933582
 30
0.0
  0
ENDBLK
  5
6D
330
6A
100
AcDbEntity
  8
0
100
AcDbBlockEnd
  0
ENDSEC
  0
SECTION
  2
ENTITIES
  0
POLYLINE
  5
41
330
1F
100
AcDbEntity
  8
_U+0421_U+043B_U+043E_U+0439 1
 62
     1
420
 16711680
370
    35
100
AcDb2dPolyline
 66
     1
 10
0.0
 20
0.0
 30
0.0
  0
VERTEX
  5
42
330
41
100
AcDbEntity
  8
_U+0421_U+043B_U+043E_U+0439 1
 62
     1
420
 16711680
370
    35
100
AcDbVertex
100
AcDb2dVertex
 10
14.88435829081237
 20
-35.93291810609112
 30
0.0
  0
VERTEX
  5
43
330
41
100
AcDbEntity
  8
_U+0421_U+043B_U+043E_U+0439 1
 62
     1
420
 16711680
370
    35
100
AcDbVertex
100
AcDb2dVertex
 10
14.88435829081237
 20
-41.93291810609112
 30
0.0
  0
VERTEX
  5
44
330
41
100
AcDbEntity
  8
_U+0421_U+043B_U+043E_U+0439 1
 62
     1
420
 16711680
370
    35
100
AcDbVertex
100
AcDb2dVertex
 10
20.88435829081237
 20
-41.93291810609112
 30
0.0
  0
VERTEX
  5
45
330
41
100
AcDbEntity
  8
_U+0421_U+043B_U+043E_U+0439 1
 62
     1
420
 16711680
370
    35
100
AcDbVertex
100
AcDb2dVertex
 10
20.88435829081237
 20
-35.93291810609112
 30
0.0
  0
VERTEX
  5
46
330
41
100
AcDbEntity
  8
_U+0421_U+043B_U+043E_U+0439 1
 62
     1
420
 16711680
370
    35
100
AcDbVertex
100
AcDb2dVertex
 10
14.88435829081237
 20
-35.93291810609112
 30
0.0
  0
SEQEND
  5
47
330
41
100
AcDbEntity
  8
_U+0421_U+043B_U+043E_U+0439 1
 62
     1
420
 16711680
370
    35
  0
POLYLINE
  5
48
330
1F
100
AcDbEntity
  8
_U+0421_U+043B_U+043E_U+0439 1
 62
     1
420
 16711680
370
    35
100
AcDb2dPolyline
 66
     1
 10
0.0
 20
0.0
 30
0.0
  0
VERTEX
  5
49
330
48
100
AcDbEntity
  8
_U+0421_U+043B_U+043E_U+0439 1
 62
     1
420
 16711680
370
    35
100
AcDbVertex
100
AcDb2dVertex
 10
21.64831710652707
 20
-29.29401277853279
 30
0.0
  0
VERTEX
  5
4A
330
48
100
AcDbEntity
  8
_U+0421_U+043B_U+043E_U+0439 1
 62
     1
420
 16711680
370
    35
100
AcDbVertex
100
AcDb2dVertex
 10
21.64831710652707
 20
-35.29401277853278
 30
0.0
  0
VERTEX
  5
4B
330
48
100
AcDbEntity
  8
_U+0421_U+043B_U+043E_U+0439 1
 62
     1
420
 16711680
370
    35
100
AcDbVertex
100
AcDb2dVertex
 10
27.64831710652707
 20
-35.29401277853278
 30
0.0
  0
VERTEX
  5
4C
330
48
100
AcDbEntity
  8
_U+0421_U+043B_U+043E_U+0439 1
 62
     1
420
 16711680
370
    35
100
AcDbVertex
100
AcDb2dVertex
 10
27.64831710652707
 20
-29.29401277853279
 30
0.0
  0
VERTEX
  5
4D
330
48
100
AcDbEntity
  8
_U+0421_U+043B_U+043E_U+0439 1
 62
     1
420
 16711680
370
    35
100
AcDbVertex
100
AcDb2dVertex
 10
21.64831710652707
 20
-29.29401277853279
 30
0.0
  0
SEQEND
  5
4E
330
48
100
AcDbEntity
  8
_U+0421_U+043B_U+043E_U+0439 1
 62
     1
420
 16711680
370
    35
  0
SPLINE
  5
4F
330
1F
100
AcDbEntity
  8
_U+0421_U+043B_U+043E_U+0439 1
 62
     1
420
 16711680
370
    35
100
AcDbSpline
210
0.0
220
0.0
230
1.0
 70
    11
 71
     3
 72
    29
 73
    25
 74
     0
 42
0.0000000001
 43
0.0000000001
 12
1.0
 22
0.0
 32
0.0
 13
1.0
 23
0.0
 33
0.0
 40
0.0
 40
0.0
 40
0.0
 40
0.0
 40
1.0
 40
1.0
 40
1.0
 40
2.0
 40
2.0
 40
2.0
 40
3.0
 40
3.0
 40
3.0
 40
4.0
 40
4.0
 40
4.0
 40
5.0
 40
5.0
 40
5.0
 40
6.0
 40
6.0
 40
6.0
 40
7.0
 40
7.0
 40
7.0
 40
8.0
 40
8.0
 40
8.0
 40
8.0
 10
23.13755287855388
 20
-29.85609655267555
 30
0.0
 10
23.10477530422666
 20
-29.89706894443985
 30
0.0
 10
23.04644180135124
 20
-29.8885969256682
 30
0.0
 10
23.0308863136125
 20
-29.83304137011265
 30
0.0
 10
23.01852499905083
 20
-29.78873578064875
 30
0.0
 10
23.05546991821319
 20
-29.7327631515254
 30
0.0
 10
23.1019973569068
 20
-29.71595813850457
 30
0.0
 10
23.18769156399235
 20
-29.68484631531666
 30
0.0
 10
23.33171927395319
 20
-29.79706877489778
 30
0.0
 10
23.25046961303749
 20
-29.94804092930318
 30
0.0
 10
23.13283113104958
 20
-30.16679092930318
 30
0.0
 10
22.89324779771625
 20
-30.00623540765612
 30
0.0
 10
22.79949779771625
 20
-30.19526298198333
 30
0.0
 10
22.77491419311555
 20
-30.24484641704195
 30
0.0
 10
22.77991398966499
 20
-30.29234702739346
 30
0.0
 10
22.78296998603
 20
-30.31179096321168
 30
0.0
 10
22.69296940958694
 20
-30.18984695957667
 30
0.0
 10
22.76435850192638
 20
-30.01526352451805
 30
0.0
 10
22.97019193698486
 20
-29.9898466204925
 30
0.0
 10
22.98408082587375
 20
-29.98818002164264
 30
0.0
 10
23.13144173353444
 20
-29.98706867317249
 30
0.0
 10
23.14588672051361
 20
-29.90206874098946
 30
0.0
 10
23.14727527031819
 20
-29.89359672221763
 30
0.0
 10
23.14824759426569
 20
-29.87762416091126
 30
0.0
 10
23.13755287855388
 20
-29.85609655267555
 30
0.0
  0
SPLINE
  5
50
330
1F
100
AcDbEntity
  8
_U+0421_U+043B_U+043E_U+0439 1
 62
     1
420
 16711680
370
    35
100
AcDbSpline
210
0.0
220
0.0
230
1.0
 70
    11
 71
     3
 72
    20
 73
    16
 74
     0
 42
0.0000000001
 43
0.0000000001
 12
1.0
 22
0.0
 32
0.0
 13
1.0
 23
0.0
 33
0.0
 40
0.0
 40
0.0
 40
0.0
 40
0.0
 40
1.0
 40
1.0
 40
1.0
 40
2.0
 40
2.0
 40
2.0
 40
3.0
 40
3.0
 40
3.0
 40
4.0
 40
4.0
 40
4.0
 40
5.0
 40
5.0
 40
5.0
 40
5.0
 10
22.6928303850643
 20
-30.20734624749987
 30
0.0
 10
22.65866426093235
 20
-30.10262433045333
 30
0.0
 10
22.65866426093235
 20
-29.99054089539471
 30
0.0
 10
22.6928303850643
 20
-29.88526288025804
 30
0.0
 10
22.62685816284208
 20
-29.98192985210057
 30
0.0
 10
22.59921940958694
 20
-30.09456853753889
 30
0.0
 10
22.61408062242333
 20
-30.20790234559015
 30
0.0
 10
22.49546981648791
 20
-30.03373513638876
 30
0.0
 10
22.54519227606916
 20
-29.71720766378667
 30
0.0
 10
22.72005291246235
 20
-29.82470752815306
 30
0.0
 10
22.79185823065902
 20
-29.75470783332874
 30
0.0
 10
22.90533106323278
 20
-29.77456884271472
 30
0.0
 10
22.93324701782263
 20
-29.87484621359138
 30
0.0
 10
22.76991439656611
 20
-29.90720756206138
 30
0.0
 10
22.68658106323278
 20
-30.05206857144736
 30
0.0
 10
22.6928303850643
 20
-30.20734624749987
 30
0.0
  0
SPLINE
  5
51
330
1F
100
AcDbEntity
  8
_U+0421_U+043B_U+043E_U+0439 1
 62
     1
420
 16711680
370
    35
100
AcDbSpline
210
0.0
220
0.0
230
1.0
 70
    11
 71
     3
 72
    23
 73
    19
 74
     0
 42
0.0000000001
 43
0.0000000001
 12
1.0
 22
0.0
 32
0.0
 13
1.0
 23
0.0
 33
0.0
 40
0.0
 40
0.0
 40
0.0
 40
0.0
 40
1.0
 40
1.0
 40
1.0
 40
2.0
 40
2.0
 40
2.0
 40
3.0
 40
3.0
 40
3.0
 40
4.0
 40
4.0
 40
4.0
 40
5.0
 40
5.0
 40
5.0
 40
6.0
 40
6.0
 40
6.0
 40
6.0
 10
22.53522659139028
 20
-30.1706107128318
 30
0.0
 10
22.32872972119223
 20
-30.08598947622833
 30
0.0
 10
22.27695883715528
 20
-30.06424326227347
 30
0.0
 10
22.25665616348681
 20
-30.04804332919457
 30
0.0
 10
22.24759451817721
 20
-30.04081285058874
 30
0.0
 10
22.24480160474263
 20
-30.03468723772863
 30
0.0
 10
22.23731830018139
 20
-30.02456926466999
 30
0.0
 10
22.210304747975
 20
-29.94748086451945
 30
0.0
 10
22.18316465961223
 20
-29.87039322817999
 30
0.0
 10
22.15602533813513
 20
-29.79318032681832
 30
0.0
 10
22.23442867449749
 20
-29.8202108382122
 30
0.0
 10
22.3129577801307
 20
-29.84711684839486
 30
0.0
 10
22.39136111649319
 20
-29.87414735978874
 30
0.0
 10
22.39919970037167
 20
-29.8808125981939
 30
0.0
 10
22.40464702331347
 20
-29.88460165094542
 30
0.0
 10
22.4101991439975
 20
-29.89087120312542
 30
0.0
 10
22.42716334640431
 20
-29.91002747840012
 30
0.0
 10
22.44510591406736
 20
-29.95234106995319
 30
0.0
 10
22.53522659139028
 20
-30.1706107128318
 30
0.0
  0
SPLINE
  5
52
330
1F
100
AcDbEntity
  8
_U+0421_U+043B_U+043E_U+0439 1
 62
     1
420
 16711680
370
    35
100
AcDbSpline
210
0.0
220
0.0
230
1.0
 70
    11
 71
     3
 72
    20
 73
    16
 74
     0
 42
0.0000000001
 43
0.0000000001
 12
1.0
 22
0.0
 32
0.0
 13
1.0
 23
0.0
 33
0.0
 40
0.0
 40
0.0
 40
0.0
 40
0.0
 40
1.0
 40
1.0
 40
1.0
 40
2.0
 40
2.0
 40
2.0
 40
3.0
 40
3.0
 40
3.0
 40
4.0
 40
4.0
 40
4.0
 40
5.0
 40
5.0
 40
5.0
 40
5.0
 10
22.57102540595194
 20
-30.25095756206138
 30
0.0
 10
22.45796964694583
 20
-30.23609634922514
 30
0.0
 10
22.34519193698486
 20
-30.2635969256682
 30
0.0
 10
22.2485249651425
 20
-30.32970732470249
 30
0.0
 10
22.35366395575666
 20
-30.29554120057054
 30
0.0
 10
22.46560836629263
 20
-30.29554120057054
 30
0.0
 10
22.57046930786166
 20
-30.32970732470249
 30
0.0
 10
22.41227550767722
 20
-30.32331897834832
 30
0.0
 10
22.26991439656611
 20
-30.40859695957667
 30
0.0
 10
22.23796927395319
 20
-30.57012480517124
 30
0.0
 10
22.13699762817416
 20
-30.54192995382583
 30
0.0
 10
22.11838614407041
 20
-30.42804089539471
 30
0.0
 10
22.18783058851486
 20
-30.35679082757792
 30
0.0
 10
22.08227537204347
 20
-30.18498533983916
 30
0.0
 10
22.39255267510346
 20
-30.1294297842836
 30
0.0
 10
22.57102540595194
 20
-30.25095756206138
 30
0.0
  0
SPLINE
  5
53
330
1F
100
AcDbEntity
  8
_U+0421_U+043B_U+043E_U+0439 1
 62
     1
420
 16711680
370
    35
100
AcDbSpline
210
0.0
220
0.0
230
1.0
 70
    11
 71
     3
 72
    26
 73
    22
 74
     0
 42
0.0000000001
 43
0.0000000001
 12
1.0
 22
0.0
 32
0.0
 13
1.0
 23
0.0
 33
0.0
 40
0.0
 40
0.0
 40
0.0
 40
0.0
 40
1.0
 40
1.0
 40
1.0
 40
2.0
 40
2.0
 40
2.0
 40
3.0
 40
3.0
 40
3.0
 40
4.0
 40
4.0
 40
4.0
 40
5.0
 40
5.0
 40
5.0
 40
6.0
 40
6.0
 40
6.0
 40
7.0
 40
7.0
 40
7.0
 40
7.0
 10
22.19616443047444
 20
-30.66776325325069
 30
0.0
 10
22.25171998603
 20
-30.68331874098946
 30
0.0
 10
22.2601920048018
 20
-30.74165224386487
 30
0.0
 10
22.21921961303749
 20
-30.77442981819207
 30
0.0
 10
22.31171924004486
 20
-30.82012480517124
 30
0.0
 10
22.34074739081527
 20
-30.70609672221763
 30
0.0
 10
22.3529696808543
 20
-30.60706887662306
 30
0.0
 10
22.37908085978222
 20
-30.3960966204925
 30
0.0
 10
22.55644224216069
 20
-30.33234624749987
 30
0.0
 10
22.67491402357346
 20
-30.4198469256682
 30
0.0
 10
22.41033085978222
 20
-30.37706891053153
 30
0.0
 10
22.37741426093235
 20
-30.79831914789042
 30
0.0
 10
22.60324772989944
 20
-30.76456924961568
 30
0.0
 10
22.55616419311555
 20
-30.85401288025804
 30
0.0
 10
22.43644203871013
 20
-30.87012446608709
 30
0.0
 10
22.40533106323278
 20
-30.7624855771982
 30
0.0
 10
22.37602486341721
 20
-30.88567995382583
 30
0.0
 10
22.24185856974319
 20
-30.94054123447904
 30
0.0
 10
22.15644156399235
 20
-30.89567954692471
 30
0.0
 10
22.00088668660513
 20
-30.81387463562916
 30
0.0
 10
22.09602523640986
 20
-30.63970742642778
 30
0.0
 10
22.19616443047444
 20
-30.66776325325069
 30
0.0
  0
SPLINE
  5
54
330
1F
100
AcDbEntity
  8
_U+0421_U+043B_U+043E_U+0439 1
 62
     1
420
 16711680
370
    35
100
AcDbSpline
210
0.0
220
0.0
230
1.0
 70
    11
 71
     3
 72
    17
 73
    13
 74
     0
 42
0.0000000001
 43
0.0000000001
 12
1.0
 22
0.0
 32
0.0
 13
1.0
 23
0.0
 33
0.0
 40
0.0
 40
0.0
 40
0.0
 40
0.0
 40
1.0
 40
1.0
 40
1.0
 40
2.0
 40
2.0
 40
2.0
 40
3.0
 40
3.0
 40
3.0
 40
4.0
 40
4.0
 40
4.0
 40
4.0
 10
22.45324705173097
 20
-33.62734695957667
 30
0.0
 10
21.92102557549402
 20
-33.54040237949847
 30
0.0
 10
22.09477486341721
 20
-32.8710967900346
 30
0.0
 10
22.39699722127305
 20
-33.15109641704195
 30
0.0
 10
22.26880304809597
 20
-33.1908184358136
 30
0.0
 10
22.17949759426569
 20
-33.31776308370861
 30
0.0
 10
22.29102493123403
 20
-33.43915183696375
 30
0.0
 10
22.2571360084368
 20
-33.3130413362043
 30
0.0
 10
22.38241405748193
 20
-33.18887463562916
 30
0.0
 10
22.47269183525971
 20
-33.29248520420555
 30
0.0
 10
22.34380338718027
 20
-33.36151342279277
 30
0.0
 10
22.35963607625361
 20
-33.51748537374763
 30
0.0
 10
22.45324705173097
 20
-33.62734695957667
 30
0.0
  0
SPLINE
  5
55
330
1F
100
AcDbEntity
  8
_U+0421_U+043B_U+043E_U+0439 1
 62
     1
420
 16711680
370
    35
100
AcDbSpline
210
0.0
220
0.0
230
1.0
 70
    11
 71
     3
 72
    11
 73
     7
 74
     0
 42
0.0000000001
 43
0.0000000001
 12
1.0
 22
0.0
 32
0.0
 13
1.0
 23
0.0
 33
0.0
 40
0.0
 40
0.0
 40
0.0
 40
0.0
 40
1.0
 40
1.0
 40
1.0
 40
2.0
 40
2.0
 40
2.0
 40
2.0
 10
22.34421961303749
 20
-31.36165244731541
 30
0.0
 10
22.07519190307653
 20
-31.56956870708096
 30
0.0
 10
21.98574742472361
 20
-31.04262422872804
 30
0.0
 10
22.34283106323278
 20
-30.99637399136915
 30
0.0
 10
22.22171951131222
 20
-31.1033186053557
 30
0.0
 10
22.21046954522055
 20
-31.31818015727625
 30
0.0
 10
22.34421961303749
 20
-31.36165244731541
 30
0.0
  0
SPLINE
  5
56
330
1F
100
AcDbEntity
  8
_U+0421_U+043B_U+043E_U+0439 1
 62
     1
420
 16711680
370
    35
100
AcDbSpline
210
0.0
220
0.0
230
1.0
 70
    11
 71
     3
 72
    11
 73
     7
 74
     0
 42
0.0000000001
 43
0.0000000001
 12
1.0
 22
0.0
 32
0.0
 13
1.0
 23
0.0
 33
0.0
 40
0.0
 40
0.0
 40
0.0
 40
0.0
 40
1.0
 40
1.0
 40
1.0
 40
2.0
 40
2.0
 40
2.0
 40
2.0
 10
22.1226916657175
 20
-32.64692991991735
 30
0.0
 10
22.39171937567847
 20
-32.43887463562916
 30
0.0
 10
22.47963627970416
 20
-32.96623533983916
 30
0.0
 10
22.12408106323278
 20
-33.01220752815306
 30
0.0
 10
22.24533079196542
 20
-32.90526291416654
 30
0.0
 10
22.25658075805694
 20
-32.6904022099564
 30
0.0
 10
22.1226916657175
 20
-32.64692991991735
 30
0.0
  0
SPLINE
  5
57
330
1F
100
AcDbEntity
  8
_U+0421_U+043B_U+043E_U+0439 1
 62
     1
420
 16711680
370
    35
100
AcDbSpline
210
0.0
220
0.0
230
1.0
 70
    11
 71
     3
 72
    35
 73
    31
 74
     0
 42
0.0000000001
 43
0.0000000001
 12
1.0
 22
0.0
 32
0.0
 13
1.0
 23
0.0
 33
0.0
 40
0.0
 40
0.0
 40
0.0
 40
0.0
 40
1.0
 40
1.0
 40
1.0
 40
2.0
 40
2.0
 40
2.0
 40
3.0
 40
3.0
 40
3.0
 40
4.0
 40
4.0
 40
4.0
 40
5.0
 40
5.0
 40
5.0
 40
6.0
 40
6.0
 40
6.0
 40
7.0
 40
7.0
 40
7.0
 40
8.0
 40
8.0
 40
8.0
 40
9.0
 40
9.0
 40
9.0
 40
10.0
 40
10.0
 40
10.0
 40
10.0
 10
22.15366446438291
 20
-33.6958190800736
 30
0.0
 10
22.23963672051361
 20
-33.65054116666207
 30
0.0
 10
22.37338594061985
 20
-33.70665197259751
 30
0.0
 10
22.40241409139028
 20
-33.82901304980015
 30
0.0
 10
22.44546930786166
 20
-33.73151362624334
 30
0.0
 10
22.56171924004486
 20
-33.70720807068778
 30
0.0
 10
22.63463590671152
 20
-33.75581918179889
 30
0.0
 10
22.70685829847583
 20
-33.80401321934222
 30
0.0
 10
22.74880301418764
 20
-33.92970749424459
 30
0.0
 10
22.63880325154653
 20
-33.96901328715916
 30
0.0
 10
22.65949756035736
 20
-33.89193012336793
 30
0.0
 10
22.58977506686777
 20
-33.83748591628235
 30
0.0
 10
22.5383860084368
 20
-33.84359621359138
 30
0.0
 10
22.40088651706305
 20
-33.85998584846556
 30
0.0
 10
22.41783055460639
 20
-34.21276311761709
 30
0.0
 10
22.67213607625361
 20
-34.1716525490407
 30
0.0
 10
22.5501920726186
 20
-34.26165227777334
 30
0.0
 10
22.37560863756
 20
-34.1904022099564
 30
0.0
 10
22.35019173353444
 20
-33.98442975037528
 30
0.0
 10
22.34852513468458
 20
-33.97054086148639
 30
0.0
 10
22.34741378621457
 20
-33.82331897834833
 30
0.0
 10
22.26241385403139
 20
-33.80873581455709
 30
0.0
 10
22.25394183525971
 20
-33.80734641704195
 30
0.0
 10
22.23796927395319
 20
-33.80637409309444
 30
0.0
 10
22.21630264119499
 20
-33.81706880880625
 30
0.0
 10
22.31602560940249
 20
-33.89637466953764
 30
0.0
 10
22.12824756035736
 20
-33.9960967900346
 30
0.0
 10
22.07630325154653
 20
-33.85262433045333
 30
0.0
 10
22.05449759426569
 20
-33.7926242287282
 30
0.0
 10
22.10033075805694
 20
-33.72387405918597
 30
0.0
 10
22.15366446438291
 20
-33.6958190800736
 30
0.0
  0
SPLINE
  5
58
330
1F
100
AcDbEntity
  8
_U+0421_U+043B_U+043E_U+0439 1
 62
     1
420
 16711680
370
    35
100
AcDbSpline
210
0.0
220
0.0
230
1.0
 70
    11
 71
     3
 72
    35
 73
    31
 74
     0
 42
0.0000000001
 43
0.0000000001
 12
1.0
 22
0.0
 32
0.0
 13
1.0
 23
0.0
 33
0.0
 40
0.0
 40
0.0
 40
0.0
 40
0.0
 40
1.0
 40
1.0
 40
1.0
 40
2.0
 40
2.0
 40
2.0
 40
3.0
 40
3.0
 40
3.0
 40
4.0
 40
4.0
 40
4.0
 40
5.0
 40
5.0
 40
5.0
 40
6.0
 40
6.0
 40
6.0
 40
7.0
 40
7.0
 40
7.0
 40
8.0
 40
8.0
 40
8.0
 40
9.0
 40
9.0
 40
9.0
 40
10.0
 40
10.0
 40
10.0
 40
10.0
 10
22.96185894273583
 20
-34.50123561110667
 30
0.0
 10
23.18185846801791
 20
-34.49970803677931
 30
0.0
 10
23.12144214043542
 20
-34.27568019118472
 30
0.0
 10
22.98269227606916
 20
-34.3130413362043
 30
0.0
 10
23.02213624579569
 20
-34.2029025490407
 30
0.0
 10
23.14796954522055
 20
-34.24512446608709
 30
0.0
 10
23.19602540595194
 20
-34.31720783332889
 30
0.0
 10
23.24408041897277
 20
-34.38929120057055
 30
0.0
 10
23.221303285455
 20
-34.50595735861098
 30
0.0
 10
23.12283069024013
 20
-34.54942964865
 30
0.0
 10
23.24602506686777
 20
-34.57859682394292
 30
0.0
 10
23.30088634752097
 20
-34.71276311761709
 30
0.0
 10
23.25602550767722
 20
-34.79818012336793
 30
0.0
 10
23.17421974867111
 20
-34.95373584846556
 30
0.0
 10
23.00005338718027
 20
-34.85859645095042
 30
0.0
 10
23.02810836629263
 20
-34.75845810459625
 30
0.0
 10
23.04366385403139
 20
-34.70304072585264
 30
0.0
 10
23.1019973569068
 20
-34.69442968255846
 30
0.0
 10
23.13477493123403
 20
-34.73554109884528
 30
0.0
 10
23.14546964694583
 20
-34.71387446608709
 30
0.0
 10
23.14449732299833
 20
-34.69790190478069
 30
0.0
 10
23.14310877319374
 20
-34.68942988600889
 30
0.0
 10
23.12533058851486
 20
-34.58554126838736
 30
0.0
 10
22.94810823065902
 20
-34.61887409309444
 30
0.0
 10
22.85658092759902
 20
-34.57026298198333
 30
0.0
 10
22.76324715345625
 20
-34.52067954692471
 30
0.0
 10
22.69546930786166
 20
-34.39443002164264
 30
0.0
 10
22.78019203871013
 20
-34.27970766378667
 30
0.0
 10
22.75949772989944
 20
-34.40706853753888
 30
0.0
 10
22.86074742472361
 20
-34.50192988600889
 30
0.0
 10
22.96185894273583
 20
-34.50123561110667
 30
0.0
  0
SPLINE
  5
59
330
1F
100
AcDbEntity
  8
_U+0421_U+043B_U+043E_U+0439 1
 62
     1
420
 16711680
370
    35
100
AcDbSpline
210
0.0
220
0.0
230
1.0
 70
    11
 71
     3
 72
    20
 73
    16
 74
     0
 42
0.0000000001
 43
0.0000000001
 12
1.0
 22
0.0
 32
0.0
 13
1.0
 23
0.0
 33
0.0
 40
0.0
 40
0.0
 40
0.0
 40
0.0
 40
1.0
 40
1.0
 40
1.0
 40
2.0
 40
2.0
 40
2.0
 40
3.0
 40
3.0
 40
3.0
 40
4.0
 40
4.0
 40
4.0
 40
5.0
 40
5.0
 40
5.0
 40
5.0
 10
22.93046991821319
 20
-34.71665241340694
 30
0.0
 10
22.90255311591291
 20
-34.8167907597611
 30
0.0
 10
22.78908113104958
 20
-34.83692981819208
 30
0.0
 10
22.71713594061985
 20
-34.76679109884528
 30
0.0
 10
22.54533045288124
 20
-34.87234631531666
 30
0.0
 10
22.48963672051361
 20
-34.56220803677931
 30
0.0
 10
22.61116449829138
 20
-34.3835962814082
 30
0.0
 10
22.59644146226708
 20
-34.49679106493694
 30
0.0
 10
22.62394203871013
 20
-34.60942975037528
 30
0.0
 10
22.68991426093235
 20
-34.70623574674028
 30
0.0
 10
22.6558863136125
 20
-34.6010967561261
 30
0.0
 10
22.6558863136125
 20
-34.4890133210675
 30
0.0
 10
22.68991426093235
 20
-34.38415237949847
 30
0.0
 10
22.68366409139028
 20
-34.54234702739346
 30
0.0
 10
22.76880304809597
 20
-34.68470813850458
 30
0.0
 10
22.93046991821319
 20
-34.71665241340694
 30
0.0
  0
SPLINE
  5
5A
330
1F
100
AcDbEntity
  8
_U+0421_U+043B_U+043E_U+0439 1
 62
     1
420
 16711680
370
    35
100
AcDbSpline
210
0.0
220
0.0
230
1.0
 70
    11
 71
     3
 72
    20
 73
    16
 74
     0
 42
0.0000000001
 43
0.0000000001
 12
1.0
 22
0.0
 32
0.0
 13
1.0
 23
0.0
 33
0.0
 40
0.0
 40
0.0
 40
0.0
 40
0.0
 40
1.0
 40
1.0
 40
1.0
 40
2.0
 40
2.0
 40
2.0
 40
3.0
 40
3.0
 40
3.0
 40
4.0
 40
4.0
 40
4.0
 40
5.0
 40
5.0
 40
5.0
 40
5.0
 10
22.56824745863208
 20
-34.34054106493694
 30
0.0
 10
22.39185840020111
 20
-34.46068029291001
 30
0.0
 10
22.07824705173097
 20
-34.40831891053153
 30
0.0
 10
22.18491446438291
 20
-34.23470779942042
 30
0.0
 10
22.11574722127305
 20
-34.1635967561261
 30
0.0
 10
22.13394163180917
 20
-34.04956867317264
 30
0.0
 10
22.23519217434389
 20
-34.02137466953764
 30
0.0
 10
22.2678307241486
 20
-34.18637473735445
 30
0.0
 10
22.41435833238416
 20
-34.2680414718379
 30
0.0
 10
22.56769220825222
 20
-34.26179130229583
 30
0.0
 10
22.46296944349528
 20
-34.29595742642778
 30
0.0
 10
22.3508860084368
 20
-34.29595742642778
 30
0.0
 10
22.24560884101055
 20
-34.26179130229583
 30
0.0
 10
22.3422749651425
 20
-34.3279025490407
 30
0.0
 10
22.45491449829138
 20
-34.35540227777334
 30
0.0
 10
22.56824745863208
 20
-34.34054106493694
 30
0.0
  0
SPLINE
  5
5B
330
1F
100
AcDbEntity
  8
_U+0421_U+043B_U+043E_U+0439 1
 62
     1
420
 16711680
370
    35
100
AcDbSpline
210
0.0
220
0.0
230
1.0
 70
    11
 71
     3
 72
    23
 73
    19
 74
     0
 42
0.0000000001
 43
0.0000000001
 12
1.0
 22
0.0
 32
0.0
 13
1.0
 23
0.0
 33
0.0
 40
0.0
 40
0.0
 40
0.0
 40
0.0
 40
1.0
 40
1.0
 40
1.0
 40
2.0
 40
2.0
 40
2.0
 40
3.0
 40
3.0
 40
3.0
 40
4.0
 40
4.0
 40
4.0
 40
5.0
 40
5.0
 40
5.0
 40
6.0
 40
6.0
 40
6.0
 40
6.0
 10
22.23457837510236
 20
-34.56356640731499
 30
0.0
 10
22.24185291126361
 20
-34.55357096343374
 30
0.0
 10
22.24492935612833
 20
-34.54731165947346
 30
0.0
 10
22.25317972337056
 20
-34.54032754991736
 30
0.0
 10
22.27301454559361
 20
-34.52353695534596
 30
0.0
 10
22.3227534152343
 20
-34.50255715588833
 30
0.0
 10
22.53262242472361
 20
-34.41540237949847
 30
0.0
 10
22.44346619482903
 20
-34.63434717516596
 30
0.0
 10
22.42433743953569
 20
-34.6793424886736
 30
0.0
 10
22.40778057761625
 20
-34.69887116077376
 30
0.0
 10
22.40204391342723
 20
-34.70563750541333
 30
0.0
 10
22.39661600549124
 20
-34.70934657526125
 30
0.0
 10
22.3886910190418
 20
-34.71617455780625
 30
0.0
 10
22.31012592502736
 20
-34.74359870801693
 30
0.0
 10
22.23168665792125
 20
-34.77089499767986
 30
0.0
 10
22.15324739081527
 20
-34.79831914789042
 30
0.0
 10
22.18027409005111
 20
-34.72011033793958
 30
0.0
 10
22.20742584895806
 20
-34.64177521726583
 30
0.0
 10
22.23457837510236
 20
-34.56356640731499
 30
0.0
  0
SPLINE
  5
5C
330
1F
100
AcDbEntity
  8
_U+0421_U+043B_U+043E_U+0439 1
 62
     1
420
 16711680
370
    35
100
AcDbSpline
210
0.0
220
0.0
230
1.0
 70
    11
 71
     3
 72
   134
 73
   130
 74
     0
 42
0.0000000001
 43
0.0000000001
 12
1.0
 22
0.0
 32
0.0
 13
1.0
 23
0.0
 33
0.0
 40
0.0
 40
0.0
 40
0.0
 40
0.0
 40
1.0
 40
1.0
 40
1.0
 40
2.0
 40
2.0
 40
2.0
 40
3.0
 40
3.0
 40
3.0
 40
4.0
 40
4.0
 40
4.0
 40
5.0
 40
5.0
 40
5.0
 40
6.0
 40
6.0
 40
6.0
 40
7.0
 40
7.0
 40
7.0
 40
8.0
 40
8.0
 40
8.0
 40
9.0
 40
9.0
 40
9.0
 40
10.0
 40
10.0
 40
10.0
 40
11.0
 40
11.0
 40
11.0
 40
12.0
 40
12.0
 40
12.0
 40
13.0
 40
13.0
 40
13.0
 40
14.0
 40
14.0
 40
14.0
 40
15.0
 40
15.0
 40
15.0
 40
16.0
 40
16.0
 40
16.0
 40
17.0
 40
17.0
 40
17.0
 40
18.0
 40
18.0
 40
18.0
 40
19.0
 40
19.0
 40
19.0
 40
20.0
 40
20.0
 40
20.0
 40
21.0
 40
21.0
 40
21.0
 40
22.0
 40
22.0
 40
22.0
 40
23.0
 40
23.0
 40
23.0
 40
24.0
 40
24.0
 40
24.0
 40
25.0
 40
25.0
 40
25.0
 40
26.0
 40
26.0
 40
26.0
 40
27.0
 40
27.0
 40
27.0
 40
28.0
 40
28.0
 40
28.0
 40
29.0
 40
29.0
 40
29.0
 40
30.0
 40
30.0
 40
30.0
 40
31.0
 40
31.0
 40
31.0
 40
32.0
 40
32.0
 40
32.0
 40
33.0
 40
33.0
 40
33.0
 40
34.0
 40
34.0
 40
34.0
 40
35.0
 40
35.0
 40
35.0
 40
36.0
 40
36.0
 40
36.0
 40
37.0
 40
37.0
 40
37.0
 40
38.0
 40
38.0
 40
38.0
 40
39.0
 40
39.0
 40
39.0
 40
40.0
 40
40.0
 40
40.0
 40
41.0
 40
41.0
 40
41.0
 40
42.0
 40
42.0
 40
42.0
 40
43.0
 40
43.0
 40
43.0
 40
43.0
 10
24.30658041897277
 20
-34.79206897834833
 30
0.0
 10
24.29283055460639
 20
-34.80595786723721
 30
0.0
 10
23.93394214043542
 20
-34.88387433045333
 30
0.0
 10
23.71921961303749
 20
-34.53290183696375
 30
0.0
 10
23.34644146226708
 20
-34.43276349060958
 30
0.0
 10
23.20796964694583
 20
-33.96179079366958
 30
0.0
 10
23.19074756035736
 20
-33.90567998773417
 30
0.0
 10
23.19074756035736
 20
-33.90567998773417
 30
0.0
 10
23.19074756035736
 20
-33.90554096321168
 30
0.0
 10
23.19060853583472
 20
-33.90540193868903
 30
0.0
 10
22.92087044447194
 20
-33.39417655620208
 30
0.0
 10
22.69679088853652
 20
-32.68029834846556
 30
0.0
 10
22.73908062242333
 20
-32.23623537374763
 30
0.0
 10
22.67366449829138
 20
-32.22512443217862
 30
0.0
 10
22.62449728908999
 20
-32.20665197259751
 30
0.0
 10
22.61838614407041
 20
-32.1765133210675
 30
0.0
 10
22.61019217434389
 20
-32.13637422872804
 30
0.0
 10
22.68088614407041
 20
-32.08526321934222
 30
0.0
 10
22.76477557549402
 20
-32.0398462814082
 30
0.0
 10
22.77116392184819
 20
-32.00137463562916
 30
0.0
 10
22.77852543986041
 20
-31.96262409309444
 30
0.0
 10
22.78685843410944
 20
-31.92359634922514
 30
0.0
 10
22.65671961303749
 20
-31.86762456781237
 30
0.0
 10
22.5814420726186
 20
-31.80206857144736
 30
0.0
 10
22.58977506686777
 20
-31.75387453390388
 30
0.0
 10
22.60324772989944
 20
-31.67609624749987
 30
0.0
 10
22.83324769599097
 20
-31.65484668830931
 30
0.0
 10
22.84769183525971
 20
-31.65359631531666
 30
0.0
 10
22.83019169962597
 20
-31.63943022509319
 30
0.0
 10
22.50046961303749
 20
-31.36679126838736
 30
0.0
 10
22.55394149617541
 20
-31.27401359233487
 30
0.0
 10
22.59435863756
 20
-31.20373584846556
 30
0.0
 10
22.83463624579569
 20
-31.26998527202237
 30
0.0
 10
22.89783052069805
 20
-31.28831870708096
 30
0.0
 10
22.85810850192638
 20
-31.26054092930318
 30
0.0
 10
22.62283069024013
 20
-31.09165241340694
 30
0.0
 10
22.64949711954791
 20
-30.9038743643618
 30
0.0
 10
22.65713668660513
 20
-30.84984638313348
 30
0.0
 10
22.69074756035736
 20
-30.76443022509319
 30
0.0
 10
22.73546937567847
 20
-30.76067995382583
 30
0.0
 10
22.76421947740375
 20
-30.75818005555096
 30
0.0
 10
22.78227486341721
 20
-30.79067958083321
 30
0.0
 10
22.82616422702402
 20
-30.83220807068778
 30
0.0
 10
22.86213597452833
 20
-30.86623517029708
 30
0.0
 10
22.9164420048018
 20
-30.90734658658403
 30
0.0
 10
22.99810873928527
 20
-30.93970793505403
 30
0.0
 10
22.95046995212167
 20
-30.8510967561261
 30
0.0
 10
22.80435856974319
 20
-30.55470749424459
 30
0.0
 10
22.92644159790069
 20
-30.31651355842652
 30
0.0
 10
22.97783065633166
 20
-30.21623533983916
 30
0.0
 10
23.09073043660513
 20
-30.11515857795777
 30
0.0
 10
23.14156339694583
 20
-30.13849265727625
 30
0.0
 10
23.15697986016194
 20
-30.14557527853279
 30
0.0
 10
23.16142440633166
 20
-30.16654763638876
 30
0.0
 10
23.16295282836944
 20
-30.17432538025804
 30
0.0
 10
23.22975835001666
 20
-30.49376982470249
 30
0.0
 10
23.26588607625361
 20
-30.58012439827027
 30
0.0
 10
23.33644186916806
 20
-30.68526338888429
 30
0.0
 10
23.6646363814293
 20
-30.24290176914693
 30
0.0
 10
24.11046937567847
 20
-29.92526294807486
 30
0.0
 10
24.63505298027917
 20
-29.92234682394292
 30
0.0
 10
25.16699725518152
 20
-29.91915180305543
 30
0.0
 10
25.62227543986041
 20
-30.24054089539471
 30
0.0
 10
25.95699732299833
 20
-30.69012416091126
 30
0.0
 10
26.03046924004486
 20
-30.58373564501499
 30
0.0
 10
26.05529613756
 20
-30.49154797547291
 30
0.0
 10
26.12307398315458
 20
-30.1673809358136
 30
0.0
 10
26.12474058200444
 20
-30.15960319194432
 30
0.0
 10
26.12904610365153
 20
-30.13863083408834
 30
0.0
 10
26.14460159139028
 20
-30.1315482128318
 30
0.0
 10
26.19529637491889
 20
-30.10821413351333
 30
0.0
 10
26.31894173353444
 20
-30.21623533983916
 30
0.0
 10
26.37019176744277
 20
-30.31651355842652
 30
0.0
 10
26.49227479560041
 20
-30.55470749424459
 30
0.0
 10
26.34616426093235
 20
-30.8510967561261
 30
0.0
 10
26.29866449829138
 20
-30.93970793505403
 30
0.0
 10
26.38019220825222
 20
-30.90734658658403
 30
0.0
 10
26.43463641533777
 20
-30.86623517029708
 30
0.0
 10
26.47046998603
 20
-30.83220807068778
 30
0.0
 10
26.51449752644888
 20
-30.79067958083321
 30
0.0
 10
26.53255291246235
 20
-30.75818005555096
 30
0.0
 10
26.56130301418764
 20
-30.76067995382583
 30
0.0
 10
26.60602482950874
 20
-30.76443022509319
 30
0.0
 10
26.63949752644888
 20
-30.84984638313348
 30
0.0
 10
26.64727527031819
 20
-30.9038743643618
 30
0.0
 10
26.67380267510346
 20
-31.09165241340694
 30
0.0
 10
26.43852486341721
 20
-31.26054092930318
 30
0.0
 10
26.39894186916806
 20
-31.28831870708096
 30
0.0
 10
26.46199711954791
 20
-31.26998527202237
 30
0.0
 10
26.70227557549402
 20
-31.20373584846556
 30
0.0
 10
26.74269186916806
 20
-31.27401359233487
 30
0.0
 10
26.7961637523061
 20
-31.36679126838736
 30
0.0
 10
26.4664416657175
 20
-31.63943022509319
 30
0.0
 10
26.44908055460639
 20
-31.65359631531666
 30
0.0
 10
26.46352554158555
 20
-31.65484668830931
 30
0.0
 10
26.69352550767722
 20
-31.67609624749987
 30
0.0
 10
26.70685829847583
 20
-31.75387453390388
 30
0.0
 10
26.71519214043542
 20
-31.80220759596985
 30
0.0
 10
26.63963655097152
 20
-31.86790176914693
 30
0.0
 10
26.50894163180917
 20
-31.92387439827027
 30
0.0
 10
26.51741449829138
 20
-31.96262409309444
 30
0.0
 10
26.52477516859305
 20
-32.00109658658403
 30
0.0
 10
26.53116436265764
 20
-32.03943005555097
 30
0.0
 10
26.61533099541596
 20
-32.08498517029708
 30
0.0
 10
26.68644203871013
 20
-32.13623520420555
 30
0.0
 10
26.67824722127305
 20
-32.1765133210675
 30
0.0
 10
26.67213607625361
 20
-32.20665197259751
 30
0.0
 10
26.62296971476264
 20
-32.22512443217862
 30
0.0
 10
26.55741371839763
 20
-32.23623537374763
 30
0.0
 10
26.60368345309819
 20
-32.72184209710917
 30
0.0
 10
26.34320744669624
 20
-33.4559509160111
 30
0.0
 10
26.10602482950874
 20
-33.90540193868903
 30
0.0
 10
26.10602482950874
 20
-33.90554096321168
 30
0.0
 10
26.10602482950874
 20
-33.90554096321168
 30
0.0
 10
26.10588665269666
 20
-33.90567998773417
 30
0.0
 10
26.08908079196542
 20
-33.96165176914693
 30
0.0
 10
25.95283082587375
 20
-34.43206921570737
 30
0.0
 10
25.57755277682861
 20
-34.53290183696375
 30
0.0
 10
25.3626920726186
 20
-34.88387433045333
 30
0.0
 10
25.00394183525971
 20
-34.80595786723721
 30
0.0
 10
24.99005294637082
 20
-34.79206897834833
 30
0.0
 10
24.9360249651425
 20
-34.8685960440493
 30
0.0
 10
24.87352581285291
 20
-34.92345478157098
 30
0.0
 10
24.80727723700666
 20
-34.95692917393209
 30
0.0
 10
24.80727723700666
 20
-34.95692917393209
 30
0.0
 10
24.48949600056999
 20
-34.95692917393209
 30
0.0
 10
24.48949600056999
 20
-34.95692917393209
 30
0.0
 10
24.42324657701318
 20
-34.92345478157098
 30
0.0
 10
24.36060840020111
 20
-34.8685960440493
 30
0.0
 10
24.30658041897277
 20
-34.79206897834833
 30
0.0
  0
SPLINE
  5
5D
330
1F
100
AcDbEntity
  8
_U+0421_U+043B_U+043E_U+0439 1
 62
     1
420
 16711680
370
    35
100
AcDbSpline
210
0.0
220
0.0
230
1.0
 70
    11
 71
     3
 72
    26
 73
    22
 74
     0
 42
0.0000000001
 43
0.0000000001
 12
1.0
 22
0.0
 32
0.0
 13
1.0
 23
0.0
 33
0.0
 40
0.0
 40
0.0
 40
0.0
 40
0.0
 40
1.0
 40
1.0
 40
1.0
 40
2.0
 40
2.0
 40
2.0
 40
3.0
 40
3.0
 40
3.0
 40
4.0
 40
4.0
 40
4.0
 40
5.0
 40
5.0
 40
5.0
 40
6.0
 40
6.0
 40
6.0
 40
7.0
 40
7.0
 40
7.0
 40
7.0
 10
26.43727533813513
 20
-30.02123564501499
 30
0.0
 10
26.53060826456736
 20
-30.07081908007361
 30
0.0
 10
26.59852513468458
 20
-30.1970686053557
 30
0.0
 10
26.51366422702402
 20
-30.31179096321168
 30
0.0
 10
26.56171924004486
 20
-30.01484645095027
 30
0.0
 10
26.15894146226708
 20
-30.15762463562916
 30
0.0
 10
26.04630277682861
 20
-29.94804092930318
 30
0.0
 10
26.04033065633166
 20
-29.93692998773417
 30
0.0
 10
26.00088668660513
 20
-29.86373527202237
 30
0.0
 10
26.03783075805694
 20
-29.79331850363042
 30
0.0
 10
26.11963651706305
 20
-29.63776362624334
 30
0.0
 10
26.29394190307653
 20
-29.73290217604805
 30
0.0
 10
26.26574705173097
 20
-29.83304137011265
 30
0.0
 10
26.26519180135124
 20
-29.83526321934222
 30
0.0
 10
26.25324756035736
 20
-29.87526328715916
 30
0.0
 10
26.21769203871013
 20
-29.88109638313348
 30
0.0
 10
26.18435836629263
 20
-29.88665227777318
 30
0.0
 10
26.16019183525971
 20
-29.8573469256682
 30
0.0
 10
26.15921951131222
 20
-29.85609655267555
 30
0.0
 10
26.08977506686777
 20
-29.99665204041429
 30
0.0
 10
26.35671995212167
 20
-29.97845762987835
 30
0.0
 10
26.43727533813513
 20
-30.02123564501499
 30
0.0
  0
SPLINE
  5
5E
330
1F
100
AcDbEntity
  8
_U+0421_U+043B_U+043E_U+0439 1
 62
     1
420
 16711680
370
    35
100
AcDbSpline
210
0.0
220
0.0
230
1.0
 70
    11
 71
     3
 72
    35
 73
    31
 74
     0
 42
0.0000000001
 43
0.0000000001
 12
1.0
 22
0.0
 32
0.0
 13
1.0
 23
0.0
 33
0.0
 40
0.0
 40
0.0
 40
0.0
 40
0.0
 40
1.0
 40
1.0
 40
1.0
 40
2.0
 40
2.0
 40
2.0
 40
3.0
 40
3.0
 40
3.0
 40
4.0
 40
4.0
 40
4.0
 40
5.0
 40
5.0
 40
5.0
 40
6.0
 40
6.0
 40
6.0
 40
7.0
 40
7.0
 40
7.0
 40
8.0
 40
8.0
 40
8.0
 40
9.0
 40
9.0
 40
9.0
 40
10.0
 40
10.0
 40
10.0
 40
10.0
 10
26.15630338718027
 20
-34.73554109884528
 30
0.0
 10
26.18908096150749
 20
-34.69442968255846
 30
0.0
 10
26.24741446438291
 20
-34.7029025490407
 30
0.0
 10
26.26296995212167
 20
-34.75845810459625
 30
0.0
 10
26.29088590671152
 20
-34.85804120057055
 30
0.0
 10
26.11727479560041
 20
-34.95456914789042
 30
0.0
 10
26.03505281073708
 20
-34.79818012336793
 30
0.0
 10
25.98977489732568
 20
-34.71220786723721
 30
0.0
 10
26.04588655097152
 20
-34.57845779942042
 30
0.0
 10
26.16824762817416
 20
-34.54942964865
 30
0.0
 10
26.15213604234514
 20
-34.54220800287096
 30
0.0
 10
26.12171934177013
 20
-34.52609641704195
 30
0.0
 10
26.09921940958694
 20
-34.49290176914693
 30
0.0
 10
25.9800533532718
 20
-34.31776308370861
 30
0.0
 10
26.24894203871013
 20
-34.14734699348514
 30
0.0
 10
26.30824701782263
 20
-34.3130413362043
 30
0.0
 10
26.23116385403139
 20
-34.29234702739346
 30
0.0
 10
26.17671964694583
 20
-34.36206867317264
 30
0.0
 10
26.18283079196542
 20
-34.41345773160361
 30
0.0
 10
26.19921957912902
 20
-34.55165234559015
 30
0.0
 10
26.55199769599097
 20
-34.53345793505402
 30
0.0
 10
26.51088627970416
 20
-34.27970766378667
 30
0.0
 10
26.60074783162472
 20
-34.40123544156445
 30
0.0
 10
26.52991398966499
 20
-34.57623510248027
 30
0.0
 10
26.3236643287493
 20
-34.60165200650597
 30
0.0
 10
26.30977543986041
 20
-34.6033186053557
 30
0.0
 10
26.1624136844893
 20
-34.60442995382583
 30
0.0
 10
26.14796954522055
 20
-34.68942988600889
 30
0.0
 10
26.14658099541596
 20
-34.69790190478069
 30
0.0
 10
26.14560867146847
 20
-34.71387446608709
 30
0.0
 10
26.15630338718027
 20
-34.73554109884528
 30
0.0
  0
SPLINE
  5
5F
330
1F
100
AcDbEntity
  8
_U+0421_U+043B_U+043E_U+0439 1
 62
     1
420
 16711680
370
    35
100
AcDbSpline
210
0.0
220
0.0
230
1.0
 70
    11
 71
     3
 72
    20
 73
    16
 74
     0
 42
0.0000000001
 43
0.0000000001
 12
1.0
 22
0.0
 32
0.0
 13
1.0
 23
0.0
 33
0.0
 40
0.0
 40
0.0
 40
0.0
 40
0.0
 40
1.0
 40
1.0
 40
1.0
 40
2.0
 40
2.0
 40
2.0
 40
3.0
 40
3.0
 40
3.0
 40
4.0
 40
4.0
 40
4.0
 40
5.0
 40
5.0
 40
5.0
 40
5.0
 10
26.6010250329593
 20
-34.38415237949847
 30
0.0
 10
26.6351920048018
 20
-34.48887429654501
 30
0.0
 10
26.6351920048018
 20
-34.60095773160361
 30
0.0
 10
26.6010250329593
 20
-34.70623574674028
 30
0.0
 10
26.66699725518152
 20
-34.60956877489777
 30
0.0
 10
26.6946360084368
 20
-34.49693008945943
 30
0.0
 10
26.67977479560041
 20
-34.3835962814082
 30
0.0
 10
26.80116439656611
 20
-34.56179096321168
 30
0.0
 10
26.74588604234514
 20
-34.87248533983931
 30
0.0
 10
26.57394153008388
 20
-34.76679109884528
 30
0.0
 10
26.50213621188722
 20
-34.83679079366958
 30
0.0
 10
26.38852520250139
 20
-34.81692978428375
 30
0.0
 10
26.36060840020111
 20
-34.71665241340694
 30
0.0
 10
26.52560846801791
 20
-34.6840130158918
 30
0.0
 10
26.60727520250139
 20
-34.53748540765612
 30
0.0
 10
26.6010250329593
 20
-34.38415237949847
 30
0.0
  0
SPLINE
  5
60
330
1F
100
AcDbEntity
  8
_U+0421_U+043B_U+043E_U+0439 1
 62
     1
420
 16711680
370
    35
100
AcDbSpline
210
0.0
220
0.0
230
1.0
 70
    11
 71
     3
 72
    23
 73
    19
 74
     0
 42
0.0000000001
 43
0.0000000001
 12
1.0
 22
0.0
 32
0.0
 13
1.0
 23
0.0
 33
0.0
 40
0.0
 40
0.0
 40
0.0
 40
0.0
 40
1.0
 40
1.0
 40
1.0
 40
2.0
 40
2.0
 40
2.0
 40
3.0
 40
3.0
 40
3.0
 40
4.0
 40
4.0
 40
4.0
 40
5.0
 40
5.0
 40
5.0
 40
6.0
 40
6.0
 40
6.0
 40
6.0
 10
26.7652613136125
 20
-34.43044867579485
 30
0.0
 10
26.94648227978917
 20
-34.50407905162236
 30
0.0
 10
27.00632142354666
 20
-34.52880234391111
 30
0.0
 10
27.03129927778861
 20
-34.54456754824959
 30
0.0
 10
27.04666420389958
 20
-34.55426538688057
 30
0.0
 10
27.04883763110209
 20
-34.56057348838279
 30
0.0
 10
27.05795889936138
 20
-34.57279075992278
 30
0.0
 10
27.08450078009069
 20
-34.647926440085
 30
0.0
 10
27.11116547710777
 20
-34.7231834677282
 30
0.0
 10
27.13783092759902
 20
-34.79831914789042
 30
0.0
 10
27.06079874346723
 20
-34.77197259971707
 30
0.0
 10
26.98364298957319
 20
-34.74574888795097
 30
0.0
 10
26.90661005196709
 20
-34.71940233977764
 30
0.0
 10
26.89596546425028
 20
-34.71042315472404
 30
0.0
 10
26.88980911360583
 20
-34.70679949643722
 30
0.0
 10
26.88166545109458
 20
-34.69474513750624
 30
0.0
 10
26.8659148144325
 20
-34.67143083298333
 30
0.0
 10
26.84273017501792
 20
-34.61657952974055
 30
0.0
 10
26.7652613136125
 20
-34.43044867579485
 30
0.0
  0
SPLINE
  5
61
330
1F
100
AcDbEntity
  8
_U+0421_U+043B_U+043E_U+0439 1
 62
     1
420
 16711680
370
    35
100
AcDbSpline
210
0.0
220
0.0
230
1.0
 70
    11
 71
     3
 72
    20
 73
    16
 74
     0
 42
0.0000000001
 43
0.0000000001
 12
1.0
 22
0.0
 32
0.0
 13
1.0
 23
0.0
 33
0.0
 40
0.0
 40
0.0
 40
0.0
 40
0.0
 40
1.0
 40
1.0
 40
1.0
 40
2.0
 40
2.0
 40
2.0
 40
3.0
 40
3.0
 40
3.0
 40
4.0
 40
4.0
 40
4.0
 40
5.0
 40
5.0
 40
5.0
 40
5.0
 10
26.72283085978222
 20
-34.34054106493694
 30
0.0
 10
26.83602479560041
 20
-34.35540227777334
 30
0.0
 10
26.9486643287493
 20
-34.3279025490407
 30
0.0
 10
27.04546947740375
 20
-34.26179130229583
 30
0.0
 10
26.94019146226708
 20
-34.29595742642778
 30
0.0
 10
26.82824705173097
 20
-34.29595742642778
 30
0.0
 10
26.72338611016194
 20
-34.26179130229583
 30
0.0
 10
26.88158075805694
 20
-34.26817964865
 30
0.0
 10
27.02394186916806
 20
-34.18290251513223
 30
0.0
 10
27.05588614407041
 20
-34.02137466953764
 30
0.0
 10
27.15685863756
 20
-34.04956867317264
 30
0.0
 10
27.17546927395319
 20
-34.16345773160361
 30
0.0
 10
27.10602482950874
 20
-34.23470779942042
 30
0.0
 10
27.21158089369069
 20
-34.40651328715916
 30
0.0
 10
26.90130274292028
 20
-34.46220786723721
 30
0.0
 10
26.72283085978222
 20
-34.34054106493694
 30
0.0
  0
SPLINE
  5
62
330
1F
100
AcDbEntity
  8
_U+0421_U+043B_U+043E_U+0439 1
 62
     1
420
 16711680
370
    35
100
AcDbSpline
210
0.0
220
0.0
230
1.0
 70
    11
 71
     3
 72
    32
 73
    28
 74
     0
 42
0.0000000001
 43
0.0000000001
 12
1.0
 22
0.0
 32
0.0
 13
1.0
 23
0.0
 33
0.0
 40
0.0
 40
0.0
 40
0.0
 40
0.0
 40
1.0
 40
1.0
 40
1.0
 40
2.0
 40
2.0
 40
2.0
 40
3.0
 40
3.0
 40
3.0
 40
4.0
 40
4.0
 40
4.0
 40
5.0
 40
5.0
 40
5.0
 40
6.0
 40
6.0
 40
6.0
 40
7.0
 40
7.0
 40
7.0
 40
8.0
 40
8.0
 40
8.0
 40
9.0
 40
9.0
 40
9.0
 40
9.0
 10
27.09769183525971
 20
-33.92373537374763
 30
0.0
 10
27.04213627970416
 20
-33.90817988600889
 30
0.0
 10
27.03366426093235
 20
-33.84970735861098
 30
0.0
 10
27.07463665269666
 20
-33.81706880880625
 30
0.0
 10
26.93408116495805
 20
-33.7476243643618
 30
0.0
 10
26.95227557549402
 20
-34.01470742642778
 30
0.0
 10
26.90949756035736
 20
-34.09526366015181
 30
0.0
 10
26.85991412529875
 20
-34.18859658658403
 30
0.0
 10
26.7336637523061
 20
-34.25637443217862
 30
0.0
 10
26.61894224216069
 20
-34.1716525490407
 30
0.0
 10
26.87296971476264
 20
-34.21276311761709
 30
0.0
 10
26.89060887491889
 20
-33.85998584846556
 30
0.0
 10
26.75269146226708
 20
-33.84359621359138
 30
0.0
 10
26.70144227606916
 20
-33.83748591628235
 30
0.0
 10
26.63144173353444
 20
-33.89165207432279
 30
0.0
 10
26.65227506686777
 20
-33.96901328715916
 30
0.0
 10
26.54213627970416
 20
-33.92970749424459
 30
0.0
 10
26.58422001993847
 20
-33.80387419481973
 30
0.0
 10
26.65644156399235
 20
-33.75581918179889
 30
0.0
 10
26.72852493123403
 20
-33.7077633210675
 30
0.0
 10
26.84505291246235
 20
-33.73054130229583
 30
0.0
 10
26.88852520250139
 20
-33.82901304980015
 30
0.0
 10
26.91783055460639
 20
-33.70581867317249
 30
0.0
 10
27.05199769599097
 20
-33.6509573925193
 30
0.0
 10
27.13741385403139
 20
-33.6958190800736
 30
0.0
 10
27.29296957912902
 20
-33.77762399136915
 30
0.0
 10
27.19783102932431
 20
-33.95179120057055
 30
0.0
 10
27.09769183525971
 20
-33.92373537374763
 30
0.0
  0
SPLINE
  5
63
330
1F
100
AcDbEntity
  8
_U+0421_U+043B_U+043E_U+0439 1
 62
     1
420
 16711680
370
    35
100
AcDbSpline
210
0.0
220
0.0
230
1.0
 70
    11
 71
     3
 72
    17
 73
    13
 74
     0
 42
0.0000000001
 43
0.0000000001
 12
1.0
 22
0.0
 32
0.0
 13
1.0
 23
0.0
 33
0.0
 40
0.0
 40
0.0
 40
0.0
 40
0.0
 40
1.0
 40
1.0
 40
1.0
 40
2.0
 40
2.0
 40
2.0
 40
3.0
 40
3.0
 40
3.0
 40
4.0
 40
4.0
 40
4.0
 40
4.0
 10
26.90949756035736
 20
-33.15345813850458
 30
0.0
 10
27.21130284464555
 20
-32.87387473735445
 30
0.0
 10
27.38588627970416
 20
-33.54262422872804
 30
0.0
 10
26.85324772989944
 20
-33.62970783332874
 30
0.0
 10
26.9468587053768
 20
-33.51998527202237
 30
0.0
 10
26.96283041897277
 20
-33.36387429654501
 30
0.0
 10
26.83380294637082
 20
-33.2948469256682
 30
0.0
 10
26.92394169962597
 20
-33.19137453390388
 30
0.0
 10
27.04949779771625
 20
-33.31512416091125
 30
0.0
 10
27.01546985039638
 20
-33.44151355842652
 30
0.0
 10
27.12005274292028
 20
-33.32762449999541
 30
0.0
 10
27.05144159790069
 20
-33.19734665440084
 30
0.0
 10
26.90949756035736
 20
-33.15345813850458
 30
0.0
  0
SPLINE
  5
64
330
1F
100
AcDbEntity
  8
_U+0421_U+043B_U+043E_U+0439 1
 62
     1
420
 16711680
370
    35
100
AcDbSpline
210
0.0
220
0.0
230
1.0
 70
    11
 71
     3
 72
    11
 73
     7
 74
     0
 42
0.0000000001
 43
0.0000000001
 12
1.0
 22
0.0
 32
0.0
 13
1.0
 23
0.0
 33
0.0
 40
0.0
 40
0.0
 40
0.0
 40
0.0
 40
1.0
 40
1.0
 40
1.0
 40
2.0
 40
2.0
 40
2.0
 40
2.0
 10
26.94977482950874
 20
-30.99637399136915
 30
0.0
 10
27.30671944349528
 20
-31.04248520420555
 30
0.0
 10
27.21783106323278
 20
-31.5698467561261
 30
0.0
 10
26.94838627970416
 20
-31.36165244731541
 30
0.0
 10
27.08255257337819
 20
-31.31804113275376
 30
0.0
 10
27.07060833238416
 20
-31.10304140402112
 30
0.0
 10
26.94977482950874
 20
-30.99637399136915
 30
0.0
  0
SPLINE
  5
65
330
1F
100
AcDbEntity
  8
_U+0421_U+043B_U+043E_U+0439 1
 62
     1
420
 16711680
370
    35
100
AcDbSpline
210
0.0
220
0.0
230
1.0
 70
    11
 71
     3
 72
    11
 73
     7
 74
     0
 42
0.0000000001
 43
0.0000000001
 12
1.0
 22
0.0
 32
0.0
 13
1.0
 23
0.0
 33
0.0
 40
0.0
 40
0.0
 40
0.0
 40
0.0
 40
1.0
 40
1.0
 40
1.0
 40
2.0
 40
2.0
 40
2.0
 40
2.0
 10
27.18394214043542
 20
-32.64915176914693
 30
0.0
 10
27.04977499905083
 20
-32.69290210823111
 30
0.0
 10
27.06158106323278
 20
-32.90790183696375
 30
0.0
 10
27.18241371839763
 20
-33.01443022509319
 30
0.0
 10
26.82671947740375
 20
-32.96845803677931
 30
0.0
 10
26.91505260728652
 20
-32.44137453390388
 30
0.0
 10
27.18394214043542
 20
-32.64915176914693
 30
0.0
  0
SPLINE
  5
66
330
1F
100
AcDbEntity
  8
_U+0421_U+043B_U+043E_U+0439 1
 62
     1
420
 16711680
370
    35
100
AcDbSpline
210
0.0
220
0.0
230
1.0
 70
    11
 71
     3
 72
    26
 73
    22
 74
     0
 42
0.0000000001
 43
0.0000000001
 12
1.0
 22
0.0
 32
0.0
 13
1.0
 23
0.0
 33
0.0
 40
0.0
 40
0.0
 40
0.0
 40
0.0
 40
1.0
 40
1.0
 40
1.0
 40
2.0
 40
2.0
 40
2.0
 40
3.0
 40
3.0
 40
3.0
 40
4.0
 40
4.0
 40
4.0
 40
5.0
 40
5.0
 40
5.0
 40
6.0
 40
6.0
 40
6.0
 40
7.0
 40
7.0
 40
7.0
 40
7.0
 10
27.14033082587375
 20
-30.89567954692471
 30
0.0
 10
27.05421954522055
 20
-30.94095746033625
 30
0.0
 10
26.92046947740375
 20
-30.88484665440084
 30
0.0
 10
26.89144217434389
 20
-30.7624855771982
 30
0.0
 10
26.84588621188722
 20
-30.83526321934222
 30
0.0
 10
26.75005338718027
 20
-30.82470752815306
 30
0.0
 10
26.71171991821319
 20
-30.7527631854339
 30
0.0
 10
26.91824762817416
 20
-30.77345749424459
 30
0.0
 10
26.87796951131222
 20
-30.3783184358136
 30
0.0
 10
26.62185836629263
 20
-30.4198469256682
 30
0.0
 10
26.64310877319374
 20
-30.40415241340694
 30
0.0
 10
26.67921954522055
 20
-30.38318005555096
 30
0.0
 10
26.72616405748193
 20
-30.38123540765612
 30
0.0
 10
27.03144156399235
 20
-30.36873591628235
 30
0.0
 10
26.87769146226708
 20
-30.87304143792943
 30
0.0
 10
27.07755277682861
 20
-30.77442981819207
 30
0.0
 10
27.0365803850643
 20
-30.74179126838736
 30
0.0
 10
27.04491422702402
 20
-30.68331874098946
 30
0.0
 10
27.10046978257958
 20
-30.66776325325069
 30
0.0
 10
27.20005287855388
 20
-30.63984645095027
 30
0.0
 10
27.29685887491889
 20
-30.81331853753889
 30
0.0
 10
27.14033082587375
 20
-30.89567954692471
 30
0.0
  0
SPLINE
  5
67
330
1F
100
AcDbEntity
  8
_U+0421_U+043B_U+043E_U+0439 1
 62
     1
420
 16711680
370
    35
100
AcDbSpline
210
0.0
220
0.0
230
1.0
 70
    11
 71
     3
 72
    20
 73
    16
 74
     0
 42
0.0000000001
 43
0.0000000001
 12
1.0
 22
0.0
 32
0.0
 13
1.0
 23
0.0
 33
0.0
 40
0.0
 40
0.0
 40
0.0
 40
0.0
 40
1.0
 40
1.0
 40
1.0
 40
2.0
 40
2.0
 40
2.0
 40
3.0
 40
3.0
 40
3.0
 40
4.0
 40
4.0
 40
4.0
 40
5.0
 40
5.0
 40
5.0
 40
5.0
 10
27.05866409139028
 20
-30.57012480517124
 30
0.0
 10
27.02685884101055
 20
-30.40929123447904
 30
0.0
 10
26.8851920048018
 20
-30.32331897834832
 30
0.0
 10
26.72616405748193
 20
-30.32970732470249
 30
0.0
 10
26.83088597452833
 20
-30.29554120057054
 30
0.0
 10
26.94296940958694
 20
-30.29554120057054
 30
0.0
 10
27.04824742472361
 20
-30.32970732470249
 30
0.0
 10
26.95158045288124
 20
-30.26373510248027
 30
0.0
 10
26.83894176744277
 20
-30.23609634922514
 30
0.0
 10
26.72560880710208
 20
-30.25095756206138
 30
0.0
 10
26.90380264119499
 20
-30.12956880880625
 30
0.0
 10
27.21449701782263
 20
-30.18484631531666
 30
0.0
 10
27.10894180135124
 20
-30.35679082757792
 30
0.0
 10
27.17810819675055
 20
-30.42790187087222
 30
0.0
 10
27.15991378621457
 20
-30.54192995382583
 30
0.0
 10
27.05866409139028
 20
-30.57012480517124
 30
0.0
  0
SPLINE
  5
68
330
1F
100
AcDbEntity
  8
_U+0421_U+043B_U+043E_U+0439 1
 62
     1
420
 16711680
370
    35
100
AcDbSpline
210
0.0
220
0.0
230
1.0
 70
    11
 71
     3
 72
    23
 73
    19
 74
     0
 42
0.0000000001
 43
0.0000000001
 12
1.0
 22
0.0
 32
0.0
 13
1.0
 23
0.0
 33
0.0
 40
0.0
 40
0.0
 40
0.0
 40
0.0
 40
1.0
 40
1.0
 40
1.0
 40
2.0
 40
2.0
 40
2.0
 40
3.0
 40
3.0
 40
3.0
 40
4.0
 40
4.0
 40
4.0
 40
5.0
 40
5.0
 40
5.0
 40
6.0
 40
6.0
 40
6.0
 40
6.0
 10
27.06100991070778
 20
-30.02279535297278
 30
0.0
 10
27.05264624554237
 20
-30.03428040839791
 30
0.0
 10
27.04995249217125
 20
-30.04072249466847
 30
0.0
 10
27.03805894648556
 20
-30.04919507463111
 30
0.0
 10
27.01548771457778
 20
-30.06527409532416
 30
0.0
 10
26.95978309370472
 20
-30.08866601341596
 30
0.0
 10
26.76931223953847
 20
-30.16771719431333
 30
0.0
 10
26.84521190337653
 20
-29.98163552913764
 30
0.0
 10
26.86931352308375
 20
-29.92401483576721
 30
0.0
 10
26.88492951775681
 20
-29.89957452611735
 30
0.0
 10
26.893512185405
 20
-29.88614194885695
 30
0.0
 10
26.89953161392778
 20
-29.88273211681654
 30
0.0
 10
26.91017849008444
 20
-29.87352663708596
 30
0.0
 10
26.98707046626694
 20
-29.84670335141694
 30
0.0
 10
27.06383929514388
 20
-29.8200036124875
 30
0.0
 10
27.14060887491889
 20
-29.79318032681832
 30
0.0
 10
27.11415773475292
 20
-29.86980128601473
 30
0.0
 10
27.08758419817944
 20
-29.94629794051596
 30
0.0
 10
27.06100991070778
 20
-30.02279535297278
 30
0.0
  0
SPLINE
  5
69
330
1F
100
AcDbEntity
  8
_U+0421_U+043B_U+043E_U+0439 1
 62
     1
420
 16711680
370
    35
100
AcDbSpline
210
0.0
220
0.0
230
1.0
 70
    11
 71
     3
 72
    20
 73
    16
 74
     0
 42
0.0000000001
 43
0.0000000001
 12
1.0
 22
0.0
 32
0.0
 13
1.0
 23
0.0
 33
0.0
 40
0.0
 40
0.0
 40
0.0
 40
0.0
 40
1.0
 40
1.0
 40
1.0
 40
2.0
 40
2.0
 40
2.0
 40
3.0
 40
3.0
 40
3.0
 40
4.0
 40
4.0
 40
4.0
 40
5.0
 40
5.0
 40
5.0
 40
5.0
 10
26.68269176744277
 20
-30.20790234559015
 30
0.0
 10
26.69741395575666
 20
-30.09470756206138
 30
0.0
 10
26.66991422702402
 20
-29.98206887662306
 30
0.0
 10
26.6039420048018
 20
-29.88526288025804
 30
0.0
 10
26.63796995212167
 20
-29.99054089539471
 30
0.0
 10
26.63796995212167
 20
-30.10248530593084
 30
0.0
 10
26.6039420048018
 20
-30.20734624749987
 30
0.0
 10
26.61005314982124
 20
-30.05415224386487
 30
0.0
 10
26.52838641533777
 20
-29.90748561110652
 30
0.0
 10
26.36338634752097
 20
-29.87484621359138
 30
0.0
 10
26.39130314982124
 20
-29.77470786723721
 30
0.0
 10
26.50477513468458
 20
-29.75456880880625
 30
0.0
 10
26.57671947740375
 20
-29.82470752815306
 30
0.0
 10
26.7485249651425
 20
-29.71915231168165
 30
0.0
 10
26.80421954522055
 20
-30.02929143792943
 30
0.0
 10
26.68269176744277
 20
-30.20790234559015
 30
0.0
  0
INSERT
  5
6B
330
1F
100
AcDbEntity
  8
_U+0421_U+043B_U+043E_U+0439 1
100
AcDbBlockReference
  2
block 2
 10
0.0
 20
0.0
 30
0.0
  0
ENDSEC
  0
SECTION
  2
OBJECTS
  0
DICTIONARY
  5
C
330
0
100
AcDbDictionary
281
     1
  3
ACAD_GROUP
350
D
  3
ACAD_LAYOUT
350
1A
  3
ACAD_MATERIAL
350
3B
  3
ACAD_MLEADERSTYLE
350
A3
  3
ACAD_MLINESTYLE
350
17
  3
ACAD_PLOTSETTINGS
350
19
  3
ACAD_PLOTSTYLENAME
350
E
  3
ACAD_TABLESTYLE
350
A2
  3
ACAD_VISUALSTYLE
350
2A
  0
SUN
  5
3F
330
29
100
AcDbSun
 90
        1
290
     0
 63
     7
421
 16777215
 40
1.0
291
     1
 91
  2455826
 92
 54000000
292
     0
 70
     2
 71
   256
280
     1
  0
DICTIONARY
  5
D
102
{ACAD_REACTORS
330
C
102
}
330
C
100
AcDbDictionary
281
     1
  0
DICTIONARY
  5
1A
102
{ACAD_REACTORS
330
C
102
}
330
C
100
AcDbDictionary
281
     1
  3
Layout1
350
1E
  3
Layout2
350
26
  3
Model
350
22
  0
DICTIONARY
  5
3B
102
{ACAD_REACTORS
330
C
102
}
330
C
100
AcDbDictionary
281
     1
  3
ByBlock
350
3D
  3
ByLayer
350
3C
  3
Global
350
3E
  0
DICTIONARY
  5
A3
102
{ACAD_REACTORS
330
C
102
}
330
C
100
AcDbDictionary
281
     1
  0
DICTIONARY
  5
17
102
{ACAD_REACTORS
330
C
102
}
330
C
100
AcDbDictionary
281
     1
  3
Standard
350
18
  0
DICTIONARY
  5
19
102
{ACAD_REACTORS
330
C
102
}
330
C
100
AcDbDictionary
281
     1
  0
ACDBDICTIONARYWDFLT
  5
E
102
{ACAD_REACTORS
330
C
102
}
330
C
100
AcDbDictionary
281
     1
  3
Normal
350
F
100
AcDbDictionaryWithDefault
340
F
  0
DICTIONARY
  5
A2
102
{ACAD_REACTORS
330
C
102
}
330
C
100
AcDbDictionary
281
     1
  0
DICTIONARY
  5
2A
102
{ACAD_REACTORS
330
C
102
}
330
C
100
AcDbDictionary
281
     1
  3
2dWireframe
350
2F
  3
3D Hidden
350
31
  3
3dWireframe
350
30
  3
Basic
350
32
  3
Brighten
350
36
  3
ColorChange
350
3A
  3
Conceptual
350
34
  3
Dim
350
35
  3
Facepattern
350
39
  3
Flat
350
2B
  3
FlatWithEdges
350
2C
  3
Gouraud
350
2D
  3
GouraudWithEdges
350
2E
  3
Linepattern
350
38
  3
Realistic
350
33
  3
Thicken
350
37
  0
LAYOUT
  5
1E
102
{ACAD_REACTORS
330
1A
102
}
330
1A
100
AcDbPlotSettings
  1

  2
none_device
  4

  6

 40
0.0
 41
0.0
 42
0.0
 43
0.0
 44
0.0
 45
0.0
 46
0.0
 47
0.0
 48
0.0
 49
0.0
140
0.0
141
0.0
142
1.0
143
1.0
 70
   688
 72
     0
 73
     0
 74
     5
  7

 75
    16
 76
     0
 77
     2
 78
   300
147
1.0
148
0.0
149
0.0
100
AcDbLayout
  1
Layout1
 70
     1
 71
     1
 10
0.0
 20
0.0
 11
12.0
 21
9.0
 12
0.0
 22
0.0
 32
0.0
 14
1.000000000000000E+20
 24
1.000000000000000E+20
 34
1.000000000000000E+20
 15
-1.000000000000000E+20
 25
-1.000000000000000E+20
 35
-1.000000000000000E+20
146
0.0
 13
0.0
 23
0.0
 33
0.0
 16
1.0
 26
0.0
 36
0.0
 17
0.0
 27
1.0
 37
0.0
 76
     0
330
1B
  0
LAYOUT
  5
26
102
{ACAD_REACTORS
330
1A
102
}
330
1A
100
AcDbPlotSettings
  1

  2
none_device
  4

  6

 40
0.0
 41
0.0
 42
0.0
 43
0.0
 44
0.0
 45
0.0
 46
0.0
 47
0.0
 48
0.0
 49
0.0
140
0.0
141
0.0
142
1.0
143
1.0
 70
   688
 72
     0
 73
     0
 74
     5
  7

 75
    16
 76
     0
 77
     2
 78
   300
147
1.0
148
0.0
149
0.0
100
AcDbLayout
  1
Layout2
 70
     1
 71
     2
 10
0.0
 20
0.0
 11
0.0
 21
0.0
 12
0.0
 22
0.0
 32
0.0
 14
0.0
 24
0.0
 34
0.0
 15
0.0
 25
0.0
 35
0.0
146
0.0
 13
0.0
 23
0.0
 33
0.0
 16
1.0
 26
0.0
 36
0.0
 17
0.0
 27
1.0
 37
0.0
 76
     0
330
23
  0
LAYOUT
  5
22
102
{ACAD_REACTORS
330
1A
102
}
330
1A
100
AcDbPlotSettings
  1

  2
none_device
  4

  6

 40
0.0
 41
0.0
 42
0.0
 43
0.0
 44
0.0
 45
0.0
 46
0.0
 47
0.0
 48
0.0
 49
0.0
140
0.0
141
0.0
142
1.0
143
1.0
 70
  1712
 72
     0
 73
     0
 74
     0
  7

 75
     0
 76
     0
 77
     2
 78
   300
147
1.0
148
0.0
149
0.0
100
AcDbLayout
  1
Model
 70
     1
 71
     0
 10
0.0
 20
0.0
 11
12.0
 21
9.0
 12
0.0
 22
0.0
 32
0.0
 14
1.000000000000000E+20
 24
1.000000000000000E+20
 34
1.000000000000000E+20
 15
-1.000000000000000E+20
 25
-1.000000000000000E+20
 35
-1.000000000000000E+20
146
0.0
 13
0.0
 23
0.0
 33
0.0
 16
1.0
 26
0.0
 36
0.0
 17
0.0
 27
1.0
 37
0.0
 76
     0
330
1F
331
29
  0
MATERIAL
  5
3D
102
{ACAD_REACTORS
330
3B
102
}
330
3B
100
AcDbMaterial
  1
ByBlock
 72
     1
 94
      127
  0
MATERIAL
  5
3C
102
{ACAD_REACTORS
330
3B
102
}
330
3B
100
AcDbMaterial
  1
ByLayer
 72
     1
 94
      127
  0
MATERIAL
  5
3E
102
{ACAD_REACTORS
330
3B
102
}
330
3B
100
AcDbMaterial
  1
Global
 72
     1
 94
      127
  0
MLINESTYLE
  5
18
102
{ACAD_REACTORS
330
17
102
}
330
17
100
AcDbMlineStyle
  2
Standard
 70
     0
  3

 62
   256
 51
90.0
 52
90.0
 71
     2
 49
0.5
 62
   256
  6
BYLAYER
 49
-0.5
 62
   256
  6
BYLAYER
  0
ACDBPLACEHOLDER
  5
F
102
{ACAD_REACTORS
330
E
102
}
330
E
  0
VISUALSTYLE
  5
2F
102
{ACAD_REACTORS
330
2A
102
}
330
2A
100
AcDbVisualStyle
  2
2dWireframe
 70
     4
177
     2
291
     0
 71
     0
176
     1
 72
     2
176
     1
 73
     0
176
     1
 90
        0
176
     1
 40
-0.6
176
     1
 41
-30.0
176
     1
 62
     5
 63
     7
421
 16777215
176
     1
 74
     1
176
     1
 91
        4
176
     1
 64
     7
176
     1
 65
   257
176
     1
 75
     1
176
     1
175
     1
176
     1
 42
1.0
176
     1
 92
        0
176
     1
 66
   257
176
     1
 43
1.0
176
     1
 76
     1
176
     1
 77
     6
176
     1
 78
     2
176
     1
 67
     7
176
     1
 79
     5
176
     1
170
     0
176
     1
171
     0
176
     1
290
     0
176
     1
 93
        1
176
     1
 44
0.0
176
     1
173
     0
176
     1
  0
VISUALSTYLE
  5
31
102
{ACAD_REACTORS
330
2A
102
}
330
2A
100
AcDbVisualStyle
  2
3D Hidden
 70
     6
177
     2
291
     0
 71
     1
176
     1
 72
     2
176
     1
 73
     2
176
     1
 90
        0
176
     1
 40
-0.6
176
     1
 41
-30.0
176
     1
 62
     5
 63
     7
421
 16777215
176
     1
 74
     2
176
     1
 91
        2
176
     1
 64
     7
176
     1
 65
   257
176
     1
 75
     2
176
     1
175
     1
176
     1
 42
40.0
176
     1
 92
        0
176
     1
 66
   257
176
     1
 43
1.0
176
     1
 76
     1
176
     1
 77
     6
176
     1
 78
     2
176
     1
 67
     7
176
     1
 79
     3
176
     1
170
     0
176
     1
171
     0
176
     1
290
     0
176
     1
 93
        1
176
     1
 44
0.0
176
     1
173
     0
176
     1
  0
VISUALSTYLE
  5
30
102
{ACAD_REACTORS
330
2A
102
}
330
2A
100
AcDbVisualStyle
  2
3dWireframe
 70
     5
177
     2
291
     0
 71
     0
176
     1
 72
     2
176
     1
 73
     0
176
     1
 90
        0
176
     1
 40
-0.6
176
     1
 41
-30.0
176
     1
 62
     5
 63
     7
421
 16777215
176
     1
 74
     1
176
     1
 91
        4
176
     1
 64
     7
176
     1
 65
   257
176
     1
 75
     1
176
     1
175
     1
176
     1
 42
1.0
176
     1
 92
        0
176
     1
 66
   257
176
     1
 43
1.0
176
     1
 76
     1
176
     1
 77
     6
176
     1
 78
     2
176
     1
 67
     7
176
     1
 79
     5
176
     1
170
     0
176
     1
171
     0
176
     1
290
     0
176
     1
 93
        1
176
     1
 44
0.0
176
     1
173
     0
176
     1
  0
VISUALSTYLE
  5
32
102
{ACAD_REACTORS
330
2A
102
}
330
2A
100
AcDbVisualStyle
  2
Basic
 70
     7
177
     2
291
     1
 71
     1
176
     1
 72
     0
176
     1
 73
     1
176
     1
 90
        0
176
     1
 40
-0.6
176
     1
 41
-30.0
176
     1
 62
     5
 63
     7
421
 16777215
176
     1
 74
     0
176
     1
 91
        4
176
     1
 64
     7
176
     1
 65
   257
176
     1
 75
     1
176
     1
175
     1
176
     1
 42
1.0
176
     1
 92
        8
176
     1
 66
     7
176
     1
 43
1.0
176
     1
 76
     1
176
     1
 77
     6
176
     1
 78
     2
176
     1
 67
     7
176
     1
 79
     5
176
     1
170
     0
176
     1
171
     0
176
     1
290
     0
176
     1
 93
        1
176
     1
 44
0.0
176
     1
173
     0
176
     1
  0
VISUALSTYLE
  5
36
102
{ACAD_REACTORS
330
2A
102
}
330
2A
100
AcDbVisualStyle
  2
Brighten
 70
    12
177
     2
291
     1
 71
     2
176
     1
 72
     2
176
     1
 73
     0
176
     1
 90
        0
176
     1
 40
-0.6
176
     1
 41
-30.0
176
     1
 62
     5
 63
     7
421
 16777215
176
     1
 74
     1
176
     1
 91
        4
176
     1
 64
     7
176
     1
 65
   257
176
     1
 75
     1
176
     1
175
     1
176
     1
 42
1.0
176
     1
 92
        8
176
     1
 66
     7
176
     1
 43
1.0
176
     1
 76
     1
176
     1
 77
     6
176
     1
 78
     2
176
     1
 67
     7
176
     1
 79
     5
176
     1
170
     0
176
     1
171
     0
176
     1
290
     0
176
     1
 93
        1
176
     1
 44
50.0
176
     1
173
     0
176
     1
  0
VISUALSTYLE
  5
3A
102
{ACAD_REACTORS
330
2A
102
}
330
2A
100
AcDbVisualStyle
  2
ColorChange
 70
    16
177
     2
291
     1
 71
     2
176
     1
 72
     2
176
     1
 73
     3
176
     1
 90
        0
176
     1
 40
-0.6
176
     1
 41
-30.0
176
     1
 62
     5
 63
     8
421
  8421504
176
     1
 74
     1
176
     1
 91
        4
176
     1
 64
     7
176
     1
 65
   257
176
     1
 75
     1
176
     1
175
     1
176
     1
 42
1.0
176
     1
 92
        8
176
     1
 66
     8
424
  8421504
176
     1
 43
1.0
176
     1
 76
     1
176
     1
 77
     6
176
     1
 78
     2
176
     1
 67
     7
176
     1
 79
     5
176
     1
170
     0
176
     1
171
     0
176
     1
290
     0
176
     1
 93
        1
176
     1
 44
0.0
176
     1
173
     0
176
     1
  0
VISUALSTYLE
  5
34
102
{ACAD_REACTORS
330
2A
102
}
330
2A
100
AcDbVisualStyle
  2
Conceptual
 70
     9
177
     2
291
     0
 71
     3
176
     1
 72
     2
176
     1
 73
     0
176
     1
 90
        0
176
     1
 40
-0.6
176
     1
 41
-30.0
176
     1
 62
     5
 63
     7
421
 16777215
176
     1
 74
     2
176
     1
 91
        2
176
     1
 64
     7
176
     1
 65
   257
176
     1
 75
     1
176
     1
175
     1
176
     1
 42
40.0
176
     1
 92
        8
176
     1
 66
     7
176
     1
 43
1.0
176
     1
 76
     1
176
     1
 77
     6
176
     1
 78
     2
176
     1
 67
     7
176
     1
 79
     3
176
     1
170
     0
176
     1
171
     0
176
     1
290
     0
176
     1
 93
        1
176
     1
 44
0.0
176
     1
173
     0
176
     1
  0
VISUALSTYLE
  5
35
102
{ACAD_REACTORS
330
2A
102
}
330
2A
100
AcDbVisualStyle
  2
Dim
 70
    11
177
     2
291
     1
 71
     2
176
     1
 72
     2
176
     1
 73
     0
176
     1
 90
        0
176
     1
 40
-0.6
176
     1
 41
-30.0
176
     1
 62
     5
 63
     7
421
 16777215
176
     1
 74
     1
176
     1
 91
        4
176
     1
 64
     7
176
     1
 65
   257
176
     1
 75
     1
176
     1
175
     1
176
     1
 42
1.0
176
     1
 92
        8
176
     1
 66
     7
176
     1
 43
1.0
176
     1
 76
     1
176
     1
 77
     6
176
     1
 78
     2
176
     1
 67
     7
176
     1
 79
     5
176
     1
170
     0
176
     1
171
     0
176
     1
290
     0
176
     1
 93
        1
176
     1
 44
-50.0
176
     1
173
     0
176
     1
  0
VISUALSTYLE
  5
39
102
{ACAD_REACTORS
330
2A
102
}
330
2A
100
AcDbVisualStyle
  2
Facepattern
 70
    15
177
     2
291
     1
 71
     2
176
     1
 72
     2
176
     1
 73
     0
176
     1
 90
        0
176
     1
 40
-0.6
176
     1
 41
-30.0
176
     1
 62
     5
 63
     7
421
 16777215
176
     1
 74
     1
176
     1
 91
        4
176
     1
 64
     7
176
     1
 65
   257
176
     1
 75
     1
176
     1
175
     1
176
     1
 42
1.0
176
     1
 92
        8
176
     1
 66
     7
176
     1
 43
1.0
176
     1
 76
     1
176
     1
 77
     6
176
     1
 78
     2
176
     1
 67
     7
176
     1
 79
     5
176
     1
170
     0
176
     1
171
     0
176
     1
290
     0
176
     1
 93
        1
176
     1
 44
0.0
176
     1
173
     0
176
     1
  0
VISUALSTYLE
  5
2B
102
{ACAD_REACTORS
330
2A
102
}
330
2A
100
AcDbVisualStyle
  2
Flat
 70
     0
177
     2
291
     1
 71
     2
176
     1
 72
     1
176
     1
 73
     1
176
     1
 90
        2
176
     1
 40
-0.6
176
     1
 41
30.0
176
     1
 62
     5
 63
     7
421
 16777215
176
     1
 74
     0
176
     1
 91
        4
176
     1
 64
     7
176
     1
 65
   257
176
     1
 75
     1
176
     1
175
     1
176
     1
 42
1.0
176
     1
 92
        8
176
     1
 66
     7
176
     1
 43
1.0
176
     1
 76
     1
176
     1
 77
     6
176
     1
 78
     2
176
     1
 67
     7
176
     1
 79
     5
176
     1
170
     0
176
     1
171
     0
176
     1
290
     0
176
     1
 93
       13
176
     1
 44
0.0
176
     1
173
     0
176
     1
  0
VISUALSTYLE
  5
2C
102
{ACAD_REACTORS
330
2A
102
}
330
2A
100
AcDbVisualStyle
  2
FlatWithEdges
 70
     1
177
     2
291
     1
 71
     2
176
     1
 72
     1
176
     1
 73
     1
176
     1
 90
        2
176
     1
 40
-0.6
176
     1
 41
30.0
176
     1
 62
     5
 63
     7
421
 16777215
176
     1
 74
     1
176
     1
 91
        4
176
     1
 64
     7
176
     1
 65
   257
176
     1
 75
     1
176
     1
175
     1
176
     1
 42
1.0
176
     1
 92
        0
176
     1
 66
   257
176
     1
 43
1.0
176
     1
 76
     1
176
     1
 77
     6
176
     1
 78
     2
176
     1
 67
     7
176
     1
 79
     5
176
     1
170
     0
176
     1
171
     0
176
     1
290
     0
176
     1
 93
       13
176
     1
 44
0.0
176
     1
173
     0
176
     1
  0
VISUALSTYLE
  5
2D
102
{ACAD_REACTORS
330
2A
102
}
330
2A
100
AcDbVisualStyle
  2
Gouraud
 70
     2
177
     2
291
     1
 71
     2
176
     1
 72
     2
176
     1
 73
     1
176
     1
 90
        2
176
     1
 40
-0.6
176
     1
 41
30.0
176
     1
 62
     5
 63
     7
421
 16777215
176
     1
 74
     0
176
     1
 91
        4
176
     1
 64
     7
176
     1
 65
   257
176
     1
 75
     1
176
     1
175
     1
176
     1
 42
1.0
176
     1
 92
        0
176
     1
 66
     7
176
     1
 43
1.0
176
     1
 76
     1
176
     1
 77
     6
176
     1
 78
     2
176
     1
 67
     7
176
     1
 79
     5
176
     1
170
     0
176
     1
171
     0
176
     1
290
     0
176
     1
 93
       13
176
     1
 44
0.0
176
     1
173
     0
176
     1
  0
VISUALSTYLE
  5
2E
102
{ACAD_REACTORS
330
2A
102
}
330
2A
100
AcDbVisualStyle
  2
GouraudWithEdges
 70
     3
177
     2
291
     1
 71
     2
176
     1
 72
     2
176
     1
 73
     1
176
     1
 90
        2
176
     1
 40
-0.6
176
     1
 41
30.0
176
     1
 62
     5
 63
     7
421
 16777215
176
     1
 74
     1
176
     1
 91
        4
176
     1
 64
     7
176
     1
 65
   257
176
     1
 75
     1
176
     1
175
     1
176
     1
 42
1.0
176
     1
 92
        0
176
     1
 66
   257
176
     1
 43
1.0
176
     1
 76
     1
176
     1
 77
     6
176
     1
 78
     2
176
     1
 67
     7
176
     1
 79
     5
176
     1
170
     0
176
     1
171
     0
176
     1
290
     0
176
     1
 93
       13
176
     1
 44
0.0
176
     1
173
     0
176
     1
  0
VISUALSTYLE
  5
38
102
{ACAD_REACTORS
330
2A
102
}
330
2A
100
AcDbVisualStyle
  2
Linepattern
 70
    14
177
     2
291
     1
 71
     2
176
     1
 72
     2
176
     1
 73
     0
176
     1
 90
        0
176
     1
 40
-0.6
176
     1
 41
-30.0
176
     1
 62
     5
 63
     7
421
 16777215
176
     1
 74
     1
176
     1
 91
        4
176
     1
 64
     7
176
     1
 65
   257
176
     1
 75
     7
176
     1
175
     7
176
     1
 42
1.0
176
     1
 92
        8
176
     1
 66
     7
176
     1
 43
1.0
176
     1
 76
     1
176
     1
 77
     6
176
     1
 78
     2
176
     1
 67
     7
176
     1
 79
     5
176
     1
170
     0
176
     1
171
     0
176
     1
290
     0
176
     1
 93
        1
176
     1
 44
0.0
176
     1
173
     0
176
     1
  0
VISUALSTYLE
  5
33
102
{ACAD_REACTORS
330
2A
102
}
330
2A
100
AcDbVisualStyle
  2
Realistic
 70
     8
177
     2
291
     0
 71
     2
176
     1
 72
     2
176
     1
 73
     0
176
     1
 90
        0
176
     1
 40
-0.6
176
     1
 41
-30.0
176
     1
 62
     5
 63
     7
421
 16777215
176
     1
 74
     1
176
     1
 91
        0
176
     1
 64
     7
176
     1
 65
   257
176
     1
 75
     1
176
     1
175
     1
176
     1
 42
1.0
176
     1
 92
        8
176
     1
 66
     8
424
  7895160
176
     1
 43
1.0
176
     1
 76
     1
176
     1
 77
     6
176
     1
 78
     2
176
     1
 67
     7
176
     1
 79
     5
176
     1
170
     0
176
     1
171
     0
176
     1
290
     0
176
     1
 93
       13
176
     1
 44
0.0
176
     1
173
     0
176
     1
  0
VISUALSTYLE
  5
37
102
{ACAD_REACTORS
330
2A
102
}
330
2A
100
AcDbVisualStyle
  2
Thicken
 70
    13
177
     2
291
     1
 71
     2
176
     1
 72
     2
176
     1
 73
     0
176
     1
 90
        0
176
     1
 40
-0.6
176
     1
 41
-30.0
176
     1
 62
     5
 63
     7
421
 16777215
176
     1
 74
     1
176
     1
 91
        4
176
     1
 64
     7
176
     1
 65
   257
176
     1
 75
     1
176
     1
175
     1
176
     1
 42
1.0
176
     1
 92
       12
176
     1
 66
     7
176
     1
 43
1.0
176
     1
 76
     1
176
     1
 77
     6
176
     1
 78
     2
176
     1
 67
     7
176
     1
 79
     5
176
     1
170
     0
176
     1
171
     0
176
     1
290
     0
176
     1
 93
        1
176
     1
 44
0.0
176
     1
173
     0
176
     1
  0
ENDSEC
  0
EOF
