<?xml version="1.0" encoding="utf-8"?>
<!-- Generator: Adobe Illustrator 25.4.1, SVG Export Plug-In . SVG Version: 6.00 Build 0)  -->
<svg version="1.1" xmlns="http://www.w3.org/2000/svg" xmlns:xlink="http://www.w3.org/1999/xlink" x="0px" y="0px"
	 viewBox="0 0 954.9 1846.1" style="enable-background:new 0 0 954.9 1846.1;" xml:space="preserve">
<style type="text/css">
	.st0{fill-rule:evenodd;clip-rule:evenodd;}
	.st1{fill-rule:evenodd;clip-rule:evenodd;fill:#F7EC00;}
	
		.st2{fill-rule:evenodd;clip-rule:evenodd;fill:none;stroke:#ED1C24;stroke-width:5.6693;stroke-linecap:round;stroke-linejoin:round;stroke-miterlimit:2.6131;}
	.st3{fill-rule:evenodd;clip-rule:evenodd;fill:#ED1C24;stroke:#000000;stroke-width:0.216;stroke-miterlimit:2.6131;}
	.st4{fill-rule:evenodd;clip-rule:evenodd;fill:#FFFFFF;stroke:#FFFFFF;stroke-width:0.216;stroke-miterlimit:2.6131;}
	.st5{fill-rule:evenodd;clip-rule:evenodd;fill:none;stroke:#1E6EA6;stroke-width:0.216;stroke-miterlimit:2.6131;}
	.st6{fill-rule:evenodd;clip-rule:evenodd;fill:#1E6EA6;stroke:#1E6EA6;stroke-width:0.216;stroke-miterlimit:2.6131;}
	.st7{fill-rule:evenodd;clip-rule:evenodd;fill:#000002;}
	.st8{fill-rule:evenodd;clip-rule:evenodd;fill:none;stroke:#000000;stroke-width:0.2835;stroke-miterlimit:2.6131;}
	
		.st9{fill-rule:evenodd;clip-rule:evenodd;fill:none;stroke:#000002;stroke-width:0.2835;stroke-linecap:round;stroke-linejoin:round;stroke-miterlimit:2.6131;}
	
		.st10{fill-rule:evenodd;clip-rule:evenodd;fill:none;stroke:#FFF200;stroke-width:0.2835;stroke-linecap:round;stroke-linejoin:round;stroke-miterlimit:2.6131;}
	
		.st11{fill-rule:evenodd;clip-rule:evenodd;fill:none;stroke:#000000;stroke-width:0.2835;stroke-linecap:round;stroke-linejoin:round;stroke-miterlimit:2.6131;}
</style>
<g id="_x30_">
	<g>
		<g>
			<path class="st0" d="M41.9,840.3v-18.6h7c1.4,0,2.6,0.2,3.4,0.6c0.9,0.4,1.5,1,2,1.7c0.5,0.8,0.7,1.6,0.7,2.4
				c0,0.8-0.2,1.5-0.6,2.2c-0.4,0.7-1.1,1.3-1.9,1.7c1.1,0.3,2,0.9,2.6,1.7c0.6,0.8,0.9,1.7,0.9,2.8c0,0.9-0.2,1.7-0.6,2.4
				c-0.4,0.7-0.8,1.3-1.4,1.7c-0.5,0.4-1.2,0.7-2,0.9c-0.8,0.2-1.8,0.3-3,0.3H41.9L41.9,840.3z M44.4,829.5h4c1.1,0,1.9-0.1,2.3-0.2
				c0.6-0.2,1.1-0.5,1.4-0.9c0.3-0.4,0.5-1,0.5-1.6c0-0.6-0.1-1.2-0.4-1.6c-0.3-0.5-0.7-0.8-1.3-1c-0.5-0.2-1.5-0.3-2.8-0.3h-3.7
				V829.5L44.4,829.5z M44.4,838.1H49c0.8,0,1.4,0,1.7-0.1c0.6-0.1,1-0.3,1.4-0.5c0.4-0.2,0.7-0.6,0.9-1c0.2-0.5,0.4-1,0.4-1.6
				c0-0.7-0.2-1.3-0.5-1.8c-0.4-0.5-0.8-0.9-1.5-1.1c-0.6-0.2-1.5-0.3-2.7-0.3h-4.3V838.1L44.4,838.1z M59,840.3v-18.6h2.3v18.6H59
				L59,840.3z M73.6,838.6c-0.8,0.7-1.7,1.2-2.4,1.5c-0.8,0.3-1.6,0.4-2.5,0.4c-1.5,0-2.6-0.4-3.4-1.1c-0.8-0.7-1.2-1.6-1.2-2.8
				c0-0.7,0.2-1.3,0.4-1.8c0.3-0.5,0.7-1,1.2-1.3c0.5-0.3,1-0.6,1.6-0.7c0.4-0.1,1.1-0.2,2-0.3c1.8-0.2,3.2-0.5,4.1-0.8
				c0-0.3,0-0.5,0-0.6c0-0.9-0.2-1.6-0.6-2c-0.6-0.5-1.5-0.8-2.6-0.8c-1.1,0-1.9,0.2-2.4,0.6c-0.5,0.4-0.9,1-1.1,2l-2.2-0.3
				c0.2-1,0.5-1.7,1-2.3c0.5-0.6,1.1-1,2-1.4c0.9-0.3,1.9-0.5,3.1-0.5c1.1,0,2.1,0.1,2.8,0.4c0.7,0.3,1.2,0.6,1.6,1
				c0.3,0.4,0.6,0.9,0.7,1.6c0.1,0.4,0.1,1.1,0.1,2.1v3c0,2.1,0,3.4,0.1,4c0.1,0.6,0.3,1.1,0.6,1.6H74
				C73.8,839.8,73.6,839.2,73.6,838.6L73.6,838.6z M73.4,833.5c-0.8,0.3-2.1,0.6-3.7,0.9c-0.9,0.1-1.6,0.3-2,0.5
				c-0.4,0.2-0.7,0.4-0.9,0.7c-0.2,0.3-0.3,0.7-0.3,1.1c0,0.6,0.2,1.1,0.7,1.5c0.5,0.4,1.1,0.6,2,0.6c0.9,0,1.7-0.2,2.3-0.6
				c0.7-0.4,1.2-0.9,1.5-1.6c0.2-0.5,0.4-1.3,0.4-2.3L73.4,833.5L73.4,833.5z M88,835.4l2.2,0.3c-0.2,1.5-0.9,2.7-1.9,3.6
				c-1,0.9-2.2,1.3-3.7,1.3c-1.8,0-3.3-0.6-4.4-1.8c-1.1-1.2-1.7-2.9-1.7-5.2c0-1.5,0.2-2.7,0.7-3.8c0.5-1.1,1.2-1.9,2.2-2.4
				c1-0.5,2-0.8,3.2-0.8c1.5,0,2.7,0.4,3.6,1.1c0.9,0.7,1.5,1.8,1.8,3.1l-2.2,0.3c-0.2-0.9-0.6-1.6-1.1-2c-0.5-0.5-1.2-0.7-1.9-0.7
				c-1.1,0-2.1,0.4-2.8,1.2c-0.7,0.8-1.1,2.1-1.1,3.9c0,1.8,0.3,3.1,1,3.9c0.7,0.8,1.6,1.2,2.7,1.2c0.9,0,1.6-0.3,2.2-0.8
				C87.4,837.3,87.8,836.5,88,835.4L88,835.4z M92.2,840.3v-18.6h2.3v10.6l5.4-5.5h2.9l-5.1,5l5.7,8.5h-2.8l-4.5-6.9l-1.6,1.5v5.3
				H92.2L92.2,840.3z M117.1,829.4h-12.2v-2.1h12.2V829.4L117.1,829.4z M117.1,835h-12.2v-2.1h12.2V835L117.1,835z M141,833.8
				l2.5,0.6c-0.5,2-1.4,3.6-2.8,4.6c-1.3,1.1-3,1.6-4.9,1.6c-2,0-3.6-0.4-4.9-1.2c-1.3-0.8-2.2-2-2.9-3.5c-0.7-1.5-1-3.2-1-5
				c0-1.9,0.4-3.6,1.1-5.1c0.7-1.4,1.8-2.5,3.1-3.3c1.4-0.7,2.9-1.1,4.5-1.1c1.9,0,3.4,0.5,4.7,1.4c1.3,0.9,2.1,2.3,2.6,4l-2.4,0.6
				c-0.4-1.3-1.1-2.3-1.9-2.9c-0.8-0.6-1.8-0.9-3.1-0.9c-1.4,0-2.6,0.3-3.6,1c-1,0.7-1.6,1.6-2,2.8c-0.4,1.2-0.6,2.3-0.6,3.6
				c0,1.6,0.2,3,0.7,4.1c0.5,1.2,1.2,2.1,2.1,2.6c1,0.6,2,0.9,3.1,0.9c1.4,0,2.5-0.4,3.5-1.2C140,836.5,140.6,835.3,141,833.8
				L141,833.8z M155,840.3v-2c-1,1.5-2.5,2.3-4.3,2.3c-0.8,0-1.5-0.2-2.2-0.5c-0.7-0.3-1.2-0.7-1.5-1.1c-0.3-0.5-0.6-1-0.7-1.7
				c-0.1-0.4-0.1-1.2-0.1-2.1v-8.3h2.3v7.4c0,1.2,0,2,0.1,2.4c0.1,0.6,0.4,1.1,0.9,1.4c0.5,0.3,1,0.5,1.7,0.5c0.7,0,1.3-0.2,1.9-0.5
				c0.6-0.4,1-0.8,1.3-1.4c0.2-0.6,0.4-1.5,0.4-2.6v-7.2h2.3v13.5H155L155,840.3z M165.5,838.2l0.3,2c-0.6,0.1-1.2,0.2-1.7,0.2
				c-0.8,0-1.5-0.1-1.9-0.4c-0.5-0.3-0.8-0.6-1-1c-0.2-0.4-0.3-1.3-0.3-2.7v-7.7h-1.7v-1.8h1.7v-3.3l2.3-1.4v4.7h2.3v1.8h-2.3v7.9
				c0,0.7,0,1.1,0.1,1.3c0.1,0.2,0.2,0.3,0.4,0.4c0.2,0.1,0.4,0.2,0.8,0.2C164.8,838.3,165.1,838.3,165.5,838.2L165.5,838.2z
				 M47.3,869.2v-7.9l-7.2-10.7h3l3.7,5.6c0.7,1,1.3,2.1,1.9,3.1c0.6-1,1.3-2.1,2.1-3.3l3.6-5.5h2.9l-7.4,10.7v7.9H47.3L47.3,869.2z
				 M65.8,864.9c-0.3,1-0.8,1.7-1.4,2.1c-0.6,0.4-1.3,0.7-2.1,0.7c-1.1,0-2.1-0.4-2.8-1.2c-0.8-0.8-1.2-1.9-1.3-3.4h10
				c0-0.3,0-0.5,0-0.6c0-2.2-0.6-3.9-1.7-5.2c-1.1-1.2-2.6-1.8-4.4-1.8c-1.9,0-3.4,0.6-4.5,1.9c-1.2,1.2-1.7,3-1.7,5.3
				c0,2.2,0.6,3.9,1.7,5.1c1.1,1.2,2.7,1.8,4.7,1.8c1.6,0,2.8-0.4,3.8-1.1c1-0.8,1.7-1.8,2.1-3.2L65.8,864.9L65.8,864.9z
				 M58.4,861.2c0.1-1.2,0.5-2.1,1.2-2.8c0.7-0.7,1.6-1,2.6-1c1.2,0,2.1,0.4,2.8,1.3c0.5,0.6,0.8,1.4,0.9,2.5H58.4L58.4,861.2z
				 M71,869.2v-18.6h2.3v18.6H71L71,869.2z M76.8,869.2v-18.6h2.3v18.6H76.8L76.8,869.2z M81.7,862.5c0-2.5,0.7-4.3,2.1-5.5
				c1.2-1,2.6-1.5,4.2-1.5c1.8,0,3.4,0.6,4.5,1.8c1.2,1.2,1.8,2.9,1.8,5c0,1.7-0.3,3.1-0.8,4.1c-0.5,1-1.3,1.8-2.3,2.3
				c-1,0.5-2.1,0.8-3.2,0.8c-1.9,0-3.4-0.6-4.6-1.8C82.3,866.5,81.7,864.8,81.7,862.5L81.7,862.5z M84.1,862.5c0,1.7,0.4,3,1.1,3.9
				c0.8,0.9,1.7,1.3,2.8,1.3c1.1,0,2.1-0.4,2.8-1.3c0.8-0.9,1.1-2.2,1.1-3.9c0-1.7-0.4-2.9-1.1-3.8c-0.8-0.9-1.7-1.3-2.8-1.3
				c-1.1,0-2.1,0.4-2.8,1.3C84.4,859.5,84.1,860.8,84.1,862.5L84.1,862.5z M99.4,869.2l-4.1-13.5h2.4l2.1,7.8l0.8,2.9
				c0-0.1,0.3-1.1,0.7-2.8l2.1-7.9h2.3l2,7.8l0.7,2.6l0.8-2.6l2.3-7.8h2.2l-4.2,13.5h-2.4l-2.1-8l-0.5-2.3l-2.7,10.3H99.4
				L99.4,869.2z M127.7,858.3h-12.2v-2.1h12.2V858.3L127.7,858.3z M127.7,863.9h-12.2v-2.1h12.2V863.9z"/>
			<path class="st1" d="M136.5,863.9l2-0.2c0.1,0.8,0.3,1.5,0.7,2c0.4,0.5,0.9,0.9,1.6,1.3c0.7,0.3,1.6,0.5,2.5,0.5
				c0.8,0,1.5-0.1,2.2-0.4c0.6-0.2,1.1-0.6,1.4-1c0.3-0.4,0.5-0.9,0.5-1.4c0-0.5-0.1-0.9-0.4-1.3c-0.3-0.4-0.8-0.7-1.5-1
				c-0.4-0.2-1.4-0.4-2.9-0.8c-1.5-0.4-2.5-0.7-3.1-1c-0.8-0.4-1.3-0.9-1.7-1.5c-0.4-0.6-0.6-1.3-0.6-2c0-0.8,0.2-1.6,0.7-2.3
				c0.5-0.7,1.1-1.2,2-1.6c0.9-0.4,1.9-0.6,3-0.6c1.2,0,2.3,0.2,3.2,0.6c0.9,0.4,1.6,1,2.1,1.7c0.5,0.7,0.8,1.6,0.8,2.5l-2.1,0.2
				c-0.1-1-0.5-1.8-1.1-2.3c-0.6-0.5-1.6-0.8-2.8-0.8c-1.3,0-2.2,0.2-2.8,0.7c-0.6,0.5-0.9,1-0.9,1.7c0,0.6,0.2,1.1,0.6,1.4
				c0.4,0.4,1.5,0.8,3.2,1.2c1.7,0.4,2.9,0.7,3.6,1c0.9,0.4,1.6,1,2.1,1.6c0.4,0.7,0.7,1.4,0.7,2.3c0,0.9-0.2,1.7-0.7,2.4
				c-0.5,0.8-1.2,1.4-2.1,1.8c-0.9,0.4-2,0.6-3.1,0.6c-1.5,0-2.7-0.2-3.7-0.6c-1-0.4-1.8-1.1-2.3-1.9
				C136.8,865.9,136.5,864.9,136.5,863.9L136.5,863.9z M163.8,863.4l2.1,0.5c-0.4,1.8-1.3,3.1-2.4,4c-1.2,0.9-2.6,1.4-4.3,1.4
				c-1.7,0-3.2-0.4-4.2-1.1c-1.1-0.7-1.9-1.7-2.5-3.1c-0.6-1.3-0.9-2.8-0.9-4.3c0-1.7,0.3-3.2,1-4.4c0.6-1.3,1.6-2.2,2.7-2.9
				c1.2-0.7,2.5-1,3.9-1c1.6,0,3,0.4,4.1,1.2c1.1,0.8,1.9,2,2.3,3.5l-2.1,0.5c-0.4-1.2-0.9-2-1.6-2.6c-0.7-0.5-1.6-0.8-2.7-0.8
				c-1.2,0-2.3,0.3-3.1,0.9c-0.8,0.6-1.4,1.4-1.8,2.4c-0.3,1-0.5,2-0.5,3.1c0,1.4,0.2,2.6,0.6,3.6c0.4,1,1,1.8,1.9,2.3
				c0.8,0.5,1.8,0.8,2.7,0.8c1.2,0,2.2-0.3,3-1C162.9,865.8,163.5,864.7,163.8,863.4L163.8,863.4z M167.9,861.2
				c0-2.7,0.7-4.8,2.2-6.3c1.4-1.5,3.3-2.3,5.6-2.3c1.5,0,2.8,0.4,4,1.1c1.2,0.7,2.1,1.7,2.7,3c0.6,1.3,0.9,2.7,0.9,4.3
				c0,1.6-0.3,3.1-1,4.4c-0.7,1.3-1.6,2.3-2.8,2.9c-1.2,0.7-2.5,1-3.9,1c-1.5,0-2.9-0.4-4.1-1.1c-1.2-0.7-2.1-1.7-2.7-3
				C168.2,863.9,167.9,862.6,167.9,861.2L167.9,861.2z M170.1,861.2c0,1.9,0.5,3.5,1.6,4.6c1,1.1,2.4,1.7,3.9,1.7
				c1.6,0,2.9-0.6,4-1.7c1-1.1,1.6-2.7,1.6-4.8c0-1.3-0.2-2.5-0.7-3.4c-0.4-1-1.1-1.7-1.9-2.3c-0.9-0.5-1.8-0.8-2.9-0.8
				c-1.5,0-2.8,0.5-3.9,1.6C170.7,857.1,170.1,858.8,170.1,861.2L170.1,861.2z M186.2,869.1v-16.2h7.2c1.4,0,2.5,0.1,3.3,0.4
				s1.3,0.8,1.8,1.5c0.4,0.7,0.7,1.5,0.7,2.4c0,1.1-0.4,2.1-1.1,2.9c-0.7,0.8-1.9,1.3-3.4,1.5c0.6,0.3,1,0.5,1.3,0.8
				c0.6,0.6,1.2,1.3,1.8,2.2l2.8,4.4h-2.7l-2.1-3.4c-0.6-1-1.1-1.7-1.5-2.2c-0.4-0.5-0.8-0.9-1.1-1.1c-0.3-0.2-0.6-0.3-1-0.4
				c-0.2,0-0.6-0.1-1.2-0.1h-2.5v7.2H186.2L186.2,869.1z M188.3,860h4.6c1,0,1.7-0.1,2.3-0.3c0.5-0.2,1-0.5,1.2-1
				c0.3-0.4,0.4-0.9,0.4-1.4c0-0.8-0.3-1.4-0.8-1.9c-0.6-0.5-1.4-0.7-2.6-0.7h-5.1V860L188.3,860z M202.5,869.1v-16.2h11.7v1.9h-9.5
				v5h8.9v1.9h-8.9v5.5h9.9v1.9H202.5z"/>
			<path class="st1" d="M228.1,869.1v-16.7h2.2v6.9h8.6v-6.9h2.2v16.7h-2.2v-7.8h-8.6v7.8H228.1L228.1,869.1z M252.4,867.6
				c-0.8,0.6-1.5,1.1-2.2,1.4c-0.7,0.3-1.5,0.4-2.3,0.4c-1.3,0-2.3-0.3-3.1-1c-0.7-0.6-1.1-1.5-1.1-2.5c0-0.6,0.1-1.1,0.4-1.6
				c0.3-0.5,0.6-0.9,1.1-1.2c0.4-0.3,0.9-0.5,1.5-0.7c0.4-0.1,1-0.2,1.8-0.3c1.7-0.2,2.9-0.4,3.7-0.7c0-0.3,0-0.5,0-0.5
				c0-0.8-0.2-1.4-0.6-1.8c-0.5-0.5-1.3-0.7-2.3-0.7c-1,0-1.7,0.2-2.1,0.5c-0.5,0.3-0.8,0.9-1,1.8l-2-0.3c0.2-0.9,0.5-1.6,0.9-2.1
				c0.4-0.5,1-0.9,1.8-1.2c0.8-0.3,1.7-0.4,2.7-0.4c1,0,1.9,0.1,2.5,0.4c0.6,0.2,1.1,0.5,1.4,0.9c0.3,0.4,0.5,0.8,0.6,1.4
				c0.1,0.3,0.1,1,0.1,1.9v2.7c0,1.9,0,3.1,0.1,3.6c0.1,0.5,0.3,1,0.5,1.5h-2.1C252.6,868.7,252.5,868.2,252.4,867.6L252.4,867.6z
				 M252.3,863c-0.7,0.3-1.9,0.6-3.4,0.8c-0.8,0.1-1.4,0.3-1.8,0.4c-0.3,0.2-0.6,0.4-0.8,0.7c-0.2,0.3-0.3,0.6-0.3,1
				c0,0.5,0.2,1,0.6,1.4c0.4,0.4,1,0.5,1.8,0.5c0.8,0,1.5-0.2,2.1-0.5c0.6-0.3,1.1-0.8,1.4-1.4c0.2-0.5,0.3-1.1,0.3-2L252.3,863
				L252.3,863z M257.4,869.1v-16.7h2v16.7H257.4L257.4,869.1z M263.1,869.1v-10.5h-1.8V857h1.8v-1.3c0-0.8,0.1-1.4,0.2-1.8
				c0.2-0.5,0.5-1,1-1.3c0.5-0.3,1.2-0.5,2.1-0.5c0.6,0,1.2,0.1,1.9,0.2l-0.3,1.8c-0.4-0.1-0.8-0.1-1.2-0.1c-0.6,0-1.1,0.1-1.3,0.4
				c-0.3,0.3-0.4,0.8-0.4,1.5v1.1h2.4v1.6h-2.3v10.5H263.1L263.1,869.1z M287.7,863.2l2.2,0.6c-0.5,1.8-1.3,3.2-2.5,4.1
				c-1.2,1-2.7,1.4-4.4,1.4c-1.8,0-3.3-0.4-4.4-1.1c-1.1-0.7-2-1.8-2.6-3.2c-0.6-1.4-0.9-2.9-0.9-4.5c0-1.7,0.3-3.2,1-4.5
				c0.7-1.3,1.6-2.3,2.8-2.9c1.2-0.7,2.6-1,4-1c1.7,0,3.1,0.4,4.2,1.3c1.1,0.8,1.9,2,2.4,3.6l-2.2,0.5c-0.4-1.2-0.9-2.1-1.7-2.6
				c-0.7-0.6-1.7-0.8-2.8-0.8c-1.3,0-2.3,0.3-3.2,0.9c-0.9,0.6-1.5,1.4-1.8,2.5c-0.3,1-0.5,2.1-0.5,3.2c0,1.4,0.2,2.7,0.6,3.7
				c0.4,1.1,1.1,1.8,1.9,2.4c0.9,0.5,1.8,0.8,2.8,0.8c1.2,0,2.3-0.4,3.1-1.1C286.8,865.7,287.4,864.6,287.7,863.2L287.7,863.2z
				 M300.3,869.1v-1.8c-0.9,1.4-2.2,2.1-3.8,2.1c-0.7,0-1.4-0.1-2-0.4c-0.6-0.3-1.1-0.6-1.4-1c-0.3-0.4-0.5-0.9-0.6-1.5
				c-0.1-0.4-0.1-1-0.1-1.9V857h2v6.7c0,1.1,0,1.8,0.1,2.2c0.1,0.5,0.4,1,0.8,1.3c0.4,0.3,0.9,0.5,1.5,0.5c0.6,0,1.2-0.2,1.7-0.5
				c0.5-0.3,0.9-0.7,1.1-1.3c0.2-0.5,0.3-1.3,0.3-2.4V857h2v12.1H300.3L300.3,869.1z M309.8,867.3l0.3,1.8c-0.6,0.1-1.1,0.2-1.5,0.2
				c-0.7,0-1.3-0.1-1.7-0.4c-0.4-0.2-0.7-0.5-0.9-0.9c-0.2-0.4-0.2-1.2-0.2-2.4v-7h-1.5V857h1.5v-3l2-1.2v4.2h2v1.6h-2v7.1
				c0,0.6,0,1,0.1,1.1c0.1,0.2,0.2,0.3,0.3,0.4c0.2,0.1,0.4,0.1,0.7,0.1C309.1,867.3,309.4,867.3,309.8,867.3z"/>
			
				<rect x="210.5" y="860.1" transform="matrix(0.2564 -0.9666 0.9666 0.2564 -667.1783 854.2932)" class="st1" width="22.4" height="1.4"/>
		</g>
		<path class="st2" d="M35.5,2.8h883.8c18,0,32.7,14.7,32.7,32.7v831.3c0,18-14.7,32.7-32.7,32.7H35.5c-18,0-32.7-14.7-32.7-32.7
			V35.5C2.8,17.6,17.6,2.8,35.5,2.8z"/>
		<g>
			<g>
				<rect x="786" y="750.3" class="st3" width="85" height="85"/>
				<path class="st4" d="M812.4,785.7l2.3-0.2c0.1,0.8,0.4,1.4,0.8,1.7c0.4,0.4,1,0.5,1.7,0.5c0.8,0,1.3-0.2,1.7-0.5
					c0.4-0.3,0.6-0.7,0.6-1.1c0-0.3-0.1-0.5-0.2-0.7c-0.2-0.2-0.4-0.4-0.9-0.5c-0.3-0.1-0.9-0.3-1.9-0.5c-1.3-0.3-2.2-0.7-2.7-1.2
					c-0.7-0.7-1.1-1.5-1.1-2.4c0-0.6,0.2-1.2,0.5-1.7c0.3-0.5,0.8-0.9,1.5-1.2c0.6-0.3,1.4-0.4,2.3-0.4c1.5,0,2.6,0.3,3.3,1
					c0.7,0.7,1.1,1.5,1.2,2.6l-2.4,0.1c-0.1-0.6-0.3-1.1-0.7-1.3c-0.3-0.3-0.8-0.4-1.5-0.4c-0.7,0-1.2,0.1-1.6,0.4
					c-0.3,0.2-0.4,0.4-0.4,0.7c0,0.3,0.1,0.5,0.4,0.7c0.3,0.3,1,0.5,2.2,0.8c1.2,0.3,2,0.6,2.6,0.9c0.6,0.3,1,0.7,1.3,1.2
					c0.3,0.5,0.5,1.1,0.5,1.9c0,0.7-0.2,1.3-0.6,1.9c-0.4,0.6-0.9,1-1.6,1.3c-0.7,0.3-1.5,0.4-2.6,0.4c-1.5,0-2.6-0.3-3.4-1
					C813,788,812.5,787,812.4,785.7L812.4,785.7z M824,779.8v-2.1h2.3v2.1H824L824,779.8z M824,789.5v-8.6h2.3v8.6H824L824,789.5z
					 M827.7,789.5v-1.8l3.2-3.7c0.5-0.6,0.9-1,1.2-1.3c-0.3,0-0.6,0-1,0l-3,0v-1.9h7.1v1.6l-3.3,3.8l-1.2,1.3c0.6,0,1,0,1.2,0h3.5v2
					H827.7L827.7,789.5z M841.8,786.8l2.3,0.4c-0.3,0.8-0.8,1.5-1.4,1.9c-0.6,0.4-1.4,0.7-2.4,0.7c-1.5,0-2.6-0.5-3.3-1.5
					c-0.6-0.8-0.8-1.8-0.8-3c0-1.4,0.4-2.5,1.1-3.3c0.7-0.8,1.7-1.2,2.8-1.2c1.3,0,2.3,0.4,3,1.3c0.7,0.8,1.1,2.1,1.1,3.9h-5.7
					c0,0.7,0.2,1.2,0.5,1.6c0.3,0.4,0.8,0.6,1.3,0.6c0.4,0,0.7-0.1,0.9-0.3C841.5,787.5,841.7,787.2,841.8,786.8L841.8,786.8z
					 M842,784.5c0-0.7-0.2-1.2-0.5-1.5c-0.3-0.3-0.7-0.5-1.2-0.5c-0.5,0-0.9,0.2-1.2,0.5c-0.3,0.4-0.5,0.9-0.5,1.5H842L842,784.5z
					 M794.4,808h-2.3v-8.6h2.1v1.2c0.4-0.6,0.7-1,1-1.1c0.3-0.2,0.6-0.3,1-0.3c0.5,0,1,0.1,1.5,0.4l-0.7,2c-0.4-0.2-0.7-0.4-1.1-0.4
					c-0.3,0-0.6,0.1-0.8,0.3c-0.2,0.2-0.4,0.5-0.5,0.9c-0.1,0.5-0.2,1.4-0.2,2.9V808L794.4,808z M803.7,805.3l2.3,0.4
					c-0.3,0.8-0.8,1.5-1.4,1.9c-0.6,0.4-1.4,0.7-2.4,0.7c-1.5,0-2.6-0.5-3.3-1.5c-0.6-0.8-0.8-1.8-0.8-3c0-1.4,0.4-2.5,1.1-3.3
					c0.7-0.8,1.7-1.2,2.8-1.2c1.3,0,2.3,0.4,3,1.3c0.7,0.8,1.1,2.1,1.1,3.9h-5.7c0,0.7,0.2,1.2,0.5,1.6c0.3,0.4,0.8,0.6,1.3,0.6
					c0.4,0,0.7-0.1,0.9-0.3C803.4,806,803.5,805.7,803.7,805.3L803.7,805.3z M803.8,803c0-0.7-0.2-1.2-0.5-1.5
					c-0.3-0.3-0.7-0.5-1.2-0.5c-0.5,0-0.9,0.2-1.2,0.5c-0.3,0.4-0.5,0.9-0.5,1.5H803.8L803.8,803z M806.9,799.4h1.3v-0.6
					c0-0.7,0.1-1.3,0.2-1.6c0.2-0.4,0.4-0.6,0.9-0.9c0.4-0.2,0.9-0.3,1.6-0.3c0.6,0,1.3,0.1,1.9,0.3l-0.3,1.6
					c-0.4-0.1-0.7-0.1-1.1-0.1c-0.3,0-0.6,0.1-0.7,0.2c-0.1,0.2-0.2,0.5-0.2,0.9v0.6h1.7v1.8h-1.7v6.8h-2.3v-6.8h-1.3V799.4
					L806.9,799.4z M818.4,805.3l2.3,0.4c-0.3,0.8-0.8,1.5-1.4,1.9c-0.6,0.4-1.4,0.7-2.4,0.7c-1.5,0-2.6-0.5-3.3-1.5
					c-0.6-0.8-0.8-1.8-0.8-3c0-1.4,0.4-2.5,1.1-3.3c0.7-0.8,1.7-1.2,2.8-1.2c1.3,0,2.3,0.4,3,1.3c0.7,0.8,1.1,2.1,1.1,3.9h-5.7
					c0,0.7,0.2,1.2,0.5,1.6c0.3,0.4,0.8,0.6,1.3,0.6c0.4,0,0.7-0.1,0.9-0.3C818.1,806,818.3,805.7,818.4,805.3L818.4,805.3z
					 M818.5,803c0-0.7-0.2-1.2-0.5-1.5c-0.3-0.3-0.7-0.5-1.2-0.5c-0.5,0-0.9,0.2-1.2,0.5c-0.3,0.4-0.5,0.9-0.5,1.5H818.5L818.5,803z
					 M824.8,808h-2.3v-8.6h2.1v1.2c0.4-0.6,0.7-1,1-1.1c0.3-0.2,0.6-0.3,1-0.3c0.5,0,1,0.1,1.5,0.4l-0.7,2c-0.4-0.2-0.7-0.4-1.1-0.4
					c-0.3,0-0.6,0.1-0.8,0.3c-0.2,0.2-0.4,0.5-0.5,0.9c-0.1,0.5-0.2,1.4-0.2,2.9V808L824.8,808z M834,805.3l2.3,0.4
					c-0.3,0.8-0.7,1.5-1.4,1.9c-0.6,0.4-1.4,0.7-2.4,0.7c-1.5,0-2.6-0.5-3.3-1.5c-0.6-0.8-0.8-1.8-0.8-3c0-1.4,0.4-2.5,1.1-3.3
					c0.7-0.8,1.7-1.2,2.8-1.2c1.3,0,2.3,0.4,3,1.3c0.7,0.8,1.1,2.1,1.1,3.9h-5.7c0,0.7,0.2,1.2,0.5,1.6c0.3,0.4,0.8,0.6,1.3,0.6
					c0.4,0,0.7-0.1,0.9-0.3C833.7,806,833.9,805.7,834,805.3L834,805.3z M834.1,803c0-0.7-0.2-1.2-0.5-1.5c-0.3-0.3-0.7-0.5-1.2-0.5
					c-0.5,0-0.9,0.2-1.2,0.5c-0.3,0.4-0.5,0.9-0.5,1.5H834.1L834.1,803z M846.1,808h-2.3v-4.4c0-0.9,0-1.5-0.1-1.8
					c-0.1-0.3-0.3-0.5-0.5-0.6c-0.2-0.2-0.5-0.2-0.8-0.2c-0.4,0-0.8,0.1-1.1,0.3c-0.3,0.2-0.5,0.5-0.6,0.9c-0.1,0.4-0.2,1-0.2,2v3.9
					h-2.3v-8.6h2.1v1.3c0.8-1,1.7-1.4,2.8-1.4c0.5,0,1,0.1,1.4,0.3c0.4,0.2,0.7,0.4,0.9,0.7c0.2,0.3,0.4,0.6,0.4,1
					c0.1,0.4,0.1,0.9,0.1,1.5V808L846.1,808z M855.8,801.9l-2.2,0.4c-0.1-0.4-0.2-0.8-0.5-1c-0.3-0.2-0.6-0.3-1-0.3
					c-0.6,0-1,0.2-1.4,0.6c-0.3,0.4-0.5,1-0.5,2c0,1,0.2,1.7,0.5,2.2c0.3,0.4,0.8,0.6,1.4,0.6c0.4,0,0.8-0.1,1.1-0.4
					c0.3-0.2,0.5-0.7,0.6-1.3l2.2,0.4c-0.2,1-0.7,1.8-1.3,2.3c-0.7,0.5-1.5,0.8-2.6,0.8c-1.3,0-2.3-0.4-3-1.2
					c-0.7-0.8-1.1-1.9-1.1-3.3c0-1.4,0.4-2.5,1.1-3.3c0.7-0.8,1.8-1.2,3-1.2c1,0,1.9,0.2,2.5,0.7C855.1,800.3,855.6,801,855.8,801.9
					L855.8,801.9z M862.5,805.3l2.3,0.4c-0.3,0.8-0.7,1.5-1.4,1.9c-0.6,0.4-1.4,0.7-2.4,0.7c-1.5,0-2.6-0.5-3.3-1.5
					c-0.6-0.8-0.8-1.8-0.8-3c0-1.4,0.4-2.5,1.1-3.3c0.7-0.8,1.7-1.2,2.8-1.2c1.3,0,2.3,0.4,3,1.3c0.7,0.8,1.1,2.1,1.1,3.9h-5.7
					c0,0.7,0.2,1.2,0.5,1.6c0.3,0.4,0.8,0.6,1.3,0.6c0.4,0,0.7-0.1,0.9-0.3C862.2,806,862.4,805.7,862.5,805.3L862.5,805.3z
					 M862.7,803c0-0.7-0.2-1.2-0.5-1.5c-0.3-0.3-0.7-0.5-1.2-0.5c-0.5,0-0.9,0.2-1.2,0.5c-0.3,0.4-0.5,0.9-0.5,1.5H862.7z"/>
				<line class="st5" x1="878.1" y1="835.3" x2="927.4" y2="835.3"/>
				<line class="st5" x1="878.1" y1="750.3" x2="927.4" y2="750.3"/>
				<line class="st5" x1="920.3" y1="808.3" x2="920.3" y2="835.3"/>
				<line class="st5" x1="920.3" y1="750.3" x2="920.3" y2="776.3"/>
				<path class="st6" d="M922.4,804.7l-0.1-1.1c0.6-0.1,1-0.3,1.3-0.6c0.3-0.3,0.4-0.6,0.4-1.1c0-0.5-0.2-0.9-0.5-1.3
					c-0.3-0.3-0.8-0.5-1.3-0.5c-0.5,0-0.9,0.2-1.2,0.5c-0.3,0.3-0.5,0.7-0.5,1.2c0,0.2,0,0.4,0.1,0.7l-0.9-0.1c0-0.1,0-0.1,0-0.2
					c0-0.5-0.1-0.9-0.4-1.2c-0.2-0.4-0.6-0.5-1.1-0.5c-0.4,0-0.7,0.1-1,0.4c-0.3,0.3-0.4,0.6-0.4,1c0,0.4,0.1,0.8,0.4,1
					c0.3,0.3,0.7,0.5,1.2,0.5l-0.2,1.1c-0.7-0.1-1.3-0.4-1.6-0.9c-0.4-0.5-0.6-1-0.6-1.7c0-0.5,0.1-0.9,0.3-1.3
					c0.2-0.4,0.5-0.7,0.8-0.9c0.3-0.2,0.7-0.3,1.1-0.3c0.4,0,0.7,0.1,1,0.3c0.3,0.2,0.5,0.5,0.7,0.9c0.1-0.5,0.4-0.9,0.7-1.2
					c0.4-0.3,0.8-0.4,1.4-0.4c0.8,0,1.4,0.3,1.9,0.8c0.5,0.5,0.8,1.2,0.8,2.1c0,0.8-0.2,1.4-0.7,1.9
					C923.7,804.3,923.1,804.6,922.4,804.7L922.4,804.7z M922.4,790.3l0.1-1c0.7,0.1,1.3,0.4,1.7,0.9c0.4,0.5,0.6,1,0.6,1.7
					c0,0.9-0.3,1.5-0.8,2c-0.6,0.5-1.4,0.8-2.4,0.8c-0.7,0-1.3-0.1-1.8-0.3c-0.5-0.2-0.9-0.6-1.1-1c-0.3-0.5-0.4-0.9-0.4-1.5
					c0-0.7,0.2-1.2,0.5-1.7c0.3-0.4,0.8-0.7,1.5-0.8l0.2,1c-0.4,0.1-0.7,0.3-0.9,0.5c-0.2,0.2-0.3,0.5-0.3,0.9c0,0.5,0.2,1,0.6,1.3
					c0.4,0.3,1,0.5,1.8,0.5c0.8,0,1.4-0.2,1.8-0.5c0.4-0.3,0.6-0.7,0.6-1.3c0-0.4-0.1-0.8-0.4-1
					C923.3,790.6,922.9,790.4,922.4,790.3L922.4,790.3z M924.7,788.4h-6.2v-0.9h0.9c-0.3-0.2-0.6-0.5-0.7-0.8
					c-0.2-0.3-0.3-0.7-0.3-1.1c0-0.5,0.1-0.8,0.3-1.1c0.2-0.3,0.5-0.5,0.8-0.6c-0.7-0.5-1.1-1.1-1.1-1.9c0-0.6,0.2-1.1,0.5-1.4
					c0.3-0.3,0.9-0.5,1.6-0.5h4.3v1.1h-3.9c-0.4,0-0.7,0-0.9,0.1c-0.2,0.1-0.3,0.2-0.4,0.4c-0.1,0.2-0.2,0.4-0.2,0.6
					c0,0.4,0.1,0.8,0.4,1.1c0.3,0.3,0.8,0.4,1.4,0.4h3.6v1.1h-4c-0.5,0-0.8,0.1-1.1,0.3c-0.2,0.2-0.4,0.5-0.4,0.8
					c0,0.3,0.1,0.6,0.2,0.8c0.2,0.3,0.4,0.4,0.7,0.5c0.3,0.1,0.7,0.2,1.3,0.2h3.2V788.4z"/>
				<line class="st5" x1="786" y1="842.4" x2="786" y2="882.1"/>
				<line class="st5" x1="871.1" y1="842.4" x2="871.1" y2="882.1"/>
				<line class="st5" x1="813" y1="875" x2="786" y2="875"/>
				<line class="st5" x1="871.1" y1="875" x2="845.1" y2="875"/>
				<path class="st6" d="M816.7,877.1l1.1-0.1c0.1,0.6,0.3,1,0.6,1.3c0.3,0.3,0.6,0.4,1.1,0.4c0.5,0,0.9-0.2,1.3-0.5
					c0.3-0.3,0.5-0.8,0.5-1.3c0-0.5-0.2-0.9-0.5-1.2c-0.3-0.3-0.7-0.5-1.2-0.5c-0.2,0-0.4,0-0.7,0.1l0.1-0.9c0.1,0,0.1,0,0.2,0
					c0.5,0,0.9-0.1,1.2-0.4c0.4-0.2,0.5-0.6,0.5-1.1c0-0.4-0.1-0.7-0.4-1c-0.3-0.3-0.6-0.4-1-0.4c-0.4,0-0.8,0.1-1,0.4
					c-0.3,0.3-0.5,0.7-0.5,1.2l-1.1-0.2c0.1-0.7,0.4-1.3,0.9-1.6c0.5-0.4,1-0.6,1.7-0.6c0.5,0,0.9,0.1,1.3,0.3
					c0.4,0.2,0.7,0.5,0.9,0.8c0.2,0.3,0.3,0.7,0.3,1.1c0,0.4-0.1,0.7-0.3,1c-0.2,0.3-0.5,0.5-0.9,0.7c0.5,0.1,0.9,0.4,1.2,0.7
					c0.3,0.4,0.4,0.8,0.4,1.4c0,0.8-0.3,1.4-0.8,1.9c-0.5,0.5-1.2,0.8-2.1,0.8c-0.8,0-1.4-0.2-1.9-0.7
					C817,878.4,816.7,877.8,816.7,877.1L816.7,877.1z M831,877.1l1,0.1c-0.1,0.7-0.4,1.3-0.9,1.7c-0.5,0.4-1,0.6-1.7,0.6
					c-0.9,0-1.5-0.3-2-0.8c-0.5-0.6-0.8-1.4-0.8-2.4c0-0.7,0.1-1.3,0.3-1.8c0.2-0.5,0.6-0.9,1-1.1c0.5-0.3,0.9-0.4,1.5-0.4
					c0.7,0,1.2,0.2,1.7,0.5c0.4,0.3,0.7,0.8,0.8,1.5l-1,0.2c-0.1-0.4-0.3-0.7-0.5-0.9c-0.2-0.2-0.5-0.3-0.9-0.3
					c-0.5,0-1,0.2-1.3,0.6c-0.3,0.4-0.5,1-0.5,1.8c0,0.8,0.2,1.4,0.5,1.8c0.3,0.4,0.7,0.6,1.3,0.6c0.4,0,0.8-0.1,1-0.4
					C830.8,878,831,877.6,831,877.1L831,877.1z M833,879.3v-6.2h0.9v0.9c0.2-0.3,0.5-0.6,0.8-0.7c0.3-0.2,0.7-0.3,1.1-0.3
					c0.5,0,0.8,0.1,1.1,0.3c0.3,0.2,0.5,0.5,0.6,0.8c0.5-0.7,1.1-1.1,1.9-1.1c0.6,0,1.1,0.2,1.4,0.5c0.3,0.3,0.5,0.9,0.5,1.6v4.3
					h-1.1v-3.9c0-0.4,0-0.7-0.1-0.9c-0.1-0.2-0.2-0.3-0.4-0.4c-0.2-0.1-0.4-0.2-0.6-0.2c-0.4,0-0.8,0.1-1.1,0.4
					c-0.3,0.3-0.4,0.8-0.4,1.4v3.6h-1.1v-4c0-0.5-0.1-0.8-0.3-1.1c-0.2-0.2-0.5-0.4-0.8-0.4c-0.3,0-0.6,0.1-0.8,0.2
					c-0.3,0.2-0.4,0.4-0.5,0.7c-0.1,0.3-0.2,0.7-0.2,1.3v3.2H833z"/>
				<line class="st5" x1="871.1" y1="842.4" x2="871.1" y2="861"/>
				<line class="st5" x1="786" y1="842.4" x2="786" y2="861"/>
				<line class="st5" x1="897.5" y1="853.9" x2="871.1" y2="853.9"/>
				<line class="st5" x1="786" y1="853.9" x2="759.6" y2="853.9"/>
				<path class="st6" d="M803.2,858.2h-1.1v-6.7c-0.3,0.2-0.6,0.5-1,0.7c-0.4,0.2-0.8,0.4-1.1,0.5v-1c0.6-0.3,1.1-0.6,1.5-1
					c0.4-0.4,0.8-0.8,0.9-1.1h0.7V858.2L803.2,858.2z M806.5,858.2V857h1.2v1.2H806.5L806.5,858.2z M813.2,858.2h-1.1v-6.7
					c-0.3,0.2-0.6,0.5-1,0.7c-0.4,0.2-0.8,0.4-1.1,0.5v-1c0.6-0.3,1.1-0.6,1.5-1c0.4-0.4,0.8-0.8,0.9-1.1h0.7V858.2L813.2,858.2z
					 M817.5,853.6c-0.4-0.2-0.8-0.4-1-0.7c-0.2-0.3-0.3-0.7-0.3-1.1c0-0.6,0.2-1.2,0.7-1.6c0.4-0.4,1-0.6,1.8-0.6
					c0.7,0,1.4,0.2,1.8,0.7c0.5,0.4,0.7,1,0.7,1.6c0,0.4-0.1,0.7-0.3,1c-0.2,0.3-0.5,0.5-0.9,0.7c0.5,0.2,0.9,0.4,1.2,0.8
					c0.3,0.4,0.4,0.8,0.4,1.4c0,0.7-0.3,1.3-0.8,1.8c-0.5,0.5-1.2,0.8-2,0.8c-0.8,0-1.5-0.2-2-0.8c-0.5-0.5-0.8-1.1-0.8-1.9
					c0-0.6,0.1-1,0.4-1.4C816.6,854,817,853.7,817.5,853.6L817.5,853.6z M817.3,851.8c0,0.4,0.1,0.7,0.4,1c0.3,0.3,0.6,0.4,1,0.4
					c0.4,0,0.7-0.1,1-0.4c0.3-0.3,0.4-0.6,0.4-0.9c0-0.4-0.1-0.7-0.4-1c-0.3-0.3-0.6-0.4-1-0.4c-0.4,0-0.7,0.1-1,0.4
					C817.5,851.1,817.3,851.4,817.3,851.8L817.3,851.8z M817,855.8c0,0.3,0.1,0.6,0.2,0.9c0.1,0.3,0.4,0.5,0.6,0.7
					c0.3,0.2,0.6,0.2,0.9,0.2c0.5,0,0.9-0.2,1.3-0.5c0.3-0.3,0.5-0.7,0.5-1.2c0-0.5-0.2-0.9-0.5-1.3c-0.3-0.3-0.8-0.5-1.3-0.5
					c-0.5,0-0.9,0.2-1.2,0.5S817,855.3,817,855.8L817,855.8z M826.2,850.8v-1.2h1.1v1.2H826.2L826.2,850.8z M826.2,858.2V852h1.1
					v6.2H826.2L826.2,858.2z M828.9,858.2V852h0.9v0.9c0.5-0.7,1.1-1,2-1c0.4,0,0.7,0.1,1,0.2c0.3,0.1,0.6,0.3,0.7,0.5
					c0.2,0.2,0.3,0.5,0.3,0.8c0,0.2,0.1,0.5,0.1,1v3.8h-1.1v-3.8c0-0.4,0-0.8-0.1-1c-0.1-0.2-0.2-0.4-0.4-0.5
					c-0.2-0.1-0.5-0.2-0.7-0.2c-0.4,0-0.8,0.1-1.2,0.4c-0.3,0.3-0.5,0.8-0.5,1.6v3.4H828.9L828.9,858.2z M839.6,856l1,0.1
					c-0.1,0.7-0.4,1.3-0.9,1.7c-0.5,0.4-1,0.6-1.7,0.6c-0.9,0-1.5-0.3-2-0.8c-0.5-0.6-0.8-1.4-0.8-2.4c0-0.7,0.1-1.3,0.3-1.8
					c0.2-0.5,0.6-0.9,1-1.1c0.5-0.3,0.9-0.4,1.5-0.4c0.7,0,1.2,0.2,1.7,0.5c0.4,0.3,0.7,0.8,0.8,1.5l-1,0.2
					c-0.1-0.4-0.3-0.7-0.5-0.9c-0.2-0.2-0.5-0.3-0.9-0.3c-0.5,0-1,0.2-1.3,0.6c-0.3,0.4-0.5,1-0.5,1.8c0,0.8,0.2,1.4,0.5,1.8
					c0.3,0.4,0.7,0.6,1.3,0.6c0.4,0,0.8-0.1,1-0.4C839.4,856.9,839.5,856.5,839.6,856L839.6,856z M841.5,858.2v-8.6h1.1v3.1
					c0.5-0.6,1.1-0.9,1.9-0.9c0.5,0,0.9,0.1,1.2,0.3c0.3,0.2,0.6,0.4,0.7,0.8c0.1,0.3,0.2,0.8,0.2,1.4v3.9h-1.1v-3.9
					c0-0.5-0.1-0.9-0.3-1.2c-0.2-0.2-0.5-0.4-1-0.4c-0.3,0-0.6,0.1-0.9,0.2c-0.3,0.2-0.5,0.4-0.6,0.7c-0.1,0.3-0.2,0.7-0.2,1.1v3.4
					H841.5L841.5,858.2z M852.5,856.2l1.1,0.1c-0.2,0.6-0.5,1.1-1,1.5c-0.5,0.4-1.1,0.5-1.8,0.5c-0.9,0-1.6-0.3-2.2-0.8
					c-0.5-0.6-0.8-1.3-0.8-2.4c0-1,0.3-1.9,0.8-2.4c0.5-0.6,1.2-0.9,2.1-0.9c0.8,0,1.5,0.3,2,0.8c0.5,0.6,0.8,1.4,0.8,2.4
					c0,0.1,0,0.2,0,0.3H849c0,0.7,0.2,1.2,0.6,1.6c0.3,0.4,0.8,0.5,1.3,0.5c0.4,0,0.7-0.1,1-0.3C852.1,857,852.3,856.7,852.5,856.2
					L852.5,856.2z M849,854.5h3.5c0-0.5-0.2-0.9-0.4-1.2c-0.3-0.4-0.8-0.6-1.3-0.6c-0.5,0-0.9,0.2-1.2,0.5
					C849.2,853.6,849.1,854,849,854.5L849,854.5z M854.5,856.4l1-0.2c0.1,0.4,0.2,0.7,0.5,1c0.3,0.2,0.6,0.3,1.1,0.3
					c0.5,0,0.8-0.1,1.1-0.3c0.2-0.2,0.4-0.4,0.4-0.7c0-0.2-0.1-0.4-0.3-0.6c-0.1-0.1-0.5-0.2-1.1-0.4c-0.8-0.2-1.3-0.4-1.6-0.5
					c-0.3-0.1-0.5-0.3-0.7-0.6c-0.2-0.2-0.2-0.5-0.2-0.8c0-0.3,0.1-0.5,0.2-0.8c0.1-0.2,0.3-0.4,0.5-0.6c0.2-0.1,0.4-0.2,0.7-0.3
					c0.3-0.1,0.6-0.1,0.9-0.1c0.5,0,0.9,0.1,1.3,0.2c0.4,0.1,0.6,0.3,0.8,0.6c0.2,0.2,0.3,0.6,0.4,1l-1,0.1c0-0.3-0.2-0.6-0.4-0.8
					c-0.2-0.2-0.5-0.3-0.9-0.3c-0.5,0-0.8,0.1-1,0.2c-0.2,0.2-0.3,0.3-0.3,0.6c0,0.1,0,0.3,0.1,0.4c0.1,0.1,0.2,0.2,0.4,0.3
					c0.1,0,0.4,0.1,0.9,0.3c0.7,0.2,1.3,0.4,1.6,0.5c0.3,0.1,0.5,0.3,0.7,0.6c0.2,0.2,0.3,0.5,0.3,0.9c0,0.3-0.1,0.7-0.3,1
					c-0.2,0.3-0.5,0.5-0.9,0.7c-0.4,0.2-0.8,0.3-1.3,0.3c-0.8,0-1.4-0.2-1.8-0.5C854.9,857.5,854.6,857,854.5,856.4z"/>
				<line class="st5" x1="878.1" y1="835.3" x2="904.6" y2="835.3"/>
				<line class="st5" x1="878.1" y1="750.3" x2="904.6" y2="750.3"/>
				<line class="st5" x1="897.5" y1="861.8" x2="897.5" y2="835.3"/>
				<line class="st5" x1="897.5" y1="750.3" x2="897.5" y2="723.8"/>
				<path class="st6" d="M901.8,818.2v1.1h-6.7c0.2,0.3,0.5,0.6,0.7,1c0.2,0.4,0.4,0.8,0.5,1.1h-1c-0.3-0.6-0.6-1.1-1-1.5
					c-0.4-0.4-0.8-0.8-1.1-0.9v-0.7H901.8L901.8,818.2z M901.8,814.9h-1.2v-1.2h1.2V814.9L901.8,814.9z M901.8,808.2v1.1h-6.7
					c0.2,0.3,0.5,0.6,0.7,1c0.2,0.4,0.4,0.8,0.5,1.1h-1c-0.3-0.6-0.6-1.1-1-1.5c-0.4-0.4-0.8-0.8-1.1-0.9v-0.7H901.8L901.8,808.2z
					 M897.2,803.8c-0.2,0.4-0.4,0.8-0.7,1c-0.3,0.2-0.7,0.3-1.1,0.3c-0.6,0-1.2-0.2-1.6-0.7c-0.4-0.4-0.6-1-0.6-1.8
					c0-0.7,0.2-1.4,0.7-1.8c0.4-0.5,1-0.7,1.6-0.7c0.4,0,0.7,0.1,1,0.3c0.3,0.2,0.5,0.5,0.7,0.9c0.2-0.5,0.4-0.9,0.8-1.2
					c0.4-0.3,0.8-0.4,1.4-0.4c0.7,0,1.3,0.3,1.8,0.8c0.5,0.5,0.8,1.2,0.8,2c0,0.8-0.2,1.5-0.8,2c-0.5,0.5-1.1,0.8-1.9,0.8
					c-0.6,0-1-0.1-1.4-0.4C897.6,804.7,897.3,804.3,897.2,803.8L897.2,803.8z M895.4,804c0.4,0,0.7-0.1,1-0.4c0.3-0.3,0.4-0.6,0.4-1
					c0-0.4-0.1-0.7-0.4-1c-0.3-0.3-0.6-0.4-0.9-0.4c-0.4,0-0.7,0.1-1,0.4c-0.3,0.3-0.4,0.6-0.4,1c0,0.4,0.1,0.7,0.4,1
					C894.7,803.9,895,804,895.4,804L895.4,804z M899.3,804.4c0.3,0,0.6-0.1,0.9-0.2c0.3-0.1,0.5-0.4,0.7-0.6
					c0.2-0.3,0.2-0.6,0.2-0.9c0-0.5-0.2-0.9-0.5-1.3c-0.3-0.3-0.7-0.5-1.2-0.5c-0.5,0-0.9,0.2-1.3,0.5c-0.3,0.3-0.5,0.8-0.5,1.3
					c0,0.5,0.2,0.9,0.5,1.2C898.4,804.2,898.9,804.4,899.3,804.4L899.3,804.4z M894.4,795.1h-1.2v-1.1h1.2V795.1L894.4,795.1z
					 M901.8,795.1h-6.2v-1.1h6.2V795.1L901.8,795.1z M901.8,792.5h-6.2v-0.9h0.9c-0.7-0.5-1-1.1-1-2c0-0.4,0.1-0.7,0.2-1
					c0.1-0.3,0.3-0.5,0.5-0.7c0.2-0.2,0.5-0.3,0.8-0.3c0.2,0,0.5-0.1,1-0.1h3.8v1.1H898c-0.4,0-0.8,0-1,0.1
					c-0.2,0.1-0.4,0.2-0.5,0.4c-0.1,0.2-0.2,0.5-0.2,0.7c0,0.4,0.1,0.8,0.4,1.2c0.3,0.3,0.8,0.5,1.6,0.5h3.4V792.5L901.8,792.5z
					 M899.5,781.7l0.1-1c0.7,0.1,1.3,0.4,1.7,0.9c0.4,0.5,0.6,1,0.6,1.7c0,0.9-0.3,1.5-0.8,2c-0.6,0.5-1.4,0.8-2.4,0.8
					c-0.7,0-1.3-0.1-1.8-0.3c-0.5-0.2-0.9-0.6-1.1-1c-0.3-0.5-0.4-0.9-0.4-1.5c0-0.7,0.2-1.2,0.5-1.7c0.3-0.4,0.8-0.7,1.5-0.8l0.2,1
					c-0.4,0.1-0.7,0.3-0.9,0.5c-0.2,0.2-0.3,0.5-0.3,0.9c0,0.5,0.2,1,0.6,1.3c0.4,0.3,1,0.5,1.8,0.5c0.8,0,1.4-0.2,1.8-0.5
					c0.4-0.3,0.6-0.7,0.6-1.3c0-0.4-0.1-0.8-0.4-1C900.5,782,900.1,781.8,899.5,781.7L899.5,781.7z M901.8,779.8h-8.6v-1.1h3.1
					c-0.6-0.5-0.9-1.1-0.9-1.9c0-0.5,0.1-0.9,0.3-1.2c0.2-0.3,0.4-0.6,0.8-0.7s0.8-0.2,1.4-0.2h3.9v1.1h-3.9c-0.5,0-0.9,0.1-1.2,0.3
					c-0.2,0.2-0.4,0.5-0.4,1c0,0.3,0.1,0.6,0.2,0.9c0.2,0.3,0.4,0.5,0.7,0.6c0.3,0.1,0.7,0.2,1.1,0.2h3.4V779.8L901.8,779.8z
					 M899.8,768.9l0.1-1.1c0.6,0.2,1.1,0.5,1.5,1c0.4,0.5,0.5,1.1,0.5,1.8c0,0.9-0.3,1.6-0.8,2.2c-0.6,0.5-1.3,0.8-2.4,0.8
					c-1,0-1.9-0.3-2.4-0.8c-0.6-0.5-0.9-1.2-0.9-2.1c0-0.8,0.3-1.5,0.8-2c0.6-0.5,1.4-0.8,2.4-0.8c0.1,0,0.2,0,0.3,0v4.6
					c0.7,0,1.2-0.2,1.6-0.6c0.4-0.3,0.5-0.8,0.5-1.3c0-0.4-0.1-0.7-0.3-1C900.6,769.3,900.3,769,899.8,768.9L899.8,768.9z
					 M898.1,772.3v-3.5c-0.5,0-0.9,0.2-1.2,0.4c-0.4,0.3-0.6,0.8-0.6,1.3c0,0.5,0.2,0.9,0.5,1.2
					C897.1,772.1,897.6,772.3,898.1,772.3L898.1,772.3z M900,766.9l-0.2-1c0.4-0.1,0.7-0.2,1-0.5c0.2-0.3,0.3-0.6,0.3-1.1
					c0-0.5-0.1-0.8-0.3-1.1c-0.2-0.2-0.4-0.4-0.7-0.4c-0.2,0-0.4,0.1-0.6,0.3c-0.1,0.1-0.2,0.5-0.4,1.1c-0.2,0.8-0.4,1.3-0.5,1.6
					c-0.1,0.3-0.3,0.5-0.6,0.7c-0.2,0.2-0.5,0.2-0.8,0.2c-0.3,0-0.5-0.1-0.8-0.2c-0.2-0.1-0.4-0.3-0.6-0.5c-0.1-0.2-0.2-0.4-0.3-0.7
					c-0.1-0.3-0.1-0.6-0.1-0.9c0-0.5,0.1-0.9,0.2-1.3c0.1-0.4,0.3-0.6,0.6-0.8c0.2-0.2,0.6-0.3,1-0.4l0.1,1c-0.3,0-0.6,0.2-0.8,0.4
					c-0.2,0.2-0.3,0.5-0.3,0.9c0,0.5,0.1,0.8,0.2,1c0.2,0.2,0.3,0.3,0.6,0.3c0.1,0,0.3,0,0.4-0.1c0.1-0.1,0.2-0.2,0.3-0.4
					c0-0.1,0.1-0.4,0.3-0.9c0.2-0.7,0.4-1.3,0.5-1.6c0.1-0.3,0.3-0.5,0.6-0.7c0.2-0.2,0.5-0.3,0.9-0.3c0.4,0,0.7,0.1,1,0.3
					c0.3,0.2,0.5,0.5,0.7,0.9c0.2,0.4,0.3,0.8,0.3,1.3c0,0.8-0.2,1.4-0.5,1.8C901.1,766.5,900.6,766.8,900,766.9z"/>
			</g>
			<path class="st7" d="M778.3,700.9l6.5-0.9c0.8,3.7,2,6.4,3.8,8c1.8,1.6,4,2.5,6.6,2.5c3.1,0,5.7-1.1,7.8-3.2
				c2.1-2.1,3.2-4.8,3.2-7.9c0-3-1-5.5-3-7.4c-2-1.9-4.5-2.9-7.5-2.9c-1.2,0-2.8,0.2-4.6,0.7l0.7-5.7c0.4,0,0.8,0.1,1.1,0.1
				c2.8,0,5.3-0.7,7.6-2.2c2.2-1.5,3.3-3.7,3.3-6.7c0-2.4-0.8-4.4-2.4-6c-1.6-1.6-3.7-2.4-6.3-2.4c-2.6,0-4.7,0.8-6.4,2.4
				c-1.7,1.6-2.8,4-3.3,7.3l-6.5-1.2c0.8-4.4,2.6-7.8,5.5-10.2c2.8-2.4,6.4-3.6,10.6-3.6c2.9,0,5.6,0.6,8,1.9
				c2.5,1.2,4.3,2.9,5.6,5.1c1.3,2.2,1.9,4.4,1.9,6.9c0,2.3-0.6,4.4-1.8,6.3c-1.2,1.9-3.1,3.4-5.5,4.5c3.1,0.7,5.6,2.2,7.3,4.5
				c1.7,2.3,2.6,5.2,2.6,8.6c0,4.7-1.7,8.6-5.1,11.8c-3.4,3.2-7.7,4.8-12.9,4.8c-4.7,0-8.6-1.4-11.6-4.2
				C780.5,709,778.7,705.3,778.3,700.9L778.3,700.9z M821.4,715v-38.6h5.9v5.5c1.2-1.9,2.8-3.4,4.8-4.6c2-1.2,4.3-1.7,6.9-1.7
				c2.9,0,5.2,0.6,7,1.8c1.8,1.2,3.1,2.8,3.9,5c3.1-4.5,7.1-6.7,12-6.7c3.8,0,6.8,1.1,8.9,3.2c2.1,2.1,3.1,5.4,3.1,9.8V715h-6.5
				v-24.3c0-2.6-0.2-4.5-0.6-5.6c-0.4-1.2-1.2-2.1-2.3-2.8c-1.1-0.7-2.4-1.1-3.9-1.1c-2.7,0-5,0.9-6.8,2.7c-1.8,1.8-2.7,4.7-2.7,8.7
				V715h-6.5V690c0-2.9-0.5-5.1-1.6-6.5c-1.1-1.5-2.8-2.2-5.2-2.2c-1.8,0-3.5,0.5-5.1,1.5c-1.6,1-2.7,2.4-3.4,4.3
				c-0.7,1.9-1,4.6-1,8.1v20H821.4L821.4,715z M883.4,715v-38.6h5.9v5.5c1.2-1.9,2.8-3.4,4.8-4.6c2-1.2,4.3-1.7,6.9-1.7
				c2.9,0,5.2,0.6,7,1.8c1.8,1.2,3.1,2.8,3.9,5c3.1-4.5,7.1-6.7,12-6.7c3.8,0,6.8,1.1,8.9,3.2c2.1,2.1,3.1,5.4,3.1,9.8V715h-6.5
				v-24.3c0-2.6-0.2-4.5-0.6-5.6c-0.4-1.2-1.2-2.1-2.3-2.8c-1.1-0.7-2.4-1.1-3.9-1.1c-2.7,0-5,0.9-6.8,2.7c-1.8,1.8-2.7,4.7-2.7,8.7
				V715h-6.5V690c0-2.9-0.5-5.1-1.6-6.5c-1.1-1.5-2.8-2.2-5.2-2.2c-1.8,0-3.5,0.5-5.1,1.5c-1.6,1-2.7,2.4-3.4,4.3
				c-0.7,1.9-1,4.6-1,8.1v20H883.4z"/>
		</g>
	</g>
	<g>
		<g>
			<path class="st0" d="M41.9,1783.9v-18.6h7c1.4,0,2.6,0.2,3.4,0.6c0.9,0.4,1.5,1,2,1.7c0.5,0.8,0.7,1.6,0.7,2.4
				c0,0.8-0.2,1.5-0.6,2.2c-0.4,0.7-1.1,1.3-1.9,1.7c1.1,0.3,2,0.9,2.6,1.7c0.6,0.8,0.9,1.7,0.9,2.8c0,0.9-0.2,1.7-0.6,2.4
				c-0.4,0.7-0.8,1.3-1.4,1.7c-0.5,0.4-1.2,0.7-2,0.9c-0.8,0.2-1.8,0.3-3,0.3H41.9L41.9,1783.9z M44.4,1773.2h4
				c1.1,0,1.9-0.1,2.3-0.2c0.6-0.2,1.1-0.5,1.4-0.9c0.3-0.4,0.5-1,0.5-1.6c0-0.6-0.1-1.2-0.4-1.6c-0.3-0.5-0.7-0.8-1.3-1
				c-0.5-0.2-1.5-0.3-2.8-0.3h-3.7V1773.2L44.4,1773.2z M44.4,1781.8H49c0.8,0,1.4,0,1.7-0.1c0.6-0.1,1-0.3,1.4-0.5
				c0.4-0.2,0.7-0.6,0.9-1c0.2-0.5,0.4-1,0.4-1.6c0-0.7-0.2-1.3-0.5-1.8c-0.4-0.5-0.8-0.9-1.5-1.1c-0.6-0.2-1.5-0.3-2.7-0.3h-4.3
				V1781.8L44.4,1781.8z M59,1783.9v-18.6h2.3v18.6H59L59,1783.9z M73.6,1782.3c-0.8,0.7-1.7,1.2-2.4,1.5s-1.6,0.4-2.5,0.4
				c-1.5,0-2.6-0.4-3.4-1.1c-0.8-0.7-1.2-1.6-1.2-2.8c0-0.7,0.2-1.3,0.4-1.8c0.3-0.5,0.7-1,1.2-1.3c0.5-0.3,1-0.6,1.6-0.7
				c0.4-0.1,1.1-0.2,2-0.3c1.8-0.2,3.2-0.5,4.1-0.8c0-0.3,0-0.5,0-0.6c0-0.9-0.2-1.6-0.6-2c-0.6-0.5-1.5-0.8-2.6-0.8
				c-1.1,0-1.9,0.2-2.4,0.6c-0.5,0.4-0.9,1-1.1,2l-2.2-0.3c0.2-1,0.5-1.7,1-2.3c0.5-0.6,1.1-1,2-1.4c0.9-0.3,1.9-0.5,3.1-0.5
				c1.1,0,2.1,0.1,2.8,0.4c0.7,0.3,1.2,0.6,1.6,1c0.3,0.4,0.6,0.9,0.7,1.6c0.1,0.4,0.1,1.1,0.1,2.1v3c0,2.1,0,3.4,0.1,4
				c0.1,0.6,0.3,1.1,0.6,1.6H74C73.8,1783.5,73.6,1782.9,73.6,1782.3L73.6,1782.3z M73.4,1777.2c-0.8,0.3-2.1,0.6-3.7,0.9
				c-0.9,0.1-1.6,0.3-2,0.5c-0.4,0.2-0.7,0.4-0.9,0.7c-0.2,0.3-0.3,0.7-0.3,1.1c0,0.6,0.2,1.1,0.7,1.5c0.5,0.4,1.1,0.6,2,0.6
				c0.9,0,1.7-0.2,2.3-0.6c0.7-0.4,1.2-0.9,1.5-1.6c0.2-0.5,0.4-1.3,0.4-2.3L73.4,1777.2L73.4,1777.2z M88,1779l2.2,0.3
				c-0.2,1.5-0.9,2.7-1.9,3.6c-1,0.9-2.2,1.3-3.7,1.3c-1.8,0-3.3-0.6-4.4-1.8c-1.1-1.2-1.7-2.9-1.7-5.2c0-1.5,0.2-2.7,0.7-3.8
				c0.5-1.1,1.2-1.9,2.2-2.4c1-0.5,2-0.8,3.2-0.8c1.5,0,2.7,0.4,3.6,1.1c0.9,0.7,1.5,1.8,1.8,3.1l-2.2,0.3c-0.2-0.9-0.6-1.6-1.1-2
				c-0.5-0.5-1.2-0.7-1.9-0.7c-1.1,0-2.1,0.4-2.8,1.2c-0.7,0.8-1.1,2.1-1.1,3.9c0,1.8,0.3,3.1,1,3.9c0.7,0.8,1.6,1.2,2.7,1.2
				c0.9,0,1.6-0.3,2.2-0.8C87.4,1781,87.8,1780.1,88,1779L88,1779z M92.2,1783.9v-18.6h2.3v10.6l5.4-5.5h2.9l-5.1,5l5.7,8.5h-2.8
				l-4.5-6.9l-1.6,1.5v5.3H92.2L92.2,1783.9z M117.1,1773h-12.2v-2.1h12.2V1773L117.1,1773z M117.1,1778.6h-12.2v-2.1h12.2V1778.6
				L117.1,1778.6z M141,1777.4l2.5,0.6c-0.5,2-1.4,3.6-2.8,4.6c-1.3,1.1-3,1.6-4.9,1.6c-2,0-3.6-0.4-4.9-1.2c-1.3-0.8-2.2-2-2.9-3.5
				c-0.7-1.5-1-3.2-1-5c0-1.9,0.4-3.6,1.1-5.1c0.7-1.4,1.8-2.5,3.1-3.3c1.4-0.7,2.9-1.1,4.5-1.1c1.9,0,3.4,0.5,4.7,1.4
				c1.3,0.9,2.1,2.3,2.6,4l-2.4,0.6c-0.4-1.3-1.1-2.3-1.9-2.9c-0.8-0.6-1.8-0.9-3.1-0.9c-1.4,0-2.6,0.3-3.6,1c-1,0.7-1.6,1.6-2,2.8
				c-0.4,1.2-0.6,2.3-0.6,3.6c0,1.6,0.2,3,0.7,4.1c0.5,1.2,1.2,2.1,2.1,2.6c1,0.6,2,0.9,3.1,0.9c1.4,0,2.5-0.4,3.5-1.2
				C140,1780.2,140.6,1779,141,1777.4L141,1777.4z M155,1783.9v-2c-1,1.5-2.5,2.3-4.3,2.3c-0.8,0-1.5-0.2-2.2-0.5
				c-0.7-0.3-1.2-0.7-1.5-1.1c-0.3-0.5-0.6-1-0.7-1.7c-0.1-0.4-0.1-1.2-0.1-2.1v-8.3h2.3v7.4c0,1.2,0,2,0.1,2.4
				c0.1,0.6,0.4,1.1,0.9,1.4c0.5,0.3,1,0.5,1.7,0.5c0.7,0,1.3-0.2,1.9-0.5c0.6-0.3,1-0.8,1.3-1.4c0.2-0.6,0.4-1.5,0.4-2.6v-7.2h2.3
				v13.5H155L155,1783.9z M165.5,1781.9l0.3,2c-0.6,0.1-1.2,0.2-1.7,0.2c-0.8,0-1.5-0.1-1.9-0.4c-0.5-0.3-0.8-0.6-1-1
				c-0.2-0.4-0.3-1.3-0.3-2.7v-7.7h-1.7v-1.8h1.7v-3.3l2.3-1.4v4.7h2.3v1.8h-2.3v7.9c0,0.7,0,1.1,0.1,1.3c0.1,0.2,0.2,0.3,0.4,0.4
				c0.2,0.1,0.4,0.2,0.8,0.2C164.8,1782,165.1,1782,165.5,1781.9L165.5,1781.9z M47.3,1812.9v-7.9l-7.2-10.7h3l3.7,5.6
				c0.7,1,1.3,2.1,1.9,3.1c0.6-1,1.3-2.1,2.1-3.3l3.6-5.5h2.9l-7.4,10.7v7.9H47.3L47.3,1812.9z M65.8,1808.5c-0.3,1-0.8,1.7-1.4,2.1
				c-0.6,0.4-1.3,0.7-2.1,0.7c-1.1,0-2.1-0.4-2.8-1.2c-0.8-0.8-1.2-1.9-1.3-3.4h10c0-0.3,0-0.5,0-0.6c0-2.2-0.6-3.9-1.7-5.2
				c-1.1-1.2-2.6-1.8-4.4-1.8c-1.9,0-3.4,0.6-4.5,1.9c-1.2,1.2-1.7,3-1.7,5.3c0,2.2,0.6,3.9,1.7,5.1c1.1,1.2,2.7,1.8,4.7,1.8
				c1.6,0,2.8-0.4,3.8-1.1c1-0.8,1.7-1.8,2.1-3.2L65.8,1808.5L65.8,1808.5z M58.4,1804.9c0.1-1.2,0.5-2.1,1.2-2.8
				c0.7-0.7,1.6-1,2.6-1c1.2,0,2.1,0.4,2.8,1.3c0.5,0.6,0.8,1.4,0.9,2.5H58.4L58.4,1804.9z M71,1812.9v-18.6h2.3v18.6H71L71,1812.9z
				 M76.8,1812.9v-18.6h2.3v18.6H76.8L76.8,1812.9z M81.7,1806.2c0-2.5,0.7-4.3,2.1-5.5c1.2-1,2.6-1.5,4.2-1.5
				c1.8,0,3.4,0.6,4.5,1.8c1.2,1.2,1.8,2.9,1.8,5c0,1.7-0.3,3.1-0.8,4.1c-0.5,1-1.3,1.8-2.3,2.3c-1,0.5-2.1,0.8-3.2,0.8
				c-1.9,0-3.4-0.6-4.6-1.8C82.3,1810.2,81.7,1808.4,81.7,1806.2L81.7,1806.2z M84.1,1806.2c0,1.7,0.4,3,1.1,3.9
				c0.8,0.9,1.7,1.3,2.8,1.3c1.1,0,2.1-0.4,2.8-1.3c0.8-0.9,1.1-2.2,1.1-3.9c0-1.7-0.4-2.9-1.1-3.8c-0.8-0.9-1.7-1.3-2.8-1.3
				c-1.1,0-2.1,0.4-2.8,1.3C84.4,1803.2,84.1,1804.5,84.1,1806.2L84.1,1806.2z M99.4,1812.9l-4.1-13.5h2.4l2.1,7.8l0.8,2.9
				c0-0.1,0.3-1.1,0.7-2.8l2.1-7.9h2.3l2,7.8l0.7,2.6l0.8-2.6l2.3-7.8h2.2l-4.2,13.5h-2.4l-2.1-8l-0.5-2.3l-2.7,10.3H99.4
				L99.4,1812.9z M127.7,1802h-12.2v-2.1h12.2V1802L127.7,1802z M127.7,1807.6h-12.2v-2.1h12.2V1807.6z"/>
			<path class="st1" d="M136.5,1807.5l2-0.2c0.1,0.8,0.3,1.5,0.7,2c0.4,0.5,0.9,0.9,1.6,1.3c0.7,0.3,1.6,0.5,2.5,0.5
				c0.8,0,1.5-0.1,2.2-0.4c0.6-0.2,1.1-0.6,1.4-1c0.3-0.4,0.5-0.9,0.5-1.4c0-0.5-0.1-0.9-0.4-1.3c-0.3-0.4-0.8-0.7-1.5-1
				c-0.4-0.2-1.4-0.4-2.9-0.8c-1.5-0.4-2.5-0.7-3.1-1c-0.8-0.4-1.3-0.9-1.7-1.5c-0.4-0.6-0.6-1.3-0.6-2c0-0.8,0.2-1.6,0.7-2.3
				c0.5-0.7,1.1-1.2,2-1.6c0.9-0.4,1.9-0.6,3-0.6c1.2,0,2.3,0.2,3.2,0.6c0.9,0.4,1.6,1,2.1,1.7c0.5,0.7,0.8,1.6,0.8,2.5l-2.1,0.2
				c-0.1-1-0.5-1.8-1.1-2.3c-0.6-0.5-1.6-0.8-2.8-0.8c-1.3,0-2.2,0.2-2.8,0.7c-0.6,0.5-0.9,1-0.9,1.7c0,0.6,0.2,1.1,0.6,1.4
				c0.4,0.4,1.5,0.8,3.2,1.2c1.7,0.4,2.9,0.7,3.6,1c0.9,0.4,1.6,1,2.1,1.6c0.4,0.7,0.7,1.4,0.7,2.3c0,0.9-0.2,1.7-0.7,2.4
				c-0.5,0.8-1.2,1.4-2.1,1.8c-0.9,0.4-2,0.6-3.1,0.6c-1.5,0-2.7-0.2-3.7-0.6c-1-0.4-1.8-1.1-2.3-1.9
				C136.8,1809.6,136.5,1808.6,136.5,1807.5L136.5,1807.5z M163.8,1807l2.1,0.5c-0.4,1.8-1.3,3.1-2.4,4c-1.2,0.9-2.6,1.4-4.3,1.4
				c-1.7,0-3.2-0.4-4.2-1.1c-1.1-0.7-1.9-1.7-2.5-3.1c-0.6-1.3-0.9-2.8-0.9-4.3c0-1.7,0.3-3.2,1-4.4c0.6-1.3,1.6-2.2,2.7-2.9
				c1.2-0.7,2.5-1,3.9-1c1.6,0,3,0.4,4.1,1.2c1.1,0.8,1.9,2,2.3,3.5l-2.1,0.5c-0.4-1.2-0.9-2-1.6-2.6c-0.7-0.5-1.6-0.8-2.7-0.8
				c-1.2,0-2.3,0.3-3.1,0.9c-0.8,0.6-1.4,1.4-1.8,2.4c-0.3,1-0.5,2-0.5,3.1c0,1.4,0.2,2.6,0.6,3.6c0.4,1,1,1.8,1.9,2.3
				c0.8,0.5,1.8,0.8,2.7,0.8c1.2,0,2.2-0.3,3-1C162.9,1809.4,163.5,1808.4,163.8,1807L163.8,1807z M167.9,1804.8
				c0-2.7,0.7-4.8,2.2-6.3c1.4-1.5,3.3-2.3,5.6-2.3c1.5,0,2.8,0.4,4,1.1c1.2,0.7,2.1,1.7,2.7,3c0.6,1.3,0.9,2.7,0.9,4.3
				c0,1.6-0.3,3.1-1,4.4c-0.7,1.3-1.6,2.3-2.8,2.9c-1.2,0.7-2.5,1-3.9,1c-1.5,0-2.9-0.4-4.1-1.1c-1.2-0.7-2.1-1.7-2.7-3
				C168.2,1807.6,167.9,1806.3,167.9,1804.8L167.9,1804.8z M170.1,1804.9c0,1.9,0.5,3.5,1.6,4.6c1,1.1,2.4,1.7,3.9,1.7
				c1.6,0,2.9-0.6,4-1.7c1-1.1,1.6-2.7,1.6-4.8c0-1.3-0.2-2.5-0.7-3.4c-0.4-1-1.1-1.7-1.9-2.3c-0.9-0.5-1.8-0.8-2.9-0.8
				c-1.5,0-2.8,0.5-3.9,1.6C170.7,1800.7,170.1,1802.5,170.1,1804.9L170.1,1804.9z M186.2,1812.7v-16.2h7.2c1.4,0,2.5,0.1,3.3,0.4
				s1.3,0.8,1.8,1.5c0.4,0.7,0.7,1.5,0.7,2.4c0,1.1-0.4,2.1-1.1,2.9c-0.7,0.8-1.9,1.3-3.4,1.5c0.6,0.3,1,0.5,1.3,0.8
				c0.6,0.6,1.2,1.3,1.8,2.2l2.8,4.4h-2.7l-2.1-3.4c-0.6-1-1.1-1.7-1.5-2.2c-0.4-0.5-0.8-0.9-1.1-1.1c-0.3-0.2-0.6-0.3-1-0.4
				c-0.2,0-0.6-0.1-1.2-0.1h-2.5v7.2H186.2L186.2,1812.7z M188.3,1803.7h4.6c1,0,1.7-0.1,2.3-0.3c0.5-0.2,1-0.5,1.2-1
				c0.3-0.4,0.4-0.9,0.4-1.4c0-0.8-0.3-1.4-0.8-1.9c-0.6-0.5-1.4-0.7-2.6-0.7h-5.1V1803.7L188.3,1803.7z M202.5,1812.7v-16.2h11.7
				v1.9h-9.5v5h8.9v1.9h-8.9v5.5h9.9v1.9H202.5z"/>
			<path class="st1" d="M228.1,1812.7v-16.7h2.2v6.9h8.6v-6.9h2.2v16.7h-2.2v-7.8h-8.6v7.8H228.1L228.1,1812.7z M252.4,1811.2
				c-0.8,0.6-1.5,1.1-2.2,1.4c-0.7,0.3-1.5,0.4-2.3,0.4c-1.3,0-2.3-0.3-3.1-1c-0.7-0.6-1.1-1.5-1.1-2.5c0-0.6,0.1-1.1,0.4-1.6
				c0.3-0.5,0.6-0.9,1.1-1.2c0.4-0.3,0.9-0.5,1.5-0.7c0.4-0.1,1-0.2,1.8-0.3c1.7-0.2,2.9-0.4,3.7-0.7c0-0.3,0-0.5,0-0.5
				c0-0.8-0.2-1.4-0.6-1.8c-0.5-0.5-1.3-0.7-2.3-0.7c-1,0-1.7,0.2-2.1,0.5c-0.5,0.3-0.8,0.9-1,1.8l-2-0.3c0.2-0.9,0.5-1.6,0.9-2.1
				c0.4-0.5,1-0.9,1.8-1.2c0.8-0.3,1.7-0.4,2.7-0.4c1,0,1.9,0.1,2.5,0.4c0.6,0.2,1.1,0.5,1.4,0.9c0.3,0.4,0.5,0.8,0.6,1.4
				c0.1,0.3,0.1,1,0.1,1.9v2.7c0,1.9,0,3.1,0.1,3.6c0.1,0.5,0.3,1,0.5,1.5h-2.1C252.6,1812.3,252.5,1811.8,252.4,1811.2
				L252.4,1811.2z M252.3,1806.7c-0.7,0.3-1.9,0.6-3.4,0.8c-0.8,0.1-1.4,0.3-1.8,0.4c-0.3,0.2-0.6,0.4-0.8,0.7
				c-0.2,0.3-0.3,0.6-0.3,1c0,0.5,0.2,1,0.6,1.4c0.4,0.4,1,0.5,1.8,0.5c0.8,0,1.5-0.2,2.1-0.5c0.6-0.3,1.1-0.8,1.4-1.4
				c0.2-0.5,0.3-1.1,0.3-2L252.3,1806.7L252.3,1806.7z M257.4,1812.7v-16.7h2v16.7H257.4L257.4,1812.7z M263.1,1812.7v-10.5h-1.8
				v-1.6h1.8v-1.3c0-0.8,0.1-1.4,0.2-1.8c0.2-0.5,0.5-1,1-1.3c0.5-0.3,1.2-0.5,2.1-0.5c0.6,0,1.2,0.1,1.9,0.2l-0.3,1.8
				c-0.4-0.1-0.8-0.1-1.2-0.1c-0.6,0-1.1,0.1-1.3,0.4c-0.3,0.3-0.4,0.8-0.4,1.5v1.1h2.4v1.6h-2.3v10.5H263.1L263.1,1812.7z
				 M287.7,1806.9l2.2,0.6c-0.5,1.8-1.3,3.2-2.5,4.1c-1.2,1-2.7,1.4-4.4,1.4c-1.8,0-3.3-0.4-4.4-1.1c-1.1-0.7-2-1.8-2.6-3.2
				c-0.6-1.4-0.9-2.9-0.9-4.5c0-1.7,0.3-3.2,1-4.5c0.7-1.3,1.6-2.3,2.8-2.9c1.2-0.7,2.6-1,4-1c1.7,0,3.1,0.4,4.2,1.3
				c1.1,0.8,1.9,2,2.4,3.6l-2.2,0.5c-0.4-1.2-0.9-2.1-1.7-2.6c-0.7-0.6-1.7-0.8-2.8-0.8c-1.3,0-2.3,0.3-3.2,0.9
				c-0.9,0.6-1.5,1.4-1.8,2.5c-0.3,1-0.5,2.1-0.5,3.2c0,1.4,0.2,2.7,0.6,3.7c0.4,1.1,1.1,1.8,1.9,2.4c0.9,0.5,1.8,0.8,2.8,0.8
				c1.2,0,2.3-0.4,3.1-1.1C286.8,1809.4,287.4,1808.3,287.7,1806.9L287.7,1806.9z M300.3,1812.7v-1.8c-0.9,1.4-2.2,2.1-3.8,2.1
				c-0.7,0-1.4-0.1-2-0.4c-0.6-0.3-1.1-0.6-1.4-1c-0.3-0.4-0.5-0.9-0.6-1.5c-0.1-0.4-0.1-1-0.1-1.9v-7.5h2v6.7c0,1.1,0,1.8,0.1,2.2
				c0.1,0.5,0.4,1,0.8,1.3c0.4,0.3,0.9,0.5,1.5,0.5c0.6,0,1.2-0.2,1.7-0.5c0.5-0.3,0.9-0.7,1.1-1.3c0.2-0.5,0.3-1.3,0.3-2.4v-6.5h2
				v12.1H300.3L300.3,1812.7z M309.8,1810.9l0.3,1.8c-0.6,0.1-1.1,0.2-1.5,0.2c-0.7,0-1.3-0.1-1.7-0.4c-0.4-0.2-0.7-0.5-0.9-0.9
				c-0.2-0.4-0.2-1.2-0.2-2.4v-7h-1.5v-1.6h1.5v-3l2-1.2v4.2h2v1.6h-2v7.1c0,0.6,0,1,0.1,1.1c0.1,0.2,0.2,0.3,0.3,0.4
				c0.2,0.1,0.4,0.1,0.7,0.1C309.1,1811,309.4,1811,309.8,1810.9z"/>
			
				<rect x="210.5" y="1803.7" transform="matrix(0.2564 -0.9666 0.9666 0.2564 -1579.295 1556.0166)" class="st1" width="22.4" height="1.4"/>
		</g>
		<path class="st2" d="M35.5,946.5h883.8c18,0,32.7,14.7,32.7,32.7v831.3c0,18-14.7,32.7-32.7,32.7H35.5c-18,0-32.7-14.7-32.7-32.7
			V979.2C2.8,961.2,17.6,946.5,35.5,946.5z"/>
		<g>
			<path class="st7" d="M766.8,1650.9h-5.3v-33.6c-1.3,1.2-2.9,2.4-5,3.6c-2.1,1.2-3.9,2.1-5.6,2.7v-5.1c2.9-1.4,5.5-3.1,7.7-5
				c2.2-2,3.8-3.9,4.7-5.7h3.4V1650.9L766.8,1650.9z M777.8,1651.6l12.5-44.3h4.2l-12.5,44.3H777.8L777.8,1651.6z M805.1,1627.6
				c-2.2-0.8-3.8-1.9-4.9-3.4c-1-1.5-1.6-3.3-1.6-5.3c0-3.1,1.1-5.7,3.4-7.9c2.2-2.1,5.2-3.2,8.9-3.2c3.7,0,6.7,1.1,9,3.3
				c2.3,2.2,3.4,4.8,3.4,7.9c0,2-0.5,3.7-1.6,5.2c-1,1.5-2.6,2.6-4.7,3.4c2.6,0.9,4.6,2.2,6,4.2c1.4,1.9,2.1,4.2,2.1,6.8
				c0,3.7-1.3,6.7-3.9,9.2c-2.6,2.5-6,3.7-10.2,3.7c-4.2,0-7.6-1.2-10.2-3.8c-2.6-2.5-3.9-5.6-3.9-9.4c0-2.8,0.7-5.1,2.1-7
				C800.5,1629.6,802.5,1628.3,805.1,1627.6L805.1,1627.6z M804,1618.7c0,2,0.6,3.7,1.9,5c1.3,1.3,3,1.9,5.1,1.9c2,0,3.7-0.6,5-1.9
				c1.3-1.3,1.9-2.8,1.9-4.7c0-1.9-0.7-3.6-2-4.9c-1.3-1.3-3-2-5-2c-2,0-3.7,0.6-5,1.9C804.7,1615.4,804,1616.9,804,1618.7
				L804,1618.7z M802.3,1638.5c0,1.5,0.3,3,1,4.4c0.7,1.4,1.8,2.5,3.2,3.3c1.4,0.8,2.9,1.2,4.5,1.2c2.5,0,4.6-0.8,6.2-2.4
				c1.6-1.6,2.4-3.7,2.4-6.2c0-2.5-0.8-4.6-2.5-6.3c-1.7-1.7-3.8-2.5-6.3-2.5c-2.5,0-4.5,0.8-6.2,2.5
				C803.1,1634,802.3,1636.1,802.3,1638.5L802.3,1638.5z M831.7,1614v-6h5.3v6H831.7L831.7,1614z M831.7,1650.9v-31.1h5.3v31.1
				H831.7L831.7,1650.9z M845,1650.9v-31.1h4.7v4.4c2.3-3.4,5.6-5.1,9.9-5.1c1.9,0,3.6,0.3,5.2,1c1.6,0.7,2.7,1.6,3.5,2.6
				c0.8,1.1,1.3,2.4,1.6,3.9c0.2,1,0.3,2.7,0.3,5.1v19.1H865V1632c0-2.1-0.2-3.8-0.6-4.8c-0.4-1.1-1.1-1.9-2.2-2.5
				c-1-0.6-2.3-0.9-3.7-0.9c-2.2,0-4.2,0.7-5.8,2.1c-1.6,1.4-2.4,4.1-2.4,8.1v17H845L845,1650.9z M898.6,1639.5l5.2,0.7
				c-0.6,3.5-2,6.3-4.3,8.3c-2.3,2-5.2,3-8.6,3c-4.2,0-7.7-1.4-10.2-4.2c-2.6-2.8-3.9-6.7-3.9-11.9c0-3.4,0.6-6.3,1.7-8.8
				c1.1-2.5,2.8-4.4,5.1-5.6c2.3-1.3,4.7-1.9,7.4-1.9c3.4,0,6.1,0.8,8.3,2.6c2.1,1.7,3.5,4.1,4.1,7.3l-5.1,0.8
				c-0.5-2.1-1.3-3.7-2.6-4.7c-1.2-1-2.7-1.6-4.5-1.6c-2.7,0-4.8,0.9-6.5,2.8c-1.7,1.9-2.5,4.9-2.5,9c0,4.2,0.8,7.2,2.4,9.1
				c1.6,1.9,3.7,2.8,6.3,2.8c2.1,0,3.8-0.6,5.2-1.9C897.4,1644.1,898.3,1642.1,898.6,1639.5L898.6,1639.5z M908.3,1650.9V1608h5.3
				v15.4c2.4-2.9,5.5-4.3,9.3-4.3c2.3,0,4.3,0.4,6,1.4c1.7,0.9,2.9,2.2,3.6,3.8c0.7,1.6,1.1,3.9,1.1,7v19.7h-5.3v-19.7
				c0-2.6-0.6-4.5-1.7-5.7c-1.1-1.2-2.7-1.8-4.8-1.8c-1.5,0-3,0.4-4.4,1.2c-1.4,0.8-2.3,1.9-2.9,3.3c-0.6,1.4-0.9,3.3-0.9,5.7v17
				H908.3z"/>
			<rect x="786" y="1694" class="st3" width="85" height="85"/>
			<path class="st4" d="M812.4,1729.3l2.3-0.2c0.1,0.8,0.4,1.4,0.8,1.7c0.4,0.4,1,0.5,1.7,0.5c0.8,0,1.3-0.2,1.7-0.5
				c0.4-0.3,0.6-0.7,0.6-1.1c0-0.3-0.1-0.5-0.2-0.7c-0.2-0.2-0.4-0.4-0.9-0.5c-0.3-0.1-0.9-0.3-1.9-0.5c-1.3-0.3-2.2-0.7-2.7-1.2
				c-0.7-0.7-1.1-1.5-1.1-2.4c0-0.6,0.2-1.2,0.5-1.7c0.3-0.5,0.8-0.9,1.5-1.2c0.6-0.3,1.4-0.4,2.3-0.4c1.5,0,2.6,0.3,3.3,1
				c0.7,0.7,1.1,1.5,1.2,2.6l-2.4,0.1c-0.1-0.6-0.3-1.1-0.7-1.3c-0.3-0.3-0.8-0.4-1.5-0.4c-0.7,0-1.2,0.1-1.6,0.4
				c-0.3,0.2-0.4,0.4-0.4,0.7c0,0.3,0.1,0.5,0.4,0.7c0.3,0.3,1,0.5,2.2,0.8c1.2,0.3,2,0.6,2.6,0.9c0.6,0.3,1,0.7,1.3,1.2
				c0.3,0.5,0.5,1.1,0.5,1.9c0,0.7-0.2,1.3-0.6,1.9c-0.4,0.6-0.9,1-1.6,1.3c-0.7,0.3-1.5,0.4-2.6,0.4c-1.5,0-2.6-0.3-3.4-1
				C813,1731.6,812.5,1730.6,812.4,1729.3L812.4,1729.3z M824,1723.4v-2.1h2.3v2.1H824L824,1723.4z M824,1733.2v-8.6h2.3v8.6H824
				L824,1733.2z M827.7,1733.2v-1.8l3.2-3.7c0.5-0.6,0.9-1,1.2-1.3c-0.3,0-0.6,0-1,0l-3,0v-1.9h7.1v1.6l-3.3,3.8l-1.2,1.3
				c0.6,0,1,0,1.2,0h3.5v2H827.7L827.7,1733.2z M841.8,1730.4l2.3,0.4c-0.3,0.8-0.8,1.5-1.4,1.9c-0.6,0.4-1.4,0.7-2.4,0.7
				c-1.5,0-2.6-0.5-3.3-1.5c-0.6-0.8-0.8-1.8-0.8-3c0-1.4,0.4-2.5,1.1-3.3c0.7-0.8,1.7-1.2,2.8-1.2c1.3,0,2.3,0.4,3,1.3
				c0.7,0.8,1.1,2.1,1.1,3.9h-5.7c0,0.7,0.2,1.2,0.5,1.6c0.3,0.4,0.8,0.6,1.3,0.6c0.4,0,0.7-0.1,0.9-0.3
				C841.5,1731.2,841.7,1730.9,841.8,1730.4L841.8,1730.4z M842,1728.1c0-0.7-0.2-1.2-0.5-1.5c-0.3-0.3-0.7-0.5-1.2-0.5
				c-0.5,0-0.9,0.2-1.2,0.5c-0.3,0.4-0.5,0.9-0.5,1.5H842L842,1728.1z M794.4,1751.6h-2.3v-8.6h2.1v1.2c0.4-0.6,0.7-1,1-1.1
				c0.3-0.2,0.6-0.3,1-0.3c0.5,0,1,0.1,1.5,0.4l-0.7,2c-0.4-0.2-0.7-0.4-1.1-0.4c-0.3,0-0.6,0.1-0.8,0.3c-0.2,0.2-0.4,0.5-0.5,0.9
				c-0.1,0.5-0.2,1.4-0.2,2.9V1751.6L794.4,1751.6z M803.7,1748.9l2.3,0.4c-0.3,0.8-0.8,1.5-1.4,1.9c-0.6,0.4-1.4,0.7-2.4,0.7
				c-1.5,0-2.6-0.5-3.3-1.5c-0.6-0.8-0.8-1.8-0.8-3c0-1.4,0.4-2.5,1.1-3.3c0.7-0.8,1.7-1.2,2.8-1.2c1.3,0,2.3,0.4,3,1.3
				c0.7,0.8,1.1,2.1,1.1,3.9h-5.7c0,0.7,0.2,1.2,0.5,1.6c0.3,0.4,0.8,0.6,1.3,0.6c0.4,0,0.7-0.1,0.9-0.3
				C803.4,1749.7,803.5,1749.4,803.7,1748.9L803.7,1748.9z M803.8,1746.6c0-0.7-0.2-1.2-0.5-1.5c-0.3-0.3-0.7-0.5-1.2-0.5
				c-0.5,0-0.9,0.2-1.2,0.5c-0.3,0.4-0.5,0.9-0.5,1.5H803.8L803.8,1746.6z M806.9,1743.1h1.3v-0.6c0-0.7,0.1-1.3,0.2-1.6
				c0.2-0.4,0.4-0.6,0.9-0.9c0.4-0.2,0.9-0.3,1.6-0.3c0.6,0,1.3,0.1,1.9,0.3l-0.3,1.6c-0.4-0.1-0.7-0.1-1.1-0.1
				c-0.3,0-0.6,0.1-0.7,0.2c-0.1,0.2-0.2,0.5-0.2,0.9v0.6h1.7v1.8h-1.7v6.8h-2.3v-6.8h-1.3V1743.1L806.9,1743.1z M818.4,1748.9
				l2.3,0.4c-0.3,0.8-0.8,1.5-1.4,1.9c-0.6,0.4-1.4,0.7-2.4,0.7c-1.5,0-2.6-0.5-3.3-1.5c-0.6-0.8-0.8-1.8-0.8-3
				c0-1.4,0.4-2.5,1.1-3.3c0.7-0.8,1.7-1.2,2.8-1.2c1.3,0,2.3,0.4,3,1.3c0.7,0.8,1.1,2.1,1.1,3.9h-5.7c0,0.7,0.2,1.2,0.5,1.6
				c0.3,0.4,0.8,0.6,1.3,0.6c0.4,0,0.7-0.1,0.9-0.3C818.1,1749.7,818.3,1749.4,818.4,1748.9L818.4,1748.9z M818.5,1746.6
				c0-0.7-0.2-1.2-0.5-1.5c-0.3-0.3-0.7-0.5-1.2-0.5c-0.5,0-0.9,0.2-1.2,0.5c-0.3,0.4-0.5,0.9-0.5,1.5H818.5L818.5,1746.6z
				 M824.8,1751.6h-2.3v-8.6h2.1v1.2c0.4-0.6,0.7-1,1-1.1c0.3-0.2,0.6-0.3,1-0.3c0.5,0,1,0.1,1.5,0.4l-0.7,2
				c-0.4-0.2-0.7-0.4-1.1-0.4c-0.3,0-0.6,0.1-0.8,0.3c-0.2,0.2-0.4,0.5-0.5,0.9c-0.1,0.5-0.2,1.4-0.2,2.9V1751.6L824.8,1751.6z
				 M834,1748.9l2.3,0.4c-0.3,0.8-0.7,1.5-1.4,1.9c-0.6,0.4-1.4,0.7-2.4,0.7c-1.5,0-2.6-0.5-3.3-1.5c-0.6-0.8-0.8-1.8-0.8-3
				c0-1.4,0.4-2.5,1.1-3.3c0.7-0.8,1.7-1.2,2.8-1.2c1.3,0,2.3,0.4,3,1.3c0.7,0.8,1.1,2.1,1.1,3.9h-5.7c0,0.7,0.2,1.2,0.5,1.6
				c0.3,0.4,0.8,0.6,1.3,0.6c0.4,0,0.7-0.1,0.9-0.3C833.7,1749.7,833.9,1749.4,834,1748.9L834,1748.9z M834.1,1746.6
				c0-0.7-0.2-1.2-0.5-1.5c-0.3-0.3-0.7-0.5-1.2-0.5c-0.5,0-0.9,0.2-1.2,0.5c-0.3,0.4-0.5,0.9-0.5,1.5H834.1L834.1,1746.6z
				 M846.1,1751.6h-2.3v-4.4c0-0.9,0-1.5-0.1-1.8c-0.1-0.3-0.3-0.5-0.5-0.6c-0.2-0.2-0.5-0.2-0.8-0.2c-0.4,0-0.8,0.1-1.1,0.3
				c-0.3,0.2-0.5,0.5-0.6,0.9c-0.1,0.4-0.2,1-0.2,2v3.9h-2.3v-8.6h2.1v1.3c0.8-1,1.7-1.4,2.8-1.4c0.5,0,1,0.1,1.4,0.3
				c0.4,0.2,0.7,0.4,0.9,0.7c0.2,0.3,0.4,0.6,0.4,1c0.1,0.4,0.1,0.9,0.1,1.5V1751.6L846.1,1751.6z M855.8,1745.6l-2.2,0.4
				c-0.1-0.4-0.2-0.8-0.5-1c-0.3-0.2-0.6-0.3-1-0.3c-0.6,0-1,0.2-1.4,0.6c-0.3,0.4-0.5,1-0.5,2c0,1,0.2,1.7,0.5,2.2
				c0.3,0.4,0.8,0.6,1.4,0.6c0.4,0,0.8-0.1,1.1-0.4c0.3-0.2,0.5-0.7,0.6-1.3l2.2,0.4c-0.2,1-0.7,1.8-1.3,2.3s-1.5,0.8-2.6,0.8
				c-1.3,0-2.3-0.4-3-1.2c-0.7-0.8-1.1-1.9-1.1-3.3c0-1.4,0.4-2.5,1.1-3.3c0.7-0.8,1.8-1.2,3-1.2c1,0,1.9,0.2,2.5,0.7
				C855.1,1744,855.6,1744.7,855.8,1745.6L855.8,1745.6z M862.5,1748.9l2.3,0.4c-0.3,0.8-0.7,1.5-1.4,1.9c-0.6,0.4-1.4,0.7-2.4,0.7
				c-1.5,0-2.6-0.5-3.3-1.5c-0.6-0.8-0.8-1.8-0.8-3c0-1.4,0.4-2.5,1.1-3.3c0.7-0.8,1.7-1.2,2.8-1.2c1.3,0,2.3,0.4,3,1.3
				c0.7,0.8,1.1,2.1,1.1,3.9h-5.7c0,0.7,0.2,1.2,0.5,1.6c0.3,0.4,0.8,0.6,1.3,0.6c0.4,0,0.7-0.1,0.9-0.3
				C862.2,1749.7,862.4,1749.4,862.5,1748.9L862.5,1748.9z M862.7,1746.6c0-0.7-0.2-1.2-0.5-1.5c-0.3-0.3-0.7-0.5-1.2-0.5
				c-0.5,0-0.9,0.2-1.2,0.5c-0.3,0.4-0.5,0.9-0.5,1.5H862.7z"/>
			<line class="st5" x1="878.1" y1="1779" x2="927.4" y2="1779"/>
			<line class="st5" x1="878.1" y1="1694" x2="927.4" y2="1694"/>
			<line class="st5" x1="920.3" y1="1752" x2="920.3" y2="1779"/>
			<line class="st5" x1="920.3" y1="1694" x2="920.3" y2="1719.9"/>
			<path class="st6" d="M922.4,1748.3l-0.1-1.1c0.6-0.1,1-0.3,1.3-0.6c0.3-0.3,0.4-0.6,0.4-1.1c0-0.5-0.2-0.9-0.5-1.3
				c-0.3-0.3-0.8-0.5-1.3-0.5c-0.5,0-0.9,0.2-1.2,0.5c-0.3,0.3-0.5,0.7-0.5,1.2c0,0.2,0,0.4,0.1,0.7l-0.9-0.1c0-0.1,0-0.1,0-0.2
				c0-0.5-0.1-0.9-0.4-1.2c-0.2-0.4-0.6-0.5-1.1-0.5c-0.4,0-0.7,0.1-1,0.4c-0.3,0.3-0.4,0.6-0.4,1c0,0.4,0.1,0.8,0.4,1
				c0.3,0.3,0.7,0.5,1.2,0.5l-0.2,1.1c-0.7-0.1-1.3-0.4-1.6-0.9c-0.4-0.5-0.6-1-0.6-1.7c0-0.5,0.1-0.9,0.3-1.3
				c0.2-0.4,0.5-0.7,0.8-0.9c0.3-0.2,0.7-0.3,1.1-0.3c0.4,0,0.7,0.1,1,0.3c0.3,0.2,0.5,0.5,0.7,0.9c0.1-0.5,0.4-0.9,0.7-1.2
				c0.4-0.3,0.8-0.4,1.4-0.4c0.8,0,1.4,0.3,1.9,0.8c0.5,0.5,0.8,1.2,0.8,2.1c0,0.8-0.2,1.4-0.7,1.9
				C923.7,1748,923.1,1748.3,922.4,1748.3L922.4,1748.3z M922.4,1734l0.1-1c0.7,0.1,1.3,0.4,1.7,0.9c0.4,0.5,0.6,1,0.6,1.7
				c0,0.9-0.3,1.5-0.8,2.1c-0.6,0.5-1.4,0.8-2.4,0.8c-0.7,0-1.3-0.1-1.8-0.3c-0.5-0.2-0.9-0.6-1.1-1c-0.3-0.5-0.4-0.9-0.4-1.5
				c0-0.7,0.2-1.2,0.5-1.7c0.3-0.4,0.8-0.7,1.5-0.8l0.2,1c-0.4,0.1-0.7,0.3-0.9,0.5c-0.2,0.2-0.3,0.5-0.3,0.9c0,0.5,0.2,1,0.6,1.3
				c0.4,0.3,1,0.5,1.8,0.5c0.8,0,1.4-0.2,1.8-0.5c0.4-0.3,0.6-0.7,0.6-1.3c0-0.4-0.1-0.8-0.4-1
				C923.3,1734.2,922.9,1734.1,922.4,1734L922.4,1734z M924.7,1732h-6.2v-0.9h0.9c-0.3-0.2-0.6-0.5-0.7-0.8
				c-0.2-0.3-0.3-0.7-0.3-1.1c0-0.5,0.1-0.8,0.3-1.1c0.2-0.3,0.5-0.5,0.8-0.6c-0.7-0.5-1.1-1.1-1.1-1.9c0-0.6,0.2-1.1,0.5-1.4
				c0.3-0.3,0.9-0.5,1.6-0.5h4.3v1.1h-3.9c-0.4,0-0.7,0-0.9,0.1c-0.2,0.1-0.3,0.2-0.4,0.4c-0.1,0.2-0.2,0.4-0.2,0.6
				c0,0.4,0.1,0.8,0.4,1.1c0.3,0.3,0.8,0.4,1.4,0.4h3.6v1.1h-4c-0.5,0-0.8,0.1-1.1,0.3c-0.2,0.2-0.4,0.5-0.4,0.8
				c0,0.3,0.1,0.6,0.2,0.8c0.2,0.3,0.4,0.4,0.7,0.5c0.3,0.1,0.7,0.2,1.3,0.2h3.2V1732z"/>
			<line class="st5" x1="786" y1="1786.1" x2="786" y2="1825.8"/>
			<line class="st5" x1="871.1" y1="1786.1" x2="871.1" y2="1825.8"/>
			<line class="st5" x1="813" y1="1818.7" x2="786" y2="1818.7"/>
			<line class="st5" x1="871.1" y1="1818.7" x2="845.1" y2="1818.7"/>
			<path class="st6" d="M816.7,1820.7l1.1-0.1c0.1,0.6,0.3,1,0.6,1.3c0.3,0.3,0.6,0.4,1.1,0.4c0.5,0,0.9-0.2,1.3-0.5
				c0.3-0.3,0.5-0.8,0.5-1.3c0-0.5-0.2-0.9-0.5-1.2c-0.3-0.3-0.7-0.5-1.2-0.5c-0.2,0-0.4,0-0.7,0.1l0.1-0.9c0.1,0,0.1,0,0.2,0
				c0.5,0,0.9-0.1,1.2-0.4c0.4-0.2,0.5-0.6,0.5-1.1c0-0.4-0.1-0.7-0.4-1c-0.3-0.3-0.6-0.4-1-0.4c-0.4,0-0.8,0.1-1,0.4
				c-0.3,0.3-0.5,0.7-0.5,1.2l-1.1-0.2c0.1-0.7,0.4-1.3,0.9-1.6c0.5-0.4,1-0.6,1.7-0.6c0.5,0,0.9,0.1,1.3,0.3
				c0.4,0.2,0.7,0.5,0.9,0.8c0.2,0.3,0.3,0.7,0.3,1.1c0,0.4-0.1,0.7-0.3,1c-0.2,0.3-0.5,0.5-0.9,0.7c0.5,0.1,0.9,0.4,1.2,0.7
				c0.3,0.4,0.4,0.8,0.4,1.4c0,0.8-0.3,1.4-0.8,1.9c-0.5,0.5-1.2,0.8-2.1,0.8c-0.8,0-1.4-0.2-1.9-0.7
				C817,1822,816.7,1821.4,816.7,1820.7L816.7,1820.7z M831,1820.7l1,0.1c-0.1,0.7-0.4,1.3-0.9,1.7c-0.5,0.4-1,0.6-1.7,0.6
				c-0.9,0-1.5-0.3-2-0.8c-0.5-0.6-0.8-1.4-0.8-2.4c0-0.7,0.1-1.3,0.3-1.8c0.2-0.5,0.6-0.9,1-1.1c0.5-0.3,0.9-0.4,1.5-0.4
				c0.7,0,1.2,0.2,1.7,0.5c0.4,0.3,0.7,0.8,0.8,1.5l-1,0.2c-0.1-0.4-0.3-0.7-0.5-0.9c-0.2-0.2-0.5-0.3-0.9-0.3c-0.5,0-1,0.2-1.3,0.6
				c-0.3,0.4-0.5,1-0.5,1.8c0,0.8,0.2,1.4,0.5,1.8c0.3,0.4,0.7,0.6,1.3,0.6c0.4,0,0.8-0.1,1-0.4C830.8,1821.6,831,1821.3,831,1820.7
				L831,1820.7z M833,1823v-6.2h0.9v0.9c0.2-0.3,0.5-0.6,0.8-0.7c0.3-0.2,0.7-0.3,1.1-0.3c0.5,0,0.8,0.1,1.1,0.3
				c0.3,0.2,0.5,0.5,0.6,0.8c0.5-0.7,1.1-1.1,1.9-1.1c0.6,0,1.1,0.2,1.4,0.5c0.3,0.3,0.5,0.9,0.5,1.6v4.3h-1.1v-3.9
				c0-0.4,0-0.7-0.1-0.9c-0.1-0.2-0.2-0.3-0.4-0.4c-0.2-0.1-0.4-0.2-0.6-0.2c-0.4,0-0.8,0.1-1.1,0.4c-0.3,0.3-0.4,0.8-0.4,1.4v3.6
				h-1.1v-4c0-0.5-0.1-0.8-0.3-1.1c-0.2-0.2-0.5-0.4-0.8-0.4c-0.3,0-0.6,0.1-0.8,0.2c-0.3,0.2-0.4,0.4-0.5,0.7
				c-0.1,0.3-0.2,0.7-0.2,1.3v3.2H833z"/>
			<line class="st5" x1="871.1" y1="1786.1" x2="871.1" y2="1804.7"/>
			<line class="st5" x1="786" y1="1786.1" x2="786" y2="1804.7"/>
			<line class="st5" x1="897.5" y1="1797.6" x2="871.1" y2="1797.6"/>
			<line class="st5" x1="786" y1="1797.6" x2="759.6" y2="1797.6"/>
			<path class="st6" d="M803.2,1801.9h-1.1v-6.7c-0.3,0.2-0.6,0.5-1,0.7c-0.4,0.2-0.8,0.4-1.1,0.5v-1c0.6-0.3,1.1-0.6,1.5-1
				c0.4-0.4,0.8-0.8,0.9-1.1h0.7V1801.9L803.2,1801.9z M806.5,1801.9v-1.2h1.2v1.2H806.5L806.5,1801.9z M813.2,1801.9h-1.1v-6.7
				c-0.3,0.2-0.6,0.5-1,0.7c-0.4,0.2-0.8,0.4-1.1,0.5v-1c0.6-0.3,1.1-0.6,1.5-1c0.4-0.4,0.8-0.8,0.9-1.1h0.7V1801.9L813.2,1801.9z
				 M817.5,1797.2c-0.4-0.2-0.8-0.4-1-0.7c-0.2-0.3-0.3-0.7-0.3-1.1c0-0.6,0.2-1.2,0.7-1.6c0.4-0.4,1-0.6,1.8-0.6
				c0.7,0,1.4,0.2,1.8,0.7s0.7,1,0.7,1.6c0,0.4-0.1,0.7-0.3,1c-0.2,0.3-0.5,0.5-0.9,0.7c0.5,0.2,0.9,0.4,1.2,0.8
				c0.3,0.4,0.4,0.8,0.4,1.4c0,0.7-0.3,1.3-0.8,1.8c-0.5,0.5-1.2,0.8-2,0.8c-0.8,0-1.5-0.2-2-0.8c-0.5-0.5-0.8-1.1-0.8-1.9
				c0-0.6,0.1-1,0.4-1.4C816.6,1797.6,817,1797.4,817.5,1797.2L817.5,1797.2z M817.3,1795.4c0,0.4,0.1,0.7,0.4,1
				c0.3,0.3,0.6,0.4,1,0.4c0.4,0,0.7-0.1,1-0.4c0.3-0.3,0.4-0.6,0.4-0.9c0-0.4-0.1-0.7-0.4-1c-0.3-0.3-0.6-0.4-1-0.4
				c-0.4,0-0.7,0.1-1,0.4C817.5,1794.8,817.3,1795.1,817.3,1795.4L817.3,1795.4z M817,1799.4c0,0.3,0.1,0.6,0.2,0.9
				c0.1,0.3,0.4,0.5,0.6,0.7c0.3,0.2,0.6,0.2,0.9,0.2c0.5,0,0.9-0.2,1.3-0.5s0.5-0.7,0.5-1.2c0-0.5-0.2-0.9-0.5-1.3
				c-0.3-0.3-0.8-0.5-1.3-0.5c-0.5,0-0.9,0.2-1.2,0.5C817.1,1798.5,817,1798.9,817,1799.4L817,1799.4z M826.2,1794.5v-1.2h1.1v1.2
				H826.2L826.2,1794.5z M826.2,1801.9v-6.2h1.1v6.2H826.2L826.2,1801.9z M828.9,1801.9v-6.2h0.9v0.9c0.5-0.7,1.1-1,2-1
				c0.4,0,0.7,0.1,1,0.2c0.3,0.1,0.6,0.3,0.7,0.5c0.2,0.2,0.3,0.5,0.3,0.8c0,0.2,0.1,0.5,0.1,1v3.8h-1.1v-3.8c0-0.4,0-0.8-0.1-1
				c-0.1-0.2-0.2-0.4-0.4-0.5c-0.2-0.1-0.5-0.2-0.7-0.2c-0.4,0-0.8,0.1-1.2,0.4c-0.3,0.3-0.5,0.8-0.5,1.6v3.4H828.9L828.9,1801.9z
				 M839.6,1799.6l1,0.1c-0.1,0.7-0.4,1.3-0.9,1.7s-1,0.6-1.7,0.6c-0.9,0-1.5-0.3-2-0.8c-0.5-0.6-0.8-1.4-0.8-2.4
				c0-0.7,0.1-1.3,0.3-1.8c0.2-0.5,0.6-0.9,1-1.1c0.5-0.3,0.9-0.4,1.5-0.4c0.7,0,1.2,0.2,1.7,0.5c0.4,0.3,0.7,0.8,0.8,1.5l-1,0.2
				c-0.1-0.4-0.3-0.7-0.5-0.9c-0.2-0.2-0.5-0.3-0.9-0.3c-0.5,0-1,0.2-1.3,0.6c-0.3,0.4-0.5,1-0.5,1.8c0,0.8,0.2,1.4,0.5,1.8
				c0.3,0.4,0.7,0.6,1.3,0.6c0.4,0,0.8-0.1,1-0.4C839.4,1800.5,839.5,1800.1,839.6,1799.6L839.6,1799.6z M841.5,1801.9v-8.6h1.1v3.1
				c0.5-0.6,1.1-0.9,1.9-0.9c0.5,0,0.9,0.1,1.2,0.3c0.3,0.2,0.6,0.4,0.7,0.8c0.1,0.3,0.2,0.8,0.2,1.4v3.9h-1.1v-3.9
				c0-0.5-0.1-0.9-0.3-1.2c-0.2-0.2-0.5-0.4-1-0.4c-0.3,0-0.6,0.1-0.9,0.2c-0.3,0.2-0.5,0.4-0.6,0.7c-0.1,0.3-0.2,0.7-0.2,1.1v3.4
				H841.5L841.5,1801.9z M852.5,1799.9l1.1,0.1c-0.2,0.6-0.5,1.1-1,1.5c-0.5,0.4-1.1,0.5-1.8,0.5c-0.9,0-1.6-0.3-2.2-0.8
				c-0.5-0.6-0.8-1.3-0.8-2.4c0-1,0.3-1.9,0.8-2.4c0.5-0.6,1.2-0.9,2.1-0.9c0.8,0,1.5,0.3,2,0.8c0.5,0.6,0.8,1.4,0.8,2.4
				c0,0.1,0,0.2,0,0.3H849c0,0.7,0.2,1.2,0.6,1.6c0.3,0.4,0.8,0.5,1.3,0.5c0.4,0,0.7-0.1,1-0.3
				C852.1,1800.7,852.3,1800.3,852.5,1799.9L852.5,1799.9z M849,1798.2h3.5c0-0.5-0.2-0.9-0.4-1.2c-0.3-0.4-0.8-0.6-1.3-0.6
				c-0.5,0-0.9,0.2-1.2,0.5C849.2,1797.2,849.1,1797.6,849,1798.2L849,1798.2z M854.5,1800l1-0.2c0.1,0.4,0.2,0.7,0.5,1
				c0.3,0.2,0.6,0.3,1.1,0.3c0.5,0,0.8-0.1,1.1-0.3c0.2-0.2,0.4-0.4,0.4-0.7c0-0.2-0.1-0.4-0.3-0.6c-0.1-0.1-0.5-0.2-1.1-0.4
				c-0.8-0.2-1.3-0.4-1.6-0.5c-0.3-0.1-0.5-0.3-0.7-0.6c-0.2-0.2-0.2-0.5-0.2-0.8c0-0.3,0.1-0.5,0.2-0.8c0.1-0.2,0.3-0.4,0.5-0.6
				c0.2-0.1,0.4-0.2,0.7-0.3c0.3-0.1,0.6-0.1,0.9-0.1c0.5,0,0.9,0.1,1.3,0.2c0.4,0.1,0.6,0.3,0.8,0.6c0.2,0.2,0.3,0.6,0.4,1l-1,0.1
				c0-0.3-0.2-0.6-0.4-0.8c-0.2-0.2-0.5-0.3-0.9-0.3c-0.5,0-0.8,0.1-1,0.2c-0.2,0.2-0.3,0.3-0.3,0.6c0,0.1,0,0.3,0.1,0.4
				c0.1,0.1,0.2,0.2,0.4,0.3c0.1,0,0.4,0.1,0.9,0.3c0.7,0.2,1.3,0.4,1.6,0.5c0.3,0.1,0.5,0.3,0.7,0.6c0.2,0.2,0.3,0.5,0.3,0.9
				c0,0.4-0.1,0.7-0.3,1c-0.2,0.3-0.5,0.6-0.9,0.7c-0.4,0.2-0.8,0.3-1.3,0.3c-0.8,0-1.4-0.2-1.8-0.5
				C854.9,1801.2,854.6,1800.7,854.5,1800z"/>
			<line class="st5" x1="878.1" y1="1779" x2="904.6" y2="1779"/>
			<line class="st5" x1="878.1" y1="1694" x2="904.6" y2="1694"/>
			<line class="st5" x1="897.5" y1="1805.4" x2="897.5" y2="1779"/>
			<line class="st5" x1="897.5" y1="1694" x2="897.5" y2="1667.5"/>
			<path class="st6" d="M901.8,1761.8v1.1h-6.7c0.2,0.3,0.5,0.6,0.7,1c0.2,0.4,0.4,0.8,0.5,1.1h-1c-0.3-0.6-0.6-1.1-1-1.5
				c-0.4-0.4-0.8-0.8-1.1-0.9v-0.7H901.8L901.8,1761.8z M901.8,1758.5h-1.2v-1.2h1.2V1758.5L901.8,1758.5z M901.8,1751.8v1.1h-6.7
				c0.2,0.3,0.5,0.6,0.7,1c0.2,0.4,0.4,0.8,0.5,1.1h-1c-0.3-0.6-0.6-1.1-1-1.5c-0.4-0.4-0.8-0.8-1.1-0.9v-0.7H901.8L901.8,1751.8z
				 M897.2,1747.5c-0.2,0.4-0.4,0.8-0.7,1c-0.3,0.2-0.7,0.3-1.1,0.3c-0.6,0-1.2-0.2-1.6-0.7c-0.4-0.4-0.6-1-0.6-1.8
				c0-0.7,0.2-1.4,0.7-1.8c0.4-0.5,1-0.7,1.6-0.7c0.4,0,0.7,0.1,1,0.3c0.3,0.2,0.5,0.5,0.7,0.9c0.2-0.5,0.4-0.9,0.8-1.2
				c0.4-0.3,0.8-0.4,1.4-0.4c0.7,0,1.3,0.3,1.8,0.8c0.5,0.5,0.8,1.2,0.8,2c0,0.8-0.2,1.5-0.8,2c-0.5,0.5-1.1,0.8-1.9,0.8
				c-0.6,0-1-0.1-1.4-0.4C897.6,1748.4,897.3,1748,897.2,1747.5L897.2,1747.5z M895.4,1747.7c0.4,0,0.7-0.1,1-0.4
				c0.3-0.3,0.4-0.6,0.4-1c0-0.4-0.1-0.7-0.4-1c-0.3-0.3-0.6-0.4-0.9-0.4c-0.4,0-0.7,0.1-1,0.4c-0.3,0.3-0.4,0.6-0.4,1
				c0,0.4,0.1,0.7,0.4,1C894.7,1747.6,895,1747.7,895.4,1747.7L895.4,1747.7z M899.3,1748c0.3,0,0.6-0.1,0.9-0.2
				c0.3-0.1,0.5-0.4,0.7-0.6c0.2-0.3,0.2-0.6,0.2-0.9c0-0.5-0.2-0.9-0.5-1.2c-0.3-0.3-0.7-0.5-1.2-0.5c-0.5,0-0.9,0.2-1.3,0.5
				c-0.3,0.3-0.5,0.8-0.5,1.3c0,0.5,0.2,0.9,0.5,1.2C898.4,1747.9,898.9,1748,899.3,1748L899.3,1748z M894.4,1738.8h-1.2v-1.1h1.2
				V1738.8L894.4,1738.8z M901.8,1738.8h-6.2v-1.1h6.2V1738.8L901.8,1738.8z M901.8,1736.1h-6.2v-0.9h0.9c-0.7-0.5-1-1.1-1-2
				c0-0.4,0.1-0.7,0.2-1c0.1-0.3,0.3-0.5,0.5-0.7c0.2-0.2,0.5-0.3,0.8-0.3c0.2,0,0.5-0.1,1-0.1h3.8v1.1H898c-0.4,0-0.8,0-1,0.1
				c-0.2,0.1-0.4,0.2-0.5,0.4c-0.1,0.2-0.2,0.5-0.2,0.7c0,0.4,0.1,0.8,0.4,1.2c0.3,0.3,0.8,0.5,1.6,0.5h3.4V1736.1L901.8,1736.1z
				 M899.5,1725.4l0.1-1c0.7,0.1,1.3,0.4,1.7,0.9c0.4,0.5,0.6,1,0.6,1.7c0,0.9-0.3,1.5-0.8,2.1c-0.6,0.5-1.4,0.8-2.4,0.8
				c-0.7,0-1.3-0.1-1.8-0.3c-0.5-0.2-0.9-0.6-1.1-1c-0.3-0.5-0.4-0.9-0.4-1.5c0-0.7,0.2-1.2,0.5-1.7c0.3-0.4,0.8-0.7,1.5-0.8l0.2,1
				c-0.4,0.1-0.7,0.3-0.9,0.5c-0.2,0.2-0.3,0.5-0.3,0.9c0,0.5,0.2,1,0.6,1.3c0.4,0.3,1,0.5,1.8,0.5c0.8,0,1.4-0.2,1.8-0.5
				c0.4-0.3,0.6-0.7,0.6-1.3c0-0.4-0.1-0.8-0.4-1C900.5,1725.6,900.1,1725.5,899.5,1725.4L899.5,1725.4z M901.8,1723.5h-8.6v-1.1
				h3.1c-0.6-0.5-0.9-1.1-0.9-1.9c0-0.5,0.1-0.9,0.3-1.2c0.2-0.3,0.4-0.6,0.8-0.7c0.3-0.1,0.8-0.2,1.4-0.2h3.9v1.1h-3.9
				c-0.5,0-0.9,0.1-1.2,0.3c-0.2,0.2-0.4,0.5-0.4,1c0,0.3,0.1,0.6,0.2,0.9c0.2,0.3,0.4,0.5,0.7,0.6c0.3,0.1,0.7,0.2,1.1,0.2h3.4
				V1723.5L901.8,1723.5z M899.8,1712.5l0.1-1.1c0.6,0.2,1.1,0.5,1.5,1c0.4,0.5,0.5,1.1,0.5,1.8c0,0.9-0.3,1.6-0.8,2.2
				c-0.6,0.5-1.3,0.8-2.4,0.8c-1,0-1.9-0.3-2.4-0.8c-0.6-0.5-0.9-1.2-0.9-2.1c0-0.8,0.3-1.5,0.8-2c0.6-0.5,1.4-0.8,2.4-0.8
				c0.1,0,0.2,0,0.3,0v4.6c0.7,0,1.2-0.2,1.6-0.6c0.4-0.3,0.5-0.8,0.5-1.3c0-0.4-0.1-0.7-0.3-1
				C900.6,1712.9,900.3,1712.7,899.8,1712.5L899.8,1712.5z M898.1,1716v-3.5c-0.5,0-0.9,0.2-1.2,0.4c-0.4,0.3-0.6,0.8-0.6,1.3
				c0,0.5,0.2,0.9,0.5,1.2C897.1,1715.8,897.6,1716,898.1,1716L898.1,1716z M900,1710.5l-0.2-1c0.4-0.1,0.7-0.2,1-0.5
				c0.2-0.3,0.3-0.6,0.3-1.1c0-0.5-0.1-0.8-0.3-1.1c-0.2-0.2-0.4-0.4-0.7-0.4c-0.2,0-0.4,0.1-0.6,0.3c-0.1,0.1-0.2,0.5-0.4,1.1
				c-0.2,0.8-0.4,1.3-0.5,1.6c-0.1,0.3-0.3,0.5-0.6,0.7c-0.2,0.2-0.5,0.2-0.8,0.2c-0.3,0-0.5-0.1-0.8-0.2c-0.2-0.1-0.4-0.3-0.6-0.5
				c-0.1-0.2-0.2-0.4-0.3-0.7c-0.1-0.3-0.1-0.6-0.1-0.9c0-0.5,0.1-0.9,0.2-1.3c0.1-0.4,0.3-0.6,0.6-0.8c0.2-0.2,0.6-0.3,1-0.4l0.1,1
				c-0.3,0-0.6,0.2-0.8,0.4c-0.2,0.2-0.3,0.5-0.3,0.9c0,0.5,0.1,0.8,0.2,1c0.2,0.2,0.3,0.3,0.6,0.3c0.1,0,0.3,0,0.4-0.1
				c0.1-0.1,0.2-0.2,0.3-0.4c0-0.1,0.1-0.4,0.3-0.9c0.2-0.7,0.4-1.3,0.5-1.6c0.1-0.3,0.3-0.5,0.6-0.7c0.2-0.2,0.5-0.3,0.9-0.3
				c0.4,0,0.7,0.1,1,0.3c0.3,0.2,0.5,0.5,0.7,0.9c0.2,0.4,0.3,0.8,0.3,1.3c0,0.8-0.2,1.4-0.5,1.8
				C901.1,1710.1,900.6,1710.4,900,1710.5z"/>
		</g>
	</g>
</g>
<g id="_x30__00000179638067014117218790000007457465113847970745_">
	<g>
		<polygon class="st8" points="579.4,663.3 570.9,663.3 570.9,671.8 531.3,671.8 531.3,663.3 423.6,663.3 423.6,671.8 384,671.8 
			384,663.3 375.5,663.3 375.5,550 384,550 384,541.4 423.6,541.4 423.6,550 531.3,550 531.3,541.4 570.9,541.4 570.9,550 
			579.4,550 		"/>
		<polygon class="st8" points="142,316.7 142.9,318.1 144.1,319.4 145.3,320.5 146.8,321.4 148.3,322.2 149.9,322.7 151.6,323.1 
			153.3,323.2 188.4,323.2 190.1,323.1 191.8,322.7 193.4,322.2 195,321.4 196.4,320.5 197.7,319.4 198.8,318.1 199.7,316.7 
			200.5,315.1 201,313.5 201.4,311.8 201.5,310.1 201.5,307.1 201.6,305.4 201.9,303.7 202.5,302.1 203.2,300.6 204.2,299.2 
			205.3,297.9 206.6,296.7 208,295.8 209.5,295 211.1,294.5 212.8,294.2 214.5,294.1 227.6,294.1 227.6,333.4 236.1,333.4 
			236.1,381.5 227.6,381.5 227.6,429.7 236.1,429.7 236.1,477.9 227.6,477.9 227.6,526.1 114.2,526.1 114.2,477.9 105.7,477.9 
			105.7,429.7 114.2,429.7 114.2,381.5 105.7,381.5 105.7,333.4 114.2,333.4 114.2,294.1 127.2,294.1 128.9,294.2 130.6,294.5 
			132.2,295 133.7,295.8 135.1,296.7 136.4,297.9 137.6,299.2 138.5,300.6 139.3,302.1 139.8,303.7 140.1,305.4 140.2,307.1 
			140.2,310.1 140.4,311.8 140.7,313.5 141.2,315.1 		"/>
		<g>
			<path class="st9" d="M347.5,382.5v79.1l0,64.5h259.9l0-44.5v-99.1c0-5.9,3.4-10.9,8.8-13.1c8.9-3.6,18.9-4.3,30.3-1.5
				c3.5,0.8,6.9-0.7,8.6-3.8c9.8-17.9,24.3-27.7,43-30.8c3-0.5,5.2-2.5,6.1-5.3c0.9-2.9,0.2-5.8-1.9-7.9
				c-39.7-39.1-96.2-51.5-174.6-1.7c-2.7,1.7-6,1.7-8.6-0.2c-2.6-1.8-3.8-4.9-3.1-8c0.1-0.7,0.2-1.2,0.2-1.6c0-0.2,0-0.3,0-0.5
				L516,304l-2.2-38.8c-0.2-3.5-2.6-6.3-6-7.1c-3.4-0.8-6.8,0.7-8.5,3.8l-3,5.3c-1.8,3.1-5.3,4.6-8.8,3.7c-3.2-0.9-6.6-1.3-10.1-1.3
				c-3.5,0-6.9,0.5-10.1,1.3c-3.5,0.9-7-0.6-8.8-3.7l-3-5.3c-1.7-3.1-5.1-4.5-8.5-3.8c-3.4,0.8-5.8,3.6-6,7.1l-2.2,38.8l-0.2,4.4
				c0,0.4,0.1,1,0.3,1.8c0.7,3.1-0.5,6.2-3.1,8c-2.6,1.8-5.9,1.9-8.6,0.2c-78.4-49.9-134.9-37.5-174.6,1.6c-2.1,2.1-2.9,5-1.9,7.9
				c0.9,2.9,3.2,4.8,6.1,5.3c18.7,3,33.2,12.9,43,30.8c1.7,3.1,5.2,4.7,8.6,3.8c11.4-2.8,21.4-2.1,30.3,1.5
				C344.1,371.6,347.5,376.6,347.5,382.5L347.5,382.5z M384,499.5h39.6v8.5H384V499.5L384,499.5z M531.3,499.5h39.6v8.5h-39.6V499.5
				L531.3,499.5z M375.5,429.7v48.2H367v-48.2H375.5L375.5,429.7z M579.3,477.9v-48.2h8.5v48.2H579.3L579.3,477.9z M394.6,404.7
				c1.4,0,2.6,1.2,2.6,2.6c0,1.4-1.2,2.6-2.6,2.6c-1.4,0-2.6-1.2-2.6-2.6C392,405.9,393.2,404.7,394.6,404.7L394.6,404.7z
				 M517.4,458.1c1.4,0,2.6,1.2,2.6,2.6c0,1.4-1.2,2.6-2.6,2.6c-1.4,0-2.6-1.2-2.6-2.6C514.8,459.3,516,458.1,517.4,458.1
				L517.4,458.1z M429.3,463.6c1.4,0,2.6,1.2,2.6,2.6c0,1.4-1.2,2.6-2.6,2.6c-1.4,0-2.6-1.2-2.6-2.6
				C426.7,464.7,427.9,463.6,429.3,463.6L429.3,463.6z M461.2,439.4c1.4,0,2.6,1.2,2.6,2.6c0,1.4-1.2,2.6-2.6,2.6
				c-1.4,0-2.6-1.2-2.6-2.6C458.6,440.6,459.7,439.4,461.2,439.4L461.2,439.4z M407.4,479.5l-3.2-2.9c-0.8-0.7-1.9-0.8-2.8-0.3
				l-3.8,2.2c-0.9,0.5-2,0.4-2.8-0.3c-0.8-0.7-1-1.8-0.6-2.7l1.8-4c0.4-1,0.2-2-0.6-2.7l-3.3-2.9c-0.8-0.7-1-1.8-0.6-2.7
				c0.4-0.9,1.4-1.5,2.4-1.4l4.3,0.5c1,0.1,2-0.4,2.4-1.4l1.8-4c0.4-1,1.4-1.5,2.4-1.4c1,0.1,1.8,0.8,2.1,1.9l0.9,4.3
				c0.2,1,1,1.8,2.1,1.9l4.3,0.5c1,0.1,1.8,0.8,2.1,1.9c0.2,1-0.2,2-1.1,2.5l-3.8,2.2c-0.9,0.5-1.3,1.5-1.1,2.5l0.9,4.3
				c0.2,1-0.2,2-1.1,2.5C409.3,480.3,408.2,480.2,407.4,479.5L407.4,479.5z M534.3,409.5l-1.9-1.4c-0.5-0.3-1-0.3-1.5,0l-1.9,1.4
				c-0.4,0.3-1,0.3-1.5,0c-0.4-0.3-0.6-0.9-0.5-1.4l0.7-2.2c0.2-0.5,0-1.1-0.5-1.4l-1.9-1.4c-0.5-0.3-0.6-0.9-0.5-1.4
				c0.2-0.5,0.6-0.9,1.2-0.9l2.3,0c0.6,0,1-0.3,1.2-0.9l0.7-2.2c0.2-0.5,0.6-0.9,1.2-0.9c0.6,0,1,0.3,1.2,0.9l0.7,2.2
				c0.2,0.5,0.6,0.9,1.2,0.9l2.3,0c0.6,0,1,0.3,1.2,0.9c0.2,0.5,0,1.1-0.5,1.4l-1.9,1.4c-0.5,0.3-0.6,0.9-0.5,1.4l0.7,2.2
				c0.2,0.5,0,1.1-0.5,1.4C535.3,409.8,534.8,409.8,534.3,409.5L534.3,409.5z M562.6,452.9l-2.8-0.7c-0.7-0.2-1.4,0.1-1.7,0.7
				l-1.6,2.5c-0.4,0.6-1,0.9-1.7,0.7c-0.7-0.2-1.1-0.7-1.2-1.4l-0.2-2.9c0-0.7-0.5-1.3-1.2-1.4l-2.8-0.7c-0.7-0.2-1.1-0.7-1.2-1.4
				c0-0.7,0.3-1.3,1-1.6l2.7-1.1c0.6-0.3,1-0.9,1-1.6l-0.2-2.9c0-0.7,0.3-1.3,1-1.6c0.6-0.3,1.4-0.1,1.8,0.5l1.9,2.3
				c0.4,0.5,1.2,0.7,1.8,0.5l2.7-1.1c0.6-0.3,1.4-0.1,1.8,0.5c0.4,0.5,0.5,1.3,0.1,1.9l-1.6,2.5c-0.4,0.6-0.3,1.3,0.1,1.9l1.9,2.2
				c0.4,0.5,0.5,1.3,0.1,1.9C564,452.8,563.3,453.1,562.6,452.9L562.6,452.9z M426.5,426.5l0.3,0.5c0.2,0.3,0.2,0.7-0.1,0.9
				c-0.2,0.2-0.4,0.5-0.6,0.8c-0.2,0.3-0.3,0.6-0.4,1c-0.1,0.3-0.4,0.6-0.7,0.6l-0.6,0c-0.3,0-0.6,0.2-0.7,0.6
				c-0.1,0.3,0,0.7,0.3,0.9l3.3,2l0.4,0.2c0,0,0.1,0,0.2,0.1c0.3,0.1,0.5,0.3,0.6,0.7c0,0.3-0.1,0.6-0.4,0.8
				c-8.1,4.6-9.6,10.1-8,15.5c0.1,0.3,0.3,0.5,0.6,0.5c0.3,0.1,0.6-0.1,0.8-0.3c1.1-1.5,2.7-2.3,4.7-2.3c0.4,0,0.7-0.2,0.7-0.6
				c0.6-2.5,2.4-3.6,5.1-3.8c0.4,0,0.7-0.4,0.7-0.8c0-2.1,0.6-3.9,1.8-5.2c0,0,0.1-0.1,0.1-0.1c1.6-1.2,3.2-1.8,4.7-1.9
				c0.3,0,0.5-0.2,0.6-0.4c0.1-0.2,0.1-0.5,0-0.7c-0.7-1.3-1.1-2.9-1-5c0,0,0-0.1,0-0.1c0.4-1.8,1.6-3.2,3.3-4.4
				c0.3-0.2,0.4-0.7,0.2-1c-1.3-2.3-1.4-4.4,0.3-6.3c0.2-0.3,0.3-0.6,0.1-0.9c-1.1-1.7-1.3-3.4-0.7-5.2c0.1-0.3,0-0.6-0.2-0.8
				c-0.2-0.2-0.5-0.3-0.8-0.2c-5.3,1.7-9,6.1-8.3,15.3c0,0.3-0.1,0.6-0.4,0.8c-0.3,0.1-0.6,0.1-0.9-0.1c-0.1,0-0.1-0.1-0.1-0.1
				c0,0,0,0,0,0L431,427l-3.5-1.6c-0.3-0.1-0.7-0.1-0.9,0.2C426.4,425.9,426.4,426.2,426.5,426.5L426.5,426.5z M515.5,429.4
				l-0.1,0.6c0,0.4-0.3,0.6-0.7,0.7c-0.3,0-0.7,0.1-1,0.3c-0.3,0.1-0.6,0.3-0.9,0.5c-0.3,0.2-0.7,0.2-1,0l-0.5-0.4
				c-0.3-0.2-0.6-0.2-0.9,0c-0.3,0.2-0.4,0.6-0.3,0.9l1.3,3.6l0.2,0.4c0,0,0.1,0.1,0.1,0.2c0.2,0.3,0.2,0.6,0,0.9
				c-0.2,0.3-0.5,0.4-0.8,0.4c-9.2-1.5-13.8,1.9-15.9,7.1c-0.1,0.3-0.1,0.6,0.1,0.8c0.2,0.2,0.5,0.3,0.8,0.2
				c1.8-0.5,3.6-0.1,5.2,1.1c0.3,0.2,0.7,0.2,0.9,0c2.1-1.6,4.2-1.3,6.3,0.2c0.3,0.2,0.8,0.2,1-0.1c1.3-1.6,2.9-2.7,4.6-2.9
				c0,0,0.1,0,0.1,0c2,0,3.6,0.6,4.9,1.4c0.2,0.1,0.5,0.2,0.7,0.1c0.2-0.1,0.4-0.3,0.5-0.6c0.3-1.5,0.9-3,2.3-4.5
				c0,0,0.1-0.1,0.1-0.1c1.4-1.1,3.2-1.5,5.3-1.4c0.4,0,0.8-0.3,0.8-0.7c0.4-2.6,1.7-4.3,4.2-4.7c0.4-0.1,0.6-0.3,0.6-0.7
				c0.2-2,1.1-3.5,2.7-4.5c0.3-0.2,0.4-0.4,0.4-0.7c0-0.3-0.2-0.5-0.5-0.6c-5.2-2-10.8-0.9-16,6.8c-0.2,0.3-0.5,0.4-0.8,0.3
				c-0.3-0.1-0.5-0.3-0.6-0.6c0-0.1,0-0.1,0-0.2c0,0,0,0,0,0l-0.2-0.4l-1.7-3.5c-0.2-0.3-0.5-0.5-0.8-0.4
				C515.8,428.8,515.6,429,515.5,429.4L515.5,429.4z M479,457.7l-0.5,0.6c-0.3,0.3-0.7,0.4-1.1,0.2c-0.4-0.2-0.8-0.3-1.2-0.4
				c-0.4-0.1-0.8-0.1-1.2-0.1c-0.4,0-0.8-0.2-1-0.7l-0.2-0.7c-0.1-0.4-0.5-0.7-0.9-0.7c-0.4,0-0.8,0.3-0.9,0.7l-1.2,4.6l-0.1,0.5
				c0,0.1,0,0.1,0,0.2c0,0.4-0.2,0.7-0.6,0.9c-0.4,0.2-0.8,0.1-1-0.2c-8.1-7.9-15.2-7.8-20.8-4.1c-0.3,0.2-0.5,0.5-0.4,0.9
				c0,0.4,0.3,0.7,0.6,0.8c2.1,0.8,3.6,2.4,4.4,4.7c0.1,0.4,0.5,0.7,0.9,0.7c3.1-0.1,5.1,1.6,6.2,4.6c0.2,0.5,0.7,0.7,1.1,0.6
				c2.5-0.7,4.7-0.7,6.7,0.3c0,0,0.1,0,0.1,0.1c2,1.4,3.2,3.1,3.9,4.8c0.1,0.3,0.4,0.5,0.7,0.6c0.3,0.1,0.6,0,0.9-0.3
				c1.3-1.3,3.1-2.3,5.5-2.9c0,0,0.1,0,0.1,0c2.2-0.1,4.3,0.7,6.3,2.3c0.4,0.3,0.9,0.3,1.3-0.1c2.2-2.3,4.7-3.1,7.5-1.8
				c0.4,0.2,0.8,0.1,1.1-0.2c1.6-1.9,3.6-2.7,5.9-2.6c0.4,0,0.7-0.2,0.9-0.5c0.2-0.3,0.2-0.7,0-1c-3.8-5.6-10.2-8.5-20.8-4.5
				c-0.4,0.1-0.8,0-1-0.2c-0.3-0.3-0.3-0.7-0.2-1c0-0.1,0.1-0.1,0.1-0.2c0,0,0,0,0-0.1l0.1-0.5l0.7-4.7c0.1-0.4-0.2-0.8-0.5-1
				C479.7,457.3,479.3,457.4,479,457.7L479,457.7z M541,469l-0.2,0.5c-0.1,0.3-0.5,0.4-0.8,0.4c-0.3-0.1-0.6-0.1-0.9-0.1
				c-0.3,0-0.6,0.1-0.9,0.2c-0.3,0.1-0.6,0-0.8-0.3l-0.3-0.5c-0.2-0.3-0.5-0.4-0.8-0.3c-0.3,0.1-0.5,0.4-0.5,0.7l0,3.5l0,0.4
				c0,0,0,0.1,0,0.2c0.1,0.3,0,0.6-0.2,0.7c-0.2,0.2-0.5,0.2-0.8,0.1c-7.2-4.1-12.2-2.7-15.6,0.9c-0.2,0.2-0.2,0.5-0.1,0.7
				c0.1,0.3,0.3,0.4,0.6,0.4c1.7,0.2,3,1,4,2.6c0.2,0.3,0.5,0.4,0.8,0.3c2.2-0.7,3.9,0.2,5.3,2.1c0.2,0.3,0.6,0.4,0.9,0.2
				c1.6-0.9,3.2-1.3,4.8-1c0,0,0.1,0,0.1,0c1.7,0.7,2.8,1.6,3.7,2.7c0.1,0.2,0.4,0.3,0.6,0.3c0.2,0,0.4-0.1,0.6-0.3
				c0.7-1.2,1.7-2.2,3.4-3.1c0,0,0.1,0,0.1,0c1.5-0.5,3.2-0.3,4.9,0.5c0.3,0.1,0.7,0,0.9-0.3c1.2-2.1,2.8-3.1,5-2.6
				c0.3,0.1,0.6-0.1,0.8-0.4c0.8-1.6,2.1-2.6,3.7-2.9c0.3-0.1,0.5-0.2,0.5-0.5c0.1-0.3,0-0.5-0.2-0.7c-3.7-3.3-8.8-4.2-15.6,0.6
				c-0.2,0.2-0.5,0.2-0.8,0c-0.2-0.2-0.4-0.4-0.3-0.7c0-0.1,0-0.1,0-0.1c0,0,0,0,0,0l0-0.4l-0.4-3.5c0-0.3-0.3-0.6-0.6-0.6
				C541.5,468.6,541.2,468.7,541,469L541,469z M400.6,418.9l0,0.5c0,0.3-0.2,0.5-0.5,0.6c-0.3,0.1-0.5,0.1-0.8,0.3
				c-0.2,0.1-0.5,0.3-0.7,0.5c-0.2,0.2-0.5,0.2-0.7,0.1l-0.4-0.3c-0.2-0.2-0.5-0.1-0.7,0c-0.2,0.2-0.3,0.5-0.2,0.7l1.3,2.8l0.1,0.3
				c0,0,0,0.1,0.1,0.1c0.2,0.2,0.2,0.4,0.1,0.7c-0.1,0.2-0.3,0.3-0.6,0.3c-7.3-0.6-10.8,2.3-12.1,6.4c-0.1,0.2,0,0.5,0.2,0.6
				c0.2,0.2,0.4,0.2,0.6,0.1c1.4-0.5,2.8-0.3,4.1,0.6c0.2,0.2,0.5,0.1,0.7,0c1.5-1.3,3.2-1.3,5-0.2c0.3,0.2,0.6,0.1,0.8-0.2
				c1-1.3,2.1-2.3,3.5-2.6c0,0,0.1,0,0.1,0c1.6-0.1,2.9,0.2,3.9,0.8c0.2,0.1,0.4,0.1,0.6,0c0.2-0.1,0.3-0.3,0.3-0.5
				c0.1-1.2,0.6-2.4,1.6-3.7c0,0,0,0,0.1-0.1c1-1,2.4-1.4,4.1-1.4c0.3,0,0.6-0.2,0.6-0.6c0.2-2.1,1.1-3.5,3-3.9
				c0.3-0.1,0.5-0.3,0.5-0.6c0-1.6,0.7-2.8,1.9-3.7c0.2-0.1,0.3-0.4,0.2-0.6c0-0.2-0.2-0.4-0.4-0.5c-4.2-1.3-8.6-0.1-12.2,6.2
				c-0.1,0.2-0.4,0.3-0.6,0.3c-0.2,0-0.4-0.2-0.5-0.4c0-0.1,0-0.1,0-0.1c0,0,0,0,0,0l-0.2-0.3l-1.6-2.6c-0.1-0.2-0.4-0.3-0.7-0.3
				C400.7,418.4,400.6,418.6,400.6,418.9L400.6,418.9z M554.2,409.2c1.4,0,2.6,1.2,2.6,2.6c0,1.4-1.2,2.6-2.6,2.6s-2.6-1.2-2.6-2.6
				C551.6,410.4,552.8,409.2,554.2,409.2L554.2,409.2z M504.9,477.5c1.4,0,2.6,1.2,2.6,2.6c0,1.4-1.2,2.6-2.6,2.6
				c-1.4,0-2.6-1.2-2.6-2.6C502.3,478.7,503.5,477.5,504.9,477.5L504.9,477.5z M579.3,333.4h8.5v48.2h-8.5V333.4L579.3,333.4z
				 M367,333.4h8.5v48.2H367V333.4L367,333.4z M485.6,439.6l-2.8-0.7c-0.7-0.2-1.4,0.1-1.7,0.7l-1.6,2.5c-0.4,0.6-1,0.9-1.7,0.7
				c-0.7-0.2-1.1-0.7-1.2-1.4l-0.2-2.9c0-0.7-0.5-1.3-1.2-1.4l-2.8-0.7c-0.7-0.2-1.1-0.7-1.2-1.4c0-0.7,0.3-1.3,1-1.6l2.7-1.1
				c0.6-0.3,1-0.9,1-1.6l-0.2-2.9c0-0.7,0.3-1.3,1-1.6c0.6-0.3,1.4-0.1,1.8,0.5l1.9,2.3c0.4,0.5,1.2,0.7,1.8,0.5l2.7-1.1
				c0.6-0.3,1.4-0.1,1.8,0.5c0.4,0.5,0.5,1.3,0.1,1.9l-1.6,2.5c-0.4,0.6-0.3,1.3,0.1,1.9l1.9,2.2c0.4,0.5,0.5,1.3,0.1,1.9
				C486.9,439.5,486.3,439.8,485.6,439.6z"/>
			<path class="st10" d="M445.7,308.2c0,0.1,0.1,0.3,0.1,0.4c1.3,5.9-1,11.9-6,15.4c-5,3.5-11.4,3.6-16.5,0.4
				c-28.5-18.2-63-33.6-97.6-31.5c-26.8,1.6-49.3,13.5-68.2,32.2c-0.2,0.2-0.3,0.4-0.2,0.7c0.1,0.3,0.2,0.4,0.5,0.5
				c21.5,3.5,37.6,15.2,48.1,34.4c0.2,0.3,0.4,0.4,0.8,0.3c28.7-7,50.1,5.7,65.3,29.8c0.2,0.3,0.6,0.4,0.9,0.2
				c18.6-9.5,38.9-14.6,59.5-8.9c0.8,0.2,1.5,0.5,2.2,0.8c17.3,7.8,31.8,18.9,42.2,34.9c0.2,0.3,0.3,0.3,0.6,0.3
				c0.3,0,0.4-0.1,0.6-0.3c10.4-16,25-27.1,42.2-34.9c0.7-0.3,1.4-0.6,2.2-0.8c20.6-5.6,41-0.6,59.5,8.9c0.3,0.2,0.7,0.1,0.9-0.2
				c15.2-24.1,36.6-36.8,65.3-29.8c0.3,0.1,0.6,0,0.8-0.3c10.5-19.2,26.5-30.9,48.1-34.4c0.3-0.1,0.4-0.1,0.5-0.5
				c0.1-0.3,0.1-0.5-0.2-0.7c-18.9-18.6-41.4-30.6-68.2-32.2c-34.6-2.1-69,13.3-97.6,31.4c-5.1,3.3-11.5,3.1-16.5-0.3
				c-5-3.5-7.3-9.4-6-15.3c0-0.1,0-0.2,0.1-0.3l-2.4-42.8c0-0.4-0.2-0.5-0.5-0.6c-0.3-0.1-0.6,0-0.7,0.3l-3,5.3
				c-3.4,6-10.2,8.8-16.8,7.1c-2.7-0.7-5.5-1.1-8.3-1.1c-2.8,0-5.6,0.4-8.3,1.1c-6.6,1.8-13.4-1.1-16.8-7.1l-3-5.3
				c-0.2-0.3-0.4-0.4-0.7-0.3c-0.3,0.1-0.5,0.3-0.5,0.6l-2.2,38.8L445.7,308.2z"/>
		</g>
		<path class="st11" d="M445.7,133.9c0,0.1,0.1,0.3,0.1,0.4c1.3,5.9-1,11.9-6,15.4c-5,3.5-11.4,3.6-16.5,0.4
			c-28.5-18.2-63-33.6-97.6-31.5c-26.8,1.6-49.3,13.5-68.2,32.2c-0.2,0.2-0.3,0.4-0.2,0.7c0.1,0.3,0.2,0.4,0.5,0.5
			c21.5,3.5,37.6,15.2,48.1,34.4c0.2,0.3,0.4,0.4,0.8,0.3c28.7-7,50.1,5.7,65.3,29.8c0.2,0.3,0.6,0.4,0.9,0.2
			c18.6-9.5,38.9-14.6,59.5-8.9c0.8,0.2,1.5,0.5,2.2,0.8c17.3,7.8,31.8,18.9,42.2,34.9c0.2,0.3,0.3,0.3,0.6,0.3
			c0.3,0,0.4-0.1,0.6-0.3c10.4-16,25-27.1,42.2-34.9c0.7-0.3,1.4-0.6,2.2-0.8c20.6-5.6,41-0.6,59.5,8.9c0.3,0.2,0.7,0.1,0.9-0.2
			c15.2-24.1,36.6-36.8,65.3-29.8c0.3,0.1,0.6,0,0.8-0.3c10.5-19.2,26.5-30.9,48.1-34.4c0.3-0.1,0.4-0.1,0.5-0.5
			c0.1-0.3,0.1-0.5-0.2-0.7c-18.9-18.6-41.4-30.6-68.2-32.2c-34.6-2.1-69,13.3-97.6,31.4c-5.1,3.3-11.5,3.1-16.5-0.3
			c-5-3.5-7.3-9.4-6-15.3c0-0.1,0-0.2,0.1-0.3l-2.4-42.8c0-0.4-0.2-0.5-0.5-0.6c-0.3-0.1-0.6,0-0.7,0.3l-3,5.3
			c-3.4,6-10.2,8.8-16.8,7.1c-2.7-0.7-5.5-1.1-8.3-1.1c-2.8,0-5.6,0.4-8.3,1.1c-6.6,1.8-13.4-1.1-16.8-7.1l-3-5.3
			c-0.2-0.3-0.4-0.4-0.7-0.3c-0.3,0.1-0.5,0.3-0.5,0.6L446,130L445.7,133.9z"/>
		<polygon class="st8" points="755.2,316.7 756.1,318.1 757.3,319.4 758.5,320.5 760,321.4 761.5,322.2 763.1,322.7 764.8,323.1 
			766.5,323.2 801.6,323.2 803.3,323.1 805,322.7 806.6,322.2 808.1,321.4 809.6,320.5 810.8,319.4 812,318.1 812.9,316.7 
			813.7,315.1 814.2,313.5 814.5,311.8 814.7,310.1 814.7,307.1 814.8,305.4 815.1,303.7 815.7,302.1 816.4,300.6 817.4,299.2 
			818.5,297.9 819.8,296.7 821.2,295.8 822.7,295 824.3,294.5 826,294.2 827.7,294.1 840.7,294.1 840.7,333.4 849.2,333.4 
			849.2,381.5 840.7,381.5 840.7,429.7 849.2,429.7 849.2,477.9 840.7,477.9 840.7,526.1 727.4,526.1 727.4,477.9 718.8,477.9 
			718.8,429.7 727.4,429.7 727.4,381.5 718.8,381.5 718.8,333.4 727.4,333.4 727.4,294.1 740.4,294.1 742.1,294.2 743.8,294.5 
			745.4,295 746.9,295.8 748.3,296.7 749.6,297.9 750.7,299.2 751.7,300.6 752.4,302.1 753,303.7 753.3,305.4 753.4,307.1 
			753.4,310.1 753.5,311.8 753.9,313.5 754.4,315.1 		"/>
	</g>
	<g>
		<polygon class="st8" points="582.7,1616.3 573.9,1616.3 573.9,1625.1 533.1,1625.1 533.1,1616.3 421.8,1616.3 421.8,1625.1 
			381,1625.1 381,1616.3 372.2,1616.3 372.2,1499.2 381,1499.2 381,1490.4 421.8,1490.4 421.8,1499.2 533.1,1499.2 533.1,1490.4 
			573.9,1490.4 573.9,1499.2 582.7,1499.2 		"/>
		<polygon class="st8" points="130.9,1258.2 131.9,1259.7 133.1,1261 134.4,1262.1 135.9,1263.1 137.4,1263.9 139.1,1264.5 
			140.8,1264.8 142.6,1264.9 178.9,1264.9 180.7,1264.8 182.4,1264.5 184.1,1263.9 185.6,1263.1 187.1,1262.1 188.4,1261 
			189.6,1259.7 190.6,1258.2 191.3,1256.6 191.9,1254.9 192.3,1253.2 192.4,1251.5 192.4,1248.3 192.5,1246.5 192.8,1244.8 
			193.4,1243.2 194.2,1241.6 195.1,1240.1 196.3,1238.8 197.6,1237.6 199.1,1236.6 200.7,1235.9 202.3,1235.3 204.1,1235 
			205.8,1234.8 219.3,1234.8 219.3,1275.4 228.1,1275.4 228.1,1325.2 219.3,1325.2 219.3,1375 228.1,1375 228.1,1424.7 
			219.3,1424.7 219.3,1474.5 102.2,1474.5 102.2,1424.7 93.4,1424.7 93.4,1375 102.2,1375 102.2,1325.2 93.4,1325.2 93.4,1275.4 
			102.2,1275.4 102.2,1234.8 115.6,1234.8 117.4,1235 119.1,1235.3 120.8,1235.9 122.4,1236.6 123.8,1237.6 125.2,1238.8 
			126.3,1240.1 127.3,1241.6 128.1,1243.2 128.7,1244.8 129,1246.5 129.1,1248.3 129.1,1251.5 129.2,1253.2 129.6,1254.9 
			130.1,1256.6 		"/>
		<g>
			<path class="st9" d="M343.2,1326.2v81.8l0,66.6h268.5l0.1-45.9v-102.4c0-6.1,3.5-11.3,9.1-13.6c9.2-3.7,19.5-4.4,31.3-1.6
				c3.6,0.9,7.2-0.7,8.9-4c10.1-18.5,25.1-28.7,44.4-31.8c3.1-0.5,5.4-2.5,6.3-5.5c0.9-2.9,0.2-6-2-8.1
				c-41-40.4-99.4-53.2-180.3-1.7c-2.8,1.8-6.2,1.7-8.9-0.2c-2.7-1.9-3.9-5-3.2-8.3c0.1-0.7,0.2-1.2,0.2-1.6c0-0.2,0-0.3,0-0.5
				l-0.2-4.3l-2.2-40c-0.2-3.6-2.7-6.5-6.2-7.4c-3.5-0.8-7,0.7-8.8,3.9l-3.1,5.5c-1.8,3.2-5.5,4.8-9.1,3.8
				c-3.3-0.9-6.8-1.4-10.4-1.4c-3.6,0-7.1,0.5-10.4,1.4c-3.6,1-7.3-0.6-9.1-3.8l-3.1-5.5c-1.8-3.2-5.3-4.7-8.8-3.9
				c-3.5,0.8-6,3.8-6.2,7.4l-2.2,40l-0.3,4.5c0,0.4,0.1,1.1,0.3,1.9c0.7,3.2-0.5,6.4-3.2,8.3c-2.7,1.9-6.1,2-8.9,0.2
				c-81-51.5-139.4-38.7-180.4,1.7c-2.2,2.2-2.9,5.2-2,8.1c0.9,2.9,3.3,5,6.3,5.5c19.3,3.1,34.3,13.3,44.4,31.8
				c1.8,3.2,5.4,4.8,8.9,4c11.7-2.9,22.1-2.2,31.3,1.6C339.7,1314.9,343.2,1320.1,343.2,1326.2L343.2,1326.2z M380.9,1447.1h40.9
				v8.8h-40.9V1447.1L380.9,1447.1z M533.1,1447.1h40.9v8.8h-40.9V1447.1L533.1,1447.1z M372.1,1374.9v49.8h-8.8v-49.8H372.1
				L372.1,1374.9z M582.7,1424.7V1375h8.8v49.8H582.7L582.7,1424.7z M391.9,1349.1c1.5,0,2.7,1.2,2.7,2.7c0,1.5-1.2,2.7-2.7,2.7
				s-2.7-1.2-2.7-2.7C389.2,1350.3,390.4,1349.1,391.9,1349.1L391.9,1349.1z M518.7,1404.3c1.5,0,2.7,1.2,2.7,2.7
				c0,1.5-1.2,2.7-2.7,2.7s-2.7-1.2-2.7-2.7C516,1405.5,517.2,1404.3,518.7,1404.3L518.7,1404.3z M427.7,1409.9
				c1.5,0,2.7,1.2,2.7,2.7c0,1.5-1.2,2.7-2.7,2.7s-2.7-1.2-2.7-2.7C425,1411.1,426.3,1409.9,427.7,1409.9L427.7,1409.9z M460.6,1385
				c1.5,0,2.7,1.2,2.7,2.7s-1.2,2.7-2.7,2.7c-1.5,0-2.7-1.2-2.7-2.7S459.1,1385,460.6,1385L460.6,1385z M405.1,1426.4l-3.3-3
				c-0.8-0.7-1.9-0.8-2.9-0.3l-3.9,2.3c-0.9,0.5-2.1,0.4-2.8-0.3c-0.8-0.7-1-1.8-0.6-2.8l1.8-4.1c0.4-1,0.2-2.1-0.6-2.8l-3.4-3
				c-0.8-0.7-1-1.8-0.6-2.8c0.4-1,1.4-1.5,2.5-1.4l4.5,0.5c1.1,0.1,2-0.4,2.5-1.4l1.8-4.1c0.4-1,1.4-1.5,2.5-1.4
				c1.1,0.1,1.9,0.9,2.1,1.9l0.9,4.4c0.2,1.1,1.1,1.8,2.1,1.9l4.5,0.5c1.1,0.1,1.9,0.9,2.1,1.9c0.2,1.1-0.2,2.1-1.2,2.6l-3.9,2.2
				c-0.9,0.5-1.4,1.6-1.2,2.6l0.9,4.4c0.2,1-0.2,2.1-1.2,2.6C407,1427.3,405.9,1427.2,405.1,1426.4L405.1,1426.4z M536.2,1354.1
				l-2-1.4c-0.5-0.3-1.1-0.3-1.5,0l-2,1.4c-0.5,0.3-1.1,0.3-1.5,0c-0.5-0.3-0.7-0.9-0.5-1.5l0.8-2.3c0.2-0.5,0-1.1-0.5-1.5l-2-1.4
				c-0.5-0.3-0.7-0.9-0.5-1.5c0.2-0.5,0.7-0.9,1.2-0.9l2.4,0c0.6,0,1.1-0.4,1.2-0.9l0.7-2.3c0.2-0.5,0.7-0.9,1.2-0.9
				c0.6,0,1.1,0.4,1.2,0.9l0.7,2.3c0.2,0.5,0.7,0.9,1.2,0.9l2.4,0c0.6,0,1.1,0.4,1.2,0.9c0.2,0.5,0,1.1-0.5,1.5l-2,1.4
				c-0.5,0.3-0.7,0.9-0.5,1.5l0.8,2.3c0.2,0.5,0,1.1-0.5,1.5C537.2,1354.4,536.6,1354.4,536.2,1354.1L536.2,1354.1z M565.4,1398.9
				l-2.9-0.8c-0.7-0.2-1.4,0.1-1.8,0.7l-1.6,2.6c-0.4,0.6-1.1,0.9-1.8,0.7c-0.7-0.2-1.2-0.8-1.2-1.5l-0.2-3c0-0.7-0.5-1.3-1.2-1.5
				l-2.9-0.7c-0.7-0.2-1.2-0.8-1.2-1.5c0-0.7,0.4-1.4,1-1.6l2.8-1.1c0.7-0.3,1.1-0.9,1-1.6l-0.2-3c0-0.7,0.4-1.4,1-1.6
				c0.7-0.3,1.4-0.1,1.9,0.5l1.9,2.3c0.5,0.6,1.2,0.7,1.9,0.5l2.8-1.1c0.7-0.3,1.4-0.1,1.9,0.5c0.5,0.6,0.5,1.3,0.1,1.9l-1.6,2.5
				c-0.4,0.6-0.3,1.4,0.1,1.9l1.9,2.3c0.5,0.6,0.5,1.3,0.1,1.9C566.8,1398.8,566.1,1399.1,565.4,1398.9L565.4,1398.9z M424.9,1371.7
				l0.3,0.5c0.2,0.3,0.2,0.7-0.1,1c-0.2,0.3-0.4,0.5-0.6,0.9c-0.2,0.3-0.3,0.6-0.4,1c-0.1,0.4-0.4,0.6-0.8,0.6l-0.6,0
				c-0.4,0-0.7,0.2-0.8,0.6c-0.1,0.3,0,0.7,0.4,0.9l3.4,2.1l0.4,0.2c0,0,0.1,0,0.2,0.1c0.3,0.1,0.5,0.3,0.6,0.7
				c0,0.3-0.1,0.6-0.4,0.8c-8.3,4.7-9.9,10.5-8.3,16c0.1,0.3,0.3,0.5,0.6,0.6c0.3,0.1,0.6-0.1,0.8-0.3c1.2-1.5,2.8-2.4,4.9-2.4
				c0.4,0,0.7-0.2,0.8-0.6c0.7-2.6,2.5-3.8,5.2-4c0.4,0,0.7-0.4,0.7-0.8c0-2.2,0.6-4,1.9-5.4c0,0,0.1-0.1,0.1-0.1
				c1.7-1.3,3.3-1.9,4.8-2c0.3,0,0.5-0.2,0.6-0.4c0.1-0.2,0.1-0.5,0-0.8c-0.8-1.4-1.2-3-1-5.1c0,0,0-0.1,0-0.1
				c0.4-1.8,1.6-3.3,3.4-4.5c0.3-0.2,0.4-0.7,0.2-1.1c-1.3-2.4-1.4-4.6,0.4-6.5c0.2-0.3,0.3-0.7,0.1-1c-1.2-1.8-1.3-3.6-0.7-5.4
				c0.1-0.3,0-0.6-0.2-0.8c-0.2-0.2-0.5-0.3-0.8-0.2c-5.5,1.7-9.3,6.3-8.6,15.8c0,0.3-0.1,0.6-0.4,0.8c-0.3,0.1-0.6,0.1-0.9-0.1
				c-0.1,0-0.1-0.1-0.1-0.1c0,0,0,0,0,0l-0.4-0.2l-3.6-1.7c-0.3-0.2-0.7-0.1-0.9,0.2C424.7,1371,424.7,1371.4,424.9,1371.7
				L424.9,1371.7z M516.8,1374.6l-0.1,0.6c0,0.4-0.3,0.7-0.7,0.7c-0.3,0-0.7,0.1-1,0.3c-0.3,0.1-0.6,0.3-0.9,0.5
				c-0.3,0.2-0.7,0.2-1,0l-0.5-0.4c-0.3-0.2-0.7-0.2-1,0c-0.3,0.2-0.4,0.6-0.3,0.9l1.4,3.8l0.2,0.4c0,0,0.1,0.1,0.1,0.2
				c0.2,0.3,0.2,0.6,0,0.9c-0.2,0.3-0.5,0.4-0.8,0.4c-9.5-1.5-14.3,2-16.4,7.3c-0.1,0.3-0.1,0.6,0.1,0.8c0.2,0.2,0.5,0.3,0.8,0.2
				c1.9-0.5,3.7-0.1,5.3,1.1c0.3,0.2,0.7,0.2,1,0c2.1-1.6,4.3-1.4,6.5,0.2c0.3,0.2,0.8,0.2,1.1-0.2c1.4-1.7,3-2.8,4.8-3
				c0,0,0.1,0,0.1,0c2.1,0,3.7,0.6,5,1.4c0.2,0.2,0.5,0.2,0.8,0.1c0.3-0.1,0.4-0.3,0.5-0.6c0.3-1.6,1-3.1,2.4-4.7
				c0,0,0.1-0.1,0.1-0.1c1.5-1.2,3.3-1.6,5.5-1.4c0.4,0,0.8-0.3,0.8-0.7c0.4-2.7,1.7-4.4,4.4-4.9c0.4-0.1,0.6-0.4,0.7-0.7
				c0.2-2.1,1.2-3.6,2.8-4.7c0.3-0.2,0.4-0.4,0.4-0.8c0-0.3-0.2-0.6-0.5-0.7c-5.4-2.1-11.2-0.9-16.6,7c-0.2,0.3-0.5,0.4-0.8,0.3
				c-0.3-0.1-0.6-0.3-0.6-0.6c0-0.1,0-0.1,0-0.2c0,0,0,0,0,0l-0.2-0.4l-1.8-3.6c-0.2-0.3-0.5-0.5-0.9-0.4
				C517.1,1374,516.8,1374.3,516.8,1374.6L516.8,1374.6z M479.1,1403.9l-0.5,0.6c-0.3,0.3-0.8,0.4-1.2,0.2c-0.4-0.2-0.8-0.3-1.2-0.4
				c-0.4-0.1-0.9-0.1-1.3-0.1c-0.5,0-0.8-0.2-1-0.7l-0.2-0.7c-0.1-0.4-0.5-0.7-1-0.7c-0.4,0-0.8,0.3-0.9,0.7l-1.3,4.7l-0.1,0.5
				c0,0.1,0,0.1,0,0.2c0,0.4-0.2,0.8-0.6,0.9c-0.4,0.2-0.8,0.1-1.1-0.2c-8.4-8.1-15.7-8.1-21.5-4.2c-0.3,0.2-0.5,0.5-0.4,0.9
				c0,0.4,0.3,0.7,0.6,0.8c2.2,0.9,3.8,2.4,4.5,4.9c0.1,0.4,0.5,0.7,1,0.7c3.2-0.1,5.3,1.7,6.4,4.8c0.2,0.5,0.7,0.7,1.2,0.6
				c2.5-0.7,4.9-0.7,6.9,0.4c0,0,0.1,0,0.1,0.1c2.1,1.5,3.3,3.2,4,5c0.1,0.3,0.4,0.5,0.7,0.6c0.3,0.1,0.7,0,0.9-0.3
				c1.4-1.4,3.2-2.4,5.6-3c0.1,0,0.1,0,0.2,0c2.3-0.1,4.4,0.8,6.5,2.4c0.4,0.3,1,0.3,1.3-0.1c2.3-2.4,4.8-3.2,7.8-1.8
				c0.4,0.2,0.9,0.1,1.2-0.3c1.7-2,3.7-2.8,6.1-2.7c0.4,0,0.7-0.2,0.9-0.5c0.2-0.3,0.2-0.7,0-1c-3.9-5.8-10.5-8.8-21.4-4.7
				c-0.4,0.1-0.8,0.1-1.1-0.2c-0.3-0.3-0.3-0.7-0.2-1.1c0-0.1,0.1-0.1,0.1-0.2c0,0,0,0,0-0.1l0.1-0.5l0.7-4.8c0.1-0.4-0.2-0.8-0.6-1
				C479.8,1403.5,479.4,1403.6,479.1,1403.9L479.1,1403.9z M543.1,1415.6l-0.3,0.5c-0.1,0.3-0.5,0.5-0.8,0.4
				c-0.3-0.1-0.6-0.1-0.9-0.1c-0.3,0-0.6,0.1-0.9,0.2c-0.3,0.1-0.7,0-0.8-0.3l-0.3-0.5c-0.2-0.3-0.5-0.4-0.8-0.3
				c-0.3,0.1-0.5,0.4-0.5,0.7l0,3.6l0,0.4c0,0,0,0.1,0,0.2c0.1,0.3,0,0.6-0.3,0.8c-0.2,0.2-0.5,0.2-0.8,0.1
				c-7.5-4.2-12.6-2.8-16.1,1c-0.2,0.2-0.2,0.5-0.1,0.7c0.1,0.3,0.3,0.4,0.6,0.5c1.7,0.2,3.1,1,4.1,2.6c0.2,0.3,0.5,0.4,0.8,0.3
				c2.3-0.7,4.1,0.2,5.5,2.2c0.2,0.3,0.6,0.4,0.9,0.2c1.7-1,3.4-1.4,5-1c0,0,0.1,0,0.1,0c1.7,0.7,2.9,1.7,3.8,2.8
				c0.1,0.2,0.4,0.3,0.6,0.3c0.3,0,0.5-0.1,0.6-0.4c0.7-1.2,1.8-2.3,3.5-3.2c0,0,0.1,0,0.1,0c1.6-0.5,3.3-0.3,5.1,0.5
				c0.3,0.2,0.7,0,0.9-0.3c1.2-2.1,2.9-3.2,5.2-2.7c0.3,0.1,0.6-0.1,0.8-0.4c0.8-1.7,2.1-2.7,3.8-3c0.3-0.1,0.5-0.3,0.5-0.5
				c0.1-0.3,0-0.5-0.2-0.7c-3.8-3.4-9.1-4.3-16.1,0.7c-0.2,0.2-0.5,0.2-0.8,0c-0.3-0.2-0.4-0.4-0.3-0.7c0-0.1,0-0.1,0-0.1
				c0,0,0,0,0,0l0-0.4l-0.4-3.6c0-0.3-0.3-0.6-0.6-0.6C543.6,1415.1,543.3,1415.3,543.1,1415.6L543.1,1415.6z M398,1363.8l0,0.5
				c0,0.3-0.2,0.5-0.5,0.6c-0.3,0.1-0.5,0.2-0.8,0.3c-0.3,0.1-0.5,0.3-0.7,0.5c-0.2,0.2-0.5,0.2-0.8,0.1l-0.4-0.3
				c-0.2-0.2-0.5-0.1-0.8,0c-0.2,0.2-0.3,0.5-0.2,0.7l1.3,2.9l0.1,0.3c0,0,0,0.1,0.1,0.1c0.2,0.2,0.2,0.5,0.1,0.7
				c-0.1,0.2-0.4,0.4-0.6,0.3c-7.5-0.7-11.1,2.3-12.5,6.6c-0.1,0.2,0,0.5,0.2,0.6c0.2,0.2,0.4,0.2,0.6,0.2c1.5-0.5,2.9-0.3,4.2,0.6
				c0.2,0.2,0.5,0.1,0.8,0c1.6-1.4,3.3-1.3,5.1-0.2c0.3,0.2,0.6,0.1,0.8-0.2c1-1.4,2.2-2.3,3.6-2.6c0,0,0.1,0,0.1,0
				c1.6-0.1,2.9,0.2,4,0.9c0.2,0.1,0.4,0.1,0.6,0c0.2-0.1,0.3-0.3,0.3-0.5c0.1-1.2,0.6-2.5,1.6-3.8c0,0,0,0,0.1-0.1
				c1.1-1,2.5-1.4,4.2-1.4c0.3,0,0.6-0.3,0.6-0.6c0.2-2.1,1.1-3.6,3.1-4.1c0.3-0.1,0.5-0.3,0.5-0.6c0-1.7,0.7-2.9,1.9-3.8
				c0.2-0.1,0.3-0.4,0.2-0.6c0-0.2-0.2-0.4-0.4-0.5c-4.3-1.3-8.8-0.1-12.6,6.4c-0.1,0.2-0.4,0.3-0.6,0.3c-0.3,0-0.5-0.2-0.5-0.5
				c0-0.1,0-0.1,0-0.1c0,0,0,0,0,0l-0.2-0.3l-1.6-2.7c-0.1-0.2-0.4-0.4-0.7-0.3C398.2,1363.3,398,1363.5,398,1363.8L398,1363.8z
				 M556.7,1353.8c1.5,0,2.7,1.2,2.7,2.7c0,1.5-1.2,2.7-2.7,2.7c-1.5,0-2.7-1.2-2.7-2.7C554.1,1355,555.3,1353.8,556.7,1353.8
				L556.7,1353.8z M505.8,1424.4c1.5,0,2.7,1.2,2.7,2.7c0,1.5-1.2,2.7-2.7,2.7s-2.7-1.2-2.7-2.7
				C503.2,1425.6,504.4,1424.4,505.8,1424.4L505.8,1424.4z M582.7,1275.5h8.8v49.8h-8.8V1275.5L582.7,1275.5z M363.4,1275.5h8.8
				v49.8h-8.8V1275.5L363.4,1275.5z M485.8,1385.2l-2.9-0.8c-0.7-0.2-1.4,0.1-1.8,0.7l-1.6,2.6c-0.4,0.6-1.1,0.9-1.8,0.7
				c-0.7-0.2-1.2-0.8-1.2-1.5l-0.2-3c0-0.7-0.5-1.3-1.2-1.5l-2.9-0.7c-0.7-0.2-1.2-0.8-1.2-1.5c0-0.7,0.4-1.4,1-1.6l2.8-1.1
				c0.7-0.3,1.1-0.9,1-1.6l-0.2-3c0-0.7,0.4-1.4,1-1.6c0.7-0.3,1.4-0.1,1.9,0.5l1.9,2.3c0.5,0.6,1.2,0.7,1.9,0.5l2.8-1.1
				c0.7-0.3,1.4-0.1,1.9,0.5c0.5,0.6,0.5,1.3,0.1,1.9l-1.6,2.5c-0.4,0.6-0.3,1.4,0.1,1.9l1.9,2.3c0.5,0.6,0.5,1.3,0.1,1.9
				C487.2,1385.1,486.5,1385.4,485.8,1385.2z"/>
			<path class="st10" d="M444.7,1249.5c0,0.1,0.1,0.3,0.1,0.4c1.4,6.1-1,12.3-6.2,15.9c-5.1,3.6-11.8,3.8-17.1,0.4
				c-29.5-18.8-65.1-34.7-100.8-32.5c-27.7,1.7-51,14-70.5,33.3c-0.2,0.2-0.3,0.4-0.2,0.7c0.1,0.3,0.2,0.4,0.6,0.5
				c22.2,3.6,38.9,15.7,49.7,35.5c0.2,0.3,0.4,0.4,0.8,0.3c29.7-7.2,51.8,5.9,67.5,30.8c0.2,0.3,0.6,0.4,0.9,0.2
				c19.2-9.8,40.2-15.1,61.5-9.2c0.8,0.2,1.5,0.5,2.3,0.8c17.8,8,32.9,19.5,43.6,36.1c0.2,0.3,0.3,0.3,0.6,0.3
				c0.3,0,0.4-0.1,0.6-0.3c10.7-16.5,25.8-28,43.6-36.1c0.7-0.3,1.5-0.6,2.3-0.8c21.3-5.8,42.3-0.6,61.5,9.2
				c0.3,0.2,0.7,0.1,0.9-0.2c15.7-24.9,37.8-38,67.5-30.8c0.4,0.1,0.6,0,0.8-0.3c10.8-19.8,27.4-31.9,49.7-35.5
				c0.3-0.1,0.5-0.2,0.6-0.5c0.1-0.3,0.1-0.5-0.2-0.7c-19.5-19.3-42.8-31.6-70.5-33.2c-35.7-2.2-71.3,13.7-100.8,32.5
				c-5.3,3.4-11.9,3.2-17-0.4c-5.1-3.6-7.5-9.7-6.2-15.8c0-0.1,0-0.2,0.1-0.3l-2.5-44.2c0-0.4-0.2-0.6-0.5-0.6
				c-0.4-0.1-0.6,0-0.8,0.3l-3.1,5.5c-3.5,6.2-10.5,9.1-17.4,7.3c-2.8-0.7-5.7-1.1-8.5-1.1c-2.9,0-5.8,0.4-8.5,1.1
				c-6.8,1.8-13.9-1.1-17.4-7.3l-3.1-5.5c-0.2-0.3-0.4-0.4-0.8-0.3c-0.4,0.1-0.5,0.3-0.5,0.6l-2.2,40L444.7,1249.5z"/>
		</g>
		<path class="st11" d="M444.7,1069.3c0,0.1,0.1,0.3,0.1,0.4c1.4,6.1-1,12.3-6.2,15.9c-5.1,3.6-11.8,3.8-17.1,0.4
			c-29.5-18.8-65.1-34.7-100.8-32.5c-27.7,1.7-51,14-70.5,33.2c-0.2,0.2-0.3,0.4-0.2,0.7c0.1,0.3,0.2,0.4,0.6,0.5
			c22.2,3.6,38.9,15.7,49.7,35.5c0.2,0.3,0.4,0.4,0.8,0.3c29.7-7.2,51.8,5.9,67.5,30.8c0.2,0.3,0.6,0.4,0.9,0.2
			c19.2-9.8,40.2-15.1,61.5-9.2c0.8,0.2,1.5,0.5,2.3,0.8c17.8,8,32.9,19.5,43.6,36.1c0.2,0.3,0.3,0.3,0.6,0.3c0.3,0,0.4-0.1,0.6-0.3
			c10.7-16.5,25.8-28,43.6-36.1c0.7-0.3,1.5-0.6,2.3-0.8c21.3-5.8,42.3-0.6,61.5,9.2c0.3,0.2,0.7,0.1,0.9-0.2
			c15.7-24.9,37.8-38,67.5-30.8c0.4,0.1,0.6,0,0.8-0.3c10.8-19.8,27.4-31.9,49.7-35.5c0.3-0.1,0.5-0.2,0.6-0.5
			c0.1-0.3,0.1-0.5-0.2-0.7c-19.5-19.3-42.8-31.6-70.5-33.2c-35.7-2.2-71.3,13.7-100.8,32.5c-5.3,3.4-11.9,3.2-17-0.4
			c-5.1-3.6-7.5-9.7-6.2-15.8c0-0.1,0-0.2,0.1-0.3l-2.5-44.2c0-0.4-0.2-0.6-0.5-0.6c-0.4-0.1-0.6,0-0.8,0.3l-3.1,5.5
			c-3.5,6.2-10.5,9.1-17.4,7.3c-2.8-0.7-5.7-1.1-8.5-1.1c-2.9,0-5.8,0.4-8.5,1.1c-6.8,1.8-13.9-1.1-17.4-7.3l-3.1-5.5
			c-0.2-0.3-0.4-0.4-0.8-0.3c-0.4,0.1-0.5,0.3-0.5,0.6l-2.2,40L444.7,1069.3z"/>
		<polygon class="st8" points="764.3,1258.2 765.3,1259.7 766.5,1261 767.8,1262.1 769.3,1263.1 770.9,1263.9 772.5,1264.5 
			774.2,1264.8 776,1264.9 812.3,1264.9 814.1,1264.8 815.8,1264.5 817.5,1263.9 819.1,1263.1 820.5,1262.1 821.8,1261 823,1259.7 
			824,1258.2 824.8,1256.6 825.3,1254.9 825.7,1253.2 825.8,1251.5 825.8,1248.3 825.9,1246.5 826.2,1244.8 826.8,1243.2 
			827.6,1241.6 828.6,1240.1 829.7,1238.8 831.1,1237.6 832.5,1236.6 834.1,1235.9 835.8,1235.3 837.5,1235 839.3,1234.8 
			852.7,1234.8 852.7,1275.4 861.5,1275.4 861.5,1325.2 852.7,1325.2 852.7,1375 861.5,1375 861.5,1424.7 852.7,1424.7 
			852.7,1474.5 735.6,1474.5 735.6,1424.7 726.8,1424.7 726.8,1375 735.6,1375 735.6,1325.2 726.8,1325.2 726.8,1275.4 
			735.6,1275.4 735.6,1234.8 749.1,1234.8 750.8,1235 752.6,1235.3 754.2,1235.9 755.8,1236.6 757.3,1237.6 758.6,1238.8 
			759.8,1240.1 760.7,1241.6 761.5,1243.2 762.1,1244.8 762.4,1246.5 762.5,1248.3 762.5,1251.5 762.7,1253.2 763,1254.9 
			763.6,1256.6 		"/>
	</g>
</g>
</svg>
