  0
SECTION
  2
HEADER
  9
$ACADVER
  1
AC1032
  9
$ACADMAINTVER
 90
      251
  9
$DWGCODEPAGE
  3
ANSI_1252
  9
$REQUIREDVERSIONS
160
                 0
  9
$INSBASE
 10
0.0
 20
0.0
 30
0.0
  9
$EXTMIN
 10
1.000000000000000E+20
 20
1.000000000000000E+20
 30
1.000000000000000E+20
  9
$EXTMAX
 10
-1.000000000000000E+20
 20
-1.000000000000000E+20
 30
-1.000000000000000E+20
  9
$LIMMIN
 10
0.0
 20
0.0
  9
$LIMMAX
 10
12.0
 20
9.0
  9
$ORTHOMODE
 70
     0
  9
$REGENMODE
 70
     1
  9
$FILLMODE
 70
     1
  9
$QTEXTMODE
 70
     0
  9
$MIRRTEXT
 70
     0
  9
$LTSCALE
 40
1.0
  9
$ATTMODE
 70
     1
  9
$TEXTSIZE
 40
0.2
  9
$TRACEWID
 40
0.05
  9
$TEXTSTYLE
  7
Standard
  9
$CLAYER
  8
0
  9
$CELTYPE
  6
ByLayer
  9
$CECOLOR
 62
   256
  9
$CELTSCALE
 40
1.0
  9
$DISPSILH
 70
     0
  9
$DIMSCALE
 40
1.0
  9
$DIMASZ
 40
0.18
  9
$DIMEXO
 40
0.0625
  9
$DIMDLI
 40
0.38
  9
$DIMRND
 40
0.0
  9
$DIMDLE
 40
0.0
  9
$DIMEXE
 40
0.18
  9
$DIMTP
 40
0.0
  9
$DIMTM
 40
0.0
  9
$DIMTXT
 40
0.18
  9
$DIMCEN
 40
0.09
  9
$DIMTSZ
 40
0.0
  9
$DIMTOL
 70
     0
  9
$DIMLIM
 70
     0
  9
$DIMTIH
 70
     1
  9
$DIMTOH
 70
     1
  9
$DIMSE1
 70
     0
  9
$DIMSE2
 70
     0
  9
$DIMTAD
 70
     0
  9
$DIMZIN
 70
     0
  9
$DIMBLK
  1

  9
$DIMASO
 70
     1
  9
$DIMSHO
 70
     1
  9
$DIMPOST
  1

  9
$DIMAPOST
  1

  9
$DIMALT
 70
     0
  9
$DIMALTD
 70
     2
  9
$DIMALTF
 40
25.4
  9
$DIMLFAC
 40
1.0
  9
$DIMTOFL
 70
     0
  9
$DIMTVP
 40
0.0
  9
$DIMTIX
 70
     0
  9
$DIMSOXD
 70
     0
  9
$DIMSAH
 70
     0
  9
$DIMBLK1
  1

  9
$DIMBLK2
  1

  9
$DIMSTYLE
  2
Standard
  9
$DIMCLRD
 70
     0
  9
$DIMCLRE
 70
     0
  9
$DIMCLRT
 70
     0
  9
$DIMTFAC
 40
1.0
  9
$DIMGAP
 40
0.09
  9
$DIMJUST
 70
     0
  9
$DIMSD1
 70
     0
  9
$DIMSD2
 70
     0
  9
$DIMTOLJ
 70
     1
  9
$DIMTZIN
 70
     0
  9
$DIMALTZ
 70
     0
  9
$DIMALTTZ
 70
     0
  9
$DIMUPT
 70
     0
  9
$DIMDEC
 70
     4
  9
$DIMTDEC
 70
     4
  9
$DIMALTU
 70
     2
  9
$DIMALTTD
 70
     2
  9
$DIMTXSTY
  7
Standard
  9
$DIMAUNIT
 70
     0
  9
$DIMADEC
 70
     0
  9
$DIMALTRND
 40
0.0
  9
$DIMAZIN
 70
     0
  9
$DIMDSEP
 70
    46
  9
$DIMATFIT
 70
     3
  9
$DIMFRAC
 70
     0
  9
$DIMLDRBLK
  1

  9
$DIMLUNIT
 70
     2
  9
$DIMLWD
 70
    -2
  9
$DIMLWE
 70
    -2
  9
$DIMTMOVE
 70
     0
  9
$DIMFXL
 40
1.0
  9
$DIMFXLON
 70
     0
  9
$DIMJOGANG
 40
0.7853981633974483
  9
$DIMTFILL
 70
     0
  9
$DIMTFILLCLR
 70
     0
  9
$DIMARCSYM
 70
     0
  9
$DIMLTYPE
  6

  9
$DIMLTEX1
  6

  9
$DIMLTEX2
  6

  9
$DIMTXTDIRECTION
 70
     0
  9
$LUNITS
 70
     2
  9
$LUPREC
 70
     4
  9
$SKETCHINC
 40
0.1
  9
$FILLETRAD
 40
0.0
  9
$AUNITS
 70
     0
  9
$AUPREC
 70
     0
  9
$MENU
  1
.
  9
$ELEVATION
 40
0.0
  9
$PELEVATION
 40
0.0
  9
$THICKNESS
 40
0.0
  9
$LIMCHECK
 70
     0
  9
$CHAMFERA
 40
0.0
  9
$CHAMFERB
 40
0.0
  9
$CHAMFERC
 40
0.0
  9
$CHAMFERD
 40
0.0
  9
$SKPOLY
 70
     0
  9
$TDCREATE
 40
2460072.304745370
  9
$TDUCREATE
 40
2460072.471412037
  9
$TDUPDATE
 40
2460072.304745370
  9
$TDUUPDATE
 40
2460072.471412037
  9
$TDINDWG
 40
0.0000000000
  9
$TDUSRTIMER
 40
0.0000000000
  9
$USRTIMER
 70
     1
  9
$ANGBASE
 50
0.0
  9
$ANGDIR
 70
     0
  9
$PDMODE
 70
     0
  9
$PDSIZE
 40
0.0
  9
$PLINEWID
 40
0.0
  9
$SPLFRAME
 70
     0
  9
$SPLINETYPE
 70
     6
  9
$SPLINESEGS
 70
     8
  9
$HANDSEED
  5
A4
  9
$SURFTAB1
 70
     6
  9
$SURFTAB2
 70
     6
  9
$SURFTYPE
 70
     6
  9
$SURFU
 70
     6
  9
$SURFV
 70
     6
  9
$UCSBASE
  2

  9
$UCSNAME
  2

  9
$UCSORG
 10
0.0
 20
0.0
 30
0.0
  9
$UCSXDIR
 10
1.0
 20
0.0
 30
0.0
  9
$UCSYDIR
 10
0.0
 20
1.0
 30
0.0
  9
$UCSORTHOREF
  2

  9
$UCSORTHOVIEW
 70
     0
  9
$UCSORGTOP
 10
0.0
 20
0.0
 30
0.0
  9
$UCSORGBOTTOM
 10
0.0
 20
0.0
 30
0.0
  9
$UCSORGLEFT
 10
0.0
 20
0.0
 30
0.0
  9
$UCSORGRIGHT
 10
0.0
 20
0.0
 30
0.0
  9
$UCSORGFRONT
 10
0.0
 20
0.0
 30
0.0
  9
$UCSORGBACK
 10
0.0
 20
0.0
 30
0.0
  9
$PUCSBASE
  2

  9
$PUCSNAME
  2

  9
$PUCSORG
 10
0.0
 20
0.0
 30
0.0
  9
$PUCSXDIR
 10
1.0
 20
0.0
 30
0.0
  9
$PUCSYDIR
 10
0.0
 20
1.0
 30
0.0
  9
$PUCSORTHOREF
  2

  9
$PUCSORTHOVIEW
 70
     0
  9
$PUCSORGTOP
 10
0.0
 20
0.0
 30
0.0
  9
$PUCSORGBOTTOM
 10
0.0
 20
0.0
 30
0.0
  9
$PUCSORGLEFT
 10
0.0
 20
0.0
 30
0.0
  9
$PUCSORGRIGHT
 10
0.0
 20
0.0
 30
0.0
  9
$PUCSORGFRONT
 10
0.0
 20
0.0
 30
0.0
  9
$PUCSORGBACK
 10
0.0
 20
0.0
 30
0.0
  9
$USERI1
 70
     0
  9
$USERI2
 70
     0
  9
$USERI3
 70
     0
  9
$USERI4
 70
     0
  9
$USERI5
 70
     0
  9
$USERR1
 40
0.0
  9
$USERR2
 40
0.0
  9
$USERR3
 40
0.0
  9
$USERR4
 40
0.0
  9
$USERR5
 40
0.0
  9
$WORLDVIEW
 70
     1
  9
$SHADEDGE
 70
     3
  9
$SHADEDIF
 70
    70
  9
$TILEMODE
 70
     1
  9
$MAXACTVP
 70
    64
  9
$PINSBASE
 10
0.0
 20
0.0
 30
0.0
  9
$PLIMCHECK
 70
     0
  9
$PEXTMIN
 10
1.000000000000000E+20
 20
1.000000000000000E+20
 30
1.000000000000000E+20
  9
$PEXTMAX
 10
-1.000000000000000E+20
 20
-1.000000000000000E+20
 30
-1.000000000000000E+20
  9
$PLIMMIN
 10
0.0
 20
0.0
  9
$PLIMMAX
 10
12.0
 20
9.0
  9
$UNITMODE
 70
     0
  9
$VISRETAIN
 70
     1
  9
$PLINEGEN
 70
     0
  9
$PSLTSCALE
 70
     1
  9
$TREEDEPTH
 70
  3020
  9
$CMLSTYLE
  2
Standard
  9
$CMLJUST
 70
     0
  9
$CMLSCALE
 40
1.0
  9
$PROXYGRAPHICS
 70
     1
  9
$MEASUREMENT
 70
     0
  9
$CELWEIGHT
370
    -1
  9
$ENDCAPS
280
     0
  9
$JOINSTYLE
280
     0
  9
$LWDISPLAY
290
     1
  9
$INSUNITS
 70
     1
  9
$HYPERLINKBASE
  1

  9
$STYLESHEET
  1

  9
$XEDIT
290
     1
  9
$CEPSNTYPE
380
     0
  9
$PSTYLEMODE
290
     1
  9
$FINGERPRINTGUID
  2
{8BA30A25-FE6F-C445-B039-8F10B05C973B}
  9
$VERSIONGUID
  2
{FEC486DC-13A0-0A4A-AE62-29785BA1622C}
  9
$EXTNAMES
290
     1
  9
$PSVPSCALE
 40
0.0
  9
$OLESTARTUP
290
     0
  9
$SORTENTS
280
   127
  9
$INDEXCTL
280
     0
  9
$HIDETEXT
280
     1
  9
$XCLIPFRAME
280
     2
  9
$HALOGAP
280
     0
  9
$OBSCOLOR
 70
   257
  9
$OBSLTYPE
280
     0
  9
$INTERSECTIONDISPLAY
280
     0
  9
$INTERSECTIONCOLOR
 70
   257
  9
$DIMASSOC
280
     2
  9
$PROJECTNAME
  1

  9
$CAMERADISPLAY
290
     0
  9
$LENSLENGTH
 40
50.0
  9
$CAMERAHEIGHT
 40
0.0
  9
$STEPSPERSEC
 40
2.0
  9
$STEPSIZE
 40
6.0
  9
$3DDWFPREC
 40
2.0
  9
$PSOLWIDTH
 40
0.25
  9
$PSOLHEIGHT
 40
4.0
  9
$LOFTANG1
 40
1.570796326794896
  9
$LOFTANG2
 40
1.570796326794896
  9
$LOFTMAG1
 40
0.0
  9
$LOFTMAG2
 40
0.0
  9
$LOFTPARAM
 70
     7
  9
$LOFTNORMALS
280
     1
  9
$LATITUDE
 40
37.795
  9
$LONGITUDE
 40
-122.394
  9
$NORTHDIRECTION
 40
0.0
  9
$TIMEZONE
 70
 -8000
  9
$LIGHTGLYPHDISPLAY
280
     1
  9
$TILEMODELIGHTSYNCH
280
     1
  9
$CMATERIAL
347
11
  9
$SOLIDHIST
280
     0
  9
$SHOWHIST
280
     1
  9
$DWFFRAME
280
     2
  9
$DGNFRAME
280
     0
  9
$REALWORLDSCALE
290
     1
  9
$INTERFERECOLOR
 62
     1
  9
$INTERFEREOBJVS
345
33
  9
$INTERFEREVPVS
346
30
  9
$CSHADOW
280
     0
  9
$SHADOWPLANELOCATION
 40
0.0
  0
ENDSEC
  0
SECTION
  2
CLASSES
  0
CLASS
  1
ACDBDICTIONARYWDFLT
  2
AcDbDictionaryWithDefault
  3
ObjectDBX Classes
 90
        0
 91
        1
280
     0
281
     0
  0
CLASS
  1
MATERIAL
  2
AcDbMaterial
  3
ObjectDBX Classes
 90
     1153
 91
        3
280
     0
281
     0
  0
CLASS
  1
VISUALSTYLE
  2
AcDbVisualStyle
  3
ObjectDBX Classes
 90
     4095
 91
       24
280
     0
281
     0
  0
CLASS
  1
SCALE
  2
AcDbScale
  3
ObjectDBX Classes
 90
     1153
 91
       17
280
     0
281
     0
  0
CLASS
  1
TABLESTYLE
  2
AcDbTableStyle
  3
ObjectDBX Classes
 90
     4095
 91
        1
280
     0
281
     0
  0
CLASS
  1
MLEADERSTYLE
  2
AcDbMLeaderStyle
  3
ACDB_MLEADERSTYLE_CLASS
 90
     4095
 91
        1
280
     0
281
     0
  0
CLASS
  1
ACDBSECTIONVIEWSTYLE
  2
AcDbSectionViewStyle
  3
ObjectDBX Classes
 90
     1025
 91
        1
280
     0
281
     0
  0
CLASS
  1
ACDBDETAILVIEWSTYLE
  2
AcDbDetailViewStyle
  3
ObjectDBX Classes
 90
     1025
 91
        1
280
     0
281
     0
  0
CLASS
  1
DICTIONARYVAR
  2
AcDbDictionaryVar
  3
ObjectDBX Classes
 90
        0
 91
        5
280
     0
281
     0
  0
CLASS
  1
CELLSTYLEMAP
  2
AcDbCellStyleMap
  3
ObjectDBX Classes
 90
     1152
 91
        1
280
     0
281
     0
  0
ENDSEC
  0
SECTION
  2
TABLES
  0
TABLE
  2
VPORT
  5
8
330
0
100
AcDbSymbolTable
 70
     1
  0
VPORT
  5
57
330
8
100
AcDbSymbolTableRecord
100
AcDbViewportTableRecord
  2
*Active
 70
     0
 10
0.0
 20
0.0
 11
1.0
 21
1.0
 12
0.0
 22
0.0
 13
0.0
 23
0.0
 14
1.0
 24
1.0
 15
0.0
 25
0.0
 16
0.0
 26
0.0
 36
1.0
 17
4.087554888598598
 27
-2.450218765181046
 37
0.0
 40
4.998446280969336
 41
1.668240790040871
 42
50.0
 43
0.0
 44
0.0
 50
0.0
 51
0.0
 71
     0
 72
   100
 73
     1
 74
     1
 75
     0
 76
     0
 77
     0
 78
     0
281
     0
 65
     1
110
0.0
120
0.0
130
0.0
111
1.0
121
0.0
131
0.0
112
0.0
122
1.0
132
0.0
 79
     0
146
0.0
 60
     3
 61
     5
292
     1
282
     1
141
0.0
142
0.0
 63
   250
421
  3355443
  0
ENDTAB
  0
TABLE
  2
LTYPE
  5
5
330
0
100
AcDbSymbolTable
 70
     1
  0
LTYPE
  5
5B
330
5
100
AcDbSymbolTableRecord
100
AcDbLinetypeTableRecord
  2
ByBlock
 70
     0
  3

 72
    65
 73
     0
 40
0.0
  0
LTYPE
  5
5C
330
5
100
AcDbSymbolTableRecord
100
AcDbLinetypeTableRecord
  2
ByLayer
 70
     0
  3

 72
    65
 73
     0
 40
0.0
  0
LTYPE
  5
5D
330
5
100
AcDbSymbolTableRecord
100
AcDbLinetypeTableRecord
  2
Continuous
 70
     0
  3
Solid line
 72
    65
 73
     0
 40
0.0
  0
ENDTAB
  0
TABLE
  2
LAYER
  5
2
330
0
100
AcDbSymbolTable
 70
     2
  0
LAYER
  5
54
330
2
100
AcDbSymbolTableRecord
100
AcDbLayerTableRecord
  2
0
 70
     0
 62
     7
  6
Continuous
370
    -3
390
F
347
21
348
0
  0
LAYER
  5
78
330
2
100
AcDbSymbolTableRecord
100
AcDbLayerTableRecord
  2
Layer 1
 70
     0
 62
     7
  6
Continuous
370
     0
390
F
347
21
348
0
  0
ENDTAB
  0
TABLE
  2
STYLE
  5
3
330
0
100
AcDbSymbolTable
 70
     2
  0
STYLE
  5
55
330
3
100
AcDbSymbolTableRecord
100
AcDbTextStyleTableRecord
  2
Standard
 70
     0
 40
0.0
 41
1.0
 50
0.0
 71
     0
 42
0.2
  3
txt
  4

  0
STYLE
  5
5A
330
3
100
AcDbSymbolTableRecord
100
AcDbTextStyleTableRecord
  2
Annotative
 70
     0
 40
0.0
 41
1.0
 50
0.0
 71
     0
 42
0.2
  3
txt
  4

1001
AcadAnnotative
1000
AnnotativeData
1002
{
1070
     1
1070
     1
1002
}
  0
ENDTAB
  0
TABLE
  2
VIEW
  5
6
330
0
100
AcDbSymbolTable
 70
     0
  0
ENDTAB
  0
TABLE
  2
UCS
  5
7
330
0
100
AcDbSymbolTable
 70
     0
  0
ENDTAB
  0
TABLE
  2
APPID
  5
9
330
0
100
AcDbSymbolTable
 70
     2
  0
APPID
  5
56
330
9
100
AcDbSymbolTableRecord
100
AcDbRegAppTableRecord
  2
ACAD
 70
     0
  0
APPID
  5
5E
330
9
100
AcDbSymbolTableRecord
100
AcDbRegAppTableRecord
  2
AcadAnnotative
 70
     0
  0
ENDTAB
  0
TABLE
  2
DIMSTYLE
  5
A
330
0
100
AcDbSymbolTable
 70
     2
100
AcDbDimStyleTable
 71
     0
  0
DIMSTYLE
105
58
330
A
100
AcDbSymbolTableRecord
100
AcDbDimStyleTableRecord
  2
Standard
 70
     0
340
55
  0
DIMSTYLE
105
59
330
A
100
AcDbSymbolTableRecord
100
AcDbDimStyleTableRecord
  2
Annotative
 70
     0
340
55
1001
AcadAnnotative
1000
AnnotativeData
1002
{
1070
     1
1070
     1
1002
}
  0
ENDTAB
  0
TABLE
  2
BLOCK_RECORD
  5
1
330
0
100
AcDbSymbolTable
 70
     5
  0
BLOCK_RECORD
  5
70
330
1
100
AcDbSymbolTableRecord
100
AcDbBlockTableRecord
  2
*Model_Space
340
73
 70
     0
280
     1
281
     0
  0
BLOCK_RECORD
  5
6C
330
1
100
AcDbSymbolTableRecord
100
AcDbBlockTableRecord
  2
*Paper_Space
340
6F
 70
     0
280
     1
281
     0
  0
BLOCK_RECORD
  5
74
330
1
100
AcDbSymbolTableRecord
100
AcDbBlockTableRecord
  2
*Paper_Space0
340
77
 70
     0
280
     1
281
     0
  0
BLOCK_RECORD
  5
79
330
1
100
AcDbSymbolTableRecord
100
AcDbBlockTableRecord
  2
Block_0
340
0
102
{BLKREFS
331
7A
102
}
 70
     0
280
     1
281
     0
  0
BLOCK_RECORD
  5
80
330
1
100
AcDbSymbolTableRecord
100
AcDbBlockTableRecord
  2
Block_1
340
0
102
{BLKREFS
331
81
102
}
 70
     0
280
     1
281
     0
  0
BLOCK_RECORD
  5
8A
330
1
100
AcDbSymbolTableRecord
100
AcDbBlockTableRecord
  2
Block_2
340
0
102
{BLKREFS
331
8B
102
}
 70
     0
280
     1
281
     0
  0
BLOCK_RECORD
  5
91
330
1
100
AcDbSymbolTableRecord
100
AcDbBlockTableRecord
  2
Block_3
340
0
102
{BLKREFS
331
92
102
}
 70
     0
280
     1
281
     0
  0
ENDTAB
  0
ENDSEC
  0
SECTION
  2
BLOCKS
  0
BLOCK
  5
71
330
70
100
AcDbEntity
  8
0
100
AcDbBlockBegin
  2
*Model_Space
 70
     0
 10
0.0
 20
0.0
 30
0.0
  3
*Model_Space
  1

  0
ENDBLK
  5
72
330
70
100
AcDbEntity
  8
0
100
AcDbBlockEnd
  0
BLOCK
  5
6D
330
6C
100
AcDbEntity
 67
     1
  8
0
100
AcDbBlockBegin
  2
*Paper_Space
 70
     0
 10
0.0
 20
0.0
 30
0.0
  3
*Paper_Space
  1

  0
ENDBLK
  5
6E
330
6C
100
AcDbEntity
 67
     1
  8
0
100
AcDbBlockEnd
  0
BLOCK
  5
75
330
74
100
AcDbEntity
 67
     1
  8
0
100
AcDbBlockBegin
  2
*Paper_Space0
 70
     0
 10
0.0
 20
0.0
 30
0.0
  3
*Paper_Space0
  1

  0
ENDBLK
  5
76
330
74
100
AcDbEntity
 67
     1
  8
0
100
AcDbBlockEnd
  0
BLOCK
  5
7B
330
79
100
AcDbEntity
  8
0
100
AcDbBlockBegin
  2
Block_0
 70
     0
 10
0.0
 20
0.0
 30
0.0
  3
Block_0
  1

  0
SPLINE
  5
7D
330
79
100
AcDbEntity
  8
Layer 1
 62
    73
420
  9291327
370
    35
100
AcDbSpline
210
0.0
220
0.0
230
1.0
 70
     9
 71
     3
 72
    62
 73
    58
 74
     0
 42
0.0000000001
 43
0.0000000001
 40
0.0
 40
0.0
 40
0.0
 40
0.0
 40
1.0
 40
1.0
 40
1.0
 40
2.0
 40
2.0
 40
2.0
 40
3.0
 40
3.0
 40
3.0
 40
4.0
 40
4.0
 40
4.0
 40
5.0
 40
5.0
 40
5.0
 40
6.0
 40
6.0
 40
6.0
 40
7.0
 40
7.0
 40
7.0
 40
8.0
 40
8.0
 40
8.0
 40
9.0
 40
9.0
 40
9.0
 40
10.0
 40
10.0
 40
10.0
 40
11.0
 40
11.0
 40
11.0
 40
12.0
 40
12.0
 40
12.0
 40
13.0
 40
13.0
 40
13.0
 40
14.0
 40
14.0
 40
14.0
 40
15.0
 40
15.0
 40
15.0
 40
16.0
 40
16.0
 40
16.0
 40
17.0
 40
17.0
 40
17.0
 40
18.0
 40
18.0
 40
18.0
 40
19.0
 40
19.0
 40
19.0
 40
19.0
 10
3.025633467450612
 20
-0.280545739630232
 30
0.0
 10
3.010361286410657
 20
-0.280545739630232
 30
0.0
 10
2.995416840640473
 20
-0.2836450981726051
 30
0.0
 10
2.981036043028148
 20
-0.2897788332642221
 30
0.0
 10
2.96917188499799
 20
-0.281964748589126
 30
0.0
 10
2.956671327230676
 20
-0.276153804485173
 30
0.0
 10
2.943641731280068
 20
-0.2723954437732345
 30
0.0
 10
2.929205133912761
 20
-0.2199570942871989
 30
0.0
 10
2.896226066068139
 20
-0.1938096116344418
 30
0.0
 10
2.877653929898302
 20
-0.1863804746360782
 30
0.0
 10
2.873057160209643
 20
-0.1845200119194411
 30
0.0
 10
2.868253436999364
 20
-0.1835587022165757
 30
0.0
 10
2.863462427657294
 20
-0.1835587022165757
 30
0.0
 10
2.863462427657294
 20
-0.1835587022165757
 30
0.0
 10
2.863461721331292
 20
-0.1835587022165757
 30
0.0
 10
2.863461721331292
 20
-0.1835587022165757
 30
0.0
 10
2.843601952840849
 20
-0.183557289564558
 30
0.0
 10
2.83088102135764
 20
-0.1991148263134998
 30
0.0
 10
2.826021498392391
 20
-0.2124375475592615
 30
0.0
 10
2.826021498392391
 20
-0.2124375475592615
 30
0.0
 10
2.819770513182712
 20
-0.2295758419239493
 30
0.0
 10
2.819770513182712
 20
-0.2295758419239493
 30
0.0
 10
2.819770513182712
 20
-0.2295758419239493
 30
0.0
 10
2.834974180599462
 20
-0.2396579394248495
 30
0.0
 10
2.834974180599462
 20
-0.2396579394248495
 30
0.0
 10
2.850749972086254
 20
-0.2501193339943989
 30
0.0
 10
2.859019637039333
 20
-0.262125463553035
 30
0.0
 10
2.860326340162272
 20
-0.276781728310185
 30
0.0
 10
2.852564523612095
 20
-0.2799220537612857
 30
0.0
 10
2.845001184671382
 20
-0.2838167353936317
 30
0.0
 10
2.837680115552946
 20
-0.2884445834268186
 30
0.0
 10
2.824361632263263
 20
-0.283197287480751
 30
0.0
 10
2.81048656407582
 20
-0.280545739630232
 30
0.0
 10
2.796267515120348
 20
-0.280545739630232
 30
0.0
 10
2.710090797326365
 20
-0.280545739630232
 30
0.0
 10
2.642585807669951
 20
-0.3769740731680839
 30
0.0
 10
2.642585807669951
 20
-0.5000746895858962
 30
0.0
 10
2.642585807669951
 20
-0.6231753060037338
 30
0.0
 10
2.710090797326365
 20
-0.7196043458676008
 30
0.0
 10
2.796267515120348
 20
-0.7196043458676008
 30
0.0
 10
2.810196970410755
 20
-0.7196043458676008
 30
0.0
 10
2.823877092618759
 20
-0.7170347318345244
 30
0.0
 10
2.837079738442399
 20
-0.7119520098493315
 30
0.0
 10
2.860910471774534
 20
-0.723953901451902
 30
0.0
 10
2.887132118658579
 20
-0.7302507978523888
 30
0.0
 10
2.913612280863175
 20
-0.7302507978523888
 30
0.0
 10
2.939396711945581
 20
-0.7302507978523888
 30
0.0
 10
2.964859058366313
 20
-0.7243367301506396
 30
0.0
 10
2.987930491235121
 20
-0.7130623543408143
 30
0.0
 10
3.000233277718974
 20
-0.7174083782950649
 30
0.0
 10
3.012868743754653
 20
-0.7196043458676008
 30
0.0
 10
3.025633467450612
 20
-0.7196043458676008
 30
0.0
 10
3.111810185244608
 20
-0.7196043458676008
 30
0.0
 10
3.179315174900996
 20
-0.6231753060037338
 30
0.0
 10
3.179315174900996
 20
-0.5000746895858962
 30
0.0
 10
3.179315174900996
 20
-0.3769740731680839
 30
0.0
 10
3.111810185244608
 20
-0.280545739630232
 30
0.0
 10
3.025633467450612
 20
-0.280545739630232
 30
0.0
  0
SPLINE
  5
7E
330
79
100
AcDbEntity
  8
Layer 1
 62
   240
420
 15539236
370
    35
100
AcDbSpline
210
0.0
220
0.0
230
1.0
 70
     8
 71
     3
 72
     8
 73
     4
 74
     0
 42
0.0000000001
 43
0.0000000001
 40
0.0
 40
0.0
 40
0.0
 40
0.0
 40
1.0
 40
1.0
 40
1.0
 40
1.0
 10
2.836376141678114
 20
-0.2924132947030355
 30
0.0
 10
2.76504025092581
 20
-0.4221729317423903
 30
0.0
 10
2.76504025092581
 20
-0.5794062358518836
 30
0.0
 10
2.836376141678114
 20
-0.7091658474500441
 30
0.0
  0
SPLINE
  5
7F
330
79
100
AcDbEntity
  8
Layer 1
 62
   240
420
 15539236
370
    35
100
AcDbSpline
210
0.0
220
0.0
230
1.0
 70
     8
 71
     3
 72
     8
 73
     4
 74
     0
 42
0.0000000001
 43
0.0000000001
 40
0.0
 40
0.0
 40
0.0
 40
0.0
 40
1.0
 40
1.0
 40
1.0
 40
1.0
 10
2.986904312818473
 20
-0.2924132947018355
 30
0.0
 10
3.058240203564953
 20
-0.4221729317443988
 30
0.0
 10
3.058240203557892
 20
-0.5794062358538793
 30
0.0
 10
2.986904312799765
 20
-0.7091658474488441
 30
0.0
  0
ENDBLK
  5
7C
330
79
100
AcDbEntity
  8
0
100
AcDbBlockEnd
  0
BLOCK
  5
82
330
80
100
AcDbEntity
  8
0
100
AcDbBlockBegin
  2
Block_1
 70
     0
 10
0.0
 20
0.0
 30
0.0
  3
Block_1
  1

  0
SPLINE
  5
84
330
80
100
AcDbEntity
  8
Layer 1
100
AcDbSpline
210
0.0
220
0.0
230
1.0
 70
    11
 71
     3
 72
    14
 73
    10
 74
     0
 42
0.0000000001
 43
0.0000000001
 40
0.0
 40
0.0
 40
0.0
 40
0.0
 40
1.0
 40
1.0
 40
1.0
 40
2.0
 40
2.0
 40
2.0
 40
3.0
 40
3.0
 40
3.0
 40
3.0
 10
2.817758423567486
 20
-0.3525404218261454
 30
0.0
 10
2.817758423567486
 20
-0.3525404218261454
 30
0.0
 10
2.747632468354848
 20
-0.4492774208280884
 30
0.0
 10
2.747632468354848
 20
-0.4492774208280884
 30
0.0
 10
2.747632468354848
 20
-0.4492774208280884
 30
0.0
 10
2.817186450471656
 20
-0.5152810640907117
 30
0.0
 10
2.892480700183922
 20
-0.4492774208280884
 30
0.0
 10
2.892480700183922
 20
-0.4492774208280884
 30
0.0
 10
2.817758423567486
 20
-0.3525404218261454
 30
0.0
 10
2.817758423567486
 20
-0.3525404218261454
 30
0.0
  0
HATCH
  5
85
330
80
100
AcDbEntity
  8
Layer 1
 62
   250
420
  2301728
440
 33554687
100
AcDbHatch
 10
0.0
 20
0.0
 30
0.0
210
0.0
220
0.0
230
1.0
  2
SOLID
 70
     1
 71
     1
 91
        1
 92
        1
 93
        1
 72
     4
 94
        3
 73
     0
 74
     0
 95
       14
 96
       10
 40
0.0
 40
0.0
 40
0.0
 40
0.0
 40
1.0
 40
1.0
 40
1.0
 40
2.0
 40
2.0
 40
2.0
 40
3.0
 40
3.0
 40
3.0
 40
3.0
 10
2.817758423567486
 20
-0.3525404218261454
 10
2.817758423567486
 20
-0.3525404218261454
 10
2.747632468354848
 20
-0.4492774208280884
 10
2.747632468354848
 20
-0.4492774208280884
 10
2.747632468354848
 20
-0.4492774208280884
 10
2.817186450471656
 20
-0.5152810640907117
 10
2.892480700183922
 20
-0.4492774208280884
 10
2.892480700183922
 20
-0.4492774208280884
 10
2.817758423567486
 20
-0.3525404218261454
 10
2.817758423567486
 20
-0.3525404218261454
 97
        0
 97
        1
330
84
 75
     2
 76
     1
 98
        1
 10
0.0
 20
0.0
450
        0
451
        0
460
0.0
461
0.0
452
        0
462
0.0
453
        0
470

  0
SPLINE
  5
86
330
80
100
AcDbEntity
  8
Layer 1
100
AcDbSpline
210
0.0
220
0.0
230
1.0
 70
    11
 71
     3
 72
    14
 73
    10
 74
     0
 42
0.0000000001
 43
0.0000000001
 40
0.0
 40
0.0
 40
0.0
 40
0.0
 40
1.0
 40
1.0
 40
1.0
 40
2.0
 40
2.0
 40
2.0
 40
3.0
 40
3.0
 40
3.0
 40
3.0
 10
2.99954346237847
 20
-0.3525404218261454
 30
0.0
 10
2.99954346237847
 20
-0.3525404218261454
 30
0.0
 10
2.929417507165819
 20
-0.4492774208280884
 30
0.0
 10
2.929417507165819
 20
-0.4492774208280884
 30
0.0
 10
2.929417507165819
 20
-0.4492774208280884
 30
0.0
 10
2.998974264503873
 20
-0.5152810640907117
 30
0.0
 10
3.074268514216126
 20
-0.4492774208280884
 30
0.0
 10
3.074268514216126
 20
-0.4492774208280884
 30
0.0
 10
2.99954346237847
 20
-0.3525404218261454
 30
0.0
 10
2.99954346237847
 20
-0.3525404218261454
 30
0.0
  0
HATCH
  5
87
330
80
100
AcDbEntity
  8
Layer 1
 62
   250
420
  2301728
440
 33554687
100
AcDbHatch
 10
0.0
 20
0.0
 30
0.0
210
0.0
220
0.0
230
1.0
  2
SOLID
 70
     1
 71
     1
 91
        1
 92
        1
 93
        1
 72
     4
 94
        3
 73
     0
 74
     0
 95
       14
 96
       10
 40
0.0
 40
0.0
 40
0.0
 40
0.0
 40
1.0
 40
1.0
 40
1.0
 40
2.0
 40
2.0
 40
2.0
 40
3.0
 40
3.0
 40
3.0
 40
3.0
 10
2.99954346237847
 20
-0.3525404218261454
 10
2.99954346237847
 20
-0.3525404218261454
 10
2.929417507165819
 20
-0.4492774208280884
 10
2.929417507165819
 20
-0.4492774208280884
 10
2.929417507165819
 20
-0.4492774208280884
 10
2.998974264503873
 20
-0.5152810640907117
 10
3.074268514216126
 20
-0.4492774208280884
 10
3.074268514216126
 20
-0.4492774208280884
 10
2.99954346237847
 20
-0.3525404218261454
 10
2.99954346237847
 20
-0.3525404218261454
 97
        0
 97
        1
330
86
 75
     2
 76
     1
 98
        1
 10
0.0
 20
0.0
450
        0
451
        0
460
0.0
461
0.0
452
        0
462
0.0
453
        0
470

  0
ENDBLK
  5
83
330
80
100
AcDbEntity
  8
0
100
AcDbBlockEnd
  0
BLOCK
  5
8C
330
8A
100
AcDbEntity
  8
0
100
AcDbBlockBegin
  2
Block_2
 70
     0
 10
0.0
 20
0.0
 30
0.0
  3
Block_2
  1

  0
SPLINE
  5
8E
330
8A
100
AcDbEntity
  8
Layer 1
 62
    73
420
  9291327
370
    35
100
AcDbSpline
210
0.0
220
0.0
230
1.0
 70
     9
 71
     3
 72
    62
 73
    58
 74
     0
 42
0.0000000001
 43
0.0000000001
 40
0.0
 40
0.0
 40
0.0
 40
0.0
 40
1.0
 40
1.0
 40
1.0
 40
2.0
 40
2.0
 40
2.0
 40
3.0
 40
3.0
 40
3.0
 40
4.0
 40
4.0
 40
4.0
 40
5.0
 40
5.0
 40
5.0
 40
6.0
 40
6.0
 40
6.0
 40
7.0
 40
7.0
 40
7.0
 40
8.0
 40
8.0
 40
8.0
 40
9.0
 40
9.0
 40
9.0
 40
10.0
 40
10.0
 40
10.0
 40
11.0
 40
11.0
 40
11.0
 40
12.0
 40
12.0
 40
12.0
 40
13.0
 40
13.0
 40
13.0
 40
14.0
 40
14.0
 40
14.0
 40
15.0
 40
15.0
 40
15.0
 40
16.0
 40
16.0
 40
16.0
 40
17.0
 40
17.0
 40
17.0
 40
18.0
 40
18.0
 40
18.0
 40
19.0
 40
19.0
 40
19.0
 40
19.0
 10
3.65546548192281
 20
-0.280545739630232
 30
0.0
 10
3.640193300882843
 20
-0.280545739630232
 30
0.0
 10
3.625248855112658
 20
-0.2836450981726051
 30
0.0
 10
3.610868057500346
 20
-0.2897788332642221
 30
0.0
 10
3.599003899470176
 20
-0.281964748589126
 30
0.0
 10
3.586503341702862
 20
-0.276153804485173
 30
0.0
 10
3.573473745752254
 20
-0.2723954437732345
 30
0.0
 10
3.559037148384946
 20
-0.2199570942871989
 30
0.0
 10
3.526058080540337
 20
-0.1938096116344418
 30
0.0
 10
3.507485944370487
 20
-0.1863804746360782
 30
0.0
 10
3.502889174681829
 20
-0.1845200119194411
 30
0.0
 10
3.498085451471549
 20
-0.1835587022165757
 30
0.0
 10
3.493294442129505
 20
-0.1835587022165757
 30
0.0
 10
3.493294442129505
 20
-0.1835587022165757
 30
0.0
 10
3.493293735803477
 20
-0.1835587022165757
 30
0.0
 10
3.493293735803477
 20
-0.1835587022165757
 30
0.0
 10
3.473433967313035
 20
-0.183557289564558
 30
0.0
 10
3.460713035829838
 20
-0.1991148263134998
 30
0.0
 10
3.455853512864576
 20
-0.2124375475592615
 30
0.0
 10
3.455853512864576
 20
-0.2124375475592615
 30
0.0
 10
3.44960252765491
 20
-0.2295758419239493
 30
0.0
 10
3.44960252765491
 20
-0.2295758419239493
 30
0.0
 10
3.44960252765491
 20
-0.2295758419239493
 30
0.0
 10
3.464806195071648
 20
-0.2396579394248495
 30
0.0
 10
3.464806195071648
 20
-0.2396579394248495
 30
0.0
 10
3.480581986558452
 20
-0.2501193339943989
 30
0.0
 10
3.488851651511531
 20
-0.262125463553035
 30
0.0
 10
3.490158354634457
 20
-0.276781728310185
 30
0.0
 10
3.482396538084294
 20
-0.2799220537612857
 30
0.0
 10
3.474833199143581
 20
-0.2838167353936317
 30
0.0
 10
3.467512130025145
 20
-0.2884445834268186
 30
0.0
 10
3.454193646735461
 20
-0.283197287480751
 30
0.0
 10
3.440318578548019
 20
-0.280545739630232
 30
0.0
 10
3.426099529592546
 20
-0.280545739630232
 30
0.0
 10
3.33992281179855
 20
-0.280545739630232
 30
0.0
 10
3.272417822142162
 20
-0.3769740731680839
 30
0.0
 10
3.272417822142162
 20
-0.5000746895858962
 30
0.0
 10
3.272417822142162
 20
-0.6231753060037338
 30
0.0
 10
3.33992281179855
 20
-0.7196043458676008
 30
0.0
 10
3.426099529592546
 20
-0.7196043458676008
 30
0.0
 10
3.440028984882941
 20
-0.7196043458676008
 30
0.0
 10
3.453709107090958
 20
-0.7170347318345244
 30
0.0
 10
3.466911752914597
 20
-0.7119520098493315
 30
0.0
 10
3.490742486246719
 20
-0.723953901451902
 30
0.0
 10
3.516964133130777
 20
-0.7302507978523888
 30
0.0
 10
3.543444295335373
 20
-0.7302507978523888
 30
0.0
 10
3.569228726417779
 20
-0.7302507978523888
 30
0.0
 10
3.594691072838511
 20
-0.7243367301506396
 30
0.0
 10
3.617762505707307
 20
-0.7130623543408143
 30
0.0
 10
3.630065292191172
 20
-0.7174083782950649
 30
0.0
 10
3.642700758226851
 20
-0.7196043458676008
 30
0.0
 10
3.65546548192281
 20
-0.7196043458676008
 30
0.0
 10
3.741642199716794
 20
-0.7196043458676008
 30
0.0
 10
3.809147189373195
 20
-0.6231753060037338
 30
0.0
 10
3.809147189373195
 20
-0.5000746895858962
 30
0.0
 10
3.809147189373195
 20
-0.3769740731680839
 30
0.0
 10
3.741642199716794
 20
-0.280545739630232
 30
0.0
 10
3.65546548192281
 20
-0.280545739630232
 30
0.0
  0
SPLINE
  5
8F
330
8A
100
AcDbEntity
  8
Layer 1
 62
   240
420
 15539236
370
    35
100
AcDbSpline
210
0.0
220
0.0
230
1.0
 70
     8
 71
     3
 72
     8
 73
     4
 74
     0
 42
0.0000000001
 43
0.0000000001
 40
0.0
 40
0.0
 40
0.0
 40
0.0
 40
1.0
 40
1.0
 40
1.0
 40
1.0
 10
3.466208156150325
 20
-0.2924132947030355
 30
0.0
 10
3.394872265398008
 20
-0.4221729317423903
 30
0.0
 10
3.394872265398008
 20
-0.5794062358518836
 30
0.0
 10
3.466208156150325
 20
-0.7091658474500441
 30
0.0
  0
SPLINE
  5
90
330
8A
100
AcDbEntity
  8
Layer 1
 62
   240
420
 15539236
370
    35
100
AcDbSpline
210
0.0
220
0.0
230
1.0
 70
     8
 71
     3
 72
     8
 73
     4
 74
     0
 42
0.0000000001
 43
0.0000000001
 40
0.0
 40
0.0
 40
0.0
 40
0.0
 40
1.0
 40
1.0
 40
1.0
 40
1.0
 10
3.616736327290658
 20
-0.2924132947018355
 30
0.0
 10
3.688072218037139
 20
-0.4221729317443988
 30
0.0
 10
3.688072218030078
 20
-0.5794062358538793
 30
0.0
 10
3.616736327271963
 20
-0.7091658474488441
 30
0.0
  0
ENDBLK
  5
8D
330
8A
100
AcDbEntity
  8
0
100
AcDbBlockEnd
  0
BLOCK
  5
93
330
91
100
AcDbEntity
  8
0
100
AcDbBlockBegin
  2
Block_3
 70
     0
 10
0.0
 20
0.0
 30
0.0
  3
Block_3
  1

  0
SPLINE
  5
95
330
91
100
AcDbEntity
  8
Layer 1
100
AcDbSpline
210
0.0
220
0.0
230
1.0
 70
    11
 71
     3
 72
    14
 73
    10
 74
     0
 42
0.0000000001
 43
0.0000000001
 40
0.0
 40
0.0
 40
0.0
 40
0.0
 40
1.0
 40
1.0
 40
1.0
 40
2.0
 40
2.0
 40
2.0
 40
3.0
 40
3.0
 40
3.0
 40
3.0
 10
3.447590438039684
 20
-0.3525404218261454
 30
0.0
 10
3.447590438039684
 20
-0.3525404218261454
 30
0.0
 10
3.377464482827033
 20
-0.4492774208280884
 30
0.0
 10
3.377464482827033
 20
-0.4492774208280884
 30
0.0
 10
3.377464482827033
 20
-0.4492774208280884
 30
0.0
 10
3.447018464943855
 20
-0.5152810640907117
 30
0.0
 10
3.522312714656107
 20
-0.4492774208280884
 30
0.0
 10
3.522312714656107
 20
-0.4492774208280884
 30
0.0
 10
3.447590438039684
 20
-0.3525404218261454
 30
0.0
 10
3.447590438039684
 20
-0.3525404218261454
 30
0.0
  0
HATCH
  5
96
330
91
100
AcDbEntity
  8
Layer 1
 62
   250
420
  2301728
440
 33554687
100
AcDbHatch
 10
0.0
 20
0.0
 30
0.0
210
0.0
220
0.0
230
1.0
  2
SOLID
 70
     1
 71
     1
 91
        1
 92
        1
 93
        1
 72
     4
 94
        3
 73
     0
 74
     0
 95
       14
 96
       10
 40
0.0
 40
0.0
 40
0.0
 40
0.0
 40
1.0
 40
1.0
 40
1.0
 40
2.0
 40
2.0
 40
2.0
 40
3.0
 40
3.0
 40
3.0
 40
3.0
 10
3.447590438039684
 20
-0.3525404218261454
 10
3.447590438039684
 20
-0.3525404218261454
 10
3.377464482827033
 20
-0.4492774208280884
 10
3.377464482827033
 20
-0.4492774208280884
 10
3.377464482827033
 20
-0.4492774208280884
 10
3.447018464943855
 20
-0.5152810640907117
 10
3.522312714656107
 20
-0.4492774208280884
 10
3.522312714656107
 20
-0.4492774208280884
 10
3.447590438039684
 20
-0.3525404218261454
 10
3.447590438039684
 20
-0.3525404218261454
 97
        0
 97
        1
330
95
 75
     2
 76
     1
 98
        1
 10
0.0
 20
0.0
450
        0
451
        0
460
0.0
461
0.0
452
        0
462
0.0
453
        0
470

  0
SPLINE
  5
97
330
91
100
AcDbEntity
  8
Layer 1
100
AcDbSpline
210
0.0
220
0.0
230
1.0
 70
    11
 71
     3
 72
    14
 73
    10
 74
     0
 42
0.0000000001
 43
0.0000000001
 40
0.0
 40
0.0
 40
0.0
 40
0.0
 40
1.0
 40
1.0
 40
1.0
 40
2.0
 40
2.0
 40
2.0
 40
3.0
 40
3.0
 40
3.0
 40
3.0
 10
3.629375476850668
 20
-0.3525404218261454
 30
0.0
 10
3.629375476850668
 20
-0.3525404218261454
 30
0.0
 10
3.559249521638017
 20
-0.4492774208280884
 30
0.0
 10
3.559249521638017
 20
-0.4492774208280884
 30
0.0
 10
3.559249521638017
 20
-0.4492774208280884
 30
0.0
 10
3.628806278976058
 20
-0.5152810640907117
 30
0.0
 10
3.704100528688311
 20
-0.4492774208280884
 30
0.0
 10
3.704100528688311
 20
-0.4492774208280884
 30
0.0
 10
3.629375476850668
 20
-0.3525404218261454
 30
0.0
 10
3.629375476850668
 20
-0.3525404218261454
 30
0.0
  0
HATCH
  5
98
330
91
100
AcDbEntity
  8
Layer 1
 62
   250
420
  2301728
440
 33554687
100
AcDbHatch
 10
0.0
 20
0.0
 30
0.0
210
0.0
220
0.0
230
1.0
  2
SOLID
 70
     1
 71
     1
 91
        1
 92
        1
 93
        1
 72
     4
 94
        3
 73
     0
 74
     0
 95
       14
 96
       10
 40
0.0
 40
0.0
 40
0.0
 40
0.0
 40
1.0
 40
1.0
 40
1.0
 40
2.0
 40
2.0
 40
2.0
 40
3.0
 40
3.0
 40
3.0
 40
3.0
 10
3.629375476850668
 20
-0.3525404218261454
 10
3.629375476850668
 20
-0.3525404218261454
 10
3.559249521638017
 20
-0.4492774208280884
 10
3.559249521638017
 20
-0.4492774208280884
 10
3.559249521638017
 20
-0.4492774208280884
 10
3.628806278976058
 20
-0.5152810640907117
 10
3.704100528688311
 20
-0.4492774208280884
 10
3.704100528688311
 20
-0.4492774208280884
 10
3.629375476850668
 20
-0.3525404218261454
 10
3.629375476850668
 20
-0.3525404218261454
 97
        0
 97
        1
330
97
 75
     2
 76
     1
 98
        1
 10
0.0
 20
0.0
450
        0
451
        0
460
0.0
461
0.0
452
        0
462
0.0
453
        0
470

  0
ENDBLK
  5
94
330
91
100
AcDbEntity
  8
0
100
AcDbBlockEnd
  0
ENDSEC
  0
SECTION
  2
ENTITIES
  0
INSERT
  5
7A
330
70
100
AcDbEntity
  8
Layer 1
100
AcDbBlockReference
  2
Block_0
 10
0.0
 20
0.0
 30
0.0
  0
INSERT
  5
81
330
70
100
AcDbEntity
  8
Layer 1
100
AcDbBlockReference
  2
Block_1
 10
0.0
 20
0.0
 30
0.0
  0
SPLINE
  5
88
330
70
100
AcDbEntity
  8
Layer 1
100
AcDbSpline
210
0.0
220
0.0
230
1.0
 70
     9
 71
     3
 72
   143
 73
   139
 74
     0
 42
0.0000000001
 43
0.0000000001
 40
0.0
 40
0.0
 40
0.0
 40
0.0
 40
1.0
 40
1.0
 40
1.0
 40
2.0
 40
2.0
 40
2.0
 40
3.0
 40
3.0
 40
3.0
 40
4.0
 40
4.0
 40
4.0
 40
5.0
 40
5.0
 40
5.0
 40
6.0
 40
6.0
 40
6.0
 40
7.0
 40
7.0
 40
7.0
 40
8.0
 40
8.0
 40
8.0
 40
9.0
 40
9.0
 40
9.0
 40
10.0
 40
10.0
 40
10.0
 40
11.0
 40
11.0
 40
11.0
 40
12.0
 40
12.0
 40
12.0
 40
13.0
 40
13.0
 40
13.0
 40
14.0
 40
14.0
 40
14.0
 40
15.0
 40
15.0
 40
15.0
 40
16.0
 40
16.0
 40
16.0
 40
17.0
 40
17.0
 40
17.0
 40
18.0
 40
18.0
 40
18.0
 40
19.0
 40
19.0
 40
19.0
 40
20.0
 40
20.0
 40
20.0
 40
21.0
 40
21.0
 40
21.0
 40
22.0
 40
22.0
 40
22.0
 40
23.0
 40
23.0
 40
23.0
 40
24.0
 40
24.0
 40
24.0
 40
25.0
 40
25.0
 40
25.0
 40
26.0
 40
26.0
 40
26.0
 40
27.0
 40
27.0
 40
27.0
 40
28.0
 40
28.0
 40
28.0
 40
29.0
 40
29.0
 40
29.0
 40
30.0
 40
30.0
 40
30.0
 40
31.0
 40
31.0
 40
31.0
 40
32.0
 40
32.0
 40
32.0
 40
33.0
 40
33.0
 40
33.0
 40
34.0
 40
34.0
 40
34.0
 40
35.0
 40
35.0
 40
35.0
 40
36.0
 40
36.0
 40
36.0
 40
37.0
 40
37.0
 40
37.0
 40
38.0
 40
38.0
 40
38.0
 40
39.0
 40
39.0
 40
39.0
 40
40.0
 40
40.0
 40
40.0
 40
41.0
 40
41.0
 40
41.0
 40
42.0
 40
42.0
 40
42.0
 40
43.0
 40
43.0
 40
43.0
 40
44.0
 40
44.0
 40
44.0
 40
45.0
 40
45.0
 40
45.0
 40
46.0
 40
46.0
 40
46.0
 40
46.0
 10
3.084762469550393
 20
-0.4895530698960076
 30
0.0
 10
3.079852084338161
 20
-0.4972341383495783
 30
0.0
 10
3.073950010089712
 20
-0.5045227170469767
 30
0.0
 10
3.067200168324878
 20
-0.5113557595758114
 30
0.0
 10
3.067200168324878
 20
-0.5113557595758114
 30
0.0
 10
3.073031444554582
 20
-0.5187112604896937
 30
0.0
 10
3.073031444554582
 20
-0.5187112604896937
 30
0.0
 10
3.073031444554582
 20
-0.5187112604896937
 30
0.0
 10
3.041919074348091
 20
-0.5433766190360782
 30
0.0
 10
3.041919074348091
 20
-0.5433766190360782
 30
0.0
 10
3.041919074348091
 20
-0.5433766190360782
 30
0.0
 10
3.036032244928492
 20
-0.5359503201016575
 30
0.0
 10
3.036032244928492
 20
-0.5359503201016575
 30
0.0
 10
3.024783369943507
 20
-0.5429058380382609
 30
0.0
 10
3.012383675202272
 20
-0.548937881064742
 30
0.0
 10
2.999058108834573
 20
-0.5538862492806326
 30
0.0
 10
2.999058108834573
 20
-0.5538862492806326
 30
0.0
 10
3.012767344164229
 20
-0.5843084687664183
 30
0.0
 10
3.012767344164229
 20
-0.5843084687664183
 30
0.0
 10
3.012767344164229
 20
-0.5843084687664183
 30
0.0
 10
3.012323177032056
 20
-0.5846616837082542
 30
0.0
 10
3.012323177032056
 20
-0.5846616837082542
 30
0.0
 10
3.012323177032056
 20
-0.5846616837082542
 30
0.0
 10
3.013489018858914
 20
-0.586136556340307
 30
0.0
 10
3.013489018858914
 20
-0.586136556340307
 30
0.0
 10
3.013489018858914
 20
-0.586136556340307
 30
0.0
 10
2.977375311240924
 20
-0.602410540745407
 30
0.0
 10
2.977375311240924
 20
-0.602410540745407
 30
0.0
 10
2.977375311240924
 20
-0.602410540745407
 30
0.0
 10
2.960345545477543
 20
-0.5646126661646981
 30
0.0
 10
2.960345545477543
 20
-0.5646126661646981
 30
0.0
 10
2.950751897164296
 20
-0.5664407537385867
 30
0.0
 10
2.940855419369439
 20
-0.5677365642238278
 30
0.0
 10
2.930729493981011
 20
-0.5684796850524537
 30
0.0
 10
2.930729493981011
 20
-0.5684796850524537
 30
0.0
 10
2.930880908721809
 20
-0.6144986567834394
 30
0.0
 10
2.930880908721809
 20
-0.6144986567834394
 30
0.0
 10
2.930880908721809
 20
-0.6144986567834394
 30
0.0
 10
2.891176656328563
 20
-0.6146273334776803
 30
0.0
 10
2.891176656328563
 20
-0.6146273334776803
 30
0.0
 10
2.891176656328563
 20
-0.6146273334776803
 30
0.0
 10
2.891025241587764
 20
-0.5684708998966118
 30
0.0
 10
2.891025241587764
 20
-0.5684708998966118
 30
0.0
 10
2.88042724327872
 20
-0.567687470705942
 30
0.0
 10
2.870094349959584
 20
-0.5662844296421731
 30
0.0
 10
2.860084181915643
 20
-0.5643188802182142
 30
0.0
 10
2.860084181915643
 20
-0.5643188802182142
 30
0.0
 10
2.8429182462403
 20
-0.602410540745407
 30
0.0
 10
2.8429182462403
 20
-0.602410540745407
 30
0.0
 10
2.8429182462403
 20
-0.602410540745407
 30
0.0
 10
2.806804538622322
 20
-0.586136556340307
 30
0.0
 10
2.806804538622322
 20
-0.586136556340307
 30
0.0
 10
2.806804538622322
 20
-0.586136556340307
 30
0.0
 10
2.807972964318473
 20
-0.5846616837082542
 30
0.0
 10
2.807972964318473
 20
-0.5846616837082542
 30
0.0
 10
2.807972964318473
 20
-0.5846616837082542
 30
0.0
 10
2.807526213316994
 20
-0.5843084687664183
 30
0.0
 10
2.807526213316994
 20
-0.5843084687664183
 30
0.0
 10
2.807526213316994
 20
-0.5843084687664183
 30
0.0
 10
2.821472647848155
 20
-0.5533637908955724
 30
0.0
 10
2.821472647848155
 20
-0.5533637908955724
 30
0.0
 10
2.808245304142372
 20
-0.5483536682018995
 30
0.0
 10
2.795934200489366
 20
-0.5422826087480467
 30
0.0
 10
2.784788710155415
 20
-0.5352867824493993
 30
0.0
 10
2.784788710155415
 20
-0.5352867824493993
 30
0.0
 10
2.778374483133158
 20
-0.5433766190360782
 30
0.0
 10
2.778374483133158
 20
-0.5433766190360782
 30
0.0
 10
2.778374483133158
 20
-0.5433766190360782
 30
0.0
 10
2.747264696795948
 20
-0.5187112604896937
 30
0.0
 10
2.747264696795948
 20
-0.5187112604896937
 30
0.0
 10
2.747264696795948
 20
-0.5187112604896937
 30
0.0
 10
2.7538024028915
 20
-0.5104625159372315
 30
0.0
 10
2.7538024028915
 20
-0.5104625159372315
 30
0.0
 10
2.747423604757727
 20
-0.5038891522793216
 30
0.0
 10
2.741834465875146
 20
-0.4968972017847161
 30
0.0
 10
2.737138513020568
 20
-0.4895530698960076
 30
0.0
 10
2.740729316182763
 20
-0.5199034578134969
 30
0.0
 10
2.751470977624712
 20
-0.5479273297571076
 30
0.0
 10
2.767509054351876
 20
-0.5717903968664789
 30
0.0
 10
2.767509054351876
 20
-0.5717903968664789
 30
0.0
 10
2.747264696795948
 20
-0.5973337542221896
 30
0.0
 10
2.747264696795948
 20
-0.5973337542221896
 30
0.0
 10
2.747264696795948
 20
-0.5973337542221896
 30
0.0
 10
2.778374483133158
 20
-0.6219978208339019
 30
0.0
 10
2.778374483133158
 20
-0.6219978208339019
 30
0.0
 10
2.778374483133158
 20
-0.6219978208339019
 30
0.0
 10
2.793685975813963
 20
-0.6026831389631423
 30
0.0
 10
2.793685975813963
 20
-0.6026831389631423
 30
0.0
 10
2.801508123337106
 20
-0.6100513008369086
 30
0.0
 10
2.8099586678733
 20
-0.6166975296108351
 30
0.0
 10
2.818964485921444
 20
-0.6225076182590783
 30
0.0
 10
2.818964485921444
 20
-0.6225076182590783
 30
0.0
 10
2.806721338030948
 20
-0.6496785549261656
 30
0.0
 10
2.806721338030948
 20
-0.6496785549261656
 30
0.0
 10
2.806721338030948
 20
-0.6496785549261656
 30
0.0
 10
2.8429182462403
 20
-0.6659892302762197
 30
0.0
 10
2.8429182462403
 20
-0.6659892302762197
 30
0.0
 10
2.8429182462403
 20
-0.6659892302762197
 30
0.0
 10
2.85460121126717
 20
-0.640059584450834
 30
0.0
 10
2.85460121126717
 20
-0.640059584450834
 30
0.0
 10
2.86625368663638
 20
-0.6441930002698275
 30
0.0
 10
2.878469187125372
 20
-0.64704042430718
 30
0.0
 10
2.891078210908327
 20
-0.6485266659644191
 30
0.0
 10
2.891078210908327
 20
-0.6485266659644191
 30
0.0
 10
2.891176656328563
 20
-0.678207056556251
 30
0.0
 10
2.891176656328563
 20
-0.678207056556251
 30
0.0
 10
2.891176656328563
 20
-0.678207056556251
 30
0.0
 10
2.930880908721809
 20
-0.6780783798620102
 30
0.0
 10
2.930880908721809
 20
-0.6780783798620102
 30
0.0
 10
2.930880908721809
 20
-0.6780783798620102
 30
0.0
 10
2.930782496868838
 20
-0.6485328672509038
 30
0.0
 10
2.930782496868838
 20
-0.6485328672509038
 30
0.0
 10
2.942907011591349
 20
-0.6471047626543066
 30
0.0
 10
2.954660516250037
 20
-0.6444110788440235
 30
0.0
 10
2.965906807365702
 20
-0.6405352748004387
 30
0.0
 10
2.965906807365702
 20
-0.6405352748004387
 30
0.0
 10
2.977375311240924
 20
-0.6659892302762197
 30
0.0
 10
2.977375311240924
 20
-0.6659892302762197
 30
0.0
 10
2.977375311240924
 20
-0.6659892302762197
 30
0.0
 10
3.01357225510896
 20
-0.6496785549261656
 30
0.0
 10
3.01357225510896
 20
-0.6496785549261656
 30
0.0
 10
3.01357225510896
 20
-0.6496785549261656
 30
0.0
 10
3.001687454231311
 20
-0.6233037084096446
 30
0.0
 10
3.001687454231311
 20
-0.6233037084096446
 30
0.0
 10
3.010801536403
 20
-0.6175264349022882
 30
0.0
 10
3.019380793435604
 20
-0.6109205144904183
 30
0.0
 10
3.027303934442847
 20
-0.6035613961594083
 30
0.0
 10
3.027303934442847
 20
-0.6035613961594083
 30
0.0
 10
3.041919074348091
 20
-0.6219978208339019
 30
0.0
 10
3.041919074348091
 20
-0.6219978208339019
 30
0.0
 10
3.041919074348091
 20
-0.6219978208339019
 30
0.0
 10
3.073031444554582
 20
-0.5973337542221896
 30
0.0
 10
3.073031444554582
 20
-0.5973337542221896
 30
0.0
 10
3.073031444554582
 20
-0.5973337542221896
 30
0.0
 10
3.053659918047224
 20
-0.5728993935967992
 30
0.0
 10
3.053659918047224
 20
-0.5728993935967992
 30
0.0
 10
3.070111930635789
 20
-0.5487991272799869
 30
0.0
 10
3.081116113198314
 20
-0.5203703630072975
 30
0.0
 10
3.084762469550393
 20
-0.4895530698960076
 30
0.0
  0
HATCH
  5
89
330
70
100
AcDbEntity
  8
Layer 1
 62
   250
420
  2301728
440
 33554687
100
AcDbHatch
 10
0.0
 20
0.0
 30
0.0
210
0.0
220
0.0
230
1.0
  2
SOLID
 70
     1
 71
     1
 91
        1
 92
        1
 93
        1
 72
     4
 94
        3
 73
     0
 74
     0
 95
      143
 96
      139
 40
0.0
 40
0.0
 40
0.0
 40
0.0
 40
1.0
 40
1.0
 40
1.0
 40
2.0
 40
2.0
 40
2.0
 40
3.0
 40
3.0
 40
3.0
 40
4.0
 40
4.0
 40
4.0
 40
5.0
 40
5.0
 40
5.0
 40
6.0
 40
6.0
 40
6.0
 40
7.0
 40
7.0
 40
7.0
 40
8.0
 40
8.0
 40
8.0
 40
9.0
 40
9.0
 40
9.0
 40
10.0
 40
10.0
 40
10.0
 40
11.0
 40
11.0
 40
11.0
 40
12.0
 40
12.0
 40
12.0
 40
13.0
 40
13.0
 40
13.0
 40
14.0
 40
14.0
 40
14.0
 40
15.0
 40
15.0
 40
15.0
 40
16.0
 40
16.0
 40
16.0
 40
17.0
 40
17.0
 40
17.0
 40
18.0
 40
18.0
 40
18.0
 40
19.0
 40
19.0
 40
19.0
 40
20.0
 40
20.0
 40
20.0
 40
21.0
 40
21.0
 40
21.0
 40
22.0
 40
22.0
 40
22.0
 40
23.0
 40
23.0
 40
23.0
 40
24.0
 40
24.0
 40
24.0
 40
25.0
 40
25.0
 40
25.0
 40
26.0
 40
26.0
 40
26.0
 40
27.0
 40
27.0
 40
27.0
 40
28.0
 40
28.0
 40
28.0
 40
29.0
 40
29.0
 40
29.0
 40
30.0
 40
30.0
 40
30.0
 40
31.0
 40
31.0
 40
31.0
 40
32.0
 40
32.0
 40
32.0
 40
33.0
 40
33.0
 40
33.0
 40
34.0
 40
34.0
 40
34.0
 40
35.0
 40
35.0
 40
35.0
 40
36.0
 40
36.0
 40
36.0
 40
37.0
 40
37.0
 40
37.0
 40
38.0
 40
38.0
 40
38.0
 40
39.0
 40
39.0
 40
39.0
 40
40.0
 40
40.0
 40
40.0
 40
41.0
 40
41.0
 40
41.0
 40
42.0
 40
42.0
 40
42.0
 40
43.0
 40
43.0
 40
43.0
 40
44.0
 40
44.0
 40
44.0
 40
45.0
 40
45.0
 40
45.0
 40
46.0
 40
46.0
 40
46.0
 40
46.0
 10
3.084762469550393
 20
-0.4895530698960076
 10
3.079852084338161
 20
-0.4972341383495783
 10
3.073950010089712
 20
-0.5045227170469767
 10
3.067200168324878
 20
-0.5113557595758114
 10
3.067200168324878
 20
-0.5113557595758114
 10
3.073031444554582
 20
-0.5187112604896937
 10
3.073031444554582
 20
-0.5187112604896937
 10
3.073031444554582
 20
-0.5187112604896937
 10
3.041919074348091
 20
-0.5433766190360782
 10
3.041919074348091
 20
-0.5433766190360782
 10
3.041919074348091
 20
-0.5433766190360782
 10
3.036032244928492
 20
-0.5359503201016575
 10
3.036032244928492
 20
-0.5359503201016575
 10
3.024783369943507
 20
-0.5429058380382609
 10
3.012383675202272
 20
-0.548937881064742
 10
2.999058108834573
 20
-0.5538862492806326
 10
2.999058108834573
 20
-0.5538862492806326
 10
3.012767344164229
 20
-0.5843084687664183
 10
3.012767344164229
 20
-0.5843084687664183
 10
3.012767344164229
 20
-0.5843084687664183
 10
3.012323177032056
 20
-0.5846616837082542
 10
3.012323177032056
 20
-0.5846616837082542
 10
3.012323177032056
 20
-0.5846616837082542
 10
3.013489018858914
 20
-0.586136556340307
 10
3.013489018858914
 20
-0.586136556340307
 10
3.013489018858914
 20
-0.586136556340307
 10
2.977375311240924
 20
-0.602410540745407
 10
2.977375311240924
 20
-0.602410540745407
 10
2.977375311240924
 20
-0.602410540745407
 10
2.960345545477543
 20
-0.5646126661646981
 10
2.960345545477543
 20
-0.5646126661646981
 10
2.950751897164296
 20
-0.5664407537385867
 10
2.940855419369439
 20
-0.5677365642238278
 10
2.930729493981011
 20
-0.5684796850524537
 10
2.930729493981011
 20
-0.5684796850524537
 10
2.930880908721809
 20
-0.6144986567834394
 10
2.930880908721809
 20
-0.6144986567834394
 10
2.930880908721809
 20
-0.6144986567834394
 10
2.891176656328563
 20
-0.6146273334776803
 10
2.891176656328563
 20
-0.6146273334776803
 10
2.891176656328563
 20
-0.6146273334776803
 10
2.891025241587764
 20
-0.5684708998966118
 10
2.891025241587764
 20
-0.5684708998966118
 10
2.88042724327872
 20
-0.567687470705942
 10
2.870094349959584
 20
-0.5662844296421731
 10
2.860084181915643
 20
-0.5643188802182142
 10
2.860084181915643
 20
-0.5643188802182142
 10
2.8429182462403
 20
-0.602410540745407
 10
2.8429182462403
 20
-0.602410540745407
 10
2.8429182462403
 20
-0.602410540745407
 10
2.806804538622322
 20
-0.586136556340307
 10
2.806804538622322
 20
-0.586136556340307
 10
2.806804538622322
 20
-0.586136556340307
 10
2.807972964318473
 20
-0.5846616837082542
 10
2.807972964318473
 20
-0.5846616837082542
 10
2.807972964318473
 20
-0.5846616837082542
 10
2.807526213316994
 20
-0.5843084687664183
 10
2.807526213316994
 20
-0.5843084687664183
 10
2.807526213316994
 20
-0.5843084687664183
 10
2.821472647848155
 20
-0.5533637908955724
 10
2.821472647848155
 20
-0.5533637908955724
 10
2.808245304142372
 20
-0.5483536682018995
 10
2.795934200489366
 20
-0.5422826087480467
 10
2.784788710155415
 20
-0.5352867824493993
 10
2.784788710155415
 20
-0.5352867824493993
 10
2.778374483133158
 20
-0.5433766190360782
 10
2.778374483133158
 20
-0.5433766190360782
 10
2.778374483133158
 20
-0.5433766190360782
 10
2.747264696795948
 20
-0.5187112604896937
 10
2.747264696795948
 20
-0.5187112604896937
 10
2.747264696795948
 20
-0.5187112604896937
 10
2.7538024028915
 20
-0.5104625159372315
 10
2.7538024028915
 20
-0.5104625159372315
 10
2.747423604757727
 20
-0.5038891522793216
 10
2.741834465875146
 20
-0.4968972017847161
 10
2.737138513020568
 20
-0.4895530698960076
 10
2.740729316182763
 20
-0.5199034578134969
 10
2.751470977624712
 20
-0.5479273297571076
 10
2.767509054351876
 20
-0.5717903968664789
 10
2.767509054351876
 20
-0.5717903968664789
 10
2.747264696795948
 20
-0.5973337542221896
 10
2.747264696795948
 20
-0.5973337542221896
 10
2.747264696795948
 20
-0.5973337542221896
 10
2.778374483133158
 20
-0.6219978208339019
 10
2.778374483133158
 20
-0.6219978208339019
 10
2.778374483133158
 20
-0.6219978208339019
 10
2.793685975813963
 20
-0.6026831389631423
 10
2.793685975813963
 20
-0.6026831389631423
 10
2.801508123337106
 20
-0.6100513008369086
 10
2.8099586678733
 20
-0.6166975296108351
 10
2.818964485921444
 20
-0.6225076182590783
 10
2.818964485921444
 20
-0.6225076182590783
 10
2.806721338030948
 20
-0.6496785549261656
 10
2.806721338030948
 20
-0.6496785549261656
 10
2.806721338030948
 20
-0.6496785549261656
 10
2.8429182462403
 20
-0.6659892302762197
 10
2.8429182462403
 20
-0.6659892302762197
 10
2.8429182462403
 20
-0.6659892302762197
 10
2.85460121126717
 20
-0.640059584450834
 10
2.85460121126717
 20
-0.640059584450834
 10
2.86625368663638
 20
-0.6441930002698275
 10
2.878469187125372
 20
-0.64704042430718
 10
2.891078210908327
 20
-0.6485266659644191
 10
2.891078210908327
 20
-0.6485266659644191
 10
2.891176656328563
 20
-0.678207056556251
 10
2.891176656328563
 20
-0.678207056556251
 10
2.891176656328563
 20
-0.678207056556251
 10
2.930880908721809
 20
-0.6780783798620102
 10
2.930880908721809
 20
-0.6780783798620102
 10
2.930880908721809
 20
-0.6780783798620102
 10
2.930782496868838
 20
-0.6485328672509038
 10
2.930782496868838
 20
-0.6485328672509038
 10
2.942907011591349
 20
-0.6471047626543066
 10
2.954660516250037
 20
-0.6444110788440235
 10
2.965906807365702
 20
-0.6405352748004387
 10
2.965906807365702
 20
-0.6405352748004387
 10
2.977375311240924
 20
-0.6659892302762197
 10
2.977375311240924
 20
-0.6659892302762197
 10
2.977375311240924
 20
-0.6659892302762197
 10
3.01357225510896
 20
-0.6496785549261656
 10
3.01357225510896
 20
-0.6496785549261656
 10
3.01357225510896
 20
-0.6496785549261656
 10
3.001687454231311
 20
-0.6233037084096446
 10
3.001687454231311
 20
-0.6233037084096446
 10
3.010801536403
 20
-0.6175264349022882
 10
3.019380793435604
 20
-0.6109205144904183
 10
3.027303934442847
 20
-0.6035613961594083
 10
3.027303934442847
 20
-0.6035613961594083
 10
3.041919074348091
 20
-0.6219978208339019
 10
3.041919074348091
 20
-0.6219978208339019
 10
3.041919074348091
 20
-0.6219978208339019
 10
3.073031444554582
 20
-0.5973337542221896
 10
3.073031444554582
 20
-0.5973337542221896
 10
3.073031444554582
 20
-0.5973337542221896
 10
3.053659918047224
 20
-0.5728993935967992
 10
3.053659918047224
 20
-0.5728993935967992
 10
3.070111930635789
 20
-0.5487991272799869
 10
3.081116113198314
 20
-0.5203703630072975
 10
3.084762469550393
 20
-0.4895530698960076
 97
        0
 97
        1
330
88
 75
     2
 76
     1
 98
        1
 10
0.0
 20
0.0
450
        0
451
        0
460
0.0
461
0.0
452
        0
462
0.0
453
        0
470

  0
INSERT
  5
8B
330
70
100
AcDbEntity
  8
Layer 1
100
AcDbBlockReference
  2
Block_2
 10
0.0
 20
0.0
 30
0.0
  0
INSERT
  5
92
330
70
100
AcDbEntity
  8
Layer 1
100
AcDbBlockReference
  2
Block_3
 10
0.0
 20
0.0
 30
0.0
  0
SPLINE
  5
99
330
70
100
AcDbEntity
  8
Layer 1
100
AcDbSpline
210
0.0
220
0.0
230
1.0
 70
     9
 71
     3
 72
   143
 73
   139
 74
     0
 42
0.0000000001
 43
0.0000000001
 40
0.0
 40
0.0
 40
0.0
 40
0.0
 40
1.0
 40
1.0
 40
1.0
 40
2.0
 40
2.0
 40
2.0
 40
3.0
 40
3.0
 40
3.0
 40
4.0
 40
4.0
 40
4.0
 40
5.0
 40
5.0
 40
5.0
 40
6.0
 40
6.0
 40
6.0
 40
7.0
 40
7.0
 40
7.0
 40
8.0
 40
8.0
 40
8.0
 40
9.0
 40
9.0
 40
9.0
 40
10.0
 40
10.0
 40
10.0
 40
11.0
 40
11.0
 40
11.0
 40
12.0
 40
12.0
 40
12.0
 40
13.0
 40
13.0
 40
13.0
 40
14.0
 40
14.0
 40
14.0
 40
15.0
 40
15.0
 40
15.0
 40
16.0
 40
16.0
 40
16.0
 40
17.0
 40
17.0
 40
17.0
 40
18.0
 40
18.0
 40
18.0
 40
19.0
 40
19.0
 40
19.0
 40
20.0
 40
20.0
 40
20.0
 40
21.0
 40
21.0
 40
21.0
 40
22.0
 40
22.0
 40
22.0
 40
23.0
 40
23.0
 40
23.0
 40
24.0
 40
24.0
 40
24.0
 40
25.0
 40
25.0
 40
25.0
 40
26.0
 40
26.0
 40
26.0
 40
27.0
 40
27.0
 40
27.0
 40
28.0
 40
28.0
 40
28.0
 40
29.0
 40
29.0
 40
29.0
 40
30.0
 40
30.0
 40
30.0
 40
31.0
 40
31.0
 40
31.0
 40
32.0
 40
32.0
 40
32.0
 40
33.0
 40
33.0
 40
33.0
 40
34.0
 40
34.0
 40
34.0
 40
35.0
 40
35.0
 40
35.0
 40
36.0
 40
36.0
 40
36.0
 40
37.0
 40
37.0
 40
37.0
 40
38.0
 40
38.0
 40
38.0
 40
39.0
 40
39.0
 40
39.0
 40
40.0
 40
40.0
 40
40.0
 40
41.0
 40
41.0
 40
41.0
 40
42.0
 40
42.0
 40
42.0
 40
43.0
 40
43.0
 40
43.0
 40
44.0
 40
44.0
 40
44.0
 40
45.0
 40
45.0
 40
45.0
 40
46.0
 40
46.0
 40
46.0
 40
46.0
 10
3.714594484022591
 20
-0.4895530698960076
 30
0.0
 10
3.709684098810359
 20
-0.4972341383495783
 30
0.0
 10
3.70378202456191
 20
-0.5045227170469767
 30
0.0
 10
3.697032182797063
 20
-0.5113557595758114
 30
0.0
 10
3.697032182797063
 20
-0.5113557595758114
 30
0.0
 10
3.70286345902678
 20
-0.5187112604896937
 30
0.0
 10
3.70286345902678
 20
-0.5187112604896937
 30
0.0
 10
3.70286345902678
 20
-0.5187112604896937
 30
0.0
 10
3.671751088820276
 20
-0.5433766190360782
 30
0.0
 10
3.671751088820276
 20
-0.5433766190360782
 30
0.0
 10
3.671751088820276
 20
-0.5433766190360782
 30
0.0
 10
3.665864259400677
 20
-0.5359503201016575
 30
0.0
 10
3.665864259400677
 20
-0.5359503201016575
 30
0.0
 10
3.654615384415706
 20
-0.5429058380382609
 30
0.0
 10
3.64221568967447
 20
-0.548937881064742
 30
0.0
 10
3.628890123306758
 20
-0.5538862492806326
 30
0.0
 10
3.628890123306758
 20
-0.5538862492806326
 30
0.0
 10
3.642599358636427
 20
-0.5843084687664183
 30
0.0
 10
3.642599358636427
 20
-0.5843084687664183
 30
0.0
 10
3.642599358636427
 20
-0.5843084687664183
 30
0.0
 10
3.642155191504254
 20
-0.5846616837082542
 30
0.0
 10
3.642155191504254
 20
-0.5846616837082542
 30
0.0
 10
3.642155191504254
 20
-0.5846616837082542
 30
0.0
 10
3.6433210333311
 20
-0.586136556340307
 30
0.0
 10
3.6433210333311
 20
-0.586136556340307
 30
0.0
 10
3.6433210333311
 20
-0.586136556340307
 30
0.0
 10
3.607207325713122
 20
-0.602410540745407
 30
0.0
 10
3.607207325713122
 20
-0.602410540745407
 30
0.0
 10
3.607207325713122
 20
-0.602410540745407
 30
0.0
 10
3.590177559949741
 20
-0.5646126661646981
 30
0.0
 10
3.590177559949741
 20
-0.5646126661646981
 30
0.0
 10
3.580583911636495
 20
-0.5664407537385867
 30
0.0
 10
3.570687433841637
 20
-0.5677365642238278
 30
0.0
 10
3.560561508453196
 20
-0.5684796850524537
 30
0.0
 10
3.560561508453196
 20
-0.5684796850524537
 30
0.0
 10
3.560712923194008
 20
-0.6144986567834394
 30
0.0
 10
3.560712923194008
 20
-0.6144986567834394
 30
0.0
 10
3.560712923194008
 20
-0.6144986567834394
 30
0.0
 10
3.521008670800761
 20
-0.6146273334776803
 30
0.0
 10
3.521008670800761
 20
-0.6146273334776803
 30
0.0
 10
3.521008670800761
 20
-0.6146273334776803
 30
0.0
 10
3.52085725605995
 20
-0.5684708998966118
 30
0.0
 10
3.52085725605995
 20
-0.5684708998966118
 30
0.0
 10
3.510259257750905
 20
-0.567687470705942
 30
0.0
 10
3.499926364431757
 20
-0.5662844296421731
 30
0.0
 10
3.489916196387841
 20
-0.5643188802182142
 30
0.0
 10
3.489916196387841
 20
-0.5643188802182142
 30
0.0
 10
3.472750260712498
 20
-0.602410540745407
 30
0.0
 10
3.472750260712498
 20
-0.602410540745407
 30
0.0
 10
3.472750260712498
 20
-0.602410540745407
 30
0.0
 10
3.436636553094533
 20
-0.586136556340307
 30
0.0
 10
3.436636553094533
 20
-0.586136556340307
 30
0.0
 10
3.436636553094533
 20
-0.586136556340307
 30
0.0
 10
3.437804978790672
 20
-0.5846616837082542
 30
0.0
 10
3.437804978790672
 20
-0.5846616837082542
 30
0.0
 10
3.437804978790672
 20
-0.5846616837082542
 30
0.0
 10
3.437358227789192
 20
-0.5843084687664183
 30
0.0
 10
3.437358227789192
 20
-0.5843084687664183
 30
0.0
 10
3.437358227789192
 20
-0.5843084687664183
 30
0.0
 10
3.451304662320353
 20
-0.5533637908955724
 30
0.0
 10
3.451304662320353
 20
-0.5533637908955724
 30
0.0
 10
3.43807731861457
 20
-0.5483536682018995
 30
0.0
 10
3.425766214961551
 20
-0.5422826087480467
 30
0.0
 10
3.4146207246276
 20
-0.5352867824493993
 30
0.0
 10
3.4146207246276
 20
-0.5352867824493993
 30
0.0
 10
3.408206497605331
 20
-0.5433766190360782
 30
0.0
 10
3.408206497605331
 20
-0.5433766190360782
 30
0.0
 10
3.408206497605331
 20
-0.5433766190360782
 30
0.0
 10
3.377096711268134
 20
-0.5187112604896937
 30
0.0
 10
3.377096711268134
 20
-0.5187112604896937
 30
0.0
 10
3.377096711268134
 20
-0.5187112604896937
 30
0.0
 10
3.383634417363698
 20
-0.5104625159372315
 30
0.0
 10
3.383634417363698
 20
-0.5104625159372315
 30
0.0
 10
3.3772556192299
 20
-0.5038891522793216
 30
0.0
 10
3.371666480347332
 20
-0.4968972017847161
 30
0.0
 10
3.366970527492766
 20
-0.4895530698960076
 30
0.0
 10
3.370561330654949
 20
-0.5199034578134969
 30
0.0
 10
3.381302992096897
 20
-0.5479273297571076
 30
0.0
 10
3.397341068824061
 20
-0.5717903968664789
 30
0.0
 10
3.397341068824061
 20
-0.5717903968664789
 30
0.0
 10
3.377096711268134
 20
-0.5973337542221896
 30
0.0
 10
3.377096711268134
 20
-0.5973337542221896
 30
0.0
 10
3.377096711268134
 20
-0.5973337542221896
 30
0.0
 10
3.408206497605331
 20
-0.6219978208339019
 30
0.0
 10
3.408206497605331
 20
-0.6219978208339019
 30
0.0
 10
3.408206497605331
 20
-0.6219978208339019
 30
0.0
 10
3.423517990286149
 20
-0.6026831389631423
 30
0.0
 10
3.423517990286149
 20
-0.6026831389631423
 30
0.0
 10
3.431340137809292
 20
-0.6100513008369086
 30
0.0
 10
3.439790682345498
 20
-0.6166975296108351
 30
0.0
 10
3.448796500393629
 20
-0.6225076182590783
 30
0.0
 10
3.448796500393629
 20
-0.6225076182590783
 30
0.0
 10
3.436553352503134
 20
-0.6496785549261656
 30
0.0
 10
3.436553352503134
 20
-0.6496785549261656
 30
0.0
 10
3.436553352503134
 20
-0.6496785549261656
 30
0.0
 10
3.472750260712498
 20
-0.6659892302762197
 30
0.0
 10
3.472750260712498
 20
-0.6659892302762197
 30
0.0
 10
3.472750260712498
 20
-0.6659892302762197
 30
0.0
 10
3.484433225739369
 20
-0.640059584450834
 30
0.0
 10
3.484433225739369
 20
-0.640059584450834
 30
0.0
 10
3.496085701108553
 20
-0.6441930002698275
 30
0.0
 10
3.50830120159757
 20
-0.64704042430718
 30
0.0
 10
3.520910225380526
 20
-0.6485266659644191
 30
0.0
 10
3.520910225380526
 20
-0.6485266659644191
 30
0.0
 10
3.521008670800761
 20
-0.678207056556251
 30
0.0
 10
3.521008670800761
 20
-0.678207056556251
 30
0.0
 10
3.521008670800761
 20
-0.678207056556251
 30
0.0
 10
3.560712923194008
 20
-0.6780783798620102
 30
0.0
 10
3.560712923194008
 20
-0.6780783798620102
 30
0.0
 10
3.560712923194008
 20
-0.6780783798620102
 30
0.0
 10
3.560614511341024
 20
-0.6485328672509038
 30
0.0
 10
3.560614511341024
 20
-0.6485328672509038
 30
0.0
 10
3.572739026063547
 20
-0.6471047626543066
 30
0.0
 10
3.584492530722223
 20
-0.6444110788440235
 30
0.0
 10
3.595738821837901
 20
-0.6405352748004387
 30
0.0
 10
3.595738821837901
 20
-0.6405352748004387
 30
0.0
 10
3.607207325713122
 20
-0.6659892302762197
 30
0.0
 10
3.607207325713122
 20
-0.6659892302762197
 30
0.0
 10
3.607207325713122
 20
-0.6659892302762197
 30
0.0
 10
3.643404269581146
 20
-0.6496785549261656
 30
0.0
 10
3.643404269581146
 20
-0.6496785549261656
 30
0.0
 10
3.643404269581146
 20
-0.6496785549261656
 30
0.0
 10
3.631519468703496
 20
-0.6233037084096446
 30
0.0
 10
3.631519468703496
 20
-0.6233037084096446
 30
0.0
 10
3.640633550875185
 20
-0.6175264349022882
 30
0.0
 10
3.649212807907802
 20
-0.6109205144904183
 30
0.0
 10
3.657135948915045
 20
-0.6035613961594083
 30
0.0
 10
3.657135948915045
 20
-0.6035613961594083
 30
0.0
 10
3.671751088820276
 20
-0.6219978208339019
 30
0.0
 10
3.671751088820276
 20
-0.6219978208339019
 30
0.0
 10
3.671751088820276
 20
-0.6219978208339019
 30
0.0
 10
3.70286345902678
 20
-0.5973337542221896
 30
0.0
 10
3.70286345902678
 20
-0.5973337542221896
 30
0.0
 10
3.70286345902678
 20
-0.5973337542221896
 30
0.0
 10
3.683491932519422
 20
-0.5728993935967992
 30
0.0
 10
3.683491932519422
 20
-0.5728993935967992
 30
0.0
 10
3.699943945107975
 20
-0.5487991272799869
 30
0.0
 10
3.7109481276705
 20
-0.5203703630072975
 30
0.0
 10
3.714594484022591
 20
-0.4895530698960076
 30
0.0
  0
HATCH
  5
9A
330
70
100
AcDbEntity
  8
Layer 1
 62
   250
420
  2301728
440
 33554687
100
AcDbHatch
 10
0.0
 20
0.0
 30
0.0
210
0.0
220
0.0
230
1.0
  2
SOLID
 70
     1
 71
     1
 91
        1
 92
        1
 93
        1
 72
     4
 94
        3
 73
     0
 74
     0
 95
      143
 96
      139
 40
0.0
 40
0.0
 40
0.0
 40
0.0
 40
1.0
 40
1.0
 40
1.0
 40
2.0
 40
2.0
 40
2.0
 40
3.0
 40
3.0
 40
3.0
 40
4.0
 40
4.0
 40
4.0
 40
5.0
 40
5.0
 40
5.0
 40
6.0
 40
6.0
 40
6.0
 40
7.0
 40
7.0
 40
7.0
 40
8.0
 40
8.0
 40
8.0
 40
9.0
 40
9.0
 40
9.0
 40
10.0
 40
10.0
 40
10.0
 40
11.0
 40
11.0
 40
11.0
 40
12.0
 40
12.0
 40
12.0
 40
13.0
 40
13.0
 40
13.0
 40
14.0
 40
14.0
 40
14.0
 40
15.0
 40
15.0
 40
15.0
 40
16.0
 40
16.0
 40
16.0
 40
17.0
 40
17.0
 40
17.0
 40
18.0
 40
18.0
 40
18.0
 40
19.0
 40
19.0
 40
19.0
 40
20.0
 40
20.0
 40
20.0
 40
21.0
 40
21.0
 40
21.0
 40
22.0
 40
22.0
 40
22.0
 40
23.0
 40
23.0
 40
23.0
 40
24.0
 40
24.0
 40
24.0
 40
25.0
 40
25.0
 40
25.0
 40
26.0
 40
26.0
 40
26.0
 40
27.0
 40
27.0
 40
27.0
 40
28.0
 40
28.0
 40
28.0
 40
29.0
 40
29.0
 40
29.0
 40
30.0
 40
30.0
 40
30.0
 40
31.0
 40
31.0
 40
31.0
 40
32.0
 40
32.0
 40
32.0
 40
33.0
 40
33.0
 40
33.0
 40
34.0
 40
34.0
 40
34.0
 40
35.0
 40
35.0
 40
35.0
 40
36.0
 40
36.0
 40
36.0
 40
37.0
 40
37.0
 40
37.0
 40
38.0
 40
38.0
 40
38.0
 40
39.0
 40
39.0
 40
39.0
 40
40.0
 40
40.0
 40
40.0
 40
41.0
 40
41.0
 40
41.0
 40
42.0
 40
42.0
 40
42.0
 40
43.0
 40
43.0
 40
43.0
 40
44.0
 40
44.0
 40
44.0
 40
45.0
 40
45.0
 40
45.0
 40
46.0
 40
46.0
 40
46.0
 40
46.0
 10
3.714594484022591
 20
-0.4895530698960076
 10
3.709684098810359
 20
-0.4972341383495783
 10
3.70378202456191
 20
-0.5045227170469767
 10
3.697032182797063
 20
-0.5113557595758114
 10
3.697032182797063
 20
-0.5113557595758114
 10
3.70286345902678
 20
-0.5187112604896937
 10
3.70286345902678
 20
-0.5187112604896937
 10
3.70286345902678
 20
-0.5187112604896937
 10
3.671751088820276
 20
-0.5433766190360782
 10
3.671751088820276
 20
-0.5433766190360782
 10
3.671751088820276
 20
-0.5433766190360782
 10
3.665864259400677
 20
-0.5359503201016575
 10
3.665864259400677
 20
-0.5359503201016575
 10
3.654615384415706
 20
-0.5429058380382609
 10
3.64221568967447
 20
-0.548937881064742
 10
3.628890123306758
 20
-0.5538862492806326
 10
3.628890123306758
 20
-0.5538862492806326
 10
3.642599358636427
 20
-0.5843084687664183
 10
3.642599358636427
 20
-0.5843084687664183
 10
3.642599358636427
 20
-0.5843084687664183
 10
3.642155191504254
 20
-0.5846616837082542
 10
3.642155191504254
 20
-0.5846616837082542
 10
3.642155191504254
 20
-0.5846616837082542
 10
3.6433210333311
 20
-0.586136556340307
 10
3.6433210333311
 20
-0.586136556340307
 10
3.6433210333311
 20
-0.586136556340307
 10
3.607207325713122
 20
-0.602410540745407
 10
3.607207325713122
 20
-0.602410540745407
 10
3.607207325713122
 20
-0.602410540745407
 10
3.590177559949741
 20
-0.5646126661646981
 10
3.590177559949741
 20
-0.5646126661646981
 10
3.580583911636495
 20
-0.5664407537385867
 10
3.570687433841637
 20
-0.5677365642238278
 10
3.560561508453196
 20
-0.5684796850524537
 10
3.560561508453196
 20
-0.5684796850524537
 10
3.560712923194008
 20
-0.6144986567834394
 10
3.560712923194008
 20
-0.6144986567834394
 10
3.560712923194008
 20
-0.6144986567834394
 10
3.521008670800761
 20
-0.6146273334776803
 10
3.521008670800761
 20
-0.6146273334776803
 10
3.521008670800761
 20
-0.6146273334776803
 10
3.52085725605995
 20
-0.5684708998966118
 10
3.52085725605995
 20
-0.5684708998966118
 10
3.510259257750905
 20
-0.567687470705942
 10
3.499926364431757
 20
-0.5662844296421731
 10
3.489916196387841
 20
-0.5643188802182142
 10
3.489916196387841
 20
-0.5643188802182142
 10
3.472750260712498
 20
-0.602410540745407
 10
3.472750260712498
 20
-0.602410540745407
 10
3.472750260712498
 20
-0.602410540745407
 10
3.436636553094533
 20
-0.586136556340307
 10
3.436636553094533
 20
-0.586136556340307
 10
3.436636553094533
 20
-0.586136556340307
 10
3.437804978790672
 20
-0.5846616837082542
 10
3.437804978790672
 20
-0.5846616837082542
 10
3.437804978790672
 20
-0.5846616837082542
 10
3.437358227789192
 20
-0.5843084687664183
 10
3.437358227789192
 20
-0.5843084687664183
 10
3.437358227789192
 20
-0.5843084687664183
 10
3.451304662320353
 20
-0.5533637908955724
 10
3.451304662320353
 20
-0.5533637908955724
 10
3.43807731861457
 20
-0.5483536682018995
 10
3.425766214961551
 20
-0.5422826087480467
 10
3.4146207246276
 20
-0.5352867824493993
 10
3.4146207246276
 20
-0.5352867824493993
 10
3.408206497605331
 20
-0.5433766190360782
 10
3.408206497605331
 20
-0.5433766190360782
 10
3.408206497605331
 20
-0.5433766190360782
 10
3.377096711268134
 20
-0.5187112604896937
 10
3.377096711268134
 20
-0.5187112604896937
 10
3.377096711268134
 20
-0.5187112604896937
 10
3.383634417363698
 20
-0.5104625159372315
 10
3.383634417363698
 20
-0.5104625159372315
 10
3.3772556192299
 20
-0.5038891522793216
 10
3.371666480347332
 20
-0.4968972017847161
 10
3.366970527492766
 20
-0.4895530698960076
 10
3.370561330654949
 20
-0.5199034578134969
 10
3.381302992096897
 20
-0.5479273297571076
 10
3.397341068824061
 20
-0.5717903968664789
 10
3.397341068824061
 20
-0.5717903968664789
 10
3.377096711268134
 20
-0.5973337542221896
 10
3.377096711268134
 20
-0.5973337542221896
 10
3.377096711268134
 20
-0.5973337542221896
 10
3.408206497605331
 20
-0.6219978208339019
 10
3.408206497605331
 20
-0.6219978208339019
 10
3.408206497605331
 20
-0.6219978208339019
 10
3.423517990286149
 20
-0.6026831389631423
 10
3.423517990286149
 20
-0.6026831389631423
 10
3.431340137809292
 20
-0.6100513008369086
 10
3.439790682345498
 20
-0.6166975296108351
 10
3.448796500393629
 20
-0.6225076182590783
 10
3.448796500393629
 20
-0.6225076182590783
 10
3.436553352503134
 20
-0.6496785549261656
 10
3.436553352503134
 20
-0.6496785549261656
 10
3.436553352503134
 20
-0.6496785549261656
 10
3.472750260712498
 20
-0.6659892302762197
 10
3.472750260712498
 20
-0.6659892302762197
 10
3.472750260712498
 20
-0.6659892302762197
 10
3.484433225739369
 20
-0.640059584450834
 10
3.484433225739369
 20
-0.640059584450834
 10
3.496085701108553
 20
-0.6441930002698275
 10
3.50830120159757
 20
-0.64704042430718
 10
3.520910225380526
 20
-0.6485266659644191
 10
3.520910225380526
 20
-0.6485266659644191
 10
3.521008670800761
 20
-0.678207056556251
 10
3.521008670800761
 20
-0.678207056556251
 10
3.521008670800761
 20
-0.678207056556251
 10
3.560712923194008
 20
-0.6780783798620102
 10
3.560712923194008
 20
-0.6780783798620102
 10
3.560712923194008
 20
-0.6780783798620102
 10
3.560614511341024
 20
-0.6485328672509038
 10
3.560614511341024
 20
-0.6485328672509038
 10
3.572739026063547
 20
-0.6471047626543066
 10
3.584492530722223
 20
-0.6444110788440235
 10
3.595738821837901
 20
-0.6405352748004387
 10
3.595738821837901
 20
-0.6405352748004387
 10
3.607207325713122
 20
-0.6659892302762197
 10
3.607207325713122
 20
-0.6659892302762197
 10
3.607207325713122
 20
-0.6659892302762197
 10
3.643404269581146
 20
-0.6496785549261656
 10
3.643404269581146
 20
-0.6496785549261656
 10
3.643404269581146
 20
-0.6496785549261656
 10
3.631519468703496
 20
-0.6233037084096446
 10
3.631519468703496
 20
-0.6233037084096446
 10
3.640633550875185
 20
-0.6175264349022882
 10
3.649212807907802
 20
-0.6109205144904183
 10
3.657135948915045
 20
-0.6035613961594083
 10
3.657135948915045
 20
-0.6035613961594083
 10
3.671751088820276
 20
-0.6219978208339019
 10
3.671751088820276
 20
-0.6219978208339019
 10
3.671751088820276
 20
-0.6219978208339019
 10
3.70286345902678
 20
-0.5973337542221896
 10
3.70286345902678
 20
-0.5973337542221896
 10
3.70286345902678
 20
-0.5973337542221896
 10
3.683491932519422
 20
-0.5728993935967992
 10
3.683491932519422
 20
-0.5728993935967992
 10
3.699943945107975
 20
-0.5487991272799869
 10
3.7109481276705
 20
-0.5203703630072975
 10
3.714594484022591
 20
-0.4895530698960076
 97
        0
 97
        1
330
99
 75
     2
 76
     1
 98
        1
 10
0.0
 20
0.0
450
        0
451
        0
460
0.0
461
0.0
452
        0
462
0.0
453
        0
470

  0
ENDSEC
  0
SECTION
  2
OBJECTS
  0
DICTIONARY
  5
C
330
0
100
AcDbDictionary
281
     1
  3
ACAD_COLOR
350
63
  3
ACAD_DETAILVIEWSTYLE
350
6A
  3
ACAD_GROUP
350
D
  3
ACAD_LAYOUT
350
62
  3
ACAD_MATERIAL
350
10
  3
ACAD_MLEADERSTYLE
350
66
  3
ACAD_MLINESTYLE
350
5F
  3
ACAD_PLOTSETTINGS
350
61
  3
ACAD_PLOTSTYLENAME
350
E
  3
ACAD_SCALELIST
350
42
  3
ACAD_SECTIONVIEWSTYLE
350
68
  3
ACAD_TABLESTYLE
350
64
  3
ACAD_VISUALSTYLE
350
29
  3
ACDB_RECOMPOSE_DATA
350
A3
  3
AcDbVariableDictionary
350
9B
  0
DICTIONARY
  5
63
102
{ACAD_REACTORS
330
C
102
}
330
C
100
AcDbDictionary
281
     1
  0
DICTIONARY
  5
6A
102
{ACAD_REACTORS
330
C
102
}
330
C
100
AcDbDictionary
281
     1
  3
Imperial24
350
6B
  0
DICTIONARY
  5
D
102
{ACAD_REACTORS
330
C
102
}
330
C
100
AcDbDictionary
281
     1
  0
DICTIONARY
  5
62
102
{ACAD_REACTORS
330
C
102
}
330
C
100
AcDbDictionary
281
     1
  3
Layout1
350
6F
  3
Layout2
350
77
  3
Model
350
73
  0
DICTIONARY
  5
10
102
{ACAD_REACTORS
330
C
102
}
330
C
100
AcDbDictionary
281
     1
  3
ByBlock
350
19
  3
ByLayer
350
11
  3
Global
350
21
  0
DICTIONARY
  5
66
102
{ACAD_REACTORS
330
C
102
}
330
C
100
AcDbDictionary
281
     1
  3
Standard
350
67
  0
DICTIONARY
  5
5F
102
{ACAD_REACTORS
330
C
102
}
330
C
100
AcDbDictionary
281
     1
  3
Standard
350
60
  0
DICTIONARY
  5
61
102
{ACAD_REACTORS
330
C
102
}
330
C
100
AcDbDictionary
281
     1
  0
ACDBDICTIONARYWDFLT
  5
E
102
{ACAD_REACTORS
330
C
102
}
330
C
100
AcDbDictionary
281
     1
  3
Normal
350
F
100
AcDbDictionaryWithDefault
340
F
  0
DICTIONARY
  5
42
102
{ACAD_REACTORS
330
C
102
}
330
C
100
AcDbDictionary
281
     1
  3
A0
350
43
  3
A1
350
44
  3
A2
350
45
  3
A3
350
46
  3
A4
350
47
  3
A5
350
48
  3
A6
350
49
  3
A7
350
4A
  3
A8
350
4B
  3
A9
350
4C
  3
B0
350
4D
  3
B1
350
4E
  3
B2
350
4F
  3
B3
350
50
  3
B4
350
51
  3
B5
350
52
  3
B6
350
53
  0
DICTIONARY
  5
68
102
{ACAD_REACTORS
330
C
102
}
330
C
100
AcDbDictionary
281
     1
  3
Imperial24
350
69
  0
DICTIONARY
  5
64
102
{ACAD_REACTORS
330
C
102
}
330
C
100
AcDbDictionary
281
     1
  3
Standard
350
65
  0
DICTIONARY
  5
29
102
{ACAD_REACTORS
330
C
102
}
330
C
100
AcDbDictionary
281
     1
  3
2dWireframe
350
2F
  3
Basic
350
2E
  3
Brighten
350
35
  3
ColorChange
350
39
  3
Conceptual
350
32
  3
Dim
350
34
  3
EdgeColorOff
350
41
  3
Facepattern
350
38
  3
Flat
350
2A
  3
FlatWithEdges
350
2B
  3
Gouraud
350
2C
  3
GouraudWithEdges
350
2D
  3
Hidden
350
31
  3
JitterOff
350
3F
  3
Linepattern
350
37
  3
OverhangOff
350
40
  3
Realistic
350
33
  3
Shaded
350
3E
  3
Shaded with edges
350
3D
  3
Shades of Gray
350
3A
  3
Sketchy
350
3B
  3
Thicken
350
36
  3
Wireframe
350
30
  3
X-Ray
350
3C
  0
XRECORD
  5
A3
102
{ACAD_REACTORS
330
C
102
}
330
C
100
AcDbXrecord
280
     1
 90
        1
330
65
  0
DICTIONARY
  5
9B
102
{ACAD_REACTORS
330
C
102
}
330
C
100
AcDbDictionary
281
     1
  3
CANNOSCALE
350
A0
  3
CMLEADERSTYLE
350
9D
  3
CTABLESTYLE
350
9C
  3
CVIEWDETAILSTYLE
350
9E
  3
CVIEWSECTIONSTYLE
350
9F
  0
ACDBDETAILVIEWSTYLE
  5
6B
102
{ACAD_REACTORS
330
6A
102
}
330
6A
100
AcDbModelDocViewStyle
 70
     0
  3
Imperial24
290
     1
300
Imperial24
 90
        0
100
AcDbDetailViewStyle
 70
     0
 71
     0
 90
        3
 71
     1
340
55
 62
   256
 40
0.24
340
0
 62
   256
 40
0.24
300

 40
0.36
280
     3
 71
     2
340
5D
 90
       25
 62
   256
 71
     3
340
55
 62
   256
 40
0.24
 90
        1
 40
0.75
 90
        1
300
%<\AcVar ViewType \f "%tc1">% %<\AcVar ViewDetailId>%\PSCALE %<\AcVar ViewScale \f "%sn">%
 71
     4
340
5D
 90
       25
 62
   256
340
5D
 90
       25
 62
   256
280
     0
  0
LAYOUT
  5
6F
102
{ACAD_REACTORS
330
62
102
}
330
62
100
AcDbPlotSettings
  1

  2

  4

  6

 40
0.0
 41
0.0
 42
0.0
 43
0.0
 44
0.0
 45
0.0
 46
0.0
 47
0.0
 48
0.0
 49
0.0
140
0.0
141
0.0
142
1.0
143
1.0
 70
   688
 72
     0
 73
     0
 74
     5
  7

 75
    16
147
1.0
 76
     0
 77
     2
 78
   300
148
0.0
149
0.0
100
AcDbLayout
  1
Layout1
 70
     1
 71
     1
 10
0.0
 20
0.0
 11
12.0
 21
9.0
 12
0.0
 22
0.0
 32
0.0
 14
0.0
 24
0.0
 34
0.0
 15
0.0
 25
0.0
 35
0.0
146
0.0
 13
0.0
 23
0.0
 33
0.0
 16
1.0
 26
0.0
 36
0.0
 17
0.0
 27
1.0
 37
0.0
 76
     0
330
6C
  0
LAYOUT
  5
77
102
{ACAD_REACTORS
330
62
102
}
330
62
100
AcDbPlotSettings
  1

  2

  4

  6

 40
0.0
 41
0.0
 42
0.0
 43
0.0
 44
0.0
 45
0.0
 46
0.0
 47
0.0
 48
0.0
 49
0.0
140
0.0
141
0.0
142
1.0
143
1.0
 70
   688
 72
     0
 73
     0
 74
     5
  7

 75
    16
147
1.0
 76
     0
 77
     2
 78
   300
148
0.0
149
0.0
100
AcDbLayout
  1
Layout2
 70
     1
 71
     2
 10
0.0
 20
0.0
 11
12.0
 21
9.0
 12
0.0
 22
0.0
 32
0.0
 14
0.0
 24
0.0
 34
0.0
 15
0.0
 25
0.0
 35
0.0
146
0.0
 13
0.0
 23
0.0
 33
0.0
 16
1.0
 26
0.0
 36
0.0
 17
0.0
 27
1.0
 37
0.0
 76
     0
330
74
  0
LAYOUT
  5
73
102
{ACAD_REACTORS
330
62
102
}
330
62
100
AcDbPlotSettings
  1

  2

  4

  6

 40
0.0
 41
0.0
 42
0.0
 43
0.0
 44
0.0
 45
0.0
 46
0.0
 47
0.0
 48
0.0
 49
0.0
140
0.0
141
0.0
142
1.0
143
1.0
 70
  1712
 72
     0
 73
     0
 74
     0
  7

 75
     0
147
1.0
 76
     0
 77
     2
 78
   300
148
0.0
149
0.0
100
AcDbLayout
  1
Model
 70
     1
 71
     0
 10
0.0
 20
0.0
 11
12.0
 21
9.0
 12
0.0
 22
0.0
 32
0.0
 14
0.0
 24
0.0
 34
0.0
 15
0.0
 25
0.0
 35
0.0
146
0.0
 13
0.0
 23
0.0
 33
0.0
 16
1.0
 26
0.0
 36
0.0
 17
0.0
 27
1.0
 37
0.0
 76
     0
330
70
  0
MATERIAL
  5
19
102
{ACAD_XDICTIONARY
360
1A
102
}
102
{ACAD_REACTORS
330
10
102
}
330
10
100
AcDbMaterial
  1
ByBlock
 72
     0
 43
0.0208333333333333
 43
0.0
 43
0.0
 43
0.0
 43
0.0
 43
0.0208333333333333
 43
0.0
 43
0.0
 43
0.0
 43
0.0
 43
1.0
 43
0.0
 43
0.0
 43
0.0
 43
0.0
 43
1.0
 77
     0
 47
0.0208333333333333
 47
0.0
 47
0.0
 47
0.0
 47
0.0
 47
0.0208333333333333
 47
0.0
 47
0.0
 47
0.0
 47
0.0
 47
1.0
 47
0.0
 47
0.0
 47
0.0
 47
0.0
 47
1.0
171
     0
 49
0.0208333333333333
 49
0.0
 49
0.0
 49
0.0
 49
0.0
 49
0.0208333333333333
 49
0.0
 49
0.0
 49
0.0
 49
0.0
 49
1.0
 49
0.0
 49
0.0
 49
0.0
 49
0.0
 49
1.0
175
     0
142
0.0208333333333333
142
0.0
142
0.0
142
0.0
142
0.0
142
0.0208333333333333
142
0.0
142
0.0
142
0.0
142
0.0
142
1.0
142
0.0
142
0.0
142
0.0
142
0.0
142
1.0
179
     0
144
0.0208333333333333
144
0.0
144
0.0
144
0.0
144
0.0
144
0.0208333333333333
144
0.0
144
0.0
144
0.0
144
0.0
144
1.0
144
0.0
144
0.0
144
0.0
144
0.0
144
1.0
147
0.0208333333333333
147
0.0
147
0.0
147
0.0
147
0.0
147
0.0208333333333333
147
0.0
147
0.0
147
0.0
147
0.0
147
1.0
147
0.0
147
0.0
147
0.0
147
0.0
147
1.0
  0
MATERIAL
  5
11
102
{ACAD_XDICTIONARY
360
12
102
}
102
{ACAD_REACTORS
330
10
102
}
330
10
100
AcDbMaterial
  1
ByLayer
 72
     0
 43
0.0208333333333333
 43
0.0
 43
0.0
 43
0.0
 43
0.0
 43
0.0208333333333333
 43
0.0
 43
0.0
 43
0.0
 43
0.0
 43
1.0
 43
0.0
 43
0.0
 43
0.0
 43
0.0
 43
1.0
 77
     0
 47
0.0208333333333333
 47
0.0
 47
0.0
 47
0.0
 47
0.0
 47
0.0208333333333333
 47
0.0
 47
0.0
 47
0.0
 47
0.0
 47
1.0
 47
0.0
 47
0.0
 47
0.0
 47
0.0
 47
1.0
171
     0
 49
0.0208333333333333
 49
0.0
 49
0.0
 49
0.0
 49
0.0
 49
0.0208333333333333
 49
0.0
 49
0.0
 49
0.0
 49
0.0
 49
1.0
 49
0.0
 49
0.0
 49
0.0
 49
0.0
 49
1.0
175
     0
142
0.0208333333333333
142
0.0
142
0.0
142
0.0
142
0.0
142
0.0208333333333333
142
0.0
142
0.0
142
0.0
142
0.0
142
1.0
142
0.0
142
0.0
142
0.0
142
0.0
142
1.0
179
     0
144
0.0208333333333333
144
0.0
144
0.0
144
0.0
144
0.0
144
0.0208333333333333
144
0.0
144
0.0
144
0.0
144
0.0
144
1.0
144
0.0
144
0.0
144
0.0
144
0.0
144
1.0
147
0.0208333333333333
147
0.0
147
0.0
147
0.0
147
0.0
147
0.0208333333333333
147
0.0
147
0.0
147
0.0
147
0.0
147
1.0
147
0.0
147
0.0
147
0.0
147
0.0
147
1.0
  0
MATERIAL
  5
21
102
{ACAD_XDICTIONARY
360
22
102
}
102
{ACAD_REACTORS
330
10
102
}
330
10
100
AcDbMaterial
  1
Global
 72
     0
 43
0.0208333333333333
 43
0.0
 43
0.0
 43
0.0
 43
0.0
 43
0.0208333333333333
 43
0.0
 43
0.0
 43
0.0
 43
0.0
 43
1.0
 43
0.0
 43
0.0
 43
0.0
 43
0.0
 43
1.0
 77
     0
 47
0.0208333333333333
 47
0.0
 47
0.0
 47
0.0
 47
0.0
 47
0.0208333333333333
 47
0.0
 47
0.0
 47
0.0
 47
0.0
 47
1.0
 47
0.0
 47
0.0
 47
0.0
 47
0.0
 47
1.0
171
     0
 49
0.0208333333333333
 49
0.0
 49
0.0
 49
0.0
 49
0.0
 49
0.0208333333333333
 49
0.0
 49
0.0
 49
0.0
 49
0.0
 49
1.0
 49
0.0
 49
0.0
 49
0.0
 49
0.0
 49
1.0
175
     0
142
0.0208333333333333
142
0.0
142
0.0
142
0.0
142
0.0
142
0.0208333333333333
142
0.0
142
0.0
142
0.0
142
0.0
142
1.0
142
0.0
142
0.0
142
0.0
142
0.0
142
1.0
179
     0
144
0.0208333333333333
144
0.0
144
0.0
144
0.0
144
0.0
144
0.0208333333333333
144
0.0
144
0.0
144
0.0
144
0.0
144
1.0
144
0.0
144
0.0
144
0.0
144
0.0
144
1.0
147
0.0208333333333333
147
0.0
147
0.0
147
0.0
147
0.0
147
0.0208333333333333
147
0.0
147
0.0
147
0.0
147
0.0
147
1.0
147
0.0
147
0.0
147
0.0
147
0.0
147
1.0
  0
MLEADERSTYLE
  5
67
102
{ACAD_REACTORS
330
66
102
}
330
66
100
AcDbMLeaderStyle
179
     2
170
     2
171
     1
172
     0
 90
        2
 40
0.0
 41
0.0
173
     1
 91
-1056964608
340
5B
 92
       -2
290
     1
 42
0.09
291
     1
 43
0.36
  3
Standard
 44
0.18
300

342
55
174
     1
178
     6
175
     1
176
     0
 93
-1056964608
 45
0.18
292
     0
297
     0
 46
0.18
 94
-1056964608
 47
1.0
 49
1.0
140
1.0
293
     1
141
0.0
294
     1
177
     0
142
1.0
295
     1
296
     0
143
0.125
271
     0
272
     9
273
     9
298
     1
  0
MLINESTYLE
  5
60
102
{ACAD_REACTORS
330
5F
102
}
330
5F
100
AcDbMlineStyle
  2
STANDARD
 70
     0
  3

 62
   256
 51
90.0
 52
90.0
 71
     2
 49
0.5
 62
   256
  6
BYLAYER
 49
-0.5
 62
   256
  6
BYLAYER
  0
ACDBPLACEHOLDER
  5
F
102
{ACAD_REACTORS
330
E
102
}
330
E
  0
SCALE
  5
43
102
{ACAD_REACTORS
330
42
102
}
330
42
100
AcDbScale
 70
     0
300
1:1
140
1.0
141
1.0
290
     1
  0
SCALE
  5
44
102
{ACAD_REACTORS
330
42
102
}
330
42
100
AcDbScale
 70
     0
300
1/128" = 1'-0"
140
0.0078125
141
12.0
290
     0
  0
SCALE
  5
45
102
{ACAD_REACTORS
330
42
102
}
330
42
100
AcDbScale
 70
     0
300
1/64" = 1'-0"
140
0.015625
141
12.0
290
     0
  0
SCALE
  5
46
102
{ACAD_REACTORS
330
42
102
}
330
42
100
AcDbScale
 70
     0
300
1/32" = 1'-0"
140
0.03125
141
12.0
290
     0
  0
SCALE
  5
47
102
{ACAD_REACTORS
330
42
102
}
330
42
100
AcDbScale
 70
     0
300
1/16" = 1'-0"
140
0.0625
141
12.0
290
     0
  0
SCALE
  5
48
102
{ACAD_REACTORS
330
42
102
}
330
42
100
AcDbScale
 70
     0
300
3/32" = 1'-0"
140
0.09375
141
12.0
290
     0
  0
SCALE
  5
49
102
{ACAD_REACTORS
330
42
102
}
330
42
100
AcDbScale
 70
     0
300
1/8" = 1'-0"
140
0.125
141
12.0
290
     0
  0
SCALE
  5
4A
102
{ACAD_REACTORS
330
42
102
}
330
42
100
AcDbScale
 70
     0
300
3/16" = 1'-0"
140
0.1875
141
12.0
290
     0
  0
SCALE
  5
4B
102
{ACAD_REACTORS
330
42
102
}
330
42
100
AcDbScale
 70
     0
300
1/4" = 1'-0"
140
0.25
141
12.0
290
     0
  0
SCALE
  5
4C
102
{ACAD_REACTORS
330
42
102
}
330
42
100
AcDbScale
 70
     0
300
3/8" = 1'-0"
140
0.375
141
12.0
290
     0
  0
SCALE
  5
4D
102
{ACAD_REACTORS
330
42
102
}
330
42
100
AcDbScale
 70
     0
300
1/2" = 1'-0"
140
0.5
141
12.0
290
     0
  0
SCALE
  5
4E
102
{ACAD_REACTORS
330
42
102
}
330
42
100
AcDbScale
 70
     0
300
3/4" = 1'-0"
140
0.75
141
12.0
290
     0
  0
SCALE
  5
4F
102
{ACAD_REACTORS
330
42
102
}
330
42
100
AcDbScale
 70
     0
300
1" = 1'-0"
140
1.0
141
12.0
290
     0
  0
SCALE
  5
50
102
{ACAD_REACTORS
330
42
102
}
330
42
100
AcDbScale
 70
     0
300
1-1/2" = 1'-0"
140
1.5
141
12.0
290
     0
  0
SCALE
  5
51
102
{ACAD_REACTORS
330
42
102
}
330
42
100
AcDbScale
 70
     0
300
3" = 1'-0"
140
3.0
141
12.0
290
     0
  0
SCALE
  5
52
102
{ACAD_REACTORS
330
42
102
}
330
42
100
AcDbScale
 70
     0
300
6" = 1'-0"
140
6.0
141
12.0
290
     0
  0
SCALE
  5
53
102
{ACAD_REACTORS
330
42
102
}
330
42
100
AcDbScale
 70
     0
300
1'-0" = 1'-0"
140
12.0
141
12.0
290
     0
  0
ACDBSECTIONVIEWSTYLE
  5
69
102
{ACAD_REACTORS
330
68
102
}
330
68
100
AcDbModelDocViewStyle
 70
     0
  3
Imperial24
290
     1
300
Imperial24
 90
        0
100
AcDbSectionViewStyle
 70
     0
 71
     0
 90
       78
 71
     1
340
55
 62
   256
 40
0.24
340
0
340
0
 62
   256
 40
0.24
300
I, O, Q, S, X, Z
 40
0.48
 90
        3
 40
0.18
 90
        1
 71
     2
340
5D
 90
       25
 62
   256
340
5D
 90
       50
 62
   256
 40
0.24
 40
0.0
 40
0.24
 71
     3
340
55
 62
   256
 40
0.24
 90
        1
 40
0.75
 90
        1
300
%<\AcVar ViewType \f "%tc1">% %<\AcVar ViewSectionStartId>%-%<\AcVar ViewSectionEndId>%\PSCALE %<\AcVar ViewScale \f "%sn">%
 71
     4
 62
   256
 62
   257
300
ANSI31
 40
1.0
 90
        0
290
     0
290
     0
 90
        6
 40
0.0
 40
1.570796326794896
 40
0.2617993877991494
 40
1.308996938995747
 40
-0.2617993877991494
 40
1.832595714594046
  0
TABLESTYLE
  5
65
102
{ACAD_XDICTIONARY
360
A1
102
}
102
{ACAD_REACTORS
330
64
102
}
330
64
100
AcDbTableStyle
280
     0
  3
Standard
 70
     0
 71
     0
 40
0.06
 41
0.06
280
     0
281
     0
  7
Standard
140
0.18
170
     2
 62
     0
 63
     7
283
     0
 90
      512
 91
        0
  1

274
    -2
284
     1
 64
     0
275
    -2
285
     1
 65
     0
276
    -2
286
     1
 66
     0
277
    -2
287
     1
 67
     0
278
    -2
288
     1
 68
     0
279
    -2
289
     1
 69
     0
  7
Standard
140
0.25
170
     5
 62
     0
 63
     7
283
     0
 90
      512
 91
        0
  1

274
    -2
284
     1
 64
     0
275
    -2
285
     1
 65
     0
276
    -2
286
     1
 66
     0
277
    -2
287
     1
 67
     0
278
    -2
288
     1
 68
     0
279
    -2
289
     1
 69
     0
  7
Standard
140
0.18
170
     5
 62
     0
 63
     7
283
     0
 90
      512
 91
        0
  1

274
    -2
284
     1
 64
     0
275
    -2
285
     1
 65
     0
276
    -2
286
     1
 66
     0
277
    -2
287
     1
 67
     0
278
    -2
288
     1
 68
     0
279
    -2
289
     1
 69
     0
  0
VISUALSTYLE
  5
2F
102
{ACAD_REACTORS
330
29
102
}
330
29
100
AcDbVisualStyle
  2
2dWireframe
 70
     4
177
     3
291
     0
 70
    58
 90
        0
176
     1
 90
        2
176
     1
 90
        0
176
     1
 90
        0
176
     1
 40
0.6
176
     1
 40
30.0
176
     1
 62
     7
420
 16777215
176
     1
 90
        1
176
     1
 90
        4
176
     1
 62
     7
176
     1
 62
   257
176
     1
 90
        1
176
     1
 90
        1
176
     1
 40
1.0
176
     1
 90
        0
176
     1
 62
   257
176
     1
 40
1.0
176
     1
 90
        1
176
     1
 90
        6
176
     1
 90
        2
176
     1
 62
     7
176
     1
 90
        5
176
     1
 90
        0
176
     1
 90
        0
176
     1
290
     0
176
     1
 90
        1
176
     1
 40
0.0
176
     1
 90
        0
176
     1
290
     1
176
     1
290
     1
176
     1
290
     0
176
     1
290
     0
176
     1
290
     0
176
     1
290
     0
176
     1
290
     0
176
     1
290
     0
176
     1
290
     0
176
     1
 90
       50
176
     1
 40
0.0
176
     1
 40
1.0
176
     1
 90
        0
176
     1
 62
    18
420
        0
176
     1
 90
       50
176
     1
 90
        3
176
     1
 62
     5
420
      255
176
     1
290
     0
176
     1
 90
       50
176
     1
 90
       50
176
     1
 90
       50
176
     1
290
     0
176
     1
 90
       50
176
     1
 62
   256
176
     0
 40
1.0
176
     0
 90
        2
176
     1
  1
strokes_ogs.tif
176
     1
290
     0
176
     1
 40
1.0
176
     1
 40
1.0
176
     1
  0
VISUALSTYLE
  5
2E
102
{ACAD_REACTORS
330
29
102
}
330
29
100
AcDbVisualStyle
  2
Basic
 70
     7
177
     3
291
     1
 70
    58
 90
        1
176
     1
 90
        0
176
     1
 90
        1
176
     1
 90
        0
176
     1
 40
0.6
176
     1
 40
30.0
176
     1
 62
     7
420
 16777215
176
     1
 90
        0
176
     1
 90
        4
176
     1
 62
     7
176
     1
 62
   257
176
     1
 90
        1
176
     1
 90
        1
176
     1
 40
1.0
176
     1
 90
        8
176
     1
 62
     7
176
     1
 40
1.0
176
     1
 90
        1
176
     1
 90
        6
176
     1
 90
        2
176
     1
 62
     7
176
     1
 90
        5
176
     1
 90
        0
176
     1
 90
        0
176
     1
290
     0
176
     1
 90
        1
176
     1
 40
0.0
176
     1
 90
        0
176
     1
290
     0
176
     1
290
     1
176
     1
290
     1
176
     1
290
     0
176
     1
290
     0
176
     1
290
     0
176
     1
290
     0
176
     1
290
     0
176
     1
290
     0
176
     1
 90
       50
176
     1
 40
0.0
176
     1
 40
1.0
176
     1
 90
        0
176
     1
 62
    18
420
        0
176
     1
 90
       50
176
     1
 90
        3
176
     1
 62
     5
420
      255
176
     1
290
     0
176
     1
 90
       50
176
     1
 90
       50
176
     1
 90
       50
176
     1
290
     0
176
     1
 90
       50
176
     1
 62
   256
176
     0
 40
1.0
176
     0
 90
        2
176
     1
  1
strokes_ogs.tif
176
     1
290
     0
176
     1
 40
1.0
176
     1
 40
1.0
176
     1
  0
VISUALSTYLE
  5
35
102
{ACAD_REACTORS
330
29
102
}
330
29
100
AcDbVisualStyle
  2
Brighten
 70
    12
177
     3
291
     1
 70
    58
 90
        2
176
     1
 90
        2
176
     1
 90
        0
176
     1
 90
        0
176
     1
 40
0.6
176
     1
 40
30.0
176
     1
 62
     7
420
 16777215
176
     1
 90
        1
176
     1
 90
        4
176
     1
 62
     7
176
     1
 62
   257
176
     1
 90
        1
176
     1
 90
        1
176
     1
 40
1.0
176
     1
 90
        8
176
     1
 62
     7
176
     1
 40
1.0
176
     1
 90
        1
176
     1
 90
        6
176
     1
 90
        2
176
     1
 62
     7
176
     1
 90
        5
176
     1
 90
        0
176
     1
 90
        0
176
     1
290
     0
176
     1
 90
        1
176
     1
 40
50.0
176
     1
 90
        0
176
     1
290
     0
176
     1
290
     1
176
     1
290
     1
176
     1
290
     0
176
     1
290
     0
176
     1
290
     0
176
     1
290
     0
176
     1
290
     0
176
     1
290
     0
176
     1
 90
       50
176
     1
 40
0.0
176
     1
 40
1.0
176
     1
 90
        0
176
     1
 62
    18
420
        0
176
     1
 90
       50
176
     1
 90
        3
176
     1
 62
     5
420
      255
176
     1
290
     0
176
     1
 90
       50
176
     1
 90
       50
176
     1
 90
       50
176
     1
290
     0
176
     1
 90
       50
176
     1
 62
   256
176
     0
 40
1.0
176
     0
 90
        2
176
     1
  1
strokes_ogs.tif
176
     1
290
     0
176
     1
 40
1.0
176
     1
 40
1.0
176
     1
  0
VISUALSTYLE
  5
39
102
{ACAD_REACTORS
330
29
102
}
330
29
100
AcDbVisualStyle
  2
ColorChange
 70
    16
177
     3
291
     1
 70
    58
 90
        2
176
     1
 90
        2
176
     1
 90
        3
176
     1
 90
        0
176
     1
 40
0.6
176
     1
 40
30.0
176
     1
 62
     8
420
  8421504
176
     1
 90
        1
176
     1
 90
        4
176
     1
 62
     7
176
     1
 62
   257
176
     1
 90
        1
176
     1
 90
        1
176
     1
 40
1.0
176
     1
 90
        8
176
     1
 62
     8
420
  8421504
176
     1
 40
1.0
176
     1
 90
        1
176
     1
 90
        6
176
     1
 90
        2
176
     1
 62
     7
176
     1
 90
        5
176
     1
 90
        0
176
     1
 90
        0
176
     1
290
     0
176
     1
 90
        1
176
     1
 40
0.0
176
     1
 90
        0
176
     1
290
     0
176
     1
290
     1
176
     1
290
     1
176
     1
290
     0
176
     1
290
     0
176
     1
290
     0
176
     1
290
     0
176
     1
290
     0
176
     1
290
     0
176
     1
 90
       50
176
     1
 40
0.0
176
     1
 40
1.0
176
     1
 90
        0
176
     1
 62
    18
420
        0
176
     1
 90
       50
176
     1
 90
        3
176
     1
 62
     5
420
      255
176
     1
290
     0
176
     1
 90
       50
176
     1
 90
       50
176
     1
 90
       50
176
     1
290
     0
176
     1
 90
       50
176
     1
 62
   256
176
     0
 40
1.0
176
     0
 90
        2
176
     1
  1
strokes_ogs.tif
176
     1
290
     0
176
     1
 40
1.0
176
     1
 40
1.0
176
     1
  0
VISUALSTYLE
  5
32
102
{ACAD_REACTORS
330
29
102
}
330
29
100
AcDbVisualStyle
  2
Conceptual
 70
     9
177
     3
291
     0
 70
    58
 90
        3
176
     1
 90
        2
176
     1
 90
        0
176
     1
 90
        0
176
     1
 40
0.6
176
     1
 40
30.0
176
     1
 62
     7
420
 16777215
176
     1
 90
        2
176
     1
 90
        2
176
     1
 62
     7
176
     1
 62
   257
176
     1
 90
        1
176
     1
 90
        1
176
     1
 40
179.0
176
     1
 90
        8
176
     1
 62
     7
176
     1
 40
1.0
176
     1
 90
        1
176
     1
 90
        6
176
     1
 90
        2
176
     1
 62
     7
176
     1
 90
        3
176
     1
 90
        0
176
     1
 90
        0
176
     1
290
     0
176
     1
 90
        1
176
     1
 40
0.0
176
     1
 90
        0
176
     1
290
     0
176
     1
290
     1
176
     1
290
     1
176
     1
290
     0
176
     1
290
     0
176
     1
290
     0
176
     1
290
     0
176
     1
290
     0
176
     1
290
     0
176
     1
 90
       50
176
     1
 40
0.0
176
     1
 40
1.0
176
     1
 90
        0
176
     1
 62
    18
420
        0
176
     1
 90
       50
176
     1
 90
        3
176
     1
 62
     5
420
      255
176
     1
290
     0
176
     1
 90
       50
176
     1
 90
       50
176
     1
 90
       50
176
     1
290
     0
176
     1
 90
       50
176
     1
 62
   256
176
     0
 40
1.0
176
     0
 90
        2
176
     1
  1
strokes_ogs.tif
176
     1
290
     0
176
     1
 40
1.0
176
     1
 40
1.0
176
     1
  0
VISUALSTYLE
  5
34
102
{ACAD_REACTORS
330
29
102
}
330
29
100
AcDbVisualStyle
  2
Dim
 70
    11
177
     3
291
     1
 70
    58
 90
        2
176
     1
 90
        2
176
     1
 90
        0
176
     1
 90
        0
176
     1
 40
0.6
176
     1
 40
30.0
176
     1
 62
     7
420
 16777215
176
     1
 90
        1
176
     1
 90
        4
176
     1
 62
     7
176
     1
 62
   257
176
     1
 90
        1
176
     1
 90
        1
176
     1
 40
1.0
176
     1
 90
        8
176
     1
 62
     7
176
     1
 40
1.0
176
     1
 90
        1
176
     1
 90
        6
176
     1
 90
        2
176
     1
 62
     7
176
     1
 90
        5
176
     1
 90
        0
176
     1
 90
        0
176
     1
290
     0
176
     1
 90
        1
176
     1
 40
-50.0
176
     1
 90
        0
176
     1
290
     0
176
     1
290
     1
176
     1
290
     1
176
     1
290
     0
176
     1
290
     0
176
     1
290
     0
176
     1
290
     0
176
     1
290
     0
176
     1
290
     0
176
     1
 90
       50
176
     1
 40
0.0
176
     1
 40
1.0
176
     1
 90
        0
176
     1
 62
    18
420
        0
176
     1
 90
       50
176
     1
 90
        3
176
     1
 62
     5
420
      255
176
     1
290
     0
176
     1
 90
       50
176
     1
 90
       50
176
     1
 90
       50
176
     1
290
     0
176
     1
 90
       50
176
     1
 62
   256
176
     0
 40
1.0
176
     0
 90
        2
176
     1
  1
strokes_ogs.tif
176
     1
290
     0
176
     1
 40
1.0
176
     1
 40
1.0
176
     1
  0
VISUALSTYLE
  5
41
102
{ACAD_REACTORS
330
29
102
}
330
29
100
AcDbVisualStyle
  2
EdgeColorOff
 70
    22
177
     3
291
     1
 70
    58
 90
        2
176
     0
 90
        2
176
     0
 90
        0
176
     0
 90
        0
176
     0
 40
0.6
176
     0
 40
30.0
176
     0
 62
     7
420
 16777215
176
     0
 90
        1
176
     0
 90
        4
176
     0
 62
     7
176
     0
 62
   257
176
     0
 90
        1
176
     0
 90
        1
176
     0
 40
1.0
176
     0
 90
        8
176
     2
 62
     7
176
     0
 40
1.0
176
     0
 90
        1
176
     0
 90
        6
176
     0
 90
        2
176
     0
 62
     7
176
     0
 90
        5
176
     0
 90
        0
176
     0
 90
        0
176
     0
290
     0
176
     0
 90
        1
176
     0
 40
0.0
176
     0
 90
        0
176
     0
290
     0
176
     0
290
     1
176
     0
290
     1
176
     0
290
     0
176
     0
290
     0
176
     0
290
     0
176
     0
290
     0
176
     0
290
     0
176
     0
290
     0
176
     0
 90
       50
176
     0
 40
0.0
176
     0
 40
1.0
176
     0
 90
        0
176
     0
 62
    18
420
        0
176
     0
 90
       50
176
     0
 90
        3
176
     0
 62
     5
420
      255
176
     0
290
     0
176
     0
 90
       50
176
     0
 90
       50
176
     0
 90
       50
176
     0
290
     0
176
     0
 90
       50
176
     0
 62
   256
176
     0
 40
1.0
176
     0
 90
        2
176
     0
  1
strokes_ogs.tif
176
     0
290
     0
176
     0
 40
1.0
176
     0
 40
1.0
176
     0
  0
VISUALSTYLE
  5
38
102
{ACAD_REACTORS
330
29
102
}
330
29
100
AcDbVisualStyle
  2
Facepattern
 70
    15
177
     3
291
     1
 70
    58
 90
        2
176
     1
 90
        2
176
     1
 90
        0
176
     1
 90
        0
176
     1
 40
0.6
176
     1
 40
30.0
176
     1
 62
     7
420
 16777215
176
     1
 90
        1
176
     1
 90
        4
176
     1
 62
     7
176
     1
 62
   257
176
     1
 90
        1
176
     1
 90
        1
176
     1
 40
1.0
176
     1
 90
        8
176
     1
 62
     7
176
     1
 40
1.0
176
     1
 90
        1
176
     1
 90
        6
176
     1
 90
        2
176
     1
 62
     7
176
     1
 90
        5
176
     1
 90
        0
176
     1
 90
        0
176
     1
290
     0
176
     1
 90
        1
176
     1
 40
0.0
176
     1
 90
        0
176
     1
290
     0
176
     1
290
     1
176
     1
290
     1
176
     1
290
     0
176
     1
290
     0
176
     1
290
     0
176
     1
290
     0
176
     1
290
     0
176
     1
290
     0
176
     1
 90
       50
176
     1
 40
0.0
176
     1
 40
1.0
176
     1
 90
        0
176
     1
 62
    18
420
        0
176
     1
 90
       50
176
     1
 90
        3
176
     1
 62
     5
420
      255
176
     1
290
     0
176
     1
 90
       50
176
     1
 90
       50
176
     1
 90
       50
176
     1
290
     0
176
     1
 90
       50
176
     1
 62
   256
176
     0
 40
1.0
176
     0
 90
        2
176
     1
  1
strokes_ogs.tif
176
     1
290
     0
176
     1
 40
1.0
176
     1
 40
1.0
176
     1
  0
VISUALSTYLE
  5
2A
102
{ACAD_REACTORS
330
29
102
}
330
29
100
AcDbVisualStyle
  2
Flat
 70
     0
177
     3
291
     1
 70
    58
 90
        2
176
     1
 90
        1
176
     1
 90
        1
176
     1
 90
        2
176
     1
 40
0.6
176
     1
 40
30.0
176
     1
 62
     7
420
 16777215
176
     1
 90
        0
176
     1
 90
        0
176
     1
 62
     7
176
     1
 62
   257
176
     1
 90
        1
176
     1
 90
        1
176
     1
 40
1.0
176
     1
 90
        8
176
     1
 62
     7
176
     1
 40
1.0
176
     1
 90
        1
176
     1
 90
        6
176
     1
 90
        2
176
     1
 62
     7
176
     1
 90
        5
176
     1
 90
        0
176
     1
 90
        0
176
     1
290
     0
176
     1
 90
       13
176
     1
 40
0.0
176
     1
 90
        0
176
     1
290
     0
176
     1
290
     1
176
     1
290
     1
176
     1
290
     0
176
     1
290
     0
176
     1
290
     0
176
     1
290
     0
176
     1
290
     0
176
     1
290
     0
176
     1
 90
       50
176
     1
 40
0.0
176
     1
 40
1.0
176
     1
 90
        0
176
     1
 62
    18
420
        0
176
     1
 90
       50
176
     1
 90
        3
176
     1
 62
     5
420
      255
176
     1
290
     0
176
     1
 90
       50
176
     1
 90
       50
176
     1
 90
       50
176
     1
290
     0
176
     1
 90
       50
176
     1
 62
   256
176
     0
 40
1.0
176
     0
 90
        2
176
     1
  1
strokes_ogs.tif
176
     1
290
     0
176
     1
 40
1.0
176
     1
 40
1.0
176
     1
  0
VISUALSTYLE
  5
2B
102
{ACAD_REACTORS
330
29
102
}
330
29
100
AcDbVisualStyle
  2
FlatWithEdges
 70
     1
177
     3
291
     1
 70
    58
 90
        2
176
     1
 90
        1
176
     1
 90
        1
176
     1
 90
        2
176
     1
 40
0.6
176
     1
 40
30.0
176
     1
 62
     7
420
 16777215
176
     1
 90
        1
176
     1
 90
        0
176
     1
 62
     7
176
     1
 62
   257
176
     1
 90
        1
176
     1
 90
        1
176
     1
 40
1.0
176
     1
 90
        0
176
     1
 62
   257
176
     1
 40
1.0
176
     1
 90
        1
176
     1
 90
        6
176
     1
 90
        2
176
     1
 62
     7
176
     1
 90
        5
176
     1
 90
        0
176
     1
 90
        0
176
     1
290
     0
176
     1
 90
       13
176
     1
 40
0.0
176
     1
 90
        0
176
     1
290
     0
176
     1
290
     1
176
     1
290
     1
176
     1
290
     0
176
     1
290
     0
176
     1
290
     0
176
     1
290
     0
176
     1
290
     0
176
     1
290
     0
176
     1
 90
       50
176
     1
 40
0.0
176
     1
 40
1.0
176
     1
 90
        0
176
     1
 62
    18
420
        0
176
     1
 90
       50
176
     1
 90
        3
176
     1
 62
     5
420
      255
176
     1
290
     0
176
     1
 90
       50
176
     1
 90
       50
176
     1
 90
       50
176
     1
290
     0
176
     1
 90
       50
176
     1
 62
   256
176
     0
 40
1.0
176
     0
 90
        2
176
     1
  1
strokes_ogs.tif
176
     1
290
     0
176
     1
 40
1.0
176
     1
 40
1.0
176
     1
  0
VISUALSTYLE
  5
2C
102
{ACAD_REACTORS
330
29
102
}
330
29
100
AcDbVisualStyle
  2
Gouraud
 70
     2
177
     3
291
     1
 70
    58
 90
        2
176
     1
 90
        2
176
     1
 90
        1
176
     1
 90
        2
176
     1
 40
0.6
176
     1
 40
30.0
176
     1
 62
     7
420
 16777215
176
     1
 90
        0
176
     1
 90
        0
176
     1
 62
     7
176
     1
 62
   257
176
     1
 90
        1
176
     1
 90
        1
176
     1
 40
1.0
176
     1
 90
        0
176
     1
 62
     7
176
     1
 40
1.0
176
     1
 90
        1
176
     1
 90
        6
176
     1
 90
        2
176
     1
 62
     7
176
     1
 90
        5
176
     1
 90
        0
176
     1
 90
        0
176
     1
290
     0
176
     1
 90
       13
176
     1
 40
0.0
176
     1
 90
        0
176
     1
290
     0
176
     1
290
     1
176
     1
290
     1
176
     1
290
     0
176
     1
290
     0
176
     1
290
     0
176
     1
290
     0
176
     1
290
     0
176
     1
290
     0
176
     1
 90
       50
176
     1
 40
0.0
176
     1
 40
1.0
176
     1
 90
        0
176
     1
 62
    18
420
        0
176
     1
 90
       50
176
     1
 90
        3
176
     1
 62
     5
420
      255
176
     1
290
     0
176
     1
 90
       50
176
     1
 90
       50
176
     1
 90
       50
176
     1
290
     0
176
     1
 90
       50
176
     1
 62
   256
176
     0
 40
1.0
176
     0
 90
        2
176
     1
  1
strokes_ogs.tif
176
     1
290
     0
176
     1
 40
1.0
176
     1
 40
1.0
176
     1
  0
VISUALSTYLE
  5
2D
102
{ACAD_REACTORS
330
29
102
}
330
29
100
AcDbVisualStyle
  2
GouraudWithEdges
 70
     3
177
     3
291
     1
 70
    58
 90
        2
176
     1
 90
        2
176
     1
 90
        1
176
     1
 90
        2
176
     1
 40
0.6
176
     1
 40
30.0
176
     1
 62
     7
420
 16777215
176
     1
 90
        1
176
     1
 90
        0
176
     1
 62
     7
176
     1
 62
   257
176
     1
 90
        1
176
     1
 90
        1
176
     1
 40
1.0
176
     1
 90
        0
176
     1
 62
   257
176
     1
 40
1.0
176
     1
 90
        1
176
     1
 90
        6
176
     1
 90
        2
176
     1
 62
     7
176
     1
 90
        5
176
     1
 90
        0
176
     1
 90
        0
176
     1
290
     0
176
     1
 90
       13
176
     1
 40
0.0
176
     1
 90
        0
176
     1
290
     0
176
     1
290
     1
176
     1
290
     1
176
     1
290
     0
176
     1
290
     0
176
     1
290
     0
176
     1
290
     0
176
     1
290
     0
176
     1
290
     0
176
     1
 90
       50
176
     1
 40
0.0
176
     1
 40
1.0
176
     1
 90
        0
176
     1
 62
    18
420
        0
176
     1
 90
       50
176
     1
 90
        3
176
     1
 62
     5
420
      255
176
     1
290
     0
176
     1
 90
       50
176
     1
 90
       50
176
     1
 90
       50
176
     1
290
     0
176
     1
 90
       50
176
     1
 62
   256
176
     0
 40
1.0
176
     0
 90
        2
176
     1
  1
strokes_ogs.tif
176
     1
290
     0
176
     1
 40
1.0
176
     1
 40
1.0
176
     1
  0
VISUALSTYLE
  5
31
102
{ACAD_REACTORS
330
29
102
}
330
29
100
AcDbVisualStyle
  2
Hidden
 70
     6
177
     3
291
     0
 70
    58
 90
        1
176
     1
 90
        2
176
     1
 90
        2
176
     1
 90
        0
176
     1
 40
0.6
176
     1
 40
30.0
176
     1
 62
     7
420
 16777215
176
     1
 90
        2
176
     1
 90
        2
176
     1
 62
     7
176
     1
 62
   257
176
     1
 90
        2
176
     1
 90
        1
176
     1
 40
40.0
176
     1
 90
        0
176
     1
 62
   257
176
     1
 40
1.0
176
     1
 90
        1
176
     1
 90
        6
176
     1
 90
        2
176
     1
 62
     7
176
     1
 90
        3
176
     1
 90
        0
176
     1
 90
        0
176
     1
290
     0
176
     1
 90
        1
176
     1
 40
0.0
176
     1
 90
        0
176
     1
290
     0
176
     1
290
     1
176
     1
290
     1
176
     1
290
     0
176
     1
290
     0
176
     1
290
     0
176
     1
290
     0
176
     1
290
     0
176
     1
290
     0
176
     1
 90
       50
176
     1
 40
0.0
176
     1
 40
1.0
176
     1
 90
        0
176
     1
 62
    18
420
        0
176
     1
 90
       50
176
     1
 90
        3
176
     1
 62
     5
420
      255
176
     1
290
     0
176
     1
 90
       50
176
     1
 90
       50
176
     1
 90
       50
176
     1
290
     0
176
     1
 90
       50
176
     1
 62
   256
176
     0
 40
1.0
176
     0
 90
        2
176
     1
  1
strokes_ogs.tif
176
     1
290
     0
176
     1
 40
1.0
176
     1
 40
1.0
176
     1
  0
VISUALSTYLE
  5
3F
102
{ACAD_REACTORS
330
29
102
}
330
29
100
AcDbVisualStyle
  2
JitterOff
 70
    20
177
     3
291
     1
 70
    58
 90
        2
176
     0
 90
        2
176
     0
 90
        0
176
     0
 90
        0
176
     0
 40
0.6
176
     0
 40
30.0
176
     0
 62
     7
420
 16777215
176
     0
 90
        1
176
     0
 90
        4
176
     0
 62
     7
176
     0
 62
   257
176
     0
 90
        1
176
     0
 90
        1
176
     0
 40
1.0
176
     0
 90
       10
176
     2
 62
     7
176
     0
 40
1.0
176
     0
 90
        1
176
     0
 90
        6
176
     0
 90
        2
176
     0
 62
     7
176
     0
 90
        5
176
     0
 90
        0
176
     0
 90
        0
176
     0
290
     0
176
     0
 90
        1
176
     0
 40
0.0
176
     0
 90
        0
176
     0
290
     0
176
     0
290
     1
176
     0
290
     1
176
     0
290
     0
176
     0
290
     0
176
     0
290
     0
176
     0
290
     0
176
     0
290
     0
176
     0
290
     0
176
     0
 90
       50
176
     0
 40
0.0
176
     0
 40
1.0
176
     0
 90
        0
176
     0
 62
    18
420
        0
176
     0
 90
       50
176
     0
 90
        3
176
     0
 62
     5
420
      255
176
     0
290
     0
176
     0
 90
       50
176
     0
 90
       50
176
     0
 90
       50
176
     0
290
     0
176
     0
 90
       50
176
     0
 62
   256
176
     0
 40
1.0
176
     0
 90
        2
176
     0
  1
strokes_ogs.tif
176
     0
290
     0
176
     0
 40
1.0
176
     0
 40
1.0
176
     0
  0
VISUALSTYLE
  5
37
102
{ACAD_REACTORS
330
29
102
}
330
29
100
AcDbVisualStyle
  2
Linepattern
 70
    14
177
     3
291
     1
 70
    58
 90
        2
176
     1
 90
        2
176
     1
 90
        0
176
     1
 90
        0
176
     1
 40
0.6
176
     1
 40
30.0
176
     1
 62
     7
420
 16777215
176
     1
 90
        1
176
     1
 90
        4
176
     1
 62
     7
176
     1
 62
   257
176
     1
 90
        7
176
     1
 90
        7
176
     1
 40
1.0
176
     1
 90
        8
176
     1
 62
     7
176
     1
 40
1.0
176
     1
 90
        1
176
     1
 90
        6
176
     1
 90
        2
176
     1
 62
     7
176
     1
 90
        5
176
     1
 90
        0
176
     1
 90
        0
176
     1
290
     0
176
     1
 90
        1
176
     1
 40
0.0
176
     1
 90
        0
176
     1
290
     0
176
     1
290
     1
176
     1
290
     1
176
     1
290
     0
176
     1
290
     0
176
     1
290
     0
176
     1
290
     0
176
     1
290
     0
176
     1
290
     0
176
     1
 90
       50
176
     1
 40
0.0
176
     1
 40
1.0
176
     1
 90
        0
176
     1
 62
    18
420
        0
176
     1
 90
       50
176
     1
 90
        3
176
     1
 62
     5
420
      255
176
     1
290
     0
176
     1
 90
       50
176
     1
 90
       50
176
     1
 90
       50
176
     1
290
     0
176
     1
 90
       50
176
     1
 62
   256
176
     0
 40
1.0
176
     0
 90
        2
176
     1
  1
strokes_ogs.tif
176
     1
290
     0
176
     1
 40
1.0
176
     1
 40
1.0
176
     1
  0
VISUALSTYLE
  5
40
102
{ACAD_REACTORS
330
29
102
}
330
29
100
AcDbVisualStyle
  2
OverhangOff
 70
    21
177
     3
291
     1
 70
    58
 90
        2
176
     0
 90
        2
176
     0
 90
        0
176
     0
 90
        0
176
     0
 40
0.6
176
     0
 40
30.0
176
     0
 62
     7
420
 16777215
176
     0
 90
        1
176
     0
 90
        4
176
     0
 62
     7
176
     0
 62
   257
176
     0
 90
        1
176
     0
 90
        1
176
     0
 40
1.0
176
     0
 90
        9
176
     2
 62
     7
176
     0
 40
1.0
176
     0
 90
        1
176
     0
 90
        6
176
     0
 90
        2
176
     0
 62
     7
176
     0
 90
        5
176
     0
 90
        0
176
     0
 90
        0
176
     0
290
     0
176
     0
 90
        1
176
     0
 40
0.0
176
     0
 90
        0
176
     0
290
     0
176
     0
290
     1
176
     0
290
     1
176
     0
290
     0
176
     0
290
     0
176
     0
290
     0
176
     0
290
     0
176
     0
290
     0
176
     0
290
     0
176
     0
 90
       50
176
     0
 40
0.0
176
     0
 40
1.0
176
     0
 90
        0
176
     0
 62
    18
420
        0
176
     0
 90
       50
176
     0
 90
        3
176
     0
 62
     5
420
      255
176
     0
290
     0
176
     0
 90
       50
176
     0
 90
       50
176
     0
 90
       50
176
     0
290
     0
176
     0
 90
       50
176
     0
 62
   256
176
     0
 40
1.0
176
     0
 90
        2
176
     0
  1
strokes_ogs.tif
176
     0
290
     0
176
     0
 40
1.0
176
     0
 40
1.0
176
     0
  0
VISUALSTYLE
  5
33
102
{ACAD_REACTORS
330
29
102
}
330
29
100
AcDbVisualStyle
  2
Realistic
 70
     8
177
     3
291
     0
 70
    58
 90
        2
176
     1
 90
        3
176
     1
 90
        0
176
     1
 90
        2
176
     1
 40
0.6
176
     1
 40
30.0
176
     1
 62
     7
420
 16777215
176
     1
 90
        0
176
     1
 90
        0
176
     1
 62
     7
176
     1
 62
   257
176
     1
 90
        1
176
     1
 90
        1
176
     1
 40
1.0
176
     1
 90
        8
176
     1
 62
   257
176
     1
 40
1.0
176
     1
 90
        1
176
     1
 90
        6
176
     1
 90
        2
176
     1
 62
     7
176
     1
 90
        3
176
     1
 90
        0
176
     1
 90
        0
176
     1
290
     0
176
     1
 90
       13
176
     1
 40
0.0
176
     1
 90
        0
176
     1
290
     0
176
     1
290
     1
176
     1
290
     1
176
     1
290
     0
176
     1
290
     0
176
     1
290
     0
176
     1
290
     0
176
     1
290
     0
176
     1
290
     0
176
     1
 90
       50
176
     1
 40
0.0
176
     1
 40
1.0
176
     1
 90
        0
176
     1
 62
    18
420
        0
176
     1
 90
       50
176
     1
 90
        3
176
     1
 62
     5
420
      255
176
     1
290
     0
176
     1
 90
       50
176
     1
 90
       50
176
     1
 90
       50
176
     1
290
     0
176
     1
 90
       50
176
     1
 62
   256
176
     0
 40
1.0
176
     0
 90
        2
176
     1
  1
strokes_ogs.tif
176
     1
290
     0
176
     1
 40
1.0
176
     1
 40
1.0
176
     1
  0
VISUALSTYLE
  5
3E
102
{ACAD_REACTORS
330
29
102
}
330
29
100
AcDbVisualStyle
  2
Shaded
 70
    27
177
     3
291
     0
 70
    58
 90
        2
176
     1
 90
        2
176
     1
 90
        1
176
     1
 90
        2
176
     1
 40
0.6
176
     1
 40
30.0
176
     1
 62
     7
420
 16777215
176
     1
 90
        0
176
     1
 90
        4
176
     1
 62
     7
176
     1
 62
   257
176
     1
 90
        1
176
     1
 90
        1
176
     1
 40
1.0
176
     1
 90
        8
176
     1
 62
   257
176
     1
 40
1.0
176
     1
 90
        1
176
     1
 90
        6
176
     1
 90
        2
176
     1
 62
     8
420
  7895160
176
     1
 90
        3
176
     1
 90
        0
176
     1
 90
        0
176
     1
290
     0
176
     1
 90
        5
176
     1
 40
0.0
176
     1
 90
        0
176
     1
290
     0
176
     1
290
     1
176
     1
290
     1
176
     1
290
     0
176
     1
290
     0
176
     1
290
     0
176
     1
290
     0
176
     1
290
     0
176
     1
290
     0
176
     1
 90
       50
176
     1
 40
0.0
176
     1
 40
1.0
176
     1
 90
        0
176
     1
 62
    18
420
        0
176
     1
 90
       50
176
     1
 90
        3
176
     1
 62
     5
420
      255
176
     1
290
     0
176
     1
 90
       50
176
     1
 90
       50
176
     1
 90
       50
176
     1
290
     0
176
     1
 90
       50
176
     1
 62
   256
176
     0
 40
1.0
176
     0
 90
        2
176
     1
  1
strokes_ogs.tif
176
     1
290
     0
176
     1
 40
1.0
176
     1
 40
1.0
176
     1
  0
VISUALSTYLE
  5
3D
102
{ACAD_REACTORS
330
29
102
}
330
29
100
AcDbVisualStyle
  2
Shaded with edges
 70
    26
177
     3
291
     0
 70
    58
 90
        2
176
     1
 90
        2
176
     1
 90
        1
176
     1
 90
        2
176
     1
 40
0.6
176
     1
 40
30.0
176
     1
 62
     7
420
 16777215
176
     1
 90
        1
176
     1
 90
        2
176
     1
 62
     7
176
     1
 62
   257
176
     1
 90
        2
176
     1
 90
        1
176
     1
 40
1.0
176
     1
 90
        8
176
     1
 62
   257
176
     1
 40
1.0
176
     1
 90
        1
176
     1
 90
        6
176
     1
 90
        2
176
     1
 62
     7
176
     1
 90
        3
176
     1
 90
        0
176
     1
 90
        0
176
     1
290
     0
176
     1
 90
        5
176
     1
 40
0.0
176
     1
 90
        0
176
     1
290
     0
176
     1
290
     1
176
     1
290
     1
176
     1
290
     0
176
     1
290
     0
176
     1
290
     0
176
     1
290
     0
176
     1
290
     0
176
     1
290
     0
176
     1
 90
       50
176
     1
 40
0.0
176
     1
 40
1.0
176
     1
 90
        0
176
     1
 62
    18
420
        0
176
     1
 90
       50
176
     1
 90
        3
176
     1
 62
     5
420
      255
176
     1
290
     0
176
     1
 90
       50
176
     1
 90
       50
176
     1
 90
       50
176
     1
290
     0
176
     1
 90
       50
176
     1
 62
   256
176
     0
 40
1.0
176
     0
 90
        2
176
     1
  1
strokes_ogs.tif
176
     1
290
     0
176
     1
 40
1.0
176
     1
 40
1.0
176
     1
  0
VISUALSTYLE
  5
3A
102
{ACAD_REACTORS
330
29
102
}
330
29
100
AcDbVisualStyle
  2
Shades of Gray
 70
    23
177
     3
291
     0
 70
    58
 90
        2
176
     1
 90
        2
176
     1
 90
        3
176
     1
 90
        0
176
     1
 40
0.6
176
     1
 40
30.0
176
     1
 62
     7
420
 16777215
176
     1
 90
        2
176
     1
 90
        2
176
     1
 62
     7
176
     1
 62
     7
176
     1
 90
        1
176
     1
 90
        1
176
     1
 40
40.0
176
     1
 90
        8
176
     1
 62
     7
176
     1
 40
1.0
176
     1
 90
        1
176
     1
 90
        6
176
     1
 90
        2
176
     1
 62
     7
176
     1
 90
        3
176
     1
 90
        0
176
     1
 90
        0
176
     1
290
     0
176
     1
 90
        1
176
     1
 40
0.0
176
     1
 90
        0
176
     1
290
     0
176
     1
290
     1
176
     1
290
     1
176
     1
290
     0
176
     1
290
     0
176
     1
290
     0
176
     1
290
     0
176
     1
290
     0
176
     1
290
     0
176
     1
 90
       50
176
     1
 40
0.0
176
     1
 40
1.0
176
     1
 90
        0
176
     1
 62
    18
420
        0
176
     1
 90
       50
176
     1
 90
        3
176
     1
 62
     5
420
      255
176
     1
290
     0
176
     1
 90
       50
176
     1
 90
       50
176
     1
 90
       50
176
     1
290
     0
176
     1
 90
       50
176
     1
 62
   256
176
     0
 40
1.0
176
     0
 90
        2
176
     1
  1
strokes_ogs.tif
176
     1
290
     0
176
     1
 40
1.0
176
     1
 40
1.0
176
     1
  0
VISUALSTYLE
  5
3B
102
{ACAD_REACTORS
330
29
102
}
330
29
100
AcDbVisualStyle
  2
Sketchy
 70
    24
177
     3
291
     0
 70
    58
 90
        1
176
     1
 90
        2
176
     1
 90
        2
176
     1
 90
        0
176
     1
 40
0.6
176
     1
 40
30.0
176
     1
 62
     7
420
 16777215
176
     1
 90
        2
176
     1
 90
        2
176
     1
 62
     7
176
     1
 62
     7
176
     1
 90
        1
176
     1
 90
        1
176
     1
 40
40.0
176
     1
 90
       11
176
     1
 62
     7
176
     1
 40
1.0
176
     1
 90
        1
176
     1
 90
        6
176
     1
 90
        2
176
     1
 62
     7
176
     1
 90
        6
176
     1
 90
        0
176
     1
 90
        0
176
     1
290
     0
176
     1
 90
        1
176
     1
 40
0.0
176
     1
 90
        0
176
     1
290
     0
176
     1
290
     1
176
     1
290
     1
176
     1
290
     0
176
     1
290
     0
176
     1
290
     0
176
     1
290
     0
176
     1
290
     0
176
     1
290
     0
176
     1
 90
       50
176
     1
 40
0.0
176
     1
 40
1.0
176
     1
 90
        0
176
     1
 62
    18
420
        0
176
     1
 90
       50
176
     1
 90
        3
176
     1
 62
     5
420
      255
176
     1
290
     0
176
     1
 90
       50
176
     1
 90
       50
176
     1
 90
       50
176
     1
290
     0
176
     1
 90
       50
176
     1
 62
   256
176
     0
 40
1.0
176
     0
 90
        2
176
     1
  1
strokes_ogs.tif
176
     1
290
     0
176
     1
 40
1.0
176
     1
 40
1.0
176
     1
  0
VISUALSTYLE
  5
36
102
{ACAD_REACTORS
330
29
102
}
330
29
100
AcDbVisualStyle
  2
Thicken
 70
    13
177
     3
291
     1
 70
    58
 90
        2
176
     1
 90
        2
176
     1
 90
        0
176
     1
 90
        0
176
     1
 40
0.6
176
     1
 40
30.0
176
     1
 62
     7
420
 16777215
176
     1
 90
        1
176
     1
 90
        4
176
     1
 62
     7
176
     1
 62
   257
176
     1
 90
        1
176
     1
 90
        1
176
     1
 40
1.0
176
     1
 90
       12
176
     1
 62
     7
176
     1
 40
1.0
176
     1
 90
        1
176
     1
 90
        6
176
     1
 90
        2
176
     1
 62
     7
176
     1
 90
        5
176
     1
 90
        0
176
     1
 90
        0
176
     1
290
     0
176
     1
 90
        1
176
     1
 40
0.0
176
     1
 90
        0
176
     1
290
     0
176
     1
290
     1
176
     1
290
     1
176
     1
290
     0
176
     1
290
     0
176
     1
290
     0
176
     1
290
     0
176
     1
290
     0
176
     1
290
     0
176
     1
 90
       50
176
     1
 40
0.0
176
     1
 40
1.0
176
     1
 90
        0
176
     1
 62
    18
420
        0
176
     1
 90
       50
176
     1
 90
        3
176
     1
 62
     5
420
      255
176
     1
290
     0
176
     1
 90
       50
176
     1
 90
       50
176
     1
 90
       50
176
     1
290
     0
176
     1
 90
       50
176
     1
 62
   256
176
     0
 40
1.0
176
     0
 90
        2
176
     1
  1
strokes_ogs.tif
176
     1
290
     0
176
     1
 40
1.0
176
     1
 40
1.0
176
     1
  0
VISUALSTYLE
  5
30
102
{ACAD_REACTORS
330
29
102
}
330
29
100
AcDbVisualStyle
  2
Wireframe
 70
     5
177
     3
291
     0
 70
    58
 90
        0
176
     1
 90
        2
176
     1
 90
        0
176
     1
 90
        0
176
     1
 40
0.6
176
     1
 40
30.0
176
     1
 62
     7
420
 16777215
176
     1
 90
        1
176
     1
 90
        4
176
     1
 62
     7
176
     1
 62
   257
176
     1
 90
        1
176
     1
 90
        1
176
     1
 40
1.0
176
     1
 90
        0
176
     1
 62
   257
176
     1
 40
1.0
176
     1
 90
        1
176
     1
 90
        6
176
     1
 90
        2
176
     1
 62
     7
176
     1
 90
        3
176
     1
 90
        0
176
     1
 90
        0
176
     1
290
     0
176
     1
 90
        1
176
     1
 40
0.0
176
     1
 90
        0
176
     1
290
     0
176
     1
290
     1
176
     1
290
     1
176
     1
290
     0
176
     1
290
     0
176
     1
290
     0
176
     1
290
     0
176
     1
290
     0
176
     1
290
     0
176
     1
 90
       50
176
     1
 40
0.0
176
     1
 40
1.0
176
     1
 90
        0
176
     1
 62
    18
420
        0
176
     1
 90
       50
176
     1
 90
        3
176
     1
 62
     5
420
      255
176
     1
290
     0
176
     1
 90
       50
176
     1
 90
       50
176
     1
 90
       50
176
     1
290
     0
176
     1
 90
       50
176
     1
 62
   256
176
     0
 40
1.0
176
     0
 90
        2
176
     1
  1
strokes_ogs.tif
176
     1
290
     0
176
     1
 40
1.0
176
     1
 40
1.0
176
     1
  0
VISUALSTYLE
  5
3C
102
{ACAD_REACTORS
330
29
102
}
330
29
100
AcDbVisualStyle
  2
X-Ray
 70
    25
177
     3
291
     0
 70
    58
 90
        2
176
     1
 90
        2
176
     1
 90
        1
176
     1
 90
        1
176
     1
 40
0.5
176
     1
 40
30.0
176
     1
 62
     7
420
 16777215
176
     1
 90
        1
176
     1
 90
        0
176
     1
 62
     7
176
     1
 62
   257
176
     1
 90
        1
176
     1
 90
        1
176
     1
 40
1.0
176
     1
 90
        8
176
     1
 62
     7
176
     1
 40
1.0
176
     1
 90
        1
176
     1
 90
        6
176
     1
 90
        2
176
     1
 62
     7
176
     1
 90
        3
176
     1
 90
        0
176
     1
 90
        0
176
     1
290
     0
176
     1
 90
       13
176
     1
 40
0.0
176
     1
 90
        0
176
     1
290
     0
176
     1
290
     1
176
     1
290
     1
176
     1
290
     0
176
     1
290
     0
176
     1
290
     0
176
     1
290
     0
176
     1
290
     0
176
     1
290
     0
176
     1
 90
       50
176
     1
 40
0.0
176
     1
 40
1.0
176
     1
 90
        0
176
     1
 62
    18
420
        0
176
     1
 90
       50
176
     1
 90
        3
176
     1
 62
     5
420
      255
176
     1
290
     0
176
     1
 90
       50
176
     1
 90
       50
176
     1
 90
       50
176
     1
290
     0
176
     1
 90
       50
176
     1
 62
   256
176
     0
 40
1.0
176
     0
 90
        2
176
     1
  1
strokes_ogs.tif
176
     1
290
     0
176
     1
 40
1.0
176
     1
 40
1.0
176
     1
  0
DICTIONARYVAR
  5
A0
102
{ACAD_REACTORS
330
9B
102
}
330
9B
100
DictionaryVariables
280
     0
  1
1:1
  0
DICTIONARYVAR
  5
9D
102
{ACAD_REACTORS
330
9B
102
}
330
9B
100
DictionaryVariables
280
     0
  1
STANDARD
  0
DICTIONARYVAR
  5
9C
102
{ACAD_REACTORS
330
9B
102
}
330
9B
100
DictionaryVariables
280
     0
  1
STANDARD
  0
DICTIONARYVAR
  5
9E
102
{ACAD_REACTORS
330
9B
102
}
330
9B
100
DictionaryVariables
280
     0
  1
Imperial24
  0
DICTIONARYVAR
  5
9F
102
{ACAD_REACTORS
330
9B
102
}
330
9B
100
DictionaryVariables
280
     0
  1
Imperial24
  0
DICTIONARY
  5
1A
330
19
100
AcDbDictionary
280
     1
281
     1
  3
BUMPTILE
360
1C
  3
DIFFUSETILE
360
1B
  3
OPACITYTILE
360
1F
  3
REFLECTIONTILE
360
1E
  3
REFRACTIONTILE
360
20
  3
SPECULARTILE
360
1D
  0
DICTIONARY
  5
12
330
11
100
AcDbDictionary
280
     1
281
     1
  3
BUMPTILE
360
14
  3
DIFFUSETILE
360
13
  3
OPACITYTILE
360
17
  3
REFLECTIONTILE
360
16
  3
REFRACTIONTILE
360
18
  3
SPECULARTILE
360
15
  0
DICTIONARY
  5
22
330
21
100
AcDbDictionary
280
     1
281
     1
  3
BUMPTILE
360
24
  3
DIFFUSETILE
360
23
  3
OPACITYTILE
360
27
  3
REFLECTIONTILE
360
26
  3
REFRACTIONTILE
360
28
  3
SPECULARTILE
360
25
  0
DICTIONARY
  5
A1
330
65
100
AcDbDictionary
280
     1
281
     1
  3
ACAD_ROUNDTRIP_2008_TABLESTYLE_CELLSTYLEMAP
360
A2
  0
XRECORD
  5
1C
102
{ACAD_REACTORS
330
1A
102
}
330
1A
100
AcDbXrecord
280
     1
270
     1
271
     1
  0
XRECORD
  5
1B
102
{ACAD_REACTORS
330
1A
102
}
330
1A
100
AcDbXrecord
280
     1
270
     1
271
     1
  0
XRECORD
  5
1F
102
{ACAD_REACTORS
330
1A
102
}
330
1A
100
AcDbXrecord
280
     1
270
     1
271
     1
  0
XRECORD
  5
1E
102
{ACAD_REACTORS
330
1A
102
}
330
1A
100
AcDbXrecord
280
     1
270
     1
271
     1
  0
XRECORD
  5
20
102
{ACAD_REACTORS
330
1A
102
}
330
1A
100
AcDbXrecord
280
     1
270
     1
271
     1
  0
XRECORD
  5
1D
102
{ACAD_REACTORS
330
1A
102
}
330
1A
100
AcDbXrecord
280
     1
270
     1
271
     1
  0
XRECORD
  5
14
102
{ACAD_REACTORS
330
12
102
}
330
12
100
AcDbXrecord
280
     1
270
     1
271
     1
  0
XRECORD
  5
13
102
{ACAD_REACTORS
330
12
102
}
330
12
100
AcDbXrecord
280
     1
270
     1
271
     1
  0
XRECORD
  5
17
102
{ACAD_REACTORS
330
12
102
}
330
12
100
AcDbXrecord
280
     1
270
     1
271
     1
  0
XRECORD
  5
16
102
{ACAD_REACTORS
330
12
102
}
330
12
100
AcDbXrecord
280
     1
270
     1
271
     1
  0
XRECORD
  5
18
102
{ACAD_REACTORS
330
12
102
}
330
12
100
AcDbXrecord
280
     1
270
     1
271
     1
  0
XRECORD
  5
15
102
{ACAD_REACTORS
330
12
102
}
330
12
100
AcDbXrecord
280
     1
270
     1
271
     1
  0
XRECORD
  5
24
102
{ACAD_REACTORS
330
22
102
}
330
22
100
AcDbXrecord
280
     1
270
     1
271
     1
  0
XRECORD
  5
23
102
{ACAD_REACTORS
330
22
102
}
330
22
100
AcDbXrecord
280
     1
270
     1
271
     1
  0
XRECORD
  5
27
102
{ACAD_REACTORS
330
22
102
}
330
22
100
AcDbXrecord
280
     1
270
     1
271
     1
  0
XRECORD
  5
26
102
{ACAD_REACTORS
330
22
102
}
330
22
100
AcDbXrecord
280
     1
270
     1
271
     1
  0
XRECORD
  5
28
102
{ACAD_REACTORS
330
22
102
}
330
22
100
AcDbXrecord
280
     1
270
     1
271
     1
  0
XRECORD
  5
25
102
{ACAD_REACTORS
330
22
102
}
330
22
100
AcDbXrecord
280
     1
270
     1
271
     1
  0
CELLSTYLEMAP
  5
A2
102
{ACAD_REACTORS
330
A1
102
}
330
A1
100
AcDbCellStyleMap
 90
        3
300
CELLSTYLE
  1
TABLEFORMAT_BEGIN
 90
        5
170
     1
 91
        0
 92
    32768
 62
   257
 93
        1
300
CONTENTFORMAT
  1
CONTENTFORMAT_BEGIN
 90
        0
 91
        0
 92
      512
 93
        0
300

 40
0.0
140
1.0
 94
        5
 62
     0
340
55
144
0.25
309
CONTENTFORMAT_END
171
     0
 94
        0
309
TABLEFORMAT_END
  1
CELLSTYLE_BEGIN
 90
        1
 91
        1
300
_TITLE
309
CELLSTYLE_END
300
CELLSTYLE
  1
TABLEFORMAT_BEGIN
 90
        5
170
     1
 91
        0
 92
        0
 62
   257
 93
        1
300
CONTENTFORMAT
  1
CONTENTFORMAT_BEGIN
 90
        0
 91
        0
 92
      512
 93
        0
300

 40
0.0
140
1.0
 94
        5
 62
     0
340
55
144
0.18
309
CONTENTFORMAT_END
171
     0
 94
        0
309
TABLEFORMAT_END
  1
CELLSTYLE_BEGIN
 90
        2
 91
        1
300
_HEADER
309
CELLSTYLE_END
300
CELLSTYLE
  1
TABLEFORMAT_BEGIN
 90
        5
170
     1
 91
        0
 92
        0
 62
   257
 93
        1
300
CONTENTFORMAT
  1
CONTENTFORMAT_BEGIN
 90
        0
 91
        0
 92
      512
 93
        0
300

 40
0.0
140
1.0
 94
        2
 62
     0
340
55
144
0.18
309
CONTENTFORMAT_END
171
     0
 94
        0
309
TABLEFORMAT_END
  1
CELLSTYLE_BEGIN
 90
        3
 91
        2
300
_DATA
309
CELLSTYLE_END
  0
ENDSEC
  0
EOF
