<?xml version="1.0" encoding="utf-8"?>
<!-- Generator: Adobe Illustrator 25.4.1, SVG Export Plug-In . SVG Version: 6.00 Build 0)  -->
<svg version="1.1" id="Layer_1" xmlns="http://www.w3.org/2000/svg" xmlns:xlink="http://www.w3.org/1999/xlink" x="0px" y="0px"
	 viewBox="0 0 750 500" enable-background="new 0 0 750 500" xml:space="preserve">
<path fill="#3F3F3F" d="M166.83,376.93v33.6h3.6v37.2h-15.15v-54c0-2.76-2.24-5-5-5h-24.59c-1.77-3.24-5.2-5.43-9.15-5.43
	c-5.76,0-10.43,4.67-10.43,10.43s4.67,10.43,10.43,10.43c3.95,0,7.38-2.19,9.15-5.43h19.59v49h-12.05v-3.6h-33.6v3.6h-37.2v-37.2
	h3.6v-33.6h-3.6v-37.2h37.2v3.6h33.6v-3.6h37.2v37.2H166.83z"/>
<path fill="#3F3F3F" d="M170.43,129.07v-38.4h-3.6v-38.4l-104.4,0v38.4h3.6v38.4h-3.6v38.4h3.6v38.4h-3.6v38.4h3.6v38.4h33.6v3.6
	h33.6v-3.6l37.2,0v-38.4h-3.6v-38.4h3.6v-38.4h-3.6v-38.4C166.83,129.07,170.43,129.07,170.43,129.07z M139,272.42
	c0.25-2.8,0.2-5.48-0.77-8.15c-0.02-0.07,0.09-0.12,0.12-0.05c1.08,2.3,1.5,4.71,1.86,7.2c0.17,1.2,0.43,2.65,0.48,4.04h-1.79
	C138.84,274.41,138.92,273.32,139,272.42z M134.97,245.58c-1.4-1.69-2.77-3.38-4.41-4.84c-1.83-1.63-5.1-3.8-5.33-6.49
	c-0.05-0.55,0.84-0.56,0.86,0c0.12,3.04,4.64,5.57,6.48,7.68c1.49,1.72,2.77,3.68,4.42,5.25c1.41,1.34,2.88,2.61,4.2,4.04
	c0.04,0.04-0.02,0.1-0.06,0.06C139.14,249.31,136.78,247.75,134.97,245.58z M136.22,255.57c-2.14-1.68-4.49-2.96-6.23-5.1
	c-1.58-1.94-2.79-4.19-3.87-6.44c-0.02-0.05,0.05-0.1,0.08-0.05c1.28,2.38,2.71,4.79,4.65,6.71c1.72,1.71,3.78,3.02,5.5,4.75
	C136.44,255.53,136.32,255.64,136.22,255.57z M73.23,234.72c2.18-0.32,4.37-0.59,6.59-0.68c1.04-0.04,2.07,0.04,3.11,0.19
	c-3.35,0.66-6.61,2.07-9.7,3.68V234.72z M79.5,231.69c-2.12,0.35-4.21,0.9-6.27,1.56v-4.34c3.14-0.62,6.26-0.11,9.61,1.03
	c0.61,0.21,1.21,0.42,1.81,0.62C82.85,230.92,80.97,231.45,79.5,231.69z M73.23,227.26V163.6c0.33,0.92,0.79,1.79,1.07,2.73
	c0.09,0.29,0.4,0.4,0.65,0.33c0,0,0.01,0,0.01,0c0.35-0.05,0.58-0.55,0.78-0.8c0.31-0.39,0.63-0.78,0.94-1.17
	c0.67-0.83,1.24-1.69,2.29-2.09c1.08-0.41,2.31-0.59,3.33-1.16c-0.2,1.64-0.54,3.27-0.98,4.86c-0.47,1.73-1.04,3.44-1.4,5.2
	c-0.34,1.7-0.55,3.43-0.62,5.17c-0.01,0.33,0,0.66-0.01,0.98c-0.93,2.85-1.41,5.97-0.86,8.94c0.44,2.36,1.31,4.49,2.49,6.49
	c0.13,0.84,0.23,1.69,0.28,2.54c0,0.09,0.01,0.18,0.01,0.27c-0.05,0.28-0.07,0.58-0.1,0.88c-3.4,1.95-2.33,5.66,0.23,9.37
	c0.02,0.65,0.05,1.3,0.08,1.96c0.11,2.4,0.24,4.81,0.33,7.21c0.04,0.95,0.07,1.9,0.1,2.86c-0.01,1.7-0.03,3.4-0.05,5.09
	c0,0.32,0.26,0.52,0.55,0.55c0.29,0.03,0.54,0.02,0.76-0.04c2.88-0.08,5.78,0.46,8.66,0.62c3.15,0.17,5.78-1.41,8.82-1.81
	c2.92-0.39,5.8,0.51,8.66,0.91c2.12,0.3,4.8,0.07,5.97-1.92c0.14-0.24,0.1-0.47-0.03-0.64c1.47-1.9,1.07-5.06,0.82-7.24
	c-0.44-3.69-0.91-7.38-1.19-11.09c-0.14-1.87-0.29-3.74-0.5-5.6c-0.06-0.56-0.13-1.12-0.2-1.68c-0.04-2.54-0.05-5.09-0.19-7.63
	c-0.17-3.14-0.47-6.18-1.03-9.27c-0.29-1.6-0.53-3.22-0.88-4.81c-0.34-1.57-0.59-3.01-0.49-4.63c0.09-1.58,0.05-3.16-0.04-4.75
	c-0.05-0.8-0.11-1.6-0.17-2.4c-0.02-0.29-0.04-0.56-0.07-0.84c0.28-0.55,0.03-1.69,0.02-2.15c-0.02-0.7,0.04-1.38,0.11-2.07
	c0.32,0.53,0.67,1.03,1.07,1.52c0.51,0.63,1.07,1.29,1.3,2.08c0.3,1.04,0.18,2.11,0.05,3.17c-0.26,2.17-0.23,4.12,0.86,6.06
	c0.48,0.86,1.04,1.72,1.28,2.68c0.19,0.77,0.31,1.55,0.46,2.32c-0.03,0.23-0.01,0.45,0.14,0.64c0.03,0.04,0.11,0.06,0.15,0.04
	c0.58-0.22,0.53-1.1,0.7-1.61c0.27-0.79,0.81-1.39,1.49-1.86c1.04-0.71,2.27-1.3,2.88-2.48c0.82-1.59,0.76-3.36,1.24-5.04
	c0.42,0.29,0.84,0.59,1.27,0.86c0.13,0.08,0.27,0.16,0.4,0.24c-0.01,0.54-0.02,1.07-0.02,1.6c-0.1,10.02,0.03,20.05,0.06,30.07
	c0.01,2.33-0.1,4.69,0.07,7.02c0.15,2.02,0.37,4.03,0.52,6.05c0.16,2.1,0.28,4.2,0.18,6.3c-0.05,0.97-0.07,2.02-0.33,2.96
	c-0.19,0.71-0.43,1.4-0.68,2.09c-0.53,0.69-0.84,1.69-1.04,2.62c-1.25,0.97-2.45,1.99-3.53,3.12c-0.87-0.24-1.74-0.44-2.64-0.51
	c-2.34-0.2-4.89,0.4-7.15,0.94c-5.23,1.26-10.14,3.36-15.61,3.29C87.26,230.89,79.91,224.99,73.23,227.26z M99.73,114.56
	c-0.23-2.96-0.54-6.33-3.11-8.21c-0.09-0.07-0.04-0.26,0.09-0.21c5.86,2.45,5.46,11.71,3.46,16.49c-0.07,0.16-0.34,0.16-0.33-0.04
	C99.94,119.96,99.94,117.19,99.73,114.56z M96.68,140.92c0.01-0.01,0.02,0,0.01,0.01c-3.62,6.6-0.66,14.76,2.21,21.07
	c2.66,5.84,6.26,11.56,7.7,17.85c0.06,0.28-0.36,0.49-0.49,0.21c-3.04-6.78-6.74-13.32-9.46-20.25
	C94.23,153.59,92.82,146.85,96.68,140.92z M102.71,130.51c2.7,0.63,7.2,1.28,7.62,4.71c0.03,0.28-0.23,0.62-0.51,0.67
	c-0.06,0.01-0.12,0.02-0.18,0.02c-0.31,0.03-0.58-0.23-0.67-0.51c-0.48-1.47-0.99-2.51-2.45-3.21c-1.25-0.6-2.56-1.05-3.86-1.52
	C102.56,130.63,102.6,130.48,102.71,130.51z M101.95,184.22c1.17,1.04,6.59,5.65,4.61,7.59c-0.11,0.11-0.32,0.13-0.43,0
	c-0.45-0.54-0.37-1.12-0.74-1.74c-0.67-1.09-1.46-2.08-2.35-3c-1.53-1.57-3.18-3-4.64-4.64c-2.99-3.36-5.03-7.24-6.49-11.48
	c-0.05-0.13,0.16-0.19,0.21-0.06C94.14,176.06,97.83,180.55,101.95,184.22z M111.74,208.38c0.22,0.03,0.18,0.36,0,0.41
	c-4.5,1.42-7.65-4.35-9.47-7.49c-2.48-4.26-5.77-11.72-11.87-8.64c-0.11,0.06-0.21-0.11-0.1-0.17
	C100.43,186.79,103.29,207.15,111.74,208.38z M107.21,213.93c-3.23,2.47-6.25-2.47-8.91-3.59c-0.1-0.04-0.03-0.21,0.07-0.17
	c2.89,0.95,5.46,3.2,8.64,3.03C107.45,213.18,107.49,213.71,107.21,213.93z M115.01,150.92c-0.03-0.3,0.39-0.45,0.59-0.24
	c1.02,1.09,1.31,2.49,1.89,3.83c0.5,1.16,0.81,2.5,0.97,3.74c0.01,0.11-0.18,0.14-0.2,0.03c-0.28-1.59-1-2.88-1.78-4.27
	C115.86,152.92,115.12,152.23,115.01,150.92z M132.9,223.14c3.99,4.23,3.92,11.31,6.08,16.47c0.03,0.08-0.1,0.13-0.14,0.06
	c-1.18-2.56-1.93-5.26-2.73-7.96c-0.89-2.99-2.15-5.51-3.75-8.16C132.18,223.22,132.64,222.86,132.9,223.14z M159.46,208.77
	c-5.47-5.65-14.45-9.27-21.12-4.1c-4.87,3.78-7.36,9.76-9.7,15.5c-0.28,0.23-0.57,0.45-0.86,0.67c0.23-1.13,0.35-2.31,0.42-3.42
	c0.13-1.83,0.1-3.67-0.02-5.51c-0.23-3.77-0.73-7.5-0.74-11.29c-0.03-8.89-0.13-17.78-0.07-26.67c0.01-2.48,0.07-4.96,0.16-7.45
	c0.13,0.03,0.27,0.06,0.41,0.08c1.4,0.64,3-1.25,1.76-2.6c-0.47-0.51-1.35-0.59-2.05-0.72c0-0.05,0.01-0.1,0.01-0.15
	c0.85,0.19,1.72,0.28,2.46,0.02c0.7-0.24,0.9-1.21,0.21-1.61c-0.74-0.43-1.67-0.61-2.56-0.79c0.01-0.21,0.02-0.43,0.03-0.64
	c0.71,0.1,1.41,0.18,2.13,0.12c0.9-0.07,1.49-1.41,0.51-1.87c-0.35-0.16-0.68-0.25-1.01-0.29c-0.11-0.42-0.45-0.76-1.03-0.73
	c-0.15-0.01-0.31-0.02-0.47-0.03c0.13-2.83,0.26-5.66,0.36-8.49c0.13-3.54,0.32-7.09,0.79-10.6c0.01-0.04,0.01-0.08,0.02-0.12
	c1.97,0.31,3.94,0.71,5.88,1.18c3.52,0.85,7.04,1.89,10.32,3.46c3.4,1.62,6.8,3.58,9.44,6.29c1.3,1.33,2.52,2.74,3.68,4.19
	c0.4,0.5,0.81,1.01,1.23,1.51v83.08c-0.18-0.89-0.39-1.78-0.64-2.67c-1.1-3.86-3.14-7.75-6.12-10.42c-1.21-2.85-3.65-4.8-2.96-8.48
	c0.4-2.12,1.8-3.75,2.87-5.55c1.83-0.74,3.77-0.94,5.58-1.69c0.1-0.08,0.21-0.15,0.31-0.21 M132.27,132.56
	c2.37,0.7,4.88,2.06,6.52,3.92c0.07,0.08,0.04,0.27-0.1,0.25c-2.66-0.34-8.02-6.76-9.31-1.81c-0.01,0.02-0.03,0.02-0.04,0
	C128.91,132.96,130.44,132.02,132.27,132.56z M143.72,137.45c1.25,0.35,2.39,0.75,3.5,1.46c0.44,0.28,0.02,0.98-0.41,0.7
	c-1-0.67-2.06-1.42-3.17-1.88C143.48,137.66,143.54,137.4,143.72,137.45z M154.64,243.67c0.56-2.18,0.62-4.43,1.11-6.62
	c0.07-0.33,0.56-0.24,0.57,0.08c0.22,5.38-1.88,10.25-6,13.67c-0.06,0.05-0.15-0.03-0.09-0.09
	C152.4,248.74,153.91,246.52,154.64,243.67z M151.23,238.97c0.65-1.51,1.02-3.01,1.28-4.62c0.21-1.25,0.24-2.64,0.93-3.73
	c0.13-0.21,0.46-0.13,0.47,0.13c0.03,1.4-0.6,2.9-1.02,4.24c-0.44,1.39-0.91,2.74-1.55,4.05
	C151.31,239.12,151.2,239.05,151.23,238.97z M153.84,257.09c0.57-0.98,1.22-2.02,1.52-3.12c0.28-1.03,0.3-2.05,0.46-3.09
	c0.09-0.54,0.93-0.4,0.94,0.13c0.01,2.22-1.61,4.4-2.78,6.17C153.93,257.26,153.79,257.18,153.84,257.09z M159.63,250.31v15.72
	c-0.55-1.3-1.03-2.65-1.55-3.89c-0.51-1.21-1.04-2.4-1.57-3.6C158,255.92,159.03,253.16,159.63,250.31z M149.53,223.26
	c-0.11,1.32-0.85,2.53-1.21,3.81c-0.4,1.45-0.81,2.84-1.09,4.33c-0.02,0.09-0.15,0.05-0.13-0.04c0.35-2.43-0.16-6.56,2.02-8.27
	C149.27,222.97,149.55,223.02,149.53,223.26z M150.46,267.28c-0.03-0.1,0.12-0.14,0.15-0.04c0.98,2.97,2.76,5.71,4.7,8.23h-1.33
	C152.41,272.96,151.29,270.28,150.46,267.28z M159.63,59.47v18.28c-1.59-1.46-3.34-2.77-5.07-4.12c0.58-3.35,0.53-6.67-0.32-9.98
	c-0.1-0.39-0.66-0.38-0.77,0c-0.69,2.47-1.35,4.95-1.93,7.46c-3.72-3.42-6.26-7.52-9.04-11.64L159.63,59.47L159.63,59.47z
	 M141.13,59.47c1.53,4.16,2.99,7.9,6.13,11.45c3.43,3.87,7.15,7.43,9.85,11.8c-3.97-1.51-8.74-1.94-12.21-3.15
	c-0.2-0.07-0.33,0.24-0.15,0.34c2.66,1.45,5.13,3.06,7.57,4.86c2.38,1.74,4.8,3.94,7.3,5.54v8.46c-2.36-1.65-4.85-3.16-7.36-4.61
	c-0.66-0.52-1.41-0.94-2.22-1.28c-2.22-1.26-4.44-2.5-6.58-3.78c-1.9-1.13-3.77-2.41-5.7-3.58c-0.43-1.47-1.02-2.92-1.46-4.33
	c-0.79-2.5-1.43-5.02-2.16-7.53c-0.09-0.3-0.53-0.31-0.61,0c-0.67,2.57-1.03,6.14-0.54,9.39c-0.52-0.21-1.05-0.4-1.6-0.57
	c-4.98-1.55-8.81-5.84-12.76-9.03c-1.13-0.92-2.57,0.48-1.61,1.61c2.89,3.39,6.66,5.91,10.07,8.74c1.67,1.39,2.78,3.21,4.45,4.6
	c1.68,1.4,3.58,2.53,5.43,3.68c-0.59,0.07-1.16,0.14-1.69,0.22c-9.06,1.25-16.74-1.03-25.07-4.45c-1.74-0.71-2.47,2.09-0.77,2.8
	c6.44,2.72,12.81,4.92,19.82,5.38c4.02,0.26,8.07,0.09,12.06,0.62c1.65,0.22,3.28,0.68,4.89,1.05c1.24,0.74,2.48,1.47,3.72,2.21
	c3.1,1.83,6.71,3.34,9.68,5.46v45.42c-0.23-0.54-0.48-1.08-0.73-1.58c-0.32-0.65-0.66-1.29-1.02-1.92c-2.1-4.2-4.73-8.1-8.6-10.93
	c-3.33-2.44-7.5-3.66-11.43-4.77c-2.31-0.65-4.66-1.18-7.03-1.54c-0.22-0.03-0.44-0.06-0.66-0.09c-0.09-0.11-0.22-0.17-0.37-0.18
	c-0.01-0.19-0.02-0.38-0.02-0.58c-0.01-0.39-0.28-0.82-0.69-0.9c-0.9-0.17-1.8-0.25-2.71-0.3c-0.61-0.03-1,0.51-1.05,1.05
	c-0.02,0.21-0.04,0.42-0.05,0.63c-0.46,0-0.91-0.01-1.37-0.01c-0.18,0-0.33,0.04-0.47,0.1c-0.3-0.03-0.61-0.06-0.92-0.07
	c-0.41-0.02-0.72,0.29-0.85,0.65c-0.46,1.25-0.85,2.51-0.91,3.85c-0.04,0.85-0.15,2.05,0.49,2.69c0.24,0.24,0.56,0.37,0.89,0.39
	c0.16,0.06,0.34,0.1,0.54,0.12c0.74,0.04,1.47,0.1,2.21,0.17c-0.02,0.13-0.04,0.26-0.05,0.39c-0.21,1.75-0.44,3.47-0.55,5.23
	c-0.17,2.73-0.35,5.45-0.44,8.18c-0.04,1.22-0.17,2.49-0.1,3.72c-0.23-0.04-0.47-0.06-0.7-0.08c-0.46-0.04-1.02-0.04-1.43-0.27
	c-0.31-0.18-0.45-0.47-0.65-0.73c-0.42-0.96-0.55-2.07-0.69-3.09c-0.19-1.41-0.37-2.82-0.84-4.18c-0.95-2.72-2.31-5.28-2.74-8.17
	c-0.34-2.31-0.27-4.74-1.25-6.92c-0.5-1.11-1.21-1.74-2.16-2.47c-0.66-0.51-1.34-1.01-2.08-1.42c-0.32-0.22-0.65-0.42-1-0.61
	c-0.99-0.54-2.08-0.98-3.18-1.2c-1.1-0.22-2.2-0.12-3.17-0.7c0.34-0.29,0.69-0.59,0.97-0.92c0.64-0.79,0.95-1.68,1.04-2.68
	c0.13-1.48,0.23-2.97,0.39-4.45c0.15-1.48,0.43-3.02,0.26-4.51c-0.28-2.48-1.43-4.75-3.08-6.61c-0.93-1.05-1.95-2.01-3.06-2.88
	c-0.5-0.4-1.02-0.79-1.55-1.15c-0.4-0.27-0.8-0.61-1.27-0.71c-0.95-0.67-1.77-0.04-2.6,0.48c-0.98,0.61-1.93,1.34-2.78,2.11
	c-1.74,1.57-3.27,3.53-3.99,5.79c-0.84,2.61-0.58,5.29,0.04,7.93c0.35,1.49,0.8,2.96,1.34,4.4c0.16,0.42,0.33,0.83,0.5,1.24
	c-1.4,1.62-4.02,1.06-5.79,2.35c-0.99,0.72-1.78,1.66-2.5,2.65c-0.79,1.09-1.65,2.14-2.4,3.26c-0.75,1.12-1.42,2.45-1.63,3.8
	c-0.23,1.48-0.12,3-0.15,4.5c-0.03,1.61-0.19,3.23-0.13,4.84c0.03,0.74,0.07,1.5,0,2.24c-0.04,0.42-0.21,0.86-0.28,1.29
	c-1.05,0.32-2.04,0.62-3.15,0.77c-0.26,0.04-0.52,0.07-0.79,0.11V59.47H141.13z M73.23,267.19c4.14,0.22,8.25,0.48,12.35,1.27
	c1.79,0.35,3.53,0.9,5.26,1.48c-1.91,0.03-3.81,0.08-5.65,0.18c-4.17,0.23-7.99-0.34-11.96-0.12L73.23,267.19L73.23,267.19z
	 M73.23,275.47v-3.3c3.81,0.61,7.63,1.03,11.46,1.69c3.24,0.56,6.22,1.17,9.29,1.61H73.23z M130.02,275.47
	c-1.19-0.72-1.92-1.78-3.09-2.46c-1.75-1.02-4.46-0.97-6.43-1.12c-2.54-0.19-5.1-0.16-7.65-0.26c5.03-1.01,9.31-3.81,14.5-4.49
	c0.46-0.06,0.49-0.79,0-0.75c-4.15,0.32-8.14,0.17-12.28,0.12c-4.81-0.06-9.53,0.67-14.37,0.48c-4.67-0.18-9.37-0.54-14.08-0.82
	c3.19-0.57,6.29-1.46,9.02-2.48c5.16-1.92,8.89-4.63,14.71-3.53c3.27,0.62,5.47,1.65,8.81,0.82c0.24-0.06,0.19-0.46-0.06-0.44
	c-4.12,0.36-7.48-1.93-11.4-2.72c-3.31-0.66-6.63,0.56-9.74,1.51c-4.5,1.37-8.9,1.53-13.33,1.38c3.14-1.35,5.8-3.97,9.07-4.61
	c0.39-0.08,0.3-0.71-0.09-0.69c-3.12,0.14-6.09-0.4-9.24-0.07c-1.9,0.2-3.79,0.59-5.67,0.75c0.72-0.3,1.41-0.72,2.05-1.15
	c0.9-0.6,1.66-1.73,2.72-2.05c0.45-0.13,0.33-0.74-0.11-0.78c-0.86-0.09-1.63-0.69-2.45-0.88c-0.92-0.22-1.83-0.34-2.77-0.42
	c-1.58-0.14-3.26,0.12-4.89,0.2v-11.45c5.52-0.99,11.86-0.63,16.89,0.75c5.89,1.62,11.4,3.6,17.54,1.69
	c0.26-0.08,0.22-0.51-0.07-0.48c-4.97,0.4-7.96-1.87-11.85-4.18c2.3,0.4,4.62,0.68,6.95,0.84c4.06,0.27,6.65-2.78,10.31-4.06
	c0.75-0.26,0.45-1.41-0.33-1.2c-3.31,0.92-7.52-0.41-11.08-0.76c2.55-0.61,5.06-1.46,7.56-2.16c2.4-0.68,4.82-1.16,7.31-1.26
	c0.73-0.03,1.46-0.03,2.19-0.02c-0.75,0.99-1.41,2.07-1.92,3.28c-1.7,4.06,4.27,13.48,4.43,13.93c0.87,2.52,2.98,4.49,4.81,6.31
	c2.02,2,3.44,4.49,5.38,6.55c0.05,0.05,0.1,0.1,0.15,0.15c3.2,1.63,7.18,3.13,7.42,0.32c0.01-0.14,0.21-0.14,0.22,0
	c0.02,0.38-0.01,0.7-0.05,1c0.04,0.02,0.08,0.05,0.11,0.08c0.9,1,1.98,1.88,3.09,2.65c1.03,0.72,2.34,1.76,3.62,1.83
	c0.07,0,0.09,0.11,0.02,0.12c-1.43,0.2-2.67,0.12-3.9-0.69c-1.29-0.85-2.25-1.94-3.23-3.11c-1.01,1.78-4.01,0.76-6.73-0.72
	c-0.02,0.17-0.05,0.34-0.07,0.52c-0.56,4.18-0.61,7.92,0.13,11.97c0.14,0.32,0.24,0.66,0.33,1c1.07,0.09,2.05,0.53,3.1,0.95
	c0.52,0.21,1.05,0.4,1.57,0.61L130.02,275.47L130.02,275.47z"/>
<path fill="#3F3F3F" d="M342.81,129.07v-38.4h-3.6v-38.4l-104.4,0v38.4h3.6v38.4h-3.6v38.4h3.6v38.4h-3.6v38.4h3.6v38.4h33.6v3.6
	h33.6v-3.6l37.2,0v-38.4h-3.6v-38.4h3.6v-38.4h-3.6v-38.4C339.21,129.07,342.81,129.07,342.81,129.07z M311.37,272.42
	c0.25-2.8,0.2-5.48-0.77-8.15c-0.03-0.07,0.09-0.12,0.12-0.05c1.08,2.3,1.5,4.71,1.86,7.2c0.17,1.2,0.43,2.65,0.48,4.04h-1.78
	C311.22,274.41,311.29,273.32,311.37,272.42z M307.35,245.58c-1.4-1.69-2.77-3.38-4.41-4.84c-1.83-1.63-5.1-3.8-5.33-6.49
	c-0.05-0.55,0.84-0.56,0.86,0c0.12,3.04,4.64,5.57,6.48,7.68c1.49,1.72,2.77,3.68,4.42,5.25c1.41,1.34,2.88,2.61,4.2,4.04
	c0.04,0.04-0.02,0.1-0.06,0.06C311.52,249.31,309.15,247.75,307.35,245.58z M308.6,255.57c-2.14-1.68-4.49-2.96-6.23-5.1
	c-1.58-1.94-2.79-4.19-3.87-6.44c-0.02-0.05,0.05-0.1,0.08-0.05c1.28,2.38,2.71,4.79,4.65,6.71c1.72,1.71,3.78,3.02,5.5,4.75
	C308.82,255.53,308.69,255.64,308.6,255.57z M245.61,234.72c2.18-0.32,4.37-0.59,6.59-0.68c1.04-0.04,2.07,0.04,3.11,0.19
	c-3.35,0.66-6.61,2.07-9.7,3.68L245.61,234.72L245.61,234.72z M251.88,231.69c-2.12,0.35-4.21,0.9-6.27,1.56v-4.34
	c3.14-0.62,6.26-0.11,9.61,1.03c0.61,0.21,1.21,0.42,1.81,0.62C255.23,230.92,253.35,231.45,251.88,231.69z M245.61,227.26V163.6
	c0.33,0.92,0.79,1.79,1.07,2.73c0.09,0.29,0.4,0.4,0.65,0.33c0.01,0,0.01,0,0.01,0c0.35-0.05,0.58-0.55,0.78-0.8
	c0.31-0.39,0.63-0.78,0.94-1.17c0.67-0.83,1.24-1.69,2.29-2.09c1.08-0.41,2.31-0.59,3.33-1.16c-0.2,1.64-0.54,3.27-0.98,4.86
	c-0.47,1.73-1.04,3.44-1.4,5.2c-0.34,1.7-0.55,3.43-0.62,5.17c-0.01,0.33,0,0.66-0.01,0.98c-0.93,2.85-1.41,5.97-0.86,8.94
	c0.44,2.36,1.31,4.49,2.48,6.49c0.13,0.84,0.23,1.69,0.27,2.54c0.01,0.09,0.01,0.18,0.01,0.27c-0.05,0.28-0.07,0.58-0.1,0.88
	c-3.4,1.95-2.33,5.66,0.23,9.37c0.02,0.65,0.05,1.3,0.08,1.96c0.11,2.4,0.24,4.81,0.33,7.21c0.04,0.95,0.07,1.9,0.1,2.86
	c-0.01,1.7-0.02,3.4-0.05,5.09c-0.01,0.32,0.26,0.52,0.55,0.55c0.29,0.03,0.54,0.02,0.76-0.04c2.88-0.08,5.78,0.46,8.66,0.62
	c3.15,0.17,5.78-1.41,8.82-1.81c2.92-0.39,5.8,0.51,8.66,0.91c2.12,0.3,4.8,0.07,5.97-1.92c0.14-0.24,0.1-0.47-0.03-0.64
	c1.47-1.9,1.07-5.06,0.82-7.24c-0.44-3.69-0.91-7.38-1.19-11.09c-0.14-1.87-0.29-3.74-0.5-5.6c-0.06-0.56-0.13-1.12-0.2-1.68
	c-0.03-2.54-0.05-5.09-0.19-7.63c-0.17-3.14-0.47-6.18-1.03-9.27c-0.29-1.6-0.53-3.22-0.88-4.81c-0.34-1.57-0.59-3.01-0.49-4.63
	c0.09-1.58,0.05-3.16-0.04-4.75c-0.05-0.8-0.11-1.6-0.17-2.4c-0.02-0.29-0.04-0.56-0.07-0.84c0.28-0.55,0.03-1.69,0.02-2.15
	c-0.02-0.7,0.04-1.38,0.11-2.07c0.32,0.53,0.67,1.03,1.07,1.52c0.51,0.63,1.07,1.29,1.3,2.08c0.3,1.04,0.17,2.11,0.05,3.17
	c-0.26,2.17-0.23,4.12,0.86,6.06c0.48,0.86,1.03,1.72,1.28,2.68c0.19,0.77,0.31,1.55,0.46,2.32c-0.03,0.23-0.01,0.45,0.15,0.64
	c0.03,0.04,0.11,0.06,0.15,0.04c0.58-0.22,0.53-1.1,0.7-1.61c0.27-0.79,0.8-1.39,1.49-1.86c1.04-0.71,2.27-1.3,2.88-2.48
	c0.82-1.59,0.76-3.36,1.24-5.04c0.42,0.29,0.84,0.59,1.27,0.86c0.13,0.08,0.27,0.16,0.4,0.24c-0.01,0.54-0.02,1.07-0.02,1.6
	c-0.1,10.02,0.03,20.05,0.06,30.07c0.01,2.33-0.09,4.69,0.07,7.02c0.15,2.02,0.36,4.03,0.52,6.05c0.16,2.1,0.28,4.2,0.18,6.3
	c-0.05,0.97-0.07,2.02-0.33,2.96c-0.19,0.71-0.43,1.4-0.68,2.09c-0.53,0.69-0.84,1.69-1.04,2.62c-1.25,0.97-2.45,1.99-3.53,3.12
	c-0.87-0.24-1.74-0.44-2.64-0.51c-2.34-0.2-4.89,0.4-7.15,0.94c-5.23,1.26-10.14,3.36-15.61,3.29
	C259.64,230.89,252.29,224.99,245.61,227.26z M272.11,114.56c-0.23-2.96-0.54-6.33-3.11-8.21c-0.09-0.07-0.04-0.26,0.09-0.21
	c5.86,2.45,5.46,11.71,3.46,16.49c-0.07,0.16-0.34,0.16-0.33-0.04C272.31,119.96,272.31,117.19,272.11,114.56z M269.05,140.92
	c0.01-0.01,0.02,0,0.01,0.01c-3.62,6.6-0.66,14.76,2.21,21.07c2.66,5.84,6.26,11.56,7.7,17.85c0.06,0.28-0.36,0.49-0.48,0.21
	c-3.04-6.78-6.74-13.32-9.46-20.25C266.61,153.59,265.2,146.85,269.05,140.92z M275.08,130.51c2.7,0.63,7.2,1.28,7.62,4.71
	c0.03,0.28-0.23,0.62-0.51,0.67c-0.06,0.01-0.12,0.02-0.18,0.02c-0.31,0.03-0.58-0.23-0.66-0.51c-0.48-1.47-0.99-2.51-2.45-3.21
	c-1.25-0.6-2.56-1.05-3.86-1.52C274.93,130.63,274.98,130.48,275.08,130.51z M274.33,184.22c1.17,1.04,6.59,5.65,4.61,7.59
	c-0.11,0.11-0.32,0.13-0.43,0c-0.45-0.54-0.37-1.12-0.74-1.74c-0.66-1.09-1.46-2.08-2.35-3c-1.53-1.57-3.18-3-4.64-4.64
	c-2.99-3.36-5.03-7.24-6.49-11.48c-0.05-0.13,0.16-0.19,0.21-0.06C266.52,176.06,270.21,180.55,274.33,184.22z M284.12,208.38
	c0.22,0.03,0.18,0.36,0,0.41c-4.5,1.42-7.65-4.35-9.47-7.49c-2.48-4.26-5.77-11.72-11.87-8.64c-0.11,0.06-0.21-0.11-0.1-0.17
	C272.81,186.79,275.67,207.15,284.12,208.38z M279.59,213.93c-3.23,2.47-6.25-2.47-8.91-3.59c-0.1-0.04-0.03-0.21,0.07-0.17
	c2.89,0.95,5.46,3.2,8.64,3.03C279.83,213.18,279.87,213.71,279.59,213.93z M287.38,150.92c-0.03-0.3,0.39-0.45,0.59-0.24
	c1.02,1.09,1.31,2.49,1.89,3.83c0.5,1.16,0.81,2.5,0.97,3.74c0.02,0.11-0.18,0.14-0.2,0.03c-0.28-1.59-1-2.88-1.78-4.27
	C288.23,152.92,287.49,152.23,287.38,150.92z M305.28,223.14c3.99,4.23,3.92,11.31,6.08,16.47c0.03,0.08-0.1,0.13-0.14,0.06
	c-1.18-2.56-1.93-5.26-2.73-7.96c-0.89-2.99-2.15-5.51-3.75-8.16C304.56,223.22,305.02,222.86,305.28,223.14z M331.84,208.77
	c-5.47-5.65-14.45-9.27-21.12-4.1c-4.87,3.78-7.36,9.76-9.7,15.5c-0.28,0.23-0.57,0.45-0.86,0.67c0.23-1.13,0.35-2.31,0.42-3.42
	c0.13-1.83,0.1-3.67-0.02-5.51c-0.23-3.77-0.73-7.5-0.74-11.29c-0.03-8.89-0.13-17.78-0.07-26.67c0.02-2.48,0.08-4.96,0.16-7.45
	c0.14,0.03,0.27,0.06,0.41,0.08c1.4,0.64,3-1.25,1.76-2.6c-0.47-0.51-1.35-0.59-2.05-0.72c0-0.05,0.01-0.1,0.01-0.15
	c0.85,0.19,1.72,0.28,2.46,0.02c0.7-0.24,0.9-1.21,0.21-1.61c-0.74-0.43-1.67-0.61-2.56-0.79c0.01-0.21,0.02-0.43,0.03-0.64
	c0.71,0.1,1.41,0.18,2.14,0.12c0.9-0.07,1.49-1.41,0.51-1.87c-0.35-0.16-0.68-0.25-1.01-0.29c-0.11-0.42-0.45-0.76-1.03-0.73
	c-0.16-0.01-0.31-0.02-0.47-0.03c0.13-2.83,0.26-5.66,0.36-8.49c0.13-3.54,0.32-7.09,0.79-10.6c0.01-0.04,0.01-0.08,0.02-0.12
	c1.97,0.31,3.94,0.71,5.88,1.18c3.52,0.85,7.04,1.89,10.32,3.46c3.4,1.62,6.8,3.58,9.44,6.29c1.3,1.33,2.52,2.74,3.68,4.19
	c0.4,0.5,0.81,1.01,1.23,1.51v83.08c-0.18-0.89-0.39-1.78-0.64-2.67c-1.1-3.86-3.14-7.75-6.12-10.42c-1.21-2.85-3.65-4.8-2.96-8.48
	c0.4-2.12,1.8-3.75,2.87-5.55c1.83-0.74,3.77-0.94,5.58-1.69c0.1-0.08,0.2-0.15,0.31-0.21 M304.65,132.56
	c2.37,0.7,4.88,2.06,6.52,3.92c0.08,0.08,0.04,0.27-0.1,0.25c-2.66-0.34-8.02-6.76-9.31-1.81c-0.01,0.02-0.03,0.02-0.04,0
	C301.28,132.96,302.82,132.02,304.65,132.56z M316.1,137.45c1.25,0.35,2.39,0.75,3.5,1.46c0.44,0.28,0.02,0.98-0.41,0.7
	c-1-0.67-2.06-1.42-3.17-1.88C315.86,137.66,315.92,137.4,316.1,137.45z M327.02,243.67c0.56-2.18,0.62-4.43,1.11-6.62
	c0.07-0.33,0.56-0.24,0.58,0.08c0.22,5.38-1.88,10.25-6,13.67c-0.06,0.05-0.15-0.03-0.09-0.09
	C324.78,248.74,326.29,246.52,327.02,243.67z M323.61,238.97c0.65-1.51,1.02-3.01,1.28-4.62c0.21-1.25,0.24-2.64,0.93-3.73
	c0.13-0.21,0.46-0.13,0.47,0.13c0.03,1.4-0.6,2.9-1.02,4.24c-0.44,1.39-0.91,2.74-1.55,4.05
	C323.69,239.12,323.58,239.05,323.61,238.97z M326.22,257.09c0.57-0.98,1.22-2.02,1.52-3.12c0.28-1.03,0.3-2.05,0.46-3.09
	c0.09-0.54,0.93-0.4,0.94,0.13c0.01,2.22-1.61,4.4-2.78,6.17C326.3,257.26,326.17,257.18,326.22,257.09z M332.01,250.31v15.72
	c-0.55-1.3-1.03-2.65-1.55-3.89c-0.51-1.21-1.04-2.4-1.57-3.6C330.38,255.92,331.41,253.16,332.01,250.31z M321.91,223.26
	c-0.11,1.32-0.85,2.53-1.21,3.81c-0.4,1.45-0.81,2.84-1.09,4.33c-0.02,0.09-0.15,0.05-0.14-0.04c0.35-2.43-0.16-6.56,2.02-8.27
	C321.64,222.97,321.92,223.02,321.91,223.26z M322.84,267.28c-0.03-0.1,0.12-0.14,0.15-0.04c0.98,2.97,2.77,5.71,4.7,8.23h-1.33
	C324.79,272.96,323.66,270.28,322.84,267.28z M332.01,59.47v18.28c-1.59-1.46-3.34-2.77-5.08-4.12c0.58-3.35,0.53-6.67-0.33-9.98
	c-0.1-0.39-0.66-0.38-0.77,0c-0.69,2.47-1.35,4.95-1.93,7.46c-3.72-3.42-6.26-7.52-9.04-11.64L332.01,59.47L332.01,59.47z
	 M313.5,59.47c1.53,4.16,2.99,7.9,6.14,11.45c3.42,3.87,7.15,7.43,9.85,11.8c-3.97-1.51-8.74-1.94-12.21-3.15
	c-0.2-0.07-0.33,0.24-0.14,0.34c2.66,1.45,5.13,3.06,7.58,4.86c2.38,1.74,4.8,3.94,7.3,5.54v8.46c-2.36-1.65-4.85-3.16-7.36-4.61
	c-0.66-0.52-1.41-0.94-2.22-1.28c-2.22-1.26-4.44-2.5-6.58-3.78c-1.9-1.13-3.77-2.41-5.7-3.58c-0.43-1.47-1.02-2.92-1.46-4.33
	c-0.78-2.5-1.43-5.02-2.16-7.53c-0.08-0.3-0.53-0.31-0.61,0c-0.67,2.57-1.03,6.14-0.53,9.39c-0.52-0.21-1.05-0.4-1.6-0.57
	c-4.98-1.55-8.81-5.84-12.76-9.03c-1.13-0.92-2.57,0.48-1.61,1.61c2.89,3.39,6.66,5.91,10.07,8.74c1.67,1.39,2.78,3.21,4.45,4.6
	c1.68,1.4,3.58,2.53,5.43,3.68c-0.59,0.07-1.16,0.14-1.69,0.22c-9.06,1.25-16.74-1.03-25.08-4.45c-1.74-0.71-2.47,2.09-0.77,2.8
	c6.44,2.72,12.81,4.92,19.82,5.38c4.02,0.26,8.07,0.09,12.06,0.62c1.65,0.22,3.28,0.68,4.89,1.05c1.24,0.74,2.48,1.47,3.72,2.21
	c3.1,1.83,6.71,3.34,9.68,5.46v45.42c-0.23-0.54-0.48-1.08-0.73-1.58c-0.32-0.65-0.66-1.29-1.02-1.92c-2.1-4.2-4.73-8.1-8.6-10.93
	c-3.33-2.44-7.5-3.66-11.42-4.77c-2.31-0.65-4.66-1.18-7.03-1.54c-0.22-0.03-0.44-0.06-0.66-0.09c-0.09-0.11-0.22-0.17-0.36-0.18
	c-0.01-0.19-0.02-0.38-0.02-0.58c-0.01-0.39-0.28-0.82-0.69-0.9c-0.9-0.17-1.8-0.25-2.71-0.3c-0.61-0.03-1,0.51-1.05,1.05
	c-0.02,0.21-0.03,0.42-0.05,0.63c-0.45,0-0.91-0.01-1.37-0.01c-0.18,0-0.33,0.04-0.47,0.1c-0.3-0.03-0.61-0.06-0.92-0.07
	c-0.41-0.02-0.72,0.29-0.85,0.65c-0.46,1.25-0.85,2.51-0.91,3.85c-0.04,0.85-0.15,2.05,0.48,2.69c0.24,0.24,0.56,0.37,0.89,0.39
	c0.16,0.06,0.34,0.1,0.54,0.12c0.74,0.04,1.47,0.1,2.21,0.17c-0.02,0.13-0.04,0.26-0.05,0.39c-0.21,1.75-0.44,3.47-0.55,5.23
	c-0.17,2.73-0.35,5.45-0.44,8.18c-0.04,1.22-0.17,2.49-0.1,3.72c-0.23-0.04-0.47-0.06-0.7-0.08c-0.46-0.04-1.02-0.04-1.43-0.27
	c-0.31-0.18-0.45-0.47-0.65-0.73c-0.42-0.96-0.55-2.07-0.69-3.09c-0.2-1.41-0.37-2.82-0.84-4.18c-0.95-2.72-2.31-5.28-2.74-8.17
	c-0.34-2.31-0.27-4.74-1.25-6.92c-0.5-1.11-1.22-1.74-2.16-2.47c-0.66-0.51-1.34-1.01-2.08-1.42c-0.32-0.22-0.65-0.42-1-0.61
	c-0.99-0.54-2.08-0.98-3.18-1.2c-1.1-0.22-2.2-0.12-3.17-0.7c0.34-0.29,0.69-0.59,0.97-0.92c0.64-0.79,0.95-1.68,1.04-2.68
	c0.13-1.48,0.23-2.97,0.39-4.45c0.15-1.48,0.43-3.02,0.26-4.51c-0.28-2.48-1.43-4.75-3.08-6.61c-0.93-1.05-1.95-2.01-3.05-2.88
	c-0.51-0.4-1.02-0.79-1.55-1.15c-0.4-0.27-0.8-0.61-1.27-0.71c-0.95-0.67-1.77-0.04-2.6,0.48c-0.98,0.61-1.92,1.34-2.78,2.11
	c-1.74,1.57-3.27,3.53-3.99,5.79c-0.84,2.61-0.58,5.29,0.03,7.93c0.35,1.49,0.8,2.96,1.34,4.4c0.16,0.42,0.33,0.83,0.51,1.24
	c-1.4,1.62-4.02,1.06-5.79,2.35c-0.99,0.72-1.78,1.66-2.5,2.65c-0.8,1.09-1.65,2.14-2.4,3.26c-0.75,1.12-1.42,2.45-1.63,3.8
	c-0.23,1.48-0.12,3-0.15,4.5c-0.03,1.61-0.19,3.23-0.13,4.84c0.03,0.74,0.08,1.5,0,2.24c-0.04,0.42-0.21,0.86-0.27,1.29
	c-1.05,0.32-2.04,0.62-3.15,0.77c-0.26,0.04-0.52,0.07-0.79,0.11V59.47H313.5z M245.61,267.19c4.14,0.22,8.25,0.48,12.35,1.27
	c1.79,0.35,3.53,0.9,5.26,1.48c-1.91,0.03-3.81,0.08-5.65,0.18c-4.17,0.23-7.99-0.34-11.96-0.12L245.61,267.19L245.61,267.19z
	 M245.61,275.47v-3.3c3.81,0.61,7.63,1.03,11.46,1.69c3.23,0.56,6.22,1.17,9.29,1.61H245.61z M302.39,275.47
	c-1.19-0.72-1.92-1.78-3.09-2.46c-1.75-1.02-4.46-0.97-6.43-1.12c-2.54-0.19-5.1-0.16-7.65-0.26c5.03-1.01,9.32-3.81,14.5-4.49
	c0.47-0.06,0.49-0.79,0-0.75c-4.14,0.32-8.14,0.17-12.28,0.12c-4.8-0.06-9.53,0.67-14.37,0.48c-4.67-0.18-9.37-0.54-14.08-0.82
	c3.19-0.57,6.29-1.46,9.02-2.48c5.16-1.92,8.89-4.63,14.71-3.53c3.27,0.62,5.47,1.65,8.81,0.82c0.24-0.06,0.19-0.46-0.06-0.44
	c-4.12,0.36-7.48-1.93-11.4-2.72c-3.31-0.66-6.63,0.56-9.74,1.51c-4.5,1.37-8.9,1.53-13.33,1.38c3.15-1.35,5.8-3.97,9.07-4.61
	c0.39-0.08,0.3-0.71-0.09-0.69c-3.12,0.14-6.09-0.4-9.24-0.07c-1.9,0.2-3.79,0.59-5.67,0.75c0.72-0.3,1.41-0.72,2.05-1.15
	c0.9-0.6,1.66-1.73,2.73-2.05c0.45-0.13,0.33-0.74-0.11-0.78c-0.86-0.09-1.63-0.69-2.45-0.88c-0.92-0.22-1.83-0.34-2.77-0.42
	c-1.58-0.14-3.26,0.12-4.89,0.2v-11.45c5.52-0.99,11.86-0.63,16.89,0.75c5.89,1.62,11.4,3.6,17.54,1.69
	c0.26-0.08,0.22-0.51-0.07-0.48c-4.97,0.4-7.96-1.87-11.85-4.18c2.3,0.4,4.62,0.68,6.95,0.84c4.06,0.27,6.65-2.78,10.31-4.06
	c0.75-0.26,0.45-1.41-0.33-1.2c-3.31,0.92-7.52-0.41-11.08-0.76c2.55-0.61,5.06-1.46,7.55-2.16c2.4-0.68,4.82-1.16,7.31-1.26
	c0.73-0.03,1.46-0.03,2.19-0.02c-0.75,0.99-1.41,2.07-1.92,3.28c-1.7,4.06,4.27,13.48,4.43,13.93c0.87,2.52,2.98,4.49,4.81,6.31
	c2.02,2,3.44,4.49,5.38,6.55c0.05,0.05,0.1,0.1,0.15,0.15c3.2,1.63,7.18,3.13,7.42,0.32c0.01-0.14,0.21-0.14,0.22,0
	c0.02,0.38-0.01,0.7-0.05,1c0.04,0.02,0.08,0.05,0.11,0.08c0.9,1,1.98,1.88,3.09,2.65c1.03,0.72,2.34,1.76,3.62,1.83
	c0.07,0,0.09,0.11,0.02,0.12c-1.43,0.2-2.67,0.12-3.9-0.69c-1.29-0.85-2.25-1.94-3.23-3.11c-1.01,1.78-4.01,0.76-6.73-0.72
	c-0.02,0.17-0.05,0.34-0.08,0.52c-0.56,4.18-0.61,7.92,0.13,11.97c0.14,0.32,0.24,0.66,0.33,1c1.07,0.09,2.05,0.53,3.1,0.95
	c0.52,0.21,1.05,0.4,1.58,0.61L302.39,275.47L302.39,275.47z"/>
<path fill="#3F3F3F" d="M515.19,129.07v-38.4h-3.6v-38.4l-104.4,0v38.4h3.6v38.4h-3.6v38.4h3.6v38.4h-3.6v38.4h3.6v38.4h33.6v3.6
	h33.6v-3.6l37.2,0v-38.4h-3.6v-38.4h3.6v-38.4h-3.6v-38.4C511.59,129.07,515.19,129.07,515.19,129.07z M483.75,272.42
	c0.25-2.8,0.2-5.48-0.77-8.15c-0.03-0.07,0.09-0.12,0.12-0.05c1.08,2.3,1.5,4.71,1.86,7.2c0.17,1.2,0.43,2.65,0.48,4.04h-1.78
	C483.6,274.41,483.67,273.32,483.75,272.42z M479.73,245.58c-1.4-1.69-2.77-3.38-4.41-4.84c-1.83-1.63-5.1-3.8-5.33-6.49
	c-0.05-0.55,0.84-0.56,0.86,0c0.12,3.04,4.64,5.57,6.48,7.68c1.49,1.72,2.77,3.68,4.42,5.25c1.41,1.34,2.88,2.61,4.2,4.04
	c0.04,0.04-0.02,0.1-0.06,0.06C483.9,249.31,481.53,247.75,479.73,245.58z M480.98,255.57c-2.14-1.68-4.49-2.96-6.23-5.1
	c-1.58-1.94-2.79-4.19-3.87-6.44c-0.02-0.05,0.05-0.1,0.08-0.05c1.28,2.38,2.71,4.79,4.65,6.71c1.72,1.71,3.78,3.02,5.5,4.75
	C481.2,255.53,481.07,255.64,480.98,255.57z M417.99,234.72c2.18-0.32,4.37-0.59,6.59-0.68c1.04-0.04,2.07,0.04,3.11,0.19
	c-3.35,0.66-6.61,2.07-9.7,3.68L417.99,234.72L417.99,234.72z M424.26,231.69c-2.12,0.35-4.21,0.9-6.27,1.56v-4.34
	c3.14-0.62,6.26-0.11,9.61,1.03c0.61,0.21,1.21,0.42,1.81,0.62C427.61,230.92,425.73,231.45,424.26,231.69z M417.99,227.26V163.6
	c0.33,0.92,0.79,1.79,1.08,2.73c0.09,0.29,0.4,0.4,0.65,0.33c0.01,0,0.01,0,0.01,0c0.35-0.05,0.58-0.55,0.78-0.8
	c0.31-0.39,0.63-0.78,0.94-1.17c0.67-0.83,1.24-1.69,2.29-2.09c1.08-0.41,2.31-0.59,3.33-1.16c-0.2,1.64-0.54,3.27-0.98,4.86
	c-0.47,1.73-1.04,3.44-1.4,5.2c-0.34,1.7-0.55,3.43-0.62,5.17c-0.01,0.33,0,0.66-0.01,0.98c-0.93,2.85-1.41,5.97-0.86,8.94
	c0.44,2.36,1.31,4.49,2.48,6.49c0.13,0.84,0.23,1.69,0.27,2.54c0.01,0.09,0.01,0.18,0.01,0.27c-0.05,0.28-0.07,0.58-0.1,0.88
	c-3.4,1.95-2.33,5.66,0.23,9.37c0.02,0.65,0.05,1.3,0.08,1.96c0.11,2.4,0.24,4.81,0.33,7.21c0.04,0.95,0.07,1.9,0.1,2.86
	c-0.01,1.7-0.02,3.4-0.05,5.09c-0.01,0.32,0.26,0.52,0.55,0.55c0.29,0.03,0.54,0.02,0.76-0.04c2.88-0.08,5.78,0.46,8.66,0.62
	c3.15,0.17,5.78-1.41,8.82-1.81c2.92-0.39,5.8,0.51,8.66,0.91c2.12,0.3,4.8,0.07,5.97-1.92c0.14-0.24,0.1-0.47-0.03-0.64
	c1.47-1.9,1.07-5.06,0.82-7.24c-0.44-3.69-0.91-7.38-1.19-11.09c-0.14-1.87-0.29-3.74-0.5-5.6c-0.06-0.56-0.13-1.12-0.2-1.68
	c-0.03-2.54-0.05-5.09-0.19-7.63c-0.17-3.14-0.47-6.18-1.03-9.27c-0.29-1.6-0.53-3.22-0.88-4.81c-0.34-1.57-0.59-3.01-0.49-4.63
	c0.09-1.58,0.05-3.16-0.04-4.75c-0.05-0.8-0.11-1.6-0.17-2.4c-0.02-0.29-0.04-0.56-0.07-0.84c0.28-0.55,0.03-1.69,0.02-2.15
	c-0.02-0.7,0.04-1.38,0.11-2.07c0.32,0.53,0.67,1.03,1.07,1.52c0.51,0.63,1.07,1.29,1.3,2.08c0.3,1.04,0.17,2.11,0.05,3.17
	c-0.26,2.17-0.23,4.12,0.86,6.06c0.48,0.86,1.03,1.72,1.28,2.68c0.19,0.77,0.31,1.55,0.46,2.32c-0.03,0.23-0.01,0.45,0.15,0.64
	c0.03,0.04,0.11,0.06,0.15,0.04c0.58-0.22,0.53-1.1,0.7-1.61c0.27-0.79,0.8-1.39,1.49-1.86c1.04-0.71,2.27-1.3,2.88-2.48
	c0.82-1.59,0.76-3.36,1.24-5.04c0.42,0.29,0.84,0.59,1.27,0.86c0.13,0.08,0.27,0.16,0.4,0.24c-0.01,0.54-0.02,1.07-0.02,1.6
	c-0.1,10.02,0.03,20.05,0.06,30.07c0.01,2.33-0.09,4.69,0.07,7.02c0.15,2.02,0.36,4.03,0.52,6.05c0.16,2.1,0.28,4.2,0.18,6.3
	c-0.05,0.97-0.07,2.02-0.33,2.96c-0.19,0.71-0.43,1.4-0.68,2.09c-0.53,0.69-0.84,1.69-1.04,2.62c-1.25,0.97-2.45,1.99-3.53,3.12
	c-0.87-0.24-1.74-0.44-2.64-0.51c-2.34-0.2-4.89,0.4-7.15,0.94c-5.23,1.26-10.14,3.36-15.61,3.29
	C432.02,230.89,424.67,224.99,417.99,227.26z M444.49,114.56c-0.23-2.96-0.54-6.33-3.11-8.21c-0.09-0.07-0.04-0.26,0.09-0.21
	c5.86,2.45,5.46,11.71,3.46,16.49c-0.07,0.16-0.34,0.16-0.33-0.04C444.69,119.96,444.69,117.19,444.49,114.56z M441.43,140.92
	c0.01-0.01,0.02,0,0.01,0.01c-3.62,6.6-0.66,14.76,2.21,21.07c2.66,5.84,6.26,11.56,7.7,17.85c0.06,0.28-0.36,0.49-0.48,0.21
	c-3.04-6.78-6.74-13.32-9.46-20.25C438.98,153.59,437.58,146.85,441.43,140.92z M447.46,130.51c2.7,0.63,7.2,1.28,7.62,4.71
	c0.03,0.28-0.23,0.62-0.51,0.67c-0.06,0.01-0.12,0.02-0.18,0.02c-0.31,0.03-0.58-0.23-0.67-0.51c-0.48-1.47-0.99-2.51-2.45-3.21
	c-1.25-0.6-2.56-1.05-3.86-1.52C447.31,130.63,447.35,130.48,447.46,130.51z M446.71,184.22c1.17,1.04,6.59,5.65,4.61,7.59
	c-0.11,0.11-0.32,0.13-0.43,0c-0.45-0.54-0.37-1.12-0.74-1.74c-0.66-1.09-1.46-2.08-2.35-3c-1.53-1.57-3.18-3-4.64-4.64
	c-2.99-3.36-5.03-7.24-6.49-11.48c-0.05-0.13,0.16-0.19,0.21-0.06C438.89,176.06,442.58,180.55,446.71,184.22z M456.5,208.38
	c0.23,0.03,0.18,0.36,0,0.41c-4.5,1.42-7.65-4.35-9.47-7.49c-2.48-4.26-5.77-11.72-11.87-8.64c-0.11,0.06-0.21-0.11-0.1-0.17
	C445.19,186.79,448.05,207.15,456.5,208.38z M451.97,213.93c-3.23,2.47-6.25-2.47-8.91-3.59c-0.1-0.04-0.03-0.21,0.07-0.17
	c2.89,0.95,5.46,3.2,8.64,3.03C452.2,213.18,452.25,213.71,451.97,213.93z M459.76,150.92c-0.03-0.3,0.39-0.45,0.59-0.24
	c1.02,1.09,1.31,2.49,1.89,3.83c0.5,1.16,0.81,2.5,0.97,3.74c0.02,0.11-0.18,0.14-0.2,0.03c-0.28-1.59-1-2.88-1.78-4.27
	C460.61,152.92,459.87,152.23,459.76,150.92z M477.66,223.14c3.99,4.23,3.92,11.31,6.08,16.47c0.03,0.08-0.1,0.13-0.14,0.06
	c-1.18-2.56-1.93-5.26-2.73-7.96c-0.89-2.99-2.15-5.51-3.75-8.16C476.93,223.22,477.39,222.86,477.66,223.14z M504.22,208.77
	c-5.47-5.65-14.45-9.27-21.12-4.1c-4.87,3.78-7.36,9.76-9.7,15.5c-0.28,0.23-0.57,0.45-0.86,0.67c0.23-1.13,0.35-2.31,0.42-3.42
	c0.13-1.83,0.1-3.67-0.02-5.51c-0.23-3.77-0.73-7.5-0.74-11.29c-0.03-8.89-0.13-17.78-0.07-26.67c0.02-2.48,0.08-4.96,0.16-7.45
	c0.14,0.03,0.27,0.06,0.41,0.08c1.4,0.64,3-1.25,1.76-2.6c-0.47-0.51-1.35-0.59-2.05-0.72c0-0.05,0.01-0.1,0.01-0.15
	c0.85,0.19,1.72,0.28,2.46,0.02c0.7-0.24,0.9-1.21,0.21-1.61c-0.74-0.43-1.67-0.61-2.56-0.79c0.01-0.21,0.02-0.43,0.03-0.64
	c0.71,0.1,1.41,0.18,2.14,0.12c0.9-0.07,1.49-1.41,0.51-1.87c-0.35-0.16-0.68-0.25-1.01-0.29c-0.11-0.42-0.45-0.76-1.03-0.73
	c-0.16-0.01-0.31-0.02-0.47-0.03c0.13-2.83,0.26-5.66,0.36-8.49c0.13-3.54,0.32-7.09,0.79-10.6c0.01-0.04,0.01-0.08,0.02-0.12
	c1.97,0.31,3.94,0.71,5.88,1.18c3.52,0.85,7.04,1.89,10.32,3.46c3.4,1.62,6.8,3.58,9.44,6.29c1.3,1.33,2.52,2.74,3.68,4.19
	c0.4,0.5,0.81,1.01,1.23,1.51v83.08c-0.18-0.89-0.39-1.78-0.64-2.67c-1.1-3.86-3.14-7.75-6.12-10.42c-1.21-2.85-3.65-4.8-2.96-8.48
	c0.4-2.12,1.8-3.75,2.87-5.55c1.83-0.74,3.77-0.94,5.58-1.69c0.1-0.08,0.21-0.15,0.31-0.21 M477.03,132.56
	c2.37,0.7,4.88,2.06,6.52,3.92c0.08,0.08,0.04,0.27-0.1,0.25c-2.66-0.34-8.02-6.76-9.31-1.81c-0.01,0.02-0.03,0.02-0.04,0
	C473.66,132.96,475.2,132.02,477.03,132.56z M488.48,137.45c1.25,0.35,2.39,0.75,3.5,1.46c0.44,0.28,0.02,0.98-0.41,0.7
	c-1-0.67-2.06-1.42-3.17-1.88C488.24,137.66,488.3,137.4,488.48,137.45z M499.4,243.67c0.56-2.18,0.62-4.43,1.11-6.62
	c0.07-0.33,0.56-0.24,0.58,0.08c0.22,5.38-1.88,10.25-6,13.67c-0.06,0.05-0.15-0.03-0.09-0.09
	C497.15,248.74,498.67,246.52,499.4,243.67z M495.99,238.97c0.65-1.51,1.02-3.01,1.28-4.62c0.21-1.25,0.24-2.64,0.93-3.73
	c0.13-0.21,0.46-0.13,0.47,0.13c0.03,1.4-0.6,2.9-1.02,4.24c-0.44,1.39-0.91,2.74-1.55,4.05
	C496.07,239.12,495.96,239.05,495.99,238.97z M498.6,257.09c0.57-0.98,1.22-2.02,1.52-3.12c0.28-1.03,0.3-2.05,0.46-3.09
	c0.09-0.54,0.93-0.4,0.94,0.13c0.01,2.22-1.61,4.4-2.78,6.17C498.68,257.26,498.55,257.18,498.6,257.09z M504.39,250.31v15.72
	c-0.55-1.3-1.03-2.65-1.55-3.89c-0.51-1.21-1.04-2.4-1.57-3.6C502.76,255.92,503.79,253.16,504.39,250.31z M494.28,223.26
	c-0.11,1.32-0.85,2.53-1.21,3.81c-0.4,1.45-0.81,2.84-1.09,4.33c-0.02,0.09-0.15,0.05-0.14-0.04c0.35-2.43-0.16-6.56,2.02-8.27
	C494.02,222.97,494.3,223.02,494.28,223.26z M495.22,267.28c-0.03-0.1,0.12-0.14,0.15-0.04c0.98,2.97,2.77,5.71,4.7,8.23h-1.33
	C497.16,272.96,496.04,270.28,495.22,267.28z M504.39,59.47v18.28c-1.59-1.46-3.34-2.77-5.08-4.12c0.58-3.35,0.53-6.67-0.33-9.98
	c-0.1-0.39-0.66-0.38-0.77,0c-0.69,2.47-1.35,4.95-1.93,7.46c-3.72-3.42-6.26-7.52-9.04-11.64L504.39,59.47L504.39,59.47z
	 M485.88,59.47c1.53,4.16,2.99,7.9,6.14,11.45c3.42,3.87,7.15,7.43,9.85,11.8c-3.97-1.51-8.74-1.94-12.21-3.15
	c-0.2-0.07-0.33,0.24-0.15,0.34c2.66,1.45,5.13,3.06,7.58,4.86c2.38,1.74,4.8,3.94,7.3,5.54v8.46c-2.36-1.65-4.85-3.16-7.36-4.61
	c-0.67-0.52-1.41-0.94-2.22-1.28c-2.22-1.26-4.44-2.5-6.58-3.78c-1.9-1.13-3.77-2.41-5.7-3.58c-0.43-1.47-1.02-2.92-1.46-4.33
	c-0.79-2.5-1.43-5.02-2.16-7.53c-0.09-0.3-0.53-0.31-0.61,0c-0.67,2.57-1.03,6.14-0.54,9.39c-0.52-0.21-1.05-0.4-1.6-0.57
	c-4.98-1.55-8.81-5.84-12.76-9.03c-1.13-0.92-2.57,0.48-1.61,1.61c2.9,3.39,6.66,5.91,10.07,8.74c1.67,1.39,2.78,3.21,4.45,4.6
	c1.68,1.4,3.58,2.53,5.43,3.68c-0.59,0.07-1.16,0.14-1.69,0.22c-9.06,1.25-16.74-1.03-25.08-4.45c-1.74-0.71-2.47,2.09-0.77,2.8
	c6.44,2.72,12.81,4.92,19.82,5.38c4.02,0.26,8.07,0.09,12.06,0.62c1.65,0.22,3.28,0.68,4.89,1.05c1.24,0.74,2.48,1.47,3.72,2.21
	c3.1,1.83,6.71,3.34,9.68,5.46v45.42c-0.23-0.54-0.48-1.08-0.73-1.58c-0.32-0.65-0.66-1.29-1.02-1.92c-2.11-4.2-4.73-8.1-8.6-10.93
	c-3.33-2.44-7.5-3.66-11.42-4.77c-2.31-0.65-4.66-1.18-7.03-1.54c-0.22-0.03-0.44-0.06-0.66-0.09c-0.09-0.11-0.22-0.17-0.36-0.18
	c-0.01-0.19-0.02-0.38-0.02-0.58c-0.01-0.39-0.28-0.82-0.69-0.9c-0.9-0.17-1.8-0.25-2.71-0.3c-0.61-0.03-1,0.51-1.05,1.05
	c-0.02,0.21-0.04,0.42-0.05,0.63c-0.46,0-0.91-0.01-1.37-0.01c-0.18,0-0.33,0.04-0.47,0.1c-0.3-0.03-0.61-0.06-0.92-0.07
	c-0.41-0.02-0.72,0.29-0.85,0.65c-0.46,1.25-0.85,2.51-0.91,3.85c-0.04,0.85-0.15,2.05,0.48,2.69c0.24,0.24,0.56,0.37,0.89,0.39
	c0.16,0.06,0.34,0.1,0.54,0.12c0.74,0.04,1.47,0.1,2.21,0.17c-0.02,0.13-0.04,0.26-0.05,0.39c-0.21,1.75-0.44,3.47-0.55,5.23
	c-0.17,2.73-0.35,5.45-0.44,8.18c-0.04,1.22-0.17,2.49-0.1,3.72c-0.23-0.04-0.47-0.06-0.7-0.08c-0.46-0.04-1.02-0.04-1.43-0.27
	c-0.31-0.18-0.45-0.47-0.65-0.73c-0.42-0.96-0.55-2.07-0.69-3.09c-0.2-1.41-0.37-2.82-0.84-4.18c-0.95-2.72-2.31-5.28-2.74-8.17
	c-0.34-2.31-0.27-4.74-1.25-6.92c-0.5-1.11-1.21-1.74-2.16-2.47c-0.66-0.51-1.34-1.01-2.08-1.42c-0.32-0.22-0.65-0.42-1-0.61
	c-0.99-0.54-2.08-0.98-3.18-1.2c-1.1-0.22-2.2-0.12-3.17-0.7c0.34-0.29,0.69-0.59,0.97-0.92c0.64-0.79,0.95-1.68,1.04-2.68
	c0.13-1.48,0.23-2.97,0.39-4.45c0.15-1.48,0.43-3.02,0.26-4.51c-0.28-2.48-1.43-4.75-3.08-6.61c-0.93-1.05-1.95-2.01-3.05-2.88
	c-0.51-0.4-1.02-0.79-1.55-1.15c-0.4-0.27-0.8-0.61-1.27-0.71c-0.95-0.67-1.77-0.04-2.6,0.48c-0.98,0.61-1.92,1.34-2.78,2.11
	c-1.74,1.57-3.27,3.53-3.99,5.79c-0.84,2.61-0.58,5.29,0.04,7.93c0.35,1.49,0.8,2.96,1.34,4.4c0.16,0.42,0.33,0.83,0.51,1.24
	c-1.4,1.62-4.02,1.06-5.79,2.35c-0.99,0.72-1.78,1.66-2.5,2.65c-0.8,1.09-1.65,2.14-2.4,3.26c-0.75,1.12-1.41,2.45-1.63,3.8
	c-0.23,1.48-0.12,3-0.15,4.5c-0.03,1.61-0.19,3.23-0.13,4.84c0.03,0.74,0.08,1.5,0,2.24c-0.04,0.42-0.21,0.86-0.27,1.29
	c-1.05,0.32-2.04,0.62-3.15,0.77c-0.26,0.04-0.52,0.07-0.79,0.11V59.47H485.88z M417.99,267.19c4.14,0.22,8.25,0.48,12.35,1.27
	c1.79,0.35,3.53,0.9,5.26,1.48c-1.91,0.03-3.81,0.08-5.65,0.18c-4.17,0.23-7.99-0.34-11.96-0.12L417.99,267.19L417.99,267.19z
	 M417.99,275.47v-3.3c3.81,0.61,7.63,1.03,11.46,1.69c3.23,0.56,6.22,1.17,9.29,1.61H417.99z M474.77,275.47
	c-1.19-0.72-1.92-1.78-3.09-2.46c-1.75-1.02-4.46-0.97-6.43-1.12c-2.54-0.19-5.1-0.16-7.65-0.26c5.03-1.01,9.32-3.81,14.5-4.49
	c0.47-0.06,0.49-0.79,0-0.75c-4.14,0.32-8.14,0.17-12.28,0.12c-4.8-0.06-9.53,0.67-14.37,0.48c-4.67-0.18-9.37-0.54-14.08-0.82
	c3.19-0.57,6.29-1.46,9.02-2.48c5.16-1.92,8.89-4.63,14.71-3.53c3.27,0.62,5.47,1.65,8.81,0.82c0.24-0.06,0.19-0.46-0.06-0.44
	c-4.12,0.36-7.48-1.93-11.4-2.72c-3.31-0.66-6.63,0.56-9.74,1.51c-4.5,1.37-8.9,1.53-13.33,1.38c3.15-1.35,5.8-3.97,9.07-4.61
	c0.39-0.08,0.3-0.71-0.09-0.69c-3.12,0.14-6.09-0.4-9.24-0.07c-1.9,0.2-3.79,0.59-5.67,0.75c0.72-0.3,1.41-0.72,2.05-1.15
	c0.9-0.6,1.66-1.73,2.72-2.05c0.45-0.13,0.33-0.74-0.1-0.78c-0.86-0.09-1.63-0.69-2.45-0.88c-0.92-0.22-1.83-0.34-2.77-0.42
	c-1.58-0.14-3.26,0.12-4.89,0.2v-11.45c5.52-0.99,11.86-0.63,16.89,0.75c5.89,1.62,11.41,3.6,17.55,1.69
	c0.26-0.08,0.22-0.51-0.07-0.48c-4.97,0.4-7.96-1.87-11.85-4.18c2.3,0.4,4.62,0.68,6.95,0.84c4.06,0.27,6.65-2.78,10.31-4.06
	c0.75-0.26,0.45-1.41-0.33-1.2c-3.31,0.92-7.52-0.41-11.08-0.76c2.55-0.61,5.06-1.46,7.55-2.16c2.4-0.68,4.82-1.16,7.31-1.26
	c0.73-0.03,1.46-0.03,2.19-0.02c-0.75,0.99-1.41,2.07-1.92,3.28c-1.7,4.06,4.27,13.48,4.43,13.93c0.87,2.52,2.98,4.49,4.81,6.31
	c2.02,2,3.44,4.49,5.38,6.55c0.05,0.05,0.1,0.1,0.15,0.15c3.2,1.63,7.18,3.13,7.42,0.32c0.01-0.14,0.21-0.14,0.22,0
	c0.02,0.38-0.01,0.7-0.05,1c0.04,0.02,0.08,0.05,0.11,0.08c0.9,1,1.98,1.88,3.09,2.65c1.03,0.72,2.34,1.76,3.62,1.83
	c0.07,0,0.09,0.11,0.02,0.12c-1.43,0.2-2.67,0.12-3.9-0.69c-1.28-0.85-2.25-1.94-3.23-3.11c-1.01,1.78-4.01,0.76-6.73-0.72
	c-0.02,0.17-0.05,0.34-0.08,0.52c-0.56,4.18-0.61,7.92,0.13,11.97c0.14,0.32,0.24,0.66,0.33,1c1.07,0.09,2.05,0.53,3.1,0.95
	c0.52,0.21,1.05,0.4,1.58,0.61L474.77,275.47L474.77,275.47z"/>
<path fill="#3F3F3F" d="M687.57,129.07v-38.4h-3.6v-38.4l-104.4,0v38.4h3.6v38.4h-3.6v38.4h3.6v38.4h-3.6v38.4h3.6v38.4h33.6v3.6
	h33.6v-3.6l37.2,0v-38.4h-3.6v-38.4h3.6v-38.4h-3.6v-38.4C683.97,129.07,687.57,129.07,687.57,129.07z M656.13,272.42
	c0.25-2.8,0.2-5.48-0.77-8.15c-0.03-0.07,0.09-0.12,0.12-0.05c1.08,2.3,1.5,4.71,1.86,7.2c0.17,1.2,0.43,2.65,0.48,4.04h-1.78
	C655.97,274.41,656.05,273.32,656.13,272.42z M652.11,245.58c-1.41-1.69-2.77-3.38-4.41-4.84c-1.83-1.63-5.1-3.8-5.33-6.49
	c-0.05-0.55,0.84-0.56,0.86,0c0.12,3.04,4.64,5.57,6.48,7.68c1.49,1.72,2.77,3.68,4.42,5.25c1.41,1.34,2.88,2.61,4.2,4.04
	c0.04,0.04-0.02,0.1-0.06,0.06C656.28,249.31,653.91,247.75,652.11,245.58z M653.36,255.57c-2.14-1.68-4.49-2.96-6.23-5.1
	c-1.58-1.94-2.79-4.19-3.87-6.44c-0.03-0.05,0.05-0.1,0.08-0.05c1.28,2.38,2.72,4.79,4.65,6.71c1.72,1.71,3.78,3.02,5.5,4.75
	C653.58,255.53,653.45,255.64,653.36,255.57z M590.37,234.72c2.18-0.32,4.37-0.59,6.59-0.68c1.04-0.04,2.07,0.04,3.11,0.19
	c-3.35,0.66-6.61,2.07-9.7,3.68V234.72z M596.64,231.69c-2.12,0.35-4.21,0.9-6.27,1.56v-4.34c3.14-0.62,6.26-0.11,9.61,1.03
	c0.61,0.21,1.21,0.42,1.81,0.62C599.98,230.92,598.1,231.45,596.64,231.69z M590.37,227.26V163.6c0.33,0.92,0.79,1.79,1.08,2.73
	c0.09,0.29,0.4,0.4,0.65,0.33c0.01,0,0.01,0,0.01,0c0.35-0.05,0.58-0.55,0.78-0.8c0.31-0.39,0.63-0.78,0.94-1.17
	c0.67-0.83,1.24-1.69,2.29-2.09c1.08-0.41,2.31-0.59,3.33-1.16c-0.2,1.64-0.54,3.27-0.98,4.86c-0.47,1.73-1.04,3.44-1.4,5.2
	c-0.34,1.7-0.55,3.43-0.62,5.17c-0.01,0.33,0,0.66-0.01,0.98c-0.93,2.85-1.41,5.97-0.86,8.94c0.44,2.36,1.31,4.49,2.48,6.49
	c0.13,0.84,0.23,1.69,0.28,2.54c0.01,0.09,0.01,0.18,0.01,0.27c-0.05,0.28-0.07,0.58-0.1,0.88c-3.4,1.95-2.33,5.66,0.23,9.37
	c0.02,0.65,0.05,1.3,0.08,1.96c0.11,2.4,0.24,4.81,0.33,7.21c0.04,0.95,0.07,1.9,0.1,2.86c-0.01,1.7-0.03,3.4-0.05,5.09
	c-0.01,0.32,0.26,0.52,0.55,0.55c0.29,0.03,0.54,0.02,0.76-0.04c2.88-0.08,5.78,0.46,8.66,0.62c3.15,0.17,5.78-1.41,8.82-1.81
	c2.92-0.39,5.8,0.51,8.66,0.91c2.12,0.3,4.8,0.07,5.97-1.92c0.14-0.24,0.1-0.47-0.03-0.64c1.47-1.9,1.07-5.06,0.82-7.24
	c-0.44-3.69-0.91-7.38-1.19-11.09c-0.14-1.87-0.29-3.74-0.5-5.6c-0.06-0.56-0.13-1.12-0.2-1.68c-0.03-2.54-0.05-5.09-0.19-7.63
	c-0.17-3.14-0.47-6.18-1.03-9.27c-0.29-1.6-0.53-3.22-0.88-4.81c-0.34-1.57-0.59-3.01-0.49-4.63c0.09-1.58,0.05-3.16-0.04-4.75
	c-0.05-0.8-0.11-1.6-0.17-2.4c-0.02-0.29-0.04-0.56-0.07-0.84c0.28-0.55,0.03-1.69,0.02-2.15c-0.02-0.7,0.04-1.38,0.11-2.07
	c0.32,0.53,0.67,1.03,1.07,1.52c0.51,0.63,1.07,1.29,1.3,2.08c0.3,1.04,0.17,2.11,0.05,3.17c-0.26,2.17-0.23,4.12,0.86,6.06
	c0.48,0.86,1.03,1.72,1.28,2.68c0.19,0.77,0.31,1.55,0.46,2.32c-0.03,0.23-0.01,0.45,0.15,0.64c0.03,0.04,0.11,0.06,0.16,0.04
	c0.58-0.22,0.53-1.1,0.7-1.61c0.27-0.79,0.8-1.39,1.49-1.86c1.04-0.71,2.27-1.3,2.88-2.48c0.82-1.59,0.76-3.36,1.24-5.04
	c0.42,0.29,0.84,0.59,1.27,0.86c0.13,0.08,0.27,0.16,0.4,0.24c-0.01,0.54-0.02,1.07-0.02,1.6c-0.1,10.02,0.03,20.05,0.06,30.07
	c0.01,2.33-0.09,4.69,0.07,7.02c0.15,2.02,0.36,4.03,0.52,6.05c0.16,2.1,0.28,4.2,0.18,6.3c-0.05,0.97-0.07,2.02-0.33,2.96
	c-0.19,0.71-0.43,1.4-0.68,2.09c-0.53,0.69-0.84,1.69-1.04,2.62c-1.25,0.97-2.45,1.99-3.53,3.12c-0.87-0.24-1.74-0.44-2.64-0.51
	c-2.34-0.2-4.89,0.4-7.15,0.94c-5.23,1.26-10.14,3.36-15.61,3.29C604.4,230.89,597.04,224.99,590.37,227.26z M616.87,114.56
	c-0.23-2.96-0.54-6.33-3.11-8.21c-0.09-0.07-0.04-0.26,0.09-0.21c5.86,2.45,5.46,11.71,3.47,16.49c-0.07,0.16-0.34,0.16-0.33-0.04
	C617.07,119.96,617.07,117.19,616.87,114.56z M613.81,140.92c0.01-0.01,0.02,0,0.01,0.01c-3.62,6.6-0.66,14.76,2.21,21.07
	c2.66,5.84,6.26,11.56,7.7,17.85c0.06,0.28-0.36,0.49-0.48,0.21c-3.04-6.78-6.74-13.32-9.46-20.25
	C611.36,153.59,609.95,146.85,613.81,140.92z M619.84,130.51c2.7,0.63,7.2,1.28,7.62,4.71c0.03,0.28-0.23,0.62-0.51,0.67
	c-0.06,0.01-0.12,0.02-0.18,0.02c-0.31,0.03-0.58-0.23-0.66-0.51c-0.48-1.47-0.99-2.51-2.45-3.21c-1.25-0.6-2.56-1.05-3.86-1.52
	C619.69,130.63,619.73,130.48,619.84,130.51z M619.09,184.22c1.17,1.04,6.59,5.65,4.61,7.59c-0.11,0.11-0.32,0.13-0.43,0
	c-0.45-0.54-0.37-1.12-0.74-1.74c-0.66-1.09-1.46-2.08-2.35-3c-1.53-1.57-3.18-3-4.65-4.64c-2.99-3.36-5.03-7.24-6.49-11.48
	c-0.05-0.13,0.16-0.19,0.21-0.06C611.27,176.06,614.96,180.55,619.09,184.22z M628.88,208.38c0.22,0.03,0.18,0.36,0,0.41
	c-4.5,1.42-7.65-4.35-9.47-7.49c-2.48-4.26-5.77-11.72-11.87-8.64c-0.11,0.06-0.21-0.11-0.1-0.17
	C617.57,186.79,620.43,207.15,628.88,208.38z M624.35,213.93c-3.23,2.47-6.25-2.47-8.91-3.59c-0.1-0.04-0.03-0.21,0.07-0.17
	c2.89,0.95,5.46,3.2,8.64,3.03C624.58,213.18,624.63,213.71,624.35,213.93z M632.14,150.92c-0.03-0.3,0.39-0.45,0.59-0.24
	c1.02,1.09,1.31,2.49,1.89,3.83c0.5,1.16,0.81,2.5,0.97,3.74c0.02,0.11-0.18,0.14-0.2,0.03c-0.28-1.59-1-2.88-1.78-4.27
	C632.99,152.92,632.25,152.23,632.14,150.92z M650.04,223.14c3.99,4.23,3.92,11.31,6.08,16.47c0.03,0.08-0.1,0.13-0.14,0.06
	c-1.18-2.56-1.93-5.26-2.73-7.96c-0.89-2.99-2.15-5.51-3.75-8.16C649.31,223.22,649.77,222.86,650.04,223.14z M676.59,208.77
	c-5.47-5.65-14.45-9.27-21.12-4.1c-4.87,3.78-7.36,9.76-9.7,15.5c-0.28,0.23-0.57,0.45-0.86,0.67c0.22-1.13,0.34-2.31,0.42-3.42
	c0.13-1.83,0.1-3.67-0.02-5.51c-0.23-3.77-0.73-7.5-0.74-11.29c-0.03-8.89-0.13-17.78-0.07-26.67c0.02-2.48,0.08-4.96,0.16-7.45
	c0.14,0.03,0.27,0.06,0.41,0.08c1.4,0.64,3-1.25,1.76-2.6c-0.47-0.51-1.35-0.59-2.05-0.72c0-0.05,0.01-0.1,0.01-0.15
	c0.85,0.19,1.72,0.28,2.46,0.02c0.7-0.24,0.9-1.21,0.21-1.61c-0.74-0.43-1.67-0.61-2.56-0.79c0.01-0.21,0.02-0.43,0.03-0.64
	c0.71,0.1,1.41,0.18,2.14,0.12c0.9-0.07,1.49-1.41,0.51-1.87c-0.35-0.16-0.68-0.25-1.01-0.29c-0.11-0.42-0.45-0.76-1.03-0.73
	c-0.16-0.01-0.31-0.02-0.47-0.03c0.13-2.83,0.26-5.66,0.36-8.49c0.13-3.54,0.32-7.09,0.79-10.6c0.01-0.04,0.01-0.08,0.02-0.12
	c1.97,0.31,3.94,0.71,5.88,1.18c3.52,0.85,7.04,1.89,10.32,3.46c3.4,1.62,6.8,3.58,9.44,6.29c1.3,1.33,2.52,2.74,3.68,4.19
	c0.4,0.5,0.81,1.01,1.23,1.51v83.08c-0.18-0.89-0.39-1.78-0.64-2.67c-1.1-3.86-3.14-7.75-6.12-10.42c-1.21-2.85-3.65-4.8-2.96-8.48
	c0.4-2.12,1.8-3.75,2.87-5.55c1.83-0.74,3.77-0.94,5.58-1.69c0.1-0.08,0.21-0.15,0.31-0.21 M649.41,132.56
	c2.37,0.7,4.88,2.06,6.52,3.92c0.08,0.08,0.04,0.27-0.1,0.25c-2.66-0.34-8.02-6.76-9.31-1.81c-0.01,0.02-0.03,0.02-0.04,0
	C646.04,132.96,647.58,132.02,649.41,132.56z M660.85,137.45c1.25,0.35,2.39,0.75,3.5,1.46c0.44,0.28,0.02,0.98-0.41,0.7
	c-1-0.67-2.06-1.42-3.17-1.88C660.62,137.66,660.67,137.4,660.85,137.45z M671.78,243.67c0.56-2.18,0.62-4.43,1.11-6.62
	c0.07-0.33,0.56-0.24,0.58,0.08c0.22,5.38-1.88,10.25-6,13.67c-0.06,0.05-0.15-0.03-0.09-0.09
	C669.53,248.74,671.04,246.52,671.78,243.67z M668.37,238.97c0.65-1.51,1.02-3.01,1.28-4.62c0.21-1.25,0.24-2.64,0.93-3.73
	c0.13-0.21,0.46-0.13,0.47,0.13c0.03,1.4-0.6,2.9-1.02,4.24c-0.44,1.39-0.91,2.74-1.55,4.05
	C668.44,239.12,668.33,239.05,668.37,238.97z M670.98,257.09c0.57-0.98,1.22-2.02,1.52-3.12c0.28-1.03,0.3-2.05,0.47-3.09
	c0.09-0.54,0.93-0.4,0.94,0.13c0.01,2.22-1.61,4.4-2.78,6.17C671.06,257.26,670.92,257.18,670.98,257.09z M676.77,250.31v15.72
	c-0.55-1.3-1.03-2.65-1.55-3.89c-0.51-1.21-1.04-2.4-1.57-3.6C675.14,255.92,676.17,253.16,676.77,250.31z M666.66,223.26
	c-0.11,1.32-0.85,2.53-1.21,3.81c-0.4,1.45-0.81,2.84-1.09,4.33c-0.02,0.09-0.15,0.05-0.14-0.04c0.35-2.43-0.16-6.56,2.02-8.27
	C666.4,222.97,666.68,223.02,666.66,223.26z M667.6,267.28c-0.03-0.1,0.12-0.14,0.15-0.04c0.98,2.97,2.77,5.71,4.7,8.23h-1.33
	C669.54,272.96,668.42,270.28,667.6,267.28z M676.77,59.47v18.28c-1.59-1.46-3.34-2.77-5.08-4.12c0.58-3.35,0.53-6.67-0.33-9.98
	c-0.1-0.39-0.66-0.38-0.77,0c-0.69,2.47-1.35,4.95-1.93,7.46c-3.72-3.42-6.26-7.52-9.04-11.64L676.77,59.47L676.77,59.47z
	 M658.26,59.47c1.53,4.16,2.99,7.9,6.14,11.45c3.42,3.87,7.15,7.43,9.85,11.8c-3.97-1.51-8.74-1.94-12.21-3.15
	c-0.2-0.07-0.33,0.24-0.15,0.34c2.66,1.45,5.13,3.06,7.58,4.86c2.38,1.74,4.8,3.94,7.3,5.54v8.46c-2.36-1.65-4.85-3.16-7.36-4.61
	c-0.66-0.52-1.41-0.94-2.22-1.28c-2.22-1.26-4.44-2.5-6.58-3.78c-1.9-1.13-3.77-2.41-5.7-3.58c-0.43-1.47-1.02-2.92-1.46-4.33
	c-0.78-2.5-1.43-5.02-2.16-7.53c-0.09-0.3-0.53-0.31-0.61,0c-0.67,2.57-1.03,6.14-0.53,9.39c-0.52-0.21-1.05-0.4-1.6-0.57
	c-4.98-1.55-8.81-5.84-12.76-9.03c-1.13-0.92-2.57,0.48-1.61,1.61c2.9,3.39,6.66,5.91,10.07,8.74c1.67,1.39,2.78,3.21,4.45,4.6
	c1.68,1.4,3.58,2.53,5.43,3.68c-0.59,0.07-1.16,0.14-1.69,0.22c-9.06,1.25-16.74-1.03-25.08-4.45c-1.74-0.71-2.47,2.09-0.77,2.8
	c6.44,2.72,12.81,4.92,19.82,5.38c4.02,0.26,8.07,0.09,12.06,0.62c1.65,0.22,3.28,0.68,4.89,1.05c1.24,0.74,2.48,1.47,3.72,2.21
	c3.1,1.83,6.71,3.34,9.68,5.46v45.42c-0.23-0.54-0.48-1.08-0.73-1.58c-0.32-0.65-0.66-1.29-1.02-1.92c-2.1-4.2-4.73-8.1-8.6-10.93
	c-3.33-2.44-7.5-3.66-11.42-4.77c-2.31-0.65-4.66-1.18-7.03-1.54c-0.22-0.03-0.44-0.06-0.66-0.09c-0.09-0.11-0.22-0.17-0.36-0.18
	c-0.01-0.19-0.02-0.38-0.02-0.58c-0.01-0.39-0.28-0.82-0.69-0.9c-0.9-0.17-1.8-0.25-2.71-0.3c-0.61-0.03-1,0.51-1.05,1.05
	c-0.02,0.21-0.03,0.42-0.05,0.63c-0.46,0-0.91-0.01-1.37-0.01c-0.18,0-0.33,0.04-0.47,0.1c-0.3-0.03-0.61-0.06-0.92-0.07
	c-0.41-0.02-0.72,0.29-0.85,0.65c-0.46,1.25-0.85,2.51-0.91,3.85c-0.04,0.85-0.15,2.05,0.48,2.69c0.24,0.24,0.56,0.37,0.89,0.39
	c0.16,0.06,0.34,0.1,0.54,0.12c0.74,0.04,1.47,0.1,2.21,0.17c-0.02,0.13-0.04,0.26-0.05,0.39c-0.21,1.75-0.44,3.47-0.55,5.23
	c-0.17,2.73-0.35,5.45-0.44,8.18c-0.04,1.22-0.17,2.49-0.1,3.72c-0.23-0.04-0.47-0.06-0.7-0.08c-0.46-0.04-1.02-0.04-1.43-0.27
	c-0.31-0.18-0.45-0.47-0.65-0.73c-0.42-0.96-0.55-2.07-0.69-3.09c-0.2-1.41-0.37-2.82-0.84-4.18c-0.95-2.72-2.31-5.28-2.74-8.17
	c-0.34-2.31-0.27-4.74-1.25-6.92c-0.5-1.11-1.22-1.74-2.16-2.47c-0.66-0.51-1.34-1.01-2.08-1.42c-0.32-0.22-0.65-0.42-1-0.61
	c-0.99-0.54-2.08-0.98-3.18-1.2c-1.1-0.22-2.2-0.12-3.17-0.7c0.34-0.29,0.69-0.59,0.97-0.92c0.64-0.79,0.95-1.68,1.04-2.68
	c0.13-1.48,0.23-2.97,0.39-4.45c0.15-1.48,0.43-3.02,0.26-4.51c-0.28-2.48-1.43-4.75-3.08-6.61c-0.93-1.05-1.95-2.01-3.05-2.88
	c-0.51-0.4-1.02-0.79-1.55-1.15c-0.4-0.27-0.8-0.61-1.27-0.71c-0.95-0.67-1.77-0.04-2.6,0.48c-0.98,0.61-1.92,1.34-2.78,2.11
	c-1.74,1.57-3.27,3.53-3.99,5.79c-0.84,2.61-0.58,5.29,0.03,7.93c0.35,1.49,0.8,2.96,1.34,4.4c0.16,0.42,0.33,0.83,0.51,1.24
	c-1.4,1.62-4.02,1.06-5.79,2.35c-0.99,0.72-1.78,1.66-2.5,2.65c-0.79,1.09-1.65,2.14-2.4,3.26c-0.75,1.12-1.41,2.45-1.63,3.8
	c-0.23,1.48-0.12,3-0.15,4.5c-0.03,1.61-0.19,3.23-0.13,4.84c0.03,0.74,0.08,1.5,0,2.24c-0.04,0.42-0.21,0.86-0.28,1.29
	c-1.05,0.32-2.04,0.62-3.15,0.77c-0.26,0.04-0.52,0.07-0.78,0.11V59.47H658.26z M590.37,267.19c4.14,0.22,8.25,0.48,12.35,1.27
	c1.79,0.35,3.53,0.9,5.26,1.48c-1.91,0.03-3.81,0.08-5.65,0.18c-4.17,0.23-7.99-0.34-11.96-0.12L590.37,267.19L590.37,267.19z
	 M590.37,275.47v-3.3c3.81,0.61,7.63,1.03,11.46,1.69c3.23,0.56,6.22,1.17,9.29,1.61H590.37z M647.15,275.47
	c-1.19-0.72-1.92-1.78-3.09-2.46c-1.75-1.02-4.46-0.97-6.43-1.12c-2.54-0.19-5.1-0.16-7.65-0.26c5.03-1.01,9.32-3.81,14.5-4.49
	c0.47-0.06,0.49-0.79,0-0.75c-4.15,0.32-8.14,0.17-12.28,0.12c-4.8-0.06-9.53,0.67-14.37,0.48c-4.67-0.18-9.37-0.54-14.08-0.82
	c3.19-0.57,6.29-1.46,9.02-2.48c5.16-1.92,8.89-4.63,14.71-3.53c3.27,0.62,5.47,1.65,8.81,0.82c0.24-0.06,0.19-0.46-0.06-0.44
	c-4.12,0.36-7.48-1.93-11.4-2.72c-3.31-0.66-6.63,0.56-9.74,1.51c-4.5,1.37-8.9,1.53-13.33,1.38c3.15-1.35,5.8-3.97,9.07-4.61
	c0.39-0.08,0.3-0.71-0.09-0.69c-3.12,0.14-6.09-0.4-9.24-0.07c-1.91,0.2-3.79,0.59-5.67,0.75c0.72-0.3,1.41-0.72,2.05-1.15
	c0.9-0.6,1.66-1.73,2.72-2.05c0.45-0.13,0.33-0.74-0.1-0.78c-0.86-0.09-1.63-0.69-2.45-0.88c-0.92-0.22-1.83-0.34-2.77-0.42
	c-1.58-0.14-3.26,0.12-4.89,0.2v-11.45c5.52-0.99,11.86-0.63,16.89,0.75c5.89,1.62,11.41,3.6,17.54,1.69
	c0.26-0.08,0.22-0.51-0.07-0.48c-4.97,0.4-7.96-1.87-11.85-4.18c2.3,0.4,4.62,0.68,6.95,0.84c4.06,0.27,6.65-2.78,10.31-4.06
	c0.75-0.26,0.45-1.41-0.33-1.2c-3.31,0.92-7.52-0.41-11.08-0.76c2.55-0.61,5.06-1.46,7.55-2.16c2.4-0.68,4.82-1.16,7.31-1.26
	c0.73-0.03,1.46-0.03,2.19-0.02c-0.75,0.99-1.41,2.07-1.92,3.28c-1.7,4.06,4.27,13.48,4.43,13.93c0.87,2.52,2.98,4.49,4.81,6.31
	c2.02,2,3.44,4.49,5.38,6.55c0.05,0.05,0.1,0.1,0.15,0.15c3.2,1.63,7.18,3.13,7.42,0.32c0.01-0.14,0.21-0.14,0.22,0
	c0.02,0.38-0.01,0.7-0.05,1c0.04,0.02,0.08,0.05,0.11,0.08c0.9,1,1.98,1.88,3.09,2.65c1.03,0.72,2.34,1.76,3.62,1.83
	c0.07,0,0.09,0.11,0.02,0.12c-1.43,0.2-2.67,0.12-3.9-0.69c-1.28-0.85-2.25-1.94-3.23-3.11c-1.01,1.78-4.01,0.76-6.73-0.72
	c-0.02,0.17-0.05,0.34-0.08,0.52c-0.56,4.18-0.61,7.92,0.13,11.97c0.14,0.32,0.24,0.66,0.33,1c1.07,0.09,2.05,0.53,3.1,0.95
	c0.52,0.21,1.05,0.4,1.58,0.61L647.15,275.47L647.15,275.47z"/>
</svg>
