  0
SECTION
  2
HEADER
  9
$ACADVER
  1
AC1009
  9
$EXTMIN
 10
0.02336413
 20
0.00360264
 30
0.0
  9
$EXTMAX
 10
479.58725493
 20
1133.35272677
 30
0.0
  0
ENDSEC
  0
SECTION
  2
TABLES
  0
TABLE
  2
LAYER
 70
1
 0
LAYER
 2
CYAN
 70
0
 62
1
 6
CONTINUOUS
 0
ENDTAB
 0
ENDSEC
  0
SECTION
  2
ENTITIES
  0
POLYLINE
  8
CYAN
 66
   1
 39
0.000000
 70
    1
  0
VERTEX
  8
0
 10
25.34778322
 20
706.38447754
  0
VERTEX
  8
0
 10
6.71284084
 20
706.45463012
 42
-0.20252394
  0
VERTEX
  8
0
 10
3.46855985
 20
707.20345197
 42
-0.20252394
  0
VERTEX
  8
0
 10
1.74338277
 20
710.05123310
 42
-0.20252394
  0
VERTEX
  8
0
 10
2.58200972
 20
713.27346806
 42
-0.20252394
  0
VERTEX
  8
0
 10
5.47660084
 20
714.91889674
  0
VERTEX
  8
0
 10
23.31224942
 20
720.31734876
 42
0.16192640
  0
VERTEX
  8
0
 10
31.38978300
 20
726.02291754
 42
-0.14057401
  0
VERTEX
  8
0
 10
40.42985062
 20
732.99163474
  0
VERTEX
  8
0
 10
62.50646294
 20
741.74406446
 42
-0.12881075
  0
VERTEX
  8
0
 10
72.86179902
 20
743.00545346
 42
-0.32901168
  0
VERTEX
  8
0
 10
76.95148496
 20
739.03394156
  0
VERTEX
  8
0
 10
79.25308104
 20
724.43754882
  0
VERTEX
  8
0
 10
49.34514688
 20
720.06796158
  0
VERTEX
  8
0
 10
50.22125320
 20
714.07157946
  0
VERTEX
  8
0
 10
80.12894092
 20
718.44119902
  0
VERTEX
  8
0
 10
82.09382926
 20
703.84434370
 42
-0.33178736
  0
VERTEX
  8
0
 10
79.31719382
 20
698.82109860
 42
-0.12881059
  0
VERTEX
  8
0
 10
69.03398184
 20
697.06703766
  0
VERTEX
  8
0
 10
45.37591556
 20
699.13697004
 42
-0.14057417
  0
VERTEX
  8
0
 10
34.71999742
 20
703.22810432
 42
0.16192619
  0
VERTEX
  8
0
 10
25.34778322
 20
706.38447754
  0
SEQEND
  0
POLYLINE
  8
CYAN
 66
   1
 39
0.000000
 70
    1
  0
VERTEX
  8
0
 10
80.11858438
 20
605.88377508
 42
-0.10362512
  0
VERTEX
  8
0
 10
61.78755302
 20
580.59458506
 42
-0.10560999
  0
VERTEX
  8
0
 10
43.99382348
 20
570.24917324
 42
-0.04100401
  0
VERTEX
  8
0
 10
30.50221116
 20
567.02986086
 42
-0.17094225
  0
VERTEX
  8
0
 10
10.53843602
 20
570.79356526
 42
-0.27083490
  0
VERTEX
  8
0
 10
2.76925627
 20
586.79395717
 42
-0.27083490
  0
VERTEX
  8
0
 10
12.89933728
 20
601.41429076
  0
VERTEX
  8
0
 10
12.92695472
 20
619.21658914
  0
VERTEX
  8
0
 10
53.51275432
 20
619.13216526
  0
VERTEX
  8
0
 10
53.52520560
 20
625.19216526
  0
VERTEX
  8
0
 10
12.93632348
 20
625.27658914
  0
VERTEX
  8
0
 10
12.96406414
 20
643.21392250
 42
-0.27083424
  0
VERTEX
  8
0
 10
2.87935631
 20
657.86549110
 42
-0.27083424
  0
VERTEX
  8
0
 10
10.69797562
 20
673.84169174
 42
-0.17114092
  0
VERTEX
  8
0
 10
30.67395560
 20
677.40834514
 42
-0.04100398
  0
VERTEX
  8
0
 10
44.15558104
 20
674.14711372
 42
-0.10560994
  0
VERTEX
  8
0
 10
61.91688554
 20
663.74628320
 42
-0.10362499
  0
VERTEX
  8
0
 10
80.16901166
 20
638.40020998
 42
0.27314722
  0
VERTEX
  8
0
 10
89.71925654
 20
631.58326346
  0
VERTEX
  8
0
 10
150.34859906
 20
626.31682652
 42
-0.38950222
  0
VERTEX
  8
0
 10
154.27615778
 20
622.02657680
 42
-0.38950570
  0
VERTEX
  8
0
 10
150.33516000
 20
617.74850162
  0
VERTEX
  8
0
 10
89.68966556
 20
612.67091448
 42
0.27314675
  0
VERTEX
  8
0
 10
80.11858438
 20
605.88377508
  0
SEQEND
  0
POLYLINE
  8
CYAN
 66
   1
 39
0.000000
 70
    1
  0
VERTEX
  8
0
 10
376.43337620
 20
833.68470180
 42
0.27289504
  0
VERTEX
  8
0
 10
369.04469059
 20
822.66820658
 42
0.27289504
  0
VERTEX
  8
0
 10
375.10941568
 20
810.87096320
 42
0.01775201
  0
VERTEX
  8
0
 10
398.60091478
 20
789.96200784
 42
0.27216409
  0
VERTEX
  8
0
 10
406.01723974
 20
788.30587044
 42
0.02257099
  0
VERTEX
  8
0
 10
413.49157304
 20
791.09289474
  0
VERTEX
  8
0
 10
395.60858172
 20
807.65251336
  0
VERTEX
  8
0
 10
399.72594570
 20
812.09887878
  0
VERTEX
  8
0
 10
429.24021216
 20
784.76874540
 42
0.25798586
  0
VERTEX
  8
0
 10
440.72131848
 20
785.76915848
 42
0.03197090
  0
VERTEX
  8
0
 10
449.67212230
 20
792.65579500
  0
VERTEX
  8
0
 10
432.43622384
 20
811.00966448
  0
VERTEX
  8
0
 10
436.85361842
 20
815.15806980
  0
VERTEX
  8
0
 10
454.08970070
 20
796.80419830
 42
0.03197090
  0
VERTEX
  8
0
 10
461.52433494
 20
805.30514408
 42
0.25798595
  0
VERTEX
  8
0
 10
463.24332060
 20
816.70087106
  0
VERTEX
  8
0
 10
437.81941880
 20
847.87213746
  0
VERTEX
  8
0
 10
442.51551076
 20
851.70241904
  0
VERTEX
  8
0
 10
457.92010752
 20
832.81537662
 42
0.02257098
  0
VERTEX
  8
0
 10
461.17055214
 20
840.10002586
 42
0.27216490
  0
VERTEX
  8
0
 10
459.98332138
 20
847.60570552
 42
0.01775201
  0
VERTEX
  8
0
 10
440.58976598
 20
872.36328204
 42
0.27289346
  0
VERTEX
  8
0
 10
429.19637207
 20
879.15629153
 42
0.27289346
  0
VERTEX
  8
0
 10
417.73796250
 20
872.47353364
 42
-0.20664139
  0
VERTEX
  8
0
 10
412.12939027
 20
868.27516373
 42
-0.20664139
  0
VERTEX
  8
0
 10
405.22749852
 20
869.47777870
 42
0.29884095
  0
VERTEX
  8
0
 10
385.85546016
 20
869.46381646
  0
VERTEX
  8
0
 10
403.67711418
 20
850.48621542
  0
VERTEX
  8
0
 10
399.25972162
 20
846.33784242
  0
VERTEX
  8
0
 10
381.43794236
 20
865.31544346
 42
0.29883933
  0
VERTEX
  8
0
 10
380.20829968
 20
845.98245574
 42
-0.20664252
  0
VERTEX
  8
0
 10
380.97543097
 20
839.01872383
 42
-0.20664252
  0
VERTEX
  8
0
 10
376.43337620
 20
833.68470180
  0
SEQEND
  0
POLYLINE
  8
CYAN
 66
   1
 39
0.000000
 70
    1
  0
VERTEX
  8
0
 10
246.03740700
 20
511.74636956
 42
-0.01897284
  0
VERTEX
  8
0
 10
247.20910396
 20
523.11016438
 42
-0.17800040
  0
VERTEX
  8
0
 10
253.79389188
 20
535.36644772
 42
-0.11318592
  0
VERTEX
  8
0
 10
339.15491856
 20
582.00791644
 42
0.15408603
  0
VERTEX
  8
0
 10
375.90840244
 20
606.11029182
 42
0.20476210
  0
VERTEX
  8
0
 10
380.04528469
 20
620.46132374
 42
0.20476210
  0
VERTEX
  8
0
 10
372.53072206
 20
633.36857986
 42
0.02657599
  0
VERTEX
  8
0
 10
320.25268170
 20
674.78397326
 42
-0.24458541
  0
VERTEX
  8
0
 10
310.86930902
 20
690.19565820
  0
VERTEX
  8
0
 10
308.76541034
 20
721.47791754
 42
0.29293980
  0
VERTEX
  8
0
 10
305.99839010
 20
725.21687290
 42
0.07815276
  0
VERTEX
  8
0
 10
299.48733016
 20
726.58941038
  0
VERTEX
  8
0
 10
299.48733016
 20
701.24083842
  0
VERTEX
  8
0
 10
293.42751398
 20
701.24083842
  0
VERTEX
  8
0
 10
293.42751398
 20
726.03774434
 42
0.09760617
  0
VERTEX
  8
0
 10
285.89190600
 20
722.60072848
 42
0.26256318
  0
VERTEX
  8
0
 10
282.63856470
 20
715.59487156
  0
VERTEX
  8
0
 10
283.67050998
 20
702.52556246
 42
-0.29460178
  0
VERTEX
  8
0
 10
275.73734984
 20
687.80168550
 42
0.26706155
  0
VERTEX
  8
0
 10
271.06824774
 20
680.10431478
 42
0.26706155
  0
VERTEX
  8
0
 10
275.37364076
 20
672.19775918
 42
0.05711304
  0
VERTEX
  8
0
 10
346.04466790
 20
633.87200830
 42
-0.26641112
  0
VERTEX
  8
0
 10
356.78984194
 20
621.28763681
 42
-0.26641112
  0
VERTEX
  8
0
 10
351.35370260
 20
605.65838348
 42
-0.10725692
  0
VERTEX
  8
0
 10
329.50184962
 20
593.67425070
 42
0.12746501
  0
VERTEX
  8
0
 10
237.98089354
 20
538.62658430
 42
0.15090316
  0
VERTEX
  8
0
 10
235.38635908
 20
533.59620254
 42
0.13156000
  0
VERTEX
  8
0
 10
237.35260284
 20
510.51455336
 42
0.35517070
  0
VERTEX
  8
0
 10
242.19566651
 20
507.60059409
 42
0.35517070
  0
VERTEX
  8
0
 10
246.03740700
 20
511.74636956
  0
SEQEND
  0
POLYLINE
  8
CYAN
 66
   1
 39
0.000000
 70
    1
  0
VERTEX
  8
0
 10
334.12427622
 20
849.60150996
 42
-0.11147967
  0
VERTEX
  8
0
 10
327.43931448
 20
847.72548344
  0
VERTEX
  8
0
 10
271.19574142
 20
889.39510394
  0
VERTEX
  8
0
 10
265.91648152
 20
893.82402464
 42
-0.39984298
  0
VERTEX
  8
0
 10
265.17130958
 20
900.44795814
  0
VERTEX
  8
0
 10
274.82653790
 20
913.30628632
  0
VERTEX
  8
0
 10
304.76911708
 20
891.12204032
  0
VERTEX
  8
0
 10
308.37655024
 20
895.99129678
  0
VERTEX
  8
0
 10
278.43471038
 20
918.17634270
  0
VERTEX
  8
0
 10
287.92331092
 20
931.15697582
 42
-0.39984245
  0
VERTEX
  8
0
 10
294.47684540
 20
932.37299562
  0
VERTEX
  8
0
 10
300.24556948
 20
928.61613296
  0
VERTEX
  8
0
 10
356.49413598
 20
886.94278354
 42
-0.11149536
  0
VERTEX
  8
0
 10
356.64627834
 20
880.00032836
 42
0.22984935
  0
VERTEX
  8
0
 10
360.26110874
 20
865.94385738
 42
-0.34845642
  0
VERTEX
  8
0
 10
360.58320582
 20
856.17403042
  0
VERTEX
  8
0
 10
358.06430824
 20
852.77431184
 42
-0.34845842
  0
VERTEX
  8
0
 10
348.62422406
 20
850.23710700
 42
0.22985083
  0
VERTEX
  8
0
 10
334.12427622
 20
849.60150996
  0
SEQEND
  0
POLYLINE
  8
CYAN
 66
   1
 39
0.000000
 70
    1
  0
VERTEX
  8
0
 10
118.17026166
 20
507.42448058
 42
-0.25234001
  0
VERTEX
  8
0
 10
123.91007348
 20
537.06345578
 42
-0.14266689
  0
VERTEX
  8
0
 10
222.50577656
 20
604.76683628
 42
0.06887508
  0
VERTEX
  8
0
 10
240.05939678
 20
613.37288872
 42
0.27648737
  0
VERTEX
  8
0
 10
243.83370360
 20
621.43303400
 42
0.27648737
  0
VERTEX
  8
0
 10
238.51110718
 20
628.56614702
 42
-0.03677697
  0
VERTEX
  8
0
 10
156.33462464
 20
669.66674968
 42
-0.27252708
  0
VERTEX
  8
0
 10
151.92000736
 20
677.72125975
 42
-0.27252708
  0
VERTEX
  8
0
 10
156.82137798
 20
685.48917738
 42
0.26682061
  0
VERTEX
  8
0
 10
163.94809150
 20
696.52230628
  0
VERTEX
  8
0
 10
164.73838620
 20
711.70044690
 42
-0.22781566
  0
VERTEX
  8
0
 10
169.75855080
 20
720.88957436
 42
-0.09796902
  0
VERTEX
  8
0
 10
175.45792424
 20
723.48605206
  0
VERTEX
  8
0
 10
175.45792424
 20
697.45752992
  0
VERTEX
  8
0
 10
181.51804746
 20
697.45752992
  0
VERTEX
  8
0
 10
181.51804746
 20
723.74733502
 42
-0.11339348
  0
VERTEX
  8
0
 10
188.24998430
 20
721.12207030
 42
-0.24202464
  0
VERTEX
  8
0
 10
191.06669048
 20
715.94424672
  0
VERTEX
  8
0
 10
191.79201188
 20
684.84297938
 42
0.23985225
  0
VERTEX
  8
0
 10
199.07715400
 20
671.31971164
 42
0.01152698
  0
VERTEX
  8
0
 10
258.20801810
 20
632.34137956
 42
-0.26677284
  0
VERTEX
  8
0
 10
266.25952059
 20
617.23348707
 42
-0.26677284
  0
VERTEX
  8
0
 10
257.26533460
 20
602.66709678
 42
-0.05989900
  0
VERTEX
  8
0
 10
227.94056636
 20
591.07057574
 42
0.14622903
  0
VERTEX
  8
0
 10
135.83502834
 20
534.93884200
 42
0.15928769
  0
VERTEX
  8
0
 10
129.09236530
 20
519.72385254
 42
-0.04412897
  0
VERTEX
  8
0
 10
126.75501320
 20
507.53362320
 42
-0.33151137
  0
VERTEX
  8
0
 10
122.50328681
 20
504.28172342
 42
-0.33151137
  0
VERTEX
  8
0
 10
118.17026166
 20
507.42448058
  0
SEQEND
  0
POLYLINE
  8
CYAN
 66
   1
 39
0.000000
 70
    1
  0
VERTEX
  8
0
 10
339.27734672
 20
503.87494668
 42
0.35454427
  0
VERTEX
  8
0
 10
344.20517191
 20
501.12267224
 42
0.35454427
  0
VERTEX
  8
0
 10
347.91542424
 20
505.37620058
  0
VERTEX
  8
0
 10
348.35014844
 20
515.55874384
 42
-0.21900755
  0
VERTEX
  8
0
 10
355.38328344
 20
529.04523950
 42
-0.08969297
  0
VERTEX
  8
0
 10
431.26354112
 20
568.54660210
 42
0.19422983
  0
VERTEX
  8
0
 10
473.73933150
 20
603.23006068
 42
0.33526380
  0
VERTEX
  8
0
 10
468.25127834
 20
640.91617856
 42
0.05474598
  0
VERTEX
  8
0
 10
419.27503100
 20
686.79886862
 42
-0.24595950
  0
VERTEX
  8
0
 10
411.95549030
 20
699.87961294
  0
VERTEX
  8
0
 10
411.10681558
 20
730.38033024
 42
0.37018900
  0
VERTEX
  8
0
 10
404.93702656
 20
737.17979972
 42
0.02278002
  0
VERTEX
  8
0
 10
401.31436664
 20
737.46753054
  0
VERTEX
  8
0
 10
401.31436664
 20
710.64045392
  0
VERTEX
  8
0
 10
395.25430402
 20
710.64045392
  0
VERTEX
  8
0
 10
395.25430402
 20
737.21049968
 42
0.04094498
  0
VERTEX
  8
0
 10
388.86080202
 20
735.91255272
 42
0.34320433
  0
VERTEX
  8
0
 10
384.64085840
 20
730.09364780
  0
VERTEX
  8
0
 10
385.27944504
 20
711.19840620
 42
-0.29422599
  0
VERTEX
  8
0
 10
379.03925498
 20
700.75346898
 42
0.26823787
  0
VERTEX
  8
0
 10
373.90694522
 20
693.03300771
 42
0.26823787
  0
VERTEX
  8
0
 10
378.03585028
 20
684.73250962
 42
0.02714402
  0
VERTEX
  8
0
 10
443.50276354
 20
641.24191366
 42
-0.21841247
  0
VERTEX
  8
0
 10
457.29579696
 20
623.31099435
 42
-0.21841247
  0
VERTEX
  8
0
 10
452.70292424
 20
601.15989600
 42
-0.15395008
  0
VERTEX
  8
0
 10
425.66970460
 20
581.41736742
 42
0.09330297
  0
VERTEX
  8
0
 10
342.70027510
 20
534.86112250
 42
0.17261656
  0
VERTEX
  8
0
 10
337.21068270
 20
525.52454110
 42
0.14338692
  0
VERTEX
  8
0
 10
339.27734672
 20
503.87494668
  0
SEQEND
  0
POLYLINE
  8
CYAN
 66
   1
 39
0.000000
 70
    1
  0
VERTEX
  8
0
 10
281.47950486
 20
506.00792730
 42
0.35454482
  0
VERTEX
  8
0
 10
286.40726947
 20
503.25575965
 42
0.35454482
  0
VERTEX
  8
0
 10
290.11739654
 20
507.50925796
  0
VERTEX
  8
0
 10
290.55218336
 20
517.69180122
 42
-0.21900728
  0
VERTEX
  8
0
 10
297.58544158
 20
531.17822012
 42
-0.08969297
  0
VERTEX
  8
0
 10
373.46551544
 20
570.67958272
 42
0.19423018
  0
VERTEX
  8
0
 10
415.94142702
 20
605.36304130
 42
0.33526380
  0
VERTEX
  8
0
 10
410.45349708
 20
643.04914302
 42
0.05474598
  0
VERTEX
  8
0
 10
361.47718914
 20
688.93189570
 42
-0.24596050
  0
VERTEX
  8
0
 10
354.15746260
 20
702.01267032
  0
VERTEX
  8
0
 10
353.30897372
 20
732.51338964
 42
0.37018879
  0
VERTEX
  8
0
 10
347.13899886
 20
739.31270358
 42
0.02278002
  0
VERTEX
  8
0
 10
343.51640156
 20
739.60043440
  0
VERTEX
  8
0
 10
343.51640156
 20
712.77335576
  0
VERTEX
  8
0
 10
337.45652478
 20
712.77335576
  0
VERTEX
  8
0
 10
337.45652478
 20
739.34352676
 42
0.04094498
  0
VERTEX
  8
0
 10
331.06277634
 20
738.04545658
 42
0.34320246
  0
VERTEX
  8
0
 10
326.84301654
 20
732.22670720
  0
VERTEX
  8
0
 10
327.48141734
 20
713.33146358
 42
-0.29422621
  0
VERTEX
  8
0
 10
321.24141312
 20
702.88637284
 42
0.26824070
  0
VERTEX
  8
0
 10
316.10909189
 20
695.16599288
 42
0.26824070
  0
VERTEX
  8
0
 10
320.23800842
 20
686.86556902
 42
0.02714390
  0
VERTEX
  8
0
 10
385.70510752
 20
643.37481752
 42
-0.21841228
  0
VERTEX
  8
0
 10
399.49803563
 20
625.44394476
 42
-0.21841228
  0
VERTEX
  8
0
 10
394.90514500
 20
603.29295338
 42
-0.15395008
  0
VERTEX
  8
0
 10
367.87180214
 20
583.55034804
 42
0.09330297
  0
VERTEX
  8
0
 10
284.90243324
 20
536.99424250
 42
0.17261621
  0
VERTEX
  8
0
 10
279.41265500
 20
527.65759848
 42
0.14338703
  0
VERTEX
  8
0
 10
281.47950486
 20
506.00792730
  0
SEQEND
  0
POLYLINE
  8
CYAN
 66
   1
 39
0.000000
 70
    1
  0
VERTEX
  8
0
 10
182.01466446
 20
511.74636956
 42
-0.35517068
  0
VERTEX
  8
0
 10
178.17295424
 20
507.60061893
 42
-0.35517068
  0
VERTEX
  8
0
 10
173.32992090
 20
510.51455336
 42
-0.13156000
  0
VERTEX
  8
0
 10
171.36367714
 20
533.59620254
 42
-0.15090316
  0
VERTEX
  8
0
 10
173.95821160
 20
538.62658430
 42
-0.12746501
  0
VERTEX
  8
0
 10
265.47922828
 20
593.67425070
 42
0.10725704
  0
VERTEX
  8
0
 10
287.33089744
 20
605.65838348
 42
0.26640998
  0
VERTEX
  8
0
 10
292.76699687
 20
621.28762931
 42
0.26640998
  0
VERTEX
  8
0
 10
282.02186274
 20
633.87200830
 42
-0.05711304
  0
VERTEX
  8
0
 10
211.35077500
 20
672.19775918
 42
-0.26706154
  0
VERTEX
  8
0
 10
207.04550522
 20
680.10438565
 42
-0.26706154
  0
VERTEX
  8
0
 10
211.71473052
 20
687.80168550
 42
0.29460176
  0
VERTEX
  8
0
 10
219.64776744
 20
702.52556246
  0
VERTEX
  8
0
 10
218.61582014
 20
715.59487156
 42
-0.26256316
  0
VERTEX
  8
0
 10
221.86922406
 20
722.60072848
 42
-0.09760570
  0
VERTEX
  8
0
 10
229.40452500
 20
726.03774434
  0
VERTEX
  8
0
 10
229.40452500
 20
701.24083842
  0
VERTEX
  8
0
 10
235.46464822
 20
701.24083842
  0
VERTEX
  8
0
 10
235.46464822
 20
726.58941038
 42
-0.07815274
  0
VERTEX
  8
0
 10
241.97564554
 20
725.21687290
 42
-0.29293980
  0
VERTEX
  8
0
 10
244.74266578
 20
721.47791754
  0
VERTEX
  8
0
 10
246.84650386
 20
690.19565820
 42
0.24458539
  0
VERTEX
  8
0
 10
256.23006036
 20
674.78397326
 42
-0.02657599
  0
VERTEX
  8
0
 10
308.50797952
 20
633.36857986
 42
-0.20476279
  0
VERTEX
  8
0
 10
316.02247044
 20
620.46128665
 42
-0.20476279
  0
VERTEX
  8
0
 10
311.88547406
 20
606.11029182
 42
-0.15408602
  0
VERTEX
  8
0
 10
275.13211340
 20
582.00791644
 42
0.11318592
  0
VERTEX
  8
0
 10
189.77102410
 20
535.36644772
 42
0.17800039
  0
VERTEX
  8
0
 10
183.18629880
 20
523.11016438
 42
0.01897284
  0
VERTEX
  8
0
 10
182.01466446
 20
511.74636956
  0
SEQEND
  0
POLYLINE
  8
CYAN
 66
   1
 39
0.000000
 70
    1
  0
VERTEX
  8
0
 10
59.96062664
 20
507.42448058
 42
-0.25234002
  0
VERTEX
  8
0
 10
65.70044048
 20
537.06345578
 42
-0.14266689
  0
VERTEX
  8
0
 10
164.29626476
 20
604.76683628
 42
0.06887508
  0
VERTEX
  8
0
 10
181.84982438
 20
613.37288872
 42
0.27648737
  0
VERTEX
  8
0
 10
185.62413120
 20
621.43303400
 42
0.27648737
  0
VERTEX
  8
0
 10
180.30153478
 20
628.56614702
 42
-0.03677697
  0
VERTEX
  8
0
 10
98.12499164
 20
669.66674968
 42
-0.27252705
  0
VERTEX
  8
0
 10
93.71037388
 20
677.72125914
 42
-0.27252705
  0
VERTEX
  8
0
 10
98.61174296
 20
685.48917738
 42
0.26682153
  0
VERTEX
  8
0
 10
105.73870494
 20
696.52230628
  0
VERTEX
  8
0
 10
106.52875320
 20
711.70044690
 42
-0.22781706
  0
VERTEX
  8
0
 10
111.54916424
 20
720.88957436
 42
-0.09796891
  0
VERTEX
  8
0
 10
117.24841446
 20
723.48605206
  0
VERTEX
  8
0
 10
117.24841446
 20
697.45752992
  0
VERTEX
  8
0
 10
123.30841446
 20
697.45752992
  0
VERTEX
  8
0
 10
123.30841446
 20
723.74733502
 42
-0.11339345
  0
VERTEX
  8
0
 10
130.04034928
 20
721.12207030
 42
-0.24202229
  0
VERTEX
  8
0
 10
132.85730392
 20
715.94424672
  0
VERTEX
  8
0
 10
133.58237686
 20
684.84297938
 42
0.23985226
  0
VERTEX
  8
0
 10
140.86764422
 20
671.31971164
 42
0.01152698
  0
VERTEX
  8
0
 10
199.99838510
 20
632.34137956
 42
-0.26677282
  0
VERTEX
  8
0
 10
208.04994870
 20
617.23352248
 42
-0.26677282
  0
VERTEX
  8
0
 10
199.05582482
 20
602.66709678
 42
-0.05989900
  0
VERTEX
  8
0
 10
169.73093336
 20
591.07057574
 42
0.14622903
  0
VERTEX
  8
0
 10
77.62551654
 20
534.93884200
 42
0.15928768
  0
VERTEX
  8
0
 10
70.88273230
 20
519.72385254
 42
-0.04412897
  0
VERTEX
  8
0
 10
68.54550342
 20
507.53362320
 42
-0.33151260
  0
VERTEX
  8
0
 10
64.29371460
 20
504.28166198
 42
-0.33151260
  0
VERTEX
  8
0
 10
59.96062664
 20
507.42448058
  0
SEQEND
  0
POLYLINE
  8
CYAN
 66
   1
 39
0.000000
 70
    1
  0
VERTEX
  8
0
 10
424.28829124
 20
54.76778916
  0
VERTEX
  8
0
 10
431.95353878
 20
41.46542660
  0
VERTEX
  8
0
 10
437.20413488
 20
44.49101896
  0
VERTEX
  8
0
 10
429.53882270
 20
57.79344212
 42
0.35549625
  0
VERTEX
  8
0
 10
436.11220772
 20
85.71928966
 42
0.12800193
  0
VERTEX
  8
0
 10
416.31592290
 20
108.91125306
 42
-0.38740360
  0
VERTEX
  8
0
 10
414.96756591
 20
114.88495689
 42
-0.38740360
  0
VERTEX
  8
0
 10
420.79138642
 20
116.77871472
 42
-0.17637897
  0
VERTEX
  8
0
 10
466.76765500
 20
71.84128164
 42
-0.39238400
  0
VERTEX
  8
0
 10
449.70668879
 20
16.72493152
 42
-0.39238400
  0
VERTEX
  8
0
 10
393.46559806
 20
29.60236656
 42
-0.17637913
  0
VERTEX
  8
0
 10
377.64144326
 20
91.91441554
 42
-0.38740182
  0
VERTEX
  8
0
 10
382.20025997
 20
96.00344414
 42
-0.38740182
  0
VERTEX
  8
0
 10
386.69248352
 20
91.84136628
 42
0.12800193
  0
VERTEX
  8
0
 10
396.83107360
 20
63.08423016
 42
0.35549692
  0
VERTEX
  8
0
 10
424.28829124
 20
54.76778916
  0
SEQEND
  0
POLYLINE
  8
CYAN
 66
   1
 39
0.000000
 70
    1
  0
VERTEX
  8
0
 10
410.99369760
 20
90.74352052
 42
-0.18014607
  0
VERTEX
  8
0
 10
369.51496306
 20
140.06131350
 42
-0.39778822
  0
VERTEX
  8
0
 10
396.33052897
 20
201.02490440
 42
-0.39778822
  0
VERTEX
  8
0
 10
458.70886096
 20
177.68871604
 42
-0.18014594
  0
VERTEX
  8
0
 10
465.08744526
 20
113.56364030
 42
-0.37384612
  0
VERTEX
  8
0
 10
460.15899834
 20
110.20664389
 42
-0.37384612
  0
VERTEX
  8
0
 10
456.14816756
 20
114.61938118
 42
0.10696897
  0
VERTEX
  8
0
 10
447.99203578
 20
148.63800726
 42
0.36792648
  0
VERTEX
  8
0
 10
415.67622728
 20
162.96254436
  0
VERTEX
  8
0
 10
409.72188944
 20
177.07686814
  0
VERTEX
  8
0
 10
404.13847006
 20
174.72134614
  0
VERTEX
  8
0
 10
410.09256348
 20
160.60702236
 42
0.36792758
  0
VERTEX
  8
0
 10
397.80149574
 20
127.46453290
 42
0.10696908
  0
VERTEX
  8
0
 10
416.47558572
 20
97.88302670
 42
-0.37384660
  0
VERTEX
  8
0
 10
416.83736193
 20
91.93092881
 42
-0.37384660
  0
VERTEX
  8
0
 10
410.99369760
 20
90.74352052
  0
SEQEND
  0
POLYLINE
  8
CYAN
 66
   1
 39
0.000000
 70
    1
  0
VERTEX
  8
0
 10
126.49006192
 20
41.73938102
 42
0.36305486
  0
VERTEX
  8
0
 10
161.47807994
 20
42.11963996
 42
0.13418295
  0
VERTEX
  8
0
 10
181.32028946
 20
71.33310822
 42
-0.37038098
  0
VERTEX
  8
0
 10
186.42467790
 20
74.33414674
 42
-0.37038098
  0
VERTEX
  8
0
 10
190.16370604
 20
69.74277636
 42
-0.28414577
  0
VERTEX
  8
0
 10
147.39688820
 20
4.42171720
 42
-0.31878419
  0
VERTEX
  8
0
 10
93.91078597
 20
14.14276996
 42
-0.31878419
  0
VERTEX
  8
0
 10
85.43181058
 20
67.83978082
 42
-0.28414598
  0
VERTEX
  8
0
 10
151.72649964
 20
109.08137948
 42
-0.37037777
  0
VERTEX
  8
0
 10
156.22993088
 20
105.23692537
 42
-0.37037777
  0
VERTEX
  8
0
 10
153.11142780
 20
100.20347140
 42
0.13418294
  0
VERTEX
  8
0
 10
123.44600676
 20
81.04363202
 42
0.36305441
  0
VERTEX
  8
0
 10
122.25501476
 20
46.07389096
  0
VERTEX
  8
0
 10
111.29814288
 20
35.36800812
  0
VERTEX
  8
0
 10
115.53331326
 20
31.03358908
  0
VERTEX
  8
0
 10
126.49006192
 20
41.73938102
  0
SEQEND
  0
POLYLINE
  8
CYAN
 66
   1
 39
0.000000
 70
    1
  0
VERTEX
  8
0
 10
143.77052966
 20
74.46016922
 42
0.20525700
  0
VERTEX
  8
0
 10
199.21560884
 20
94.77445880
 42
0.40176865
  0
VERTEX
  8
0
 10
202.61171392
 20
161.77108537
 42
0.40176865
  0
VERTEX
  8
0
 10
135.82097318
 20
168.02236156
 42
0.20525688
  0
VERTEX
  8
0
 10
107.76191068
 20
116.06573956
 42
0.38111934
  0
VERTEX
  8
0
 10
111.36509088
 20
111.20571584
 42
0.38111934
  0
VERTEX
  8
0
 10
116.60434150
 20
114.23110688
 42
-0.14955099
  0
VERTEX
  8
0
 10
133.23777900
 20
137.73932754
 42
-0.36620647
  0
VERTEX
  8
0
 10
168.42602144
 20
136.19133286
  0
VERTEX
  8
0
 10
180.00908928
 20
146.21614038
  0
VERTEX
  8
0
 10
183.97486842
 20
141.63406126
  0
VERTEX
  8
0
 10
172.39180058
 20
131.60909820
 42
-0.36620657
  0
VERTEX
  8
0
 10
168.87517046
 20
96.56282540
 42
-0.14955105
  0
VERTEX
  8
0
 10
143.22361062
 20
83.47422126
 42
0.38111626
  0
VERTEX
  8
0
 10
139.47788298
 20
78.72333488
 42
0.38111626
  0
VERTEX
  8
0
 10
143.77052966
 20
74.46016922
  0
SEQEND
  0
POLYLINE
  8
CYAN
 66
   1
 39
0.000000
 70
    1
  0
VERTEX
  8
0
 10
310.45178512
 20
6.74843400
 42
-0.23280262
  0
VERTEX
  8
0
 10
270.34742524
 20
4.88589453
 42
-0.23280262
  0
VERTEX
  8
0
 10
244.41335730
 20
35.53312696
 42
-0.41079734
  0
VERTEX
  8
0
 10
287.70995650
 20
108.63475748
 42
-0.38739795
  0
VERTEX
  8
0
 10
293.13413384
 20
105.79231165
 42
-0.38739795
  0
VERTEX
  8
0
 10
290.80437430
 20
100.12897178
 42
0.06857606
  0
VERTEX
  8
0
 10
277.24507582
 20
86.22983658
 42
0.22139704
  0
VERTEX
  8
0
 10
271.36359994
 20
63.98704657
 42
0.22139704
  0
VERTEX
  8
0
 10
284.60067958
 20
45.16915114
  0
VERTEX
  8
0
 10
278.46608906
 20
31.09514252
  0
VERTEX
  8
0
 10
284.02133550
 20
28.67373822
  0
VERTEX
  8
0
 10
290.14236374
 20
42.71655400
 42
0.22141516
  0
VERTEX
  8
0
 10
312.95275194
 20
45.84020827
 42
0.22141516
  0
VERTEX
  8
0
 10
325.24288364
 20
65.30873900
 42
0.06857600
  0
VERTEX
  8
0
 10
326.19530758
 20
84.70287818
 42
-0.38739778
  0
VERTEX
  8
0
 10
328.75827684
 20
90.26449267
 42
-0.38739778
  0
VERTEX
  8
0
 10
334.53267780
 20
88.22570364
 42
-0.41079683
  0
VERTEX
  8
0
 10
310.45178512
 20
6.74843400
  0
SEQEND
  0
POLYLINE
  8
CYAN
 66
   1
 39
0.000000
 70
    1
  0
VERTEX
  8
0
 10
294.93554902
 20
93.48773294
 42
0.38786824
  0
VERTEX
  8
0
 10
293.50323720
 20
87.52815147
 42
0.38786824
  0
VERTEX
  8
0
 10
299.30843492
 20
85.56147716
 42
0.22024889
  0
VERTEX
  8
0
 10
339.07397918
 20
130.54961224
 42
0.40030311
  0
VERTEX
  8
0
 10
308.69846397
 20
190.16244848
 42
0.40030311
  0
VERTEX
  8
0
 10
247.70436352
 20
162.66550538
 42
0.22024909
  0
VERTEX
  8
0
 10
250.57618136
 20
102.69065094
 42
0.38786818
  0
VERTEX
  8
0
 10
256.33518730
 20
100.59256157
 42
0.38786818
  0
VERTEX
  8
0
 10
258.94671594
 20
106.13765368
 42
-0.18063103
  0
VERTEX
  8
0
 10
260.63327656
 20
135.40979082
 42
-0.36007773
  0
VERTEX
  8
0
 10
291.71722240
 20
150.98816616
  0
VERTEX
  8
0
 10
296.79705780
 20
165.44019960
  0
VERTEX
  8
0
 10
302.51418502
 20
163.43074198
  0
VERTEX
  8
0
 10
297.43447284
 20
148.97864592
 42
-0.36007825
  0
VERTEX
  8
0
 10
311.93497618
 20
117.37747908
 42
-0.18063091
  0
VERTEX
  8
0
 10
294.93554902
 20
93.48773294
  0
SEQEND
  0
POLYLINE
  8
CYAN
 66
   1
 39
0.000000
 70
    1
  0
VERTEX
  8
0
 10
0.02763064
 20
132.13556676
 42
-0.21074593
  0
VERTEX
  8
0
 10
21.27770138
 20
184.24192530
 42
-0.41849825
  0
VERTEX
  8
0
 10
27.75015290
 20
184.08291566
 42
-0.41849825
  0
VERTEX
  8
0
 10
27.49662286
 20
177.61347710
 42
0.23543869
  0
VERTEX
  8
0
 10
19.20774222
 20
156.20610263
 42
0.23543869
  0
VERTEX
  8
0
 10
31.31383706
 20
136.70164950
 42
0.09609202
  0
VERTEX
  8
0
 10
39.40998696
 20
133.64255342
  0
VERTEX
  8
0
 10
38.85850676
 20
118.29955656
  0
VERTEX
  8
0
 10
44.91468492
 20
118.08187126
  0
VERTEX
  8
0
 10
45.46604190
 20
133.42485196
 42
0.09609203
  0
VERTEX
  8
0
 10
53.76093758
 20
135.89472616
 42
0.23543798
  0
VERTEX
  8
0
 10
67.23621207
 20
154.47964082
 42
0.23543798
  0
VERTEX
  8
0
 10
60.50582060
 20
176.42693920
 42
-0.41850306
  0
VERTEX
  8
0
 10
60.71740520
 20
182.89793704
 42
-0.41850306
  0
VERTEX
  8
0
 10
67.18461730
 20
182.59175296
 42
-0.21074607
  0
VERTEX
  8
0
 10
84.63867980
 20
129.09416184
 42
-0.39555758
  0
VERTEX
  8
0
 10
40.90695250
 20
90.93829643
 42
-0.39555758
  0
VERTEX
  8
0
 10
0.02763064
 20
132.13556676
  0
SEQEND
  0
POLYLINE
  8
CYAN
 66
   1
 39
0.000000
 70
    1
  0
VERTEX
  8
0
 10
90.37393046
 20
185.82943522
  0
VERTEX
  8
0
 10
75.76752054
 20
215.80433238
 42
0.26782095
  0
VERTEX
  8
0
 10
64.18926232
 20
223.62394226
  0
VERTEX
  8
0
 10
50.60740044
 20
224.58514916
  0
VERTEX
  8
0
 10
41.58533304
 20
252.35251356
  0
VERTEX
  8
0
 10
35.82197206
 20
250.47993922
  0
VERTEX
  8
0
 10
45.33338042
 20
221.20611336
  0
VERTEX
  8
0
 10
42.73613310
 20
219.68004780
 42
-0.07418991
  0
VERTEX
  8
0
 10
35.42152322
 20
216.73214464
  0
VERTEX
  8
0
 10
33.47253834
 20
216.26548828
  0
VERTEX
  8
0
 10
24.61728456
 20
237.12695950
  0
VERTEX
  8
0
 10
19.03898184
 20
234.75910944
  0
VERTEX
  8
0
 10
27.48638954
 20
214.85804318
 42
-0.28248502
  0
VERTEX
  8
0
 10
16.92059572
 20
217.19117146
 42
-0.03837996
  0
VERTEX
  8
0
 10
5.77311664
 20
244.07850670
 42
-0.17085493
  0
VERTEX
  8
0
 10
6.03646606
 20
255.97302420
 42
0.15707669
  0
VERTEX
  8
0
 10
6.44159928
 20
264.23947020
 42
-0.33420095
  0
VERTEX
  8
0
 10
14.50137908
 20
284.27749650
 42
-0.05597798
  0
VERTEX
  8
0
 10
23.62873696
 20
289.45373236
  0
VERTEX
  8
0
 10
47.74544626
 20
298.23189688
  0
VERTEX
  8
0
 10
52.46675186
 20
259.39705348
  0
VERTEX
  8
0
 10
58.48236842
 20
260.12837832
  0
VERTEX
  8
0
 10
53.54444004
 20
300.34256660
  0
VERTEX
  8
0
 10
76.31887954
 20
308.63198808
  0
VERTEX
  8
0
 10
74.24623430
 20
314.32654180
  0
VERTEX
  8
0
 10
52.78656836
 20
306.51559368
  0
VERTEX
  8
0
 10
51.87877834
 20
313.90810688
 42
-0.34161682
  0
VERTEX
  8
0
 10
54.20836152
 20
317.83894204
 42
-0.03752797
  0
VERTEX
  8
0
 10
88.98197674
 20
333.11477390
 42
-0.22177060
  0
VERTEX
  8
0
 10
99.29452922
 20
332.10527486
  0
VERTEX
  8
0
 10
108.38539176
 20
326.72911556
 42
0.26471557
  0
VERTEX
  8
0
 10
112.46321180
 20
326.66185346
 42
0.26471557
  0
VERTEX
  8
0
 10
114.60246494
 20
330.13413462
  0
VERTEX
  8
0
 10
115.07553278
 20
343.79802668
 42
-0.20548533
  0
VERTEX
  8
0
 10
118.95258080
 20
352.03469001
 42
-0.20548533
  0
VERTEX
  8
0
 10
127.59339400
 20
354.90008202
 42
-0.14216431
  0
VERTEX
  8
0
 10
133.92204390
 20
353.39346906
 42
-0.25995280
  0
VERTEX
  8
0
 10
141.17870604
 20
341.56074942
  0
VERTEX
  8
0
 10
143.64440288
 20
306.30083536
 42
-0.20681193
  0
VERTEX
  8
0
 10
141.37301330
 20
299.54739276
 42
-0.20681193
  0
VERTEX
  8
0
 10
134.89826142
 20
296.57320620
  0
VERTEX
  8
0
 10
133.20670938
 20
320.76078720
  0
VERTEX
  8
0
 10
127.16150386
 20
320.33802342
  0
VERTEX
  8
0
 10
128.71719070
 20
298.09325418
 42
0.06366618
  0
VERTEX
  8
0
 10
126.19403900
 20
298.38228992
 42
0.24093558
  0
VERTEX
  8
0
 10
88.10277029
 20
280.54977983
 42
0.24093558
  0
VERTEX
  8
0
 10
80.27393046
 20
239.22602836
  0
VERTEX
  8
0
 10
100.11096272
 20
190.16408656
 42
-0.40411554
  0
VERTEX
  8
0
 10
97.33605196
 20
183.29384446
 42
-0.40411554
  0
VERTEX
  8
0
 10
90.37393046
 20
185.82943522
  0
SEQEND
  0
POLYLINE
  8
CYAN
 66
   1
 39
0.000000
 70
    1
  0
VERTEX
  8
0
 10
342.93631614
 20
253.19231846
 42
0.39199276
  0
VERTEX
  8
0
 10
367.68261096
 20
248.28846344
  0
VERTEX
  8
0
 10
373.78224942
 20
252.04116490
 42
-0.38002162
  0
VERTEX
  8
0
 10
389.63192490
 20
249.24210544
  0
VERTEX
  8
0
 10
396.02850942
 20
241.16274376
 42
0.21051797
  0
VERTEX
  8
0
 10
432.70931370
 20
221.77861570
  0
VERTEX
  8
0
 10
442.46348162
 20
221.08317616
 42
0.23207471
  0
VERTEX
  8
0
 10
462.32683650
 20
229.13001988
 42
0.15261174
  0
VERTEX
  8
0
 10
467.66823362
 20
246.03349502
 42
0.22167856
  0
VERTEX
  8
0
 10
465.95973555
 20
252.52289010
 42
0.22167856
  0
VERTEX
  8
0
 10
459.89054480
 20
255.38577990
  0
VERTEX
  8
0
 10
429.82023496
 20
258.83666508
  0
VERTEX
  8
0
 10
430.51115778
 20
264.85710540
  0
VERTEX
  8
0
 10
452.51533694
 20
262.33188926
  0
VERTEX
  8
0
 10
452.18448518
 20
304.12844050
  0
VERTEX
  8
0
 10
430.22284116
 20
301.25503494
  0
VERTEX
  8
0
 10
429.43680058
 20
307.26387440
  0
VERTEX
  8
0
 10
459.72188086
 20
311.22619328
 42
0.21539894
  0
VERTEX
  8
0
 10
465.47035674
 20
314.33972502
 42
0.21539894
  0
VERTEX
  8
0
 10
466.93385050
 20
320.71132144
 42
0.15261204
  0
VERTEX
  8
0
 10
461.26116934
 20
337.50653670
 42
0.23207468
  0
VERTEX
  8
0
 10
441.24333294
 20
345.16122368
  0
VERTEX
  8
0
 10
431.50482204
 20
344.27407806
 42
0.21051814
  0
VERTEX
  8
0
 10
395.21232438
 20
324.17241368
  0
VERTEX
  8
0
 10
388.97589354
 20
315.96879372
 42
-0.38002106
  0
VERTEX
  8
0
 10
373.18422640
 20
312.85868052
  0
VERTEX
  8
0
 10
367.01184572
 20
316.49064658
 42
0.39199202
  0
VERTEX
  8
0
 10
342.36683572
 20
311.10112498
 42
-0.24957744
  0
VERTEX
  8
0
 10
320.15337042
 20
299.72493342
 42
0.39023305
  0
VERTEX
  8
0
 10
315.17239820
 20
295.28286765
 42
0.39023305
  0
VERTEX
  8
0
 10
319.18855580
 20
289.95252894
 42
0.23228602
  0
VERTEX
  8
0
 10
349.30744058
 20
298.46691378
 42
-0.22241254
  0
VERTEX
  8
0
 10
359.47230689
 20
301.54767127
 42
-0.22241254
  0
VERTEX
  8
0
 10
368.35023106
 20
295.71688780
  0
VERTEX
  8
0
 10
371.29429824
 20
290.93612148
 42
-0.08843597
  0
VERTEX
  8
0
 10
373.41706170
 20
285.55217912
  0
VERTEX
  8
0
 10
413.40816724
 20
285.86889088
  0
VERTEX
  8
0
 10
413.46765422
 20
279.80918378
  0
VERTEX
  8
0
 10
373.50385908
 20
279.49269624
 42
-0.09069894
  0
VERTEX
  8
0
 10
371.46166534
 20
273.92225334
  0
VERTEX
  8
0
 10
368.61210184
 20
269.08453716
 42
-0.22241289
  0
VERTEX
  8
0
 10
359.85053158
 20
263.08026714
 42
-0.22241289
  0
VERTEX
  8
0
 10
349.62701266
 20
265.96055060
 42
0.23228607
  0
VERTEX
  8
0
 10
319.34649152
 20
273.88115240
 42
0.39023418
  0
VERTEX
  8
0
 10
315.43589356
 20
268.47280481
 42
0.39023418
  0
VERTEX
  8
0
 10
320.50333138
 20
264.12952564
 42
-0.24957720
  0
VERTEX
  8
0
 10
342.93631614
 20
253.19231846
  0
SEQEND
  0
POLYLINE
  8
CYAN
 66
   1
 39
0.000000
 70
    1
  0
VERTEX
  8
0
 10
47.87169626
 20
399.25376944
 42
0.06795893
  0
VERTEX
  8
0
 10
71.27935930
 20
395.05995654
 42
0.04552700
  0
VERTEX
  8
0
 10
182.69843648
 20
397.93043108
  0
VERTEX
  8
0
 10
211.01887486
 20
401.99322678
 42
-0.09467997
  0
VERTEX
  8
0
 10
253.82872072
 20
400.00931610
  0
VERTEX
  8
0
 10
277.56933026
 20
394.32261614
 42
0.21467340
  0
VERTEX
  8
0
 10
284.21030622
 20
395.58479889
 42
0.21467340
  0
VERTEX
  8
0
 10
287.66908382
 20
401.39276966
  0
VERTEX
  8
0
 10
292.23609172
 20
441.21318924
 42
0.39739997
  0
VERTEX
  8
0
 10
284.85786396
 20
451.07447574
  0
VERTEX
  8
0
 10
278.44408116
 20
452.19010558
 42
0.20371299
  0
VERTEX
  8
0
 10
271.83012080
 20
450.64339619
 42
0.20371299
  0
VERTEX
  8
0
 10
268.35412864
 20
444.80779338
  0
VERTEX
  8
0
 10
266.88745916
 20
434.03360020
 42
-0.27146552
  0
VERTEX
  8
0
 10
262.16710260
 20
428.01945656
 42
-0.27146552
  0
VERTEX
  8
0
 10
254.61334528
 20
429.19947356
 42
0.06238999
  0
VERTEX
  8
0
 10
165.94022762
 20
484.85375606
 42
0.20720882
  0
VERTEX
  8
0
 10
118.54790066
 20
486.14494410
 42
0.04451884
  0
VERTEX
  8
0
 10
40.30212198
 20
446.36166828
 42
0.30134582
  0
VERTEX
  8
0
 10
28.47327751
 20
420.29882869
 42
0.30134582
  0
VERTEX
  8
0
 10
47.87169626
 20
399.25376944
  0
SEQEND
  0
POLYLINE
  8
CYAN
 66
   1
 39
0.000000
 70
    1
  0
VERTEX
  8
0
 10
127.50289800
 20
466.59588910
 42
-0.36123330
  0
VERTEX
  8
0
 10
122.35577921
 20
473.50269567
 42
-0.36123330
  0
VERTEX
  8
0
 10
128.20294314
 20
479.82784254
  0
VERTEX
  8
0
 10
131.79663020
 20
480.30257486
 42
-0.11896878
  0
VERTEX
  8
0
 10
142.14111686
 20
479.20735106
 42
-0.03135189
  0
VERTEX
  8
0
 10
171.29315288
 20
466.71016454
 42
-0.39732741
  0
VERTEX
  8
0
 10
174.30673703
 20
458.36948311
 42
-0.39732741
  0
VERTEX
  8
0
 10
166.15475364
 20
454.87751762
 42
0.02866701
  0
VERTEX
  8
0
 10
127.50289800
 20
466.59588910
  0
SEQEND
  0
POLYLINE
  8
CYAN
 66
   1
 39
0.000000
 70
    1
  0
VERTEX
  8
0
 10
184.86539956
 20
441.98267996
 42
-0.41022330
  0
VERTEX
  8
0
 10
180.11863337
 20
454.06259269
 42
-0.41022330
  0
VERTEX
  8
0
 10
192.13266468
 20
458.97371604
 42
-0.05736105
  0
VERTEX
  8
0
 10
228.06755770
 20
439.10281040
 42
-0.35161223
  0
VERTEX
  8
0
 10
229.82220992
 20
432.88067280
 42
-0.35161223
  0
VERTEX
  8
0
 10
224.12791534
 20
429.81982162
 42
-0.05877290
  0
VERTEX
  8
0
 10
184.86539956
 20
441.98267996
  0
SEQEND
  0
POLYLINE
  8
CYAN
 66
   1
 39
0.000000
 70
    1
  0
VERTEX
  8
0
 10
183.19159928
 20
410.16257542
 42
0.07324600
  0
VERTEX
  8
0
 10
227.47576032
 20
411.12252992
 42
0.34153946
  0
VERTEX
  8
0
 10
231.33423648
 20
415.30895891
 42
0.34153946
  0
VERTEX
  8
0
 10
228.25323408
 20
420.09659404
 42
0.03802194
  0
VERTEX
  8
0
 10
186.54647184
 20
431.40357030
 42
0.20308480
  0
VERTEX
  8
0
 10
178.34160048
 20
429.63770954
 42
0.20308480
  0
VERTEX
  8
0
 10
173.90221278
 20
422.51520890
 42
0.20308480
  0
VERTEX
  8
0
 10
175.93035852
 20
414.37120477
 42
0.20308480
  0
VERTEX
  8
0
 10
183.19159928
 20
410.16257542
  0
SEQEND
  0
POLYLINE
  8
CYAN
 66
   1
 39
0.000000
 70
    1
  0
VERTEX
  8
0
 10
118.50092758
 20
435.70351400
 42
0.07414108
  0
VERTEX
  8
0
 10
165.34867668
 20
435.96708764
 42
0.34637759
  0
VERTEX
  8
0
 10
169.60260049
 20
440.53090068
 42
0.34637759
  0
VERTEX
  8
0
 10
166.16523340
 20
445.73750848
 42
0.09840594
  0
VERTEX
  8
0
 10
119.06140890
 20
451.61841124
 42
0.38316065
  0
VERTEX
  8
0
 10
111.63390065
 20
443.91267081
 42
0.38316065
  0
VERTEX
  8
0
 10
118.50092758
 20
435.70351400
  0
SEQEND
  0
POLYLINE
  8
CYAN
 66
   1
 39
0.000000
 70
    1
  0
VERTEX
  8
0
 10
117.87658194
 20
409.16797388
 42
0.10722400
  0
VERTEX
  8
0
 10
159.53612264
 20
412.88236402
 42
0.35704099
  0
VERTEX
  8
0
 10
163.51813982
 20
418.92880596
 42
0.35704099
  0
VERTEX
  8
0
 10
158.37854346
 20
424.02787158
 42
0.03456498
  0
VERTEX
  8
0
 10
118.58069738
 20
425.08220856
 42
0.39313648
  0
VERTEX
  8
0
 10
112.63042580
 20
419.05560926
  0
VERTEX
  8
0
 10
112.52192958
 20
415.42159088
 42
0.38669835
  0
VERTEX
  8
0
 10
117.87658194
 20
409.16797388
  0
SEQEND
  0
POLYLINE
  8
CYAN
 66
   1
 39
0.000000
 70
    1
  0
VERTEX
  8
0
 10
53.96818958
 20
411.95440632
 42
0.04616086
  0
VERTEX
  8
0
 10
92.52215400
 20
411.32708522
 42
0.33082537
  0
VERTEX
  8
0
 10
97.68274698
 20
415.80758460
  0
VERTEX
  8
0
 10
98.58683838
 20
419.91207310
 42
0.23722871
  0
VERTEX
  8
0
 10
97.25222082
 20
425.16061057
 42
0.23722871
  0
VERTEX
  8
0
 10
92.24351722
 20
427.22003718
 42
0.05102594
  0
VERTEX
  8
0
 10
53.25926654
 20
420.21762840
 42
0.35844247
  0
VERTEX
  8
0
 10
50.21519084
 20
415.79444812
 42
0.35844247
  0
VERTEX
  8
0
 10
53.96818958
 20
411.95440632
  0
SEQEND
  0
POLYLINE
  8
CYAN
 66
   1
 39
0.000000
 70
    1
  0
VERTEX
  8
0
 10
54.85551498
 20
429.54443502
 42
-0.29767045
  0
VERTEX
  8
0
 10
50.00731254
 20
430.41539705
 42
-0.29767045
  0
VERTEX
  8
0
 10
48.85666846
 20
435.20493356
 42
-0.17239340
  0
VERTEX
  8
0
 10
54.24189554
 20
441.80623498
 42
-0.05114187
  0
VERTEX
  8
0
 10
91.81927278
 20
459.62944642
 42
-0.24169269
  0
VERTEX
  8
0
 10
97.35716947
 20
458.88511173
 42
-0.24169269
  0
VERTEX
  8
0
 10
99.98002834
 20
453.95125470
  0
VERTEX
  8
0
 10
100.06990622
 20
447.68082928
 42
-0.36929672
  0
VERTEX
  8
0
 10
94.72413176
 20
441.24592334
 42
0.05777501
  0
VERTEX
  8
0
 10
54.85551498
 20
429.54443502
  0
SEQEND
  0
POLYLINE
  8
CYAN
 66
   1
 39
0.000000
 70
    1
  0
VERTEX
  8
0
 10
11.07808104
 20
904.71080656
  0
VERTEX
  8
0
 10
24.96570426
 20
1014.61075284
 42
0.23476818
  0
VERTEX
  8
0
 10
19.28285240
 20
1030.84682402
  0
VERTEX
  8
0
 10
15.36811664
 20
1034.66490076
 42
-0.27940226
  0
VERTEX
  8
0
 10
12.15317958
 20
1047.10200440
 42
-0.15530783
  0
VERTEX
  8
0
 10
20.13121806
 20
1058.76120402
  0
VERTEX
  8
0
 10
21.08277744
 20
1059.61967978
 42
-0.34194212
  0
VERTEX
  8
0
 10
31.05911708
 20
1061.09214464
  0
VERTEX
  8
0
 10
65.99263954
 20
1041.44103520
 42
-0.39739909
  0
VERTEX
  8
0
 10
69.65413598
 20
1029.68203142
  0
VERTEX
  8
0
 10
66.37126632
 20
1022.96156212
 42
-0.12831479
  0
VERTEX
  8
0
 10
63.41893936
 20
1019.52408570
  0
VERTEX
  8
0
 10
59.84189710
 20
1017.04562650
 42
0.25843973
  0
VERTEX
  8
0
 10
56.21850512
 20
1009.71453838
 42
0.25843973
  0
VERTEX
  8
0
 10
60.51087464
 20
1002.75397904
  0
VERTEX
  8
0
 10
68.48792736
 20
998.26680356
 42
-0.31177314
  0
VERTEX
  8
0
 10
85.21481814
 20
963.98610672
 42
-0.17759812
  0
VERTEX
  8
0
 10
43.25124118
 20
887.54012784
 42
-0.31138841
  0
VERTEX
  8
0
 10
21.24380877
 20
885.03140774
 42
-0.31138841
  0
VERTEX
  8
0
 10
11.07808104
 20
904.71080656
  0
SEQEND
  0
POLYLINE
  8
CYAN
 66
   1
 39
0.000000
 70
    1
  0
VERTEX
  8
0
 10
42.19081592
 20
930.06615764
 42
-0.41241427
  0
VERTEX
  8
0
 10
38.73928434
 20
923.93723928
 42
-0.10072760
  0
VERTEX
  8
0
 10
33.76572518
 20
923.56452908
 42
-0.31257586
  0
VERTEX
  8
0
 10
26.04733750
 20
930.49817100
 42
-0.16285721
  0
VERTEX
  8
0
 10
28.36570160
 20
956.22136206
 42
-0.33220873
  0
VERTEX
  8
0
 10
32.91055677
 20
958.80280134
 42
-0.33220873
  0
VERTEX
  8
0
 10
36.67600988
 20
955.17776340
 42
0.02663200
  0
VERTEX
  8
0
 10
42.19081592
 20
930.06615764
  0
SEQEND
  0
POLYLINE
  8
CYAN
 66
   1
 39
0.000000
 70
    1
  0
VERTEX
  8
0
 10
46.03231658
 20
782.75737484
  0
VERTEX
  8
0
 10
94.35869760
 20
773.67689914
 42
0.23396322
  0
VERTEX
  8
0
 10
103.34511487
 20
776.20189234
 42
0.23396322
  0
VERTEX
  8
0
 10
106.78630724
 20
784.87884348
  0
VERTEX
  8
0
 10
68.84263532
 20
792.00830016
  0
VERTEX
  8
0
 10
69.96174764
 20
797.96415098
  0
VERTEX
  8
0
 10
103.53389110
 20
791.65599600
 42
-0.36129745
  0
VERTEX
  8
0
 10
128.85786552
 20
797.69682418
 42
0.14618135
  0
VERTEX
  8
0
 10
139.49689444
 20
795.88216526
 42
-0.05525202
  0
VERTEX
  8
0
 10
196.22740466
 20
796.50487874
 42
0.28145138
  0
VERTEX
  8
0
 10
212.94492668
 20
804.56573722
 42
-0.05024297
  0
VERTEX
  8
0
 10
228.77093180
 20
824.41075050
 42
-0.25799634
  0
VERTEX
  8
0
 10
251.89595038
 20
831.36713964
 42
-0.09320195
  0
VERTEX
  8
0
 10
277.53055636
 20
820.57017500
 42
-0.07543302
  0
VERTEX
  8
0
 10
310.82554168
 20
790.46756334
 42
0.21952375
  0
VERTEX
  8
0
 10
335.42166768
 20
778.48071770
 42
0.27544312
  0
VERTEX
  8
0
 10
346.25530651
 20
784.63011561
 42
0.27544312
  0
VERTEX
  8
0
 10
345.99886642
 20
797.08471570
 42
0.01260999
  0
VERTEX
  8
0
 10
337.07278134
 20
810.60936916
  0
VERTEX
  8
0
 10
327.33790644
 20
803.95405900
  0
VERTEX
  8
0
 10
323.91781414
 20
808.95677686
  0
VERTEX
  8
0
 10
333.56089822
 20
815.54927108
 42
0.01746398
  0
VERTEX
  8
0
 10
319.76142780
 20
833.24313384
  0
VERTEX
  8
0
 10
312.87291268
 20
825.21796876
  0
VERTEX
  8
0
 10
308.27434228
 20
829.16494574
  0
VERTEX
  8
0
 10
315.77826454
 20
837.90692600
 42
0.01130994
  0
VERTEX
  8
0
 10
305.98901932
 20
848.64970414
  0
VERTEX
  8
0
 10
302.91093726
 20
851.69653276
  0
VERTEX
  8
0
 10
298.02170704
 20
842.74477348
  0
VERTEX
  8
0
 10
292.70330358
 20
845.64953954
  0
VERTEX
  8
0
 10
298.21219304
 20
855.73616310
 42
0.06853895
  0
VERTEX
  8
0
 10
280.57208450
 20
866.11751274
  0
VERTEX
  8
0
 10
277.45245104
 20
855.33084404
  0
VERTEX
  8
0
 10
271.63114232
 20
857.01456656
  0
VERTEX
  8
0
 10
274.87400386
 20
868.22708358
 42
0.04743082
  0
VERTEX
  8
0
 10
261.01492324
 20
871.31533836
  0
VERTEX
  8
0
 10
254.65347662
 20
871.95709842
  0
VERTEX
  8
0
 10
253.90855314
 20
860.25120246
  0
VERTEX
  8
0
 10
247.86069738
 20
860.63611750
  0
VERTEX
  8
0
 10
248.60210606
 20
872.28415864
 42
0.02301988
  0
VERTEX
  8
0
 10
236.29562976
 20
872.10316866
 42
0.04445397
  0
VERTEX
  8
0
 10
227.30660552
 20
870.74841526
  0
VERTEX
  8
0
 10
229.20577922
 20
858.59229160
  0
VERTEX
  8
0
 10
223.21839822
 20
857.65678920
  0
VERTEX
  8
0
 10
221.45410396
 20
868.94932246
 42
0.09659694
  0
VERTEX
  8
0
 10
204.74274698
 20
858.68919908
  0
VERTEX
  8
0
 10
210.02280680
 20
843.68280088
  0
VERTEX
  8
0
 10
204.30641890
 20
841.67143234
  0
VERTEX
  8
0
 10
200.05140000
 20
853.76443100
 42
0.05155088
  0
VERTEX
  8
0
 10
194.17559572
 20
845.02053982
 42
0.03213792
  0
VERTEX
  8
0
 10
188.48152478
 20
837.25132490
 42
-0.19887428
  0
VERTEX
  8
0
 10
173.22956326
 20
826.59254038
 42
-0.12291007
  0
VERTEX
  8
0
 10
152.56413910
 20
827.15622744
 42
-0.21675455
  0
VERTEX
  8
0
 10
144.54385004
 20
833.89483046
 42
-0.21675455
  0
VERTEX
  8
0
 10
144.35308150
 20
844.36848382
  0
VERTEX
  8
0
 10
144.64207482
 20
845.03595040
  0
VERTEX
  8
0
 10
107.12622072
 20
856.24976224
  0
VERTEX
  8
0
 10
108.86178856
 20
862.05590682
  0
VERTEX
  8
0
 10
147.06720804
 20
850.63595196
  0
VERTEX
  8
0
 10
148.06857860
 20
852.94750462
 42
0.21320622
  0
VERTEX
  8
0
 10
147.98895686
 20
859.91025781
 42
0.21320622
  0
VERTEX
  8
0
 10
142.74992668
 20
864.49706874
  0
VERTEX
  8
0
 10
100.64752522
 20
877.69626586
 42
0.30486487
  0
VERTEX
  8
0
 10
85.41578390
 20
873.26284460
  0
VERTEX
  8
0
 10
60.73205858
 20
844.50616904
 42
-0.20681185
  0
VERTEX
  8
0
 10
54.37049225
 20
841.29713539
 42
-0.20681185
  0
VERTEX
  8
0
 10
47.67381504
 20
843.73063852
  0
VERTEX
  8
0
 10
31.88122072
 20
825.33232096
  0
VERTEX
  8
0
 10
27.28295938
 20
829.27929794
  0
VERTEX
  8
0
 10
44.34384706
 20
849.15541316
 42
0.21443302
  0
VERTEX
  8
0
 10
37.55731920
 20
853.77755829
 42
0.21443302
  0
VERTEX
  8
0
 10
29.59553012
 20
851.76979816
 42
0.07999187
  0
VERTEX
  8
0
 10
15.90529524
 20
836.82637144
 42
0.15322521
  0
VERTEX
  8
0
 10
12.05947784
 20
823.34693568
 42
-0.21638330
  0
VERTEX
  8
0
 10
8.85070582
 20
815.75874306
 42
0.41134662
  0
VERTEX
  8
0
 10
8.41296544
 20
806.19271841
 42
0.41134662
  0
VERTEX
  8
0
 10
17.97424186
 20
805.66127008
  0
VERTEX
  8
0
 10
23.33592180
 20
810.41105566
 42
-0.30877501
  0
VERTEX
  8
0
 10
31.61208497
 20
811.45939604
 42
-0.30877501
  0
VERTEX
  8
0
 10
35.60313132
 20
804.13372588
  0
VERTEX
  8
0
 10
34.94414066
 20
797.57353348
 42
0.38935724
  0
VERTEX
  8
0
 10
46.03231658
 20
782.75737484
  0
SEQEND
  0
POLYLINE
  8
CYAN
 66
   1
 39
0.000000
 70
    1
  0
VERTEX
  8
0
 10
209.70496384
 20
234.20437704
 42
-0.20517912
  0
VERTEX
  8
0
 10
309.77596584
 20
219.68937212
 42
0.14186507
  0
VERTEX
  8
0
 10
354.54145248
 20
207.44783680
 42
0.41050569
  0
VERTEX
  8
0
 10
361.32358799
 20
214.34719283
 42
0.41050569
  0
VERTEX
  8
0
 10
354.51075454
 20
221.21623760
 42
-0.09280999
  0
VERTEX
  8
0
 10
323.45855502
 20
227.36695782
 42
0.00980802
  0
VERTEX
  8
0
 10
279.32320738
 20
244.03093974
 42
0.08589002
  0
VERTEX
  8
0
 10
248.01511830
 20
249.40659000
 42
0.03740301
  0
VERTEX
  8
0
 10
213.77516890
 20
246.79631166
 42
-0.25142652
  0
VERTEX
  8
0
 10
210.55879482
 20
247.94048030
 42
-0.25142652
  0
VERTEX
  8
0
 10
209.73492246
 20
251.25339722
 42
0.10944068
  0
VERTEX
  8
0
 10
209.86647496
 20
255.50555782
 42
0.10944104
  0
VERTEX
  8
0
 10
208.18971538
 20
259.41540114
 42
-0.25142976
  0
VERTEX
  8
0
 10
207.74539319
 20
262.80012415
 42
-0.25142976
  0
VERTEX
  8
0
 10
210.32080124
 20
265.04089308
 42
0.03740301
  0
VERTEX
  8
0
 10
243.14499930
 20
275.12838726
 42
0.08589018
  0
VERTEX
  8
0
 10
270.32086730
 20
291.57738866
 42
0.00980802
  0
VERTEX
  8
0
 10
305.30950142
 20
323.22251272
 42
-0.09280998
  0
VERTEX
  8
0
 10
331.96378522
 20
340.29928164
 42
0.41050105
  0
VERTEX
  8
0
 10
335.79394509
 20
349.18333405
 42
0.41050105
  0
VERTEX
  8
0
 10
326.95921906
 20
353.12593824
 42
0.14186499
  0
VERTEX
  8
0
 10
289.76712854
 20
325.36672454
 42
-0.20519613
  0
VERTEX
  8
0
 10
201.92036864
 20
275.27245972
  0
VERTEX
  8
0
 10
130.11124118
 20
261.67595082
 42
0.30023429
  0
VERTEX
  8
0
 10
120.53029634
 20
252.37681012
 42
0.07439907
  0
VERTEX
  8
0
 10
119.78685150
 20
241.53391270
  0
VERTEX
  8
0
 10
143.60100520
 20
246.04281934
  0
VERTEX
  8
0
 10
144.72837932
 20
240.08866330
  0
VERTEX
  8
0
 10
120.91422562
 20
235.57975666
 42
0.07439806
  0
VERTEX
  8
0
 10
125.56981658
 20
225.75920346
 42
0.30023795
  0
VERTEX
  8
0
 10
137.88745338
 20
220.60624002
  0
VERTEX
  8
0
 10
209.70496384
 20
234.20437704
  0
SEQEND
  0
POLYLINE
  8
CYAN
 66
   1
 39
0.000000
 70
    1
  0
VERTEX
  8
0
 10
382.85634394
 20
1050.74821348
  0
VERTEX
  8
0
 10
380.85465322
 20
1044.02509192
 42
0.25292132
  0
VERTEX
  8
0
 10
382.66592258
 20
1035.36130990
  0
VERTEX
  8
0
 10
398.98015968
 20
1050.20523950
  0
VERTEX
  8
0
 10
403.02589244
 20
1045.75881146
  0
VERTEX
  8
0
 10
386.07837120
 20
1030.33880412
 42
0.15288818
  0
VERTEX
  8
0
 10
407.82955546
 20
1016.14813040
  0
VERTEX
  8
0
 10
416.63352144
 20
1043.24527698
  0
VERTEX
  8
0
 10
422.35083450
 20
1041.38765064
  0
VERTEX
  8
0
 10
413.85090478
 20
1015.22609938
 42
0.37564757
  0
VERTEX
  8
0
 10
429.24723974
 20
1021.64450596
 42
0.11395995
  0
VERTEX
  8
0
 10
434.01367012
 20
1041.98154276
 42
-0.22415578
  0
VERTEX
  8
0
 10
437.88389425
 20
1050.11174627
 42
-0.22415578
  0
VERTEX
  8
0
 10
446.62054668
 20
1052.29113796
  0
VERTEX
  8
0
 10
464.22619604
 20
1048.78498760
 42
0.36831989
  0
VERTEX
  8
0
 10
470.21406992
 20
1052.12833202
 42
0.04045892
  0
VERTEX
  8
0
 10
472.03785318
 20
1058.46265408
  0
VERTEX
  8
0
 10
447.07573752
 20
1063.18026308
  0
VERTEX
  8
0
 10
448.20107548
 20
1069.13478676
  0
VERTEX
  8
0
 10
472.79486030
 20
1064.48690008
 42
0.02926196
  0
VERTEX
  8
0
 10
472.75682370
 20
1069.25764720
 42
0.34260981
  0
VERTEX
  8
0
 10
466.25476488
 20
1076.51954922
 42
-0.21114677
  0
VERTEX
  8
0
 10
448.95882192
 20
1088.26591588
  0
VERTEX
  8
0
 10
418.10204124
 20
1073.68145124
  0
VERTEX
  8
0
 10
415.53314866
 20
1079.11630366
  0
VERTEX
  8
0
 10
446.38993136
 20
1093.70083092
 42
-0.21114612
  0
VERTEX
  8
0
 10
448.29298952
 20
1114.52153854
 42
0.34385740
  0
VERTEX
  8
0
 10
446.78335262
 20
1124.17984938
 42
0.02904404
  0
VERTEX
  8
0
 10
443.14694660
 20
1127.21342478
  0
VERTEX
  8
0
 10
431.12668814
 20
1105.25961028
  0
VERTEX
  8
0
 10
425.81124196
 20
1108.16995558
  0
VERTEX
  8
0
 10
438.01169048
 20
1130.45258770
 42
0.04066403
  0
VERTEX
  8
0
 10
431.92801810
 20
1133.07492544
 42
0.36653164
  0
VERTEX
  8
0
 10
425.57520294
 20
1130.55991232
  0
VERTEX
  8
0
 10
417.10813054
 20
1114.73057824
 42
-0.22415395
  0
VERTEX
  8
0
 10
409.87833705
 20
1109.36335578
 42
-0.22415395
  0
VERTEX
  8
0
 10
401.13953968
 20
1111.53370402
 42
0.11396009
  0
VERTEX
  8
0
 10
382.39992090
 20
1120.76043378
 42
0.37564491
  0
VERTEX
  8
0
 10
367.66695394
 20
1112.93823628
  0
VERTEX
  8
0
 10
388.49284084
 20
1104.77464464
  0
VERTEX
  8
0
 10
386.29893904
 20
1099.17766298
  0
VERTEX
  8
0
 10
364.55730736
 20
1107.70052576
 42
0.15288776
  0
VERTEX
  8
0
 10
361.71470882
 20
1081.88572972
  0
VERTEX
  8
0
 10
389.47263376
 20
1085.93380366
  0
VERTEX
  8
0
 10
390.34004802
 20
1079.98532180
  0
VERTEX
  8
0
 10
363.42925654
 20
1076.06065976
 42
0.25292568
  0
VERTEX
  8
0
 10
368.97402322
 20
1069.16123260
  0
VERTEX
  8
0
 10
375.43958872
 20
1066.44013908
 42
-0.38263548
  0
VERTEX
  8
0
 10
382.85634394
 20
1050.74821348
  0
SEQEND
  0
POLYLINE
  8
CYAN
 66
   1
 39
0.000000
 70
    1
  0
VERTEX
  8
0
 10
289.45113388
 20
1004.40965386
  0
VERTEX
  8
0
 10
289.96766000
 20
1056.44727786
  0
VERTEX
  8
0
 10
300.91460762
 20
1057.93737328
  0
VERTEX
  8
0
 10
305.50313054
 20
1033.17955234
  0
VERTEX
  8
0
 10
311.46172250
 20
1034.28386816
  0
VERTEX
  8
0
 10
302.20065678
 20
1084.25260816
 42
0.10592392
  0
VERTEX
  8
0
 10
295.47673530
 20
1101.03886472
 42
-0.27400682
  0
VERTEX
  8
0
 10
294.96421484
 20
1109.99182590
 42
-0.07912476
  0
VERTEX
  8
0
 10
309.06334216
 20
1129.10181168
 42
-0.24828672
  0
VERTEX
  8
0
 10
316.71244182
 20
1131.38855066
  0
VERTEX
  8
0
 10
331.05808994
 20
1128.53695302
 42
0.13926664
  0
VERTEX
  8
0
 10
337.91270138
 20
1129.09003710
  0
VERTEX
  8
0
 10
346.57038098
 20
1132.32198660
 42
-0.28364827
  0
VERTEX
  8
0
 10
350.62167253
 20
1131.51976130
 42
-0.28364827
  0
VERTEX
  8
0
 10
351.72228190
 20
1127.53915988
 42
-0.16818020
  0
VERTEX
  8
0
 10
340.96446082
 20
1112.34976786
 42
-0.37204187
  0
VERTEX
  8
0
 10
336.82410318
 20
1112.72771592
  0
VERTEX
  8
0
 10
332.93112686
 20
1116.76352442
 42
0.14412421
  0
VERTEX
  8
0
 10
328.03098662
 20
1119.55039520
 42
0.21655232
  0
VERTEX
  8
0
 10
317.78828908
 20
1117.52008776
 42
0.21655232
  0
VERTEX
  8
0
 10
312.58108126
 20
1108.46912162
 42
0.07381499
  0
VERTEX
  8
0
 10
312.91174920
 20
1102.08973538
 42
0.15019406
  0
VERTEX
  8
0
 10
322.77392046
 20
1083.92187962
 42
0.40864795
  0
VERTEX
  8
0
 10
337.60361108
 20
1083.93038786
 42
-0.39619222
  0
VERTEX
  8
0
 10
344.92453063
 20
1084.09152961
 42
-0.39619222
  0
VERTEX
  8
0
 10
345.53837308
 20
1076.79461060
 42
0.07835300
  0
VERTEX
  8
0
 10
335.92709996
 20
1059.77644390
 42
0.35139488
  0
VERTEX
  8
0
 10
347.78294860
 20
1023.77269312
  0
VERTEX
  8
0
 10
352.17555980
 20
1020.91462340
 42
-0.34502616
  0
VERTEX
  8
0
 10
356.95906476
 20
1006.92530392
 42
-0.34502616
  0
VERTEX
  8
0
 10
344.52251710
 20
998.93060182
 42
0.00729702
  0
VERTEX
  8
0
 10
293.05794892
 20
1002.98163708
 42
-0.15781277
  0
VERTEX
  8
0
 10
289.45113388
 20
1004.40965386
  0
SEQEND
  0
POLYLINE
  8
CYAN
 66
   1
 39
0.000000
 70
    1
  0
VERTEX
  8
0
 10
163.21118136
 20
872.16348788
 42
0.10592409
  0
VERTEX
  8
0
 10
155.03069848
 20
888.29004678
  0
VERTEX
  8
0
 10
123.58421516
 20
928.21216932
  0
VERTEX
  8
0
 10
118.82382660
 20
924.46233424
  0
VERTEX
  8
0
 10
134.40448252
 20
904.68220336
  0
VERTEX
  8
0
 10
126.06322784
 20
897.43762284
  0
VERTEX
  8
0
 10
86.61219960
 20
931.37581656
 42
-0.15781265
  0
VERTEX
  8
0
 10
87.91809728
 20
935.02862094
 42
0.00729712
  0
VERTEX
  8
0
 10
118.82209950
 20
976.38092166
 42
-0.34502564
  0
VERTEX
  8
0
 10
133.03448123
 20
980.45396936
 42
-0.34502564
  0
VERTEX
  8
0
 10
140.39284928
 20
967.63071192
  0
VERTEX
  8
0
 10
139.64348786
 20
962.44391954
 42
0.35139314
  0
VERTEX
  8
0
 10
158.88231126
 20
929.78369902
 42
0.07835290
  0
VERTEX
  8
0
 10
178.01288488
 20
925.78136394
 42
-0.39618721
  0
VERTEX
  8
0
 10
183.09207097
 20
920.50664347
 42
-0.39618721
  0
VERTEX
  8
0
 10
178.14184572
 20
915.11071192
 42
0.40864919
  0
VERTEX
  8
0
 10
168.35303278
 20
903.97069068
 42
0.15019385
  0
VERTEX
  8
0
 10
175.50206326
 20
884.57411538
 42
0.07381469
  0
VERTEX
  8
0
 10
180.07850254
 20
880.11751664
 42
0.21655370
  0
VERTEX
  8
0
 10
190.31601343
 20
878.06069075
 42
0.21655370
  0
VERTEX
  8
0
 10
198.59853924
 20
884.41969446
 42
0.14412276
  0
VERTEX
  8
0
 10
199.73614466
 20
889.94078876
  0
VERTEX
  8
0
 10
199.27109016
 20
895.52876930
 42
-0.37204433
  0
VERTEX
  8
0
 10
201.71817068
 20
898.88986750
 42
-0.16818041
  0
VERTEX
  8
0
 10
220.23056370
 20
896.95573972
 42
-0.28364366
  0
VERTEX
  8
0
 10
222.49624142
 20
893.50266823
 42
-0.28364366
  0
VERTEX
  8
0
 10
220.42671984
 20
889.92858392
  0
VERTEX
  8
0
 10
212.28667736
 20
885.55372448
 42
0.13926608
  0
VERTEX
  8
0
 10
207.34924186
 20
880.76676686
  0
VERTEX
  8
0
 10
200.02945472
 20
868.10379288
 42
-0.24828814
  0
VERTEX
  8
0
 10
193.26521606
 20
863.86335232
 42
-0.07912505
  0
VERTEX
  8
0
 10
169.60209372
 20
865.87253320
 42
-0.27400741
  0
VERTEX
  8
0
 10
163.21118136
 20
872.16348788
  0
SEQEND
  0
POLYLINE
  8
CYAN
 66
   1
 39
0.000000
 70
    1
  0
VERTEX
  8
0
 10
436.28129990
 20
454.95613198
  0
VERTEX
  8
0
 10
341.52284740
 20
397.58532014
 42
-0.31138814
  0
VERTEX
  8
0
 10
319.40975042
 20
398.87095468
 42
-0.31138814
  0
VERTEX
  8
0
 10
312.75313476
 20
419.99751102
 42
-0.17759792
  0
VERTEX
  8
0
 10
365.53364810
 20
489.41748752
 42
-0.31177328
  0
VERTEX
  8
0
 10
403.65405992
 20
488.07344618
  0
VERTEX
  8
0
 10
410.99684072
 20
482.60979664
 42
0.25844059
  0
VERTEX
  8
0
 10
419.10120217
 20
481.51833531
 42
0.25844059
  0
VERTEX
  8
0
 10
424.32564710
 20
487.80937158
  0
VERTEX
  8
0
 10
425.13585496
 20
492.08516618
 42
-0.12831442
  0
VERTEX
  8
0
 10
427.07590134
 20
496.17996878
  0
VERTEX
  8
0
 10
431.88122884
 20
501.91173696
 42
-0.39740229
  0
VERTEX
  8
0
 10
444.11305402
 20
503.34758528
  0
VERTEX
  8
0
 10
476.26987842
 20
479.42144480
 42
-0.34193898
  0
VERTEX
  8
0
 10
478.98086386
 20
469.70834752
  0
VERTEX
  8
0
 10
478.58337230
 20
468.48989362
 42
-0.15530848
  0
VERTEX
  8
0
 10
471.17512330
 20
456.46061384
 42
-0.27940013
  0
VERTEX
  8
0
 10
458.50524698
 20
454.34128640
  0
VERTEX
  8
0
 10
453.42528634
 20
456.36541730
 42
0.23476801
  0
VERTEX
  8
0
 10
436.28129990
 20
454.95613198
  0
SEQEND
  0
POLYLINE
  8
CYAN
 66
   1
 39
0.000000
 70
    1
  0
VERTEX
  8
0
 10
348.61966290
 20
413.30872340
 42
-0.21436625
  0
VERTEX
  8
0
 10
339.12994762
 20
406.69973209
 42
-0.21436625
  0
VERTEX
  8
0
 10
327.88712868
 20
409.40758818
 42
-0.21436625
  0
VERTEX
  8
0
 10
322.44706400
 20
419.61244773
 42
-0.21436625
  0
VERTEX
  8
0
 10
326.46580780
 20
430.45602466
  0
VERTEX
  8
0
 10
348.61966290
 20
413.30872340
  0
SEQEND
  0
POLYLINE
  8
CYAN
 66
   1
 39
0.000000
 70
    1
  0
VERTEX
  8
0
 10
358.99491012
 20
421.74560084
 42
-0.31257846
  0
VERTEX
  8
0
 10
349.52215244
 20
425.97816542
 42
-0.10072719
  0
VERTEX
  8
0
 10
347.84046406
 20
430.67349584
 42
-0.41241639
  0
VERTEX
  8
0
 10
352.03661208
 20
436.31895346
 42
0.02663205
  0
VERTEX
  8
0
 10
377.22126710
 20
441.49041000
 42
-0.33220462
  0
VERTEX
  8
0
 10
382.06399884
 20
439.52405833
 42
-0.33220462
  0
VERTEX
  8
0
 10
381.55340556
 20
434.32233900
 42
-0.16285692
  0
VERTEX
  8
0
 10
358.99491012
 20
421.74560084
  0
SEQEND
  0
POLYLINE
  8
CYAN
 66
   1
 39
0.000000
 70
    1
  0
VERTEX
  8
0
 10
343.86648574
 20
442.74696110
 42
-0.39186076
  0
VERTEX
  8
0
 10
337.51665007
 20
447.14997577
 42
-0.39186076
  0
VERTEX
  8
0
 10
341.41872650
 20
453.81936486
 42
-0.04807997
  0
VERTEX
  8
0
 10
371.57157960
 20
459.88170806
 42
-0.37298481
  0
VERTEX
  8
0
 10
376.61132164
 20
456.34678637
 42
-0.37298481
  0
VERTEX
  8
0
 10
373.82953156
 20
450.85530978
 42
-0.06189719
  0
VERTEX
  8
0
 10
343.86648574
 20
442.74696110
  0
SEQEND
  0
POLYLINE
  8
CYAN
 66
   1
 39
0.000000
 70
    1
  0
VERTEX
  8
0
 10
370.80600364
 20
468.12818838
 42
0.26976977
  0
VERTEX
  8
0
 10
375.85175154
 20
466.57798180
 42
0.03753595
  0
VERTEX
  8
0
 10
396.92070504
 20
473.18654108
 42
0.30071571
  0
VERTEX
  8
0
 10
399.61993251
 20
477.06851323
 42
0.30071571
  0
VERTEX
  8
0
 10
397.10490278
 20
481.07228172
 42
0.18768674
  0
VERTEX
  8
0
 10
369.88052044
 20
482.56091264
 42
0.33752657
  0
VERTEX
  8
0
 10
366.69597428
 20
477.93905568
 42
0.17628843
  0
VERTEX
  8
0
 10
370.80600364
 20
468.12818838
  0
SEQEND
  0
POLYLINE
  8
CYAN
 66
   1
 39
0.000000
 70
    1
  0
VERTEX
  8
0
 10
395.52381848
 20
447.62094032
 42
-0.38237555
  0
VERTEX
  8
0
 10
387.86923452
 20
450.77273622
  0
VERTEX
  8
0
 10
386.88278368
 20
452.81609954
 42
-0.20511859
  0
VERTEX
  8
0
 10
386.69200850
 20
457.04102949
 42
-0.20511859
  0
VERTEX
  8
0
 10
389.61824142
 20
460.09448476
 42
-0.06172403
  0
VERTEX
  8
0
 10
414.11758316
 20
467.10636128
 42
-0.35040917
  0
VERTEX
  8
0
 10
419.11020300
 20
464.25686831
 42
-0.35040917
  0
VERTEX
  8
0
 10
417.43343336
 20
458.75829516
 42
-0.06531187
  0
VERTEX
  8
0
 10
395.52381848
 20
447.62094032
  0
SEQEND
  0
POLYLINE
  8
CYAN
 66
   1
 39
0.000000
 70
    1
  0
VERTEX
  8
0
 10
162.43826876
 20
971.28339308
  0
VERTEX
  8
0
 10
161.91193958
 20
967.39615154
 42
0.35554097
  0
VERTEX
  8
0
 10
167.85234750
 20
957.67798204
  0
VERTEX
  8
0
 10
180.71665690
 20
973.98981534
  0
VERTEX
  8
0
 10
185.47482548
 20
970.23714620
  0
VERTEX
  8
0
 10
172.76586418
 20
954.12233158
 42
0.02986806
  0
VERTEX
  8
0
 10
178.28584950
 20
951.53630334
 42
0.29121397
  0
VERTEX
  8
0
 10
189.19266578
 20
953.61529744
  0
VERTEX
  8
0
 10
190.81678012
 20
955.14385972
 42
-0.24484348
  0
VERTEX
  8
0
 10
196.61776632
 20
956.77980705
 42
-0.24484348
  0
VERTEX
  8
0
 10
201.28307682
 20
952.96370402
  0
VERTEX
  8
0
 10
204.16081326
 20
946.25013908
 42
0.28053088
  0
VERTEX
  8
0
 10
219.13537020
 20
935.58571270
 42
0.03045009
  0
VERTEX
  8
0
 10
259.35567302
 20
935.14445380
 42
0.35131199
  0
VERTEX
  8
0
 10
272.25185196
 20
946.58376430
  0
VERTEX
  8
0
 10
273.98970038
 20
956.73745792
 42
-0.27054124
  0
VERTEX
  8
0
 10
280.05832982
 20
963.97260504
  0
VERTEX
  8
0
 10
293.76724364
 20
968.89019202
 42
0.32896726
  0
VERTEX
  8
0
 10
301.04111370
 20
979.73650199
 42
0.32896726
  0
VERTEX
  8
0
 10
292.82406726
 20
989.88695880
 42
0.02239798
  0
VERTEX
  8
0
 10
248.23636486
 20
999.38357268
 42
-0.32133227
  0
VERTEX
  8
0
 10
243.49871735
 20
1004.13533049
 42
-0.32133227
  0
VERTEX
  8
0
 10
246.47601566
 20
1010.14866576
  0
VERTEX
  8
0
 10
250.50929512
 20
1012.29608736
 42
0.25779002
  0
VERTEX
  8
0
 10
253.48991824
 20
1016.87579500
 42
0.09066794
  0
VERTEX
  8
0
 10
252.19862920
 20
1028.73386160
  0
VERTEX
  8
0
 10
222.28804480
 20
1011.64597460
  0
VERTEX
  8
0
 10
216.27588042
 20
1022.16960294
  0
VERTEX
  8
0
 10
246.66853378
 20
1039.53304622
 42
0.03589904
  0
VERTEX
  8
0
 10
243.50050920
 20
1043.07988140
 42
0.31683578
  0
VERTEX
  8
0
 10
230.35411286
 20
1045.15215698
 42
0.07907203
  0
VERTEX
  8
0
 10
199.80469336
 20
1023.56618044
 42
0.22417239
  0
VERTEX
  8
0
 10
195.98970116
 20
1013.33160804
  0
VERTEX
  8
0
 10
196.70898074
 20
1004.81657680
 42
-0.23563724
  0
VERTEX
  8
0
 10
193.30092658
 20
996.24872974
 42
-0.23563724
  0
VERTEX
  8
0
 10
184.40576876
 20
993.81994324
  0
VERTEX
  8
0
 10
175.03380302
 20
995.68348616
 42
0.24015133
  0
VERTEX
  8
0
 10
165.20252837
 20
992.90861357
 42
0.24015133
  0
VERTEX
  8
0
 10
161.67140000
 20
983.32294658
  0
VERTEX
  8
0
 10
162.48055948
 20
976.52301452
 42
-0.06333115
  0
VERTEX
  8
0
 10
162.43826876
 20
971.28339308
  0
SEQEND
  0
POLYLINE
  8
CYAN
 66
   1
 39
0.000000
 70
    1
  0
VERTEX
  8
0
 10
356.92596350
 20
902.16749728
 42
-0.32896842
  0
VERTEX
  8
0
 10
345.29379762
 20
908.10390335
 42
-0.32896842
  0
VERTEX
  8
0
 10
347.53359172
 20
920.96980878
 42
-0.02239800
  0
VERTEX
  8
0
 10
381.86638032
 20
950.96176686
 42
0.32133076
  0
VERTEX
  8
0
 10
383.69321987
 20
957.41827189
 42
0.32133076
  0
VERTEX
  8
0
 10
378.16623118
 20
961.22303154
  0
VERTEX
  8
0
 10
373.59780524
 20
961.13660382
 42
-0.25778771
  0
VERTEX
  8
0
 10
368.76535318
 20
963.68724772
 42
-0.09066804
  0
VERTEX
  8
0
 10
364.12356892
 20
974.67549828
  0
VERTEX
  8
0
 10
398.56929168
 20
974.30026308
  0
VERTEX
  8
0
 10
398.70133706
 20
986.41952174
  0
VERTEX
  8
0
 10
363.70049608
 20
986.80073816
 42
-0.03589892
  0
VERTEX
  8
0
 10
364.74224442
 20
991.44073472
 42
-0.31683615
  0
VERTEX
  8
0
 10
375.21920672
 20
999.64778666
 42
-0.07907198
  0
VERTEX
  8
0
 10
412.41172952
 20
995.65414364
 42
-0.22417157
  0
VERTEX
  8
0
 10
420.72431636
 20
988.56904010
  0
VERTEX
  8
0
 10
424.23928200
 20
980.78000696
 42
0.23563749
  0
VERTEX
  8
0
 10
431.38547156
 20
974.95303066
 42
0.23563749
  0
VERTEX
  8
0
 10
440.33837698
 20
977.15919534
  0
VERTEX
  8
0
 10
447.61951142
 20
983.34760472
 42
-0.24015088
  0
VERTEX
  8
0
 10
457.55864667
 20
985.70693086
 42
-0.24015088
  0
VERTEX
  8
0
 10
465.30764344
 20
979.05066476
  0
VERTEX
  8
0
 10
467.90939132
 20
972.71621948
 42
0.06333090
  0
VERTEX
  8
0
 10
470.49579124
 20
968.15919846
  0
VERTEX
  8
0
 10
472.84695004
 20
965.01928420
 42
-0.35554106
  0
VERTEX
  8
0
 10
472.38602644
 20
953.63866076
  0
VERTEX
  8
0
 10
453.21026744
 20
961.62995246
  0
VERTEX
  8
0
 10
450.87920360
 20
956.03623916
  0
VERTEX
  8
0
 10
469.82329890
 20
948.14154588
 42
-0.02986801
  0
VERTEX
  8
0
 10
466.25901900
 20
943.19634348
 42
-0.29121613
  0
VERTEX
  8
0
 10
455.71880646
 20
939.70560572
  0
VERTEX
  8
0
 10
453.55622072
 20
940.25079766
 42
0.24484395
  0
VERTEX
  8
0
 10
447.69223452
 20
938.85748658
 42
0.24484395
  0
VERTEX
  8
0
 10
445.47320082
 20
933.25360048
  0
VERTEX
  8
0
 10
446.22583060
 20
925.98824628
 42
-0.28053161
  0
VERTEX
  8
0
 10
438.33261596
 20
909.38501586
 42
-0.03044993
  0
VERTEX
  8
0
 10
403.40901776
 20
889.42950050
 42
-0.35131115
  0
VERTEX
  8
0
 10
386.57646684
 20
893.14832858
  0
VERTEX
  8
0
 10
380.11780368
 20
901.17352598
 42
0.27053985
  0
VERTEX
  8
0
 10
371.29528400
 20
904.54158914
  0
VERTEX
  8
0
 10
356.92596350
 20
902.16749728
  0
SEQEND
  0
POLYLINE
  8
CYAN
 66
   1
 39
0.000000
 70
    1
  0
VERTEX
  8
0
 10
195.17523918
 20
1122.01621526
 42
0.09468021
  0
VERTEX
  8
0
 10
237.98502444
 20
1123.99996636
  0
VERTEX
  8
0
 10
261.72557338
 20
1129.68676530
 42
-0.21467567
  0
VERTEX
  8
0
 10
268.36668418
 20
1128.42467950
 42
-0.21467567
  0
VERTEX
  8
0
 10
271.82557338
 20
1122.61664208
  0
VERTEX
  8
0
 10
276.39239544
 20
1082.79629522
 42
-0.39739807
  0
VERTEX
  8
0
 10
269.01416768
 20
1072.93498650
  0
VERTEX
  8
0
 10
262.60038488
 20
1071.81938696
 42
-0.20371325
  0
VERTEX
  8
0
 10
255.98643864
 20
1073.36605497
 42
-0.20371325
  0
VERTEX
  8
0
 10
252.51043236
 20
1079.20162240
  0
VERTEX
  8
0
 10
251.04376288
 20
1089.97577720
 42
0.27146516
  0
VERTEX
  8
0
 10
246.32343725
 20
1095.98997176
 42
0.27146516
  0
VERTEX
  8
0
 10
238.76964900
 20
1094.81001696
 42
-0.06239003
  0
VERTEX
  8
0
 10
150.09646872
 20
1039.15565164
 42
-0.20720911
  0
VERTEX
  8
0
 10
102.70426498
 20
1037.86460904
 42
-0.04451900
  0
VERTEX
  8
0
 10
24.45836308
 20
1077.64778588
 42
-0.30134591
  0
VERTEX
  8
0
 10
12.62951508
 20
1103.71062333
 42
-0.30134591
  0
VERTEX
  8
0
 10
32.02793736
 20
1124.75567866
 42
-0.06795901
  0
VERTEX
  8
0
 10
55.43560040
 20
1128.94942288
 42
-0.04552701
  0
VERTEX
  8
0
 10
166.85467758
 20
1126.07902308
  0
VERTEX
  8
0
 10
195.17523918
 20
1122.01621526
  0
SEQEND
  0
POLYLINE
  8
CYAN
 66
   1
 39
0.000000
 70
    1
  0
VERTEX
  8
0
 10
112.35918626
 20
1044.18167222
  0
VERTEX
  8
0
 10
115.95299452
 20
1043.70681668
 42
0.11896931
  0
VERTEX
  8
0
 10
126.29735796
 20
1044.80201018
 42
0.03135206
  0
VERTEX
  8
0
 10
155.44939600
 20
1057.29928154
 42
0.39732666
  0
VERTEX
  8
0
 10
158.46300829
 20
1065.63988036
 42
0.39732666
  0
VERTEX
  8
0
 10
150.31111796
 20
1069.13189008
 42
-0.02866679
  0
VERTEX
  8
0
 10
111.65926232
 20
1057.41351052
 42
0.36123861
  0
VERTEX
  8
0
 10
106.51202571
 20
1050.50680631
 42
0.36123861
  0
VERTEX
  8
0
 10
112.35918626
 20
1044.18167222
  0
SEQEND
  0
POLYLINE
  8
CYAN
 66
   1
 39
0.000000
 70
    1
  0
VERTEX
  8
0
 10
39.01175810
 20
1094.46486360
 42
0.29767695
  0
VERTEX
  8
0
 10
34.16355458
 20
1093.59402708
 42
0.29767695
  0
VERTEX
  8
0
 10
33.01290956
 20
1088.80451252
 42
0.17239345
  0
VERTEX
  8
0
 10
38.39813866
 20
1082.20320302
 42
0.05114191
  0
VERTEX
  8
0
 10
75.97563710
 20
1064.38000774
 42
0.24169403
  0
VERTEX
  8
0
 10
81.51358223
 20
1065.12425426
 42
0.24169403
  0
VERTEX
  8
0
 10
84.13651588
 20
1070.05811260
  0
VERTEX
  8
0
 10
84.22614732
 20
1076.32857034
 42
0.36930006
  0
VERTEX
  8
0
 10
78.88037286
 20
1082.76337528
 42
-0.05777487
  0
VERTEX
  8
0
 10
39.01175810
 20
1094.46486360
  0
SEQEND
  0
POLYLINE
  8
CYAN
 66
   1
 39
0.000000
 70
    1
  0
VERTEX
  8
0
 10
20.16709528
 20
668.68667800
 42
0.37387173
  0
VERTEX
  8
0
 10
10.98605709
 20
660.20706191
 42
0.37387173
  0
VERTEX
  8
0
 10
18.10492980
 20
649.93491498
 42
0.07183412
  0
VERTEX
  8
0
 10
56.82077500
 20
645.82442506
 42
0.30509462
  0
VERTEX
  8
0
 10
61.10938330
 20
648.95064880
 42
0.30509462
  0
VERTEX
  8
0
 10
59.82932260
 20
654.10107408
 42
0.19364396
  0
VERTEX
  8
0
 10
20.16709528
 20
668.68667800
  0
SEQEND
  0
POLYLINE
  8
CYAN
 66
   1
 39
0.000000
 70
    1
  0
VERTEX
  8
0
 10
59.73229190
 20
591.72673032
 42
0.30509815
  0
VERTEX
  8
0
 10
61.02835026
 20
596.87320495
 42
0.30509815
  0
VERTEX
  8
0
 10
56.74938820
 20
600.01270366
 42
0.07183406
  0
VERTEX
  8
0
 10
18.02096850
 20
596.02279158
 42
0.37387182
  0
VERTEX
  8
0
 10
10.87009943
 20
585.77285344
 42
0.37387182
  0
VERTEX
  8
0
 10
20.02469336
 20
577.26464738
 42
0.19364405
  0
VERTEX
  8
0
 10
59.73229190
 20
591.72673032
  0
SEQEND
  0
POLYLINE
  8
CYAN
 66
   1
 39
0.000000
 70
    1
  0
VERTEX
  8
0
 10
22.55746228
 20
917.58886206
 42
0.21436611
  0
VERTEX
  8
0
 10
20.37769310
 20
906.23171226
 42
0.21436611
  0
VERTEX
  8
0
 10
27.42280497
 20
897.06096290
 42
0.21436611
  0
VERTEX
  8
0
 10
38.95806020
 20
896.23990753
 42
0.21436611
  0
VERTEX
  8
0
 10
47.23107548
 20
904.32034460
  0
VERTEX
  8
0
 10
22.55746228
 20
917.58886206
  0
SEQEND
  0
POLYLINE
  8
CYAN
 66
   1
 39
0.000000
 70
    1
  0
VERTEX
  8
0
 10
51.38536708
 20
925.21533570
 42
0.39185450
  0
VERTEX
  8
0
 10
57.98969648
 20
921.20430933
 42
0.39185450
  0
VERTEX
  8
0
 10
62.49647606
 20
927.48080812
 42
0.04807998
  0
VERTEX
  8
0
 10
55.77563710
 20
957.49372370
 42
0.37298228
  0
VERTEX
  8
0
 10
50.49699624
 20
960.66083255
 42
0.37298228
  0
VERTEX
  8
0
 10
46.61092134
 20
955.88662584
 42
0.06189705
  0
VERTEX
  8
0
 10
51.38536708
 20
925.21533570
  0
SEQEND
  0
POLYLINE
  8
CYAN
 66
   1
 39
0.000000
 70
    1
  0
VERTEX
  8
0
 10
63.29614154
 20
964.58887674
 42
0.17628874
  0
VERTEX
  8
0
 10
73.93073252
 20
964.82269780
 42
0.33753515
  0
VERTEX
  8
0
 10
76.85852456
 20
969.61125930
 42
0.18768680
  0
VERTEX
  8
0
 10
64.42967868
 20
993.87869090
 42
0.30072225
  0
VERTEX
  8
0
 10
59.74910631
 20
994.54871846
 42
0.30072225
  0
VERTEX
  8
0
 10
57.29988264
 20
990.50421626
 42
0.03753599
  0
VERTEX
  8
0
 10
59.82858126
 20
968.56827876
 42
0.26977343
  0
VERTEX
  8
0
 10
63.29614154
 20
964.58887674
  0
SEQEND
  0
POLYLINE
  8
CYAN
 66
   1
 39
0.000000
 70
    1
  0
VERTEX
  8
0
 10
40.82721694
 20
968.67998072
  0
VERTEX
  8
0
 10
43.09503256
 20
968.60951908
 42
0.20512105
  0
VERTEX
  8
0
 10
47.03265086
 20
970.15294732
 42
0.20512105
  0
VERTEX
  8
0
 10
48.63264844
 20
974.06792066
 42
0.06172400
  0
VERTEX
  8
0
 10
45.07792112
 20
999.30183136
 42
0.35041393
  0
VERTEX
  8
0
 10
40.44452004
 20
1002.70474788
 42
0.35041393
  0
VERTEX
  8
0
 10
36.10258238
 20
998.93701330
 42
0.06531204
  0
VERTEX
  8
0
 10
34.83552122
 20
974.39186806
 42
0.38237714
  0
VERTEX
  8
0
 10
40.82721694
 20
968.67998072
  0
SEQEND
  0
POLYLINE
  8
CYAN
 66
   1
 39
0.000000
 70
    1
  0
VERTEX
  8
0
 10
169.02164066
 20
1082.02665098
 42
0.41022331
  0
VERTEX
  8
0
 10
164.27502259
 20
1069.94688859
 42
0.41022331
  0
VERTEX
  8
0
 10
176.28890578
 20
1065.03591588
 42
0.05736097
  0
VERTEX
  8
0
 10
212.22379880
 20
1084.90660538
 42
0.35161353
  0
VERTEX
  8
0
 10
213.97847754
 20
1091.12876156
 42
0.35161353
  0
VERTEX
  8
0
 10
208.28415644
 20
1094.18961638
 42
0.05877301
  0
VERTEX
  8
0
 10
169.02164066
 20
1082.02665098
  0
SEQEND
  0
POLYLINE
  8
CYAN
 66
   1
 39
0.000000
 70
    1
  0
VERTEX
  8
0
 10
167.34796360
 20
1113.84676764
 42
0.20308473
  0
VERTEX
  8
0
 10
160.08678385
 20
1109.63810730
 42
0.20308473
  0
VERTEX
  8
0
 10
158.05870070
 20
1101.49412597
 42
0.20308473
  0
VERTEX
  8
0
 10
162.49811372
 20
1094.37168501
 42
0.20308473
  0
VERTEX
  8
0
 10
170.70295938
 20
1092.60588184
 42
0.03802199
  0
VERTEX
  8
0
 10
212.40947518
 20
1103.91277932
 42
0.34153983
  0
VERTEX
  8
0
 10
215.49055960
 20
1108.70038742
 42
0.34153983
  0
VERTEX
  8
0
 10
211.63212464
 20
1112.88688384
 42
0.07324600
  0
VERTEX
  8
0
 10
167.34796360
 20
1113.84676764
  0
SEQEND
  0
POLYLINE
  8
CYAN
 66
   1
 39
0.000000
 70
    1
  0
VERTEX
  8
0
 10
150.32172094
 20
1078.27194568
 42
0.34638200
  0
VERTEX
  8
0
 10
153.75909856
 20
1083.47861750
 42
0.34638200
  0
VERTEX
  8
0
 10
149.50504302
 20
1088.04238874
 42
0.07414100
  0
VERTEX
  8
0
 10
102.65729190
 20
1088.30586138
 42
0.38315802
  0
VERTEX
  8
0
 10
95.79039245
 20
1080.09665155
 42
0.38315802
  0
VERTEX
  8
0
 10
103.21789644
 20
1072.39096414
 42
0.09840598
  0
VERTEX
  8
0
 10
150.32172094
 20
1078.27194568
  0
SEQEND
  0
POLYLINE
  8
CYAN
 66
   1
 39
0.000000
 70
    1
  0
VERTEX
  8
0
 10
102.73718492
 20
1098.92725974
 42
0.03456502
  0
VERTEX
  8
0
 10
142.53490778
 20
1099.98152198
 42
0.35704105
  0
VERTEX
  8
0
 10
147.67446831
 20
1105.08066822
 42
0.35704105
  0
VERTEX
  8
0
 10
143.69236374
 20
1111.12709014
 42
0.10722401
  0
VERTEX
  8
0
 10
102.03282304
 20
1114.84141766
 42
0.38670493
  0
VERTEX
  8
0
 10
96.67817068
 20
1108.58785116
  0
VERTEX
  8
0
 10
96.78679012
 20
1104.95384692
 42
0.39313649
  0
VERTEX
  8
0
 10
102.73718492
 20
1098.92725974
  0
SEQEND
  0
POLYLINE
  8
CYAN
 66
   1
 39
0.000000
 70
    1
  0
VERTEX
  8
0
 10
82.74332794
 20
1104.09728410
  0
VERTEX
  8
0
 10
81.83898808
 20
1108.20182714
 42
0.33082567
  0
VERTEX
  8
0
 10
76.67839510
 20
1112.68234470
 42
0.04616105
  0
VERTEX
  8
0
 10
38.12443270
 20
1112.05497916
 42
0.35844219
  0
VERTEX
  8
0
 10
34.37146628
 20
1108.21497425
 42
0.35844219
  0
VERTEX
  8
0
 10
37.41550764
 20
1103.79182980
 42
0.05102598
  0
VERTEX
  8
0
 10
76.39975832
 20
1096.78933214
 42
0.23723182
  0
VERTEX
  8
0
 10
81.40861009
 20
1098.84866680
 42
0.23723182
  0
VERTEX
  8
0
 10
82.74332794
 20
1104.09728410
  0
SEQEND
  0
ENDSEC
  0
EOF
