  0
SECTION
  2
HEADER
  9
$ACADVER
  1
AC1009
  9
$INSBASE
 10
0.0
 20
0.0
 30
0.0
  9
$EXTMIN
 10
-0.0000550559418286
 20
-0.0000066112596784
 30
0.0
  9
$EXTMAX
 10
479.58916610249469
 20
1133.3528340455759
 30
0.0
  9
$LIMMIN
 10
0.0
 20
0.0
  9
$LIMMAX
 10
12.0
 20
9.0
  9
$ORTHOMODE
 70
     0
  9
$REGENMODE
 70
     1
  9
$FILLMODE
 70
     1
  9
$QTEXTMODE
 70
     0
  9
$MIRRTEXT
 70
     0
  9
$DRAGMODE
 70
     2
  9
$LTSCALE
 40
1.0
  9
$OSMODE
 70
   167
  9
$ATTMODE
 70
     1
  9
$TEXTSIZE
 40
0.2
  9
$TRACEWID
 40
0.05
  9
$TEXTSTYLE
  7
STANDARD
  9
$CLAYER
  8
0
  9
$CELTYPE
  6
CONTINUOUS
  9
$CECOLOR
 62
   256
  9
$DIMSCALE
 40
1.0
  9
$DIMASZ
 40
0.18
  9
$DIMEXO
 40
0.0625
  9
$DIMDLI
 40
0.38
  9
$DIMRND
 40
0.0
  9
$DIMDLE
 40
0.0
  9
$DIMEXE
 40
0.18
  9
$DIMTP
 40
0.0
  9
$DIMTM
 40
0.0
  9
$DIMTXT
 40
0.18
  9
$DIMCEN
 40
0.09
  9
$DIMTSZ
 40
0.0
  9
$DIMTOL
 70
     0
  9
$DIMLIM
 70
     0
  9
$DIMTIH
 70
     1
  9
$DIMTOH
 70
     1
  9
$DIMSE1
 70
     0
  9
$DIMSE2
 70
     0
  9
$DIMTAD
 70
     0
  9
$DIMZIN
 70
     0
  9
$DIMBLK
  1

  9
$DIMASO
 70
     1
  9
$DIMSHO
 70
     1
  9
$DIMPOST
  1

  9
$DIMAPOST
  1

  9
$DIMALT
 70
     0
  9
$DIMALTD
 70
     2
  9
$DIMALTF
 40
25.399999999999999
  9
$DIMLFAC
 40
1.0
  9
$DIMTOFL
 70
     0
  9
$DIMTVP
 40
0.0
  9
$DIMTIX
 70
     0
  9
$DIMSOXD
 70
     0
  9
$DIMSAH
 70
     0
  9
$DIMBLK1
  1

  9
$DIMBLK2
  1

  9
$DIMSTYLE
  2
STANDARD
  9
$DIMCLRD
 70
     0
  9
$DIMCLRE
 70
     0
  9
$DIMCLRT
 70
     0
  9
$DIMTFAC
 40
1.0
  9
$DIMGAP
 40
0.09
  9
$LUNITS
 70
     2
  9
$LUPREC
 70
     4
  9
$SKETCHINC
 40
0.1
  9
$FILLETRAD
 40
0.0
  9
$AUNITS
 70
     0
  9
$AUPREC
 70
     0
  9
$MENU
  1
.
  9
$ELEVATION
 40
0.0
  9
$PELEVATION
 40
0.0
  9
$THICKNESS
 40
0.0
  9
$LIMCHECK
 70
     0
  9
$BLIPMODE
 70
     0
  9
$CHAMFERA
 40
0.0
  9
$CHAMFERB
 40
0.0
  9
$SKPOLY
 70
     0
  9
$TDCREATE
 40
2455328.7757608099
  9
$TDUPDATE
 40
2455328.7761049541
  9
$TDINDWG
 40
0.0003446991
  9
$TDUSRTIMER
 40
0.0003446991
  9
$USRTIMER
 70
     1
  9
$ANGBASE
 50
0.0
  9
$ANGDIR
 70
     0
  9
$PDMODE
 70
     0
  9
$PDSIZE
 40
0.0
  9
$PLINEWID
 40
0.0
  9
$COORDS
 70
     1
  9
$SPLFRAME
 70
     0
  9
$SPLINETYPE
 70
     6
  9
$SPLINESEGS
 70
     8
  9
$ATTDIA
 70
     0
  9
$ATTREQ
 70
     1
  9
$HANDLING
 70
     1
  9
$HANDSEED
  5
E47
  9
$SURFTAB1
 70
     6
  9
$SURFTAB2
 70
     6
  9
$SURFTYPE
 70
     6
  9
$SURFU
 70
     6
  9
$SURFV
 70
     6
  9
$UCSNAME
  2

  9
$UCSORG
 10
0.0
 20
0.0
 30
0.0
  9
$UCSXDIR
 10
1.0
 20
0.0
 30
0.0
  9
$UCSYDIR
 10
0.0
 20
1.0
 30
0.0
  9
$PUCSNAME
  2

  9
$PUCSORG
 10
0.0
 20
0.0
 30
0.0
  9
$PUCSXDIR
 10
1.0
 20
0.0
 30
0.0
  9
$PUCSYDIR
 10
0.0
 20
1.0
 30
0.0
  9
$USERI1
 70
     0
  9
$USERI2
 70
     0
  9
$USERI3
 70
     0
  9
$USERI4
 70
     0
  9
$USERI5
 70
     0
  9
$USERR1
 40
0.0
  9
$USERR2
 40
0.0
  9
$USERR3
 40
0.0
  9
$USERR4
 40
0.0
  9
$USERR5
 40
0.0
  9
$WORLDVIEW
 70
     1
  9
$SHADEDGE
 70
     3
  9
$SHADEDIF
 70
    70
  9
$TILEMODE
 70
     1
  9
$MAXACTVP
 70
    64
  9
$PLIMCHECK
 70
     0
  9
$PEXTMIN
 10
1.0000000000000000E+020
 20
1.0000000000000000E+020
 30
1.0000000000000000E+020
  9
$PEXTMAX
 10
-1.0000000000000000E+020
 20
-1.0000000000000000E+020
 30
-1.0000000000000000E+020
  9
$PLIMMIN
 10
0.0
 20
0.0
  9
$PLIMMAX
 10
12.0
 20
9.0
  9
$UNITMODE
 70
     0
  9
$VISRETAIN
 70
     1
  9
$PLINEGEN
 70
     0
  9
$PSLTSCALE
 70
     1
  0
ENDSEC
  0
SECTION
  2
TABLES
  0
TABLE
  2
VPORT
 70
     1
  0
VPORT
  2
*ACTIVE
 70
     0
 10
0.0
 20
0.0
 11
1.0
 21
1.0
 12
7.8038793103448274
 22
4.5
 13
0.0
 23
0.0
 14
1.0
 24
1.0
 15
0.0
 25
0.0
 16
0.0
 26
0.0
 36
1.0
 17
0.0
 27
0.0
 37
0.0
 40
9.0
 41
1.7341954022988499
 42
50.0
 43
0.0
 44
0.0
 50
0.0
 51
0.0
 71
     0
 72
   100
 73
     1
 74
     1
 75
     0
 76
     0
 77
     0
 78
     0
  0
ENDTAB
  0
TABLE
  2
LTYPE
 70
     1
  0
LTYPE
  2
CONTINUOUS
 70
     0
  3
Solid line
 72
    65
 73
     0
 40
0.0
  0
ENDTAB
  0
TABLE
  2
LAYER
 70
     2
  0
LAYER
  2
0
 70
     0
 62
     7
  6
CONTINUOUS
  0
LAYER
  2
CYAN
 70
     0
 62
     1
  6
CONTINUOUS
  0
ENDTAB
  0
TABLE
  2
STYLE
 70
     2
  0
STYLE
  2
STANDARD
 70
     0
 40
0.0
 41
1.0
 50
0.0
 71
     0
 42
0.2
  3
txt
  4

  0
STYLE
  2
ANNOTATIVE
 70
     0
 40
0.0
 41
1.0
 50
0.0
 71
     0
 42
0.2
  3
txt
  4

  0
ENDTAB
  0
TABLE
  2
VIEW
 70
     0
  0
ENDTAB
  0
TABLE
  2
UCS
 70
     0
  0
ENDTAB
  0
TABLE
  2
APPID
 70
     3
  0
APPID
  2
ACAD
 70
     0
  0
APPID
  2
ACADANNOTATIVE
 70
     0
  0
APPID
  2
ACAD_MLEADERVER
 70
     0
  0
ENDTAB
  0
TABLE
  2
DIMSTYLE
 70
     2
  0
DIMSTYLE
  2
STANDARD
 70
     0
  3

  4

  5

  6

  7

 40
1.0
 41
0.18
 42
0.0625
 43
0.38
 44
0.18
 45
0.0
 46
0.0
 47
0.0
 48
0.0
140
0.18
141
0.09
142
0.0
143
25.399999999999999
144
1.0
145
0.0
146
1.0
147
0.09
 71
     0
 72
     0
 73
     1
 74
     1
 75
     0
 76
     0
 77
     0
 78
     0
170
     0
171
     2
172
     0
173
     0
174
     0
175
     0
176
     0
177
     0
178
     0
  0
DIMSTYLE
  2
ANNOTATIVE
 70
     0
  3

  4

  5

  6

  7

 40
1.0
 41
0.18
 42
0.0625
 43
0.38
 44
0.18
 45
0.0
 46
0.0
 47
0.0
 48
0.0
140
0.18
141
0.09
142
0.0
143
25.399999999999999
144
1.0
145
0.0
146
1.0
147
0.09
 71
     0
 72
     0
 73
     1
 74
     1
 75
     0
 76
     0
 77
     0
 78
     0
170
     0
171
     2
172
     0
173
     0
174
     0
175
     0
176
     0
177
     0
178
     0
  0
ENDTAB
  0
ENDSEC
  0
SECTION
  2
BLOCKS
  0
BLOCK
  8
0
  2
$MODEL_SPACE
 70
     0
 10
0.0
 20
0.0
 30
0.0
  3
$MODEL_SPACE
  1

  0
ENDBLK
  5
76
  8
0
  0
BLOCK
 67
     1
  8
0
  2
$PAPER_SPACE
 70
     0
 10
0.0
 20
0.0
 30
0.0
  3
$PAPER_SPACE
  1

  0
ENDBLK
  5
72
 67
     1
  8
0
  0
ENDSEC
  0
SECTION
  2
ENTITIES
  0
POLYLINE
  5
7B
  8
CYAN
 66
     1
 10
0.0
 20
0.0
 30
0.0
 70
     1
  0
VERTEX
  5
9CF
  8
CYAN
 10
6.336945805
 20
176.59611938500001
 30
0.0
  0
VERTEX
  5
9D0
  8
CYAN
 10
1.67821021
 20
176.61365753000001
 30
0.0
 42
-0.20252394
  0
VERTEX
  5
9D1
  8
CYAN
 10
0.8671399624999999
 20
176.80086299249999
 30
0.0
 42
-0.20252394
  0
VERTEX
  5
9D2
  8
CYAN
 10
0.4358456925
 20
177.512808275
 30
0.0
 42
-0.20252394
  0
VERTEX
  5
9D3
  8
CYAN
 10
0.64550243
 20
178.31836701500001
 30
0.0
 42
-0.20252394
  0
VERTEX
  5
9D4
  8
CYAN
 10
1.369150209999999
 20
178.72972418500001
 30
0.0
  0
VERTEX
  5
9D5
  8
CYAN
 10
5.8280623550000001
 20
180.07933718999999
 30
0.0
 42
0.1619264
  0
VERTEX
  5
9D6
  8
CYAN
 10
7.8474457500000003
 20
181.505729385
 30
0.0
 42
-0.14057401
  0
VERTEX
  5
9D7
  8
CYAN
 10
10.107462655000001
 20
183.247908685
 30
0.0
  0
VERTEX
  5
9D8
  8
CYAN
 10
15.626615735
 20
185.436016115
 30
0.0
 42
-0.12881075
  0
VERTEX
  5
9D9
  8
CYAN
 10
18.215449755000002
 20
185.751363365
 30
0.0
 42
-0.32901168
  0
VERTEX
  5
9DA
  8
CYAN
 10
19.23787124
 20
184.75848539
 30
0.0
  0
VERTEX
  5
9DB
  8
CYAN
 10
19.813270259999999
 20
181.10938720499999
 30
0.0
  0
VERTEX
  5
9DC
  8
CYAN
 10
12.33628672
 20
180.01699039499999
 30
0.0
  0
VERTEX
  5
9DD
  8
CYAN
 10
12.5553133
 20
178.51789486499999
 30
0.0
  0
VERTEX
  5
9DE
  8
CYAN
 10
20.032235230000001
 20
179.610299755
 30
0.0
  0
VERTEX
  5
9DF
  8
CYAN
 10
20.523457315000002
 20
175.96108592499999
 30
0.0
 42
-0.3317873599999999
  0
VERTEX
  5
9E0
  8
CYAN
 10
19.829298455
 20
174.70527465000001
 30
0.0
 42
-0.12881059
  0
VERTEX
  5
9E1
  8
CYAN
 10
17.258495459999999
 20
174.266759415
 30
0.0
  0
VERTEX
  5
9E2
  8
CYAN
 10
11.343978890000001
 20
174.78424251000001
 30
0.0
 42
-0.14057417
  0
VERTEX
  5
9E3
  8
CYAN
 10
8.6799993549999996
 20
175.80702608000001
 30
0.0
 42
0.16192619
  0
VERTEX
  5
9E4
  8
CYAN
 10
6.336945805
 20
176.59611938500001
 30
0.0
  0
SEQEND
  5
9E5
  8
CYAN
  0
POLYLINE
  5
93
  8
CYAN
 66
     1
 10
0.0
 20
0.0
 30
0.0
 70
     1
  0
VERTEX
  5
9E6
  8
CYAN
 10
20.029646095
 20
151.47094376999999
 30
0.0
 42
-0.10362512
  0
VERTEX
  5
9E7
  8
CYAN
 10
15.446888254999999
 20
145.148646265
 30
0.0
 42
-0.10560999
  0
VERTEX
  5
9E8
  8
CYAN
 10
10.998455870000001
 20
142.56229331
 30
0.0
 42
-0.04100401
  0
VERTEX
  5
9E9
  8
CYAN
 10
7.6255527900000004
 20
141.757465215
 30
0.0
 42
-0.17094225
  0
VERTEX
  5
9EA
  8
CYAN
 10
2.6346090050000002
 20
142.69839131500001
 30
0.0
 42
-0.2708349
  0
VERTEX
  5
9EB
  8
CYAN
 10
0.6923140675
 20
146.6984892925
 30
0.0
 42
-0.2708349
  0
VERTEX
  5
9EC
  8
CYAN
 10
3.2248343199999989
 20
150.35357268999999
 30
0.0
  0
VERTEX
  5
9ED
  8
CYAN
 10
3.231738679999999
 20
154.804147285
 30
0.0
  0
VERTEX
  5
9EE
  8
CYAN
 10
13.37818858
 20
154.78304131499999
 30
0.0
  0
VERTEX
  5
9EF
  8
CYAN
 10
13.3813014
 20
156.29804131500001
 30
0.0
  0
VERTEX
  5
9F0
  8
CYAN
 10
3.2340808700000001
 20
156.31914728500001
 30
0.0
  0
VERTEX
  5
9F1
  8
CYAN
 10
3.241016034999999
 20
160.80348062499999
 30
0.0
 42
-0.27083424
  0
VERTEX
  5
9F2
  8
CYAN
 10
0.7198390775
 20
164.466372775
 30
0.0
 42
-0.27083424
  0
VERTEX
  5
9F3
  8
CYAN
 10
2.6744939049999989
 20
168.460422935
 30
0.0
 42
-0.17114092
  0
VERTEX
  5
9F4
  8
CYAN
 10
7.6684888999999989
 20
169.35208628500001
 30
0.0
 42
-0.04100398
  0
VERTEX
  5
9F5
  8
CYAN
 10
11.03889526
 20
168.53677843
 30
0.0
 42
-0.10560994
  0
VERTEX
  5
9F6
  8
CYAN
 10
15.479221385000001
 20
165.9365708
 30
0.0
 42
-0.10362499
  0
VERTEX
  5
9F7
  8
CYAN
 10
20.042252914999999
 20
159.600052495
 30
0.0
 42
0.27314722
  0
VERTEX
  5
9F8
  8
CYAN
 10
22.429814135000001
 20
157.895815865
 30
0.0
  0
VERTEX
  5
9F9
  8
CYAN
 10
37.587149764999999
 20
156.57920662999999
 30
0.0
 42
-0.38950222
  0
VERTEX
  5
9FA
  8
CYAN
 10
38.569039445000001
 20
155.50664420000001
 30
0.0
 42
-0.3895057
  0
VERTEX
  5
9FB
  8
CYAN
 10
37.58379
 20
154.43712540499999
 30
0.0
  0
VERTEX
  5
9FC
  8
CYAN
 10
22.422416389999999
 20
153.16772861999999
 30
0.0
 42
0.27314675
  0
VERTEX
  5
9FD
  8
CYAN
 10
20.029646095
 20
151.47094376999999
 30
0.0
  0
SEQEND
  5
9FE
  8
CYAN
  0
POLYLINE
  5
AD
  8
CYAN
 66
     1
 10
0.0
 20
0.0
 30
0.0
 70
     1
  0
VERTEX
  5
9FF
  8
CYAN
 10
94.108344050000014
 20
208.42117544999999
 30
0.0
 42
0.2728950399999999
  0
VERTEX
  5
A00
  8
CYAN
 10
92.261172647500004
 20
205.66705164499999
 30
0.0
 42
0.2728950399999999
  0
VERTEX
  5
A01
  8
CYAN
 10
93.777353919999996
 20
202.7177408
 30
0.0
 42
0.01775201
  0
VERTEX
  5
A02
  8
CYAN
 10
99.650228694999996
 20
197.49050195999999
 30
0.0
 42
0.27216409
  0
VERTEX
  5
A03
  8
CYAN
 10
101.50430993499999
 20
197.07646761000001
 30
0.0
 42
0.02257099
  0
VERTEX
  5
A04
  8
CYAN
 10
103.37289326
 20
197.773223685
 30
0.0
  0
VERTEX
  5
A05
  8
CYAN
 10
98.902145430000004
 20
201.91312833999999
 30
0.0
  0
VERTEX
  5
A06
  8
CYAN
 10
99.931486425000017
 20
203.02471969499999
 30
0.0
  0
VERTEX
  5
A07
  8
CYAN
 10
107.31005304
 20
196.19218634999999
 30
0.0
 42
0.25798586
  0
VERTEX
  5
A08
  8
CYAN
 10
110.18032961999999
 20
196.44228962
 30
0.0
 42
0.0319709
  0
VERTEX
  5
A09
  8
CYAN
 10
112.418030575
 20
198.16394875
 30
0.0
  0
VERTEX
  5
A0A
  8
CYAN
 10
108.10905596000001
 20
202.75241611999999
 30
0.0
  0
VERTEX
  5
A0B
  8
CYAN
 10
109.21340460499999
 20
203.78951745000001
 30
0.0
  0
VERTEX
  5
A0C
  8
CYAN
 10
113.522425175
 20
199.20104957500001
 30
0.0
 42
0.0319709
  0
VERTEX
  5
A0D
  8
CYAN
 10
115.381083735
 20
201.32628602
 30
0.0
 42
0.25798595
  0
VERTEX
  5
A0E
  8
CYAN
 10
115.81083015
 20
204.17521776500001
 30
0.0
  0
VERTEX
  5
A0F
  8
CYAN
 10
109.4548547
 20
211.96803436499999
 30
0.0
  0
VERTEX
  5
A10
  8
CYAN
 10
110.62887769
 20
212.92560476
 30
0.0
  0
VERTEX
  5
A11
  8
CYAN
 10
114.48002688
 20
208.20384415500001
 30
0.0
 42
0.02257098
  0
VERTEX
  5
A12
  8
CYAN
 10
115.292638035
 20
210.02500646499999
 30
0.0
 42
0.2721649
  0
VERTEX
  5
A13
  8
CYAN
 10
114.995830345
 20
211.90142638
 30
0.0
 42
0.01775201
  0
VERTEX
  5
A14
  8
CYAN
 10
110.147441495
 20
218.09082050999999
 30
0.0
 42
0.27289346
  0
VERTEX
  5
A15
  8
CYAN
 10
107.2990930175
 20
219.78907288249999
 30
0.0
 42
0.27289346
  0
VERTEX
  5
A16
  8
CYAN
 10
104.434490625
 20
218.11838341000001
 30
0.0
 42
-0.20664139
  0
VERTEX
  5
A17
  8
CYAN
 10
103.0323475675
 20
217.06879093250001
 30
0.0
 42
-0.20664139
  0
VERTEX
  5
A18
  8
CYAN
 10
101.30687463
 20
217.36944467500001
 30
0.0
 42
0.29884095
  0
VERTEX
  5
A19
  8
CYAN
 10
96.463865040000002
 20
217.36595411499999
 30
0.0
  0
VERTEX
  5
A1A
  8
CYAN
 10
100.919278545
 20
212.621553855
 30
0.0
  0
VERTEX
  5
A1B
  8
CYAN
 10
99.814930404999998
 20
211.584460605
 30
0.0
  0
VERTEX
  5
A1C
  8
CYAN
 10
95.359485590000006
 20
216.328860865
 30
0.0
 42
0.29883933
  0
VERTEX
  5
A1D
  8
CYAN
 10
95.052074919999995
 20
211.49561393499999
 30
0.0
 42
-0.20664252
  0
VERTEX
  5
A1E
  8
CYAN
 10
95.243857742499983
 20
209.7546809575
 30
0.0
 42
-0.20664252
  0
VERTEX
  5
A1F
  8
CYAN
 10
94.108344050000014
 20
208.42117544999999
 30
0.0
  0
SEQEND
  5
A20
  8
CYAN
  0
POLYLINE
  5
D0
  8
CYAN
 66
     1
 10
0.0
 20
0.0
 30
0.0
 70
     1
  0
VERTEX
  5
A21
  8
CYAN
 10
61.50935175
 20
127.93659239
 30
0.0
 42
-0.01897284
  0
VERTEX
  5
A22
  8
CYAN
 10
61.802275989999998
 20
130.777541095
 30
0.0
 42
-0.1780004
  0
VERTEX
  5
A23
  8
CYAN
 10
63.448472969999997
 20
133.84161193
 30
0.0
 42
-0.11318592
  0
VERTEX
  5
A24
  8
CYAN
 10
84.78872964
 20
145.50197911000001
 30
0.0
 42
0.15408603
  0
VERTEX
  5
A25
  8
CYAN
 10
93.977100609999994
 20
151.52757295500001
 30
0.0
 42
0.2047621
  0
VERTEX
  5
A26
  8
CYAN
 10
95.011321172500004
 20
155.115330935
 30
0.0
 42
0.2047621
  0
VERTEX
  5
A27
  8
CYAN
 10
93.132680515000004
 20
158.34214496499999
 30
0.0
 42
0.02657599
  0
VERTEX
  5
A28
  8
CYAN
 10
80.063170424999996
 20
168.69599331500001
 30
0.0
 42
-0.24458541
  0
VERTEX
  5
A29
  8
CYAN
 10
77.717327255000001
 20
172.54891455000001
 30
0.0
  0
VERTEX
  5
A2A
  8
CYAN
 10
77.191352585000004
 20
180.36947938500001
 30
0.0
 42
0.2929398
  0
VERTEX
  5
A2B
  8
CYAN
 10
76.499597524999999
 20
181.304218225
 30
0.0
 42
0.07815276
  0
VERTEX
  5
A2C
  8
CYAN
 10
74.87183254
 20
181.647352595
 30
0.0
  0
VERTEX
  5
A2D
  8
CYAN
 10
74.87183254
 20
175.31020960500001
 30
0.0
  0
VERTEX
  5
A2E
  8
CYAN
 10
73.356878495000004
 20
175.31020960500001
 30
0.0
  0
VERTEX
  5
A2F
  8
CYAN
 10
73.356878495000004
 20
181.509436085
 30
0.0
 42
0.09760617
  0
VERTEX
  5
A30
  8
CYAN
 10
71.472976500000001
 20
180.65018212000001
 30
0.0
 42
0.26256318
  0
VERTEX
  5
A31
  8
CYAN
 10
70.659641175000004
 20
178.89871789
 30
0.0
  0
VERTEX
  5
A32
  8
CYAN
 10
70.917627495000005
 20
175.63139061499999
 30
0.0
 42
-0.29460178
  0
VERTEX
  5
A33
  8
CYAN
 10
68.934337459999995
 20
171.95042137499999
 30
0.0
 42
0.26706155
  0
VERTEX
  5
A34
  8
CYAN
 10
67.767061935000001
 20
170.026078695
 30
0.0
 42
0.26706155
  0
VERTEX
  5
A35
  8
CYAN
 10
68.84341019
 20
168.04943979500001
 30
0.0
 42
0.05711304
  0
VERTEX
  5
A36
  8
CYAN
 10
86.511166974999995
 20
158.46800207499999
 30
0.0
 42
-0.26641112
  0
VERTEX
  5
A37
  8
CYAN
 10
89.197460484999993
 20
155.3219092025
 30
0.0
 42
-0.26641112
  0
VERTEX
  5
A38
  8
CYAN
 10
87.838425650000005
 20
151.41459587
 30
0.0
 42
-0.10725692
  0
VERTEX
  5
A39
  8
CYAN
 10
82.375462404999993
 20
148.418562675
 30
0.0
 42
0.12746501
  0
VERTEX
  5
A3A
  8
CYAN
 10
59.495223385000003
 20
134.656646075
 30
0.0
 42
0.15090316
  0
VERTEX
  5
A3B
  8
CYAN
 10
58.846589770000001
 20
133.39905063500001
 30
0.0
 42
0.13156
  0
VERTEX
  5
A3C
  8
CYAN
 10
59.338150710000001
 20
127.62863833999999
 30
0.0
 42
0.3551707
  0
VERTEX
  5
A3D
  8
CYAN
 10
60.548916627499999
 20
126.9001485225
 30
0.0
 42
0.3551707
  0
VERTEX
  5
A3E
  8
CYAN
 10
61.50935175
 20
127.93659239
 30
0.0
  0
SEQEND
  5
A3F
  8
CYAN
  0
POLYLINE
  5
F0
  8
CYAN
 66
     1
 10
0.0
 20
0.0
 30
0.0
 70
     1
  0
VERTEX
  5
A40
  8
CYAN
 10
83.531069055000003
 20
212.40037749000001
 30
0.0
 42
-0.11147967
  0
VERTEX
  5
A41
  8
CYAN
 10
81.859828620000016
 20
211.93137085999999
 30
0.0
  0
VERTEX
  5
A42
  8
CYAN
 10
67.798935354999998
 20
222.348775985
 30
0.0
  0
VERTEX
  5
A43
  8
CYAN
 10
66.479120379999998
 20
223.45600615999999
 30
0.0
 42
-0.39984298
  0
VERTEX
  5
A44
  8
CYAN
 10
66.292827395000003
 20
225.11198953499999
 30
0.0
  0
VERTEX
  5
A45
  8
CYAN
 10
68.706634475000001
 20
228.32657158000001
 30
0.0
  0
VERTEX
  5
A46
  8
CYAN
 10
76.19227927
 20
222.78051008
 30
0.0
  0
VERTEX
  5
A47
  8
CYAN
 10
77.094137559999993
 20
223.99782419499999
 30
0.0
  0
VERTEX
  5
A48
  8
CYAN
 10
69.608677595000003
 20
229.54408567499999
 30
0.0
  0
VERTEX
  5
A49
  8
CYAN
 10
71.980827730000001
 20
232.78924395499999
 30
0.0
 42
-0.39984245
  0
VERTEX
  5
A4A
  8
CYAN
 10
73.61921135
 20
233.093248905
 30
0.0
  0
VERTEX
  5
A4B
  8
CYAN
 10
75.061392369999993
 20
232.15403323999999
 30
0.0
  0
VERTEX
  5
A4C
  8
CYAN
 10
89.123533995000003
 20
221.73569588500001
 30
0.0
 42
-0.11149536
  0
VERTEX
  5
A4D
  8
CYAN
 10
89.161569584999995
 20
220.00008209000001
 30
0.0
 42
0.22984935
  0
VERTEX
  5
A4E
  8
CYAN
 10
90.065277185000014
 20
216.48596434500001
 30
0.0
 42
-0.34845642
  0
VERTEX
  5
A4F
  8
CYAN
 10
90.145801454999997
 20
214.043507605
 30
0.0
  0
VERTEX
  5
A50
  8
CYAN
 10
89.516077060000001
 20
213.19357796
 30
0.0
 42
-0.34845842
  0
VERTEX
  5
A51
  8
CYAN
 10
87.156056015000004
 20
212.55927675000001
 30
0.0
 42
0.22985083
  0
VERTEX
  5
A52
  8
CYAN
 10
83.531069055000003
 20
212.40037749000001
 30
0.0
  0
SEQEND
  5
A53
  8
CYAN
  0
POLYLINE
  5
105
  8
CYAN
 66
     1
 10
0.0
 20
0.0
 30
0.0
 70
     1
  0
VERTEX
  5
A54
  8
CYAN
 10
29.542565414999999
 20
126.85612014500001
 30
0.0
 42
-0.25234001
  0
VERTEX
  5
A55
  8
CYAN
 10
30.977518369999999
 20
134.26586394500001
 30
0.0
 42
-0.14266689
  0
VERTEX
  5
A56
  8
CYAN
 10
55.626444139999997
 20
151.19170907
 30
0.0
 42
0.06887508
  0
VERTEX
  5
A57
  8
CYAN
 10
60.014849194999996
 20
153.34322218
 30
0.0
 42
0.27648737
  0
VERTEX
  5
A58
  8
CYAN
 10
60.958425900000002
 20
155.35825850000001
 30
0.0
 42
0.27648737
  0
VERTEX
  5
A59
  8
CYAN
 10
59.627776795000003
 20
157.141536755
 30
0.0
 42
-0.03677697
  0
VERTEX
  5
A5A
  8
CYAN
 10
39.083656159999997
 20
167.41668741999999
 30
0.0
 42
-0.27252708
  0
VERTEX
  5
A5B
  8
CYAN
 10
37.98000184
 20
169.43031493749999
 30
0.0
 42
-0.27252708
  0
VERTEX
  5
A5C
  8
CYAN
 10
39.205344494999999
 20
171.372294345
 30
0.0
 42
0.26682061
  0
VERTEX
  5
A5D
  8
CYAN
 10
40.987022875000001
 20
174.13057656999999
 30
0.0
  0
VERTEX
  5
A5E
  8
CYAN
 10
41.184596550000002
 20
177.92511172499999
 30
0.0
 42
-0.22781566
  0
VERTEX
  5
A5F
  8
CYAN
 10
42.439637699999992
 20
180.22239359
 30
0.0
 42
-0.09796902
  0
VERTEX
  5
A60
  8
CYAN
 10
43.864481060000003
 20
180.871513015
 30
0.0
  0
VERTEX
  5
A61
  8
CYAN
 10
43.864481060000003
 20
174.36438247999999
 30
0.0
  0
VERTEX
  5
A62
  8
CYAN
 10
45.379511864999991
 20
174.36438247999999
 30
0.0
  0
VERTEX
  5
A63
  8
CYAN
 10
45.379511864999991
 20
180.93683375500001
 30
0.0
 42
-0.11339348
  0
VERTEX
  5
A64
  8
CYAN
 10
47.062496074999999
 20
180.280517575
 30
0.0
 42
-0.24202464
  0
VERTEX
  5
A65
  8
CYAN
 10
47.766672620000001
 20
178.98606168000001
 30
0.0
  0
VERTEX
  5
A66
  8
CYAN
 10
47.948002969999997
 20
171.21074484499999
 30
0.0
 42
0.23985225
  0
VERTEX
  5
A67
  8
CYAN
 10
49.769288500000002
 20
167.82992791000001
 30
0.0
 42
0.01152698
  0
VERTEX
  5
A68
  8
CYAN
 10
64.552004525000001
 20
158.08534488999999
 30
0.0
 42
-0.26677284
  0
VERTEX
  5
A69
  8
CYAN
 10
66.564880147500006
 20
154.30837176750001
 30
0.0
 42
-0.26677284
  0
VERTEX
  5
A6A
  8
CYAN
 10
64.316333650000004
 20
150.66677419499999
 30
0.0
 42
-0.059899
  0
VERTEX
  5
A6B
  8
CYAN
 10
56.985141589999998
 20
147.767643935
 30
0.0
 42
0.14622903
  0
VERTEX
  5
A6C
  8
CYAN
 10
33.958757085000002
 20
133.73471050000001
 30
0.0
 42
0.15928769
  0
VERTEX
  5
A6D
  8
CYAN
 10
32.273091325000003
 20
129.93096313500001
 30
0.0
 42
-0.04412897
  0
VERTEX
  5
A6E
  8
CYAN
 10
31.688753299999998
 20
126.88340580000001
 30
0.0
 42
-0.33151137
  0
VERTEX
  5
A6F
  8
CYAN
 10
30.625821702500001
 20
126.070430855
 30
0.0
 42
-0.33151137
  0
VERTEX
  5
A70
  8
CYAN
 10
29.542565414999999
 20
126.85612014500001
 30
0.0
  0
SEQEND
  5
A71
  8
CYAN
  0
POLYLINE
  5
124
  8
CYAN
 66
     1
 10
0.0
 20
0.0
 30
0.0
 70
     1
  0
VERTEX
  5
A72
  8
CYAN
 10
84.819336680000006
 20
125.96873667
 30
0.0
 42
0.35454427
  0
VERTEX
  5
A73
  8
CYAN
 10
86.051292977499998
 20
125.28066806
 30
0.0
 42
0.35454427
  0
VERTEX
  5
A74
  8
CYAN
 10
86.978856059999984
 20
126.344050145
 30
0.0
  0
VERTEX
  5
A75
  8
CYAN
 10
87.087537109999985
 20
128.88968596000001
 30
0.0
 42
-0.21900755
  0
VERTEX
  5
A76
  8
CYAN
 10
88.845820859999989
 20
132.26130987499999
 30
0.0
 42
-0.08969297
  0
VERTEX
  5
A77
  8
CYAN
 10
107.81588528
 20
142.13665052499999
 30
0.0
 42
0.19422983
  0
VERTEX
  5
A78
  8
CYAN
 10
118.434832875
 20
150.80751516999999
 30
0.0
 42
0.3352638
  0
VERTEX
  5
A79
  8
CYAN
 10
117.062819585
 20
160.22904464000001
 30
0.0
 42
0.05474598
  0
VERTEX
  5
A7A
  8
CYAN
 10
104.81875775
 20
171.699717155
 30
0.0
 42
-0.2459595
  0
VERTEX
  5
A7B
  8
CYAN
 10
102.988872575
 20
174.969903235
 30
0.0
  0
VERTEX
  5
A7C
  8
CYAN
 10
102.776703895
 20
182.59508256000001
 30
0.0
 42
0.370189
  0
VERTEX
  5
A7D
  8
CYAN
 10
101.23425664
 20
184.29494993
 30
0.0
 42
0.02278002
  0
VERTEX
  5
A7E
  8
CYAN
 10
100.32859166
 20
184.366882635
 30
0.0
  0
VERTEX
  5
A7F
  8
CYAN
 10
100.32859166
 20
177.66011348000001
 30
0.0
  0
VERTEX
  5
A80
  8
CYAN
 10
98.813576005000016
 20
177.66011348000001
 30
0.0
  0
VERTEX
  5
A81
  8
CYAN
 10
98.813576005000016
 20
184.30262492
 30
0.0
 42
0.04094498
  0
VERTEX
  5
A82
  8
CYAN
 10
97.215200504999999
 20
183.97813818
 30
0.0
 42
0.34320433
  0
VERTEX
  5
A83
  8
CYAN
 10
96.160214600000003
 20
182.52341195
 30
0.0
  0
VERTEX
  5
A84
  8
CYAN
 10
96.31986126000001
 20
177.79960155000001
 30
0.0
 42
-0.29422599
  0
VERTEX
  5
A85
  8
CYAN
 10
94.759813744999988
 20
175.18836724499999
 30
0.0
 42
0.26823787
  0
VERTEX
  5
A86
  8
CYAN
 10
93.476736305000003
 20
173.2582519275
 30
0.0
 42
0.26823787
  0
VERTEX
  5
A87
  8
CYAN
 10
94.508962569999994
 20
171.18312740499999
 30
0.0
 42
0.02714402
  0
VERTEX
  5
A88
  8
CYAN
 10
110.875690885
 20
160.31047841500001
 30
0.0
 42
-0.21841247
  0
VERTEX
  5
A89
  8
CYAN
 10
114.32394924
 20
155.8277485875
 30
0.0
 42
-0.21841247
  0
VERTEX
  5
A8A
  8
CYAN
 10
113.17573106
 20
150.289974
 30
0.0
 42
-0.15395008
  0
VERTEX
  5
A8B
  8
CYAN
 10
106.41742615
 20
145.354341855
 30
0.0
 42
0.09330297
  0
VERTEX
  5
A8C
  8
CYAN
 10
85.675068774999986
 20
133.71528062499999
 30
0.0
 42
0.17261656
  0
VERTEX
  5
A8D
  8
CYAN
 10
84.302670675000002
 20
131.38113527499999
 30
0.0
 42
0.14338692
  0
VERTEX
  5
A8E
  8
CYAN
 10
84.819336680000006
 20
125.96873667
 30
0.0
  0
SEQEND
  5
A8F
  8
CYAN
  0
POLYLINE
  5
143
  8
CYAN
 66
     1
 10
0.0
 20
0.0
 30
0.0
 70
     1
  0
VERTEX
  5
A90
  8
CYAN
 10
70.369876215000005
 20
126.501981825
 30
0.0
 42
0.35454482
  0
VERTEX
  5
A91
  8
CYAN
 10
71.601817367500004
 20
125.8139399125
 30
0.0
 42
0.35454482
  0
VERTEX
  5
A92
  8
CYAN
 10
72.529349135000004
 20
126.87731449
 30
0.0
  0
VERTEX
  5
A93
  8
CYAN
 10
72.638045840000004
 20
129.422950305
 30
0.0
 42
-0.21900728
  0
VERTEX
  5
A94
  8
CYAN
 10
74.396360395000002
 20
132.79455503
 30
0.0
 42
-0.08969297
  0
VERTEX
  5
A95
  8
CYAN
 10
93.366378859999998
 20
142.66989568
 30
0.0
 42
0.19423018
  0
VERTEX
  5
A96
  8
CYAN
 10
103.985356755
 20
151.34076032499999
 30
0.0
 42
0.3352638
  0
VERTEX
  5
A97
  8
CYAN
 10
102.61337426999999
 20
160.76228575499999
 30
0.0
 42
0.05474598
  0
VERTEX
  5
A98
  8
CYAN
 10
90.369297285000002
 20
172.23297392500001
 30
0.0
 42
-0.2459605
  0
VERTEX
  5
A99
  8
CYAN
 10
88.539365649999993
 20
175.50316758
 30
0.0
  0
VERTEX
  5
A9A
  8
CYAN
 10
88.327243429999996
 20
183.12834741
 30
0.0
 42
0.37018879
  0
VERTEX
  5
A9B
  8
CYAN
 10
86.784749715000004
 20
184.8281758949999
 30
0.0
 42
0.02278002
  0
VERTEX
  5
A9C
  8
CYAN
 10
85.879100390000005
 20
184.90010860000001
 30
0.0
  0
VERTEX
  5
A9D
  8
CYAN
 10
85.879100390000005
 20
178.19333893999999
 30
0.0
  0
VERTEX
  5
A9E
  8
CYAN
 10
84.364131194999999
 20
178.19333893999999
 30
0.0
  0
VERTEX
  5
A9F
  8
CYAN
 10
84.364131194999999
 20
184.83588169000001
 30
0.0
 42
0.04094498
  0
VERTEX
  5
AA0
  8
CYAN
 10
82.765694085000007
 20
184.51136414499999
 30
0.0
 42
0.34320246
  0
VERTEX
  5
AA1
  8
CYAN
 10
81.710754135000002
 20
183.05667679999999
 30
0.0
  0
VERTEX
  5
AA2
  8
CYAN
 10
81.870354335000002
 20
178.332865895
 30
0.0
 42
-0.29422621
  0
VERTEX
  5
AA3
  8
CYAN
 10
80.310353279999987
 20
175.72159321000001
 30
0.0
 42
0.2682407
  0
VERTEX
  5
AA4
  8
CYAN
 10
79.0272729725
 20
173.79149821999999
 30
0.0
 42
0.2682407
  0
VERTEX
  5
AA5
  8
CYAN
 10
80.059502105000007
 20
171.71639225499999
 30
0.0
 42
0.0271439
  0
VERTEX
  5
AA6
  8
CYAN
 10
96.426276880000003
 20
160.84370437999999
 30
0.0
 42
-0.21841228
  0
VERTEX
  5
AA7
  8
CYAN
 10
99.874508907500001
 20
156.36098619000001
 30
0.0
 42
-0.21841228
  0
VERTEX
  5
AA8
  8
CYAN
 10
98.726286250000001
 20
150.82323834499999
 30
0.0
 42
-0.15395008
  0
VERTEX
  5
AA9
  8
CYAN
 10
91.967950535
 20
145.88758701
 30
0.0
 42
0.09330297
  0
VERTEX
  5
AAA
  8
CYAN
 10
71.225608309999998
 20
134.24856062500001
 30
0.0
 42
0.17261621
  0
VERTEX
  5
AAB
  8
CYAN
 10
69.853163749999993
 20
131.91439962000001
 30
0.0
 42
0.14338703
  0
VERTEX
  5
AAC
  8
CYAN
 10
70.369876215000005
 20
126.501981825
 30
0.0
  0
SEQEND
  5
AAD
  8
CYAN
  0
POLYLINE
  5
162
  8
CYAN
 66
     1
 10
0.0
 20
0.0
 30
0.0
 70
     1
  0
VERTEX
  5
AAE
  8
CYAN
 10
45.503666115000001
 20
127.93659239
 30
0.0
 42
-0.35517068
  0
VERTEX
  5
AAF
  8
CYAN
 10
44.543238559999999
 20
126.9001547325
 30
0.0
 42
-0.35517068
  0
VERTEX
  5
AB0
  8
CYAN
 10
43.332480224999998
 20
127.62863833999999
 30
0.0
 42
-0.13156
  0
VERTEX
  5
AB1
  8
CYAN
 10
42.840919284999991
 20
133.39905063500001
 30
0.0
 42
-0.15090316
  0
VERTEX
  5
AB2
  8
CYAN
 10
43.4895529
 20
134.656646075
 30
0.0
 42
-0.12746501
  0
VERTEX
  5
AB3
  8
CYAN
 10
66.369807069999993
 20
148.418562675
 30
0.0
 42
0.10725704
  0
VERTEX
  5
AB4
  8
CYAN
 10
71.83272436
 20
151.41459587
 30
0.0
 42
0.26640998
  0
VERTEX
  5
AB5
  8
CYAN
 10
73.191749217500004
 20
155.32190732750001
 30
0.0
 42
0.26640998
  0
VERTEX
  5
AB6
  8
CYAN
 10
70.505465685000004
 20
158.46800207499999
 30
0.0
 42
-0.05711304
  0
VERTEX
  5
AB7
  8
CYAN
 10
52.83769375
 20
168.04943979500001
 30
0.0
 42
-0.26706154
  0
VERTEX
  5
AB8
  8
CYAN
 10
51.761376304999999
 20
170.02609641250001
 30
0.0
 42
-0.26706154
  0
VERTEX
  5
AB9
  8
CYAN
 10
52.92868262999999
 20
171.95042137499999
 30
0.0
 42
0.29460176
  0
VERTEX
  5
ABA
  8
CYAN
 10
54.911941859999999
 20
175.63139061499999
 30
0.0
  0
VERTEX
  5
ABB
  8
CYAN
 10
54.653955035000003
 20
178.89871789
 30
0.0
 42
-0.26256316
  0
VERTEX
  5
ABC
  8
CYAN
 10
55.467306014999998
 20
180.65018212000001
 30
0.0
 42
-0.0976057
  0
VERTEX
  5
ABD
  8
CYAN
 10
57.351131250000002
 20
181.509436085
 30
0.0
  0
VERTEX
  5
ABE
  8
CYAN
 10
57.351131250000002
 20
175.31020960500001
 30
0.0
  0
VERTEX
  5
ABF
  8
CYAN
 10
58.866162054999997
 20
175.31020960500001
 30
0.0
  0
VERTEX
  5
AC0
  8
CYAN
 10
58.866162054999997
 20
181.647352595
 30
0.0
 42
-0.07815274
  0
VERTEX
  5
AC1
  8
CYAN
 10
60.49391138499999
 20
181.304218225
 30
0.0
 42
-0.2929398
  0
VERTEX
  5
AC2
  8
CYAN
 10
61.185666445000003
 20
180.36947938500001
 30
0.0
  0
VERTEX
  5
AC3
  8
CYAN
 10
61.711625965000003
 20
172.54891455000001
 30
0.0
 42
0.24458539
  0
VERTEX
  5
AC4
  8
CYAN
 10
64.057515089999995
 20
168.69599331500001
 30
0.0
 42
-0.02657599
  0
VERTEX
  5
AC5
  8
CYAN
 10
77.126994879999998
 20
158.34214496499999
 30
0.0
 42
-0.20476279
  0
VERTEX
  5
AC6
  8
CYAN
 10
79.005617610000002
 20
155.11532166250001
 30
0.0
 42
-0.20476279
  0
VERTEX
  5
AC7
  8
CYAN
 10
77.971368514999995
 20
151.52757295500001
 30
0.0
 42
-0.15408602
  0
VERTEX
  5
AC8
  8
CYAN
 10
68.783028349999995
 20
145.50197911000001
 30
0.0
 42
0.11318592
  0
VERTEX
  5
AC9
  8
CYAN
 10
47.442756025000001
 20
133.84161193
 30
0.0
 42
0.17800039
  0
VERTEX
  5
ACA
  8
CYAN
 10
45.796574699999987
 20
130.777541095
 30
0.0
 42
0.01897284
  0
VERTEX
  5
ACB
  8
CYAN
 10
45.503666115000001
 20
127.93659239
 30
0.0
  0
SEQEND
  5
ACC
  8
CYAN
  0
POLYLINE
  5
182
  8
CYAN
 66
     1
 10
0.0
 20
0.0
 30
0.0
 70
     1
  0
VERTEX
  5
ACD
  8
CYAN
 10
14.99015666
 20
126.85612014500001
 30
0.0
 42
-0.25234002
  0
VERTEX
  5
ACE
  8
CYAN
 10
16.425110119999999
 20
134.26586394500001
 30
0.0
 42
-0.14266689
  0
VERTEX
  5
ACF
  8
CYAN
 10
41.074066190000003
 20
151.19170907
 30
0.0
 42
0.06887508
  0
VERTEX
  5
AD0
  8
CYAN
 10
45.462456095
 20
153.34322218
 30
0.0
 42
0.27648737
  0
VERTEX
  5
AD1
  8
CYAN
 10
46.406032799999991
 20
155.35825850000001
 30
0.0
 42
0.27648737
  0
VERTEX
  5
AD2
  8
CYAN
 10
45.075383694999992
 20
157.141536755
 30
0.0
 42
-0.03677697
  0
VERTEX
  5
AD3
  8
CYAN
 10
24.531247910000001
 20
167.41668741999999
 30
0.0
 42
-0.27252705
  0
VERTEX
  5
AD4
  8
CYAN
 10
23.427593470000001
 20
169.43031478500001
 30
0.0
 42
-0.27252705
  0
VERTEX
  5
AD5
  8
CYAN
 10
24.65293574
 20
171.372294345
 30
0.0
 42
0.26682153
  0
VERTEX
  5
AD6
  8
CYAN
 10
26.434676235000001
 20
174.13057656999999
 30
0.0
  0
VERTEX
  5
AD7
  8
CYAN
 10
26.632188299999999
 20
177.92511172499999
 30
0.0
 42
-0.22781706
  0
VERTEX
  5
AD8
  8
CYAN
 10
27.887291059999999
 20
180.22239359
 30
0.0
 42
-0.09796891
  0
VERTEX
  5
AD9
  8
CYAN
 10
29.312103615000002
 20
180.871513015
 30
0.0
  0
VERTEX
  5
ADA
  8
CYAN
 10
29.312103615000002
 20
174.36438247999999
 30
0.0
  0
VERTEX
  5
ADB
  8
CYAN
 10
30.827103614999999
 20
174.36438247999999
 30
0.0
  0
VERTEX
  5
ADC
  8
CYAN
 10
30.827103614999999
 20
180.93683375500001
 30
0.0
 42
-0.11339345
  0
VERTEX
  5
ADD
  8
CYAN
 10
32.510087319999997
 20
180.280517575
 30
0.0
 42
-0.24202229
  0
VERTEX
  5
ADE
  8
CYAN
 10
33.214325979999998
 20
178.98606168000001
 30
0.0
  0
VERTEX
  5
ADF
  8
CYAN
 10
33.39559421500001
 20
171.21074484499999
 30
0.0
 42
0.23985226
  0
VERTEX
  5
AE0
  8
CYAN
 10
35.216911054999997
 20
167.82992791000001
 30
0.0
 42
0.01152698
  0
VERTEX
  5
AE1
  8
CYAN
 10
49.999596275000002
 20
158.08534488999999
 30
0.0
 42
-0.26677282
  0
VERTEX
  5
AE2
  8
CYAN
 10
52.012487174999997
 20
154.30838062000001
 30
0.0
 42
-0.26677282
  0
VERTEX
  5
AE3
  8
CYAN
 10
49.763956204999992
 20
150.66677419499999
 30
0.0
 42
-0.059899
  0
VERTEX
  5
AE4
  8
CYAN
 10
42.432733339999999
 20
147.767643935
 30
0.0
 42
0.14622903
  0
VERTEX
  5
AE5
  8
CYAN
 10
19.406379135000002
 20
133.73471050000001
 30
0.0
 42
0.15928768
  0
VERTEX
  5
AE6
  8
CYAN
 10
17.720683075
 20
129.93096313500001
 30
0.0
 42
-0.04412897
  0
VERTEX
  5
AE7
  8
CYAN
 10
17.136375855000001
 20
126.88340580000001
 30
0.0
 42
-0.3315126
  0
VERTEX
  5
AE8
  8
CYAN
 10
16.07342865
 20
126.07041549500001
 30
0.0
 42
-0.3315126
  0
VERTEX
  5
AE9
  8
CYAN
 10
14.99015666
 20
126.85612014500001
 30
0.0
  0
SEQEND
  5
AEA
  8
CYAN
  0
POLYLINE
  5
1A1
  8
CYAN
 66
     1
 10
0.0
 20
0.0
 30
0.0
 70
     1
  0
VERTEX
  5
AEB
  8
CYAN
 10
106.07207280999999
 20
13.69194729
 30
0.0
  0
VERTEX
  5
AEC
  8
CYAN
 10
107.98838469499999
 20
10.36635665
 30
0.0
  0
VERTEX
  5
AED
  8
CYAN
 10
109.30103372000001
 20
11.12275474
 30
0.0
  0
VERTEX
  5
AEE
  8
CYAN
 10
107.38470567500001
 20
14.44836053
 30
0.0
 42
0.35549625
  0
VERTEX
  5
AEF
  8
CYAN
 10
109.02805193
 20
21.429822415
 30
0.0
 42
0.12800193
  0
VERTEX
  5
AF0
  8
CYAN
 10
104.07898072499999
 20
27.227813265000002
 30
0.0
 42
-0.3874036
  0
VERTEX
  5
AF1
  8
CYAN
 10
103.7418914775
 20
28.721239222499999
 30
0.0
 42
-0.3874036
  0
VERTEX
  5
AF2
  8
CYAN
 10
105.197846605
 20
29.194678679999999
 30
0.0
 42
-0.17637897
  0
VERTEX
  5
AF3
  8
CYAN
 10
116.69191375
 20
17.960320410000001
 30
0.0
 42
-0.392384
  0
VERTEX
  5
AF4
  8
CYAN
 10
112.4266721975
 20
4.1812328799999987
 30
0.0
 42
-0.392384
  0
VERTEX
  5
AF5
  8
CYAN
 10
98.366399514999998
 20
7.40059164
 30
0.0
 42
-0.17637913
  0
VERTEX
  5
AF6
  8
CYAN
 10
94.410360815000004
 20
22.978603884999998
 30
0.0
 42
-0.38740182
  0
VERTEX
  5
AF7
  8
CYAN
 10
95.550064992499998
 20
24.000861035
 30
0.0
 42
-0.38740182
  0
VERTEX
  5
AF8
  8
CYAN
 10
96.673120879999999
 20
22.960341570000001
 30
0.0
 42
0.12800193
  0
VERTEX
  5
AF9
  8
CYAN
 10
99.20776840000002
 20
15.771057539999999
 30
0.0
 42
0.35549692
  0
VERTEX
  5
AFA
  8
CYAN
 10
106.07207280999999
 20
13.69194729
 30
0.0
  0
SEQEND
  5
AFB
  8
CYAN
  0
POLYLINE
  5
1B3
  8
CYAN
 66
     1
 10
0.0
 20
0.0
 30
0.0
 70
     1
  0
VERTEX
  5
AFC
  8
CYAN
 10
102.7484244
 20
22.685880130000001
 30
0.0
 42
-0.18014607
  0
VERTEX
  5
AFD
  8
CYAN
 10
92.378740765000003
 20
35.015328375000003
 30
0.0
 42
-0.39778822
  0
VERTEX
  5
AFE
  8
CYAN
 10
99.082632242499983
 20
50.256226099999999
 30
0.0
 42
-0.39778822
  0
VERTEX
  5
AFF
  8
CYAN
 10
114.67721524
 20
44.422179010000001
 30
0.0
 42
-0.18014594
  0
VERTEX
  5
B00
  8
CYAN
 10
116.271861315
 20
28.390910075000001
 30
0.0
 42
-0.37384612
  0
VERTEX
  5
B01
  8
CYAN
 10
115.039749585
 20
27.551660972499999
 30
0.0
 42
-0.37384612
  0
VERTEX
  5
B02
  8
CYAN
 10
114.03704189
 20
28.654845295000001
 30
0.0
 42
0.10696897
  0
VERTEX
  5
B03
  8
CYAN
 10
111.998008945
 20
37.159501814999999
 30
0.0
 42
0.36792648
  0
VERTEX
  5
B04
  8
CYAN
 10
103.91905681999999
 20
40.740636090000002
 30
0.0
  0
VERTEX
  5
B05
  8
CYAN
 10
102.43047236
 20
44.26921703499999
 30
0.0
  0
VERTEX
  5
B06
  8
CYAN
 10
101.03461751499999
 20
43.680336535000002
 30
0.0
  0
VERTEX
  5
B07
  8
CYAN
 10
102.52314087000001
 20
40.15175559
 30
0.0
 42
0.36792758
  0
VERTEX
  5
B08
  8
CYAN
 10
99.450373935000016
 20
31.866133224999999
 30
0.0
 42
0.10696908
  0
VERTEX
  5
B09
  8
CYAN
 10
104.11889643000001
 20
24.470756675000001
 30
0.0
 42
-0.3738466
  0
VERTEX
  5
B0A
  8
CYAN
 10
104.2093404825
 20
22.982732202499999
 30
0.0
 42
-0.3738466
  0
VERTEX
  5
B0B
  8
CYAN
 10
102.7484244
 20
22.685880130000001
 30
0.0
  0
SEQEND
  5
B0C
  8
CYAN
  0
POLYLINE
  5
1C5
  8
CYAN
 66
     1
 10
0.0
 20
0.0
 30
0.0
 70
     1
  0
VERTEX
  5
B0D
  8
CYAN
 10
31.622515480000001
 20
10.434845255000001
 30
0.0
 42
0.36305486
  0
VERTEX
  5
B0E
  8
CYAN
 10
40.369519984999997
 20
10.52990999
 30
0.0
 42
0.13418295
  0
VERTEX
  5
B0F
  8
CYAN
 10
45.330072364999999
 20
17.833277055
 30
0.0
 42
-0.37038098
  0
VERTEX
  5
B10
  8
CYAN
 10
46.606169475000002
 20
18.583536684999999
 30
0.0
 42
-0.37038098
  0
VERTEX
  5
B11
  8
CYAN
 10
47.540926509999991
 20
17.435694089999998
 30
0.0
 42
-0.28414577
  0
VERTEX
  5
B12
  8
CYAN
 10
36.849222050000002
 20
1.1054292999999991
 30
0.0
 42
-0.31878419
  0
VERTEX
  5
B13
  8
CYAN
 10
23.477696492500002
 20
3.5356924900000002
 30
0.0
 42
-0.31878419
  0
VERTEX
  5
B14
  8
CYAN
 10
21.357952645000001
 20
16.959945205
 30
0.0
 42
-0.28414598
  0
VERTEX
  5
B15
  8
CYAN
 10
37.931624909999996
 20
27.270344869999999
 30
0.0
 42
-0.37037777
  0
VERTEX
  5
B16
  8
CYAN
 10
39.057482720000003
 20
26.309231342499999
 30
0.0
 42
-0.37037777
  0
VERTEX
  5
B17
  8
CYAN
 10
38.27785695
 20
25.050867849999999
 30
0.0
 42
0.13418294
  0
VERTEX
  5
B18
  8
CYAN
 10
30.861501690000001
 20
20.260908005000001
 30
0.0
 42
0.36305441
  0
VERTEX
  5
B19
  8
CYAN
 10
30.563753689999999
 20
11.51847274
 30
0.0
  0
VERTEX
  5
B1A
  8
CYAN
 10
27.82453572
 20
8.8420020299999997
 30
0.0
  0
VERTEX
  5
B1B
  8
CYAN
 10
28.883328315
 20
7.7583972699999988
 30
0.0
  0
VERTEX
  5
B1C
  8
CYAN
 10
31.622515480000001
 20
10.434845255000001
 30
0.0
  0
SEQEND
  5
B1D
  8
CYAN
  0
POLYLINE
  5
1D7
  8
CYAN
 66
     1
 10
0.0
 20
0.0
 30
0.0
 70
     1
  0
VERTEX
  5
B1E
  8
CYAN
 10
35.942632414999999
 20
18.615042304999999
 30
0.0
 42
0.205257
  0
VERTEX
  5
B1F
  8
CYAN
 10
49.803902209999997
 20
23.693614700000001
 30
0.0
 42
0.40176865
  0
VERTEX
  5
B20
  8
CYAN
 10
50.65292848
 20
40.442771342500002
 30
0.0
 42
0.40176865
  0
VERTEX
  5
B21
  8
CYAN
 10
33.95524329500001
 20
42.005590390000002
 30
0.0
 42
0.20525688
  0
VERTEX
  5
B22
  8
CYAN
 10
26.94047767
 20
29.016434889999999
 30
0.0
 42
0.38111934
  0
VERTEX
  5
B23
  8
CYAN
 10
27.841272719999999
 20
27.801428959999999
 30
0.0
 42
0.38111934
  0
VERTEX
  5
B24
  8
CYAN
 10
29.151085375000001
 20
28.55777672
 30
0.0
 42
-0.14955099
  0
VERTEX
  5
B25
  8
CYAN
 10
33.309444749999997
 20
34.434831885000001
 30
0.0
 42
-0.36620647
  0
VERTEX
  5
B26
  8
CYAN
 10
42.10650536
 20
34.047833214999997
 30
0.0
  0
VERTEX
  5
B27
  8
CYAN
 10
45.002272320000003
 20
36.55403509500001
 30
0.0
  0
VERTEX
  5
B28
  8
CYAN
 10
45.993717105000002
 20
35.408515315000002
 30
0.0
  0
VERTEX
  5
B29
  8
CYAN
 10
43.097950144999992
 20
32.902274550000001
 30
0.0
 42
-0.36620657
  0
VERTEX
  5
B2A
  8
CYAN
 10
42.218792614999991
 20
24.140706349999999
 30
0.0
 42
-0.14955105
  0
VERTEX
  5
B2B
  8
CYAN
 10
35.805902654999997
 20
20.868555314999998
 30
0.0
 42
0.38111626
  0
VERTEX
  5
B2C
  8
CYAN
 10
34.869470745000001
 20
19.680833719999999
 30
0.0
 42
0.38111626
  0
VERTEX
  5
B2D
  8
CYAN
 10
35.942632414999999
 20
18.615042304999999
 30
0.0
  0
SEQEND
  5
B2E
  8
CYAN
  0
POLYLINE
  5
1E9
  8
CYAN
 66
     1
 10
0.0
 20
0.0
 30
0.0
 70
     1
  0
VERTEX
  5
B2F
  8
CYAN
 10
77.612946280000003
 20
1.687108499999999
 30
0.0
 42
-0.23280262
  0
VERTEX
  5
B30
  8
CYAN
 10
67.586856310000002
 20
1.2214736324999991
 30
0.0
 42
-0.23280262
  0
VERTEX
  5
B31
  8
CYAN
 10
61.103339325
 20
8.8832817399999993
 30
0.0
 42
-0.4107973400000001
  0
VERTEX
  5
B32
  8
CYAN
 10
71.927489124999994
 20
27.158689370000001
 30
0.0
 42
-0.38739795
  0
VERTEX
  5
B33
  8
CYAN
 10
73.283533460000001
 20
26.448077912500001
 30
0.0
 42
-0.38739795
  0
VERTEX
  5
B34
  8
CYAN
 10
72.701093575000002
 20
25.032242945
 30
0.0
 42
0.06857606
  0
VERTEX
  5
B35
  8
CYAN
 10
69.311268955000003
 20
21.557459144999999
 30
0.0
 42
0.22139704
  0
VERTEX
  5
B36
  8
CYAN
 10
67.840899984999993
 20
15.996761642499999
 30
0.0
 42
0.22139704
  0
VERTEX
  5
B37
  8
CYAN
 10
71.150169895000005
 20
11.292287784999999
 30
0.0
  0
VERTEX
  5
B38
  8
CYAN
 10
69.616522265
 20
7.773785629999999
 30
0.0
  0
VERTEX
  5
B39
  8
CYAN
 10
71.005333875000005
 20
7.1684345550000002
 30
0.0
  0
VERTEX
  5
B3A
  8
CYAN
 10
72.535590935000002
 20
10.679138500000001
 30
0.0
 42
0.22141516
  0
VERTEX
  5
B3B
  8
CYAN
 10
78.238187984999996
 20
11.460052067499999
 30
0.0
 42
0.22141516
  0
VERTEX
  5
B3C
  8
CYAN
 10
81.310720910000001
 20
16.327184750000001
 30
0.0
 42
0.068576
  0
VERTEX
  5
B3D
  8
CYAN
 10
81.548826895000005
 20
21.175719545
 30
0.0
 42
-0.38739778
  0
VERTEX
  5
B3E
  8
CYAN
 10
82.189569210000002
 20
22.566123167499999
 30
0.0
 42
-0.38739778
  0
VERTEX
  5
B3F
  8
CYAN
 10
83.633169449999997
 20
22.056425910000002
 30
0.0
 42
-0.41079683
  0
VERTEX
  5
B40
  8
CYAN
 10
77.612946280000003
 20
1.687108499999999
 30
0.0
  0
SEQEND
  5
B41
  8
CYAN
  0
POLYLINE
  5
1FD
  8
CYAN
 66
     1
 10
0.0
 20
0.0
 30
0.0
 70
     1
  0
VERTEX
  5
B42
  8
CYAN
 10
73.733887254999985
 20
23.371933235
 30
0.0
 42
0.38786824
  0
VERTEX
  5
B43
  8
CYAN
 10
73.3758093
 20
21.882037867499999
 30
0.0
 42
0.38786824
  0
VERTEX
  5
B44
  8
CYAN
 10
74.827108730000006
 20
21.390369289999999
 30
0.0
 42
0.22024889
  0
VERTEX
  5
B45
  8
CYAN
 10
84.768494794999995
 20
32.637403059999997
 30
0.0
 42
0.4003031100000001
  0
VERTEX
  5
B46
  8
CYAN
 10
77.174615992499994
 20
47.540612119999992
 30
0.0
 42
0.4003031100000001
  0
VERTEX
  5
B47
  8
CYAN
 10
61.926090879999997
 20
40.666376345000003
 30
0.0
 42
0.22024909
  0
VERTEX
  5
B48
  8
CYAN
 10
62.644045339999998
 20
25.672662734999999
 30
0.0
 42
0.38786818
  0
VERTEX
  5
B49
  8
CYAN
 10
64.083796824999993
 20
25.1481403925
 30
0.0
 42
0.38786818
  0
VERTEX
  5
B4A
  8
CYAN
 10
64.736678984999998
 20
26.53441342
 30
0.0
 42
-0.18063103
  0
VERTEX
  5
B4B
  8
CYAN
 10
65.158319140000003
 20
33.852447705000003
 30
0.0
 42
-0.36007773
  0
VERTEX
  5
B4C
  8
CYAN
 10
72.929305600000006
 20
37.747041539999998
 30
0.0
  0
VERTEX
  5
B4D
  8
CYAN
 10
74.199264450000001
 20
41.360049899999993
 30
0.0
  0
VERTEX
  5
B4E
  8
CYAN
 10
75.628546255000003
 20
40.857685494999998
 30
0.0
  0
VERTEX
  5
B4F
  8
CYAN
 10
74.358618210000003
 20
37.244661479999998
 30
0.0
 42
-0.36007825
  0
VERTEX
  5
B50
  8
CYAN
 10
77.983744044999995
 20
29.34436977
 30
0.0
 42
-0.18063091
  0
VERTEX
  5
B51
  8
CYAN
 10
73.733887254999985
 20
23.371933235
 30
0.0
  0
SEQEND
  5
B52
  8
CYAN
  0
POLYLINE
  5
20F
  8
CYAN
 66
     1
 10
0.0
 20
0.0
 30
0.0
 70
     1
  0
VERTEX
  5
B53
  8
CYAN
 10
0.00690766
 20
33.033891689999997
 30
0.0
 42
-0.21074593
  0
VERTEX
  5
B54
  8
CYAN
 10
5.3194253449999991
 20
46.060481324999991
 30
0.0
 42
-0.4184982500000001
  0
VERTEX
  5
B55
  8
CYAN
 10
6.9375382249999991
 20
46.020728914999992
 30
0.0
 42
-0.4184982500000001
  0
VERTEX
  5
B56
  8
CYAN
 10
6.8741557149999988
 20
44.403369275000003
 30
0.0
 42
0.23543869
  0
VERTEX
  5
B57
  8
CYAN
 10
4.801935555
 20
39.051525657500001
 30
0.0
 42
0.23543869
  0
VERTEX
  5
B58
  8
CYAN
 10
7.8284592650000002
 20
34.175412375000001
 30
0.0
 42
0.09609202
  0
VERTEX
  5
B59
  8
CYAN
 10
9.8524967399999994
 20
33.410638355000003
 30
0.0
  0
VERTEX
  5
B5A
  8
CYAN
 10
9.7146266899999993
 20
29.57488914
 30
0.0
  0
VERTEX
  5
B5B
  8
CYAN
 10
11.22867123
 20
29.520467815
 30
0.0
  0
VERTEX
  5
B5C
  8
CYAN
 10
11.366510475
 20
33.356212990000003
 30
0.0
 42
0.09609203
  0
VERTEX
  5
B5D
  8
CYAN
 10
13.440234394999999
 20
33.973681540000001
 30
0.0
 42
0.23543798
  0
VERTEX
  5
B5E
  8
CYAN
 10
16.809053017499998
 20
38.619910204999996
 30
0.0
 42
0.23543798
  0
VERTEX
  5
B5F
  8
CYAN
 10
15.12645515
 20
44.106734799999991
 30
0.0
 42
-0.4185030600000001
  0
VERTEX
  5
B60
  8
CYAN
 10
15.1793513
 20
45.724484259999997
 30
0.0
 42
-0.4185030600000001
  0
VERTEX
  5
B61
  8
CYAN
 10
16.796154325
 20
45.647938240000002
 30
0.0
 42
-0.21074607
  0
VERTEX
  5
B62
  8
CYAN
 10
21.159669950000001
 20
32.27354046
 30
0.0
 42
-0.39555758
  0
VERTEX
  5
B63
  8
CYAN
 10
10.226738125000001
 20
22.734574107499999
 30
0.0
 42
-0.39555758
  0
VERTEX
  5
B64
  8
CYAN
 10
0.00690766
 20
33.033891689999997
 30
0.0
  0
SEQEND
  5
B65
  8
CYAN
  0
POLYLINE
  5
223
  8
CYAN
 66
     1
 10
0.0
 20
0.0
 30
0.0
 70
     1
  0
VERTEX
  5
B66
  8
CYAN
 10
22.593482614999999
 20
46.457358804999998
 30
0.0
  0
VERTEX
  5
B67
  8
CYAN
 10
18.941880135000002
 20
53.951083095000001
 30
0.0
 42
0.26782095
  0
VERTEX
  5
B68
  8
CYAN
 10
16.047315579999999
 20
55.905985565000002
 30
0.0
  0
VERTEX
  5
B69
  8
CYAN
 10
12.65185011
 20
56.146287289999989
 30
0.0
  0
VERTEX
  5
B6A
  8
CYAN
 10
10.39633326
 20
63.088128390000001
 30
0.0
  0
VERTEX
  5
B6B
  8
CYAN
 10
8.9554930150000001
 20
62.619984805000001
 30
0.0
  0
VERTEX
  5
B6C
  8
CYAN
 10
11.333345104999999
 20
55.30152833999999
 30
0.0
  0
VERTEX
  5
B6D
  8
CYAN
 10
10.684033275000001
 20
54.920011950000003
 30
0.0
 42
-0.07418991
  0
VERTEX
  5
B6E
  8
CYAN
 10
8.8553808049999994
 20
54.18303616
 30
0.0
  0
VERTEX
  5
B6F
  8
CYAN
 10
8.3681345849999982
 20
54.06637207
 30
0.0
  0
VERTEX
  5
B70
  8
CYAN
 10
6.1543211400000004
 20
59.281739875
 30
0.0
  0
VERTEX
  5
B71
  8
CYAN
 10
4.7597454600000004
 20
58.689777360000001
 30
0.0
  0
VERTEX
  5
B72
  8
CYAN
 10
6.8715973850000003
 20
53.714510795000002
 30
0.0
 42
-0.28248502
  0
VERTEX
  5
B73
  8
CYAN
 10
4.2301489300000004
 20
54.297792864999998
 30
0.0
 42
-0.03837996
  0
VERTEX
  5
B74
  8
CYAN
 10
1.443279159999999
 20
61.019626674999998
 30
0.0
 42
-0.17085493
  0
VERTEX
  5
B75
  8
CYAN
 10
1.5091165150000001
 20
63.993256049999999
 30
0.0
 42
0.15707669
  0
VERTEX
  5
B76
  8
CYAN
 10
1.61039982
 20
66.059867550000007
 30
0.0
 42
-0.33420095
  0
VERTEX
  5
B77
  8
CYAN
 10
3.625344769999999
 20
71.069374124999996
 30
0.0
 42
-0.05597798
  0
VERTEX
  5
B78
  8
CYAN
 10
5.9071842400000003
 20
72.363433090000001
 30
0.0
  0
VERTEX
  5
B79
  8
CYAN
 10
11.936361565
 20
74.557974220000006
 30
0.0
  0
VERTEX
  5
B7A
  8
CYAN
 10
13.116687965000001
 20
64.849263370000003
 30
0.0
  0
VERTEX
  5
B7B
  8
CYAN
 10
14.620592105
 20
65.032094580000006
 30
0.0
  0
VERTEX
  5
B7C
  8
CYAN
 10
13.386110009999999
 20
75.085641649999999
 30
0.0
  0
VERTEX
  5
B7D
  8
CYAN
 10
19.079719884999999
 20
77.157997019999996
 30
0.0
  0
VERTEX
  5
B7E
  8
CYAN
 10
18.561558574999999
 20
78.581635449999993
 30
0.0
  0
VERTEX
  5
B7F
  8
CYAN
 10
13.196642089999999
 20
76.628898419999999
 30
0.0
  0
VERTEX
  5
B80
  8
CYAN
 10
12.969694584999999
 20
78.477026719999998
 30
0.0
 42
-0.34161682
  0
VERTEX
  5
B81
  8
CYAN
 10
13.552090379999999
 20
79.459735510000002
 30
0.0
 42
-0.03752797
  0
VERTEX
  5
B82
  8
CYAN
 10
22.245494184999998
 20
83.278693474999997
 30
0.0
 42
-0.2217706
  0
VERTEX
  5
B83
  8
CYAN
 10
24.823632305
 20
83.026318715000002
 30
0.0
  0
VERTEX
  5
B84
  8
CYAN
 10
27.096347940000001
 20
81.682278890000006
 30
0.0
 42
0.26471557
  0
VERTEX
  5
B85
  8
CYAN
 10
28.115802949999999
 20
81.665463364999994
 30
0.0
 42
0.26471557
  0
VERTEX
  5
B86
  8
CYAN
 10
28.650616235000001
 20
82.533533654999999
 30
0.0
  0
VERTEX
  5
B87
  8
CYAN
 10
28.768883195000001
 20
85.949506670000005
 30
0.0
 42
-0.20548533
  0
VERTEX
  5
B88
  8
CYAN
 10
29.738145200000002
 20
88.008672502500005
 30
0.0
 42
-0.20548533
  0
VERTEX
  5
B89
  8
CYAN
 10
31.898348500000001
 20
88.725020505000003
 30
0.0
 42
-0.14216431
  0
VERTEX
  5
B8A
  8
CYAN
 10
33.480510975000001
 20
88.348367264999979
 30
0.0
 42
-0.2599528
  0
VERTEX
  5
B8B
  8
CYAN
 10
35.294676510000002
 20
85.390187354999995
 30
0.0
  0
VERTEX
  5
B8C
  8
CYAN
 10
35.91110072
 20
76.575208840000002
 30
0.0
 42
-0.20681193
  0
VERTEX
  5
B8D
  8
CYAN
 10
35.343253324999999
 20
74.886848189999995
 30
0.0
 42
-0.20681193
  0
VERTEX
  5
B8E
  8
CYAN
 10
33.724565355000003
 20
74.143301550000004
 30
0.0
  0
VERTEX
  5
B8F
  8
CYAN
 10
33.301677345000002
 20
80.190196799999995
 30
0.0
  0
VERTEX
  5
B90
  8
CYAN
 10
31.790375964999999
 20
80.084505855000003
 30
0.0
  0
VERTEX
  5
B91
  8
CYAN
 10
32.179297675000001
 20
74.523313544999993
 30
0.0
 42
0.06366618
  0
VERTEX
  5
B92
  8
CYAN
 10
31.548509750000001
 20
74.595572480000001
 30
0.0
 42
0.24093558
  0
VERTEX
  5
B93
  8
CYAN
 10
22.025692572499999
 20
70.137444957499994
 30
0.0
 42
0.24093558
  0
VERTEX
  5
B94
  8
CYAN
 10
20.068482615000001
 20
59.80650708999999
 30
0.0
  0
VERTEX
  5
B95
  8
CYAN
 10
25.027740680000001
 20
47.54102163999999
 30
0.0
 42
-0.40411554
  0
VERTEX
  5
B96
  8
CYAN
 10
24.334012990000002
 20
45.823461115000001
 30
0.0
 42
-0.40411554
  0
VERTEX
  5
B97
  8
CYAN
 10
22.593482614999999
 20
46.457358804999998
 30
0.0
  0
SEQEND
  5
B98
  8
CYAN
  0
POLYLINE
  5
257
  8
CYAN
 66
     1
 10
0.0
 20
0.0
 30
0.0
 70
     1
  0
VERTEX
  5
B99
  8
CYAN
 10
85.734079034999993
 20
63.298079614999999
 30
0.0
 42
0.39199276
  0
VERTEX
  5
B9A
  8
CYAN
 10
91.920652739999994
 20
62.07211585999999
 30
0.0
  0
VERTEX
  5
B9B
  8
CYAN
 10
93.445562355000007
 20
63.01029122500001
 30
0.0
 42
-0.38002162
  0
VERTEX
  5
B9C
  8
CYAN
 10
97.407981225000015
 20
62.310526359999997
 30
0.0
  0
VERTEX
  5
B9D
  8
CYAN
 10
99.007127354999994
 20
60.290685940000003
 30
0.0
 42
0.21051797
  0
VERTEX
  5
B9E
  8
CYAN
 10
108.177328425
 20
55.444653924999997
 30
0.0
  0
VERTEX
  5
B9F
  8
CYAN
 10
110.615870405
 20
55.270794039999998
 30
0.0
 42
0.23207471
  0
VERTEX
  5
BA0
  8
CYAN
 10
115.581709125
 20
57.282504969999998
 30
0.0
 42
0.15261174
  0
VERTEX
  5
BA1
  8
CYAN
 10
116.91705840500001
 20
61.508373755000001
 30
0.0
 42
0.22167856
  0
VERTEX
  5
BA2
  8
CYAN
 10
116.4899338875
 20
63.130722525000003
 30
0.0
 42
0.22167856
  0
VERTEX
  5
BA3
  8
CYAN
 10
114.9726362
 20
63.846444974999997
 30
0.0
  0
VERTEX
  5
BA4
  8
CYAN
 10
107.45505874
 20
64.709166269999997
 30
0.0
  0
VERTEX
  5
BA5
  8
CYAN
 10
107.627789445
 20
66.214276350000006
 30
0.0
  0
VERTEX
  5
BA6
  8
CYAN
 10
113.128834235
 20
65.582972315000006
 30
0.0
  0
VERTEX
  5
BA7
  8
CYAN
 10
113.04612129500001
 20
76.032110125000003
 30
0.0
  0
VERTEX
  5
BA8
  8
CYAN
 10
107.55571028999999
 20
75.313758734999993
 30
0.0
  0
VERTEX
  5
BA9
  8
CYAN
 10
107.359200145
 20
76.815968600000005
 30
0.0
  0
VERTEX
  5
BAA
  8
CYAN
 10
114.930470215
 20
77.806548320000005
 30
0.0
 42
0.21539894
  0
VERTEX
  5
BAB
  8
CYAN
 10
116.367589185
 20
78.584931255000001
 30
0.0
 42
0.21539894
  0
VERTEX
  5
BAC
  8
CYAN
 10
116.733462625
 20
80.177830360000002
 30
0.0
 42
0.15261204
  0
VERTEX
  5
BAD
  8
CYAN
 10
115.315292335
 20
84.376634175000007
 30
0.0
 42
0.23207468
  0
VERTEX
  5
BAE
  8
CYAN
 10
110.310833235
 20
86.290305919999994
 30
0.0
  0
VERTEX
  5
BAF
  8
CYAN
 10
107.87620551000001
 20
86.068519515000006
 30
0.0
 42
0.21051814
  0
VERTEX
  5
BB0
  8
CYAN
 10
98.803081094999996
 20
81.043103419999994
 30
0.0
  0
VERTEX
  5
BB1
  8
CYAN
 10
97.243973385000004
 20
78.992198430000002
 30
0.0
 42
-0.38002106
  0
VERTEX
  5
BB2
  8
CYAN
 10
93.2960566
 20
78.214670130000002
 30
0.0
  0
VERTEX
  5
BB3
  8
CYAN
 10
91.752961429999999
 20
79.122661644999994
 30
0.0
 42
0.39199202
  0
VERTEX
  5
BB4
  8
CYAN
 10
85.591708929999996
 20
77.775281245000002
 30
0.0
 42
-0.24957744
  0
VERTEX
  5
BB5
  8
CYAN
 10
80.038342604999997
 20
74.931233355000003
 30
0.0
 42
0.39023305
  0
VERTEX
  5
BB6
  8
CYAN
 10
78.793099549999994
 20
73.820716912500004
 30
0.0
 42
0.39023305
  0
VERTEX
  5
BB7
  8
CYAN
 10
79.797138950000004
 20
72.488132234999995
 30
0.0
 42
0.23228602
  0
VERTEX
  5
BB8
  8
CYAN
 10
87.326860144999998
 20
74.616728445000007
 30
0.0
 42
-0.22241254
  0
VERTEX
  5
BB9
  8
CYAN
 10
89.868076722500007
 20
75.386917817500006
 30
0.0
 42
-0.22241254
  0
VERTEX
  5
BBA
  8
CYAN
 10
92.087557765
 20
73.929221949999999
 30
0.0
  0
VERTEX
  5
BBB
  8
CYAN
 10
92.823574559999983
 20
72.734030369999999
 30
0.0
 42
-0.08843597
  0
VERTEX
  5
BBC
  8
CYAN
 10
93.354265424999994
 20
71.388044780000001
 30
0.0
  0
VERTEX
  5
BBD
  8
CYAN
 10
103.35204181
 20
71.467222719999995
 30
0.0
  0
VERTEX
  5
BBE
  8
CYAN
 10
103.366913555
 20
69.952295945000003
 30
0.0
  0
VERTEX
  5
BBF
  8
CYAN
 10
93.375964769999996
 20
69.873174059999997
 30
0.0
 42
-0.09069894
  0
VERTEX
  5
BC0
  8
CYAN
 10
92.865416335000006
 20
68.480563334999999
 30
0.0
  0
VERTEX
  5
BC1
  8
CYAN
 10
92.153025459999995
 20
67.271134290000006
 30
0.0
 42
-0.22241289
  0
VERTEX
  5
BC2
  8
CYAN
 10
89.962632894999985
 20
65.770066784999997
 30
0.0
 42
-0.22241289
  0
VERTEX
  5
BC3
  8
CYAN
 10
87.406753164999998
 20
66.490137649999994
 30
0.0
 42
0.23228607
  0
VERTEX
  5
BC4
  8
CYAN
 10
79.836622879999993
 20
68.470288100000005
 30
0.0
 42
0.39023418
  0
VERTEX
  5
BC5
  8
CYAN
 10
78.858973390000003
 20
67.118201202500003
 30
0.0
 42
0.39023418
  0
VERTEX
  5
BC6
  8
CYAN
 10
80.125832845000005
 20
66.032381409999999
 30
0.0
 42
-0.2495772
  0
VERTEX
  5
BC7
  8
CYAN
 10
85.734079034999993
 20
63.298079614999999
 30
0.0
  0
SEQEND
  5
BC8
  8
CYAN
  0
POLYLINE
  5
288
  8
CYAN
 66
     1
 10
0.0
 20
0.0
 30
0.0
 70
     1
  0
VERTEX
  5
BC9
  8
CYAN
 10
11.967924065
 20
99.813442359999996
 30
0.0
 42
0.06795893
  0
VERTEX
  5
BCA
  8
CYAN
 10
17.819839824999999
 20
98.764989134999993
 30
0.0
 42
0.045527
  0
VERTEX
  5
BCB
  8
CYAN
 10
45.67460912
 20
99.482607770000016
 30
0.0
  0
VERTEX
  5
BCC
  8
CYAN
 10
52.754718715000003
 20
100.498306695
 30
0.0
 42
-0.09467997
  0
VERTEX
  5
BCD
  8
CYAN
 10
63.457180180000002
 20
100.00232902499999
 30
0.0
  0
VERTEX
  5
BCE
  8
CYAN
 10
69.392332565000004
 20
98.580654034999995
 30
0.0
 42
0.2146734
  0
VERTEX
  5
BCF
  8
CYAN
 10
71.052576555000002
 20
98.896199722500015
 30
0.0
 42
0.2146734
  0
VERTEX
  5
BD0
  8
CYAN
 10
71.917270955000006
 20
100.348192415
 30
0.0
  0
VERTEX
  5
BD1
  8
CYAN
 10
73.059022929999983
 20
110.30329731
 30
0.0
 42
0.39739997
  0
VERTEX
  5
BD2
  8
CYAN
 10
71.214465989999994
 20
112.76861893500001
 30
0.0
  0
VERTEX
  5
BD3
  8
CYAN
 10
69.611020289999999
 20
113.04752639500001
 30
0.0
 42
0.20371299
  0
VERTEX
  5
BD4
  8
CYAN
 10
67.957530199999994
 20
112.66084904749999
 30
0.0
 42
0.20371299
  0
VERTEX
  5
BD5
  8
CYAN
 10
67.08853216
 20
111.20194834500001
 30
0.0
  0
VERTEX
  5
BD6
  8
CYAN
 10
66.721864789999998
 20
108.50840005000001
 30
0.0
 42
-0.27146552
  0
VERTEX
  5
BD7
  8
CYAN
 10
65.541775650000005
 20
107.00486414
 30
0.0
 42
-0.27146552
  0
VERTEX
  5
BD8
  8
CYAN
 10
63.653336320000001
 20
107.29986839
 30
0.0
 42
0.06238999
  0
VERTEX
  5
BD9
  8
CYAN
 10
41.485056905
 20
121.21343901500001
 30
0.0
 42
0.20720882
  0
VERTEX
  5
BDA
  8
CYAN
 10
29.636975164999999
 20
121.53623602499999
 30
0.0
 42
0.04451884
  0
VERTEX
  5
BDB
  8
CYAN
 10
10.075530495000001
 20
111.59041707
 30
0.0
 42
0.30134582
  0
VERTEX
  5
BDC
  8
CYAN
 10
7.1183193774999989
 20
105.0747071725
 30
0.0
 42
0.30134582
  0
VERTEX
  5
BDD
  8
CYAN
 10
11.967924065
 20
99.813442359999996
 30
0.0
  0
SEQEND
  5
BDE
  8
CYAN
  0
POLYLINE
  5
29F
  8
CYAN
 66
     1
 10
0.0
 20
0.0
 30
0.0
 70
     1
  0
VERTEX
  5
BDF
  8
CYAN
 10
31.8757245
 20
116.64897227500001
 30
0.0
 42
-0.3612333
  0
VERTEX
  5
BE0
  8
CYAN
 10
30.588944802499999
 20
118.3756739175
 30
0.0
 42
-0.3612333
  0
VERTEX
  5
BE1
  8
CYAN
 10
32.050735785000001
 20
119.956960635
 30
0.0
  0
VERTEX
  5
BE2
  8
CYAN
 10
32.949157550000002
 20
120.075643715
 30
0.0
 42
-0.11896878
  0
VERTEX
  5
BE3
  8
CYAN
 10
35.53527921500001
 20
119.801837765
 30
0.0
 42
-0.03135189
  0
VERTEX
  5
BE4
  8
CYAN
 10
42.823288220000002
 20
116.677541135
 30
0.0
 42
-0.39732741
  0
VERTEX
  5
BE5
  8
CYAN
 10
43.576684257499998
 20
114.59237077749999
 30
0.0
 42
-0.39732741
  0
VERTEX
  5
BE6
  8
CYAN
 10
41.538688409999999
 20
113.719379405
 30
0.0
 42
0.02866701
  0
VERTEX
  5
BE7
  8
CYAN
 10
31.8757245
 20
116.64897227500001
 30
0.0
  0
SEQEND
  5
BE8
  8
CYAN
  0
POLYLINE
  5
2AA
  8
CYAN
 66
     1
 10
0.0
 20
0.0
 30
0.0
 70
     1
  0
VERTEX
  5
BE9
  8
CYAN
 10
46.216349889999989
 20
110.49566999
 30
0.0
 42
-0.4102233
  0
VERTEX
  5
BEA
  8
CYAN
 10
45.029658342499999
 20
113.51564817249999
 30
0.0
 42
-0.4102233
  0
VERTEX
  5
BEB
  8
CYAN
 10
48.033166170000001
 20
114.74342901
 30
0.0
 42
-0.05736105
  0
VERTEX
  5
BEC
  8
CYAN
 10
57.016889425000002
 20
109.7757026
 30
0.0
 42
-0.35161223
  0
VERTEX
  5
BED
  8
CYAN
 10
57.455552480000001
 20
108.2201682
 30
0.0
 42
-0.35161223
  0
VERTEX
  5
BEE
  8
CYAN
 10
56.031978834999997
 20
107.45495540500001
 30
0.0
 42
-0.0587729
  0
VERTEX
  5
BEF
  8
CYAN
 10
46.216349889999989
 20
110.49566999
 30
0.0
  0
SEQEND
  5
BF0
  8
CYAN
  0
POLYLINE
  5
2B3
  8
CYAN
 66
     1
 10
0.0
 20
0.0
 30
0.0
 70
     1
  0
VERTEX
  5
BF1
  8
CYAN
 10
45.797899819999998
 20
102.540643855
 30
0.0
 42
0.073246
  0
VERTEX
  5
BF2
  8
CYAN
 10
56.868940080000002
 20
102.78063247999999
 30
0.0
 42
0.34153946
  0
VERTEX
  5
BF3
  8
CYAN
 10
57.833559119999997
 20
103.8272397275
 30
0.0
 42
0.34153946
  0
VERTEX
  5
BF4
  8
CYAN
 10
57.06330852
 20
105.02414851
 30
0.0
 42
0.03802194
  0
VERTEX
  5
BF5
  8
CYAN
 10
46.636617960000002
 20
107.850892575
 30
0.0
 42
0.2030848
  0
VERTEX
  5
BF6
  8
CYAN
 10
44.585400120000003
 20
107.409427385
 30
0.0
 42
0.2030848
  0
VERTEX
  5
BF7
  8
CYAN
 10
43.475553195000003
 20
105.628802225
 30
0.0
 42
0.2030848
  0
VERTEX
  5
BF8
  8
CYAN
 10
43.982589629999993
 20
103.5928011925
 30
0.0
 42
0.2030848
  0
VERTEX
  5
BF9
  8
CYAN
 10
45.797899819999998
 20
102.540643855
 30
0.0
  0
SEQEND
  5
BFA
  8
CYAN
  0
POLYLINE
  5
2BE
  8
CYAN
 66
     1
 10
0.0
 20
0.0
 30
0.0
 70
     1
  0
VERTEX
  5
BFB
  8
CYAN
 10
29.625231894999999
 20
108.9258785
 30
0.0
 42
0.07414108
  0
VERTEX
  5
BFC
  8
CYAN
 10
41.337169170000003
 20
108.99177191
 30
0.0
 42
0.34637759
  0
VERTEX
  5
BFD
  8
CYAN
 10
42.400650122499989
 20
110.13272517
 30
0.0
 42
0.34637759
  0
VERTEX
  5
BFE
  8
CYAN
 10
41.541308350000001
 20
111.43437711999999
 30
0.0
 42
0.09840594
  0
VERTEX
  5
BFF
  8
CYAN
 10
29.765352225000001
 20
112.90460281
 30
0.0
 42
0.38316065
  0
VERTEX
  5
C00
  8
CYAN
 10
27.9084751625
 20
110.9781677025
 30
0.0
 42
0.38316065
  0
VERTEX
  5
C01
  8
CYAN
 10
29.625231894999999
 20
108.9258785
 30
0.0
  0
SEQEND
  5
C02
  8
CYAN
  0
POLYLINE
  5
2C7
  8
CYAN
 66
     1
 10
0.0
 20
0.0
 30
0.0
 70
     1
  0
VERTEX
  5
C03
  8
CYAN
 10
29.469145484999999
 20
102.29199346999999
 30
0.0
 42
0.107224
  0
VERTEX
  5
C04
  8
CYAN
 10
39.884030660000001
 20
103.220591005
 30
0.0
 42
0.35704099
  0
VERTEX
  5
C05
  8
CYAN
 10
40.87953495499999
 20
104.73220148999999
 30
0.0
 42
0.35704099
  0
VERTEX
  5
C06
  8
CYAN
 10
39.594635865000001
 20
106.006967895
 30
0.0
 42
0.03456498
  0
VERTEX
  5
C07
  8
CYAN
 10
29.645174345000001
 20
106.27055214000001
 30
0.0
 42
0.39313648
  0
VERTEX
  5
C08
  8
CYAN
 10
28.157606449999999
 20
104.763902315
 30
0.0
  0
VERTEX
  5
C09
  8
CYAN
 10
28.130482395000001
 20
103.85539772
 30
0.0
 42
0.38669835
  0
VERTEX
  5
C0A
  8
CYAN
 10
29.469145484999999
 20
102.29199346999999
 30
0.0
  0
SEQEND
  5
C0B
  8
CYAN
  0
POLYLINE
  5
2D1
  8
CYAN
 66
     1
 10
0.0
 20
0.0
 30
0.0
 70
     1
  0
VERTEX
  5
C0C
  8
CYAN
 10
13.492047395
 20
102.98860157999999
 30
0.0
 42
0.04616086
  0
VERTEX
  5
C0D
  8
CYAN
 10
23.1305385
 20
102.831771305
 30
0.0
 42
0.33082537
  0
VERTEX
  5
C0E
  8
CYAN
 10
24.420686745000001
 20
103.95189615
 30
0.0
  0
VERTEX
  5
C0F
  8
CYAN
 10
24.646709595000001
 20
104.978018275
 30
0.0
 42
0.23722871
  0
VERTEX
  5
C10
  8
CYAN
 10
24.313055205000001
 20
106.2901526425
 30
0.0
 42
0.23722871
  0
VERTEX
  5
C11
  8
CYAN
 10
23.060879305
 20
106.805009295
 30
0.0
 42
0.05102594
  0
VERTEX
  5
C12
  8
CYAN
 10
13.314816635
 20
105.05440710000001
 30
0.0
 42
0.35844247
  0
VERTEX
  5
C13
  8
CYAN
 10
12.55379771
 20
103.94861203000001
 30
0.0
 42
0.35844247
  0
VERTEX
  5
C14
  8
CYAN
 10
13.492047395
 20
102.98860157999999
 30
0.0
  0
SEQEND
  5
C15
  8
CYAN
  0
POLYLINE
  5
2DC
  8
CYAN
 66
     1
 10
0.0
 20
0.0
 30
0.0
 70
     1
  0
VERTEX
  5
C16
  8
CYAN
 10
13.713878745000001
 20
107.386108755
 30
0.0
 42
-0.29767045
  0
VERTEX
  5
C17
  8
CYAN
 10
12.501828135
 20
107.60384926250001
 30
0.0
 42
-0.29767045
  0
VERTEX
  5
C18
  8
CYAN
 10
12.214167115
 20
108.80123338999999
 30
0.0
 42
-0.1723934
  0
VERTEX
  5
C19
  8
CYAN
 10
13.560473885
 20
110.451558745
 30
0.0
 42
-0.05114187
  0
VERTEX
  5
C1A
  8
CYAN
 10
22.954818195000001
 20
114.90736160500001
 30
0.0
 42
-0.24169269
  0
VERTEX
  5
C1B
  8
CYAN
 10
24.339292367500001
 20
114.7212779325
 30
0.0
 42
-0.24169269
  0
VERTEX
  5
C1C
  8
CYAN
 10
24.995007085000001
 20
113.487813675
 30
0.0
  0
VERTEX
  5
C1D
  8
CYAN
 10
25.017476554999998
 20
111.92020732
 30
0.0
 42
-0.36929672
  0
VERTEX
  5
C1E
  8
CYAN
 10
23.681032940000001
 20
110.311480835
 30
0.0
 42
0.05777501
  0
VERTEX
  5
C1F
  8
CYAN
 10
13.713878745000001
 20
107.386108755
 30
0.0
  0
SEQEND
  5
C20
  8
CYAN
  0
POLYLINE
  5
2E8
  8
CYAN
 66
     1
 10
0.0
 20
0.0
 30
0.0
 70
     1
  0
VERTEX
  5
C21
  8
CYAN
 10
2.7695202600000002
 20
226.17770164000001
 30
0.0
  0
VERTEX
  5
C22
  8
CYAN
 10
6.2414260649999989
 20
253.65268821000001
 30
0.0
 42
0.23476818
  0
VERTEX
  5
C23
  8
CYAN
 10
4.820713099999999
 20
257.711706005
 30
0.0
  0
VERTEX
  5
C24
  8
CYAN
 10
3.8420291600000001
 20
258.66622518999998
 30
0.0
 42
-0.27940226
  0
VERTEX
  5
C25
  8
CYAN
 10
3.0382948949999991
 20
261.77550109999999
 30
0.0
 42
-0.15530783
  0
VERTEX
  5
C26
  8
CYAN
 10
5.0328045149999987
 20
264.69030100499998
 30
0.0
  0
VERTEX
  5
C27
  8
CYAN
 10
5.2706943600000002
 20
264.90491994500002
 30
0.0
 42
-0.34194212
  0
VERTEX
  5
C28
  8
CYAN
 10
7.76477927
 20
265.27303616
 30
0.0
  0
VERTEX
  5
C29
  8
CYAN
 10
16.498159885
 20
260.3602588
 30
0.0
 42
-0.39739909
  0
VERTEX
  5
C2A
  8
CYAN
 10
17.413533995000002
 20
257.42050785499998
 30
0.0
  0
VERTEX
  5
C2B
  8
CYAN
 10
16.592816580000001
 20
255.74039053000001
 30
0.0
 42
-0.12831479
  0
VERTEX
  5
C2C
  8
CYAN
 10
15.854734840000001
 20
254.881021425
 30
0.0
  0
VERTEX
  5
C2D
  8
CYAN
 10
14.960474274999999
 20
254.26140662500001
 30
0.0
 42
0.25843973
  0
VERTEX
  5
C2E
  8
CYAN
 10
14.054626280000001
 20
252.42863459500001
 30
0.0
 42
0.25843973
  0
VERTEX
  5
C2F
  8
CYAN
 10
15.127718659999999
 20
250.68849476
 30
0.0
  0
VERTEX
  5
C30
  8
CYAN
 10
17.12198184
 20
249.56670088999999
 30
0.0
 42
-0.31177314
  0
VERTEX
  5
C31
  8
CYAN
 10
21.303704535000001
 20
240.99652667999999
 30
0.0
 42
-0.17759812
  0
VERTEX
  5
C32
  8
CYAN
 10
10.812810295
 20
221.88503195999999
 30
0.0
 42
-0.31138841
  0
VERTEX
  5
C33
  8
CYAN
 10
5.3109521925000003
 20
221.25785193499999
 30
0.0
 42
-0.31138841
  0
VERTEX
  5
C34
  8
CYAN
 10
2.7695202600000002
 20
226.17770164000001
 30
0.0
  0
SEQEND
  5
C35
  8
CYAN
  0
POLYLINE
  5
2FE
  8
CYAN
 66
     1
 10
0.0
 20
0.0
 30
0.0
 70
     1
  0
VERTEX
  5
C36
  8
CYAN
 10
10.54770398
 20
232.51653941000001
 30
0.0
 42
-0.4124142700000001
  0
VERTEX
  5
C37
  8
CYAN
 10
9.6848210849999994
 20
230.98430981999999
 30
0.0
 42
-0.1007276
  0
VERTEX
  5
C38
  8
CYAN
 10
8.4414312949999992
 20
230.89113227000001
 30
0.0
 42
-0.31257586
  0
VERTEX
  5
C39
  8
CYAN
 10
6.5118343750000003
 20
232.62454274999999
 30
0.0
 42
-0.16285721
  0
VERTEX
  5
C3A
  8
CYAN
 10
7.0914254000000003
 20
239.05534051500001
 30
0.0
 42
-0.33220873
  0
VERTEX
  5
C3B
  8
CYAN
 10
8.2276391924999999
 20
239.70070033499999
 30
0.0
 42
-0.33220873
  0
VERTEX
  5
C3C
  8
CYAN
 10
9.1690024700000006
 20
238.79444085
 30
0.0
 42
0.026632
  0
VERTEX
  5
C3D
  8
CYAN
 10
10.54770398
 20
232.51653941000001
 30
0.0
  0
SEQEND
  5
C3E
  8
CYAN
  0
POLYLINE
  5
308
  8
CYAN
 66
     1
 10
0.0
 20
0.0
 30
0.0
 70
     1
  0
VERTEX
  5
C3F
  8
CYAN
 10
11.508079145
 20
195.68934371
 30
0.0
  0
VERTEX
  5
C40
  8
CYAN
 10
23.5896744
 20
193.41922478500001
 30
0.0
 42
0.23396322
  0
VERTEX
  5
C41
  8
CYAN
 10
25.836278717500001
 20
194.05047308499999
 30
0.0
 42
0.23396322
  0
VERTEX
  5
C42
  8
CYAN
 10
26.69657681
 20
196.21971087
 30
0.0
  0
VERTEX
  5
C43
  8
CYAN
 10
17.21065883
 20
198.00207503999999
 30
0.0
  0
VERTEX
  5
C44
  8
CYAN
 10
17.49043691
 20
199.491037745
 30
0.0
  0
VERTEX
  5
C45
  8
CYAN
 10
25.883472775000001
 20
197.91399899999999
 30
0.0
 42
-0.36129745
  0
VERTEX
  5
C46
  8
CYAN
 10
32.214466379999998
 20
199.42420604500001
 30
0.0
 42
0.14618135
  0
VERTEX
  5
C47
  8
CYAN
 10
34.874223610000001
 20
198.97054131499999
 30
0.0
 42
-0.05525202
  0
VERTEX
  5
C48
  8
CYAN
 10
49.056851164999991
 20
199.126219685
 30
0.0
 42
0.28145138
  0
VERTEX
  5
C49
  8
CYAN
 10
53.236231670000002
 20
201.14143430499999
 30
0.0
 42
-0.05024297
  0
VERTEX
  5
C4A
  8
CYAN
 10
57.19273295
 20
206.10268762499999
 30
0.0
 42
-0.25799634
  0
VERTEX
  5
C4B
  8
CYAN
 10
62.973987594999997
 20
207.84178491
 30
0.0
 42
-0.09320195
  0
VERTEX
  5
C4C
  8
CYAN
 10
69.382639089999984
 20
205.14254374999999
 30
0.0
 42
-0.07543302
  0
VERTEX
  5
C4D
  8
CYAN
 10
77.706385420000004
 20
197.61689083499999
 30
0.0
 42
0.21952375
  0
VERTEX
  5
C4E
  8
CYAN
 10
83.855416919999996
 20
194.620179425
 30
0.0
 42
0.27544312
  0
VERTEX
  5
C4F
  8
CYAN
 10
86.563826627500006
 20
196.15752890249999
 30
0.0
 42
0.27544312
  0
VERTEX
  5
C50
  8
CYAN
 10
86.499716605000003
 20
199.27117892499999
 30
0.0
 42
0.01260999
  0
VERTEX
  5
C51
  8
CYAN
 10
84.268195334999987
 20
202.65234229000001
 30
0.0
  0
VERTEX
  5
C52
  8
CYAN
 10
81.834476609999996
 20
200.98851475000001
 30
0.0
  0
VERTEX
  5
C53
  8
CYAN
 10
80.979453535000005
 20
202.239194215
 30
0.0
  0
VERTEX
  5
C54
  8
CYAN
 10
83.390224555000003
 20
203.88731777000001
 30
0.0
 42
0.01746398
  0
VERTEX
  5
C55
  8
CYAN
 10
79.940356949999995
 20
208.31078346000001
 30
0.0
  0
VERTEX
  5
C56
  8
CYAN
 10
78.218228170000003
 20
206.30449218999999
 30
0.0
  0
VERTEX
  5
C57
  8
CYAN
 10
77.068585569999996
 20
207.291236435
 30
0.0
  0
VERTEX
  5
C58
  8
CYAN
 10
78.944566135000002
 20
209.4767315
 30
0.0
 42
0.01130994
  0
VERTEX
  5
C59
  8
CYAN
 10
76.497254830000003
 20
212.16242603500001
 30
0.0
  0
VERTEX
  5
C5A
  8
CYAN
 10
75.727734315000006
 20
212.92413318999999
 30
0.0
  0
VERTEX
  5
C5B
  8
CYAN
 10
74.505426760000006
 20
210.68619337000001
 30
0.0
  0
VERTEX
  5
C5C
  8
CYAN
 10
73.175825895000003
 20
211.41238488499999
 30
0.0
  0
VERTEX
  5
C5D
  8
CYAN
 10
74.553048259999997
 20
213.934040775
 30
0.0
 42
0.06853895
  0
VERTEX
  5
C5E
  8
CYAN
 10
70.143021125000004
 20
216.52937818500001
 30
0.0
  0
VERTEX
  5
C5F
  8
CYAN
 10
69.363112760000007
 20
213.83271101
 30
0.0
  0
VERTEX
  5
C60
  8
CYAN
 10
67.907785579999995
 20
214.25364164000001
 30
0.0
  0
VERTEX
  5
C61
  8
CYAN
 10
68.718500965000004
 20
217.056770895
 30
0.0
 42
0.04743082
  0
VERTEX
  5
C62
  8
CYAN
 10
65.253730809999993
 20
217.82883459000001
 30
0.0
  0
VERTEX
  5
C63
  8
CYAN
 10
63.663369154999991
 20
217.98927460499999
 30
0.0
  0
VERTEX
  5
C64
  8
CYAN
 10
63.477138285000002
 20
215.06280061499999
 30
0.0
  0
VERTEX
  5
C65
  8
CYAN
 10
61.965174345000001
 20
215.15902937499999
 30
0.0
  0
VERTEX
  5
C66
  8
CYAN
 10
62.150526515000003
 20
218.07103966
 30
0.0
 42
0.02301988
  0
VERTEX
  5
C67
  8
CYAN
 10
59.073907439999999
 20
218.02579216500001
 30
0.0
 42
0.04445397
  0
VERTEX
  5
C68
  8
CYAN
 10
56.826651380000001
 20
217.687103815
 30
0.0
  0
VERTEX
  5
C69
  8
CYAN
 10
57.301444805000003
 20
214.64807289999999
 30
0.0
  0
VERTEX
  5
C6A
  8
CYAN
 10
55.804599555000003
 20
214.41419730000001
 30
0.0
  0
VERTEX
  5
C6B
  8
CYAN
 10
55.363525989999999
 20
217.23733061499999
 30
0.0
 42
0.09659694
  0
VERTEX
  5
C6C
  8
CYAN
 10
51.185686744999998
 20
214.67229977
 30
0.0
  0
VERTEX
  5
C6D
  8
CYAN
 10
52.505701700000003
 20
210.92070021999999
 30
0.0
  0
VERTEX
  5
C6E
  8
CYAN
 10
51.076604725000003
 20
210.41785808500001
 30
0.0
  0
VERTEX
  5
C6F
  8
CYAN
 10
50.01285
 20
213.44110774999999
 30
0.0
 42
0.05155088
  0
VERTEX
  5
C70
  8
CYAN
 10
48.543898929999997
 20
211.25513495499999
 30
0.0
 42
0.03213792
  0
VERTEX
  5
C71
  8
CYAN
 10
47.120381194999993
 20
209.312831225
 30
0.0
 42
-0.19887428
  0
VERTEX
  5
C72
  8
CYAN
 10
43.307390814999991
 20
206.64813509499999
 30
0.0
 42
-0.12291007
  0
VERTEX
  5
C73
  8
CYAN
 10
38.141034775000001
 20
206.78905685999999
 30
0.0
 42
-0.21675455
  0
VERTEX
  5
C74
  8
CYAN
 10
36.135962509999999
 20
208.473707615
 30
0.0
 42
-0.21675455
  0
VERTEX
  5
C75
  8
CYAN
 10
36.088270375
 20
211.09212095500001
 30
0.0
  0
VERTEX
  5
C76
  8
CYAN
 10
36.160518705000001
 20
211.25898760000001
 30
0.0
  0
VERTEX
  5
C77
  8
CYAN
 10
26.781555180000002
 20
214.06244056
 30
0.0
  0
VERTEX
  5
C78
  8
CYAN
 10
27.215447139999998
 20
215.513976705
 30
0.0
  0
VERTEX
  5
C79
  8
CYAN
 10
36.766802009999999
 20
212.65898799000001
 30
0.0
  0
VERTEX
  5
C7A
  8
CYAN
 10
37.017144649999999
 20
213.236876155
 30
0.0
 42
0.21320622
  0
VERTEX
  5
C7B
  8
CYAN
 10
36.997239215
 20
214.97756445249999
 30
0.0
 42
0.21320622
  0
VERTEX
  5
C7C
  8
CYAN
 10
35.687481669999997
 20
216.12426718500001
 30
0.0
  0
VERTEX
  5
C7D
  8
CYAN
 10
25.161881305000001
 20
219.42406646500001
 30
0.0
 42
0.30486487
  0
VERTEX
  5
C7E
  8
CYAN
 10
21.353945974999998
 20
218.31571115
 30
0.0
  0
VERTEX
  5
C7F
  8
CYAN
 10
15.183014645
 20
211.12654226000001
 30
0.0
 42
-0.20681185
  0
VERTEX
  5
C80
  8
CYAN
 10
13.5926230625
 20
210.3242838475
 30
0.0
 42
-0.20681185
  0
VERTEX
  5
C81
  8
CYAN
 10
11.91845376
 20
210.93265962999999
 30
0.0
  0
VERTEX
  5
C82
  8
CYAN
 10
7.9703051800000004
 20
206.33308023999999
 30
0.0
  0
VERTEX
  5
C83
  8
CYAN
 10
6.8207398450000003
 20
207.319824485
 30
0.0
  0
VERTEX
  5
C84
  8
CYAN
 10
11.085961765
 20
212.28885328999999
 30
0.0
 42
0.21443302
  0
VERTEX
  5
C85
  8
CYAN
 10
9.3893298000000005
 20
213.4443895725
 30
0.0
 42
0.21443302
  0
VERTEX
  5
C86
  8
CYAN
 10
7.398882529999999
 20
212.94244954000001
 30
0.0
 42
0.07999187
  0
VERTEX
  5
C87
  8
CYAN
 10
3.9763238099999989
 20
209.20659286
 30
0.0
 42
0.15322521
  0
VERTEX
  5
C88
  8
CYAN
 10
3.014869459999999
 20
205.83673392
 30
0.0
 42
-0.2163833
  0
VERTEX
  5
C89
  8
CYAN
 10
2.2126764549999991
 20
203.93968576500001
 30
0.0
 42
0.41134662
  0
VERTEX
  5
C8A
  8
CYAN
 10
2.1032413600000002
 20
201.5481796025
 30
0.0
 42
0.41134662
  0
VERTEX
  5
C8B
  8
CYAN
 10
4.4935604649999989
 20
201.41531752
 30
0.0
  0
VERTEX
  5
C8C
  8
CYAN
 10
5.8339804500000003
 20
202.602763915
 30
0.0
 42
-0.30877501
  0
VERTEX
  5
C8D
  8
CYAN
 10
7.9030212425000004
 20
202.86484901
 30
0.0
 42
-0.30877501
  0
VERTEX
  5
C8E
  8
CYAN
 10
8.9007828300000007
 20
201.03343147000001
 30
0.0
  0
VERTEX
  5
C8F
  8
CYAN
 10
8.7360351650000005
 20
199.39338337000001
 30
0.0
 42
0.38935724
  0
VERTEX
  5
C90
  8
CYAN
 10
11.508079145
 20
195.68934371
 30
0.0
  0
SEQEND
  5
C91
  8
CYAN
  0
POLYLINE
  5
35C
  8
CYAN
 66
     1
 10
0.0
 20
0.0
 30
0.0
 70
     1
  0
VERTEX
  5
C92
  8
CYAN
 10
52.426240960000001
 20
58.551094259999999
 30
0.0
 42
-0.20517912
  0
VERTEX
  5
C93
  8
CYAN
 10
77.443991460000007
 20
54.92234303
 30
0.0
 42
0.14186507
  0
VERTEX
  5
C94
  8
CYAN
 10
88.635363119999994
 20
51.861959200000001
 30
0.0
 42
0.4105056900000001
  0
VERTEX
  5
C95
  8
CYAN
 10
90.330896997500005
 20
53.586798207500003
 30
0.0
 42
0.4105056900000001
  0
VERTEX
  5
C96
  8
CYAN
 10
88.627688634999984
 20
55.3040594
 30
0.0
 42
-0.09280999
  0
VERTEX
  5
C97
  8
CYAN
 10
80.864638754999987
 20
56.841739455000003
 30
0.0
 42
0.00980802
  0
VERTEX
  5
C98
  8
CYAN
 10
69.830801844999996
 20
61.007734935000002
 30
0.0
 42
0.08589002
  0
VERTEX
  5
C99
  8
CYAN
 10
62.003779575000003
 20
62.351647499999999
 30
0.0
 42
0.03740301
  0
VERTEX
  5
C9A
  8
CYAN
 10
53.443792225000003
 20
61.699077914999997
 30
0.0
 42
-0.25142652
  0
VERTEX
  5
C9B
  8
CYAN
 10
52.639698705000001
 20
61.98512007499999
 30
0.0
 42
-0.25142652
  0
VERTEX
  5
C9C
  8
CYAN
 10
52.433730615000002
 20
62.813349305000003
 30
0.0
 42
0.10944068
  0
VERTEX
  5
C9D
  8
CYAN
 10
52.466618740000001
 20
63.876389455000002
 30
0.0
 42
0.10944104
  0
VERTEX
  5
C9E
  8
CYAN
 10
52.047428844999992
 20
64.853850284999993
 30
0.0
 42
-0.25142976
  0
VERTEX
  5
C9F
  8
CYAN
 10
51.93634829749999
 20
65.700031037499997
 30
0.0
 42
-0.25142976
  0
VERTEX
  5
CA0
  8
CYAN
 10
52.580200310000002
 20
66.260223269999997
 30
0.0
 42
0.03740301
  0
VERTEX
  5
CA1
  8
CYAN
 10
60.786249824999999
 20
68.782096815000003
 30
0.0
 42
0.08589018
  0
VERTEX
  5
CA2
  8
CYAN
 10
67.580216824999994
 20
72.894347164999999
 30
0.0
 42
0.00980802
  0
VERTEX
  5
CA3
  8
CYAN
 10
76.327375355000001
 20
80.805628179999999
 30
0.0
 42
-0.09280998
  0
VERTEX
  5
CA4
  8
CYAN
 10
82.990946304999994
 20
85.074820410000015
 30
0.0
 42
0.41050105
  0
VERTEX
  5
CA5
  8
CYAN
 10
83.948486272500006
 20
87.295833512499996
 30
0.0
 42
0.41050105
  0
VERTEX
  5
CA6
  8
CYAN
 10
81.739804765000002
 20
88.281484559999996
 30
0.0
 42
0.14186499
  0
VERTEX
  5
CA7
  8
CYAN
 10
72.441782134999997
 20
81.341681135000016
 30
0.0
 42
-0.20519613
  0
VERTEX
  5
CA8
  8
CYAN
 10
50.480092159999998
 20
68.818114929999993
 30
0.0
  0
VERTEX
  5
CA9
  8
CYAN
 10
32.527810295000002
 20
65.418987705000006
 30
0.0
 42
0.30023429
  0
VERTEX
  5
CAA
  8
CYAN
 10
30.132574085000002
 20
63.09420252999999
 30
0.0
 42
0.07439907
  0
VERTEX
  5
CAB
  8
CYAN
 10
29.946712874999999
 20
60.383478175
 30
0.0
  0
VERTEX
  5
CAC
  8
CYAN
 10
35.900251300000001
 20
61.510704834999991
 30
0.0
  0
VERTEX
  5
CAD
  8
CYAN
 10
36.182094829999997
 20
60.022165825000002
 30
0.0
  0
VERTEX
  5
CAE
  8
CYAN
 10
30.228556404999999
 20
58.894939164999997
 30
0.0
 42
0.07439806
  0
VERTEX
  5
CAF
  8
CYAN
 10
31.392454144999999
 20
56.439800865000002
 30
0.0
 42
0.30023795
  0
VERTEX
  5
CB0
  8
CYAN
 10
34.471863345000003
 20
55.151560005
 30
0.0
  0
VERTEX
  5
CB1
  8
CYAN
 10
52.426240960000001
 20
58.551094259999999
 30
0.0
  0
SEQEND
  5
CB2
  8
CYAN
  0
POLYLINE
  5
37E
  8
CYAN
 66
     1
 10
0.0
 20
0.0
 30
0.0
 70
     1
  0
VERTEX
  5
CB3
  8
CYAN
 10
95.714085984999997
 20
262.68705337
 30
0.0
  0
VERTEX
  5
CB4
  8
CYAN
 10
95.213663304999983
 20
261.00627298000001
 30
0.0
 42
0.25292132
  0
VERTEX
  5
CB5
  8
CYAN
 10
95.666480644999979
 20
258.84032747499998
 30
0.0
  0
VERTEX
  5
CB6
  8
CYAN
 10
99.745039919999996
 20
262.55130987500002
 30
0.0
  0
VERTEX
  5
CB7
  8
CYAN
 10
100.75647311
 20
261.43970286500002
 30
0.0
  0
VERTEX
  5
CB8
  8
CYAN
 10
96.519592799999984
 20
257.58470103000002
 30
0.0
 42
0.15288818
  0
VERTEX
  5
CB9
  8
CYAN
 10
101.957388865
 20
254.0370326
 30
0.0
  0
VERTEX
  5
CBA
  8
CYAN
 10
104.15838036
 20
260.81131924499999
 30
0.0
  0
VERTEX
  5
CBB
  8
CYAN
 10
105.587708625
 20
260.34691265999999
 30
0.0
  0
VERTEX
  5
CBC
  8
CYAN
 10
103.462726195
 20
253.80652484500001
 30
0.0
 42
0.37564757
  0
VERTEX
  5
CBD
  8
CYAN
 10
107.311809935
 20
255.41112648999999
 30
0.0
 42
0.11395995
  0
VERTEX
  5
CBE
  8
CYAN
 10
108.50341752999999
 20
260.49538568999998
 30
0.0
 42
-0.22415578
  0
VERTEX
  5
CBF
  8
CYAN
 10
109.47097356250001
 20
262.52793656749998
 30
0.0
 42
-0.22415578
  0
VERTEX
  5
CC0
  8
CYAN
 10
111.65513667
 20
263.07278449
 30
0.0
  0
VERTEX
  5
CC1
  8
CYAN
 10
116.05654901
 20
262.19624690000001
 30
0.0
 42
0.36831989
  0
VERTEX
  5
CC2
  8
CYAN
 10
117.55351748
 20
263.032083005
 30
0.0
 42
0.04045892
  0
VERTEX
  5
CC3
  8
CYAN
 10
118.009463295
 20
264.61566352
 30
0.0
  0
VERTEX
  5
CC4
  8
CYAN
 10
111.76893438
 20
265.79506577000001
 30
0.0
  0
VERTEX
  5
CC5
  8
CYAN
 10
112.05026887
 20
267.28369669
 30
0.0
  0
VERTEX
  5
CC6
  8
CYAN
 10
118.198715075
 20
266.12172501999999
 30
0.0
 42
0.02926196
  0
VERTEX
  5
CC7
  8
CYAN
 10
118.189205925
 20
267.31441180000002
 30
0.0
 42
0.34260981
  0
VERTEX
  5
CC8
  8
CYAN
 10
116.56369122
 20
269.12988730500001
 30
0.0
 42
-0.21114677
  0
VERTEX
  5
CC9
  8
CYAN
 10
112.23970548
 20
272.06647896999999
 30
0.0
  0
VERTEX
  5
CCA
  8
CYAN
 10
104.52551031
 20
268.42036280999997
 30
0.0
  0
VERTEX
  5
CCB
  8
CYAN
 10
103.883287165
 20
269.77907591500002
 30
0.0
  0
VERTEX
  5
CCC
  8
CYAN
 10
111.59748284
 20
273.42520773000001
 30
0.0
 42
-0.21114612
  0
VERTEX
  5
CCD
  8
CYAN
 10
112.07324738
 20
278.63038463499998
 30
0.0
 42
0.3438574
  0
VERTEX
  5
CCE
  8
CYAN
 10
111.695838155
 20
281.04496234499999
 30
0.0
 42
0.02904404
  0
VERTEX
  5
CCF
  8
CYAN
 10
110.78673664999999
 20
281.80335619499999
 30
0.0
  0
VERTEX
  5
CD0
  8
CYAN
 10
107.781672035
 20
276.31490257000002
 30
0.0
  0
VERTEX
  5
CD1
  8
CYAN
 10
106.45281049
 20
277.04248889500002
 30
0.0
  0
VERTEX
  5
CD2
  8
CYAN
 10
109.50292262000001
 20
282.61314692500002
 30
0.0
 42
0.04066403
  0
VERTEX
  5
CD3
  8
CYAN
 10
107.98200452499999
 20
283.26873136
 30
0.0
 42
0.36653164
  0
VERTEX
  5
CD4
  8
CYAN
 10
106.393800735
 20
282.63997807999999
 30
0.0
  0
VERTEX
  5
CD5
  8
CYAN
 10
104.277032635
 20
278.68264456000003
 30
0.0
 42
-0.22415395
  0
VERTEX
  5
CD6
  8
CYAN
 10
102.46958426250001
 20
277.34083894499997
 30
0.0
 42
-0.22415395
  0
VERTEX
  5
CD7
  8
CYAN
 10
100.28488492
 20
277.88342600499999
 30
0.0
 42
0.11396009
  0
VERTEX
  5
CD8
  8
CYAN
 10
95.599980224999996
 20
280.19010844500002
 30
0.0
 42
0.37564491
  0
VERTEX
  5
CD9
  8
CYAN
 10
91.916738484999996
 20
278.23455906999999
 30
0.0
  0
VERTEX
  5
CDA
  8
CYAN
 10
97.123210210000011
 20
276.19366115999998
 30
0.0
  0
VERTEX
  5
CDB
  8
CYAN
 10
96.574734759999984
 20
274.79441574499998
 30
0.0
  0
VERTEX
  5
CDC
  8
CYAN
 10
91.139326839999995
 20
276.92513143999997
 30
0.0
 42
0.15288776
  0
VERTEX
  5
CDD
  8
CYAN
 10
90.428677205
 20
270.47143242999999
 30
0.0
  0
VERTEX
  5
CDE
  8
CYAN
 10
97.368158440000002
 20
271.48345091499999
 30
0.0
  0
VERTEX
  5
CDF
  8
CYAN
 10
97.585012004999996
 20
269.99633045000002
 30
0.0
  0
VERTEX
  5
CE0
  8
CYAN
 10
90.857314134999996
 20
269.01516493999998
 30
0.0
 42
0.25292568
  0
VERTEX
  5
CE1
  8
CYAN
 10
92.243505804999984
 20
267.29030814999999
 30
0.0
  0
VERTEX
  5
CE2
  8
CYAN
 10
93.859897180000004
 20
266.61003477000003
 30
0.0
 42
-0.38263548
  0
VERTEX
  5
CE3
  8
CYAN
 10
95.714085984999997
 20
262.68705337
 30
0.0
  0
SEQEND
  5
CE4
  8
CYAN
  0
POLYLINE
  5
3B1
  8
CYAN
 66
     1
 10
0.0
 20
0.0
 30
0.0
 70
     1
  0
VERTEX
  5
CE5
  8
CYAN
 10
72.362783469999997
 20
251.10241346500001
 30
0.0
  0
VERTEX
  5
CE6
  8
CYAN
 10
72.491915000000006
 20
264.111819465
 30
0.0
  0
VERTEX
  5
CE7
  8
CYAN
 10
75.228651905000007
 20
264.48434331999999
 30
0.0
  0
VERTEX
  5
CE8
  8
CYAN
 10
76.375782634999993
 20
258.29488808500003
 30
0.0
  0
VERTEX
  5
CE9
  8
CYAN
 10
77.865430625000002
 20
258.57096704000003
 30
0.0
  0
VERTEX
  5
CEA
  8
CYAN
 10
75.550164194999994
 20
271.06315203999998
 30
0.0
 42
0.10592392
  0
VERTEX
  5
CEB
  8
CYAN
 10
73.869183824999993
 20
275.25971618
 30
0.0
 42
-0.27400682
  0
VERTEX
  5
CEC
  8
CYAN
 10
73.741053710000003
 20
277.49795647500002
 30
0.0
 42
-0.07912476
  0
VERTEX
  5
CED
  8
CYAN
 10
77.265835539999998
 20
282.27545292000002
 30
0.0
 42
-0.24828672
  0
VERTEX
  5
CEE
  8
CYAN
 10
79.178110454999995
 20
282.84713766499999
 30
0.0
  0
VERTEX
  5
CEF
  8
CYAN
 10
82.764522485000001
 20
282.13423825500001
 30
0.0
 42
0.13926664
  0
VERTEX
  5
CF0
  8
CYAN
 10
84.478175344999997
 20
282.272509275
 30
0.0
  0
VERTEX
  5
CF1
  8
CYAN
 10
86.642595244999995
 20
283.08049664999999
 30
0.0
 42
-0.28364827
  0
VERTEX
  5
CF2
  8
CYAN
 10
87.655418132500003
 20
282.87994032500001
 30
0.0
 42
-0.28364827
  0
VERTEX
  5
CF3
  8
CYAN
 10
87.930570474999996
 20
281.88478996999999
 30
0.0
 42
-0.1681802
  0
VERTEX
  5
CF4
  8
CYAN
 10
85.241115204999986
 20
278.08744196499998
 30
0.0
 42
-0.37204187
  0
VERTEX
  5
CF5
  8
CYAN
 10
84.206025795000002
 20
278.18192898000001
 30
0.0
  0
VERTEX
  5
CF6
  8
CYAN
 10
83.232781715000002
 20
279.19088110500002
 30
0.0
 42
0.14412421
  0
VERTEX
  5
CF7
  8
CYAN
 10
82.007746655000005
 20
279.88759879999998
 30
0.0
 42
0.21655232
  0
VERTEX
  5
CF8
  8
CYAN
 10
79.447072270000007
 20
279.38002194000001
 30
0.0
 42
0.21655232
  0
VERTEX
  5
CF9
  8
CYAN
 10
78.145270315000005
 20
277.11728040499997
 30
0.0
 42
0.07381499
  0
VERTEX
  5
CFA
  8
CYAN
 10
78.227937299999994
 20
275.52243384500002
 30
0.0
 42
0.15019406
  0
VERTEX
  5
CFB
  8
CYAN
 10
80.693480115
 20
270.98046990500001
 30
0.0
 42
0.40864795
  0
VERTEX
  5
CFC
  8
CYAN
 10
84.400902770000016
 20
270.98259696500003
 30
0.0
 42
-0.39619222
  0
VERTEX
  5
CFD
  8
CYAN
 10
86.231132657499984
 20
271.02288240249999
 30
0.0
 42
-0.39619222
  0
VERTEX
  5
CFE
  8
CYAN
 10
86.384593269999996
 20
269.19865264999999
 30
0.0
 42
0.078353
  0
VERTEX
  5
CFF
  8
CYAN
 10
83.981774990000005
 20
264.944110975
 30
0.0
 42
0.35139488
  0
VERTEX
  5
D00
  8
CYAN
 10
86.945737149999999
 20
255.94317328
 30
0.0
  0
VERTEX
  5
D01
  8
CYAN
 10
88.043889949999993
 20
255.22865585
 30
0.0
 42
-0.34502616
  0
VERTEX
  5
D02
  8
CYAN
 10
89.239766189999983
 20
251.73132598000001
 30
0.0
 42
-0.34502616
  0
VERTEX
  5
D03
  8
CYAN
 10
86.130629275000004
 20
249.732650455
 30
0.0
 42
0.00729702
  0
VERTEX
  5
D04
  8
CYAN
 10
73.26448723
 20
250.74540927000001
 30
0.0
 42
-0.15781277
  0
VERTEX
  5
D05
  8
CYAN
 10
72.362783469999997
 20
251.10241346500001
 30
0.0
  0
SEQEND
  5
D06
  8
CYAN
  0
POLYLINE
  5
3D4
  8
CYAN
 66
     1
 10
0.0
 20
0.0
 30
0.0
 70
     1
  0
VERTEX
  5
D07
  8
CYAN
 10
40.802795340000003
 20
218.04087197000001
 30
0.0
 42
0.10592409
  0
VERTEX
  5
D08
  8
CYAN
 10
38.75767462000001
 20
222.072511695
 30
0.0
  0
VERTEX
  5
D09
  8
CYAN
 10
30.89605379
 20
232.05304233000001
 30
0.0
  0
VERTEX
  5
D0A
  8
CYAN
 10
29.705956650000001
 20
231.11558356
 30
0.0
  0
VERTEX
  5
D0B
  8
CYAN
 10
33.601120629999997
 20
226.17055084
 30
0.0
  0
VERTEX
  5
D0C
  8
CYAN
 10
31.515806959999999
 20
224.35940571
 30
0.0
  0
VERTEX
  5
D0D
  8
CYAN
 10
21.653049899999999
 20
232.84395413999999
 30
0.0
 42
-0.15781265
  0
VERTEX
  5
D0E
  8
CYAN
 10
21.979524319999999
 20
233.757155235
 30
0.0
 42
0.00729712
  0
VERTEX
  5
D0F
  8
CYAN
 10
29.705524874999998
 20
244.095230415
 30
0.0
 42
-0.34502564
  0
VERTEX
  5
D10
  8
CYAN
 10
33.25862030750001
 20
245.11349233999999
 30
0.0
 42
-0.34502564
  0
VERTEX
  5
D11
  8
CYAN
 10
35.098212320000002
 20
241.90767797999999
 30
0.0
  0
VERTEX
  5
D12
  8
CYAN
 10
34.910871964999998
 20
240.61097988500001
 30
0.0
 42
0.35139314
  0
VERTEX
  5
D13
  8
CYAN
 10
39.720577814999999
 20
232.44592475499999
 30
0.0
 42
0.0783529
  0
VERTEX
  5
D14
  8
CYAN
 10
44.50322122
 20
231.445340985
 30
0.0
 42
-0.39618721
  0
VERTEX
  5
D15
  8
CYAN
 10
45.773017742500002
 20
230.12666086749999
 30
0.0
 42
-0.39618721
  0
VERTEX
  5
D16
  8
CYAN
 10
44.535461429999991
 20
228.77767797999999
 30
0.0
 42
0.4086491900000001
  0
VERTEX
  5
D17
  8
CYAN
 10
42.088258195000002
 20
225.99267266999999
 30
0.0
 42
0.15019385
  0
VERTEX
  5
D18
  8
CYAN
 10
43.875515815
 20
221.14352884499999
 30
0.0
 42
0.07381469
  0
VERTEX
  5
D19
  8
CYAN
 10
45.019625634999997
 20
220.02937915999999
 30
0.0
 42
0.2165537
  0
VERTEX
  5
D1A
  8
CYAN
 10
47.5790033575
 20
219.51517268750001
 30
0.0
 42
0.2165537
  0
VERTEX
  5
D1B
  8
CYAN
 10
49.649634810000002
 20
221.10492361499999
 30
0.0
 42
0.14412276
  0
VERTEX
  5
D1C
  8
CYAN
 10
49.934036165000002
 20
222.48519719000001
 30
0.0
  0
VERTEX
  5
D1D
  8
CYAN
 10
49.81777254
 20
223.88219232500001
 30
0.0
 42
-0.37204433
  0
VERTEX
  5
D1E
  8
CYAN
 10
50.429542669999989
 20
224.72246687500001
 30
0.0
 42
-0.16818041
  0
VERTEX
  5
D1F
  8
CYAN
 10
55.057640925000001
 20
224.23893493
 30
0.0
 42
-0.28364366
  0
VERTEX
  5
D20
  8
CYAN
 10
55.624060354999997
 20
223.37566705750001
 30
0.0
 42
-0.28364366
  0
VERTEX
  5
D21
  8
CYAN
 10
55.106679960000001
 20
222.48214598000001
 30
0.0
  0
VERTEX
  5
D22
  8
CYAN
 10
53.07166934
 20
221.38843112000001
 30
0.0
 42
0.13926608
  0
VERTEX
  5
D23
  8
CYAN
 10
51.837310465000002
 20
220.19169171499999
 30
0.0
  0
VERTEX
  5
D24
  8
CYAN
 10
50.007363679999997
 20
217.02594822
 30
0.0
 42
-0.24828814
  0
VERTEX
  5
D25
  8
CYAN
 10
48.316304015
 20
215.96583808
 30
0.0
 42
-0.07912505
  0
VERTEX
  5
D26
  8
CYAN
 10
42.40052343
 20
216.46813330000001
 30
0.0
 42
-0.27400741
  0
VERTEX
  5
D27
  8
CYAN
 10
40.802795340000003
 20
218.04087197000001
 30
0.0
  0
SEQEND
  5
D28
  8
CYAN
  0
POLYLINE
  5
3F7
  8
CYAN
 66
     1
 10
0.0
 20
0.0
 30
0.0
 70
     1
  0
VERTEX
  5
D29
  8
CYAN
 10
109.07032497500001
 20
113.739032995
 30
0.0
  0
VERTEX
  5
D2A
  8
CYAN
 10
85.380711849999983
 20
99.396330035000005
 30
0.0
 42
-0.31138814
  0
VERTEX
  5
D2B
  8
CYAN
 10
79.852437605000006
 20
99.717738670000017
 30
0.0
 42
-0.31138814
  0
VERTEX
  5
D2C
  8
CYAN
 10
78.188283690000006
 20
104.999377755
 30
0.0
 42
-0.17759792
  0
VERTEX
  5
D2D
  8
CYAN
 10
91.383412024999984
 20
122.35437188
 30
0.0
 42
-0.31177328
  0
VERTEX
  5
D2E
  8
CYAN
 10
100.91351498
 20
122.018361545
 30
0.0
  0
VERTEX
  5
D2F
  8
CYAN
 10
102.74921018000001
 20
120.65244916
 30
0.0
 42
0.25844059
  0
VERTEX
  5
D30
  8
CYAN
 10
104.77530054250001
 20
120.3795838275
 30
0.0
 42
0.25844059
  0
VERTEX
  5
D31
  8
CYAN
 10
106.08141177500001
 20
121.952342895
 30
0.0
  0
VERTEX
  5
D32
  8
CYAN
 10
106.28396374
 20
123.021291545
 30
0.0
 42
-0.12831442
  0
VERTEX
  5
D33
  8
CYAN
 10
106.76897533499999
 20
124.04499219500001
 30
0.0
  0
VERTEX
  5
D34
  8
CYAN
 10
107.97030721
 20
125.47793424
 30
0.0
 42
-0.39740229
  0
VERTEX
  5
D35
  8
CYAN
 10
111.028263505
 20
125.83689631999999
 30
0.0
  0
VERTEX
  5
D36
  8
CYAN
 10
119.067469605
 20
119.8553612
 30
0.0
 42
-0.34193898
  0
VERTEX
  5
D37
  8
CYAN
 10
119.745215965
 20
117.42708688
 30
0.0
  0
VERTEX
  5
D38
  8
CYAN
 10
119.645843075
 20
117.12247340499999
 30
0.0
 42
-0.15530848
  0
VERTEX
  5
D39
  8
CYAN
 10
117.793780825
 20
114.11515346
 30
0.0
 42
-0.27940013
  0
VERTEX
  5
D3A
  8
CYAN
 10
114.626311745
 20
113.5853216
 30
0.0
  0
VERTEX
  5
D3B
  8
CYAN
 10
113.356321585
 20
114.091354325
 30
0.0
 42
0.23476801
  0
VERTEX
  5
D3C
  8
CYAN
 10
109.07032497500001
 20
113.739032995
 30
0.0
  0
SEQEND
  5
D3D
  8
CYAN
  0
POLYLINE
  5
40D
  8
CYAN
 66
     1
 10
0.0
 20
0.0
 30
0.0
 70
     1
  0
VERTEX
  5
D3E
  8
CYAN
 10
87.154915724999995
 20
103.32718085
 30
0.0
 42
-0.21436625
  0
VERTEX
  5
D3F
  8
CYAN
 10
84.782486904999999
 20
101.6749330225
 30
0.0
 42
-0.21436625
  0
VERTEX
  5
D40
  8
CYAN
 10
81.971782169999983
 20
102.351897045
 30
0.0
 42
-0.21436625
  0
VERTEX
  5
D41
  8
CYAN
 10
80.611766000000003
 20
104.9031119325
 30
0.0
 42
-0.21436625
  0
VERTEX
  5
D42
  8
CYAN
 10
81.616451949999998
 20
107.61400616500001
 30
0.0
  0
VERTEX
  5
D43
  8
CYAN
 10
87.154915724999995
 20
103.32718085
 30
0.0
  0
SEQEND
  5
D44
  8
CYAN
  0
POLYLINE
  5
415
  8
CYAN
 66
     1
 10
0.0
 20
0.0
 30
0.0
 70
     1
  0
VERTEX
  5
D45
  8
CYAN
 10
89.748727529999996
 20
105.43640021
 30
0.0
 42
-0.31257846
  0
VERTEX
  5
D46
  8
CYAN
 10
87.380538110000003
 20
106.494541355
 30
0.0
 42
-0.10072719
  0
VERTEX
  5
D47
  8
CYAN
 10
86.960116014999997
 20
107.66837396
 30
0.0
 42
-0.41241639
  0
VERTEX
  5
D48
  8
CYAN
 10
88.009153019999985
 20
109.079738365
 30
0.0
 42
0.02663205
  0
VERTEX
  5
D49
  8
CYAN
 10
94.305316774999994
 20
110.3726025
 30
0.0
 42
-0.33220462
  0
VERTEX
  5
D4A
  8
CYAN
 10
95.515999709999988
 20
109.8810145825
 30
0.0
 42
-0.33220462
  0
VERTEX
  5
D4B
  8
CYAN
 10
95.388351389999997
 20
108.58058475
 30
0.0
 42
-0.16285692
  0
VERTEX
  5
D4C
  8
CYAN
 10
89.748727529999996
 20
105.43640021
 30
0.0
  0
SEQEND
  5
D4D
  8
CYAN
  0
POLYLINE
  5
41F
  8
CYAN
 66
     1
 10
0.0
 20
0.0
 30
0.0
 70
     1
  0
VERTEX
  5
D4E
  8
CYAN
 10
85.966621434999993
 20
110.68674027500001
 30
0.0
 42
-0.3918607599999999
  0
VERTEX
  5
D4F
  8
CYAN
 10
84.379162517500006
 20
111.78749394250001
 30
0.0
 42
-0.3918607599999999
  0
VERTEX
  5
D50
  8
CYAN
 10
85.354681624999998
 20
113.454841215
 30
0.0
 42
-0.04807997
  0
VERTEX
  5
D51
  8
CYAN
 10
92.892894899999988
 20
114.970427015
 30
0.0
 42
-0.37298481
  0
VERTEX
  5
D52
  8
CYAN
 10
94.152830410000007
 20
114.0866965925
 30
0.0
 42
-0.37298481
  0
VERTEX
  5
D53
  8
CYAN
 10
93.457382890000005
 20
112.71382744500001
 30
0.0
 42
-0.06189719
  0
VERTEX
  5
D54
  8
CYAN
 10
85.966621434999993
 20
110.68674027500001
 30
0.0
  0
SEQEND
  5
D55
  8
CYAN
  0
POLYLINE
  5
428
  8
CYAN
 66
     1
 10
0.0
 20
0.0
 30
0.0
 70
     1
  0
VERTEX
  5
D56
  8
CYAN
 10
92.701500909999993
 20
117.032047095
 30
0.0
 42
0.26976977
  0
VERTEX
  5
D57
  8
CYAN
 10
93.962937885000017
 20
116.64449544999999
 30
0.0
 42
0.03753595
  0
VERTEX
  5
D58
  8
CYAN
 10
99.230176259999993
 20
118.29663527
 30
0.0
 42
0.30071571
  0
VERTEX
  5
D59
  8
CYAN
 10
99.904983127500003
 20
119.2671283075
 30
0.0
 42
0.30071571
  0
VERTEX
  5
D5A
  8
CYAN
 10
99.276225694999994
 20
120.26807042999999
 30
0.0
 42
0.18768674
  0
VERTEX
  5
D5B
  8
CYAN
 10
92.470130109999985
 20
120.64022816000001
 30
0.0
 42
0.33752657
  0
VERTEX
  5
D5C
  8
CYAN
 10
91.673993569999979
 20
119.48476392000001
 30
0.0
 42
0.17628843
  0
VERTEX
  5
D5D
  8
CYAN
 10
92.701500909999993
 20
117.032047095
 30
0.0
  0
SEQEND
  5
D5E
  8
CYAN
  0
POLYLINE
  5
432
  8
CYAN
 66
     1
 10
0.0
 20
0.0
 30
0.0
 70
     1
  0
VERTEX
  5
D5F
  8
CYAN
 10
98.880954619999997
 20
111.90523508
 30
0.0
 42
-0.38237555
  0
VERTEX
  5
D60
  8
CYAN
 10
96.967308630000005
 20
112.693184055
 30
0.0
  0
VERTEX
  5
D61
  8
CYAN
 10
96.720695919999983
 20
113.204024885
 30
0.0
 42
-0.20511859
  0
VERTEX
  5
D62
  8
CYAN
 10
96.673002124999996
 20
114.26025737250001
 30
0.0
 42
-0.20511859
  0
VERTEX
  5
D63
  8
CYAN
 10
97.404560355000015
 20
115.02362119
 30
0.0
 42
-0.06172403
  0
VERTEX
  5
D64
  8
CYAN
 10
103.52939579
 20
116.77659032
 30
0.0
 42
-0.35040917
  0
VERTEX
  5
D65
  8
CYAN
 10
104.77755075
 20
116.0642170775
 30
0.0
 42
-0.35040917
  0
VERTEX
  5
D66
  8
CYAN
 10
104.35835834
 20
114.68957379
 30
0.0
 42
-0.06531187
  0
VERTEX
  5
D67
  8
CYAN
 10
98.880954619999997
 20
111.90523508
 30
0.0
  0
SEQEND
  5
D68
  8
CYAN
  0
POLYLINE
  5
43D
  8
CYAN
 66
     1
 10
0.0
 20
0.0
 30
0.0
 70
     1
  0
VERTEX
  5
D69
  8
CYAN
 10
40.609567189999993
 20
242.82084827
 30
0.0
  0
VERTEX
  5
D6A
  8
CYAN
 10
40.477984894999992
 20
241.849037885
 30
0.0
 42
0.35554097
  0
VERTEX
  5
D6B
  8
CYAN
 10
41.963086875000002
 20
239.41949550999999
 30
0.0
  0
VERTEX
  5
D6C
  8
CYAN
 10
45.179164224999987
 20
243.49745383499999
 30
0.0
  0
VERTEX
  5
D6D
  8
CYAN
 10
46.368706369999998
 20
242.55928655
 30
0.0
  0
VERTEX
  5
D6E
  8
CYAN
 10
43.191466044999999
 20
238.53058289500001
 30
0.0
 42
0.02986806
  0
VERTEX
  5
D6F
  8
CYAN
 10
44.571462375000003
 20
237.884075835
 30
0.0
 42
0.29121397
  0
VERTEX
  5
D70
  8
CYAN
 10
47.298166445
 20
238.40382435999999
 30
0.0
  0
VERTEX
  5
D71
  8
CYAN
 10
47.704195030000001
 20
238.78596493000001
 30
0.0
 42
-0.24484348
  0
VERTEX
  5
D72
  8
CYAN
 10
49.15444157999999
 20
239.19495176250001
 30
0.0
 42
-0.24484348
  0
VERTEX
  5
D73
  8
CYAN
 10
50.320769204999991
 20
238.24092600500001
 30
0.0
  0
VERTEX
  5
D74
  8
CYAN
 10
51.040203314999999
 20
236.56253477000001
 30
0.0
 42
0.28053088
  0
VERTEX
  5
D75
  8
CYAN
 10
54.783842550000003
 20
233.89642817500001
 30
0.0
 42
0.03045009
  0
VERTEX
  5
D76
  8
CYAN
 10
64.838918254999996
 20
233.78611344999999
 30
0.0
 42
0.35131199
  0
VERTEX
  5
D77
  8
CYAN
 10
68.062962990000003
 20
236.645941075
 30
0.0
  0
VERTEX
  5
D78
  8
CYAN
 10
68.497425094999997
 20
239.18436448
 30
0.0
 42
-0.27054124
  0
VERTEX
  5
D79
  8
CYAN
 10
70.014582454999996
 20
240.99315125999999
 30
0.0
  0
VERTEX
  5
D7A
  8
CYAN
 10
73.441810910000001
 20
242.22254800499999
 30
0.0
 42
0.32896726
  0
VERTEX
  5
D7B
  8
CYAN
 10
75.260278424999996
 20
244.93412549749999
 30
0.0
 42
0.32896726
  0
VERTEX
  5
D7C
  8
CYAN
 10
73.206016814999998
 20
247.4717397
 30
0.0
 42
0.02239798
  0
VERTEX
  5
D7D
  8
CYAN
 10
62.059091215000002
 20
249.84589317000001
 30
0.0
 42
-0.32133227
  0
VERTEX
  5
D7E
  8
CYAN
 10
60.874679337499998
 20
251.0338326225
 30
0.0
 42
-0.32133227
  0
VERTEX
  5
D7F
  8
CYAN
 10
61.619003915
 20
252.53716643999999
 30
0.0
  0
VERTEX
  5
D80
  8
CYAN
 10
62.62732377999999
 20
253.07402184
 30
0.0
 42
0.25779002
  0
VERTEX
  5
D81
  8
CYAN
 10
63.372479560000002
 20
254.21894875000001
 30
0.0
 42
0.09066794
  0
VERTEX
  5
D82
  8
CYAN
 10
63.0496573
 20
257.18346539999999
 30
0.0
  0
VERTEX
  5
D83
  8
CYAN
 10
55.572011199999999
 20
252.91149365000001
 30
0.0
  0
VERTEX
  5
D84
  8
CYAN
 10
54.068970104999991
 20
255.542400735
 30
0.0
  0
VERTEX
  5
D85
  8
CYAN
 10
61.66713344499999
 20
259.88326155499999
 30
0.0
 42
0.03589904
  0
VERTEX
  5
D86
  8
CYAN
 10
60.875127300000003
 20
260.76997034999999
 30
0.0
 42
0.31683578
  0
VERTEX
  5
D87
  8
CYAN
 10
57.58852821499999
 20
261.28803924499999
 30
0.0
 42
0.07907203
  0
VERTEX
  5
D88
  8
CYAN
 10
49.95117333999999
 20
255.89154511000001
 30
0.0
 42
0.22417239
  0
VERTEX
  5
D89
  8
CYAN
 10
48.997425290000002
 20
253.33290201
 30
0.0
  0
VERTEX
  5
D8A
  8
CYAN
 10
49.177245184999997
 20
251.2041442
 30
0.0
 42
-0.23563724
  0
VERTEX
  5
D8B
  8
CYAN
 10
48.325231645000002
 20
249.06218243500001
 30
0.0
 42
-0.23563724
  0
VERTEX
  5
D8C
  8
CYAN
 10
46.10144219
 20
248.45498581000001
 30
0.0
  0
VERTEX
  5
D8D
  8
CYAN
 10
43.758450754999998
 20
248.92087154000001
 30
0.0
 42
0.24015133
  0
VERTEX
  5
D8E
  8
CYAN
 10
41.300632092500003
 20
248.22715339250001
 30
0.0
 42
0.24015133
  0
VERTEX
  5
D8F
  8
CYAN
 10
40.417849999999987
 20
245.830736645
 30
0.0
  0
VERTEX
  5
D90
  8
CYAN
 10
40.620139870000003
 20
244.13075362999999
 30
0.0
 42
-0.06333115
  0
VERTEX
  5
D91
  8
CYAN
 10
40.609567189999993
 20
242.82084827
 30
0.0
  0
SEQEND
  5
D92
  8
CYAN
  0
POLYLINE
  5
468
  8
CYAN
 66
     1
 10
0.0
 20
0.0
 30
0.0
 70
     1
  0
VERTEX
  5
D93
  8
CYAN
 10
89.231490875000006
 20
225.54187432000001
 30
0.0
 42
-0.32896842
  0
VERTEX
  5
D94
  8
CYAN
 10
86.323449405000005
 20
227.0259758375
 30
0.0
 42
-0.32896842
  0
VERTEX
  5
D95
  8
CYAN
 10
86.883397930000001
 20
230.242452195
 30
0.0
 42
-0.022398
  0
VERTEX
  5
D96
  8
CYAN
 10
95.466595080000005
 20
237.740441715
 30
0.0
 42
0.32133076
  0
VERTEX
  5
D97
  8
CYAN
 10
95.923304967499988
 20
239.35456797250001
 30
0.0
 42
0.32133076
  0
VERTEX
  5
D98
  8
CYAN
 10
94.541557795000003
 20
240.30575788499999
 30
0.0
  0
VERTEX
  5
D99
  8
CYAN
 10
93.399451310000003
 20
240.284150955
 30
0.0
 42
-0.25778771
  0
VERTEX
  5
D9A
  8
CYAN
 10
92.191338294999994
 20
240.92181192999999
 30
0.0
 42
-0.09066804
  0
VERTEX
  5
D9B
  8
CYAN
 10
91.030892230000006
 20
243.66887457000001
 30
0.0
  0
VERTEX
  5
D9C
  8
CYAN
 10
99.642322919999998
 20
243.57506577000001
 30
0.0
  0
VERTEX
  5
D9D
  8
CYAN
 10
99.675334265000004
 20
246.60488043500001
 30
0.0
  0
VERTEX
  5
D9E
  8
CYAN
 10
90.925124019999998
 20
246.70018454000001
 30
0.0
 42
-0.03589892
  0
VERTEX
  5
D9F
  8
CYAN
 10
91.185561105000005
 20
247.86018368000001
 30
0.0
 42
-0.31683615
  0
VERTEX
  5
DA0
  8
CYAN
 10
93.804801679999997
 20
249.91194666499999
 30
0.0
 42
-0.07907198
  0
VERTEX
  5
DA1
  8
CYAN
 10
103.10293238
 20
248.91353591000001
 30
0.0
 42
-0.22417157
  0
VERTEX
  5
DA2
  8
CYAN
 10
105.18107909
 20
247.14226002500001
 30
0.0
  0
VERTEX
  5
DA3
  8
CYAN
 10
106.0598205
 20
245.19500174000001
 30
0.0
 42
0.23563749
  0
VERTEX
  5
DA4
  8
CYAN
 10
107.84636789
 20
243.73825766499999
 30
0.0
 42
0.23563749
  0
VERTEX
  5
DA5
  8
CYAN
 10
110.08459424500001
 20
244.289798835
 30
0.0
  0
VERTEX
  5
DA6
  8
CYAN
 10
111.904877855
 20
245.83690118000001
 30
0.0
 42
-0.24015088
  0
VERTEX
  5
DA7
  8
CYAN
 10
114.38966166749999
 20
246.42673271500001
 30
0.0
 42
-0.24015088
  0
VERTEX
  5
DA8
  8
CYAN
 10
116.32691086
 20
244.76266619
 30
0.0
  0
VERTEX
  5
DA9
  8
CYAN
 10
116.97734783
 20
243.17905486999999
 30
0.0
 42
0.0633309
  0
VERTEX
  5
DAA
  8
CYAN
 10
117.62394781
 20
242.03979961499999
 30
0.0
  0
VERTEX
  5
DAB
  8
CYAN
 10
118.21173751000001
 20
241.25482105
 30
0.0
 42
-0.35554106
  0
VERTEX
  5
DAC
  8
CYAN
 10
118.09650661000001
 20
238.40966519
 30
0.0
  0
VERTEX
  5
DAD
  8
CYAN
 10
113.30256686
 20
240.40748811500001
 30
0.0
  0
VERTEX
  5
DAE
  8
CYAN
 10
112.7198009
 20
239.00905979000001
 30
0.0
  0
VERTEX
  5
DAF
  8
CYAN
 10
117.455824725
 20
237.03538646999999
 30
0.0
 42
-0.02986801
  0
VERTEX
  5
DB0
  8
CYAN
 10
116.56475475000001
 20
235.79908587
 30
0.0
 42
-0.29121613
  0
VERTEX
  5
DB1
  8
CYAN
 10
113.929701615
 20
234.92640143
 30
0.0
  0
VERTEX
  5
DB2
  8
CYAN
 10
113.38905518
 20
235.062699415
 30
0.0
 42
0.24484395
  0
VERTEX
  5
DB3
  8
CYAN
 10
111.92305863
 20
234.714371645
 30
0.0
 42
0.24484395
  0
VERTEX
  5
DB4
  8
CYAN
 10
111.368300205
 20
233.31340012000001
 30
0.0
  0
VERTEX
  5
DB5
  8
CYAN
 10
111.55645765
 20
231.49706157
 30
0.0
 42
-0.28053161
  0
VERTEX
  5
DB6
  8
CYAN
 10
109.58315399
 20
227.34625396499999
 30
0.0
 42
-0.03044993
  0
VERTEX
  5
DB7
  8
CYAN
 10
100.85225444
 20
222.357375125
 30
0.0
 42
-0.35131115
  0
VERTEX
  5
DB8
  8
CYAN
 10
96.644116710000006
 20
223.287082145
 30
0.0
  0
VERTEX
  5
DB9
  8
CYAN
 10
95.029450920000002
 20
225.29338149500001
 30
0.0
 42
0.27053985
  0
VERTEX
  5
DBA
  8
CYAN
 10
92.823820999999995
 20
226.13539728500001
 30
0.0
  0
VERTEX
  5
DBB
  8
CYAN
 10
89.231490875000006
 20
225.54187432000001
 30
0.0
  0
SEQEND
  5
DBC
  8
CYAN
  0
POLYLINE
  5
493
  8
CYAN
 66
     1
 10
0.0
 20
0.0
 30
0.0
 70
     1
  0
VERTEX
  5
DBD
  8
CYAN
 10
48.793809795000001
 20
280.50405381500002
 30
0.0
 42
0.09468021
  0
VERTEX
  5
DBE
  8
CYAN
 10
59.496256109999997
 20
280.99999158999998
 30
0.0
  0
VERTEX
  5
DBF
  8
CYAN
 10
65.431393345000004
 20
282.42169132499998
 30
0.0
 42
-0.21467567
  0
VERTEX
  5
DC0
  8
CYAN
 10
67.091671044999998
 20
282.10616987499998
 30
0.0
 42
-0.21467567
  0
VERTEX
  5
DC1
  8
CYAN
 10
67.956393344999995
 20
280.65416052
 30
0.0
  0
VERTEX
  5
DC2
  8
CYAN
 10
69.098098859999993
 20
270.69907380500001
 30
0.0
 42
-0.39739807
  0
VERTEX
  5
DC3
  8
CYAN
 10
67.253541920000004
 20
268.23374662499998
 30
0.0
  0
VERTEX
  5
DC4
  8
CYAN
 10
65.650096219999995
 20
267.95484673999999
 30
0.0
 42
-0.20371325
  0
VERTEX
  5
DC5
  8
CYAN
 10
63.99660965999999
 20
268.34151374250001
 30
0.0
 42
-0.20371325
  0
VERTEX
  5
DC6
  8
CYAN
 10
63.127608090000003
 20
269.80040559999998
 30
0.0
  0
VERTEX
  5
DC7
  8
CYAN
 10
62.760940720000001
 20
272.49394430000001
 30
0.0
 42
0.27146516
  0
VERTEX
  5
DC8
  8
CYAN
 10
61.580859312500003
 20
273.99749293999997
 30
0.0
 42
0.27146516
  0
VERTEX
  5
DC9
  8
CYAN
 10
59.692412249999997
 20
273.70250424
 30
0.0
 42
-0.06239003
  0
VERTEX
  5
DCA
  8
CYAN
 10
37.524117179999998
 20
259.78891291000002
 30
0.0
 42
-0.20720911
  0
VERTEX
  5
DCB
  8
CYAN
 10
25.676066245000001
 20
259.46615226
 30
0.0
 42
-0.044519
  0
VERTEX
  5
DCC
  8
CYAN
 10
6.1145907700000004
 20
269.41194646999998
 30
0.0
 42
-0.30134591
  0
VERTEX
  5
DCD
  8
CYAN
 10
3.1573787699999989
 20
275.92765583250002
 30
0.0
 42
-0.30134591
  0
VERTEX
  5
DCE
  8
CYAN
 10
8.0069843400000007
 20
281.18891966500001
 30
0.0
 42
-0.06795901
  0
VERTEX
  5
DCF
  8
CYAN
 10
13.8589001
 20
282.23735571999998
 30
0.0
 42
-0.04552701
  0
VERTEX
  5
DD0
  8
CYAN
 10
41.713669394999989
 20
281.51975577000002
 30
0.0
  0
VERTEX
  5
DD1
  8
CYAN
 10
48.793809795000001
 20
280.50405381500002
 30
0.0
  0
SEQEND
  5
DD2
  8
CYAN
  0
POLYLINE
  5
4AA
  8
CYAN
 66
     1
 10
0.0
 20
0.0
 30
0.0
 70
     1
  0
VERTEX
  5
DD3
  8
CYAN
 10
28.089796565
 20
261.04541805500003
 30
0.0
  0
VERTEX
  5
DD4
  8
CYAN
 10
28.988248630000001
 20
260.92670416999999
 30
0.0
 42
0.11896931
  0
VERTEX
  5
DD5
  8
CYAN
 10
31.57433949
 20
261.20050254500001
 30
0.0
 42
0.03135206
  0
VERTEX
  5
DD6
  8
CYAN
 10
38.862349000000002
 20
264.32482038500001
 30
0.0
 42
0.39732666
  0
VERTEX
  5
DD7
  8
CYAN
 10
39.615752072500001
 20
266.40997009
 30
0.0
 42
0.39732666
  0
VERTEX
  5
DD8
  8
CYAN
 10
37.577779489999998
 20
267.28297251999999
 30
0.0
 42
-0.02866679
  0
VERTEX
  5
DD9
  8
CYAN
 10
27.914815579999999
 20
264.35337763000001
 30
0.0
 42
0.36123861
  0
VERTEX
  5
DDA
  8
CYAN
 10
26.628006427500001
 20
262.6267015775
 30
0.0
 42
0.36123861
  0
VERTEX
  5
DDB
  8
CYAN
 10
28.089796565
 20
261.04541805500003
 30
0.0
  0
SEQEND
  5
DDC
  8
CYAN
  0
POLYLINE
  5
4B5
  8
CYAN
 66
     1
 10
0.0
 20
0.0
 30
0.0
 70
     1
  0
VERTEX
  5
DDD
  8
CYAN
 10
9.7529395250000004
 20
273.61621589999999
 30
0.0
 42
0.29767695
  0
VERTEX
  5
DDE
  8
CYAN
 10
8.5408886450000008
 20
273.39850676999998
 30
0.0
 42
0.29767695
  0
VERTEX
  5
DDF
  8
CYAN
 10
8.2532273899999993
 20
272.20112812999997
 30
0.0
 42
0.17239345
  0
VERTEX
  5
DE0
  8
CYAN
 10
9.5995346650000002
 20
270.55080075500001
 30
0.0
 42
0.05114191
  0
VERTEX
  5
DE1
  8
CYAN
 10
18.993909275
 20
266.09500193500003
 30
0.0
 42
0.24169403
  0
VERTEX
  5
DE2
  8
CYAN
 10
20.378395557499999
 20
266.28106356500001
 30
0.0
 42
0.24169403
  0
VERTEX
  5
DE3
  8
CYAN
 10
21.034128970000001
 20
267.51452814999999
 30
0.0
  0
VERTEX
  5
DE4
  8
CYAN
 10
21.056536829999999
 20
269.08214258499999
 30
0.0
 42
0.36930006
  0
VERTEX
  5
DE5
  8
CYAN
 10
19.720093214999999
 20
270.69084382
 30
0.0
 42
-0.05777487
  0
VERTEX
  5
DE6
  8
CYAN
 10
9.7529395250000004
 20
273.61621589999999
 30
0.0
  0
SEQEND
  5
DE7
  8
CYAN
  0
POLYLINE
  5
4C1
  8
CYAN
 66
     1
 10
0.0
 20
0.0
 30
0.0
 70
     1
  0
VERTEX
  5
DE8
  8
CYAN
 10
5.0417738200000004
 20
167.17166950000001
 30
0.0
 42
0.37387173
  0
VERTEX
  5
DE9
  8
CYAN
 10
2.7465142724999989
 20
165.0517654775
 30
0.0
 42
0.37387173
  0
VERTEX
  5
DEA
  8
CYAN
 10
4.5262324500000002
 20
162.48372874500001
 30
0.0
 42
0.07183412
  0
VERTEX
  5
DEB
  8
CYAN
 10
14.205193749999999
 20
161.45610626499999
 30
0.0
 42
0.30509462
  0
VERTEX
  5
DEC
  8
CYAN
 10
15.277345824999999
 20
162.23766219999999
 30
0.0
 42
0.30509462
  0
VERTEX
  5
DED
  8
CYAN
 10
14.957330649999999
 20
163.52526852
 30
0.0
 42
0.19364396
  0
VERTEX
  5
DEE
  8
CYAN
 10
5.0417738200000004
 20
167.17166950000001
 30
0.0
  0
SEQEND
  5
DEF
  8
CYAN
  0
POLYLINE
  5
4CA
  8
CYAN
 66
     1
 10
0.0
 20
0.0
 30
0.0
 70
     1
  0
VERTEX
  5
DF0
  8
CYAN
 10
14.933072975
 20
147.93168258
 30
0.0
 42
0.30509815
  0
VERTEX
  5
DF1
  8
CYAN
 10
15.257087565000001
 20
149.21830123749999
 30
0.0
 42
0.30509815
  0
VERTEX
  5
DF2
  8
CYAN
 10
14.18734705
 20
150.00317591500001
 30
0.0
 42
0.07183406
  0
VERTEX
  5
DF3
  8
CYAN
 10
4.5052421249999988
 20
149.005697895
 30
0.0
 42
0.37387182
  0
VERTEX
  5
DF4
  8
CYAN
 10
2.7175248574999991
 20
146.44321335999999
 30
0.0
 42
0.37387182
  0
VERTEX
  5
DF5
  8
CYAN
 10
5.0061733400000001
 20
144.31616184500001
 30
0.0
 42
0.19364405
  0
VERTEX
  5
DF6
  8
CYAN
 10
14.933072975
 20
147.93168258
 30
0.0
  0
SEQEND
  5
DF7
  8
CYAN
  0
POLYLINE
  5
4D3
  8
CYAN
 66
     1
 10
0.0
 20
0.0
 30
0.0
 70
     1
  0
VERTEX
  5
DF8
  8
CYAN
 10
5.6393655699999989
 20
229.397215515
 30
0.0
 42
0.21436611
  0
VERTEX
  5
DF9
  8
CYAN
 10
5.0944232749999987
 20
226.557928065
 30
0.0
 42
0.21436611
  0
VERTEX
  5
DFA
  8
CYAN
 10
6.8557012425000003
 20
224.26524072500001
 30
0.0
 42
0.21436611
  0
VERTEX
  5
DFB
  8
CYAN
 10
9.7395150499999996
 20
224.0599768825
 30
0.0
 42
0.21436611
  0
VERTEX
  5
DFC
  8
CYAN
 10
11.80776887
 20
226.08008615
 30
0.0
  0
VERTEX
  5
DFD
  8
CYAN
 10
5.6393655699999989
 20
229.397215515
 30
0.0
  0
SEQEND
  5
DFE
  8
CYAN
  0
POLYLINE
  5
4DB
  8
CYAN
 66
     1
 10
0.0
 20
0.0
 30
0.0
 70
     1
  0
VERTEX
  5
DFF
  8
CYAN
 10
12.84634177
 20
231.30383392499999
 30
0.0
 42
0.3918545
  0
VERTEX
  5
E00
  8
CYAN
 10
14.49742412
 20
230.3010773325
 30
0.0
 42
0.3918545
  0
VERTEX
  5
E01
  8
CYAN
 10
15.624119015
 20
231.87020203
 30
0.0
 42
0.04807998
  0
VERTEX
  5
E02
  8
CYAN
 10
13.943909274999999
 20
239.37343092500001
 30
0.0
 42
0.37298228
  0
VERTEX
  5
E03
  8
CYAN
 10
12.62424906
 20
240.1652081375
 30
0.0
 42
0.37298228
  0
VERTEX
  5
E04
  8
CYAN
 10
11.652730334999999
 20
238.97165645999999
 30
0.0
 42
0.06189705
  0
VERTEX
  5
E05
  8
CYAN
 10
12.84634177
 20
231.30383392499999
 30
0.0
  0
SEQEND
  5
E06
  8
CYAN
  0
POLYLINE
  5
4E4
  8
CYAN
 66
     1
 10
0.0
 20
0.0
 30
0.0
 70
     1
  0
VERTEX
  5
E07
  8
CYAN
 10
15.824035385
 20
241.14721918500001
 30
0.0
 42
0.17628874
  0
VERTEX
  5
E08
  8
CYAN
 10
18.482683130000002
 20
241.20567445
 30
0.0
 42
0.33753515
  0
VERTEX
  5
E09
  8
CYAN
 10
19.214631140000002
 20
242.40281482500001
 30
0.0
 42
0.1876868
  0
VERTEX
  5
E0A
  8
CYAN
 10
16.107419669999999
 20
248.46967272500001
 30
0.0
 42
0.30072225
  0
VERTEX
  5
E0B
  8
CYAN
 10
14.9372765775
 20
248.63717961500001
 30
0.0
 42
0.30072225
  0
VERTEX
  5
E0C
  8
CYAN
 10
14.32497066
 20
247.62605406500001
 30
0.0
 42
0.03753599
  0
VERTEX
  5
E0D
  8
CYAN
 10
14.957145315
 20
242.14206969
 30
0.0
 42
0.26977343
  0
VERTEX
  5
E0E
  8
CYAN
 10
15.824035385
 20
241.14721918500001
 30
0.0
  0
SEQEND
  5
E0F
  8
CYAN
  0
POLYLINE
  5
4EE
  8
CYAN
 66
     1
 10
0.0
 20
0.0
 30
0.0
 70
     1
  0
VERTEX
  5
E10
  8
CYAN
 10
10.206804235
 20
242.16999518
 30
0.0
  0
VERTEX
  5
E11
  8
CYAN
 10
10.77375814
 20
242.15237977000001
 30
0.0
 42
0.20512105
  0
VERTEX
  5
E12
  8
CYAN
 10
11.758162714999999
 20
242.53823682999999
 30
0.0
 42
0.20512105
  0
VERTEX
  5
E13
  8
CYAN
 10
12.158162109999999
 20
243.51698016500001
 30
0.0
 42
0.061724
  0
VERTEX
  5
E14
  8
CYAN
 10
11.26948028
 20
249.82545784000001
 30
0.0
 42
0.35041393
  0
VERTEX
  5
E15
  8
CYAN
 10
10.11113001
 20
250.67618697
 30
0.0
 42
0.35041393
  0
VERTEX
  5
E16
  8
CYAN
 10
9.0256455950000003
 20
249.734253325
 30
0.0
 42
0.06531204
  0
VERTEX
  5
E17
  8
CYAN
 10
8.7088803049999992
 20
243.59796701499999
 30
0.0
 42
0.38237714
  0
VERTEX
  5
E18
  8
CYAN
 10
10.206804235
 20
242.16999518
 30
0.0
  0
SEQEND
  5
E19
  8
CYAN
  0
POLYLINE
  5
4F9
  8
CYAN
 66
     1
 10
0.0
 20
0.0
 30
0.0
 70
     1
  0
VERTEX
  5
E1A
  8
CYAN
 10
42.255410165000001
 20
270.50666274500003
 30
0.0
 42
0.4102233100000001
  0
VERTEX
  5
E1B
  8
CYAN
 10
41.068755647499998
 20
267.48672214750002
 30
0.0
 42
0.4102233100000001
  0
VERTEX
  5
E1C
  8
CYAN
 10
44.072226444999998
 20
266.25897896999999
 30
0.0
 42
0.05736097
  0
VERTEX
  5
E1D
  8
CYAN
 10
53.055949699999999
 20
271.22665134499999
 30
0.0
 42
0.35161353
  0
VERTEX
  5
E1E
  8
CYAN
 10
53.494619385
 20
272.78219038999998
 30
0.0
 42
0.35161353
  0
VERTEX
  5
E1F
  8
CYAN
 10
52.071039110000001
 20
273.54740409499999
 30
0.0
 42
0.05877301
  0
VERTEX
  5
E20
  8
CYAN
 10
42.255410165000001
 20
270.50666274500003
 30
0.0
  0
SEQEND
  5
E21
  8
CYAN
  0
POLYLINE
  5
502
  8
CYAN
 66
     1
 10
0.0
 20
0.0
 30
0.0
 70
     1
  0
VERTEX
  5
E22
  8
CYAN
 10
41.836990900000004
 20
278.46169191000001
 30
0.0
 42
0.20308473
  0
VERTEX
  5
E23
  8
CYAN
 10
40.02169596249999
 20
277.409526825
 30
0.0
 42
0.20308473
  0
VERTEX
  5
E24
  8
CYAN
 10
39.514675175000001
 20
275.37353149249998
 30
0.0
 42
0.20308473
  0
VERTEX
  5
E25
  8
CYAN
 10
40.624528429999991
 20
273.59292125249999
 30
0.0
 42
0.20308473
  0
VERTEX
  5
E26
  8
CYAN
 10
42.675739845000003
 20
273.15147045999998
 30
0.0
 42
0.03802199
  0
VERTEX
  5
E27
  8
CYAN
 10
53.10236879499999
 20
275.97819483000001
 30
0.0
 42
0.34153983
  0
VERTEX
  5
E28
  8
CYAN
 10
53.87263990000001
 20
277.17509685499999
 30
0.0
 42
0.34153983
  0
VERTEX
  5
E29
  8
CYAN
 10
52.90803116
 20
278.22172096000003
 30
0.0
 42
0.073246
  0
VERTEX
  5
E2A
  8
CYAN
 10
41.836990900000004
 20
278.46169191000001
 30
0.0
  0
SEQEND
  5
E2B
  8
CYAN
  0
POLYLINE
  5
50D
  8
CYAN
 66
     1
 10
0.0
 20
0.0
 30
0.0
 70
     1
  0
VERTEX
  5
E2C
  8
CYAN
 10
37.580430235000001
 20
269.56798642000001
 30
0.0
 42
0.346382
  0
VERTEX
  5
E2D
  8
CYAN
 10
38.439774640000003
 20
270.86965437499998
 30
0.0
 42
0.346382
  0
VERTEX
  5
E2E
  8
CYAN
 10
37.376260754999997
 20
272.01059718499999
 30
0.0
 42
0.074141
  0
VERTEX
  5
E2F
  8
CYAN
 10
25.664322975000001
 20
272.07646534499997
 30
0.0
 42
0.38315802
  0
VERTEX
  5
E30
  8
CYAN
 10
23.9475981125
 20
270.02416288749998
 30
0.0
 42
0.38315802
  0
VERTEX
  5
E31
  8
CYAN
 10
25.804474110000001
 20
268.09774103500001
 30
0.0
 42
0.09840598
  0
VERTEX
  5
E32
  8
CYAN
 10
37.580430235000001
 20
269.56798642000001
 30
0.0
  0
SEQEND
  5
E33
  8
CYAN
  0
POLYLINE
  5
516
  8
CYAN
 66
     1
 10
0.0
 20
0.0
 30
0.0
 70
     1
  0
VERTEX
  5
E34
  8
CYAN
 10
25.684296230000001
 20
274.73181493499999
 30
0.0
 42
0.03456502
  0
VERTEX
  5
E35
  8
CYAN
 10
35.633726944999999
 20
274.99538049500001
 30
0.0
 42
0.35704105
  0
VERTEX
  5
E36
  8
CYAN
 10
36.918617077500002
 20
276.270167055
 30
0.0
 42
0.35704105
  0
VERTEX
  5
E37
  8
CYAN
 10
35.923090934999998
 20
277.78177253500002
 30
0.0
 42
0.10722401
  0
VERTEX
  5
E38
  8
CYAN
 10
25.508205759999999
 20
278.71035441499998
 30
0.0
 42
0.38670493
  0
VERTEX
  5
E39
  8
CYAN
 10
24.169542669999998
 20
277.14696278999998
 30
0.0
  0
VERTEX
  5
E3A
  8
CYAN
 10
24.196697530000002
 20
276.23846172999998
 30
0.0
 42
0.39313649
  0
VERTEX
  5
E3B
  8
CYAN
 10
25.684296230000001
 20
274.73181493499999
 30
0.0
  0
SEQEND
  5
E3C
  8
CYAN
  0
POLYLINE
  5
520
  8
CYAN
 66
     1
 10
0.0
 20
0.0
 30
0.0
 70
     1
  0
VERTEX
  5
E3D
  8
CYAN
 10
20.685831985
 20
276.02432102500001
 30
0.0
  0
VERTEX
  5
E3E
  8
CYAN
 10
20.459747019999998
 20
277.05045678499999
 30
0.0
 42
0.33082567
  0
VERTEX
  5
E3F
  8
CYAN
 10
19.169598775000001
 20
278.17058617499998
 30
0.0
 42
0.04616105
  0
VERTEX
  5
E40
  8
CYAN
 10
9.5311081749999982
 20
278.01374478999998
 30
0.0
 42
0.35844219
  0
VERTEX
  5
E41
  8
CYAN
 10
8.5928665699999982
 20
277.05374356250002
 30
0.0
 42
0.35844219
  0
VERTEX
  5
E42
  8
CYAN
 10
9.3538769100000003
 20
275.94795744999999
 30
0.0
 42
0.05102598
  0
VERTEX
  5
E43
  8
CYAN
 10
19.099939580000001
 20
274.19733303499999
 30
0.0
 42
0.23723182
  0
VERTEX
  5
E44
  8
CYAN
 10
20.352152522499999
 20
274.71216670000001
 30
0.0
 42
0.23723182
  0
VERTEX
  5
E45
  8
CYAN
 10
20.685831985
 20
276.02432102500001
 30
0.0
  0
SEQEND
  5
E46
  8
CYAN
  0
ENDSEC
  0
EOF
