  0
SECTION
  2
HEADER
  9
$ACADVER
  1
AC1009
  9
$INSBASE
 10
0.0
 20
0.0
 30
0.0
  9
$EXTMIN
 10
-0.0000057486430087
 20
-0.0001375425876091
 30
0.0
  9
$EXTMAX
 10
947.06923685046365
 20
986.35336043221866
 30
0.0
  9
$LIMMIN
 10
0.0
 20
0.0
  9
$LIMMAX
 10
12.0
 20
9.0
  9
$ORTHOMODE
 70
     0
  9
$REGENMODE
 70
     1
  9
$FILLMODE
 70
     1
  9
$QTEXTMODE
 70
     0
  9
$MIRRTEXT
 70
     0
  9
$DRAGMODE
 70
     2
  9
$LTSCALE
 40
1.0
  9
$OSMODE
 70
   167
  9
$ATTMODE
 70
     1
  9
$TEXTSIZE
 40
0.2
  9
$TRACEWID
 40
0.05
  9
$TEXTSTYLE
  7
STANDARD
  9
$CLAYER
  8
0
  9
$CELTYPE
  6
CONTINUOUS
  9
$CECOLOR
 62
   256
  9
$DIMSCALE
 40
1.0
  9
$DIMASZ
 40
0.18
  9
$DIMEXO
 40
0.0625
  9
$DIMDLI
 40
0.38
  9
$DIMRND
 40
0.0
  9
$DIMDLE
 40
0.0
  9
$DIMEXE
 40
0.18
  9
$DIMTP
 40
0.0
  9
$DIMTM
 40
0.0
  9
$DIMTXT
 40
0.18
  9
$DIMCEN
 40
0.09
  9
$DIMTSZ
 40
0.0
  9
$DIMTOL
 70
     0
  9
$DIMLIM
 70
     0
  9
$DIMTIH
 70
     1
  9
$DIMTOH
 70
     1
  9
$DIMSE1
 70
     0
  9
$DIMSE2
 70
     0
  9
$DIMTAD
 70
     0
  9
$DIMZIN
 70
     0
  9
$DIMBLK
  1

  9
$DIMASO
 70
     1
  9
$DIMSHO
 70
     1
  9
$DIMPOST
  1

  9
$DIMAPOST
  1

  9
$DIMALT
 70
     0
  9
$DIMALTD
 70
     2
  9
$DIMALTF
 40
25.399999999999999
  9
$DIMLFAC
 40
1.0
  9
$DIMTOFL
 70
     0
  9
$DIMTVP
 40
0.0
  9
$DIMTIX
 70
     0
  9
$DIMSOXD
 70
     0
  9
$DIMSAH
 70
     0
  9
$DIMBLK1
  1

  9
$DIMBLK2
  1

  9
$DIMSTYLE
  2
STANDARD
  9
$DIMCLRD
 70
     0
  9
$DIMCLRE
 70
     0
  9
$DIMCLRT
 70
     0
  9
$DIMTFAC
 40
1.0
  9
$DIMGAP
 40
0.09
  9
$LUNITS
 70
     2
  9
$LUPREC
 70
     4
  9
$SKETCHINC
 40
0.1
  9
$FILLETRAD
 40
0.0
  9
$AUNITS
 70
     0
  9
$AUPREC
 70
     0
  9
$MENU
  1
.
  9
$ELEVATION
 40
0.0
  9
$PELEVATION
 40
0.0
  9
$THICKNESS
 40
0.0
  9
$LIMCHECK
 70
     0
  9
$BLIPMODE
 70
     0
  9
$CHAMFERA
 40
0.0
  9
$CHAMFERB
 40
0.0
  9
$SKPOLY
 70
     0
  9
$TDCREATE
 40
2455328.0518098958
  9
$TDUPDATE
 40
2455328.0520621641
  9
$TDINDWG
 40
0.0002531829
  9
$TDUSRTIMER
 40
0.0002531829
  9
$USRTIMER
 70
     1
  9
$ANGBASE
 50
0.0
  9
$ANGDIR
 70
     0
  9
$PDMODE
 70
     0
  9
$PDSIZE
 40
0.0
  9
$PLINEWID
 40
0.0
  9
$COORDS
 70
     1
  9
$SPLFRAME
 70
     0
  9
$SPLINETYPE
 70
     6
  9
$SPLINESEGS
 70
     8
  9
$ATTDIA
 70
     0
  9
$ATTREQ
 70
     1
  9
$HANDLING
 70
     1
  9
$HANDSEED
  5
979
  9
$SURFTAB1
 70
     6
  9
$SURFTAB2
 70
     6
  9
$SURFTYPE
 70
     6
  9
$SURFU
 70
     6
  9
$SURFV
 70
     6
  9
$UCSNAME
  2

  9
$UCSORG
 10
0.0
 20
0.0
 30
0.0
  9
$UCSXDIR
 10
1.0
 20
0.0
 30
0.0
  9
$UCSYDIR
 10
0.0
 20
1.0
 30
0.0
  9
$PUCSNAME
  2

  9
$PUCSORG
 10
0.0
 20
0.0
 30
0.0
  9
$PUCSXDIR
 10
1.0
 20
0.0
 30
0.0
  9
$PUCSYDIR
 10
0.0
 20
1.0
 30
0.0
  9
$USERI1
 70
     0
  9
$USERI2
 70
     0
  9
$USERI3
 70
     0
  9
$USERI4
 70
     0
  9
$USERI5
 70
     0
  9
$USERR1
 40
0.0
  9
$USERR2
 40
0.0
  9
$USERR3
 40
0.0
  9
$USERR4
 40
0.0
  9
$USERR5
 40
0.0
  9
$WORLDVIEW
 70
     1
  9
$SHADEDGE
 70
     3
  9
$SHADEDIF
 70
    70
  9
$TILEMODE
 70
     1
  9
$MAXACTVP
 70
    64
  9
$PLIMCHECK
 70
     0
  9
$PEXTMIN
 10
1.0000000000000000E+020
 20
1.0000000000000000E+020
 30
1.0000000000000000E+020
  9
$PEXTMAX
 10
-1.0000000000000000E+020
 20
-1.0000000000000000E+020
 30
-1.0000000000000000E+020
  9
$PLIMMIN
 10
0.0
 20
0.0
  9
$PLIMMAX
 10
12.0
 20
9.0
  9
$UNITMODE
 70
     0
  9
$VISRETAIN
 70
     1
  9
$PLINEGEN
 70
     0
  9
$PSLTSCALE
 70
     1
  0
ENDSEC
  0
SECTION
  2
TABLES
  0
TABLE
  2
VPORT
 70
     1
  0
VPORT
  2
*ACTIVE
 70
     0
 10
0.0
 20
0.0
 11
1.0
 21
1.0
 12
7.8038793103448274
 22
4.5
 13
0.0
 23
0.0
 14
1.0
 24
1.0
 15
0.0
 25
0.0
 16
0.0
 26
0.0
 36
1.0
 17
0.0
 27
0.0
 37
0.0
 40
9.0
 41
1.7341954022988499
 42
50.0
 43
0.0
 44
0.0
 50
0.0
 51
0.0
 71
     0
 72
   100
 73
     1
 74
     1
 75
     0
 76
     0
 77
     0
 78
     0
  0
ENDTAB
  0
TABLE
  2
LTYPE
 70
     1
  0
LTYPE
  2
CONTINUOUS
 70
     0
  3
Solid line
 72
    65
 73
     0
 40
0.0
  0
ENDTAB
  0
TABLE
  2
LAYER
 70
     2
  0
LAYER
  2
0
 70
     0
 62
     7
  6
CONTINUOUS
  0
LAYER
  2
130_VU3
 70
     0
 62
     1
  6
CONTINUOUS
  0
ENDTAB
  0
TABLE
  2
STYLE
 70
     2
  0
STYLE
  2
STANDARD
 70
     0
 40
0.0
 41
1.0
 50
0.0
 71
     0
 42
0.2
  3
txt
  4

  0
STYLE
  2
ANNOTATIVE
 70
     0
 40
0.0
 41
1.0
 50
0.0
 71
     0
 42
0.2
  3
txt
  4

  0
ENDTAB
  0
TABLE
  2
VIEW
 70
     0
  0
ENDTAB
  0
TABLE
  2
UCS
 70
     0
  0
ENDTAB
  0
TABLE
  2
APPID
 70
     3
  0
APPID
  2
ACAD
 70
     0
  0
APPID
  2
ACADANNOTATIVE
 70
     0
  0
APPID
  2
ACAD_MLEADERVER
 70
     0
  0
ENDTAB
  0
TABLE
  2
DIMSTYLE
 70
     2
  0
DIMSTYLE
  2
STANDARD
 70
     0
  3

  4

  5

  6

  7

 40
1.0
 41
0.18
 42
0.0625
 43
0.38
 44
0.18
 45
0.0
 46
0.0
 47
0.0
 48
0.0
140
0.18
141
0.09
142
0.0
143
25.399999999999999
144
1.0
145
0.0
146
1.0
147
0.09
 71
     0
 72
     0
 73
     1
 74
     1
 75
     0
 76
     0
 77
     0
 78
     0
170
     0
171
     2
172
     0
173
     0
174
     0
175
     0
176
     0
177
     0
178
     0
  0
DIMSTYLE
  2
ANNOTATIVE
 70
     0
  3

  4

  5

  6

  7

 40
1.0
 41
0.18
 42
0.0625
 43
0.38
 44
0.18
 45
0.0
 46
0.0
 47
0.0
 48
0.0
140
0.18
141
0.09
142
0.0
143
25.399999999999999
144
1.0
145
0.0
146
1.0
147
0.09
 71
     0
 72
     0
 73
     1
 74
     1
 75
     0
 76
     0
 77
     0
 78
     0
170
     0
171
     2
172
     0
173
     0
174
     0
175
     0
176
     0
177
     0
178
     0
  0
ENDTAB
  0
ENDSEC
  0
SECTION
  2
BLOCKS
  0
BLOCK
  8
0
  2
$MODEL_SPACE
 70
     0
 10
0.0
 20
0.0
 30
0.0
  3
$MODEL_SPACE
  1

  0
ENDBLK
  5
76
  8
0
  0
BLOCK
 67
     1
  8
0
  2
$PAPER_SPACE
 70
     0
 10
0.0
 20
0.0
 30
0.0
  3
$PAPER_SPACE
  1

  0
ENDBLK
  5
72
 67
     1
  8
0
  0
ENDSEC
  0
SECTION
  2
ENTITIES
  0
POLYLINE
  5
7B
  8
130_VU3
 66
     1
 10
0.0
 20
0.0
 30
0.0
  0
VERTEX
  5
517
  8
130_VU3
 10
173.85018632000001
 20
447.21805404000003
 30
0.0
 42
-0.36397
  0
VERTEX
  5
518
  8
130_VU3
 10
194.58838222
 20
464.33993599500002
 30
0.0
  0
VERTEX
  5
519
  8
130_VU3
 10
194.58838316500001
 20
474.42322079500002
 30
0.0
  0
VERTEX
  5
51A
  8
130_VU3
 10
197.61336898499999
 20
474.42322079500002
 30
0.0
  0
VERTEX
  5
51B
  8
130_VU3
 10
197.61336804000001
 20
464.33993599500002
 30
0.0
 42
-0.36397
  0
VERTEX
  5
51C
  8
130_VU3
 10
218.35156583
 20
447.21805592999988
 30
0.0
 42
-0.057249
  0
VERTEX
  5
51D
  8
130_VU3
 10
214.89234275499999
 20
421.28315659999998
 30
0.0
 42
0.4064020000000001
  0
VERTEX
  5
51E
  8
130_VU3
 10
216.279036185
 20
417.57517559000001
 30
0.0
 42
0.382957
  0
VERTEX
  5
51F
  8
130_VU3
 10
220.02277433500001
 20
418.86221211499992
 30
0.0
 42
0.077653
  0
VERTEX
  5
520
  8
130_VU3
 10
230.631273295
 20
451.18977901499989
 30
0.0
 42
0.136544
  0
VERTEX
  5
521
  8
130_VU3
 10
227.9244041
 20
470.730043335
 30
0.0
 42
0.298885
  0
VERTEX
  5
522
  8
130_VU3
 10
196.10087465999999
 20
491.61930865999989
 30
0.0
 42
0.283517
  0
VERTEX
  5
523
  8
130_VU3
 10
164.27734710999999
 20
470.73004049999992
 30
0.0
 42
0.132572
  0
VERTEX
  5
524
  8
130_VU3
 10
161.570477915
 20
451.18978090500002
 30
0.0
 42
0.075422
  0
VERTEX
  5
525
  8
130_VU3
 10
172.17897593000001
 20
418.86221495000001
 30
0.0
 42
0.4064021400000001
  0
VERTEX
  5
526
  8
130_VU3
 10
175.92271809499999
 20
417.57517352500003
 30
0.0
 42
0.4064021400000001
  0
VERTEX
  5
527
  8
130_VU3
 10
177.309407505
 20
421.28316132999993
 30
0.0
 42
-0.057249
  0
VERTEX
  5
528
  8
130_VU3
 10
173.85018632000001
 20
447.21806633
 30
0.0
  0
SEQEND
  5
529
  8
130_VU3
  0
POLYLINE
  5
8F
  8
130_VU3
 66
     1
 10
0.0
 20
0.0
 30
0.0
  0
VERTEX
  5
52A
  8
130_VU3
 10
301.84706918000001
 20
243.14074493499999
 30
0.0
 42
0.017626
  0
VERTEX
  5
52B
  8
130_VU3
 10
323.90408604499999
 20
242.69411875500001
 30
0.0
 42
0.134769
  0
VERTEX
  5
52C
  8
130_VU3
 10
332.55426622499999
 20
245.20894450500001
 30
0.0
 42
-0.140659
  0
VERTEX
  5
52D
  8
130_VU3
 10
339.07258247499999
 20
247.02253392
 30
0.0
 42
0.088167
  0
VERTEX
  5
52E
  8
130_VU3
 10
366.78488958999998
 20
251.71572366500001
 30
0.0
 42
0.033155
  0
VERTEX
  5
52F
  8
130_VU3
 10
370.16911448500002
 20
253.25841126500001
 30
0.0
  0
VERTEX
  5
530
  8
130_VU3
 10
373.07727438000001
 20
254.82452853000001
 30
0.0
 42
-0.102708
  0
VERTEX
  5
531
  8
130_VU3
 10
377.13863279999998
 20
255.85482296000001
 30
0.0
  0
VERTEX
  5
532
  8
130_VU3
 10
382.06103180999997
 20
256.07027904500001
 30
0.0
 42
0.053191
  0
VERTEX
  5
533
  8
130_VU3
 10
385.41939539499998
 20
256.57792805000003
 30
0.0
 42
-0.088462
  0
VERTEX
  5
534
  8
130_VU3
 10
427.83755432999999
 20
259.97184361000001
 30
0.0
 42
0.40217725
  0
VERTEX
  5
535
  8
130_VU3
 10
430.15328786999987
 20
262.19392454500002
 30
0.0
 42
0.40217725
  0
VERTEX
  5
536
  8
130_VU3
 10
428.02863910500002
 20
264.59936278999999
 30
0.0
 42
0.154107
  0
VERTEX
  5
537
  8
130_VU3
 10
374.88109938999997
 20
261.96140036499997
 30
0.0
 42
-0.089085
  0
VERTEX
  5
538
  8
130_VU3
 10
371.71544671999999
 20
261.39286468
 30
0.0
  0
VERTEX
  5
539
  8
130_VU3
 10
369.653678915
 20
261.39286468
 30
0.0
 42
0.036288
  0
VERTEX
  5
53A
  8
130_VU3
 10
366.90534690999999
 20
261.15107834999998
 30
0.0
 42
0.041213
  0
VERTEX
  5
53B
  8
130_VU3
 10
341.37559866499998
 20
254.831163565
 30
0.0
 42
0.134127
  0
VERTEX
  5
53C
  8
130_VU3
 10
340.74898422500002
 20
254.55523962000001
 30
0.0
 42
-0.260122
  0
VERTEX
  5
53D
  8
130_VU3
 10
331.80972065499998
 20
252.99782977000001
 30
0.0
  0
VERTEX
  5
53E
  8
130_VU3
 10
301.00365708999999
 20
254.40384402500001
 30
0.0
 42
0.199029
  0
VERTEX
  5
53F
  8
130_VU3
 10
300.47143634499997
 20
254.24379017499999
 30
0.0
 42
-0.4042810000000001
  0
VERTEX
  5
540
  8
130_VU3
 10
293.43516778999998
 20
254.59713449
 30
0.0
 42
-0.127834
  0
VERTEX
  5
541
  8
130_VU3
 10
285.16260112999998
 20
269.69350495499998
 30
0.0
 42
-0.18807
  0
VERTEX
  5
542
  8
130_VU3
 10
285.41059516000001
 20
271.67043265000001
 30
0.0
 42
-0.063757
  0
VERTEX
  5
543
  8
130_VU3
 10
287.87229622000001
 20
275.09013578000003
 30
0.0
 42
0.176326
  0
VERTEX
  5
544
  8
130_VU3
 10
288.14108405000002
 20
275.72198412
 30
0.0
 42
-0.131652
  0
VERTEX
  5
545
  8
130_VU3
 10
321.48323232000001
 20
346.47536135500002
 30
0.0
 42
0.2810124
  0
VERTEX
  5
546
  8
130_VU3
 10
321.87787426
 20
351.88022797999997
 30
0.0
 42
0.2810124
  0
VERTEX
  5
547
  8
130_VU3
 10
317.25187128499999
 20
354.70306732500001
 30
0.0
  0
VERTEX
  5
548
  8
130_VU3
 10
315.61054028000001
 20
354.70306732500001
 30
0.0
 42
-0.4142140000000001
  0
VERTEX
  5
549
  8
130_VU3
 10
312.57787378500001
 20
357.73573382000001
 30
0.0
  0
VERTEX
  5
54A
  8
130_VU3
 10
312.57787378500001
 20
361.52642678500001
 30
0.0
 42
0.168823
  0
VERTEX
  5
54B
  8
130_VU3
 10
311.07777689
 20
365.64992835999999
 30
0.0
  0
VERTEX
  5
54C
  8
130_VU3
 10
299.92576212
 20
379.34513369000001
 30
0.0
 42
0.369924
  0
VERTEX
  5
54D
  8
130_VU3
 10
291.87102930999998
 20
379.548366305
 30
0.0
  0
VERTEX
  5
54E
  8
130_VU3
 10
290.97576696499999
 20
378.81935321999998
 30
0.0
  0
VERTEX
  5
54F
  8
130_VU3
 10
298.82895853500003
 20
369.17525972999999
 30
0.0
  0
VERTEX
  5
550
  8
130_VU3
 10
296.48485959999999
 20
367.26645882499997
 30
0.0
  0
VERTEX
  5
551
  8
130_VU3
 10
288.63166803000001
 20
376.91055231500002
 30
0.0
  0
VERTEX
  5
552
  8
130_VU3
 10
287.81459469499998
 20
376.24520831000001
 30
0.0
 42
0.341359
  0
VERTEX
  5
553
  8
130_VU3
 10
286.49402563000001
 20
368.407664565
 30
0.0
 42
0.126573
  0
VERTEX
  5
554
  8
130_VU3
 10
301.46313262000001
 20
352.10550504499997
 30
0.0
 42
0.06705
  0
VERTEX
  5
555
  8
130_VU3
 10
302.75808240499998
 20
351.50496180499999
 30
0.0
 42
-0.22834569
  0
VERTEX
  5
556
  8
130_VU3
 10
305.09433338000002
 20
349.33144260500001
 30
0.0
 42
-0.22834569
  0
VERTEX
  5
557
  8
130_VU3
 10
304.85039991000002
 20
346.14981553500002
 30
0.0
 42
0.131652
  0
VERTEX
  5
558
  8
130_VU3
 10
278.40629445500002
 20
288.95525201999999
 30
0.0
 42
0.137725
  0
VERTEX
  5
559
  8
130_VU3
 10
278.50706507500001
 20
271.58643302500002
 30
0.0
 42
-0.304325
  0
VERTEX
  5
55A
  8
130_VU3
 10
278.02403886500002
 20
270.08529048499997
 30
0.0
 42
0.315299
  0
VERTEX
  5
55B
  8
130_VU3
 10
276.69229197499999
 20
261.17088511999998
 30
0.0
 42
0.163691
  0
VERTEX
  5
55C
  8
130_VU3
 10
287.92719264999999
 20
246.440918205
 30
0.0
 42
0.218618
  0
VERTEX
  5
55D
  8
130_VU3
 10
290.18183493499998
 20
245.95685958999999
 30
0.0
 42
-0.223067
  0
VERTEX
  5
55E
  8
130_VU3
 10
299.97923000499998
 20
243.76628914
 30
0.0
 42
0.169474
  0
VERTEX
  5
55F
  8
130_VU3
 10
301.84708525500002
 20
243.140743985
 30
0.0
  0
SEQEND
  5
560
  8
130_VU3
  0
POLYLINE
  5
C7
  8
130_VU3
 66
     1
 10
0.0
 20
0.0
 30
0.0
  0
VERTEX
  5
561
  8
130_VU3
 10
106.51154114000001
 20
46.00058826499999
 30
0.0
 42
0.02186
  0
VERTEX
  5
562
  8
130_VU3
 10
109.00715952
 20
42.840642215000003
 30
0.0
 42
0.055558
  0
VERTEX
  5
563
  8
130_VU3
 10
109.278633325
 20
42.570493910000003
 30
0.0
 42
0.32758918
  0
VERTEX
  5
564
  8
130_VU3
 10
112.85559863500001
 20
42.431617895000002
 30
0.0
 42
0.32758918
  0
VERTEX
  5
565
  8
130_VU3
 10
114.06054700999999
 20
45.80238439499999
 30
0.0
 42
0.006259
  0
VERTEX
  5
566
  8
130_VU3
 10
113.88481886
 20
46.290261604999991
 30
0.0
 42
-0.043661
  0
VERTEX
  5
567
  8
130_VU3
 10
110.15056527500001
 20
59.732246564999997
 30
0.0
 42
-0.23517679
  0
VERTEX
  5
568
  8
130_VU3
 10
113.33897909
 20
75.420894230000002
 30
0.0
 42
-0.23517679
  0
VERTEX
  5
569
  8
130_VU3
 10
127.77968686
 20
82.332160920000007
 30
0.0
  0
VERTEX
  5
56A
  8
130_VU3
 10
127.77968686
 20
92.415445724999998
 30
0.0
  0
VERTEX
  5
56B
  8
130_VU3
 10
130.80467268000001
 20
92.415445724999998
 30
0.0
  0
VERTEX
  5
56C
  8
130_VU3
 10
130.804671735
 20
82.332160920000007
 30
0.0
 42
-0.23517679
  0
VERTEX
  5
56D
  8
130_VU3
 10
145.24538045
 20
75.420892339999995
 30
0.0
 42
-0.23517679
  0
VERTEX
  5
56E
  8
130_VU3
 10
148.43379332000001
 20
59.732242784999997
 30
0.0
 42
-0.065414
  0
VERTEX
  5
56F
  8
130_VU3
 10
144.69953878999999
 20
46.290258770000001
 30
0.0
 42
0.027954
  0
VERTEX
  5
570
  8
130_VU3
 10
144.52381253499999
 20
45.80238439499999
 30
0.0
 42
0.327589
  0
VERTEX
  5
571
  8
130_VU3
 10
145.72876015
 20
42.431617705000001
 30
0.0
 42
0.347272
  0
VERTEX
  5
572
  8
130_VU3
 10
149.30572622
 20
42.570493910000003
 30
0.0
 42
0.037849
  0
VERTEX
  5
573
  8
130_VU3
 10
149.57719718499999
 20
42.840640325000003
 30
0.0
 42
0.02186
  0
VERTEX
  5
574
  8
130_VU3
 10
152.07281556500001
 20
46.00058448499999
 30
0.0
 42
0.171186
  0
VERTEX
  5
575
  8
130_VU3
 10
162.26024523000001
 20
80.577044500000014
 30
0.0
 42
0.083445
  0
VERTEX
  5
576
  8
130_VU3
 10
161.01977966999999
 20
86.148826755000002
 30
0.0
 42
0.30529554
  0
VERTEX
  5
577
  8
130_VU3
 10
129.292178345
 20
107.512636775
 30
0.0
 42
0.30529554
  0
VERTEX
  5
578
  8
130_VU3
 10
97.564578925000021
 20
86.148823919999998
 30
0.0
 42
0.083875
  0
VERTEX
  5
579
  8
130_VU3
 10
96.324114315000017
 20
80.577040719999985
 30
0.0
 42
0.170746
  0
VERTEX
  5
57A
  8
130_VU3
 10
106.51154681
 20
46.0005807
 30
0.0
  0
SEQEND
  5
57B
  8
130_VU3
  0
POLYLINE
  5
E3
  8
130_VU3
 66
     1
 10
0.0
 20
0.0
 30
0.0
  0
VERTEX
  5
57C
  8
130_VU3
 10
423.77452911500001
 20
288.27105991000002
 30
0.0
 42
0.134769
  0
VERTEX
  5
57D
  8
130_VU3
 10
415.02584451500002
 20
290.41824359499998
 30
0.0
 42
-0.140659
  0
VERTEX
  5
57E
  8
130_VU3
 10
408.4740203099999
 20
292.10678940499997
 30
0.0
 42
0.088167
  0
VERTEX
  5
57F
  8
130_VU3
 10
382.12786241499998
 20
301.89851945999999
 30
0.0
 42
0.033155
  0
VERTEX
  5
580
  8
130_VU3
 10
378.42569768999999
 20
302.25462537999999
 30
0.0
  0
VERTEX
  5
581
  8
130_VU3
 10
375.12409871
 20
302.35240749000002
 30
0.0
 42
-0.102708
  0
VERTEX
  5
582
  8
130_VU3
 10
371.09171112000001
 20
303.49082609999999
 30
0.0
  0
VERTEX
  5
583
  8
130_VU3
 10
366.72106072999998
 20
305.76543587999998
 30
0.0
 42
0.053191
  0
VERTEX
  5
584
  8
130_VU3
 10
363.55880215500002
 20
307.00498153500001
 30
0.0
 42
-0.088462
  0
VERTEX
  5
585
  8
130_VU3
 10
325.12664325499998
 20
325.27484512500001
 30
0.0
 42
0.40217664
  0
VERTEX
  5
586
  8
130_VU3
 10
322.010123685
 20
324.50833069999999
 30
0.0
 42
0.40217664
  0
VERTEX
  5
587
  8
130_VU3
 10
322.64740067499997
 20
321.36283922500002
 30
0.0
 42
0.154107
  0
VERTEX
  5
588
  8
130_VU3
 10
369.99349978999999
 20
297.07360948000002
 30
0.0
 42
-0.089085
  0
VERTEX
  5
589
  8
130_VU3
 10
373.01930813500002
 20
295.98314784000002
 30
0.0
  0
VERTEX
  5
58A
  8
130_VU3
 10
374.80485040500002
 20
294.95226535500001
 30
0.0
 42
0.036288
  0
VERTEX
  5
58B
  8
130_VU3
 10
377.30586152500001
 20
293.78749476000002
 30
0.0
 42
0.041213
  0
VERTEX
  5
58C
  8
130_VU3
 10
402.57522776500002
 20
286.49582566999999
 30
0.0
 42
0.134128
  0
VERTEX
  5
58D
  8
130_VU3
 10
403.25586316499988
 20
286.42147322
 30
0.0
 42
-0.260122
  0
VERTEX
  5
58E
  8
130_VU3
 10
411.77619789499988
 20
283.30059804000001
 30
0.0
  0
VERTEX
  5
58F
  8
130_VU3
 10
437.75202491999988
 20
266.67992198000002
 30
0.0
 42
0.199029
  0
VERTEX
  5
590
  8
130_VU3
 10
438.29296821000003
 20
266.55242213999998
 30
0.0
 42
-0.4042810000000001
  0
VERTEX
  5
591
  8
130_VU3
 10
444.20988276999992
 20
262.72828457000003
 30
0.0
 42
-0.127834
  0
VERTEX
  5
592
  8
130_VU3
 10
443.82595093499992
 20
245.51816178999999
 30
0.0
 42
-0.18807
  0
VERTEX
  5
593
  8
130_VU3
 10
442.62271737999998
 20
243.93008689499999
 30
0.0
 42
-0.063756
  0
VERTEX
  5
594
  8
130_VU3
 10
438.78096927000001
 20
242.199388115
 30
0.0
 42
0.176327
  0
VERTEX
  5
595
  8
130_VU3
 10
438.23226493999988
 20
241.786579045
 30
0.0
 42
-0.131652
  0
VERTEX
  5
596
  8
130_VU3
 10
373.9804254
 20
197.18343526999999
 30
0.0
 42
0.28101201
  0
VERTEX
  5
597
  8
130_VU3
 10
370.93623160499999
 20
192.70000258499999
 30
0.0
 42
0.28101201
  0
VERTEX
  5
598
  8
130_VU3
 10
373.53104707
 20
187.94235430000001
 30
0.0
  0
VERTEX
  5
599
  8
130_VU3
 10
374.95248129499998
 20
187.12168926999999
 30
0.0
 42
-0.4142140000000001
  0
VERTEX
  5
59A
  8
130_VU3
 10
376.06251429500003
 20
182.978989775
 30
0.0
  0
VERTEX
  5
59B
  8
130_VU3
 10
374.16716686500001
 20
179.6961528649999
 30
0.0
 42
0.168823
  0
VERTEX
  5
59C
  8
130_VU3
 10
373.40453898999999
 20
175.37504681999999
 30
0.0
  0
VERTEX
  5
59D
  8
130_VU3
 10
376.21486383000001
 20
157.93864465999999
 30
0.0
 42
0.369924
  0
VERTEX
  5
59E
  8
130_VU3
 10
383.0888511
 20
153.7352731
 30
0.0
  0
VERTEX
  5
59F
  8
130_VU3
 10
384.22867745500002
 20
153.91898541
 30
0.0
  0
VERTEX
  5
5A0
  8
130_VU3
 10
382.24966036000001
 20
166.19761130000001
 30
0.0
  0
VERTEX
  5
5A1
  8
130_VU3
 10
385.23411083500002
 20
166.67863224499999
 30
0.0
  0
VERTEX
  5
5A2
  8
130_VU3
 10
387.21312698499997
 20
154.40000635499999
 30
0.0
  0
VERTEX
  5
5A3
  8
130_VU3
 10
388.25340516
 20
154.567674705
 30
0.0
 42
0.341359
  0
VERTEX
  5
5A4
  8
130_VU3
 10
393.3158234
 20
160.6949041
 30
0.0
 42
0.126573
  0
VERTEX
  5
5A5
  8
130_VU3
 10
388.50327586999998
 20
182.29754130500001
 30
0.0
 42
0.06705
  0
VERTEX
  5
5A6
  8
130_VU3
 10
387.68208896499999
 20
183.46509997499999
 30
0.0
 42
-0.22834526
  0
VERTEX
  5
5A7
  8
130_VU3
 10
386.74559577999997
 20
186.51554545499999
 30
0.0
 42
-0.22834526
  0
VERTEX
  5
5A8
  8
130_VU3
 10
388.547655335
 20
189.1489498
 30
0.0
 42
0.131652
  0
VERTEX
  5
5A9
  8
130_VU3
 10
440.04620511499991
 20
225.45883806000001
 30
0.0
 42
0.137726
  0
VERTEX
  5
5AA
  8
130_VU3
 10
448.64334946499991
 20
240.55106565
 30
0.0
 42
-0.304326
  0
VERTEX
  5
5AB
  8
130_VU3
 10
449.81223363499993
 20
241.60958213000001
 30
0.0
 42
0.315299
  0
VERTEX
  5
5AC
  8
130_VU3
 10
455.42276342000002
 20
248.66381103500001
 30
0.0
 42
0.163691
  0
VERTEX
  5
5AD
  8
130_VU3
 10
453.05803707500002
 20
267.03778734500003
 30
0.0
 42
0.218617
  0
VERTEX
  5
5AE
  8
130_VU3
 10
451.34748920499987
 20
268.584315285
 30
0.0
 42
-0.223066
  0
VERTEX
  5
5AF
  8
130_VU3
 10
443.95798222000002
 20
275.38010220500001
 30
0.0
 42
0.169473
  0
VERTEX
  5
5B0
  8
130_VU3
 10
442.65313945000003
 20
276.85577011499998
 30
0.0
 42
0.017626
  0
VERTEX
  5
5B1
  8
130_VU3
 10
423.77451966000001
 20
288.27106463500002
 30
0.0
  0
SEQEND
  5
5B2
  8
130_VU3
  0
POLYLINE
  5
11B
  8
130_VU3
 66
     1
 10
0.0
 20
0.0
 30
0.0
  0
VERTEX
  5
5B3
  8
130_VU3
 10
356.04617079000002
 20
484.557137195
 30
0.0
 42
0.134769
  0
VERTEX
  5
5B4
  8
130_VU3
 10
347.39599628500002
 20
482.04231049499992
 30
0.0
 42
-0.140659
  0
VERTEX
  5
5B5
  8
130_VU3
 10
340.87767719499999
 20
480.22872202500002
 30
0.0
 42
0.088167
  0
VERTEX
  5
5B6
  8
130_VU3
 10
313.16536913499999
 20
475.53553039000002
 30
0.0
 42
0.033155
  0
VERTEX
  5
5B7
  8
130_VU3
 10
309.78114801999999
 20
473.99284373500001
 30
0.0
  0
VERTEX
  5
5B8
  8
130_VU3
 10
306.87298812500001
 20
472.42672741500002
 30
0.0
 42
-0.102708
  0
VERTEX
  5
5B9
  8
130_VU3
 10
302.81162876000002
 20
471.39643203999992
 30
0.0
  0
VERTEX
  5
5BA
  8
130_VU3
 10
297.88922975000003
 20
471.18097690000002
 30
0.0
 42
0.053191
  0
VERTEX
  5
5BB
  8
130_VU3
 10
294.53086144000002
 20
470.67332600499998
 30
0.0
 42
-0.088462
  0
VERTEX
  5
5BC
  8
130_VU3
 10
252.11270345
 20
467.27941233500002
 30
0.0
 42
0.40217664
  0
VERTEX
  5
5BD
  8
130_VU3
 10
249.79697546
 20
465.05733122499993
 30
0.0
 42
0.40217664
  0
VERTEX
  5
5BE
  8
130_VU3
 10
251.92161962
 20
462.65189409999988
 30
0.0
 42
0.154107
  0
VERTEX
  5
5BF
  8
130_VU3
 10
305.06915933499999
 20
465.28985463499998
 30
0.0
 42
-0.089085
  0
VERTEX
  5
5C0
  8
130_VU3
 10
308.23481578500002
 20
465.85839126500002
 30
0.0
  0
VERTEX
  5
5C1
  8
130_VU3
 10
310.29658169999999
 20
465.85839126500002
 30
0.0
 42
0.036288
  0
VERTEX
  5
5C2
  8
130_VU3
 10
313.04490802999999
 20
466.10017570500003
 30
0.0
 42
0.041213
  0
VERTEX
  5
5C3
  8
130_VU3
 10
338.57465628
 20
472.420089545
 30
0.0
 42
0.134127
  0
VERTEX
  5
5C4
  8
130_VU3
 10
339.20127828
 20
472.69601538000001
 30
0.0
 42
-0.260122
  0
VERTEX
  5
5C5
  8
130_VU3
 10
348.14054184999998
 20
474.25342617500002
 30
0.0
  0
VERTEX
  5
5C6
  8
130_VU3
 10
378.94660635999998
 20
472.847410975
 30
0.0
 42
0.199029
  0
VERTEX
  5
5C7
  8
130_VU3
 10
379.47882615999998
 20
473.007464825
 30
0.0
 42
-0.4042810000000001
  0
VERTEX
  5
5C8
  8
130_VU3
 10
386.51509377000002
 20
472.65412239999989
 30
0.0
 42
-0.127834
  0
VERTEX
  5
5C9
  8
130_VU3
 10
394.78766137500003
 20
457.55775288000001
 30
0.0
 42
-0.18807
  0
VERTEX
  5
5CA
  8
130_VU3
 10
394.539667345
 20
455.58082235000001
 30
0.0
 42
-0.063757
  0
VERTEX
  5
5CB
  8
130_VU3
 10
392.077966285
 20
452.16111921999988
 30
0.0
 42
0.176327
  0
VERTEX
  5
5CC
  8
130_VU3
 10
391.80917845499999
 20
451.52926521000001
 30
0.0
 42
-0.131652
  0
VERTEX
  5
5CD
  8
130_VU3
 10
358.46702546
 20
380.77588986500001
 30
0.0
 42
0.28101201
  0
VERTEX
  5
5CE
  8
130_VU3
 10
358.07239143999999
 20
375.37102627500002
 30
0.0
 42
0.28101201
  0
VERTEX
  5
5CF
  8
130_VU3
 10
362.69839122500002
 20
372.54818862000002
 30
0.0
  0
VERTEX
  5
5D0
  8
130_VU3
 10
364.339722225
 20
372.54818862000002
 30
0.0
 42
-0.4142140000000001
  0
VERTEX
  5
5D1
  8
130_VU3
 10
367.37238967000002
 20
369.51552212500002
 30
0.0
  0
VERTEX
  5
5D2
  8
130_VU3
 10
367.37238967000002
 20
365.72482916000001
 30
0.0
 42
0.168823
  0
VERTEX
  5
5D3
  8
130_VU3
 10
368.87248656499997
 20
361.60132758499998
 30
0.0
  0
VERTEX
  5
5D4
  8
130_VU3
 10
380.02450038500001
 20
347.90612225500001
 30
0.0
 42
0.369924
  0
VERTEX
  5
5D5
  8
130_VU3
 10
388.07923319499997
 20
347.70288964000002
 30
0.0
  0
VERTEX
  5
5D6
  8
130_VU3
 10
388.97449554000002
 20
348.43190177999998
 30
0.0
  0
VERTEX
  5
5D7
  8
130_VU3
 10
381.12130396999999
 20
358.07599527000002
 30
0.0
  0
VERTEX
  5
5D8
  8
130_VU3
 10
383.46540290500002
 20
359.98479712
 30
0.0
  0
VERTEX
  5
5D9
  8
130_VU3
 10
391.31859542000001
 20
350.34070363000001
 30
0.0
  0
VERTEX
  5
5DA
  8
130_VU3
 10
392.13566780999997
 20
351.00604763500002
 30
0.0
 42
0.341359
  0
VERTEX
  5
5DB
  8
130_VU3
 10
393.45623592999999
 20
358.84359327499999
 30
0.0
 42
0.126573
  0
VERTEX
  5
5DC
  8
130_VU3
 10
378.48712893999999
 20
375.14575185000001
 30
0.0
 42
0.06705
  0
VERTEX
  5
5DD
  8
130_VU3
 10
377.19218010499998
 20
375.74629413999997
 30
0.0
 42
-0.22834526
  0
VERTEX
  5
5DE
  8
130_VU3
 10
374.85593152500002
 20
377.91981134000002
 30
0.0
 42
-0.22834526
  0
VERTEX
  5
5DF
  8
130_VU3
 10
375.09985976000002
 20
381.10143568500001
 30
0.0
 42
0.131652
  0
VERTEX
  5
5E0
  8
130_VU3
 10
401.54396710499998
 20
438.29599731000002
 30
0.0
 42
0.137726
  0
VERTEX
  5
5E1
  8
130_VU3
 10
401.4431983799999
 20
455.66482102999993
 30
0.0
 42
-0.304326
  0
VERTEX
  5
5E2
  8
130_VU3
 10
401.92622269499992
 20
457.16596451499993
 30
0.0
 42
0.315299
  0
VERTEX
  5
5E3
  8
130_VU3
 10
403.25797052999991
 20
466.08037082499987
 30
0.0
 42
0.163692
  0
VERTEX
  5
5E4
  8
130_VU3
 10
392.02306891000001
 20
480.81033774000002
 30
0.0
 42
0.218617
  0
VERTEX
  5
5E5
  8
130_VU3
 10
389.76842756999997
 20
481.29439636000001
 30
0.0
 42
-0.223067
  0
VERTEX
  5
5E6
  8
130_VU3
 10
379.97103249999998
 20
483.484966805
 30
0.0
 42
0.169473
  0
VERTEX
  5
5E7
  8
130_VU3
 10
378.10317157999998
 20
484.11051195999988
 30
0.0
 42
0.017626
  0
VERTEX
  5
5E8
  8
130_VU3
 10
356.04615376999999
 20
484.557137195
 30
0.0
  0
SEQEND
  5
5E9
  8
130_VU3
  0
POLYLINE
  5
153
  8
130_VU3
 66
     1
 10
0.0
 20
0.0
 30
0.0
  0
VERTEX
  5
5EA
  8
130_VU3
 10
211.96482327499999
 20
75.416874399999998
 30
0.0
 42
0.038561
  0
VERTEX
  5
5EB
  8
130_VU3
 10
194.98801388000001
 20
57.967345885
 30
0.0
 42
0.00632
  0
VERTEX
  5
5EC
  8
130_VU3
 10
193.668978305
 20
56.342685660000001
 30
0.0
 42
0.091634
  0
VERTEX
  5
5ED
  8
130_VU3
 10
193.506025765
 20
56.063369510000001
 30
0.0
 42
0.37070459
  0
VERTEX
  5
5EE
  8
130_VU3
 10
194.589708965
 20
53.224295840000003
 30
0.0
 42
0.37070459
  0
VERTEX
  5
5EF
  8
130_VU3
 10
197.55936220500001
 20
53.869174285
 30
0.0
 42
-0.090312
  0
VERTEX
  5
5F0
  8
130_VU3
 10
220.248188645
 20
74.740604055000006
 30
0.0
 42
-0.233675
  0
VERTEX
  5
5F1
  8
130_VU3
 10
222.32343356499999
 20
74.958164675000006
 30
0.0
  0
VERTEX
  5
5F2
  8
130_VU3
 10
225.15421563000001
 20
73.90988437
 30
0.0
 42
0.12994
  0
VERTEX
  5
5F3
  8
130_VU3
 10
226.19235713
 20
73.809680064999995
 30
0.0
  0
VERTEX
  5
5F4
  8
130_VU3
 10
239.417422475
 20
75.973896629999999
 30
0.0
 42
-0.20633618
  0
VERTEX
  5
5F5
  8
130_VU3
 10
249.00138540500001
 20
73.580200059999996
 30
0.0
 42
-0.20633618
  0
VERTEX
  5
5F6
  8
130_VU3
 10
253.842052155
 20
64.969156330000004
 30
0.0
 42
0.230423
  0
VERTEX
  5
5F7
  8
130_VU3
 10
260.55749448500001
 20
54.212521614999993
 30
0.0
 42
-0.27242308
  0
VERTEX
  5
5F8
  8
130_VU3
 10
260.98133239999999
 20
50.7789894
 30
0.0
 42
-0.27242308
  0
VERTEX
  5
5F9
  8
130_VU3
 10
258.185356915
 20
48.741514709999997
 30
0.0
 42
0.108366
  0
VERTEX
  5
5FA
  8
130_VU3
 10
252.54608131000001
 20
48.252966239999992
 30
0.0
 42
0.099476
  0
VERTEX
  5
5FB
  8
130_VU3
 10
250.18843719
 20
46.963119894999991
 30
0.0
 42
0.09343
  0
VERTEX
  5
5FC
  8
130_VU3
 10
241.811317245
 20
37.761242150000001
 30
0.0
 42
0.375149
  0
VERTEX
  5
5FD
  8
130_VU3
 10
242.42087799999999
 20
34.114139309999999
 30
0.0
 42
0.053014
  0
VERTEX
  5
5FE
  8
130_VU3
 10
245.53332939500001
 20
32.06845706
 30
0.0
  0
VERTEX
  5
5FF
  8
130_VU3
 10
257.39010222500002
 20
44.538293469999999
 30
0.0
  0
VERTEX
  5
600
  8
130_VU3
 10
259.58227896
 20
42.45389110499999
 30
0.0
  0
VERTEX
  5
601
  8
130_VU3
 10
246.44171904500001
 20
28.633887980000001
 30
0.0
 42
0.062766
  0
VERTEX
  5
602
  8
130_VU3
 10
248.10736463500001
 20
27.083555629999999
 30
0.0
 42
0.305603
  0
VERTEX
  5
603
  8
130_VU3
 10
253.97637422
 20
26.901493094999999
 30
0.0
 42
0.120117
  0
VERTEX
  5
604
  8
130_VU3
 10
264.79884399999997
 20
37.857736590000002
 30
0.0
 42
0.10123
  0
VERTEX
  5
605
  8
130_VU3
 10
265.37519177500002
 20
39.495410665000001
 30
0.0
 42
0.074436
  0
VERTEX
  5
606
  8
130_VU3
 10
265.31104808499998
 20
44.850238320000003
 30
0.0
 42
-0.392353
  0
VERTEX
  5
607
  8
130_VU3
 10
267.83741565499997
 20
47.976851320000002
 30
0.0
  0
VERTEX
  5
608
  8
130_VU3
 10
270.52467094500003
 20
48.364840944999997
 30
0.0
 42
0.347149
  0
VERTEX
  5
609
  8
130_VU3
 10
278.93470416999997
 20
57.228545695000001
 30
0.0
 42
0.251467
  0
VERTEX
  5
60A
  8
130_VU3
 10
272.76310003999998
 20
76.630963390000005
 30
0.0
  0
VERTEX
  5
60B
  8
130_VU3
 10
270.43019121999998
 20
78.89363238
 30
0.0
 42
0.120806
  0
VERTEX
  5
60C
  8
130_VU3
 10
251.930999235
 20
89.724384130000004
 30
0.0
 42
0.131652
  0
VERTEX
  5
60D
  8
130_VU3
 10
226.26680318000001
 20
87.232814079999997
 30
0.0
 42
0.131652
  0
VERTEX
  5
60E
  8
130_VU3
 10
218.48409063
 20
80.542743329999993
 30
0.0
 42
-0.092188
  0
VERTEX
  5
60F
  8
130_VU3
 10
215.23983201999999
 20
77.655988930000007
 30
0.0
 42
0.028209
  0
VERTEX
  5
610
  8
130_VU3
 10
211.96483083999999
 20
75.416880074999995
 30
0.0
  0
SEQEND
  5
611
  8
130_VU3
  0
POLYLINE
  5
17C
  8
130_VU3
 66
     1
 10
0.0
 20
0.0
 30
0.0
  0
VERTEX
  5
612
  8
130_VU3
 10
245.90399210999999
 20
379.52829387000003
 30
0.0
 42
0.042086
  0
VERTEX
  5
613
  8
130_VU3
 10
225.12563337
 20
351.44189118000003
 30
0.0
 42
0.131652
  0
VERTEX
  5
614
  8
130_VU3
 10
224.69242095999999
 20
350.31901355999997
 30
0.0
 42
-0.264718
  0
VERTEX
  5
615
  8
130_VU3
 10
219.82405047500001
 20
345.182707075
 30
0.0
 42
0.131653
  0
VERTEX
  5
616
  8
130_VU3
 10
218.54748554
 20
344.56291864999997
 30
0.0
 42
0.031512
  0
VERTEX
  5
617
  8
130_VU3
 10
200.82747781
 20
328.58751604499997
 30
0.0
 42
-0.131652
  0
VERTEX
  5
618
  8
130_VU3
 10
178.85374393999999
 20
315.56852811499999
 30
0.0
 42
0.414213
  0
VERTEX
  5
619
  8
130_VU3
 10
177.199113565
 20
312.02302030999999
 30
0.0
 42
0.389149
  0
VERTEX
  5
61A
  8
130_VU3
 10
180.74461948000001
 20
310.36838804500002
 30
0.0
 42
0.153915
  0
VERTEX
  5
61B
  8
130_VU3
 10
222.95629256999999
 20
339.93540608500001
 30
0.0
 42
-0.215941
  0
VERTEX
  5
61C
  8
130_VU3
 10
227.04647622499999
 20
343.58805009500003
 30
0.0
 42
0.075548
  0
VERTEX
  5
61D
  8
130_VU3
 10
231.58540761
 20
345.80533368499999
 30
0.0
 42
0.079712
  0
VERTEX
  5
61E
  8
130_VU3
 10
252.718583645
 20
373.20955803499999
 30
0.0
 42
0.043661
  0
VERTEX
  5
61F
  8
130_VU3
 10
253.02301893999999
 20
374.08447376499998
 30
0.0
 42
-0.289789
  0
VERTEX
  5
620
  8
130_VU3
 10
258.56502012999999
 20
380.30223476499998
 30
0.0
 42
0.131652
  0
VERTEX
  5
621
  8
130_VU3
 10
259.20092058500001
 20
380.63894328499998
 30
0.0
 42
0.042678
  0
VERTEX
  5
622
  8
130_VU3
 10
285.31792688500002
 20
404.29428255999989
 30
0.0
 42
0.131652
  0
VERTEX
  5
623
  8
130_VU3
 10
285.73173810999998
 20
404.92633417000002
 30
0.0
 42
-0.399625
  0
VERTEX
  5
624
  8
130_VU3
 10
293.61974894500003
 20
408.21382260000001
 30
0.0
 42
0.039573
  0
VERTEX
  5
625
  8
130_VU3
 10
294.08776454999997
 20
408.07600243999991
 30
0.0
 42
0.080143
  0
VERTEX
  5
626
  8
130_VU3
 10
306.57815367500001
 20
407.58228813999989
 30
0.0
 42
-0.083421
  0
VERTEX
  5
627
  8
130_VU3
 10
307.13808216000001
 20
407.55650341
 30
0.0
 42
-0.261449
  0
VERTEX
  5
628
  8
130_VU3
 10
316.51835605500003
 20
399.26399951000002
 30
0.0
 42
-0.085426
  0
VERTEX
  5
629
  8
130_VU3
 10
356.76929856999999
 20
322.04975796000002
 30
0.0
 42
0.27376357
  0
VERTEX
  5
62A
  8
130_VU3
 10
359.85852009000001
 20
319.305855275
 30
0.0
 42
0.27376357
  0
VERTEX
  5
62B
  8
130_VU3
 10
363.75026037999999
 20
320.69389312999999
 30
0.0
 42
-0.20779875
  0
VERTEX
  5
62C
  8
130_VU3
 10
367.74476886500003
 20
322.70924117499999
 30
0.0
 42
-0.20779875
  0
VERTEX
  5
62D
  8
130_VU3
 10
371.94414356499999
 20
321.16555147999998
 30
0.0
 42
0.12059
  0
VERTEX
  5
62E
  8
130_VU3
 10
376.76885595499999
 20
319.18829004999998
 30
0.0
 42
0.009784
  0
VERTEX
  5
62F
  8
130_VU3
 10
382.16897068499998
 20
318.48584167000001
 30
0.0
 42
0.037307
  0
VERTEX
  5
630
  8
130_VU3
 10
391.83778907499999
 20
317.50986696500001
 30
0.0
 42
0.39574
  0
VERTEX
  5
631
  8
130_VU3
 10
398.22705687500002
 20
323.00508445999998
 30
0.0
  0
VERTEX
  5
632
  8
130_VU3
 10
398.33994602500002
 20
324.05779410500003
 30
0.0
  0
VERTEX
  5
633
  8
130_VU3
 10
389.78584618500003
 20
324.97511145499999
 30
0.0
  0
VERTEX
  5
634
  8
130_VU3
 10
390.10838742499999
 20
327.98285167500001
 30
0.0
  0
VERTEX
  5
635
  8
130_VU3
 10
398.66248726499998
 20
327.06553431999998
 30
0.0
  0
VERTEX
  5
636
  8
130_VU3
 10
398.78827870999999
 20
328.23855285500002
 30
0.0
 42
0.385754
  0
VERTEX
  5
637
  8
130_VU3
 10
393.709476155
 20
334.96357428499999
 30
0.0
 42
0.07142
  0
VERTEX
  5
638
  8
130_VU3
 10
375.193140675
 20
335.798112565
 30
0.0
 42
0.125182
  0
VERTEX
  5
639
  8
130_VU3
 10
370.48868612500002
 20
334.26673514999999
 30
0.0
  0
VERTEX
  5
63A
  8
130_VU3
 10
368.53999561000001
 20
333.03475293999998
 30
0.0
 42
-0.21135508
  0
VERTEX
  5
63B
  8
130_VU3
 10
367.16358221000002
 20
332.8306852
 30
0.0
 42
-0.21135508
  0
VERTEX
  5
63C
  8
130_VU3
 10
366.08686488500001
 20
333.71206893499999
 30
0.0
 42
-0.053946
  0
VERTEX
  5
63D
  8
130_VU3
 10
365.40846069999998
 20
335.51189193499999
 30
0.0
 42
0.123631
  0
VERTEX
  5
63E
  8
130_VU3
 10
327.06438473499998
 20
405.91971898499992
 30
0.0
 42
0.083404
  0
VERTEX
  5
63F
  8
130_VU3
 10
322.1200905
 20
408.76758498499998
 30
0.0
 42
-0.198146
  0
VERTEX
  5
640
  8
130_VU3
 10
315.99324873
 20
414.44540107
 30
0.0
 42
0.150427
  0
VERTEX
  5
641
  8
130_VU3
 10
310.78176254499999
 20
418.36695581999999
 30
0.0
 42
0.126897
  0
VERTEX
  5
642
  8
130_VU3
 10
293.694801015
 20
419.81723229999989
 30
0.0
 42
0.151148
  0
VERTEX
  5
643
  8
130_VU3
 10
288.80926813000002
 20
417.57916625000001
 30
0.0
  0
VERTEX
  5
644
  8
130_VU3
 10
285.57999554000003
 20
414.691589325
 30
0.0
 42
-0.149472
  0
VERTEX
  5
645
  8
130_VU3
 10
282.07847579000003
 20
413.03417371500001
 30
0.0
  0
VERTEX
  5
646
  8
130_VU3
 10
280.47637259499999
 20
412.79965773999999
 30
0.0
 42
0.118985
  0
VERTEX
  5
647
  8
130_VU3
 10
278.19989275500001
 20
411.75335811999997
 30
0.0
 42
0.026899
  0
VERTEX
  5
648
  8
130_VU3
 10
253.89666023500001
 20
389.32880224500002
 30
0.0
 42
0.111177
  0
VERTEX
  5
649
  8
130_VU3
 10
251.73194258999999
 20
385.45878576000001
 30
0.0
 42
-0.25164
  0
VERTEX
  5
64A
  8
130_VU3
 10
247.01811598500001
 20
380.29066553000001
 30
0.0
 42
0.131652
  0
VERTEX
  5
64B
  8
130_VU3
 10
245.90400251
 20
379.52830521499999
 30
0.0
  0
SEQEND
  5
64C
  8
130_VU3
  0
POLYLINE
  5
1B8
  8
130_VU3
 66
     1
 10
0.0
 20
0.0
 30
0.0
  0
VERTEX
  5
64D
  8
130_VU3
 10
159.32650197999999
 20
426.60545955499992
 30
0.0
 42
0.06856
  0
VERTEX
  5
64E
  8
130_VU3
 10
159.43537683
 20
428.07505496499999
 30
0.0
 42
0.21954072
  0
VERTEX
  5
64F
  8
130_VU3
 10
158.066123965
 20
429.93528666499992
 30
0.0
 42
0.21954072
  0
VERTEX
  5
650
  8
130_VU3
 10
155.76224912000001
 20
430.101045785
 30
0.0
 42
0.096534
  0
VERTEX
  5
651
  8
130_VU3
 10
154.86574731499999
 20
429.3616726649999
 30
0.0
 42
0.216261
  0
VERTEX
  5
652
  8
130_VU3
 10
145.27071033499999
 20
393.68426524
 30
0.0
 42
0.336112
  0
VERTEX
  5
653
  8
130_VU3
 10
172.90521701500001
 20
372.74178540499997
 30
0.0
  0
VERTEX
  5
654
  8
130_VU3
 10
176.40601824000001
 20
372.74178540499997
 30
0.0
 42
0.336112
  0
VERTEX
  5
655
  8
130_VU3
 10
204.04052492
 20
393.68426618500001
 30
0.0
 42
0.216261
  0
VERTEX
  5
656
  8
130_VU3
 10
194.44548793999999
 20
429.36167361000003
 30
0.0
 42
0.096534
  0
VERTEX
  5
657
  8
130_VU3
 10
193.54898707999999
 20
430.101045785
 30
0.0
 42
0.21954072
  0
VERTEX
  5
658
  8
130_VU3
 10
191.24511201499999
 20
429.93528619
 30
0.0
 42
0.21954072
  0
VERTEX
  5
659
  8
130_VU3
 10
189.875859365
 20
428.07505401999993
 30
0.0
 42
0.06856
  0
VERTEX
  5
65A
  8
130_VU3
 10
189.98473422000001
 20
426.60545955499992
 30
0.0
 42
-0.025879
  0
VERTEX
  5
65B
  8
130_VU3
 10
192.45239716
 20
411.22729685500002
 30
0.0
 42
-0.279394
  0
VERTEX
  5
65C
  8
130_VU3
 10
189.07042995500001
 20
403.99728780499993
 30
0.0
 42
-0.10716
  0
VERTEX
  5
65D
  8
130_VU3
 10
176.16811006500001
 20
398.920599235
 30
0.0
  0
VERTEX
  5
65E
  8
130_VU3
 10
176.16811006500001
 20
388.837314435
 30
0.0
  0
VERTEX
  5
65F
  8
130_VU3
 10
173.14312519000001
 20
388.837314435
 30
0.0
  0
VERTEX
  5
660
  8
130_VU3
 10
173.143124245
 20
398.920599235
 30
0.0
 42
-0.10716
  0
VERTEX
  5
661
  8
130_VU3
 10
160.24080434999999
 20
403.99728875
 30
0.0
 42
-0.279395
  0
VERTEX
  5
662
  8
130_VU3
 10
156.858837145
 20
411.22729023499988
 30
0.0
 42
-0.025879
  0
VERTEX
  5
663
  8
130_VU3
 10
159.32649914000001
 20
426.60544631499988
 30
0.0
  0
SEQEND
  5
664
  8
130_VU3
  0
POLYLINE
  5
1D1
  8
130_VU3
 66
     1
 10
0.0
 20
0.0
 30
0.0
 70
     1
  0
VERTEX
  5
665
  8
130_VU3
 10
118.30939284
 20
116.25142938499999
 30
0.0
 42
0.188867
  0
VERTEX
  5
666
  8
130_VU3
 10
139.18681191499999
 20
112.52341848
 30
0.0
 42
0.106043
  0
VERTEX
  5
667
  8
130_VU3
 10
160.37877956
 20
121.68197469499999
 30
0.0
 42
0.00687
  0
VERTEX
  5
668
  8
130_VU3
 10
163.266267615
 20
123.80042769000001
 30
0.0
 42
0.37431983
  0
VERTEX
  5
669
  8
130_VU3
 10
163.832399205
 20
127.712827695
 30
0.0
 42
0.37431983
  0
VERTEX
  5
66A
  8
130_VU3
 10
160.03518169
 20
128.81215383
 30
0.0
 42
-0.124888
  0
VERTEX
  5
66B
  8
130_VU3
 10
145.82373150000001
 20
127.6047774
 30
0.0
 42
-0.267407
  0
VERTEX
  5
66C
  8
130_VU3
 10
133.25665943499999
 20
143.697392605
 30
0.0
  0
VERTEX
  5
66D
  8
130_VU3
 10
123.173374635
 20
143.69739165999999
 30
0.0
  0
VERTEX
  5
66E
  8
130_VU3
 10
123.173374635
 20
146.72237748000001
 30
0.0
  0
VERTEX
  5
66F
  8
130_VU3
 10
133.25665849000001
 20
146.722376535
 30
0.0
 42
-0.267407
  0
VERTEX
  5
670
  8
130_VU3
 10
145.82373150000001
 20
162.81499174499999
 30
0.0
 42
-0.124888
  0
VERTEX
  5
671
  8
130_VU3
 10
160.03518169
 20
161.607615315
 30
0.0
 42
0.37431983
  0
VERTEX
  5
672
  8
130_VU3
 10
163.83239872999999
 20
162.706941855
 30
0.0
 42
0.37431983
  0
VERTEX
  5
673
  8
130_VU3
 10
163.26626666999999
 20
166.61934145500001
 30
0.0
 42
0.00687
  0
VERTEX
  5
674
  8
130_VU3
 10
160.37877956
 20
168.73779444499999
 30
0.0
 42
0.113503
  0
VERTEX
  5
675
  8
130_VU3
 10
139.18681286
 20
177.896350665
 30
0.0
 42
0.182811
  0
VERTEX
  5
676
  8
130_VU3
 10
118.309388115
 20
174.16833597499999
 30
0.0
 42
0.26400469
  0
VERTEX
  5
677
  8
130_VU3
 10
101.873499055
 20
145.20988134000001
 30
0.0
 42
0.26400469
  0
VERTEX
  5
678
  8
130_VU3
 10
118.30939284
 20
116.25142938499999
 30
0.0
  0
SEQEND
  5
679
  8
130_VU3
  0
POLYLINE
  5
1E7
  8
130_VU3
 66
     1
 10
0.0
 20
0.0
 30
0.0
 70
     1
  0
VERTEX
  5
67A
  8
130_VU3
 10
9.6089297649999992
 20
20.927300564999999
 30
0.0
 42
-0.41421356
  0
VERTEX
  5
67B
  8
130_VU3
 10
13.138079729999999
 20
17.398150600000001
 30
0.0
 42
-0.41421356
  0
VERTEX
  5
67C
  8
130_VU3
 10
9.6089297649999992
 20
13.869000635000001
 30
0.0
 42
-0.41421356
  0
VERTEX
  5
67D
  8
130_VU3
 10
6.079779799999999
 20
17.398150600000001
 30
0.0
 42
-0.41421356
  0
VERTEX
  5
67E
  8
130_VU3
 10
9.6089297649999992
 20
20.927300564999999
 30
0.0
  0
SEQEND
  5
67F
  8
130_VU3
  0
POLYLINE
  5
1EE
  8
130_VU3
 66
     1
 10
0.0
 20
0.0
 30
0.0
 70
     1
  0
VERTEX
  5
680
  8
130_VU3
 10
9.6089297649999992
 20
58.709933464999999
 30
0.0
 42
-0.41421356
  0
VERTEX
  5
681
  8
130_VU3
 10
13.138079729999999
 20
55.18078349999999
 30
0.0
 42
-0.41421356
  0
VERTEX
  5
682
  8
130_VU3
 10
9.6089297649999992
 20
51.651633535000002
 30
0.0
 42
-0.41421356
  0
VERTEX
  5
683
  8
130_VU3
 10
6.079779799999999
 20
55.18078349999999
 30
0.0
 42
-0.41421356
  0
VERTEX
  5
684
  8
130_VU3
 10
9.6089297649999992
 20
58.709933464999999
 30
0.0
  0
SEQEND
  5
685
  8
130_VU3
  0
POLYLINE
  5
1F5
  8
130_VU3
 66
     1
 10
0.0
 20
0.0
 30
0.0
 70
     1
  0
VERTEX
  5
686
  8
130_VU3
 10
24.293396885
 20
319.40347101499998
 30
0.0
  0
VERTEX
  5
687
  8
130_VU3
 10
24.456483680000002
 20
319.08137885500003
 30
0.0
 42
-0.238612
  0
VERTEX
  5
688
  8
130_VU3
 10
24.640592125000001
 20
314.53232664000001
 30
0.0
 42
0.116044
  0
VERTEX
  5
689
  8
130_VU3
 10
23.478457384999999
 20
308.70846041999999
 30
0.0
  0
VERTEX
  5
68A
  8
130_VU3
 10
35.852849734999999
 20
313.03294543499999
 30
0.0
  0
VERTEX
  5
68B
  8
130_VU3
 10
36.85080854000001
 20
310.17731650500002
 30
0.0
  0
VERTEX
  5
68C
  8
130_VU3
 10
24.476415249999999
 20
305.85283149000003
 30
0.0
 42
-0.221695
  0
VERTEX
  5
68D
  8
130_VU3
 10
27.511771495000001
 20
297.78620326999999
 30
0.0
 42
0.26891
  0
VERTEX
  5
68E
  8
130_VU3
 10
31.133259785
 20
290.26913027000001
 30
0.0
  0
VERTEX
  5
68F
  8
130_VU3
 10
36.719283060000002
 20
299.85141812000001
 30
0.0
  0
VERTEX
  5
690
  8
130_VU3
 10
39.332634980000002
 20
298.32795679499998
 30
0.0
  0
VERTEX
  5
691
  8
130_VU3
 10
33.92294681500001
 20
289.04815854499998
 30
0.0
 42
0.305474
  0
VERTEX
  5
692
  8
130_VU3
 10
42.608714894999999
 20
292.36365252500002
 30
0.0
  0
VERTEX
  5
693
  8
130_VU3
 10
49.959763649999999
 20
302.80985034499997
 30
0.0
 42
-0.24407771
  0
VERTEX
  5
694
  8
130_VU3
 10
53.258230894999997
 20
304.52201542
 30
0.0
 42
-0.24407771
  0
VERTEX
  5
695
  8
130_VU3
 10
56.556698134999998
 20
302.80985034499997
 30
0.0
  0
VERTEX
  5
696
  8
130_VU3
 10
63.907746889999999
 20
292.36365346999997
 30
0.0
 42
0.305474
  0
VERTEX
  5
697
  8
130_VU3
 10
72.593514975000005
 20
289.04815760000002
 30
0.0
  0
VERTEX
  5
698
  8
130_VU3
 10
67.183827754999996
 20
298.32795679499998
 30
0.0
  0
VERTEX
  5
699
  8
130_VU3
 10
69.797178724999995
 20
299.85141812000001
 30
0.0
  0
VERTEX
  5
69A
  8
130_VU3
 10
75.383202949999998
 20
290.26913121500002
 30
0.0
 42
0.26891
  0
VERTEX
  5
69B
  8
130_VU3
 10
79.004690289999985
 20
297.78620326999999
 30
0.0
 42
-0.221695
  0
VERTEX
  5
69C
  8
130_VU3
 10
82.040046540000006
 20
305.85283149000003
 30
0.0
  0
VERTEX
  5
69D
  8
130_VU3
 10
69.665654195000002
 20
310.17731650500002
 30
0.0
  0
VERTEX
  5
69E
  8
130_VU3
 10
70.663612055000002
 20
313.03294543499999
 30
0.0
  0
VERTEX
  5
69F
  8
130_VU3
 10
83.038004400000005
 20
308.70846136500001
 30
0.0
 42
0.116044
  0
VERTEX
  5
6A0
  8
130_VU3
 10
81.875869664999996
 20
314.53232664000001
 30
0.0
 42
-0.217461
  0
VERTEX
  5
6A1
  8
130_VU3
 10
82.059978110000003
 20
319.08137979999998
 30
0.0
  0
VERTEX
  5
6A2
  8
130_VU3
 10
82.223064899999983
 20
319.40347007000003
 30
0.0
 42
0.116166
  0
VERTEX
  5
6A3
  8
130_VU3
 10
83.387777825000015
 20
325.23298334499998
 30
0.0
  0
VERTEX
  5
6A4
  8
130_VU3
 10
70.382700964999984
 20
321.21224346499997
 30
0.0
  0
VERTEX
  5
6A5
  8
130_VU3
 10
69.489202794999997
 20
324.10226054499998
 30
0.0
  0
VERTEX
  5
6A6
  8
130_VU3
 10
82.494280599999996
 20
328.12299947999998
 30
0.0
 42
-0.218293
  0
VERTEX
  5
6A7
  8
130_VU3
 10
81.529205759999996
 20
337.76490808
 30
0.0
 42
0.36397
  0
VERTEX
  5
6A8
  8
130_VU3
 10
79.431866124999985
 20
343.20380438000001
 30
0.0
  0
VERTEX
  5
6A9
  8
130_VU3
 10
72.594278880000005
 20
334.44453000499999
 30
0.0
  0
VERTEX
  5
6AA
  8
130_VU3
 10
70.210193899999993
 20
336.30551575499999
 30
0.0
  0
VERTEX
  5
6AB
  8
130_VU3
 10
77.077684175000002
 20
345.10337409499999
 30
0.0
 42
0.131652
  0
VERTEX
  5
6AC
  8
130_VU3
 10
71.112072370000007
 20
347.98936080499999
 30
0.0
 42
0.053166
  0
VERTEX
  5
6AD
  8
130_VU3
 10
68.277156880000007
 20
348.22391364999999
 30
0.0
 42
-0.417655
  0
VERTEX
  5
6AE
  8
130_VU3
 10
63.746883754999992
 20
351.74438456000001
 30
0.0
 42
0.230038
  0
VERTEX
  5
6AF
  8
130_VU3
 10
60.431682860000002
 20
356.93238246499999
 30
0.0
 42
0.120328
  0
VERTEX
  5
6B0
  8
130_VU3
 10
59.711712820000002
 20
357.145800205
 30
0.0
  0
VERTEX
  5
6B1
  8
130_VU3
 10
54.77072380500001
 20
357.38647565500003
 30
0.0
  0
VERTEX
  5
6B2
  8
130_VU3
 10
54.77072380500001
 20
328.747392155
 30
0.0
  0
VERTEX
  5
6B3
  8
130_VU3
 10
51.745737984999991
 20
328.747392155
 30
0.0
  0
VERTEX
  5
6B4
  8
130_VU3
 10
51.745737984999991
 20
357.38647565500003
 30
0.0
  0
VERTEX
  5
6B5
  8
130_VU3
 10
46.804749915000002
 20
357.145800205
 30
0.0
 42
0.132927
  0
VERTEX
  5
6B6
  8
130_VU3
 10
46.084779875000002
 20
356.93238246499999
 30
0.0
 42
0.228719
  0
VERTEX
  5
6B7
  8
130_VU3
 10
42.769578979999999
 20
351.74438456000001
 30
0.0
 42
-0.417655
  0
VERTEX
  5
6B8
  8
130_VU3
 10
38.239304904999997
 20
348.22391364999999
 30
0.0
 42
0.053166
  0
VERTEX
  5
6B9
  8
130_VU3
 10
35.404389420000001
 20
347.98936080499999
 30
0.0
 42
0.131652
  0
VERTEX
  5
6BA
  8
130_VU3
 10
29.438777614999999
 20
345.10337409499999
 30
0.0
  0
VERTEX
  5
6BB
  8
130_VU3
 10
36.30626883
 20
336.30551575499999
 30
0.0
  0
VERTEX
  5
6BC
  8
130_VU3
 10
33.922183855
 20
334.44453000499999
 30
0.0
  0
VERTEX
  5
6BD
  8
130_VU3
 10
27.084595660000002
 20
343.20380438000001
 30
0.0
 42
0.36397
  0
VERTEX
  5
6BE
  8
130_VU3
 10
24.987256025000001
 20
337.76490808
 30
0.0
 42
-0.218293
  0
VERTEX
  5
6BF
  8
130_VU3
 10
24.022182135000001
 20
328.12300042499999
 30
0.0
  0
VERTEX
  5
6C0
  8
130_VU3
 10
37.027258994999997
 20
324.10226054499998
 30
0.0
  0
VERTEX
  5
6C1
  8
130_VU3
 10
36.13376177
 20
321.21224346499997
 30
0.0
  0
VERTEX
  5
6C2
  8
130_VU3
 10
23.12868491
 20
325.23298334499998
 30
0.0
 42
0.116166
  0
VERTEX
  5
6C3
  8
130_VU3
 10
24.293396885
 20
319.40347101499998
 30
0.0
  0
SEQEND
  5
6C4
  8
130_VU3
  0
POLYLINE
  5
235
  8
130_VU3
 66
     1
 10
0.0
 20
0.0
 30
0.0
 70
     1
  0
VERTEX
  5
6C5
  8
130_VU3
 10
239.35402757
 20
305.55861819
 30
0.0
 42
-0.33581466
  0
VERTEX
  5
6C6
  8
130_VU3
 10
232.10315998499999
 20
296.95575229500002
 30
0.0
 42
-0.33581466
  0
VERTEX
  5
6C7
  8
130_VU3
 10
221.85520713
 20
301.59944097499999
 30
0.0
 42
0.043661
  0
VERTEX
  5
6C8
  8
130_VU3
 10
219.125830065
 20
307.086905935
 30
0.0
 42
0.375793
  0
VERTEX
  5
6C9
  8
130_VU3
 10
217.04549022
 20
307.55446584499998
 30
0.0
 42
0.129154
  0
VERTEX
  5
6CA
  8
130_VU3
 10
198.24212104
 20
292.56870225500001
 30
0.0
 42
0.079599
  0
VERTEX
  5
6CB
  8
130_VU3
 10
197.82108578
 20
291.82115399999998
 30
0.0
 42
0.12106
  0
VERTEX
  5
6CC
  8
130_VU3
 10
197.13583195000001
 20
285.78954924499999
 30
0.0
 42
-0.026692
  0
VERTEX
  5
6CD
  8
130_VU3
 10
197.19549619
 20
280.37514716499999
 30
0.0
 42
-0.4018620000000001
  0
VERTEX
  5
6CE
  8
130_VU3
 10
191.85243725000001
 20
275.25372176000002
 30
0.0
  0
VERTEX
  5
6CF
  8
130_VU3
 10
186.19028695
 20
275.25372081
 30
0.0
 42
0.20491408
  0
VERTEX
  5
6D0
  8
130_VU3
 10
180.86409129500001
 20
273.11916831000002
 30
0.0
 42
0.20491408
  0
VERTEX
  5
6D1
  8
130_VU3
 10
178.72953609000001
 20
267.79297373499998
 30
0.0
 42
0.216507
  0
VERTEX
  5
6D2
  8
130_VU3
 10
207.437836465
 20
208.28608815499999
 30
0.0
 42
0.113714
  0
VERTEX
  5
6D3
  8
130_VU3
 10
210.15918114999999
 20
206.90917804
 30
0.0
 42
0.356342
  0
VERTEX
  5
6D4
  8
130_VU3
 10
219.11455486
 20
212.183066435
 30
0.0
 42
0.078919
  0
VERTEX
  5
6D5
  8
130_VU3
 10
222.51067516500001
 20
224.053164165
 30
0.0
 42
0.087489
  0
VERTEX
  5
6D6
  8
130_VU3
 10
220.28637080499999
 20
265.68133351500001
 30
0.0
 42
-0.21946206
  0
VERTEX
  5
6D7
  8
130_VU3
 10
220.94291634999999
 20
267.79245096
 30
0.0
 42
-0.21946206
  0
VERTEX
  5
6D8
  8
130_VU3
 10
222.97479842999999
 20
268.66384302500001
 30
0.0
  0
VERTEX
  5
6D9
  8
130_VU3
 10
231.451637675
 20
268.43543359
 30
0.0
 42
0.179527
  0
VERTEX
  5
6DA
  8
130_VU3
 10
234.65459609000001
 20
269.44430645
 30
0.0
 42
0.037976
  0
VERTEX
  5
6DB
  8
130_VU3
 10
237.994009465
 20
272.47109331000001
 30
0.0
 42
0.06603
  0
VERTEX
  5
6DC
  8
130_VU3
 10
238.62083473000001
 20
273.33682040500003
 30
0.0
  0
VERTEX
  5
6DD
  8
130_VU3
 10
224.68356416500001
 20
283.42802224000002
 30
0.0
  0
VERTEX
  5
6DE
  8
130_VU3
 10
226.45727436999999
 20
285.87774846999997
 30
0.0
  0
VERTEX
  5
6DF
  8
130_VU3
 10
240.58200776999999
 20
275.65081493500003
 30
0.0
 42
0.021132
  0
VERTEX
  5
6E0
  8
130_VU3
 10
241.208833035
 20
276.51654202499998
 30
0.0
 42
0.034343
  0
VERTEX
  5
6E1
  8
130_VU3
 10
243.21954097
 20
280.06306900499999
 30
0.0
 42
0.204163
  0
VERTEX
  5
6E2
  8
130_VU3
 10
243.52582552499999
 20
286.96994781000001
 30
0.0
 42
-0.286911
  0
VERTEX
  5
6E3
  8
130_VU3
 10
243.06629989000001
 20
294.23085164000003
 30
0.0
  0
VERTEX
  5
6E4
  8
130_VU3
 10
244.54452046500001
 20
296.96518749000001
 30
0.0
 42
0.141433
  0
VERTEX
  5
6E5
  8
130_VU3
 10
246.05940767999999
 20
303.91541051000002
 30
0.0
  0
VERTEX
  5
6E6
  8
130_VU3
 10
245.56149094
 20
311.40354481999998
 30
0.0
 42
0.390263
  0
VERTEX
  5
6E7
  8
130_VU3
 10
242.51270295500001
 20
314.04568699499998
 30
0.0
 42
0.394844
  0
VERTEX
  5
6E8
  8
130_VU3
 10
239.628413295
 20
311.224884895
 30
0.0
 42
-0.001984
  0
VERTEX
  5
6E9
  8
130_VU3
 10
239.35402757
 20
305.55861819
 30
0.0
  0
SEQEND
  5
6EA
  8
130_VU3
  0
POLYLINE
  5
25C
  8
130_VU3
 66
     1
 10
0.0
 20
0.0
 30
0.0
 70
     1
  0
VERTEX
  5
6EB
  8
130_VU3
 10
71.908887965000005
 20
232.14157700000001
 30
0.0
 42
0.161701
  0
VERTEX
  5
6EC
  8
130_VU3
 10
94.315322769999995
 20
189.082713875
 30
0.0
 42
0.20471058
  0
VERTEX
  5
6ED
  8
130_VU3
 10
119.19810135
 20
178.37840204
 30
0.0
 42
0.20471058
  0
VERTEX
  5
6EE
  8
130_VU3
 10
144.13232009000001
 20
188.96233785999991
 30
0.0
 42
0.404026
  0
VERTEX
  5
6EF
  8
130_VU3
 10
144.011945965
 20
238.77933328500001
 30
0.0
 42
0.161701
  0
VERTEX
  5
6F0
  8
130_VU3
 10
100.95308473
 20
261.18576903500002
 30
0.0
 42
0.35823428
  0
VERTEX
  5
6F1
  8
130_VU3
 10
98.139857335000002
 20
259.14131007499998
 30
0.0
 42
0.35823428
  0
VERTEX
  5
6F2
  8
130_VU3
 10
99.600995955000002
 20
255.98550038499999
 30
0.0
 42
-0.146363
  0
VERTEX
  5
6F3
  8
130_VU3
 10
127.40735451499999
 20
237.455167805
 30
0.0
 42
-0.36397
  0
VERTEX
  5
6F4
  8
130_VU3
 10
127.235913895
 20
207.9977318
 30
0.0
  0
VERTEX
  5
6F5
  8
130_VU3
 10
133.86677610500001
 20
201.366870535
 30
0.0
  0
VERTEX
  5
6F6
  8
130_VU3
 10
131.72778741499999
 20
199.22788278499999
 30
0.0
  0
VERTEX
  5
6F7
  8
130_VU3
 10
125.09692520500001
 20
205.85874405000001
 30
0.0
 42
-0.380401
  0
VERTEX
  5
6F8
  8
130_VU3
 10
95.639488249999999
 20
205.68730532500001
 30
0.0
 42
-0.131652
  0
VERTEX
  5
6F9
  8
130_VU3
 10
77.109156615000003
 20
233.49366388499999
 30
0.0
 42
0.35823428
  0
VERTEX
  5
6FA
  8
130_VU3
 10
73.953345929999998
 20
234.95479936500001
 30
0.0
 42
0.35823428
  0
VERTEX
  5
6FB
  8
130_VU3
 10
71.908889854999984
 20
232.14157037999999
 30
0.0
  0
VERTEX
  5
6FC
  8
130_VU3
 10
71.908887965000005
 20
232.14157700000001
 30
0.0
  0
SEQEND
  5
6FD
  8
130_VU3
  0
POLYLINE
  5
270
  8
130_VU3
 66
     1
 10
0.0
 20
0.0
 30
0.0
 70
     1
  0
VERTEX
  5
6FE
  8
130_VU3
 10
64.195223055
 20
489.82736015
 30
0.0
  0
VERTEX
  5
6FF
  8
130_VU3
 10
63.197675510000003
 20
490.09905990999999
 30
0.0
 42
0.026224
  0
VERTEX
  5
700
  8
130_VU3
 10
55.48220577
 20
491.73842724999992
 30
0.0
  0
VERTEX
  5
701
  8
130_VU3
 10
53.680341585000001
 20
478.36367187000002
 30
0.0
  0
VERTEX
  5
702
  8
130_VU3
 10
53.608775319999992
 20
478.00132989000002
 30
0.0
  0
VERTEX
  5
703
  8
130_VU3
 10
50.682439520000003
 20
478.76755323499992
 30
0.0
  0
VERTEX
  5
704
  8
130_VU3
 10
52.485479820000002
 20
492.15104156500001
 30
0.0
 42
0.05843
  0
VERTEX
  5
705
  8
130_VU3
 10
34.958317260000001
 20
492.15104156500001
 30
0.0
  0
VERTEX
  5
706
  8
130_VU3
 10
36.761361344999997
 20
478.76755323499992
 30
0.0
  0
VERTEX
  5
707
  8
130_VU3
 10
33.835025545000001
 20
478.00132989000002
 30
0.0
  0
VERTEX
  5
708
  8
130_VU3
 10
33.763459279999999
 20
478.36367187000002
 30
0.0
  0
VERTEX
  5
709
  8
130_VU3
 10
31.961591309999999
 20
491.73842724999992
 30
0.0
 42
0.028284
  0
VERTEX
  5
70A
  8
130_VU3
 10
24.246125355
 20
490.09905990999999
 30
0.0
  0
VERTEX
  5
70B
  8
130_VU3
 10
23.24857781
 20
489.82736015
 30
0.0
 42
0.417901
  0
VERTEX
  5
70C
  8
130_VU3
 10
21.839585450000001
 20
487.32719802999998
 30
0.0
  0
VERTEX
  5
70D
  8
130_VU3
 10
27.665421944999999
 20
466.95143675999992
 30
0.0
  0
VERTEX
  5
70E
  8
130_VU3
 10
24.756984095
 20
466.11985578999992
 30
0.0
  0
VERTEX
  5
70F
  8
130_VU3
 10
20.928593029999998
 20
479.50958679500002
 30
0.0
  0
VERTEX
  5
710
  8
130_VU3
 10
16.976717375
 20
477.84328602499988
 30
0.0
 42
0.348187
  0
VERTEX
  5
711
  8
130_VU3
 10
15.772124290000001
 20
475.64693710500001
 30
0.0
 42
0.015215
  0
VERTEX
  5
712
  8
130_VU3
 10
22.034446275000001
 20
451.17654109499989
 30
0.0
 42
0.195817
  0
VERTEX
  5
713
  8
130_VU3
 10
24.53271848
 20
448.00824783999991
 30
0.0
 42
0.2212707
  0
VERTEX
  5
714
  8
130_VU3
 10
29.774239569999999
 20
447.58365686500002
 30
0.0
 42
0.2212707
  0
VERTEX
  5
715
  8
130_VU3
 10
33.47472475
 20
451.31999602000002
 30
0.0
 42
-0.24059
  0
VERTEX
  5
716
  8
130_VU3
 10
42.209407519999992
 20
459.515109215
 30
0.0
  0
VERTEX
  5
717
  8
130_VU3
 10
42.209407519999992
 20
474.88281355999999
 30
0.0
  0
VERTEX
  5
718
  8
130_VU3
 10
45.23439333999999
 20
474.88281355999999
 30
0.0
  0
VERTEX
  5
719
  8
130_VU3
 10
45.234392395
 20
459.515109215
 30
0.0
 42
-0.24059
  0
VERTEX
  5
71A
  8
130_VU3
 10
53.969076115
 20
451.31999696499992
 30
0.0
 42
0.2212707
  0
VERTEX
  5
71B
  8
130_VU3
 10
57.669560599999997
 20
447.58365755999989
 30
0.0
 42
0.2212707
  0
VERTEX
  5
71C
  8
130_VU3
 10
62.911081435
 20
448.00824783999991
 30
0.0
 42
0.169133
  0
VERTEX
  5
71D
  8
130_VU3
 10
65.409353640000006
 20
451.17653637000001
 30
0.0
 42
0.04106
  0
VERTEX
  5
71E
  8
130_VU3
 10
71.671674679999995
 20
475.646931435
 30
0.0
 42
0.348186
  0
VERTEX
  5
71F
  8
130_VU3
 10
70.467083489999993
 20
477.84328602499988
 30
0.0
  0
VERTEX
  5
720
  8
130_VU3
 10
66.515206884999984
 20
479.50958679500002
 30
0.0
  0
VERTEX
  5
721
  8
130_VU3
 10
62.68681677
 20
466.11985578999992
 30
0.0
  0
VERTEX
  5
722
  8
130_VU3
 10
59.778378914999998
 20
466.95143675999992
 30
0.0
  0
VERTEX
  5
723
  8
130_VU3
 10
65.600773099999998
 20
487.31516363999998
 30
0.0
 42
0.4197290000000001
  0
VERTEX
  5
724
  8
130_VU3
 10
64.195223055
 20
489.82736015
 30
0.0
  0
SEQEND
  5
725
  8
130_VU3
  0
POLYLINE
  5
299
  8
130_VU3
 66
     1
 10
0.0
 20
0.0
 30
0.0
 70
     1
  0
VERTEX
  5
726
  8
130_VU3
 10
52.630782115000002
 20
20.66037523
 30
0.0
 42
0.41421356
  0
VERTEX
  5
727
  8
130_VU3
 10
57.672424515000003
 20
25.70201763
 30
0.0
 42
0.41421356
  0
VERTEX
  5
728
  8
130_VU3
 10
52.630782115000002
 20
30.743660030000001
 30
0.0
  0
VERTEX
  5
729
  8
130_VU3
 10
42.547497315000001
 20
30.743660030000001
 30
0.0
 42
0.41421356
  0
VERTEX
  5
72A
  8
130_VU3
 10
37.505854915
 20
25.70201763
 30
0.0
 42
0.41421356
  0
VERTEX
  5
72B
  8
130_VU3
 10
42.547497315000001
 20
20.66037523
 30
0.0
  0
VERTEX
  5
72C
  8
130_VU3
 10
52.630782115000002
 20
20.66037523
 30
0.0
  0
SEQEND
  5
72D
  8
130_VU3
  0
POLYLINE
  5
2A2
  8
130_VU3
 66
     1
 10
0.0
 20
0.0
 30
0.0
 70
     1
  0
VERTEX
  5
72E
  8
130_VU3
 10
42.547497315000001
 20
41.83527406999999
 30
0.0
  0
VERTEX
  5
72F
  8
130_VU3
 10
52.630782115000002
 20
41.83527406999999
 30
0.0
 42
0.41421356
  0
VERTEX
  5
730
  8
130_VU3
 10
57.672424515000003
 20
46.876916469999998
 30
0.0
 42
0.41421356
  0
VERTEX
  5
731
  8
130_VU3
 10
52.630782115000002
 20
51.918558869999998
 30
0.0
  0
VERTEX
  5
732
  8
130_VU3
 10
42.547497315000001
 20
51.918558869999998
 30
0.0
 42
0.41421356
  0
VERTEX
  5
733
  8
130_VU3
 10
37.505854915
 20
46.876916469999998
 30
0.0
 42
0.41421356
  0
VERTEX
  5
734
  8
130_VU3
 10
42.547497315000001
 20
41.83527406999999
 30
0.0
  0
SEQEND
  5
735
  8
130_VU3
  0
POLYLINE
  5
2AB
  8
130_VU3
 66
     1
 10
0.0
 20
0.0
 30
0.0
 70
     1
  0
VERTEX
  5
736
  8
130_VU3
 10
279.04273380500001
 20
124.217777665
 30
0.0
 42
0.27376357
  0
VERTEX
  5
737
  8
130_VU3
 10
275.95351200499999
 20
126.961679875
 30
0.0
 42
0.27376357
  0
VERTEX
  5
738
  8
130_VU3
 10
272.06177199500002
 20
125.573641545
 30
0.0
 42
-0.20779875
  0
VERTEX
  5
739
  8
130_VU3
 10
268.06726304
 20
123.558293295
 30
0.0
 42
-0.20779875
  0
VERTEX
  5
73A
  8
130_VU3
 10
263.867887865
 20
125.101983195
 30
0.0
 42
0.12059
  0
VERTEX
  5
73B
  8
130_VU3
 10
259.04317075
 20
127.079245575
 30
0.0
 42
0.009784
  0
VERTEX
  5
73C
  8
130_VU3
 10
253.64305318000001
 20
127.78169395
 30
0.0
 42
0.037307
  0
VERTEX
  5
73D
  8
130_VU3
 10
243.97424046
 20
128.75766770999999
 30
0.0
 42
0.395739
  0
VERTEX
  5
73E
  8
130_VU3
 10
237.58497550000001
 20
123.262450215
 30
0.0
  0
VERTEX
  5
73F
  8
130_VU3
 10
237.47208635000001
 20
122.20974151999999
 30
0.0
  0
VERTEX
  5
740
  8
130_VU3
 10
246.02618713499999
 20
121.29242322
 30
0.0
  0
VERTEX
  5
741
  8
130_VU3
 10
245.70364495000001
 20
118.28468300500001
 30
0.0
  0
VERTEX
  5
742
  8
130_VU3
 10
237.14954510999999
 20
119.202000355
 30
0.0
  0
VERTEX
  5
743
  8
130_VU3
 10
237.02375366499999
 20
118.02898182
 30
0.0
 42
0.385754
  0
VERTEX
  5
744
  8
130_VU3
 10
242.10255338499999
 20
111.303961335
 30
0.0
 42
0.07142
  0
VERTEX
  5
745
  8
130_VU3
 10
260.61888886499997
 20
110.46942211
 30
0.0
 42
0.125182
  0
VERTEX
  5
746
  8
130_VU3
 10
265.32334530499998
 20
112.00079952500001
 30
0.0
  0
VERTEX
  5
747
  8
130_VU3
 10
267.272036765
 20
113.232781735
 30
0.0
 42
-0.21135508
  0
VERTEX
  5
748
  8
130_VU3
 10
268.64845016499999
 20
113.436849475
 30
0.0
 42
-0.21135508
  0
VERTEX
  5
749
  8
130_VU3
 10
269.72516748999999
 20
112.55546574
 30
0.0
 42
-0.053946
  0
VERTEX
  5
74A
  8
130_VU3
 10
270.403569785
 20
110.755650305
 30
0.0
 42
0.123631
  0
VERTEX
  5
74B
  8
130_VU3
 10
308.74764196500001
 20
40.347822309999998
 30
0.0
 42
0.083405
  0
VERTEX
  5
74C
  8
130_VU3
 10
313.69194092999999
 20
37.499950640000002
 30
0.0
 42
-0.198146
  0
VERTEX
  5
74D
  8
130_VU3
 10
319.818783645
 20
31.822135495000001
 30
0.0
 42
0.150427
  0
VERTEX
  5
74E
  8
130_VU3
 10
325.03026793999999
 20
27.900579805
 30
0.0
 42
0.126897
  0
VERTEX
  5
74F
  8
130_VU3
 10
342.11722946999998
 20
26.450302375
 30
0.0
 42
0.151148
  0
VERTEX
  5
750
  8
130_VU3
 10
347.00276424499998
 20
28.688368425
 30
0.0
  0
VERTEX
  5
751
  8
130_VU3
 10
350.23203683499997
 20
31.575945350000001
 30
0.0
 42
-0.149472
  0
VERTEX
  5
752
  8
130_VU3
 10
353.73355658499997
 20
33.233361909999999
 30
0.0
  0
VERTEX
  5
753
  8
130_VU3
 10
355.33565978000001
 20
33.467876935
 30
0.0
 42
0.118986
  0
VERTEX
  5
754
  8
130_VU3
 10
357.61213300499998
 20
34.514170884999999
 30
0.0
 42
0.026898
  0
VERTEX
  5
755
  8
130_VU3
 10
381.91536552500003
 20
56.938724870000001
 30
0.0
 42
0.111178
  0
VERTEX
  5
756
  8
130_VU3
 10
384.08008978499998
 20
60.808748919999999
 30
0.0
 42
-0.25164
  0
VERTEX
  5
757
  8
130_VU3
 10
388.79391544499998
 20
65.976869144999995
 30
0.0
 42
0.125472
  0
VERTEX
  5
758
  8
130_VU3
 10
389.908029865
 20
66.739228514999994
 30
0.0
 42
0.042086
  0
VERTEX
  5
759
  8
130_VU3
 10
410.68639428
 20
94.825635934999994
 30
0.0
 42
0.131652
  0
VERTEX
  5
75A
  8
130_VU3
 10
411.11961141500001
 20
95.948520169999995
 30
0.0
 42
-0.264718
  0
VERTEX
  5
75B
  8
130_VU3
 10
415.98798190000002
 20
101.0848276
 30
0.0
 42
0.131652
  0
VERTEX
  5
75C
  8
130_VU3
 10
417.26454210999992
 20
101.70461224500001
 30
0.0
 42
0.031512
  0
VERTEX
  5
75D
  8
130_VU3
 10
434.98454983499988
 20
117.68001296
 30
0.0
 42
-0.131652
  0
VERTEX
  5
75E
  8
130_VU3
 10
456.95828654500002
 20
130.699005615
 30
0.0
 42
0.4142140000000001
  0
VERTEX
  5
75F
  8
130_VU3
 10
458.61291975500001
 20
134.24451436499999
 30
0.0
 42
0.389149
  0
VERTEX
  5
760
  8
130_VU3
 10
455.06741005999999
 20
135.89914568500001
 30
0.0
 42
0.153915
  0
VERTEX
  5
761
  8
130_VU3
 10
412.85573697000001
 20
106.33212575500001
 30
0.0
 42
-0.21594
  0
VERTEX
  5
762
  8
130_VU3
 10
408.765555205
 20
102.679483635
 30
0.0
 42
0.075548
  0
VERTEX
  5
763
  8
130_VU3
 10
404.22662004
 20
100.46219721
 30
0.0
 42
0.079712
  0
VERTEX
  5
764
  8
130_VU3
 10
383.09344684000001
 20
73.057972860000007
 30
0.0
 42
0.043661
  0
VERTEX
  5
765
  8
130_VU3
 10
382.78901343500002
 20
72.183059964999984
 30
0.0
 42
-0.289789
  0
VERTEX
  5
766
  8
130_VU3
 10
377.2470113
 20
65.965299909999999
 30
0.0
 42
0.131652
  0
VERTEX
  5
767
  8
130_VU3
 10
376.61110516999997
 20
65.628586665
 30
0.0
 42
0.042678
  0
VERTEX
  5
768
  8
130_VU3
 10
350.49409981999997
 20
41.973246439999997
 30
0.0
 42
0.131652
  0
VERTEX
  5
769
  8
130_VU3
 10
350.08029426500002
 20
41.341200505000003
 30
0.0
 42
-0.399625
  0
VERTEX
  5
76A
  8
130_VU3
 10
342.19228342999997
 20
38.053712075
 30
0.0
 42
0.039573
  0
VERTEX
  5
76B
  8
130_VU3
 10
341.72426593500001
 20
38.19153318
 30
0.0
 42
0.080143
  0
VERTEX
  5
76C
  8
130_VU3
 10
329.23387680500002
 20
38.685246534999997
 30
0.0
 42
-0.083421
  0
VERTEX
  5
76D
  8
130_VU3
 10
328.67394926999998
 20
38.711031265000003
 30
0.0
 42
-0.261449
  0
VERTEX
  5
76E
  8
130_VU3
 10
319.29366970500001
 20
47.003544619999992
 30
0.0
 42
-0.085425
  0
VERTEX
  5
76F
  8
130_VU3
 10
279.04273380500001
 20
124.217777665
 30
0.0
  0
SEQEND
  5
770
  8
130_VU3
  0
POLYLINE
  5
2E7
  8
130_VU3
 66
     1
 10
0.0
 20
0.0
 30
0.0
 70
     1
  0
VERTEX
  5
771
  8
130_VU3
 10
93.120583909999979
 20
436.68001802999999
 30
0.0
 42
-0.078434
  0
VERTEX
  5
772
  8
130_VU3
 10
92.112175260000001
 20
450.97113020500001
 30
0.0
 42
-0.162362
  0
VERTEX
  5
773
  8
130_VU3
 10
97.107703330000007
 20
462.91440616499989
 30
0.0
 42
-0.196318
  0
VERTEX
  5
774
  8
130_VU3
 10
114.03099379
 20
471.40507516999992
 30
0.0
  0
VERTEX
  5
775
  8
130_VU3
 10
114.03099379
 20
478.22292182000001
 30
0.0
  0
VERTEX
  5
776
  8
130_VU3
 10
117.05597960999999
 20
478.22292182000001
 30
0.0
  0
VERTEX
  5
777
  8
130_VU3
 10
117.05597960999999
 20
471.40507516999992
 30
0.0
 42
-0.202484
  0
VERTEX
  5
778
  8
130_VU3
 10
133.97926912
 20
462.91440805500002
 30
0.0
 42
-0.166464
  0
VERTEX
  5
779
  8
130_VU3
 10
138.97479813999999
 20
450.97113304499999
 30
0.0
 42
-0.068457
  0
VERTEX
  5
77A
  8
130_VU3
 10
137.96639043499999
 20
436.68002275499992
 30
0.0
 42
-0.018994
  0
VERTEX
  5
77B
  8
130_VU3
 10
133.29045291
 20
417.93063294000001
 30
0.0
  0
VERTEX
  5
77C
  8
130_VU3
 10
133.1856765
 20
417.56951340500001
 30
0.0
 42
0.36976779
  0
VERTEX
  5
77D
  8
130_VU3
 10
134.68797412999999
 20
414.25861141000001
 30
0.0
 42
0.36976779
  0
VERTEX
  5
77E
  8
130_VU3
 10
138.19022493
 20
415.23493589999993
 30
0.0
  0
VERTEX
  5
77F
  8
130_VU3
 10
138.27952558499999
 20
415.36840424000002
 30
0.0
 42
0.087489
  0
VERTEX
  5
780
  8
130_VU3
 10
150.66983708999999
 20
443.54916658500002
 30
0.0
 42
0.107635
  0
VERTEX
  5
781
  8
130_VU3
 10
151.50650353500001
 20
467.92880975999992
 30
0.0
 42
0.051832
  0
VERTEX
  5
782
  8
130_VU3
 10
150.78258821
 20
470.41156934000003
 30
0.0
 42
0.131653
  0
VERTEX
  5
783
  8
130_VU3
 10
141.78236894
 20
484.78658281999992
 30
0.0
 42
0.080315
  0
VERTEX
  5
784
  8
130_VU3
 10
133.78166465499999
 20
490.13563295
 30
0.0
 42
0.04869
  0
VERTEX
  5
785
  8
130_VU3
 10
128.54752594999999
 20
491.78106334
 30
0.0
 42
0.056656
  0
VERTEX
  5
786
  8
130_VU3
 10
115.543484335
 20
493.1755064649999
 30
0.0
 42
0.03667
  0
VERTEX
  5
787
  8
130_VU3
 10
102.53944461
 20
491.78106239499999
 30
0.0
 42
0.062307
  0
VERTEX
  5
788
  8
130_VU3
 10
97.305306854999984
 20
490.13563200499988
 30
0.0
 42
0.080315
  0
VERTEX
  5
789
  8
130_VU3
 10
89.30460257
 20
484.7865809299999
 30
0.0
 42
0.131652
  0
VERTEX
  5
78A
  8
130_VU3
 10
80.304385190000005
 20
470.41156745000001
 30
0.0
 42
0.05637
  0
VERTEX
  5
78B
  8
130_VU3
 10
79.580469864999998
 20
467.928806925
 30
0.0
 42
0.10306
  0
VERTEX
  5
78C
  8
130_VU3
 10
80.417136310000004
 20
443.54916752999992
 30
0.0
 42
0.087945
  0
VERTEX
  5
78D
  8
130_VU3
 10
92.807445924999996
 20
415.36840802500001
 30
0.0
  0
VERTEX
  5
78E
  8
130_VU3
 10
92.896749415000016
 20
415.23493589999993
 30
0.0
 42
0.36976779
  0
VERTEX
  5
78F
  8
130_VU3
 10
96.399000215000001
 20
414.25861141000001
 30
0.0
 42
0.36976779
  0
VERTEX
  5
790
  8
130_VU3
 10
97.901297845000016
 20
417.56951340500001
 30
0.0
  0
VERTEX
  5
791
  8
130_VU3
 10
97.796518600000013
 20
417.9306433399999
 30
0.0
 42
-0.018632
  0
VERTEX
  5
792
  8
130_VU3
 10
93.120583909999979
 20
436.68001802999999
 30
0.0
  0
SEQEND
  5
793
  8
130_VU3
  0
POLYLINE
  5
30B
  8
130_VU3
 66
     1
 10
0.0
 20
0.0
 30
0.0
 70
     1
  0
VERTEX
  5
794
  8
130_VU3
 10
22.612350235000001
 20
432.99346803999998
 30
0.0
  0
VERTEX
  5
795
  8
130_VU3
 10
31.015588645000001
 20
368.08268884
 30
0.0
 42
0.37698936
  0
VERTEX
  5
796
  8
130_VU3
 10
36.086846659999999
 20
363.62562609499997
 30
0.0
 42
0.37698936
  0
VERTEX
  5
797
  8
130_VU3
 10
41.158104680000001
 20
368.08268884
 30
0.0
  0
VERTEX
  5
798
  8
130_VU3
 10
41.158104680000001
 20
394.56764163000003
 30
0.0
  0
VERTEX
  5
799
  8
130_VU3
 10
44.183089549999991
 20
394.56764163000003
 30
0.0
  0
VERTEX
  5
79A
  8
130_VU3
 10
44.183089549999991
 20
368.08268884
 30
0.0
 42
0.37698936
  0
VERTEX
  5
79B
  8
130_VU3
 10
49.254347095
 20
363.62562651000002
 30
0.0
 42
0.37698936
  0
VERTEX
  5
79C
  8
130_VU3
 10
54.325604640000002
 20
368.08268884
 30
0.0
  0
VERTEX
  5
79D
  8
130_VU3
 10
62.728843054999992
 20
432.99346803999998
 30
0.0
 42
0.378765
  0
VERTEX
  5
79E
  8
130_VU3
 10
56.276589715
 20
439.76321684999999
 30
0.0
  0
VERTEX
  5
79F
  8
130_VU3
 10
52.033568680000002
 20
440.12590769500002
 30
0.0
 42
-0.3070089999999999
  0
VERTEX
  5
7A0
  8
130_VU3
 10
51.031306274999999
 20
440.93809220999992
 30
0.0
  0
VERTEX
  5
7A1
  8
130_VU3
 10
48.649842974999999
 20
448.80280006999988
 30
0.0
 42
0.28295224
  0
VERTEX
  5
7A2
  8
130_VU3
 10
42.670596824999997
 20
452.48096258499987
 30
0.0
 42
0.28295224
  0
VERTEX
  5
7A3
  8
130_VU3
 10
36.691351255000001
 20
448.80279912499998
 30
0.0
  0
VERTEX
  5
7A4
  8
130_VU3
 10
34.309887955000001
 20
440.93809220999992
 30
0.0
 42
-0.3070089999999999
  0
VERTEX
  5
7A5
  8
130_VU3
 10
33.307625549999997
 20
440.12590769500002
 30
0.0
  0
VERTEX
  5
7A6
  8
130_VU3
 10
29.064604514999999
 20
439.76321684999999
 30
0.0
 42
0.378765
  0
VERTEX
  5
7A7
  8
130_VU3
 10
22.612350235000001
 20
432.99346803999998
 30
0.0
  0
SEQEND
  5
7A8
  8
130_VU3
  0
POLYLINE
  5
321
  8
130_VU3
 66
     1
 10
0.0
 20
0.0
 30
0.0
 70
     1
  0
VERTEX
  5
7A9
  8
130_VU3
 10
183.5518849
 20
88.474346084999993
 30
0.0
 42
-0.33581466
  0
VERTEX
  5
7AA
  8
130_VU3
 10
187.42311637500001
 20
99.038339004999997
 30
0.0
 42
-0.33581466
  0
VERTEX
  5
7AB
  8
130_VU3
 10
198.641277145
 20
98.179707265000005
 30
0.0
 42
0.043661
  0
VERTEX
  5
7AC
  8
130_VU3
 10
203.08287738499999
 20
93.956678304999997
 30
0.0
 42
0.375793
  0
VERTEX
  5
7AD
  8
130_VU3
 10
205.19767250999999
 20
94.228830930000015
 30
0.0
 42
0.129154
  0
VERTEX
  5
7AE
  8
130_VU3
 10
217.7416269
 20
114.74197366999999
 30
0.0
 42
0.079599
  0
VERTEX
  5
7AF
  8
130_VU3
 10
217.88159413
 20
115.58844234
 30
0.0
 42
0.12106
  0
VERTEX
  5
7B0
  8
130_VU3
 10
216.46259155000001
 20
121.490669635
 30
0.0
 42
-0.026692
  0
VERTEX
  5
7B1
  8
130_VU3
 10
214.55469070000001
 20
126.55813741999999
 30
0.0
 42
-0.4018620000000001
  0
VERTEX
  5
7B2
  8
130_VU3
 10
217.82389355000001
 20
133.19813532500001
 30
0.0
  0
VERTEX
  5
7B3
  8
130_VU3
 10
223.14457508999999
 20
135.13470541999999
 30
0.0
 42
0.20491408
  0
VERTEX
  5
7B4
  8
130_VU3
 10
227.41950249000001
 20
138.962197315
 30
0.0
 42
0.20491408
  0
VERTEX
  5
7B5
  8
130_VU3
 10
227.60366106999999
 20
144.69724606
 30
0.0
 42
0.216507
  0
VERTEX
  5
7B6
  8
130_VU3
 10
180.2741259
 20
190.79660762500001
 30
0.0
 42
0.113714
  0
VERTEX
  5
7B7
  8
130_VU3
 10
177.245971
 20
191.15972296999999
 30
0.0
 42
0.356342
  0
VERTEX
  5
7B8
  8
130_VU3
 10
170.63444852000001
 20
183.1409694699999
 30
0.0
 42
0.078919
  0
VERTEX
  5
7B9
  8
130_VU3
 10
171.502951395
 20
170.82518909999999
 30
0.0
 42
0.087489
  0
VERTEX
  5
7BA
  8
130_VU3
 10
187.830784085
 20
132.46826283999999
 30
0.0
 42
-0.21946206
  0
VERTEX
  5
7BB
  8
130_VU3
 10
187.93588020999999
 20
130.25990880000001
 30
0.0
 42
-0.21946206
  0
VERTEX
  5
7BC
  8
130_VU3
 10
186.324570255
 20
128.74612116500001
 30
0.0
  0
VERTEX
  5
7BD
  8
130_VU3
 10
178.280826185
 20
126.06150646499999
 30
0.0
 42
0.179527
  0
VERTEX
  5
7BE
  8
130_VU3
 10
175.61608348999999
 20
124.01799776
 30
0.0
 42
0.037976
  0
VERTEX
  5
7BF
  8
130_VU3
 10
173.51328398999999
 20
120.03160253999999
 30
0.0
 42
0.06603
  0
VERTEX
  5
7C0
  8
130_VU3
 10
173.22035742
 20
119.003699105
 30
0.0
  0
VERTEX
  5
7C1
  8
130_VU3
 10
189.76850193000001
 20
114.287898445
 30
0.0
  0
VERTEX
  5
7C2
  8
130_VU3
 10
188.93961544000001
 20
111.37926394500001
 30
0.0
  0
VERTEX
  5
7C3
  8
130_VU3
 10
172.16889007500001
 20
116.158494495
 30
0.0
 42
0.021132
  0
VERTEX
  5
7C4
  8
130_VU3
 10
171.87596256
 20
115.130588225
 30
0.0
 42
0.034343
  0
VERTEX
  5
7C5
  8
130_VU3
 10
171.19949934499999
 20
111.11024070000001
 30
0.0
 42
0.204163
  0
VERTEX
  5
7C6
  8
130_VU3
 10
173.27397847
 20
104.51514413
 30
0.0
 42
-0.286911
  0
VERTEX
  5
7C7
  8
130_VU3
 10
176.18916575
 20
97.849293424999985
 30
0.0
  0
VERTEX
  5
7C8
  8
130_VU3
 10
175.73529095000001
 20
94.774276359999988
 30
0.0
 42
0.141433
  0
VERTEX
  5
7C9
  8
130_VU3
 10
176.68887975000001
 20
87.725081874999987
 30
0.0
  0
VERTEX
  5
7CA
  8
130_VU3
 10
179.71786096
 20
80.85883484
 30
0.0
 42
0.3902649999999999
  0
VERTEX
  5
7CB
  8
130_VU3
 10
183.486449755
 20
79.418781304999996
 30
0.0
 42
0.394842
  0
VERTEX
  5
7CC
  8
130_VU3
 10
185.23201638
 20
83.055976029999997
 30
0.0
 42
-0.001984
  0
VERTEX
  5
7CD
  8
130_VU3
 10
183.5518849
 20
88.474346084999993
 30
0.0
  0
SEQEND
  5
7CE
  8
130_VU3
  0
POLYLINE
  5
348
  8
130_VU3
 66
     1
 10
0.0
 20
0.0
 30
0.0
 70
     1
  0
VERTEX
  5
7CF
  8
130_VU3
 10
33.712181010000002
 20
143.93721149999999
 30
0.0
 42
0.37208
  0
VERTEX
  5
7D0
  8
130_VU3
 10
34.519980615000001
 20
132.48639808999999
 30
0.0
  0
VERTEX
  5
7D1
  8
130_VU3
 10
38.048759025000003
 20
128.93955534
 30
0.0
  0
VERTEX
  5
7D2
  8
130_VU3
 10
38.210790719999999
 20
128.83733158999999
 30
0.0
  0
VERTEX
  5
7D3
  8
130_VU3
 10
51.116208784999998
 20
149.29332966999999
 30
0.0
  0
VERTEX
  5
7D4
  8
130_VU3
 10
53.673240454999998
 20
147.68013279499999
 30
0.0
  0
VERTEX
  5
7D5
  8
130_VU3
 10
22.806830049999999
 20
98.754697405000016
 30
0.0
 42
0.161943
  0
VERTEX
  5
7D6
  8
130_VU3
 10
22.307064050000001
 20
96.787853674999994
 30
0.0
  0
VERTEX
  5
7D7
  8
130_VU3
 10
22.370471250000001
 20
95.912018035000003
 30
0.0
 42
0.258337
  0
VERTEX
  5
7D8
  8
130_VU3
 10
27.084504899999999
 20
88.683624730000005
 30
0.0
 42
-0.157487
  0
VERTEX
  5
7D9
  8
130_VU3
 10
31.672411485000001
 20
84.215847405000005
 30
0.0
 42
-0.031595
  0
VERTEX
  5
7DA
  8
130_VU3
 10
32.047985709999999
 20
83.381757260000015
 30
0.0
 42
0.11093
  0
VERTEX
  5
7DB
  8
130_VU3
 10
35.576518309999997
 20
78.006329614999984
 30
0.0
 42
0.219588
  0
VERTEX
  5
7DC
  8
130_VU3
 10
38.119263574999998
 20
77.116436370000002
 30
0.0
 42
0.205618
  0
VERTEX
  5
7DD
  8
130_VU3
 10
43.17859687499999
 20
79.888564865000006
 30
0.0
  0
VERTEX
  5
7DE
  8
130_VU3
 10
43.335787015000001
 20
79.998085445000001
 30
0.0
  0
VERTEX
  5
7DF
  8
130_VU3
 10
32.308512370000003
 20
95.825091360000002
 30
0.0
  0
VERTEX
  5
7E0
  8
130_VU3
 10
34.789156075000001
 20
97.5534502
 30
0.0
  0
VERTEX
  5
7E1
  8
130_VU3
 10
42.271027855
 20
86.815018809999998
 30
0.0
 42
0.357207
  0
VERTEX
  5
7E2
  8
130_VU3
 10
53.79316455499999
 20
83.550354970000015
 30
0.0
  0
VERTEX
  5
7E3
  8
130_VU3
 10
64.327594695000002
 20
90.000809149999995
 30
0.0
  0
VERTEX
  5
7E4
  8
130_VU3
 10
65.907245799999984
 20
87.421034204999984
 30
0.0
  0
VERTEX
  5
7E5
  8
130_VU3
 10
50.361113154999998
 20
77.901808470000006
 30
0.0
  0
VERTEX
  5
7E6
  8
130_VU3
 10
60.959470484999997
 20
69.377786564999994
 30
0.0
 42
-0.31592
  0
VERTEX
  5
7E7
  8
130_VU3
 10
75.133708519999999
 20
77.321598609999995
 30
0.0
 42
-0.216408
  0
VERTEX
  5
7E8
  8
130_VU3
 10
81.227304219999994
 20
73.772392280000005
 30
0.0
 42
-0.331364
  0
VERTEX
  5
7E9
  8
130_VU3
 10
80.920088410000005
 20
60.309455630000002
 30
0.0
 42
0.38775507
  0
VERTEX
  5
7EA
  8
130_VU3
 10
81.609800019999994
 20
56.51526647
 30
0.0
 42
0.38775507
  0
VERTEX
  5
7EB
  8
130_VU3
 10
85.451026174999996
 20
56.85666810499999
 30
0.0
 42
0.167114
  0
VERTEX
  5
7EC
  8
130_VU3
 10
90.814236969999996
 20
69.156902755000004
 30
0.0
 42
0.14592
  0
VERTEX
  5
7ED
  8
130_VU3
 10
89.538749820000007
 20
75.147247024999999
 30
0.0
 42
-0.331281
  0
VERTEX
  5
7EE
  8
130_VU3
 10
91.689765339999994
 20
90.387057290000001
 30
0.0
 42
0.197516
  0
VERTEX
  5
7EF
  8
130_VU3
 10
92.929036819999993
 20
93.401814494999996
 30
0.0
  0
VERTEX
  5
7F0
  8
130_VU3
 10
92.929036819999993
 20
161.55177345000001
 30
0.0
 42
0.4142140000000001
  0
VERTEX
  5
7F1
  8
130_VU3
 10
89.633702260000007
 20
164.84710801
 30
0.0
  0
VERTEX
  5
7F2
  8
130_VU3
 10
85.084776729999987
 20
164.84710801
 30
0.0
  0
VERTEX
  5
7F3
  8
130_VU3
 10
85.084776729999987
 20
133.9377968
 30
0.0
  0
VERTEX
  5
7F4
  8
130_VU3
 10
82.061399089999995
 20
133.9377968
 30
0.0
  0
VERTEX
  5
7F5
  8
130_VU3
 10
82.061398144999998
 20
164.13785631499999
 30
0.0
 42
-0.179352
  0
VERTEX
  5
7F6
  8
130_VU3
 10
75.950294959999994
 20
167.71967433
 30
0.0
 42
-0.23184
  0
VERTEX
  5
7F7
  8
130_VU3
 10
75.092435745000003
 20
171.38204682
 30
0.0
 42
-0.034217
  0
VERTEX
  5
7F8
  8
130_VU3
 10
78.414560969999997
 20
182.356314005
 30
0.0
 42
0.226197
  0
VERTEX
  5
7F9
  8
130_VU3
 10
77.870162129999997
 20
196.46575695000001
 30
0.0
 42
0.049145
  0
VERTEX
  5
7FA
  8
130_VU3
 10
73.322064800000007
 20
203.382207295
 30
0.0
 42
0.128415
  0
VERTEX
  5
7FB
  8
130_VU3
 10
70.547169975000003
 20
205.42876501500001
 30
0.0
 42
0.118189
  0
VERTEX
  5
7FC
  8
130_VU3
 10
67.728233209999999
 20
205.83968416499999
 30
0.0
 42
-0.040313
  0
VERTEX
  5
7FD
  8
130_VU3
 10
51.592144259999998
 20
207.331251385
 30
0.0
 42
-0.1345
  0
VERTEX
  5
7FE
  8
130_VU3
 10
39.393515989999997
 20
213.076384975
 30
0.0
 42
-0.176327
  0
VERTEX
  5
7FF
  8
130_VU3
 10
36.070319589999997
 20
221.13736141000001
 30
0.0
 42
-0.117883
  0
VERTEX
  5
800
  8
130_VU3
 10
38.248989899999998
 20
232.30184546000001
 30
0.0
 42
-0.233896
  0
VERTEX
  5
801
  8
130_VU3
 10
72.560117634999997
 20
260.26771614
 30
0.0
 42
-0.20178822
  0
VERTEX
  5
802
  8
130_VU3
 10
80.433108770000004
 20
258.88463666500002
 30
0.0
 42
-0.20178822
  0
VERTEX
  5
803
  8
130_VU3
 10
84.949505454999994
 20
252.289255005
 30
0.0
  0
VERTEX
  5
804
  8
130_VU3
 10
88.800670054999998
 20
230.35381391000001
 30
0.0
 42
0.39979467
  0
VERTEX
  5
805
  8
130_VU3
 10
92.257862704999994
 20
227.79939294499999
 30
0.0
 42
0.39979467
  0
VERTEX
  5
806
  8
130_VU3
 10
94.980145840000006
 20
231.12601616000001
 30
0.0
 42
0.081387
  0
VERTEX
  5
807
  8
130_VU3
 10
88.084912849999995
 20
272.74412424000002
 30
0.0
 42
0.076698
  0
VERTEX
  5
808
  8
130_VU3
 10
85.086362219999984
 20
278.50800477000001
 30
0.0
 42
0.231179
  0
VERTEX
  5
809
  8
130_VU3
 10
73.494624805000001
 20
283.22099939499998
 30
0.0
 42
0.031143
  0
VERTEX
  5
80A
  8
130_VU3
 10
67.495482359999997
 20
282.43379599500003
 30
0.0
 42
0.033835
  0
VERTEX
  5
80B
  8
130_VU3
 10
61.375968624999999
 20
280.80335540499999
 30
0.0
  0
VERTEX
  5
80C
  8
130_VU3
 10
69.535659365000001
 20
272.64366561000003
 30
0.0
  0
VERTEX
  5
80D
  8
130_VU3
 10
67.396672565000003
 20
270.50467786000002
 30
0.0
  0
VERTEX
  5
80E
  8
130_VU3
 10
58.276703150000003
 20
279.62464443499999
 30
0.0
 42
0.060163
  0
VERTEX
  5
80F
  8
130_VU3
 10
48.522878249999998
 20
274.05287163499997
 30
0.0
  0
VERTEX
  5
810
  8
130_VU3
 10
55.765141974999992
 20
268.98178663499999
 30
0.0
  0
VERTEX
  5
811
  8
130_VU3
 10
54.03008097499999
 20
266.50386293000003
 30
0.0
  0
VERTEX
  5
812
  8
130_VU3
 10
46.056254340000002
 20
272.08719551000002
 30
0.0
 42
0.047456
  0
VERTEX
  5
813
  8
130_VU3
 10
39.88325853500001
 20
265.71385538499999
 30
0.0
 42
0.011064
  0
VERTEX
  5
814
  8
130_VU3
 10
36.746859385
 20
262.49904505000001
 30
0.0
  0
VERTEX
  5
815
  8
130_VU3
 10
45.667639784999999
 20
258.33922096999999
 30
0.0
  0
VERTEX
  5
816
  8
130_VU3
 10
44.389224640000002
 20
255.59765257500001
 30
0.0
  0
VERTEX
  5
817
  8
130_VU3
 10
34.623383314999998
 20
260.15153594499998
 30
0.0
 42
0.03064
  0
VERTEX
  5
818
  8
130_VU3
 10
27.018511950000001
 20
250.32189696
 30
0.0
  0
VERTEX
  5
819
  8
130_VU3
 10
34.553117960000002
 20
248.16138648
 30
0.0
  0
VERTEX
  5
81A
  8
130_VU3
 10
33.71931901
 20
245.25358395999999
 30
0.0
  0
VERTEX
  5
81B
  8
130_VU3
 10
25.277721639999999
 20
247.67417012499999
 30
0.0
 42
0.018994
  0
VERTEX
  5
81C
  8
130_VU3
 10
21.394022880000001
 20
241.01545741999999
 30
0.0
 42
0.027959
  0
VERTEX
  5
81D
  8
130_VU3
 10
19.176283590000001
 20
236.96774629000001
 30
0.0
  0
VERTEX
  5
81E
  8
130_VU3
 10
24.34733087
 20
236.24100318500001
 30
0.0
  0
VERTEX
  5
81F
  8
130_VU3
 10
23.926334369999999
 20
233.24545713000001
 30
0.0
  0
VERTEX
  5
820
  8
130_VU3
 10
17.933599109999999
 20
234.08767986999999
 30
0.0
 42
0.0692
  0
VERTEX
  5
821
  8
130_VU3
 10
15.326574955
 20
223.01244163499999
 30
0.0
  0
VERTEX
  5
822
  8
130_VU3
 10
25.464720265
 20
223.01244353000001
 30
0.0
  0
VERTEX
  5
823
  8
130_VU3
 10
25.464720265
 20
219.98745865500001
 30
0.0
  0
VERTEX
  5
824
  8
130_VU3
 10
14.987303375
 20
219.98745771
 30
0.0
 42
0.074214
  0
VERTEX
  5
825
  8
130_VU3
 10
15.18486435
 20
217.43372937500001
 30
0.0
 42
0.066472
  0
VERTEX
  5
826
  8
130_VU3
 10
18.864795385000001
 20
207.600966685
 30
0.0
  0
VERTEX
  5
827
  8
130_VU3
 10
29.982488180000001
 20
209.36183510999999
 30
0.0
  0
VERTEX
  5
828
  8
130_VU3
 10
30.45569987
 20
206.374091695
 30
0.0
  0
VERTEX
  5
829
  8
130_VU3
 10
20.513293695000002
 20
204.79937100999999
 30
0.0
 42
0.084062
  0
VERTEX
  5
82A
  8
130_VU3
 10
29.447848075
 20
195.025748795
 30
0.0
  0
VERTEX
  5
82B
  8
130_VU3
 10
39.897148799999997
 20
198.42093123000001
 30
0.0
  0
VERTEX
  5
82C
  8
130_VU3
 10
40.831920694999987
 20
195.54399891
 30
0.0
  0
VERTEX
  5
82D
  8
130_VU3
 10
32.552996014999998
 20
192.83437094999999
 30
0.0
 42
0.067475
  0
VERTEX
  5
82E
  8
130_VU3
 10
42.23036582999999
 20
188.374098455
 30
0.0
  0
VERTEX
  5
82F
  8
130_VU3
 10
58.978824410000001
 20
195.830991955
 30
0.0
  0
VERTEX
  5
830
  8
130_VU3
 10
60.209196550000001
 20
193.06752928
 30
0.0
  0
VERTEX
  5
831
  8
130_VU3
 10
47.071700774999989
 20
187.2183406499999
 30
0.0
 42
0.012152
  0
VERTEX
  5
832
  8
130_VU3
 10
48.978383915000002
 20
186.93554248000001
 30
0.0
 42
0.184601
  0
VERTEX
  5
833
  8
130_VU3
 10
55.516054080000004
 20
188.55031160499999
 30
0.0
 42
-0.118498
  0
VERTEX
  5
834
  8
130_VU3
 10
59.83530897
 20
183.008718845
 30
0.0
 42
-0.38294
  0
VERTEX
  5
835
  8
130_VU3
 10
58.155896964999997
 20
170.41923156499999
 30
0.0
 42
0.054367
  0
VERTEX
  5
836
  8
130_VU3
 10
35.499202879999999
 20
146.309022895
 30
0.0
  0
VERTEX
  5
837
  8
130_VU3
 10
33.712181010000002
 20
143.93721149999999
 30
0.0
  0
SEQEND
  5
838
  8
130_VU3
  0
POLYLINE
  5
3B3
  8
130_VU3
 66
     1
 10
0.0
 20
0.0
 30
0.0
 70
     1
  0
VERTEX
  5
839
  8
130_VU3
 10
65.852991314999997
 20
371.65357578499999
 30
0.0
 42
0.222993
  0
VERTEX
  5
83A
  8
130_VU3
 10
81.906271880000006
 20
352.42661017500001
 30
0.0
 42
0.117149
  0
VERTEX
  5
83B
  8
130_VU3
 10
100.14630808
 20
348.67080833
 30
0.0
 42
0.117149
  0
VERTEX
  5
83C
  8
130_VU3
 10
118.38634711500001
 20
352.42660923
 30
0.0
 42
0.222993
  0
VERTEX
  5
83D
  8
130_VU3
 10
134.439629575
 20
371.65357389500002
 30
0.0
 42
0.225581
  0
VERTEX
  5
83E
  8
130_VU3
 10
120.389798865
 20
425.73620978999992
 30
0.0
 42
0.34013324
  0
VERTEX
  5
83F
  8
130_VU3
 10
117.38983251000001
 20
426.14667573000003
 30
0.0
 42
0.34013324
  0
VERTEX
  5
840
  8
130_VU3
 10
116.22370469000001
 20
423.35231956500002
 30
0.0
 42
-0.095945
  0
VERTEX
  5
841
  8
130_VU3
 10
123.00377288
 20
397.90455623000008
 30
0.0
 42
-0.4055150000000001
  0
VERTEX
  5
842
  8
130_VU3
 10
101.658802405
 20
372.63610421999999
 30
0.0
  0
VERTEX
  5
843
  8
130_VU3
 10
101.65880335
 20
365.626706695
 30
0.0
  0
VERTEX
  5
844
  8
130_VU3
 10
98.633817535000006
 20
365.626706695
 30
0.0
  0
VERTEX
  5
845
  8
130_VU3
 10
98.633819424999999
 20
372.63610421999999
 30
0.0
 42
-0.4055150000000001
  0
VERTEX
  5
846
  8
130_VU3
 10
77.288848005000006
 20
397.90455339499999
 30
0.0
 42
-0.095945
  0
VERTEX
  5
847
  8
130_VU3
 10
84.068914305000007
 20
423.35231672999993
 30
0.0
 42
0.34013394
  0
VERTEX
  5
848
  8
130_VU3
 10
82.902788869999995
 20
426.14667706
 30
0.0
 42
0.34013394
  0
VERTEX
  5
849
  8
130_VU3
 10
79.902820129999995
 20
425.73620695
 30
0.0
 42
0.225581
  0
VERTEX
  5
84A
  8
130_VU3
 10
65.852992259999994
 20
371.65356728
 30
0.0
  0
VERTEX
  5
84B
  8
130_VU3
 10
65.852991314999997
 20
371.65357578499999
 30
0.0
  0
SEQEND
  5
84C
  8
130_VU3
  0
POLYLINE
  5
3C8
  8
130_VU3
 66
     1
 10
0.0
 20
0.0
 30
0.0
 70
     1
  0
VERTEX
  5
84D
  8
130_VU3
 10
265.976807135
 20
216.683246505
 30
0.0
 42
0.017626
  0
VERTEX
  5
84E
  8
130_VU3
 10
288.03382399499998
 20
216.23662032499999
 30
0.0
 42
0.134769
  0
VERTEX
  5
84F
  8
130_VU3
 10
296.68400322999997
 20
218.75144607499999
 30
0.0
 42
-0.140659
  0
VERTEX
  5
850
  8
130_VU3
 10
303.20232042499998
 20
220.56503549000001
 30
0.0
 42
0.088167
  0
VERTEX
  5
851
  8
130_VU3
 10
330.91462754000003
 20
225.258225235
 30
0.0
 42
0.033155
  0
VERTEX
  5
852
  8
130_VU3
 10
334.29885149
 20
226.80091283499999
 30
0.0
  0
VERTEX
  5
853
  8
130_VU3
 10
337.20701233
 20
228.36703009999999
 30
0.0
 42
-0.102708
  0
VERTEX
  5
854
  8
130_VU3
 10
341.26837169499998
 20
229.397325475
 30
0.0
  0
VERTEX
  5
855
  8
130_VU3
 10
346.19077070999998
 20
229.61278061499999
 30
0.0
 42
0.053191
  0
VERTEX
  5
856
  8
130_VU3
 10
349.54913334499997
 20
230.12042962000001
 30
0.0
 42
-0.088462
  0
VERTEX
  5
857
  8
130_VU3
 10
391.96729227999998
 20
233.51434517999999
 30
0.0
 42
0.4021775500000001
  0
VERTEX
  5
858
  8
130_VU3
 10
394.283028135
 20
235.73642602000001
 30
0.0
 42
0.4021775500000001
  0
VERTEX
  5
859
  8
130_VU3
 10
392.15837705500002
 20
238.14186436
 30
0.0
 42
0.154107
  0
VERTEX
  5
85A
  8
130_VU3
 10
339.01083639500001
 20
235.50390193499999
 30
0.0
 42
-0.089085
  0
VERTEX
  5
85B
  8
130_VU3
 10
335.84518467499998
 20
234.93536625499999
 30
0.0
  0
VERTEX
  5
85C
  8
130_VU3
 10
333.78341781
 20
234.93536625499999
 30
0.0
 42
0.036288
  0
VERTEX
  5
85D
  8
130_VU3
 10
331.03508486499999
 20
234.69357991999999
 30
0.0
 42
0.041213
  0
VERTEX
  5
85E
  8
130_VU3
 10
305.50533755999999
 20
228.37366607999999
 30
0.0
 42
0.134127
  0
VERTEX
  5
85F
  8
130_VU3
 10
304.87872218000001
 20
228.09774118999999
 30
0.0
 42
-0.260122
  0
VERTEX
  5
860
  8
130_VU3
 10
295.93945860500003
 20
226.54033133999999
 30
0.0
  0
VERTEX
  5
861
  8
130_VU3
 10
265.13339409999998
 20
227.946345595
 30
0.0
 42
0.199029
  0
VERTEX
  5
862
  8
130_VU3
 10
264.60117429500002
 20
227.78629269000001
 30
0.0
 42
-0.4042810000000001
  0
VERTEX
  5
863
  8
130_VU3
 10
257.56490573999997
 20
228.139637005
 30
0.0
 42
-0.127834
  0
VERTEX
  5
864
  8
130_VU3
 10
249.29234002999999
 20
243.23600558000001
 30
0.0
 42
-0.18807
  0
VERTEX
  5
865
  8
130_VU3
 10
249.54033311500001
 20
245.21293421999999
 30
0.0
 42
-0.063757
  0
VERTEX
  5
866
  8
130_VU3
 10
252.00203511500001
 20
248.63263735000001
 30
0.0
 42
0.176326
  0
VERTEX
  5
867
  8
130_VU3
 10
252.27082200500001
 20
249.26448568999999
 30
0.0
 42
-0.131652
  0
VERTEX
  5
868
  8
130_VU3
 10
285.61297027000001
 20
320.01786292499997
 30
0.0
 42
0.2810124
  0
VERTEX
  5
869
  8
130_VU3
 10
286.00761220999999
 20
325.42272954999999
 30
0.0
 42
0.2810124
  0
VERTEX
  5
86A
  8
130_VU3
 10
281.38160923499998
 20
328.24556889500002
 30
0.0
  0
VERTEX
  5
86B
  8
130_VU3
 10
279.74027823
 20
328.24556889500002
 30
0.0
 42
-0.4142140000000001
  0
VERTEX
  5
86C
  8
130_VU3
 10
276.707611735
 20
331.27823539000002
 30
0.0
  0
VERTEX
  5
86D
  8
130_VU3
 10
276.707611735
 20
335.06892835500003
 30
0.0
 42
0.168823
  0
VERTEX
  5
86E
  8
130_VU3
 10
275.20751389499998
 20
339.19242993
 30
0.0
  0
VERTEX
  5
86F
  8
130_VU3
 10
264.05550006999999
 20
352.88763526499997
 30
0.0
 42
0.369924
  0
VERTEX
  5
870
  8
130_VU3
 10
256.00076725999998
 20
353.09086788000002
 30
0.0
  0
VERTEX
  5
871
  8
130_VU3
 10
255.10550491500001
 20
352.36185573500001
 30
0.0
  0
VERTEX
  5
872
  8
130_VU3
 10
262.95869648500002
 20
342.71776224500002
 30
0.0
  0
VERTEX
  5
873
  8
130_VU3
 10
260.61459755499999
 20
340.80896039499999
 30
0.0
  0
VERTEX
  5
874
  8
130_VU3
 10
252.76140598000001
 20
350.45305388499997
 30
0.0
  0
VERTEX
  5
875
  8
130_VU3
 10
251.944332645
 20
349.78770988000002
 30
0.0
 42
0.341359
  0
VERTEX
  5
876
  8
130_VU3
 10
250.62376452500001
 20
341.95016613500002
 30
0.0
 42
0.126573
  0
VERTEX
  5
877
  8
130_VU3
 10
265.59287057
 20
325.64800661499999
 30
0.0
 42
0.06705
  0
VERTEX
  5
878
  8
130_VU3
 10
266.88782035499997
 20
325.04746337500001
 30
0.0
 42
-0.22834569
  0
VERTEX
  5
879
  8
130_VU3
 10
269.22407133000002
 20
322.87394417500002
 30
0.0
 42
-0.22834569
  0
VERTEX
  5
87A
  8
130_VU3
 10
268.98013786500002
 20
319.69231710499997
 30
0.0
 42
0.131652
  0
VERTEX
  5
87B
  8
130_VU3
 10
242.53603240499999
 20
262.49775359
 30
0.0
 42
0.137726
  0
VERTEX
  5
87C
  8
130_VU3
 10
242.63680302500001
 20
245.12893553999999
 30
0.0
 42
-0.304325
  0
VERTEX
  5
87D
  8
130_VU3
 10
242.15377681999999
 20
243.62779205499999
 30
0.0
 42
0.315299
  0
VERTEX
  5
87E
  8
130_VU3
 10
240.82202993000001
 20
234.71338764000001
 30
0.0
 42
0.163691
  0
VERTEX
  5
87F
  8
130_VU3
 10
252.05693060499999
 20
219.98341977499999
 30
0.0
 42
0.218618
  0
VERTEX
  5
880
  8
130_VU3
 10
254.311572885
 20
219.49936116000001
 30
0.0
 42
-0.223067
  0
VERTEX
  5
881
  8
130_VU3
 10
264.10896795999997
 20
217.30879165499999
 30
0.0
 42
0.169472
  0
VERTEX
  5
882
  8
130_VU3
 10
265.976807135
 20
216.683246505
 30
0.0
  0
SEQEND
  5
883
  8
130_VU3
  0
POLYLINE
  5
400
  8
130_VU3
 66
     1
 10
0.0
 20
0.0
 30
0.0
 70
     1
  0
VERTEX
  5
884
  8
130_VU3
 10
293.79787659499999
 20
200.53748390999999
 30
0.0
 42
0.27376357
  0
VERTEX
  5
885
  8
130_VU3
 10
290.70865479499997
 20
203.28138612000001
 30
0.0
 42
0.27376357
  0
VERTEX
  5
886
  8
130_VU3
 10
286.81691479
 20
201.89334779000001
 30
0.0
 42
-0.20779875
  0
VERTEX
  5
887
  8
130_VU3
 10
282.82240657
 20
199.87800042000001
 30
0.0
 42
-0.20779875
  0
VERTEX
  5
888
  8
130_VU3
 10
278.623032545
 20
201.42169038500001
 30
0.0
 42
0.12059
  0
VERTEX
  5
889
  8
130_VU3
 10
273.79831353999998
 20
203.39895276499999
 30
0.0
 42
0.009784
  0
VERTEX
  5
88A
  8
130_VU3
 10
268.39819691500003
 20
204.10140114000001
 30
0.0
 42
0.037307
  0
VERTEX
  5
88B
  8
130_VU3
 10
258.72938325500002
 20
205.0773749
 30
0.0
 42
0.395739
  0
VERTEX
  5
88C
  8
130_VU3
 10
252.340119235
 20
199.582157405
 30
0.0
  0
VERTEX
  5
88D
  8
130_VU3
 10
252.227230085
 20
198.52944776499999
 30
0.0
  0
VERTEX
  5
88E
  8
130_VU3
 10
260.78132992500002
 20
197.61213040999999
 30
0.0
  0
VERTEX
  5
88F
  8
130_VU3
 10
260.458788685
 20
194.60438925
 30
0.0
  0
VERTEX
  5
890
  8
130_VU3
 10
251.90468884500001
 20
195.52170659999999
 30
0.0
  0
VERTEX
  5
891
  8
130_VU3
 10
251.77889646
 20
194.348688065
 30
0.0
 42
0.385754
  0
VERTEX
  5
892
  8
130_VU3
 10
256.85769712000001
 20
187.62366757999999
 30
0.0
 42
0.07142
  0
VERTEX
  5
893
  8
130_VU3
 10
275.37403260000002
 20
186.789128355
 30
0.0
 42
0.125182
  0
VERTEX
  5
894
  8
130_VU3
 10
280.07848904000002
 20
188.32050671499999
 30
0.0
  0
VERTEX
  5
895
  8
130_VU3
 10
282.02717955499998
 20
189.55248798
 30
0.0
 42
-0.21135508
  0
VERTEX
  5
896
  8
130_VU3
 10
283.40359274500003
 20
189.75655619
 30
0.0
 42
-0.21135508
  0
VERTEX
  5
897
  8
130_VU3
 10
284.48031028499997
 20
188.87517292999999
 30
0.0
 42
-0.053946
  0
VERTEX
  5
898
  8
130_VU3
 10
285.15871351999999
 20
187.07535655000001
 30
0.0
 42
0.123631
  0
VERTEX
  5
899
  8
130_VU3
 10
323.5027857
 20
116.667528555
 30
0.0
 42
0.083405
  0
VERTEX
  5
89A
  8
130_VU3
 10
328.44708466999998
 20
113.819656885
 30
0.0
 42
-0.198146
  0
VERTEX
  5
89B
  8
130_VU3
 10
334.57392738499999
 20
108.14184174
 30
0.0
 42
0.150427
  0
VERTEX
  5
89C
  8
130_VU3
 10
339.78541167999998
 20
104.22028604499999
 30
0.0
 42
0.126897
  0
VERTEX
  5
89D
  8
130_VU3
 10
356.87237320499997
 20
102.770009565
 30
0.0
 42
0.151148
  0
VERTEX
  5
89E
  8
130_VU3
 10
361.75790798499997
 20
105.00807467
 30
0.0
  0
VERTEX
  5
89F
  8
130_VU3
 10
364.98718057000002
 20
107.89565254
 30
0.0
 42
-0.149472
  0
VERTEX
  5
8A0
  8
130_VU3
 10
368.48870032500002
 20
109.55306815500001
 30
0.0
  0
VERTEX
  5
8A1
  8
130_VU3
 10
370.09080256999999
 20
109.787584125
 30
0.0
 42
0.118986
  0
VERTEX
  5
8A2
  8
130_VU3
 10
372.36727579500001
 20
110.83387713
 30
0.0
 42
0.026898
  0
VERTEX
  5
8A3
  8
130_VU3
 10
396.67050831500001
 20
133.25843205999999
 30
0.0
 42
0.111178
  0
VERTEX
  5
8A4
  8
130_VU3
 10
398.83523258000002
 20
137.12845515999999
 30
0.0
 42
-0.25164
  0
VERTEX
  5
8A5
  8
130_VU3
 10
403.54905917999992
 20
142.2965753899999
 30
0.0
 42
0.125472
  0
VERTEX
  5
8A6
  8
130_VU3
 10
404.66317265499998
 20
143.05893570500001
 30
0.0
 42
0.042086
  0
VERTEX
  5
8A7
  8
130_VU3
 10
425.44153706999998
 20
171.14534312500001
 30
0.0
 42
0.131652
  0
VERTEX
  5
8A8
  8
130_VU3
 10
425.87475420499999
 20
172.26822736
 30
0.0
 42
-0.264718
  0
VERTEX
  5
8A9
  8
130_VU3
 10
430.74312563500001
 20
177.404533845
 30
0.0
 42
0.131653
  0
VERTEX
  5
8AA
  8
130_VU3
 10
432.01968584500003
 20
178.024319435
 30
0.0
 42
0.031512
  0
VERTEX
  5
8AB
  8
130_VU3
 10
449.73969357499999
 20
193.99971920499999
 30
0.0
 42
-0.131652
  0
VERTEX
  5
8AC
  8
130_VU3
 10
471.713429335
 20
207.01871280500001
 30
0.0
 42
0.4142140000000001
  0
VERTEX
  5
8AD
  8
130_VU3
 10
473.36806254999988
 20
210.56422061000001
 30
0.0
 42
0.389149
  0
VERTEX
  5
8AE
  8
130_VU3
 10
469.82255285000002
 20
212.21885193
 30
0.0
 42
0.153915
  0
VERTEX
  5
8AF
  8
130_VU3
 10
427.61088070499989
 20
182.65183200000001
 30
0.0
 42
-0.21594
  0
VERTEX
  5
8B0
  8
130_VU3
 10
423.52069893999987
 20
178.999190825
 30
0.0
 42
0.075548
  0
VERTEX
  5
8B1
  8
130_VU3
 10
418.98176471999989
 20
176.7819044
 30
0.0
 42
0.079712
  0
VERTEX
  5
8B2
  8
130_VU3
 10
397.84858962999999
 20
149.37768005000001
 30
0.0
 42
0.043661
  0
VERTEX
  5
8B3
  8
130_VU3
 10
397.54415622499999
 20
148.50276621
 30
0.0
 42
-0.289789
  0
VERTEX
  5
8B4
  8
130_VU3
 10
392.00215503499999
 20
142.2850071
 30
0.0
 42
0.131652
  0
VERTEX
  5
8B5
  8
130_VU3
 10
391.36624891000002
 20
141.94829290499999
 30
0.0
 42
0.042678
  0
VERTEX
  5
8B6
  8
130_VU3
 10
365.24924261000001
 20
118.292952685
 30
0.0
 42
0.131652
  0
VERTEX
  5
8B7
  8
130_VU3
 10
364.83543800000001
 20
117.66090675
 30
0.0
 42
-0.399625
  0
VERTEX
  5
8B8
  8
130_VU3
 10
356.94742716500002
 20
114.373419265
 30
0.0
 42
0.039573
  0
VERTEX
  5
8B9
  8
130_VU3
 10
356.47940967
 20
114.511239425
 30
0.0
 42
0.080143
  0
VERTEX
  5
8BA
  8
130_VU3
 10
343.98902054500002
 20
115.00495278
 30
0.0
 42
-0.083421
  0
VERTEX
  5
8BB
  8
130_VU3
 10
343.42909300500003
 20
115.03073845500001
 30
0.0
 42
-0.261449
  0
VERTEX
  5
8BC
  8
130_VU3
 10
334.04881344
 20
123.32325086500001
 30
0.0
 42
-0.085425
  0
VERTEX
  5
8BD
  8
130_VU3
 10
293.79787659499999
 20
200.53748390999999
 30
0.0
  0
SEQEND
  5
8BE
  8
130_VU3
  0
POLYLINE
  5
43C
  8
130_VU3
 66
     1
 10
0.0
 20
0.0
 30
0.0
 70
     1
  0
VERTEX
  5
8BF
  8
130_VU3
 10
90.100580509999986
 20
314.65166835500003
 30
0.0
 42
0.109518
  0
VERTEX
  5
8C0
  8
130_VU3
 10
97.353967225000005
 20
283.56586698000001
 30
0.0
 42
0.072869
  0
VERTEX
  5
8C1
  8
130_VU3
 10
108.651088585
 20
266.79792780000002
 30
0.0
 42
0.32976055
  0
VERTEX
  5
8C2
  8
130_VU3
 10
111.36417742
 20
266.58920725000002
 30
0.0
 42
0.32976055
  0
VERTEX
  5
8C3
  8
130_VU3
 10
112.35691685
 20
269.12275885499997
 30
0.0
 42
-0.176327
  0
VERTEX
  5
8C4
  8
130_VU3
 10
103.55577881000001
 20
308.05606692499998
 30
0.0
 42
-0.324425
  0
VERTEX
  5
8C5
  8
130_VU3
 10
125.39513673
 20
326.91921379500002
 30
0.0
  0
VERTEX
  5
8C6
  8
130_VU3
 10
125.395137675
 20
333.87668070500001
 30
0.0
  0
VERTEX
  5
8C7
  8
130_VU3
 10
128.42012349500001
 20
333.87668070500001
 30
0.0
  0
VERTEX
  5
8C8
  8
130_VU3
 10
128.42012255
 20
326.91921379500002
 30
0.0
 42
-0.324425
  0
VERTEX
  5
8C9
  8
130_VU3
 10
150.25948141500001
 20
308.05607070999997
 30
0.0
 42
-0.176327
  0
VERTEX
  5
8CA
  8
130_VU3
 10
141.45834526499999
 20
269.12276169500001
 30
0.0
 42
0.32976019
  0
VERTEX
  5
8CB
  8
130_VU3
 10
142.45108234
 20
266.58921015499999
 30
0.0
 42
0.32976019
  0
VERTEX
  5
8CC
  8
130_VU3
 10
145.164170695
 20
266.79792496499999
 30
0.0
 42
0.072869
  0
VERTEX
  5
8CD
  8
130_VU3
 10
156.46129110999999
 20
283.565861305
 30
0.0
 42
0.133274
  0
VERTEX
  5
8CE
  8
130_VU3
 10
163.71467971000001
 20
314.651661735
 30
0.0
 42
0.40378
  0
VERTEX
  5
8CF
  8
130_VU3
 10
128.84346654999999
 20
348.2978832
 30
0.0
  0
VERTEX
  5
8D0
  8
130_VU3
 10
124.97179367
 20
348.29788414500001
 30
0.0
 42
0.40378
  0
VERTEX
  5
8D1
  8
130_VU3
 10
90.100580509999986
 20
314.65165889999997
 30
0.0
  0
VERTEX
  5
8D2
  8
130_VU3
 10
90.100580509999986
 20
314.65166835500003
 30
0.0
  0
SEQEND
  5
8D3
  8
130_VU3
  0
POLYLINE
  5
452
  8
130_VU3
 66
     1
 10
0.0
 20
0.0
 30
0.0
 70
     1
  0
VERTEX
  5
8D4
  8
130_VU3
 10
287.31070188500001
 20
163.14082780999999
 30
0.0
 42
0.27376357
  0
VERTEX
  5
8D5
  8
130_VU3
 10
284.221480085
 20
165.88473002000001
 30
0.0
 42
0.27376357
  0
VERTEX
  5
8D6
  8
130_VU3
 10
280.32974008000002
 20
164.49669169000001
 30
0.0
 42
-0.20779875
  0
VERTEX
  5
8D7
  8
130_VU3
 10
276.33523138999999
 20
162.48134411999999
 30
0.0
 42
-0.20779875
  0
VERTEX
  5
8D8
  8
130_VU3
 10
272.13585689000001
 20
164.02503429000001
 30
0.0
 42
0.12059
  0
VERTEX
  5
8D9
  8
130_VU3
 10
267.31113883
 20
166.00229572000001
 30
0.0
 42
0.009784
  0
VERTEX
  5
8DA
  8
130_VU3
 10
261.91102221
 20
166.70474504000001
 30
0.0
 42
0.037308
  0
VERTEX
  5
8DB
  8
130_VU3
 10
252.24220854500001
 20
167.68071785999999
 30
0.0
 42
0.395739
  0
VERTEX
  5
8DC
  8
130_VU3
 10
245.852944525
 20
162.185500365
 30
0.0
  0
VERTEX
  5
8DD
  8
130_VU3
 10
245.74005442999999
 20
161.13279166500001
 30
0.0
  0
VERTEX
  5
8DE
  8
130_VU3
 10
254.29415521499999
 20
160.21547336500001
 30
0.0
  0
VERTEX
  5
8DF
  8
130_VU3
 10
253.97161302999999
 20
157.20773315
 30
0.0
  0
VERTEX
  5
8E0
  8
130_VU3
 10
245.41751318999999
 20
158.12505145
 30
0.0
  0
VERTEX
  5
8E1
  8
130_VU3
 10
245.29172174999999
 20
156.952031025
 30
0.0
 42
0.385754
  0
VERTEX
  5
8E2
  8
130_VU3
 10
250.370521465
 20
150.22701147999999
 30
0.0
 42
0.07142
  0
VERTEX
  5
8E3
  8
130_VU3
 10
268.88685788999999
 20
149.39247226000001
 30
0.0
 42
0.125182
  0
VERTEX
  5
8E4
  8
130_VU3
 10
273.59131338499998
 20
150.92384967000001
 30
0.0
  0
VERTEX
  5
8E5
  8
130_VU3
 10
275.540004845
 20
152.15583187999999
 30
0.0
 42
-0.21135508
  0
VERTEX
  5
8E6
  8
130_VU3
 10
276.91641803499999
 20
152.359900095
 30
0.0
 42
-0.21135508
  0
VERTEX
  5
8E7
  8
130_VU3
 10
277.993135575
 20
151.47851683499999
 30
0.0
 42
-0.053946
  0
VERTEX
  5
8E8
  8
130_VU3
 10
278.67153881000002
 20
149.67870045000001
 30
0.0
 42
0.123631
  0
VERTEX
  5
8E9
  8
130_VU3
 10
317.01561099000003
 20
79.270872455000003
 30
0.0
 42
0.083405
  0
VERTEX
  5
8EA
  8
130_VU3
 10
321.95990996
 20
76.423000784999985
 30
0.0
 42
-0.198146
  0
VERTEX
  5
8EB
  8
130_VU3
 10
328.08675173
 20
70.745185645000007
 30
0.0
 42
0.150427
  0
VERTEX
  5
8EC
  8
130_VU3
 10
333.29823602499999
 20
66.823629949999997
 30
0.0
 42
0.126896
  0
VERTEX
  5
8ED
  8
130_VU3
 10
350.385198495
 20
65.373352525000001
 30
0.0
 42
0.151148
  0
VERTEX
  5
8EE
  8
130_VU3
 10
355.270733275
 20
67.611418569999998
 30
0.0
  0
VERTEX
  5
8EF
  8
130_VU3
 10
358.50000585999999
 20
70.498995495000003
 30
0.0
 42
-0.149472
  0
VERTEX
  5
8F0
  8
130_VU3
 10
362.00152466999998
 20
72.156411109999993
 30
0.0
  0
VERTEX
  5
8F1
  8
130_VU3
 10
363.60362786000002
 20
72.390928024999994
 30
0.0
 42
0.118986
  0
VERTEX
  5
8F2
  8
130_VU3
 10
365.88010108499998
 20
73.437221030000003
 30
0.0
 42
0.026898
  0
VERTEX
  5
8F3
  8
130_VU3
 10
390.18333360499997
 20
95.861775960000003
 30
0.0
 42
0.111178
  0
VERTEX
  5
8F4
  8
130_VU3
 10
392.34805786999999
 20
99.731799065000004
 30
0.0
 42
-0.25164
  0
VERTEX
  5
8F5
  8
130_VU3
 10
397.06188352499998
 20
104.899920235
 30
0.0
 42
0.125472
  0
VERTEX
  5
8F6
  8
130_VU3
 10
398.17599794500001
 20
105.662278665
 30
0.0
 42
0.042086
  0
VERTEX
  5
8F7
  8
130_VU3
 10
418.95436236
 20
133.74868608
 30
0.0
 42
0.131652
  0
VERTEX
  5
8F8
  8
130_VU3
 10
419.38757949500001
 20
134.871571265
 30
0.0
 42
-0.264718
  0
VERTEX
  5
8F9
  8
130_VU3
 10
424.25594998000003
 20
140.007877745
 30
0.0
 42
0.131653
  0
VERTEX
  5
8FA
  8
130_VU3
 10
425.53251018999993
 20
140.62766333499999
 30
0.0
 42
0.031512
  0
VERTEX
  5
8FB
  8
130_VU3
 10
443.25251791999989
 20
156.60306216000001
 30
0.0
 42
-0.131652
  0
VERTEX
  5
8FC
  8
130_VU3
 10
465.22625462500002
 20
169.62205575999999
 30
0.0
 42
0.4142140000000001
  0
VERTEX
  5
8FD
  8
130_VU3
 10
466.88088784000001
 20
173.16756451000001
 30
0.0
 42
0.389149
  0
VERTEX
  5
8FE
  8
130_VU3
 10
463.33537719499992
 20
174.822195835
 30
0.0
 42
0.153915
  0
VERTEX
  5
8FF
  8
130_VU3
 10
421.12370599500002
 20
145.25517590000001
 30
0.0
 42
-0.21594
  0
VERTEX
  5
900
  8
130_VU3
 10
417.03352423000001
 20
141.602534725
 30
0.0
 42
0.075548
  0
VERTEX
  5
901
  8
130_VU3
 10
412.49458812
 20
139.3852483
 30
0.0
 42
0.079712
  0
VERTEX
  5
902
  8
130_VU3
 10
391.36141492000002
 20
111.981023005
 30
0.0
 42
0.043661
  0
VERTEX
  5
903
  8
130_VU3
 10
391.05698151500002
 20
111.10611011
 30
0.0
 42
-0.289789
  0
VERTEX
  5
904
  8
130_VU3
 10
385.51498033000001
 20
104.888350055
 30
0.0
 42
0.131652
  0
VERTEX
  5
905
  8
130_VU3
 10
384.87907325499998
 20
104.55163681000001
 30
0.0
 42
0.042678
  0
VERTEX
  5
906
  8
130_VU3
 10
358.76206789999998
 20
80.896296590000006
 30
0.0
 42
0.131652
  0
VERTEX
  5
907
  8
130_VU3
 10
358.34826234500002
 20
80.264250649999994
 30
0.0
 42
-0.399625
  0
VERTEX
  5
908
  8
130_VU3
 10
350.46025150999998
 20
76.976763169999984
 30
0.0
 42
0.039573
  0
VERTEX
  5
909
  8
130_VU3
 10
349.99223496000002
 20
77.114583324999998
 30
0.0
 42
0.080143
  0
VERTEX
  5
90A
  8
130_VU3
 10
337.50184583499998
 20
77.608296679999995
 30
0.0
 42
-0.083421
  0
VERTEX
  5
90B
  8
130_VU3
 10
336.94191829499999
 20
77.634081409999993
 30
0.0
 42
-0.261449
  0
VERTEX
  5
90C
  8
130_VU3
 10
327.56163778500002
 20
85.926594765000004
 30
0.0
 42
-0.085425
  0
VERTEX
  5
90D
  8
130_VU3
 10
287.31070188500001
 20
163.14082780999999
 30
0.0
  0
SEQEND
  5
90E
  8
130_VU3
  0
POLYLINE
  5
48E
  8
130_VU3
 66
     1
 10
0.0
 20
0.0
 30
0.0
 70
     1
  0
VERTEX
  5
90F
  8
130_VU3
 10
15.250173759999999
 20
9.7930910949999994
 30
0.0
 42
-0.009721
  0
VERTEX
  5
910
  8
130_VU3
 10
21.197893284999999
 20
16.511656179999999
 30
0.0
 42
-0.20656387
  0
VERTEX
  5
911
  8
130_VU3
 10
24.835019034999998
 20
18.133029765
 30
0.0
 42
-0.20656387
  0
VERTEX
  5
912
  8
130_VU3
 10
28.509837139999998
 20
16.598999795000001
 30
0.0
 42
-0.04399
  0
VERTEX
  5
913
  8
130_VU3
 10
30.230127674999999
 20
13.84717537
 30
0.0
  0
VERTEX
  5
914
  8
130_VU3
 10
31.671754409999998
 20
11.014607385
 30
0.0
 42
0.211319
  0
VERTEX
  5
915
  8
130_VU3
 10
35.329296694999996
 20
8.0356196050000008
 30
0.0
 42
0.156302
  0
VERTEX
  5
916
  8
130_VU3
 10
67.030730379999994
 20
12.943896714999999
 30
0.0
 42
0.30073
  0
VERTEX
  5
917
  8
130_VU3
 10
70.264564675000003
 20
18.075980905000002
 30
0.0
  0
VERTEX
  5
918
  8
130_VU3
 10
70.174913265000001
 20
22.154282389999999
 30
0.0
 42
-0.373191
  0
VERTEX
  5
919
  8
130_VU3
 10
75.741777389999996
 20
29.154487495000001
 30
0.0
  0
VERTEX
  5
91A
  8
130_VU3
 10
76.195509424999997
 20
29.239208484999999
 30
0.0
 42
0.377724
  0
VERTEX
  5
91B
  8
130_VU3
 10
80.652781125000004
 20
34.936472080000001
 30
0.0
  0
VERTEX
  5
91C
  8
130_VU3
 10
80.652781125000004
 20
38.281368004999997
 30
0.0
 42
0.344698
  0
VERTEX
  5
91D
  8
130_VU3
 10
76.195510369999994
 20
43.339725620000003
 30
0.0
  0
VERTEX
  5
91E
  8
130_VU3
 10
75.741778335000006
 20
43.424447549999989
 30
0.0
 42
-0.361526
  0
VERTEX
  5
91F
  8
130_VU3
 10
70.174914209999983
 20
50.424650765000003
 30
0.0
  0
VERTEX
  5
920
  8
130_VU3
 10
70.264564675000003
 20
54.502953195000003
 30
0.0
 42
0.258459
  0
VERTEX
  5
921
  8
130_VU3
 10
67.030729434999998
 20
59.635037384999997
 30
0.0
 42
0.176327
  0
VERTEX
  5
922
  8
130_VU3
 10
35.32929764
 20
64.543314495000004
 30
0.0
 42
0.211319
  0
VERTEX
  5
923
  8
130_VU3
 10
31.671754409999998
 20
61.564326715
 30
0.0
  0
VERTEX
  5
924
  8
130_VU3
 10
30.230127674999999
 20
58.731758730000003
 30
0.0
 42
-0.065544
  0
VERTEX
  5
925
  8
130_VU3
 10
28.509838084999998
 20
55.97993430999999
 30
0.0
 42
-0.20656431
  0
VERTEX
  5
926
  8
130_VU3
 10
24.835019464999998
 20
54.445900475000002
 30
0.0
 42
-0.20656431
  0
VERTEX
  5
927
  8
130_VU3
 10
21.197893284999999
 20
56.067277920000002
 30
0.0
 42
-0.019783
  0
VERTEX
  5
928
  8
130_VU3
 10
15.250178484999999
 20
62.785837334999989
 30
0.0
 42
0.0916
  0
VERTEX
  5
929
  8
130_VU3
 10
14.386435855
 20
63.517874855000002
 30
0.0
 42
0.41095579
  0
VERTEX
  5
92A
  8
130_VU3
 10
1.3255555949999991
 20
60.050822535000002
 30
0.0
 42
0.41095579
  0
VERTEX
  5
92B
  8
130_VU3
 10
4.646955975
 20
46.95214533499999
 30
0.0
 42
0.119798
  0
VERTEX
  5
92C
  8
130_VU3
 10
13.855306134999999
 20
45.424170525000001
 30
0.0
 42
-0.193858
  0
VERTEX
  5
92D
  8
130_VU3
 10
15.505625345
 20
44.897454074999999
 30
0.0
 42
-0.1333
  0
VERTEX
  5
92E
  8
130_VU3
 10
15.916861219999999
 20
43.864185325000001
 30
0.0
 42
-0.022773
  0
VERTEX
  5
92F
  8
130_VU3
 10
16.33095513
 20
37.801959959999998
 30
0.0
  0
VERTEX
  5
930
  8
130_VU3
 10
33.353222725000002
 20
37.801959959999998
 30
0.0
  0
VERTEX
  5
931
  8
130_VU3
 10
33.353222725000002
 20
34.77697414
 30
0.0
  0
VERTEX
  5
932
  8
130_VU3
 10
16.33095513
 20
34.77697414
 30
0.0
 42
-0.022773
  0
VERTEX
  5
933
  8
130_VU3
 10
15.916860274999999
 20
28.714741215
 30
0.0
 42
-0.133301
  0
VERTEX
  5
934
  8
130_VU3
 10
15.505625345
 20
27.681480024999999
 30
0.0
 42
-0.193858
  0
VERTEX
  5
935
  8
130_VU3
 10
13.855305189999999
 20
27.154763575
 30
0.0
 42
0.119798
  0
VERTEX
  5
936
  8
130_VU3
 10
4.6469550299999991
 20
25.626787820000001
 30
0.0
 42
0.41095579
  0
VERTEX
  5
937
  8
130_VU3
 10
1.325556065
 20
12.528110160000001
 30
0.0
 42
0.41095579
  0
VERTEX
  5
938
  8
130_VU3
 10
14.3864368
 20
9.0610592449999992
 30
0.0
 42
0.0916
  0
VERTEX
  5
939
  8
130_VU3
 10
15.250173759999999
 20
9.7930910949999994
 30
0.0
  0
SEQEND
  5
93A
  8
130_VU3
  0
POLYLINE
  5
4BB
  8
130_VU3
 66
     1
 10
0.0
 20
0.0
 30
0.0
 70
     1
  0
VERTEX
  5
93B
  8
130_VU3
 10
139.79546128000001
 20
68.939735440000007
 30
0.0
 42
0.39044505
  0
VERTEX
  5
93C
  8
130_VU3
 10
138.65109882499999
 20
71.852485805000001
 30
0.0
 42
0.39044505
  0
VERTEX
  5
93D
  8
130_VU3
 10
135.65455904999999
 20
70.950028325000005
 30
0.0
 42
0.02872
  0
VERTEX
  5
93E
  8
130_VU3
 10
124.67573867
 20
53.117501115000003
 30
0.0
 42
0.115218
  0
VERTEX
  5
93F
  8
130_VU3
 10
119.46843318000001
 20
35.702382489999998
 30
0.0
 42
0.31590647
  0
VERTEX
  5
940
  8
130_VU3
 10
139.70298059999999
 20
2.7615445099999989
 30
0.0
 42
0.31590647
  0
VERTEX
  5
941
  8
130_VU3
 10
177.56064625499999
 20
10.593074825
 30
0.0
 42
0.220221
  0
VERTEX
  5
942
  8
130_VU3
 10
186.63688288
 20
35.702389105000002
 30
0.0
 42
0.087241
  0
VERTEX
  5
943
  8
130_VU3
 10
181.42957455000001
 20
53.117507729999993
 30
0.0
 42
0.043661
  0
VERTEX
  5
944
  8
130_VU3
 10
170.45075512
 20
70.950032109999995
 30
0.0
 42
0.390444
  0
VERTEX
  5
945
  8
130_VU3
 10
167.45421636500001
 20
71.852481620000006
 30
0.0
 42
0.38736
  0
VERTEX
  5
946
  8
130_VU3
 10
166.30985477999999
 20
68.939736385000003
 30
0.0
 42
-0.014297
  0
VERTEX
  5
947
  8
130_VU3
 10
170.8447955
 20
55.962133739999999
 30
0.0
 42
-0.099859
  0
VERTEX
  5
948
  8
130_VU3
 10
172.09308071500001
 20
44.505556040000002
 30
0.0
 42
-0.333264
  0
VERTEX
  5
949
  8
130_VU3
 10
154.56515046499999
 20
28.171461765
 30
0.0
  0
VERTEX
  5
94A
  8
130_VU3
 10
154.56515141
 20
18.088176964999999
 30
0.0
  0
VERTEX
  5
94B
  8
130_VU3
 10
151.54016559499999
 20
18.088176964999999
 30
0.0
  0
VERTEX
  5
94C
  8
130_VU3
 10
151.540164645
 20
28.171461765
 30
0.0
 42
-0.333264
  0
VERTEX
  5
94D
  8
130_VU3
 10
134.01223534499999
 20
44.505555094999998
 30
0.0
 42
-0.099859
  0
VERTEX
  5
94E
  8
130_VU3
 10
135.260517725
 20
55.962124285000002
 30
0.0
 42
-0.014297
  0
VERTEX
  5
94F
  8
130_VU3
 10
139.79546128000001
 20
68.939735440000007
 30
0.0
  0
SEQEND
  5
950
  8
130_VU3
  0
POLYLINE
  5
4D2
  8
130_VU3
 66
     1
 10
0.0
 20
0.0
 30
0.0
 70
     1
  0
VERTEX
  5
951
  8
130_VU3
 10
217.19440784
 20
16.048854625000001
 30
0.0
 42
0.120806
  0
VERTEX
  5
952
  8
130_VU3
 10
235.69359793500001
 20
5.2181009850000004
 30
0.0
 42
0.131652
  0
VERTEX
  5
953
  8
130_VU3
 10
261.35779588499997
 20
7.709669139999999
 30
0.0
 42
0.131653
  0
VERTEX
  5
954
  8
130_VU3
 10
269.14050938000003
 20
14.39973895
 30
0.0
 42
-0.092188
  0
VERTEX
  5
955
  8
130_VU3
 10
272.38476799
 20
17.28649429
 30
0.0
 42
0.028209
  0
VERTEX
  5
956
  8
130_VU3
 10
275.65976822499999
 20
19.525601259999998
 30
0.0
 42
0.038561
  0
VERTEX
  5
957
  8
130_VU3
 10
292.636580455
 20
36.975130725
 30
0.0
 42
0.006319
  0
VERTEX
  5
958
  8
130_VU3
 10
293.95562075999999
 20
38.599795675000003
 30
0.0
 42
0.091635
  0
VERTEX
  5
959
  8
130_VU3
 10
294.11857613500001
 20
38.879113715000003
 30
0.0
 42
0.37070491
  0
VERTEX
  5
95A
  8
130_VU3
 10
293.03489180499997
 20
41.718189680000002
 30
0.0
 42
0.37070491
  0
VERTEX
  5
95B
  8
130_VU3
 10
290.06523686000003
 20
41.07330704999999
 30
0.0
 42
-0.090313
  0
VERTEX
  5
95C
  8
130_VU3
 10
267.376409475
 20
20.201878225000002
 30
0.0
 42
-0.233674
  0
VERTEX
  5
95D
  8
130_VU3
 10
265.301168335
 20
19.984319495000001
 30
0.0
  0
VERTEX
  5
95E
  8
130_VU3
 10
262.470385325
 20
21.032599794999999
 30
0.0
 42
0.12994
  0
VERTEX
  5
95F
  8
130_VU3
 10
261.43224382
 20
21.132804105000002
 30
0.0
  0
VERTEX
  5
960
  8
130_VU3
 10
248.20717847500001
 20
18.968587540000001
 30
0.0
 42
-0.20633618
  0
VERTEX
  5
961
  8
130_VU3
 10
238.62321581500001
 20
21.362284785
 30
0.0
 42
-0.20633618
  0
VERTEX
  5
962
  8
130_VU3
 10
233.78254974000001
 20
29.973328785
 30
0.0
 42
0.230423
  0
VERTEX
  5
963
  8
130_VU3
 10
227.06710647
 20
40.72996349999999
 30
0.0
 42
-0.27242308
  0
VERTEX
  5
964
  8
130_VU3
 10
226.64326855499999
 20
44.163495715000003
 30
0.0
 42
-0.27242308
  0
VERTEX
  5
965
  8
130_VU3
 10
229.43924404000001
 20
46.200970405
 30
0.0
 42
0.108366
  0
VERTEX
  5
966
  8
130_VU3
 10
235.078519645
 20
46.689516979999993
 30
0.0
 42
0.099476
  0
VERTEX
  5
967
  8
130_VU3
 10
237.43616281999999
 20
47.979362385000002
 30
0.0
 42
0.093429
  0
VERTEX
  5
968
  8
130_VU3
 10
245.81328371000001
 20
57.181241075000003
 30
0.0
 42
0.375149
  0
VERTEX
  5
969
  8
130_VU3
 10
245.20372295000001
 20
60.828344860000001
 30
0.0
 42
0.053014
  0
VERTEX
  5
96A
  8
130_VU3
 10
242.09127156
 20
62.87402711
 30
0.0
  0
VERTEX
  5
96B
  8
130_VU3
 10
230.234499675
 20
50.404191644999997
 30
0.0
  0
VERTEX
  5
96C
  8
130_VU3
 10
228.04232199500001
 20
52.48859211500001
 30
0.0
  0
VERTEX
  5
96D
  8
130_VU3
 10
241.18288190999999
 20
66.308596190000003
 30
0.0
 42
0.062766
  0
VERTEX
  5
96E
  8
130_VU3
 10
239.51723631999999
 20
67.858929485000004
 30
0.0
 42
0.305603
  0
VERTEX
  5
96F
  8
130_VU3
 10
233.64822579
 20
68.040991074999994
 30
0.0
 42
0.120117
  0
VERTEX
  5
970
  8
130_VU3
 10
222.825756955
 20
57.084746635000002
 30
0.0
 42
0.10123
  0
VERTEX
  5
971
  8
130_VU3
 10
222.249410125
 20
55.447072560000002
 30
0.0
 42
0.074436
  0
VERTEX
  5
972
  8
130_VU3
 10
222.31355381500001
 20
50.092244899999997
 30
0.0
 42
-0.392353
  0
VERTEX
  5
973
  8
130_VU3
 10
219.78718624499999
 20
46.965632849999992
 30
0.0
  0
VERTEX
  5
974
  8
130_VU3
 10
217.09993001000001
 20
46.577643225000003
 30
0.0
 42
0.347149
  0
VERTEX
  5
975
  8
130_VU3
 10
208.68989773000001
 20
37.713937524999999
 30
0.0
 42
0.251467
  0
VERTEX
  5
976
  8
130_VU3
 10
214.86150280499999
 20
18.311520779999999
 30
0.0
  0
VERTEX
  5
977
  8
130_VU3
 10
217.19440784
 20
16.048854625000001
 30
0.0
  0
SEQEND
  5
978
  8
130_VU3
  0
ENDSEC
  0
EOF
