  0
SECTION
  2
HEADER
  9
$ACADVER
  1
AC1009
  9
$EXTMIN
 10
0.00550225
 20
0.02575281
 30
0.0
  9
$EXTMAX
 10
947.06602287
 20
986.35101293
 30
0.0
  0
ENDSEC
  0
SECTION
  2
TABLES
  0
TABLE
  2
LAYER
 70
1
 0
LAYER
 2
130_VU3
 70
0
 62
1
 6
CONTINUOUS
 0
ENDTAB
 0
ENDSEC
  0
SECTION
  2
ENTITIES
  0
POLYLINE
  8
130_VU3
 66
   1
 39
0.000000
 70
    0
  0
VERTEX
  8
0
 10
347.70037264
 20
894.43610808
 42
-0.36397000
  0
VERTEX
  8
0
 10
389.17676444
 20
928.67987199
  0
VERTEX
  8
0
 10
389.17676633
 20
948.84644159
  0
VERTEX
  8
0
 10
395.22673797
 20
948.84644159
  0
VERTEX
  8
0
 10
395.22673608
 20
928.67987199
 42
-0.36397000
  0
VERTEX
  8
0
 10
436.70313166
 20
894.43611186
 42
-0.05724900
  0
VERTEX
  8
0
 10
429.78468551
 20
842.56631320
 42
0.40640200
  0
VERTEX
  8
0
 10
432.55807237
 20
835.15035118
 42
0.38295700
  0
VERTEX
  8
0
 10
440.04554867
 20
837.72442423
 42
0.07765300
  0
VERTEX
  8
0
 10
461.26254659
 20
902.37955803
 42
0.13654400
  0
VERTEX
  8
0
 10
455.84880820
 20
941.46008667
 42
0.29888500
  0
VERTEX
  8
0
 10
392.20174932
 20
983.23861732
 42
0.28351700
  0
VERTEX
  8
0
 10
328.55469422
 20
941.46008100
 42
0.13257200
  0
VERTEX
  8
0
 10
323.14095583
 20
902.37956181
 42
0.07542200
  0
VERTEX
  8
0
 10
344.35795186
 20
837.72442990
 42
0.40640214
  0
VERTEX
  8
0
 10
351.84543619
 20
835.15034705
 42
0.40640214
  0
VERTEX
  8
0
 10
354.61881501
 20
842.56632266
 42
-0.05724900
  0
VERTEX
  8
0
 10
347.70037264
 20
894.43613266
  0
SEQEND
  0
POLYLINE
  8
130_VU3
 66
   1
 39
0.000000
 70
    0
  0
VERTEX
  8
0
 10
603.69413836
 20
486.28148987
 42
0.01762600
  0
VERTEX
  8
0
 10
647.80817209
 20
485.38823751
 42
0.13476900
  0
VERTEX
  8
0
 10
665.10853245
 20
490.41788901
 42
-0.14065900
  0
VERTEX
  8
0
 10
678.14516495
 20
494.04506784
 42
0.08816700
  0
VERTEX
  8
0
 10
733.56977918
 20
503.43144733
 42
0.03315500
  0
VERTEX
  8
0
 10
740.33822897
 20
506.51682253
  0
VERTEX
  8
0
 10
746.15454876
 20
509.64905706
 42
-0.10270800
  0
VERTEX
  8
0
 10
754.27726560
 20
511.70964592
  0
VERTEX
  8
0
 10
764.12206362
 20
512.14055809
 42
0.05319100
  0
VERTEX
  8
0
 10
770.83879079
 20
513.15585610
 42
-0.08846200
  0
VERTEX
  8
0
 10
855.67510866
 20
519.94368722
 42
0.40217725
  0
VERTEX
  8
0
 10
860.30657574
 20
524.38784909
 42
0.40217725
  0
VERTEX
  8
0
 10
856.05727821
 20
529.19872558
 42
0.15410700
  0
VERTEX
  8
0
 10
749.76219878
 20
523.92280073
 42
-0.08908500
  0
VERTEX
  8
0
 10
743.43089344
 20
522.78572936
  0
VERTEX
  8
0
 10
739.30735783
 20
522.78572936
 42
0.03628800
  0
VERTEX
  8
0
 10
733.81069382
 20
522.30215670
 42
0.04121300
  0
VERTEX
  8
0
 10
682.75119733
 20
509.66232713
 42
0.13412700
  0
VERTEX
  8
0
 10
681.49796845
 20
509.11047924
 42
-0.26012200
  0
VERTEX
  8
0
 10
663.61944131
 20
505.99565954
  0
VERTEX
  8
0
 10
602.00731418
 20
508.80768805
 42
0.19902900
  0
VERTEX
  8
0
 10
600.94287269
 20
508.48758035
 42
-0.40428100
  0
VERTEX
  8
0
 10
586.87033558
 20
509.19426898
 42
-0.12783400
  0
VERTEX
  8
0
 10
570.32520226
 20
539.38700991
 42
-0.18807000
  0
VERTEX
  8
0
 10
570.82119032
 20
543.34086530
 42
-0.06375700
  0
VERTEX
  8
0
 10
575.74459244
 20
550.18027156
 42
0.17632600
  0
VERTEX
  8
0
 10
576.28216810
 20
551.44396824
 42
-0.13165200
  0
VERTEX
  8
0
 10
642.96646464
 20
692.95072271
 42
0.28101240
  0
VERTEX
  8
0
 10
643.75574852
 20
703.76045596
 42
0.28101240
  0
VERTEX
  8
0
 10
634.50374257
 20
709.40613465
  0
VERTEX
  8
0
 10
631.22108056
 20
709.40613465
 42
-0.41421400
  0
VERTEX
  8
0
 10
625.15574757
 20
715.47146764
  0
VERTEX
  8
0
 10
625.15574757
 20
723.05285357
 42
0.16882300
  0
VERTEX
  8
0
 10
622.15555378
 20
731.29985672
  0
VERTEX
  8
0
 10
599.85152424
 20
758.69026738
 42
0.36992400
  0
VERTEX
  8
0
 10
583.74205862
 20
759.09673261
  0
VERTEX
  8
0
 10
581.95153393
 20
757.63870644
  0
VERTEX
  8
0
 10
597.65791707
 20
738.35051946
  0
VERTEX
  8
0
 10
592.96971920
 20
734.53291765
  0
VERTEX
  8
0
 10
577.26333606
 20
753.82110463
  0
VERTEX
  8
0
 10
575.62918939
 20
752.49041662
 42
0.34135900
  0
VERTEX
  8
0
 10
572.98805126
 20
736.81532913
 42
0.12657300
  0
VERTEX
  8
0
 10
602.92626524
 20
704.21101009
 42
0.06705000
  0
VERTEX
  8
0
 10
605.51616481
 20
703.00992361
 42
-0.22834569
  0
VERTEX
  8
0
 10
610.18866676
 20
698.66288521
 42
-0.22834569
  0
VERTEX
  8
0
 10
609.70079982
 20
692.29963107
 42
0.13165200
  0
VERTEX
  8
0
 10
556.81258891
 20
577.91050404
 42
0.13772500
  0
VERTEX
  8
0
 10
557.01413015
 20
543.17286605
 42
-0.30432500
  0
VERTEX
  8
0
 10
556.04807773
 20
540.17058097
 42
0.31529900
  0
VERTEX
  8
0
 10
553.38458395
 20
522.34177024
 42
0.16369100
  0
VERTEX
  8
0
 10
575.85438530
 20
492.88183641
 42
0.21861800
  0
VERTEX
  8
0
 10
580.36366987
 20
491.91371918
 42
-0.22306700
  0
VERTEX
  8
0
 10
599.95846001
 20
487.53257828
 42
0.16947400
  0
VERTEX
  8
0
 10
603.69417051
 20
486.28148797
  0
SEQEND
  0
POLYLINE
  8
130_VU3
 66
   1
 39
0.000000
 70
    0
  0
VERTEX
  8
0
 10
213.02308228
 20
92.00117653
 42
0.02186000
  0
VERTEX
  8
0
 10
218.01431904
 20
85.68128443
 42
0.05555800
  0
VERTEX
  8
0
 10
218.55726665
 20
85.14098782
 42
0.32758918
  0
VERTEX
  8
0
 10
225.71119727
 20
84.86323579
 42
0.32758918
  0
VERTEX
  8
0
 10
228.12109402
 20
91.60476879
 42
0.00625900
  0
VERTEX
  8
0
 10
227.76963772
 20
92.58052321
 42
-0.04366100
  0
VERTEX
  8
0
 10
220.30113055
 20
119.46449313
 42
-0.23517679
  0
VERTEX
  8
0
 10
226.67795818
 20
150.84178846
 42
-0.23517679
  0
VERTEX
  8
0
 10
255.55937372
 20
164.66432184
  0
VERTEX
  8
0
 10
255.55937372
 20
184.83089145
  0
VERTEX
  8
0
 10
261.60934536
 20
184.83089145
  0
VERTEX
  8
0
 10
261.60934347
 20
164.66432184
 42
-0.23517679
  0
VERTEX
  8
0
 10
290.49076090
 20
150.84178468
 42
-0.23517679
  0
VERTEX
  8
0
 10
296.86758664
 20
119.46448557
 42
-0.06541400
  0
VERTEX
  8
0
 10
289.39907758
 20
92.58051754
 42
0.02795400
  0
VERTEX
  8
0
 10
289.04762507
 20
91.60476879
 42
0.32758900
  0
VERTEX
  8
0
 10
291.45752030
 20
84.86323541
 42
0.34727200
  0
VERTEX
  8
0
 10
298.61145244
 20
85.14098782
 42
0.03784900
  0
VERTEX
  8
0
 10
299.15439437
 20
85.68128065
 42
0.02186000
  0
VERTEX
  8
0
 10
304.14563113
 20
92.00116897
 42
0.17118600
  0
VERTEX
  8
0
 10
324.52049046
 20
161.15408900
 42
0.08344500
  0
VERTEX
  8
0
 10
322.03955934
 20
172.29765351
 42
0.30529554
  0
VERTEX
  8
0
 10
258.58435669
 20
215.02527355
 42
0.30529554
  0
VERTEX
  8
0
 10
195.12915785
 20
172.29764784
 42
0.08387500
  0
VERTEX
  8
0
 10
192.64822863
 20
161.15408144
 42
0.17074600
  0
VERTEX
  8
0
 10
213.02309362
 20
92.00116140
  0
SEQEND
  0
POLYLINE
  8
130_VU3
 66
   1
 39
0.000000
 70
    0
  0
VERTEX
  8
0
 10
847.54905823
 20
576.54211982
 42
0.13476900
  0
VERTEX
  8
0
 10
830.05168903
 20
580.83648719
 42
-0.14065900
  0
VERTEX
  8
0
 10
816.94804062
 20
584.21357881
 42
0.08816700
  0
VERTEX
  8
0
 10
764.25572483
 20
603.79703892
 42
0.03315500
  0
VERTEX
  8
0
 10
756.85139538
 20
604.50925076
  0
VERTEX
  8
0
 10
750.24819742
 20
604.70481498
 42
-0.10270800
  0
VERTEX
  8
0
 10
742.18342224
 20
606.98165220
  0
VERTEX
  8
0
 10
733.44212146
 20
611.53087176
 42
0.05319100
  0
VERTEX
  8
0
 10
727.11760431
 20
614.00996307
 42
-0.08846200
  0
VERTEX
  8
0
 10
650.25328651
 20
650.54969025
 42
0.40217664
  0
VERTEX
  8
0
 10
644.02024737
 20
649.01666140
 42
0.40217664
  0
VERTEX
  8
0
 10
645.29480135
 20
642.72567845
 42
0.15410700
  0
VERTEX
  8
0
 10
739.98699958
 20
594.14721896
 42
-0.08908500
  0
VERTEX
  8
0
 10
746.03861627
 20
591.96629568
  0
VERTEX
  8
0
 10
749.60970081
 20
589.90453071
 42
0.03628800
  0
VERTEX
  8
0
 10
754.61172305
 20
587.57498952
 42
0.04121300
  0
VERTEX
  8
0
 10
805.15045553
 20
572.99165134
 42
0.13412800
  0
VERTEX
  8
0
 10
806.51172633
 20
572.84294644
 42
-0.26012200
  0
VERTEX
  8
0
 10
823.55239579
 20
566.60119608
  0
VERTEX
  8
0
 10
875.50404984
 20
533.35984396
 42
0.19902900
  0
VERTEX
  8
0
 10
876.58593642
 20
533.10484428
 42
-0.40428100
  0
VERTEX
  8
0
 10
888.41976554
 20
525.45656914
 42
-0.12783400
  0
VERTEX
  8
0
 10
887.65190187
 20
491.03632358
 42
-0.18807000
  0
VERTEX
  8
0
 10
885.24543476
 20
487.86017379
 42
-0.06375600
  0
VERTEX
  8
0
 10
877.56193854
 20
484.39877623
 42
0.17632700
  0
VERTEX
  8
0
 10
876.46452988
 20
483.57315809
 42
-0.13165200
  0
VERTEX
  8
0
 10
747.96085080
 20
394.36687054
 42
0.28101201
  0
VERTEX
  8
0
 10
741.87246321
 20
385.40000517
 42
0.28101201
  0
VERTEX
  8
0
 10
747.06209414
 20
375.88470860
  0
VERTEX
  8
0
 10
749.90496259
 20
374.24337854
 42
-0.41421400
  0
VERTEX
  8
0
 10
752.12502859
 20
365.95797955
  0
VERTEX
  8
0
 10
748.33433373
 20
359.39230573
 42
0.16882300
  0
VERTEX
  8
0
 10
746.80907798
 20
350.75009364
  0
VERTEX
  8
0
 10
752.42972766
 20
315.87728932
 42
0.36992400
  0
VERTEX
  8
0
 10
766.17770220
 20
307.47054620
  0
VERTEX
  8
0
 10
768.45735491
 20
307.83797082
  0
VERTEX
  8
0
 10
764.49932072
 20
332.39522260
  0
VERTEX
  8
0
 10
770.46822167
 20
333.35726449
  0
VERTEX
  8
0
 10
774.42625397
 20
308.80001271
  0
VERTEX
  8
0
 10
776.50681032
 20
309.13534941
 42
0.34135900
  0
VERTEX
  8
0
 10
786.63164680
 20
321.38980820
 42
0.12657300
  0
VERTEX
  8
0
 10
777.00655174
 20
364.59508261
 42
0.06705000
  0
VERTEX
  8
0
 10
775.36417793
 20
366.93019995
 42
-0.22834526
  0
VERTEX
  8
0
 10
773.49119156
 20
373.03109091
 42
-0.22834526
  0
VERTEX
  8
0
 10
777.09531067
 20
378.29789960
 42
0.13165200
  0
VERTEX
  8
0
 10
880.09241023
 20
450.91767612
 42
0.13772600
  0
VERTEX
  8
0
 10
897.28669893
 20
481.10213130
 42
-0.30432600
  0
VERTEX
  8
0
 10
899.62446727
 20
483.21916426
 42
0.31529900
  0
VERTEX
  8
0
 10
910.84552684
 20
497.32762207
 42
0.16369100
  0
VERTEX
  8
0
 10
906.11607415
 20
534.07557469
 42
0.21861700
  0
VERTEX
  8
0
 10
902.69497841
 20
537.16863057
 42
-0.22306600
  0
VERTEX
  8
0
 10
887.91596444
 20
550.76020441
 42
0.16947300
  0
VERTEX
  8
0
 10
885.30627890
 20
553.71154023
 42
0.01762600
  0
VERTEX
  8
0
 10
847.54903932
 20
576.54212927
  0
SEQEND
  0
POLYLINE
  8
130_VU3
 66
   1
 39
0.000000
 70
    0
  0
VERTEX
  8
0
 10
712.09234158
 20
969.11427439
 42
0.13476900
  0
VERTEX
  8
0
 10
694.79199257
 20
964.08462099
 42
-0.14065900
  0
VERTEX
  8
0
 10
681.75535439
 20
960.45744405
 42
0.08816700
  0
VERTEX
  8
0
 10
626.33073827
 20
951.07106078
 42
0.03315500
  0
VERTEX
  8
0
 10
619.56229604
 20
947.98568747
  0
VERTEX
  8
0
 10
613.74597625
 20
944.85345483
 42
-0.10270800
  0
VERTEX
  8
0
 10
605.62325752
 20
942.79286408
  0
VERTEX
  8
0
 10
595.77845950
 20
942.36195380
 42
0.05319100
  0
VERTEX
  8
0
 10
589.06172288
 20
941.34665201
 42
-0.08846200
  0
VERTEX
  8
0
 10
504.22540690
 20
934.55882467
 42
0.40217664
  0
VERTEX
  8
0
 10
499.59395092
 20
930.11466245
 42
0.40217664
  0
VERTEX
  8
0
 10
503.84323924
 20
925.30378820
 42
0.15410700
  0
VERTEX
  8
0
 10
610.13831867
 20
930.57970927
 42
-0.08908500
  0
VERTEX
  8
0
 10
616.46963157
 20
931.71678253
  0
VERTEX
  8
0
 10
620.59316340
 20
931.71678253
 42
0.03628800
  0
VERTEX
  8
0
 10
626.08981606
 20
932.20035141
 42
0.04121300
  0
VERTEX
  8
0
 10
677.14931256
 20
944.84017909
 42
0.13412700
  0
VERTEX
  8
0
 10
678.40255656
 20
945.39203076
 42
-0.26012200
  0
VERTEX
  8
0
 10
696.28108370
 20
948.50685235
  0
VERTEX
  8
0
 10
757.89321272
 20
945.69482195
 42
0.19902900
  0
VERTEX
  8
0
 10
758.95765232
 20
946.01492965
 42
-0.40428100
  0
VERTEX
  8
0
 10
773.03018754
 20
945.30824480
 42
-0.12783400
  0
VERTEX
  8
0
 10
789.57532275
 20
915.11550576
 42
-0.18807000
  0
VERTEX
  8
0
 10
789.07933469
 20
911.16164470
 42
-0.06375700
  0
VERTEX
  8
0
 10
784.15593257
 20
904.32223844
 42
0.17632700
  0
VERTEX
  8
0
 10
783.61835691
 20
903.05853042
 42
-0.13165200
  0
VERTEX
  8
0
 10
716.93405092
 20
761.55177973
 42
0.28101201
  0
VERTEX
  8
0
 10
716.14478288
 20
750.74205255
 42
0.28101201
  0
VERTEX
  8
0
 10
725.39678245
 20
745.09637724
  0
VERTEX
  8
0
 10
728.67944445
 20
745.09637724
 42
-0.41421400
  0
VERTEX
  8
0
 10
734.74477934
 20
739.03104425
  0
VERTEX
  8
0
 10
734.74477934
 20
731.44965832
 42
0.16882300
  0
VERTEX
  8
0
 10
737.74497313
 20
723.20265517
  0
VERTEX
  8
0
 10
760.04900077
 20
695.81224451
 42
0.36992400
  0
VERTEX
  8
0
 10
776.15846639
 20
695.40577928
  0
VERTEX
  8
0
 10
777.94899108
 20
696.86380356
  0
VERTEX
  8
0
 10
762.24260794
 20
716.15199054
  0
VERTEX
  8
0
 10
766.93080581
 20
719.96959424
  0
VERTEX
  8
0
 10
782.63719084
 20
700.68140726
  0
VERTEX
  8
0
 10
784.27133562
 20
702.01209527
 42
0.34135900
  0
VERTEX
  8
0
 10
786.91247186
 20
717.68718655
 42
0.12657300
  0
VERTEX
  8
0
 10
756.97425788
 20
750.29150370
 42
0.06705000
  0
VERTEX
  8
0
 10
754.38436021
 20
751.49258828
 42
-0.22834526
  0
VERTEX
  8
0
 10
749.71186305
 20
755.83962268
 42
-0.22834526
  0
VERTEX
  8
0
 10
750.19971952
 20
762.20287137
 42
0.13165200
  0
VERTEX
  8
0
 10
803.08793421
 20
876.59199462
 42
0.13772600
  0
VERTEX
  8
0
 10
802.88639676
 20
911.32964206
 42
-0.30432600
  0
VERTEX
  8
0
 10
803.85244539
 20
914.33192903
 42
0.31529900
  0
VERTEX
  8
0
 10
806.51594106
 20
932.16074165
 42
0.16369200
  0
VERTEX
  8
0
 10
784.04613782
 20
961.62067548
 42
0.21861700
  0
VERTEX
  8
0
 10
779.53685514
 20
962.58879272
 42
-0.22306700
  0
VERTEX
  8
0
 10
759.94206500
 20
966.96993361
 42
0.16947300
  0
VERTEX
  8
0
 10
756.20634316
 20
968.22102392
 42
0.01762600
  0
VERTEX
  8
0
 10
712.09230754
 20
969.11427439
  0
SEQEND
  0
POLYLINE
  8
130_VU3
 66
   1
 39
0.000000
 70
    0
  0
VERTEX
  8
0
 10
423.92964655
 20
150.83374880
 42
0.03856100
  0
VERTEX
  8
0
 10
389.97602776
 20
115.93469177
 42
0.00632000
  0
VERTEX
  8
0
 10
387.33795661
 20
112.68537132
 42
0.09163400
  0
VERTEX
  8
0
 10
387.01205153
 20
112.12673902
 42
0.37070459
  0
VERTEX
  8
0
 10
389.17941793
 20
106.44859168
 42
0.37070459
  0
VERTEX
  8
0
 10
395.11872441
 20
107.73834857
 42
-0.09031200
  0
VERTEX
  8
0
 10
440.49637729
 20
149.48120811
 42
-0.23367500
  0
VERTEX
  8
0
 10
444.64686713
 20
149.91632935
  0
VERTEX
  8
0
 10
450.30843126
 20
147.81976874
 42
0.12994000
  0
VERTEX
  8
0
 10
452.38471426
 20
147.61936013
  0
VERTEX
  8
0
 10
478.83484495
 20
151.94779326
 42
-0.20633618
  0
VERTEX
  8
0
 10
498.00277081
 20
147.16040012
 42
-0.20633618
  0
VERTEX
  8
0
 10
507.68410431
 20
129.93831266
 42
0.23042300
  0
VERTEX
  8
0
 10
521.11498897
 20
108.42504323
 42
-0.27242308
  0
VERTEX
  8
0
 10
521.96266480
 20
101.55797880
 42
-0.27242308
  0
VERTEX
  8
0
 10
516.37071383
 20
97.48302942
 42
0.10836600
  0
VERTEX
  8
0
 10
505.09216262
 20
96.50593248
 42
0.09947600
  0
VERTEX
  8
0
 10
500.37687438
 20
93.92623979
 42
0.09343000
  0
VERTEX
  8
0
 10
483.62263449
 20
75.52248430
 42
0.37514900
  0
VERTEX
  8
0
 10
484.84175600
 20
68.22827862
 42
0.05301400
  0
VERTEX
  8
0
 10
491.06665879
 20
64.13691412
  0
VERTEX
  8
0
 10
514.78020445
 20
89.07658694
  0
VERTEX
  8
0
 10
519.16455792
 20
84.90778221
  0
VERTEX
  8
0
 10
492.88343809
 20
57.26777596
 42
0.06276600
  0
VERTEX
  8
0
 10
496.21472927
 20
54.16711126
 42
0.30560300
  0
VERTEX
  8
0
 10
507.95274844
 20
53.80298619
 42
0.12011700
  0
VERTEX
  8
0
 10
529.59768800
 20
75.71547318
 42
0.10123000
  0
VERTEX
  8
0
 10
530.75038355
 20
78.99082133
 42
0.07443600
  0
VERTEX
  8
0
 10
530.62209617
 20
89.70047664
 42
-0.39235300
  0
VERTEX
  8
0
 10
535.67483131
 20
95.95370264
  0
VERTEX
  8
0
 10
541.04934189
 20
96.72968189
 42
0.34714900
  0
VERTEX
  8
0
 10
557.86940834
 20
114.45709139
 42
0.25146700
  0
VERTEX
  8
0
 10
545.52620008
 20
153.26192678
  0
VERTEX
  8
0
 10
540.86038244
 20
157.78726476
 42
0.12080600
  0
VERTEX
  8
0
 10
503.86199847
 20
179.44876826
 42
0.13165200
  0
VERTEX
  8
0
 10
452.53360636
 20
174.46562816
 42
0.13165200
  0
VERTEX
  8
0
 10
436.96818126
 20
161.08548666
 42
-0.09218800
  0
VERTEX
  8
0
 10
430.47966404
 20
155.31197786
 42
0.02820900
  0
VERTEX
  8
0
 10
423.92966168
 20
150.83376015
  0
SEQEND
  0
POLYLINE
  8
130_VU3
 66
   1
 39
0.000000
 70
    0
  0
VERTEX
  8
0
 10
491.80798422
 20
759.05658774
 42
0.04208600
  0
VERTEX
  8
0
 10
450.25126674
 20
702.88378236
 42
0.13165200
  0
VERTEX
  8
0
 10
449.38484192
 20
700.63802712
 42
-0.26471800
  0
VERTEX
  8
0
 10
439.64810095
 20
690.36541415
 42
0.13165300
  0
VERTEX
  8
0
 10
437.09497108
 20
689.12583730
 42
0.03151200
  0
VERTEX
  8
0
 10
401.65495562
 20
657.17503209
 42
-0.13165200
  0
VERTEX
  8
0
 10
357.70748788
 20
631.13705623
 42
0.41421300
  0
VERTEX
  8
0
 10
354.39822713
 20
624.04604062
 42
0.38914900
  0
VERTEX
  8
0
 10
361.48923896
 20
620.73677609
 42
0.15391500
  0
VERTEX
  8
0
 10
445.91258514
 20
679.87081217
 42
-0.21594100
  0
VERTEX
  8
0
 10
454.09295245
 20
687.17610019
 42
0.07554800
  0
VERTEX
  8
0
 10
463.17081522
 20
691.61066737
 42
0.07971200
  0
VERTEX
  8
0
 10
505.43716729
 20
746.41911607
 42
0.04366100
  0
VERTEX
  8
0
 10
506.04603788
 20
748.16894753
 42
-0.28978900
  0
VERTEX
  8
0
 10
517.13004026
 20
760.60446953
 42
0.13165200
  0
VERTEX
  8
0
 10
518.40184117
 20
761.27788657
 42
0.04267800
  0
VERTEX
  8
0
 10
570.63585377
 20
808.58856512
 42
0.13165200
  0
VERTEX
  8
0
 10
571.46347622
 20
809.85266834
 42
-0.39962500
  0
VERTEX
  8
0
 10
587.23949789
 20
816.42764520
 42
0.03957300
  0
VERTEX
  8
0
 10
588.17552910
 20
816.15200488
 42
0.08014300
  0
VERTEX
  8
0
 10
613.15630735
 20
815.16457628
 42
-0.08342100
  0
VERTEX
  8
0
 10
614.27616432
 20
815.11300682
 42
-0.26144900
  0
VERTEX
  8
0
 10
633.03671211
 20
798.52799902
 42
-0.08542600
  0
VERTEX
  8
0
 10
713.53859714
 20
644.09951592
 42
0.27376357
  0
VERTEX
  8
0
 10
719.71704018
 20
638.61171055
 42
0.27376357
  0
VERTEX
  8
0
 10
727.50052076
 20
641.38778626
 42
-0.20779875
  0
VERTEX
  8
0
 10
735.48953773
 20
645.41848235
 42
-0.20779875
  0
VERTEX
  8
0
 10
743.88828713
 20
642.33110296
 42
0.12059000
  0
VERTEX
  8
0
 10
753.53771191
 20
638.37658010
 42
0.00978400
  0
VERTEX
  8
0
 10
764.33794137
 20
636.97168334
 42
0.03730700
  0
VERTEX
  8
0
 10
783.67557815
 20
635.01973393
 42
0.39574000
  0
VERTEX
  8
0
 10
796.45411375
 20
646.01016892
  0
VERTEX
  8
0
 10
796.67989205
 20
648.11558821
  0
VERTEX
  8
0
 10
779.57169237
 20
649.95022291
  0
VERTEX
  8
0
 10
780.21677485
 20
655.96570335
  0
VERTEX
  8
0
 10
797.32497453
 20
654.13106864
  0
VERTEX
  8
0
 10
797.57655742
 20
656.47710571
 42
0.38575400
  0
VERTEX
  8
0
 10
787.41895231
 20
669.92714857
 42
0.07142000
  0
VERTEX
  8
0
 10
750.38628135
 20
671.59622513
 42
0.12518200
  0
VERTEX
  8
0
 10
740.97737225
 20
668.53347030
  0
VERTEX
  8
0
 10
737.07999122
 20
666.06950588
 42
-0.21135508
  0
VERTEX
  8
0
 10
734.32716442
 20
665.66137040
 42
-0.21135508
  0
VERTEX
  8
0
 10
732.17372977
 20
667.42413787
 42
-0.05394600
  0
VERTEX
  8
0
 10
730.81692140
 20
671.02378387
 42
0.12363100
  0
VERTEX
  8
0
 10
654.12876947
 20
811.83943797
 42
0.08340400
  0
VERTEX
  8
0
 10
644.24018100
 20
817.53516997
 42
-0.19814600
  0
VERTEX
  8
0
 10
631.98649746
 20
828.89080214
 42
0.15042700
  0
VERTEX
  8
0
 10
621.56352509
 20
836.73391164
 42
0.12689700
  0
VERTEX
  8
0
 10
587.38960203
 20
839.63446460
 42
0.15114800
  0
VERTEX
  8
0
 10
577.61853626
 20
835.15833250
  0
VERTEX
  8
0
 10
571.15999108
 20
829.38317865
 42
-0.14947200
  0
VERTEX
  8
0
 10
564.15695158
 20
826.06834743
  0
VERTEX
  8
0
 10
560.95274519
 20
825.59931548
 42
0.11898500
  0
VERTEX
  8
0
 10
556.39978551
 20
823.50671624
 42
0.02689900
  0
VERTEX
  8
0
 10
507.79332047
 20
778.65760449
 42
0.11117700
  0
VERTEX
  8
0
 10
503.46388518
 20
770.91757152
 42
-0.25164000
  0
VERTEX
  8
0
 10
494.03623197
 20
760.58133106
 42
0.13165200
  0
VERTEX
  8
0
 10
491.80800502
 20
759.05661043
  0
SEQEND
  0
POLYLINE
  8
130_VU3
 66
   1
 39
0.000000
 70
    0
  0
VERTEX
  8
0
 10
318.65300396
 20
853.21091911
 42
0.06856000
  0
VERTEX
  8
0
 10
318.87075366
 20
856.15010993
 42
0.21954072
  0
VERTEX
  8
0
 10
316.13224793
 20
859.87057333
 42
0.21954072
  0
VERTEX
  8
0
 10
311.52449824
 20
860.20209157
 42
0.09653400
  0
VERTEX
  8
0
 10
309.73149463
 20
858.72334533
 42
0.21626100
  0
VERTEX
  8
0
 10
290.54142067
 20
787.36853048
 42
0.33611200
  0
VERTEX
  8
0
 10
345.81043403
 20
745.48357081
  0
VERTEX
  8
0
 10
352.81203648
 20
745.48357081
 42
0.33611200
  0
VERTEX
  8
0
 10
408.08104984
 20
787.36853237
 42
0.21626100
  0
VERTEX
  8
0
 10
388.89097588
 20
858.72334722
 42
0.09653400
  0
VERTEX
  8
0
 10
387.09797416
 20
860.20209157
 42
0.21954072
  0
VERTEX
  8
0
 10
382.49022403
 20
859.87057238
 42
0.21954072
  0
VERTEX
  8
0
 10
379.75171873
 20
856.15010804
 42
0.06856000
  0
VERTEX
  8
0
 10
379.96946844
 20
853.21091911
 42
-0.02587900
  0
VERTEX
  8
0
 10
384.90479432
 20
822.45459371
 42
-0.27939400
  0
VERTEX
  8
0
 10
378.14085991
 20
807.99457561
 42
-0.10716000
  0
VERTEX
  8
0
 10
352.33622013
 20
797.84119847
  0
VERTEX
  8
0
 10
352.33622013
 20
777.67462887
  0
VERTEX
  8
0
 10
346.28625038
 20
777.67462887
  0
VERTEX
  8
0
 10
346.28624849
 20
797.84119847
 42
-0.10716000
  0
VERTEX
  8
0
 10
320.48160870
 20
807.99457750
 42
-0.27939500
  0
VERTEX
  8
0
 10
313.71767429
 20
822.45458047
 42
-0.02587900
  0
VERTEX
  8
0
 10
318.65299828
 20
853.21089263
  0
SEQEND
  0
POLYLINE
  8
130_VU3
 66
   1
 39
0.000000
 70
    1
  0
VERTEX
  8
0
 10
236.61878568
 20
232.50285877
 42
0.18886700
  0
VERTEX
  8
0
 10
278.37362383
 20
225.04683696
 42
0.10604300
  0
VERTEX
  8
0
 10
320.75755912
 20
243.36394939
 42
0.00687000
  0
VERTEX
  8
0
 10
326.53253523
 20
247.60085538
 42
0.37431983
  0
VERTEX
  8
0
 10
327.66479841
 20
255.42565539
 42
0.37431983
  0
VERTEX
  8
0
 10
320.07036338
 20
257.62430766
 42
-0.12488800
  0
VERTEX
  8
0
 10
291.64746300
 20
255.20955480
 42
-0.26740700
  0
VERTEX
  8
0
 10
266.51331887
 20
287.39478521
  0
VERTEX
  8
0
 10
246.34674927
 20
287.39478332
  0
VERTEX
  8
0
 10
246.34674927
 20
293.44475496
  0
VERTEX
  8
0
 10
266.51331698
 20
293.44475307
 42
-0.26740700
  0
VERTEX
  8
0
 10
291.64746300
 20
325.62998349
 42
-0.12488800
  0
VERTEX
  8
0
 10
320.07036338
 20
323.21523063
 42
0.37431983
  0
VERTEX
  8
0
 10
327.66479746
 20
325.41388371
 42
0.37431983
  0
VERTEX
  8
0
 10
326.53253334
 20
333.23868291
 42
0.00687000
  0
VERTEX
  8
0
 10
320.75755912
 20
337.47558889
 42
0.11350300
  0
VERTEX
  8
0
 10
278.37362572
 20
355.79270133
 42
0.18281100
  0
VERTEX
  8
0
 10
236.61877623
 20
348.33667195
 42
0.26400469
  0
VERTEX
  8
0
 10
203.74699811
 20
290.41976268
 42
0.26400469
  0
VERTEX
  8
0
 10
236.61878568
 20
232.50285877
  0
SEQEND
  0
POLYLINE
  8
130_VU3
 66
   1
 39
0.000000
 70
    1
  0
VERTEX
  8
0
 10
19.21785953
 20
41.85460113
 42
-0.41421356
  0
VERTEX
  8
0
 10
26.27615946
 20
34.79630120
 42
-0.41421356
  0
VERTEX
  8
0
 10
19.21785953
 20
27.73800127
 42
-0.41421356
  0
VERTEX
  8
0
 10
12.15955960
 20
34.79630120
 42
-0.41421356
  0
VERTEX
  8
0
 10
19.21785953
 20
41.85460113
  0
SEQEND
  0
POLYLINE
  8
130_VU3
 66
   1
 39
0.000000
 70
    1
  0
VERTEX
  8
0
 10
19.21785953
 20
117.41986693
 42
-0.41421356
  0
VERTEX
  8
0
 10
26.27615946
 20
110.36156700
 42
-0.41421356
  0
VERTEX
  8
0
 10
19.21785953
 20
103.30326707
 42
-0.41421356
  0
VERTEX
  8
0
 10
12.15955960
 20
110.36156700
 42
-0.41421356
  0
VERTEX
  8
0
 10
19.21785953
 20
117.41986693
  0
SEQEND
  0
POLYLINE
  8
130_VU3
 66
   1
 39
0.000000
 70
    1
  0
VERTEX
  8
0
 10
48.58679377
 20
638.80694203
  0
VERTEX
  8
0
 10
48.91296736
 20
638.16275771
 42
-0.23861200
  0
VERTEX
  8
0
 10
49.28118425
 20
629.06465328
 42
0.11604400
  0
VERTEX
  8
0
 10
46.95691477
 20
617.41692084
  0
VERTEX
  8
0
 10
71.70569947
 20
626.06589087
  0
VERTEX
  8
0
 10
73.70161708
 20
620.35463301
  0
VERTEX
  8
0
 10
48.95283050
 20
611.70566298
 42
-0.22169500
  0
VERTEX
  8
0
 10
55.02354299
 20
595.57240654
 42
0.26891000
  0
VERTEX
  8
0
 10
62.26651957
 20
580.53826054
  0
VERTEX
  8
0
 10
73.43856612
 20
599.70283624
  0
VERTEX
  8
0
 10
78.66526996
 20
596.65591359
  0
VERTEX
  8
0
 10
67.84589363
 20
578.09631709
 42
0.30547400
  0
VERTEX
  8
0
 10
85.21742979
 20
584.72730505
  0
VERTEX
  8
0
 10
99.91952730
 20
605.61970069
 42
-0.24407771
  0
VERTEX
  8
0
 10
106.51646179
 20
609.04403084
 42
-0.24407771
  0
VERTEX
  8
0
 10
113.11339627
 20
605.61970069
  0
VERTEX
  8
0
 10
127.81549378
 20
584.72730694
 42
0.30547400
  0
VERTEX
  8
0
 10
145.18702995
 20
578.09631520
  0
VERTEX
  8
0
 10
134.36765551
 20
596.65591359
  0
VERTEX
  8
0
 10
139.59435745
 20
599.70283624
  0
VERTEX
  8
0
 10
150.76640590
 20
580.53826243
 42
0.26891000
  0
VERTEX
  8
0
 10
158.00938058
 20
595.57240654
 42
-0.22169500
  0
VERTEX
  8
0
 10
164.08009308
 20
611.70566298
  0
VERTEX
  8
0
 10
139.33130839
 20
620.35463301
  0
VERTEX
  8
0
 10
141.32722411
 20
626.06589087
  0
VERTEX
  8
0
 10
166.07600880
 20
617.41692273
 42
0.11604400
  0
VERTEX
  8
0
 10
163.75173933
 20
629.06465328
 42
-0.21746100
  0
VERTEX
  8
0
 10
164.11995622
 20
638.16275960
  0
VERTEX
  8
0
 10
164.44612980
 20
638.80694014
 42
0.11616600
  0
VERTEX
  8
0
 10
166.77555565
 20
650.46596669
  0
VERTEX
  8
0
 10
140.76540193
 20
642.42448693
  0
VERTEX
  8
0
 10
138.97840559
 20
648.20452109
  0
VERTEX
  8
0
 10
164.98856120
 20
656.24599896
 42
-0.21829300
  0
VERTEX
  8
0
 10
163.05841152
 20
675.52981616
 42
0.36397000
  0
VERTEX
  8
0
 10
158.86373225
 20
686.40760876
  0
VERTEX
  8
0
 10
145.18855776
 20
668.88906001
  0
VERTEX
  8
0
 10
140.42038780
 20
672.61103151
  0
VERTEX
  8
0
 10
154.15536835
 20
690.20674819
 42
0.13165200
  0
VERTEX
  8
0
 10
142.22414474
 20
695.97872161
 42
0.05316600
  0
VERTEX
  8
0
 10
136.55431376
 20
696.44782730
 42
-0.41765500
  0
VERTEX
  8
0
 10
127.49376751
 20
703.48876912
 42
0.23003800
  0
VERTEX
  8
0
 10
120.86336572
 20
713.86476493
 42
0.12032800
  0
VERTEX
  8
0
 10
119.42342564
 20
714.29160041
  0
VERTEX
  8
0
 10
109.54144761
 20
714.77295131
  0
VERTEX
  8
0
 10
109.54144761
 20
657.49478431
  0
VERTEX
  8
0
 10
103.49147597
 20
657.49478431
  0
VERTEX
  8
0
 10
103.49147597
 20
714.77295131
  0
VERTEX
  8
0
 10
93.60949983
 20
714.29160041
 42
0.13292700
  0
VERTEX
  8
0
 10
92.16955975
 20
713.86476493
 42
0.22871900
  0
VERTEX
  8
0
 10
85.53915796
 20
703.48876912
 42
-0.41765500
  0
VERTEX
  8
0
 10
76.47860981
 20
696.44782730
 42
0.05316600
  0
VERTEX
  8
0
 10
70.80877884
 20
695.97872161
 42
0.13165200
  0
VERTEX
  8
0
 10
58.87755523
 20
690.20674819
  0
VERTEX
  8
0
 10
72.61253766
 20
672.61103151
  0
VERTEX
  8
0
 10
67.84436771
 20
668.88906001
  0
VERTEX
  8
0
 10
54.16919132
 20
686.40760876
 42
0.36397000
  0
VERTEX
  8
0
 10
49.97451205
 20
675.52981616
 42
-0.21829300
  0
VERTEX
  8
0
 10
48.04436427
 20
656.24600085
  0
VERTEX
  8
0
 10
74.05451799
 20
648.20452109
  0
VERTEX
  8
0
 10
72.26752354
 20
642.42448693
  0
VERTEX
  8
0
 10
46.25736982
 20
650.46596669
 42
0.11616600
  0
VERTEX
  8
0
 10
48.58679377
 20
638.80694203
  0
SEQEND
  0
POLYLINE
  8
130_VU3
 66
   1
 39
0.000000
 70
    1
  0
VERTEX
  8
0
 10
478.70805514
 20
611.11723638
 42
-0.33581466
  0
VERTEX
  8
0
 10
464.20631997
 20
593.91150459
 42
-0.33581466
  0
VERTEX
  8
0
 10
443.71041426
 20
603.19888195
 42
0.04366100
  0
VERTEX
  8
0
 10
438.25166013
 20
614.17381187
 42
0.37579300
  0
VERTEX
  8
0
 10
434.09098044
 20
615.10893169
 42
0.12915400
  0
VERTEX
  8
0
 10
396.48424208
 20
585.13740451
 42
0.07959900
  0
VERTEX
  8
0
 10
395.64217156
 20
583.64230800
 42
0.12106000
  0
VERTEX
  8
0
 10
394.27166390
 20
571.57909849
 42
-0.02669200
  0
VERTEX
  8
0
 10
394.39099238
 20
560.75029433
 42
-0.40186200
  0
VERTEX
  8
0
 10
383.70487450
 20
550.50744352
  0
VERTEX
  8
0
 10
372.38057390
 20
550.50744162
 42
0.20491408
  0
VERTEX
  8
0
 10
361.72818259
 20
546.23833662
 42
0.20491408
  0
VERTEX
  8
0
 10
357.45907218
 20
535.58594747
 42
0.21650700
  0
VERTEX
  8
0
 10
414.87567293
 20
416.57217631
 42
0.11371400
  0
VERTEX
  8
0
 10
420.31836230
 20
413.81835608
 42
0.35634200
  0
VERTEX
  8
0
 10
438.22910972
 20
424.36613287
 42
0.07891900
  0
VERTEX
  8
0
 10
445.02135033
 20
448.10632833
 42
0.08748900
  0
VERTEX
  8
0
 10
440.57274161
 20
531.36266703
 42
-0.21946206
  0
VERTEX
  8
0
 10
441.88583270
 20
535.58490192
 42
-0.21946206
  0
VERTEX
  8
0
 10
445.94959686
 20
537.32768605
  0
VERTEX
  8
0
 10
462.90327535
 20
536.87086718
 42
0.17952700
  0
VERTEX
  8
0
 10
469.30919218
 20
538.88861290
 42
0.03797600
  0
VERTEX
  8
0
 10
475.98801893
 20
544.94218662
 42
0.06603000
  0
VERTEX
  8
0
 10
477.24166946
 20
546.67364081
  0
VERTEX
  8
0
 10
449.36712833
 20
566.85604448
  0
VERTEX
  8
0
 10
452.91454874
 20
571.75549694
  0
VERTEX
  8
0
 10
481.16401554
 20
551.30162987
 42
0.02113200
  0
VERTEX
  8
0
 10
482.41766607
 20
553.03308405
 42
0.03434300
  0
VERTEX
  8
0
 10
486.43908194
 20
560.12613801
 42
0.20416300
  0
VERTEX
  8
0
 10
487.05165105
 20
573.93989562
 42
-0.28691100
  0
VERTEX
  8
0
 10
486.13259978
 20
588.46170328
  0
VERTEX
  8
0
 10
489.08904093
 20
593.93037498
 42
0.14143300
  0
VERTEX
  8
0
 10
492.11881536
 20
607.83082102
  0
VERTEX
  8
0
 10
491.12298188
 20
622.80708964
 42
0.39026300
  0
VERTEX
  8
0
 10
485.02540591
 20
628.09137399
 42
0.39484400
  0
VERTEX
  8
0
 10
479.25682659
 20
622.44976979
 42
-0.00198400
  0
VERTEX
  8
0
 10
478.70805514
 20
611.11723638
  0
SEQEND
  0
POLYLINE
  8
130_VU3
 66
   1
 39
0.000000
 70
    1
  0
VERTEX
  8
0
 10
143.81777593
 20
464.28315400
 42
0.16170100
  0
VERTEX
  8
0
 10
188.63064554
 20
378.16542775
 42
0.20471058
  0
VERTEX
  8
0
 10
238.39620270
 20
356.75680408
 42
0.20471058
  0
VERTEX
  8
0
 10
288.26464018
 20
377.92467572
 42
0.40402600
  0
VERTEX
  8
0
 10
288.02389193
 20
477.55866657
 42
0.16170100
  0
VERTEX
  8
0
 10
201.90616946
 20
522.37153807
 42
0.35823428
  0
VERTEX
  8
0
 10
196.27971467
 20
518.28262015
 42
0.35823428
  0
VERTEX
  8
0
 10
199.20199191
 20
511.97100077
 42
-0.14636300
  0
VERTEX
  8
0
 10
254.81470903
 20
474.91033561
 42
-0.36397000
  0
VERTEX
  8
0
 10
254.47182779
 20
415.99546360
  0
VERTEX
  8
0
 10
267.73355221
 20
402.73374107
  0
VERTEX
  8
0
 10
263.45557483
 20
398.45576557
  0
VERTEX
  8
0
 10
250.19385041
 20
411.71748810
 42
-0.38040100
  0
VERTEX
  8
0
 10
191.27897650
 20
411.37461065
 42
-0.13165200
  0
VERTEX
  8
0
 10
154.21831323
 20
466.98732777
 42
0.35823428
  0
VERTEX
  8
0
 10
147.90669186
 20
469.90959873
 42
0.35823428
  0
VERTEX
  8
0
 10
143.81777971
 20
464.28314076
  0
VERTEX
  8
0
 10
143.81777593
 20
464.28315400
  0
SEQEND
  0
POLYLINE
  8
130_VU3
 66
   1
 39
0.000000
 70
    1
  0
VERTEX
  8
0
 10
128.39044611
 20
979.65472030
  0
VERTEX
  8
0
 10
126.39535102
 20
980.19811982
 42
0.02622400
  0
VERTEX
  8
0
 10
110.96441154
 20
983.47685450
  0
VERTEX
  8
0
 10
107.36068317
 20
956.72734374
  0
VERTEX
  8
0
 10
107.21755064
 20
956.00265978
  0
VERTEX
  8
0
 10
101.36487904
 20
957.53510647
  0
VERTEX
  8
0
 10
104.97095964
 20
984.30208313
 42
0.05843000
  0
VERTEX
  8
0
 10
69.91663452
 20
984.30208313
  0
VERTEX
  8
0
 10
73.52272269
 20
957.53510647
  0
VERTEX
  8
0
 10
67.67005109
 20
956.00265978
  0
VERTEX
  8
0
 10
67.52691856
 20
956.72734374
  0
VERTEX
  8
0
 10
63.92318262
 20
983.47685450
 42
0.02828400
  0
VERTEX
  8
0
 10
48.49225071
 20
980.19811982
  0
VERTEX
  8
0
 10
46.49715562
 20
979.65472030
 42
0.41790100
  0
VERTEX
  8
0
 10
43.67917090
 20
974.65439606
  0
VERTEX
  8
0
 10
55.33084389
 20
933.90287352
  0
VERTEX
  8
0
 10
49.51396819
 20
932.23971158
  0
VERTEX
  8
0
 10
41.85718606
 20
959.01917359
  0
VERTEX
  8
0
 10
33.95343475
 20
955.68657205
 42
0.34818700
  0
VERTEX
  8
0
 10
31.54424858
 20
951.29387421
 42
0.01521500
  0
VERTEX
  8
0
 10
44.06889255
 20
902.35308219
 42
0.19581700
  0
VERTEX
  8
0
 10
49.06543696
 20
896.01649568
 42
0.22127070
  0
VERTEX
  8
0
 10
59.54847914
 20
895.16731373
 42
0.22127070
  0
VERTEX
  8
0
 10
66.94944950
 20
902.63999204
 42
-0.24059000
  0
VERTEX
  8
0
 10
84.41881504
 20
919.03021843
  0
VERTEX
  8
0
 10
84.41881504
 20
949.76562712
  0
VERTEX
  8
0
 10
90.46878668
 20
949.76562712
  0
VERTEX
  8
0
 10
90.46878479
 20
919.03021843
 42
-0.24059000
  0
VERTEX
  8
0
 10
107.93815223
 20
902.63999393
 42
0.22127070
  0
VERTEX
  8
0
 10
115.33912120
 20
895.16731512
 42
0.22127070
  0
VERTEX
  8
0
 10
125.82216287
 20
896.01649568
 42
0.16913300
  0
VERTEX
  8
0
 10
130.81870728
 20
902.35307274
 42
0.04106000
  0
VERTEX
  8
0
 10
143.34334936
 20
951.29386287
 42
0.34818600
  0
VERTEX
  8
0
 10
140.93416698
 20
955.68657205
  0
VERTEX
  8
0
 10
133.03041377
 20
959.01917359
  0
VERTEX
  8
0
 10
125.37363354
 20
932.23971158
  0
VERTEX
  8
0
 10
119.55675783
 20
933.90287352
  0
VERTEX
  8
0
 10
131.20154620
 20
974.63032728
 42
0.41972900
  0
VERTEX
  8
0
 10
128.39044611
 20
979.65472030
  0
SEQEND
  0
POLYLINE
  8
130_VU3
 66
   1
 39
0.000000
 70
    1
  0
VERTEX
  8
0
 10
105.26156423
 20
41.32075046
 42
0.41421356
  0
VERTEX
  8
0
 10
115.34484903
 20
51.40403526
 42
0.41421356
  0
VERTEX
  8
0
 10
105.26156423
 20
61.48732006
  0
VERTEX
  8
0
 10
85.09499463
 20
61.48732006
 42
0.41421356
  0
VERTEX
  8
0
 10
75.01170983
 20
51.40403526
 42
0.41421356
  0
VERTEX
  8
0
 10
85.09499463
 20
41.32075046
  0
VERTEX
  8
0
 10
105.26156423
 20
41.32075046
  0
SEQEND
  0
POLYLINE
  8
130_VU3
 66
   1
 39
0.000000
 70
    1
  0
VERTEX
  8
0
 10
85.09499463
 20
83.67054814
  0
VERTEX
  8
0
 10
105.26156423
 20
83.67054814
 42
0.41421356
  0
VERTEX
  8
0
 10
115.34484903
 20
93.75383294
 42
0.41421356
  0
VERTEX
  8
0
 10
105.26156423
 20
103.83711774
  0
VERTEX
  8
0
 10
85.09499463
 20
103.83711774
 42
0.41421356
  0
VERTEX
  8
0
 10
75.01170983
 20
93.75383294
 42
0.41421356
  0
VERTEX
  8
0
 10
85.09499463
 20
83.67054814
  0
SEQEND
  0
POLYLINE
  8
130_VU3
 66
   1
 39
0.000000
 70
    1
  0
VERTEX
  8
0
 10
558.08546761
 20
248.43555533
 42
0.27376357
  0
VERTEX
  8
0
 10
551.90702401
 20
253.92335975
 42
0.27376357
  0
VERTEX
  8
0
 10
544.12354399
 20
251.14728309
 42
-0.20779875
  0
VERTEX
  8
0
 10
536.13452608
 20
247.11658659
 42
-0.20779875
  0
VERTEX
  8
0
 10
527.73577573
 20
250.20396639
 42
0.12059000
  0
VERTEX
  8
0
 10
518.08634150
 20
254.15849115
 42
0.00978400
  0
VERTEX
  8
0
 10
507.28610636
 20
255.56338790
 42
0.03730700
  0
VERTEX
  8
0
 10
487.94848092
 20
257.51533542
 42
0.39573900
  0
VERTEX
  8
0
 10
475.16995100
 20
246.52490043
  0
VERTEX
  8
0
 10
474.94417270
 20
244.41948304
  0
VERTEX
  8
0
 10
492.05237427
 20
242.58484644
  0
VERTEX
  8
0
 10
491.40728990
 20
236.56936601
  0
VERTEX
  8
0
 10
474.29909022
 20
238.40400071
  0
VERTEX
  8
0
 10
474.04750733
 20
236.05796364
 42
0.38575400
  0
VERTEX
  8
0
 10
484.20510677
 20
222.60792267
 42
0.07142000
  0
VERTEX
  8
0
 10
521.23777773
 20
220.93884422
 42
0.12518200
  0
VERTEX
  8
0
 10
530.64669061
 20
224.00159905
  0
VERTEX
  8
0
 10
534.54407353
 20
226.46556347
 42
-0.21135508
  0
VERTEX
  8
0
 10
537.29690033
 20
226.87369895
 42
-0.21135508
  0
VERTEX
  8
0
 10
539.45033498
 20
225.11093148
 42
-0.05394600
  0
VERTEX
  8
0
 10
540.80713957
 20
221.51130061
 42
0.12363100
  0
VERTEX
  8
0
 10
617.49528393
 20
80.69564462
 42
0.08340500
  0
VERTEX
  8
0
 10
627.38388186
 20
74.99990128
 42
-0.19814600
  0
VERTEX
  8
0
 10
639.63756729
 20
63.64427099
 42
0.15042700
  0
VERTEX
  8
0
 10
650.06053588
 20
55.80115961
 42
0.12689700
  0
VERTEX
  8
0
 10
684.23445894
 20
52.90060475
 42
0.15114800
  0
VERTEX
  8
0
 10
694.00552849
 20
57.37673685
  0
VERTEX
  8
0
 10
700.46407367
 20
63.15189070
 42
-0.14947200
  0
VERTEX
  8
0
 10
707.46711317
 20
66.46672382
  0
VERTEX
  8
0
 10
710.67131956
 20
66.93575387
 42
0.11898600
  0
VERTEX
  8
0
 10
715.22426601
 20
69.02834177
 42
0.02689800
  0
VERTEX
  8
0
 10
763.83073105
 20
113.87744974
 42
0.11117800
  0
VERTEX
  8
0
 10
768.16017957
 20
121.61749784
 42
-0.25164000
  0
VERTEX
  8
0
 10
777.58783089
 20
131.95373829
 42
0.12547200
  0
VERTEX
  8
0
 10
779.81605973
 20
133.47845703
 42
0.04208600
  0
VERTEX
  8
0
 10
821.37278856
 20
189.65127187
 42
0.13165200
  0
VERTEX
  8
0
 10
822.23922283
 20
191.89704034
 42
-0.26471800
  0
VERTEX
  8
0
 10
831.97596380
 20
202.16965520
 42
0.13165200
  0
VERTEX
  8
0
 10
834.52908422
 20
203.40922449
 42
0.03151200
  0
VERTEX
  8
0
 10
869.96909967
 20
235.36002592
 42
-0.13165200
  0
VERTEX
  8
0
 10
913.91657309
 20
261.39801123
 42
0.41421400
  0
VERTEX
  8
0
 10
917.22583951
 20
268.48902873
 42
0.38914900
  0
VERTEX
  8
0
 10
910.13482012
 20
271.79829137
 42
0.15391500
  0
VERTEX
  8
0
 10
825.71147394
 20
212.66425151
 42
-0.21594000
  0
VERTEX
  8
0
 10
817.53111041
 20
205.35896727
 42
0.07554800
  0
VERTEX
  8
0
 10
808.45324008
 20
200.92439442
 42
0.07971200
  0
VERTEX
  8
0
 10
766.18689368
 20
146.11594572
 42
0.04366100
  0
VERTEX
  8
0
 10
765.57802687
 20
144.36611993
 42
-0.28978900
  0
VERTEX
  8
0
 10
754.49402260
 20
131.93059982
 42
0.13165200
  0
VERTEX
  8
0
 10
753.22221034
 20
131.25717333
 42
0.04267800
  0
VERTEX
  8
0
 10
700.98819964
 20
83.94649288
 42
0.13165200
  0
VERTEX
  8
0
 10
700.16058853
 20
82.68240101
 42
-0.39962500
  0
VERTEX
  8
0
 10
684.38456686
 20
76.10742415
 42
0.03957300
  0
VERTEX
  8
0
 10
683.44853187
 20
76.38306636
 42
0.08014300
  0
VERTEX
  8
0
 10
658.46775361
 20
77.37049307
 42
-0.08342100
  0
VERTEX
  8
0
 10
657.34789854
 20
77.42206253
 42
-0.26144900
  0
VERTEX
  8
0
 10
638.58733941
 20
94.00708924
 42
-0.08542500
  0
VERTEX
  8
0
 10
558.08546761
 20
248.43555533
  0
SEQEND
  0
POLYLINE
  8
130_VU3
 66
   1
 39
0.000000
 70
    1
  0
VERTEX
  8
0
 10
186.24116782
 20
873.36003606
 42
-0.07843400
  0
VERTEX
  8
0
 10
184.22435052
 20
901.94226041
 42
-0.16236200
  0
VERTEX
  8
0
 10
194.21540666
 20
925.82881233
 42
-0.19631800
  0
VERTEX
  8
0
 10
228.06198758
 20
942.81015034
  0
VERTEX
  8
0
 10
228.06198758
 20
956.44584364
  0
VERTEX
  8
0
 10
234.11195922
 20
956.44584364
  0
VERTEX
  8
0
 10
234.11195922
 20
942.81015034
 42
-0.20248400
  0
VERTEX
  8
0
 10
267.95853824
 20
925.82881611
 42
-0.16646400
  0
VERTEX
  8
0
 10
277.94959628
 20
901.94226609
 42
-0.06845700
  0
VERTEX
  8
0
 10
275.93278087
 20
873.36004551
 42
-0.01899400
  0
VERTEX
  8
0
 10
266.58090582
 20
835.86126588
  0
VERTEX
  8
0
 10
266.37135300
 20
835.13902681
 42
0.36976779
  0
VERTEX
  8
0
 10
269.37594826
 20
828.51722282
 42
0.36976779
  0
VERTEX
  8
0
 10
276.38044986
 20
830.46987180
  0
VERTEX
  8
0
 10
276.55905117
 20
830.73680848
 42
0.08748900
  0
VERTEX
  8
0
 10
301.33967418
 20
887.09833317
 42
0.10763500
  0
VERTEX
  8
0
 10
303.01300707
 20
935.85761952
 42
0.05183200
  0
VERTEX
  8
0
 10
301.56517642
 20
940.82313868
 42
0.13165300
  0
VERTEX
  8
0
 10
283.56473788
 20
969.57316564
 42
0.08031500
  0
VERTEX
  8
0
 10
267.56332931
 20
980.27126590
 42
0.04869000
  0
VERTEX
  8
0
 10
257.09505190
 20
983.56212668
 42
0.05665600
  0
VERTEX
  8
0
 10
231.08696867
 20
986.35101293
 42
0.03667000
  0
VERTEX
  8
0
 10
205.07888922
 20
983.56212479
 42
0.06230700
  0
VERTEX
  8
0
 10
194.61061371
 20
980.27126401
 42
0.08031500
  0
VERTEX
  8
0
 10
178.60920514
 20
969.57316186
 42
0.13165200
  0
VERTEX
  8
0
 10
160.60877038
 20
940.82313490
 42
0.05637000
  0
VERTEX
  8
0
 10
159.16093973
 20
935.85761385
 42
0.10306000
  0
VERTEX
  8
0
 10
160.83427262
 20
887.09833506
 42
0.08794500
  0
VERTEX
  8
0
 10
185.61489185
 20
830.73681605
  0
VERTEX
  8
0
 10
185.79349883
 20
830.46987180
 42
0.36976779
  0
VERTEX
  8
0
 10
192.79800043
 20
828.51722282
 42
0.36976779
  0
VERTEX
  8
0
 10
195.80259569
 20
835.13902681
  0
VERTEX
  8
0
 10
195.59303720
 20
835.86128668
 42
-0.01863200
  0
VERTEX
  8
0
 10
186.24116782
 20
873.36003606
  0
SEQEND
  0
POLYLINE
  8
130_VU3
 66
   1
 39
0.000000
 70
    1
  0
VERTEX
  8
0
 10
45.22470047
 20
865.98693608
  0
VERTEX
  8
0
 10
62.03117729
 20
736.16537768
 42
0.37698936
  0
VERTEX
  8
0
 10
72.17369332
 20
727.25125219
 42
0.37698936
  0
VERTEX
  8
0
 10
82.31620936
 20
736.16537768
  0
VERTEX
  8
0
 10
82.31620936
 20
789.13528326
  0
VERTEX
  8
0
 10
88.36617910
 20
789.13528326
  0
VERTEX
  8
0
 10
88.36617910
 20
736.16537768
 42
0.37698936
  0
VERTEX
  8
0
 10
98.50869419
 20
727.25125302
 42
0.37698936
  0
VERTEX
  8
0
 10
108.65120928
 20
736.16537768
  0
VERTEX
  8
0
 10
125.45768611
 20
865.98693608
 42
0.37876500
  0
VERTEX
  8
0
 10
112.55317943
 20
879.52643370
  0
VERTEX
  8
0
 10
104.06713736
 20
880.25181539
 42
-0.30700900
  0
VERTEX
  8
0
 10
102.06261255
 20
881.87618442
  0
VERTEX
  8
0
 10
97.29968595
 20
897.60560014
 42
0.28295224
  0
VERTEX
  8
0
 10
85.34119365
 20
904.96192517
 42
0.28295224
  0
VERTEX
  8
0
 10
73.38270251
 20
897.60559825
  0
VERTEX
  8
0
 10
68.61977591
 20
881.87618442
 42
-0.30700900
  0
VERTEX
  8
0
 10
66.61525110
 20
880.25181539
  0
VERTEX
  8
0
 10
58.12920903
 20
879.52643370
 42
0.37876500
  0
VERTEX
  8
0
 10
45.22470047
 20
865.98693608
  0
SEQEND
  0
POLYLINE
  8
130_VU3
 66
   1
 39
0.000000
 70
    1
  0
VERTEX
  8
0
 10
367.10376980
 20
176.94869217
 42
-0.33581466
  0
VERTEX
  8
0
 10
374.84623275
 20
198.07667801
 42
-0.33581466
  0
VERTEX
  8
0
 10
397.28255429
 20
196.35941453
 42
0.04366100
  0
VERTEX
  8
0
 10
406.16575477
 20
187.91335661
 42
0.37579300
  0
VERTEX
  8
0
 10
410.39534502
 20
188.45766186
 42
0.12915400
  0
VERTEX
  8
0
 10
435.48325380
 20
229.48394734
 42
0.07959900
  0
VERTEX
  8
0
 10
435.76318826
 20
231.17688468
 42
0.12106000
  0
VERTEX
  8
0
 10
432.92518310
 20
242.98133927
 42
-0.02669200
  0
VERTEX
  8
0
 10
429.10938140
 20
253.11627484
 42
-0.40186200
  0
VERTEX
  8
0
 10
435.64778710
 20
266.39627065
  0
VERTEX
  8
0
 10
446.28915018
 20
270.26941084
 42
0.20491408
  0
VERTEX
  8
0
 10
454.83900498
 20
277.92439463
 42
0.20491408
  0
VERTEX
  8
0
 10
455.20732214
 20
289.39449212
 42
0.21650700
  0
VERTEX
  8
0
 10
360.54825180
 20
381.59321525
 42
0.11371400
  0
VERTEX
  8
0
 10
354.49194200
 20
382.31944594
 42
0.35634200
  0
VERTEX
  8
0
 10
341.26889704
 20
366.28193894
 42
0.07891900
  0
VERTEX
  8
0
 10
343.00590279
 20
341.65037820
 42
0.08748900
  0
VERTEX
  8
0
 10
375.66156817
 20
264.93652568
 42
-0.21946206
  0
VERTEX
  8
0
 10
375.87176042
 20
260.51981760
 42
-0.21946206
  0
VERTEX
  8
0
 10
372.64914051
 20
257.49224233
  0
VERTEX
  8
0
 10
356.56165237
 20
252.12301293
 42
0.17952700
  0
VERTEX
  8
0
 10
351.23216698
 20
248.03599552
 42
0.03797600
  0
VERTEX
  8
0
 10
347.02656798
 20
240.06320508
 42
0.06603000
  0
VERTEX
  8
0
 10
346.44071484
 20
238.00739821
  0
VERTEX
  8
0
 10
379.53700386
 20
228.57579689
  0
VERTEX
  8
0
 10
377.87923088
 20
222.75852789
  0
VERTEX
  8
0
 10
344.33778015
 20
232.31698899
 42
0.02113200
  0
VERTEX
  8
0
 10
343.75192512
 20
230.26117645
 42
0.03434300
  0
VERTEX
  8
0
 10
342.39899869
 20
222.22048140
 42
0.20416300
  0
VERTEX
  8
0
 10
346.54795694
 20
209.03028826
 42
-0.28691100
  0
VERTEX
  8
0
 10
352.37833150
 20
195.69858685
  0
VERTEX
  8
0
 10
351.47058190
 20
189.54855272
 42
0.14143300
  0
VERTEX
  8
0
 10
353.37775950
 20
175.45016375
  0
VERTEX
  8
0
 10
359.43572192
 20
161.71766968
 42
0.39026500
  0
VERTEX
  8
0
 10
366.97289951
 20
158.83756261
 42
0.39484200
  0
VERTEX
  8
0
 10
370.46403276
 20
166.11195206
 42
-0.00198400
  0
VERTEX
  8
0
 10
367.10376980
 20
176.94869217
  0
SEQEND
  0
POLYLINE
  8
130_VU3
 66
   1
 39
0.000000
 70
    1
  0
VERTEX
  8
0
 10
67.42436202
 20
287.87442300
 42
0.37208000
  0
VERTEX
  8
0
 10
69.03996123
 20
264.97279618
  0
VERTEX
  8
0
 10
76.09751805
 20
257.87911068
  0
VERTEX
  8
0
 10
76.42158144
 20
257.67466318
  0
VERTEX
  8
0
 10
102.23241757
 20
298.58665934
  0
VERTEX
  8
0
 10
107.34648091
 20
295.36026559
  0
VERTEX
  8
0
 10
45.61366010
 20
197.50939481
 42
0.16194300
  0
VERTEX
  8
0
 10
44.61412810
 20
193.57570735
  0
VERTEX
  8
0
 10
44.74094250
 20
191.82403607
 42
0.25833700
  0
VERTEX
  8
0
 10
54.16900980
 20
177.36724946
 42
-0.15748700
  0
VERTEX
  8
0
 10
63.34482297
 20
168.43169481
 42
-0.03159500
  0
VERTEX
  8
0
 10
64.09597142
 20
166.76351452
 42
0.11093000
  0
VERTEX
  8
0
 10
71.15303662
 20
156.01265923
 42
0.21958800
  0
VERTEX
  8
0
 10
76.23852715
 20
154.23287274
 42
0.20561800
  0
VERTEX
  8
0
 10
86.35719375
 20
159.77712973
  0
VERTEX
  8
0
 10
86.67157403
 20
159.99617089
  0
VERTEX
  8
0
 10
64.61702474
 20
191.65018272
  0
VERTEX
  8
0
 10
69.57831215
 20
195.10690040
  0
VERTEX
  8
0
 10
84.54205571
 20
173.63003762
 42
0.35720700
  0
VERTEX
  8
0
 10
107.58632911
 20
167.10070994
  0
VERTEX
  8
0
 10
128.65518939
 20
180.00161830
  0
VERTEX
  8
0
 10
131.81449160
 20
174.84206841
  0
VERTEX
  8
0
 10
100.72222631
 20
155.80361694
  0
VERTEX
  8
0
 10
121.91894097
 20
138.75557313
 42
-0.31592000
  0
VERTEX
  8
0
 10
150.26741704
 20
154.64319722
 42
-0.21640800
  0
VERTEX
  8
0
 10
162.45460844
 20
147.54478456
 42
-0.33136400
  0
VERTEX
  8
0
 10
161.84017682
 20
120.61891126
 42
0.38775507
  0
VERTEX
  8
0
 10
163.21960004
 20
113.03053294
 42
0.38775507
  0
VERTEX
  8
0
 10
170.90205235
 20
113.71333621
 42
0.16711400
  0
VERTEX
  8
0
 10
181.62847394
 20
138.31380551
 42
0.14592000
  0
VERTEX
  8
0
 10
179.07749964
 20
150.29449405
 42
-0.33128100
  0
VERTEX
  8
0
 10
183.37953068
 20
180.77411458
 42
0.19751600
  0
VERTEX
  8
0
 10
185.85807364
 20
186.80362899
  0
VERTEX
  8
0
 10
185.85807364
 20
323.10354690
 42
0.41421400
  0
VERTEX
  8
0
 10
179.26740452
 20
329.69421602
  0
VERTEX
  8
0
 10
170.16955346
 20
329.69421602
  0
VERTEX
  8
0
 10
170.16955346
 20
267.87559360
  0
VERTEX
  8
0
 10
164.12279818
 20
267.87559360
  0
VERTEX
  8
0
 10
164.12279629
 20
328.27571263
 42
-0.17935200
  0
VERTEX
  8
0
 10
151.90058992
 20
335.43934866
 42
-0.23184000
  0
VERTEX
  8
0
 10
150.18487149
 20
342.76409364
 42
-0.03421700
  0
VERTEX
  8
0
 10
156.82912194
 20
364.71262801
 42
0.22619700
  0
VERTEX
  8
0
 10
155.74032426
 20
392.93151390
 42
0.04914500
  0
VERTEX
  8
0
 10
146.64412960
 20
406.76441459
 42
0.12841500
  0
VERTEX
  8
0
 10
141.09433995
 20
410.85753003
 42
0.11818900
  0
VERTEX
  8
0
 10
135.45646642
 20
411.67936833
 42
-0.04031300
  0
VERTEX
  8
0
 10
103.18428852
 20
414.66250277
 42
-0.13450000
  0
VERTEX
  8
0
 10
78.78703198
 20
426.15276995
 42
-0.17632700
  0
VERTEX
  8
0
 10
72.14063918
 20
442.27472282
 42
-0.11788300
  0
VERTEX
  8
0
 10
76.49797980
 20
464.60369092
 42
-0.23389600
  0
VERTEX
  8
0
 10
145.12023527
 20
520.53543228
 42
-0.20178822
  0
VERTEX
  8
0
 10
160.86621754
 20
517.76927333
 42
-0.20178822
  0
VERTEX
  8
0
 10
169.89901091
 20
504.57851001
  0
VERTEX
  8
0
 10
177.60134011
 20
460.70762782
 42
0.39979467
  0
VERTEX
  8
0
 10
184.51572541
 20
455.59878589
 42
0.39979467
  0
VERTEX
  8
0
 10
189.96029168
 20
462.25203232
 42
0.08138700
  0
VERTEX
  8
0
 10
176.16982570
 20
545.48824848
 42
0.07669800
  0
VERTEX
  8
0
 10
170.17272444
 20
557.01600954
 42
0.23117900
  0
VERTEX
  8
0
 10
146.98924961
 20
566.44199879
 42
0.03114300
  0
VERTEX
  8
0
 10
134.99096472
 20
564.86759199
 42
0.03383500
  0
VERTEX
  8
0
 10
122.75193725
 20
561.60671081
  0
VERTEX
  8
0
 10
139.07131873
 20
545.28733122
  0
VERTEX
  8
0
 10
134.79334513
 20
541.00935572
  0
VERTEX
  8
0
 10
116.55340630
 20
559.24928887
 42
0.06016300
  0
VERTEX
  8
0
 10
97.04575650
 20
548.10574327
  0
VERTEX
  8
0
 10
111.53028395
 20
537.96357327
  0
VERTEX
  8
0
 10
108.06016195
 20
533.00772586
  0
VERTEX
  8
0
 10
92.11250868
 20
544.17439102
 42
0.04745600
  0
VERTEX
  8
0
 10
79.76651707
 20
531.42771077
 42
0.01106400
  0
VERTEX
  8
0
 10
73.49371877
 20
524.99809010
  0
VERTEX
  8
0
 10
91.33527957
 20
516.67844194
  0
VERTEX
  8
0
 10
88.77844928
 20
511.19530515
  0
VERTEX
  8
0
 10
69.24676663
 20
520.30307189
 42
0.03064000
  0
VERTEX
  8
0
 10
54.03702390
 20
500.64379392
  0
VERTEX
  8
0
 10
69.10623592
 20
496.32277296
  0
VERTEX
  8
0
 10
67.43863802
 20
490.50716792
  0
VERTEX
  8
0
 10
50.55544328
 20
495.34834025
 42
0.01899400
  0
VERTEX
  8
0
 10
42.78804576
 20
482.03091484
 42
0.02795900
  0
VERTEX
  8
0
 10
38.35256718
 20
473.93549258
  0
VERTEX
  8
0
 10
48.69466174
 20
472.48200637
  0
VERTEX
  8
0
 10
47.85266874
 20
466.49091426
  0
VERTEX
  8
0
 10
35.86719822
 20
468.17535974
 42
0.06920000
  0
VERTEX
  8
0
 10
30.65314991
 20
446.02488327
  0
VERTEX
  8
0
 10
50.92944053
 20
446.02488706
  0
VERTEX
  8
0
 10
50.92944053
 20
439.97491731
  0
VERTEX
  8
0
 10
29.97460675
 20
439.97491542
 42
0.07421400
  0
VERTEX
  8
0
 10
30.36972870
 20
434.86745875
 42
0.06647200
  0
VERTEX
  8
0
 10
37.72959077
 20
415.20193337
  0
VERTEX
  8
0
 10
59.96497636
 20
418.72367022
  0
VERTEX
  8
0
 10
60.91139974
 20
412.74818339
  0
VERTEX
  8
0
 10
41.02658739
 20
409.59874202
 42
0.08406200
  0
VERTEX
  8
0
 10
58.89569615
 20
390.05149759
  0
VERTEX
  8
0
 10
79.79429760
 20
396.84186246
  0
VERTEX
  8
0
 10
81.66384139
 20
391.08799782
  0
VERTEX
  8
0
 10
65.10599203
 20
385.66874190
 42
0.06747500
  0
VERTEX
  8
0
 10
84.46073166
 20
376.74819691
  0
VERTEX
  8
0
 10
117.95764882
 20
391.66198391
  0
VERTEX
  8
0
 10
120.41839310
 20
386.13505856
  0
VERTEX
  8
0
 10
94.14340155
 20
374.43668130
 42
0.01215200
  0
VERTEX
  8
0
 10
97.95676783
 20
373.87108496
 42
0.18460100
  0
VERTEX
  8
0
 10
111.03210816
 20
377.10062321
 42
-0.11849800
  0
VERTEX
  8
0
 10
119.67061794
 20
366.01743769
 42
-0.38294000
  0
VERTEX
  8
0
 10
116.31179393
 20
340.83846313
 42
0.05436700
  0
VERTEX
  8
0
 10
70.99840576
 20
292.61804579
  0
VERTEX
  8
0
 10
67.42436202
 20
287.87442300
  0
SEQEND
  0
POLYLINE
  8
130_VU3
 66
   1
 39
0.000000
 70
    1
  0
VERTEX
  8
0
 10
131.70598263
 20
743.30715157
 42
0.22299300
  0
VERTEX
  8
0
 10
163.81254376
 20
704.85322035
 42
0.11714900
  0
VERTEX
  8
0
 10
200.29261616
 20
697.34161666
 42
0.11714900
  0
VERTEX
  8
0
 10
236.77269423
 20
704.85321846
 42
0.22299300
  0
VERTEX
  8
0
 10
268.87925915
 20
743.30714779
 42
0.22558100
  0
VERTEX
  8
0
 10
240.77959773
 20
851.47241958
 42
0.34013324
  0
VERTEX
  8
0
 10
234.77966502
 20
852.29335146
 42
0.34013324
  0
VERTEX
  8
0
 10
232.44740938
 20
846.70463913
 42
-0.09594500
  0
VERTEX
  8
0
 10
246.00754576
 20
795.80911246
 42
-0.40551500
  0
VERTEX
  8
0
 10
203.31760481
 20
745.27220844
  0
VERTEX
  8
0
 10
203.31760670
 20
731.25341339
  0
VERTEX
  8
0
 10
197.26763507
 20
731.25341339
  0
VERTEX
  8
0
 10
197.26763885
 20
745.27220844
 42
-0.40551500
  0
VERTEX
  8
0
 10
154.57769601
 20
795.80910679
 42
-0.09594500
  0
VERTEX
  8
0
 10
168.13782861
 20
846.70463346
 42
0.34013394
  0
VERTEX
  8
0
 10
165.80557774
 20
852.29335412
 42
0.34013394
  0
VERTEX
  8
0
 10
159.80564026
 20
851.47241390
 42
0.22558100
  0
VERTEX
  8
0
 10
131.70598452
 20
743.30713456
  0
VERTEX
  8
0
 10
131.70598263
 20
743.30715157
  0
SEQEND
  0
POLYLINE
  8
130_VU3
 66
   1
 39
0.000000
 70
    1
  0
VERTEX
  8
0
 10
531.95361427
 20
433.36649301
 42
0.01762600
  0
VERTEX
  8
0
 10
576.06764799
 20
432.47324065
 42
0.13476900
  0
VERTEX
  8
0
 10
593.36800646
 20
437.50289215
 42
-0.14065900
  0
VERTEX
  8
0
 10
606.40464085
 20
441.13007098
 42
0.08816700
  0
VERTEX
  8
0
 10
661.82925508
 20
450.51645047
 42
0.03315500
  0
VERTEX
  8
0
 10
668.59770298
 20
453.60182567
  0
VERTEX
  8
0
 10
674.41402466
 20
456.73406020
 42
-0.10270800
  0
VERTEX
  8
0
 10
682.53674339
 20
458.79465095
  0
VERTEX
  8
0
 10
692.38154142
 20
459.22556123
 42
0.05319100
  0
VERTEX
  8
0
 10
699.09826669
 20
460.24085924
 42
-0.08846200
  0
VERTEX
  8
0
 10
783.93458456
 20
467.02869036
 42
0.40217755
  0
VERTEX
  8
0
 10
788.56605627
 20
471.47285204
 42
0.40217755
  0
VERTEX
  8
0
 10
784.31675411
 20
476.28372872
 42
0.15410700
  0
VERTEX
  8
0
 10
678.02167279
 20
471.00780387
 42
-0.08908500
  0
VERTEX
  8
0
 10
671.69036935
 20
469.87073251
  0
VERTEX
  8
0
 10
667.56683562
 20
469.87073251
 42
0.03628800
  0
VERTEX
  8
0
 10
662.07016973
 20
469.38715984
 42
0.04121300
  0
VERTEX
  8
0
 10
611.01067512
 20
456.74733216
 42
0.13412700
  0
VERTEX
  8
0
 10
609.75744436
 20
456.19548238
 42
-0.26012200
  0
VERTEX
  8
0
 10
591.87891721
 20
453.08066268
  0
VERTEX
  8
0
 10
530.26678820
 20
455.89269119
 42
0.19902900
  0
VERTEX
  8
0
 10
529.20234859
 20
455.57258538
 42
-0.40428100
  0
VERTEX
  8
0
 10
515.12981148
 20
456.27927401
 42
-0.12783400
  0
VERTEX
  8
0
 10
498.58468006
 20
486.47201116
 42
-0.18807000
  0
VERTEX
  8
0
 10
499.08066623
 20
490.42586844
 42
-0.06375700
  0
VERTEX
  8
0
 10
504.00407023
 20
497.26527470
 42
0.17632600
  0
VERTEX
  8
0
 10
504.54164401
 20
498.52897138
 42
-0.13165200
  0
VERTEX
  8
0
 10
571.22594054
 20
640.03572585
 42
0.28101240
  0
VERTEX
  8
0
 10
572.01522442
 20
650.84545910
 42
0.28101240
  0
VERTEX
  8
0
 10
562.76321847
 20
656.49113779
  0
VERTEX
  8
0
 10
559.48055646
 20
656.49113779
 42
-0.41421400
  0
VERTEX
  8
0
 10
553.41522347
 20
662.55647078
  0
VERTEX
  8
0
 10
553.41522347
 20
670.13785671
 42
0.16882300
  0
VERTEX
  8
0
 10
550.41502779
 20
678.38485986
  0
VERTEX
  8
0
 10
528.11100014
 20
705.77527053
 42
0.36992400
  0
VERTEX
  8
0
 10
512.00153452
 20
706.18173576
  0
VERTEX
  8
0
 10
510.21100983
 20
704.72371147
  0
VERTEX
  8
0
 10
525.91739297
 20
685.43552449
  0
VERTEX
  8
0
 10
521.22919511
 20
681.61792079
  0
VERTEX
  8
0
 10
505.52281196
 20
700.90610777
  0
VERTEX
  8
0
 10
503.88866529
 20
699.57541976
 42
0.34135900
  0
VERTEX
  8
0
 10
501.24752905
 20
683.90033227
 42
0.12657300
  0
VERTEX
  8
0
 10
531.18574114
 20
651.29601323
 42
0.06705000
  0
VERTEX
  8
0
 10
533.77564071
 20
650.09492675
 42
-0.22834569
  0
VERTEX
  8
0
 10
538.44814266
 20
645.74788835
 42
-0.22834569
  0
VERTEX
  8
0
 10
537.96027573
 20
639.38463421
 42
0.13165200
  0
VERTEX
  8
0
 10
485.07206481
 20
524.99550718
 42
0.13772600
  0
VERTEX
  8
0
 10
485.27360605
 20
490.25787108
 42
-0.30432500
  0
VERTEX
  8
0
 10
484.30755364
 20
487.25558411
 42
0.31529900
  0
VERTEX
  8
0
 10
481.64405986
 20
469.42677528
 42
0.16369100
  0
VERTEX
  8
0
 10
504.11386121
 20
439.96683955
 42
0.21861800
  0
VERTEX
  8
0
 10
508.62314577
 20
438.99872232
 42
-0.22306700
  0
VERTEX
  8
0
 10
528.21793592
 20
434.61758331
 42
0.16947200
  0
VERTEX
  8
0
 10
531.95361427
 20
433.36649301
  0
SEQEND
  0
POLYLINE
  8
130_VU3
 66
   1
 39
0.000000
 70
    1
  0
VERTEX
  8
0
 10
587.59575319
 20
401.07496782
 42
0.27376357
  0
VERTEX
  8
0
 10
581.41730959
 20
406.56277224
 42
0.27376357
  0
VERTEX
  8
0
 10
573.63382958
 20
403.78669558
 42
-0.20779875
  0
VERTEX
  8
0
 10
565.64481314
 20
399.75600084
 42
-0.20779875
  0
VERTEX
  8
0
 10
557.24606509
 20
402.84338077
 42
0.12059000
  0
VERTEX
  8
0
 10
547.59662708
 20
406.79790553
 42
0.00978400
  0
VERTEX
  8
0
 10
536.79639383
 20
408.20280228
 42
0.03730700
  0
VERTEX
  8
0
 10
517.45876651
 20
410.15474980
 42
0.39573900
  0
VERTEX
  8
0
 10
504.68023847
 20
399.16431481
  0
VERTEX
  8
0
 10
504.45446017
 20
397.05889553
  0
VERTEX
  8
0
 10
521.56265985
 20
395.22426082
  0
VERTEX
  8
0
 10
520.91757737
 20
389.20877850
  0
VERTEX
  8
0
 10
503.80937769
 20
391.04341320
  0
VERTEX
  8
0
 10
503.55779292
 20
388.69737613
 42
0.38575400
  0
VERTEX
  8
0
 10
513.71539424
 20
375.24733516
 42
0.07142000
  0
VERTEX
  8
0
 10
550.74806520
 20
373.57825671
 42
0.12518200
  0
VERTEX
  8
0
 10
560.15697808
 20
376.64101343
  0
VERTEX
  8
0
 10
564.05435911
 20
379.10497596
 42
-0.21135508
  0
VERTEX
  8
0
 10
566.80718549
 20
379.51311238
 42
-0.21135508
  0
VERTEX
  8
0
 10
568.96062057
 20
377.75034586
 42
-0.05394600
  0
VERTEX
  8
0
 10
570.31742704
 20
374.15071310
 42
0.12363100
  0
VERTEX
  8
0
 10
647.00557140
 20
233.33505711
 42
0.08340500
  0
VERTEX
  8
0
 10
656.89416934
 20
227.63931377
 42
-0.19814600
  0
VERTEX
  8
0
 10
669.14785477
 20
216.28368348
 42
0.15042700
  0
VERTEX
  8
0
 10
679.57082336
 20
208.44057209
 42
0.12689700
  0
VERTEX
  8
0
 10
713.74474641
 20
205.54001913
 42
0.15114800
  0
VERTEX
  8
0
 10
723.51581597
 20
210.01614934
  0
VERTEX
  8
0
 10
729.97436114
 20
215.79130508
 42
-0.14947200
  0
VERTEX
  8
0
 10
736.97740065
 20
219.10613631
  0
VERTEX
  8
0
 10
740.18160514
 20
219.57516825
 42
0.11898600
  0
VERTEX
  8
0
 10
744.73455159
 20
221.66775426
 42
0.02689800
  0
VERTEX
  8
0
 10
793.34101663
 20
266.51686412
 42
0.11117800
  0
VERTEX
  8
0
 10
797.67046516
 20
274.25691032
 42
-0.25164000
  0
VERTEX
  8
0
 10
807.09811836
 20
284.59315078
 42
0.12547200
  0
VERTEX
  8
0
 10
809.32634531
 20
286.11787141
 42
0.04208600
  0
VERTEX
  8
0
 10
850.88307414
 20
342.29068625
 42
0.13165200
  0
VERTEX
  8
0
 10
851.74950841
 20
344.53645472
 42
-0.26471800
  0
VERTEX
  8
0
 10
861.48625127
 20
354.80906769
 42
0.13165300
  0
VERTEX
  8
0
 10
864.03937169
 20
356.04863887
 42
0.03151200
  0
VERTEX
  8
0
 10
899.47938715
 20
387.99943841
 42
-0.13165200
  0
VERTEX
  8
0
 10
943.42685867
 20
414.03742561
 42
0.41421400
  0
VERTEX
  8
0
 10
946.73612510
 20
421.12844122
 42
0.38914900
  0
VERTEX
  8
0
 10
939.64510570
 20
424.43770386
 42
0.15391500
  0
VERTEX
  8
0
 10
855.22176141
 20
365.30366400
 42
-0.21594000
  0
VERTEX
  8
0
 10
847.04139788
 20
357.99838165
 42
0.07554800
  0
VERTEX
  8
0
 10
837.96352944
 20
353.56380880
 42
0.07971200
  0
VERTEX
  8
0
 10
795.69717926
 20
298.75536010
 42
0.04366100
  0
VERTEX
  8
0
 10
795.08831245
 20
297.00553242
 42
-0.28978900
  0
VERTEX
  8
0
 10
784.00431007
 20
284.57001420
 42
0.13165200
  0
VERTEX
  8
0
 10
782.73249782
 20
283.89658581
 42
0.04267800
  0
VERTEX
  8
0
 10
730.49848522
 20
236.58590537
 42
0.13165200
  0
VERTEX
  8
0
 10
729.67087600
 20
235.32181350
 42
-0.39962500
  0
VERTEX
  8
0
 10
713.89485433
 20
228.74683853
 42
0.03957300
  0
VERTEX
  8
0
 10
712.95881934
 20
229.02247885
 42
0.08014300
  0
VERTEX
  8
0
 10
687.97804109
 20
230.00990556
 42
-0.08342100
  0
VERTEX
  8
0
 10
686.85818601
 20
230.06147691
 42
-0.26144900
  0
VERTEX
  8
0
 10
668.09762688
 20
246.64650173
 42
-0.08542500
  0
VERTEX
  8
0
 10
587.59575319
 20
401.07496782
  0
SEQEND
  0
POLYLINE
  8
130_VU3
 66
   1
 39
0.000000
 70
    1
  0
VERTEX
  8
0
 10
180.20116102
 20
629.30333671
 42
0.10951800
  0
VERTEX
  8
0
 10
194.70793445
 20
567.13173396
 42
0.07286900
  0
VERTEX
  8
0
 10
217.30217717
 20
533.59585560
 42
0.32976055
  0
VERTEX
  8
0
 10
222.72835484
 20
533.17841450
 42
0.32976055
  0
VERTEX
  8
0
 10
224.71383370
 20
538.24551771
 42
-0.17632700
  0
VERTEX
  8
0
 10
207.11155762
 20
616.11213385
 42
-0.32442500
  0
VERTEX
  8
0
 10
250.79027346
 20
653.83842759
  0
VERTEX
  8
0
 10
250.79027535
 20
667.75336141
  0
VERTEX
  8
0
 10
256.84024699
 20
667.75336141
  0
VERTEX
  8
0
 10
256.84024510
 20
653.83842759
 42
-0.32442500
  0
VERTEX
  8
0
 10
300.51896283
 20
616.11214142
 42
-0.17632700
  0
VERTEX
  8
0
 10
282.91669053
 20
538.24552339
 42
0.32976019
  0
VERTEX
  8
0
 10
284.90216468
 20
533.17842031
 42
0.32976019
  0
VERTEX
  8
0
 10
290.32834139
 20
533.59584993
 42
0.07286900
  0
VERTEX
  8
0
 10
312.92258222
 20
567.13172261
 42
0.13327400
  0
VERTEX
  8
0
 10
327.42935942
 20
629.30332347
 42
0.40378000
  0
VERTEX
  8
0
 10
257.68693310
 20
696.59576640
  0
VERTEX
  8
0
 10
249.94358734
 20
696.59576829
 42
0.40378000
  0
VERTEX
  8
0
 10
180.20116102
 20
629.30331780
  0
VERTEX
  8
0
 10
180.20116102
 20
629.30333671
  0
SEQEND
  0
POLYLINE
  8
130_VU3
 66
   1
 39
0.000000
 70
    1
  0
VERTEX
  8
0
 10
574.62140377
 20
326.28165562
 42
0.27376357
  0
VERTEX
  8
0
 10
568.44296017
 20
331.76946004
 42
0.27376357
  0
VERTEX
  8
0
 10
560.65948016
 20
328.99338338
 42
-0.20779875
  0
VERTEX
  8
0
 10
552.67046278
 20
324.96268824
 42
-0.20779875
  0
VERTEX
  8
0
 10
544.27171378
 20
328.05006858
 42
0.12059000
  0
VERTEX
  8
0
 10
534.62227766
 20
332.00459144
 42
0.00978400
  0
VERTEX
  8
0
 10
523.82204442
 20
333.40949008
 42
0.03730800
  0
VERTEX
  8
0
 10
504.48441709
 20
335.36143572
 42
0.39573900
  0
VERTEX
  8
0
 10
491.70588905
 20
324.37100073
  0
VERTEX
  8
0
 10
491.48010886
 20
322.26558333
  0
VERTEX
  8
0
 10
508.58831043
 20
320.43094673
  0
VERTEX
  8
0
 10
507.94322606
 20
314.41546630
  0
VERTEX
  8
0
 10
490.83502638
 20
316.25010290
  0
VERTEX
  8
0
 10
490.58344350
 20
313.90406205
 42
0.38575400
  0
VERTEX
  8
0
 10
500.74104293
 20
300.45402296
 42
0.07142000
  0
VERTEX
  8
0
 10
537.77371578
 20
298.78494452
 42
0.12518200
  0
VERTEX
  8
0
 10
547.18262677
 20
301.84769934
  0
VERTEX
  8
0
 10
551.08000969
 20
304.31166376
 42
-0.21135508
  0
VERTEX
  8
0
 10
553.83283607
 20
304.71980019
 42
-0.21135508
  0
VERTEX
  8
0
 10
555.98627115
 20
302.95703367
 42
-0.05394600
  0
VERTEX
  8
0
 10
557.34307762
 20
299.35740090
 42
0.12363100
  0
VERTEX
  8
0
 10
634.03122198
 20
158.54174491
 42
0.08340500
  0
VERTEX
  8
0
 10
643.91981992
 20
152.84600157
 42
-0.19814600
  0
VERTEX
  8
0
 10
656.17350346
 20
141.49037129
 42
0.15042700
  0
VERTEX
  8
0
 10
666.59647205
 20
133.64725990
 42
0.12689600
  0
VERTEX
  8
0
 10
700.77039699
 20
130.74670505
 42
0.15114800
  0
VERTEX
  8
0
 10
710.54146655
 20
135.22283714
  0
VERTEX
  8
0
 10
717.00001172
 20
140.99799099
 42
-0.14947200
  0
VERTEX
  8
0
 10
724.00304934
 20
144.31282222
  0
VERTEX
  8
0
 10
727.20725572
 20
144.78185605
 42
0.11898600
  0
VERTEX
  8
0
 10
731.76020217
 20
146.87444206
 42
0.02689800
  0
VERTEX
  8
0
 10
780.36666721
 20
191.72355192
 42
0.11117800
  0
VERTEX
  8
0
 10
784.69611574
 20
199.46359813
 42
-0.25164000
  0
VERTEX
  8
0
 10
794.12376705
 20
209.79984047
 42
0.12547200
  0
VERTEX
  8
0
 10
796.35199589
 20
211.32455733
 42
0.04208600
  0
VERTEX
  8
0
 10
837.90872472
 20
267.49737216
 42
0.13165200
  0
VERTEX
  8
0
 10
838.77515899
 20
269.74314253
 42
-0.26471800
  0
VERTEX
  8
0
 10
848.51189996
 20
280.01575549
 42
0.13165300
  0
VERTEX
  8
0
 10
851.06502038
 20
281.25532667
 42
0.03151200
  0
VERTEX
  8
0
 10
886.50503584
 20
313.20612432
 42
-0.13165200
  0
VERTEX
  8
0
 10
930.45250925
 20
339.24411152
 42
0.41421400
  0
VERTEX
  8
0
 10
933.76177568
 20
346.33512902
 42
0.38914900
  0
VERTEX
  8
0
 10
926.67075439
 20
349.64439167
 42
0.15391500
  0
VERTEX
  8
0
 10
842.24741199
 20
290.51035180
 42
-0.21594000
  0
VERTEX
  8
0
 10
834.06704846
 20
283.20506945
 42
0.07554800
  0
VERTEX
  8
0
 10
824.98917624
 20
278.77049660
 42
0.07971200
  0
VERTEX
  8
0
 10
782.72282984
 20
223.96204601
 42
0.04366100
  0
VERTEX
  8
0
 10
782.11396303
 20
222.21222022
 42
-0.28978900
  0
VERTEX
  8
0
 10
771.02996066
 20
209.77670011
 42
0.13165200
  0
VERTEX
  8
0
 10
769.75814651
 20
209.10327362
 42
0.04267800
  0
VERTEX
  8
0
 10
717.52413580
 20
161.79259318
 42
0.13165200
  0
VERTEX
  8
0
 10
716.69652469
 20
160.52850130
 42
-0.39962500
  0
VERTEX
  8
0
 10
700.92050302
 20
153.95352634
 42
0.03957300
  0
VERTEX
  8
0
 10
699.98446992
 20
154.22916665
 42
0.08014300
  0
VERTEX
  8
0
 10
675.00369167
 20
155.21659336
 42
-0.08342100
  0
VERTEX
  8
0
 10
673.88383659
 20
155.26816282
 42
-0.26144900
  0
VERTEX
  8
0
 10
655.12327557
 20
171.85318953
 42
-0.08542500
  0
VERTEX
  8
0
 10
574.62140377
 20
326.28165562
  0
SEQEND
  0
POLYLINE
  8
130_VU3
 66
   1
 39
0.000000
 70
    1
  0
VERTEX
  8
0
 10
30.50034752
 20
19.58618219
 42
-0.00972100
  0
VERTEX
  8
0
 10
42.39578657
 20
33.02331236
 42
-0.20656387
  0
VERTEX
  8
0
 10
49.67003807
 20
36.26605953
 42
-0.20656387
  0
VERTEX
  8
0
 10
57.01967428
 20
33.19799959
 42
-0.04399000
  0
VERTEX
  8
0
 10
60.46025535
 20
27.69435074
  0
VERTEX
  8
0
 10
63.34350882
 20
22.02921477
 42
0.21131900
  0
VERTEX
  8
0
 10
70.65859339
 20
16.07123921
 42
0.15630200
  0
VERTEX
  8
0
 10
134.06146076
 20
25.88779343
 42
0.30073000
  0
VERTEX
  8
0
 10
140.52912935
 20
36.15196181
  0
VERTEX
  8
0
 10
140.34982653
 20
44.30856478
 42
-0.37319100
  0
VERTEX
  8
0
 10
151.48355478
 20
58.30897499
  0
VERTEX
  8
0
 10
152.39101885
 20
58.47841697
 42
0.37772400
  0
VERTEX
  8
0
 10
161.30556225
 20
69.87294416
  0
VERTEX
  8
0
 10
161.30556225
 20
76.56273601
 42
0.34469800
  0
VERTEX
  8
0
 10
152.39102074
 20
86.67945124
  0
VERTEX
  8
0
 10
151.48355667
 20
86.84889510
 42
-0.36152600
  0
VERTEX
  8
0
 10
140.34982842
 20
100.84930153
  0
VERTEX
  8
0
 10
140.52912935
 20
109.00590639
 42
0.25845900
  0
VERTEX
  8
0
 10
134.06145887
 20
119.27007477
 42
0.17632700
  0
VERTEX
  8
0
 10
70.65859528
 20
129.08662899
 42
0.21131900
  0
VERTEX
  8
0
 10
63.34350882
 20
123.12865343
  0
VERTEX
  8
0
 10
60.46025535
 20
117.46351746
 42
-0.06554400
  0
VERTEX
  8
0
 10
57.01967617
 20
111.95986862
 42
-0.20656431
  0
VERTEX
  8
0
 10
49.67003893
 20
108.89180095
 42
-0.20656431
  0
VERTEX
  8
0
 10
42.39578657
 20
112.13455584
 42
-0.01978300
  0
VERTEX
  8
0
 10
30.50035697
 20
125.57167467
 42
0.09160000
  0
VERTEX
  8
0
 10
28.77287171
 20
127.03574971
 42
0.41095579
  0
VERTEX
  8
0
 10
2.65111119
 20
120.10164507
 42
0.41095579
  0
VERTEX
  8
0
 10
9.29391195
 20
93.90429067
 42
0.11979800
  0
VERTEX
  8
0
 10
27.71061227
 20
90.84834105
 42
-0.19385800
  0
VERTEX
  8
0
 10
31.01125069
 20
89.79490815
 42
-0.13330000
  0
VERTEX
  8
0
 10
31.83372244
 20
87.72837065
 42
-0.02277300
  0
VERTEX
  8
0
 10
32.66191026
 20
75.60391992
  0
VERTEX
  8
0
 10
66.70644545
 20
75.60391992
  0
VERTEX
  8
0
 10
66.70644545
 20
69.55394828
  0
VERTEX
  8
0
 10
32.66191026
 20
69.55394828
 42
-0.02277300
  0
VERTEX
  8
0
 10
31.83372055
 20
57.42948243
 42
-0.13330100
  0
VERTEX
  8
0
 10
31.01125069
 20
55.36296005
 42
-0.19385800
  0
VERTEX
  8
0
 10
27.71061038
 20
54.30952715
 42
0.11979800
  0
VERTEX
  8
0
 10
9.29391006
 20
51.25357564
 42
0.41095579
  0
VERTEX
  8
0
 10
2.65111213
 20
25.05622032
 42
0.41095579
  0
VERTEX
  8
0
 10
28.77287360
 20
18.12211849
 42
0.09160000
  0
VERTEX
  8
0
 10
30.50034752
 20
19.58618219
  0
SEQEND
  0
POLYLINE
  8
130_VU3
 66
   1
 39
0.000000
 70
    1
  0
VERTEX
  8
0
 10
279.59092256
 20
137.87947088
 42
0.39044505
  0
VERTEX
  8
0
 10
277.30219765
 20
143.70497161
 42
0.39044505
  0
VERTEX
  8
0
 10
271.30911810
 20
141.90005665
 42
0.02872000
  0
VERTEX
  8
0
 10
249.35147734
 20
106.23500223
 42
0.11521800
  0
VERTEX
  8
0
 10
238.93686636
 20
71.40476498
 42
0.31590647
  0
VERTEX
  8
0
 10
279.40596120
 20
5.52308902
 42
0.31590647
  0
VERTEX
  8
0
 10
355.12129251
 20
21.18614965
 42
0.22022100
  0
VERTEX
  8
0
 10
373.27376576
 20
71.40477821
 42
0.08724100
  0
VERTEX
  8
0
 10
362.85914910
 20
106.23501546
 42
0.04366100
  0
VERTEX
  8
0
 10
340.90151024
 20
141.90006422
 42
0.39044400
  0
VERTEX
  8
0
 10
334.90843273
 20
143.70496324
 42
0.38736000
  0
VERTEX
  8
0
 10
332.61970956
 20
137.87947277
 42
-0.01429700
  0
VERTEX
  8
0
 10
341.68959100
 20
111.92426748
 42
-0.09985900
  0
VERTEX
  8
0
 10
344.18616143
 20
89.01111208
 42
-0.33326400
  0
VERTEX
  8
0
 10
309.13030093
 20
56.34292353
  0
VERTEX
  8
0
 10
309.13030282
 20
36.17635393
  0
VERTEX
  8
0
 10
303.08033119
 20
36.17635393
  0
VERTEX
  8
0
 10
303.08032929
 20
56.34292353
 42
-0.33326400
  0
VERTEX
  8
0
 10
268.02447069
 20
89.01111019
 42
-0.09985900
  0
VERTEX
  8
0
 10
270.52103545
 20
111.92424857
 42
-0.01429700
  0
VERTEX
  8
0
 10
279.59092256
 20
137.87947088
  0
SEQEND
  0
POLYLINE
  8
130_VU3
 66
   1
 39
0.000000
 70
    1
  0
VERTEX
  8
0
 10
434.38881568
 20
32.09770925
 42
0.12080600
  0
VERTEX
  8
0
 10
471.38719587
 20
10.43620197
 42
0.13165200
  0
VERTEX
  8
0
 10
522.71559177
 20
15.41933828
 42
0.13165300
  0
VERTEX
  8
0
 10
538.28101876
 20
28.79947790
 42
-0.09218800
  0
VERTEX
  8
0
 10
544.76953598
 20
34.57298858
 42
0.02820900
  0
VERTEX
  8
0
 10
551.31953645
 20
39.05120252
 42
0.03856100
  0
VERTEX
  8
0
 10
585.27316091
 20
73.95026145
 42
0.00631900
  0
VERTEX
  8
0
 10
587.91124152
 20
77.19959135
 42
0.09163500
  0
VERTEX
  8
0
 10
588.23715227
 20
77.75822743
 42
0.37070491
  0
VERTEX
  8
0
 10
586.06978361
 20
83.43637936
 42
0.37070491
  0
VERTEX
  8
0
 10
580.13047372
 20
82.14661410
 42
-0.09031300
  0
VERTEX
  8
0
 10
534.75281895
 20
40.40375645
 42
-0.23367400
  0
VERTEX
  8
0
 10
530.60233667
 20
39.96863899
  0
VERTEX
  8
0
 10
524.94077065
 20
42.06519959
 42
0.12994000
  0
VERTEX
  8
0
 10
522.86448764
 20
42.26560821
  0
VERTEX
  8
0
 10
496.41435695
 20
37.93717508
 42
-0.20633618
  0
VERTEX
  8
0
 10
477.24643163
 20
42.72456957
 42
-0.20633618
  0
VERTEX
  8
0
 10
467.56509948
 20
59.94665757
 42
0.23042300
  0
VERTEX
  8
0
 10
454.13421294
 20
81.45992700
 42
-0.27242308
  0
VERTEX
  8
0
 10
453.28653711
 20
88.32699143
 42
-0.27242308
  0
VERTEX
  8
0
 10
458.87848808
 20
92.40194081
 42
0.10836600
  0
VERTEX
  8
0
 10
470.15703929
 20
93.37903396
 42
0.09947600
  0
VERTEX
  8
0
 10
474.87232564
 20
95.95872477
 42
0.09342900
  0
VERTEX
  8
0
 10
491.62656742
 20
114.36248215
 42
0.37514900
  0
VERTEX
  8
0
 10
490.40744590
 20
121.65668972
 42
0.05301400
  0
VERTEX
  8
0
 10
484.18254312
 20
125.74805422
  0
VERTEX
  8
0
 10
460.46899935
 20
100.80838329
  0
VERTEX
  8
0
 10
456.08464399
 20
104.97718423
  0
VERTEX
  8
0
 10
482.36576382
 20
132.61719238
 42
0.06276600
  0
VERTEX
  8
0
 10
479.03447264
 20
135.71785897
 42
0.30560300
  0
VERTEX
  8
0
 10
467.29645158
 20
136.08198215
 42
0.12011700
  0
VERTEX
  8
0
 10
445.65151391
 20
114.16949327
 42
0.10123000
  0
VERTEX
  8
0
 10
444.49882025
 20
110.89414512
 42
0.07443600
  0
VERTEX
  8
0
 10
444.62710763
 20
100.18448980
 42
-0.39235300
  0
VERTEX
  8
0
 10
439.57437249
 20
93.93126570
  0
VERTEX
  8
0
 10
434.19986002
 20
93.15528645
 42
0.34714900
  0
VERTEX
  8
0
 10
417.37979546
 20
75.42787505
 42
0.25146700
  0
VERTEX
  8
0
 10
429.72300561
 20
36.62304156
  0
VERTEX
  8
0
 10
434.38881568
 20
32.09770925
  0
SEQEND
  0
ENDSEC
  0
EOF
