  0
SECTION
  2
HEADER
  9
$ACADVER
  1
AC1009
  9
$INSBASE
 10
0.0
 20
0.0
 30
0.0
  9
$EXTMIN
 10
-0.0000057486430087
 20
-0.0001375425876091
 30
0.0
  9
$EXTMAX
 10
947.06923685046365
 20
986.35336043221866
 30
0.0
  9
$LIMMIN
 10
0.0
 20
0.0
  9
$LIMMAX
 10
12.0
 20
9.0
  9
$ORTHOMODE
 70
     0
  9
$REGENMODE
 70
     1
  9
$FILLMODE
 70
     1
  9
$QTEXTMODE
 70
     0
  9
$MIRRTEXT
 70
     0
  9
$DRAGMODE
 70
     2
  9
$LTSCALE
 40
1.0
  9
$OSMODE
 70
   167
  9
$ATTMODE
 70
     1
  9
$TEXTSIZE
 40
0.2
  9
$TRACEWID
 40
0.05
  9
$TEXTSTYLE
  7
STANDARD
  9
$CLAYER
  8
0
  9
$CELTYPE
  6
CONTINUOUS
  9
$CECOLOR
 62
   256
  9
$DIMSCALE
 40
1.0
  9
$DIMASZ
 40
0.18
  9
$DIMEXO
 40
0.0625
  9
$DIMDLI
 40
0.38
  9
$DIMRND
 40
0.0
  9
$DIMDLE
 40
0.0
  9
$DIMEXE
 40
0.18
  9
$DIMTP
 40
0.0
  9
$DIMTM
 40
0.0
  9
$DIMTXT
 40
0.18
  9
$DIMCEN
 40
0.09
  9
$DIMTSZ
 40
0.0
  9
$DIMTOL
 70
     0
  9
$DIMLIM
 70
     0
  9
$DIMTIH
 70
     1
  9
$DIMTOH
 70
     1
  9
$DIMSE1
 70
     0
  9
$DIMSE2
 70
     0
  9
$DIMTAD
 70
     0
  9
$DIMZIN
 70
     0
  9
$DIMBLK
  1

  9
$DIMASO
 70
     1
  9
$DIMSHO
 70
     1
  9
$DIMPOST
  1

  9
$DIMAPOST
  1

  9
$DIMALT
 70
     0
  9
$DIMALTD
 70
     2
  9
$DIMALTF
 40
25.399999999999999
  9
$DIMLFAC
 40
1.0
  9
$DIMTOFL
 70
     0
  9
$DIMTVP
 40
0.0
  9
$DIMTIX
 70
     0
  9
$DIMSOXD
 70
     0
  9
$DIMSAH
 70
     0
  9
$DIMBLK1
  1

  9
$DIMBLK2
  1

  9
$DIMSTYLE
  2
STANDARD
  9
$DIMCLRD
 70
     0
  9
$DIMCLRE
 70
     0
  9
$DIMCLRT
 70
     0
  9
$DIMTFAC
 40
1.0
  9
$DIMGAP
 40
0.09
  9
$LUNITS
 70
     2
  9
$LUPREC
 70
     4
  9
$SKETCHINC
 40
0.1
  9
$FILLETRAD
 40
0.0
  9
$AUNITS
 70
     0
  9
$AUPREC
 70
     0
  9
$MENU
  1
.
  9
$ELEVATION
 40
0.0
  9
$PELEVATION
 40
0.0
  9
$THICKNESS
 40
0.0
  9
$LIMCHECK
 70
     0
  9
$BLIPMODE
 70
     0
  9
$CHAMFERA
 40
0.0
  9
$CHAMFERB
 40
0.0
  9
$SKPOLY
 70
     0
  9
$TDCREATE
 40
2455328.0518098958
  9
$TDUPDATE
 40
2455328.0522565739
  9
$TDINDWG
 40
0.0004475926
  9
$TDUSRTIMER
 40
0.0004475926
  9
$USRTIMER
 70
     1
  9
$ANGBASE
 50
0.0
  9
$ANGDIR
 70
     0
  9
$PDMODE
 70
     0
  9
$PDSIZE
 40
0.0
  9
$PLINEWID
 40
0.0
  9
$COORDS
 70
     1
  9
$SPLFRAME
 70
     0
  9
$SPLINETYPE
 70
     6
  9
$SPLINESEGS
 70
     8
  9
$ATTDIA
 70
     0
  9
$ATTREQ
 70
     1
  9
$HANDLING
 70
     1
  9
$HANDSEED
  5
DEB
  9
$SURFTAB1
 70
     6
  9
$SURFTAB2
 70
     6
  9
$SURFTYPE
 70
     6
  9
$SURFU
 70
     6
  9
$SURFV
 70
     6
  9
$UCSNAME
  2

  9
$UCSORG
 10
0.0
 20
0.0
 30
0.0
  9
$UCSXDIR
 10
1.0
 20
0.0
 30
0.0
  9
$UCSYDIR
 10
0.0
 20
1.0
 30
0.0
  9
$PUCSNAME
  2

  9
$PUCSORG
 10
0.0
 20
0.0
 30
0.0
  9
$PUCSXDIR
 10
1.0
 20
0.0
 30
0.0
  9
$PUCSYDIR
 10
0.0
 20
1.0
 30
0.0
  9
$USERI1
 70
     0
  9
$USERI2
 70
     0
  9
$USERI3
 70
     0
  9
$USERI4
 70
     0
  9
$USERI5
 70
     0
  9
$USERR1
 40
0.0
  9
$USERR2
 40
0.0
  9
$USERR3
 40
0.0
  9
$USERR4
 40
0.0
  9
$USERR5
 40
0.0
  9
$WORLDVIEW
 70
     1
  9
$SHADEDGE
 70
     3
  9
$SHADEDIF
 70
    70
  9
$TILEMODE
 70
     1
  9
$MAXACTVP
 70
    64
  9
$PLIMCHECK
 70
     0
  9
$PEXTMIN
 10
1.0000000000000000E+020
 20
1.0000000000000000E+020
 30
1.0000000000000000E+020
  9
$PEXTMAX
 10
-1.0000000000000000E+020
 20
-1.0000000000000000E+020
 30
-1.0000000000000000E+020
  9
$PLIMMIN
 10
0.0
 20
0.0
  9
$PLIMMAX
 10
12.0
 20
9.0
  9
$UNITMODE
 70
     0
  9
$VISRETAIN
 70
     1
  9
$PLINEGEN
 70
     0
  9
$PSLTSCALE
 70
     1
  0
ENDSEC
  0
SECTION
  2
TABLES
  0
TABLE
  2
VPORT
 70
     1
  0
VPORT
  2
*ACTIVE
 70
     0
 10
0.0
 20
0.0
 11
1.0
 21
1.0
 12
7.8038793103448274
 22
4.5
 13
0.0
 23
0.0
 14
1.0
 24
1.0
 15
0.0
 25
0.0
 16
0.0
 26
0.0
 36
1.0
 17
0.0
 27
0.0
 37
0.0
 40
9.0
 41
1.7341954022988499
 42
50.0
 43
0.0
 44
0.0
 50
0.0
 51
0.0
 71
     0
 72
   100
 73
     1
 74
     1
 75
     0
 76
     0
 77
     0
 78
     0
  0
ENDTAB
  0
TABLE
  2
LTYPE
 70
     1
  0
LTYPE
  2
CONTINUOUS
 70
     0
  3
Solid line
 72
    65
 73
     0
 40
0.0
  0
ENDTAB
  0
TABLE
  2
LAYER
 70
     2
  0
LAYER
  2
0
 70
     0
 62
     7
  6
CONTINUOUS
  0
LAYER
  2
130_VU3
 70
     0
 62
     1
  6
CONTINUOUS
  0
ENDTAB
  0
TABLE
  2
STYLE
 70
     2
  0
STYLE
  2
STANDARD
 70
     0
 40
0.0
 41
1.0
 50
0.0
 71
     0
 42
0.2
  3
txt
  4

  0
STYLE
  2
ANNOTATIVE
 70
     0
 40
0.0
 41
1.0
 50
0.0
 71
     0
 42
0.2
  3
txt
  4

  0
ENDTAB
  0
TABLE
  2
VIEW
 70
     0
  0
ENDTAB
  0
TABLE
  2
UCS
 70
     0
  0
ENDTAB
  0
TABLE
  2
APPID
 70
     3
  0
APPID
  2
ACAD
 70
     0
  0
APPID
  2
ACADANNOTATIVE
 70
     0
  0
APPID
  2
ACAD_MLEADERVER
 70
     0
  0
ENDTAB
  0
TABLE
  2
DIMSTYLE
 70
     2
  0
DIMSTYLE
  2
STANDARD
 70
     0
  3

  4

  5

  6

  7

 40
1.0
 41
0.18
 42
0.0625
 43
0.38
 44
0.18
 45
0.0
 46
0.0
 47
0.0
 48
0.0
140
0.18
141
0.09
142
0.0
143
25.399999999999999
144
1.0
145
0.0
146
1.0
147
0.09
 71
     0
 72
     0
 73
     1
 74
     1
 75
     0
 76
     0
 77
     0
 78
     0
170
     0
171
     2
172
     0
173
     0
174
     0
175
     0
176
     0
177
     0
178
     0
  0
DIMSTYLE
  2
ANNOTATIVE
 70
     0
  3

  4

  5

  6

  7

 40
1.0
 41
0.18
 42
0.0625
 43
0.38
 44
0.18
 45
0.0
 46
0.0
 47
0.0
 48
0.0
140
0.18
141
0.09
142
0.0
143
25.399999999999999
144
1.0
145
0.0
146
1.0
147
0.09
 71
     0
 72
     0
 73
     1
 74
     1
 75
     0
 76
     0
 77
     0
 78
     0
170
     0
171
     2
172
     0
173
     0
174
     0
175
     0
176
     0
177
     0
178
     0
  0
ENDTAB
  0
ENDSEC
  0
SECTION
  2
BLOCKS
  0
BLOCK
  8
0
  2
$MODEL_SPACE
 70
     0
 10
0.0
 20
0.0
 30
0.0
  3
$MODEL_SPACE
  1

  0
ENDBLK
  5
76
  8
0
  0
BLOCK
 67
     1
  8
0
  2
$PAPER_SPACE
 70
     0
 10
0.0
 20
0.0
 30
0.0
  3
$PAPER_SPACE
  1

  0
ENDBLK
  5
72
 67
     1
  8
0
  0
ENDSEC
  0
SECTION
  2
ENTITIES
  0
POLYLINE
  5
7B
  8
130_VU3
 66
     1
 10
0.0
 20
0.0
 30
0.0
  0
VERTEX
  5
989
  8
130_VU3
 10
86.925093160000003
 20
223.60902702000001
 30
0.0
 42
-0.36397
  0
VERTEX
  5
98A
  8
130_VU3
 10
97.29419111
 20
232.16996799750001
 30
0.0
  0
VERTEX
  5
98B
  8
130_VU3
 10
97.294191582500005
 20
237.21161039750001
 30
0.0
  0
VERTEX
  5
98C
  8
130_VU3
 10
98.806684492499997
 20
237.21161039750001
 30
0.0
  0
VERTEX
  5
98D
  8
130_VU3
 10
98.806684020000006
 20
232.16996799750001
 30
0.0
 42
-0.36397
  0
VERTEX
  5
98E
  8
130_VU3
 10
109.175782915
 20
223.609027965
 30
0.0
 42
-0.057249
  0
VERTEX
  5
98F
  8
130_VU3
 10
107.44617137749999
 20
210.64157829999999
 30
0.0
 42
0.4064020000000001
  0
VERTEX
  5
990
  8
130_VU3
 10
108.1395180925
 20
208.78758779500001
 30
0.0
 42
0.382957
  0
VERTEX
  5
991
  8
130_VU3
 10
110.0113871675
 20
209.43110605749999
 30
0.0
 42
0.077653
  0
VERTEX
  5
992
  8
130_VU3
 10
115.3156366475
 20
225.5948895075
 30
0.0
 42
0.136544
  0
VERTEX
  5
993
  8
130_VU3
 10
113.96220205
 20
235.3650216675
 30
0.0
 42
0.298885
  0
VERTEX
  5
994
  8
130_VU3
 10
98.050437329999994
 20
245.80965433
 30
0.0
 42
0.283517
  0
VERTEX
  5
995
  8
130_VU3
 10
82.138673554999997
 20
235.36502024999999
 30
0.0
 42
0.132572
  0
VERTEX
  5
996
  8
130_VU3
 10
80.785238957499999
 20
225.59489045250001
 30
0.0
 42
0.075422
  0
VERTEX
  5
997
  8
130_VU3
 10
86.089487965000004
 20
209.431107475
 30
0.0
 42
0.4064021400000001
  0
VERTEX
  5
998
  8
130_VU3
 10
87.961359047499997
 20
208.78758676250001
 30
0.0
 42
0.4064021400000001
  0
VERTEX
  5
999
  8
130_VU3
 10
88.654703752499998
 20
210.64158066499999
 30
0.0
 42
-0.057249
  0
VERTEX
  5
99A
  8
130_VU3
 10
86.925093160000003
 20
223.609033165
 30
0.0
  0
SEQEND
  5
99B
  8
130_VU3
  0
POLYLINE
  5
8F
  8
130_VU3
 66
     1
 10
0.0
 20
0.0
 30
0.0
  0
VERTEX
  5
99C
  8
130_VU3
 10
150.92353459
 20
121.57037246749999
 30
0.0
 42
0.017626
  0
VERTEX
  5
99D
  8
130_VU3
 10
161.95204302249999
 20
121.3470593775
 30
0.0
 42
0.134769
  0
VERTEX
  5
99E
  8
130_VU3
 10
166.2771331125
 20
122.6044722525
 30
0.0
 42
-0.140659
  0
VERTEX
  5
99F
  8
130_VU3
 10
169.5362912375
 20
123.51126696
 30
0.0
 42
0.088167
  0
VERTEX
  5
9A0
  8
130_VU3
 10
183.39244479499999
 20
125.85786183250001
 30
0.0
 42
0.033155
  0
VERTEX
  5
9A1
  8
130_VU3
 10
185.08455724250001
 20
126.6292056325
 30
0.0
  0
VERTEX
  5
9A2
  8
130_VU3
 10
186.53863719
 20
127.412264265
 30
0.0
 42
-0.102708
  0
VERTEX
  5
9A3
  8
130_VU3
 10
188.56931639999999
 20
127.92741148
 30
0.0
  0
VERTEX
  5
9A4
  8
130_VU3
 10
191.03051590499999
 20
128.0351395225
 30
0.0
 42
0.053191
  0
VERTEX
  5
9A5
  8
130_VU3
 10
192.70969769749999
 20
128.28896402500001
 30
0.0
 42
-0.088462
  0
VERTEX
  5
9A6
  8
130_VU3
 10
213.91877716499999
 20
129.985921805
 30
0.0
 42
0.40217725
  0
VERTEX
  5
9A7
  8
130_VU3
 10
215.07664393499999
 20
131.09696227250001
 30
0.0
 42
0.40217725
  0
VERTEX
  5
9A8
  8
130_VU3
 10
214.01431955250001
 20
132.29968139499999
 30
0.0
 42
0.154107
  0
VERTEX
  5
9A9
  8
130_VU3
 10
187.44054969499999
 20
130.98070018249999
 30
0.0
 42
-0.089085
  0
VERTEX
  5
9AA
  8
130_VU3
 10
185.85772335999999
 20
130.69643234
 30
0.0
  0
VERTEX
  5
9AB
  8
130_VU3
 10
184.8268394575
 20
130.69643234
 30
0.0
 42
0.036288
  0
VERTEX
  5
9AC
  8
130_VU3
 10
183.452673455
 20
130.57553917499999
 30
0.0
 42
0.041213
  0
VERTEX
  5
9AD
  8
130_VU3
 10
170.68779933249999
 20
127.4155817825
 30
0.0
 42
0.134127
  0
VERTEX
  5
9AE
  8
130_VU3
 10
170.37449211250001
 20
127.27761981
 30
0.0
 42
-0.260122
  0
VERTEX
  5
9AF
  8
130_VU3
 10
165.90486032749999
 20
126.498914885
 30
0.0
  0
VERTEX
  5
9B0
  8
130_VU3
 10
150.501828545
 20
127.20192201250001
 30
0.0
 42
0.199029
  0
VERTEX
  5
9B1
  8
130_VU3
 10
150.23571817249999
 20
127.12189508749999
 30
0.0
 42
-0.4042810000000001
  0
VERTEX
  5
9B2
  8
130_VU3
 10
146.71758389499999
 20
127.298567245
 30
0.0
 42
-0.127834
  0
VERTEX
  5
9B3
  8
130_VU3
 10
142.58130056499999
 20
134.84675247749999
 30
0.0
 42
-0.18807
  0
VERTEX
  5
9B4
  8
130_VU3
 10
142.70529758000001
 20
135.835216325
 30
0.0
 42
-0.063757
  0
VERTEX
  5
9B5
  8
130_VU3
 10
143.93614811
 20
137.54506789000001
 30
0.0
 42
0.176326
  0
VERTEX
  5
9B6
  8
130_VU3
 10
144.07054202500001
 20
137.86099206
 30
0.0
 42
-0.131652
  0
VERTEX
  5
9B7
  8
130_VU3
 10
160.74161616000001
 20
173.23768067750001
 30
0.0
 42
0.2810124
  0
VERTEX
  5
9B8
  8
130_VU3
 10
160.93893713
 20
175.94011398999999
 30
0.0
 42
0.2810124
  0
VERTEX
  5
9B9
  8
130_VU3
 10
158.6259356425
 20
177.3515336625
 30
0.0
  0
VERTEX
  5
9BA
  8
130_VU3
 10
157.80527014
 20
177.3515336625
 30
0.0
 42
-0.4142140000000001
  0
VERTEX
  5
9BB
  8
130_VU3
 10
156.2889368925
 20
178.86786691
 30
0.0
  0
VERTEX
  5
9BC
  8
130_VU3
 10
156.2889368925
 20
180.76321339250001
 30
0.0
 42
0.168823
  0
VERTEX
  5
9BD
  8
130_VU3
 10
155.538888445
 20
182.82496417999999
 30
0.0
  0
VERTEX
  5
9BE
  8
130_VU3
 10
149.96288106
 20
189.67256684500001
 30
0.0
 42
0.369924
  0
VERTEX
  5
9BF
  8
130_VU3
 10
145.93551465499999
 20
189.7741831525
 30
0.0
  0
VERTEX
  5
9C0
  8
130_VU3
 10
145.4878834825
 20
189.40967660999999
 30
0.0
  0
VERTEX
  5
9C1
  8
130_VU3
 10
149.41447926750001
 20
184.587629865
 30
0.0
  0
VERTEX
  5
9C2
  8
130_VU3
 10
148.2424298
 20
183.63322941249999
 30
0.0
  0
VERTEX
  5
9C3
  8
130_VU3
 10
144.31583401500001
 20
188.45527615750001
 30
0.0
  0
VERTEX
  5
9C4
  8
130_VU3
 10
143.90729734749999
 20
188.122604155
 30
0.0
 42
0.341359
  0
VERTEX
  5
9C5
  8
130_VU3
 10
143.24701281500001
 20
184.2038322825
 30
0.0
 42
0.126573
  0
VERTEX
  5
9C6
  8
130_VU3
 10
150.73156631000001
 20
176.05275252249999
 30
0.0
 42
0.06705
  0
VERTEX
  5
9C7
  8
130_VU3
 10
151.37904120249999
 20
175.7524809025
 30
0.0
 42
-0.22834569
  0
VERTEX
  5
9C8
  8
130_VU3
 10
152.54716669000001
 20
174.6657213025
 30
0.0
 42
-0.22834569
  0
VERTEX
  5
9C9
  8
130_VU3
 10
152.42519995500001
 20
173.07490776750001
 30
0.0
 42
0.131652
  0
VERTEX
  5
9CA
  8
130_VU3
 10
139.20314722750001
 20
144.47762600999999
 30
0.0
 42
0.137725
  0
VERTEX
  5
9CB
  8
130_VU3
 10
139.25353253750001
 20
135.79321651250001
 30
0.0
 42
-0.304325
  0
VERTEX
  5
9CC
  8
130_VU3
 10
139.01201943250001
 20
135.04264524249999
 30
0.0
 42
0.315299
  0
VERTEX
  5
9CD
  8
130_VU3
 10
138.34614598749999
 20
130.58544255999999
 30
0.0
 42
0.163691
  0
VERTEX
  5
9CE
  8
130_VU3
 10
143.963596325
 20
123.2204591025
 30
0.0
 42
0.218618
  0
VERTEX
  5
9CF
  8
130_VU3
 10
145.09091746749999
 20
122.978429795
 30
0.0
 42
-0.223067
  0
VERTEX
  5
9D0
  8
130_VU3
 10
149.98961500249999
 20
121.88314457
 30
0.0
 42
0.169474
  0
VERTEX
  5
9D1
  8
130_VU3
 10
150.92354262750001
 20
121.5703719925
 30
0.0
  0
SEQEND
  5
9D2
  8
130_VU3
  0
POLYLINE
  5
C7
  8
130_VU3
 66
     1
 10
0.0
 20
0.0
 30
0.0
  0
VERTEX
  5
9D3
  8
130_VU3
 10
53.255770570000003
 20
23.000294132499999
 30
0.0
 42
0.02186
  0
VERTEX
  5
9D4
  8
130_VU3
 10
54.503579760000001
 20
21.420321107500001
 30
0.0
 42
0.055558
  0
VERTEX
  5
9D5
  8
130_VU3
 10
54.639316662500001
 20
21.285246955000002
 30
0.0
 42
0.32758918
  0
VERTEX
  5
9D6
  8
130_VU3
 10
56.427799317500003
 20
21.215808947500001
 30
0.0
 42
0.32758918
  0
VERTEX
  5
9D7
  8
130_VU3
 10
57.030273504999997
 20
22.901192197499999
 30
0.0
 42
0.006259
  0
VERTEX
  5
9D8
  8
130_VU3
 10
56.942409429999998
 20
23.145130802499999
 30
0.0
 42
-0.043661
  0
VERTEX
  5
9D9
  8
130_VU3
 10
55.075282637500003
 20
29.866123282499998
 30
0.0
 42
-0.23517679
  0
VERTEX
  5
9DA
  8
130_VU3
 10
56.669489544999998
 20
37.710447115000001
 30
0.0
 42
-0.23517679
  0
VERTEX
  5
9DB
  8
130_VU3
 10
63.889843429999999
 20
41.166080460000003
 30
0.0
  0
VERTEX
  5
9DC
  8
130_VU3
 10
63.889843429999999
 20
46.207722862499999
 30
0.0
  0
VERTEX
  5
9DD
  8
130_VU3
 10
65.402336340000005
 20
46.207722862499999
 30
0.0
  0
VERTEX
  5
9DE
  8
130_VU3
 10
65.4023358675
 20
41.166080460000003
 30
0.0
 42
-0.23517679
  0
VERTEX
  5
9DF
  8
130_VU3
 10
72.622690224999985
 20
37.710446169999997
 30
0.0
 42
-0.23517679
  0
VERTEX
  5
9E0
  8
130_VU3
 10
74.216896660000003
 20
29.866121392499998
 30
0.0
 42
-0.065414
  0
VERTEX
  5
9E1
  8
130_VU3
 10
72.349769394999996
 20
23.145129385000001
 30
0.0
 42
0.027954
  0
VERTEX
  5
9E2
  8
130_VU3
 10
72.261906267499995
 20
22.901192197499999
 30
0.0
 42
0.327589
  0
VERTEX
  5
9E3
  8
130_VU3
 10
72.864380075
 20
21.2158088525
 30
0.0
 42
0.347272
  0
VERTEX
  5
9E4
  8
130_VU3
 10
74.652863109999984
 20
21.285246955000002
 30
0.0
 42
0.037849
  0
VERTEX
  5
9E5
  8
130_VU3
 10
74.788598592499994
 20
21.420320162500001
 30
0.0
 42
0.02186
  0
VERTEX
  5
9E6
  8
130_VU3
 10
76.036407782500007
 20
23.000292242499999
 30
0.0
 42
0.171186
  0
VERTEX
  5
9E7
  8
130_VU3
 10
81.130122615000005
 20
40.28852225
 30
0.0
 42
0.083445
  0
VERTEX
  5
9E8
  8
130_VU3
 10
80.509889834999996
 20
43.074413377500001
 30
0.0
 42
0.30529554
  0
VERTEX
  5
9E9
  8
130_VU3
 10
64.646089172499998
 20
53.756318387500002
 30
0.0
 42
0.30529554
  0
VERTEX
  5
9EA
  8
130_VU3
 10
48.78228946250001
 20
43.074411959999999
 30
0.0
 42
0.083875
  0
VERTEX
  5
9EB
  8
130_VU3
 10
48.162057157500001
 20
40.288520359999993
 30
0.0
 42
0.170746
  0
VERTEX
  5
9EC
  8
130_VU3
 10
53.255773404999999
 20
23.00029035
 30
0.0
  0
SEQEND
  5
9ED
  8
130_VU3
  0
POLYLINE
  5
E3
  8
130_VU3
 66
     1
 10
0.0
 20
0.0
 30
0.0
  0
VERTEX
  5
9EE
  8
130_VU3
 10
211.8872645575
 20
144.13552995500001
 30
0.0
 42
0.134769
  0
VERTEX
  5
9EF
  8
130_VU3
 10
207.51292225750001
 20
145.20912179749999
 30
0.0
 42
-0.140659
  0
VERTEX
  5
9F0
  8
130_VU3
 10
204.23701015500001
 20
146.05339470249999
 30
0.0
 42
0.088167
  0
VERTEX
  5
9F1
  8
130_VU3
 10
191.06393120749999
 20
150.94925972999999
 30
0.0
 42
0.033155
  0
VERTEX
  5
9F2
  8
130_VU3
 10
189.212848845
 20
151.12731269
 30
0.0
  0
VERTEX
  5
9F3
  8
130_VU3
 10
187.562049355
 20
151.17620374500001
 30
0.0
 42
-0.102708
  0
VERTEX
  5
9F4
  8
130_VU3
 10
185.54585556000001
 20
151.74541305
 30
0.0
  0
VERTEX
  5
9F5
  8
130_VU3
 10
183.36053036499999
 20
152.88271793999999
 30
0.0
 42
0.053191
  0
VERTEX
  5
9F6
  8
130_VU3
 10
181.77940107750001
 20
153.50249076750001
 30
0.0
 42
-0.088462
  0
VERTEX
  5
9F7
  8
130_VU3
 10
162.56332162749999
 20
162.63742256250001
 30
0.0
 42
0.40217664
  0
VERTEX
  5
9F8
  8
130_VU3
 10
161.0050618425
 20
162.25416534999999
 30
0.0
 42
0.40217664
  0
VERTEX
  5
9F9
  8
130_VU3
 10
161.32370033749999
 20
160.68141961250001
 30
0.0
 42
0.154107
  0
VERTEX
  5
9FA
  8
130_VU3
 10
184.99674989499999
 20
148.53680474000001
 30
0.0
 42
-0.089085
  0
VERTEX
  5
9FB
  8
130_VU3
 10
186.50965406750001
 20
147.99157392000001
 30
0.0
  0
VERTEX
  5
9FC
  8
130_VU3
 10
187.40242520250001
 20
147.4761326775
 30
0.0
 42
0.036288
  0
VERTEX
  5
9FD
  8
130_VU3
 10
188.65293076250001
 20
146.89374738000001
 30
0.0
 42
0.041213
  0
VERTEX
  5
9FE
  8
130_VU3
 10
201.28761388250001
 20
143.24791283499999
 30
0.0
 42
0.134128
  0
VERTEX
  5
9FF
  8
130_VU3
 10
201.6279315825
 20
143.21073661
 30
0.0
 42
-0.260122
  0
VERTEX
  5
A00
  8
130_VU3
 10
205.8880989475
 20
141.65029902000001
 30
0.0
  0
VERTEX
  5
A01
  8
130_VU3
 10
218.87601246
 20
133.33996099000001
 30
0.0
 42
0.199029
  0
VERTEX
  5
A02
  8
130_VU3
 10
219.14648410500001
 20
133.27621106999999
 30
0.0
 42
-0.4042810000000001
  0
VERTEX
  5
A03
  8
130_VU3
 10
222.10494138499999
 20
131.36414228500001
 30
0.0
 42
-0.127834
  0
VERTEX
  5
A04
  8
130_VU3
 10
221.91297546749999
 20
122.759080895
 30
0.0
 42
-0.18807
  0
VERTEX
  5
A05
  8
130_VU3
 10
221.31135868999999
 20
121.96504344749999
 30
0.0
 42
-0.063756
  0
VERTEX
  5
A06
  8
130_VU3
 10
219.39048463500001
 20
121.0996940575
 30
0.0
 42
0.176327
  0
VERTEX
  5
A07
  8
130_VU3
 10
219.11613247
 20
120.8932895225
 30
0.0
 42
-0.131652
  0
VERTEX
  5
A08
  8
130_VU3
 10
186.9902127
 20
98.591717634999995
 30
0.0
 42
0.28101201
  0
VERTEX
  5
A09
  8
130_VU3
 10
185.46811580249999
 20
96.350001292499996
 30
0.0
 42
0.28101201
  0
VERTEX
  5
A0A
  8
130_VU3
 10
186.765523535
 20
93.971177150000003
 30
0.0
  0
VERTEX
  5
A0B
  8
130_VU3
 10
187.47624064749999
 20
93.560844634999995
 30
0.0
 42
-0.4142140000000001
  0
VERTEX
  5
A0C
  8
130_VU3
 10
188.03125714750001
 20
91.489494887500001
 30
0.0
  0
VERTEX
  5
A0D
  8
130_VU3
 10
187.08358343250001
 20
89.848076432499994
 30
0.0
 42
0.168823
  0
VERTEX
  5
A0E
  8
130_VU3
 10
186.702269495
 20
87.687523409999997
 30
0.0
  0
VERTEX
  5
A0F
  8
130_VU3
 10
188.10743191500001
 20
78.969322329999997
 30
0.0
 42
0.369924
  0
VERTEX
  5
A10
  8
130_VU3
 10
191.54442555
 20
76.86763655
 30
0.0
  0
VERTEX
  5
A11
  8
130_VU3
 10
192.11433872750001
 20
76.959492705000002
 30
0.0
  0
VERTEX
  5
A12
  8
130_VU3
 10
191.12483018
 20
83.098805650000003
 30
0.0
  0
VERTEX
  5
A13
  8
130_VU3
 10
192.61705541750001
 20
83.339316122499994
 30
0.0
  0
VERTEX
  5
A14
  8
130_VU3
 10
193.60656349249999
 20
77.200003177499994
 30
0.0
  0
VERTEX
  5
A15
  8
130_VU3
 10
194.12670258
 20
77.283837352500001
 30
0.0
 42
0.341359
  0
VERTEX
  5
A16
  8
130_VU3
 10
196.6579117
 20
80.347452050000001
 30
0.0
 42
0.126573
  0
VERTEX
  5
A17
  8
130_VU3
 10
194.25163793499999
 20
91.148770652500005
 30
0.0
 42
0.06705
  0
VERTEX
  5
A18
  8
130_VU3
 10
193.8410444825
 20
91.732549987499993
 30
0.0
 42
-0.22834526
  0
VERTEX
  5
A19
  8
130_VU3
 10
193.37279788999999
 20
93.257772727499997
 30
0.0
 42
-0.22834526
  0
VERTEX
  5
A1A
  8
130_VU3
 10
194.2738276675
 20
94.574474899999984
 30
0.0
 42
0.131652
  0
VERTEX
  5
A1B
  8
130_VU3
 10
220.02310255750001
 20
112.72941903
 30
0.0
 42
0.137726
  0
VERTEX
  5
A1C
  8
130_VU3
 10
224.32167473249999
 20
120.275532825
 30
0.0
 42
-0.304326
  0
VERTEX
  5
A1D
  8
130_VU3
 10
224.90611681749999
 20
120.804791065
 30
0.0
 42
0.315299
  0
VERTEX
  5
A1E
  8
130_VU3
 10
227.71138171000001
 20
124.3319055175
 30
0.0
 42
0.163691
  0
VERTEX
  5
A1F
  8
130_VU3
 10
226.52901853750001
 20
133.51889367250001
 30
0.0
 42
0.218617
  0
VERTEX
  5
A20
  8
130_VU3
 10
225.67374460249999
 20
134.2921576425
 30
0.0
 42
-0.223066
  0
VERTEX
  5
A21
  8
130_VU3
 10
221.97899111000001
 20
137.69005110250001
 30
0.0
 42
0.169473
  0
VERTEX
  5
A22
  8
130_VU3
 10
221.32656972500001
 20
138.42788505749999
 30
0.0
 42
0.017626
  0
VERTEX
  5
A23
  8
130_VU3
 10
211.88725983
 20
144.13553231750001
 30
0.0
  0
SEQEND
  5
A24
  8
130_VU3
  0
POLYLINE
  5
11B
  8
130_VU3
 66
     1
 10
0.0
 20
0.0
 30
0.0
  0
VERTEX
  5
A25
  8
130_VU3
 10
178.02308539500001
 20
242.2785685975
 30
0.0
 42
0.134769
  0
VERTEX
  5
A26
  8
130_VU3
 10
173.69799814250001
 20
241.02115524749999
 30
0.0
 42
-0.140659
  0
VERTEX
  5
A27
  8
130_VU3
 10
170.43883859749999
 20
240.11436101250001
 30
0.0
 42
0.088167
  0
VERTEX
  5
A28
  8
130_VU3
 10
156.5826845675
 20
237.76776519500001
 30
0.0
 42
0.033155
  0
VERTEX
  5
A29
  8
130_VU3
 10
154.89057400999999
 20
236.9964218675
 30
0.0
  0
VERTEX
  5
A2A
  8
130_VU3
 10
153.4364940625
 20
236.21336370750001
 30
0.0
 42
-0.102708
  0
VERTEX
  5
A2B
  8
130_VU3
 10
151.40581438000001
 20
235.69821601999999
 30
0.0
  0
VERTEX
  5
A2C
  8
130_VU3
 10
148.94461487500001
 20
235.59048845000001
 30
0.0
 42
0.053191
  0
VERTEX
  5
A2D
  8
130_VU3
 10
147.26543072000001
 20
235.33666300249999
 30
0.0
 42
-0.088462
  0
VERTEX
  5
A2E
  8
130_VU3
 10
126.056351725
 20
233.63970616750001
 30
0.0
 42
0.40217664
  0
VERTEX
  5
A2F
  8
130_VU3
 10
124.89848773
 20
232.52866561249999
 30
0.0
 42
0.40217664
  0
VERTEX
  5
A30
  8
130_VU3
 10
125.96080981
 20
231.32594705
 30
0.0
 42
0.154107
  0
VERTEX
  5
A31
  8
130_VU3
 10
152.5345796675
 20
232.64492731749999
 30
0.0
 42
-0.089085
  0
VERTEX
  5
A32
  8
130_VU3
 10
154.11740789250001
 20
232.92919563250001
 30
0.0
  0
VERTEX
  5
A33
  8
130_VU3
 10
155.14829085
 20
232.92919563250001
 30
0.0
 42
0.036288
  0
VERTEX
  5
A34
  8
130_VU3
 10
156.52245401499999
 20
233.05008785250001
 30
0.0
 42
0.041213
  0
VERTEX
  5
A35
  8
130_VU3
 10
169.28732814
 20
236.2100447725
 30
0.0
 42
0.134127
  0
VERTEX
  5
A36
  8
130_VU3
 10
169.60063914
 20
236.34800769
 30
0.0
 42
-0.260122
  0
VERTEX
  5
A37
  8
130_VU3
 10
174.0702709249999
 20
237.12671308750001
 30
0.0
  0
VERTEX
  5
A38
  8
130_VU3
 10
189.47330317999999
 20
236.4237054875
 30
0.0
 42
0.199029
  0
VERTEX
  5
A39
  8
130_VU3
 10
189.73941307999999
 20
236.5037324125
 30
0.0
 42
-0.4042810000000001
  0
VERTEX
  5
A3A
  8
130_VU3
 10
193.25754688500001
 20
236.3270612
 30
0.0
 42
-0.127834
  0
VERTEX
  5
A3B
  8
130_VU3
 10
197.39383068750001
 20
228.77887644
 30
0.0
 42
-0.18807
  0
VERTEX
  5
A3C
  8
130_VU3
 10
197.2698336725
 20
227.790411175
 30
0.0
 42
-0.063757
  0
VERTEX
  5
A3D
  8
130_VU3
 10
196.0389831425
 20
226.08055960999999
 30
0.0
 42
0.176327
  0
VERTEX
  5
A3E
  8
130_VU3
 10
195.9045892275
 20
225.764632605
 30
0.0
 42
-0.131652
  0
VERTEX
  5
A3F
  8
130_VU3
 10
179.23351273
 20
190.38794493250001
 30
0.0
 42
0.28101201
  0
VERTEX
  5
A40
  8
130_VU3
 10
179.03619571999999
 20
187.68551313750001
 30
0.0
 42
0.28101201
  0
VERTEX
  5
A41
  8
130_VU3
 10
181.34919561250001
 20
186.27409431000001
 30
0.0
  0
VERTEX
  5
A42
  8
130_VU3
 10
182.1698611125
 20
186.27409431000001
 30
0.0
 42
-0.4142140000000001
  0
VERTEX
  5
A43
  8
130_VU3
 10
183.68619483500001
 20
184.75776106250001
 30
0.0
  0
VERTEX
  5
A44
  8
130_VU3
 10
183.68619483500001
 20
182.86241458000001
 30
0.0
 42
0.168823
  0
VERTEX
  5
A45
  8
130_VU3
 10
184.43624328249999
 20
180.80066379249999
 30
0.0
  0
VERTEX
  5
A46
  8
130_VU3
 10
190.01225019250001
 20
173.95306112750001
 30
0.0
 42
0.369924
  0
VERTEX
  5
A47
  8
130_VU3
 10
194.03961659749999
 20
173.85144482000001
 30
0.0
  0
VERTEX
  5
A48
  8
130_VU3
 10
194.48724777000001
 20
174.21595088999999
 30
0.0
  0
VERTEX
  5
A49
  8
130_VU3
 10
190.56065198499999
 20
179.03799763500001
 30
0.0
  0
VERTEX
  5
A4A
  8
130_VU3
 10
191.73270145250001
 20
179.99239856
 30
0.0
  0
VERTEX
  5
A4B
  8
130_VU3
 10
195.65929771
 20
175.170351815
 30
0.0
  0
VERTEX
  5
A4C
  8
130_VU3
 10
196.06783390499999
 20
175.50302381750001
 30
0.0
 42
0.341359
  0
VERTEX
  5
A4D
  8
130_VU3
 10
196.728117965
 20
179.42179663749999
 30
0.0
 42
0.126573
  0
VERTEX
  5
A4E
  8
130_VU3
 10
189.24356447
 20
187.57287592500001
 30
0.0
 42
0.06705
  0
VERTEX
  5
A4F
  8
130_VU3
 10
188.59609005249999
 20
187.87314706999999
 30
0.0
 42
-0.22834526
  0
VERTEX
  5
A50
  8
130_VU3
 10
187.42796576250001
 20
188.95990567000001
 30
0.0
 42
-0.22834526
  0
VERTEX
  5
A51
  8
130_VU3
 10
187.54992988000001
 20
190.55071784250001
 30
0.0
 42
0.131652
  0
VERTEX
  5
A52
  8
130_VU3
 10
200.77198355249999
 20
219.14799865500001
 30
0.0
 42
0.137726
  0
VERTEX
  5
A53
  8
130_VU3
 10
200.72159919000001
 20
227.83241051499999
 30
0.0
 42
-0.304326
  0
VERTEX
  5
A54
  8
130_VU3
 10
200.96311134749999
 20
228.58298225749999
 30
0.0
 42
0.315299
  0
VERTEX
  5
A55
  8
130_VU3
 10
201.62898526500001
 20
233.04018541249999
 30
0.0
 42
0.163692
  0
VERTEX
  5
A56
  8
130_VU3
 10
196.011534455
 20
240.40516887000001
 30
0.0
 42
0.218617
  0
VERTEX
  5
A57
  8
130_VU3
 10
194.88421378499999
 20
240.64719818
 30
0.0
 42
-0.223067
  0
VERTEX
  5
A58
  8
130_VU3
 10
189.98551624999999
 20
241.7424834025
 30
0.0
 42
0.169473
  0
VERTEX
  5
A59
  8
130_VU3
 10
189.05158578999999
 20
242.05525598
 30
0.0
 42
0.017626
  0
VERTEX
  5
A5A
  8
130_VU3
 10
178.02307688499999
 20
242.2785685975
 30
0.0
  0
SEQEND
  5
A5B
  8
130_VU3
  0
POLYLINE
  5
153
  8
130_VU3
 66
     1
 10
0.0
 20
0.0
 30
0.0
  0
VERTEX
  5
A5C
  8
130_VU3
 10
105.98241163749999
 20
37.708437199999999
 30
0.0
 42
0.038561
  0
VERTEX
  5
A5D
  8
130_VU3
 10
97.494006940000006
 20
28.9836729425
 30
0.0
 42
0.00632
  0
VERTEX
  5
A5E
  8
130_VU3
 10
96.834489152499998
 20
28.17134283
 30
0.0
 42
0.091634
  0
VERTEX
  5
A5F
  8
130_VU3
 10
96.753012882500002
 20
28.031684755000001
 30
0.0
 42
0.37070459
  0
VERTEX
  5
A60
  8
130_VU3
 10
97.294854482500014
 20
26.612147920000002
 30
0.0
 42
0.37070459
  0
VERTEX
  5
A61
  8
130_VU3
 10
98.779681102500021
 20
26.9345871425
 30
0.0
 42
-0.090312
  0
VERTEX
  5
A62
  8
130_VU3
 10
110.1240943225
 20
37.37030202750001
 30
0.0
 42
-0.233675
  0
VERTEX
  5
A63
  8
130_VU3
 10
111.16171678249999
 20
37.479082337500003
 30
0.0
  0
VERTEX
  5
A64
  8
130_VU3
 10
112.57710781500001
 20
36.954942185
 30
0.0
 42
0.12994
  0
VERTEX
  5
A65
  8
130_VU3
 10
113.096178565
 20
36.904840032499997
 30
0.0
  0
VERTEX
  5
A66
  8
130_VU3
 10
119.7087112375
 20
37.986948314999999
 30
0.0
 42
-0.20633618
  0
VERTEX
  5
A67
  8
130_VU3
 10
124.5006927025
 20
36.790100029999998
 30
0.0
 42
-0.20633618
  0
VERTEX
  5
A68
  8
130_VU3
 10
126.9210260775
 20
32.484578165000002
 30
0.0
 42
0.230423
  0
VERTEX
  5
A69
  8
130_VU3
 10
130.2787472425
 20
27.1062608075
 30
0.0
 42
-0.27242308
  0
VERTEX
  5
A6A
  8
130_VU3
 10
130.49066619999999
 20
25.3894947
 30
0.0
 42
-0.27242308
  0
VERTEX
  5
A6B
  8
130_VU3
 10
129.0926784575
 20
24.370757354999999
 30
0.0
 42
0.108366
  0
VERTEX
  5
A6C
  8
130_VU3
 10
126.273040655
 20
24.12648312
 30
0.0
 42
0.099476
  0
VERTEX
  5
A6D
  8
130_VU3
 10
125.094218595
 20
23.481559947499999
 30
0.0
 42
0.09343
  0
VERTEX
  5
A6E
  8
130_VU3
 10
120.9056586225
 20
18.880621075000001
 30
0.0
 42
0.375149
  0
VERTEX
  5
A6F
  8
130_VU3
 10
121.21043899999999
 20
17.057069654999999
 30
0.0
 42
0.053014
  0
VERTEX
  5
A70
  8
130_VU3
 10
122.7666646975
 20
16.03422853
 30
0.0
  0
VERTEX
  5
A71
  8
130_VU3
 10
128.69505111250001
 20
22.269146735
 30
0.0
  0
VERTEX
  5
A72
  8
130_VU3
 10
129.79113948
 20
21.226945552499998
 30
0.0
  0
VERTEX
  5
A73
  8
130_VU3
 10
123.22085952250001
 20
14.31694399
 30
0.0
 42
0.062766
  0
VERTEX
  5
A74
  8
130_VU3
 10
124.05368231750001
 20
13.541777815
 30
0.0
 42
0.305603
  0
VERTEX
  5
A75
  8
130_VU3
 10
126.98818711
 20
13.4507465475
 30
0.0
 42
0.120117
  0
VERTEX
  5
A76
  8
130_VU3
 10
132.39942199999999
 20
18.928868295000001
 30
0.0
 42
0.10123
  0
VERTEX
  5
A77
  8
130_VU3
 10
132.68759588750001
 20
19.747705332500001
 30
0.0
 42
0.074436
  0
VERTEX
  5
A78
  8
130_VU3
 10
132.65552404249999
 20
22.425119160000001
 30
0.0
 42
-0.392353
  0
VERTEX
  5
A79
  8
130_VU3
 10
133.91870782749999
 20
23.988425660000001
 30
0.0
  0
VERTEX
  5
A7A
  8
130_VU3
 10
135.26233547250001
 20
24.182420472499999
 30
0.0
 42
0.347149
  0
VERTEX
  5
A7B
  8
130_VU3
 10
139.46735208499999
 20
28.614272847500001
 30
0.0
 42
0.251467
  0
VERTEX
  5
A7C
  8
130_VU3
 10
136.38155001999999
 20
38.315481695000003
 30
0.0
  0
VERTEX
  5
A7D
  8
130_VU3
 10
135.21509560999999
 20
39.44681619
 30
0.0
 42
0.120806
  0
VERTEX
  5
A7E
  8
130_VU3
 10
125.9654996175
 20
44.862192065000002
 30
0.0
 42
0.131652
  0
VERTEX
  5
A7F
  8
130_VU3
 10
113.13340159000001
 20
43.616407039999999
 30
0.0
 42
0.131652
  0
VERTEX
  5
A80
  8
130_VU3
 10
109.242045315
 20
40.271371664999997
 30
0.0
 42
-0.092188
  0
VERTEX
  5
A81
  8
130_VU3
 10
107.61991601
 20
38.827994465000003
 30
0.0
 42
0.028209
  0
VERTEX
  5
A82
  8
130_VU3
 10
105.98241542
 20
37.708440037499997
 30
0.0
  0
SEQEND
  5
A83
  8
130_VU3
  0
POLYLINE
  5
17C
  8
130_VU3
 66
     1
 10
0.0
 20
0.0
 30
0.0
  0
VERTEX
  5
A84
  8
130_VU3
 10
122.951996055
 20
189.76414693500001
 30
0.0
 42
0.042086
  0
VERTEX
  5
A85
  8
130_VU3
 10
112.562816685
 20
175.72094559000001
 30
0.0
 42
0.131652
  0
VERTEX
  5
A86
  8
130_VU3
 10
112.34621048
 20
175.15950677999999
 30
0.0
 42
-0.264718
  0
VERTEX
  5
A87
  8
130_VU3
 10
109.9120252375
 20
172.5913535375
 30
0.0
 42
0.131653
  0
VERTEX
  5
A88
  8
130_VU3
 10
109.27374277
 20
172.28145932499999
 30
0.0
 42
0.031512
  0
VERTEX
  5
A89
  8
130_VU3
 10
100.413738905
 20
164.29375802249999
 30
0.0
 42
-0.131652
  0
VERTEX
  5
A8A
  8
130_VU3
 10
89.426871969999993
 20
157.7842640575
 30
0.0
 42
0.414213
  0
VERTEX
  5
A8B
  8
130_VU3
 10
88.599556782500017
 20
156.011510155
 30
0.0
 42
0.389149
  0
VERTEX
  5
A8C
  8
130_VU3
 10
90.372309740000006
 20
155.18419402250001
 30
0.0
 42
0.153915
  0
VERTEX
  5
A8D
  8
130_VU3
 10
111.47814628499999
 20
169.96770304250001
 30
0.0
 42
-0.215941
  0
VERTEX
  5
A8E
  8
130_VU3
 10
113.5232381125
 20
171.79402504750001
 30
0.0
 42
0.075548
  0
VERTEX
  5
A8F
  8
130_VU3
 10
115.792703805
 20
172.9026668425
 30
0.0
 42
0.079712
  0
VERTEX
  5
A90
  8
130_VU3
 10
126.3592918225
 20
186.60477901749999
 30
0.0
 42
0.043661
  0
VERTEX
  5
A91
  8
130_VU3
 10
126.51150946999999
 20
187.04223688249999
 30
0.0
 42
-0.289789
  0
VERTEX
  5
A92
  8
130_VU3
 10
129.282510065
 20
190.15111738249999
 30
0.0
 42
0.131652
  0
VERTEX
  5
A93
  8
130_VU3
 10
129.6004602925
 20
190.31947164249999
 30
0.0
 42
0.042678
  0
VERTEX
  5
A94
  8
130_VU3
 10
142.65896344250001
 20
202.14714128
 30
0.0
 42
0.131652
  0
VERTEX
  5
A95
  8
130_VU3
 10
142.86586905499999
 20
202.46316708500001
 30
0.0
 42
-0.399625
  0
VERTEX
  5
A96
  8
130_VU3
 10
146.80987447250001
 20
204.10691130000001
 30
0.0
 42
0.039573
  0
VERTEX
  5
A97
  8
130_VU3
 10
147.04388227499999
 20
204.03800122000001
 30
0.0
 42
0.080143
  0
VERTEX
  5
A98
  8
130_VU3
 10
153.28907683750001
 20
203.79114407
 30
0.0
 42
-0.083421
  0
VERTEX
  5
A99
  8
130_VU3
 10
153.56904108000001
 20
203.778251705
 30
0.0
 42
-0.261449
  0
VERTEX
  5
A9A
  8
130_VU3
 10
158.25917802750001
 20
199.63199975500001
 30
0.0
 42
-0.085426
  0
VERTEX
  5
A9B
  8
130_VU3
 10
178.38464928499999
 20
161.02487898000001
 30
0.0
 42
0.27376357
  0
VERTEX
  5
A9C
  8
130_VU3
 10
179.92926004500001
 20
159.6529276375
 30
0.0
 42
0.27376357
  0
VERTEX
  5
A9D
  8
130_VU3
 10
181.87513018999999
 20
160.346946565
 30
0.0
 42
-0.20779875
  0
VERTEX
  5
A9E
  8
130_VU3
 10
183.87238443250001
 20
161.35462058749999
 30
0.0
 42
-0.20779875
  0
VERTEX
  5
A9F
  8
130_VU3
 10
185.9720717825
 20
160.58277573999999
 30
0.0
 42
0.12059
  0
VERTEX
  5
AA0
  8
130_VU3
 10
188.3844279775
 20
159.59414502499999
 30
0.0
 42
0.009784
  0
VERTEX
  5
AA1
  8
130_VU3
 10
191.08448534249999
 20
159.24292083500001
 30
0.0
 42
0.037307
  0
VERTEX
  5
AA2
  8
130_VU3
 10
195.91889453749999
 20
158.75493348250001
 30
0.0
 42
0.39574
  0
VERTEX
  5
AA3
  8
130_VU3
 10
199.11352843750001
 20
161.50254222999999
 30
0.0
  0
VERTEX
  5
AA4
  8
130_VU3
 10
199.16997301250001
 20
162.02889705250001
 30
0.0
  0
VERTEX
  5
AA5
  8
130_VU3
 10
194.89292309250001
 20
162.48755572749999
 30
0.0
  0
VERTEX
  5
AA6
  8
130_VU3
 10
195.05419371249999
 20
163.9914258375
 30
0.0
  0
VERTEX
  5
AA7
  8
130_VU3
 10
199.33124363249999
 20
163.53276715999999
 30
0.0
  0
VERTEX
  5
AA8
  8
130_VU3
 10
199.39413935499999
 20
164.11927642750001
 30
0.0
 42
0.385754
  0
VERTEX
  5
AA9
  8
130_VU3
 10
196.8547380775
 20
167.4817871425
 30
0.0
 42
0.07142
  0
VERTEX
  5
AAA
  8
130_VU3
 10
187.5965703375
 20
167.8990562825
 30
0.0
 42
0.125182
  0
VERTEX
  5
AAB
  8
130_VU3
 10
185.24434306250001
 20
167.13336757499999
 30
0.0
  0
VERTEX
  5
AAC
  8
130_VU3
 10
184.269997805
 20
166.51737646999999
 30
0.0
 42
-0.21135508
  0
VERTEX
  5
AAD
  8
130_VU3
 10
183.58179110500001
 20
166.4153426
 30
0.0
 42
-0.21135508
  0
VERTEX
  5
AAE
  8
130_VU3
 10
183.04343244250001
 20
166.8560344675
 30
0.0
 42
-0.053946
  0
VERTEX
  5
AAF
  8
130_VU3
 10
182.70423034999999
 20
167.7559459675
 30
0.0
 42
0.123631
  0
VERTEX
  5
AB0
  8
130_VU3
 10
163.53219236749999
 20
202.95985949249999
 30
0.0
 42
0.083404
  0
VERTEX
  5
AB1
  8
130_VU3
 10
161.06004525
 20
204.38379249249999
 30
0.0
 42
-0.198146
  0
VERTEX
  5
AB2
  8
130_VU3
 10
157.996624365
 20
207.222700535
 30
0.0
 42
0.150427
  0
VERTEX
  5
AB3
  8
130_VU3
 10
155.3908812725
 20
209.18347790999999
 30
0.0
 42
0.126897
  0
VERTEX
  5
AB4
  8
130_VU3
 10
146.8474005075
 20
209.90861615
 30
0.0
 42
0.151148
  0
VERTEX
  5
AB5
  8
130_VU3
 10
144.40463406500001
 20
208.78958312500001
 30
0.0
  0
VERTEX
  5
AB6
  8
130_VU3
 10
142.78999777000001
 20
207.3457946625
 30
0.0
 42
-0.149472
  0
VERTEX
  5
AB7
  8
130_VU3
 10
141.03923789500001
 20
206.5170868575
 30
0.0
  0
VERTEX
  5
AB8
  8
130_VU3
 10
140.23818629749999
 20
206.39982886999999
 30
0.0
 42
0.118985
  0
VERTEX
  5
AB9
  8
130_VU3
 10
139.0999463775
 20
205.87667905999999
 30
0.0
 42
0.026899
  0
VERTEX
  5
ABA
  8
130_VU3
 10
126.94833011750001
 20
194.66440112250001
 30
0.0
 42
0.111177
  0
VERTEX
  5
ABB
  8
130_VU3
 10
125.86597129499999
 20
192.72939288000001
 30
0.0
 42
-0.25164
  0
VERTEX
  5
ABC
  8
130_VU3
 10
123.5090579925
 20
190.14533276500001
 30
0.0
 42
0.131652
  0
VERTEX
  5
ABD
  8
130_VU3
 10
122.952001255
 20
189.76415260749999
 30
0.0
  0
SEQEND
  5
ABE
  8
130_VU3
  0
POLYLINE
  5
1B8
  8
130_VU3
 66
     1
 10
0.0
 20
0.0
 30
0.0
  0
VERTEX
  5
ABF
  8
130_VU3
 10
79.663250989999995
 20
213.30272977749999
 30
0.0
 42
0.06856
  0
VERTEX
  5
AC0
  8
130_VU3
 10
79.717688414999998
 20
214.0375274825
 30
0.0
 42
0.21954072
  0
VERTEX
  5
AC1
  8
130_VU3
 10
79.033061982500001
 20
214.96764333249999
 30
0.0
 42
0.21954072
  0
VERTEX
  5
AC2
  8
130_VU3
 10
77.881124560000003
 20
215.0505228925
 30
0.0
 42
0.096534
  0
VERTEX
  5
AC3
  8
130_VU3
 10
77.432873657499997
 20
214.68083633250001
 30
0.0
 42
0.216261
  0
VERTEX
  5
AC4
  8
130_VU3
 10
72.635355167499995
 20
196.84213262
 30
0.0
 42
0.336112
  0
VERTEX
  5
AC5
  8
130_VU3
 10
86.452608507500003
 20
186.3708927024999
 30
0.0
  0
VERTEX
  5
AC6
  8
130_VU3
 10
88.203009120000004
 20
186.3708927024999
 30
0.0
 42
0.336112
  0
VERTEX
  5
AC7
  8
130_VU3
 10
102.02026246
 20
196.84213309250001
 30
0.0
 42
0.216261
  0
VERTEX
  5
AC8
  8
130_VU3
 10
97.222743969999996
 20
214.68083680500001
 30
0.0
 42
0.096534
  0
VERTEX
  5
AC9
  8
130_VU3
 10
96.774493539999995
 20
215.0505228925
 30
0.0
 42
0.21954072
  0
VERTEX
  5
ACA
  8
130_VU3
 10
95.622556007499995
 20
214.967643095
 30
0.0
 42
0.21954072
  0
VERTEX
  5
ACB
  8
130_VU3
 10
94.937929682499998
 20
214.03752700999999
 30
0.0
 42
0.06856
  0
VERTEX
  5
ACC
  8
130_VU3
 10
94.992367109999989
 20
213.30272977749999
 30
0.0
 42
-0.025879
  0
VERTEX
  5
ACD
  8
130_VU3
 10
96.226198580000002
 20
205.61364842750001
 30
0.0
 42
-0.279394
  0
VERTEX
  5
ACE
  8
130_VU3
 10
94.535214977500004
 20
201.99864390249999
 30
0.0
 42
-0.10716
  0
VERTEX
  5
ACF
  8
130_VU3
 10
88.084055032500004
 20
199.4602996175
 30
0.0
  0
VERTEX
  5
AD0
  8
130_VU3
 10
88.084055032500004
 20
194.4186572175
 30
0.0
  0
VERTEX
  5
AD1
  8
130_VU3
 10
86.571562595000003
 20
194.4186572175
 30
0.0
  0
VERTEX
  5
AD2
  8
130_VU3
 10
86.571562122499984
 20
199.4602996175
 30
0.0
 42
-0.10716
  0
VERTEX
  5
AD3
  8
130_VU3
 10
80.120402174999995
 20
201.998644375
 30
0.0
 42
-0.279395
  0
VERTEX
  5
AD4
  8
130_VU3
 10
78.429418572499998
 20
205.6136451175
 30
0.0
 42
-0.025879
  0
VERTEX
  5
AD5
  8
130_VU3
 10
79.663249570000005
 20
213.3027231575
 30
0.0
  0
SEQEND
  5
AD6
  8
130_VU3
  0
POLYLINE
  5
1D1
  8
130_VU3
 66
     1
 10
0.0
 20
0.0
 30
0.0
 70
     1
  0
VERTEX
  5
AD7
  8
130_VU3
 10
59.154696420000001
 20
58.12571469249999
 30
0.0
 42
0.188867
  0
VERTEX
  5
AD8
  8
130_VU3
 10
69.593405957499996
 20
56.261709240000002
 30
0.0
 42
0.106043
  0
VERTEX
  5
AD9
  8
130_VU3
 10
80.189389779999985
 20
60.840987347499997
 30
0.0
 42
0.00687
  0
VERTEX
  5
ADA
  8
130_VU3
 10
81.633133807500002
 20
61.900213845000003
 30
0.0
 42
0.37431983
  0
VERTEX
  5
ADB
  8
130_VU3
 10
81.916199602499987
 20
63.856413847500001
 30
0.0
 42
0.37431983
  0
VERTEX
  5
ADC
  8
130_VU3
 10
80.017590844999987
 20
64.406076915
 30
0.0
 42
-0.124888
  0
VERTEX
  5
ADD
  8
130_VU3
 10
72.911865750000004
 20
63.802388700000002
 30
0.0
 42
-0.267407
  0
VERTEX
  5
ADE
  8
130_VU3
 10
66.628329717499994
 20
71.848696302500002
 30
0.0
  0
VERTEX
  5
ADF
  8
130_VU3
 10
61.586687317500001
 20
71.848695829999997
 30
0.0
  0
VERTEX
  5
AE0
  8
130_VU3
 10
61.586687317500001
 20
73.361188740000003
 30
0.0
  0
VERTEX
  5
AE1
  8
130_VU3
 10
66.628329245000003
 20
73.361188267499983
 30
0.0
 42
-0.267407
  0
VERTEX
  5
AE2
  8
130_VU3
 10
72.911865750000004
 20
81.407495872499993
 30
0.0
 42
-0.124888
  0
VERTEX
  5
AE3
  8
130_VU3
 10
80.017590844999987
 20
80.803807657500002
 30
0.0
 42
0.37431983
  0
VERTEX
  5
AE4
  8
130_VU3
 10
81.916199364999997
 20
81.353470927499998
 30
0.0
 42
0.37431983
  0
VERTEX
  5
AE5
  8
130_VU3
 10
81.633133334999997
 20
83.309670727500006
 30
0.0
 42
0.00687
  0
VERTEX
  5
AE6
  8
130_VU3
 10
80.189389779999985
 20
84.368897222499996
 30
0.0
 42
0.113503
  0
VERTEX
  5
AE7
  8
130_VU3
 10
69.593406430000002
 20
88.9481753325
 30
0.0
 42
0.182811
  0
VERTEX
  5
AE8
  8
130_VU3
 10
59.154694057500002
 20
87.084167987499995
 30
0.0
 42
0.26400469
  0
VERTEX
  5
AE9
  8
130_VU3
 10
50.936749527499991
 20
72.604940670000005
 30
0.0
 42
0.26400469
  0
VERTEX
  5
AEA
  8
130_VU3
 10
59.154696420000001
 20
58.12571469249999
 30
0.0
  0
SEQEND
  5
AEB
  8
130_VU3
  0
POLYLINE
  5
1E7
  8
130_VU3
 66
     1
 10
0.0
 20
0.0
 30
0.0
 70
     1
  0
VERTEX
  5
AEC
  8
130_VU3
 10
4.8044648824999987
 20
10.4636502825
 30
0.0
 42
-0.41421356
  0
VERTEX
  5
AED
  8
130_VU3
 10
6.5690398649999988
 20
8.6990753000000005
 30
0.0
 42
-0.41421356
  0
VERTEX
  5
AEE
  8
130_VU3
 10
4.8044648824999987
 20
6.9345003175000004
 30
0.0
 42
-0.41421356
  0
VERTEX
  5
AEF
  8
130_VU3
 10
3.039889899999999
 20
8.6990753000000005
 30
0.0
 42
-0.41421356
  0
VERTEX
  5
AF0
  8
130_VU3
 10
4.8044648824999987
 20
10.4636502825
 30
0.0
  0
SEQEND
  5
AF1
  8
130_VU3
  0
POLYLINE
  5
1EE
  8
130_VU3
 66
     1
 10
0.0
 20
0.0
 30
0.0
 70
     1
  0
VERTEX
  5
AF2
  8
130_VU3
 10
4.8044648824999987
 20
29.354966732499999
 30
0.0
 42
-0.41421356
  0
VERTEX
  5
AF3
  8
130_VU3
 10
6.5690398649999988
 20
27.590391749999998
 30
0.0
 42
-0.41421356
  0
VERTEX
  5
AF4
  8
130_VU3
 10
4.8044648824999987
 20
25.825816767500001
 30
0.0
 42
-0.41421356
  0
VERTEX
  5
AF5
  8
130_VU3
 10
3.039889899999999
 20
27.590391749999998
 30
0.0
 42
-0.41421356
  0
VERTEX
  5
AF6
  8
130_VU3
 10
4.8044648824999987
 20
29.354966732499999
 30
0.0
  0
SEQEND
  5
AF7
  8
130_VU3
  0
POLYLINE
  5
1F5
  8
130_VU3
 66
     1
 10
0.0
 20
0.0
 30
0.0
 70
     1
  0
VERTEX
  5
AF8
  8
130_VU3
 10
12.1466984425
 20
159.70173550749999
 30
0.0
  0
VERTEX
  5
AF9
  8
130_VU3
 10
12.228241840000001
 20
159.54068942750001
 30
0.0
 42
-0.238612
  0
VERTEX
  5
AFA
  8
130_VU3
 10
12.320296062500001
 20
157.26616332
 30
0.0
 42
0.116044
  0
VERTEX
  5
AFB
  8
130_VU3
 10
11.739228692499999
 20
154.35423021
 30
0.0
  0
VERTEX
  5
AFC
  8
130_VU3
 10
17.9264248675
 20
156.51647271749999
 30
0.0
  0
VERTEX
  5
AFD
  8
130_VU3
 10
18.425404270000001
 20
155.08865825250001
 30
0.0
  0
VERTEX
  5
AFE
  8
130_VU3
 10
12.238207624999999
 20
152.92641574500001
 30
0.0
 42
-0.221695
  0
VERTEX
  5
AFF
  8
130_VU3
 10
13.755885747500001
 20
148.89310163499999
 30
0.0
 42
0.26891
  0
VERTEX
  5
B00
  8
130_VU3
 10
15.5666298925
 20
145.134565135
 30
0.0
  0
VERTEX
  5
B01
  8
130_VU3
 10
18.359641530000001
 20
149.92570906
 30
0.0
  0
VERTEX
  5
B02
  8
130_VU3
 10
19.666317490000001
 20
149.16397839749999
 30
0.0
  0
VERTEX
  5
B03
  8
130_VU3
 10
16.961473407500002
 20
144.52407927249999
 30
0.0
 42
0.305474
  0
VERTEX
  5
B04
  8
130_VU3
 10
21.304357447499999
 20
146.18182626250001
 30
0.0
  0
VERTEX
  5
B05
  8
130_VU3
 10
24.979881825
 20
151.40492517249999
 30
0.0
 42
-0.24407771
  0
VERTEX
  5
B06
  8
130_VU3
 10
26.629115447499998
 20
152.26100771
 30
0.0
 42
-0.24407771
  0
VERTEX
  5
B07
  8
130_VU3
 10
28.278349067499999
 20
151.40492517249999
 30
0.0
  0
VERTEX
  5
B08
  8
130_VU3
 10
31.953873444999999
 20
146.18182673499999
 30
0.0
 42
0.305474
  0
VERTEX
  5
B09
  8
130_VU3
 10
36.296757487500003
 20
144.52407880000001
 30
0.0
  0
VERTEX
  5
B0A
  8
130_VU3
 10
33.591913877499998
 20
149.16397839749999
 30
0.0
  0
VERTEX
  5
B0B
  8
130_VU3
 10
34.898589362499997
 20
149.92570906
 30
0.0
  0
VERTEX
  5
B0C
  8
130_VU3
 10
37.691601474999999
 20
145.13456560750001
 30
0.0
 42
0.26891
  0
VERTEX
  5
B0D
  8
130_VU3
 10
39.502345145
 20
148.89310163499999
 30
0.0
 42
-0.221695
  0
VERTEX
  5
B0E
  8
130_VU3
 10
41.020023270000003
 20
152.92641574500001
 30
0.0
  0
VERTEX
  5
B0F
  8
130_VU3
 10
34.832827097500001
 20
155.08865825250001
 30
0.0
  0
VERTEX
  5
B10
  8
130_VU3
 10
35.331806027500001
 20
156.51647271749999
 30
0.0
  0
VERTEX
  5
B11
  8
130_VU3
 10
41.519002200000003
 20
154.3542306825
 30
0.0
 42
0.116044
  0
VERTEX
  5
B12
  8
130_VU3
 10
40.937934832499991
 20
157.26616332
 30
0.0
 42
-0.217461
  0
VERTEX
  5
B13
  8
130_VU3
 10
41.029989055000001
 20
159.54068989999999
 30
0.0
  0
VERTEX
  5
B14
  8
130_VU3
 10
41.111532449999991
 20
159.70173503500001
 30
0.0
 42
0.116166
  0
VERTEX
  5
B15
  8
130_VU3
 10
41.6938889125
 20
162.61649167249999
 30
0.0
  0
VERTEX
  5
B16
  8
130_VU3
 10
35.191350482499999
 20
160.60612173249999
 30
0.0
  0
VERTEX
  5
B17
  8
130_VU3
 10
34.744601397499999
 20
162.05113027249999
 30
0.0
  0
VERTEX
  5
B18
  8
130_VU3
 10
41.247140299999991
 20
164.06149973999999
 30
0.0
 42
-0.218293
  0
VERTEX
  5
B19
  8
130_VU3
 10
40.764602879999991
 20
168.88245404
 30
0.0
 42
0.36397
  0
VERTEX
  5
B1A
  8
130_VU3
 10
39.7159330625
 20
171.60190219
 30
0.0
  0
VERTEX
  5
B1B
  8
130_VU3
 10
36.297139440000009
 20
167.2222650025
 30
0.0
  0
VERTEX
  5
B1C
  8
130_VU3
 10
35.105096949999997
 20
168.15275787749999
 30
0.0
  0
VERTEX
  5
B1D
  8
130_VU3
 10
38.538842087500001
 20
172.5516870475
 30
0.0
 42
0.131652
  0
VERTEX
  5
B1E
  8
130_VU3
 10
35.556036185000011
 20
173.99468040249999
 30
0.0
 42
0.053166
  0
VERTEX
  5
B1F
  8
130_VU3
 10
34.138578440000011
 20
174.11195682499999
 30
0.0
 42
-0.417655
  0
VERTEX
  5
B20
  8
130_VU3
 10
31.873441877499999
 20
175.87219228000001
 30
0.0
 42
0.230038
  0
VERTEX
  5
B21
  8
130_VU3
 10
30.215841430000001
 20
178.46619123249999
 30
0.0
 42
0.120328
  0
VERTEX
  5
B22
  8
130_VU3
 10
29.855856410000001
 20
178.5729001025
 30
0.0
  0
VERTEX
  5
B23
  8
130_VU3
 10
27.385361902500001
 20
178.69323782750001
 30
0.0
  0
VERTEX
  5
B24
  8
130_VU3
 10
27.385361902500001
 20
164.3736960775
 30
0.0
  0
VERTEX
  5
B25
  8
130_VU3
 10
25.872868992499999
 20
164.3736960775
 30
0.0
  0
VERTEX
  5
B26
  8
130_VU3
 10
25.872868992499999
 20
178.69323782750001
 30
0.0
  0
VERTEX
  5
B27
  8
130_VU3
 10
23.402374957500001
 20
178.5729001025
 30
0.0
 42
0.132927
  0
VERTEX
  5
B28
  8
130_VU3
 10
23.042389937500001
 20
178.46619123249999
 30
0.0
 42
0.228719
  0
VERTEX
  5
B29
  8
130_VU3
 10
21.384789489999999
 20
175.87219228000001
 30
0.0
 42
-0.417655
  0
VERTEX
  5
B2A
  8
130_VU3
 10
19.119652452499999
 20
174.11195682499999
 30
0.0
 42
0.053166
  0
VERTEX
  5
B2B
  8
130_VU3
 10
17.702194710000001
 20
173.99468040249999
 30
0.0
 42
0.131652
  0
VERTEX
  5
B2C
  8
130_VU3
 10
14.7193888075
 20
172.5516870475
 30
0.0
  0
VERTEX
  5
B2D
  8
130_VU3
 10
18.153134415
 20
168.15275787749999
 30
0.0
  0
VERTEX
  5
B2E
  8
130_VU3
 10
16.9610919275
 20
167.2222650025
 30
0.0
  0
VERTEX
  5
B2F
  8
130_VU3
 10
13.542297830000001
 20
171.60190219
 30
0.0
 42
0.36397
  0
VERTEX
  5
B30
  8
130_VU3
 10
12.4936280125
 20
168.88245404
 30
0.0
 42
-0.218293
  0
VERTEX
  5
B31
  8
130_VU3
 10
12.011091067500001
 20
164.06150021249999
 30
0.0
  0
VERTEX
  5
B32
  8
130_VU3
 10
18.513629497499998
 20
162.05113027249999
 30
0.0
  0
VERTEX
  5
B33
  8
130_VU3
 10
18.066880885
 20
160.60612173249999
 30
0.0
  0
VERTEX
  5
B34
  8
130_VU3
 10
11.564342455
 20
162.61649167249999
 30
0.0
 42
0.116166
  0
VERTEX
  5
B35
  8
130_VU3
 10
12.1466984425
 20
159.70173550749999
 30
0.0
  0
SEQEND
  5
B36
  8
130_VU3
  0
POLYLINE
  5
235
  8
130_VU3
 66
     1
 10
0.0
 20
0.0
 30
0.0
 70
     1
  0
VERTEX
  5
B37
  8
130_VU3
 10
119.677013785
 20
152.779309095
 30
0.0
 42
-0.33581466
  0
VERTEX
  5
B38
  8
130_VU3
 10
116.0515799925
 20
148.47787614750001
 30
0.0
 42
-0.33581466
  0
VERTEX
  5
B39
  8
130_VU3
 10
110.927603565
 20
150.7997204875
 30
0.0
 42
0.043661
  0
VERTEX
  5
B3A
  8
130_VU3
 10
109.5629150325
 20
153.5434529675
 30
0.0
 42
0.375793
  0
VERTEX
  5
B3B
  8
130_VU3
 10
108.52274511
 20
153.77723292249999
 30
0.0
 42
0.129154
  0
VERTEX
  5
B3C
  8
130_VU3
 10
99.12106052
 20
146.2843511275
 30
0.0
 42
0.079599
  0
VERTEX
  5
B3D
  8
130_VU3
 10
98.910542890000016
 20
145.91057699999999
 30
0.0
 42
0.12106
  0
VERTEX
  5
B3E
  8
130_VU3
 10
98.567915975000005
 20
142.89477462249999
 30
0.0
 42
-0.026692
  0
VERTEX
  5
B3F
  8
130_VU3
 10
98.597748095000014
 20
140.18757358249999
 30
0.0
 42
-0.4018620000000001
  0
VERTEX
  5
B40
  8
130_VU3
 10
95.926218625000004
 20
137.62686088000001
 30
0.0
  0
VERTEX
  5
B41
  8
130_VU3
 10
93.095143475
 20
137.626860405
 30
0.0
 42
0.20491408
  0
VERTEX
  5
B42
  8
130_VU3
 10
90.432045647500004
 20
136.55958415500001
 30
0.0
 42
0.20491408
  0
VERTEX
  5
B43
  8
130_VU3
 10
89.364768045000005
 20
133.89648686749999
 30
0.0
 42
0.216507
  0
VERTEX
  5
B44
  8
130_VU3
 10
103.7189182325
 20
104.14304407749999
 30
0.0
 42
0.113714
  0
VERTEX
  5
B45
  8
130_VU3
 10
105.079590575
 20
103.45458902
 30
0.0
 42
0.356342
  0
VERTEX
  5
B46
  8
130_VU3
 10
109.55727743
 20
106.0915332175
 30
0.0
 42
0.078919
  0
VERTEX
  5
B47
  8
130_VU3
 10
111.2553375825
 20
112.0265820825
 30
0.0
 42
0.087489
  0
VERTEX
  5
B48
  8
130_VU3
 10
110.1431854025
 20
132.8406667575
 30
0.0
 42
-0.21946206
  0
VERTEX
  5
B49
  8
130_VU3
 10
110.471458175
 20
133.89622548
 30
0.0
 42
-0.21946206
  0
VERTEX
  5
B4A
  8
130_VU3
 10
111.487399215
 20
134.3319215125
 30
0.0
  0
VERTEX
  5
B4B
  8
130_VU3
 10
115.7258188375
 20
134.217716795
 30
0.0
 42
0.179527
  0
VERTEX
  5
B4C
  8
130_VU3
 10
117.32729804500001
 20
134.722153225
 30
0.0
 42
0.037976
  0
VERTEX
  5
B4D
  8
130_VU3
 10
118.9970047325
 20
136.23554665500001
 30
0.0
 42
0.06603
  0
VERTEX
  5
B4E
  8
130_VU3
 10
119.31041736500001
 20
136.66841020250001
 30
0.0
  0
VERTEX
  5
B4F
  8
130_VU3
 10
112.3417820825
 20
141.71401112000001
 30
0.0
  0
VERTEX
  5
B50
  8
130_VU3
 10
113.228637185
 20
142.93887423499999
 30
0.0
  0
VERTEX
  5
B51
  8
130_VU3
 10
120.29100388499999
 20
137.82540746750001
 30
0.0
 42
0.021132
  0
VERTEX
  5
B52
  8
130_VU3
 10
120.6044165175
 20
138.25827101249999
 30
0.0
 42
0.034343
  0
VERTEX
  5
B53
  8
130_VU3
 10
121.609770485
 20
140.03153450249999
 30
0.0
 42
0.204163
  0
VERTEX
  5
B54
  8
130_VU3
 10
121.76291276249999
 20
143.484973905
 30
0.0
 42
-0.286911
  0
VERTEX
  5
B55
  8
130_VU3
 10
121.53314994500001
 20
147.11542582000001
 30
0.0
  0
VERTEX
  5
B56
  8
130_VU3
 10
122.2722602325
 20
148.482593745
 30
0.0
 42
0.141433
  0
VERTEX
  5
B57
  8
130_VU3
 10
123.02970384
 20
151.95770525500001
 30
0.0
  0
VERTEX
  5
B58
  8
130_VU3
 10
122.78074547
 20
155.70177240999999
 30
0.0
 42
0.390263
  0
VERTEX
  5
B59
  8
130_VU3
 10
121.2563514775
 20
157.02284349749999
 30
0.0
 42
0.394844
  0
VERTEX
  5
B5A
  8
130_VU3
 10
119.8142066475
 20
155.6124424475
 30
0.0
 42
-0.001984
  0
VERTEX
  5
B5B
  8
130_VU3
 10
119.677013785
 20
152.779309095
 30
0.0
  0
SEQEND
  5
B5C
  8
130_VU3
  0
POLYLINE
  5
25C
  8
130_VU3
 66
     1
 10
0.0
 20
0.0
 30
0.0
 70
     1
  0
VERTEX
  5
B5D
  8
130_VU3
 10
35.95444398250001
 20
116.07078850000001
 30
0.0
 42
0.161701
  0
VERTEX
  5
B5E
  8
130_VU3
 10
47.157661384999997
 20
94.541356937499998
 30
0.0
 42
0.20471058
  0
VERTEX
  5
B5F
  8
130_VU3
 10
59.599050675000001
 20
89.189201019999985
 30
0.0
 42
0.20471058
  0
VERTEX
  5
B60
  8
130_VU3
 10
72.066160045000004
 20
94.481168929999995
 30
0.0
 42
0.404026
  0
VERTEX
  5
B61
  8
130_VU3
 10
72.005972982499983
 20
119.3896666425
 30
0.0
 42
0.161701
  0
VERTEX
  5
B62
  8
130_VU3
 10
50.476542365
 20
130.59288451750001
 30
0.0
 42
0.35823428
  0
VERTEX
  5
B63
  8
130_VU3
 10
49.069928667500001
 20
129.57065503749999
 30
0.0
 42
0.35823428
  0
VERTEX
  5
B64
  8
130_VU3
 10
49.800497977500001
 20
127.9927501925
 30
0.0
 42
-0.146363
  0
VERTEX
  5
B65
  8
130_VU3
 10
63.703677257499997
 20
118.7275839025
 30
0.0
 42
-0.36397
  0
VERTEX
  5
B66
  8
130_VU3
 10
63.617956947499998
 20
103.9988659
 30
0.0
  0
VERTEX
  5
B67
  8
130_VU3
 10
66.933388052500007
 20
100.6834352675
 30
0.0
  0
VERTEX
  5
B68
  8
130_VU3
 10
65.863893707499997
 20
99.613941392499996
 30
0.0
  0
VERTEX
  5
B69
  8
130_VU3
 10
62.548462602500003
 20
102.92937202500001
 30
0.0
 42
-0.380401
  0
VERTEX
  5
B6A
  8
130_VU3
 10
47.819744125
 20
102.84365266250001
 30
0.0
 42
-0.131652
  0
VERTEX
  5
B6B
  8
130_VU3
 10
38.554578307500002
 20
116.74683194249999
 30
0.0
 42
0.35823428
  0
VERTEX
  5
B6C
  8
130_VU3
 10
36.976672964999999
 20
117.47739968250001
 30
0.0
 42
0.35823428
  0
VERTEX
  5
B6D
  8
130_VU3
 10
35.954444927499999
 20
116.07078519
 30
0.0
  0
VERTEX
  5
B6E
  8
130_VU3
 10
35.95444398250001
 20
116.07078850000001
 30
0.0
  0
SEQEND
  5
B6F
  8
130_VU3
  0
POLYLINE
  5
270
  8
130_VU3
 66
     1
 10
0.0
 20
0.0
 30
0.0
 70
     1
  0
VERTEX
  5
B70
  8
130_VU3
 10
32.0976115275
 20
244.913680075
 30
0.0
  0
VERTEX
  5
B71
  8
130_VU3
 10
31.598837755000002
 20
245.049529955
 30
0.0
 42
0.026224
  0
VERTEX
  5
B72
  8
130_VU3
 10
27.741102885
 20
245.86921362499999
 30
0.0
  0
VERTEX
  5
B73
  8
130_VU3
 10
26.8401707925
 20
239.18183593500001
 30
0.0
  0
VERTEX
  5
B74
  8
130_VU3
 10
26.80438766
 20
239.00066494500001
 30
0.0
  0
VERTEX
  5
B75
  8
130_VU3
 10
25.341219760000001
 20
239.38377661749999
 30
0.0
  0
VERTEX
  5
B76
  8
130_VU3
 10
26.242739910000001
 20
246.07552078250001
 30
0.0
 42
0.05843
  0
VERTEX
  5
B77
  8
130_VU3
 10
17.479158630000001
 20
246.07552078250001
 30
0.0
  0
VERTEX
  5
B78
  8
130_VU3
 10
18.380680672499999
 20
239.38377661749999
 30
0.0
  0
VERTEX
  5
B79
  8
130_VU3
 10
16.9175127725
 20
239.00066494500001
 30
0.0
  0
VERTEX
  5
B7A
  8
130_VU3
 10
16.88172964
 20
239.18183593500001
 30
0.0
  0
VERTEX
  5
B7B
  8
130_VU3
 10
15.980795655
 20
245.86921362499999
 30
0.0
 42
0.028284
  0
VERTEX
  5
B7C
  8
130_VU3
 10
12.1230626775
 20
245.049529955
 30
0.0
  0
VERTEX
  5
B7D
  8
130_VU3
 10
11.624288905
 20
244.913680075
 30
0.0
 42
0.417901
  0
VERTEX
  5
B7E
  8
130_VU3
 10
10.919792725000001
 20
243.66359901499999
 30
0.0
  0
VERTEX
  5
B7F
  8
130_VU3
 10
13.832710972499999
 20
233.47571837999999
 30
0.0
  0
VERTEX
  5
B80
  8
130_VU3
 10
12.3784920475
 20
233.05992789499999
 30
0.0
  0
VERTEX
  5
B81
  8
130_VU3
 10
10.464296514999999
 20
239.75479339750001
 30
0.0
  0
VERTEX
  5
B82
  8
130_VU3
 10
8.4883586874999981
 20
238.9216430125
 30
0.0
 42
0.348187
  0
VERTEX
  5
B83
  8
130_VU3
 10
7.8860621450000004
 20
237.8234685525
 30
0.0
 42
0.015215
  0
VERTEX
  5
B84
  8
130_VU3
 10
11.0172231375
 20
225.5882705475
 30
0.0
 42
0.195817
  0
VERTEX
  5
B85
  8
130_VU3
 10
12.26635924
 20
224.00412392000001
 30
0.0
 42
0.2212707
  0
VERTEX
  5
B86
  8
130_VU3
 10
14.887119784999999
 20
223.79182843250001
 30
0.0
 42
0.2212707
  0
VERTEX
  5
B87
  8
130_VU3
 10
16.737362375
 20
225.65999801000001
 30
0.0
 42
-0.24059
  0
VERTEX
  5
B88
  8
130_VU3
 10
21.10470376
 20
229.7575546075
 30
0.0
  0
VERTEX
  5
B89
  8
130_VU3
 10
21.10470376
 20
237.44140677999999
 30
0.0
  0
VERTEX
  5
B8A
  8
130_VU3
 10
22.617196669999998
 20
237.44140677999999
 30
0.0
  0
VERTEX
  5
B8B
  8
130_VU3
 10
22.6171961975
 20
229.7575546075
 30
0.0
 42
-0.24059
  0
VERTEX
  5
B8C
  8
130_VU3
 10
26.9845380575
 20
225.65999848249999
 30
0.0
 42
0.2212707
  0
VERTEX
  5
B8D
  8
130_VU3
 10
28.834780299999998
 20
223.79182878
 30
0.0
 42
0.2212707
  0
VERTEX
  5
B8E
  8
130_VU3
 10
31.4555407175
 20
224.00412392000001
 30
0.0
 42
0.169133
  0
VERTEX
  5
B8F
  8
130_VU3
 10
32.704676820000003
 20
225.588268185
 30
0.0
 42
0.04106
  0
VERTEX
  5
B90
  8
130_VU3
 10
35.835837339999998
 20
237.8234657175
 30
0.0
 42
0.348186
  0
VERTEX
  5
B91
  8
130_VU3
 10
35.233541744999997
 20
238.9216430125
 30
0.0
  0
VERTEX
  5
B92
  8
130_VU3
 10
33.257603442499999
 20
239.75479339750001
 30
0.0
  0
VERTEX
  5
B93
  8
130_VU3
 10
31.343408385
 20
233.05992789499999
 30
0.0
  0
VERTEX
  5
B94
  8
130_VU3
 10
29.889189457499999
 20
233.47571837999999
 30
0.0
  0
VERTEX
  5
B95
  8
130_VU3
 10
32.800386549999999
 20
243.65758181999999
 30
0.0
 42
0.4197290000000001
  0
VERTEX
  5
B96
  8
130_VU3
 10
32.0976115275
 20
244.913680075
 30
0.0
  0
SEQEND
  5
B97
  8
130_VU3
  0
POLYLINE
  5
299
  8
130_VU3
 66
     1
 10
0.0
 20
0.0
 30
0.0
 70
     1
  0
VERTEX
  5
B98
  8
130_VU3
 10
26.315391057500001
 20
10.330187615
 30
0.0
 42
0.41421356
  0
VERTEX
  5
B99
  8
130_VU3
 10
28.836212257500001
 20
12.851008815
 30
0.0
 42
0.41421356
  0
VERTEX
  5
B9A
  8
130_VU3
 10
26.315391057500001
 20
15.371830015
 30
0.0
  0
VERTEX
  5
B9B
  8
130_VU3
 10
21.273748657500001
 20
15.371830015
 30
0.0
 42
0.41421356
  0
VERTEX
  5
B9C
  8
130_VU3
 10
18.7529274575
 20
12.851008815
 30
0.0
 42
0.41421356
  0
VERTEX
  5
B9D
  8
130_VU3
 10
21.273748657500001
 20
10.330187615
 30
0.0
  0
VERTEX
  5
B9E
  8
130_VU3
 10
26.315391057500001
 20
10.330187615
 30
0.0
  0
SEQEND
  5
B9F
  8
130_VU3
  0
POLYLINE
  5
2A2
  8
130_VU3
 66
     1
 10
0.0
 20
0.0
 30
0.0
 70
     1
  0
VERTEX
  5
BA0
  8
130_VU3
 10
21.273748657500001
 20
20.917637034999998
 30
0.0
  0
VERTEX
  5
BA1
  8
130_VU3
 10
26.315391057500001
 20
20.917637034999998
 30
0.0
 42
0.41421356
  0
VERTEX
  5
BA2
  8
130_VU3
 10
28.836212257500001
 20
23.438458234999999
 30
0.0
 42
0.41421356
  0
VERTEX
  5
BA3
  8
130_VU3
 10
26.315391057500001
 20
25.959279434999999
 30
0.0
  0
VERTEX
  5
BA4
  8
130_VU3
 10
21.273748657500001
 20
25.959279434999999
 30
0.0
 42
0.41421356
  0
VERTEX
  5
BA5
  8
130_VU3
 10
18.7529274575
 20
23.438458234999999
 30
0.0
 42
0.41421356
  0
VERTEX
  5
BA6
  8
130_VU3
 10
21.273748657500001
 20
20.917637034999998
 30
0.0
  0
SEQEND
  5
BA7
  8
130_VU3
  0
POLYLINE
  5
2AB
  8
130_VU3
 66
     1
 10
0.0
 20
0.0
 30
0.0
 70
     1
  0
VERTEX
  5
BA8
  8
130_VU3
 10
139.52136690250001
 20
62.108888832499993
 30
0.0
 42
0.27376357
  0
VERTEX
  5
BA9
  8
130_VU3
 10
137.9767560025
 20
63.480839937500001
 30
0.0
 42
0.27376357
  0
VERTEX
  5
BAA
  8
130_VU3
 10
136.03088599750001
 20
62.7868207725
 30
0.0
 42
-0.20779875
  0
VERTEX
  5
BAB
  8
130_VU3
 10
134.03363152
 20
61.779146647499999
 30
0.0
 42
-0.20779875
  0
VERTEX
  5
BAC
  8
130_VU3
 10
131.9339439325
 20
62.550991597500001
 30
0.0
 42
0.12059
  0
VERTEX
  5
BAD
  8
130_VU3
 10
129.521585375
 20
63.539622787500001
 30
0.0
 42
0.009784
  0
VERTEX
  5
BAE
  8
130_VU3
 10
126.82152659
 20
63.890846975000002
 30
0.0
 42
0.037307
  0
VERTEX
  5
BAF
  8
130_VU3
 10
121.98712023
 20
64.378833854999996
 30
0.0
 42
0.395739
  0
VERTEX
  5
BB0
  8
130_VU3
 10
118.79248775000001
 20
61.631225107500001
 30
0.0
  0
VERTEX
  5
BB1
  8
130_VU3
 10
118.73604317500001
 20
61.104870759999997
 30
0.0
  0
VERTEX
  5
BB2
  8
130_VU3
 10
123.01309356749999
 20
60.646211610000002
 30
0.0
  0
VERTEX
  5
BB3
  8
130_VU3
 10
122.85182247500001
 20
59.142341502500003
 30
0.0
  0
VERTEX
  5
BB4
  8
130_VU3
 10
118.574772555
 20
59.601000177499998
 30
0.0
  0
VERTEX
  5
BB5
  8
130_VU3
 10
118.51187683249999
 20
59.014490909999992
 30
0.0
 42
0.385754
  0
VERTEX
  5
BB6
  8
130_VU3
 10
121.0512766925
 20
55.651980667499991
 30
0.0
 42
0.07142
  0
VERTEX
  5
BB7
  8
130_VU3
 10
130.30944443249999
 20
55.234711054999998
 30
0.0
 42
0.125182
  0
VERTEX
  5
BB8
  8
130_VU3
 10
132.66167265249999
 20
56.000399762500003
 30
0.0
  0
VERTEX
  5
BB9
  8
130_VU3
 10
133.6360183825
 20
56.616390867500002
 30
0.0
 42
-0.21135508
  0
VERTEX
  5
BBA
  8
130_VU3
 10
134.32422508249999
 20
56.718424737500001
 30
0.0
 42
-0.21135508
  0
VERTEX
  5
BBB
  8
130_VU3
 10
134.86258374499999
 20
56.277732870000001
 30
0.0
 42
-0.053946
  0
VERTEX
  5
BBC
  8
130_VU3
 10
135.2017848925
 20
55.377825152500002
 30
0.0
 42
0.123631
  0
VERTEX
  5
BBD
  8
130_VU3
 10
154.37382098250001
 20
20.173911154999999
 30
0.0
 42
0.083405
  0
VERTEX
  5
BBE
  8
130_VU3
 10
156.84597046499999
 20
18.749975320000001
 30
0.0
 42
-0.198146
  0
VERTEX
  5
BBF
  8
130_VU3
 10
159.9093918225
 20
15.911067747500001
 30
0.0
 42
0.150427
  0
VERTEX
  5
BC0
  8
130_VU3
 10
162.51513396999999
 20
13.9502899025
 30
0.0
 42
0.126897
  0
VERTEX
  5
BC1
  8
130_VU3
 10
171.05861473499999
 20
13.2251511875
 30
0.0
 42
0.151148
  0
VERTEX
  5
BC2
  8
130_VU3
 10
173.50138212249999
 20
14.3441842125
 30
0.0
  0
VERTEX
  5
BC3
  8
130_VU3
 10
175.11601841749999
 20
15.787972675000001
 30
0.0
 42
-0.149472
  0
VERTEX
  5
BC4
  8
130_VU3
 10
176.86677829249999
 20
16.616680955
 30
0.0
  0
VERTEX
  5
BC5
  8
130_VU3
 10
177.66782989000001
 20
16.7339384675
 30
0.0
 42
0.118986
  0
VERTEX
  5
BC6
  8
130_VU3
 10
178.80606650249999
 20
17.257085442499999
 30
0.0
 42
0.026898
  0
VERTEX
  5
BC7
  8
130_VU3
 10
190.95768276250001
 20
28.469362435000001
 30
0.0
 42
0.111178
  0
VERTEX
  5
BC8
  8
130_VU3
 10
192.04004489249999
 20
30.40437446
 30
0.0
 42
-0.25164
  0
VERTEX
  5
BC9
  8
130_VU3
 10
194.39695772249999
 20
32.988434572499997
 30
0.0
 42
0.125472
  0
VERTEX
  5
BCA
  8
130_VU3
 10
194.9540149325
 20
33.369614257499997
 30
0.0
 42
0.042086
  0
VERTEX
  5
BCB
  8
130_VU3
 10
205.34319714
 20
47.412817967499997
 30
0.0
 42
0.131652
  0
VERTEX
  5
BCC
  8
130_VU3
 10
205.5598057075
 20
47.97426008499999
 30
0.0
 42
-0.264718
  0
VERTEX
  5
BCD
  8
130_VU3
 10
207.99399095000001
 20
50.542413799999999
 30
0.0
 42
0.131652
  0
VERTEX
  5
BCE
  8
130_VU3
 10
208.63227105499999
 20
50.852306122500011
 30
0.0
 42
0.031512
  0
VERTEX
  5
BCF
  8
130_VU3
 10
217.4922749175
 20
58.84000648
 30
0.0
 42
-0.131652
  0
VERTEX
  5
BD0
  8
130_VU3
 10
228.47914327250001
 20
65.349502807500002
 30
0.0
 42
0.4142140000000001
  0
VERTEX
  5
BD1
  8
130_VU3
 10
229.3064598775
 20
67.122257182499993
 30
0.0
 42
0.389149
  0
VERTEX
  5
BD2
  8
130_VU3
 10
227.53370502999999
 20
67.949572842500004
 30
0.0
 42
0.153915
  0
VERTEX
  5
BD3
  8
130_VU3
 10
206.427868485
 20
53.166062877500003
 30
0.0
 42
-0.21594
  0
VERTEX
  5
BD4
  8
130_VU3
 10
204.3827776025
 20
51.339741817499998
 30
0.0
 42
0.075548
  0
VERTEX
  5
BD5
  8
130_VU3
 10
202.11331002
 20
50.231098604999993
 30
0.0
 42
0.079712
  0
VERTEX
  5
BD6
  8
130_VU3
 10
191.54672342000001
 20
36.528986430000003
 30
0.0
 42
0.043661
  0
VERTEX
  5
BD7
  8
130_VU3
 10
191.39450671750001
 20
36.091529982499999
 30
0.0
 42
-0.289789
  0
VERTEX
  5
BD8
  8
130_VU3
 10
188.62350565
 20
32.982649954999999
 30
0.0
 42
0.131652
  0
VERTEX
  5
BD9
  8
130_VU3
 10
188.30555258499999
 20
32.8142933325
 30
0.0
 42
0.042678
  0
VERTEX
  5
BDA
  8
130_VU3
 10
175.24704990999999
 20
20.986623219999998
 30
0.0
 42
0.131652
  0
VERTEX
  5
BDB
  8
130_VU3
 10
175.04014713250001
 20
20.670600252500002
 30
0.0
 42
-0.399625
  0
VERTEX
  5
BDC
  8
130_VU3
 10
171.09614171499999
 20
19.0268560375
 30
0.0
 42
0.039573
  0
VERTEX
  5
BDD
  8
130_VU3
 10
170.8621329675
 20
19.09576659
 30
0.0
 42
0.080143
  0
VERTEX
  5
BDE
  8
130_VU3
 10
164.61693840250001
 20
19.342623267499999
 30
0.0
 42
-0.083421
  0
VERTEX
  5
BDF
  8
130_VU3
 10
164.33697463499999
 20
19.355515632500001
 30
0.0
 42
-0.261449
  0
VERTEX
  5
BE0
  8
130_VU3
 10
159.64683485250001
 20
23.50177231
 30
0.0
 42
-0.085425
  0
VERTEX
  5
BE1
  8
130_VU3
 10
139.52136690250001
 20
62.108888832499993
 30
0.0
  0
SEQEND
  5
BE2
  8
130_VU3
  0
POLYLINE
  5
2E7
  8
130_VU3
 66
     1
 10
0.0
 20
0.0
 30
0.0
 70
     1
  0
VERTEX
  5
BE3
  8
130_VU3
 10
46.56029195499999
 20
218.34000901499999
 30
0.0
 42
-0.078434
  0
VERTEX
  5
BE4
  8
130_VU3
 10
46.05608763
 20
225.4855651025
 30
0.0
 42
-0.162362
  0
VERTEX
  5
BE5
  8
130_VU3
 10
48.553851665000003
 20
231.4572030825
 30
0.0
 42
-0.196318
  0
VERTEX
  5
BE6
  8
130_VU3
 10
57.015496894999998
 20
235.70253758499999
 30
0.0
  0
VERTEX
  5
BE7
  8
130_VU3
 10
57.015496894999998
 20
239.11146091000001
 30
0.0
  0
VERTEX
  5
BE8
  8
130_VU3
 10
58.527989804999997
 20
239.11146091000001
 30
0.0
  0
VERTEX
  5
BE9
  8
130_VU3
 10
58.527989804999997
 20
235.70253758499999
 30
0.0
 42
-0.202484
  0
VERTEX
  5
BEA
  8
130_VU3
 10
66.989634559999999
 20
231.45720402750001
 30
0.0
 42
-0.166464
  0
VERTEX
  5
BEB
  8
130_VU3
 10
69.487399069999995
 20
225.48556652249999
 30
0.0
 42
-0.068457
  0
VERTEX
  5
BEC
  8
130_VU3
 10
68.983195217499997
 20
218.34001137749999
 30
0.0
 42
-0.018994
  0
VERTEX
  5
BED
  8
130_VU3
 10
66.645226454999985
 20
208.96531647
 30
0.0
  0
VERTEX
  5
BEE
  8
130_VU3
 10
66.59283825
 20
208.7847567025
 30
0.0
 42
0.36976779
  0
VERTEX
  5
BEF
  8
130_VU3
 10
67.343987064999993
 20
207.12930570500001
 30
0.0
 42
0.36976779
  0
VERTEX
  5
BF0
  8
130_VU3
 10
69.095112465
 20
207.61746794999999
 30
0.0
  0
VERTEX
  5
BF1
  8
130_VU3
 10
69.139762792499994
 20
207.68420212000001
 30
0.0
 42
0.087489
  0
VERTEX
  5
BF2
  8
130_VU3
 10
75.334918544999994
 20
221.77458329250001
 30
0.0
 42
0.107635
  0
VERTEX
  5
BF3
  8
130_VU3
 10
75.753251767500004
 20
233.96440487999999
 30
0.0
 42
0.051832
  0
VERTEX
  5
BF4
  8
130_VU3
 10
75.391294105
 20
235.20578467000001
 30
0.0
 42
0.131653
  0
VERTEX
  5
BF5
  8
130_VU3
 10
70.891184469999999
 20
242.39329140999999
 30
0.0
 42
0.080315
  0
VERTEX
  5
BF6
  8
130_VU3
 10
66.890832327499993
 20
245.067816475
 30
0.0
 42
0.04869
  0
VERTEX
  5
BF7
  8
130_VU3
 10
64.273762974999997
 20
245.89053167
 30
0.0
 42
0.056656
  0
VERTEX
  5
BF8
  8
130_VU3
 10
57.771742167500001
 20
246.58775323250001
 30
0.0
 42
0.03667
  0
VERTEX
  5
BF9
  8
130_VU3
 10
51.269722305000002
 20
245.8905311975
 30
0.0
 42
0.062307
  0
VERTEX
  5
BFA
  8
130_VU3
 10
48.652653427499992
 20
245.0678160025
 30
0.0
 42
0.080315
  0
VERTEX
  5
BFB
  8
130_VU3
 10
44.652301285
 20
242.39329046500001
 30
0.0
 42
0.131652
  0
VERTEX
  5
BFC
  8
130_VU3
 10
40.152192595000002
 20
235.205783725
 30
0.0
 42
0.05637
  0
VERTEX
  5
BFD
  8
130_VU3
 10
39.790234932499999
 20
233.9644034625
 30
0.0
 42
0.10306
  0
VERTEX
  5
BFE
  8
130_VU3
 10
40.208568155000002
 20
221.77458376499999
 30
0.0
 42
0.087945
  0
VERTEX
  5
BFF
  8
130_VU3
 10
46.403722962499991
 20
207.6842040125
 30
0.0
  0
VERTEX
  5
C00
  8
130_VU3
 10
46.448374707500001
 20
207.61746794999999
 30
0.0
 42
0.36976779
  0
VERTEX
  5
C01
  8
130_VU3
 10
48.1995001075
 20
207.12930570500001
 30
0.0
 42
0.36976779
  0
VERTEX
  5
C02
  8
130_VU3
 10
48.950648922500001
 20
208.7847567025
 30
0.0
  0
VERTEX
  5
C03
  8
130_VU3
 10
48.898259299999999
 20
208.96532167000001
 30
0.0
 42
-0.018632
  0
VERTEX
  5
C04
  8
130_VU3
 10
46.56029195499999
 20
218.34000901499999
 30
0.0
  0
SEQEND
  5
C05
  8
130_VU3
  0
POLYLINE
  5
30B
  8
130_VU3
 66
     1
 10
0.0
 20
0.0
 30
0.0
 70
     1
  0
VERTEX
  5
C06
  8
130_VU3
 10
11.3061751175
 20
216.49673401999999
 30
0.0
  0
VERTEX
  5
C07
  8
130_VU3
 10
15.507794322500001
 20
184.04134442
 30
0.0
 42
0.37698936
  0
VERTEX
  5
C08
  8
130_VU3
 10
18.04342333
 20
181.81281304749999
 30
0.0
 42
0.37698936
  0
VERTEX
  5
C09
  8
130_VU3
 10
20.57905234
 20
184.04134442
 30
0.0
  0
VERTEX
  5
C0A
  8
130_VU3
 10
20.57905234
 20
197.28382081500001
 30
0.0
  0
VERTEX
  5
C0B
  8
130_VU3
 10
22.091544774999999
 20
197.28382081500001
 30
0.0
  0
VERTEX
  5
C0C
  8
130_VU3
 10
22.091544774999999
 20
184.04134442
 30
0.0
 42
0.37698936
  0
VERTEX
  5
C0D
  8
130_VU3
 10
24.6271735475
 20
181.81281325500001
 30
0.0
 42
0.37698936
  0
VERTEX
  5
C0E
  8
130_VU3
 10
27.162802320000001
 20
184.04134442
 30
0.0
  0
VERTEX
  5
C0F
  8
130_VU3
 10
31.364421527499999
 20
216.49673401999999
 30
0.0
 42
0.378765
  0
VERTEX
  5
C10
  8
130_VU3
 10
28.1382948575
 20
219.881608425
 30
0.0
  0
VERTEX
  5
C11
  8
130_VU3
 10
26.016784340000001
 20
220.06295384750001
 30
0.0
 42
-0.3070089999999999
  0
VERTEX
  5
C12
  8
130_VU3
 10
25.515653137499999
 20
220.46904610499999
 30
0.0
  0
VERTEX
  5
C13
  8
130_VU3
 10
24.324921487499999
 20
224.40140003499999
 30
0.0
 42
0.28295224
  0
VERTEX
  5
C14
  8
130_VU3
 10
21.335298412499998
 20
226.24048129249999
 30
0.0
 42
0.28295224
  0
VERTEX
  5
C15
  8
130_VU3
 10
18.3456756275
 20
224.40139956249999
 30
0.0
  0
VERTEX
  5
C16
  8
130_VU3
 10
17.1549439775
 20
220.46904610499999
 30
0.0
 42
-0.3070089999999999
  0
VERTEX
  5
C17
  8
130_VU3
 10
16.653812774999999
 20
220.06295384750001
 30
0.0
  0
VERTEX
  5
C18
  8
130_VU3
 10
14.5323022575
 20
219.881608425
 30
0.0
 42
0.378765
  0
VERTEX
  5
C19
  8
130_VU3
 10
11.3061751175
 20
216.49673401999999
 30
0.0
  0
SEQEND
  5
C1A
  8
130_VU3
  0
POLYLINE
  5
321
  8
130_VU3
 66
     1
 10
0.0
 20
0.0
 30
0.0
 70
     1
  0
VERTEX
  5
C1B
  8
130_VU3
 10
91.775942449999988
 20
44.237173042499997
 30
0.0
 42
-0.33581466
  0
VERTEX
  5
C1C
  8
130_VU3
 10
93.711558187500003
 20
49.519169502499999
 30
0.0
 42
-0.33581466
  0
VERTEX
  5
C1D
  8
130_VU3
 10
99.320638572500002
 20
49.089853632500002
 30
0.0
 42
0.043661
  0
VERTEX
  5
C1E
  8
130_VU3
 10
101.54143869249999
 20
46.978339152499998
 30
0.0
 42
0.375793
  0
VERTEX
  5
C1F
  8
130_VU3
 10
102.59883625499999
 20
47.114415465
 30
0.0
 42
0.129154
  0
VERTEX
  5
C20
  8
130_VU3
 10
108.87081345
 20
57.370986834999997
 30
0.0
 42
0.079599
  0
VERTEX
  5
C21
  8
130_VU3
 10
108.940797065
 20
57.79422117
 30
0.0
 42
0.12106
  0
VERTEX
  5
C22
  8
130_VU3
 10
108.23129577500001
 20
60.745334817500002
 30
0.0
 42
-0.026692
  0
VERTEX
  5
C23
  8
130_VU3
 10
107.27734535
 20
63.27906870999999
 30
0.0
 42
-0.4018620000000001
  0
VERTEX
  5
C24
  8
130_VU3
 10
108.911946775
 20
66.599067662500005
 30
0.0
  0
VERTEX
  5
C25
  8
130_VU3
 10
111.57228754499999
 20
67.567352709999994
 30
0.0
 42
0.20491408
  0
VERTEX
  5
C26
  8
130_VU3
 10
113.70975124500001
 20
69.481098657499999
 30
0.0
 42
0.20491408
  0
VERTEX
  5
C27
  8
130_VU3
 10
113.80183053499999
 20
72.348623029999985
 30
0.0
 42
0.216507
  0
VERTEX
  5
C28
  8
130_VU3
 10
90.137062950000001
 20
95.398303812500004
 30
0.0
 42
0.113714
  0
VERTEX
  5
C29
  8
130_VU3
 10
88.622985499999999
 20
95.579861484999995
 30
0.0
 42
0.356342
  0
VERTEX
  5
C2A
  8
130_VU3
 10
85.317224259999989
 20
91.570484734999994
 30
0.0
 42
0.078919
  0
VERTEX
  5
C2B
  8
130_VU3
 10
85.751475697499984
 20
85.412594549999994
 30
0.0
 42
0.087489
  0
VERTEX
  5
C2C
  8
130_VU3
 10
93.915392042499988
 20
66.234131419999997
 30
0.0
 42
-0.21946206
  0
VERTEX
  5
C2D
  8
130_VU3
 10
93.967940104999997
 20
65.129954400000003
 30
0.0
 42
-0.21946206
  0
VERTEX
  5
C2E
  8
130_VU3
 10
93.162285127499985
 20
64.373060582500003
 30
0.0
  0
VERTEX
  5
C2F
  8
130_VU3
 10
89.140413092499998
 20
63.03075323249999
 30
0.0
 42
0.179527
  0
VERTEX
  5
C30
  8
130_VU3
 10
87.808041744999997
 20
62.00899888
 30
0.0
 42
0.037976
  0
VERTEX
  5
C31
  8
130_VU3
 10
86.756641994999995
 20
60.015801269999997
 30
0.0
 42
0.06603
  0
VERTEX
  5
C32
  8
130_VU3
 10
86.61017871
 20
59.501849552499998
 30
0.0
  0
VERTEX
  5
C33
  8
130_VU3
 10
94.884250965000007
 20
57.143949222499998
 30
0.0
  0
VERTEX
  5
C34
  8
130_VU3
 10
94.469807720000006
 20
55.689631972500003
 30
0.0
  0
VERTEX
  5
C35
  8
130_VU3
 10
86.084445037500004
 20
58.0792472475
 30
0.0
 42
0.021132
  0
VERTEX
  5
C36
  8
130_VU3
 10
85.937981280000017
 20
57.565294112499991
 30
0.0
 42
0.034343
  0
VERTEX
  5
C37
  8
130_VU3
 10
85.599749672499996
 20
55.555120350000003
 30
0.0
 42
0.204163
  0
VERTEX
  5
C38
  8
130_VU3
 10
86.636989235000001
 20
52.257572064999991
 30
0.0
 42
-0.286911
  0
VERTEX
  5
C39
  8
130_VU3
 10
88.094582875
 20
48.924646712499992
 30
0.0
  0
VERTEX
  5
C3A
  8
130_VU3
 10
87.867645475000003
 20
47.387138179999987
 30
0.0
 42
0.141433
  0
VERTEX
  5
C3B
  8
130_VU3
 10
88.344439875000006
 20
43.862540937499993
 30
0.0
  0
VERTEX
  5
C3C
  8
130_VU3
 10
89.858930479999984
 20
40.42941742
 30
0.0
 42
0.3902649999999999
  0
VERTEX
  5
C3D
  8
130_VU3
 10
91.743224877499998
 20
39.709390652499998
 30
0.0
 42
0.394842
  0
VERTEX
  5
C3E
  8
130_VU3
 10
92.616008189999988
 20
41.527988014999998
 30
0.0
 42
-0.001984
  0
VERTEX
  5
C3F
  8
130_VU3
 10
91.775942449999988
 20
44.237173042499997
 30
0.0
  0
SEQEND
  5
C40
  8
130_VU3
  0
POLYLINE
  5
348
  8
130_VU3
 66
     1
 10
0.0
 20
0.0
 30
0.0
 70
     1
  0
VERTEX
  5
C41
  8
130_VU3
 10
16.856090505000001
 20
71.968605749999995
 30
0.0
 42
0.37208
  0
VERTEX
  5
C42
  8
130_VU3
 10
17.259990307500001
 20
66.243199044999997
 30
0.0
  0
VERTEX
  5
C43
  8
130_VU3
 10
19.024379512500001
 20
64.469777669999985
 30
0.0
  0
VERTEX
  5
C44
  8
130_VU3
 10
19.105395359999999
 20
64.418665794999995
 30
0.0
  0
VERTEX
  5
C45
  8
130_VU3
 10
25.558104392499999
 20
74.646664834999996
 30
0.0
  0
VERTEX
  5
C46
  8
130_VU3
 10
26.836620227499999
 20
73.840066397499996
 30
0.0
  0
VERTEX
  5
C47
  8
130_VU3
 10
11.403415024999999
 20
49.377348702500001
 30
0.0
 42
0.161943
  0
VERTEX
  5
C48
  8
130_VU3
 10
11.153532025000001
 20
48.39392683749999
 30
0.0
  0
VERTEX
  5
C49
  8
130_VU3
 10
11.185235625000001
 20
47.956009017500001
 30
0.0
 42
0.258337
  0
VERTEX
  5
C4A
  8
130_VU3
 10
13.542252449999999
 20
44.341812365000003
 30
0.0
 42
-0.157487
  0
VERTEX
  5
C4B
  8
130_VU3
 10
15.836205742500001
 20
42.107923702500003
 30
0.0
 42
-0.031595
  0
VERTEX
  5
C4C
  8
130_VU3
 10
16.023992854999999
 20
41.69087863
 30
0.0
 42
0.11093
  0
VERTEX
  5
C4D
  8
130_VU3
 10
17.788259154999999
 20
39.003164807499999
 30
0.0
 42
0.219588
  0
VERTEX
  5
C4E
  8
130_VU3
 10
19.059631787499999
 20
38.558218185000001
 30
0.0
 42
0.205618
  0
VERTEX
  5
C4F
  8
130_VU3
 10
21.589298437499998
 20
39.94428243250001
 30
0.0
  0
VERTEX
  5
C50
  8
130_VU3
 10
21.667893507500001
 20
39.9990427225
 30
0.0
  0
VERTEX
  5
C51
  8
130_VU3
 10
16.154256185000001
 20
47.912545680000001
 30
0.0
  0
VERTEX
  5
C52
  8
130_VU3
 10
17.394578037500001
 20
48.7767251
 30
0.0
  0
VERTEX
  5
C53
  8
130_VU3
 10
21.1355139275
 20
43.407509404999999
 30
0.0
 42
0.357207
  0
VERTEX
  5
C54
  8
130_VU3
 10
26.896582277499999
 20
41.775177485
 30
0.0
  0
VERTEX
  5
C55
  8
130_VU3
 10
32.163797347500001
 20
45.00040457499999
 30
0.0
  0
VERTEX
  5
C56
  8
130_VU3
 10
32.953622899999999
 20
43.710517102499992
 30
0.0
  0
VERTEX
  5
C57
  8
130_VU3
 10
25.180556577499999
 20
38.95090423500001
 30
0.0
  0
VERTEX
  5
C58
  8
130_VU3
 10
30.479735242499999
 20
34.688893282499997
 30
0.0
 42
-0.31592
  0
VERTEX
  5
C59
  8
130_VU3
 10
37.566854259999999
 20
38.660799304999998
 30
0.0
 42
-0.216408
  0
VERTEX
  5
C5A
  8
130_VU3
 10
40.613652109999997
 20
36.886196140000003
 30
0.0
 42
-0.331364
  0
VERTEX
  5
C5B
  8
130_VU3
 10
40.460044205000003
 20
30.154727815000001
 30
0.0
 42
0.38775507
  0
VERTEX
  5
C5C
  8
130_VU3
 10
40.804900009999997
 20
28.257633235
 30
0.0
 42
0.38775507
  0
VERTEX
  5
C5D
  8
130_VU3
 10
42.725513087499991
 20
28.428334052499999
 30
0.0
 42
0.167114
  0
VERTEX
  5
C5E
  8
130_VU3
 10
45.407118484999991
 20
34.578451377500009
 30
0.0
 42
0.14592
  0
VERTEX
  5
C5F
  8
130_VU3
 10
44.769374910000003
 20
37.573623512499999
 30
0.0
 42
-0.331281
  0
VERTEX
  5
C60
  8
130_VU3
 10
45.844882669999997
 20
45.193528645000001
 30
0.0
 42
0.197516
  0
VERTEX
  5
C61
  8
130_VU3
 10
46.464518409999997
 20
46.700907247499991
 30
0.0
  0
VERTEX
  5
C62
  8
130_VU3
 10
46.464518409999997
 20
80.775886725000007
 30
0.0
 42
0.4142140000000001
  0
VERTEX
  5
C63
  8
130_VU3
 10
44.816851130000003
 20
82.423554005000014
 30
0.0
  0
VERTEX
  5
C64
  8
130_VU3
 10
42.542388364999987
 20
82.423554005000014
 30
0.0
  0
VERTEX
  5
C65
  8
130_VU3
 10
42.542388364999987
 20
66.9688984
 30
0.0
  0
VERTEX
  5
C66
  8
130_VU3
 10
41.03069954499999
 20
66.9688984
 30
0.0
  0
VERTEX
  5
C67
  8
130_VU3
 10
41.030699072499999
 20
82.068928157499997
 30
0.0
 42
-0.179352
  0
VERTEX
  5
C68
  8
130_VU3
 10
37.975147479999997
 20
83.859837165000002
 30
0.0
 42
-0.23184
  0
VERTEX
  5
C69
  8
130_VU3
 10
37.546217872500002
 20
85.69102341
 30
0.0
 42
-0.034217
  0
VERTEX
  5
C6A
  8
130_VU3
 10
39.207280484999998
 20
91.178157002500001
 30
0.0
 42
0.226197
  0
VERTEX
  5
C6B
  8
130_VU3
 10
38.935081064999999
 20
98.232878475000007
 30
0.0
 42
0.049145
  0
VERTEX
  5
C6C
  8
130_VU3
 10
36.661032400000003
 20
101.6911036475
 30
0.0
 42
0.128415
  0
VERTEX
  5
C6D
  8
130_VU3
 10
35.273584987500001
 20
102.71438250750001
 30
0.0
 42
0.118189
  0
VERTEX
  5
C6E
  8
130_VU3
 10
33.864116605
 20
102.9198420825
 30
0.0
 42
-0.040313
  0
VERTEX
  5
C6F
  8
130_VU3
 10
25.796072129999999
 20
103.6656256925
 30
0.0
 42
-0.1345
  0
VERTEX
  5
C70
  8
130_VU3
 10
19.696757994999999
 20
106.5381924875
 30
0.0
 42
-0.176327
  0
VERTEX
  5
C71
  8
130_VU3
 10
18.035159794999998
 20
110.56868070500001
 30
0.0
 42
-0.117883
  0
VERTEX
  5
C72
  8
130_VU3
 10
19.124494949999999
 20
116.15092273
 30
0.0
 42
-0.233896
  0
VERTEX
  5
C73
  8
130_VU3
 10
36.280058817499999
 20
130.13385807
 30
0.0
 42
-0.20178822
  0
VERTEX
  5
C74
  8
130_VU3
 10
40.216554385000002
 20
129.44231833250001
 30
0.0
 42
-0.20178822
  0
VERTEX
  5
C75
  8
130_VU3
 10
42.474752727499997
 20
126.1446275025
 30
0.0
  0
VERTEX
  5
C76
  8
130_VU3
 10
44.400335027499999
 20
115.17690695500001
 30
0.0
 42
0.39979467
  0
VERTEX
  5
C77
  8
130_VU3
 10
46.128931352499997
 20
113.8996964725
 30
0.0
 42
0.39979467
  0
VERTEX
  5
C78
  8
130_VU3
 10
47.490072920000003
 20
115.56300808
 30
0.0
 42
0.081387
  0
VERTEX
  5
C79
  8
130_VU3
 10
44.042456424999997
 20
136.37206212000001
 30
0.0
 42
0.076698
  0
VERTEX
  5
C7A
  8
130_VU3
 10
42.543181109999992
 20
139.25400238500001
 30
0.0
 42
0.231179
  0
VERTEX
  5
C7B
  8
130_VU3
 10
36.7473124025
 20
141.61049969749999
 30
0.0
 42
0.031143
  0
VERTEX
  5
C7C
  8
130_VU3
 10
33.747741179999998
 20
141.21689799750001
 30
0.0
 42
0.033835
  0
VERTEX
  5
C7D
  8
130_VU3
 10
30.687984312499999
 20
140.4016777025
 30
0.0
  0
VERTEX
  5
C7E
  8
130_VU3
 10
34.7678296825
 20
136.32183280500001
 30
0.0
  0
VERTEX
  5
C7F
  8
130_VU3
 10
33.698336282500001
 20
135.25233893000001
 30
0.0
  0
VERTEX
  5
C80
  8
130_VU3
 10
29.138351575000002
 20
139.8123222175
 30
0.0
 42
0.060163
  0
VERTEX
  5
C81
  8
130_VU3
 10
24.261439124999999
 20
137.02643581749999
 30
0.0
  0
VERTEX
  5
C82
  8
130_VU3
 10
27.882570987499999
 20
134.4908933175
 30
0.0
  0
VERTEX
  5
C83
  8
130_VU3
 10
27.015040487499999
 20
133.25193146500001
 30
0.0
  0
VERTEX
  5
C84
  8
130_VU3
 10
23.028127170000001
 20
136.04359775500001
 30
0.0
 42
0.047456
  0
VERTEX
  5
C85
  8
130_VU3
 10
19.941629267500002
 20
132.85692769249999
 30
0.0
 42
0.011064
  0
VERTEX
  5
C86
  8
130_VU3
 10
18.3734296925
 20
131.249522525
 30
0.0
  0
VERTEX
  5
C87
  8
130_VU3
 10
22.833819892499999
 20
129.16961048499999
 30
0.0
  0
VERTEX
  5
C88
  8
130_VU3
 10
22.194612320000001
 20
127.79882628750001
 30
0.0
  0
VERTEX
  5
C89
  8
130_VU3
 10
17.311691657499999
 20
130.07576797249999
 30
0.0
 42
0.03064
  0
VERTEX
  5
C8A
  8
130_VU3
 10
13.509255975
 20
125.16094848
 30
0.0
  0
VERTEX
  5
C8B
  8
130_VU3
 10
17.276558980000001
 20
124.08069324
 30
0.0
  0
VERTEX
  5
C8C
  8
130_VU3
 10
16.859659505
 20
122.62679197999999
 30
0.0
  0
VERTEX
  5
C8D
  8
130_VU3
 10
12.63886082
 20
123.83708506249999
 30
0.0
 42
0.018994
  0
VERTEX
  5
C8E
  8
130_VU3
 10
10.697011440000001
 20
120.50772870999999
 30
0.0
 42
0.027959
  0
VERTEX
  5
C8F
  8
130_VU3
 10
9.5881417950000003
 20
118.483873145
 30
0.0
  0
VERTEX
  5
C90
  8
130_VU3
 10
12.173665435
 20
118.12050159250001
 30
0.0
  0
VERTEX
  5
C91
  8
130_VU3
 10
11.963167185
 20
116.622728565
 30
0.0
  0
VERTEX
  5
C92
  8
130_VU3
 10
8.9667995549999997
 20
117.04383993499999
 30
0.0
 42
0.0692
  0
VERTEX
  5
C93
  8
130_VU3
 10
7.6632874774999991
 20
111.50622081749999
 30
0.0
  0
VERTEX
  5
C94
  8
130_VU3
 10
12.7323601325
 20
111.50622176500001
 30
0.0
  0
VERTEX
  5
C95
  8
130_VU3
 10
12.7323601325
 20
109.99372932750001
 30
0.0
  0
VERTEX
  5
C96
  8
130_VU3
 10
7.493651687499999
 20
109.993728855
 30
0.0
 42
0.074214
  0
VERTEX
  5
C97
  8
130_VU3
 10
7.592432174999999
 20
108.71686468750001
 30
0.0
 42
0.066472
  0
VERTEX
  5
C98
  8
130_VU3
 10
9.4323976925000004
 20
103.8004833425
 30
0.0
  0
VERTEX
  5
C99
  8
130_VU3
 10
14.99124409
 20
104.68091755499999
 30
0.0
  0
VERTEX
  5
C9A
  8
130_VU3
 10
15.227849935
 20
103.1870458475
 30
0.0
  0
VERTEX
  5
C9B
  8
130_VU3
 10
10.256646847500001
 20
102.39968550499999
 30
0.0
 42
0.084062
  0
VERTEX
  5
C9C
  8
130_VU3
 10
14.7239240375
 20
97.512874397500013
 30
0.0
  0
VERTEX
  5
C9D
  8
130_VU3
 10
19.948574399999998
 20
99.210465615000004
 30
0.0
  0
VERTEX
  5
C9E
  8
130_VU3
 10
20.4159603475
 20
97.771999455000014
 30
0.0
  0
VERTEX
  5
C9F
  8
130_VU3
 10
16.276498007499999
 20
96.417185474999997
 30
0.0
 42
0.067475
  0
VERTEX
  5
CA0
  8
130_VU3
 10
21.115182914999998
 20
94.187049227499998
 30
0.0
  0
VERTEX
  5
CA1
  8
130_VU3
 10
29.489412205000001
 20
97.915495977500001
 30
0.0
  0
VERTEX
  5
CA2
  8
130_VU3
 10
30.104598275000001
 20
96.533764640000001
 30
0.0
  0
VERTEX
  5
CA3
  8
130_VU3
 10
23.535850387499998
 20
93.609170324999994
 30
0.0
 42
0.012152
  0
VERTEX
  5
CA4
  8
130_VU3
 10
24.489191957500001
 20
93.467771240000005
 30
0.0
 42
0.184601
  0
VERTEX
  5
CA5
  8
130_VU3
 10
27.758027040000002
 20
94.275155802499995
 30
0.0
 42
-0.118498
  0
VERTEX
  5
CA6
  8
130_VU3
 10
29.917654485
 20
91.504359422500002
 30
0.0
 42
-0.38294
  0
VERTEX
  5
CA7
  8
130_VU3
 10
29.077948482499998
 20
85.209615782499995
 30
0.0
 42
0.054367
  0
VERTEX
  5
CA8
  8
130_VU3
 10
17.749601439999999
 20
73.154511447499985
 30
0.0
  0
VERTEX
  5
CA9
  8
130_VU3
 10
16.856090505000001
 20
71.968605749999995
 30
0.0
  0
SEQEND
  5
CAA
  8
130_VU3
  0
POLYLINE
  5
3B3
  8
130_VU3
 66
     1
 10
0.0
 20
0.0
 30
0.0
 70
     1
  0
VERTEX
  5
CAB
  8
130_VU3
 10
32.926495657499999
 20
185.82678789249999
 30
0.0
 42
0.222993
  0
VERTEX
  5
CAC
  8
130_VU3
 10
40.953135940000003
 20
176.2133050875
 30
0.0
 42
0.117149
  0
VERTEX
  5
CAD
  8
130_VU3
 10
50.073154039999991
 20
174.335404165
 30
0.0
 42
0.117149
  0
VERTEX
  5
CAE
  8
130_VU3
 10
59.193173557500003
 20
176.213304615
 30
0.0
 42
0.222993
  0
VERTEX
  5
CAF
  8
130_VU3
 10
67.219814787499999
 20
185.82678694750001
 30
0.0
 42
0.225581
  0
VERTEX
  5
CB0
  8
130_VU3
 10
60.194899432500002
 20
212.86810489499999
 30
0.0
 42
0.34013324
  0
VERTEX
  5
CB1
  8
130_VU3
 10
58.694916255000003
 20
213.07333786500001
 30
0.0
 42
0.34013324
  0
VERTEX
  5
CB2
  8
130_VU3
 10
58.111852345000003
 20
211.67615978250001
 30
0.0
 42
-0.095945
  0
VERTEX
  5
CB3
  8
130_VU3
 10
61.501886439999993
 20
198.95227811500001
 30
0.0
 42
-0.4055150000000001
  0
VERTEX
  5
CB4
  8
130_VU3
 10
50.829401202500001
 20
186.31805211
 30
0.0
  0
VERTEX
  5
CB5
  8
130_VU3
 10
50.829401675
 20
182.8133533475
 30
0.0
  0
VERTEX
  5
CB6
  8
130_VU3
 10
49.316908767500003
 20
182.8133533475
 30
0.0
  0
VERTEX
  5
CB7
  8
130_VU3
 10
49.316909712499999
 20
186.31805211
 30
0.0
 42
-0.4055150000000001
  0
VERTEX
  5
CB8
  8
130_VU3
 10
38.644424002500003
 20
198.9522766975
 30
0.0
 42
-0.095945
  0
VERTEX
  5
CB9
  8
130_VU3
 10
42.034457152500003
 20
211.67615836499999
 30
0.0
 42
0.34013394
  0
VERTEX
  5
CBA
  8
130_VU3
 10
41.45139443499999
 20
213.07333853
 30
0.0
 42
0.34013394
  0
VERTEX
  5
CBB
  8
130_VU3
 10
39.951410064999997
 20
212.868103475
 30
0.0
 42
0.225581
  0
VERTEX
  5
CBC
  8
130_VU3
 10
32.926496129999997
 20
185.82678364
 30
0.0
  0
VERTEX
  5
CBD
  8
130_VU3
 10
32.926495657499999
 20
185.82678789249999
 30
0.0
  0
SEQEND
  5
CBE
  8
130_VU3
  0
POLYLINE
  5
3C8
  8
130_VU3
 66
     1
 10
0.0
 20
0.0
 30
0.0
 70
     1
  0
VERTEX
  5
CBF
  8
130_VU3
 10
132.9884035675
 20
108.3416232525
 30
0.0
 42
0.017626
  0
VERTEX
  5
CC0
  8
130_VU3
 10
144.01691199749999
 20
108.11831016249999
 30
0.0
 42
0.134769
  0
VERTEX
  5
CC1
  8
130_VU3
 10
148.34200161499999
 20
109.37572303749999
 30
0.0
 42
-0.140659
  0
VERTEX
  5
CC2
  8
130_VU3
 10
151.60116021249999
 20
110.28251774500001
 30
0.0
 42
0.088167
  0
VERTEX
  5
CC3
  8
130_VU3
 10
165.45731377000001
 20
112.6291126175
 30
0.0
 42
0.033155
  0
VERTEX
  5
CC4
  8
130_VU3
 10
167.149425745
 20
113.4004564175
 30
0.0
  0
VERTEX
  5
CC5
  8
130_VU3
 10
168.603506165
 20
114.18351505
 30
0.0
 42
-0.102708
  0
VERTEX
  5
CC6
  8
130_VU3
 10
170.63418584749999
 20
114.6986627375
 30
0.0
  0
VERTEX
  5
CC7
  8
130_VU3
 10
173.09538535499999
 20
114.8063903075
 30
0.0
 42
0.053191
  0
VERTEX
  5
CC8
  8
130_VU3
 10
174.77456667249999
 20
115.06021481000001
 30
0.0
 42
-0.088462
  0
VERTEX
  5
CC9
  8
130_VU3
 10
195.98364613999999
 20
116.75717259
 30
0.0
 42
0.4021775500000001
  0
VERTEX
  5
CCA
  8
130_VU3
 10
197.1415140675
 20
117.86821301000001
 30
0.0
 42
0.4021775500000001
  0
VERTEX
  5
CCB
  8
130_VU3
 10
196.07918852750001
 20
119.07093218
 30
0.0
 42
0.154107
  0
VERTEX
  5
CCC
  8
130_VU3
 10
169.50541819750001
 20
117.75195096749999
 30
0.0
 42
-0.089085
  0
VERTEX
  5
CCD
  8
130_VU3
 10
167.92259233749999
 20
117.4676831275
 30
0.0
  0
VERTEX
  5
CCE
  8
130_VU3
 10
166.891708905
 20
117.4676831275
 30
0.0
 42
0.036288
  0
VERTEX
  5
CCF
  8
130_VU3
 10
165.51754243249999
 20
117.34678996
 30
0.0
 42
0.041213
  0
VERTEX
  5
CD0
  8
130_VU3
 10
152.75266877999999
 20
114.18683304
 30
0.0
 42
0.134127
  0
VERTEX
  5
CD1
  8
130_VU3
 10
152.43936109000001
 20
114.048870595
 30
0.0
 42
-0.260122
  0
VERTEX
  5
CD2
  8
130_VU3
 10
147.96972930250001
 20
113.27016567
 30
0.0
  0
VERTEX
  5
CD3
  8
130_VU3
 10
132.56669704999999
 20
113.9731727975
 30
0.0
 42
0.199029
  0
VERTEX
  5
CD4
  8
130_VU3
 10
132.30058714750001
 20
113.89314634500001
 30
0.0
 42
-0.4042810000000001
  0
VERTEX
  5
CD5
  8
130_VU3
 10
128.78245286999999
 20
114.0698185025
 30
0.0
 42
-0.127834
  0
VERTEX
  5
CD6
  8
130_VU3
 10
124.646170015
 20
121.61800279000001
 30
0.0
 42
-0.18807
  0
VERTEX
  5
CD7
  8
130_VU3
 10
124.7701665575
 20
122.60646711
 30
0.0
 42
-0.063757
  0
VERTEX
  5
CD8
  8
130_VU3
 10
126.00101755750001
 20
124.31631867500001
 30
0.0
 42
0.176326
  0
VERTEX
  5
CD9
  8
130_VU3
 10
126.13541100250001
 20
124.63224284499999
 30
0.0
 42
-0.131652
  0
VERTEX
  5
CDA
  8
130_VU3
 10
142.806485135
 20
160.00893146249999
 30
0.0
 42
0.2810124
  0
VERTEX
  5
CDB
  8
130_VU3
 10
143.003806105
 20
162.71136477499999
 30
0.0
 42
0.2810124
  0
VERTEX
  5
CDC
  8
130_VU3
 10
140.69080461749999
 20
164.12278444750001
 30
0.0
  0
VERTEX
  5
CDD
  8
130_VU3
 10
139.870139115
 20
164.12278444750001
 30
0.0
 42
-0.4142140000000001
  0
VERTEX
  5
CDE
  8
130_VU3
 10
138.3538058675
 20
165.63911769500001
 30
0.0
  0
VERTEX
  5
CDF
  8
130_VU3
 10
138.3538058675
 20
167.53446417750001
 30
0.0
 42
0.168823
  0
VERTEX
  5
CE0
  8
130_VU3
 10
137.60375694749999
 20
169.596214965
 30
0.0
  0
VERTEX
  5
CE1
  8
130_VU3
 10
132.027750035
 20
176.44381763249999
 30
0.0
 42
0.369924
  0
VERTEX
  5
CE2
  8
130_VU3
 10
128.00038362999999
 20
176.54543394000001
 30
0.0
  0
VERTEX
  5
CE3
  8
130_VU3
 10
127.55275245750001
 20
176.1809278675
 30
0.0
  0
VERTEX
  5
CE4
  8
130_VU3
 10
131.47934824250001
 20
171.35888112250001
 30
0.0
  0
VERTEX
  5
CE5
  8
130_VU3
 10
130.30729877749999
 20
170.40448019749999
 30
0.0
  0
VERTEX
  5
CE6
  8
130_VU3
 10
126.38070299
 20
175.22652694249999
 30
0.0
  0
VERTEX
  5
CE7
  8
130_VU3
 10
125.9721663225
 20
174.89385494000001
 30
0.0
 42
0.341359
  0
VERTEX
  5
CE8
  8
130_VU3
 10
125.31188226250001
 20
170.97508306750001
 30
0.0
 42
0.126573
  0
VERTEX
  5
CE9
  8
130_VU3
 10
132.796435285
 20
162.82400330749999
 30
0.0
 42
0.06705
  0
VERTEX
  5
CEA
  8
130_VU3
 10
133.44391017749999
 20
162.5237316875
 30
0.0
 42
-0.22834569
  0
VERTEX
  5
CEB
  8
130_VU3
 10
134.61203566500001
 20
161.43697208750001
 30
0.0
 42
-0.22834569
  0
VERTEX
  5
CEC
  8
130_VU3
 10
134.49006893250001
 20
159.84615855249999
 30
0.0
 42
0.131652
  0
VERTEX
  5
CED
  8
130_VU3
 10
121.26801620249999
 20
131.248876795
 30
0.0
 42
0.137726
  0
VERTEX
  5
CEE
  8
130_VU3
 10
121.3184015125
 20
122.56446776999999
 30
0.0
 42
-0.304325
  0
VERTEX
  5
CEF
  8
130_VU3
 10
121.07688841
 20
121.81389602749999
 30
0.0
 42
0.315299
  0
VERTEX
  5
CF0
  8
130_VU3
 10
120.41101496500001
 20
117.35669382
 30
0.0
 42
0.163691
  0
VERTEX
  5
CF1
  8
130_VU3
 10
126.0284653025
 20
109.99170988749999
 30
0.0
 42
0.218618
  0
VERTEX
  5
CF2
  8
130_VU3
 10
127.1557864425
 20
109.74968058
 30
0.0
 42
-0.223067
  0
VERTEX
  5
CF3
  8
130_VU3
 10
132.05448397999999
 20
108.6543958275
 30
0.0
 42
0.169472
  0
VERTEX
  5
CF4
  8
130_VU3
 10
132.9884035675
 20
108.3416232525
 30
0.0
  0
SEQEND
  5
CF5
  8
130_VU3
  0
POLYLINE
  5
400
  8
130_VU3
 66
     1
 10
0.0
 20
0.0
 30
0.0
 70
     1
  0
VERTEX
  5
CF6
  8
130_VU3
 10
146.8989382975
 20
100.268741955
 30
0.0
 42
0.27376357
  0
VERTEX
  5
CF7
  8
130_VU3
 10
145.35432739749999
 20
101.64069306
 30
0.0
 42
0.27376357
  0
VERTEX
  5
CF8
  8
130_VU3
 10
143.408457395
 20
100.946673895
 30
0.0
 42
-0.20779875
  0
VERTEX
  5
CF9
  8
130_VU3
 10
141.411203285
 20
99.939000210000003
 30
0.0
 42
-0.20779875
  0
VERTEX
  5
CFA
  8
130_VU3
 10
139.3115162725
 20
100.7108451925
 30
0.0
 42
0.12059
  0
VERTEX
  5
CFB
  8
130_VU3
 10
136.89915676999999
 20
101.69947638249999
 30
0.0
 42
0.009784
  0
VERTEX
  5
CFC
  8
130_VU3
 10
134.19909845750001
 20
102.05070057
 30
0.0
 42
0.037307
  0
VERTEX
  5
CFD
  8
130_VU3
 10
129.36469162750001
 20
102.53868745
 30
0.0
 42
0.395739
  0
VERTEX
  5
CFE
  8
130_VU3
 10
126.1700596175
 20
99.791078702500002
 30
0.0
  0
VERTEX
  5
CFF
  8
130_VU3
 10
126.1136150425
 20
99.264723882499993
 30
0.0
  0
VERTEX
  5
D00
  8
130_VU3
 10
130.39066496250001
 20
98.806065204999996
 30
0.0
  0
VERTEX
  5
D01
  8
130_VU3
 10
130.2293943425
 20
97.302194624999998
 30
0.0
  0
VERTEX
  5
D02
  8
130_VU3
 10
125.9523444225
 20
97.760853299999994
 30
0.0
  0
VERTEX
  5
D03
  8
130_VU3
 10
125.88944823
 20
97.174344032500017
 30
0.0
 42
0.385754
  0
VERTEX
  5
D04
  8
130_VU3
 10
128.42884856000001
 20
93.811833789999994
 30
0.0
 42
0.07142
  0
VERTEX
  5
D05
  8
130_VU3
 10
137.68701630000001
 20
93.394564177500001
 30
0.0
 42
0.125182
  0
VERTEX
  5
D06
  8
130_VU3
 10
140.03924452000001
 20
94.160253357499997
 30
0.0
  0
VERTEX
  5
D07
  8
130_VU3
 10
141.01358977749999
 20
94.776243989999983
 30
0.0
 42
-0.21135508
  0
VERTEX
  5
D08
  8
130_VU3
 10
141.70179637250001
 20
94.878278094999999
 30
0.0
 42
-0.21135508
  0
VERTEX
  5
D09
  8
130_VU3
 10
142.24015514249999
 20
94.437586464999995
 30
0.0
 42
-0.053946
  0
VERTEX
  5
D0A
  8
130_VU3
 10
142.57935676
 20
93.537678275000005
 30
0.0
 42
0.123631
  0
VERTEX
  5
D0B
  8
130_VU3
 10
161.75139285
 20
58.333764277500002
 30
0.0
 42
0.083405
  0
VERTEX
  5
D0C
  8
130_VU3
 10
164.22354233499999
 20
56.9098284425
 30
0.0
 42
-0.198146
  0
VERTEX
  5
D0D
  8
130_VU3
 10
167.2869636925
 20
54.070920870000002
 30
0.0
 42
0.150427
  0
VERTEX
  5
D0E
  8
130_VU3
 10
169.89270583999999
 20
52.11014302249999
 30
0.0
 42
0.126897
  0
VERTEX
  5
D0F
  8
130_VU3
 10
178.4361866024999
 20
51.385004782499998
 30
0.0
 42
0.151148
  0
VERTEX
  5
D10
  8
130_VU3
 10
180.8789539924999
 20
52.504037335
 30
0.0
  0
VERTEX
  5
D11
  8
130_VU3
 10
182.49359028500001
 20
53.94782627
 30
0.0
 42
-0.149472
  0
VERTEX
  5
D12
  8
130_VU3
 10
184.24435016250001
 20
54.776534077500003
 30
0.0
  0
VERTEX
  5
D13
  8
130_VU3
 10
185.045401285
 20
54.89379206249999
 30
0.0
 42
0.118986
  0
VERTEX
  5
D14
  8
130_VU3
 10
186.18363789750001
 20
55.416938565000002
 30
0.0
 42
0.026898
  0
VERTEX
  5
D15
  8
130_VU3
 10
198.3352541575
 20
66.629216029999995
 30
0.0
 42
0.111178
  0
VERTEX
  5
D16
  8
130_VU3
 10
199.41761629000001
 20
68.564227579999994
 30
0.0
 42
-0.25164
  0
VERTEX
  5
D17
  8
130_VU3
 10
201.77452958999999
 20
71.148287694999993
 30
0.0
 42
0.125472
  0
VERTEX
  5
D18
  8
130_VU3
 10
202.33158632749999
 20
71.529467852500005
 30
0.0
 42
0.042086
  0
VERTEX
  5
D19
  8
130_VU3
 10
212.72076853499999
 20
85.572671562500005
 30
0.0
 42
0.131652
  0
VERTEX
  5
D1A
  8
130_VU3
 10
212.93737710249999
 20
86.134113679999984
 30
0.0
 42
-0.264718
  0
VERTEX
  5
D1B
  8
130_VU3
 10
215.37156281750001
 20
88.702266922500002
 30
0.0
 42
0.131653
  0
VERTEX
  5
D1C
  8
130_VU3
 10
216.00984292250001
 20
89.012159717499998
 30
0.0
 42
0.031512
  0
VERTEX
  5
D1D
  8
130_VU3
 10
224.86984678749999
 20
96.999859602499996
 30
0.0
 42
-0.131652
  0
VERTEX
  5
D1E
  8
130_VU3
 10
235.8567146675
 20
103.5093564025
 30
0.0
 42
0.4142140000000001
  0
VERTEX
  5
D1F
  8
130_VU3
 10
236.684031275
 20
105.282110305
 30
0.0
 42
0.389149
  0
VERTEX
  5
D20
  8
130_VU3
 10
234.91127642500001
 20
106.109425965
 30
0.0
 42
0.153915
  0
VERTEX
  5
D21
  8
130_VU3
 10
213.8054403525
 20
91.325916000000007
 30
0.0
 42
-0.21594
  0
VERTEX
  5
D22
  8
130_VU3
 10
211.76034946999999
 20
89.499595412500014
 30
0.0
 42
0.075548
  0
VERTEX
  5
D23
  8
130_VU3
 10
209.49088236
 20
88.390952200000001
 30
0.0
 42
0.079712
  0
VERTEX
  5
D24
  8
130_VU3
 10
198.924294815
 20
74.688840025000005
 30
0.0
 42
0.043661
  0
VERTEX
  5
D25
  8
130_VU3
 10
198.7720781125
 20
74.251383105000002
 30
0.0
 42
-0.289789
  0
VERTEX
  5
D26
  8
130_VU3
 10
196.00107751749999
 20
71.142503550000001
 30
0.0
 42
0.131652
  0
VERTEX
  5
D27
  8
130_VU3
 10
195.68312445500001
 20
70.974146452499994
 30
0.0
 42
0.042678
  0
VERTEX
  5
D28
  8
130_VU3
 10
182.62462130500001
 20
59.146476342500002
 30
0.0
 42
0.131652
  0
VERTEX
  5
D29
  8
130_VU3
 10
182.41771900000001
 20
58.830453374999998
 30
0.0
 42
-0.399625
  0
VERTEX
  5
D2A
  8
130_VU3
 10
178.47371358250001
 20
57.186709632499998
 30
0.0
 42
0.039573
  0
VERTEX
  5
D2B
  8
130_VU3
 10
178.239704835
 20
57.2556197125
 30
0.0
 42
0.080143
  0
VERTEX
  5
D2C
  8
130_VU3
 10
171.99451027250001
 20
57.502476389999998
 30
0.0
 42
-0.083421
  0
VERTEX
  5
D2D
  8
130_VU3
 10
171.71454650250001
 20
57.515369227500003
 30
0.0
 42
-0.261449
  0
VERTEX
  5
D2E
  8
130_VU3
 10
167.02440672
 20
61.661625432500003
 30
0.0
 42
-0.085425
  0
VERTEX
  5
D2F
  8
130_VU3
 10
146.8989382975
 20
100.268741955
 30
0.0
  0
SEQEND
  5
D30
  8
130_VU3
  0
POLYLINE
  5
43C
  8
130_VU3
 66
     1
 10
0.0
 20
0.0
 30
0.0
 70
     1
  0
VERTEX
  5
D31
  8
130_VU3
 10
45.050290254999993
 20
157.32583417750001
 30
0.0
 42
0.109518
  0
VERTEX
  5
D32
  8
130_VU3
 10
48.676983612500003
 20
141.78293349
 30
0.0
 42
0.072869
  0
VERTEX
  5
D33
  8
130_VU3
 10
54.325544292499998
 20
133.39896390000001
 30
0.0
 42
0.32976055
  0
VERTEX
  5
D34
  8
130_VU3
 10
55.682088710000002
 20
133.29460362500001
 30
0.0
 42
0.32976055
  0
VERTEX
  5
D35
  8
130_VU3
 10
56.178458425000002
 20
134.56137942749999
 30
0.0
 42
-0.176327
  0
VERTEX
  5
D36
  8
130_VU3
 10
51.77788940500001
 20
154.02803346249999
 30
0.0
 42
-0.324425
  0
VERTEX
  5
D37
  8
130_VU3
 10
62.697568365000002
 20
163.45960689750001
 30
0.0
  0
VERTEX
  5
D38
  8
130_VU3
 10
62.6975688375
 20
166.93834035250001
 30
0.0
  0
VERTEX
  5
D39
  8
130_VU3
 10
64.210061747500006
 20
166.93834035250001
 30
0.0
  0
VERTEX
  5
D3A
  8
130_VU3
 10
64.210061275000001
 20
163.45960689750001
 30
0.0
 42
-0.324425
  0
VERTEX
  5
D3B
  8
130_VU3
 10
75.129740707500005
 20
154.02803535499999
 30
0.0
 42
-0.176327
  0
VERTEX
  5
D3C
  8
130_VU3
 10
70.729172632499996
 20
134.5613808475
 30
0.0
 42
0.32976019
  0
VERTEX
  5
D3D
  8
130_VU3
 10
71.225541169999985
 20
133.29460507749999
 30
0.0
 42
0.32976019
  0
VERTEX
  5
D3E
  8
130_VU3
 10
72.582085347499998
 20
133.3989624825
 30
0.0
 42
0.072869
  0
VERTEX
  5
D3F
  8
130_VU3
 10
78.230645554999995
 20
141.7829306525
 30
0.0
 42
0.133274
  0
VERTEX
  5
D40
  8
130_VU3
 10
81.857339855000006
 20
157.3258308675
 30
0.0
 42
0.40378
  0
VERTEX
  5
D41
  8
130_VU3
 10
64.421733274999994
 20
174.1489416
 30
0.0
  0
VERTEX
  5
D42
  8
130_VU3
 10
62.485896834999998
 20
174.14894207250001
 30
0.0
 42
0.40378
  0
VERTEX
  5
D43
  8
130_VU3
 10
45.050290254999993
 20
157.32582944999999
 30
0.0
  0
VERTEX
  5
D44
  8
130_VU3
 10
45.050290254999993
 20
157.32583417750001
 30
0.0
  0
SEQEND
  5
D45
  8
130_VU3
  0
POLYLINE
  5
452
  8
130_VU3
 66
     1
 10
0.0
 20
0.0
 30
0.0
 70
     1
  0
VERTEX
  5
D46
  8
130_VU3
 10
143.65535094250001
 20
81.570413904999995
 30
0.0
 42
0.27376357
  0
VERTEX
  5
D47
  8
130_VU3
 10
142.1107400425
 20
82.942365010000003
 30
0.0
 42
0.27376357
  0
VERTEX
  5
D48
  8
130_VU3
 10
140.16487004000001
 20
82.248345844999989
 30
0.0
 42
-0.20779875
  0
VERTEX
  5
D49
  8
130_VU3
 10
138.16761569499999
 20
81.240672059999994
 30
0.0
 42
-0.20779875
  0
VERTEX
  5
D4A
  8
130_VU3
 10
136.06792844500001
 20
82.012517145000004
 30
0.0
 42
0.12059
  0
VERTEX
  5
D4B
  8
130_VU3
 10
133.655569415
 20
83.001147859999989
 30
0.0
 42
0.009784
  0
VERTEX
  5
D4C
  8
130_VU3
 10
130.955511105
 20
83.352372520000003
 30
0.0
 42
0.037308
  0
VERTEX
  5
D4D
  8
130_VU3
 10
126.12110427250001
 20
83.840358929999994
 30
0.0
 42
0.395739
  0
VERTEX
  5
D4E
  8
130_VU3
 10
122.9264722625
 20
81.092750182499998
 30
0.0
  0
VERTEX
  5
D4F
  8
130_VU3
 10
122.87002721499999
 20
80.566395832500007
 30
0.0
  0
VERTEX
  5
D50
  8
130_VU3
 10
127.14707760749999
 20
80.107736682500004
 30
0.0
  0
VERTEX
  5
D51
  8
130_VU3
 10
126.98580651499999
 20
78.603866574999998
 30
0.0
  0
VERTEX
  5
D52
  8
130_VU3
 10
122.708756595
 20
79.062525725
 30
0.0
  0
VERTEX
  5
D53
  8
130_VU3
 10
122.645860875
 20
78.476015512499998
 30
0.0
 42
0.385754
  0
VERTEX
  5
D54
  8
130_VU3
 10
125.1852607325
 20
75.113505739999994
 30
0.0
 42
0.07142
  0
VERTEX
  5
D55
  8
130_VU3
 10
134.44342894499999
 20
74.696236130000003
 30
0.0
 42
0.125182
  0
VERTEX
  5
D56
  8
130_VU3
 10
136.79565669249999
 20
75.461924835000005
 30
0.0
  0
VERTEX
  5
D57
  8
130_VU3
 10
137.7700024225
 20
76.077915939999997
 30
0.0
 42
-0.21135508
  0
VERTEX
  5
D58
  8
130_VU3
 10
138.4582090175
 20
76.1799500475
 30
0.0
 42
-0.21135508
  0
VERTEX
  5
D59
  8
130_VU3
 10
138.9965677875
 20
75.739258417499997
 30
0.0
 42
-0.053946
  0
VERTEX
  5
D5A
  8
130_VU3
 10
139.33576940500001
 20
74.839350225000004
 30
0.0
 42
0.123631
  0
VERTEX
  5
D5B
  8
130_VU3
 10
158.50780549500001
 20
39.635436227500001
 30
0.0
 42
0.083405
  0
VERTEX
  5
D5C
  8
130_VU3
 10
160.97995498
 20
38.2115003925
 30
0.0
 42
-0.198146
  0
VERTEX
  5
D5D
  8
130_VU3
 10
164.043375865
 20
35.372592822500003
 30
0.0
 42
0.150427
  0
VERTEX
  5
D5E
  8
130_VU3
 10
166.6491180125
 20
33.411814974999999
 30
0.0
 42
0.126896
  0
VERTEX
  5
D5F
  8
130_VU3
 10
175.1925992475
 20
32.686676262500001
 30
0.0
 42
0.151148
  0
VERTEX
  5
D60
  8
130_VU3
 10
177.6353666375
 20
33.805709284999999
 30
0.0
  0
VERTEX
  5
D61
  8
130_VU3
 10
179.25000292999999
 20
35.249497747500001
 30
0.0
 42
-0.149472
  0
VERTEX
  5
D62
  8
130_VU3
 10
181.00076233499999
 20
36.078205554999997
 30
0.0
  0
VERTEX
  5
D63
  8
130_VU3
 10
181.80181393000001
 20
36.195464012499997
 30
0.0
 42
0.118986
  0
VERTEX
  5
D64
  8
130_VU3
 10
182.94005054249999
 20
36.718610515000002
 30
0.0
 42
0.026898
  0
VERTEX
  5
D65
  8
130_VU3
 10
195.09166680249999
 20
47.930887980000001
 30
0.0
 42
0.111178
  0
VERTEX
  5
D66
  8
130_VU3
 10
196.174028935
 20
49.865899532500002
 30
0.0
 42
-0.25164
  0
VERTEX
  5
D67
  8
130_VU3
 10
198.53094176249999
 20
52.449960117499998
 30
0.0
 42
0.125472
  0
VERTEX
  5
D68
  8
130_VU3
 10
199.0879989725
 20
52.831139332500001
 30
0.0
 42
0.042086
  0
VERTEX
  5
D69
  8
130_VU3
 10
209.47718118
 20
66.874343039999985
 30
0.0
 42
0.131652
  0
VERTEX
  5
D6A
  8
130_VU3
 10
209.69378974750001
 20
67.4357856325
 30
0.0
 42
-0.264718
  0
VERTEX
  5
D6B
  8
130_VU3
 10
212.12797499000001
 20
70.003938872500001
 30
0.0
 42
0.131653
  0
VERTEX
  5
D6C
  8
130_VU3
 10
212.76625509499999
 20
70.313831667499997
 30
0.0
 42
0.031512
  0
VERTEX
  5
D6D
  8
130_VU3
 10
221.62625896
 20
78.301531080000004
 30
0.0
 42
-0.131652
  0
VERTEX
  5
D6E
  8
130_VU3
 10
232.61312731250001
 20
84.811027879999983
 30
0.0
 42
0.4142140000000001
  0
VERTEX
  5
D6F
  8
130_VU3
 10
233.44044392000001
 20
86.583782254999988
 30
0.0
 42
0.389149
  0
VERTEX
  5
D70
  8
130_VU3
 10
231.66768859749999
 20
87.411097917500001
 30
0.0
 42
0.153915
  0
VERTEX
  5
D71
  8
130_VU3
 10
210.56185299750001
 20
72.627587950000006
 30
0.0
 42
-0.21594
  0
VERTEX
  5
D72
  8
130_VU3
 10
208.51676211500001
 20
70.801267362499999
 30
0.0
 42
0.075548
  0
VERTEX
  5
D73
  8
130_VU3
 10
206.24729406
 20
69.69262415
 30
0.0
 42
0.079712
  0
VERTEX
  5
D74
  8
130_VU3
 10
195.68070746000001
 20
55.990511502499999
 30
0.0
 42
0.043661
  0
VERTEX
  5
D75
  8
130_VU3
 10
195.52849075750001
 20
55.553055055000002
 30
0.0
 42
-0.289789
  0
VERTEX
  5
D76
  8
130_VU3
 10
192.75749016500001
 20
52.444175027500002
 30
0.0
 42
0.131652
  0
VERTEX
  5
D77
  8
130_VU3
 10
192.43953662749999
 20
52.275818405000003
 30
0.0
 42
0.042678
  0
VERTEX
  5
D78
  8
130_VU3
 10
179.38103394999999
 20
40.448148295000003
 30
0.0
 42
0.131652
  0
VERTEX
  5
D79
  8
130_VU3
 10
179.17413117250001
 20
40.13212532499999
 30
0.0
 42
-0.399625
  0
VERTEX
  5
D7A
  8
130_VU3
 10
175.23012575499999
 20
38.488381584999999
 30
0.0
 42
0.039573
  0
VERTEX
  5
D7B
  8
130_VU3
 10
174.99611748000001
 20
38.557291662499999
 30
0.0
 42
0.080143
  0
VERTEX
  5
D7C
  8
130_VU3
 10
168.75092291749999
 20
38.804148339999998
 30
0.0
 42
-0.083421
  0
VERTEX
  5
D7D
  8
130_VU3
 10
168.4709591475
 20
38.817040704999997
 30
0.0
 42
-0.261449
  0
VERTEX
  5
D7E
  8
130_VU3
 10
163.78081889250001
 20
42.963297382500002
 30
0.0
 42
-0.085425
  0
VERTEX
  5
D7F
  8
130_VU3
 10
143.65535094250001
 20
81.570413904999995
 30
0.0
  0
SEQEND
  5
D80
  8
130_VU3
  0
POLYLINE
  5
48E
  8
130_VU3
 66
     1
 10
0.0
 20
0.0
 30
0.0
 70
     1
  0
VERTEX
  5
D81
  8
130_VU3
 10
7.6250868799999987
 20
4.8965455474999988
 30
0.0
 42
-0.009721
  0
VERTEX
  5
D82
  8
130_VU3
 10
10.5989466425
 20
8.2558280899999996
 30
0.0
 42
-0.20656387
  0
VERTEX
  5
D83
  8
130_VU3
 10
12.417509517499999
 20
9.0665148824999982
 30
0.0
 42
-0.20656387
  0
VERTEX
  5
D84
  8
130_VU3
 10
14.254918569999999
 20
8.2994998975000005
 30
0.0
 42
-0.04399
  0
VERTEX
  5
D85
  8
130_VU3
 10
15.115063837499999
 20
6.9235876850000002
 30
0.0
  0
VERTEX
  5
D86
  8
130_VU3
 10
15.835877204999999
 20
5.507303692499999
 30
0.0
 42
0.211319
  0
VERTEX
  5
D87
  8
130_VU3
 10
17.664648347499998
 20
4.0178098025000004
 30
0.0
 42
0.156302
  0
VERTEX
  5
D88
  8
130_VU3
 10
33.515365189999997
 20
6.4719483574999987
 30
0.0
 42
0.30073
  0
VERTEX
  5
D89
  8
130_VU3
 10
35.132282337500001
 20
9.0379904525000008
 30
0.0
  0
VERTEX
  5
D8A
  8
130_VU3
 10
35.0874566325
 20
11.077141194999999
 30
0.0
 42
-0.373191
  0
VERTEX
  5
D8B
  8
130_VU3
 10
37.870888694999998
 20
14.577243747500001
 30
0.0
  0
VERTEX
  5
D8C
  8
130_VU3
 10
38.097754712499999
 20
14.619604242499999
 30
0.0
 42
0.377724
  0
VERTEX
  5
D8D
  8
130_VU3
 10
40.326390562500002
 20
17.468236040000001
 30
0.0
  0
VERTEX
  5
D8E
  8
130_VU3
 10
40.326390562500002
 20
19.140684002499999
 30
0.0
 42
0.344698
  0
VERTEX
  5
D8F
  8
130_VU3
 10
38.097755184999997
 20
21.669862810000001
 30
0.0
  0
VERTEX
  5
D90
  8
130_VU3
 10
37.87088916750001
 20
21.712223774999998
 30
0.0
 42
-0.361526
  0
VERTEX
  5
D91
  8
130_VU3
 10
35.087457104999999
 20
25.212325382500001
 30
0.0
  0
VERTEX
  5
D92
  8
130_VU3
 10
35.132282337500001
 20
27.251476597500002
 30
0.0
 42
0.258459
  0
VERTEX
  5
D93
  8
130_VU3
 10
33.515364717499999
 20
29.817518692499998
 30
0.0
 42
0.176327
  0
VERTEX
  5
D94
  8
130_VU3
 10
17.66464882
 20
32.271657247500002
 30
0.0
 42
0.211319
  0
VERTEX
  5
D95
  8
130_VU3
 10
15.835877204999999
 20
30.7821633575
 30
0.0
  0
VERTEX
  5
D96
  8
130_VU3
 10
15.115063837499999
 20
29.365879365000001
 30
0.0
 42
-0.065544
  0
VERTEX
  5
D97
  8
130_VU3
 10
14.254919042499999
 20
27.989967154999999
 30
0.0
 42
-0.20656431
  0
VERTEX
  5
D98
  8
130_VU3
 10
12.417509732499999
 20
27.222950237500001
 30
0.0
 42
-0.20656431
  0
VERTEX
  5
D99
  8
130_VU3
 10
10.5989466425
 20
28.033638960000001
 30
0.0
 42
-0.019783
  0
VERTEX
  5
D9A
  8
130_VU3
 10
7.6250892424999988
 20
31.392918667499998
 30
0.0
 42
0.0916
  0
VERTEX
  5
D9B
  8
130_VU3
 10
7.1932179275000001
 20
31.758937427500001
 30
0.0
 42
0.41095579
  0
VERTEX
  5
D9C
  8
130_VU3
 10
0.6627777975
 20
30.025411267500001
 30
0.0
 42
0.41095579
  0
VERTEX
  5
D9D
  8
130_VU3
 10
2.3234779875
 20
23.476072667499999
 30
0.0
 42
0.119798
  0
VERTEX
  5
D9E
  8
130_VU3
 10
6.9276530674999988
 20
22.7120852625
 30
0.0
 42
-0.193858
  0
VERTEX
  5
D9F
  8
130_VU3
 10
7.7528126725000002
 20
22.448727037499999
 30
0.0
 42
-0.1333
  0
VERTEX
  5
DA0
  8
130_VU3
 10
7.9584306099999989
 20
21.932092662500001
 30
0.0
 42
-0.022773
  0
VERTEX
  5
DA1
  8
130_VU3
 10
8.1654775649999998
 20
18.900979979999999
 30
0.0
  0
VERTEX
  5
DA2
  8
130_VU3
 10
16.676611362500001
 20
18.900979979999999
 30
0.0
  0
VERTEX
  5
DA3
  8
130_VU3
 10
16.676611362500001
 20
17.38848707
 30
0.0
  0
VERTEX
  5
DA4
  8
130_VU3
 10
8.1654775649999998
 20
17.38848707
 30
0.0
 42
-0.022773
  0
VERTEX
  5
DA5
  8
130_VU3
 10
7.9584301374999988
 20
14.3573706075
 30
0.0
 42
-0.133301
  0
VERTEX
  5
DA6
  8
130_VU3
 10
7.7528126725000002
 20
13.8407400125
 30
0.0
 42
-0.193858
  0
VERTEX
  5
DA7
  8
130_VU3
 10
6.9276525949999987
 20
13.5773817875
 30
0.0
 42
0.119798
  0
VERTEX
  5
DA8
  8
130_VU3
 10
2.3234775149999991
 20
12.81339391
 30
0.0
 42
0.41095579
  0
VERTEX
  5
DA9
  8
130_VU3
 10
0.6627780325
 20
6.2640550800000003
 30
0.0
 42
0.41095579
  0
VERTEX
  5
DAA
  8
130_VU3
 10
7.1932184000000001
 20
4.5305296224999987
 30
0.0
 42
0.0916
  0
VERTEX
  5
DAB
  8
130_VU3
 10
7.6250868799999987
 20
4.8965455474999988
 30
0.0
  0
SEQEND
  5
DAC
  8
130_VU3
  0
POLYLINE
  5
4BB
  8
130_VU3
 66
     1
 10
0.0
 20
0.0
 30
0.0
 70
     1
  0
VERTEX
  5
DAD
  8
130_VU3
 10
69.897730640000006
 20
34.469867720000011
 30
0.0
 42
0.39044505
  0
VERTEX
  5
DAE
  8
130_VU3
 10
69.325549412499996
 20
35.9262429025
 30
0.0
 42
0.39044505
  0
VERTEX
  5
DAF
  8
130_VU3
 10
67.827279524999994
 20
35.475014162500003
 30
0.0
 42
0.02872
  0
VERTEX
  5
DB0
  8
130_VU3
 10
62.337869335000001
 20
26.558750557500002
 30
0.0
 42
0.115218
  0
VERTEX
  5
DB1
  8
130_VU3
 10
59.734216590000003
 20
17.851191244999999
 30
0.0
 42
0.31590647
  0
VERTEX
  5
DB2
  8
130_VU3
 10
69.851490299999995
 20
1.380772254999999
 30
0.0
 42
0.31590647
  0
VERTEX
  5
DB3
  8
130_VU3
 10
88.780323127499983
 20
5.2965374125000002
 30
0.0
 42
0.220221
  0
VERTEX
  5
DB4
  8
130_VU3
 10
93.318441439999987
 20
17.851194552500001
 30
0.0
 42
0.087241
  0
VERTEX
  5
DB5
  8
130_VU3
 10
90.714787275000006
 20
26.558753865
 30
0.0
 42
0.043661
  0
VERTEX
  5
DB6
  8
130_VU3
 10
85.225377559999998
 20
35.475016054999998
 30
0.0
 42
0.390444
  0
VERTEX
  5
DB7
  8
130_VU3
 10
83.727108182500004
 20
35.926240810000003
 30
0.0
 42
0.38736
  0
VERTEX
  5
DB8
  8
130_VU3
 10
83.154927389999983
 20
34.469868192500002
 30
0.0
 42
-0.014297
  0
VERTEX
  5
DB9
  8
130_VU3
 10
85.422397750000002
 20
27.981066869999999
 30
0.0
 42
-0.099859
  0
VERTEX
  5
DBA
  8
130_VU3
 10
86.046540357500007
 20
22.252778020000001
 30
0.0
 42
-0.333264
  0
VERTEX
  5
DBB
  8
130_VU3
 10
77.282575232499994
 20
14.0857308825
 30
0.0
  0
VERTEX
  5
DBC
  8
130_VU3
 10
77.282575704999999
 20
9.0440884824999994
 30
0.0
  0
VERTEX
  5
DBD
  8
130_VU3
 10
75.770082797499995
 20
9.0440884824999994
 30
0.0
  0
VERTEX
  5
DBE
  8
130_VU3
 10
75.770082322500002
 20
14.0857308825
 30
0.0
 42
-0.333264
  0
VERTEX
  5
DBF
  8
130_VU3
 10
67.006117672499997
 20
22.252777547499999
 30
0.0
 42
-0.099859
  0
VERTEX
  5
DC0
  8
130_VU3
 10
67.6302588625
 20
27.981062142500001
 30
0.0
 42
-0.014297
  0
VERTEX
  5
DC1
  8
130_VU3
 10
69.897730640000006
 20
34.469867720000011
 30
0.0
  0
SEQEND
  5
DC2
  8
130_VU3
  0
POLYLINE
  5
4D2
  8
130_VU3
 66
     1
 10
0.0
 20
0.0
 30
0.0
 70
     1
  0
VERTEX
  5
DC3
  8
130_VU3
 10
108.59720392
 20
8.0244273125000003
 30
0.0
 42
0.120806
  0
VERTEX
  5
DC4
  8
130_VU3
 10
117.84679896750001
 20
2.6090504925000002
 30
0.0
 42
0.131652
  0
VERTEX
  5
DC5
  8
130_VU3
 10
130.67889794249999
 20
3.8548345699999991
 30
0.0
 42
0.131653
  0
VERTEX
  5
DC6
  8
130_VU3
 10
134.57025469000001
 20
7.199869474999999
 30
0.0
 42
-0.092188
  0
VERTEX
  5
DC7
  8
130_VU3
 10
136.192383995
 20
8.6432471450000001
 30
0.0
 42
0.028209
  0
VERTEX
  5
DC8
  8
130_VU3
 10
137.8298841125
 20
9.7628006299999992
 30
0.0
 42
0.038561
  0
VERTEX
  5
DC9
  8
130_VU3
 10
146.3182902275
 20
18.4875653625
 30
0.0
 42
0.006319
  0
VERTEX
  5
DCA
  8
130_VU3
 10
146.97781037999999
 20
19.299897837500001
 30
0.0
 42
0.091635
  0
VERTEX
  5
DCB
  8
130_VU3
 10
147.05928806750001
 20
19.439556857500001
 30
0.0
 42
0.37070491
  0
VERTEX
  5
DCC
  8
130_VU3
 10
146.51744590249999
 20
20.859094840000001
 30
0.0
 42
0.37070491
  0
VERTEX
  5
DCD
  8
130_VU3
 10
145.03261843000001
 20
20.536653524999998
 30
0.0
 42
-0.090313
  0
VERTEX
  5
DCE
  8
130_VU3
 10
133.6882047375
 20
10.100939112500001
 30
0.0
 42
-0.233674
  0
VERTEX
  5
DCF
  8
130_VU3
 10
132.6505841675
 20
9.9921597475000006
 30
0.0
  0
VERTEX
  5
DD0
  8
130_VU3
 10
131.2351926625
 20
10.5162998975
 30
0.0
 42
0.12994
  0
VERTEX
  5
DD1
  8
130_VU3
 10
130.71612191
 20
10.566402052500001
 30
0.0
  0
VERTEX
  5
DD2
  8
130_VU3
 10
124.1035892375
 20
9.4842937700000007
 30
0.0
 42
-0.20633618
  0
VERTEX
  5
DD3
  8
130_VU3
 10
119.3116079075
 20
10.6811423925
 30
0.0
 42
-0.20633618
  0
VERTEX
  5
DD4
  8
130_VU3
 10
116.89127487
 20
14.9866643925
 30
0.0
 42
0.230423
  0
VERTEX
  5
DD5
  8
130_VU3
 10
113.533553235
 20
20.364981749999998
 30
0.0
 42
-0.27242308
  0
VERTEX
  5
DD6
  8
130_VU3
 10
113.3216342775
 20
22.081747857500002
 30
0.0
 42
-0.27242308
  0
VERTEX
  5
DD7
  8
130_VU3
 10
114.71962202
 20
23.1004852025
 30
0.0
 42
0.108366
  0
VERTEX
  5
DD8
  8
130_VU3
 10
117.5392598225
 20
23.34475849
 30
0.0
 42
0.099476
  0
VERTEX
  5
DD9
  8
130_VU3
 10
118.71808141
 20
23.989681192500001
 30
0.0
 42
0.093429
  0
VERTEX
  5
DDA
  8
130_VU3
 10
122.906641855
 20
28.590620537500001
 30
0.0
 42
0.375149
  0
VERTEX
  5
DDB
  8
130_VU3
 10
122.60186147500001
 20
30.414172430000001
 30
0.0
 42
0.053014
  0
VERTEX
  5
DDC
  8
130_VU3
 10
121.04563578
 20
31.437013555
 30
0.0
  0
VERTEX
  5
DDD
  8
130_VU3
 10
115.1172498375
 20
25.202095822499999
 30
0.0
  0
VERTEX
  5
DDE
  8
130_VU3
 10
114.0211609975
 20
26.244296057500001
 30
0.0
  0
VERTEX
  5
DDF
  8
130_VU3
 10
120.591440955
 20
33.154298095000001
 30
0.0
 42
0.062766
  0
VERTEX
  5
DE0
  8
130_VU3
 10
119.75861816
 20
33.929464742500002
 30
0.0
 42
0.305603
  0
VERTEX
  5
DE1
  8
130_VU3
 10
116.824112895
 20
34.020495537499997
 30
0.0
 42
0.120117
  0
VERTEX
  5
DE2
  8
130_VU3
 10
111.4128784775
 20
28.542373317500001
 30
0.0
 42
0.10123
  0
VERTEX
  5
DE3
  8
130_VU3
 10
111.1247050625
 20
27.723536280000001
 30
0.0
 42
0.074436
  0
VERTEX
  5
DE4
  8
130_VU3
 10
111.1567769075
 20
25.046122449999999
 30
0.0
 42
-0.392353
  0
VERTEX
  5
DE5
  8
130_VU3
 10
109.89359312249999
 20
23.482816424999999
 30
0.0
  0
VERTEX
  5
DE6
  8
130_VU3
 10
108.549965005
 20
23.288821612500001
 30
0.0
 42
0.347149
  0
VERTEX
  5
DE7
  8
130_VU3
 10
104.34494886500001
 20
18.856968762499999
 30
0.0
 42
0.251467
  0
VERTEX
  5
DE8
  8
130_VU3
 10
107.43075140249999
 20
9.1557603899999993
 30
0.0
  0
VERTEX
  5
DE9
  8
130_VU3
 10
108.59720392
 20
8.0244273125000003
 30
0.0
  0
SEQEND
  5
DEA
  8
130_VU3
  0
ENDSEC
  0
EOF
