  0
SECTION
  2
HEADER
  9
$ACADVER
  1
AC1009
  9
$INSBASE
 10
0.0
 20
0.0
 30
0.0
  9
$EXTMIN
 10
-0.0000952587206653
 20
0.0
 30
0.0
  9
$EXTMAX
 10
1063.418666269356
 20
607.53993494971439
 30
0.0
  9
$LIMMIN
 10
0.0
 20
0.0
  9
$LIMMAX
 10
12.0
 20
9.0
  9
$ORTHOMODE
 70
     0
  9
$REGENMODE
 70
     1
  9
$FILLMODE
 70
     1
  9
$QTEXTMODE
 70
     0
  9
$MIRRTEXT
 70
     0
  9
$DRAGMODE
 70
     2
  9
$LTSCALE
 40
1.0
  9
$OSMODE
 70
   167
  9
$ATTMODE
 70
     1
  9
$TEXTSIZE
 40
0.2
  9
$TRACEWID
 40
0.05
  9
$TEXTSTYLE
  7
STANDARD
  9
$CLAYER
  8
0
  9
$CELTYPE
  6
CONTINUOUS
  9
$CECOLOR
 62
   256
  9
$DIMSCALE
 40
1.0
  9
$DIMASZ
 40
0.18
  9
$DIMEXO
 40
0.0625
  9
$DIMDLI
 40
0.38
  9
$DIMRND
 40
0.0
  9
$DIMDLE
 40
0.0
  9
$DIMEXE
 40
0.18
  9
$DIMTP
 40
0.0
  9
$DIMTM
 40
0.0
  9
$DIMTXT
 40
0.18
  9
$DIMCEN
 40
0.09
  9
$DIMTSZ
 40
0.0
  9
$DIMTOL
 70
     0
  9
$DIMLIM
 70
     0
  9
$DIMTIH
 70
     1
  9
$DIMTOH
 70
     1
  9
$DIMSE1
 70
     0
  9
$DIMSE2
 70
     0
  9
$DIMTAD
 70
     0
  9
$DIMZIN
 70
     0
  9
$DIMBLK
  1

  9
$DIMASO
 70
     1
  9
$DIMSHO
 70
     1
  9
$DIMPOST
  1

  9
$DIMAPOST
  1

  9
$DIMALT
 70
     0
  9
$DIMALTD
 70
     2
  9
$DIMALTF
 40
25.399999999999999
  9
$DIMLFAC
 40
1.0
  9
$DIMTOFL
 70
     0
  9
$DIMTVP
 40
0.0
  9
$DIMTIX
 70
     0
  9
$DIMSOXD
 70
     0
  9
$DIMSAH
 70
     0
  9
$DIMBLK1
  1

  9
$DIMBLK2
  1

  9
$DIMSTYLE
  2
STANDARD
  9
$DIMCLRD
 70
     0
  9
$DIMCLRE
 70
     0
  9
$DIMCLRT
 70
     0
  9
$DIMTFAC
 40
1.0
  9
$DIMGAP
 40
0.09
  9
$LUNITS
 70
     2
  9
$LUPREC
 70
     4
  9
$SKETCHINC
 40
0.1
  9
$FILLETRAD
 40
0.0
  9
$AUNITS
 70
     0
  9
$AUPREC
 70
     0
  9
$MENU
  1
.
  9
$ELEVATION
 40
0.0
  9
$PELEVATION
 40
0.0
  9
$THICKNESS
 40
0.0
  9
$LIMCHECK
 70
     0
  9
$BLIPMODE
 70
     0
  9
$CHAMFERA
 40
0.0
  9
$CHAMFERB
 40
0.0
  9
$SKPOLY
 70
     0
  9
$TDCREATE
 40
2455328.0357597219
  9
$TDUPDATE
 40
2455328.0360613782
  9
$TDINDWG
 40
0.0003023727
  9
$TDUSRTIMER
 40
0.0003023727
  9
$USRTIMER
 70
     1
  9
$ANGBASE
 50
0.0
  9
$ANGDIR
 70
     0
  9
$PDMODE
 70
     0
  9
$PDSIZE
 40
0.0
  9
$PLINEWID
 40
0.0
  9
$COORDS
 70
     1
  9
$SPLFRAME
 70
     0
  9
$SPLINETYPE
 70
     6
  9
$SPLINESEGS
 70
     8
  9
$ATTDIA
 70
     0
  9
$ATTREQ
 70
     1
  9
$HANDLING
 70
     1
  9
$HANDSEED
  5
64F
  9
$SURFTAB1
 70
     6
  9
$SURFTAB2
 70
     6
  9
$SURFTYPE
 70
     6
  9
$SURFU
 70
     6
  9
$SURFV
 70
     6
  9
$UCSNAME
  2

  9
$UCSORG
 10
0.0
 20
0.0
 30
0.0
  9
$UCSXDIR
 10
1.0
 20
0.0
 30
0.0
  9
$UCSYDIR
 10
0.0
 20
1.0
 30
0.0
  9
$PUCSNAME
  2

  9
$PUCSORG
 10
0.0
 20
0.0
 30
0.0
  9
$PUCSXDIR
 10
1.0
 20
0.0
 30
0.0
  9
$PUCSYDIR
 10
0.0
 20
1.0
 30
0.0
  9
$USERI1
 70
     0
  9
$USERI2
 70
     0
  9
$USERI3
 70
     0
  9
$USERI4
 70
     0
  9
$USERI5
 70
     0
  9
$USERR1
 40
0.0
  9
$USERR2
 40
0.0
  9
$USERR3
 40
0.0
  9
$USERR4
 40
0.0
  9
$USERR5
 40
0.0
  9
$WORLDVIEW
 70
     1
  9
$SHADEDGE
 70
     3
  9
$SHADEDIF
 70
    70
  9
$TILEMODE
 70
     1
  9
$MAXACTVP
 70
    64
  9
$PLIMCHECK
 70
     0
  9
$PEXTMIN
 10
1.0000000000000000E+020
 20
1.0000000000000000E+020
 30
1.0000000000000000E+020
  9
$PEXTMAX
 10
-1.0000000000000000E+020
 20
-1.0000000000000000E+020
 30
-1.0000000000000000E+020
  9
$PLIMMIN
 10
0.0
 20
0.0
  9
$PLIMMAX
 10
12.0
 20
9.0
  9
$UNITMODE
 70
     0
  9
$VISRETAIN
 70
     1
  9
$PLINEGEN
 70
     0
  9
$PSLTSCALE
 70
     1
  0
ENDSEC
  0
SECTION
  2
TABLES
  0
TABLE
  2
VPORT
 70
     1
  0
VPORT
  2
*ACTIVE
 70
     0
 10
0.0
 20
0.0
 11
1.0
 21
1.0
 12
7.8038793103448274
 22
4.5
 13
0.0
 23
0.0
 14
1.0
 24
1.0
 15
0.0
 25
0.0
 16
0.0
 26
0.0
 36
1.0
 17
0.0
 27
0.0
 37
0.0
 40
9.0
 41
1.7341954022988499
 42
50.0
 43
0.0
 44
0.0
 50
0.0
 51
0.0
 71
     0
 72
   100
 73
     1
 74
     1
 75
     0
 76
     0
 77
     0
 78
     0
  0
ENDTAB
  0
TABLE
  2
LTYPE
 70
     1
  0
LTYPE
  2
CONTINUOUS
 70
     0
  3
Solid line
 72
    65
 73
     0
 40
0.0
  0
ENDTAB
  0
TABLE
  2
LAYER
 70
     2
  0
LAYER
  2
0
 70
     0
 62
     1
  6
CONTINUOUS
  0
LAYER
  2
CYAN
 70
     0
 62
     1
  6
CONTINUOUS
  0
ENDTAB
  0
TABLE
  2
STYLE
 70
     2
  0
STYLE
  2
STANDARD
 70
     0
 40
0.0
 41
1.0
 50
0.0
 71
     0
 42
0.2
  3
txt
  4

  0
STYLE
  2
ANNOTATIVE
 70
     0
 40
0.0
 41
1.0
 50
0.0
 71
     0
 42
0.2
  3
txt
  4

  0
ENDTAB
  0
TABLE
  2
VIEW
 70
     0
  0
ENDTAB
  0
TABLE
  2
UCS
 70
     0
  0
ENDTAB
  0
TABLE
  2
APPID
 70
     3
  0
APPID
  2
ACAD
 70
     0
  0
APPID
  2
ACADANNOTATIVE
 70
     0
  0
APPID
  2
ACAD_MLEADERVER
 70
     0
  0
ENDTAB
  0
TABLE
  2
DIMSTYLE
 70
     2
  0
DIMSTYLE
  2
STANDARD
 70
     0
  3

  4

  5

  6

  7

 40
1.0
 41
0.18
 42
0.0625
 43
0.38
 44
0.18
 45
0.0
 46
0.0
 47
0.0
 48
0.0
140
0.18
141
0.09
142
0.0
143
25.399999999999999
144
1.0
145
0.0
146
1.0
147
0.09
 71
     0
 72
     0
 73
     1
 74
     1
 75
     0
 76
     0
 77
     0
 78
     0
170
     0
171
     2
172
     0
173
     0
174
     0
175
     0
176
     0
177
     0
178
     0
  0
DIMSTYLE
  2
ANNOTATIVE
 70
     0
  3

  4

  5

  6

  7

 40
1.0
 41
0.18
 42
0.0625
 43
0.38
 44
0.18
 45
0.0
 46
0.0
 47
0.0
 48
0.0
140
0.18
141
0.09
142
0.0
143
25.399999999999999
144
1.0
145
0.0
146
1.0
147
0.09
 71
     0
 72
     0
 73
     1
 74
     1
 75
     0
 76
     0
 77
     0
 78
     0
170
     0
171
     2
172
     0
173
     0
174
     0
175
     0
176
     0
177
     0
178
     0
  0
ENDTAB
  0
ENDSEC
  0
SECTION
  2
BLOCKS
  0
BLOCK
  8
0
  2
$MODEL_SPACE
 70
     0
 10
0.0
 20
0.0
 30
0.0
  3
$MODEL_SPACE
  1

  0
ENDBLK
  5
76
  8
0
  0
BLOCK
 67
     1
  8
0
  2
$PAPER_SPACE
 70
     0
 10
0.0
 20
0.0
 30
0.0
  3
$PAPER_SPACE
  1

  0
ENDBLK
  5
72
 67
     1
  8
0
  0
ENDSEC
  0
SECTION
  2
ENTITIES
  0
POLYLINE
  5
7B
  8
0
 66
     1
 10
0.0
 20
0.0
 30
0.0
 70
     1
  0
VERTEX
  5
381
  8
0
 10
283.813512
 20
295.63139451000001
 30
0.0
 42
-0.41421356
  0
VERTEX
  5
382
  8
0
 10
285.83351199999998
 20
293.61139451000003
 30
0.0
 42
-0.41421356
  0
VERTEX
  5
383
  8
0
 10
283.813512
 20
291.59139450999999
 30
0.0
 42
-0.41421356
  0
VERTEX
  5
384
  8
0
 10
281.79351200000002
 20
293.61139451000003
 30
0.0
 42
-0.41421356
  0
VERTEX
  5
385
  8
0
 10
283.813512
 20
295.63139451000001
 30
0.0
  0
SEQEND
  5
386
  8
0
  0
POLYLINE
  5
82
  8
0
 66
     1
 10
0.0
 20
0.0
 30
0.0
 70
     1
  0
VERTEX
  5
387
  8
0
 10
487.44292682000003
 20
15.78840585
 30
0.0
 42
-0.41421356
  0
VERTEX
  5
388
  8
0
 10
489.46292682000001
 20
13.768405850000001
 30
0.0
 42
-0.41421356
  0
VERTEX
  5
389
  8
0
 10
487.44292682000003
 20
11.748405849999999
 30
0.0
 42
-0.41421356
  0
VERTEX
  5
38A
  8
0
 10
485.42292681999999
 20
13.768405850000001
 30
0.0
 42
-0.41421356
  0
VERTEX
  5
38B
  8
0
 10
487.44292682000003
 20
15.78840585
 30
0.0
  0
SEQEND
  5
38C
  8
0
  0
POLYLINE
  5
89
  8
CYAN
 66
     1
 10
0.0
 20
0.0
 30
0.0
 70
     1
  0
VERTEX
  5
38D
  8
CYAN
 10
317.75331363999999
 20
35.455326839999998
 30
0.0
 42
-0.29909755
  0
VERTEX
  5
38E
  8
CYAN
 10
314.02974152500002
 20
37.644746314999999
 30
0.0
 42
-0.29909755
  0
VERTEX
  5
38F
  8
CYAN
 10
314.56081978999998
 20
41.931528649999997
 30
0.0
  0
VERTEX
  5
390
  8
CYAN
 10
330.97183307
 20
41.936698839999998
 30
0.0
  0
VERTEX
  5
391
  8
CYAN
 10
330.97183307
 20
44.964726310000003
 30
0.0
  0
VERTEX
  5
392
  8
CYAN
 10
314.55933306999998
 20
44.960781249999989
 30
0.0
 42
-0.2692143
  0
VERTEX
  5
393
  8
CYAN
 10
313.73359553
 20
49.561473259999993
 30
0.0
 42
-0.2692143
  0
VERTEX
  5
394
  8
CYAN
 10
317.31923583999998
 20
52.560038419999998
 30
0.0
 42
0.23698397
  0
VERTEX
  5
395
  8
CYAN
 10
320.53460284499999
 20
54.937742880000002
 30
0.0
 42
0.23698397
  0
VERTEX
  5
396
  8
CYAN
 10
320.54778365999999
 20
58.936728969999997
 30
0.0
 42
-0.27014451
  0
VERTEX
  5
397
  8
CYAN
 10
320.91740718
 20
64.539923325000004
 30
0.0
 42
-0.27014451
  0
VERTEX
  5
398
  8
CYAN
 10
325.97487826999998
 20
66.980086170000007
 30
0.0
 42
-0.25687314
  0
VERTEX
  5
399
  8
CYAN
 10
357.33347845999998
 20
46.395382220000002
 30
0.0
 42
-0.30407376
  0
VERTEX
  5
39A
  8
CYAN
 10
356.16770466999998
 20
35.13732589
 30
0.0
 42
-0.30407376
  0
VERTEX
  5
39B
  8
CYAN
 10
345.31192922000002
 20
31.934982949999998
 30
0.0
 42
0.08841985
  0
VERTEX
  5
39C
  8
CYAN
 10
317.75331363999999
 20
35.455326839999998
 30
0.0
  0
SEQEND
  5
39D
  8
CYAN
  0
POLYLINE
  5
9B
  8
CYAN
 66
     1
 10
0.0
 20
0.0
 30
0.0
 70
     1
  0
VERTEX
  5
39E
  8
CYAN
 10
1.964333069999999
 20
144.30966759
 30
0.0
 42
-0.20657308
  0
VERTEX
  5
39F
  8
CYAN
 10
0.563650255
 20
144.85622662
 30
0.0
 42
-0.20657308
  0
VERTEX
  5
3A0
  8
CYAN
 10
0.000475685
 20
146.250311815
 30
0.0
 42
-0.20657308
  0
VERTEX
  5
3A1
  8
CYAN
 10
0.6284927800000001
 20
147.61641344
 30
0.0
 42
-0.20657308
  0
VERTEX
  5
3A2
  8
CYAN
 10
2.0532958899999989
 20
148.09659593000001
 30
0.0
  0
VERTEX
  5
3A3
  8
CYAN
 10
11.31472319
 20
148.95132762
 30
0.0
 42
0.20331418
  0
VERTEX
  5
3A4
  8
CYAN
 10
17.929141479999998
 20
154.83616534000001
 30
0.0
 42
0.01943269
  0
VERTEX
  5
3A5
  8
CYAN
 10
23.146353040000001
 20
293.67980584999998
 30
0.0
 42
-0.34217724
  0
VERTEX
  5
3A6
  8
CYAN
 10
26.57883198
 20
299.00573749
 30
0.0
 42
-0.34217724
  0
VERTEX
  5
3A7
  8
CYAN
 10
32.59248813
 20
297.00989199999998
 30
0.0
 42
0.01872872
  0
VERTEX
  5
3A8
  8
CYAN
 10
103.93438252
 20
198.88455198
 30
0.0
 42
0.2814413
  0
VERTEX
  5
3A9
  8
CYAN
 10
113.56614955000001
 20
192.71531139000001
 30
0.0
  0
VERTEX
  5
3AA
  8
CYAN
 10
122.95917682
 20
192.77388633999999
 30
0.0
 42
-0.41427701
  0
VERTEX
  5
3AB
  8
CYAN
 10
126.00884354
 20
189.75898785999999
 30
0.0
  0
VERTEX
  5
3AC
  8
CYAN
 10
126.02073932
 20
187.55423765
 30
0.0
  0
VERTEX
  5
3AD
  8
CYAN
 10
115.51042682000001
 20
187.55423765
 30
0.0
  0
VERTEX
  5
3AE
  8
CYAN
 10
115.53409818999999
 20
184.52423765
 30
0.0
  0
VERTEX
  5
3AF
  8
CYAN
 10
126.04046563
 20
184.52621119
 30
0.0
  0
VERTEX
  5
3B0
  8
CYAN
 10
126.06413800999999
 20
180.89455014999999
 30
0.0
 42
-0.41417905
  0
VERTEX
  5
3B1
  8
CYAN
 10
123.05819418999999
 20
177.84489049999999
 30
0.0
  0
VERTEX
  5
3B2
  8
CYAN
 10
110.36573932
 20
178.87257761999999
 30
0.0
 42
0.37593968
  0
VERTEX
  5
3B3
  8
CYAN
 10
105.99505623
 20
175.06608861000001
 30
0.0
 42
-0.36172621
  0
VERTEX
  5
3B4
  8
CYAN
 10
98.060999554999995
 20
170.16072436499999
 30
0.0
 42
-0.36172621
  0
VERTEX
  5
3B5
  8
CYAN
 10
91.797401390000005
 20
177.07297376
 30
0.0
 42
0.12232122
  0
VERTEX
  5
3B6
  8
CYAN
 10
83.753652310000007
 20
204.47920862000001
 30
0.0
 42
0.02028634
  0
VERTEX
  5
3B7
  8
CYAN
 10
33.498761125000001
 20
282.98987596500001
 30
0.0
 42
0.31971173
  0
VERTEX
  5
3B8
  8
CYAN
 10
30.806082230000001
 20
284.63147638499998
 30
0.0
 42
0.31971173
  0
VERTEX
  5
3B9
  8
CYAN
 10
28.37441806
 20
282.62339745999998
 30
0.0
 42
-0.04750893
  0
VERTEX
  5
3BA
  8
CYAN
 10
21.90642755
 20
152.10015109
 30
0.0
 42
-0.25428573
  0
VERTEX
  5
3BB
  8
CYAN
 10
11.472535690000001
 20
144.63910131
 30
0.0
  0
VERTEX
  5
3BC
  8
CYAN
 10
1.964333069999999
 20
144.30966759
 30
0.0
  0
SEQEND
  5
3BD
  8
CYAN
  0
POLYLINE
  5
BC
  8
CYAN
 66
     1
 10
0.0
 20
0.0
 30
0.0
 70
     1
  0
VERTEX
  5
3BE
  8
CYAN
 10
75.844766509999999
 20
262.38912714999998
 30
0.0
 42
0.3079189
  0
VERTEX
  5
3BF
  8
CYAN
 10
71.401079609999996
 20
276.56219050999999
 30
0.0
 42
-0.31701403
  0
VERTEX
  5
3C0
  8
CYAN
 10
69.819510374999993
 20
281.92177458499998
 30
0.0
 42
-0.31701403
  0
VERTEX
  5
3C1
  8
CYAN
 10
74.335559869999997
 20
285.21294454000002
 30
0.0
  0
VERTEX
  5
3C2
  8
CYAN
 10
79.54101301
 20
280.24146496999998
 30
0.0
  0
VERTEX
  5
3C3
  8
CYAN
 10
81.632028129999995
 20
282.43505871999997
 30
0.0
  0
VERTEX
  5
3C4
  8
CYAN
 10
75.461559379999997
 20
288.32541003
 30
0.0
 42
-0.34971787
  0
VERTEX
  5
3C5
  8
CYAN
 10
74.178856624999995
 20
297.72327553999997
 30
0.0
 42
-0.34971787
  0
VERTEX
  5
3C6
  8
CYAN
 10
83.053318309999995
 20
301.07127975999998
 30
0.0
  0
VERTEX
  5
3C7
  8
CYAN
 10
85.147301819999996
 20
290.6590625
 30
0.0
  0
VERTEX
  5
3C8
  8
CYAN
 10
88.122066939999996
 20
291.25677746999997
 30
0.0
  0
VERTEX
  5
3C9
  8
CYAN
 10
86.027106759999995
 20
301.67042994000002
 30
0.0
 42
-0.27258739
  0
VERTEX
  5
3CA
  8
CYAN
 10
90.939954145000002
 20
303.05268207
 30
0.0
 42
-0.27258739
  0
VERTEX
  5
3CB
  8
CYAN
 10
94.531287569999989
 20
299.42652506000002
 30
0.0
  0
VERTEX
  5
3CC
  8
CYAN
 10
97.567145569999994
 20
285.51042993999999
 30
0.0
 42
0.38938998
  0
VERTEX
  5
3CD
  8
CYAN
 10
108.52406795
 20
277.79693571000001
 30
0.0
 42
0.38946808
  0
VERTEX
  5
3CE
  8
CYAN
 10
119.48698367
 20
285.50998958000002
 30
0.0
  0
VERTEX
  5
3CF
  8
CYAN
 10
122.52519194
 20
299.42554637000001
 30
0.0
 42
-0.27258527
  0
VERTEX
  5
3D0
  8
CYAN
 10
126.1183022
 20
303.04933792000003
 30
0.0
 42
-0.27258527
  0
VERTEX
  5
3D1
  8
CYAN
 10
131.0299535
 20
301.66442346999997
 30
0.0
  0
VERTEX
  5
3D2
  8
CYAN
 10
128.93237944000001
 20
291.25677746999997
 30
0.0
  0
VERTEX
  5
3D3
  8
CYAN
 10
131.90320051
 20
290.65708997000002
 30
0.0
  0
VERTEX
  5
3D4
  8
CYAN
 10
133.99816068999999
 20
301.07074244
 30
0.0
 42
-0.34967111
  0
VERTEX
  5
3D5
  8
CYAN
 10
142.872716035
 20
297.72047603499999
 30
0.0
 42
-0.34967111
  0
VERTEX
  5
3D6
  8
CYAN
 10
141.58939543
 20
288.32180029
 30
0.0
  0
VERTEX
  5
3D7
  8
CYAN
 10
135.41847318999999
 20
282.43111264999999
 30
0.0
  0
VERTEX
  5
3D8
  8
CYAN
 10
137.51343438000001
 20
280.23949243999999
 30
0.0
  0
VERTEX
  5
3D9
  8
CYAN
 10
142.72124688
 20
285.20861265000002
 30
0.0
 42
-0.31695137
  0
VERTEX
  5
3DA
  8
CYAN
 10
147.23464136999999
 20
281.917393565
 30
0.0
 42
-0.31695137
  0
VERTEX
  5
3DB
  8
CYAN
 10
145.65335364000001
 20
276.55993316000001
 30
0.0
 42
0.3079768
  0
VERTEX
  5
3DC
  8
CYAN
 10
141.20284419000001
 20
262.38501038999999
 30
0.0
 42
-0.21506633
  0
VERTEX
  5
3DD
  8
CYAN
 10
140.55451547999999
 20
257.40589572499999
 30
0.0
 42
-0.21506633
  0
VERTEX
  5
3DE
  8
CYAN
 10
136.39332721
 20
254.59583787
 30
0.0
  0
VERTEX
  5
3DF
  8
CYAN
 10
132.67253568999999
 20
262.15812499999998
 30
0.0
  0
VERTEX
  5
3E0
  8
CYAN
 10
129.95421562999999
 20
260.82066380999999
 30
0.0
  0
VERTEX
  5
3E1
  8
CYAN
 10
133.50894194
 20
253.58496119
 30
0.0
 42
-0.21392435
  0
VERTEX
  5
3E2
  8
CYAN
 10
128.28245610499999
 20
252.64804749499999
 30
0.0
 42
-0.21392435
  0
VERTEX
  5
3E3
  8
CYAN
 10
124.10609444000001
 20
255.92706634999999
 30
0.0
 42
0.33711001
  0
VERTEX
  5
3E4
  8
CYAN
 10
120.676475225
 20
257.53070324499998
 30
0.0
 42
0.33711001
  0
VERTEX
  5
3E5
  8
CYAN
 10
118.21553507
 20
254.65360179000001
 30
0.0
  0
VERTEX
  5
3E6
  8
CYAN
 10
118.20902057000001
 20
238.58882761999999
 30
0.0
 42
-0.41419372
  0
VERTEX
  5
3E7
  8
CYAN
 10
114.16929428
 20
234.54882762
 30
0.0
  0
VERTEX
  5
3E8
  8
CYAN
 10
110.03827812999999
 20
234.55474622
 30
0.0
  0
VERTEX
  5
3E9
  8
CYAN
 10
110.03827812999999
 20
250.47408139999999
 30
0.0
  0
VERTEX
  5
3EA
  8
CYAN
 10
107.01222319
 20
250.47408139999999
 30
0.0
  0
VERTEX
  5
3EB
  8
CYAN
 10
107.01222319
 20
234.55277369000001
 30
0.0
  0
VERTEX
  5
3EC
  8
CYAN
 10
102.87753569
 20
234.55080014999999
 30
0.0
 42
-0.41419375
  0
VERTEX
  5
3ED
  8
CYAN
 10
98.837535689999996
 20
238.59249998000001
 30
0.0
  0
VERTEX
  5
3EE
  8
CYAN
 10
98.837535689999996
 20
254.65414011999999
 30
0.0
 42
0.33706098
  0
VERTEX
  5
3EF
  8
CYAN
 10
96.377019274999995
 20
257.53069764000003
 30
0.0
 42
0.33706098
  0
VERTEX
  5
3F0
  8
CYAN
 10
92.947755029999996
 20
255.92792788
 30
0.0
 42
-0.21402272
  0
VERTEX
  5
3F1
  8
CYAN
 10
88.767299859999994
 20
252.64745078499999
 30
0.0
 42
-0.21402272
  0
VERTEX
  5
3F2
  8
CYAN
 10
83.537355759999997
 20
253.58841842000001
 30
0.0
  0
VERTEX
  5
3F3
  8
CYAN
 10
87.096285690000016
 20
260.82460887000002
 30
0.0
  0
VERTEX
  5
3F4
  8
CYAN
 10
84.374020569999985
 20
262.16207006000002
 30
0.0
  0
VERTEX
  5
3F5
  8
CYAN
 10
80.657535689999989
 20
254.60087877999999
 30
0.0
 42
-0.21502226
  0
VERTEX
  5
3F6
  8
CYAN
 10
76.495324475000004
 20
257.40998514500001
 30
0.0
 42
-0.21502226
  0
VERTEX
  5
3F7
  8
CYAN
 10
75.844766509999999
 20
262.38912714999998
 30
0.0
  0
SEQEND
  5
3F8
  8
CYAN
  0
POLYLINE
  5
F8
  8
CYAN
 66
     1
 10
0.0
 20
0.0
 30
0.0
 70
     1
  0
VERTEX
  5
3F9
  8
CYAN
 10
7.4271816800000003
 20
13.05030595
 30
0.0
 42
0.29019024
  0
VERTEX
  5
3FA
  8
CYAN
 10
8.2878484249999982
 20
3.6174835399999989
 30
0.0
 42
0.29019024
  0
VERTEX
  5
3FB
  8
CYAN
 10
17.185348189999999
 20
0.36888634
 30
0.0
  0
VERTEX
  5
3FC
  8
CYAN
 10
18.479410690000002
 20
11.038983869999999
 30
0.0
  0
VERTEX
  5
3FD
  8
CYAN
 10
21.48968438
 20
10.676015120000001
 30
0.0
  0
VERTEX
  5
3FE
  8
CYAN
 10
20.195621880000001
 20
0.00394506
 30
0.0
  0
VERTEX
  5
3FF
  8
CYAN
 10
28.322965629999999
 20
0.00197253
 30
0.0
  0
VERTEX
  5
400
  8
CYAN
 10
29.43948932
 20
10.39984375
 30
0.0
  0
VERTEX
  5
401
  8
CYAN
 10
32.457653129999997
 20
10.072382559999999
 30
0.0
  0
VERTEX
  5
402
  8
CYAN
 10
31.36874688
 20
0.00591759
 30
0.0
  0
VERTEX
  5
403
  8
CYAN
 10
46.424059380000003
 20
0.0
 30
0.0
  0
VERTEX
  5
404
  8
CYAN
 10
45.339098190000001
 20
10.072382559999999
 30
0.0
  0
VERTEX
  5
405
  8
CYAN
 10
48.34937188
 20
10.397871220000001
 30
0.0
  0
VERTEX
  5
406
  8
CYAN
 10
49.46984063
 20
0.00197253
 30
0.0
  0
VERTEX
  5
407
  8
CYAN
 10
57.593239320000002
 20
0.0
 30
0.0
  0
VERTEX
  5
408
  8
CYAN
 10
56.303121879999999
 20
10.672070059999999
 30
0.0
  0
VERTEX
  5
409
  8
CYAN
 10
59.313395569999997
 20
11.037011339999999
 30
0.0
  0
VERTEX
  5
40A
  8
CYAN
 10
60.603032249999998
 20
0.3622971
 30
0.0
 42
0.29022636
  0
VERTEX
  5
40B
  8
CYAN
 10
69.504556355000005
 20
3.606901895
 30
0.0
 42
0.29022636
  0
VERTEX
  5
40C
  8
CYAN
 10
70.369293909999996
 20
13.041774480000001
 30
0.0
 42
-0.20884013
  0
VERTEX
  5
40D
  8
CYAN
 10
59.905615130000001
 20
37.55527137
 30
0.0
 42
0.23778537
  0
VERTEX
  5
40E
  8
CYAN
 10
57.408065280000002
 20
42.612966235000002
 30
0.0
 42
0.23778537
  0
VERTEX
  5
40F
  8
CYAN
 10
51.85675444000001
 20
43.61345639999999
 30
0.0
  0
VERTEX
  5
410
  8
CYAN
 10
53.643981760000003
 20
31.09103503
 30
0.0
  0
VERTEX
  5
411
  8
CYAN
 10
50.641598190000003
 20
30.662968750000001
 30
0.0
  0
VERTEX
  5
412
  8
CYAN
 10
47.463781660000002
 20
52.97779057999999
 30
0.0
 42
0.38894185
  0
VERTEX
  5
413
  8
CYAN
 10
40.419294260000001
 20
58.763456400000003
 30
0.0
  0
VERTEX
  5
414
  8
CYAN
 10
40.419294260000001
 20
40.295448839999992
 30
0.0
  0
VERTEX
  5
415
  8
CYAN
 10
37.385348190000002
 20
40.295448839999992
 30
0.0
  0
VERTEX
  5
416
  8
CYAN
 10
37.389400309999999
 20
58.75960022000001
 30
0.0
 42
0.38899289
  0
VERTEX
  5
417
  8
CYAN
 10
30.335075509999999
 20
52.979628779999992
 30
0.0
  0
VERTEX
  5
418
  8
CYAN
 10
27.151208069999999
 20
30.66888634
 30
0.0
  0
VERTEX
  5
419
  8
CYAN
 10
24.156715630000001
 20
31.09498009
 30
0.0
  0
VERTEX
  5
41A
  8
CYAN
 10
25.944614600000001
 20
43.615957160000001
 30
0.0
 42
0.2378594
  0
VERTEX
  5
41B
  8
CYAN
 10
20.391926160000001
 20
42.61834549999999
 30
0.0
 42
0.2378594
  0
VERTEX
  5
41C
  8
CYAN
 10
17.892660280000001
 20
37.560554680000003
 30
0.0
 42
-0.20883078
  0
VERTEX
  5
41D
  8
CYAN
 10
7.4271816800000003
 20
13.05030595
 30
0.0
  0
SEQEND
  5
41E
  8
CYAN
  0
POLYLINE
  5
11F
  8
CYAN
 66
     1
 10
0.0
 20
0.0
 30
0.0
 70
     1
  0
VERTEX
  5
41F
  8
CYAN
 10
371.37057562000001
 20
115.57247291
 30
0.0
 42
0.25349903
  0
VERTEX
  5
420
  8
CYAN
 10
374.04817965500001
 20
110.63405641999999
 30
0.0
 42
0.25349903
  0
VERTEX
  5
421
  8
CYAN
 10
379.64742124999998
 20
110.18016832000001
 30
0.0
 42
0.25349903
  0
VERTEX
  5
422
  8
CYAN
 10
383.08547858999998
 20
114.622834475
 30
0.0
 42
0.25349903
  0
VERTEX
  5
423
  8
CYAN
 10
381.24138742999997
 20
119.9291372
 30
0.0
 42
-0.33163565
  0
VERTEX
  5
424
  8
CYAN
 10
380.21536129999998
 20
125.23534218499999
 30
0.0
 42
-0.33163565
  0
VERTEX
  5
425
  8
CYAN
 10
385.00683307000003
 20
127.73541003
 30
0.0
  0
VERTEX
  5
426
  8
CYAN
 10
385.00683307000003
 20
146.17185509000001
 30
0.0
  0
VERTEX
  5
427
  8
CYAN
 10
388.03288801000002
 20
146.16988255999999
 30
0.0
  0
VERTEX
  5
428
  8
CYAN
 10
388.03683307
 20
127.73343749999999
 30
0.0
 42
-0.33170033
  0
VERTEX
  5
429
  8
CYAN
 10
392.83114530500001
 20
125.23733006000001
 30
0.0
 42
-0.33170033
  0
VERTEX
  5
42A
  8
CYAN
 10
391.8084892
 20
119.9297735
 30
0.0
 42
0.25356206
  0
VERTEX
  5
42B
  8
CYAN
 10
389.96305322500001
 20
114.623805735
 30
0.0
 42
0.25356206
  0
VERTEX
  5
42C
  8
CYAN
 10
393.40114803
 20
110.18101022499999
 30
0.0
 42
0.25356206
  0
VERTEX
  5
42D
  8
CYAN
 10
399.00041078499999
 20
110.636185415
 30
0.0
 42
0.25356206
  0
VERTEX
  5
42E
  8
CYAN
 10
401.67577812999991
 20
115.5759564
 30
0.0
  0
VERTEX
  5
42F
  8
CYAN
 10
401.66849703999998
 20
165.74882144
 30
0.0
 42
0.20957463
  0
VERTEX
  5
430
  8
CYAN
 10
400.59455544500003
 20
168.19848404999999
 30
0.0
 42
0.20957463
  0
VERTEX
  5
431
  8
CYAN
 10
398.06526345999998
 20
169.06847227
 30
0.0
 42
-0.21770925
  0
VERTEX
  5
432
  8
CYAN
 10
394.62153423000001
 20
170.32157672
 30
0.0
 42
-0.21770925
  0
VERTEX
  5
433
  8
CYAN
 10
393.31566069000002
 20
173.7456439
 30
0.0
  0
VERTEX
  5
434
  8
CYAN
 10
393.31269128999998
 20
196.63433359000001
 30
0.0
 42
0.4142145300000001
  0
VERTEX
  5
435
  8
CYAN
 10
386.51050541500001
 20
203.43658336499999
 30
0.0
 42
0.4142145300000001
  0
VERTEX
  5
436
  8
CYAN
 10
379.70827813
 20
196.63437500000001
 30
0.0
  0
VERTEX
  5
437
  8
CYAN
 10
379.71482293000003
 20
173.74529242
 30
0.0
 42
-0.21787927
  0
VERTEX
  5
438
  8
CYAN
 10
378.41037626500002
 20
170.31821812000001
 30
0.0
 42
-0.21787927
  0
VERTEX
  5
439
  8
CYAN
 10
374.96449195000002
 20
169.06430399999999
 30
0.0
 42
0.20935299
  0
VERTEX
  5
43A
  8
CYAN
 10
372.43933236999999
 20
168.19190080000001
 30
0.0
 42
0.20935299
  0
VERTEX
  5
43B
  8
CYAN
 10
371.36788801
 20
165.74455015000001
 30
0.0
  0
VERTEX
  5
43C
  8
CYAN
 10
371.37057562000001
 20
115.57247291
 30
0.0
  0
SEQEND
  5
43D
  8
CYAN
  0
POLYLINE
  5
13F
  8
CYAN
 66
     1
 10
0.0
 20
0.0
 30
0.0
 70
     1
  0
VERTEX
  5
43E
  8
CYAN
 10
181.70831142
 20
10.03158361
 30
0.0
 42
-0.3901427
  0
VERTEX
  5
43F
  8
CYAN
 10
180.979747285
 20
7.7475751949999987
 30
0.0
 42
-0.3901427
  0
VERTEX
  5
440
  8
CYAN
 10
178.64326643999999
 20
8.2845643899999981
 30
0.0
 42
-0.27693675
  0
VERTEX
  5
441
  8
CYAN
 10
176.35512456999999
 20
45.782804089999999
 30
0.0
 42
-0.27978399
  0
VERTEX
  5
442
  8
CYAN
 10
187.12826752500001
 20
52.324797375000003
 30
0.0
 42
-0.27978399
  0
VERTEX
  5
443
  8
CYAN
 10
197.90293725000001
 20
45.78531899
 30
0.0
 42
-0.27689872
  0
VERTEX
  5
444
  8
CYAN
 10
195.61952217999999
 20
8.2871499899999996
 30
0.0
 42
-0.38980408
  0
VERTEX
  5
445
  8
CYAN
 10
193.28275232499999
 20
7.7505088249999989
 30
0.0
 42
-0.38980408
  0
VERTEX
  5
446
  8
CYAN
 10
192.55182594999999
 20
10.033976300000001
 30
0.0
 42
0.16010494
  0
VERTEX
  5
447
  8
CYAN
 10
194.18250327000001
 20
23.782987120000001
 30
0.0
 42
0.3225019599999999
  0
VERTEX
  5
448
  8
CYAN
 10
188.64073931999999
 20
28.921112650000001
 30
0.0
  0
VERTEX
  5
449
  8
CYAN
 10
188.64073931999999
 20
34.868671370000001
 30
0.0
  0
VERTEX
  5
44A
  8
CYAN
 10
185.61073931999999
 20
34.868671370000001
 30
0.0
  0
VERTEX
  5
44B
  8
CYAN
 10
185.60990910000001
 20
28.921013670000001
 30
0.0
 42
0.3224006099999999
  0
VERTEX
  5
44C
  8
CYAN
 10
180.07428999000001
 20
23.78201146
 30
0.0
 42
0.16011681
  0
VERTEX
  5
44D
  8
CYAN
 10
181.70831142
 20
10.03158361
 30
0.0
  0
SEQEND
  5
44E
  8
CYAN
  0
POLYLINE
  5
151
  8
CYAN
 66
     1
 10
0.0
 20
0.0
 30
0.0
 70
     1
  0
VERTEX
  5
44F
  8
CYAN
 10
267.70210208999998
 20
65.998116699999997
 30
0.0
 42
-0.3332206
  0
VERTEX
  5
450
  8
CYAN
 10
273.08568893
 20
77.080703279999994
 30
0.0
 42
0.20671308
  0
VERTEX
  5
451
  8
CYAN
 10
314.50040596000002
 20
109.14918733499999
 30
0.0
 42
0.20671308
  0
VERTEX
  5
452
  8
CYAN
 10
319.54920271999998
 20
161.28435884000001
 30
0.0
 42
0.31529522
  0
VERTEX
  5
453
  8
CYAN
 10
304.82272605499998
 20
172.45299962999999
 30
0.0
 42
0.31529522
  0
VERTEX
  5
454
  8
CYAN
 10
289.29075512999998
 20
162.43473975000001
 30
0.0
 42
-0.32553655
  0
VERTEX
  5
455
  8
CYAN
 10
279.74597738
 20
156.52478837999999
 30
0.0
  0
VERTEX
  5
456
  8
CYAN
 10
279.74589557000002
 20
172.31152369
 30
0.0
  0
VERTEX
  5
457
  8
CYAN
 10
276.71984063000002
 20
172.31152369
 30
0.0
  0
VERTEX
  5
458
  8
CYAN
 10
276.71984063000002
 20
155.82603503000001
 30
0.0
 42
-0.23001061
  0
VERTEX
  5
459
  8
CYAN
 10
272.16886054999998
 20
156.83440661500001
 30
0.0
 42
-0.23001061
  0
VERTEX
  5
45A
  8
CYAN
 10
270.14791202999999
 20
161.03488278
 30
0.0
  0
VERTEX
  5
45B
  8
CYAN
 10
270.23769193999999
 20
187.59763634000001
 30
0.0
 42
-0.26942457
  0
VERTEX
  5
45C
  8
CYAN
 10
272.18311354000002
 20
190.99484608
 30
0.0
 42
0.23500625
  0
VERTEX
  5
45D
  8
CYAN
 10
274.49043085
 20
194.48945376
 30
0.0
 42
0.23500625
  0
VERTEX
  5
45E
  8
CYAN
 10
273.09501040499998
 20
198.43771892000001
 30
0.0
 42
0.23500625
  0
VERTEX
  5
45F
  8
CYAN
 10
269.10421852500002
 20
199.70640965000001
 30
0.0
 42
0.23500625
  0
VERTEX
  5
460
  8
CYAN
 10
265.68503513000002
 20
197.28872874999999
 30
0.0
 42
-0.22916659
  0
VERTEX
  5
461
  8
CYAN
 10
260.50291780999999
 20
193.54221711
 30
0.0
 42
-0.22916659
  0
VERTEX
  5
462
  8
CYAN
 10
254.34883769999999
 20
195.27945266500001
 30
0.0
 42
-0.22916659
  0
VERTEX
  5
463
  8
CYAN
 10
251.89075593000001
 20
201.18271645499999
 30
0.0
 42
-0.22916659
  0
VERTEX
  5
464
  8
CYAN
 10
254.99316401999999
 20
206.77429524999999
 30
0.0
  0
VERTEX
  5
465
  8
CYAN
 10
272.68378568999998
 20
219.19564389999999
 30
0.0
 42
-0.2291526
  0
VERTEX
  5
466
  8
CYAN
 10
276.98631214
 20
219.89644463499999
 30
0.0
 42
-0.2291526
  0
VERTEX
  5
467
  8
CYAN
 10
280.20666767
 20
216.95838986999999
 30
0.0
  0
VERTEX
  5
468
  8
CYAN
 10
271.58304426000001
 20
210.48242137
 30
0.0
  0
VERTEX
  5
469
  8
CYAN
 10
273.40183307000001
 20
208.05802747000001
 30
0.0
  0
VERTEX
  5
46A
  8
CYAN
 10
282.02628569000001
 20
214.53425755999999
 30
0.0
 42
0.22889575
  0
VERTEX
  5
46B
  8
CYAN
 10
289.148596575
 20
207.60418099500001
 30
0.0
 42
0.22889575
  0
VERTEX
  5
46C
  8
CYAN
 10
299.00431297
 20
208.87623755999999
 30
0.0
  0
VERTEX
  5
46D
  8
CYAN
 10
313.47042682
 20
218.32175756000001
 30
0.0
  0
VERTEX
  5
46E
  8
CYAN
 10
322.67089557000003
 20
202.41623009
 30
0.0
  0
VERTEX
  5
46F
  8
CYAN
 10
325.29058307000003
 20
203.93123009000001
 30
0.0
  0
VERTEX
  5
470
  8
CYAN
 10
316.09405937999998
 20
219.83675756
 30
0.0
 42
-0.22302807
  0
VERTEX
  5
471
  8
CYAN
 10
318.60807651499999
 20
221.27071649499999
 30
0.0
 42
-0.22302807
  0
VERTEX
  5
472
  8
CYAN
 10
321.31739356000003
 20
220.25281595000001
 30
0.0
 42
-0.10449776
  0
VERTEX
  5
473
  8
CYAN
 10
343.04867576999999
 20
185.93749126
 30
0.0
 42
-0.28468385
  0
VERTEX
  5
474
  8
CYAN
 10
340.28924568000002
 20
172.20793606999999
 30
0.0
 42
0.25667
  0
VERTEX
  5
475
  8
CYAN
 10
337.76043292999998
 20
162.32228837
 30
0.0
 42
-0.03251027
  0
VERTEX
  5
476
  8
CYAN
 10
339.82931490999999
 20
151.40567508999999
 30
0.0
  0
VERTEX
  5
477
  8
CYAN
 10
332.65648176000002
 20
153.21226512000001
 30
0.0
  0
VERTEX
  5
478
  8
CYAN
 10
331.91870806999998
 20
150.27498009000001
 30
0.0
  0
VERTEX
  5
479
  8
CYAN
 10
340.16441069000001
 20
148.19777368999999
 30
0.0
 42
-0.02473056
  0
VERTEX
  5
47A
  8
CYAN
 10
340.45768337999999
 20
139.74681179999999
 30
0.0
  0
VERTEX
  5
47B
  8
CYAN
 10
334.19120807000002
 20
141.46312499999999
 30
0.0
  0
VERTEX
  5
47C
  8
CYAN
 10
333.39030938000002
 20
138.53964869000001
 30
0.0
  0
VERTEX
  5
47D
  8
CYAN
 10
340.35773175999998
 20
136.6340625
 30
0.0
 42
-0.02807231
  0
VERTEX
  5
47E
  8
CYAN
 10
339.33100818000003
 20
127.09219355
 30
0.0
  0
VERTEX
  5
47F
  8
CYAN
 10
333.12597319000002
 20
129.36482384000001
 30
0.0
  0
VERTEX
  5
480
  8
CYAN
 10
332.08441069000003
 20
126.51828125
 30
0.0
  0
VERTEX
  5
481
  8
CYAN
 10
338.77960675999998
 20
124.0662689
 30
0.0
 42
-0.02648409
  0
VERTEX
  5
482
  8
CYAN
 10
336.51882882000001
 20
115.29821953
 30
0.0
  0
VERTEX
  5
483
  8
CYAN
 10
330.02890313
 20
117.72417994
 30
0.0
  0
VERTEX
  5
484
  8
CYAN
 10
328.96366926000002
 20
114.8875
 30
0.0
  0
VERTEX
  5
485
  8
CYAN
 10
335.55628568999998
 20
112.4197064
 30
0.0
 42
-0.02826579
  0
VERTEX
  5
486
  8
CYAN
 10
331.81984725000001
 20
103.50844408
 30
0.0
  0
VERTEX
  5
487
  8
CYAN
 10
325.82320050999999
 20
106.92388634
 30
0.0
  0
VERTEX
  5
488
  8
CYAN
 10
324.32398175999998
 20
104.29039012
 30
0.0
  0
VERTEX
  5
489
  8
CYAN
 10
330.44316069000001
 20
100.80865247
 30
0.0
 42
-0.02737932
  0
VERTEX
  5
48A
  8
CYAN
 10
325.60179740000001
 20
92.797692029999979
 30
0.0
  0
VERTEX
  5
48B
  8
CYAN
 10
319.96835676000001
 20
96.940273689999998
 30
0.0
  0
VERTEX
  5
48C
  8
CYAN
 10
318.16929426000002
 20
94.500097530000005
 30
0.0
  0
VERTEX
  5
48D
  8
CYAN
 10
323.85054425999999
 20
90.320038809999986
 30
0.0
 42
-0.02603185
  0
VERTEX
  5
48E
  8
CYAN
 10
318.21064568000003
 20
83.434621359999994
 30
0.0
  0
VERTEX
  5
48F
  8
CYAN
 10
312.35390312999999
 20
87.942987650000006
 30
0.0
  0
VERTEX
  5
490
  8
CYAN
 10
310.50355181999998
 20
85.544237650000014
 30
0.0
  0
VERTEX
  5
491
  8
CYAN
 10
316.12167682
 20
81.216230089999996
 30
0.0
 42
-0.02803605
  0
VERTEX
  5
492
  8
CYAN
 10
309.04979215999998
 20
74.746902340000005
 30
0.0
  0
VERTEX
  5
493
  8
CYAN
 10
304.08058306999999
 20
80.115487650000006
 30
0.0
  0
VERTEX
  5
494
  8
CYAN
 10
301.85937188000003
 20
78.058007559999993
 30
0.0
  0
VERTEX
  5
495
  8
CYAN
 10
306.66476301
 20
72.867948839999997
 30
0.0
 42
-0.02760362
  0
VERTEX
  5
496
  8
CYAN
 10
298.84612171999999
 20
67.583697520000001
 30
0.0
  0
VERTEX
  5
497
  8
CYAN
 10
294.48163800999998
 20
73.587968750000002
 30
0.0
  0
VERTEX
  5
498
  8
CYAN
 10
292.03159819000001
 20
71.806660030000003
 30
0.0
  0
VERTEX
  5
499
  8
CYAN
 10
296.20179425999999
 20
66.066230090000005
 30
0.0
 42
-0.02402184
  0
VERTEX
  5
49A
  8
CYAN
 10
288.825738
 20
62.45225516
 30
0.0
  0
VERTEX
  5
49B
  8
CYAN
 10
283.84112943999997
 20
68.833867440000006
 30
0.0
  0
VERTEX
  5
49C
  8
CYAN
 10
281.45421563000002
 20
66.967733870000004
 30
0.0
  0
VERTEX
  5
49D
  8
CYAN
 10
285.91241925999998
 20
61.256893900000001
 30
0.0
  0
VERTEX
  5
49E
  8
CYAN
 10
283.33869686000003
 20
60.305248669999997
 30
0.0
 42
0.39285082
  0
VERTEX
  5
49F
  8
CYAN
 10
280.46786276
 20
52.362729870000003
 30
0.0
 42
0.24326134
  0
VERTEX
  5
4A0
  8
CYAN
 10
334.63148928999999
 20
7.4781187799999991
 30
0.0
 42
-0.37087902
  0
VERTEX
  5
4A1
  8
CYAN
 10
336.75631929500003
 20
4.6558496800000002
 30
0.0
 42
-0.37087902
  0
VERTEX
  5
4A2
  8
CYAN
 10
334.28373821000002
 20
2.13266752
 30
0.0
 42
-0.317603
  0
VERTEX
  5
4A3
  8
CYAN
 10
267.70210208999998
 20
65.998116699999997
 30
0.0
  0
SEQEND
  5
4A4
  8
CYAN
  0
POLYLINE
  5
1A8
  8
CYAN
 66
     1
 10
0.0
 20
0.0
 30
0.0
 70
     1
  0
VERTEX
  5
4A5
  8
CYAN
 10
234.09971114999999
 20
104.34836109
 30
0.0
 42
-0.38864221
  0
VERTEX
  5
4A6
  8
CYAN
 10
233.54103152499999
 20
101.875271205
 30
0.0
 42
-0.38864221
  0
VERTEX
  5
4A7
  8
CYAN
 10
231.02838094000001
 20
102.21421594
 30
0.0
 42
-0.35971181
  0
VERTEX
  5
4A8
  8
CYAN
 10
230.68894316999999
 20
157.81504419000001
 30
0.0
 42
-0.22538
  0
VERTEX
  5
4A9
  8
CYAN
 10
242.53366516
 20
163.43220497499999
 30
0.0
 42
-0.22538
  0
VERTEX
  5
4AA
  8
CYAN
 10
254.37243014000001
 20
157.80249999
 30
0.0
 42
-0.35970568
  0
VERTEX
  5
4AB
  8
CYAN
 10
253.97457295999999
 20
102.2024959
 30
0.0
 42
-0.38856544
  0
VERTEX
  5
4AC
  8
CYAN
 10
251.46243838500001
 20
101.86869525500001
 30
0.0
 42
-0.38856544
  0
VERTEX
  5
4AD
  8
CYAN
 10
250.90826851
 20
104.34157591
 30
0.0
 42
0.19004816
  0
VERTEX
  5
4AE
  8
CYAN
 10
255.169104
 20
133.36909509
 30
0.0
 42
0.37981467
  0
VERTEX
  5
4AF
  8
CYAN
 10
244.03687188000001
 20
141.24021497000001
 30
0.0
  0
VERTEX
  5
4B0
  8
CYAN
 10
244.04081694000001
 20
147.29429637000001
 30
0.0
  0
VERTEX
  5
4B1
  8
CYAN
 10
241.00687188000001
 20
147.2962689
 30
0.0
  0
VERTEX
  5
4B2
  8
CYAN
 10
241.00875957
 20
141.23667087999999
 30
0.0
 42
0.37993043
  0
VERTEX
  5
4B3
  8
CYAN
 10
229.86431655000001
 20
133.38327751
 30
0.0
 42
0.19006215
  0
VERTEX
  5
4B4
  8
CYAN
 10
234.09971114999999
 20
104.34836109
 30
0.0
  0
SEQEND
  5
4B5
  8
CYAN
  0
POLYLINE
  5
1BA
  8
CYAN
 66
     1
 10
0.0
 20
0.0
 30
0.0
 70
     1
  0
VERTEX
  5
4B6
  8
CYAN
 10
64.920574189999996
 20
75.906938850000003
 30
0.0
 42
-0.38844641
  0
VERTEX
  5
4B7
  8
CYAN
 10
64.363906665000002
 20
73.437866395
 30
0.0
 42
-0.38844641
  0
VERTEX
  5
4B8
  8
CYAN
 10
61.855206010000003
 20
73.773453230000001
 30
0.0
 42
-0.35968769
  0
VERTEX
  5
4B9
  8
CYAN
 10
61.500117279999991
 20
129.37282102
 30
0.0
 42
-0.2253989
  0
VERTEX
  5
4BA
  8
CYAN
 10
73.345643330000001
 20
134.99423394499999
 30
0.0
 42
-0.2253989
  0
VERTEX
  5
4BB
  8
CYAN
 10
85.187806859999995
 20
129.36574092000001
 30
0.0
 42
-0.35972537
  0
VERTEX
  5
4BC
  8
CYAN
 10
84.799822430000006
 20
73.763008819999996
 30
0.0
 42
-0.38853525
  0
VERTEX
  5
4BD
  8
CYAN
 10
82.285342514999996
 20
73.427997610000006
 30
0.0
 42
-0.38853525
  0
VERTEX
  5
4BE
  8
CYAN
 10
81.729500200000004
 20
75.903049339999995
 30
0.0
 42
0.19005226
  0
VERTEX
  5
4BF
  8
CYAN
 10
85.989674140000005
 20
104.93335107
 30
0.0
 42
0.37987681
  0
VERTEX
  5
4C0
  8
CYAN
 10
74.853981759999996
 20
112.79845640000001
 30
0.0
  0
VERTEX
  5
4C1
  8
CYAN
 10
74.853981759999996
 20
118.85648387000001
 30
0.0
  0
VERTEX
  5
4C2
  8
CYAN
 10
71.823981759999995
 20
118.85451134
 30
0.0
  0
VERTEX
  5
4C3
  8
CYAN
 10
71.823763600000007
 20
112.79514966000001
 30
0.0
 42
0.37994092
  0
VERTEX
  5
4C4
  8
CYAN
 10
60.67953773
 20
104.93939996
 30
0.0
 42
0.19005213
  0
VERTEX
  5
4C5
  8
CYAN
 10
64.920574189999996
 20
75.906938850000003
 30
0.0
  0
SEQEND
  5
4C6
  8
CYAN
  0
POLYLINE
  5
1CC
  8
CYAN
 66
     1
 10
0.0
 20
0.0
 30
0.0
 70
     1
  0
VERTEX
  5
4C7
  8
CYAN
 10
170.63796604000001
 20
243.67675312
 30
0.0
 42
0.22542561
  0
VERTEX
  5
4C8
  8
CYAN
 10
182.48164982500001
 20
238.04955054999999
 30
0.0
 42
0.22542561
  0
VERTEX
  5
4C9
  8
CYAN
 10
194.32656462
 20
243.67416145999999
 30
0.0
 42
0.35972524
  0
VERTEX
  5
4CA
  8
CYAN
 10
193.96152537
 20
299.27554924999998
 30
0.0
 42
0.38826038
  0
VERTEX
  5
4CB
  8
CYAN
 10
191.44951645
 20
299.60889644500003
 30
0.0
 42
0.38826038
  0
VERTEX
  5
4CC
  8
CYAN
 10
190.89318779000001
 20
297.13668941999998
 30
0.0
 42
-0.19003376
  0
VERTEX
  5
4CD
  8
CYAN
 10
195.14017719
 20
268.10756434000001
 30
0.0
 42
-0.38003874
  0
VERTEX
  5
4CE
  8
CYAN
 10
183.99710676000001
 20
260.24662122000001
 30
0.0
  0
VERTEX
  5
4CF
  8
CYAN
 10
183.99710676000001
 20
254.18662122000001
 30
0.0
  0
VERTEX
  5
4D0
  8
CYAN
 10
180.97105182000001
 20
254.18662122000001
 30
0.0
  0
VERTEX
  5
4D1
  8
CYAN
 10
180.96905303
 20
260.24731206000001
 30
0.0
 42
-0.3799287
  0
VERTEX
  5
4D2
  8
CYAN
 10
169.83374849
 20
268.10992168000001
 30
0.0
 42
-0.19004256
  0
VERTEX
  5
4D3
  8
CYAN
 10
174.08640399000001
 20
297.14039510999999
 30
0.0
 42
0.38842429
  0
VERTEX
  5
4D4
  8
CYAN
 10
173.5320129399999
 20
299.61298349499998
 30
0.0
 42
0.38842429
  0
VERTEX
  5
4D5
  8
CYAN
 10
171.01998642000001
 20
299.28016898999999
 30
0.0
 42
0.35971045
  0
VERTEX
  5
4D6
  8
CYAN
 10
170.63796604000001
 20
243.67675312
 30
0.0
  0
SEQEND
  5
4D7
  8
CYAN
  0
POLYLINE
  5
1DE
  8
CYAN
 66
     1
 10
0.0
 20
0.0
 30
0.0
 70
     1
  0
VERTEX
  5
4D8
  8
CYAN
 10
227.74901496999999
 20
253.84355452
 30
0.0
 42
0.4067434900000001
  0
VERTEX
  5
4D9
  8
CYAN
 10
230.439114335
 20
252.81859403000001
 30
0.0
 42
0.4067434900000001
  0
VERTEX
  5
4DA
  8
CYAN
 10
231.53252244000001
 20
255.48160686
 30
0.0
 42
-0.20385363
  0
VERTEX
  5
4DB
  8
CYAN
 10
231.71119042999999
 20
265.01017209000003
 30
0.0
 42
-0.34718214
  0
VERTEX
  5
4DC
  8
CYAN
 10
234.82407709
 20
266.63386021000002
 30
0.0
  0
VERTEX
  5
4DD
  8
CYAN
 10
234.82851300999999
 20
271.91488256000002
 30
0.0
  0
VERTEX
  5
4DE
  8
CYAN
 10
237.85456694000001
 20
271.91488256000002
 30
0.0
  0
VERTEX
  5
4DF
  8
CYAN
 10
237.85419526000001
 20
266.63444298000002
 30
0.0
 42
-0.34735662
  0
VERTEX
  5
4E0
  8
CYAN
 10
240.96696577
 20
265.00612905999998
 30
0.0
 42
-0.20386251
  0
VERTEX
  5
4E1
  8
CYAN
 10
241.14482778000001
 20
255.47836273999999
 30
0.0
 42
0.40656537
  0
VERTEX
  5
4E2
  8
CYAN
 10
242.23686577000001
 20
252.81667332000001
 30
0.0
 42
0.40656537
  0
VERTEX
  5
4E3
  8
CYAN
 10
244.92623243
 20
253.83865399999999
 30
0.0
 42
0.19478852
  0
VERTEX
  5
4E4
  8
CYAN
 10
246.30513796
 20
281.34054091000002
 30
0.0
 42
0.31917306
  0
VERTEX
  5
4E5
  8
CYAN
 10
236.34328414999999
 20
288.42396216499998
 30
0.0
 42
0.31917306
  0
VERTEX
  5
4E6
  8
CYAN
 10
226.37857829000001
 20
281.34455364000002
 30
0.0
 42
0.19480753
  0
VERTEX
  5
4E7
  8
CYAN
 10
227.74901496999999
 20
253.84355452
 30
0.0
  0
SEQEND
  5
4E8
  8
CYAN
  0
POLYLINE
  5
1F0
  8
CYAN
 66
     1
 10
0.0
 20
0.0
 30
0.0
 70
     1
  0
VERTEX
  5
4E9
  8
CYAN
 10
115.40106503
 20
5.7211763099999988
 30
0.0
 42
0.38847276
  0
VERTEX
  5
4EA
  8
CYAN
 10
117.91577216
 20
5.3875563800000004
 30
0.0
 42
0.38847276
  0
VERTEX
  5
4EB
  8
CYAN
 10
118.47078630999999
 20
7.8628368699999989
 30
0.0
 42
-0.19004689
  0
VERTEX
  5
4EC
  8
CYAN
 10
114.20985184
 20
36.890157080000002
 30
0.0
 42
-0.37982831
  0
VERTEX
  5
4ED
  8
CYAN
 10
125.34214557
 20
44.759570060000001
 30
0.0
  0
VERTEX
  5
4EE
  8
CYAN
 10
125.33820050999999
 20
50.815624999999997
 30
0.0
  0
VERTEX
  5
4EF
  8
CYAN
 10
128.37214556999999
 20
50.81759753
 30
0.0
  0
VERTEX
  5
4F0
  8
CYAN
 10
128.37012052
 20
44.757983350000003
 30
0.0
 42
-0.38004745
  0
VERTEX
  5
4F1
  8
CYAN
 10
139.51892977
 20
36.901427669999997
 30
0.0
 42
-0.19005999
  0
VERTEX
  5
4F2
  8
CYAN
 10
135.27898209
 20
7.8691210900000002
 30
0.0
 42
0.38827031
  0
VERTEX
  5
4F3
  8
CYAN
 10
135.836260275
 20
5.3996445299999989
 30
0.0
 42
0.38827031
  0
VERTEX
  5
4F4
  8
CYAN
 10
138.34562287
 20
5.7342679299999988
 30
0.0
 42
0.35968235
  0
VERTEX
  5
4F5
  8
CYAN
 10
138.69479805
 20
61.335418369999999
 30
0.0
 42
0.22540699
  0
VERTEX
  5
4F6
  8
CYAN
 10
126.84823122500001
 20
66.955061700000002
 30
0.0
 42
0.22540699
  0
VERTEX
  5
4F7
  8
CYAN
 10
115.00695494999999
 20
61.324279079999997
 30
0.0
 42
0.35970853
  0
VERTEX
  5
4F8
  8
CYAN
 10
115.40106503
 20
5.7211763099999988
 30
0.0
  0
SEQEND
  5
4F9
  8
CYAN
  0
POLYLINE
  5
202
  8
CYAN
 66
     1
 10
0.0
 20
0.0
 30
0.0
 70
     1
  0
VERTEX
  5
4FA
  8
CYAN
 10
427.63540210999992
 20
200.02995056
 30
0.0
  0
VERTEX
  5
4FB
  8
CYAN
 10
436.89845954999993
 20
200.83056342
 30
0.0
 42
0.2032283
  0
VERTEX
  5
4FC
  8
CYAN
 10
443.55288191999989
 20
206.66436078999999
 30
0.0
 42
0.04799328
  0
VERTEX
  5
4FD
  8
CYAN
 10
476.58017986999999
 20
300.90949088999997
 30
0.0
 42
-0.30118277
  0
VERTEX
  5
4FE
  8
CYAN
 10
481.66258067000001
 20
303.75528126500001
 30
0.0
 42
-0.30118277
  0
VERTEX
  5
4FF
  8
CYAN
 10
486.26515774000001
 20
300.18518252000001
 30
0.0
 42
0.0300404
  0
VERTEX
  5
500
  8
CYAN
 10
506.5806199299999
 20
250.17239036000001
 30
0.0
 42
0.28139243
  0
VERTEX
  5
501
  8
CYAN
 10
516.16874687999984
 20
243.93867137000001
 30
0.0
  0
VERTEX
  5
502
  8
CYAN
 10
525.56253569
 20
243.9406439
 30
0.0
 42
-0.4142138100000001
  0
VERTEX
  5
503
  8
CYAN
 10
528.59648175999996
 20
240.9106439
 30
0.0
  0
VERTEX
  5
504
  8
CYAN
 10
528.59253568999986
 20
238.70521496999999
 30
0.0
  0
VERTEX
  5
505
  8
CYAN
 10
521.15562188000001
 20
238.70521496999999
 30
0.0
  0
VERTEX
  5
506
  8
CYAN
 10
521.15956693999999
 20
235.67521497000001
 30
0.0
  0
VERTEX
  5
507
  8
CYAN
 10
528.59648175999996
 20
235.67521497000001
 30
0.0
  0
VERTEX
  5
508
  8
CYAN
 10
528.59648074999996
 20
232.04314690000001
 30
0.0
 42
-0.4143649
  0
VERTEX
  5
509
  8
CYAN
 10
525.56648175999987
 20
229.01158140000001
 30
0.0
  0
VERTEX
  5
50A
  8
CYAN
 10
521.14980731000003
 20
229.00944322999999
 30
0.0
 42
0.37574244
  0
VERTEX
  5
50B
  8
CYAN
 10
516.75431963000005
 20
225.23206646
 30
0.0
 42
-0.40696102
  0
VERTEX
  5
50C
  8
CYAN
 10
511.87042928
 20
221.47086383000001
 30
0.0
 42
-0.25744243
  0
VERTEX
  5
50D
  8
CYAN
 10
505.37563942999992
 20
226.11415804000001
 30
0.0
 42
-0.05307772
  0
VERTEX
  5
50E
  8
CYAN
 10
483.95868941999993
 20
286.65119262000002
 30
0.0
 42
0.31965766
  0
VERTEX
  5
50F
  8
CYAN
 10
481.27807481500002
 20
288.31153095500002
 30
0.0
 42
0.31965766
  0
VERTEX
  5
510
  8
CYAN
 10
478.83225564999992
 20
286.32145893000001
 30
0.0
 42
-0.04750895
  0
VERTEX
  5
511
  8
CYAN
 10
447.51323129999992
 20
203.90967669
 30
0.0
 42
-0.25434008
  0
VERTEX
  5
512
  8
CYAN
 10
437.02972319000003
 20
196.51404259
 30
0.0
  0
VERTEX
  5
513
  8
CYAN
 10
427.51954197999999
 20
196.24620877000001
 30
0.0
 42
-0.20655187
  0
VERTEX
  5
514
  8
CYAN
 10
426.12390713999991
 20
196.80248269000001
 30
0.0
 42
-0.20655187
  0
VERTEX
  5
515
  8
CYAN
 10
425.57115037999989
 20
198.19951427000001
 30
0.0
 42
-0.20655187
  0
VERTEX
  5
516
  8
CYAN
 10
426.20834708000001
 20
199.56010886499999
 30
0.0
 42
-0.20655187
  0
VERTEX
  5
517
  8
CYAN
 10
427.63540210999992
 20
200.02995056
 30
0.0
  0
SEQEND
  5
518
  8
CYAN
  0
POLYLINE
  5
222
  8
CYAN
 66
     1
 10
0.0
 20
0.0
 30
0.0
 70
     1
  0
VERTEX
  5
519
  8
CYAN
 10
174.79453014000001
 20
81.598175729999994
 30
0.0
 42
0.35222541
  0
VERTEX
  5
51A
  8
CYAN
 10
177.30749724
 20
81.168254500000003
 30
0.0
 42
0.35222541
  0
VERTEX
  5
51B
  8
CYAN
 10
178.26642534000001
 20
83.530518839999999
 30
0.0
 42
-0.07618236
  0
VERTEX
  5
51C
  8
CYAN
 10
175.1970919
 20
102.35123254
 30
0.0
 42
-0.4005989300000001
  0
VERTEX
  5
51D
  8
CYAN
 10
182.73066069000001
 20
111.48269506
 30
0.0
  0
VERTEX
  5
51E
  8
CYAN
 10
182.74249688
 20
117.1284375
 30
0.0
  0
VERTEX
  5
51F
  8
CYAN
 10
185.76855182
 20
117.12054637
 30
0.0
  0
VERTEX
  5
520
  8
CYAN
 10
185.75779632999999
 20
111.47894493
 30
0.0
 42
-0.4008544
  0
VERTEX
  5
521
  8
CYAN
 10
193.26531621000001
 20
102.31692789
 30
0.0
 42
-0.07616564
  0
VERTEX
  5
522
  8
CYAN
 10
190.12925712000001
 20
83.511203600000016
 30
0.0
 42
0.37759604
  0
VERTEX
  5
523
  8
CYAN
 10
191.244993115
 20
81.063797280000003
 30
0.0
 42
0.37759604
  0
VERTEX
  5
524
  8
CYAN
 10
193.81370176999999
 20
81.861544339999995
 30
0.0
 42
0.28461681
  0
VERTEX
  5
525
  8
CYAN
 10
197.3362616
 20
125.70567969
 30
0.0
 42
0.26880657
  0
VERTEX
  5
526
  8
CYAN
 10
184.28451963500001
 20
133.29933754499999
 30
0.0
 42
0.26880657
  0
VERTEX
  5
527
  8
CYAN
 10
171.20642838000001
 20
125.75114988999999
 30
0.0
 42
0.28700731
  0
VERTEX
  5
528
  8
CYAN
 10
174.79453014000001
 20
81.598175729999994
 30
0.0
  0
SEQEND
  5
529
  8
CYAN
  0
POLYLINE
  5
234
  8
CYAN
 66
     1
 10
0.0
 20
0.0
 30
0.0
 70
     1
  0
VERTEX
  5
52A
  8
CYAN
 10
138.88695458999999
 20
125.49578755
 30
0.0
 42
-0.39624439
  0
VERTEX
  5
52B
  8
CYAN
 10
138.23844740000001
 20
122.91988584000001
 30
0.0
 42
-0.39624439
  0
VERTEX
  5
52C
  8
CYAN
 10
135.62744118000001
 20
123.40822764000001
 30
0.0
 42
-0.28475814
  0
VERTEX
  5
52D
  8
CYAN
 10
132.04484694999999
 20
168.99679660999999
 30
0.0
 42
-0.26871163
  0
VERTEX
  5
52E
  8
CYAN
 10
145.069739465
 20
176.63777651000001
 30
0.0
 42
-0.26871163
  0
VERTEX
  5
52F
  8
CYAN
 10
158.17819395999999
 20
169.14105592000001
 30
0.0
 42
-0.28579114
  0
VERTEX
  5
530
  8
CYAN
 10
154.67154163000001
 20
123.40537843
 30
0.0
 42
-0.39626555
  0
VERTEX
  5
531
  8
CYAN
 10
152.061280125
 20
122.92152518
 30
0.0
 42
-0.39626555
  0
VERTEX
  5
532
  8
CYAN
 10
151.41748727000001
 20
125.49700763
 30
0.0
 42
0.201544
  0
VERTEX
  5
533
  8
CYAN
 10
154.11881811999999
 20
150.03547879000001
 30
0.0
 42
0.37378187
  0
VERTEX
  5
534
  8
CYAN
 10
146.66261431999999
 20
154.78644506000001
 30
0.0
  0
VERTEX
  5
535
  8
CYAN
 10
146.66261431999999
 20
160.4578314
 30
0.0
  0
VERTEX
  5
536
  8
CYAN
 10
143.63655937999999
 20
160.4578314
 30
0.0
  0
VERTEX
  5
537
  8
CYAN
 10
143.63655937999999
 20
154.78447252999999
 30
0.0
 42
0.37384529
  0
VERTEX
  5
538
  8
CYAN
 10
136.17727002999999
 20
150.03285582000001
 30
0.0
 42
0.20154593
  0
VERTEX
  5
539
  8
CYAN
 10
138.88695458999999
 20
125.49578755
 30
0.0
  0
SEQEND
  5
53A
  8
CYAN
  0
POLYLINE
  5
246
  8
CYAN
 66
     1
 10
0.0
 20
0.0
 30
0.0
 70
     1
  0
VERTEX
  5
53B
  8
CYAN
 10
266.71058306999998
 20
262.16009752999997
 30
0.0
 42
-0.23543174
  0
VERTEX
  5
53C
  8
CYAN
 10
264.39522318500002
 20
264.96610440500001
 30
0.0
 42
-0.23543174
  0
VERTEX
  5
53D
  8
CYAN
 10
265.24228547000001
 20
268.50404893000001
 30
0.0
 42
0.13903727
  0
VERTEX
  5
53E
  8
CYAN
 10
276.32155723
 20
290.85104128
 30
0.0
 42
-0.38816868
  0
VERTEX
  5
53F
  8
CYAN
 10
282.92579337500001
 20
298.30756220000001
 30
0.0
 42
-0.38816868
  0
VERTEX
  5
540
  8
CYAN
 10
290.94414432000002
 20
292.39810474000001
 30
0.0
 42
0.28974691
  0
VERTEX
  5
541
  8
CYAN
 10
294.283877475
 20
287.49866594500003
 30
0.0
 42
0.28974691
  0
VERTEX
  5
542
  8
CYAN
 10
300.14168002999997
 20
288.41761494999997
 30
0.0
 42
-0.20397662
  0
VERTEX
  5
543
  8
CYAN
 10
357.71915179000001
 20
295.16081671000001
 30
0.0
 42
-0.20397662
  0
VERTEX
  5
544
  8
CYAN
 10
402.49241565
 20
258.33703543000001
 30
0.0
 42
-0.11584844
  0
VERTEX
  5
545
  8
CYAN
 10
411.20065282000002
 20
224.14784863
 30
0.0
 42
-0.02333196
  0
VERTEX
  5
546
  8
CYAN
 10
414.66493363000001
 20
101.71913111000001
 30
0.0
 42
-0.405396
  0
VERTEX
  5
547
  8
CYAN
 10
412.56651176499992
 20
99.850019184999994
 30
0.0
 42
-0.405396
  0
VERTEX
  5
548
  8
CYAN
 10
410.63489222999988
 20
101.89104826000001
 30
0.0
 42
0.02674077
  0
VERTEX
  5
549
  8
CYAN
 10
405.47393766999988
 20
227.11866465
 30
0.0
 42
0.2677547
  0
VERTEX
  5
54A
  8
CYAN
 10
369.73808880500002
 20
283.00523504500001
 30
0.0
 42
0.2677547
  0
VERTEX
  5
54B
  8
CYAN
 10
303.46881092000001
 20
280.04847114
 30
0.0
 42
0.24379626
  0
VERTEX
  5
54C
  8
CYAN
 10
300.17468682999998
 20
274.35561118999999
 30
0.0
 42
-0.24005534
  0
VERTEX
  5
54D
  8
CYAN
 10
297.90310896
 20
270.37218230000002
 30
0.0
  0
VERTEX
  5
54E
  8
CYAN
 10
278.70827813
 20
257.75318371999998
 30
0.0
 42
-0.4028963700000001
  0
VERTEX
  5
54F
  8
CYAN
 10
268.44257550999998
 20
259.67455015000002
 30
0.0
  0
VERTEX
  5
550
  8
CYAN
 10
278.53468437999999
 20
266.703125
 30
0.0
  0
VERTEX
  5
551
  8
CYAN
 10
276.80269193999999
 20
269.18867137000001
 30
0.0
  0
VERTEX
  5
552
  8
CYAN
 10
266.71058306999998
 20
262.16009752999997
 30
0.0
  0
SEQEND
  5
553
  8
CYAN
  0
POLYLINE
  5
260
  8
CYAN
 66
     1
 10
0.0
 20
0.0
 30
0.0
 70
     1
  0
VERTEX
  5
554
  8
CYAN
 10
368.76402619999999
 20
41.970283360000003
 30
0.0
 42
-0.11584845
  0
VERTEX
  5
555
  8
CYAN
 10
360.05578701000002
 20
76.159470154999994
 30
0.0
 42
-0.02333199
  0
VERTEX
  5
556
  8
CYAN
 10
356.59150720999997
 20
198.58830786999999
 30
0.0
 42
-0.40524589
  0
VERTEX
  5
557
  8
CYAN
 10
358.69089730000002
 20
200.45536654
 30
0.0
 42
-0.40524589
  0
VERTEX
  5
558
  8
CYAN
 10
360.62154658999998
 20
198.41430305
 30
0.0
 42
0.02674039
  0
VERTEX
  5
559
  8
CYAN
 10
365.78251832000001
 20
73.188483445000003
 30
0.0
 42
0.26775435
  0
VERTEX
  5
55A
  8
CYAN
 10
401.51843532999987
 20
17.302049575000002
 30
0.0
 42
0.26775435
  0
VERTEX
  5
55B
  8
CYAN
 10
467.78763294999999
 20
20.258855730000001
 30
0.0
 42
0.24375678
  0
VERTEX
  5
55C
  8
CYAN
 10
471.08175198999987
 20
25.94974113
 30
0.0
 42
-0.24015826
  0
VERTEX
  5
55D
  8
CYAN
 10
473.35332784000002
 20
29.935140530000002
 30
0.0
  0
VERTEX
  5
55E
  8
CYAN
 10
492.54816068999997
 20
42.552167590000003
 30
0.0
 42
-0.40293817
  0
VERTEX
  5
55F
  8
CYAN
 10
502.81386431999999
 20
40.63277369
 30
0.0
  0
VERTEX
  5
560
  8
CYAN
 10
492.72175443999998
 20
33.604198840000009
 30
0.0
  0
VERTEX
  5
561
  8
CYAN
 10
494.45374687999998
 20
31.116679940000001
 30
0.0
  0
VERTEX
  5
562
  8
CYAN
 10
504.54585675999988
 20
38.147226310000001
 30
0.0
 42
-0.23545765
  0
VERTEX
  5
563
  8
CYAN
 10
506.861902515
 20
35.340278669999996
 30
0.0
 42
-0.23545765
  0
VERTEX
  5
564
  8
CYAN
 10
506.01415436000002
 20
31.801303390000001
 30
0.0
 42
0.13902917
  0
VERTEX
  5
565
  8
CYAN
 10
494.93488058000003
 20
9.4562754899999995
 30
0.0
 42
-0.3882082
  0
VERTEX
  5
566
  8
CYAN
 10
488.33361340499999
 20
1.9996536799999991
 30
0.0
 42
-0.3882082
  0
VERTEX
  5
567
  8
CYAN
 10
480.31623955999999
 20
7.907246569999999
 30
0.0
 42
0.28976605
  0
VERTEX
  5
568
  8
CYAN
 10
476.97602970000003
 20
12.80926854
 30
0.0
 42
0.28976605
  0
VERTEX
  5
569
  8
CYAN
 10
471.11575363999998
 20
11.89058153
 30
0.0
 42
-0.20397889
  0
VERTEX
  5
56A
  8
CYAN
 10
413.53789530500001
 20
5.1464662499999987
 30
0.0
 42
-0.20397889
  0
VERTEX
  5
56B
  8
CYAN
 10
368.76402619999999
 20
41.970283360000003
 30
0.0
  0
SEQEND
  5
56C
  8
CYAN
  0
POLYLINE
  5
27A
  8
CYAN
 66
     1
 10
0.0
 20
0.0
 30
0.0
 70
     1
  0
VERTEX
  5
56D
  8
CYAN
 10
207.83042723
 20
175.46032797000001
 30
0.0
 42
0.22540417
  0
VERTEX
  5
56E
  8
CYAN
 10
219.672138045
 20
169.83465479500001
 30
0.0
 42
0.22540417
  0
VERTEX
  5
56F
  8
CYAN
 10
231.51507974
 20
175.45773631
 30
0.0
 42
0.35972523
  0
VERTEX
  5
570
  8
CYAN
 10
231.15004149999999
 20
231.05912309000001
 30
0.0
 42
0.38841082
  0
VERTEX
  5
571
  8
CYAN
 10
228.63949156000001
 20
231.39140337500001
 30
0.0
 42
0.38841082
  0
VERTEX
  5
572
  8
CYAN
 10
228.08564797
 20
228.92026426999999
 30
0.0
 42
-0.1900396
  0
VERTEX
  5
573
  8
CYAN
 10
232.32869231000001
 20
199.89113818000001
 30
0.0
 42
-0.37992948
  0
VERTEX
  5
574
  8
CYAN
 10
221.18956693999999
 20
192.03019506000001
 30
0.0
  0
VERTEX
  5
575
  8
CYAN
 10
221.18956693999999
 20
185.97019506000001
 30
0.0
  0
VERTEX
  5
576
  8
CYAN
 10
218.15956693999999
 20
185.97019506000001
 30
0.0
  0
VERTEX
  5
577
  8
CYAN
 10
218.15756916000001
 20
192.03088690999999
 30
0.0
 42
-0.37992868
  0
VERTEX
  5
578
  8
CYAN
 10
207.02226461999999
 20
199.89349551999999
 30
0.0
 42
-0.1900442
  0
VERTEX
  5
579
  8
CYAN
 10
211.27886518
 20
228.92199642
 30
0.0
 42
0.38861844
  0
VERTEX
  5
57A
  8
CYAN
 10
210.72316481999999
 20
231.39734211499999
 30
0.0
 42
0.38861844
  0
VERTEX
  5
57B
  8
CYAN
 10
208.20850153999999
 20
231.06177131000001
 30
0.0
 42
0.35971668
  0
VERTEX
  5
57C
  8
CYAN
 10
207.83042723
 20
175.46032797000001
 30
0.0
  0
SEQEND
  5
57D
  8
CYAN
  0
POLYLINE
  5
28C
  8
CYAN
 66
     1
 10
0.0
 20
0.0
 30
0.0
 70
     1
  0
VERTEX
  5
57E
  8
CYAN
 10
341.38320091999998
 20
219.12310065
 30
0.0
 42
0.22542559
  0
VERTEX
  5
57F
  8
CYAN
 10
353.22688443999999
 20
213.49589917
 30
0.0
 42
0.22542559
  0
VERTEX
  5
580
  8
CYAN
 10
365.07179848999999
 20
219.12051
 30
0.0
 42
0.35972523
  0
VERTEX
  5
581
  8
CYAN
 10
364.70676025
 20
274.72189678000001
 30
0.0
 42
0.38841076
  0
VERTEX
  5
582
  8
CYAN
 10
362.19621004999999
 20
275.05417627000003
 30
0.0
 42
0.38841076
  0
VERTEX
  5
583
  8
CYAN
 10
361.64236671999998
 20
272.58303695000001
 30
0.0
 42
-0.19003959
  0
VERTEX
  5
584
  8
CYAN
 10
365.88541106000002
 20
243.55391187000001
 30
0.0
 42
-0.37992951
  0
VERTEX
  5
585
  8
CYAN
 10
354.74628568999998
 20
235.69296875000001
 30
0.0
  0
VERTEX
  5
586
  8
CYAN
 10
354.74628568999998
 20
229.63296875
 30
0.0
  0
VERTEX
  5
587
  8
CYAN
 10
351.71628569000001
 20
229.63296875
 30
0.0
  0
VERTEX
  5
588
  8
CYAN
 10
351.71428791
 20
235.69366059999999
 30
0.0
 42
-0.37992871
  0
VERTEX
  5
589
  8
CYAN
 10
340.57898337
 20
243.55626921000001
 30
0.0
 42
-0.19005528
  0
VERTEX
  5
58A
  8
CYAN
 10
344.83558392999998
 20
272.58674264000001
 30
0.0
 42
0.38861844
  0
VERTEX
  5
58B
  8
CYAN
 10
344.27988356999998
 20
275.062088335
 30
0.0
 42
0.38861844
  0
VERTEX
  5
58C
  8
CYAN
 10
341.76522029
 20
274.72651753000002
 30
0.0
 42
0.35971045
  0
VERTEX
  5
58D
  8
CYAN
 10
341.38320091999998
 20
219.12310065
 30
0.0
  0
SEQEND
  5
58E
  8
CYAN
  0
POLYLINE
  5
29E
  8
CYAN
 66
     1
 10
0.0
 20
0.0
 30
0.0
 70
     1
  0
VERTEX
  5
58F
  8
CYAN
 10
430.74825342000003
 20
142.47967686999999
 30
0.0
  0
VERTEX
  5
590
  8
CYAN
 10
440.01131085999998
 20
143.28226326999999
 30
0.0
 42
0.20322829
  0
VERTEX
  5
591
  8
CYAN
 10
446.66573323
 20
149.11605963
 30
0.0
 42
0.04799236
  0
VERTEX
  5
592
  8
CYAN
 10
479.69303218999988
 20
243.35921719999999
 30
0.0
 42
-0.30118281
  0
VERTEX
  5
593
  8
CYAN
 10
484.77543251499992
 20
246.20500770000001
 30
0.0
 42
-0.30118281
  0
VERTEX
  5
594
  8
CYAN
 10
489.37800904999989
 20
242.63490883
 30
0.0
 42
0.0300394
  0
VERTEX
  5
595
  8
CYAN
 10
509.69347124000001
 20
192.62409020999999
 30
0.0
 42
0.28139244
  0
VERTEX
  5
596
  8
CYAN
 10
519.28159818999995
 20
186.39037121999999
 30
0.0
  0
VERTEX
  5
597
  8
CYAN
 10
528.675387
 20
186.39234375000001
 30
0.0
 42
-0.4142139100000001
  0
VERTEX
  5
598
  8
CYAN
 10
531.70933306999984
 20
183.36234375000001
 30
0.0
  0
VERTEX
  5
599
  8
CYAN
 10
531.70538800999987
 20
181.15494128
 30
0.0
  0
VERTEX
  5
59A
  8
CYAN
 10
524.2684731899999
 20
181.15494128
 30
0.0
  0
VERTEX
  5
59B
  8
CYAN
 10
524.27241925999988
 20
178.12494128
 30
0.0
  0
VERTEX
  5
59C
  8
CYAN
 10
531.70933306999984
 20
178.12494128
 30
0.0
  0
VERTEX
  5
59D
  8
CYAN
 10
531.70933205999995
 20
174.49484674999999
 30
0.0
 42
-0.41436496
  0
VERTEX
  5
59E
  8
CYAN
 10
528.67933306999998
 20
171.46130872000001
 30
0.0
  0
VERTEX
  5
59F
  8
CYAN
 10
524.26265862000002
 20
171.46114206999999
 30
0.0
 42
0.37574239
  0
VERTEX
  5
5A0
  8
CYAN
 10
519.86717094000005
 20
167.6837653
 30
0.0
 42
-0.4069609500000001
  0
VERTEX
  5
5A1
  8
CYAN
 10
514.98328160000005
 20
163.92256368
 30
0.0
 42
-0.25744246
  0
VERTEX
  5
5A2
  8
CYAN
 10
508.48849073999997
 20
168.56585688000001
 30
0.0
 42
-0.05307772
  0
VERTEX
  5
5A3
  8
CYAN
 10
487.07154173999987
 20
229.10289247
 30
0.0
 42
0.31975407
  0
VERTEX
  5
5A4
  8
CYAN
 10
484.3901807449999
 20
230.762919885
 30
0.0
 42
0.31975407
  0
VERTEX
  5
5A5
  8
CYAN
 10
481.94510796999998
 20
228.77118523999999
 30
0.0
 42
-0.047508
  0
VERTEX
  5
5A6
  8
CYAN
 10
450.62608261000003
 20
146.36137553
 30
0.0
 42
-0.25434004
  0
VERTEX
  5
5A7
  8
CYAN
 10
440.14257550999997
 20
138.96574244000001
 30
0.0
  0
VERTEX
  5
5A8
  8
CYAN
 10
430.63239328999992
 20
138.69593508
 30
0.0
 42
-0.2065518
  0
VERTEX
  5
5A9
  8
CYAN
 10
429.23675912499988
 20
139.25220935499999
 30
0.0
 42
-0.2065518
  0
VERTEX
  5
5AA
  8
CYAN
 10
428.68400272500003
 20
140.64924055
 30
0.0
 42
-0.2065518
  0
VERTEX
  5
5AB
  8
CYAN
 10
429.32119904000001
 20
142.009834775
 30
0.0
 42
-0.2065518
  0
VERTEX
  5
5AC
  8
CYAN
 10
430.74825342000003
 20
142.47967686999999
 30
0.0
  0
SEQEND
  5
5AD
  8
CYAN
  0
POLYLINE
  5
2BE
  8
CYAN
 66
     1
 10
0.0
 20
0.0
 30
0.0
 70
     1
  0
VERTEX
  5
5AE
  8
CYAN
 10
430.7403632999999
 20
89.472430650000007
 30
0.0
 42
0.20655187
  0
VERTEX
  5
5AF
  8
CYAN
 10
429.31330824999992
 20
89.002588965000001
 30
0.0
 42
0.20655187
  0
VERTEX
  5
5B0
  8
CYAN
 10
428.67611153500002
 20
87.641994365000002
 30
0.0
 42
0.20655187
  0
VERTEX
  5
5B1
  8
CYAN
 10
429.22886830999988
 20
86.244962770000001
 30
0.0
 42
0.20655187
  0
VERTEX
  5
5B2
  8
CYAN
 10
430.62450317000003
 20
85.688688859999999
 30
0.0
  0
VERTEX
  5
5B3
  8
CYAN
 10
440.13862943999987
 20
85.958496220000015
 30
0.0
 42
0.25426238
  0
VERTEX
  5
5B4
  8
CYAN
 10
450.61819147999989
 20
93.354130319999996
 30
0.0
 42
0.04750894
  0
VERTEX
  5
5B5
  8
CYAN
 10
481.9411619
 20
175.76393902000001
 30
0.0
 42
-0.31970103
  0
VERTEX
  5
5B6
  8
CYAN
 10
484.38428621000003
 20
177.753896975
 30
0.0
 42
-0.31970103
  0
VERTEX
  5
5B7
  8
CYAN
 10
487.06365061000002
 20
176.09564624999999
 30
0.0
 42
0.05307772
  0
VERTEX
  5
5B8
  8
CYAN
 10
508.48060062000002
 20
115.55861167
 30
0.0
 42
0.25744245
  0
VERTEX
  5
5B9
  8
CYAN
 10
514.97539046999987
 20
110.91531746
 30
0.0
 42
0.4072196
  0
VERTEX
  5
5BA
  8
CYAN
 10
519.86322587999996
 20
114.67651908000001
 30
0.0
 42
-0.37570625
  0
VERTEX
  5
5BB
  8
CYAN
 10
524.25476849999995
 20
118.45389584999999
 30
0.0
  0
VERTEX
  5
5BC
  8
CYAN
 10
528.67144193999991
 20
118.45406250000001
 30
0.0
 42
0.41436496
  0
VERTEX
  5
5BD
  8
CYAN
 10
531.70144194
 20
121.48760052999999
 30
0.0
  0
VERTEX
  5
5BE
  8
CYAN
 10
531.70144194
 20
125.11769506
 30
0.0
  0
VERTEX
  5
5BF
  8
CYAN
 10
524.2684731899999
 20
125.11769506
 30
0.0
  0
VERTEX
  5
5C0
  8
CYAN
 10
524.26452813000003
 20
128.14769505999999
 30
0.0
  0
VERTEX
  5
5C1
  8
CYAN
 10
531.69749688000002
 20
128.14769505999999
 30
0.0
  0
VERTEX
  5
5C2
  8
CYAN
 10
531.70144194
 20
130.35509752999999
 30
0.0
 42
0.41421356
  0
VERTEX
  5
5C3
  8
CYAN
 10
528.67144193999991
 20
133.38509753
 30
0.0
  0
VERTEX
  5
5C4
  8
CYAN
 10
519.27370806999988
 20
133.38312500000001
 30
0.0
 42
-0.28139246
  0
VERTEX
  5
5C5
  8
CYAN
 10
509.68558111999999
 20
139.61684399000001
 30
0.0
 42
-0.0300394
  0
VERTEX
  5
5C6
  8
CYAN
 10
489.37011892999988
 20
189.62766361999991
 30
0.0
 42
0.3012310999999999
  0
VERTEX
  5
5C7
  8
CYAN
 10
484.76824119000003
 20
193.19936562500001
 30
0.0
 42
0.3012310999999999
  0
VERTEX
  5
5C8
  8
CYAN
 10
479.68514105999992
 20
190.35394350999999
 30
0.0
 42
-0.04799328
  0
VERTEX
  5
5C9
  8
CYAN
 10
446.65784310999999
 20
96.108813409999996
 30
0.0
 42
-0.20318886
  0
VERTEX
  5
5CA
  8
CYAN
 10
440.0073658
 20
90.275017050000002
 30
0.0
  0
VERTEX
  5
5CB
  8
CYAN
 10
430.7403632999999
 20
89.472430650000007
 30
0.0
  0
SEQEND
  5
5CC
  8
CYAN
  0
POLYLINE
  5
2DE
  8
CYAN
 66
     1
 10
0.0
 20
0.0
 30
0.0
 70
     1
  0
VERTEX
  5
5CD
  8
CYAN
 10
429.78559717000002
 20
37.366689219999998
 30
0.0
 42
0.2065518
  0
VERTEX
  5
5CE
  8
CYAN
 10
428.35854281000002
 20
36.896847115
 30
0.0
 42
0.2065518
  0
VERTEX
  5
5CF
  8
CYAN
 10
427.72134650499987
 20
35.536252900000001
 30
0.0
 42
0.2065518
  0
VERTEX
  5
5D0
  8
CYAN
 10
428.274102895
 20
34.139221720000002
 30
0.0
 42
0.2065518
  0
VERTEX
  5
5D1
  8
CYAN
 10
429.66973703999992
 20
33.582947429999997
 30
0.0
  0
VERTEX
  5
5D2
  8
CYAN
 10
439.17991926000002
 20
33.850781249999997
 30
0.0
 42
0.25426693
  0
VERTEX
  5
5D3
  8
CYAN
 10
449.65948129999992
 20
41.248387880000003
 30
0.0
 42
0.04750894
  0
VERTEX
  5
5D4
  8
CYAN
 10
480.98245171999997
 20
123.65819657999999
 30
0.0
 42
-0.31970102
  0
VERTEX
  5
5D5
  8
CYAN
 10
483.42557553
 20
125.64815408
 30
0.0
 42
-0.31970102
  0
VERTEX
  5
5D6
  8
CYAN
 10
486.10493941999999
 20
123.98990381
 30
0.0
 42
0.05307848
  0
VERTEX
  5
5D7
  8
CYAN
 10
507.52583448999991
 20
63.45286922999999
 30
0.0
 42
0.25738754
  0
VERTEX
  5
5D8
  8
CYAN
 10
514.01667927999995
 20
58.809575019999997
 30
0.0
 42
0.4072349400000001
  0
VERTEX
  5
5D9
  8
CYAN
 10
518.90451469000004
 20
62.568804110000002
 30
0.0
 42
-0.37570625
  0
VERTEX
  5
5DA
  8
CYAN
 10
523.29605731000004
 20
66.346180880000006
 30
0.0
  0
VERTEX
  5
5DB
  8
CYAN
 10
527.71667681999986
 20
66.348320060000006
 30
0.0
 42
0.41436496
  0
VERTEX
  5
5DC
  8
CYAN
 10
530.74667581000006
 20
69.381858089999994
 30
0.0
  0
VERTEX
  5
5DD
  8
CYAN
 10
530.74273175999997
 20
73.011952620000002
 30
0.0
  0
VERTEX
  5
5DE
  8
CYAN
 10
523.30976300999987
 20
73.011952620000002
 30
0.0
  0
VERTEX
  5
5DF
  8
CYAN
 10
523.30581694
 20
76.041952620000004
 30
0.0
  0
VERTEX
  5
5E0
  8
CYAN
 10
530.73878568999999
 20
76.041952620000004
 30
0.0
  0
VERTEX
  5
5E1
  8
CYAN
 10
530.74273175999997
 20
78.247382560000005
 30
0.0
 42
0.41421366
  0
VERTEX
  5
5E2
  8
CYAN
 10
527.71273074999988
 20
81.277382560000007
 30
0.0
  0
VERTEX
  5
5E3
  8
CYAN
 10
518.31894193999995
 20
81.275410030000003
 30
0.0
 42
-0.28139379
  0
VERTEX
  5
5E4
  8
CYAN
 10
508.73081499
 20
87.511101550000006
 30
0.0
 42
-0.03004035
  0
VERTEX
  5
5E5
  8
CYAN
 10
488.41140774000002
 20
137.52192117999999
 30
0.0
 42
0.3011827999999999
  0
VERTEX
  5
5E6
  8
CYAN
 10
483.808830355
 20
141.09201971499999
 30
0.0
 42
0.3011827999999999
  0
VERTEX
  5
5E7
  8
CYAN
 10
478.72642987
 20
138.24622854
 30
0.0
 42
-0.04799236
  0
VERTEX
  5
5E8
  8
CYAN
 10
445.69913192000001
 20
44.003071980000001
 30
0.0
 42
-0.20322968
  0
VERTEX
  5
5E9
  8
CYAN
 10
439.04865460999991
 20
38.167302079999999
 30
0.0
  0
VERTEX
  5
5EA
  8
CYAN
 10
429.78559717000002
 20
37.366689219999998
 30
0.0
  0
SEQEND
  5
5EB
  8
CYAN
  0
POLYLINE
  5
2FE
  8
CYAN
 66
     1
 10
0.0
 20
0.0
 30
0.0
 70
     1
  0
VERTEX
  5
5EC
  8
CYAN
 10
18.163785690000001
 20
66.417362650000001
 30
0.0
  0
VERTEX
  5
5ED
  8
CYAN
 10
27.671989320000002
 20
66.746796369999998
 30
0.0
 42
0.25428573
  0
VERTEX
  5
5EE
  8
CYAN
 10
38.105881179999997
 20
74.207846149999995
 30
0.0
 42
0.04750893
  0
VERTEX
  5
5EF
  8
CYAN
 10
44.57387168999999
 20
204.73109252
 30
0.0
 42
-0.31971172
  0
VERTEX
  5
5F0
  8
CYAN
 10
47.005535360000003
 20
206.73917099499999
 30
0.0
 42
-0.31971172
  0
VERTEX
  5
5F1
  8
CYAN
 10
49.698213750000001
 20
205.09757102
 30
0.0
 42
-0.02028597
  0
VERTEX
  5
5F2
  8
CYAN
 10
99.953105940000015
 20
126.58887621
 30
0.0
 42
-0.12232966
  0
VERTEX
  5
5F3
  8
CYAN
 10
107.99685401000001
 20
99.180668819999994
 30
0.0
 42
0.36172621
  0
VERTEX
  5
5F4
  8
CYAN
 10
114.260452175
 20
92.268419425000005
 30
0.0
 42
0.36172621
  0
VERTEX
  5
5F5
  8
CYAN
 10
122.19450885000001
 20
97.17378367000002
 30
0.0
 42
-0.37593962
  0
VERTEX
  5
5F6
  8
CYAN
 10
126.56519194000001
 20
100.98027369
 30
0.0
  0
VERTEX
  5
5F7
  8
CYAN
 10
139.25764781999999
 20
99.952586569999994
 30
0.0
 42
0.41436997
  0
VERTEX
  5
5F8
  8
CYAN
 10
142.26359063000001
 20
103.00421875000001
 30
0.0
  0
VERTEX
  5
5F9
  8
CYAN
 10
142.23991925999999
 20
106.63390625
 30
0.0
  0
VERTEX
  5
5FA
  8
CYAN
 10
131.73355182
 20
106.63193372000001
 30
0.0
  0
VERTEX
  5
5FB
  8
CYAN
 10
131.70987944000001
 20
109.66193371999999
 30
0.0
  0
VERTEX
  5
5FC
  8
CYAN
 10
142.22413800999999
 20
109.66193371999999
 30
0.0
  0
VERTEX
  5
5FD
  8
CYAN
 10
142.20829616
 20
111.86668392999999
 30
0.0
 42
0.41427701
  0
VERTEX
  5
5FE
  8
CYAN
 10
139.15862944
 20
114.8815814
 30
0.0
  0
VERTEX
  5
5FF
  8
CYAN
 10
129.76560216999999
 20
114.82497999
 30
0.0
 42
-0.28144128
  0
VERTEX
  5
600
  8
CYAN
 10
120.13383514
 20
120.99421957
 30
0.0
 42
-0.01872847
  0
VERTEX
  5
601
  8
CYAN
 10
48.791940744999991
 20
219.11758706500001
 30
0.0
 42
0.34217722
  0
VERTEX
  5
602
  8
CYAN
 10
42.77828512
 20
221.11343268499999
 30
0.0
 42
0.34217722
  0
VERTEX
  5
603
  8
CYAN
 10
39.345805660000011
 20
215.78750192000001
 30
0.0
 42
-0.01943269
  0
VERTEX
  5
604
  8
CYAN
 10
34.128594100000001
 20
76.943860400000005
 30
0.0
 42
-0.20331415
  0
VERTEX
  5
605
  8
CYAN
 10
27.514176819999999
 20
71.059023690000004
 30
0.0
  0
VERTEX
  5
606
  8
CYAN
 10
18.252749519999998
 20
70.206263519999993
 30
0.0
 42
0.20657072
  0
VERTEX
  5
607
  8
CYAN
 10
16.827233414999998
 20
69.725800190000001
 30
0.0
 42
0.20657072
  0
VERTEX
  5
608
  8
CYAN
 10
16.19891917
 20
68.358992819999983
 30
0.0
 42
0.20657072
  0
VERTEX
  5
609
  8
CYAN
 10
16.762390775
 20
66.964202180000001
 30
0.0
 42
0.20657072
  0
VERTEX
  5
60A
  8
CYAN
 10
18.163785690000001
 20
66.417362650000001
 30
0.0
  0
SEQEND
  5
60B
  8
CYAN
  0
POLYLINE
  5
31F
  8
CYAN
 66
     1
 10
0.0
 20
0.0
 30
0.0
 70
     1
  0
VERTEX
  5
60C
  8
CYAN
 10
213.77680021
 20
51.698830610000002
 30
0.0
 42
-0.33504001
  0
VERTEX
  5
60D
  8
CYAN
 10
208.05896025000001
 20
58.938421484999999
 30
0.0
 42
-0.33504001
  0
VERTEX
  5
60E
  8
CYAN
 10
213.45402744
 20
66.421644040000004
 30
0.0
 42
0.35760066
  0
VERTEX
  5
60F
  8
CYAN
 10
217.19643063999999
 20
72.087479349999995
 30
0.0
 42
0.35760066
  0
VERTEX
  5
610
  8
CYAN
 10
212.37304363000001
 20
76.866831739999995
 30
0.0
 42
-0.38768911
  0
VERTEX
  5
611
  8
CYAN
 10
205.68879597500001
 20
84.231447250000002
 30
0.0
 42
-0.38768911
  0
VERTEX
  5
612
  8
CYAN
 10
212.41256998
 20
91.559993590000005
 30
0.0
 42
-0.00783144
  0
VERTEX
  5
613
  8
CYAN
 10
233.39682386999999
 20
93.100793030000006
 30
0.0
 42
-0.26371546
  0
VERTEX
  5
614
  8
CYAN
 10
237.59036721499999
 20
91.031658335000003
 30
0.0
 42
-0.26371546
  0
VERTEX
  5
615
  8
CYAN
 10
237.96898175999999
 20
86.370781249999993
 30
0.0
  0
VERTEX
  5
616
  8
CYAN
 10
226.30269193999999
 20
86.370781249999993
 30
0.0
  0
VERTEX
  5
617
  8
CYAN
 10
226.30269193999999
 20
83.338808719999989
 30
0.0
  0
VERTEX
  5
618
  8
CYAN
 10
237.96490944000001
 20
83.340436839999995
 30
0.0
 42
0.2032404
  0
VERTEX
  5
619
  8
CYAN
 10
239.933661965
 20
75.556630830000003
 30
0.0
 42
0.2032404
  0
VERTEX
  5
61A
  8
CYAN
 10
246.89722319000001
 20
71.560077620000001
 30
0.0
  0
VERTEX
  5
61B
  8
CYAN
 10
251.30748818000001
 20
71.381114710000006
 30
0.0
 42
-0.3474092
  0
VERTEX
  5
61C
  8
CYAN
 10
259.33060699999999
 20
63.595108539999991
 30
0.0
 42
-0.10435703
  0
VERTEX
  5
61D
  8
CYAN
 10
262.28987165000001
 20
25.195596349999999
 30
0.0
 42
0.14445554
  0
VERTEX
  5
61E
  8
CYAN
 10
263.84544133000003
 20
15.78655957
 30
0.0
 42
-0.22551388
  0
VERTEX
  5
61F
  8
CYAN
 10
263.90076404500002
 20
7.8752411349999987
 30
0.0
 42
-0.22551388
  0
VERTEX
  5
620
  8
CYAN
 10
257.80193902500002
 20
2.8357616600000002
 30
0.0
 42
-0.22551388
  0
VERTEX
  5
621
  8
CYAN
 10
250.04289166500001
 20
4.3814667050000002
 30
0.0
 42
-0.22551388
  0
VERTEX
  5
622
  8
CYAN
 10
246.34088388000001
 20
11.373401940000001
 30
0.0
 42
0.32911256
  0
VERTEX
  5
623
  8
CYAN
 10
213.77680021
 20
51.698830610000002
 30
0.0
  0
SEQEND
  5
624
  8
CYAN
  0
POLYLINE
  5
339
  8
CYAN
 66
     1
 10
0.0
 20
0.0
 30
0.0
 70
     1
  0
VERTEX
  5
625
  8
CYAN
 10
135.77008146
 20
201.17488555
 30
0.0
 42
-0.32908832
  0
VERTEX
  5
626
  8
CYAN
 10
168.33021905999999
 20
160.84945687999999
 30
0.0
 42
0.22549983
  0
VERTEX
  5
627
  8
CYAN
 10
172.03333710000001
 20
153.85857150999999
 30
0.0
 42
0.22549983
  0
VERTEX
  5
628
  8
CYAN
 10
179.792189135
 20
152.31397561
 30
0.0
 42
0.22549983
  0
VERTEX
  5
629
  8
CYAN
 10
185.89030025
 20
157.35367820499999
 30
0.0
 42
0.22549983
  0
VERTEX
  5
62A
  8
CYAN
 10
185.83477651000001
 20
165.26458704000001
 30
0.0
 42
-0.14442951
  0
VERTEX
  5
62B
  8
CYAN
 10
184.2831529
 20
174.67362381999999
 30
0.0
 42
0.10435173
  0
VERTEX
  5
62C
  8
CYAN
 10
181.32388825000001
 20
213.07116348
 30
0.0
 42
0.3474699399999999
  0
VERTEX
  5
62D
  8
CYAN
 10
173.30076943
 20
220.85914217999999
 30
0.0
  0
VERTEX
  5
62E
  8
CYAN
 10
168.88655937999999
 20
221.03810508999999
 30
0.0
 42
-0.20318783
  0
VERTEX
  5
62F
  8
CYAN
 10
161.926090305
 20
225.0350401
 30
0.0
 42
-0.20318783
  0
VERTEX
  5
630
  8
CYAN
 10
159.95819069000001
 20
232.81649178000001
 30
0.0
  0
VERTEX
  5
631
  8
CYAN
 10
148.29597319000001
 20
232.81486265000001
 30
0.0
  0
VERTEX
  5
632
  8
CYAN
 10
148.29597319000001
 20
235.84683619
 30
0.0
  0
VERTEX
  5
633
  8
CYAN
 10
159.95831694
 20
235.84683619
 30
0.0
 42
0.26392394
  0
VERTEX
  5
634
  8
CYAN
 10
159.58199562499999
 20
240.50987732999999
 30
0.0
 42
0.26392394
  0
VERTEX
  5
635
  8
CYAN
 10
155.386159045
 20
242.57882050000001
 30
0.0
 42
0.00783144
  0
VERTEX
  5
636
  8
CYAN
 10
134.40190616999999
 20
241.03802106000001
 30
0.0
 42
0.38768915
  0
VERTEX
  5
637
  8
CYAN
 10
127.678131245
 20
233.70947472500001
 30
0.0
 42
0.38768915
  0
VERTEX
  5
638
  8
CYAN
 10
134.36237982
 20
226.34485921000001
 30
0.0
 42
-0.35760066
  0
VERTEX
  5
639
  8
CYAN
 10
139.18576683000001
 20
221.56550682
 30
0.0
 42
-0.35760066
  0
VERTEX
  5
63A
  8
CYAN
 10
135.44336362999999
 20
215.89967150999999
 30
0.0
 42
0.33498214
  0
VERTEX
  5
63B
  8
CYAN
 10
130.05072711
 20
208.41400049000001
 30
0.0
 42
0.33498214
  0
VERTEX
  5
63C
  8
CYAN
 10
135.77008146
 20
201.17488555
 30
0.0
  0
SEQEND
  5
63D
  8
CYAN
  0
POLYLINE
  5
353
  8
CYAN
 66
     1
 10
0.0
 20
0.0
 30
0.0
 70
     1
  0
VERTEX
  5
63E
  8
CYAN
 10
392.09089226999998
 20
55.627709400000001
 30
0.0
 42
-0.29909755
  0
VERTEX
  5
63F
  8
CYAN
 10
388.36731959500003
 20
57.817128515
 30
0.0
 42
-0.29909755
  0
VERTEX
  5
640
  8
CYAN
 10
388.89839740999997
 20
62.10391121
 30
0.0
  0
VERTEX
  5
641
  8
CYAN
 10
405.30941068999988
 20
62.109081400000001
 30
0.0
  0
VERTEX
  5
642
  8
CYAN
 10
405.30941068999988
 20
65.139081399999995
 30
0.0
  0
VERTEX
  5
643
  8
CYAN
 10
388.89691069000003
 20
65.135136340000003
 30
0.0
 42
-0.2692143
  0
VERTEX
  5
644
  8
CYAN
 10
388.07117281000001
 20
69.735828870000006
 30
0.0
 42
-0.2692143
  0
VERTEX
  5
645
  8
CYAN
 10
391.65681346000002
 20
72.734394519999995
 30
0.0
 42
0.23697399
  0
VERTEX
  5
646
  8
CYAN
 10
394.87161000999998
 20
75.111150159999994
 30
0.0
 42
0.23697399
  0
VERTEX
  5
647
  8
CYAN
 10
394.88536228999999
 20
79.109111530000007
 30
0.0
 42
-0.270187
  0
VERTEX
  5
648
  8
CYAN
 10
395.25398369499999
 20
84.713579754999998
 30
0.0
 42
-0.270187
  0
VERTEX
  5
649
  8
CYAN
 10
400.31245589000002
 20
87.154441259999984
 30
0.0
 42
-0.25687314
  0
VERTEX
  5
64A
  8
CYAN
 10
431.67105608000003
 20
66.569738319999999
 30
0.0
 42
-0.30406585
  0
VERTEX
  5
64B
  8
CYAN
 10
430.50579193999999
 20
55.310821220000001
 30
0.0
 42
-0.30406585
  0
VERTEX
  5
64C
  8
CYAN
 10
419.6495068399999
 20
52.107365510000001
 30
0.0
 42
0.08841984
  0
VERTEX
  5
64D
  8
CYAN
 10
392.09089226999998
 20
55.627709400000001
 30
0.0
  0
SEQEND
  5
64E
  8
CYAN
  0
ENDSEC
  0
EOF
