  0
SECTION
  2
HEADER
  9
$ACADVER
  1
AC1009
  9
$INSBASE
 10
0.0
 20
0.0
 30
0.0
  9
$EXTMIN
 10
-0.0000952587206653
 20
0.0
 30
0.0
  9
$EXTMAX
 10
1063.418666269356
 20
607.53993494971439
 30
0.0
  9
$LIMMIN
 10
0.0
 20
0.0
  9
$LIMMAX
 10
12.0
 20
9.0
  9
$ORTHOMODE
 70
     0
  9
$REGENMODE
 70
     1
  9
$FILLMODE
 70
     1
  9
$QTEXTMODE
 70
     0
  9
$MIRRTEXT
 70
     0
  9
$DRAGMODE
 70
     2
  9
$LTSCALE
 40
1.0
  9
$OSMODE
 70
   167
  9
$ATTMODE
 70
     1
  9
$TEXTSIZE
 40
0.2
  9
$TRACEWID
 40
0.05
  9
$TEXTSTYLE
  7
STANDARD
  9
$CLAYER
  8
0
  9
$CELTYPE
  6
CONTINUOUS
  9
$CECOLOR
 62
   256
  9
$DIMSCALE
 40
1.0
  9
$DIMASZ
 40
0.18
  9
$DIMEXO
 40
0.0625
  9
$DIMDLI
 40
0.38
  9
$DIMRND
 40
0.0
  9
$DIMDLE
 40
0.0
  9
$DIMEXE
 40
0.18
  9
$DIMTP
 40
0.0
  9
$DIMTM
 40
0.0
  9
$DIMTXT
 40
0.18
  9
$DIMCEN
 40
0.09
  9
$DIMTSZ
 40
0.0
  9
$DIMTOL
 70
     0
  9
$DIMLIM
 70
     0
  9
$DIMTIH
 70
     1
  9
$DIMTOH
 70
     1
  9
$DIMSE1
 70
     0
  9
$DIMSE2
 70
     0
  9
$DIMTAD
 70
     0
  9
$DIMZIN
 70
     0
  9
$DIMBLK
  1

  9
$DIMASO
 70
     1
  9
$DIMSHO
 70
     1
  9
$DIMPOST
  1

  9
$DIMAPOST
  1

  9
$DIMALT
 70
     0
  9
$DIMALTD
 70
     2
  9
$DIMALTF
 40
25.399999999999999
  9
$DIMLFAC
 40
1.0
  9
$DIMTOFL
 70
     0
  9
$DIMTVP
 40
0.0
  9
$DIMTIX
 70
     0
  9
$DIMSOXD
 70
     0
  9
$DIMSAH
 70
     0
  9
$DIMBLK1
  1

  9
$DIMBLK2
  1

  9
$DIMSTYLE
  2
STANDARD
  9
$DIMCLRD
 70
     0
  9
$DIMCLRE
 70
     0
  9
$DIMCLRT
 70
     0
  9
$DIMTFAC
 40
1.0
  9
$DIMGAP
 40
0.09
  9
$LUNITS
 70
     2
  9
$LUPREC
 70
     4
  9
$SKETCHINC
 40
0.1
  9
$FILLETRAD
 40
0.0
  9
$AUNITS
 70
     0
  9
$AUPREC
 70
     0
  9
$MENU
  1
.
  9
$ELEVATION
 40
0.0
  9
$PELEVATION
 40
0.0
  9
$THICKNESS
 40
0.0
  9
$LIMCHECK
 70
     0
  9
$BLIPMODE
 70
     0
  9
$CHAMFERA
 40
0.0
  9
$CHAMFERB
 40
0.0
  9
$SKPOLY
 70
     0
  9
$TDCREATE
 40
2455328.0357597219
  9
$TDUPDATE
 40
2455328.0362754981
  9
$TDINDWG
 40
0.0005164931
  9
$TDUSRTIMER
 40
0.0005164931
  9
$USRTIMER
 70
     1
  9
$ANGBASE
 50
0.0
  9
$ANGDIR
 70
     0
  9
$PDMODE
 70
     0
  9
$PDSIZE
 40
0.0
  9
$PLINEWID
 40
0.0
  9
$COORDS
 70
     1
  9
$SPLFRAME
 70
     0
  9
$SPLINETYPE
 70
     6
  9
$SPLINESEGS
 70
     8
  9
$ATTDIA
 70
     0
  9
$ATTREQ
 70
     1
  9
$HANDLING
 70
     1
  9
$HANDSEED
  5
92D
  9
$SURFTAB1
 70
     6
  9
$SURFTAB2
 70
     6
  9
$SURFTYPE
 70
     6
  9
$SURFU
 70
     6
  9
$SURFV
 70
     6
  9
$UCSNAME
  2

  9
$UCSORG
 10
0.0
 20
0.0
 30
0.0
  9
$UCSXDIR
 10
1.0
 20
0.0
 30
0.0
  9
$UCSYDIR
 10
0.0
 20
1.0
 30
0.0
  9
$PUCSNAME
  2

  9
$PUCSORG
 10
0.0
 20
0.0
 30
0.0
  9
$PUCSXDIR
 10
1.0
 20
0.0
 30
0.0
  9
$PUCSYDIR
 10
0.0
 20
1.0
 30
0.0
  9
$USERI1
 70
     0
  9
$USERI2
 70
     0
  9
$USERI3
 70
     0
  9
$USERI4
 70
     0
  9
$USERI5
 70
     0
  9
$USERR1
 40
0.0
  9
$USERR2
 40
0.0
  9
$USERR3
 40
0.0
  9
$USERR4
 40
0.0
  9
$USERR5
 40
0.0
  9
$WORLDVIEW
 70
     1
  9
$SHADEDGE
 70
     3
  9
$SHADEDIF
 70
    70
  9
$TILEMODE
 70
     1
  9
$MAXACTVP
 70
    64
  9
$PLIMCHECK
 70
     0
  9
$PEXTMIN
 10
1.0000000000000000E+020
 20
1.0000000000000000E+020
 30
1.0000000000000000E+020
  9
$PEXTMAX
 10
-1.0000000000000000E+020
 20
-1.0000000000000000E+020
 30
-1.0000000000000000E+020
  9
$PLIMMIN
 10
0.0
 20
0.0
  9
$PLIMMAX
 10
12.0
 20
9.0
  9
$UNITMODE
 70
     0
  9
$VISRETAIN
 70
     1
  9
$PLINEGEN
 70
     0
  9
$PSLTSCALE
 70
     1
  0
ENDSEC
  0
SECTION
  2
TABLES
  0
TABLE
  2
VPORT
 70
     1
  0
VPORT
  2
*ACTIVE
 70
     0
 10
0.0
 20
0.0
 11
1.0
 21
1.0
 12
7.8038793103448274
 22
4.5
 13
0.0
 23
0.0
 14
1.0
 24
1.0
 15
0.0
 25
0.0
 16
0.0
 26
0.0
 36
1.0
 17
0.0
 27
0.0
 37
0.0
 40
9.0
 41
1.7341954022988499
 42
50.0
 43
0.0
 44
0.0
 50
0.0
 51
0.0
 71
     0
 72
   100
 73
     1
 74
     1
 75
     0
 76
     0
 77
     0
 78
     0
  0
ENDTAB
  0
TABLE
  2
LTYPE
 70
     1
  0
LTYPE
  2
CONTINUOUS
 70
     0
  3
Solid line
 72
    65
 73
     0
 40
0.0
  0
ENDTAB
  0
TABLE
  2
LAYER
 70
     2
  0
LAYER
  2
0
 70
     0
 62
     1
  6
CONTINUOUS
  0
LAYER
  2
CYAN
 70
     0
 62
     1
  6
CONTINUOUS
  0
ENDTAB
  0
TABLE
  2
STYLE
 70
     2
  0
STYLE
  2
STANDARD
 70
     0
 40
0.0
 41
1.0
 50
0.0
 71
     0
 42
0.2
  3
txt
  4

  0
STYLE
  2
ANNOTATIVE
 70
     0
 40
0.0
 41
1.0
 50
0.0
 71
     0
 42
0.2
  3
txt
  4

  0
ENDTAB
  0
TABLE
  2
VIEW
 70
     0
  0
ENDTAB
  0
TABLE
  2
UCS
 70
     0
  0
ENDTAB
  0
TABLE
  2
APPID
 70
     3
  0
APPID
  2
ACAD
 70
     0
  0
APPID
  2
ACADANNOTATIVE
 70
     0
  0
APPID
  2
ACAD_MLEADERVER
 70
     0
  0
ENDTAB
  0
TABLE
  2
DIMSTYLE
 70
     2
  0
DIMSTYLE
  2
STANDARD
 70
     0
  3

  4

  5

  6

  7

 40
1.0
 41
0.18
 42
0.0625
 43
0.38
 44
0.18
 45
0.0
 46
0.0
 47
0.0
 48
0.0
140
0.18
141
0.09
142
0.0
143
25.399999999999999
144
1.0
145
0.0
146
1.0
147
0.09
 71
     0
 72
     0
 73
     1
 74
     1
 75
     0
 76
     0
 77
     0
 78
     0
170
     0
171
     2
172
     0
173
     0
174
     0
175
     0
176
     0
177
     0
178
     0
  0
DIMSTYLE
  2
ANNOTATIVE
 70
     0
  3

  4

  5

  6

  7

 40
1.0
 41
0.18
 42
0.0625
 43
0.38
 44
0.18
 45
0.0
 46
0.0
 47
0.0
 48
0.0
140
0.18
141
0.09
142
0.0
143
25.399999999999999
144
1.0
145
0.0
146
1.0
147
0.09
 71
     0
 72
     0
 73
     1
 74
     1
 75
     0
 76
     0
 77
     0
 78
     0
170
     0
171
     2
172
     0
173
     0
174
     0
175
     0
176
     0
177
     0
178
     0
  0
ENDTAB
  0
ENDSEC
  0
SECTION
  2
BLOCKS
  0
BLOCK
  8
0
  2
$MODEL_SPACE
 70
     0
 10
0.0
 20
0.0
 30
0.0
  3
$MODEL_SPACE
  1

  0
ENDBLK
  5
76
  8
0
  0
BLOCK
 67
     1
  8
0
  2
$PAPER_SPACE
 70
     0
 10
0.0
 20
0.0
 30
0.0
  3
$PAPER_SPACE
  1

  0
ENDBLK
  5
72
 67
     1
  8
0
  0
ENDSEC
  0
SECTION
  2
ENTITIES
  0
POLYLINE
  5
7B
  8
0
 66
     1
 10
0.0
 20
0.0
 30
0.0
 70
     1
  0
VERTEX
  5
65F
  8
0
 10
141.906756
 20
147.815697255
 30
0.0
 42
-0.41421356
  0
VERTEX
  5
660
  8
0
 10
142.91675599999999
 20
146.80569725500001
 30
0.0
 42
-0.41421356
  0
VERTEX
  5
661
  8
0
 10
141.906756
 20
145.79569725499999
 30
0.0
 42
-0.41421356
  0
VERTEX
  5
662
  8
0
 10
140.89675600000001
 20
146.80569725500001
 30
0.0
 42
-0.41421356
  0
VERTEX
  5
663
  8
0
 10
141.906756
 20
147.815697255
 30
0.0
  0
SEQEND
  5
664
  8
0
  0
POLYLINE
  5
82
  8
0
 66
     1
 10
0.0
 20
0.0
 30
0.0
 70
     1
  0
VERTEX
  5
665
  8
0
 10
243.72146341000001
 20
7.8942029250000001
 30
0.0
 42
-0.41421356
  0
VERTEX
  5
666
  8
0
 10
244.73146341
 20
6.8842029250000003
 30
0.0
 42
-0.41421356
  0
VERTEX
  5
667
  8
0
 10
243.72146341000001
 20
5.8742029249999987
 30
0.0
 42
-0.41421356
  0
VERTEX
  5
668
  8
0
 10
242.71146340999999
 20
6.8842029250000003
 30
0.0
 42
-0.41421356
  0
VERTEX
  5
669
  8
0
 10
243.72146341000001
 20
7.8942029250000001
 30
0.0
  0
SEQEND
  5
66A
  8
0
  0
POLYLINE
  5
89
  8
CYAN
 66
     1
 10
0.0
 20
0.0
 30
0.0
 70
     1
  0
VERTEX
  5
66B
  8
CYAN
 10
158.87665681999999
 20
17.727663419999999
 30
0.0
 42
-0.29909755
  0
VERTEX
  5
66C
  8
CYAN
 10
157.01487076250001
 20
18.8223731575
 30
0.0
 42
-0.29909755
  0
VERTEX
  5
66D
  8
CYAN
 10
157.28040989499999
 20
20.965764324999999
 30
0.0
  0
VERTEX
  5
66E
  8
CYAN
 10
165.485916535
 20
20.968349419999999
 30
0.0
  0
VERTEX
  5
66F
  8
CYAN
 10
165.485916535
 20
22.482363155000002
 30
0.0
  0
VERTEX
  5
670
  8
CYAN
 10
157.27966653499999
 20
22.480390624999998
 30
0.0
 42
-0.2692143
  0
VERTEX
  5
671
  8
CYAN
 10
156.866797765
 20
24.78073663
 30
0.0
 42
-0.2692143
  0
VERTEX
  5
672
  8
CYAN
 10
158.65961791999999
 20
26.280019209999999
 30
0.0
 42
0.23698397
  0
VERTEX
  5
673
  8
CYAN
 10
160.2673014225
 20
27.468871440000001
 30
0.0
 42
0.23698397
  0
VERTEX
  5
674
  8
CYAN
 10
160.27389183
 20
29.468364484999999
 30
0.0
 42
-0.27014451
  0
VERTEX
  5
675
  8
CYAN
 10
160.45870359
 20
32.269961662500002
 30
0.0
 42
-0.27014451
  0
VERTEX
  5
676
  8
CYAN
 10
162.98743913499999
 20
33.490043085000003
 30
0.0
 42
-0.25687314
  0
VERTEX
  5
677
  8
CYAN
 10
178.66673922999999
 20
23.197691110000001
 30
0.0
 42
-0.30407376
  0
VERTEX
  5
678
  8
CYAN
 10
178.08385233499999
 20
17.568662945
 30
0.0
 42
-0.30407376
  0
VERTEX
  5
679
  8
CYAN
 10
172.65596461000001
 20
15.967491474999999
 30
0.0
 42
0.08841985
  0
VERTEX
  5
67A
  8
CYAN
 10
158.87665681999999
 20
17.727663419999999
 30
0.0
  0
SEQEND
  5
67B
  8
CYAN
  0
POLYLINE
  5
9B
  8
CYAN
 66
     1
 10
0.0
 20
0.0
 30
0.0
 70
     1
  0
VERTEX
  5
67C
  8
CYAN
 10
0.982166535
 20
72.154833795000002
 30
0.0
 42
-0.20657308
  0
VERTEX
  5
67D
  8
CYAN
 10
0.2818251275
 20
72.428113310000001
 30
0.0
 42
-0.20657308
  0
VERTEX
  5
67E
  8
CYAN
 10
0.0002378425
 20
73.125155907500002
 30
0.0
 42
-0.20657308
  0
VERTEX
  5
67F
  8
CYAN
 10
0.31424639
 20
73.808206720000001
 30
0.0
 42
-0.20657308
  0
VERTEX
  5
680
  8
CYAN
 10
1.026647944999999
 20
74.048297965000003
 30
0.0
  0
VERTEX
  5
681
  8
CYAN
 10
5.6573615950000002
 20
74.47566381
 30
0.0
 42
0.20331418
  0
VERTEX
  5
682
  8
CYAN
 10
8.9645707399999992
 20
77.418082670000004
 30
0.0
 42
0.01943269
  0
VERTEX
  5
683
  8
CYAN
 10
11.573176520000001
 20
146.83990292499999
 30
0.0
 42
-0.34217724
  0
VERTEX
  5
684
  8
CYAN
 10
13.28941599
 20
149.502868745
 30
0.0
 42
-0.34217724
  0
VERTEX
  5
685
  8
CYAN
 10
16.296244065
 20
148.50494599999999
 30
0.0
 42
0.01872872
  0
VERTEX
  5
686
  8
CYAN
 10
51.96719126
 20
99.442275990000013
 30
0.0
 42
0.2814413
  0
VERTEX
  5
687
  8
CYAN
 10
56.783074775000003
 20
96.357655695000005
 30
0.0
  0
VERTEX
  5
688
  8
CYAN
 10
61.479588409999998
 20
96.386943169999995
 30
0.0
 42
-0.41427701
  0
VERTEX
  5
689
  8
CYAN
 10
63.00442177
 20
94.879493929999995
 30
0.0
  0
VERTEX
  5
68A
  8
CYAN
 10
63.010369660000002
 20
93.777118824999988
 30
0.0
  0
VERTEX
  5
68B
  8
CYAN
 10
57.75521341000001
 20
93.777118824999988
 30
0.0
  0
VERTEX
  5
68C
  8
CYAN
 10
57.767049094999997
 20
92.262118825000016
 30
0.0
  0
VERTEX
  5
68D
  8
CYAN
 10
63.020232815
 20
92.263105594999985
 30
0.0
  0
VERTEX
  5
68E
  8
CYAN
 10
63.032069004999997
 20
90.447275074999993
 30
0.0
 42
-0.41417905
  0
VERTEX
  5
68F
  8
CYAN
 10
61.529097094999997
 20
88.922445249999996
 30
0.0
  0
VERTEX
  5
690
  8
CYAN
 10
55.182869660000001
 20
89.436288809999994
 30
0.0
 42
0.37593968
  0
VERTEX
  5
691
  8
CYAN
 10
52.997528115000001
 20
87.533044305000004
 30
0.0
 42
-0.36172621
  0
VERTEX
  5
692
  8
CYAN
 10
49.030499777499998
 20
85.080362182499996
 30
0.0
 42
-0.36172621
  0
VERTEX
  5
693
  8
CYAN
 10
45.898700695000002
 20
88.536486879999984
 30
0.0
 42
0.12232122
  0
VERTEX
  5
694
  8
CYAN
 10
41.876826155000003
 20
102.23960431
 30
0.0
 42
0.02028634
  0
VERTEX
  5
695
  8
CYAN
 10
16.749380562500001
 20
141.49493798250001
 30
0.0
 42
0.31971173
  0
VERTEX
  5
696
  8
CYAN
 10
15.403041115000001
 20
142.31573819249999
 30
0.0
 42
0.31971173
  0
VERTEX
  5
697
  8
CYAN
 10
14.18720903
 20
141.31169872999999
 30
0.0
 42
-0.04750893
  0
VERTEX
  5
698
  8
CYAN
 10
10.953213775
 20
76.050075544999999
 30
0.0
 42
-0.25428573
  0
VERTEX
  5
699
  8
CYAN
 10
5.7362678450000004
 20
72.319550655
 30
0.0
  0
VERTEX
  5
69A
  8
CYAN
 10
0.982166535
 20
72.154833795000002
 30
0.0
  0
SEQEND
  5
69B
  8
CYAN
  0
POLYLINE
  5
BC
  8
CYAN
 66
     1
 10
0.0
 20
0.0
 30
0.0
 70
     1
  0
VERTEX
  5
69C
  8
CYAN
 10
37.922383255
 20
131.19456357499999
 30
0.0
 42
0.3079189
  0
VERTEX
  5
69D
  8
CYAN
 10
35.700539804999998
 20
138.281095255
 30
0.0
 42
-0.31701403
  0
VERTEX
  5
69E
  8
CYAN
 10
34.909755187499997
 20
140.96088729249999
 30
0.0
 42
-0.31701403
  0
VERTEX
  5
69F
  8
CYAN
 10
37.167779934999999
 20
142.60647227000001
 30
0.0
  0
VERTEX
  5
6A0
  8
CYAN
 10
39.770506505
 20
140.12073248499999
 30
0.0
  0
VERTEX
  5
6A1
  8
CYAN
 10
40.81601406499999
 20
141.21752935999999
 30
0.0
  0
VERTEX
  5
6A2
  8
CYAN
 10
37.730779689999999
 20
144.162705015
 30
0.0
 42
-0.34971787
  0
VERTEX
  5
6A3
  8
CYAN
 10
37.089428312499997
 20
148.86163776999999
 30
0.0
 42
-0.34971787
  0
VERTEX
  5
6A4
  8
CYAN
 10
41.526659154999997
 20
150.53563987999999
 30
0.0
  0
VERTEX
  5
6A5
  8
CYAN
 10
42.573650909999991
 20
145.32953125
 30
0.0
  0
VERTEX
  5
6A6
  8
CYAN
 10
44.061033469999998
 20
145.62838873499999
 30
0.0
  0
VERTEX
  5
6A7
  8
CYAN
 10
43.013553379999991
 20
150.83521497000001
 30
0.0
 42
-0.27258739
  0
VERTEX
  5
6A8
  8
CYAN
 10
45.469977072500001
 20
151.526341035
 30
0.0
 42
-0.27258739
  0
VERTEX
  5
6A9
  8
CYAN
 10
47.265643784999988
 20
149.71326253000001
 30
0.0
  0
VERTEX
  5
6AA
  8
CYAN
 10
48.783572784999997
 20
142.75521497
 30
0.0
 42
0.38938998
  0
VERTEX
  5
6AB
  8
CYAN
 10
54.262033975000001
 20
138.89846785500001
 30
0.0
 42
0.38946808
  0
VERTEX
  5
6AC
  8
CYAN
 10
59.743491835
 20
142.75499479000001
 30
0.0
  0
VERTEX
  5
6AD
  8
CYAN
 10
61.26259597
 20
149.712773185
 30
0.0
 42
-0.27258527
  0
VERTEX
  5
6AE
  8
CYAN
 10
63.059151100000001
 20
151.52466896000001
 30
0.0
 42
-0.27258527
  0
VERTEX
  5
6AF
  8
CYAN
 10
65.514976750000002
 20
150.83221173499999
 30
0.0
  0
VERTEX
  5
6B0
  8
CYAN
 10
64.466189720000003
 20
145.62838873499999
 30
0.0
  0
VERTEX
  5
6B1
  8
CYAN
 10
65.951600255000002
 20
145.32854498500001
 30
0.0
  0
VERTEX
  5
6B2
  8
CYAN
 10
66.999080344999996
 20
150.53537122
 30
0.0
 42
-0.34967111
  0
VERTEX
  5
6B3
  8
CYAN
 10
71.436358017499998
 20
148.8602380175
 30
0.0
 42
-0.34967111
  0
VERTEX
  5
6B4
  8
CYAN
 10
70.794697714999998
 20
144.160900145
 30
0.0
  0
VERTEX
  5
6B5
  8
CYAN
 10
67.709236594999993
 20
141.21555632499999
 30
0.0
  0
VERTEX
  5
6B6
  8
CYAN
 10
68.756717190000003
 20
140.11974622
 30
0.0
  0
VERTEX
  5
6B7
  8
CYAN
 10
71.360623439999983
 20
142.60430632500001
 30
0.0
 42
-0.31695137
  0
VERTEX
  5
6B8
  8
CYAN
 10
73.617320684999996
 20
140.9586967825
 30
0.0
 42
-0.31695137
  0
VERTEX
  5
6B9
  8
CYAN
 10
72.826676820000003
 20
138.27996658000001
 30
0.0
 42
0.3079768
  0
VERTEX
  5
6BA
  8
CYAN
 10
70.601422095000004
 20
131.192505195
 30
0.0
 42
-0.21506633
  0
VERTEX
  5
6BB
  8
CYAN
 10
70.277257739999996
 20
128.7029478625
 30
0.0
 42
-0.21506633
  0
VERTEX
  5
6BC
  8
CYAN
 10
68.196663604999998
 20
127.297918935
 30
0.0
  0
VERTEX
  5
6BD
  8
CYAN
 10
66.336267844999995
 20
131.07906249999999
 30
0.0
  0
VERTEX
  5
6BE
  8
CYAN
 10
64.977107814999997
 20
130.41033190499999
 30
0.0
  0
VERTEX
  5
6BF
  8
CYAN
 10
66.75447097
 20
126.792480595
 30
0.0
 42
-0.21392435
  0
VERTEX
  5
6C0
  8
CYAN
 10
64.141228052499983
 20
126.32402374749999
 30
0.0
 42
-0.21392435
  0
VERTEX
  5
6C1
  8
CYAN
 10
62.05304722000001
 20
127.96353317499999
 30
0.0
 42
0.33711001
  0
VERTEX
  5
6C2
  8
CYAN
 10
60.338237612500002
 20
128.76535162249999
 30
0.0
 42
0.33711001
  0
VERTEX
  5
6C3
  8
CYAN
 10
59.107767535000001
 20
127.32680089500001
 30
0.0
  0
VERTEX
  5
6C4
  8
CYAN
 10
59.104510285000003
 20
119.29441380999999
 30
0.0
 42
-0.41419372
  0
VERTEX
  5
6C5
  8
CYAN
 10
57.084647140000001
 20
117.27441381
 30
0.0
  0
VERTEX
  5
6C6
  8
CYAN
 10
55.019139064999997
 20
117.27737311
 30
0.0
  0
VERTEX
  5
6C7
  8
CYAN
 10
55.019139064999997
 20
125.23704069999999
 30
0.0
  0
VERTEX
  5
6C8
  8
CYAN
 10
53.506111595
 20
125.23704069999999
 30
0.0
  0
VERTEX
  5
6C9
  8
CYAN
 10
53.506111595
 20
117.276386845
 30
0.0
  0
VERTEX
  5
6CA
  8
CYAN
 10
51.438767845000001
 20
117.27540007499999
 30
0.0
 42
-0.41419375
  0
VERTEX
  5
6CB
  8
CYAN
 10
49.418767844999991
 20
119.29624999000001
 30
0.0
  0
VERTEX
  5
6CC
  8
CYAN
 10
49.418767844999991
 20
127.32707006
 30
0.0
 42
0.33706098
  0
VERTEX
  5
6CD
  8
CYAN
 10
48.188509637499997
 20
128.76534882000001
 30
0.0
 42
0.33706098
  0
VERTEX
  5
6CE
  8
CYAN
 10
46.473877514999998
 20
127.96396394
 30
0.0
 42
-0.21402272
  0
VERTEX
  5
6CF
  8
CYAN
 10
44.38364992999999
 20
126.32372539249999
 30
0.0
 42
-0.21402272
  0
VERTEX
  5
6D0
  8
CYAN
 10
41.768677879999998
 20
126.79420921000001
 30
0.0
  0
VERTEX
  5
6D1
  8
CYAN
 10
43.548142845000001
 20
130.41230443500001
 30
0.0
  0
VERTEX
  5
6D2
  8
CYAN
 10
42.187010284999992
 20
131.08103503000001
 30
0.0
  0
VERTEX
  5
6D3
  8
CYAN
 10
40.328767844999987
 20
127.30043938999999
 30
0.0
 42
-0.21502226
  0
VERTEX
  5
6D4
  8
CYAN
 10
38.247662237500002
 20
128.7049925725
 30
0.0
 42
-0.21502226
  0
VERTEX
  5
6D5
  8
CYAN
 10
37.922383255
 20
131.19456357499999
 30
0.0
  0
SEQEND
  5
6D6
  8
CYAN
  0
POLYLINE
  5
F8
  8
CYAN
 66
     1
 10
0.0
 20
0.0
 30
0.0
 70
     1
  0
VERTEX
  5
6D7
  8
CYAN
 10
3.7135908400000002
 20
6.5251529750000001
 30
0.0
 42
0.29019024
  0
VERTEX
  5
6D8
  8
CYAN
 10
4.1439242124999991
 20
1.808741769999999
 30
0.0
 42
0.29019024
  0
VERTEX
  5
6D9
  8
CYAN
 10
8.5926740949999996
 20
0.18444317
 30
0.0
  0
VERTEX
  5
6DA
  8
CYAN
 10
9.2397053450000008
 20
5.5194919349999987
 30
0.0
  0
VERTEX
  5
6DB
  8
CYAN
 10
10.74484219
 20
5.3380075600000003
 30
0.0
  0
VERTEX
  5
6DC
  8
CYAN
 10
10.09781094
 20
0.00197253
 30
0.0
  0
VERTEX
  5
6DD
  8
CYAN
 10
14.161482814999999
 20
0.000986265
 30
0.0
  0
VERTEX
  5
6DE
  8
CYAN
 10
14.71974466
 20
5.1999218750000002
 30
0.0
  0
VERTEX
  5
6DF
  8
CYAN
 10
16.228826564999999
 20
5.0361912799999988
 30
0.0
  0
VERTEX
  5
6E0
  8
CYAN
 10
15.68437344
 20
0.002958795
 30
0.0
  0
VERTEX
  5
6E1
  8
CYAN
 10
23.212029690000001
 20
0.0
 30
0.0
  0
VERTEX
  5
6E2
  8
CYAN
 10
22.669549095000001
 20
5.0361912799999988
 30
0.0
  0
VERTEX
  5
6E3
  8
CYAN
 10
24.17468594
 20
5.1989356100000004
 30
0.0
  0
VERTEX
  5
6E4
  8
CYAN
 10
24.734920315
 20
0.000986265
 30
0.0
  0
VERTEX
  5
6E5
  8
CYAN
 10
28.796619660000001
 20
0.0
 30
0.0
  0
VERTEX
  5
6E6
  8
CYAN
 10
28.15156094
 20
5.3360350299999988
 30
0.0
  0
VERTEX
  5
6E7
  8
CYAN
 10
29.656697784999999
 20
5.5185056699999988
 30
0.0
  0
VERTEX
  5
6E8
  8
CYAN
 10
30.301516124999999
 20
0.18114855
 30
0.0
 42
0.29022636
  0
VERTEX
  5
6E9
  8
CYAN
 10
34.752278177500003
 20
1.8034509475
 30
0.0
 42
0.29022636
  0
VERTEX
  5
6EA
  8
CYAN
 10
35.184646954999998
 20
6.5208872400000004
 30
0.0
 42
-0.20884013
  0
VERTEX
  5
6EB
  8
CYAN
 10
29.952807565000001
 20
18.777635685
 30
0.0
 42
0.23778537
  0
VERTEX
  5
6EC
  8
CYAN
 10
28.704032640000001
 20
21.306483117500001
 30
0.0
 42
0.23778537
  0
VERTEX
  5
6ED
  8
CYAN
 10
25.928377220000002
 20
21.806728199999998
 30
0.0
  0
VERTEX
  5
6EE
  8
CYAN
 10
26.821990880000001
 20
15.545517515
 30
0.0
  0
VERTEX
  5
6EF
  8
CYAN
 10
25.320799095000002
 20
15.331484375
 30
0.0
  0
VERTEX
  5
6F0
  8
CYAN
 10
23.731890830000001
 20
26.488895289999999
 30
0.0
 42
0.38894185
  0
VERTEX
  5
6F1
  8
CYAN
 10
20.20964713
 20
29.381728200000001
 30
0.0
  0
VERTEX
  5
6F2
  8
CYAN
 10
20.20964713
 20
20.147724419999999
 30
0.0
  0
VERTEX
  5
6F3
  8
CYAN
 10
18.692674095000001
 20
20.147724419999999
 30
0.0
  0
VERTEX
  5
6F4
  8
CYAN
 10
18.694700155
 20
29.379800110000001
 30
0.0
 42
0.38899289
  0
VERTEX
  5
6F5
  8
CYAN
 10
15.167537755
 20
26.489814389999999
 30
0.0
  0
VERTEX
  5
6F6
  8
CYAN
 10
13.575604035
 20
15.33444317
 30
0.0
  0
VERTEX
  5
6F7
  8
CYAN
 10
12.078357815
 20
15.547490045
 30
0.0
  0
VERTEX
  5
6F8
  8
CYAN
 10
12.972307300000001
 20
21.80797858
 30
0.0
 42
0.2378594
  0
VERTEX
  5
6F9
  8
CYAN
 10
10.19596308
 20
21.309172749999998
 30
0.0
 42
0.2378594
  0
VERTEX
  5
6FA
  8
CYAN
 10
8.9463301400000006
 20
18.780277340000001
 30
0.0
 42
-0.20883078
  0
VERTEX
  5
6FB
  8
CYAN
 10
3.7135908400000002
 20
6.5251529750000001
 30
0.0
  0
SEQEND
  5
6FC
  8
CYAN
  0
POLYLINE
  5
11F
  8
CYAN
 66
     1
 10
0.0
 20
0.0
 30
0.0
 70
     1
  0
VERTEX
  5
6FD
  8
CYAN
 10
185.68528781000001
 20
57.786236455000001
 30
0.0
 42
0.25349903
  0
VERTEX
  5
6FE
  8
CYAN
 10
187.02408982750001
 20
55.317028209999989
 30
0.0
 42
0.25349903
  0
VERTEX
  5
6FF
  8
CYAN
 10
189.82371062499999
 20
55.090084160000004
 30
0.0
 42
0.25349903
  0
VERTEX
  5
700
  8
CYAN
 10
191.54273929499999
 20
57.311417237500002
 30
0.0
 42
0.25349903
  0
VERTEX
  5
701
  8
CYAN
 10
190.62069371499999
 20
59.9645686
 30
0.0
 42
-0.33163565
  0
VERTEX
  5
702
  8
CYAN
 10
190.10768064999999
 20
62.617671092499997
 30
0.0
 42
-0.33163565
  0
VERTEX
  5
703
  8
CYAN
 10
192.50341653500001
 20
63.867705014999999
 30
0.0
  0
VERTEX
  5
704
  8
CYAN
 10
192.50341653500001
 20
73.085927545000004
 30
0.0
  0
VERTEX
  5
705
  8
CYAN
 10
194.01644400500001
 20
73.084941279999995
 30
0.0
  0
VERTEX
  5
706
  8
CYAN
 10
194.018416535
 20
63.866718749999997
 30
0.0
 42
-0.33170033
  0
VERTEX
  5
707
  8
CYAN
 10
196.4155726525
 20
62.618665030000003
 30
0.0
 42
-0.33170033
  0
VERTEX
  5
708
  8
CYAN
 10
195.9042446
 20
59.964886749999998
 30
0.0
 42
0.25356206
  0
VERTEX
  5
709
  8
CYAN
 10
194.98152661250001
 20
57.311902867500002
 30
0.0
 42
0.25356206
  0
VERTEX
  5
70A
  8
CYAN
 10
196.700574015
 20
55.09050511249999
 30
0.0
 42
0.25356206
  0
VERTEX
  5
70B
  8
CYAN
 10
199.50020539249999
 20
55.3180927075
 30
0.0
 42
0.25356206
  0
VERTEX
  5
70C
  8
CYAN
 10
200.83788906500001
 20
57.787978199999998
 30
0.0
  0
VERTEX
  5
70D
  8
CYAN
 10
200.83424851999999
 20
82.87441072
 30
0.0
 42
0.20957463
  0
VERTEX
  5
70E
  8
CYAN
 10
200.29727772250001
 20
84.099242024999995
 30
0.0
 42
0.20957463
  0
VERTEX
  5
70F
  8
CYAN
 10
199.03263172999999
 20
84.534236135
 30
0.0
 42
-0.21770925
  0
VERTEX
  5
710
  8
CYAN
 10
197.310767115
 20
85.160788359999998
 30
0.0
 42
-0.21770925
  0
VERTEX
  5
711
  8
CYAN
 10
196.65783034500001
 20
86.872821949999988
 30
0.0
  0
VERTEX
  5
712
  8
CYAN
 10
196.65634564499999
 20
98.317166795000006
 30
0.0
 42
0.4142145300000001
  0
VERTEX
  5
713
  8
CYAN
 10
193.25525270750001
 20
101.71829168249999
 30
0.0
 42
0.4142145300000001
  0
VERTEX
  5
714
  8
CYAN
 10
189.854139065
 20
98.317187500000003
 30
0.0
  0
VERTEX
  5
715
  8
CYAN
 10
189.85741146500001
 20
86.872646209999999
 30
0.0
 42
-0.21787927
  0
VERTEX
  5
716
  8
CYAN
 10
189.20518813250001
 20
85.159109060000006
 30
0.0
 42
-0.21787927
  0
VERTEX
  5
717
  8
CYAN
 10
187.48224597500001
 20
84.532151999999996
 30
0.0
 42
0.20935299
  0
VERTEX
  5
718
  8
CYAN
 10
186.21966618499999
 20
84.095950400000007
 30
0.0
 42
0.20935299
  0
VERTEX
  5
719
  8
CYAN
 10
185.683944005
 20
82.872275075000005
 30
0.0
  0
VERTEX
  5
71A
  8
CYAN
 10
185.68528781000001
 20
57.786236455000001
 30
0.0
  0
SEQEND
  5
71B
  8
CYAN
  0
POLYLINE
  5
13F
  8
CYAN
 66
     1
 10
0.0
 20
0.0
 30
0.0
 70
     1
  0
VERTEX
  5
71C
  8
CYAN
 10
90.854155710000001
 20
5.0157918050000001
 30
0.0
 42
-0.3901427
  0
VERTEX
  5
71D
  8
CYAN
 10
90.489873642500015
 20
3.8737875974999989
 30
0.0
 42
-0.3901427
  0
VERTEX
  5
71E
  8
CYAN
 10
89.321633219999995
 20
4.1422821949999991
 30
0.0
 42
-0.27693675
  0
VERTEX
  5
71F
  8
CYAN
 10
88.177562284999993
 20
22.891402045
 30
0.0
 42
-0.27978399
  0
VERTEX
  5
720
  8
CYAN
 10
93.564133762500006
 20
26.162398687500001
 30
0.0
 42
-0.27978399
  0
VERTEX
  5
721
  8
CYAN
 10
98.951468625000004
 20
22.892659495
 30
0.0
 42
-0.27689872
  0
VERTEX
  5
722
  8
CYAN
 10
97.809761089999995
 20
4.1435749949999989
 30
0.0
 42
-0.38980408
  0
VERTEX
  5
723
  8
CYAN
 10
96.641376162499995
 20
3.8752544124999999
 30
0.0
 42
-0.38980408
  0
VERTEX
  5
724
  8
CYAN
 10
96.275912974999997
 20
5.0169881500000004
 30
0.0
 42
0.16010494
  0
VERTEX
  5
725
  8
CYAN
 10
97.091251635000006
 20
11.891493560000001
 30
0.0
 42
0.3225019599999999
  0
VERTEX
  5
726
  8
CYAN
 10
94.320369659999997
 20
14.460556325000001
 30
0.0
  0
VERTEX
  5
727
  8
CYAN
 10
94.320369659999997
 20
17.434335685000001
 30
0.0
  0
VERTEX
  5
728
  8
CYAN
 10
92.805369659999997
 20
17.434335685000001
 30
0.0
  0
VERTEX
  5
729
  8
CYAN
 10
92.804954550000005
 20
14.460506835
 30
0.0
 42
0.3224006099999999
  0
VERTEX
  5
72A
  8
CYAN
 10
90.037144995000006
 20
11.89100573
 30
0.0
 42
0.16011681
  0
VERTEX
  5
72B
  8
CYAN
 10
90.854155710000001
 20
5.0157918050000001
 30
0.0
  0
SEQEND
  5
72C
  8
CYAN
  0
POLYLINE
  5
151
  8
CYAN
 66
     1
 10
0.0
 20
0.0
 30
0.0
 70
     1
  0
VERTEX
  5
72D
  8
CYAN
 10
133.85105104499999
 20
32.999058349999999
 30
0.0
 42
-0.3332206
  0
VERTEX
  5
72E
  8
CYAN
 10
136.542844465
 20
38.540351639999997
 30
0.0
 42
0.20671308
  0
VERTEX
  5
72F
  8
CYAN
 10
157.25020298000001
 20
54.574593667499997
 30
0.0
 42
0.20671308
  0
VERTEX
  5
730
  8
CYAN
 10
159.77460135999999
 20
80.642179420000005
 30
0.0
 42
0.31529522
  0
VERTEX
  5
731
  8
CYAN
 10
152.41136302749999
 20
86.226499814999997
 30
0.0
 42
0.31529522
  0
VERTEX
  5
732
  8
CYAN
 10
144.64537756499999
 20
81.217369875000003
 30
0.0
 42
-0.32553655
  0
VERTEX
  5
733
  8
CYAN
 10
139.87298869
 20
78.262394189999995
 30
0.0
  0
VERTEX
  5
734
  8
CYAN
 10
139.87294778500001
 20
86.155761845000001
 30
0.0
  0
VERTEX
  5
735
  8
CYAN
 10
138.35992031500001
 20
86.155761845000001
 30
0.0
  0
VERTEX
  5
736
  8
CYAN
 10
138.35992031500001
 20
77.913017515000007
 30
0.0
 42
-0.23001061
  0
VERTEX
  5
737
  8
CYAN
 10
136.08443027499999
 20
78.417203307500003
 30
0.0
 42
-0.23001061
  0
VERTEX
  5
738
  8
CYAN
 10
135.07395601499999
 20
80.517441390000002
 30
0.0
  0
VERTEX
  5
739
  8
CYAN
 10
135.11884597
 20
93.798818170000004
 30
0.0
 42
-0.26942457
  0
VERTEX
  5
73A
  8
CYAN
 10
136.09155677000001
 20
95.497423040000001
 30
0.0
 42
0.23500625
  0
VERTEX
  5
73B
  8
CYAN
 10
137.245215425
 20
97.244726880000002
 30
0.0
 42
0.23500625
  0
VERTEX
  5
73C
  8
CYAN
 10
136.54750520249999
 20
99.218859460000004
 30
0.0
 42
0.23500625
  0
VERTEX
  5
73D
  8
CYAN
 10
134.55210926250001
 20
99.853204825000006
 30
0.0
 42
0.23500625
  0
VERTEX
  5
73E
  8
CYAN
 10
132.84251756500001
 20
98.644364374999995
 30
0.0
 42
-0.22916659
  0
VERTEX
  5
73F
  8
CYAN
 10
130.25145890499999
 20
96.771108554999998
 30
0.0
 42
-0.22916659
  0
VERTEX
  5
740
  8
CYAN
 10
127.17441885
 20
97.639726332500004
 30
0.0
 42
-0.22916659
  0
VERTEX
  5
741
  8
CYAN
 10
125.94537796500001
 20
100.5913582275
 30
0.0
 42
-0.22916659
  0
VERTEX
  5
742
  8
CYAN
 10
127.49658201
 20
103.387147625
 30
0.0
  0
VERTEX
  5
743
  8
CYAN
 10
136.34189284499999
 20
109.59782195
 30
0.0
 42
-0.2291526
  0
VERTEX
  5
744
  8
CYAN
 10
138.49315607
 20
109.9482223175
 30
0.0
 42
-0.2291526
  0
VERTEX
  5
745
  8
CYAN
 10
140.103333835
 20
108.479194935
 30
0.0
  0
VERTEX
  5
746
  8
CYAN
 10
135.79152213
 20
105.241210685
 30
0.0
  0
VERTEX
  5
747
  8
CYAN
 10
136.700916535
 20
104.02901373500001
 30
0.0
  0
VERTEX
  5
748
  8
CYAN
 10
141.013142845
 20
107.26712877999999
 30
0.0
 42
0.22889575
  0
VERTEX
  5
749
  8
CYAN
 10
144.5742982875
 20
103.8020904975
 30
0.0
 42
0.22889575
  0
VERTEX
  5
74A
  8
CYAN
 10
149.502156485
 20
104.43811878
 30
0.0
  0
VERTEX
  5
74B
  8
CYAN
 10
156.73521341
 20
109.16087878
 30
0.0
  0
VERTEX
  5
74C
  8
CYAN
 10
161.33544778500001
 20
101.208115045
 30
0.0
  0
VERTEX
  5
74D
  8
CYAN
 10
162.64529153500001
 20
101.96561504500001
 30
0.0
  0
VERTEX
  5
74E
  8
CYAN
 10
158.04702968999999
 20
109.91837878
 30
0.0
 42
-0.22302807
  0
VERTEX
  5
74F
  8
CYAN
 10
159.3040382575
 20
110.63535824749999
 30
0.0
 42
-0.22302807
  0
VERTEX
  5
750
  8
CYAN
 10
160.65869678000001
 20
110.12640797500001
 30
0.0
 42
-0.10449776
  0
VERTEX
  5
751
  8
CYAN
 10
171.52433788499999
 20
92.968745630000015
 30
0.0
 42
-0.28468385
  0
VERTEX
  5
752
  8
CYAN
 10
170.14462284000001
 20
86.103968034999994
 30
0.0
 42
0.25667
  0
VERTEX
  5
753
  8
CYAN
 10
168.88021646499999
 20
81.161144184999998
 30
0.0
 42
-0.03251027
  0
VERTEX
  5
754
  8
CYAN
 10
169.914657455
 20
75.702837544999994
 30
0.0
  0
VERTEX
  5
755
  8
CYAN
 10
166.32824088000001
 20
76.606132560000006
 30
0.0
  0
VERTEX
  5
756
  8
CYAN
 10
165.95935403499999
 20
75.137490045000007
 30
0.0
  0
VERTEX
  5
757
  8
CYAN
 10
170.08220534500001
 20
74.098886844999996
 30
0.0
 42
-0.02473056
  0
VERTEX
  5
758
  8
CYAN
 10
170.22884169
 20
69.873405899999995
 30
0.0
  0
VERTEX
  5
759
  8
CYAN
 10
167.09560403500001
 20
70.731562499999995
 30
0.0
  0
VERTEX
  5
75A
  8
CYAN
 10
166.69515469000001
 20
69.269824345000004
 30
0.0
  0
VERTEX
  5
75B
  8
CYAN
 10
170.17886587999999
 20
68.317031249999999
 30
0.0
 42
-0.02807231
  0
VERTEX
  5
75C
  8
CYAN
 10
169.66550409000001
 20
63.546096775000002
 30
0.0
  0
VERTEX
  5
75D
  8
CYAN
 10
166.56298659500001
 20
64.682411920000007
 30
0.0
  0
VERTEX
  5
75E
  8
CYAN
 10
166.04220534500001
 20
63.259140625000001
 30
0.0
  0
VERTEX
  5
75F
  8
CYAN
 10
169.38980337999999
 20
62.033134449999999
 30
0.0
 42
-0.02648409
  0
VERTEX
  5
760
  8
CYAN
 10
168.25941441000001
 20
57.649109764999999
 30
0.0
  0
VERTEX
  5
761
  8
CYAN
 10
165.014451565
 20
58.86208997
 30
0.0
  0
VERTEX
  5
762
  8
CYAN
 10
164.48183463000001
 20
57.443750000000001
 30
0.0
  0
VERTEX
  5
763
  8
CYAN
 10
167.77814284499999
 20
56.209853199999991
 30
0.0
 42
-0.02826579
  0
VERTEX
  5
764
  8
CYAN
 10
165.909923625
 20
51.754222040000002
 30
0.0
  0
VERTEX
  5
765
  8
CYAN
 10
162.911600255
 20
53.461943169999998
 30
0.0
  0
VERTEX
  5
766
  8
CYAN
 10
162.16199087999999
 20
52.145195059999999
 30
0.0
  0
VERTEX
  5
767
  8
CYAN
 10
165.22158034500001
 20
50.404326234999999
 30
0.0
 42
-0.02737932
  0
VERTEX
  5
768
  8
CYAN
 10
162.8008987
 20
46.39884601499999
 30
0.0
  0
VERTEX
  5
769
  8
CYAN
 10
159.98417838
 20
48.470136844999999
 30
0.0
  0
VERTEX
  5
76A
  8
CYAN
 10
159.08464713000001
 20
47.250048765000003
 30
0.0
  0
VERTEX
  5
76B
  8
CYAN
 10
161.92527213
 20
45.160019404999993
 30
0.0
 42
-0.02603185
  0
VERTEX
  5
76C
  8
CYAN
 10
159.10532284000001
 20
41.71731067999999
 30
0.0
  0
VERTEX
  5
76D
  8
CYAN
 10
156.176951565
 20
43.971493825000003
 30
0.0
  0
VERTEX
  5
76E
  8
CYAN
 10
155.25177590999999
 20
42.772118825
 30
0.0
  0
VERTEX
  5
76F
  8
CYAN
 10
158.06083841
 20
40.608115044999998
 30
0.0
 42
-0.02803605
  0
VERTEX
  5
770
  8
CYAN
 10
154.52489607999999
 20
37.373451170000003
 30
0.0
  0
VERTEX
  5
771
  8
CYAN
 10
152.04029153499999
 20
40.057743825000003
 30
0.0
  0
VERTEX
  5
772
  8
CYAN
 10
150.92968594000001
 20
39.029003779999996
 30
0.0
  0
VERTEX
  5
773
  8
CYAN
 10
153.332381505
 20
36.433974419999998
 30
0.0
 42
-0.02760362
  0
VERTEX
  5
774
  8
CYAN
 10
149.42306085999999
 20
33.791848760000001
 30
0.0
  0
VERTEX
  5
775
  8
CYAN
 10
147.24081900499999
 20
36.793984375000001
 30
0.0
  0
VERTEX
  5
776
  8
CYAN
 10
146.01579909500001
 20
35.903330015000002
 30
0.0
  0
VERTEX
  5
777
  8
CYAN
 10
148.10089712999999
 20
33.033115045000002
 30
0.0
 42
-0.02402184
  0
VERTEX
  5
778
  8
CYAN
 10
144.412869
 20
31.22612758
 30
0.0
  0
VERTEX
  5
779
  8
CYAN
 10
141.92056471999999
 20
34.416933720000003
 30
0.0
  0
VERTEX
  5
77A
  8
CYAN
 10
140.72710781500001
 20
33.483866935000002
 30
0.0
  0
VERTEX
  5
77B
  8
CYAN
 10
142.95620962999999
 20
30.628446950000001
 30
0.0
  0
VERTEX
  5
77C
  8
CYAN
 10
141.66934843000001
 20
30.152624334999999
 30
0.0
 42
0.39285082
  0
VERTEX
  5
77D
  8
CYAN
 10
140.23393138
 20
26.181364935000001
 30
0.0
 42
0.24326134
  0
VERTEX
  5
77E
  8
CYAN
 10
167.315744645
 20
3.7390593899999991
 30
0.0
 42
-0.37087902
  0
VERTEX
  5
77F
  8
CYAN
 10
168.37815964750001
 20
2.3279248400000001
 30
0.0
 42
-0.37087902
  0
VERTEX
  5
780
  8
CYAN
 10
167.14186910500001
 20
1.06633376
 30
0.0
 42
-0.317603
  0
VERTEX
  5
781
  8
CYAN
 10
133.85105104499999
 20
32.999058349999999
 30
0.0
  0
SEQEND
  5
782
  8
CYAN
  0
POLYLINE
  5
1A8
  8
CYAN
 66
     1
 10
0.0
 20
0.0
 30
0.0
 70
     1
  0
VERTEX
  5
783
  8
CYAN
 10
117.049855575
 20
52.174180544999999
 30
0.0
 42
-0.38864221
  0
VERTEX
  5
784
  8
CYAN
 10
116.7705157625
 20
50.937635602500002
 30
0.0
 42
-0.38864221
  0
VERTEX
  5
785
  8
CYAN
 10
115.51419047
 20
51.107107970000001
 30
0.0
 42
-0.35971181
  0
VERTEX
  5
786
  8
CYAN
 10
115.34447158499999
 20
78.907522095000004
 30
0.0
 42
-0.22538
  0
VERTEX
  5
787
  8
CYAN
 10
121.26683258
 20
81.716102487499995
 30
0.0
 42
-0.22538
  0
VERTEX
  5
788
  8
CYAN
 10
127.18621507
 20
78.901249995000001
 30
0.0
 42
-0.35970568
  0
VERTEX
  5
789
  8
CYAN
 10
126.98728647999999
 20
51.101247950000001
 30
0.0
 42
-0.38856544
  0
VERTEX
  5
78A
  8
CYAN
 10
125.73121919250001
 20
50.934347627500003
 30
0.0
 42
-0.38856544
  0
VERTEX
  5
78B
  8
CYAN
 10
125.454134255
 20
52.170787955000002
 30
0.0
 42
0.19004816
  0
VERTEX
  5
78C
  8
CYAN
 10
127.584552
 20
66.684547545000001
 30
0.0
 42
0.37981467
  0
VERTEX
  5
78D
  8
CYAN
 10
122.01843594
 20
70.620107485000005
 30
0.0
  0
VERTEX
  5
78E
  8
CYAN
 10
122.02040847000001
 20
73.647148185000006
 30
0.0
  0
VERTEX
  5
78F
  8
CYAN
 10
120.50343594
 20
73.648134450000001
 30
0.0
  0
VERTEX
  5
790
  8
CYAN
 10
120.504379785
 20
70.618335439999996
 30
0.0
 42
0.37993043
  0
VERTEX
  5
791
  8
CYAN
 10
114.93215827500001
 20
66.691638755
 30
0.0
 42
0.19006215
  0
VERTEX
  5
792
  8
CYAN
 10
117.049855575
 20
52.174180544999999
 30
0.0
  0
SEQEND
  5
793
  8
CYAN
  0
POLYLINE
  5
1BA
  8
CYAN
 66
     1
 10
0.0
 20
0.0
 30
0.0
 70
     1
  0
VERTEX
  5
794
  8
CYAN
 10
32.460287094999998
 20
37.953469425000002
 30
0.0
 42
-0.38844641
  0
VERTEX
  5
795
  8
CYAN
 10
32.181953332500001
 20
36.7189331975
 30
0.0
 42
-0.38844641
  0
VERTEX
  5
796
  8
CYAN
 10
30.927603005000002
 20
36.886726615000001
 30
0.0
 42
-0.35968769
  0
VERTEX
  5
797
  8
CYAN
 10
30.750058639999999
 20
64.686410510000002
 30
0.0
 42
-0.2253989
  0
VERTEX
  5
798
  8
CYAN
 10
36.672821665000001
 20
67.497116972499995
 30
0.0
 42
-0.2253989
  0
VERTEX
  5
799
  8
CYAN
 10
42.59390342999999
 20
64.682870460000004
 30
0.0
 42
-0.35972537
  0
VERTEX
  5
79A
  8
CYAN
 10
42.399911215000003
 20
36.881504409999998
 30
0.0
 42
-0.38853525
  0
VERTEX
  5
79B
  8
CYAN
 10
41.142671257499991
 20
36.713998805000003
 30
0.0
 42
-0.38853525
  0
VERTEX
  5
79C
  8
CYAN
 10
40.864750100000002
 20
37.951524669999998
 30
0.0
 42
0.19005226
  0
VERTEX
  5
79D
  8
CYAN
 10
42.994837070000003
 20
52.466675535
 30
0.0
 42
0.37987681
  0
VERTEX
  5
79E
  8
CYAN
 10
37.426990879999998
 20
56.399228200000003
 30
0.0
  0
VERTEX
  5
79F
  8
CYAN
 10
37.426990879999998
 20
59.428241935000003
 30
0.0
  0
VERTEX
  5
7A0
  8
CYAN
 10
35.911990879999998
 20
59.427255670000001
 30
0.0
  0
VERTEX
  5
7A1
  8
CYAN
 10
35.911881800000003
 20
56.397574830000003
 30
0.0
 42
0.37994092
  0
VERTEX
  5
7A2
  8
CYAN
 10
30.339768865
 20
52.469699980000001
 30
0.0
 42
0.19005213
  0
VERTEX
  5
7A3
  8
CYAN
 10
32.460287094999998
 20
37.953469425000002
 30
0.0
  0
SEQEND
  5
7A4
  8
CYAN
  0
POLYLINE
  5
1CC
  8
CYAN
 66
     1
 10
0.0
 20
0.0
 30
0.0
 70
     1
  0
VERTEX
  5
7A5
  8
CYAN
 10
85.318983020000005
 20
121.83837656
 30
0.0
 42
0.22542561
  0
VERTEX
  5
7A6
  8
CYAN
 10
91.240824912500003
 20
119.024775275
 30
0.0
 42
0.22542561
  0
VERTEX
  5
7A7
  8
CYAN
 10
97.16328231
 20
121.83708073
 30
0.0
 42
0.35972524
  0
VERTEX
  5
7A8
  8
CYAN
 10
96.980762685000016
 20
149.63777462499999
 30
0.0
 42
0.38826038
  0
VERTEX
  5
7A9
  8
CYAN
 10
95.724758225000016
 20
149.80444822250001
 30
0.0
 42
0.38826038
  0
VERTEX
  5
7AA
  8
CYAN
 10
95.446593895000007
 20
148.56834470999999
 30
0.0
 42
-0.19003376
  0
VERTEX
  5
7AB
  8
CYAN
 10
97.570088595000001
 20
134.05378217000001
 30
0.0
 42
-0.38003874
  0
VERTEX
  5
7AC
  8
CYAN
 10
91.998553380000004
 20
130.12331061
 30
0.0
  0
VERTEX
  5
7AD
  8
CYAN
 10
91.998553380000004
 20
127.09331061
 30
0.0
  0
VERTEX
  5
7AE
  8
CYAN
 10
90.485525910000007
 20
127.09331061
 30
0.0
  0
VERTEX
  5
7AF
  8
CYAN
 10
90.484526514999985
 20
130.12365603000001
 30
0.0
 42
-0.3799287
  0
VERTEX
  5
7B0
  8
CYAN
 10
84.916874245000002
 20
134.05496084000001
 30
0.0
 42
-0.19004256
  0
VERTEX
  5
7B1
  8
CYAN
 10
87.043201995000004
 20
148.57019755499999
 30
0.0
 42
0.38842429
  0
VERTEX
  5
7B2
  8
CYAN
 10
86.766006469999994
 20
149.80649174749999
 30
0.0
 42
0.38842429
  0
VERTEX
  5
7B3
  8
CYAN
 10
85.509993210000005
 20
149.640084495
 30
0.0
 42
0.35971045
  0
VERTEX
  5
7B4
  8
CYAN
 10
85.318983020000005
 20
121.83837656
 30
0.0
  0
SEQEND
  5
7B5
  8
CYAN
  0
POLYLINE
  5
1DE
  8
CYAN
 66
     1
 10
0.0
 20
0.0
 30
0.0
 70
     1
  0
VERTEX
  5
7B6
  8
CYAN
 10
113.874507485
 20
126.92177726
 30
0.0
 42
0.4067434900000001
  0
VERTEX
  5
7B7
  8
CYAN
 10
115.2195571675
 20
126.40929701500001
 30
0.0
 42
0.4067434900000001
  0
VERTEX
  5
7B8
  8
CYAN
 10
115.76626122
 20
127.74080343
 30
0.0
 42
-0.20385363
  0
VERTEX
  5
7B9
  8
CYAN
 10
115.85559521499999
 20
132.50508604500001
 30
0.0
 42
-0.34718214
  0
VERTEX
  5
7BA
  8
CYAN
 10
117.412038545
 20
133.31693010500001
 30
0.0
  0
VERTEX
  5
7BB
  8
CYAN
 10
117.414256505
 20
135.95744128000001
 30
0.0
  0
VERTEX
  5
7BC
  8
CYAN
 10
118.92728347000001
 20
135.95744128000001
 30
0.0
  0
VERTEX
  5
7BD
  8
CYAN
 10
118.92709763000001
 20
133.31722149000001
 30
0.0
 42
-0.34735662
  0
VERTEX
  5
7BE
  8
CYAN
 10
120.483482885
 20
132.50306452999999
 30
0.0
 42
-0.20386251
  0
VERTEX
  5
7BF
  8
CYAN
 10
120.57241389000001
 20
127.73918137
 30
0.0
 42
0.40656537
  0
VERTEX
  5
7C0
  8
CYAN
 10
121.118432885
 20
126.40833666
 30
0.0
 42
0.40656537
  0
VERTEX
  5
7C1
  8
CYAN
 10
122.463116215
 20
126.919327
 30
0.0
 42
0.19478852
  0
VERTEX
  5
7C2
  8
CYAN
 10
123.15256898
 20
140.67027045500001
 30
0.0
 42
0.31917306
  0
VERTEX
  5
7C3
  8
CYAN
 10
118.17164207499999
 20
144.21198108249999
 30
0.0
 42
0.31917306
  0
VERTEX
  5
7C4
  8
CYAN
 10
113.189289145
 20
140.67227682000001
 30
0.0
 42
0.19480753
  0
VERTEX
  5
7C5
  8
CYAN
 10
113.874507485
 20
126.92177726
 30
0.0
  0
SEQEND
  5
7C6
  8
CYAN
  0
POLYLINE
  5
1F0
  8
CYAN
 66
     1
 10
0.0
 20
0.0
 30
0.0
 70
     1
  0
VERTEX
  5
7C7
  8
CYAN
 10
57.700532514999999
 20
2.860588154999999
 30
0.0
 42
0.38847276
  0
VERTEX
  5
7C8
  8
CYAN
 10
58.957886080000002
 20
2.6937781900000002
 30
0.0
 42
0.38847276
  0
VERTEX
  5
7C9
  8
CYAN
 10
59.235393154999997
 20
3.931418434999999
 30
0.0
 42
-0.19004689
  0
VERTEX
  5
7CA
  8
CYAN
 10
57.104925919999999
 20
18.445078540000001
 30
0.0
 42
-0.37982831
  0
VERTEX
  5
7CB
  8
CYAN
 10
62.671072785
 20
22.379785030000001
 30
0.0
  0
VERTEX
  5
7CC
  8
CYAN
 10
62.669100254999989
 20
25.407812499999999
 30
0.0
  0
VERTEX
  5
7CD
  8
CYAN
 10
64.186072784999993
 20
25.408798765
 30
0.0
  0
VERTEX
  5
7CE
  8
CYAN
 10
64.18506026
 20
22.378991675000002
 30
0.0
 42
-0.38004745
  0
VERTEX
  5
7CF
  8
CYAN
 10
69.759464884999986
 20
18.450713834999998
 30
0.0
 42
-0.19005999
  0
VERTEX
  5
7D0
  8
CYAN
 10
67.639491044999986
 20
3.9345605450000001
 30
0.0
 42
0.38827031
  0
VERTEX
  5
7D1
  8
CYAN
 10
67.9181301375
 20
2.699822264999999
 30
0.0
 42
0.38827031
  0
VERTEX
  5
7D2
  8
CYAN
 10
69.172811435
 20
2.867133964999999
 30
0.0
 42
0.35968235
  0
VERTEX
  5
7D3
  8
CYAN
 10
69.347399025000001
 20
30.667709185
 30
0.0
 42
0.22540699
  0
VERTEX
  5
7D4
  8
CYAN
 10
63.424115612500003
 20
33.477530850000001
 30
0.0
 42
0.22540699
  0
VERTEX
  5
7D5
  8
CYAN
 10
57.503477474999997
 20
30.662139539999998
 30
0.0
 42
0.35970853
  0
VERTEX
  5
7D6
  8
CYAN
 10
57.700532514999999
 20
2.860588154999999
 30
0.0
  0
SEQEND
  5
7D7
  8
CYAN
  0
POLYLINE
  5
202
  8
CYAN
 66
     1
 10
0.0
 20
0.0
 30
0.0
 70
     1
  0
VERTEX
  5
7D8
  8
CYAN
 10
213.81770105499999
 20
100.01497528
 30
0.0
  0
VERTEX
  5
7D9
  8
CYAN
 10
218.44922977499999
 20
100.41528171
 30
0.0
 42
0.2032283
  0
VERTEX
  5
7DA
  8
CYAN
 10
221.77644096
 20
103.33218039499999
 30
0.0
 42
0.04799328
  0
VERTEX
  5
7DB
  8
CYAN
 10
238.290089935
 20
150.45474544499999
 30
0.0
 42
-0.30118277
  0
VERTEX
  5
7DC
  8
CYAN
 10
240.83129033500001
 20
151.8776406325
 30
0.0
 42
-0.30118277
  0
VERTEX
  5
7DD
  8
CYAN
 10
243.13257887
 20
150.09259126000001
 30
0.0
 42
0.0300404
  0
VERTEX
  5
7DE
  8
CYAN
 10
253.29030996500001
 20
125.08619518
 30
0.0
 42
0.28139243
  0
VERTEX
  5
7DF
  8
CYAN
 10
258.08437343999998
 20
121.969335685
 30
0.0
  0
VERTEX
  5
7E0
  8
CYAN
 10
262.781267845
 20
121.97032195
 30
0.0
 42
-0.4142138100000001
  0
VERTEX
  5
7E1
  8
CYAN
 10
264.29824087999998
 20
120.45532195
 30
0.0
  0
VERTEX
  5
7E2
  8
CYAN
 10
264.29626784499999
 20
119.35260748499999
 30
0.0
  0
VERTEX
  5
7E3
  8
CYAN
 10
260.57781094000001
 20
119.35260748499999
 30
0.0
  0
VERTEX
  5
7E4
  8
CYAN
 10
260.57978347
 20
117.83760748500001
 30
0.0
  0
VERTEX
  5
7E5
  8
CYAN
 10
264.29824087999998
 20
117.83760748500001
 30
0.0
  0
VERTEX
  5
7E6
  8
CYAN
 10
264.29824037499998
 20
116.02157345000001
 30
0.0
 42
-0.4143649
  0
VERTEX
  5
7E7
  8
CYAN
 10
262.78324087999999
 20
114.50579070000001
 30
0.0
  0
VERTEX
  5
7E8
  8
CYAN
 10
260.57490365500001
 20
114.50472161499999
 30
0.0
 42
0.37574244
  0
VERTEX
  5
7E9
  8
CYAN
 10
258.37715981500003
 20
112.61603323
 30
0.0
 42
-0.40696102
  0
VERTEX
  5
7EA
  8
CYAN
 10
255.93521464
 20
110.73543191500001
 30
0.0
 42
-0.25744243
  0
VERTEX
  5
7EB
  8
CYAN
 10
252.68781971499999
 20
113.05707902
 30
0.0
 42
-0.05307772
  0
VERTEX
  5
7EC
  8
CYAN
 10
241.97934470999999
 20
143.32559631000001
 30
0.0
 42
0.31965766
  0
VERTEX
  5
7ED
  8
CYAN
 10
240.63903740750001
 20
144.15576547750001
 30
0.0
 42
0.31965766
  0
VERTEX
  5
7EE
  8
CYAN
 10
239.41612782499999
 20
143.160729465
 30
0.0
 42
-0.04750895
  0
VERTEX
  5
7EF
  8
CYAN
 10
223.75661564999999
 20
101.954838345
 30
0.0
 42
-0.25434008
  0
VERTEX
  5
7F0
  8
CYAN
 10
218.51486159500001
 20
98.257021295000015
 30
0.0
  0
VERTEX
  5
7F1
  8
CYAN
 10
213.75977098999999
 20
98.123104385000005
 30
0.0
 42
-0.20655187
  0
VERTEX
  5
7F2
  8
CYAN
 10
213.06195356999999
 20
98.401241345000017
 30
0.0
 42
-0.20655187
  0
VERTEX
  5
7F3
  8
CYAN
 10
212.78557519
 20
99.099757135000004
 30
0.0
 42
-0.20655187
  0
VERTEX
  5
7F4
  8
CYAN
 10
213.10417354000001
 20
99.780054432499995
 30
0.0
 42
-0.20655187
  0
VERTEX
  5
7F5
  8
CYAN
 10
213.81770105499999
 20
100.01497528
 30
0.0
  0
SEQEND
  5
7F6
  8
CYAN
  0
POLYLINE
  5
222
  8
CYAN
 66
     1
 10
0.0
 20
0.0
 30
0.0
 70
     1
  0
VERTEX
  5
7F7
  8
CYAN
 10
87.397265070000003
 20
40.79908786499999
 30
0.0
 42
0.35222541
  0
VERTEX
  5
7F8
  8
CYAN
 10
88.653748620000016
 20
40.584127250000002
 30
0.0
 42
0.35222541
  0
VERTEX
  5
7F9
  8
CYAN
 10
89.133212670000006
 20
41.76525942
 30
0.0
 42
-0.07618236
  0
VERTEX
  5
7FA
  8
CYAN
 10
87.598545950000002
 20
51.175616269999999
 30
0.0
 42
-0.4005989300000001
  0
VERTEX
  5
7FB
  8
CYAN
 10
91.365330345000004
 20
55.741347529999999
 30
0.0
  0
VERTEX
  5
7FC
  8
CYAN
 10
91.371248440000002
 20
58.564218750000002
 30
0.0
  0
VERTEX
  5
7FD
  8
CYAN
 10
92.884275909999985
 20
58.560273185
 30
0.0
  0
VERTEX
  5
7FE
  8
CYAN
 10
92.878898164999995
 20
55.739472464999999
 30
0.0
 42
-0.4008544
  0
VERTEX
  5
7FF
  8
CYAN
 10
96.632658105000004
 20
51.158463945000001
 30
0.0
 42
-0.07616564
  0
VERTEX
  5
800
  8
CYAN
 10
95.064628560000003
 20
41.755601800000001
 30
0.0
 42
0.37759604
  0
VERTEX
  5
801
  8
CYAN
 10
95.622496557499986
 20
40.531898640000001
 30
0.0
 42
0.37759604
  0
VERTEX
  5
802
  8
CYAN
 10
96.906850884999997
 20
40.930772169999997
 30
0.0
 42
0.28461681
  0
VERTEX
  5
803
  8
CYAN
 10
98.6681308
 20
62.852839844999998
 30
0.0
 42
0.26880657
  0
VERTEX
  5
804
  8
CYAN
 10
92.142259817500005
 20
66.649668772499993
 30
0.0
 42
0.26880657
  0
VERTEX
  5
805
  8
CYAN
 10
85.603214190000003
 20
62.87557494499999
 30
0.0
 42
0.28700731
  0
VERTEX
  5
806
  8
CYAN
 10
87.397265070000003
 20
40.79908786499999
 30
0.0
  0
SEQEND
  5
807
  8
CYAN
  0
POLYLINE
  5
234
  8
CYAN
 66
     1
 10
0.0
 20
0.0
 30
0.0
 70
     1
  0
VERTEX
  5
808
  8
CYAN
 10
69.443477294999994
 20
62.747893775000001
 30
0.0
 42
-0.39624439
  0
VERTEX
  5
809
  8
CYAN
 10
69.119223700000006
 20
61.45994292000001
 30
0.0
 42
-0.39624439
  0
VERTEX
  5
80A
  8
CYAN
 10
67.813720590000003
 20
61.704113820000011
 30
0.0
 42
-0.28475814
  0
VERTEX
  5
80B
  8
CYAN
 10
66.022423474999997
 20
84.498398304999995
 30
0.0
 42
-0.26871163
  0
VERTEX
  5
80C
  8
CYAN
 10
72.534869732499999
 20
88.318888255000005
 30
0.0
 42
-0.26871163
  0
VERTEX
  5
80D
  8
CYAN
 10
79.089096979999994
 20
84.570527960000007
 30
0.0
 42
-0.28579114
  0
VERTEX
  5
80E
  8
CYAN
 10
77.335770815000004
 20
61.702689214999992
 30
0.0
 42
-0.39626555
  0
VERTEX
  5
80F
  8
CYAN
 10
76.030640062499998
 20
61.460762590000002
 30
0.0
 42
-0.39626555
  0
VERTEX
  5
810
  8
CYAN
 10
75.708743635000005
 20
62.748503814999999
 30
0.0
 42
0.201544
  0
VERTEX
  5
811
  8
CYAN
 10
77.059409059999993
 20
75.017739395000007
 30
0.0
 42
0.37378187
  0
VERTEX
  5
812
  8
CYAN
 10
73.331307159999994
 20
77.393222530000003
 30
0.0
  0
VERTEX
  5
813
  8
CYAN
 10
73.331307159999994
 20
80.228915700000002
 30
0.0
  0
VERTEX
  5
814
  8
CYAN
 10
71.818279689999997
 20
80.228915700000002
 30
0.0
  0
VERTEX
  5
815
  8
CYAN
 10
71.818279689999997
 20
77.392236264999994
 30
0.0
 42
0.37384529
  0
VERTEX
  5
816
  8
CYAN
 10
68.088635014999994
 20
75.016427910000004
 30
0.0
 42
0.20154593
  0
VERTEX
  5
817
  8
CYAN
 10
69.443477294999994
 20
62.747893775000001
 30
0.0
  0
SEQEND
  5
818
  8
CYAN
  0
POLYLINE
  5
246
  8
CYAN
 66
     1
 10
0.0
 20
0.0
 30
0.0
 70
     1
  0
VERTEX
  5
819
  8
CYAN
 10
133.35529153499999
 20
131.08004876499999
 30
0.0
 42
-0.23543174
  0
VERTEX
  5
81A
  8
CYAN
 10
132.19761159250001
 20
132.48305220250001
 30
0.0
 42
-0.23543174
  0
VERTEX
  5
81B
  8
CYAN
 10
132.62114273500001
 20
134.25202446500001
 30
0.0
 42
0.13903727
  0
VERTEX
  5
81C
  8
CYAN
 10
138.160778615
 20
145.42552064
 30
0.0
 42
-0.38816868
  0
VERTEX
  5
81D
  8
CYAN
 10
141.46289668750001
 20
149.1537811
 30
0.0
 42
-0.38816868
  0
VERTEX
  5
81E
  8
CYAN
 10
145.47207216000001
 20
146.19905237
 30
0.0
 42
0.28974691
  0
VERTEX
  5
81F
  8
CYAN
 10
147.1419387375
 20
143.74933297250001
 30
0.0
 42
0.28974691
  0
VERTEX
  5
820
  8
CYAN
 10
150.07084001499999
 20
144.20880747499999
 30
0.0
 42
-0.20397662
  0
VERTEX
  5
821
  8
CYAN
 10
178.85957589500001
 20
147.580408355
 30
0.0
 42
-0.20397662
  0
VERTEX
  5
822
  8
CYAN
 10
201.246207825
 20
129.16851771500001
 30
0.0
 42
-0.11584844
  0
VERTEX
  5
823
  8
CYAN
 10
205.60032641000001
 20
112.073924315
 30
0.0
 42
-0.02333196
  0
VERTEX
  5
824
  8
CYAN
 10
207.332466815
 20
50.85956555500001
 30
0.0
 42
-0.405396
  0
VERTEX
  5
825
  8
CYAN
 10
206.28325588249999
 20
49.925009592499997
 30
0.0
 42
-0.405396
  0
VERTEX
  5
826
  8
CYAN
 10
205.317446115
 20
50.945524130000003
 30
0.0
 42
0.02674077
  0
VERTEX
  5
827
  8
CYAN
 10
202.736968835
 20
113.559332325
 30
0.0
 42
0.2677547
  0
VERTEX
  5
828
  8
CYAN
 10
184.86904440250001
 20
141.5026175225
 30
0.0
 42
0.2677547
  0
VERTEX
  5
829
  8
CYAN
 10
151.73440546
 20
140.02423557
 30
0.0
 42
0.24379626
  0
VERTEX
  5
82A
  8
CYAN
 10
150.08734341499999
 20
137.177805595
 30
0.0
 42
-0.24005534
  0
VERTEX
  5
82B
  8
CYAN
 10
148.95155448
 20
135.18609115000001
 30
0.0
  0
VERTEX
  5
82C
  8
CYAN
 10
139.354139065
 20
128.87659185999999
 30
0.0
 42
-0.4028963700000001
  0
VERTEX
  5
82D
  8
CYAN
 10
134.22128775499999
 20
129.83727507500001
 30
0.0
  0
VERTEX
  5
82E
  8
CYAN
 10
139.26734218999999
 20
133.3515625
 30
0.0
  0
VERTEX
  5
82F
  8
CYAN
 10
138.40134596999999
 20
134.594335685
 30
0.0
  0
VERTEX
  5
830
  8
CYAN
 10
133.35529153499999
 20
131.08004876499999
 30
0.0
  0
SEQEND
  5
831
  8
CYAN
  0
POLYLINE
  5
260
  8
CYAN
 66
     1
 10
0.0
 20
0.0
 30
0.0
 70
     1
  0
VERTEX
  5
832
  8
CYAN
 10
184.38201309999999
 20
20.985141680000002
 30
0.0
 42
-0.11584845
  0
VERTEX
  5
833
  8
CYAN
 10
180.02789350500001
 20
38.079735077499997
 30
0.0
 42
-0.02333199
  0
VERTEX
  5
834
  8
CYAN
 10
178.29575360499999
 20
99.294153935000011
 30
0.0
 42
-0.40524589
  0
VERTEX
  5
835
  8
CYAN
 10
179.34544865000001
 20
100.22768327
 30
0.0
 42
-0.40524589
  0
VERTEX
  5
836
  8
CYAN
 10
180.31077329499999
 20
99.207151525000015
 30
0.0
 42
0.02674039
  0
VERTEX
  5
837
  8
CYAN
 10
182.89125916
 20
36.594241722500001
 30
0.0
 42
0.26775435
  0
VERTEX
  5
838
  8
CYAN
 10
200.75921766499999
 20
8.6510247875000008
 30
0.0
 42
0.26775435
  0
VERTEX
  5
839
  8
CYAN
 10
233.89381647499999
 20
10.129427865
 30
0.0
 42
0.24375678
  0
VERTEX
  5
83A
  8
CYAN
 10
235.54087599499999
 20
12.974870565
 30
0.0
 42
-0.24015826
  0
VERTEX
  5
83B
  8
CYAN
 10
236.67666392000001
 20
14.967570265000001
 30
0.0
  0
VERTEX
  5
83C
  8
CYAN
 10
246.27408034499999
 20
21.276083795000002
 30
0.0
 42
-0.40293817
  0
VERTEX
  5
83D
  8
CYAN
 10
251.40693216
 20
20.316386845
 30
0.0
  0
VERTEX
  5
83E
  8
CYAN
 10
246.36087721999999
 20
16.802099420000001
 30
0.0
  0
VERTEX
  5
83F
  8
CYAN
 10
247.22687343999999
 20
15.55833997
 30
0.0
  0
VERTEX
  5
840
  8
CYAN
 10
252.27292838
 20
19.073613155
 30
0.0
 42
-0.23545765
  0
VERTEX
  5
841
  8
CYAN
 10
253.4309512575
 20
17.670139334999998
 30
0.0
 42
-0.23545765
  0
VERTEX
  5
842
  8
CYAN
 10
253.00707718000001
 20
15.900651695000001
 30
0.0
 42
0.13902917
  0
VERTEX
  5
843
  8
CYAN
 10
247.46744029000001
 20
4.7281377449999988
 30
0.0
 42
-0.3882082
  0
VERTEX
  5
844
  8
CYAN
 10
244.1668067025
 20
0.99982684
 30
0.0
 42
-0.3882082
  0
VERTEX
  5
845
  8
CYAN
 10
240.15811977999999
 20
3.953623284999999
 30
0.0
 42
0.28976605
  0
VERTEX
  5
846
  8
CYAN
 10
238.48801485000001
 20
6.404634269999999
 30
0.0
 42
0.28976605
  0
VERTEX
  5
847
  8
CYAN
 10
235.55787681999999
 20
5.9452907650000002
 30
0.0
 42
-0.20397889
  0
VERTEX
  5
848
  8
CYAN
 10
206.7689476525
 20
2.5732331249999989
 30
0.0
 42
-0.20397889
  0
VERTEX
  5
849
  8
CYAN
 10
184.38201309999999
 20
20.985141680000002
 30
0.0
  0
SEQEND
  5
84A
  8
CYAN
  0
POLYLINE
  5
27A
  8
CYAN
 66
     1
 10
0.0
 20
0.0
 30
0.0
 70
     1
  0
VERTEX
  5
84B
  8
CYAN
 10
103.915213615
 20
87.730163985000004
 30
0.0
 42
0.22540417
  0
VERTEX
  5
84C
  8
CYAN
 10
109.8360690225
 20
84.917327397500003
 30
0.0
 42
0.22540417
  0
VERTEX
  5
84D
  8
CYAN
 10
115.75753987
 20
87.728868154999986
 30
0.0
 42
0.35972523
  0
VERTEX
  5
84E
  8
CYAN
 10
115.57502074999999
 20
115.52956154500001
 30
0.0
 42
0.38841082
  0
VERTEX
  5
84F
  8
CYAN
 10
114.31974578000001
 20
115.69570168750001
 30
0.0
 42
0.38841082
  0
VERTEX
  5
850
  8
CYAN
 10
114.042823985
 20
114.46013213499999
 30
0.0
 42
-0.1900396
  0
VERTEX
  5
851
  8
CYAN
 10
116.164346155
 20
99.945569090000006
 30
0.0
 42
-0.37992948
  0
VERTEX
  5
852
  8
CYAN
 10
110.59478347
 20
96.015097530000006
 30
0.0
  0
VERTEX
  5
853
  8
CYAN
 10
110.59478347
 20
92.985097530000004
 30
0.0
  0
VERTEX
  5
854
  8
CYAN
 10
109.07978347
 20
92.985097530000004
 30
0.0
  0
VERTEX
  5
855
  8
CYAN
 10
109.07878458
 20
96.015443454999996
 30
0.0
 42
-0.37992868
  0
VERTEX
  5
856
  8
CYAN
 10
103.51113230999999
 20
99.946747759999994
 30
0.0
 42
-0.1900442
  0
VERTEX
  5
857
  8
CYAN
 10
105.63943259
 20
114.46099821
 30
0.0
 42
0.38861844
  0
VERTEX
  5
858
  8
CYAN
 10
105.36158241
 20
115.69867105749999
 30
0.0
 42
0.38861844
  0
VERTEX
  5
859
  8
CYAN
 10
104.10425076999999
 20
115.53088565500001
 30
0.0
 42
0.35971668
  0
VERTEX
  5
85A
  8
CYAN
 10
103.915213615
 20
87.730163985000004
 30
0.0
  0
SEQEND
  5
85B
  8
CYAN
  0
POLYLINE
  5
28C
  8
CYAN
 66
     1
 10
0.0
 20
0.0
 30
0.0
 70
     1
  0
VERTEX
  5
85C
  8
CYAN
 10
170.69160045999999
 20
109.561550325
 30
0.0
 42
0.22542559
  0
VERTEX
  5
85D
  8
CYAN
 10
176.61344222
 20
106.747949585
 30
0.0
 42
0.22542559
  0
VERTEX
  5
85E
  8
CYAN
 10
182.535899245
 20
109.560255
 30
0.0
 42
0.35972523
  0
VERTEX
  5
85F
  8
CYAN
 10
182.353380125
 20
137.36094839
 30
0.0
 42
0.38841076
  0
VERTEX
  5
860
  8
CYAN
 10
181.098105025
 20
137.52708813500001
 30
0.0
 42
0.38841076
  0
VERTEX
  5
861
  8
CYAN
 10
180.82118335999999
 20
136.291518475
 30
0.0
 42
-0.19003959
  0
VERTEX
  5
862
  8
CYAN
 10
182.94270553000001
 20
121.776955935
 30
0.0
 42
-0.37992951
  0
VERTEX
  5
863
  8
CYAN
 10
177.37314284499999
 20
117.846484375
 30
0.0
  0
VERTEX
  5
864
  8
CYAN
 10
177.37314284499999
 20
114.816484375
 30
0.0
  0
VERTEX
  5
865
  8
CYAN
 10
175.858142845
 20
114.816484375
 30
0.0
  0
VERTEX
  5
866
  8
CYAN
 10
175.857143955
 20
117.84683029999999
 30
0.0
 42
-0.37992871
  0
VERTEX
  5
867
  8
CYAN
 10
170.289491685
 20
121.77813460500001
 30
0.0
 42
-0.19005528
  0
VERTEX
  5
868
  8
CYAN
 10
172.41779196499999
 20
136.29337132000001
 30
0.0
 42
0.38861844
  0
VERTEX
  5
869
  8
CYAN
 10
172.13994178499999
 20
137.5310441675
 30
0.0
 42
0.38861844
  0
VERTEX
  5
86A
  8
CYAN
 10
170.882610145
 20
137.36325876500001
 30
0.0
 42
0.35971045
  0
VERTEX
  5
86B
  8
CYAN
 10
170.69160045999999
 20
109.561550325
 30
0.0
  0
SEQEND
  5
86C
  8
CYAN
  0
POLYLINE
  5
29E
  8
CYAN
 66
     1
 10
0.0
 20
0.0
 30
0.0
 70
     1
  0
VERTEX
  5
86D
  8
CYAN
 10
215.37412671000001
 20
71.239838434999996
 30
0.0
  0
VERTEX
  5
86E
  8
CYAN
 10
220.00565542999999
 20
71.641131634999994
 30
0.0
 42
0.20322829
  0
VERTEX
  5
86F
  8
CYAN
 10
223.332866615
 20
74.558029814999983
 30
0.0
 42
0.04799236
  0
VERTEX
  5
870
  8
CYAN
 10
239.846516095
 20
121.67960859999999
 30
0.0
 42
-0.30118281
  0
VERTEX
  5
871
  8
CYAN
 10
242.38771625749999
 20
123.10250385000001
 30
0.0
 42
-0.30118281
  0
VERTEX
  5
872
  8
CYAN
 10
244.689004525
 20
121.317454415
 30
0.0
 42
0.0300394
  0
VERTEX
  5
873
  8
CYAN
 10
254.84673562
 20
96.312045104999996
 30
0.0
 42
0.28139244
  0
VERTEX
  5
874
  8
CYAN
 10
259.64079909499998
 20
93.195185609999996
 30
0.0
  0
VERTEX
  5
875
  8
CYAN
 10
264.3376935
 20
93.196171875000005
 30
0.0
 42
-0.4142139100000001
  0
VERTEX
  5
876
  8
CYAN
 10
265.85466653499998
 20
91.681171875000004
 30
0.0
  0
VERTEX
  5
877
  8
CYAN
 10
265.85269400499999
 20
90.577470640000001
 30
0.0
  0
VERTEX
  5
878
  8
CYAN
 10
262.134236595
 20
90.577470640000001
 30
0.0
  0
VERTEX
  5
879
  8
CYAN
 10
262.13620963
 20
89.062470640000001
 30
0.0
  0
VERTEX
  5
87A
  8
CYAN
 10
265.85466653499998
 20
89.062470640000001
 30
0.0
  0
VERTEX
  5
87B
  8
CYAN
 10
265.85466602999998
 20
87.247423374999997
 30
0.0
 42
-0.41436496
  0
VERTEX
  5
87C
  8
CYAN
 10
264.33966653499999
 20
85.730654360000003
 30
0.0
  0
VERTEX
  5
87D
  8
CYAN
 10
262.13132931000001
 20
85.730571034999997
 30
0.0
 42
0.37574239
  0
VERTEX
  5
87E
  8
CYAN
 10
259.93358547000003
 20
83.841882650000002
 30
0.0
 42
-0.4069609500000001
  0
VERTEX
  5
87F
  8
CYAN
 10
257.49164080000003
 20
81.961281839999998
 30
0.0
 42
-0.25744246
  0
VERTEX
  5
880
  8
CYAN
 10
254.24424536999999
 20
84.282928440000006
 30
0.0
 42
-0.05307772
  0
VERTEX
  5
881
  8
CYAN
 10
243.53577086999999
 20
114.551446235
 30
0.0
 42
0.31975407
  0
VERTEX
  5
882
  8
CYAN
 10
242.1950903725
 20
115.3814599425
 30
0.0
 42
0.31975407
  0
VERTEX
  5
883
  8
CYAN
 10
240.97255398499999
 20
114.38559262
 30
0.0
 42
-0.047508
  0
VERTEX
  5
884
  8
CYAN
 10
225.31304130500001
 20
73.180687765000002
 30
0.0
 42
-0.25434004
  0
VERTEX
  5
885
  8
CYAN
 10
220.07128775499999
 20
69.482871220000007
 30
0.0
  0
VERTEX
  5
886
  8
CYAN
 10
215.31619664499999
 20
69.347967539999999
 30
0.0
 42
-0.2065518
  0
VERTEX
  5
887
  8
CYAN
 10
214.6183795625
 20
69.626104677499995
 30
0.0
 42
-0.2065518
  0
VERTEX
  5
888
  8
CYAN
 10
214.34200136250001
 20
70.324620275000001
 30
0.0
 42
-0.2065518
  0
VERTEX
  5
889
  8
CYAN
 10
214.66059952000001
 20
71.004917387500001
 30
0.0
 42
-0.2065518
  0
VERTEX
  5
88A
  8
CYAN
 10
215.37412671000001
 20
71.239838434999996
 30
0.0
  0
SEQEND
  5
88B
  8
CYAN
  0
POLYLINE
  5
2BE
  8
CYAN
 66
     1
 10
0.0
 20
0.0
 30
0.0
 70
     1
  0
VERTEX
  5
88C
  8
CYAN
 10
215.37018165000001
 20
44.736215325000003
 30
0.0
 42
0.20655187
  0
VERTEX
  5
88D
  8
CYAN
 10
214.65665412499999
 20
44.501294482500001
 30
0.0
 42
0.20655187
  0
VERTEX
  5
88E
  8
CYAN
 10
214.33805576750001
 20
43.820997182500001
 30
0.0
 42
0.20655187
  0
VERTEX
  5
88F
  8
CYAN
 10
214.614434155
 20
43.122481385
 30
0.0
 42
0.20655187
  0
VERTEX
  5
890
  8
CYAN
 10
215.31225158500001
 20
42.84434443
 30
0.0
  0
VERTEX
  5
891
  8
CYAN
 10
220.06931471999999
 20
42.97924811
 30
0.0
 42
0.25426238
  0
VERTEX
  5
892
  8
CYAN
 10
225.30909574
 20
46.677065159999991
 30
0.0
 42
0.04750894
  0
VERTEX
  5
893
  8
CYAN
 10
240.97058095
 20
87.881969510000005
 30
0.0
 42
-0.31970103
  0
VERTEX
  5
894
  8
CYAN
 10
242.19214310500001
 20
88.876948487499988
 30
0.0
 42
-0.31970103
  0
VERTEX
  5
895
  8
CYAN
 10
243.53182530500001
 20
88.047823124999994
 30
0.0
 42
0.05307772
  0
VERTEX
  5
896
  8
CYAN
 10
254.24030031000001
 20
57.779305835000002
 30
0.0
 42
0.25744245
  0
VERTEX
  5
897
  8
CYAN
 10
257.48769523499999
 20
55.457658729999999
 30
0.0
 42
0.4072196
  0
VERTEX
  5
898
  8
CYAN
 10
259.93161293999998
 20
57.338259540000003
 30
0.0
 42
-0.37570625
  0
VERTEX
  5
899
  8
CYAN
 10
262.12738424999998
 20
59.22694792499999
 30
0.0
  0
VERTEX
  5
89A
  8
CYAN
 10
264.33572097000001
 20
59.227031250000003
 30
0.0
 42
0.41436496
  0
VERTEX
  5
89B
  8
CYAN
 10
265.85072097
 20
60.743800264999997
 30
0.0
  0
VERTEX
  5
89C
  8
CYAN
 10
265.85072097
 20
62.558847530000001
 30
0.0
  0
VERTEX
  5
89D
  8
CYAN
 10
262.134236595
 20
62.558847530000001
 30
0.0
  0
VERTEX
  5
89E
  8
CYAN
 10
262.13226406500002
 20
64.073847529999995
 30
0.0
  0
VERTEX
  5
89F
  8
CYAN
 10
265.84874844000001
 20
64.073847529999995
 30
0.0
  0
VERTEX
  5
8A0
  8
CYAN
 10
265.85072097
 20
65.177548764999983
 30
0.0
 42
0.41421356
  0
VERTEX
  5
8A1
  8
CYAN
 10
264.33572097000001
 20
66.692548764999998
 30
0.0
  0
VERTEX
  5
8A2
  8
CYAN
 10
259.636854035
 20
66.691562500000003
 30
0.0
 42
-0.28139246
  0
VERTEX
  5
8A3
  8
CYAN
 10
254.84279056
 20
69.808421995000003
 30
0.0
 42
-0.0300394
  0
VERTEX
  5
8A4
  8
CYAN
 10
244.68505946499999
 20
94.813831809999996
 30
0.0
 42
0.3012310999999999
  0
VERTEX
  5
8A5
  8
CYAN
 10
242.38412059500001
 20
96.599682812500021
 30
0.0
 42
0.3012310999999999
  0
VERTEX
  5
8A6
  8
CYAN
 10
239.84257052999999
 20
95.176971754999997
 30
0.0
 42
-0.04799328
  0
VERTEX
  5
8A7
  8
CYAN
 10
223.32892155499999
 20
48.054406704999998
 30
0.0
 42
-0.20318886
  0
VERTEX
  5
8A8
  8
CYAN
 10
220.0036829
 20
45.137508525000001
 30
0.0
  0
VERTEX
  5
8A9
  8
CYAN
 10
215.37018165000001
 20
44.736215325000003
 30
0.0
  0
SEQEND
  5
8AA
  8
CYAN
  0
POLYLINE
  5
2DE
  8
CYAN
 66
     1
 10
0.0
 20
0.0
 30
0.0
 70
     1
  0
VERTEX
  5
8AB
  8
CYAN
 10
214.89279858500001
 20
18.683344609999999
 30
0.0
 42
0.2065518
  0
VERTEX
  5
8AC
  8
CYAN
 10
214.17927140500001
 20
18.4484235575
 30
0.0
 42
0.2065518
  0
VERTEX
  5
8AD
  8
CYAN
 10
213.86067325249999
 20
17.76812645
 30
0.0
 42
0.2065518
  0
VERTEX
  5
8AE
  8
CYAN
 10
214.1370514475
 20
17.069610860000001
 30
0.0
 42
0.2065518
  0
VERTEX
  5
8AF
  8
CYAN
 10
214.83486851999999
 20
16.791473714999999
 30
0.0
  0
VERTEX
  5
8B0
  8
CYAN
 10
219.58995963000001
 20
16.925390624999999
 30
0.0
 42
0.25426693
  0
VERTEX
  5
8B1
  8
CYAN
 10
224.82974064999999
 20
20.624193940000001
 30
0.0
 42
0.04750894
  0
VERTEX
  5
8B2
  8
CYAN
 10
240.49122585999999
 20
61.82909828999999
 30
0.0
 42
-0.31970102
  0
VERTEX
  5
8B3
  8
CYAN
 10
241.712787765
 20
62.824077039999999
 30
0.0
 42
-0.31970102
  0
VERTEX
  5
8B4
  8
CYAN
 10
243.05246971
 20
61.994951905000001
 30
0.0
 42
0.05307848
  0
VERTEX
  5
8B5
  8
CYAN
 10
253.76291724500001
 20
31.726434614999999
 30
0.0
 42
0.25738754
  0
VERTEX
  5
8B6
  8
CYAN
 10
257.00833963999997
 20
29.404787509999998
 30
0.0
 42
0.4072349400000001
  0
VERTEX
  5
8B7
  8
CYAN
 10
259.45225734500002
 20
31.284402055000001
 30
0.0
 42
-0.37570625
  0
VERTEX
  5
8B8
  8
CYAN
 10
261.64802865500002
 20
33.173090440000003
 30
0.0
  0
VERTEX
  5
8B9
  8
CYAN
 10
263.85833840999999
 20
33.174160030000003
 30
0.0
 42
0.41436496
  0
VERTEX
  5
8BA
  8
CYAN
 10
265.37333790500003
 20
34.690929044999997
 30
0.0
  0
VERTEX
  5
8BB
  8
CYAN
 10
265.37136587999998
 20
36.505976310000001
 30
0.0
  0
VERTEX
  5
8BC
  8
CYAN
 10
261.65488150499999
 20
36.505976310000001
 30
0.0
  0
VERTEX
  5
8BD
  8
CYAN
 10
261.65290847
 20
38.020976310000002
 30
0.0
  0
VERTEX
  5
8BE
  8
CYAN
 10
265.36939284499999
 20
38.020976310000002
 30
0.0
  0
VERTEX
  5
8BF
  8
CYAN
 10
265.37136587999998
 20
39.123691280000003
 30
0.0
 42
0.41421366
  0
VERTEX
  5
8C0
  8
CYAN
 10
263.856365375
 20
40.638691280000003
 30
0.0
  0
VERTEX
  5
8C1
  8
CYAN
 10
259.15947096999997
 20
40.637705015000002
 30
0.0
 42
-0.28139379
  0
VERTEX
  5
8C2
  8
CYAN
 10
254.365407495
 20
43.755550775000003
 30
0.0
 42
-0.03004035
  0
VERTEX
  5
8C3
  8
CYAN
 10
244.20570387000001
 20
68.760960589999996
 30
0.0
 42
0.3011827999999999
  0
VERTEX
  5
8C4
  8
CYAN
 10
241.9044151775
 20
70.546009857499996
 30
0.0
 42
0.3011827999999999
  0
VERTEX
  5
8C5
  8
CYAN
 10
239.363214935
 20
69.123114270000002
 30
0.0
 42
-0.04799236
  0
VERTEX
  5
8C6
  8
CYAN
 10
222.84956596000001
 20
22.001535990000001
 30
0.0
 42
-0.20322968
  0
VERTEX
  5
8C7
  8
CYAN
 10
219.52432730500001
 20
19.083651039999999
 30
0.0
  0
VERTEX
  5
8C8
  8
CYAN
 10
214.89279858500001
 20
18.683344609999999
 30
0.0
  0
SEQEND
  5
8C9
  8
CYAN
  0
POLYLINE
  5
2FE
  8
CYAN
 66
     1
 10
0.0
 20
0.0
 30
0.0
 70
     1
  0
VERTEX
  5
8CA
  8
CYAN
 10
9.0818928450000005
 20
33.208681325000001
 30
0.0
  0
VERTEX
  5
8CB
  8
CYAN
 10
13.835994660000001
 20
33.373398184999999
 30
0.0
 42
0.25428573
  0
VERTEX
  5
8CC
  8
CYAN
 10
19.052940589999999
 20
37.103923074999997
 30
0.0
 42
0.04750893
  0
VERTEX
  5
8CD
  8
CYAN
 10
22.286935844999999
 20
102.36554626
 30
0.0
 42
-0.31971172
  0
VERTEX
  5
8CE
  8
CYAN
 10
23.502767680000002
 20
103.3695854975
 30
0.0
 42
-0.31971172
  0
VERTEX
  5
8CF
  8
CYAN
 10
24.849106875
 20
102.54878551
 30
0.0
 42
-0.02028597
  0
VERTEX
  5
8D0
  8
CYAN
 10
49.97655297
 20
63.29443810499999
 30
0.0
 42
-0.12232966
  0
VERTEX
  5
8D1
  8
CYAN
 10
53.998427005000003
 20
49.59033440999999
 30
0.0
 42
0.36172621
  0
VERTEX
  5
8D2
  8
CYAN
 10
57.130226087499999
 20
46.134209712500002
 30
0.0
 42
0.36172621
  0
VERTEX
  5
8D3
  8
CYAN
 10
61.097254425000003
 20
48.58689183500001
 30
0.0
 42
-0.37593962
  0
VERTEX
  5
8D4
  8
CYAN
 10
63.282595970000003
 20
50.490136845000002
 30
0.0
  0
VERTEX
  5
8D5
  8
CYAN
 10
69.628823909999994
 20
49.976293284999997
 30
0.0
 42
0.41436997
  0
VERTEX
  5
8D6
  8
CYAN
 10
71.131795315000005
 20
51.502109375000003
 30
0.0
  0
VERTEX
  5
8D7
  8
CYAN
 10
71.119959629999997
 20
53.316953124999991
 30
0.0
  0
VERTEX
  5
8D8
  8
CYAN
 10
65.866775910000001
 20
53.31596686000001
 30
0.0
  0
VERTEX
  5
8D9
  8
CYAN
 10
65.854939720000004
 20
54.83096685999999
 30
0.0
  0
VERTEX
  5
8DA
  8
CYAN
 10
71.112069004999995
 20
54.83096685999999
 30
0.0
  0
VERTEX
  5
8DB
  8
CYAN
 10
71.104148080000002
 20
55.93334196499999
 30
0.0
 42
0.41427701
  0
VERTEX
  5
8DC
  8
CYAN
 10
69.579314719999999
 20
57.440790700000001
 30
0.0
  0
VERTEX
  5
8DD
  8
CYAN
 10
64.882801084999997
 20
57.412489995000001
 30
0.0
 42
-0.28144128
  0
VERTEX
  5
8DE
  8
CYAN
 10
60.066917570000001
 20
60.497109784999999
 30
0.0
 42
-0.01872847
  0
VERTEX
  5
8DF
  8
CYAN
 10
24.395970372499999
 20
109.5587935325
 30
0.0
 42
0.34217722
  0
VERTEX
  5
8E0
  8
CYAN
 10
21.38914256
 20
110.5567163425
 30
0.0
 42
0.34217722
  0
VERTEX
  5
8E1
  8
CYAN
 10
19.672902830000002
 20
107.89375096000001
 30
0.0
 42
-0.01943269
  0
VERTEX
  5
8E2
  8
CYAN
 10
17.06429705
 20
38.471930200000003
 30
0.0
 42
-0.20331415
  0
VERTEX
  5
8E3
  8
CYAN
 10
13.75708841
 20
35.529511845000002
 30
0.0
  0
VERTEX
  5
8E4
  8
CYAN
 10
9.1263747599999991
 20
35.103131759999997
 30
0.0
 42
0.20657072
  0
VERTEX
  5
8E5
  8
CYAN
 10
8.4136167074999992
 20
34.862900095000001
 30
0.0
 42
0.20657072
  0
VERTEX
  5
8E6
  8
CYAN
 10
8.0994595849999982
 20
34.179496409999999
 30
0.0
 42
0.20657072
  0
VERTEX
  5
8E7
  8
CYAN
 10
8.3811953875
 20
33.48210109
 30
0.0
 42
0.20657072
  0
VERTEX
  5
8E8
  8
CYAN
 10
9.0818928450000005
 20
33.208681325000001
 30
0.0
  0
SEQEND
  5
8E9
  8
CYAN
  0
POLYLINE
  5
31F
  8
CYAN
 66
     1
 10
0.0
 20
0.0
 30
0.0
 70
     1
  0
VERTEX
  5
8EA
  8
CYAN
 10
106.888400105
 20
25.849415305000001
 30
0.0
 42
-0.33504001
  0
VERTEX
  5
8EB
  8
CYAN
 10
104.02948012500001
 20
29.4692107425
 30
0.0
 42
-0.33504001
  0
VERTEX
  5
8EC
  8
CYAN
 10
106.72701372
 20
33.210822020000002
 30
0.0
 42
0.35760066
  0
VERTEX
  5
8ED
  8
CYAN
 10
108.59821531999999
 20
36.043739674999998
 30
0.0
 42
0.35760066
  0
VERTEX
  5
8EE
  8
CYAN
 10
106.18652181500001
 20
38.433415869999997
 30
0.0
 42
-0.38768911
  0
VERTEX
  5
8EF
  8
CYAN
 10
102.8443979875
 20
42.115723625000001
 30
0.0
 42
-0.38768911
  0
VERTEX
  5
8F0
  8
CYAN
 10
106.20628499
 20
45.779996795000002
 30
0.0
 42
-0.00783144
  0
VERTEX
  5
8F1
  8
CYAN
 10
116.698411935
 20
46.550396515000003
 30
0.0
 42
-0.26371546
  0
VERTEX
  5
8F2
  8
CYAN
 10
118.79518360749999
 20
45.515829167500002
 30
0.0
 42
-0.26371546
  0
VERTEX
  5
8F3
  8
CYAN
 10
118.98449088
 20
43.185390624999997
 30
0.0
  0
VERTEX
  5
8F4
  8
CYAN
 10
113.15134596999999
 20
43.185390624999997
 30
0.0
  0
VERTEX
  5
8F5
  8
CYAN
 10
113.15134596999999
 20
41.669404359999987
 30
0.0
  0
VERTEX
  5
8F6
  8
CYAN
 10
118.98245472000001
 20
41.670218419999991
 30
0.0
 42
0.2032404
  0
VERTEX
  5
8F7
  8
CYAN
 10
119.9668309825
 20
37.778315415000002
 30
0.0
 42
0.2032404
  0
VERTEX
  5
8F8
  8
CYAN
 10
123.448611595
 20
35.780038810000001
 30
0.0
  0
VERTEX
  5
8F9
  8
CYAN
 10
125.65374409
 20
35.690557355000003
 30
0.0
 42
-0.3474092
  0
VERTEX
  5
8FA
  8
CYAN
 10
129.66530349999999
 20
31.797554269999999
 30
0.0
 42
-0.10435703
  0
VERTEX
  5
8FB
  8
CYAN
 10
131.144935825
 20
12.597798174999999
 30
0.0
 42
0.14445554
  0
VERTEX
  5
8FC
  8
CYAN
 10
131.92272066500001
 20
7.8932797849999989
 30
0.0
 42
-0.22551388
  0
VERTEX
  5
8FD
  8
CYAN
 10
131.95038202250001
 20
3.9376205674999989
 30
0.0
 42
-0.22551388
  0
VERTEX
  5
8FE
  8
CYAN
 10
128.90096951250001
 20
1.4178808300000001
 30
0.0
 42
-0.22551388
  0
VERTEX
  5
8FF
  8
CYAN
 10
125.02144583250001
 20
2.1907333525000001
 30
0.0
 42
-0.22551388
  0
VERTEX
  5
900
  8
CYAN
 10
123.17044194
 20
5.6867009700000004
 30
0.0
 42
0.32911256
  0
VERTEX
  5
901
  8
CYAN
 10
106.888400105
 20
25.849415305000001
 30
0.0
  0
SEQEND
  5
902
  8
CYAN
  0
POLYLINE
  5
339
  8
CYAN
 66
     1
 10
0.0
 20
0.0
 30
0.0
 70
     1
  0
VERTEX
  5
903
  8
CYAN
 10
67.88504073
 20
100.587442775
 30
0.0
 42
-0.32908832
  0
VERTEX
  5
904
  8
CYAN
 10
84.165109529999995
 20
80.424728439999996
 30
0.0
 42
0.22549983
  0
VERTEX
  5
905
  8
CYAN
 10
86.016668550000006
 20
76.929285754999995
 30
0.0
 42
0.22549983
  0
VERTEX
  5
906
  8
CYAN
 10
89.896094567500015
 20
76.156987805
 30
0.0
 42
0.22549983
  0
VERTEX
  5
907
  8
CYAN
 10
92.945150124999984
 20
78.676839102499997
 30
0.0
 42
0.22549983
  0
VERTEX
  5
908
  8
CYAN
 10
92.917388255000006
 20
82.632293520000005
 30
0.0
 42
-0.14442951
  0
VERTEX
  5
909
  8
CYAN
 10
92.141576450000002
 20
87.336811909999994
 30
0.0
 42
0.10435173
  0
VERTEX
  5
90A
  8
CYAN
 10
90.661944125000005
 20
106.53558174
 30
0.0
 42
0.3474699399999999
  0
VERTEX
  5
90B
  8
CYAN
 10
86.650384715000001
 20
110.42957109
 30
0.0
  0
VERTEX
  5
90C
  8
CYAN
 10
84.443279689999983
 20
110.51905254499999
 30
0.0
 42
-0.20318783
  0
VERTEX
  5
90D
  8
CYAN
 10
80.963045152500001
 20
112.51752005
 30
0.0
 42
-0.20318783
  0
VERTEX
  5
90E
  8
CYAN
 10
79.979095345000005
 20
116.40824589
 30
0.0
  0
VERTEX
  5
90F
  8
CYAN
 10
74.147986595000006
 20
116.407431325
 30
0.0
  0
VERTEX
  5
910
  8
CYAN
 10
74.147986595000006
 20
117.923418095
 30
0.0
  0
VERTEX
  5
911
  8
CYAN
 10
79.979158470000002
 20
117.923418095
 30
0.0
 42
0.26392394
  0
VERTEX
  5
912
  8
CYAN
 10
79.790997812499995
 20
120.254938665
 30
0.0
 42
0.26392394
  0
VERTEX
  5
913
  8
CYAN
 10
77.6930795225
 20
121.28941025
 30
0.0
 42
0.00783144
  0
VERTEX
  5
914
  8
CYAN
 10
67.200953084999995
 20
120.51901053
 30
0.0
 42
0.38768915
  0
VERTEX
  5
915
  8
CYAN
 10
63.839065622500001
 20
116.8547373625
 30
0.0
 42
0.38768915
  0
VERTEX
  5
916
  8
CYAN
 10
67.181189910000001
 20
113.172429605
 30
0.0
 42
-0.35760066
  0
VERTEX
  5
917
  8
CYAN
 10
69.592883415000003
 20
110.78275341
 30
0.0
 42
-0.35760066
  0
VERTEX
  5
918
  8
CYAN
 10
67.721681814999997
 20
107.949835755
 30
0.0
 42
0.33498214
  0
VERTEX
  5
919
  8
CYAN
 10
65.025363554999998
 20
104.207000245
 30
0.0
 42
0.33498214
  0
VERTEX
  5
91A
  8
CYAN
 10
67.88504073
 20
100.587442775
 30
0.0
  0
SEQEND
  5
91B
  8
CYAN
  0
POLYLINE
  5
353
  8
CYAN
 66
     1
 10
0.0
 20
0.0
 30
0.0
 70
     1
  0
VERTEX
  5
91C
  8
CYAN
 10
196.04544613499999
 20
27.8138547
 30
0.0
 42
-0.29909755
  0
VERTEX
  5
91D
  8
CYAN
 10
194.18365979750001
 20
28.9085642575
 30
0.0
 42
-0.29909755
  0
VERTEX
  5
91E
  8
CYAN
 10
194.44919870499999
 20
31.051955605
 30
0.0
  0
VERTEX
  5
91F
  8
CYAN
 10
202.654705345
 20
31.0545407
 30
0.0
  0
VERTEX
  5
920
  8
CYAN
 10
202.654705345
 20
32.569540699999997
 30
0.0
  0
VERTEX
  5
921
  8
CYAN
 10
194.44845534500001
 20
32.567568170000001
 30
0.0
 42
-0.2692143
  0
VERTEX
  5
922
  8
CYAN
 10
194.035586405
 20
34.867914435000003
 30
0.0
 42
-0.2692143
  0
VERTEX
  5
923
  8
CYAN
 10
195.82840673000001
 20
36.367197259999998
 30
0.0
 42
0.23697399
  0
VERTEX
  5
924
  8
CYAN
 10
197.43580500499999
 20
37.555575079999997
 30
0.0
 42
0.23697399
  0
VERTEX
  5
925
  8
CYAN
 10
197.44268114499999
 20
39.554555765000003
 30
0.0
 42
-0.270187
  0
VERTEX
  5
926
  8
CYAN
 10
197.62699184749999
 20
42.356789877499999
 30
0.0
 42
-0.270187
  0
VERTEX
  5
927
  8
CYAN
 10
200.15622794500001
 20
43.577220629999992
 30
0.0
 42
-0.25687314
  0
VERTEX
  5
928
  8
CYAN
 10
215.83552804000001
 20
33.28486916
 30
0.0
 42
-0.30406585
  0
VERTEX
  5
929
  8
CYAN
 10
215.25289597
 20
27.655410610000001
 30
0.0
 42
-0.30406585
  0
VERTEX
  5
92A
  8
CYAN
 10
209.82475342000001
 20
26.053682755000001
 30
0.0
 42
0.08841984
  0
VERTEX
  5
92B
  8
CYAN
 10
196.04544613499999
 20
27.8138547
 30
0.0
  0
SEQEND
  5
92C
  8
CYAN
  0
ENDSEC
  0
EOF
