  0
SECTION
  2
HEADER
  9
$ACADVER
  1
AC1009
  9
$INSBASE
 10
0.0
 20
0.0
 30
0.0
  9
$EXTMIN
 10
-0.0002424316653444
 20
-0.0000001439301407
 30
0.0
  9
$EXTMAX
 10
878.86436391919699
 20
935.67981656300492
 30
0.0
  9
$LIMMIN
 10
0.0
 20
0.0
  9
$LIMMAX
 10
12.0
 20
9.0
  9
$ORTHOMODE
 70
     0
  9
$REGENMODE
 70
     1
  9
$FILLMODE
 70
     1
  9
$QTEXTMODE
 70
     0
  9
$MIRRTEXT
 70
     0
  9
$DRAGMODE
 70
     2
  9
$LTSCALE
 40
1.0
  9
$OSMODE
 70
   167
  9
$ATTMODE
 70
     1
  9
$TEXTSIZE
 40
0.2
  9
$TRACEWID
 40
0.05
  9
$TEXTSTYLE
  7
STANDARD
  9
$CLAYER
  8
0
  9
$CELTYPE
  6
CONTINUOUS
  9
$CECOLOR
 62
   256
  9
$DIMSCALE
 40
1.0
  9
$DIMASZ
 40
0.18
  9
$DIMEXO
 40
0.0625
  9
$DIMDLI
 40
0.38
  9
$DIMRND
 40
0.0
  9
$DIMDLE
 40
0.0
  9
$DIMEXE
 40
0.18
  9
$DIMTP
 40
0.0
  9
$DIMTM
 40
0.0
  9
$DIMTXT
 40
0.18
  9
$DIMCEN
 40
0.09
  9
$DIMTSZ
 40
0.0
  9
$DIMTOL
 70
     0
  9
$DIMLIM
 70
     0
  9
$DIMTIH
 70
     1
  9
$DIMTOH
 70
     1
  9
$DIMSE1
 70
     0
  9
$DIMSE2
 70
     0
  9
$DIMTAD
 70
     0
  9
$DIMZIN
 70
     0
  9
$DIMBLK
  1

  9
$DIMASO
 70
     1
  9
$DIMSHO
 70
     1
  9
$DIMPOST
  1

  9
$DIMAPOST
  1

  9
$DIMALT
 70
     0
  9
$DIMALTD
 70
     2
  9
$DIMALTF
 40
25.399999999999999
  9
$DIMLFAC
 40
1.0
  9
$DIMTOFL
 70
     0
  9
$DIMTVP
 40
0.0
  9
$DIMTIX
 70
     0
  9
$DIMSOXD
 70
     0
  9
$DIMSAH
 70
     0
  9
$DIMBLK1
  1

  9
$DIMBLK2
  1

  9
$DIMSTYLE
  2
STANDARD
  9
$DIMCLRD
 70
     0
  9
$DIMCLRE
 70
     0
  9
$DIMCLRT
 70
     0
  9
$DIMTFAC
 40
1.0
  9
$DIMGAP
 40
0.09
  9
$LUNITS
 70
     2
  9
$LUPREC
 70
     4
  9
$SKETCHINC
 40
0.1
  9
$FILLETRAD
 40
0.0
  9
$AUNITS
 70
     0
  9
$AUPREC
 70
     0
  9
$MENU
  1
.
  9
$ELEVATION
 40
0.0
  9
$PELEVATION
 40
0.0
  9
$THICKNESS
 40
0.0
  9
$LIMCHECK
 70
     0
  9
$BLIPMODE
 70
     0
  9
$CHAMFERA
 40
0.0
  9
$CHAMFERB
 40
0.0
  9
$SKPOLY
 70
     0
  9
$TDCREATE
 40
2455318.727318611
  9
$TDUPDATE
 40
2455318.7277173731
  9
$TDINDWG
 40
0.0003994907
  9
$TDUSRTIMER
 40
0.0003994907
  9
$USRTIMER
 70
     1
  9
$ANGBASE
 50
0.0
  9
$ANGDIR
 70
     0
  9
$PDMODE
 70
     0
  9
$PDSIZE
 40
0.0
  9
$PLINEWID
 40
0.0
  9
$COORDS
 70
     1
  9
$SPLFRAME
 70
     0
  9
$SPLINETYPE
 70
     6
  9
$SPLINESEGS
 70
     8
  9
$ATTDIA
 70
     0
  9
$ATTREQ
 70
     1
  9
$HANDLING
 70
     1
  9
$HANDSEED
  5
12C5
  9
$SURFTAB1
 70
     6
  9
$SURFTAB2
 70
     6
  9
$SURFTYPE
 70
     6
  9
$SURFU
 70
     6
  9
$SURFV
 70
     6
  9
$UCSNAME
  2

  9
$UCSORG
 10
0.0
 20
0.0
 30
0.0
  9
$UCSXDIR
 10
1.0
 20
0.0
 30
0.0
  9
$UCSYDIR
 10
0.0
 20
1.0
 30
0.0
  9
$PUCSNAME
  2

  9
$PUCSORG
 10
0.0
 20
0.0
 30
0.0
  9
$PUCSXDIR
 10
1.0
 20
0.0
 30
0.0
  9
$PUCSYDIR
 10
0.0
 20
1.0
 30
0.0
  9
$USERI1
 70
     0
  9
$USERI2
 70
     0
  9
$USERI3
 70
     0
  9
$USERI4
 70
     0
  9
$USERI5
 70
     0
  9
$USERR1
 40
0.0
  9
$USERR2
 40
0.0
  9
$USERR3
 40
0.0
  9
$USERR4
 40
0.0
  9
$USERR5
 40
0.0
  9
$WORLDVIEW
 70
     1
  9
$SHADEDGE
 70
     3
  9
$SHADEDIF
 70
    70
  9
$TILEMODE
 70
     1
  9
$MAXACTVP
 70
    64
  9
$PLIMCHECK
 70
     0
  9
$PEXTMIN
 10
1.0000000000000000E+020
 20
1.0000000000000000E+020
 30
1.0000000000000000E+020
  9
$PEXTMAX
 10
-1.0000000000000000E+020
 20
-1.0000000000000000E+020
 30
-1.0000000000000000E+020
  9
$PLIMMIN
 10
0.0
 20
0.0
  9
$PLIMMAX
 10
12.0
 20
9.0
  9
$UNITMODE
 70
     0
  9
$VISRETAIN
 70
     1
  9
$PLINEGEN
 70
     0
  9
$PSLTSCALE
 70
     1
  0
ENDSEC
  0
SECTION
  2
TABLES
  0
TABLE
  2
VPORT
 70
     1
  0
VPORT
  2
*ACTIVE
 70
     0
 10
0.0
 20
0.0
 11
1.0
 21
1.0
 12
7.8038793103448274
 22
4.5
 13
0.0
 23
0.0
 14
1.0
 24
1.0
 15
0.0
 25
0.0
 16
0.0
 26
0.0
 36
1.0
 17
0.0
 27
0.0
 37
0.0
 40
9.0
 41
1.7341954022988499
 42
50.0
 43
0.0
 44
0.0
 50
0.0
 51
0.0
 71
     0
 72
   100
 73
     1
 74
     1
 75
     0
 76
     0
 77
     0
 78
     0
  0
ENDTAB
  0
TABLE
  2
LTYPE
 70
     1
  0
LTYPE
  2
CONTINUOUS
 70
     0
  3
Solid line
 72
    65
 73
     0
 40
0.0
  0
ENDTAB
  0
TABLE
  2
LAYER
 70
     2
  0
LAYER
  2
0
 70
     0
 62
     1
  6
CONTINUOUS
  0
LAYER
  2
OBJ02
 70
     0
 62
     1
  6
CONTINUOUS
  0
ENDTAB
  0
TABLE
  2
STYLE
 70
     2
  0
STYLE
  2
STANDARD
 70
     0
 40
0.0
 41
1.0
 50
0.0
 71
     0
 42
0.2
  3
txt
  4

  0
STYLE
  2
ANNOTATIVE
 70
     0
 40
0.0
 41
1.0
 50
0.0
 71
     0
 42
0.2
  3
txt
  4

  0
ENDTAB
  0
TABLE
  2
VIEW
 70
     0
  0
ENDTAB
  0
TABLE
  2
UCS
 70
     0
  0
ENDTAB
  0
TABLE
  2
APPID
 70
     3
  0
APPID
  2
ACAD
 70
     0
  0
APPID
  2
ACADANNOTATIVE
 70
     0
  0
APPID
  2
ACAD_MLEADERVER
 70
     0
  0
ENDTAB
  0
TABLE
  2
DIMSTYLE
 70
     2
  0
DIMSTYLE
  2
STANDARD
 70
     0
  3

  4

  5

  6

  7

 40
1.0
 41
0.18
 42
0.0625
 43
0.38
 44
0.18
 45
0.0
 46
0.0
 47
0.0
 48
0.0
140
0.18
141
0.09
142
0.0
143
25.399999999999999
144
1.0
145
0.0
146
1.0
147
0.09
 71
     0
 72
     0
 73
     1
 74
     1
 75
     0
 76
     0
 77
     0
 78
     0
170
     0
171
     2
172
     0
173
     0
174
     0
175
     0
176
     0
177
     0
178
     0
  0
DIMSTYLE
  2
ANNOTATIVE
 70
     0
  3

  4

  5

  6

  7

 40
1.0
 41
0.18
 42
0.0625
 43
0.38
 44
0.18
 45
0.0
 46
0.0
 47
0.0
 48
0.0
140
0.18
141
0.09
142
0.0
143
25.399999999999999
144
1.0
145
0.0
146
1.0
147
0.09
 71
     0
 72
     0
 73
     1
 74
     1
 75
     0
 76
     0
 77
     0
 78
     0
170
     0
171
     2
172
     0
173
     0
174
     0
175
     0
176
     0
177
     0
178
     0
  0
ENDTAB
  0
ENDSEC
  0
SECTION
  2
BLOCKS
  0
BLOCK
  8
0
  2
$MODEL_SPACE
 70
     0
 10
0.0
 20
0.0
 30
0.0
  3
$MODEL_SPACE
  1

  0
ENDBLK
  5
76
  8
0
  0
BLOCK
 67
     1
  8
0
  2
$PAPER_SPACE
 70
     0
 10
0.0
 20
0.0
 30
0.0
  3
$PAPER_SPACE
  1

  0
ENDBLK
  5
72
 67
     1
  8
0
  0
ENDSEC
  0
SECTION
  2
ENTITIES
  0
POLYLINE
  5
7B
  8
0
 66
     1
 10
0.0
 20
0.0
 30
0.0
  0
VERTEX
  5
CD5
  8
0
 10
174.50137409000001
 20
18.2060273825
 30
0.0
  0
VERTEX
  5
CD6
  8
0
 10
171.67466036499999
 20
17.128848427499999
 30
0.0
  0
SEQEND
  5
CD7
  8
0
  0
POLYLINE
  5
7F
  8
0
 66
     1
 10
0.0
 20
0.0
 30
0.0
  0
VERTEX
  5
CD8
  8
0
 10
162.11400267249999
 20
17.128848427499999
 30
0.0
  0
VERTEX
  5
CD9
  8
0
 10
159.287288945
 20
18.2060273825
 30
0.0
  0
SEQEND
  5
CDA
  8
0
  0
POLYLINE
  5
83
  8
OBJ02
 66
     1
 10
0.0
 20
0.0
 30
0.0
  0
VERTEX
  5
CDB
  8
OBJ02
 10
2.9510636099999989
 20
3.6316273250000002
 30
0.0
  0
VERTEX
  5
CDC
  8
OBJ02
 10
9.0855800324999993
 20
5.9653944824999989
 30
0.0
  0
VERTEX
  5
CDD
  8
OBJ02
 10
8.5477794049999982
 20
7.3790517024999991
 30
0.0
  0
VERTEX
  5
CDE
  8
OBJ02
 10
2.4132629799999989
 20
5.0452845450000003
 30
0.0
  0
SEQEND
  5
CDF
  8
OBJ02
  0
POLYLINE
  5
89
  8
OBJ02
 66
     1
 10
0.0
 20
0.0
 30
0.0
  0
VERTEX
  5
CE0
  8
OBJ02
 10
46.676362060000002
 20
17.388510327500001
 30
0.0
  0
VERTEX
  5
CE1
  8
OBJ02
 10
44.051404210000001
 20
10.500142952499999
 30
0.0
  0
VERTEX
  5
CE2
  8
OBJ02
 10
45.185531904999991
 20
10.157598345
 30
0.0
  0
SEQEND
  5
CE3
  8
OBJ02
  0
POLYLINE
  5
8E
  8
OBJ02
 66
     1
 10
0.0
 20
0.0
 30
0.0
  0
VERTEX
  5
CE4
  8
OBJ02
 10
28.3353308925
 20
148.68022451749999
 30
0.0
  0
VERTEX
  5
CE5
  8
OBJ02
 10
28.990720187499999
 20
150.0433536825
 30
0.0
  0
SEQEND
  5
CE6
  8
OBJ02
  0
POLYLINE
  5
92
  8
OBJ02
 66
     1
 10
0.0
 20
0.0
 30
0.0
  0
VERTEX
  5
CE7
  8
OBJ02
 10
188.42904975249999
 20
151.0027526275
 30
0.0
  0
VERTEX
  5
CE8
  8
OBJ02
 10
184.94636281999999
 20
147.4703818575
 30
0.0
  0
SEQEND
  5
CE9
  8
OBJ02
  0
POLYLINE
  5
96
  8
OBJ02
 66
     1
 10
0.0
 20
0.0
 30
0.0
  0
VERTEX
  5
CEA
  8
OBJ02
 10
192.83777091249999
 20
169.21839916249999
 30
0.0
  0
VERTEX
  5
CEB
  8
OBJ02
 10
190.52346089
 20
173.60449623
 30
0.0
  0
SEQEND
  5
CEC
  8
OBJ02
  0
POLYLINE
  5
9A
  8
OBJ02
 66
     1
 10
0.0
 20
0.0
 30
0.0
  0
VERTEX
  5
CED
  8
OBJ02
 10
206.34238668750001
 20
148.7697261225
 30
0.0
  0
VERTEX
  5
CEE
  8
OBJ02
 10
208.85129675499999
 20
144.49045962
 30
0.0
  0
SEQEND
  5
CEF
  8
OBJ02
  0
POLYLINE
  5
9E
  8
OBJ02
 66
     1
 10
0.0
 20
0.0
 30
0.0
  0
VERTEX
  5
CF0
  8
OBJ02
 10
207.66400269249999
 20
166.49761272500001
 30
0.0
  0
VERTEX
  5
CF1
  8
OBJ02
 10
210.98427182750001
 20
170.18131890500001
 30
0.0
  0
VERTEX
  5
CF2
  8
OBJ02
 10
207.66400269249999
 20
166.49761272500001
 30
0.0
  0
VERTEX
  5
CF3
  8
OBJ02
 10
206.54051878499999
 20
167.51025292
 30
0.0
  0
VERTEX
  5
CF4
  8
OBJ02
 10
209.86078792250001
 20
171.1939590975
 30
0.0
  0
VERTEX
  5
CF5
  8
OBJ02
 10
206.54051878499999
 20
167.51025292
 30
0.0
  0
SEQEND
  5
CF6
  8
OBJ02
  0
POLYLINE
  5
A6
  8
OBJ02
 66
     1
 10
0.0
 20
0.0
 30
0.0
  0
VERTEX
  5
CF7
  8
OBJ02
 10
217.35111630500001
 20
5.3242121200000003
 30
0.0
  0
VERTEX
  5
CF8
  8
OBJ02
 10
211.21659988249999
 20
7.6579792774999991
 30
0.0
  0
VERTEX
  5
CF9
  8
OBJ02
 10
210.6787992525
 20
6.24432206
 30
0.0
  0
VERTEX
  5
CFA
  8
OBJ02
 10
216.81331567749999
 20
3.910554902499999
 30
0.0
  0
SEQEND
  5
CFB
  8
OBJ02
  0
POLYLINE
  5
AC
  8
OBJ02
 66
     1
 10
0.0
 20
0.0
 30
0.0
 70
     1
  0
VERTEX
  5
CFC
  8
OBJ02
 10
141.79797275749999
 20
209.088970085
 30
0.0
 42
0.04694483
  0
VERTEX
  5
CFD
  8
OBJ02
 10
147.06649152750001
 20
206.19735320250001
 30
0.0
 42
0.25452743
  0
VERTEX
  5
CFE
  8
OBJ02
 10
153.92486746500001
 20
207.78955815500001
 30
0.0
  0
VERTEX
  5
CFF
  8
OBJ02
 10
173.63212260750001
 20
225.30507407499999
 30
0.0
 42
-0.31503627
  0
VERTEX
  5
D00
  8
OBJ02
 10
175.03943481249999
 20
225.57141197249999
 30
0.0
 42
-0.31503627
  0
VERTEX
  5
D01
  8
OBJ02
 10
175.77221552250001
 20
224.3407633825
 30
0.0
 42
-0.03115372
  0
VERTEX
  5
D02
  8
OBJ02
 10
175.52053276250001
 20
216.56269806500001
 30
0.0
 42
0.05497412
  0
VERTEX
  5
D03
  8
OBJ02
 10
175.84192342
 20
212.7274337275
 30
0.0
 42
0.19035588
  0
VERTEX
  5
D04
  8
OBJ02
 10
178.72423464249999
 20
208.78135928250001
 30
0.0
 42
0.02099438
  0
VERTEX
  5
D05
  8
OBJ02
 10
181.6093039225
 20
207.13842854750001
 30
0.0
 42
-0.19704981
  0
VERTEX
  5
D06
  8
OBJ02
 10
182.34021261000001
 20
206.283980915
 30
0.0
 42
-0.03409156
  0
VERTEX
  5
D07
  8
OBJ02
 10
182.94758235250001
 20
203.8441769575
 30
0.0
 42
0.23494469
  0
VERTEX
  5
D08
  8
OBJ02
 10
184.91011638250001
 20
201.742206385
 30
0.0
 42
0.27712007
  0
VERTEX
  5
D09
  8
OBJ02
 10
189.23396026500001
 20
202.64562124
 30
0.0
 42
0.04199174
  0
VERTEX
  5
D0A
  8
OBJ02
 10
191.72673455250001
 20
207.056493655
 30
0.0
  0
VERTEX
  5
D0B
  8
OBJ02
 10
185.50860933999999
 20
209.79611453749999
 30
0.0
  0
VERTEX
  5
D0C
  8
OBJ02
 10
186.11843132249999
 20
211.18022920249999
 30
0.0
  0
VERTEX
  5
D0D
  8
OBJ02
 10
192.336556535
 20
208.44060831749999
 30
0.0
 42
0.08258063
  0
VERTEX
  5
D0E
  8
OBJ02
 10
193.104726935
 20
211.38222917249999
 30
0.0
 42
0.34050708
  0
VERTEX
  5
D0F
  8
OBJ02
 10
192.15749393749999
 20
212.8739969625
 30
0.0
 42
-0.03645657
  0
VERTEX
  5
D10
  8
OBJ02
 10
183.38101344500001
 20
217.36796748
 30
0.0
 42
-0.20072046
  0
VERTEX
  5
D11
  8
OBJ02
 10
180.769594305
 20
221.38168236499999
 30
0.0
 42
-0.01365913
  0
VERTEX
  5
D12
  8
OBJ02
 10
179.35585671999999
 20
230.5301011725
 30
0.0
 42
0.26743495
  0
VERTEX
  5
D13
  8
OBJ02
 10
177.79775226749999
 20
232.5854695475
 30
0.0
 42
0.26743495
  0
VERTEX
  5
D14
  8
OBJ02
 10
175.2380861
 20
232.26870820249999
 30
0.0
 42
0.03094295
  0
VERTEX
  5
D15
  8
OBJ02
 10
172.769663135
 20
230.1571782275
 30
0.0
  0
VERTEX
  5
D16
  8
OBJ02
 10
152.45048944749999
 20
210.47416154749999
 30
0.0
 42
-0.29753822
  0
VERTEX
  5
D17
  8
OBJ02
 10
146.78511731250001
 20
209.40924549499999
 30
0.0
 42
0.03487403
  0
VERTEX
  5
D18
  8
OBJ02
 10
142.46363969750001
 20
210.80931885250001
 30
0.0
 42
0.31109865
  0
VERTEX
  5
D19
  8
OBJ02
 10
141.53826002
 20
210.17842264250001
 30
0.0
 42
0.31109865
  0
VERTEX
  5
D1A
  8
OBJ02
 10
141.79797275749999
 20
209.088970085
 30
0.0
  0
SEQEND
  5
D1B
  8
OBJ02
  0
POLYLINE
  5
CD
  8
OBJ02
 66
     1
 10
0.0
 20
0.0
 30
0.0
 70
     1
  0
VERTEX
  5
D1C
  8
OBJ02
 10
94.457780102499996
 20
208.11806512250001
 30
0.0
 42
-0.08258063
  0
VERTEX
  5
D1D
  8
OBJ02
 10
93.397516112499986
 20
210.96746142500001
 30
0.0
 42
-0.34050708
  0
VERTEX
  5
D1E
  8
OBJ02
 10
94.189836714999984
 20
212.5469707
 30
0.0
 42
0.03645657
  0
VERTEX
  5
D1F
  8
OBJ02
 10
102.4695809575
 20
217.90124153249999
 30
0.0
 42
0.20072046
  0
VERTEX
  5
D20
  8
OBJ02
 10
104.663877685
 20
222.1573523125
 30
0.0
 42
0.01365913
  0
VERTEX
  5
D21
  8
OBJ02
 10
105.14990638250001
 20
231.4015935875
 30
0.0
 42
-0.26743495
  0
VERTEX
  5
D22
  8
OBJ02
 10
106.4932873775
 20
233.6033102225
 30
0.0
 42
-0.26743495
  0
VERTEX
  5
D23
  8
OBJ02
 10
109.07183571
 20
233.54571569999999
 30
0.0
 42
-0.03094295
  0
VERTEX
  5
D24
  8
OBJ02
 10
111.7401974425
 20
231.69328042750001
 30
0.0
  0
VERTEX
  5
D25
  8
OBJ02
 10
133.936793295
 20
214.15472012500001
 30
0.0
 42
0.29753822
  0
VERTEX
  5
D26
  8
OBJ02
 10
139.68056619000001
 20
213.6652708725
 30
0.0
 42
-0.03487403
  0
VERTEX
  5
D27
  8
OBJ02
 10
143.8392326325
 20
215.49307490749999
 30
0.0
 42
-0.31109865
  0
VERTEX
  5
D28
  8
OBJ02
 10
144.82339788499999
 20
214.95849439
 30
0.0
 42
-0.31109865
  0
VERTEX
  5
D29
  8
OBJ02
 10
144.67462634750001
 20
213.8484382625
 30
0.0
 42
-0.04694483
  0
VERTEX
  5
D2A
  8
OBJ02
 10
139.72380760499999
 20
210.44136738
 30
0.0
 42
-0.25452743
  0
VERTEX
  5
D2B
  8
OBJ02
 10
132.740028795
 20
211.335386755
 30
0.0
  0
VERTEX
  5
D2C
  8
OBJ02
 10
111.37034445499999
 20
226.7790195675
 30
0.0
 42
0.31503627
  0
VERTEX
  5
D2D
  8
OBJ02
 10
109.94337527
 20
226.90239891499999
 30
0.0
 42
0.31503627
  0
VERTEX
  5
D2E
  8
OBJ02
 10
109.338144165
 20
225.6042622375
 30
0.0
 42
0.03115372
  0
VERTEX
  5
D2F
  8
OBJ02
 10
110.3711953775
 20
217.8909977225
 30
0.0
 42
-0.05497412
  0
VERTEX
  5
D30
  8
OBJ02
 10
110.43734849499999
 20
214.0428594375
 30
0.0
 42
-0.19035588
  0
VERTEX
  5
D31
  8
OBJ02
 10
107.96672841
 20
209.82678805250001
 30
0.0
 42
-0.02099438
  0
VERTEX
  5
D32
  8
OBJ02
 10
105.26161695250001
 20
207.90189373499999
 30
0.0
 42
0.19704981
  0
VERTEX
  5
D33
  8
OBJ02
 10
104.6203942125
 20
206.97823704999999
 30
0.0
 42
0.03409156
  0
VERTEX
  5
D34
  8
OBJ02
 10
104.26160541749999
 20
204.48970094500001
 30
0.0
 42
-0.23494469
  0
VERTEX
  5
D35
  8
OBJ02
 10
102.52053666
 20
202.2009240475
 30
0.0
 42
-0.27712007
  0
VERTEX
  5
D36
  8
OBJ02
 10
98.127733974999998
 20
202.66467925250001
 30
0.0
 42
-0.04199174
  0
VERTEX
  5
D37
  8
OBJ02
 10
95.203779679999997
 20
206.80233685249999
 30
0.0
  0
VERTEX
  5
D38
  8
OBJ02
 10
101.114679505
 20
210.1537346225
 30
0.0
  0
VERTEX
  5
D39
  8
OBJ02
 10
100.368679925
 20
211.46946288999999
 30
0.0
  0
VERTEX
  5
D3A
  8
OBJ02
 10
94.457780102499996
 20
208.11806512250001
 30
0.0
  0
SEQEND
  5
D3B
  8
OBJ02
  0
POLYLINE
  5
EE
  8
OBJ02
 66
     1
 10
0.0
 20
0.0
 30
0.0
 70
     1
  0
VERTEX
  5
D3C
  8
OBJ02
 10
57.979799632499997
 20
198.7511276525
 30
0.0
 42
-0.08258063
  0
VERTEX
  5
D3D
  8
OBJ02
 10
57.693125652500001
 20
201.77784816249999
 30
0.0
 42
-0.34050708
  0
VERTEX
  5
D3E
  8
OBJ02
 10
58.867248842499997
 20
203.09847536999999
 30
0.0
 42
0.03645657
  0
VERTEX
  5
D3F
  8
OBJ02
 10
68.250639252499994
 20
206.12739683999999
 30
0.0
 42
0.20072046
  0
VERTEX
  5
D40
  8
OBJ02
 10
71.471711350000007
 20
209.67057502500001
 30
0.0
 42
0.01365913
  0
VERTEX
  5
D41
  8
OBJ02
 10
74.333719224999996
 20
218.47404772249999
 30
0.0
 42
-0.26743495
  0
VERTEX
  5
D42
  8
OBJ02
 10
76.201162624999995
 20
220.2530597475
 30
0.0
 42
-0.26743495
  0
VERTEX
  5
D43
  8
OBJ02
 10
78.676946232500001
 20
219.5300630875
 30
0.0
 42
-0.03094295
  0
VERTEX
  5
D44
  8
OBJ02
 10
80.774953030000006
 20
217.050136025
 30
0.0
  0
VERTEX
  5
D45
  8
OBJ02
 10
97.676022024999995
 20
194.36437326999999
 30
0.0
 42
0.29753822
  0
VERTEX
  5
D46
  8
OBJ02
 10
103.0974119425
 20
192.40503179500001
 30
0.0
 42
-0.03487403
  0
VERTEX
  5
D47
  8
OBJ02
 10
107.5874421975
 20
193.0942360475
 30
0.0
 42
-0.31109865
  0
VERTEX
  5
D48
  8
OBJ02
 10
108.3997171975
 20
192.323154405
 30
0.0
 42
-0.31109865
  0
VERTEX
  5
D49
  8
OBJ02
 10
107.9687166025
 20
191.28942520250001
 30
0.0
 42
-0.04694483
  0
VERTEX
  5
D4A
  8
OBJ02
 10
102.30478847000001
 20
189.2797843525
 30
0.0
 42
-0.25452743
  0
VERTEX
  5
D4B
  8
OBJ02
 10
95.79035159
 20
191.95084205500001
 30
0.0
  0
VERTEX
  5
D4C
  8
OBJ02
 10
79.145822212499993
 20
212.39904111999999
 30
0.0
 42
0.31503627
  0
VERTEX
  5
D4D
  8
OBJ02
 10
77.799406222499996
 20
212.88753626249999
 30
0.0
 42
0.31503627
  0
VERTEX
  5
D4E
  8
OBJ02
 10
76.878821042499993
 20
211.79027310000001
 30
0.0
 42
0.03115372
  0
VERTEX
  5
D4F
  8
OBJ02
 10
75.880372017499994
 20
204.07245320999999
 30
0.0
 42
-0.05497412
  0
VERTEX
  5
D50
  8
OBJ02
 10
74.948318839999985
 20
200.33831055499999
 30
0.0
 42
-0.19035588
  0
VERTEX
  5
D51
  8
OBJ02
 10
71.470701267500004
 20
196.9053238775
 30
0.0
 42
-0.02099438
  0
VERTEX
  5
D52
  8
OBJ02
 10
68.359570927500002
 20
195.7461370275
 30
0.0
 42
0.19704981
  0
VERTEX
  5
D53
  8
OBJ02
 10
67.501141134999997
 20
195.01990940499999
 30
0.0
 42
0.03409156
  0
VERTEX
  5
D54
  8
OBJ02
 10
66.510509174999996
 20
192.709024365
 30
0.0
 42
-0.23494469
  0
VERTEX
  5
D55
  8
OBJ02
 10
64.236395939999994
 20
190.94884565000001
 30
0.0
 42
-0.27712007
  0
VERTEX
  5
D56
  8
OBJ02
 10
60.113294867500002
 20
192.53371847
 30
0.0
 42
-0.04199174
  0
VERTEX
  5
D57
  8
OBJ02
 10
58.359851925000001
 20
197.2871548025
 30
0.0
  0
VERTEX
  5
D58
  8
OBJ02
 10
64.936739467500004
 20
198.99453700000001
 30
0.0
  0
VERTEX
  5
D59
  8
OBJ02
 10
64.556687177499995
 20
200.45850985000001
 30
0.0
  0
VERTEX
  5
D5A
  8
OBJ02
 10
57.979799632499997
 20
198.7511276525
 30
0.0
  0
SEQEND
  5
D5B
  8
OBJ02
  0
POLYLINE
  5
10F
  8
OBJ02
 66
     1
 10
0.0
 20
0.0
 30
0.0
 70
     1
  0
VERTEX
  5
D5C
  8
OBJ02
 10
3.1796584800000001
 20
196.22430227000001
 30
0.0
 42
0.04694483
  0
VERTEX
  5
D5D
  8
OBJ02
 10
8.2922500625000009
 20
193.06516543500001
 30
0.0
 42
0.25452743
  0
VERTEX
  5
D5E
  8
OBJ02
 10
15.223530330000001
 20
194.3020126225
 30
0.0
  0
VERTEX
  5
D5F
  8
OBJ02
 10
35.8067745225
 20
210.77924727249999
 30
0.0
 42
-0.31503627
  0
VERTEX
  5
D60
  8
OBJ02
 10
37.225936695000001
 20
210.97274726750001
 30
0.0
 42
-0.31503627
  0
VERTEX
  5
D61
  8
OBJ02
 10
37.894359555000001
 20
209.70598983249999
 30
0.0
 42
-0.03115372
  0
VERTEX
  5
D62
  8
OBJ02
 10
37.242397297499998
 20
201.95121133750001
 30
0.0
 42
0.05497412
  0
VERTEX
  5
D63
  8
OBJ02
 10
37.365823964999997
 20
198.10448411249999
 30
0.0
 42
0.19035588
  0
VERTEX
  5
D64
  8
OBJ02
 10
40.04106477749999
 20
194.01519222749999
 30
0.0
 42
0.02099438
  0
VERTEX
  5
D65
  8
OBJ02
 10
42.837684670000002
 20
192.22584505250001
 30
0.0
 42
-0.19704981
  0
VERTEX
  5
D66
  8
OBJ02
 10
43.52361443249999
 20
191.3348856625
 30
0.0
 42
-0.03409156
  0
VERTEX
  5
D67
  8
OBJ02
 10
44.004514564999987
 20
188.867037125
 30
0.0
 42
0.23494469
  0
VERTEX
  5
D68
  8
OBJ02
 10
45.856180582500002
 20
186.66677508000001
 30
0.0
 42
0.27712007
  0
VERTEX
  5
D69
  8
OBJ02
 10
50.22081634500001
 20
187.34628887
 30
0.0
 42
0.04199174
  0
VERTEX
  5
D6A
  8
OBJ02
 10
52.937466417499998
 20
191.62291505249999
 30
0.0
  0
VERTEX
  5
D6B
  8
OBJ02
 10
46.868700160000003
 20
194.6791676375
 30
0.0
  0
VERTEX
  5
D6C
  8
OBJ02
 10
47.549002319999992
 20
196.03003595749999
 30
0.0
  0
VERTEX
  5
D6D
  8
OBJ02
 10
53.617768577500001
 20
192.97378337500001
 30
0.0
 42
0.08258063
  0
VERTEX
  5
D6E
  8
OBJ02
 10
54.536429200000001
 20
195.87193479749999
 30
0.0
 42
0.34050708
  0
VERTEX
  5
D6F
  8
OBJ02
 10
53.66728778249999
 20
197.4105103375
 30
0.0
 42
-0.03645657
  0
VERTEX
  5
D70
  8
OBJ02
 10
45.13392067249999
 20
202.35055352250001
 30
0.0
 42
-0.20072046
  0
VERTEX
  5
D71
  8
OBJ02
 10
42.732696252499998
 20
206.4934436225
 30
0.0
 42
-0.01365913
  0
VERTEX
  5
D72
  8
OBJ02
 10
41.792029479999989
 20
215.70253514250001
 30
0.0
 42
0.26743495
  0
VERTEX
  5
D73
  8
OBJ02
 10
40.34185596999999
 20
217.83542647499999
 30
0.0
 42
0.26743495
  0
VERTEX
  5
D74
  8
OBJ02
 10
37.769272257499999
 20
217.65092258499999
 30
0.0
 42
0.03094295
  0
VERTEX
  5
D75
  8
OBJ02
 10
35.195370092499999
 20
215.6693327175
 30
0.0
  0
VERTEX
  5
D76
  8
OBJ02
 10
13.889381224999999
 20
197.05899141750001
 30
0.0
 42
-0.29753822
  0
VERTEX
  5
D77
  8
OBJ02
 10
8.1766795999999982
 20
196.2872869425
 30
0.0
 42
0.03487403
  0
VERTEX
  5
D78
  8
OBJ02
 10
3.9330493999999989
 20
197.90808208749999
 30
0.0
 42
0.31109865
  0
VERTEX
  5
D79
  8
OBJ02
 10
2.9764033150000002
 20
197.32568545000001
 30
0.0
 42
0.31109865
  0
VERTEX
  5
D7A
  8
OBJ02
 10
3.1796584800000001
 20
196.22430227000001
 30
0.0
  0
SEQEND
  5
D7B
  8
OBJ02
  0
POLYLINE
  5
130
  8
OBJ02
 66
     1
 10
0.0
 20
0.0
 30
0.0
 70
     1
  0
VERTEX
  5
D7C
  8
OBJ02
 10
15.257063925000001
 20
175.2084280075
 30
0.0
 42
0.08981009
  0
VERTEX
  5
D7D
  8
OBJ02
 10
17.472338075
 20
174.15247739750001
 30
0.0
  0
VERTEX
  5
D7E
  8
OBJ02
 10
20.582341925000001
 20
180.9488886375
 30
0.0
  0
VERTEX
  5
D7F
  8
OBJ02
 10
21.957686832499999
 20
180.31953767499999
 30
0.0
  0
VERTEX
  5
D80
  8
OBJ02
 10
18.8476829825
 20
173.52312643499999
 30
0.0
 42
0.19172222
  0
VERTEX
  5
D81
  8
OBJ02
 10
25.429458287500001
 20
171.95844390249999
 30
0.0
 42
0.0623962
  0
VERTEX
  5
D82
  8
OBJ02
 10
33.528870679999997
 20
174.16152804250001
 30
0.0
 42
0.13660035
  0
VERTEX
  5
D83
  8
OBJ02
 10
38.380637960000001
 20
178.02621247499999
 30
0.0
 42
-0.20140378
  0
VERTEX
  5
D84
  8
OBJ02
 10
41.102629712499997
 20
178.425697775
 30
0.0
 42
0.04891133
  0
VERTEX
  5
D85
  8
OBJ02
 10
58.880283660000003
 20
176.6467163575
 30
0.0
 42
0.0583387
  0
VERTEX
  5
D86
  8
OBJ02
 10
84.571467775000002
 20
178.68962300250001
 30
0.0
 42
0.05138425
  0
VERTEX
  5
D87
  8
OBJ02
 10
107.988284115
 20
185.25464027000001
 30
0.0
 42
0.01007432
  0
VERTEX
  5
D88
  8
OBJ02
 10
118.8975842725
 20
190.03696748499999
 30
0.0
 42
0.36959693
  0
VERTEX
  5
D89
  8
OBJ02
 10
119.38383530749999
 20
191.5576509075
 30
0.0
 42
0.36959693
  0
VERTEX
  5
D8A
  8
OBJ02
 10
117.95623195749999
 20
192.27240037999999
 30
0.0
 42
-0.02982448
  0
VERTEX
  5
D8B
  8
OBJ02
 10
106.48506188499999
 20
187.76314818500001
 30
0.0
 42
-0.04823653
  0
VERTEX
  5
D8C
  8
OBJ02
 10
81.505490559999998
 20
182.04111843999999
 30
0.0
 42
-0.05102716
  0
VERTEX
  5
D8D
  8
OBJ02
 10
56.728630527500002
 20
181.19331381999999
 30
0.0
 42
-0.04755514
  0
VERTEX
  5
D8E
  8
OBJ02
 10
41.206381964999991
 20
183.1537823475
 30
0.0
 42
-0.24747671
  0
VERTEX
  5
D8F
  8
OBJ02
 10
39.671487937499997
 20
184.51166158000001
 30
0.0
 42
0.14485042
  0
VERTEX
  5
D90
  8
OBJ02
 10
35.327922659999999
 20
191.17880972
 30
0.0
 42
0.28264804
  0
VERTEX
  5
D91
  8
OBJ02
 10
25.530610825
 20
191.82908208750001
 30
0.0
 42
-0.11575824
  0
VERTEX
  5
D92
  8
OBJ02
 10
21.7719520725
 20
190.21158278499999
 30
0.0
 42
-0.04120714
  0
VERTEX
  5
D93
  8
OBJ02
 10
19.591610025000001
 20
190.29861431
 30
0.0
 42
0.38897541
  0
VERTEX
  5
D94
  8
OBJ02
 10
14.150836249999999
 20
186.1922532975
 30
0.0
 42
0.01920955
  0
VERTEX
  5
D95
  8
OBJ02
 10
13.124616870000001
 20
178.99523747000001
 30
0.0
 42
0.30031206
  0
VERTEX
  5
D96
  8
OBJ02
 10
15.257063925000001
 20
175.2084280075
 30
0.0
  0
SEQEND
  5
D97
  8
OBJ02
  0
POLYLINE
  5
14D
  8
OBJ02
 66
     1
 10
0.0
 20
0.0
 30
0.0
 70
     1
  0
VERTEX
  5
D98
  8
OBJ02
 10
37.497030362499999
 20
159.4935584525
 30
0.0
 42
-0.16198814
  0
VERTEX
  5
D99
  8
OBJ02
 10
36.262116842499999
 20
167.40920783499999
 30
0.0
 42
-0.26778291
  0
VERTEX
  5
D9A
  8
OBJ02
 10
38.22820676500001
 20
169.79276866999999
 30
0.0
 42
-0.26778291
  0
VERTEX
  5
D9B
  8
OBJ02
 10
41.275792435
 20
169.28375646750001
 30
0.0
 42
0.22577075
  0
VERTEX
  5
D9C
  8
OBJ02
 10
73.983603052500001
 20
161.11695721000001
 30
0.0
 42
-0.08947341
  0
VERTEX
  5
D9D
  8
OBJ02
 10
91.688275772500006
 20
159.62034023499999
 30
0.0
 42
0.23794926
  0
VERTEX
  5
D9E
  8
OBJ02
 10
94.035361332500003
 20
160.42620491
 30
0.0
 42
0.23794926
  0
VERTEX
  5
D9F
  8
OBJ02
 10
94.782078462499996
 20
162.79277246999999
 30
0.0
  0
VERTEX
  5
DA0
  8
OBJ02
 10
94.576847874999984
 20
165.00820345
 30
0.0
  0
VERTEX
  5
DA1
  8
OBJ02
 10
103.53430092249999
 20
166.99206249
 30
0.0
  0
VERTEX
  5
DA2
  8
OBJ02
 10
103.18319624999999
 20
168.46345245250001
 30
0.0
  0
VERTEX
  5
DA3
  8
OBJ02
 10
94.255385129999993
 20
166.48615838250001
 30
0.0
 42
-0.4141408300000001
  0
VERTEX
  5
DA4
  8
OBJ02
 10
97.511426924999995
 20
171.58093034000001
 30
0.0
 42
-0.00172169
  0
VERTEX
  5
DA5
  8
OBJ02
 10
111.85235339250001
 20
174.9135795775
 30
0.0
 42
-0.09858179
  0
VERTEX
  5
DA6
  8
OBJ02
 10
114.464802005
 20
175.15558863499999
 30
0.0
 42
-0.4085643000000001
  0
VERTEX
  5
DA7
  8
OBJ02
 10
118.4782354175
 20
169.7557164575
 30
0.0
 42
0.03050824
  0
VERTEX
  5
DA8
  8
OBJ02
 10
117.71347269
 20
167.17552294250001
 30
0.0
 42
0.27078218
  0
VERTEX
  5
DA9
  8
OBJ02
 10
119.55421882
 20
162.56431859750001
 30
0.0
 42
0.27078218
  0
VERTEX
  5
DAA
  8
OBJ02
 10
124.47525451
 20
161.90480396749999
 30
0.0
 42
0.05424965
  0
VERTEX
  5
DAB
  8
OBJ02
 10
126.82496094
 20
163.62811202750001
 30
0.0
  0
VERTEX
  5
DAC
  8
OBJ02
 10
134.89455879249999
 20
174.03686010249999
 30
0.0
 42
0.23780252
  0
VERTEX
  5
DAD
  8
OBJ02
 10
134.89428584749999
 20
180.8122085775
 30
0.0
 42
0.21093114
  0
VERTEX
  5
DAE
  8
OBJ02
 10
128.14226196000001
 20
184.94766705999999
 30
0.0
 42
0.21093114
  0
VERTEX
  5
DAF
  8
OBJ02
 10
120.53717405499999
 20
182.74437829749999
 30
0.0
 42
0.04610812
  0
VERTEX
  5
DB0
  8
OBJ02
 10
117.240710405
 20
179.0513173475
 30
0.0
 42
-0.25628611
  0
VERTEX
  5
DB1
  8
OBJ02
 10
116.0585330225
 20
179.2049267125
 30
0.0
 42
-0.25628611
  0
VERTEX
  5
DB2
  8
OBJ02
 10
115.552881305
 20
180.28448937499999
 30
0.0
 42
-0.07430331
  0
VERTEX
  5
DB3
  8
OBJ02
 10
117.887835095
 20
184.255554915
 30
0.0
 42
-0.28793383
  0
VERTEX
  5
DB4
  8
OBJ02
 10
132.05258760250001
 20
188.68428612
 30
0.0
 42
-0.28793383
  0
VERTEX
  5
DB5
  8
OBJ02
 10
142.1950452225
 20
177.8498767175
 30
0.0
 42
0.00874959
  0
VERTEX
  5
DB6
  8
OBJ02
 10
142.54309007500001
 20
172.73782854000001
 30
0.0
 42
0.20137717
  0
VERTEX
  5
DB7
  8
OBJ02
 10
147.95271929500001
 20
164.45609243999999
 30
0.0
 42
0.00122035
  0
VERTEX
  5
DB8
  8
OBJ02
 10
153.997877765
 20
161.50296492499999
 30
0.0
 42
-0.18931105
  0
VERTEX
  5
DB9
  8
OBJ02
 10
159.7921912825
 20
153.13134549
 30
0.0
 42
-0.22784347
  0
VERTEX
  5
DBA
  8
OBJ02
 10
159.19787970499999
 20
152.37061738
 30
0.0
 42
-0.22784347
  0
VERTEX
  5
DBB
  8
OBJ02
 10
158.23258711
 20
152.3594945225
 30
0.0
 42
0.21403965
  0
VERTEX
  5
DBC
  8
OBJ02
 10
153.82142224500001
 20
155.96548853499999
 30
0.0
 42
0.21403965
  0
VERTEX
  5
DBD
  8
OBJ02
 10
148.1950012975
 20
155.0682953525
 30
0.0
 42
0.01588275
  0
VERTEX
  5
DBE
  8
OBJ02
 10
144.131390635
 20
150.17493934749999
 30
0.0
 42
-0.15438769
  0
VERTEX
  5
DBF
  8
OBJ02
 10
139.98240383749999
 20
148.91232571
 30
0.0
  0
VERTEX
  5
DC0
  8
OBJ02
 10
132.049455295
 20
151.09053002499999
 30
0.0
  0
VERTEX
  5
DC1
  8
OBJ02
 10
134.46811994999999
 20
158.3855125325
 30
0.0
  0
VERTEX
  5
DC2
  8
OBJ02
 10
133.032471015
 20
158.86150453499999
 30
0.0
  0
VERTEX
  5
DC3
  8
OBJ02
 10
130.6385181075
 20
151.64105562250001
 30
0.0
  0
VERTEX
  5
DC4
  8
OBJ02
 10
123.09793981750001
 20
153.7471659425
 30
0.0
 42
0.21232095
  0
VERTEX
  5
DC5
  8
OBJ02
 10
119.52848975000001
 20
153.22205312
 30
0.0
 42
0.21232095
  0
VERTEX
  5
DC6
  8
OBJ02
 10
117.5275883125
 20
150.2198687975
 30
0.0
 42
-0.04560898
  0
VERTEX
  5
DC7
  8
OBJ02
 10
116.87576171249999
 20
147.77550841999999
 30
0.0
 42
-0.31167602
  0
VERTEX
  5
DC8
  8
OBJ02
 10
112.98944363
 20
145.03158897750001
 30
0.0
 42
-0.05322185
  0
VERTEX
  5
DC9
  8
OBJ02
 10
109.7627472675
 20
145.3417833675
 30
0.0
  0
VERTEX
  5
DCA
  8
OBJ02
 10
112.27995160250001
 20
156.51644444249999
 30
0.0
  0
VERTEX
  5
DCB
  8
OBJ02
 10
110.80701686499999
 20
156.86033209499999
 30
0.0
  0
VERTEX
  5
DCC
  8
OBJ02
 10
108.28915017750001
 20
145.68273062750001
 30
0.0
  0
VERTEX
  5
DCD
  8
OBJ02
 10
103.9263677
 20
146.70143639
 30
0.0
 42
-0.23606174
  0
VERTEX
  5
DCE
  8
OBJ02
 10
102.15934923250001
 20
148.16882913250001
 30
0.0
 42
0.15981049
  0
VERTEX
  5
DCF
  8
OBJ02
 10
99.710280137500007
 20
151.58060638750001
 30
0.0
 42
0.15247188
  0
VERTEX
  5
DD0
  8
OBJ02
 10
98.058501809999996
 20
151.80400047000001
 30
0.0
 42
0.06892112
  0
VERTEX
  5
DD1
  8
OBJ02
 10
96.137234707499999
 20
150.87320099499999
 30
0.0
 42
-0.03170284
  0
VERTEX
  5
DD2
  8
OBJ02
 10
89.493363869999996
 20
146.74452744249999
 30
0.0
 42
-0.24500014
  0
VERTEX
  5
DD3
  8
OBJ02
 10
49.714462632500002
 20
145.44351180250001
 30
0.0
 42
-0.18264403
  0
VERTEX
  5
DD4
  8
OBJ02
 10
37.497030362499999
 20
159.4935584525
 30
0.0
  0
SEQEND
  5
DD5
  8
OBJ02
  0
POLYLINE
  5
18C
  8
OBJ02
 66
     1
 10
0.0
 20
0.0
 30
0.0
 70
     1
  0
VERTEX
  5
DD6
  8
OBJ02
 10
59.759127554999999
 20
66.503220999999996
 30
0.0
 42
0.27840688
  0
VERTEX
  5
DD7
  8
OBJ02
 10
63.607066345
 20
66.222234450000002
 30
0.0
 42
0.27840688
  0
VERTEX
  5
DD8
  8
OBJ02
 10
65.648519372500004
 20
69.496078659999995
 30
0.0
 42
0.0881265
  0
VERTEX
  5
DD9
  8
OBJ02
 10
62.0517514175
 20
82.994950174999985
 30
0.0
 42
0.08353683
  0
VERTEX
  5
DDA
  8
OBJ02
 10
50.182979465000003
 20
99.985858712500004
 30
0.0
 42
-0.04328025
  0
VERTEX
  5
DDB
  8
OBJ02
 10
37.125363252500001
 20
123.87773239249999
 30
0.0
 42
0.37638506
  0
VERTEX
  5
DDC
  8
OBJ02
 10
35.152181242499999
 20
124.42065114250001
 30
0.0
 42
0.37638506
  0
VERTEX
  5
DDD
  8
OBJ02
 10
34.3564326925
 20
122.53518243000001
 30
0.0
 42
0.01981301
  0
VERTEX
  5
DDE
  8
OBJ02
 10
40.687873367500003
 20
100.86015749249999
 30
0.0
 42
0.02827123
  0
VERTEX
  5
DDF
  8
OBJ02
 10
47.934150197500003
 20
81.370303835000001
 30
0.0
 42
0.09359677
  0
VERTEX
  5
DE0
  8
OBJ02
 10
59.759127554999999
 20
66.503220999999996
 30
0.0
  0
SEQEND
  5
DE1
  8
OBJ02
  0
POLYLINE
  5
199
  8
OBJ02
 66
     1
 10
0.0
 20
0.0
 30
0.0
 70
     1
  0
VERTEX
  5
DE2
  8
OBJ02
 10
95.534591049999989
 20
3.0363277974999989
 30
0.0
 42
-0.10883797
  0
VERTEX
  5
DE3
  8
OBJ02
 10
75.919310562500002
 20
19.028005052499999
 30
0.0
 42
-0.07698286
  0
VERTEX
  5
DE4
  8
OBJ02
 10
56.054873367500001
 20
52.135744687500001
 30
0.0
 42
0.00497392
  0
VERTEX
  5
DE5
  8
OBJ02
 10
45.310516049999997
 20
76.998072127499995
 30
0.0
 42
0.00115477
  0
VERTEX
  5
DE6
  8
OBJ02
 10
36.565019710000001
 20
100.9855843225
 30
0.0
 42
0.02011995
  0
VERTEX
  5
DE7
  8
OBJ02
 10
31.192841049999998
 20
119.47571237
 30
0.0
 42
0.18400538
  0
VERTEX
  5
DE8
  8
OBJ02
 10
26.777989895000001
 20
125.65721499
 30
0.0
 42
-0.13657666
  0
VERTEX
  5
DE9
  8
OBJ02
 10
22.197523977500001
 20
130.46974285749999
 30
0.0
 42
-0.2134865
  0
VERTEX
  5
DEA
  8
OBJ02
 10
22.720335885000001
 20
134.4192891925
 30
0.0
  0
VERTEX
  5
DEB
  8
OBJ02
 10
29.008223502500002
 20
131.87849363999999
 30
0.0
  0
VERTEX
  5
DEC
  8
OBJ02
 10
29.574878105
 20
133.28083411750001
 30
0.0
  0
VERTEX
  5
DED
  8
OBJ02
 10
23.286990485
 20
135.82162966999999
 30
0.0
 42
-0.21936467
  0
VERTEX
  5
DEE
  8
OBJ02
 10
25.945572757499999
 20
138.96556602999999
 30
0.0
 42
-0.19733273
  0
VERTEX
  5
DEF
  8
OBJ02
 10
29.0689221475
 20
139.21568188250001
 30
0.0
 42
0.00199282
  0
VERTEX
  5
DF0
  8
OBJ02
 10
41.562467269999999
 20
135.09282822500001
 30
0.0
 42
0.09194265
  0
VERTEX
  5
DF1
  8
OBJ02
 10
60.177727025000003
 20
133.59360871249999
 30
0.0
 42
0.06318915
  0
VERTEX
  5
DF2
  8
OBJ02
 10
79.792786172500001
 20
137.21623066250001
 30
0.0
 42
-0.05014451
  0
VERTEX
  5
DF3
  8
OBJ02
 10
89.787091050000001
 20
140.58947456499999
 30
0.0
 42
-0.33229592
  0
VERTEX
  5
DF4
  8
OBJ02
 10
100.407054465
 20
133.84298676
 30
0.0
 42
-0.12184415
  0
VERTEX
  5
DF5
  8
OBJ02
 10
101.28135324500001
 20
127.096498955
 30
0.0
 42
-0.06756604
  0
VERTEX
  5
DF6
  8
OBJ02
 10
99.032523977500006
 20
120.72481603
 30
0.0
 42
0.1683313
  0
VERTEX
  5
DF7
  8
OBJ02
 10
99.157213002500001
 20
118.1011818825
 30
0.0
 42
0.05460192
  0
VERTEX
  5
DF8
  8
OBJ02
 10
103.0306886125
 20
112.47910871249999
 30
0.0
 42
-0.22632397
  0
VERTEX
  5
DF9
  8
OBJ02
 10
103.53018251500001
 20
107.98145017500001
 30
0.0
 42
-0.02008863
  0
VERTEX
  5
DFA
  8
OBJ02
 10
101.28135324500001
 20
102.984297735
 30
0.0
 42
0.18539953
  0
VERTEX
  5
DFB
  8
OBJ02
 10
101.28135324500001
 20
100.485352615
 30
0.0
 42
0.05440637
  0
VERTEX
  5
DFC
  8
OBJ02
 10
104.404481295
 20
95.363511149999994
 30
0.0
 42
-0.21394288
  0
VERTEX
  5
DFD
  8
OBJ02
 10
105.029402025
 20
91.115230662499997
 30
0.0
 42
-0.04079715
  0
VERTEX
  5
DFE
  8
OBJ02
 10
103.15537763499999
 20
86.867687980000014
 30
0.0
 42
0.20925182
  0
VERTEX
  5
DFF
  8
OBJ02
 10
103.28006666
 20
82.994950174999985
 30
0.0
 42
-0.07678029
  0
VERTEX
  5
E00
  8
OBJ02
 10
105.9037008075
 20
78.122486760000001
 30
0.0
 42
-0.08714091
  0
VERTEX
  5
E01
  8
OBJ02
 10
106.15381666
 20
75.748230662500006
 30
0.0
 42
-0.09687365
  0
VERTEX
  5
E02
  8
OBJ02
 10
103.7802983675
 20
70.376273345000001
 30
0.0
 42
0.14734178
  0
VERTEX
  5
E03
  8
OBJ02
 10
103.53018251500001
 20
67.877549564999995
 30
0.0
 42
0.12087599
  0
VERTEX
  5
E04
  8
OBJ02
 10
106.15381666
 20
62.755265420000001
 30
0.0
 42
-0.16076422
  0
VERTEX
  5
E05
  8
OBJ02
 10
106.6533105625
 20
58.507427614999997
 30
0.0
 42
-0.06165154
  0
VERTEX
  5
E06
  8
OBJ02
 10
104.15510324500001
 20
53.884858712499998
 30
0.0
 42
0.1618347
  0
VERTEX
  5
E07
  8
OBJ02
 10
103.9049873925
 20
50.636525175000003
 30
0.0
 42
-0.02599616
  0
VERTEX
  5
E08
  8
OBJ02
 10
106.40393251499999
 20
45.139436150000002
 30
0.0
 42
-0.09907367
  0
VERTEX
  5
E09
  8
OBJ02
 10
106.40393251499999
 20
42.016012979999992
 30
0.0
 42
0.09557853
  0
VERTEX
  5
E0A
  8
OBJ02
 10
103.40549349
 20
35.64433005250001
 30
0.0
 42
0.12576563
  0
VERTEX
  5
E0B
  8
OBJ02
 10
103.40549349
 20
33.645395297500002
 30
0.0
 42
0.06559186
  0
VERTEX
  5
E0C
  8
OBJ02
 10
105.9037008075
 20
28.897842247500002
 30
0.0
 42
-0.22899905
  0
VERTEX
  5
E0D
  8
OBJ02
 10
105.9037008075
 20
23.900468467500001
 30
0.0
 42
-0.03593077
  0
VERTEX
  5
E0E
  8
OBJ02
 10
103.0306886125
 20
19.902525175000001
 30
0.0
 42
0.19911623
  0
VERTEX
  5
E0F
  8
OBJ02
 10
102.40576788
 20
15.9046556625
 30
0.0
 42
0.09914652
  0
VERTEX
  5
E10
  8
OBJ02
 10
105.5288959275
 20
10.157598345
 30
0.0
 42
-0.30926701
  0
VERTEX
  5
E11
  8
OBJ02
 10
104.3370275875
 20
3.7113687699999991
 30
0.0
 42
-0.3588901
  0
VERTEX
  5
E12
  8
OBJ02
 10
95.534591049999989
 20
3.0363277974999989
 30
0.0
  0
SEQEND
  5
E13
  8
OBJ02
  0
POLYLINE
  5
1CC
  8
OBJ02
 66
     1
 10
0.0
 20
0.0
 30
0.0
 70
     1
  0
VERTEX
  5
E14
  8
OBJ02
 10
39.967397197499999
 20
11.991799697499999
 30
0.0
 42
-0.26383061
  0
VERTEX
  5
E15
  8
OBJ02
 10
39.21690732750001
 20
19.626019514999999
 30
0.0
 42
-0.11111136
  0
VERTEX
  5
E16
  8
OBJ02
 10
43.434691882499997
 20
25.430174940000001
 30
0.0
 42
0.20780371
  0
VERTEX
  5
E17
  8
OBJ02
 10
47.236113615000001
 20
31.998696412499999
 30
0.0
  0
VERTEX
  5
E18
  8
OBJ02
 10
47.236113615000001
 20
36.364062539999999
 30
0.0
  0
VERTEX
  5
E19
  8
OBJ02
 10
52.113797767500003
 20
36.364062539999999
 30
0.0
  0
VERTEX
  5
E1A
  8
OBJ02
 10
52.113797767500003
 20
28.269768840000001
 30
0.0
  0
VERTEX
  5
E1B
  8
OBJ02
 10
53.626297767499999
 20
28.269768840000001
 30
0.0
  0
VERTEX
  5
E1C
  8
OBJ02
 10
53.626297767499999
 20
36.364062539999999
 30
0.0
  0
VERTEX
  5
E1D
  8
OBJ02
 10
58.50398192250001
 20
36.364062539999999
 30
0.0
  0
VERTEX
  5
E1E
  8
OBJ02
 10
58.50398192250001
 20
31.998696412499999
 30
0.0
 42
0.28784516
  0
VERTEX
  5
E1F
  8
OBJ02
 10
62.305403654999999
 20
25.430174940000001
 30
0.0
 42
-0.20160452
  0
VERTEX
  5
E20
  8
OBJ02
 10
66.523188210000001
 20
19.626019514999999
 30
0.0
 42
-0.27169212
  0
VERTEX
  5
E21
  8
OBJ02
 10
65.772698337500003
 20
11.991799697499999
 30
0.0
 42
-0.13330375
  0
VERTEX
  5
E22
  8
OBJ02
 10
63.140223194999997
 20
10.938554265
 30
0.0
  0
VERTEX
  5
E23
  8
OBJ02
 10
60.477090342499999
 20
17.927099807499999
 30
0.0
  0
VERTEX
  5
E24
  8
OBJ02
 10
59.063733477500001
 20
17.388510327500001
 30
0.0
  0
VERTEX
  5
E25
  8
OBJ02
 10
61.688691325000001
 20
10.500142952499999
 30
0.0
 42
0.19450766
  0
VERTEX
  5
E26
  8
OBJ02
 10
56.253491517500002
 20
5.7144028125000004
 30
0.0
 42
0.01565442
  0
VERTEX
  5
E27
  8
OBJ02
 10
55.403463732500001
 20
4.2011621325000004
 30
0.0
 42
-0.24094289
  0
VERTEX
  5
E28
  8
OBJ02
 10
52.87004776749999
 20
2.905104324999999
 30
0.0
 42
-0.24094289
  0
VERTEX
  5
E29
  8
OBJ02
 10
50.336631805000003
 20
4.2011621325000004
 30
0.0
 42
-0.01685549
  0
VERTEX
  5
E2A
  8
OBJ02
 10
49.486604020000001
 20
5.7144028125000004
 30
0.0
 42
0.22492028
  0
VERTEX
  5
E2B
  8
OBJ02
 10
44.051404210000001
 20
10.500142952499999
 30
0.0
  0
VERTEX
  5
E2C
  8
OBJ02
 10
46.676362060000002
 20
17.388510327500001
 30
0.0
  0
VERTEX
  5
E2D
  8
OBJ02
 10
45.263005194999998
 20
17.927099807499999
 30
0.0
  0
VERTEX
  5
E2E
  8
OBJ02
 10
42.599872342499999
 20
10.938554265
 30
0.0
 42
-0.18305102
  0
VERTEX
  5
E2F
  8
OBJ02
 10
39.967397197499999
 20
11.991799697499999
 30
0.0
  0
SEQEND
  5
E30
  8
OBJ02
  0
POLYLINE
  5
1EA
  8
OBJ02
 66
     1
 10
0.0
 20
0.0
 30
0.0
 70
     1
  0
VERTEX
  5
E31
  8
OBJ02
 10
23.321938612499999
 20
18.1534849325
 30
0.0
 42
0.31501815
  0
VERTEX
  5
E32
  8
OBJ02
 10
23.697059487499999
 20
16.960789222500001
 30
0.0
 42
0.31501815
  0
VERTEX
  5
E33
  8
OBJ02
 10
24.946068489999998
 20
16.904086150000001
 30
0.0
 42
0.06632439
  0
VERTEX
  5
E34
  8
OBJ02
 10
30.818036172500001
 20
25.7744928575
 30
0.0
 42
0.05413732
  0
VERTEX
  5
E35
  8
OBJ02
 10
36.565019710000001
 20
37.893159322499997
 30
0.0
 42
0.04015712
  0
VERTEX
  5
E36
  8
OBJ02
 10
41.562467269999999
 20
54.259663590000002
 30
0.0
 42
0.02289017
  0
VERTEX
  5
E37
  8
OBJ02
 10
41.937272147500003
 20
56.883297734999999
 30
0.0
 42
0.3267537
  0
VERTEX
  5
E38
  8
OBJ02
 10
41.3125727575
 20
57.882802005000002
 30
0.0
 42
0.05588837
  0
VERTEX
  5
E39
  8
OBJ02
 10
37.064808732499998
 20
58.382517247499997
 30
0.0
 42
0.27439039
  0
VERTEX
  5
E3A
  8
OBJ02
 10
35.940394099999999
 20
57.632907492500003
 30
0.0
 42
-0.02805684
  0
VERTEX
  5
E3B
  8
OBJ02
 10
33.3167599525
 20
43.640216637499996
 30
0.0
 42
-0.05938219
  0
VERTEX
  5
E3C
  8
OBJ02
 10
29.193906295000001
 20
30.646956272499999
 30
0.0
 42
-0.03443671
  0
VERTEX
  5
E3D
  8
OBJ02
 10
27.0699873925
 20
25.899403225
 30
0.0
 42
-0.00412707
  0
VERTEX
  5
E3E
  8
OBJ02
 10
23.321938612499999
 20
18.1534849325
 30
0.0
  0
SEQEND
  5
E3F
  8
OBJ02
  0
POLYLINE
  5
1FA
  8
OBJ02
 66
     1
 10
0.0
 20
0.0
 30
0.0
 70
     1
  0
VERTEX
  5
E40
  8
OBJ02
 10
2.4132629799999989
 20
5.0452845450000003
 30
0.0
 42
-0.381511
  0
VERTEX
  5
E41
  8
OBJ02
 10
3.7071745874999991
 20
10.9072081025
 30
0.0
 42
0.21761284
  0
VERTEX
  5
E42
  8
OBJ02
 10
11.2032721475
 20
22.151354442500001
 30
0.0
 42
0.13663085
  0
VERTEX
  5
E43
  8
OBJ02
 10
10.078857514999999
 20
43.0155172475
 30
0.0
 42
0.12770617
  0
VERTEX
  5
E44
  8
OBJ02
 10
1.4583453200000001
 20
57.38301297999999
 30
0.0
 42
-0.36246753
  0
VERTEX
  5
E45
  8
OBJ02
 10
1.583255684999999
 20
65.503809932500005
 30
0.0
 42
0.32869182
  0
VERTEX
  5
E46
  8
OBJ02
 10
6.3308087325000004
 20
74.124322127499994
 30
0.0
 42
0.12052047
  0
VERTEX
  5
E47
  8
OBJ02
 10
0.4588410500000001
 20
82.994950174999985
 30
0.0
 42
-0.26713415
  0
VERTEX
  5
E48
  8
OBJ02
 10
0.3991248674999999
 20
85.122012157499995
 30
0.0
 42
-0.26713415
  0
VERTEX
  5
E49
  8
OBJ02
 10
2.2079550750000001
 20
86.242767247499998
 30
0.0
 42
0.36034485
  0
VERTEX
  5
E4A
  8
OBJ02
 10
9.2042636125000001
 20
89.866127004999996
 30
0.0
 42
0.03101737
  0
VERTEX
  5
E4B
  8
OBJ02
 10
9.2042636125000001
 20
97.48691359
 30
0.0
 42
0.02887037
  0
VERTEX
  5
E4C
  8
OBJ02
 10
6.7056136124999988
 20
120.22532212749999
 30
0.0
 42
-0.19403751
  0
VERTEX
  5
E4D
  8
OBJ02
 10
7.0804184899999987
 20
127.471303835
 30
0.0
 42
0.08239869
  0
VERTEX
  5
E4E
  8
OBJ02
 10
10.953377635000001
 20
132.34376724750001
 30
0.0
 42
0.13489751
  0
VERTEX
  5
E4F
  8
OBJ02
 10
12.452597147500001
 20
138.21595627249999
 30
0.0
 42
-0.37978531
  0
VERTEX
  5
E50
  8
OBJ02
 10
14.339828049999999
 20
139.10950585750001
 30
0.0
 42
-0.37978531
  0
VERTEX
  5
E51
  8
OBJ02
 10
15.4510361725
 20
137.34165749249999
 30
0.0
 42
0.22673577
  0
VERTEX
  5
E52
  8
OBJ02
 10
19.301312992500002
 20
129.31853004499999
 30
0.0
 42
-0.17321946
  0
VERTEX
  5
E53
  8
OBJ02
 10
20.948198977499999
 20
122.8489562725
 30
0.0
 42
-0.02537369
  0
VERTEX
  5
E54
  8
OBJ02
 10
18.901878024999998
 20
110.08664046
 30
0.0
 42
0.03597686
  0
VERTEX
  5
E55
  8
OBJ02
 10
17.449970927500001
 20
92.489761150000007
 30
0.0
 42
0.27826855
  0
VERTEX
  5
E56
  8
OBJ02
 10
18.959998557500001
 20
90.897071604999994
 30
0.0
 42
0.27826855
  0
VERTEX
  5
E57
  8
OBJ02
 10
21.0731093425
 20
91.490035539999994
 30
0.0
 42
0.15176217
  0
VERTEX
  5
E58
  8
OBJ02
 10
24.321442879999999
 20
97.362224565000005
 30
0.0
 42
-0.38092582
  0
VERTEX
  5
E59
  8
OBJ02
 10
25.835429072499998
 20
97.927112399999999
 30
0.0
 42
-0.38092582
  0
VERTEX
  5
E5A
  8
OBJ02
 10
26.570272147499999
 20
96.487925785000002
 30
0.0
 42
0.11248506
  0
VERTEX
  5
E5B
  8
OBJ02
 10
27.319881904999999
 20
87.242492857499997
 30
0.0
 42
0.31741807
  0
VERTEX
  5
E5C
  8
OBJ02
 10
28.187049697500001
 20
86.349501309999994
 30
0.0
 42
0.31741807
  0
VERTEX
  5
E5D
  8
OBJ02
 10
29.31881666
 20
86.867687980000014
 30
0.0
 42
0.0966121
  0
VERTEX
  5
E5E
  8
OBJ02
 10
32.317255684999999
 20
94.613901394999999
 30
0.0
 42
-0.3644146
  0
VERTEX
  5
E5F
  8
OBJ02
 10
33.714332277499999
 20
95.361275602499987
 30
0.0
 42
-0.3644146
  0
VERTEX
  5
E60
  8
OBJ02
 10
34.690995319999999
 20
94.113669687500007
 30
0.0
 42
0.09337275
  0
VERTEX
  5
E61
  8
OBJ02
 10
35.940394099999999
 20
86.492883102500002
 30
0.0
 42
-0.17918199
  0
VERTEX
  5
E62
  8
OBJ02
 10
37.6894343425
 20
75.623541637499997
 30
0.0
 42
0.26645087
  0
VERTEX
  5
E63
  8
OBJ02
 10
38.518947439999998
 20
74.898643712500004
 30
0.0
 42
0.26645087
  0
VERTEX
  5
E64
  8
OBJ02
 10
39.563458732500003
 20
75.24873676
 30
0.0
 42
0.06688931
  0
VERTEX
  5
E65
  8
OBJ02
 10
40.313068489999992
 20
76.747956272500005
 30
0.0
 42
-0.36885073
  0
VERTEX
  5
E66
  8
OBJ02
 10
41.76677617
 20
77.4489616125
 30
0.0
 42
-0.36885073
  0
VERTEX
  5
E67
  8
OBJ02
 10
42.686881904999993
 20
76.123035540000004
 30
0.0
 42
0.12559997
  0
VERTEX
  5
E68
  8
OBJ02
 10
45.810231295000001
 20
68.002533712499996
 30
0.0
 42
-0.13782277
  0
VERTEX
  5
E69
  8
OBJ02
 10
46.684751417500003
 20
60.631346517499999
 30
0.0
 42
-0.04082356
  0
VERTEX
  5
E6A
  8
OBJ02
 10
44.560906295000002
 20
49.637094687500003
 30
0.0
 42
-0.0926472
  0
VERTEX
  5
E6B
  8
OBJ02
 10
33.566580684999998
 20
23.525663590000001
 30
0.0
 42
-0.07405715
  0
VERTEX
  5
E6C
  8
OBJ02
 10
21.6978087325
 20
7.9087690774999988
 30
0.0
 42
-0.1611292
  0
VERTEX
  5
E6D
  8
OBJ02
 10
8.7045483674999993
 20
0.0378887725
 30
0.0
 42
-0.24651965
  0
VERTEX
  5
E6E
  8
OBJ02
 10
3.8320849524999989
 20
1.9119131625000001
 30
0.0
 42
-0.09399819
  0
VERTEX
  5
E6F
  8
OBJ02
 10
2.9510636099999989
 20
3.6316273250000002
 30
0.0
  0
VERTEX
  5
E70
  8
OBJ02
 10
9.0855800324999993
 20
5.9653944824999989
 30
0.0
  0
VERTEX
  5
E71
  8
OBJ02
 10
8.5477794049999982
 20
7.3790517024999991
 30
0.0
  0
VERTEX
  5
E72
  8
OBJ02
 10
2.4132629799999989
 20
5.0452845450000003
 30
0.0
  0
SEQEND
  5
E73
  8
OBJ02
  0
POLYLINE
  5
22F
  8
OBJ02
 66
     1
 10
0.0
 20
0.0
 30
0.0
 70
     1
  0
VERTEX
  5
E74
  8
OBJ02
 10
22.822223367500001
 20
28.398127004999999
 30
0.0
 42
0.36021542
  0
VERTEX
  5
E75
  8
OBJ02
 10
23.334758432499999
 20
27.236896829999999
 30
0.0
 42
0.36021542
  0
VERTEX
  5
E76
  8
OBJ02
 10
24.571263612500001
 20
27.523606882500001
 30
0.0
 42
0.06079098
  0
VERTEX
  5
E77
  8
OBJ02
 10
30.3183209275
 20
44.389826394999993
 30
0.0
 42
0.05044455
  0
VERTEX
  5
E78
  8
OBJ02
 10
32.692060562499996
 20
59.257037369999999
 30
0.0
 42
0.0221774
  0
VERTEX
  5
E79
  8
OBJ02
 10
32.816970927500002
 20
70.251362979999996
 30
0.0
 42
0.31209416
  0
VERTEX
  5
E7A
  8
OBJ02
 10
32.0673611725
 20
71.500687979999995
 30
0.0
 42
0.03624079
  0
VERTEX
  5
E7B
  8
OBJ02
 10
27.944507515000002
 20
71.875492857500006
 30
0.0
 42
0.39214619
  0
VERTEX
  5
E7C
  8
OBJ02
 10
27.0699873925
 20
71.001194077500003
 30
0.0
 42
-0.04152318
  0
VERTEX
  5
E7D
  8
OBJ02
 10
27.444792270000001
 20
53.385143467500001
 30
0.0
 42
-0.06451473
  0
VERTEX
  5
E7E
  8
OBJ02
 10
23.696743489999999
 20
32.146175784999997
 30
0.0
 42
-0.02785095
  0
VERTEX
  5
E7F
  8
OBJ02
 10
22.822223367500001
 20
28.398127004999999
 30
0.0
  0
SEQEND
  5
E80
  8
OBJ02
  0
POLYLINE
  5
23D
  8
OBJ02
 66
     1
 10
0.0
 20
0.0
 30
0.0
 70
     1
  0
VERTEX
  5
E81
  8
OBJ02
 10
21.323003855
 20
45.014452005000003
 30
0.0
 42
0.10218417
  0
VERTEX
  5
E82
  8
OBJ02
 10
14.7014264175
 20
62.130566029999997
 30
0.0
 42
-0.32637771
  0
VERTEX
  5
E83
  8
OBJ02
 10
14.951320927499999
 20
63.005086149999997
 30
0.0
 42
0.26349355
  0
VERTEX
  5
E84
  8
OBJ02
 10
20.198589222500001
 20
70.875767247499994
 30
0.0
 42
-0.07738752
  0
VERTEX
  5
E85
  8
OBJ02
 10
19.803966034999998
 20
73.959678905000004
 30
0.0
 42
-0.35166744
  0
VERTEX
  5
E86
  8
OBJ02
 10
20.964489042499999
 20
75.239769322499995
 30
0.0
 42
-0.35166744
  0
VERTEX
  5
E87
  8
OBJ02
 10
22.465412587500001
 20
74.383805747500006
 30
0.0
 42
-0.04008198
  0
VERTEX
  5
E88
  8
OBJ02
 10
23.946638002499999
 20
61.630850784999993
 30
0.0
 42
-0.06582715
  0
VERTEX
  5
E89
  8
OBJ02
 10
23.4468489775
 20
45.264346517500002
 30
0.0
 42
-0.31644669
  0
VERTEX
  5
E8A
  8
OBJ02
 10
22.472804709999998
 20
44.392524575000003
 30
0.0
 42
-0.31644669
  0
VERTEX
  5
E8B
  8
OBJ02
 10
21.323003855
 20
45.014452005000003
 30
0.0
  0
SEQEND
  5
E8C
  8
OBJ02
  0
POLYLINE
  5
24A
  8
OBJ02
 66
     1
 10
0.0
 20
0.0
 30
0.0
 70
     1
  0
VERTEX
  5
E8D
  8
OBJ02
 10
13.826906295000001
 20
18.52828981
 30
0.0
 42
0.01690836
  0
VERTEX
  5
E8E
  8
OBJ02
 10
13.077296537500001
 20
15.529850785000001
 30
0.0
 42
0.33592507
  0
VERTEX
  5
E8F
  8
OBJ02
 10
13.792920737499999
 20
14.3981400725
 30
0.0
 42
0.33592507
  0
VERTEX
  5
E90
  8
OBJ02
 10
15.076231294999999
 20
14.780241029999999
 30
0.0
 42
0.13299387
  0
VERTEX
  5
E91
  8
OBJ02
 10
19.199084952500002
 20
35.519419687499997
 30
0.0
 42
0.1376613
  0
VERTEX
  5
E92
  8
OBJ02
 10
13.701922147499999
 20
55.7588831025
 30
0.0
 42
0.23653944
  0
VERTEX
  5
E93
  8
OBJ02
 10
12.70249166
 20
56.008777615
 30
0.0
 42
0.07859566
  0
VERTEX
  5
E94
  8
OBJ02
 10
9.704052635
 20
54.009769077500003
 30
0.0
 42
0.28787525
  0
VERTEX
  5
E95
  8
OBJ02
 10
9.4541581249999993
 20
52.3856392
 30
0.0
 42
-0.10462683
  0
VERTEX
  5
E96
  8
OBJ02
 10
14.951320927499999
 20
36.019134932500002
 30
0.0
 42
-0.11015679
  0
VERTEX
  5
E97
  8
OBJ02
 10
13.826906295000001
 20
18.52828981
 30
0.0
  0
SEQEND
  5
E98
  8
OBJ02
  0
POLYLINE
  5
257
  8
OBJ02
 66
     1
 10
0.0
 20
0.0
 30
0.0
 70
     1
  0
VERTEX
  5
E99
  8
OBJ02
 10
9.2353688325000007
 20
141.241043795
 30
0.0
 42
-0.26743495
  0
VERTEX
  5
E9A
  8
OBJ02
 10
6.6606631700000003
 20
141.08899317749999
 30
0.0
 42
-0.26743495
  0
VERTEX
  5
E9B
  8
OBJ02
 10
5.2374993224999988
 20
143.24000068500001
 30
0.0
 42
-0.03094295
  0
VERTEX
  5
E9C
  8
OBJ02
 10
5.2374993224999988
 20
146.48833422249999
 30
0.0
  0
VERTEX
  5
E9D
  8
OBJ02
 10
6.9865395650000002
 20
174.72361043999999
 30
0.0
 42
0.29753822
  0
VERTEX
  5
E9E
  8
OBJ02
 10
4.1130846874999989
 20
179.72098422249999
 30
0.0
 42
-0.03487403
  0
VERTEX
  5
E9F
  8
OBJ02
 10
0.24005176
 20
182.09479763499999
 30
0.0
 42
-0.31109865
  0
VERTEX
  5
EA0
  8
OBJ02
 10
0.11794354
 20
183.20810224749999
 30
0.0
 42
-0.31109865
  0
VERTEX
  5
EA1
  8
OBJ02
 10
1.1146456625000001
 20
183.71892751499999
 30
0.0
 42
-0.04694483
  0
VERTEX
  5
EA2
  8
OBJ02
 10
6.7367188325000003
 20
181.59500861250001
 30
0.0
 42
-0.25452743
  0
VERTEX
  5
EA3
  8
OBJ02
 10
9.9849785900000008
 20
175.34830983000001
 30
0.0
  0
VERTEX
  5
EA4
  8
OBJ02
 10
9.4852633449999981
 20
148.98698422250001
 30
0.0
 42
0.31503627
  0
VERTEX
  5
EA5
  8
OBJ02
 10
10.19767397
 20
147.74443256500001
 30
0.0
 42
0.31503627
  0
VERTEX
  5
EA6
  8
OBJ02
 10
11.6091822475
 20
147.9875537325
 30
0.0
 42
0.03115372
  0
VERTEX
  5
EA7
  8
OBJ02
 10
17.356165785000002
 20
153.2348220275
 30
0.0
 42
-0.05497412
  0
VERTEX
  5
EA8
  8
OBJ02
 10
20.479515175
 20
155.48365129499999
 30
0.0
 42
-0.19035588
  0
VERTEX
  5
EA9
  8
OBJ02
 10
25.3517572475
 20
155.85845617250001
 30
0.0
 42
-0.02099438
  0
VERTEX
  5
EAA
  8
OBJ02
 10
28.475623102499998
 20
154.73404153749999
 30
0.0
 42
0.19704981
  0
VERTEX
  5
EAB
  8
OBJ02
 10
29.600037735000001
 20
154.73404153749999
 30
0.0
 42
0.03409156
  0
VERTEX
  5
EAC
  8
OBJ02
 10
31.848867004999999
 20
155.85845617250001
 30
0.0
 42
-0.23494469
  0
VERTEX
  5
EAD
  8
OBJ02
 10
34.721879199999997
 20
155.7334720275
 30
0.0
 42
-0.27712007
  0
VERTEX
  5
EAE
  8
OBJ02
 10
36.846019442500001
 20
151.86051287999999
 30
0.0
 42
-0.04199174
  0
VERTEX
  5
EAF
  8
OBJ02
 10
35.114568202500003
 20
147.09902196749999
 30
0.0
  0
VERTEX
  5
EB0
  8
OBJ02
 10
28.990720187499999
 20
150.0433536825
 30
0.0
  0
VERTEX
  5
EB1
  8
OBJ02
 10
28.3353308925
 20
148.68022451749999
 30
0.0
  0
VERTEX
  5
EB2
  8
OBJ02
 10
34.459178907499997
 20
145.73589279999999
 30
0.0
 42
-0.08258063
  0
VERTEX
  5
EB3
  8
OBJ02
 10
32.723165784999999
 20
143.24000068500001
 30
0.0
 42
-0.34050708
  0
VERTEX
  5
EB4
  8
OBJ02
 10
30.973830419999999
 20
142.99010617249999
 30
0.0
 42
0.03645657
  0
VERTEX
  5
EB5
  8
OBJ02
 10
21.8538243225
 20
146.7381549525
 30
0.0
 42
0.20072046
  0
VERTEX
  5
EB6
  8
OBJ02
 10
17.106271272499999
 20
146.11352934249999
 30
0.0
 42
0.01365913
  0
VERTEX
  5
EB7
  8
OBJ02
 10
9.2353688325000007
 20
141.241043795
 30
0.0
  0
SEQEND
  5
EB8
  8
OBJ02
  0
POLYLINE
  5
278
  8
OBJ02
 66
     1
 10
0.0
 20
0.0
 30
0.0
 70
     1
  0
VERTEX
  5
EB9
  8
OBJ02
 10
114.2354833575
 20
10.4365259225
 30
0.0
 42
0.30926701
  0
VERTEX
  5
EBA
  8
OBJ02
 10
115.4273516975
 20
3.9902963475000002
 30
0.0
 42
0.3588901
  0
VERTEX
  5
EBB
  8
OBJ02
 10
124.229788235
 20
3.3152553724999989
 30
0.0
 42
0.10883797
  0
VERTEX
  5
EBC
  8
OBJ02
 10
143.8450687225
 20
19.306932629999999
 30
0.0
 42
0.07698286
  0
VERTEX
  5
EBD
  8
OBJ02
 10
163.7095059175
 20
52.414672262499998
 30
0.0
 42
-0.00497392
  0
VERTEX
  5
EBE
  8
OBJ02
 10
174.453863235
 20
77.276999702500007
 30
0.0
 42
-0.00115477
  0
VERTEX
  5
EBF
  8
OBJ02
 10
183.19935957749999
 20
101.2645118975
 30
0.0
 42
-0.02011995
  0
VERTEX
  5
EC0
  8
OBJ02
 10
188.57153823499999
 20
119.7546399475
 30
0.0
 42
-0.18400538
  0
VERTEX
  5
EC1
  8
OBJ02
 10
192.9863893925
 20
125.9361425675
 30
0.0
 42
0.13657666
  0
VERTEX
  5
EC2
  8
OBJ02
 10
197.56685530999999
 20
130.74867043500001
 30
0.0
 42
0.2134865
  0
VERTEX
  5
EC3
  8
OBJ02
 10
197.04404340249999
 20
134.69821676750001
 30
0.0
  0
VERTEX
  5
EC4
  8
OBJ02
 10
190.7561557825
 20
132.157421215
 30
0.0
  0
VERTEX
  5
EC5
  8
OBJ02
 10
190.18950118250001
 20
133.55976169249999
 30
0.0
  0
VERTEX
  5
EC6
  8
OBJ02
 10
196.4773888
 20
136.100557245
 30
0.0
 42
0.21936467
  0
VERTEX
  5
EC7
  8
OBJ02
 10
193.81880652749999
 20
139.244493605
 30
0.0
 42
0.19733273
  0
VERTEX
  5
EC8
  8
OBJ02
 10
190.6954571375
 20
139.49460945999999
 30
0.0
 42
-0.00199282
  0
VERTEX
  5
EC9
  8
OBJ02
 10
178.201912015
 20
135.37175579999999
 30
0.0
 42
-0.09194265
  0
VERTEX
  5
ECA
  8
OBJ02
 10
159.58665225999999
 20
133.8725362875
 30
0.0
 42
-0.06318915
  0
VERTEX
  5
ECB
  8
OBJ02
 10
139.97159311249999
 20
137.49515823999999
 30
0.0
 42
0.05014451
  0
VERTEX
  5
ECC
  8
OBJ02
 10
129.977288235
 20
140.8684021425
 30
0.0
 42
0.33229592
  0
VERTEX
  5
ECD
  8
OBJ02
 10
119.35732482
 20
134.12191433749999
 30
0.0
 42
0.12184415
  0
VERTEX
  5
ECE
  8
OBJ02
 10
118.48302604
 20
127.3754265325
 30
0.0
 42
0.06756604
  0
VERTEX
  5
ECF
  8
OBJ02
 10
120.73185531
 20
121.003743605
 30
0.0
 42
-0.1683313
  0
VERTEX
  5
ED0
  8
OBJ02
 10
120.60716628500001
 20
118.38010946
 30
0.0
 42
-0.05460192
  0
VERTEX
  5
ED1
  8
OBJ02
 10
116.73369067500001
 20
112.7580362875
 30
0.0
 42
0.22632397
  0
VERTEX
  5
ED2
  8
OBJ02
 10
116.2341967725
 20
108.26037775250001
 30
0.0
 42
0.02008863
  0
VERTEX
  5
ED3
  8
OBJ02
 10
118.48302604
 20
103.2632253125
 30
0.0
 42
-0.18539953
  0
VERTEX
  5
ED4
  8
OBJ02
 10
118.48302604
 20
100.76428018999999
 30
0.0
 42
-0.05440637
  0
VERTEX
  5
ED5
  8
OBJ02
 10
115.3598979925
 20
95.642438727499993
 30
0.0
 42
0.21394288
  0
VERTEX
  5
ED6
  8
OBJ02
 10
114.73497725999999
 20
91.394158239999996
 30
0.0
 42
0.04079715
  0
VERTEX
  5
ED7
  8
OBJ02
 10
116.60900165
 20
87.146615557499999
 30
0.0
 42
-0.20925182
  0
VERTEX
  5
ED8
  8
OBJ02
 10
116.484312625
 20
83.273877752499999
 30
0.0
 42
0.07678029
  0
VERTEX
  5
ED9
  8
OBJ02
 10
113.86067848
 20
78.4014143375
 30
0.0
 42
0.08714091
  0
VERTEX
  5
EDA
  8
OBJ02
 10
113.610562625
 20
76.027158240000006
 30
0.0
 42
0.09687365
  0
VERTEX
  5
EDB
  8
OBJ02
 10
115.98408091749999
 20
70.655200922500001
 30
0.0
 42
-0.14734178
  0
VERTEX
  5
EDC
  8
OBJ02
 10
116.2341967725
 20
68.156477142499995
 30
0.0
 42
-0.12087599
  0
VERTEX
  5
EDD
  8
OBJ02
 10
113.610562625
 20
63.034192994999991
 30
0.0
 42
0.16076422
  0
VERTEX
  5
EDE
  8
OBJ02
 10
113.11106872249999
 20
58.786355190000002
 30
0.0
 42
0.06165154
  0
VERTEX
  5
EDF
  8
OBJ02
 10
115.60927604
 20
54.163786287500002
 30
0.0
 42
-0.1618347
  0
VERTEX
  5
EE0
  8
OBJ02
 10
115.859391895
 20
50.915452752500002
 30
0.0
 42
0.02599616
  0
VERTEX
  5
EE1
  8
OBJ02
 10
113.3604467725
 20
45.418363727500001
 30
0.0
 42
0.09907367
  0
VERTEX
  5
EE2
  8
OBJ02
 10
113.3604467725
 20
42.294940557499999
 30
0.0
 42
-0.09557853
  0
VERTEX
  5
EE3
  8
OBJ02
 10
116.35888579749999
 20
35.923257630000002
 30
0.0
 42
-0.12576563
  0
VERTEX
  5
EE4
  8
OBJ02
 10
116.35888579749999
 20
33.924322872499999
 30
0.0
 42
-0.06559186
  0
VERTEX
  5
EE5
  8
OBJ02
 10
113.86067848
 20
29.176769825000001
 30
0.0
 42
0.22899905
  0
VERTEX
  5
EE6
  8
OBJ02
 10
113.86067848
 20
24.179396045000001
 30
0.0
 42
0.03593077
  0
VERTEX
  5
EE7
  8
OBJ02
 10
116.73369067500001
 20
20.1814527525
 30
0.0
 42
-0.19911623
  0
VERTEX
  5
EE8
  8
OBJ02
 10
117.35861140750001
 20
16.183583240000001
 30
0.0
 42
-0.09914652
  0
VERTEX
  5
EE9
  8
OBJ02
 10
114.2354833575
 20
10.4365259225
 30
0.0
  0
SEQEND
  5
EEA
  8
OBJ02
  0
POLYLINE
  5
2AB
  8
OBJ02
 66
     1
 10
0.0
 20
0.0
 30
0.0
 70
     1
  0
VERTEX
  5
EEB
  8
OBJ02
 10
211.05983091749999
 20
0.31681635
 30
0.0
 42
-0.1611292
  0
VERTEX
  5
EEC
  8
OBJ02
 10
198.0665705525
 20
8.1876966549999999
 30
0.0
 42
-0.07405715
  0
VERTEX
  5
EED
  8
OBJ02
 10
186.1977986025
 20
23.804591165000001
 30
0.0
 42
-0.0926472
  0
VERTEX
  5
EEE
  8
OBJ02
 10
175.2034729925
 20
49.9160222625
 30
0.0
 42
-0.04082356
  0
VERTEX
  5
EEF
  8
OBJ02
 10
173.07962787
 20
60.910274092500003
 30
0.0
 42
-0.13782277
  0
VERTEX
  5
EF0
  8
OBJ02
 10
173.9541479925
 20
68.281461287499994
 30
0.0
 42
0.12559997
  0
VERTEX
  5
EF1
  8
OBJ02
 10
177.07749738250001
 20
76.401963117500003
 30
0.0
 42
-0.36885073
  0
VERTEX
  5
EF2
  8
OBJ02
 10
177.997603115
 20
77.727889187499997
 30
0.0
 42
-0.36885073
  0
VERTEX
  5
EF3
  8
OBJ02
 10
179.45131079750001
 20
77.026883850000004
 30
0.0
 42
0.06688931
  0
VERTEX
  5
EF4
  8
OBJ02
 10
180.20092055250001
 20
75.527664337499999
 30
0.0
 42
0.26645087
  0
VERTEX
  5
EF5
  8
OBJ02
 10
181.24543184500001
 20
75.177571287500001
 30
0.0
 42
0.26645087
  0
VERTEX
  5
EF6
  8
OBJ02
 10
182.0749449425
 20
75.902469214999996
 30
0.0
 42
-0.17918199
  0
VERTEX
  5
EF7
  8
OBJ02
 10
183.8239851875
 20
86.7718106775
 30
0.0
 42
0.09337275
  0
VERTEX
  5
EF8
  8
OBJ02
 10
185.07338396750001
 20
94.392597262500004
 30
0.0
 42
-0.3644146
  0
VERTEX
  5
EF9
  8
OBJ02
 10
186.05004700750001
 20
95.640203177499984
 30
0.0
 42
-0.3644146
  0
VERTEX
  5
EFA
  8
OBJ02
 10
187.4471236025
 20
94.892828969999997
 30
0.0
 42
0.0966121
  0
VERTEX
  5
EFB
  8
OBJ02
 10
190.44556262500001
 20
87.146615557499999
 30
0.0
 42
0.31741807
  0
VERTEX
  5
EFC
  8
OBJ02
 10
191.57732959000001
 20
86.628428885000005
 30
0.0
 42
0.31741807
  0
VERTEX
  5
EFD
  8
OBJ02
 10
192.4444973825
 20
87.521420434999996
 30
0.0
 42
0.11248506
  0
VERTEX
  5
EFE
  8
OBJ02
 10
193.1941071375
 20
96.766853359999999
 30
0.0
 42
-0.38092582
  0
VERTEX
  5
EFF
  8
OBJ02
 10
193.92895021250001
 20
98.206039977499998
 30
0.0
 42
-0.38092582
  0
VERTEX
  5
F00
  8
OBJ02
 10
195.44293640750001
 20
97.641152142500005
 30
0.0
 42
0.15176217
  0
VERTEX
  5
F01
  8
OBJ02
 10
198.69126994250001
 20
91.768963117499993
 30
0.0
 42
0.27826855
  0
VERTEX
  5
F02
  8
OBJ02
 10
200.80438072999999
 20
91.175999182499979
 30
0.0
 42
0.27826855
  0
VERTEX
  5
F03
  8
OBJ02
 10
202.31440835750001
 20
92.768688727500006
 30
0.0
 42
0.03597686
  0
VERTEX
  5
F04
  8
OBJ02
 10
200.86250125999999
 20
110.365568035
 30
0.0
 42
-0.02537369
  0
VERTEX
  5
F05
  8
OBJ02
 10
198.81618030999999
 20
123.12788385
 30
0.0
 42
-0.17321946
  0
VERTEX
  5
F06
  8
OBJ02
 10
200.463066295
 20
129.59745762
 30
0.0
 42
0.22673577
  0
VERTEX
  5
F07
  8
OBJ02
 10
204.31334311250001
 20
137.6205850675
 30
0.0
 42
-0.37978531
  0
VERTEX
  5
F08
  8
OBJ02
 10
205.4245512375
 20
139.388433435
 30
0.0
 42
-0.37978531
  0
VERTEX
  5
F09
  8
OBJ02
 10
207.31178213749999
 20
138.49488385000001
 30
0.0
 42
0.13489751
  0
VERTEX
  5
F0A
  8
OBJ02
 10
208.81100165000001
 20
132.622694825
 30
0.0
 42
0.08239869
  0
VERTEX
  5
F0B
  8
OBJ02
 10
212.68396079749999
 20
127.75023141
 30
0.0
 42
-0.19403751
  0
VERTEX
  5
F0C
  8
OBJ02
 10
213.05876567499999
 20
120.5042497025
 30
0.0
 42
0.02887037
  0
VERTEX
  5
F0D
  8
OBJ02
 10
210.56011567499999
 20
97.765841164999998
 30
0.0
 42
0.03101737
  0
VERTEX
  5
F0E
  8
OBJ02
 10
210.56011567499999
 20
90.145054579999993
 30
0.0
 42
0.36034485
  0
VERTEX
  5
F0F
  8
OBJ02
 10
217.55642421249999
 20
86.521694824999983
 30
0.0
 42
-0.26713415
  0
VERTEX
  5
F10
  8
OBJ02
 10
219.36525442000001
 20
85.400939732500007
 30
0.0
 42
-0.26713415
  0
VERTEX
  5
F11
  8
OBJ02
 10
219.305538235
 20
83.273877752499999
 30
0.0
 42
0.12052047
  0
VERTEX
  5
F12
  8
OBJ02
 10
213.43357055249999
 20
74.403249702500005
 30
0.0
 42
0.32869182
  0
VERTEX
  5
F13
  8
OBJ02
 10
218.18112360250001
 20
65.782737507500002
 30
0.0
 42
-0.36246753
  0
VERTEX
  5
F14
  8
OBJ02
 10
218.30603396750001
 20
57.661940557500003
 30
0.0
 42
0.12770617
  0
VERTEX
  5
F15
  8
OBJ02
 10
209.68552177250001
 20
43.294444824999999
 30
0.0
 42
0.13663085
  0
VERTEX
  5
F16
  8
OBJ02
 10
208.56110713749999
 20
22.43028202
 30
0.0
 42
0.21761284
  0
VERTEX
  5
F17
  8
OBJ02
 10
216.0572047
 20
11.186135677499999
 30
0.0
 42
-0.381511
  0
VERTEX
  5
F18
  8
OBJ02
 10
217.35111630500001
 20
5.3242121200000003
 30
0.0
  0
VERTEX
  5
F19
  8
OBJ02
 10
211.21659988249999
 20
7.6579792774999991
 30
0.0
  0
VERTEX
  5
F1A
  8
OBJ02
 10
210.6787992525
 20
6.24432206
 30
0.0
  0
VERTEX
  5
F1B
  8
OBJ02
 10
216.81331567749999
 20
3.910554902499999
 30
0.0
 42
-0.09399819
  0
VERTEX
  5
F1C
  8
OBJ02
 10
215.93229433249999
 20
2.1908407400000001
 30
0.0
 42
-0.24651965
  0
VERTEX
  5
F1D
  8
OBJ02
 10
211.05983091749999
 20
0.31681635
 30
0.0
  0
SEQEND
  5
F1E
  8
OBJ02
  0
POLYLINE
  5
2E0
  8
OBJ02
 66
     1
 10
0.0
 20
0.0
 30
0.0
  0
VERTEX
  5
F1F
  8
OBJ02
 10
174.50137409000001
 20
18.2060273825
 30
0.0
  0
VERTEX
  5
F20
  8
OBJ02
 10
177.164506945
 20
11.21748184
 30
0.0
 42
0.18305102
  0
VERTEX
  5
F21
  8
OBJ02
 10
179.7969820875
 20
12.2707272725
 30
0.0
 42
0.26383061
  0
VERTEX
  5
F22
  8
OBJ02
 10
180.54747196
 20
19.90494709
 30
0.0
 42
0.11111136
  0
VERTEX
  5
F23
  8
OBJ02
 10
176.32968740250001
 20
25.709102515000001
 30
0.0
 42
-0.20780371
  0
VERTEX
  5
F24
  8
OBJ02
 10
172.5282656725
 20
32.277623990000002
 30
0.0
  0
VERTEX
  5
F25
  8
OBJ02
 10
172.5282656725
 20
36.642990117499998
 30
0.0
  0
VERTEX
  5
F26
  8
OBJ02
 10
167.6505815175
 20
36.642990117499998
 30
0.0
  0
VERTEX
  5
F27
  8
OBJ02
 10
167.6505815175
 20
28.548696414999998
 30
0.0
  0
VERTEX
  5
F28
  8
OBJ02
 10
166.13808151750001
 20
28.548696414999998
 30
0.0
  0
VERTEX
  5
F29
  8
OBJ02
 10
166.13808151750001
 20
36.642990117499998
 30
0.0
  0
VERTEX
  5
F2A
  8
OBJ02
 10
161.26039736499999
 20
36.642990117499998
 30
0.0
  0
VERTEX
  5
F2B
  8
OBJ02
 10
161.26039736499999
 20
32.277623990000002
 30
0.0
 42
-0.28784516
  0
VERTEX
  5
F2C
  8
OBJ02
 10
157.4589756325
 20
25.709102515000001
 30
0.0
 42
0.20160452
  0
VERTEX
  5
F2D
  8
OBJ02
 10
153.24119107499999
 20
19.90494709
 30
0.0
 42
0.27169212
  0
VERTEX
  5
F2E
  8
OBJ02
 10
153.99168094749999
 20
12.2707272725
 30
0.0
 42
0.13330375
  0
VERTEX
  5
F2F
  8
OBJ02
 10
156.62415609249999
 20
11.21748184
 30
0.0
  0
VERTEX
  5
F30
  8
OBJ02
 10
159.287288945
 20
18.2060273825
 30
0.0
  0
SEQEND
  5
F31
  8
OBJ02
  0
POLYLINE
  5
2F4
  8
OBJ02
 66
     1
 10
0.0
 20
0.0
 30
0.0
 70
     1
  0
VERTEX
  5
F32
  8
OBJ02
 10
102.5190376075
 20
194.90457843499999
 30
0.0
 42
-0.02982448
  0
VERTEX
  5
F33
  8
OBJ02
 10
114.50962234249999
 20
197.75886922250001
 30
0.0
 42
-0.04823653
  0
VERTEX
  5
F34
  8
OBJ02
 10
140.04509458250001
 20
199.91763405500001
 30
0.0
 42
-0.05102716
  0
VERTEX
  5
F35
  8
OBJ02
 10
164.69562447749999
 20
197.278895425
 30
0.0
 42
-0.04755514
  0
VERTEX
  5
F36
  8
OBJ02
 10
179.78896111500001
 20
193.15884367500001
 30
0.0
 42
-0.24747671
  0
VERTEX
  5
F37
  8
OBJ02
 10
181.11803882000001
 20
191.59894363500001
 30
0.0
 42
0.14485042
  0
VERTEX
  5
F38
  8
OBJ02
 10
184.48266662
 20
184.38806966499999
 30
0.0
 42
0.28264804
  0
VERTEX
  5
F39
  8
OBJ02
 10
194.09167955999999
 20
182.36890060499999
 30
0.0
 42
-0.11575824
  0
VERTEX
  5
F3A
  8
OBJ02
 10
198.0401822975
 20
183.44274684499999
 30
0.0
 42
-0.04120714
  0
VERTEX
  5
F3B
  8
OBJ02
 10
200.18671689749999
 20
183.050503115
 30
0.0
 42
0.38897541
  0
VERTEX
  5
F3C
  8
OBJ02
 10
206.1500617625
 20
186.35243255750001
 30
0.0
 42
0.01920955
  0
VERTEX
  5
F3D
  8
OBJ02
 10
208.1764284825
 20
193.33412296500001
 30
0.0
 42
0.30031206
  0
VERTEX
  5
F3E
  8
OBJ02
 10
206.59668533999999
 20
197.382785455
 30
0.0
 42
0.08981009
  0
VERTEX
  5
F3F
  8
OBJ02
 10
204.55158033000001
 20
198.73925762499999
 30
0.0
  0
VERTEX
  5
F40
  8
OBJ02
 10
200.51829950000001
 20
192.44672431500001
 30
0.0
  0
VERTEX
  5
F41
  8
OBJ02
 10
199.24492104500001
 20
193.26291275
 30
0.0
  0
VERTEX
  5
F42
  8
OBJ02
 10
203.27820187500001
 20
199.55544605750001
 30
0.0
 42
0.19172222
  0
VERTEX
  5
F43
  8
OBJ02
 10
196.9812486525
 20
202.02857721000001
 30
0.0
 42
0.0623962
  0
VERTEX
  5
F44
  8
OBJ02
 10
188.6527712875
 20
200.98429486250001
 30
0.0
 42
0.13660035
  0
VERTEX
  5
F45
  8
OBJ02
 10
183.30652677750001
 20
197.83896480499999
 30
0.0
 42
-0.20140378
  0
VERTEX
  5
F46
  8
OBJ02
 10
180.55540927249999
 20
197.825545455
 30
0.0
 42
0.04891133
  0
VERTEX
  5
F47
  8
OBJ02
 10
163.20352363750001
 20
202.0825185125
 30
0.0
 42
0.0583387
  0
VERTEX
  5
F48
  8
OBJ02
 10
137.47995632749999
 20
203.66634099250001
 30
0.0
 42
0.05138425
  0
VERTEX
  5
F49
  8
OBJ02
 10
113.3734267975
 20
200.45355820500001
 30
0.0
 42
0.01007432
  0
VERTEX
  5
F4A
  8
OBJ02
 10
101.90081429
 20
197.25002175
 30
0.0
 42
0.36959693
  0
VERTEX
  5
F4B
  8
OBJ02
 10
101.20590633
 20
195.81265573499999
 30
0.0
 42
0.36959693
  0
VERTEX
  5
F4C
  8
OBJ02
 10
102.5190376075
 20
194.90457843499999
 30
0.0
  0
SEQEND
  5
F4D
  8
OBJ02
  0
POLYLINE
  5
311
  8
OBJ02
 66
     1
 10
0.0
 20
0.0
 30
0.0
  0
VERTEX
  5
F4E
  8
OBJ02
 10
189.18575662500001
 20
172.89866087249999
 30
0.0
  0
VERTEX
  5
F4F
  8
OBJ02
 10
191.50006664750001
 20
168.51256380749999
 30
0.0
  0
VERTEX
  5
F50
  8
OBJ02
 10
192.83777091249999
 20
169.21839916249999
 30
0.0
  0
VERTEX
  5
F51
  8
OBJ02
 10
190.52346089
 20
173.60449623
 30
0.0
 42
-0.24275734
  0
VERTEX
  5
F52
  8
OBJ02
 10
193.85579896249999
 20
174.1127497775
 30
0.0
 42
-0.09707837
  0
VERTEX
  5
F53
  8
OBJ02
 10
196.88565069500001
 20
172.09739063000001
 30
0.0
 42
0.27270166
  0
VERTEX
  5
F54
  8
OBJ02
 10
203.31499432250001
 20
171.29592662749999
 30
0.0
 42
-0.1025276
  0
VERTEX
  5
F55
  8
OBJ02
 10
206.75520631000001
 20
172.50474571749999
 30
0.0
 42
-0.24275734
  0
VERTEX
  5
F56
  8
OBJ02
 10
209.86078792250001
 20
171.1939590975
 30
0.0
  0
SEQEND
  5
F57
  8
OBJ02
  0
POLYLINE
  5
31C
  8
OBJ02
 66
     1
 10
0.0
 20
0.0
 30
0.0
  0
VERTEX
  5
F58
  8
OBJ02
 10
210.98427182750001
 20
170.18131890500001
 30
0.0
 42
-0.17304415
  0
VERTEX
  5
F59
  8
OBJ02
 10
216.12755846249999
 20
162.88303811500001
 30
0.0
  0
VERTEX
  5
F5A
  8
OBJ02
 10
211.14460843750001
 20
161.30540801999999
 30
0.0
  0
VERTEX
  5
F5B
  8
OBJ02
 10
211.60113966500001
 20
159.86345258
 30
0.0
  0
VERTEX
  5
F5C
  8
OBJ02
 10
216.58408969000001
 20
161.44108267499999
 30
0.0
 42
-0.07629659
  0
VERTEX
  5
F5D
  8
OBJ02
 10
216.95867029499999
 20
159.8681524875
 30
0.0
 42
-0.34012072
  0
VERTEX
  5
F5E
  8
OBJ02
 10
214.88878364999999
 20
156.7837618625
 30
0.0
 42
0.07096611
  0
VERTEX
  5
F5F
  8
OBJ02
 10
211.30886103500001
 20
155.37055294000001
 30
0.0
 42
0.23605907
  0
VERTEX
  5
F60
  8
OBJ02
 10
209.57162546750001
 20
152.07298868999999
 30
0.0
 42
0.10379752
  0
VERTEX
  5
F61
  8
OBJ02
 10
210.83711324000001
 20
148.38430557000001
 30
0.0
 42
-0.40971163
  0
VERTEX
  5
F62
  8
OBJ02
 10
208.85129675499999
 20
144.49045962
 30
0.0
  0
VERTEX
  5
F63
  8
OBJ02
 10
206.34238668750001
 20
148.7697261225
 30
0.0
  0
VERTEX
  5
F64
  8
OBJ02
 10
205.03760583249999
 20
148.00474038999999
 30
0.0
  0
VERTEX
  5
F65
  8
OBJ02
 10
207.5465159
 20
143.72547388500001
 30
0.0
 42
-0.09450258
  0
VERTEX
  5
F66
  8
OBJ02
 10
205.6032325875
 20
142.50992389250001
 30
0.0
 42
-0.333957
  0
VERTEX
  5
F67
  8
OBJ02
 10
202.92419875499999
 20
143.69489505749999
 30
0.0
 42
0.22846688
  0
VERTEX
  5
F68
  8
OBJ02
 10
197.91756716500001
 20
148.03913997999999
 30
0.0
  0
VERTEX
  5
F69
  8
OBJ02
 10
198.78126642749999
 20
154.9677348125
 30
0.0
  0
VERTEX
  5
F6A
  8
OBJ02
 10
197.28038290250001
 20
155.15483075750001
 30
0.0
  0
VERTEX
  5
F6B
  8
OBJ02
 10
196.41668364
 20
148.226235925
 30
0.0
 42
0.22375741
  0
VERTEX
  5
F6C
  8
OBJ02
 10
190.50136272500001
 20
145.2434910675
 30
0.0
 42
-0.31570929
  0
VERTEX
  5
F6D
  8
OBJ02
 10
187.60880506000001
 20
144.753058925
 30
0.0
 42
-0.10690822
  0
VERTEX
  5
F6E
  8
OBJ02
 10
186.02340949500001
 20
146.4084841625
 30
0.0
  0
VERTEX
  5
F6F
  8
OBJ02
 10
189.50609642750001
 20
149.9408549325
 30
0.0
  0
VERTEX
  5
F70
  8
OBJ02
 10
188.42904975249999
 20
151.0027526275
 30
0.0
  0
VERTEX
  5
F71
  8
OBJ02
 10
184.94636281999999
 20
147.4703818575
 30
0.0
 42
-0.2036207
  0
VERTEX
  5
F72
  8
OBJ02
 10
183.55179090749999
 20
149.3943019125
 30
0.0
 42
-0.2036207
  0
VERTEX
  5
F73
  8
OBJ02
 10
183.96850533
 20
151.73367112
 30
0.0
 42
0.09330039
  0
VERTEX
  5
F74
  8
OBJ02
 10
186.10958554749999
 20
154.9977009975
 30
0.0
 42
0.23605907
  0
VERTEX
  5
F75
  8
OBJ02
 10
185.23506542499999
 20
158.6208394125
 30
0.0
 42
0.03573736
  0
VERTEX
  5
F76
  8
OBJ02
 10
182.11164225499999
 20
160.86966867999999
 30
0.0
 42
-0.34012072
  0
VERTEX
  5
F77
  8
OBJ02
 10
180.86231725499999
 20
164.3678229475
 30
0.0
 42
-0.0605888
  0
VERTEX
  5
F78
  8
OBJ02
 10
181.6115880225
 20
165.8006569675
 30
0.0
  0
VERTEX
  5
F79
  8
OBJ02
 10
186.05473605
 20
163.04799584
 30
0.0
  0
VERTEX
  5
F7A
  8
OBJ02
 10
186.85129524999999
 20
164.33374452999999
 30
0.0
  0
VERTEX
  5
F7B
  8
OBJ02
 10
182.40814722249999
 20
167.08640565749999
 30
0.0
 42
-0.17304415
  0
VERTEX
  5
F7C
  8
OBJ02
 10
189.18575662500001
 20
172.89866087249999
 30
0.0
  0
VERTEX
  5
F7D
  8
OBJ02
 10
191.50006664750001
 20
168.51256380749999
 30
0.0
  0
SEQEND
  5
F7E
  8
OBJ02
  0
POLYLINE
  5
344
  8
OBJ02
 66
     1
 10
0.0
 20
0.0
 30
0.0
 70
     1
  0
VERTEX
  5
F7F
  8
OBJ02
 10
195.193115675
 20
27.80253446
 30
0.0
 42
0.36021542
  0
VERTEX
  5
F80
  8
OBJ02
 10
196.42962085249999
 20
27.515824405
 30
0.0
 42
0.36021542
  0
VERTEX
  5
F81
  8
OBJ02
 10
196.9421559175
 20
28.67705458
 30
0.0
 42
-0.02785095
  0
VERTEX
  5
F82
  8
OBJ02
 10
196.0676357975
 20
32.425103360000001
 30
0.0
 42
-0.06451473
  0
VERTEX
  5
F83
  8
OBJ02
 10
192.319587015
 20
53.664071045
 30
0.0
 42
-0.04152318
  0
VERTEX
  5
F84
  8
OBJ02
 10
192.694391895
 20
71.280121655000002
 30
0.0
 42
0.39214619
  0
VERTEX
  5
F85
  8
OBJ02
 10
191.81987177249999
 20
72.154420435000006
 30
0.0
 42
0.03624079
  0
VERTEX
  5
F86
  8
OBJ02
 10
187.69701811249999
 20
71.779615557499994
 30
0.0
 42
0.31209416
  0
VERTEX
  5
F87
  8
OBJ02
 10
186.9474083575
 20
70.530290557499995
 30
0.0
 42
0.0221774
  0
VERTEX
  5
F88
  8
OBJ02
 10
187.0723187225
 20
59.535964947499998
 30
0.0
 42
0.05044455
  0
VERTEX
  5
F89
  8
OBJ02
 10
189.44605835749999
 20
44.66875396999999
 30
0.0
 42
0.06079098
  0
VERTEX
  5
F8A
  8
OBJ02
 10
195.193115675
 20
27.80253446
 30
0.0
  0
SEQEND
  5
F8B
  8
OBJ02
  0
POLYLINE
  5
352
  8
OBJ02
 66
     1
 10
0.0
 20
0.0
 30
0.0
 70
     1
  0
VERTEX
  5
F8C
  8
OBJ02
 10
194.8183107975
 20
17.183013727500001
 30
0.0
 42
0.31501815
  0
VERTEX
  5
F8D
  8
OBJ02
 10
196.06731979750001
 20
17.2397168
 30
0.0
 42
0.31501815
  0
VERTEX
  5
F8E
  8
OBJ02
 10
196.442440675
 20
18.4324125075
 30
0.0
 42
-0.00412707
  0
VERTEX
  5
F8F
  8
OBJ02
 10
192.694391895
 20
26.178330800000001
 30
0.0
 42
-0.03443671
  0
VERTEX
  5
F90
  8
OBJ02
 10
190.57047299249999
 20
30.925883850000002
 30
0.0
 42
-0.05938219
  0
VERTEX
  5
F91
  8
OBJ02
 10
186.44761933250001
 20
43.919144215000003
 30
0.0
 42
-0.02805684
  0
VERTEX
  5
F92
  8
OBJ02
 10
183.8239851875
 20
57.9118350675
 30
0.0
 42
0.27439039
  0
VERTEX
  5
F93
  8
OBJ02
 10
182.69957055250001
 20
58.661444824999997
 30
0.0
 42
0.05588837
  0
VERTEX
  5
F94
  8
OBJ02
 10
178.4518065275
 20
58.161729579999999
 30
0.0
 42
0.3267537
  0
VERTEX
  5
F95
  8
OBJ02
 10
177.82710713750001
 20
57.162225312499999
 30
0.0
 42
0.02289017
  0
VERTEX
  5
F96
  8
OBJ02
 10
178.201912015
 20
54.538591165
 30
0.0
 42
0.04015712
  0
VERTEX
  5
F97
  8
OBJ02
 10
183.19935957749999
 20
38.172086897500002
 30
0.0
 42
0.05413732
  0
VERTEX
  5
F98
  8
OBJ02
 10
188.9463431124999
 20
26.053420435
 30
0.0
 42
0.06632439
  0
VERTEX
  5
F99
  8
OBJ02
 10
194.8183107975
 20
17.183013727500001
 30
0.0
  0
SEQEND
  5
F9A
  8
OBJ02
  0
POLYLINE
  5
362
  8
OBJ02
 66
     1
 10
0.0
 20
0.0
 30
0.0
 70
     1
  0
VERTEX
  5
F9B
  8
OBJ02
 10
128.99051818999999
 20
119.0559322175
 30
0.0
 42
0.05995443
  0
VERTEX
  5
F9C
  8
OBJ02
 10
128.16574846
 20
118.8857008725
 30
0.0
 42
0.0242195
  0
VERTEX
  5
F9D
  8
OBJ02
 10
126.229239455
 20
118.13073141
 30
0.0
 42
0.18999839
  0
VERTEX
  5
F9E
  8
OBJ02
 10
124.16349017500001
 20
116.02203547000001
 30
0.0
 42
0.15728058
  0
VERTEX
  5
F9F
  8
OBJ02
 10
123.8549833575
 20
112.50865824
 30
0.0
 42
0.15663096
  0
VERTEX
  5
FA0
  8
OBJ02
 10
125.66447567500001
 20
109.45655130999999
 30
0.0
 42
0.21043872
  0
VERTEX
  5
FA1
  8
OBJ02
 10
128.22795287
 20
108.63518263
 30
0.0
 42
0.01651191
  0
VERTEX
  5
FA2
  8
OBJ02
 10
130.447791395
 20
108.94295712
 30
0.0
 42
0.02572702
  0
VERTEX
  5
FA3
  8
OBJ02
 10
131.85131262499999
 20
109.26010336
 30
0.0
 42
0.0080511
  0
VERTEX
  5
FA4
  8
OBJ02
 10
136.4175009125
 20
110.62160354
 30
0.0
 42
0.014185
  0
VERTEX
  5
FA5
  8
OBJ02
 10
138.97260531000001
 20
111.50893263
 30
0.0
 42
0.01601459
  0
VERTEX
  5
FA6
  8
OBJ02
 10
143.00306771250001
 20
113.18758427
 30
0.0
 42
0.01126777
  0
VERTEX
  5
FA7
  8
OBJ02
 10
148.59210530999999
 20
115.8819021425
 30
0.0
 42
0.01564615
  0
VERTEX
  5
FA8
  8
OBJ02
 10
151.83894676
 20
117.66844164
 30
0.0
 42
0.0169972
  0
VERTEX
  5
FA9
  8
OBJ02
 10
154.714188845
 20
119.50452409250001
 30
0.0
 42
0.04580683
  0
VERTEX
  5
FAA
  8
OBJ02
 10
155.69220791500001
 20
120.31806654499999
 30
0.0
 42
0.0678279
  0
VERTEX
  5
FAB
  8
OBJ02
 10
156.21340835749999
 20
121.003743605
 30
0.0
 42
0.26581593
  0
VERTEX
  5
FAC
  8
OBJ02
 10
156.20863091000001
 20
121.93784604
 30
0.0
 42
0.22369136
  0
VERTEX
  5
FAD
  8
OBJ02
 10
155.31379401000001
 20
122.55785731749999
 30
0.0
 42
0.12894944
  0
VERTEX
  5
FAE
  8
OBJ02
 10
152.0287283875
 20
122.259109925
 30
0.0
 42
-0.0558333
  0
VERTEX
  5
FAF
  8
OBJ02
 10
144.71936750500001
 20
120.5042497025
 30
0.0
 42
-0.00140168
  0
VERTEX
  5
FB0
  8
OBJ02
 10
135.99910506250001
 20
119.44152685749999
 30
0.0
 42
-0.00690234
  0
VERTEX
  5
FB1
  8
OBJ02
 10
134.22483091749999
 20
119.255146045
 30
0.0
 42
-0.02549685
  0
VERTEX
  5
FB2
  8
OBJ02
 10
131.701945405
 20
119.15449198500001
 30
0.0
 42
0.02372504
  0
VERTEX
  5
FB3
  8
OBJ02
 10
128.99051818999999
 20
119.0559322175
 30
0.0
  0
SEQEND
  5
FB4
  8
OBJ02
  0
POLYLINE
  5
37D
  8
OBJ02
 66
     1
 10
0.0
 20
0.0
 30
0.0
 70
     1
  0
VERTEX
  5
FB5
  8
OBJ02
 10
130.22666628499999
 20
104.63775579999999
 30
0.0
 42
0.0026926
  0
VERTEX
  5
FB6
  8
OBJ02
 10
135.72405043000001
 20
106.38635336
 30
0.0
 42
0.01648086
  0
VERTEX
  5
FB7
  8
OBJ02
 10
144.392012115
 20
110.15726947749999
 30
0.0
 42
-0.31354729
  0
VERTEX
  5
FB8
  8
OBJ02
 10
145.74167567750001
 20
109.85510845
 30
0.0
 42
-0.31354729
  0
VERTEX
  5
FB9
  8
OBJ02
 10
145.9280906125
 20
108.48465505999999
 30
0.0
 42
-0.10532183
  0
VERTEX
  5
FBA
  8
OBJ02
 10
140.9713187225
 20
102.5136155575
 30
0.0
 42
-0.02122504
  0
VERTEX
  5
FBB
  8
OBJ02
 10
134.22483091749999
 20
98.890255800000006
 30
0.0
 42
-0.04190966
  0
VERTEX
  5
FBC
  8
OBJ02
 10
127.33902431750001
 20
96.109817879999994
 30
0.0
 42
-0.38676795
  0
VERTEX
  5
FBD
  8
OBJ02
 10
122.7305687225
 20
98.890255800000006
 30
0.0
 42
-0.38912592
  0
VERTEX
  5
FBE
  8
OBJ02
 10
124.9793979925
 20
103.2632253125
 30
0.0
 42
-0.00548822
  0
VERTEX
  5
FBF
  8
OBJ02
 10
130.22666628499999
 20
104.63775579999999
 30
0.0
  0
SEQEND
  5
FC0
  8
OBJ02
  0
POLYLINE
  5
38A
  8
OBJ02
 66
     1
 10
0.0
 20
0.0
 30
0.0
 70
     1
  0
VERTEX
  5
FC1
  8
OBJ02
 10
121.85626994250001
 20
74.778054580000003
 30
0.0
 42
0.02678518
  0
VERTEX
  5
FC2
  8
OBJ02
 10
134.22483091749999
 20
81.774658239999994
 30
0.0
 42
-0.03767697
  0
VERTEX
  5
FC3
  8
OBJ02
 10
141.22143457749999
 20
86.521694824999983
 30
0.0
 42
-0.00186239
  0
VERTEX
  5
FC4
  8
OBJ02
 10
152.21546506499999
 20
95.017517995000006
 30
0.0
 42
0.0474988
  0
VERTEX
  5
FC5
  8
OBJ02
 10
165.70844067499999
 20
109.0099875075
 30
0.0
 42
0.03881818
  0
VERTEX
  5
FC6
  8
OBJ02
 10
174.95365226000001
 20
121.5039753125
 30
0.0
 42
-0.2037326
  0
VERTEX
  5
FC7
  8
OBJ02
 10
175.69001158750001
 20
122.0604087
 30
0.0
 42
-0.2037326
  0
VERTEX
  5
FC8
  8
OBJ02
 10
176.60163978750001
 20
121.9162657025
 30
0.0
 42
-0.2037326
  0
VERTEX
  5
FC9
  8
OBJ02
 10
177.130408045
 20
121.1597954075
 30
0.0
 42
-0.2037326
  0
VERTEX
  5
FCA
  8
OBJ02
 10
176.95258701500001
 20
120.25413385
 30
0.0
 42
0.00391426
  0
VERTEX
  5
FCB
  8
OBJ02
 10
173.07962787
 20
113.258267995
 30
0.0
 42
-0.03892132
  0
VERTEX
  5
FCC
  8
OBJ02
 10
163.95932665000001
 20
99.639865557500002
 30
0.0
 42
-0.02717072
  0
VERTEX
  5
FCD
  8
OBJ02
 10
152.59026994249999
 20
86.521694824999983
 30
0.0
 42
-0.0331126
  0
VERTEX
  5
FCE
  8
OBJ02
 10
139.3474101875
 20
74.778054580000003
 30
0.0
 42
-0.0515874
  0
VERTEX
  5
FCF
  8
OBJ02
 10
126.6040443325
 20
66.157542384999999
 30
0.0
 42
-0.32025419
  0
VERTEX
  5
FD0
  8
OBJ02
 10
120.85654433249999
 20
68.281461287499994
 30
0.0
 42
-0.40879534
  0
VERTEX
  5
FD1
  8
OBJ02
 10
121.85626994250001
 20
74.778054580000003
 30
0.0
  0
SEQEND
  5
FD2
  8
OBJ02
  0
POLYLINE
  5
39D
  8
OBJ02
 66
     1
 10
0.0
 20
0.0
 30
0.0
 70
     1
  0
VERTEX
  5
FD3
  8
OBJ02
 10
154.11585991250001
 20
69.775006237499994
 30
0.0
 42
0.27840688
  0
VERTEX
  5
FD4
  8
OBJ02
 10
156.15731294
 20
66.501162024999999
 30
0.0
 42
0.27840688
  0
VERTEX
  5
FD5
  8
OBJ02
 10
160.0052517325
 20
66.782148574999994
 30
0.0
 42
0.09359677
  0
VERTEX
  5
FD6
  8
OBJ02
 10
171.83022908999999
 20
81.649231409999999
 30
0.0
 42
0.02827123
  0
VERTEX
  5
FD7
  8
OBJ02
 10
179.07650591749999
 20
101.13908506750001
 30
0.0
 42
0.01981301
  0
VERTEX
  5
FD8
  8
OBJ02
 10
185.4079465925
 20
122.814110005
 30
0.0
 42
0.37638506
  0
VERTEX
  5
FD9
  8
OBJ02
 10
184.61219804500001
 20
124.6995787175
 30
0.0
 42
0.37638506
  0
VERTEX
  5
FDA
  8
OBJ02
 10
182.6390160325
 20
124.15665997000001
 30
0.0
 42
-0.04328025
  0
VERTEX
  5
FDB
  8
OBJ02
 10
169.58139982
 20
100.2647862875
 30
0.0
 42
0.08353683
  0
VERTEX
  5
FDC
  8
OBJ02
 10
157.71262787000001
 20
83.273877752499999
 30
0.0
 42
0.0881265
  0
VERTEX
  5
FDD
  8
OBJ02
 10
154.11585991250001
 20
69.775006237499994
 30
0.0
  0
SEQEND
  5
FDE
  8
OBJ02
  0
POLYLINE
  5
3AA
  8
OBJ02
 66
     1
 10
0.0
 20
0.0
 30
0.0
 70
     1
  0
VERTEX
  5
FDF
  8
OBJ02
 10
67.174109342500003
 20
86.242767247499998
 30
0.0
 42
-0.02717072
  0
VERTEX
  5
FE0
  8
OBJ02
 10
55.805052635000003
 20
99.360937980000017
 30
0.0
 42
-0.03892132
  0
VERTEX
  5
FE1
  8
OBJ02
 10
46.684751417500003
 20
112.97934042
 30
0.0
 42
0.00391426
  0
VERTEX
  5
FE2
  8
OBJ02
 10
42.811792269999991
 20
119.9752062725
 30
0.0
 42
-0.2037326
  0
VERTEX
  5
FE3
  8
OBJ02
 10
42.633971242500003
 20
120.88086783
 30
0.0
 42
-0.2037326
  0
VERTEX
  5
FE4
  8
OBJ02
 10
43.162739500000001
 20
121.637338125
 30
0.0
 42
-0.2037326
  0
VERTEX
  5
FE5
  8
OBJ02
 10
44.074367697500001
 20
121.781481125
 30
0.0
 42
-0.2037326
  0
VERTEX
  5
FE6
  8
OBJ02
 10
44.810727024999991
 20
121.225047735
 30
0.0
 42
0.03881818
  0
VERTEX
  5
FE7
  8
OBJ02
 10
54.0559386125
 20
108.7310599325
 30
0.0
 42
0.0474988
  0
VERTEX
  5
FE8
  8
OBJ02
 10
67.548914222500002
 20
94.738590419999994
 30
0.0
 42
-0.00186239
  0
VERTEX
  5
FE9
  8
OBJ02
 10
78.54294471
 20
86.242767247499998
 30
0.0
 42
-0.03767697
  0
VERTEX
  5
FEA
  8
OBJ02
 10
85.539548367500004
 20
81.495730662499994
 30
0.0
 42
0.02678518
  0
VERTEX
  5
FEB
  8
OBJ02
 10
97.908109342499998
 20
74.499127005000005
 30
0.0
 42
-0.40879534
  0
VERTEX
  5
FEC
  8
OBJ02
 10
98.907834952499996
 20
68.002533712499996
 30
0.0
 42
-0.32025419
  0
VERTEX
  5
FED
  8
OBJ02
 10
93.160334952499994
 20
65.878614810000002
 30
0.0
 42
-0.0515874
  0
VERTEX
  5
FEE
  8
OBJ02
 10
80.416969100000003
 20
74.499127005000005
 30
0.0
 42
-0.0331126
  0
VERTEX
  5
FEF
  8
OBJ02
 10
67.174109342500003
 20
86.242767247499998
 30
0.0
  0
SEQEND
  5
FF0
  8
OBJ02
  0
POLYLINE
  5
3BD
  8
OBJ02
 66
     1
 10
0.0
 20
0.0
 30
0.0
 70
     1
  0
VERTEX
  5
FF1
  8
OBJ02
 10
60.802426417500001
 20
106.85703554
 30
0.0
 42
0.02521587
  0
VERTEX
  5
FF2
  8
OBJ02
 10
68.462151879999993
 20
99.044714792500002
 30
0.0
 42
0.12572803
  0
VERTEX
  5
FF3
  8
OBJ02
 10
70.422664222500003
 20
97.987145297500007
 30
0.0
 42
0.21490203
  0
VERTEX
  5
FF4
  8
OBJ02
 10
71.380850525
 20
98.160330867499994
 30
0.0
 42
0.12795529
  0
VERTEX
  5
FF5
  8
OBJ02
 10
72.421377634999999
 20
99.360937980000017
 30
0.0
 42
0.17796873
  0
VERTEX
  5
FF6
  8
OBJ02
 10
72.679402949999997
 20
101.7560921175
 30
0.0
 42
0.06914614
  0
VERTEX
  5
FF7
  8
OBJ02
 10
70.422664222500003
 20
107.3572672475
 30
0.0
 42
0.02876839
  0
VERTEX
  5
FF8
  8
OBJ02
 10
66.321574444999996
 20
113.63600538999999
 30
0.0
 42
0.08210778
  0
VERTEX
  5
FF9
  8
OBJ02
 10
64.425564829999999
 20
115.477547735
 30
0.0
 42
0.00004987
  0
VERTEX
  5
FFA
  8
OBJ02
 10
61.833371862500002
 20
117.27726216249999
 30
0.0
 42
0.00001657
  0
VERTEX
  5
FFB
  8
OBJ02
 10
54.033321190000002
 20
122.69116551250001
 30
0.0
 42
0.00003057
  0
VERTEX
  5
FFC
  8
OBJ02
 10
48.753217075000002
 20
126.35527251000001
 30
0.0
 42
0.00015102
  0
VERTEX
  5
FFD
  8
OBJ02
 10
47.684255684999989
 20
127.096498955
 30
0.0
 42
0.3464823
  0
VERTEX
  5
FFE
  8
OBJ02
 10
46.397145312500001
 20
127.01777264
 30
0.0
 42
0.27400652
  0
VERTEX
  5
FFF
  8
OBJ02
 10
45.92304805749999
 20
125.52617643249999
 30
0.0
 42
0.09770726
  0
VERTEX
  5
1000
  8
OBJ02
 10
46.676000482500001
 20
123.8488248525
 30
0.0
 42
0.02125112
  0
VERTEX
  5
1001
  8
OBJ02
 10
51.807109342499999
 20
117.2268831025
 30
0.0
 42
0.00320403
  0
VERTEX
  5
1002
  8
OBJ02
 10
55.844282087499998
 20
112.51210935749999
 30
0.0
 42
0.00264434
  0
VERTEX
  5
1003
  8
OBJ02
 10
60.802426417500001
 20
106.85703554
 30
0.0
  0
SEQEND
  5
1004
  8
OBJ02
  0
POLYLINE
  5
3D2
  8
OBJ02
 66
     1
 10
0.0
 20
0.0
 30
0.0
 70
     1
  0
VERTEX
  5
1005
  8
OBJ02
 10
78.793060562500003
 20
102.23468798
 30
0.0
 42
-0.10532183
  0
VERTEX
  5
1006
  8
OBJ02
 10
73.836288675000006
 20
108.205727485
 30
0.0
 42
-0.31354729
  0
VERTEX
  5
1007
  8
OBJ02
 10
74.022703609999994
 20
109.5761808725
 30
0.0
 42
-0.31354729
  0
VERTEX
  5
1008
  8
OBJ02
 10
75.372367172500006
 20
109.8783419
 30
0.0
 42
0.01648086
  0
VERTEX
  5
1009
  8
OBJ02
 10
84.040328854999984
 20
106.107425785
 30
0.0
 42
0.0026926
  0
VERTEX
  5
100A
  8
OBJ02
 10
89.537713002499999
 20
104.358828225
 30
0.0
 42
-0.00548822
  0
VERTEX
  5
100B
  8
OBJ02
 10
94.784981294999994
 20
102.984297735
 30
0.0
 42
-0.38912592
  0
VERTEX
  5
100C
  8
OBJ02
 10
97.033810562499994
 20
98.611328224999994
 30
0.0
 42
-0.38676795
  0
VERTEX
  5
100D
  8
OBJ02
 10
92.425354967499985
 20
95.830890302499995
 30
0.0
 42
-0.04190966
  0
VERTEX
  5
100E
  8
OBJ02
 10
85.539548367500004
 20
98.611328224999994
 30
0.0
 42
-0.02122504
  0
VERTEX
  5
100F
  8
OBJ02
 10
78.793060562500003
 20
102.23468798
 30
0.0
  0
SEQEND
  5
1010
  8
OBJ02
  0
POLYLINE
  5
3DF
  8
OBJ02
 66
     1
 10
0.0
 20
0.0
 30
0.0
 70
     1
  0
VERTEX
  5
1011
  8
OBJ02
 10
64.072171372499994
 20
120.03913897
 30
0.0
 42
0.04580683
  0
VERTEX
  5
1012
  8
OBJ02
 10
65.050190439999994
 20
119.22559651749999
 30
0.0
 42
0.0169972
  0
VERTEX
  5
1013
  8
OBJ02
 10
67.925432527500007
 20
117.389514065
 30
0.0
 42
0.01564615
  0
VERTEX
  5
1014
  8
OBJ02
 10
71.172273977499984
 20
115.602974565
 30
0.0
 42
0.01126777
  0
VERTEX
  5
1015
  8
OBJ02
 10
76.761311572500006
 20
112.908656695
 30
0.0
 42
0.01601459
  0
VERTEX
  5
1016
  8
OBJ02
 10
80.791773977499986
 20
111.2300050525
 30
0.0
 42
0.014185
  0
VERTEX
  5
1017
  8
OBJ02
 10
83.346878372499987
 20
110.342675965
 30
0.0
 42
0.0080511
  0
VERTEX
  5
1018
  8
OBJ02
 10
87.913066659999998
 20
108.981175785
 30
0.0
 42
0.02572702
  0
VERTEX
  5
1019
  8
OBJ02
 10
89.316587892499996
 20
108.6640295425
 30
0.0
 42
0.01651191
  0
VERTEX
  5
101A
  8
OBJ02
 10
91.536426417499996
 20
108.3562550525
 30
0.0
 42
0.21043872
  0
VERTEX
  5
101B
  8
OBJ02
 10
94.099903612500015
 20
109.177623735
 30
0.0
 42
0.15663096
  0
VERTEX
  5
101C
  8
OBJ02
 10
95.9093959275
 20
112.2297306625
 30
0.0
 42
0.15728058
  0
VERTEX
  5
101D
  8
OBJ02
 10
95.600889109999983
 20
115.74310789250001
 30
0.0
 42
0.18999839
  0
VERTEX
  5
101E
  8
OBJ02
 10
93.535139830000006
 20
117.851803835
 30
0.0
 42
0.0242195
  0
VERTEX
  5
101F
  8
OBJ02
 10
91.598630827500003
 20
118.6067732975
 30
0.0
 42
0.05995443
  0
VERTEX
  5
1020
  8
OBJ02
 10
90.773861097499989
 20
118.7770046425
 30
0.0
 42
0.02372504
  0
VERTEX
  5
1021
  8
OBJ02
 10
88.06243388
 20
118.87556440749999
 30
0.0
 42
-0.02549685
  0
VERTEX
  5
1022
  8
OBJ02
 10
85.539548367500004
 20
118.9762184675
 30
0.0
 42
-0.00690234
  0
VERTEX
  5
1023
  8
OBJ02
 10
83.765274222499997
 20
119.16259927999999
 30
0.0
 42
-0.00140168
  0
VERTEX
  5
1024
  8
OBJ02
 10
75.045011782499984
 20
120.22532212749999
 30
0.0
 42
-0.0558333
  0
VERTEX
  5
1025
  8
OBJ02
 10
67.735650897499994
 20
121.98018235000001
 30
0.0
 42
0.12894944
  0
VERTEX
  5
1026
  8
OBJ02
 10
64.450585274999995
 20
122.27892974
 30
0.0
 42
0.22369136
  0
VERTEX
  5
1027
  8
OBJ02
 10
63.555748375
 20
121.658918465
 30
0.0
 42
0.26581593
  0
VERTEX
  5
1028
  8
OBJ02
 10
63.550970927500003
 20
120.72481603
 30
0.0
 42
0.0678279
  0
VERTEX
  5
1029
  8
OBJ02
 10
64.072171372499994
 20
120.03913897
 30
0.0
  0
SEQEND
  5
102A
  8
OBJ02
  0
POLYLINE
  5
3FA
  8
OBJ02
 66
     1
 10
0.0
 20
0.0
 30
0.0
 70
     1
  0
VERTEX
  5
102B
  8
OBJ02
 10
95.534591049999989
 20
22.151354442500001
 30
0.0
 42
-0.04081657
  0
VERTEX
  5
102C
  8
OBJ02
 10
88.038493489999993
 20
28.897842247500002
 30
0.0
 42
-0.02018002
  0
VERTEX
  5
102D
  8
OBJ02
 10
81.041889830000002
 20
36.393939809999999
 30
0.0
 42
-0.00508104
  0
VERTEX
  5
102E
  8
OBJ02
 10
73.545792270000007
 20
45.139436150000002
 30
0.0
 42
-0.03995948
  0
VERTEX
  5
102F
  8
OBJ02
 10
64.050759952500002
 20
59.257037369999999
 30
0.0
 42
-0.35226993
  0
VERTEX
  5
1030
  8
OBJ02
 10
64.334553462499997
 20
60.82283024249999
 30
0.0
 42
-0.35226993
  0
VERTEX
  5
1031
  8
OBJ02
 10
65.924784342500004
 20
60.881241029999998
 30
0.0
 42
-0.01544576
  0
VERTEX
  5
1032
  8
OBJ02
 10
72.920871537500005
 20
52.260728835000002
 30
0.0
 42
0.01037489
  0
VERTEX
  5
1033
  8
OBJ02
 10
80.416969100000003
 20
44.389826394999993
 30
0.0
 42
0.00632953
  0
VERTEX
  5
1034
  8
OBJ02
 10
90.287322757499993
 20
35.64433005250001
 30
0.0
 42
0.00179301
  0
VERTEX
  5
1035
  8
OBJ02
 10
97.033810562499994
 20
30.39706176
 30
0.0
 42
-0.04405082
  0
VERTEX
  5
1036
  8
OBJ02
 10
100.1569386125
 20
27.898411759999998
 30
0.0
 42
-0.40714039
  0
VERTEX
  5
1037
  8
OBJ02
 10
99.157213002500001
 20
22.5261593225
 30
0.0
 42
-0.24847629
  0
VERTEX
  5
1038
  8
OBJ02
 10
95.534591049999989
 20
22.151354442500001
 30
0.0
  0
SEQEND
  5
1039
  8
OBJ02
  0
POLYLINE
  5
40A
  8
OBJ02
 66
     1
 10
0.0
 20
0.0
 30
0.0
 70
     1
  0
VERTEX
  5
103A
  8
OBJ02
 10
90.911505684999995
 20
40.641777615000002
 30
0.0
 42
0.0844086
  0
VERTEX
  5
103B
  8
OBJ02
 10
95.284475197500015
 20
37.518354442499998
 30
0.0
 42
0.28041227
  0
VERTEX
  5
103C
  8
OBJ02
 10
99.657444709999993
 20
38.892663589999998
 30
0.0
 42
0.40780193
  0
VERTEX
  5
103D
  8
OBJ02
 10
99.157213002500001
 20
43.890037370000002
 30
0.0
 42
0.02346671
  0
VERTEX
  5
103E
  8
OBJ02
 10
88.788103244999988
 20
50.761509322499997
 30
0.0
 42
-0.01820813
  0
VERTEX
  5
103F
  8
OBJ02
 10
80.416969100000003
 20
57.507997127499998
 30
0.0
 42
0.01256514
  0
VERTEX
  5
1040
  8
OBJ02
 10
71.172273977499984
 20
66.128509322499994
 30
0.0
 42
0.38641759
  0
VERTEX
  5
1041
  8
OBJ02
 10
68.611911465000006
 20
65.945972222500004
 30
0.0
 42
0.38641759
  0
VERTEX
  5
1042
  8
OBJ02
 10
68.548639829999999
 20
63.379891030000003
 30
0.0
 42
0.02677421
  0
VERTEX
  5
1043
  8
OBJ02
 10
74.545517880000006
 20
56.258598345000003
 30
0.0
 42
0.01899863
  0
VERTEX
  5
1044
  8
OBJ02
 10
81.666810562500004
 20
48.762500785
 30
0.0
 42
0.01665519
  0
VERTEX
  5
1045
  8
OBJ02
 10
90.911505684999995
 20
40.641777615000002
 30
0.0
  0
SEQEND
  5
1046
  8
OBJ02
  0
POLYLINE
  5
418
  8
OBJ02
 66
     1
 10
0.0
 20
0.0
 30
0.0
 70
     1
  0
VERTEX
  5
1047
  8
OBJ02
 10
77.418530075000007
 20
65.253915419999998
 30
0.0
 42
-0.01610195
  0
VERTEX
  5
1048
  8
OBJ02
 10
68.923444709999998
 20
73.624828225000002
 30
0.0
 42
-0.09343238
  0
VERTEX
  5
1049
  8
OBJ02
 10
68.048408124999995
 20
75.124047735000005
 30
0.0
 42
-0.32028952
  0
VERTEX
  5
104A
  8
OBJ02
 10
68.878783655000007
 20
77.131210300000006
 30
0.0
 42
-0.32028952
  0
VERTEX
  5
104B
  8
OBJ02
 10
71.046847147500003
 20
76.998072127499995
 30
0.0
 42
-0.00195373
  0
VERTEX
  5
104C
  8
OBJ02
 10
79.16786544
 20
70.500962369999996
 30
0.0
 42
0.00409606
  0
VERTEX
  5
104D
  8
OBJ02
 10
87.913066659999998
 20
64.504305662500002
 30
0.0
 42
0.00632359
  0
VERTEX
  5
104E
  8
OBJ02
 10
95.534591049999989
 20
60.131631272500002
 30
0.0
 42
-0.04216006
  0
VERTEX
  5
104F
  8
OBJ02
 10
99.032523977500006
 20
58.132622734999998
 30
0.0
 42
-0.40164752
  0
VERTEX
  5
1050
  8
OBJ02
 10
98.907834952499996
 20
52.885354442500002
 30
0.0
 42
-0.25816008
  0
VERTEX
  5
1051
  8
OBJ02
 10
94.534865440000004
 20
52.010834322500003
 30
0.0
 42
-0.06128981
  0
VERTEX
  5
1052
  8
OBJ02
 10
85.539548367500004
 20
58.382517247499997
 30
0.0
 42
0.00966672
  0
VERTEX
  5
1053
  8
OBJ02
 10
77.418530075000007
 20
65.253915419999998
 30
0.0
  0
SEQEND
  5
1054
  8
OBJ02
  0
POLYLINE
  5
427
  8
OBJ02
 66
     1
 10
0.0
 20
0.0
 30
0.0
 70
     1
  0
VERTEX
  5
1055
  8
OBJ02
 10
84.415133732499996
 20
86.742998955000004
 30
0.0
 42
0.03609453
  0
VERTEX
  5
1056
  8
OBJ02
 10
89.374347017499986
 20
82.892690845000004
 30
0.0
 42
0.06180051
  0
VERTEX
  5
1057
  8
OBJ02
 10
92.660841050000002
 20
81.245614810000006
 30
0.0
 42
0.15072553
  0
VERTEX
  5
1058
  8
OBJ02
 10
94.852693512499997
 20
81.153642594999994
 30
0.0
 42
0.1134552
  0
VERTEX
  5
1059
  8
OBJ02
 10
97.408615440000005
 20
82.494718467499993
 30
0.0
 42
0.1759261
  0
VERTEX
  5
105A
  8
OBJ02
 10
99.194107514999999
 20
85.661750905000005
 30
0.0
 42
0.22160363
  0
VERTEX
  5
105B
  8
OBJ02
 10
98.407603245000004
 20
88.491596517499985
 30
0.0
 42
0.05505239
  0
VERTEX
  5
105C
  8
OBJ02
 10
96.352456367499997
 20
90.419852055000007
 30
0.0
 42
0.07009173
  0
VERTEX
  5
105D
  8
OBJ02
 10
94.410176417499983
 20
91.490035539999994
 30
0.0
 42
0.02516717
  0
VERTEX
  5
105E
  8
OBJ02
 10
90.896198327500016
 20
92.628565039999998
 30
0.0
 42
-0.03539696
  0
VERTEX
  5
105F
  8
OBJ02
 10
88.413298367500005
 20
93.489486760000005
 30
0.0
 42
-0.00592493
  0
VERTEX
  5
1060
  8
OBJ02
 10
86.393307094999983
 20
94.382807940000006
 30
0.0
 42
-0.00318433
  0
VERTEX
  5
1061
  8
OBJ02
 10
82.665798367500003
 20
96.113120907500004
 30
0.0
 42
-0.04742033
  0
VERTEX
  5
1062
  8
OBJ02
 10
80.122315540000017
 20
97.623064470000003
 30
0.0
 42
0.06763394
  0
VERTEX
  5
1063
  8
OBJ02
 10
78.293566659999996
 20
98.611328224999994
 30
0.0
 42
0.20190421
  0
VERTEX
  5
1064
  8
OBJ02
 10
77.280018137499994
 20
98.572726142500002
 30
0.0
 42
0.16870933
  0
VERTEX
  5
1065
  8
OBJ02
 10
76.419542269999994
 20
97.737029442500003
 30
0.0
 42
0.22684294
  0
VERTEX
  5
1066
  8
OBJ02
 10
76.389079065000004
 20
96.182926642499993
 30
0.0
 42
0.07195903
  0
VERTEX
  5
1067
  8
OBJ02
 10
78.917749587499998
 20
92.239645297500005
 30
0.0
 42
0.0178989
  0
VERTEX
  5
1068
  8
OBJ02
 10
81.172179552499998
 20
89.818085734999997
 30
0.0
 42
0.01324886
  0
VERTEX
  5
1069
  8
OBJ02
 10
84.415133732499996
 20
86.742998955000004
 30
0.0
  0
SEQEND
  5
106A
  8
OBJ02
  0
POLYLINE
  5
43E
  8
OBJ02
 66
     1
 10
0.0
 20
0.0
 30
0.0
 70
     1
  0
VERTEX
  5
106B
  8
OBJ02
 10
124.229788235
 20
60.410558850000001
 30
0.0
 42
0.00632359
  0
VERTEX
  5
106C
  8
OBJ02
 10
131.85131262499999
 20
64.783233240000001
 30
0.0
 42
0.00409606
  0
VERTEX
  5
106D
  8
OBJ02
 10
140.596513845
 20
70.779889947499996
 30
0.0
 42
-0.00195373
  0
VERTEX
  5
106E
  8
OBJ02
 10
148.7175321375
 20
77.276999702500007
 30
0.0
 42
-0.32028952
  0
VERTEX
  5
106F
  8
OBJ02
 10
150.88559563000001
 20
77.410137875000004
 30
0.0
 42
-0.32028952
  0
VERTEX
  5
1070
  8
OBJ02
 10
151.71597116250001
 20
75.402975312500004
 30
0.0
 42
-0.09343238
  0
VERTEX
  5
1071
  8
OBJ02
 10
150.84093457750001
 20
73.903755799999999
 30
0.0
 42
-0.01610195
  0
VERTEX
  5
1072
  8
OBJ02
 10
142.34584921250001
 20
65.532842994999996
 30
0.0
 42
0.00966672
  0
VERTEX
  5
1073
  8
OBJ02
 10
134.22483091749999
 20
58.661444824999997
 30
0.0
 42
-0.06128981
  0
VERTEX
  5
1074
  8
OBJ02
 10
125.229513845
 20
52.2897618975
 30
0.0
 42
-0.25816008
  0
VERTEX
  5
1075
  8
OBJ02
 10
120.85654433249999
 20
53.164282020000002
 30
0.0
 42
-0.40164752
  0
VERTEX
  5
1076
  8
OBJ02
 10
120.73185531
 20
58.411550312499998
 30
0.0
 42
-0.04216006
  0
VERTEX
  5
1077
  8
OBJ02
 10
124.229788235
 20
60.410558850000001
 30
0.0
  0
SEQEND
  5
1078
  8
OBJ02
  0
POLYLINE
  5
44D
  8
OBJ02
 66
     1
 10
0.0
 20
0.0
 30
0.0
 70
     1
  0
VERTEX
  5
1079
  8
OBJ02
 10
122.7305687225
 20
30.675989337499999
 30
0.0
 42
0.04405082
  0
VERTEX
  5
107A
  8
OBJ02
 10
119.60744067500001
 20
28.177339337500001
 30
0.0
 42
0.40714039
  0
VERTEX
  5
107B
  8
OBJ02
 10
120.60716628500001
 20
22.805086897500001
 30
0.0
 42
0.24847629
  0
VERTEX
  5
107C
  8
OBJ02
 10
124.229788235
 20
22.43028202
 30
0.0
 42
0.04081657
  0
VERTEX
  5
107D
  8
OBJ02
 10
131.72588579750001
 20
29.176769825000001
 30
0.0
 42
0.02018002
  0
VERTEX
  5
107E
  8
OBJ02
 10
138.72248945499999
 20
36.672867385000004
 30
0.0
 42
0.00508104
  0
VERTEX
  5
107F
  8
OBJ02
 10
146.218587015
 20
45.418363727500001
 30
0.0
 42
0.03995948
  0
VERTEX
  5
1080
  8
OBJ02
 10
155.7136193325
 20
59.535964947499998
 30
0.0
 42
0.35226993
  0
VERTEX
  5
1081
  8
OBJ02
 10
155.42982582499999
 20
61.101757820000003
 30
0.0
 42
0.35226993
  0
VERTEX
  5
1082
  8
OBJ02
 10
153.83959494250001
 20
61.160168605000003
 30
0.0
 42
0.01544576
  0
VERTEX
  5
1083
  8
OBJ02
 10
146.84350774750001
 20
52.539656409999999
 30
0.0
 42
-0.01037489
  0
VERTEX
  5
1084
  8
OBJ02
 10
139.3474101875
 20
44.66875396999999
 30
0.0
 42
-0.00632953
  0
VERTEX
  5
1085
  8
OBJ02
 10
129.4770565275
 20
35.923257630000002
 30
0.0
 42
-0.00179301
  0
VERTEX
  5
1086
  8
OBJ02
 10
122.7305687225
 20
30.675989337499999
 30
0.0
  0
SEQEND
  5
1087
  8
OBJ02
  0
POLYLINE
  5
45D
  8
OBJ02
 66
     1
 10
0.0
 20
0.0
 30
0.0
 70
     1
  0
VERTEX
  5
1088
  8
OBJ02
 10
120.60716628500001
 20
44.168964947500001
 30
0.0
 42
-0.02346671
  0
VERTEX
  5
1089
  8
OBJ02
 10
130.97627603999999
 20
51.040436897500001
 30
0.0
 42
0.01820813
  0
VERTEX
  5
108A
  8
OBJ02
 10
139.3474101875
 20
57.786924702500002
 30
0.0
 42
-0.01256514
  0
VERTEX
  5
108B
  8
OBJ02
 10
148.59210530999999
 20
66.407436897500006
 30
0.0
 42
-0.38641759
  0
VERTEX
  5
108C
  8
OBJ02
 10
151.15246782
 20
66.224899797500001
 30
0.0
 42
-0.38641759
  0
VERTEX
  5
108D
  8
OBJ02
 10
151.215739455
 20
63.658818605
 30
0.0
 42
-0.02677421
  0
VERTEX
  5
108E
  8
OBJ02
 10
145.21886140749999
 20
56.537525922500002
 30
0.0
 42
-0.01899863
  0
VERTEX
  5
108F
  8
OBJ02
 10
138.0975687225
 20
49.041428359999998
 30
0.0
 42
-0.01665519
  0
VERTEX
  5
1090
  8
OBJ02
 10
128.85287360250001
 20
40.920705189999993
 30
0.0
 42
-0.0844086
  0
VERTEX
  5
1091
  8
OBJ02
 10
124.47990409000001
 20
37.797282019999997
 30
0.0
 42
-0.28041227
  0
VERTEX
  5
1092
  8
OBJ02
 10
120.1069345775
 20
39.171591165000002
 30
0.0
 42
-0.40780193
  0
VERTEX
  5
1093
  8
OBJ02
 10
120.60716628500001
 20
44.168964947500001
 30
0.0
  0
SEQEND
  5
1094
  8
OBJ02
  0
POLYLINE
  5
46B
  8
OBJ02
 66
     1
 10
0.0
 20
0.0
 30
0.0
 70
     1
  0
VERTEX
  5
1095
  8
OBJ02
 10
123.1232180825
 20
9.3161605499999993
 30
0.0
 42
-0.0399019
  0
VERTEX
  5
1096
  8
OBJ02
 10
122.23107482
 20
9.9368106775000005
 30
0.0
 42
-0.07395926
  0
VERTEX
  5
1097
  8
OBJ02
 10
121.37010748
 20
10.888173460000001
 30
0.0
 42
-0.09514259
  0
VERTEX
  5
1098
  8
OBJ02
 10
120.9819711625
 20
11.810835067499999
 30
0.0
 42
-0.05216813
  0
VERTEX
  5
1099
  8
OBJ02
 10
120.8983157175
 20
12.610439935
 30
0.0
 42
-0.04396679
  0
VERTEX
  5
109A
  8
OBJ02
 10
120.9819711625
 20
13.5599490925
 30
0.0
 42
-0.03647841
  0
VERTEX
  5
109B
  8
OBJ02
 10
121.20997606
 20
14.4578371375
 30
0.0
 42
-0.05128536
  0
VERTEX
  5
109C
  8
OBJ02
 10
121.48146506499999
 20
15.059168605
 30
0.0
 42
-0.08281944
  0
VERTEX
  5
109D
  8
OBJ02
 10
122.67552239
 20
16.500550659999998
 30
0.0
 42
-0.01085258
  0
VERTEX
  5
109E
  8
OBJ02
 10
133.5999101875
 20
25.553705189999999
 30
0.0
 42
-0.00157372
  0
VERTEX
  5
109F
  8
OBJ02
 10
137.81719870750001
 20
28.87536442
 30
0.0
 42
-0.00437763
  0
VERTEX
  5
10A0
  8
OBJ02
 10
139.3474101875
 20
30.0513637275
 30
0.0
 42
-0.03646638
  0
VERTEX
  5
10A1
  8
OBJ02
 10
143.17495371749999
 20
32.524150079999998
 30
0.0
 42
-0.0550978
  0
VERTEX
  5
10A2
  8
OBJ02
 10
145.96847116250001
 20
33.67442836
 30
0.0
 42
-0.04749704
  0
VERTEX
  5
10A3
  8
OBJ02
 10
146.86847893500001
 20
33.843416495
 30
0.0
 42
-0.09183081
  0
VERTEX
  5
10A4
  8
OBJ02
 10
147.34300164999999
 20
33.799412507500001
 30
0.0
 42
-0.1281399
  0
VERTEX
  5
10A5
  8
OBJ02
 10
147.80380215
 20
33.529107484999997
 30
0.0
 42
-0.12215184
  0
VERTEX
  5
10A6
  8
OBJ02
 10
148.09261140749999
 20
33.0498027525
 30
0.0
 42
-0.07493968
  0
VERTEX
  5
10A7
  8
OBJ02
 10
148.14784609750001
 20
32.683344707499998
 30
0.0
 42
-0.05419071
  0
VERTEX
  5
10A8
  8
OBJ02
 10
148.09261140749999
 20
32.175208849999997
 30
0.0
 42
-0.10318604
  0
VERTEX
  5
10A9
  8
OBJ02
 10
147.28739410750001
 20
30.3826832775
 30
0.0
 42
-0.02621704
  0
VERTEX
  5
10AA
  8
OBJ02
 10
142.47053823499999
 20
24.4292905575
 30
0.0
 42
-0.00391844
  0
VERTEX
  5
10AB
  8
OBJ02
 10
137.50050780749999
 20
18.9918857525
 30
0.0
 42
-0.01323243
  0
VERTEX
  5
10AC
  8
OBJ02
 10
135.974166285
 20
17.43290824
 30
0.0
 42
-0.00884469
  0
VERTEX
  5
10AD
  8
OBJ02
 10
133.81620498250001
 20
15.41519693
 30
0.0
 42
-0.00662095
  0
VERTEX
  5
10AE
  8
OBJ02
 10
130.85158701500001
 20
12.8103393375
 30
0.0
 42
-0.0212466
  0
VERTEX
  5
10AF
  8
OBJ02
 10
127.611138035
 20
10.268488485000001
 30
0.0
 42
-0.04633714
  0
VERTEX
  5
10B0
  8
OBJ02
 10
125.9791236025
 20
9.3121112875000005
 30
0.0
 42
-0.0365038
  0
VERTEX
  5
10B1
  8
OBJ02
 10
125.25050323249999
 20
9.0341183375000007
 30
0.0
 42
-0.05385633
  0
VERTEX
  5
10B2
  8
OBJ02
 10
124.73001994249999
 20
8.9373064099999997
 30
0.0
 42
-0.05020881
  0
VERTEX
  5
10B3
  8
OBJ02
 10
124.314896675
 20
8.9472878100000006
 30
0.0
 42
-0.03494732
  0
VERTEX
  5
10B4
  8
OBJ02
 10
123.73029433249999
 20
9.0622905575000008
 30
0.0
 42
-0.06608511
  0
VERTEX
  5
10B5
  8
OBJ02
 10
123.1232180825
 20
9.3161605499999993
 30
0.0
  0
SEQEND
  5
10B6
  8
OBJ02
  0
POLYLINE
  5
48E
  8
OBJ02
 66
     1
 10
0.0
 20
0.0
 30
0.0
 70
     1
  0
VERTEX
  5
10B7
  8
OBJ02
 10
125.35420286999999
 20
91.768963117499993
 30
0.0
 42
-0.02516717
  0
VERTEX
  5
10B8
  8
OBJ02
 10
128.86818095749999
 20
92.907492617499983
 30
0.0
 42
0.03539696
  0
VERTEX
  5
10B9
  8
OBJ02
 10
131.35108091750001
 20
93.768414337500005
 30
0.0
 42
0.00592493
  0
VERTEX
  5
10BA
  8
OBJ02
 10
133.37107219250001
 20
94.661735517500006
 30
0.0
 42
0.00318433
  0
VERTEX
  5
10BB
  8
OBJ02
 10
137.09858091749999
 20
96.392048482500016
 30
0.0
 42
0.04742033
  0
VERTEX
  5
10BC
  8
OBJ02
 10
139.642063745
 20
97.901992047500016
 30
0.0
 42
-0.06763394
  0
VERTEX
  5
10BD
  8
OBJ02
 10
141.47081262500001
 20
98.890255800000006
 30
0.0
 42
-0.20190421
  0
VERTEX
  5
10BE
  8
OBJ02
 10
142.48436115000001
 20
98.851653720000016
 30
0.0
 42
-0.16870933
  0
VERTEX
  5
10BF
  8
OBJ02
 10
143.344837015
 20
98.015957020000002
 30
0.0
 42
-0.22684294
  0
VERTEX
  5
10C0
  8
OBJ02
 10
143.37530022000001
 20
96.461854220000021
 30
0.0
 42
-0.07195903
  0
VERTEX
  5
10C1
  8
OBJ02
 10
140.84662969999999
 20
92.518572872500002
 30
0.0
 42
-0.0178989
  0
VERTEX
  5
10C2
  8
OBJ02
 10
138.59219973250001
 20
90.097013312499996
 30
0.0
 42
-0.01324886
  0
VERTEX
  5
10C3
  8
OBJ02
 10
135.34924555250001
 20
87.021926532500004
 30
0.0
 42
-0.03609453
  0
VERTEX
  5
10C4
  8
OBJ02
 10
130.39003227000001
 20
83.171618420000001
 30
0.0
 42
-0.06180051
  0
VERTEX
  5
10C5
  8
OBJ02
 10
127.103538235
 20
81.524542385000004
 30
0.0
 42
-0.15072553
  0
VERTEX
  5
10C6
  8
OBJ02
 10
124.911685775
 20
81.432570172499979
 30
0.0
 42
-0.1134552
  0
VERTEX
  5
10C7
  8
OBJ02
 10
122.355763845
 20
82.773646045000007
 30
0.0
 42
-0.1759261
  0
VERTEX
  5
10C8
  8
OBJ02
 10
120.57027177250001
 20
85.940678479999988
 30
0.0
 42
-0.22160363
  0
VERTEX
  5
10C9
  8
OBJ02
 10
121.35677604
 20
88.770524092499997
 30
0.0
 42
-0.05505239
  0
VERTEX
  5
10CA
  8
OBJ02
 10
123.41192291749999
 20
90.698779630000004
 30
0.0
 42
-0.07009173
  0
VERTEX
  5
10CB
  8
OBJ02
 10
125.35420286999999
 20
91.768963117499993
 30
0.0
  0
SEQEND
  5
10CC
  8
OBJ02
  0
POLYLINE
  5
4A5
  8
OBJ02
 66
     1
 10
0.0
 20
0.0
 30
0.0
 70
     1
  0
VERTEX
  5
10CD
  8
OBJ02
 10
58.310182902500003
 20
127.0563953525
 30
0.0
 42
-0.35946637
  0
VERTEX
  5
10CE
  8
OBJ02
 10
57.383750974999998
 20
128.4264030075
 30
0.0
 42
-0.35946637
  0
VERTEX
  5
10CF
  8
OBJ02
 10
58.5535971475
 20
129.59544407749999
 30
0.0
 42
0.05826523
  0
VERTEX
  5
10D0
  8
OBJ02
 10
73.0462983675
 20
130.969974565
 30
0.0
 42
0.03974909
  0
VERTEX
  5
10D1
  8
OBJ02
 10
84.040328854999984
 20
134.09310261499999
 30
0.0
 42
-0.04717135
  0
VERTEX
  5
10D2
  8
OBJ02
 10
88.662676417499995
 20
135.84243798
 30
0.0
 42
-0.34846621
  0
VERTEX
  5
10D3
  8
OBJ02
 10
95.034359342499997
 20
132.71857212750001
 30
0.0
 42
-0.37660097
  0
VERTEX
  5
10D4
  8
OBJ02
 10
93.160334952499994
 20
124.22348676
 30
0.0
 42
-0.13482146
  0
VERTEX
  5
10D5
  8
OBJ02
 10
88.163182515000003
 20
123.09907212749999
 30
0.0
 42
-0.032358
  0
VERTEX
  5
10D6
  8
OBJ02
 10
73.421103244999998
 20
124.09805993249999
 30
0.0
 42
-0.04051424
  0
VERTEX
  5
10D7
  8
OBJ02
 10
58.310182902500003
 20
127.0563953525
 30
0.0
  0
SEQEND
  5
10D8
  8
OBJ02
  0
POLYLINE
  5
4B2
  8
OBJ02
 66
     1
 10
0.0
 20
0.0
 30
0.0
 70
     1
  0
VERTEX
  5
10D9
  8
OBJ02
 10
154.33531203499999
 20
137.41000126750001
 30
0.0
 42
0.08258063
  0
VERTEX
  5
10DA
  8
OBJ02
 10
156.7426963225
 20
135.55319758749999
 30
0.0
 42
0.34050708
  0
VERTEX
  5
10DB
  8
OBJ02
 10
158.48602718750001
 20
135.84202103499999
 30
0.0
 42
-0.03645657
  0
VERTEX
  5
10DC
  8
OBJ02
 10
166.05282352250001
 20
142.1638857975
 30
0.0
 42
-0.20072046
  0
VERTEX
  5
10DD
  8
OBJ02
 10
170.7679400225
 20
142.99880705000001
 30
0.0
 42
-0.01365913
  0
VERTEX
  5
10DE
  8
OBJ02
 10
179.74119651999999
 20
140.72440856
 30
0.0
 42
0.26743495
  0
VERTEX
  5
10DF
  8
OBJ02
 10
182.24205588250001
 20
141.35522634500001
 30
0.0
 42
0.26743495
  0
VERTEX
  5
10E0
  8
OBJ02
 10
182.95094255250001
 20
143.83508689249999
 30
0.0
 42
0.03094295
  0
VERTEX
  5
10E1
  8
OBJ02
 10
181.97216553000001
 20
146.932451305
 30
0.0
  0
VERTEX
  5
10E2
  8
OBJ02
 10
171.79665423500001
 20
173.32845355750001
 30
0.0
 42
-0.29753822
  0
VERTEX
  5
10E3
  8
OBJ02
 10
173.03077080750001
 20
178.95938988500001
 30
0.0
 42
0.03487403
  0
VERTEX
  5
10E4
  8
OBJ02
 10
176.00853162499999
 20
182.38988761499999
 30
0.0
 42
0.31109865
  0
VERTEX
  5
10E5
  8
OBJ02
 10
175.78950753000001
 20
183.48824367
 30
0.0
 42
0.31109865
  0
VERTEX
  5
10E6
  8
OBJ02
 10
174.68520784
 20
183.67500493
 30
0.0
 42
0.04694483
  0
VERTEX
  5
10E7
  8
OBJ02
 10
169.96439756250001
 20
179.95577267749999
 30
0.0
 42
0.25452743
  0
VERTEX
  5
10E8
  8
OBJ02
 10
168.7493379325
 20
173.02063985749999
 30
0.0
  0
VERTEX
  5
10E9
  8
OBJ02
 10
177.16893514750001
 20
148.03505229500001
 30
0.0
 42
-0.31503627
  0
VERTEX
  5
10EA
  8
OBJ02
 10
176.86403594500001
 20
146.63558811249999
 30
0.0
 42
-0.31503627
  0
VERTEX
  5
10EB
  8
OBJ02
 10
175.4448722825
 20
146.44209905
 30
0.0
 42
-0.03115372
  0
VERTEX
  5
10EC
  8
OBJ02
 10
168.38389542749999
 20
149.713834085
 30
0.0
 42
0.05497412
  0
VERTEX
  5
10ED
  8
OBJ02
 10
164.7280966825
 20
150.9170298425
 30
0.0
 42
0.19035588
  0
VERTEX
  5
10EE
  8
OBJ02
 10
159.9693613375
 20
149.80632761499999
 30
0.0
 42
0.02099438
  0
VERTEX
  5
10EF
  8
OBJ02
 10
157.32948472999999
 20
147.79289829250001
 30
0.0
 42
-0.19704981
  0
VERTEX
  5
10F0
  8
OBJ02
 10
156.25732824249999
 20
147.4540934275
 30
0.0
 42
-0.03409156
  0
VERTEX
  5
10F1
  8
OBJ02
 10
153.77421040249999
 20
147.84864018249999
 30
0.0
 42
0.23494469
  0
VERTEX
  5
10F2
  8
OBJ02
 10
151.0723837525
 20
146.86377833500001
 30
0.0
 42
0.27712007
  0
VERTEX
  5
10F3
  8
OBJ02
 10
150.21395190000001
 20
142.53077948000001
 30
0.0
 42
0.04199174
  0
VERTEX
  5
10F4
  8
OBJ02
 10
153.29964899250001
 20
138.51229810500001
 30
0.0
  0
VERTEX
  5
10F5
  8
OBJ02
 10
158.25170964
 20
143.165006895
 30
0.0
  0
VERTEX
  5
10F6
  8
OBJ02
 10
159.28737268
 20
142.0627100575
 30
0.0
  0
VERTEX
  5
10F7
  8
OBJ02
 10
154.33531203499999
 20
137.41000126750001
 30
0.0
  0
SEQEND
  5
10F8
  8
OBJ02
  0
POLYLINE
  5
4D3
  8
OBJ02
 66
     1
 10
0.0
 20
0.0
 30
0.0
 70
     1
  0
VERTEX
  5
10F9
  8
OBJ02
 10
131.10170287
 20
136.12136555750001
 30
0.0
 42
-0.04717135
  0
VERTEX
  5
10FA
  8
OBJ02
 10
135.72405043000001
 20
134.37203019
 30
0.0
 42
0.03974909
  0
VERTEX
  5
10FB
  8
OBJ02
 10
146.7180809175
 20
131.24890214249999
 30
0.0
 42
0.05826523
  0
VERTEX
  5
10FC
  8
OBJ02
 10
161.21078213749999
 20
129.874371655
 30
0.0
 42
-0.35946637
  0
VERTEX
  5
10FD
  8
OBJ02
 10
162.38062830999999
 20
128.70533058500001
 30
0.0
 42
-0.35946637
  0
VERTEX
  5
10FE
  8
OBJ02
 10
161.45419638249999
 20
127.33532293
 30
0.0
 42
-0.04051424
  0
VERTEX
  5
10FF
  8
OBJ02
 10
146.34327604000001
 20
124.3769875075
 30
0.0
 42
-0.032358
  0
VERTEX
  5
1100
  8
OBJ02
 10
131.6011967725
 20
123.37799970250001
 30
0.0
 42
-0.13482146
  0
VERTEX
  5
1101
  8
OBJ02
 10
126.6040443325
 20
124.5024143375
 30
0.0
 42
-0.37660097
  0
VERTEX
  5
1102
  8
OBJ02
 10
124.73001994249999
 20
132.99749970249999
 30
0.0
 42
-0.34846621
  0
VERTEX
  5
1103
  8
OBJ02
 10
131.10170287
 20
136.12136555750001
 30
0.0
  0
SEQEND
  5
1104
  8
OBJ02
  0
POLYLINE
  5
4E0
  8
OBJ02
 66
     1
 10
0.0
 20
0.0
 30
0.0
 70
     1
  0
VERTEX
  5
1105
  8
OBJ02
 10
205.18786323500001
 20
98.266072872500004
 30
0.0
 42
0.35330135
  0
VERTEX
  5
1106
  8
OBJ02
 10
206.4440848875
 20
97.364006165000006
 30
0.0
 42
0.35330135
  0
VERTEX
  5
1107
  8
OBJ02
 10
207.59064276500001
 20
98.401899330000006
 30
0.0
  0
VERTEX
  5
1108
  8
OBJ02
 10
208.7715585775
 20
114.1325001725
 30
0.0
 42
0.21195778
  0
VERTEX
  5
1109
  8
OBJ02
 10
208.16378998499999
 20
115.9909001425
 30
0.0
 42
0.21195778
  0
VERTEX
  5
110A
  8
OBJ02
 10
206.37787262500001
 20
116.78684756
 30
0.0
 42
0.21195778
  0
VERTEX
  5
110B
  8
OBJ02
 10
204.58954001250001
 20
115.9963416625
 30
0.0
 42
0.21195778
  0
VERTEX
  5
110C
  8
OBJ02
 10
203.97611570999999
 20
114.139800865
 30
0.0
  0
VERTEX
  5
110D
  8
OBJ02
 10
205.18786323500001
 20
98.266072872500004
 30
0.0
  0
SEQEND
  5
110E
  8
OBJ02
  0
POLYLINE
  5
4EB
  8
OBJ02
 66
     1
 10
0.0
 20
0.0
 30
0.0
 70
     1
  0
VERTEX
  5
110F
  8
OBJ02
 10
196.31753031
 20
45.543274092499992
 30
0.0
 42
-0.06582715
  0
VERTEX
  5
1110
  8
OBJ02
 10
195.81774128500001
 20
61.909778359999997
 30
0.0
 42
-0.04008198
  0
VERTEX
  5
1111
  8
OBJ02
 10
197.29896669749999
 20
74.662733325000005
 30
0.0
 42
-0.35166744
  0
VERTEX
  5
1112
  8
OBJ02
 10
198.7998902425
 20
75.518696899999995
 30
0.0
 42
-0.35166744
  0
VERTEX
  5
1113
  8
OBJ02
 10
199.96041325249999
 20
74.238606482500003
 30
0.0
 42
-0.07738752
  0
VERTEX
  5
1114
  8
OBJ02
 10
199.56579006499999
 20
71.154694825000007
 30
0.0
 42
0.26349355
  0
VERTEX
  5
1115
  8
OBJ02
 10
204.81305835750001
 20
63.28401372750001
 30
0.0
 42
-0.32637771
  0
VERTEX
  5
1116
  8
OBJ02
 10
205.06295287
 20
62.409493605000002
 30
0.0
 42
0.10218417
  0
VERTEX
  5
1117
  8
OBJ02
 10
198.44137542999999
 20
45.29337958
 30
0.0
 42
-0.31644669
  0
VERTEX
  5
1118
  8
OBJ02
 10
197.291574575
 20
44.67145215
 30
0.0
 42
-0.31644669
  0
VERTEX
  5
1119
  8
OBJ02
 10
196.31753031
 20
45.543274092499992
 30
0.0
  0
SEQEND
  5
111A
  8
OBJ02
  0
POLYLINE
  5
4F8
  8
OBJ02
 66
     1
 10
0.0
 20
0.0
 30
0.0
 70
     1
  0
VERTEX
  5
111B
  8
OBJ02
 10
204.68814799250001
 20
15.059168605
 30
0.0
 42
0.33592507
  0
VERTEX
  5
111C
  8
OBJ02
 10
205.97145854999999
 20
14.67706765
 30
0.0
 42
0.33592507
  0
VERTEX
  5
111D
  8
OBJ02
 10
206.6870827475
 20
15.80877836
 30
0.0
 42
0.01690836
  0
VERTEX
  5
111E
  8
OBJ02
 10
205.93747299250001
 20
18.807217385000001
 30
0.0
 42
-0.11015679
  0
VERTEX
  5
111F
  8
OBJ02
 10
204.81305835750001
 20
36.298062507499999
 30
0.0
 42
-0.10462683
  0
VERTEX
  5
1120
  8
OBJ02
 10
210.3102211625
 20
52.66456677499999
 30
0.0
 42
0.28787525
  0
VERTEX
  5
1121
  8
OBJ02
 10
210.06032665000001
 20
54.288696655000003
 30
0.0
 42
0.07859566
  0
VERTEX
  5
1122
  8
OBJ02
 10
207.061887625
 20
56.28770518999999
 30
0.0
 42
0.23653944
  0
VERTEX
  5
1123
  8
OBJ02
 10
206.06245713749999
 20
56.037810677499991
 30
0.0
 42
0.1376613
  0
VERTEX
  5
1124
  8
OBJ02
 10
200.5652943325
 20
35.798347262500002
 30
0.0
 42
0.13299387
  0
VERTEX
  5
1125
  8
OBJ02
 10
204.68814799250001
 20
15.059168605
 30
0.0
  0
SEQEND
  5
1126
  8
OBJ02
  0
POLYLINE
  5
505
  8
OBJ02
 66
     1
 10
0.0
 20
0.0
 30
0.0
  0
VERTEX
  5
1127
  8
OBJ02
 10
171.67466036499999
 20
17.128848427499999
 30
0.0
  0
VERTEX
  5
1128
  8
OBJ02
 10
174.30227331250001
 20
10.233513585000001
 30
0.0
 42
0.17831933
  0
VERTEX
  5
1129
  8
OBJ02
 10
170.2777752675
 20
5.9933303899999988
 30
0.0
 42
-0.01685549
  0
VERTEX
  5
112A
  8
OBJ02
 10
169.4277474825
 20
4.4800897099999988
 30
0.0
 42
-0.24094289
  0
VERTEX
  5
112B
  8
OBJ02
 10
166.89433151750001
 20
3.1840319025000001
 30
0.0
 42
-0.24094289
  0
VERTEX
  5
112C
  8
OBJ02
 10
164.36091555249999
 20
4.4800897099999988
 30
0.0
 42
0.01565442
  0
VERTEX
  5
112D
  8
OBJ02
 10
163.51088777000001
 20
5.9933303899999988
 30
0.0
 42
0.15407461
  0
VERTEX
  5
112E
  8
OBJ02
 10
159.46095145749999
 20
10.1667589425
 30
0.0
  0
VERTEX
  5
112F
  8
OBJ02
 10
162.11400267249999
 20
17.128848427499999
 30
0.0
  0
SEQEND
  5
1130
  8
OBJ02
  0
POLYLINE
  5
510
  8
OBJ02
 66
     1
 10
0.0
 20
0.0
 30
0.0
 70
     1
  0
VERTEX
  5
1131
  8
OBJ02
 10
7.665554522499999
 20
64.539510039999996
 30
0.0
 42
-0.41421356
  0
VERTEX
  5
1132
  8
OBJ02
 10
10.8304595825
 20
61.374604977499999
 30
0.0
 42
-0.41421356
  0
VERTEX
  5
1133
  8
OBJ02
 10
7.665554522499999
 20
58.209699917499997
 30
0.0
 42
-0.41421356
  0
VERTEX
  5
1134
  8
OBJ02
 10
4.5006494599999991
 20
61.374604977499999
 30
0.0
 42
-0.41421356
  0
VERTEX
  5
1135
  8
OBJ02
 10
7.665554522499999
 20
64.539510039999996
 30
0.0
  0
SEQEND
  5
1136
  8
OBJ02
  0
POLYLINE
  5
517
  8
OBJ02
 66
     1
 10
0.0
 20
0.0
 30
0.0
 70
     1
  0
VERTEX
  5
1137
  8
OBJ02
 10
13.4449918625
 20
73.426021129999995
 30
0.0
 42
-0.41421356
  0
VERTEX
  5
1138
  8
OBJ02
 10
16.609896925000001
 20
70.261116067499984
 30
0.0
 42
-0.41421356
  0
VERTEX
  5
1139
  8
OBJ02
 10
13.4449918625
 20
67.096211007500003
 30
0.0
 42
-0.41421356
  0
VERTEX
  5
113A
  8
OBJ02
 10
10.280086799999999
 20
70.261116067499984
 30
0.0
 42
-0.41421356
  0
VERTEX
  5
113B
  8
OBJ02
 10
13.4449918625
 20
73.426021129999995
 30
0.0
  0
SEQEND
  5
113C
  8
OBJ02
  0
POLYLINE
  5
51E
  8
OBJ02
 66
     1
 10
0.0
 20
0.0
 30
0.0
 70
     1
  0
VERTEX
  5
113D
  8
OBJ02
 10
11.383321284999999
 20
84.170927707499999
 30
0.0
 42
-0.41421356
  0
VERTEX
  5
113E
  8
OBJ02
 10
14.5482263475
 20
81.006022645000002
 30
0.0
 42
-0.41421356
  0
VERTEX
  5
113F
  8
OBJ02
 10
11.383321284999999
 20
77.841117585000006
 30
0.0
 42
-0.41421356
  0
VERTEX
  5
1140
  8
OBJ02
 10
8.2184162250000004
 20
81.006022645000002
 30
0.0
 42
-0.41421356
  0
VERTEX
  5
1141
  8
OBJ02
 10
11.383321284999999
 20
84.170927707499999
 30
0.0
  0
SEQEND
  5
1142
  8
OBJ02
  0
POLYLINE
  5
525
  8
OBJ02
 66
     1
 10
0.0
 20
0.0
 30
0.0
 70
     1
  0
VERTEX
  5
1143
  8
OBJ02
 10
21.218507137500001
 20
86.772678725000006
 30
0.0
 42
-0.41421356
  0
VERTEX
  5
1144
  8
OBJ02
 10
24.383412199999999
 20
83.607773662499994
 30
0.0
 42
-0.41421356
  0
VERTEX
  5
1145
  8
OBJ02
 10
21.218507137500001
 20
80.442868599999997
 30
0.0
 42
-0.41421356
  0
VERTEX
  5
1146
  8
OBJ02
 10
18.053602077499999
 20
83.607773662499994
 30
0.0
 42
-0.41421356
  0
VERTEX
  5
1147
  8
OBJ02
 10
21.218507137500001
 20
86.772678725000006
 30
0.0
  0
SEQEND
  5
1148
  8
OBJ02
  0
POLYLINE
  5
52C
  8
OBJ02
 66
     1
 10
0.0
 20
0.0
 30
0.0
 70
     1
  0
VERTEX
  5
1149
  8
OBJ02
 10
30.749505245000002
 20
81.839485367500004
 30
0.0
 42
-0.41421356
  0
VERTEX
  5
114A
  8
OBJ02
 10
33.914410307499999
 20
78.674580307499994
 30
0.0
 42
-0.41421356
  0
VERTEX
  5
114B
  8
OBJ02
 10
30.749505245000002
 20
75.509675244999997
 30
0.0
 42
-0.41421356
  0
VERTEX
  5
114C
  8
OBJ02
 10
27.584600184999999
 20
78.674580307499994
 30
0.0
 42
-0.41421356
  0
VERTEX
  5
114D
  8
OBJ02
 10
30.749505245000002
 20
81.839485367500004
 30
0.0
  0
SEQEND
  5
114E
  8
OBJ02
  0
POLYLINE
  5
533
  8
OBJ02
 66
     1
 10
0.0
 20
0.0
 30
0.0
 70
     1
  0
VERTEX
  5
114F
  8
OBJ02
 10
39.604553767500001
 20
68.019777590000004
 30
0.0
 42
-0.41421356
  0
VERTEX
  5
1150
  8
OBJ02
 10
42.769458829999991
 20
64.854872527500007
 30
0.0
 42
-0.41421356
  0
VERTEX
  5
1151
  8
OBJ02
 10
39.604553767500001
 20
61.689967467499997
 30
0.0
 42
-0.41421356
  0
VERTEX
  5
1152
  8
OBJ02
 10
36.439648707499998
 20
64.854872527500007
 30
0.0
 42
-0.41421356
  0
VERTEX
  5
1153
  8
OBJ02
 10
39.604553767500001
 20
68.019777590000004
 30
0.0
  0
SEQEND
  5
1154
  8
OBJ02
  0
POLYLINE
  5
53A
  8
OBJ02
 66
     1
 10
0.0
 20
0.0
 30
0.0
 70
     1
  0
VERTEX
  5
1155
  8
OBJ02
 10
13.6807709775
 20
127.4773167375
 30
0.0
 42
-0.41421356
  0
VERTEX
  5
1156
  8
OBJ02
 10
17.519635712500001
 20
123.6384520025
 30
0.0
 42
-0.41421356
  0
VERTEX
  5
1157
  8
OBJ02
 10
13.6807709775
 20
119.7995872675
 30
0.0
 42
-0.41421356
  0
VERTEX
  5
1158
  8
OBJ02
 10
9.8419062425000003
 20
123.6384520025
 30
0.0
 42
-0.41421356
  0
VERTEX
  5
1159
  8
OBJ02
 10
13.6807709775
 20
127.4773167375
 30
0.0
  0
SEQEND
  5
115A
  8
OBJ02
  0
POLYLINE
  5
541
  8
OBJ02
 66
     1
 10
0.0
 20
0.0
 30
0.0
 70
     1
  0
VERTEX
  5
115B
  8
OBJ02
 10
189.82280967
 20
195.35671761750001
 30
0.0
 42
-0.41421356
  0
VERTEX
  5
115C
  8
OBJ02
 10
193.2554286925
 20
191.9240985925
 30
0.0
 42
-0.41421356
  0
VERTEX
  5
115D
  8
OBJ02
 10
189.82280967
 20
188.49147956749999
 30
0.0
 42
-0.41421356
  0
VERTEX
  5
115E
  8
OBJ02
 10
186.39019064499999
 20
191.9240985925
 30
0.0
 42
-0.41421356
  0
VERTEX
  5
115F
  8
OBJ02
 10
189.82280967
 20
195.35671761750001
 30
0.0
  0
SEQEND
  5
1160
  8
OBJ02
  0
POLYLINE
  5
548
  8
OBJ02
 66
     1
 10
0.0
 20
0.0
 30
0.0
 70
     1
  0
VERTEX
  5
1161
  8
OBJ02
 10
31.098557867499999
 20
186.40037928749999
 30
0.0
 42
-0.41421356
  0
VERTEX
  5
1162
  8
OBJ02
 10
34.531176889999998
 20
182.96776026250001
 30
0.0
 42
-0.41421356
  0
VERTEX
  5
1163
  8
OBJ02
 10
31.098557867499999
 20
179.5351412375
 30
0.0
 42
-0.41421356
  0
VERTEX
  5
1164
  8
OBJ02
 10
27.665938842500001
 20
182.96776026250001
 30
0.0
 42
-0.41421356
  0
VERTEX
  5
1165
  8
OBJ02
 10
31.098557867499999
 20
186.40037928749999
 30
0.0
  0
SEQEND
  5
1166
  8
OBJ02
  0
POLYLINE
  5
54F
  8
OBJ02
 66
     1
 10
0.0
 20
0.0
 30
0.0
 70
     1
  0
VERTEX
  5
1167
  8
OBJ02
 10
198.54587214750001
 20
87.051606299999989
 30
0.0
 42
-0.41421356
  0
VERTEX
  5
1168
  8
OBJ02
 10
201.71077721
 20
83.886701239999994
 30
0.0
 42
-0.41421356
  0
VERTEX
  5
1169
  8
OBJ02
 10
198.54587214750001
 20
80.721796177499996
 30
0.0
 42
-0.41421356
  0
VERTEX
  5
116A
  8
OBJ02
 10
195.38096708500001
 20
83.886701239999994
 30
0.0
 42
-0.41421356
  0
VERTEX
  5
116B
  8
OBJ02
 10
198.54587214750001
 20
87.051606299999989
 30
0.0
  0
SEQEND
  5
116C
  8
OBJ02
  0
POLYLINE
  5
556
  8
OBJ02
 66
     1
 10
0.0
 20
0.0
 30
0.0
 70
     1
  0
VERTEX
  5
116D
  8
OBJ02
 10
212.09882476499999
 20
64.818437617499995
 30
0.0
 42
-0.41421356
  0
VERTEX
  5
116E
  8
OBJ02
 10
215.26372982749999
 20
61.653532554999998
 30
0.0
 42
-0.41421356
  0
VERTEX
  5
116F
  8
OBJ02
 10
212.09882476499999
 20
58.488627492500001
 30
0.0
 42
-0.41421356
  0
VERTEX
  5
1170
  8
OBJ02
 10
208.93391970249999
 20
61.653532554999998
 30
0.0
 42
-0.41421356
  0
VERTEX
  5
1171
  8
OBJ02
 10
212.09882476499999
 20
64.818437617499995
 30
0.0
  0
SEQEND
  5
1172
  8
OBJ02
  0
POLYLINE
  5
55D
  8
OBJ02
 66
     1
 10
0.0
 20
0.0
 30
0.0
 70
     1
  0
VERTEX
  5
1173
  8
OBJ02
 10
208.381058
 20
84.449855284999998
 30
0.0
 42
-0.41421356
  0
VERTEX
  5
1174
  8
OBJ02
 10
211.54596306249999
 20
81.284950222500001
 30
0.0
 42
-0.41421356
  0
VERTEX
  5
1175
  8
OBJ02
 10
208.381058
 20
78.120045160000004
 30
0.0
 42
-0.41421356
  0
VERTEX
  5
1176
  8
OBJ02
 10
205.2161529375
 20
81.284950222500001
 30
0.0
 42
-0.41421356
  0
VERTEX
  5
1177
  8
OBJ02
 10
208.381058
 20
84.449855284999998
 30
0.0
  0
SEQEND
  5
1178
  8
OBJ02
  0
POLYLINE
  5
564
  8
OBJ02
 66
     1
 10
0.0
 20
0.0
 30
0.0
 70
     1
  0
VERTEX
  5
1179
  8
OBJ02
 10
206.319387425
 20
73.704948707499994
 30
0.0
 42
-0.41421356
  0
VERTEX
  5
117A
  8
OBJ02
 10
209.484292485
 20
70.540043644999983
 30
0.0
 42
-0.41421356
  0
VERTEX
  5
117B
  8
OBJ02
 10
206.319387425
 20
67.3751385825
 30
0.0
 42
-0.41421356
  0
VERTEX
  5
117C
  8
OBJ02
 10
203.1544823625
 20
70.540043644999983
 30
0.0
 42
-0.41421356
  0
VERTEX
  5
117D
  8
OBJ02
 10
206.319387425
 20
73.704948707499994
 30
0.0
  0
SEQEND
  5
117E
  8
OBJ02
  0
POLYLINE
  5
56B
  8
OBJ02
 66
     1
 10
0.0
 20
0.0
 30
0.0
 70
     1
  0
VERTEX
  5
117F
  8
OBJ02
 10
206.08360830749999
 20
127.756244315
 30
0.0
 42
-0.41421356
  0
VERTEX
  5
1180
  8
OBJ02
 10
209.9224730425
 20
123.91737958
 30
0.0
 42
-0.41421356
  0
VERTEX
  5
1181
  8
OBJ02
 10
206.08360830749999
 20
120.078514845
 30
0.0
 42
-0.41421356
  0
VERTEX
  5
1182
  8
OBJ02
 10
202.2447435725
 20
123.91737958
 30
0.0
 42
-0.41421356
  0
VERTEX
  5
1183
  8
OBJ02
 10
206.08360830749999
 20
127.756244315
 30
0.0
  0
SEQEND
  5
1184
  8
OBJ02
  0
POLYLINE
  5
572
  8
OBJ02
 66
     1
 10
0.0
 20
0.0
 30
0.0
 70
     1
  0
VERTEX
  5
1185
  8
OBJ02
 10
189.01487404
 20
82.118412945000003
 30
0.0
 42
-0.41421356
  0
VERTEX
  5
1186
  8
OBJ02
 10
192.17977910249999
 20
78.953507882500006
 30
0.0
 42
-0.41421356
  0
VERTEX
  5
1187
  8
OBJ02
 10
189.01487404
 20
75.788602822499996
 30
0.0
 42
-0.41421356
  0
VERTEX
  5
1188
  8
OBJ02
 10
185.8499689775
 20
78.953507882500006
 30
0.0
 42
-0.41421356
  0
VERTEX
  5
1189
  8
OBJ02
 10
189.01487404
 20
82.118412945000003
 30
0.0
  0
SEQEND
  5
118A
  8
OBJ02
  0
POLYLINE
  5
579
  8
OBJ02
 66
     1
 10
0.0
 20
0.0
 30
0.0
 70
     1
  0
VERTEX
  5
118B
  8
OBJ02
 10
180.1598255175
 20
68.298705167500003
 30
0.0
 42
-0.41421356
  0
VERTEX
  5
118C
  8
OBJ02
 10
183.32473057999999
 20
65.133800105000006
 30
0.0
 42
-0.41421356
  0
VERTEX
  5
118D
  8
OBJ02
 10
180.1598255175
 20
61.968895042500002
 30
0.0
 42
-0.41421356
  0
VERTEX
  5
118E
  8
OBJ02
 10
176.9949204575
 20
65.133800105000006
 30
0.0
 42
-0.41421356
  0
VERTEX
  5
118F
  8
OBJ02
 10
180.1598255175
 20
68.298705167500003
 30
0.0
  0
SEQEND
  5
1190
  8
OBJ02
  0
POLYLINE
  5
580
  8
OBJ02
 66
     1
 10
0.0
 20
0.0
 30
0.0
 70
     1
  0
VERTEX
  5
1191
  8
OBJ02
 10
14.57651605
 20
97.987145297500007
 30
0.0
  0
VERTEX
  5
1192
  8
OBJ02
 10
15.788263575
 20
113.86087329
 30
0.0
 42
0.21195778
  0
VERTEX
  5
1193
  8
OBJ02
 10
15.1748392725
 20
115.717414085
 30
0.0
 42
0.21195778
  0
VERTEX
  5
1194
  8
OBJ02
 10
13.38650666
 20
116.5079199825
 30
0.0
 42
0.21195778
  0
VERTEX
  5
1195
  8
OBJ02
 10
11.600589299999999
 20
115.7119725675
 30
0.0
 42
0.21195778
  0
VERTEX
  5
1196
  8
OBJ02
 10
10.99282071
 20
113.8535725975
 30
0.0
  0
VERTEX
  5
1197
  8
OBJ02
 10
12.17373652
 20
98.122971752500021
 30
0.0
 42
0.35330135
  0
VERTEX
  5
1198
  8
OBJ02
 10
13.3202943975
 20
97.085078589999995
 30
0.0
 42
0.35330135
  0
VERTEX
  5
1199
  8
OBJ02
 10
14.57651605
 20
97.987145297500007
 30
0.0
  0
SEQEND
  5
119A
  8
OBJ02
  0
POLYLINE
  5
58B
  8
OBJ02
 66
     1
 10
0.0
 20
0.0
 30
0.0
 70
     1
  0
VERTEX
  5
119B
  8
OBJ02
 10
155.338814455
 20
115.7564753125
 30
0.0
 42
0.08210778
  0
VERTEX
  5
119C
  8
OBJ02
 10
153.44280484000001
 20
113.91493296500001
 30
0.0
 42
0.02876839
  0
VERTEX
  5
119D
  8
OBJ02
 10
149.34171506499999
 20
107.636194825
 30
0.0
 42
0.06914614
  0
VERTEX
  5
119E
  8
OBJ02
 10
147.0849763375
 20
102.035019695
 30
0.0
 42
0.17796873
  0
VERTEX
  5
119F
  8
OBJ02
 10
147.34300164999999
 20
99.639865557500002
 30
0.0
 42
0.12795529
  0
VERTEX
  5
11A0
  8
OBJ02
 10
148.38352875999999
 20
98.439258442500005
 30
0.0
 42
0.21490203
  0
VERTEX
  5
11A1
  8
OBJ02
 10
149.34171506499999
 20
98.266072872500004
 30
0.0
 42
0.12572803
  0
VERTEX
  5
11A2
  8
OBJ02
 10
151.302227405
 20
99.3236423675
 30
0.0
 42
0.02521587
  0
VERTEX
  5
11A3
  8
OBJ02
 10
158.96195287
 20
107.1359631175
 30
0.0
 42
0.00264434
  0
VERTEX
  5
11A4
  8
OBJ02
 10
163.92009719750001
 20
112.79103693250001
 30
0.0
 42
0.00320403
  0
VERTEX
  5
11A5
  8
OBJ02
 10
167.95726994250001
 20
117.50581067749999
 30
0.0
 42
0.02125112
  0
VERTEX
  5
11A6
  8
OBJ02
 10
173.08837880499999
 20
124.1277524275
 30
0.0
 42
0.09770726
  0
VERTEX
  5
11A7
  8
OBJ02
 10
173.84133123000001
 20
125.80510400999999
 30
0.0
 42
0.27400652
  0
VERTEX
  5
11A8
  8
OBJ02
 10
173.3672339725
 20
127.2967002175
 30
0.0
 42
0.3464823
  0
VERTEX
  5
11A9
  8
OBJ02
 10
172.08012360250001
 20
127.3754265325
 30
0.0
 42
0.00015102
  0
VERTEX
  5
11AA
  8
OBJ02
 10
171.01116221250001
 20
126.63420008750001
 30
0.0
 42
0.00003057
  0
VERTEX
  5
11AB
  8
OBJ02
 10
165.73105809500001
 20
122.97009309000001
 30
0.0
 42
0.00001657
  0
VERTEX
  5
11AC
  8
OBJ02
 10
157.93100742249999
 20
117.55618973999999
 30
0.0
 42
0.00004987
  0
VERTEX
  5
11AD
  8
OBJ02
 10
155.338814455
 20
115.7564753125
 30
0.0
  0
SEQEND
  5
11AE
  8
OBJ02
  0
POLYLINE
  5
5A0
  8
OBJ02
 66
     1
 10
0.0
 20
0.0
 30
0.0
 70
     1
  0
VERTEX
  5
11AF
  8
OBJ02
 10
57.450000907499998
 20
63.192500887500003
 30
0.0
  0
VERTEX
  5
11B0
  8
OBJ02
 10
57.318516537500003
 20
63.129344092499998
 30
0.0
  0
VERTEX
  5
11B1
  8
OBJ02
 10
57.1906920825
 20
63.050327232500003
 30
0.0
  0
VERTEX
  5
11B2
  8
OBJ02
 10
57.068235735000002
 20
62.9571580625
 30
0.0
  0
VERTEX
  5
11B3
  8
OBJ02
 10
56.95285568500001
 20
62.851544345000001
 30
0.0
  0
VERTEX
  5
11B4
  8
OBJ02
 10
56.846260125000001
 20
62.735193834999997
 30
0.0
  0
VERTEX
  5
11B5
  8
OBJ02
 10
56.75015724499999
 20
62.609814297500002
 30
0.0
  0
VERTEX
  5
11B6
  8
OBJ02
 10
56.666255235000001
 20
62.477113484999997
 30
0.0
  0
VERTEX
  5
11B7
  8
OBJ02
 10
56.596262289999999
 20
62.338799160000001
 30
0.0
  0
VERTEX
  5
11B8
  8
OBJ02
 10
56.542659299999997
 20
62.193651035000002
 30
0.0
  0
VERTEX
  5
11B9
  8
OBJ02
 10
56.511017967500003
 20
62.02873666
 30
0.0
  0
VERTEX
  5
11BA
  8
OBJ02
 10
56.507682690000003
 20
61.828195530000002
 30
0.0
  0
VERTEX
  5
11BB
  8
OBJ02
 10
56.538997872499998
 20
61.576167147500001
 30
0.0
  0
VERTEX
  5
11BC
  8
OBJ02
 10
56.61130791499999
 20
61.256791012500003
 30
0.0
  0
VERTEX
  5
11BD
  8
OBJ02
 10
56.730957217499999
 20
60.854206627499991
 30
0.0
  0
VERTEX
  5
11BE
  8
OBJ02
 10
56.904290182499999
 20
60.352553495000002
 30
0.0
  0
VERTEX
  5
11BF
  8
OBJ02
 10
57.137651212500003
 20
59.735971110000001
 30
0.0
  0
VERTEX
  5
11C0
  8
OBJ02
 10
57.434822517500002
 20
58.994739857500001
 30
0.0
  0
VERTEX
  5
11C1
  8
OBJ02
 10
57.789337545000002
 20
58.1437036425
 30
0.0
  0
VERTEX
  5
11C2
  8
OBJ02
 10
58.192167552500003
 20
57.203847247500001
 30
0.0
  0
VERTEX
  5
11C3
  8
OBJ02
 10
58.634283797499997
 20
56.19615546
 30
0.0
  0
VERTEX
  5
11C4
  8
OBJ02
 10
59.106657534999997
 20
55.141613059999997
 30
0.0
  0
VERTEX
  5
11C5
  8
OBJ02
 10
59.600260022500002
 20
54.0612048375
 30
0.0
  0
VERTEX
  5
11C6
  8
OBJ02
 10
60.106062514999998
 20
52.9759155725
 30
0.0
  0
VERTEX
  5
11C7
  8
OBJ02
 10
60.615036275000001
 20
51.906730052500002
 30
0.0
  0
VERTEX
  5
11C8
  8
OBJ02
 10
61.119250687499999
 20
50.871827025000002
 30
0.0
  0
VERTEX
  5
11C9
  8
OBJ02
 10
61.615167677499997
 20
49.878161095000003
 30
0.0
  0
VERTEX
  5
11CA
  8
OBJ02
 10
62.100347300000003
 20
48.9298808275
 30
0.0
  0
VERTEX
  5
11CB
  8
OBJ02
 10
62.572349612499998
 20
48.031134792499998
 30
0.0
  0
VERTEX
  5
11CC
  8
OBJ02
 10
63.028734669999999
 20
47.186071552500003
 30
0.0
  0
VERTEX
  5
11CD
  8
OBJ02
 10
63.467062532500002
 20
46.398839680000002
 30
0.0
  0
VERTEX
  5
11CE
  8
OBJ02
 10
63.884893249999998
 20
45.673587740000002
 30
0.0
  0
VERTEX
  5
11CF
  8
OBJ02
 10
64.279786884999993
 20
45.014464302500002
 30
0.0
  0
VERTEX
  5
11D0
  8
OBJ02
 10
64.650279422500006
 20
44.42374706999999
 30
0.0
  0
VERTEX
  5
11D1
  8
OBJ02
 10
64.998810592500007
 20
43.896230320000001
 30
0.0
  0
VERTEX
  5
11D2
  8
OBJ02
 10
65.3287960575
 20
43.424837465000003
 30
0.0
  0
VERTEX
  5
11D3
  8
OBJ02
 10
65.643651480000003
 20
43.002491917500002
 30
0.0
  0
VERTEX
  5
11D4
  8
OBJ02
 10
65.946792520000002
 20
42.622117092499991
 30
0.0
  0
VERTEX
  5
11D5
  8
OBJ02
 10
66.241634840000003
 20
42.276636404999998
 30
0.0
  0
VERTEX
  5
11D6
  8
OBJ02
 10
66.531594102499994
 20
41.95897326499999
 30
0.0
  0
VERTEX
  5
11D7
  8
OBJ02
 10
66.820085969999994
 20
41.662051089999991
 30
0.0
  0
VERTEX
  5
11D8
  8
OBJ02
 10
67.109875647500004
 20
41.379972722499993
 30
0.0
  0
VERTEX
  5
11D9
  8
OBJ02
 10
67.401126524999995
 20
41.111558729999999
 30
0.0
  0
VERTEX
  5
11DA
  8
OBJ02
 10
67.693351535000005
 20
40.856809117499992
 30
0.0
  0
VERTEX
  5
11DB
  8
OBJ02
 10
67.986063612500004
 20
40.615723879999997
 30
0.0
  0
VERTEX
  5
11DC
  8
OBJ02
 10
68.278775687500001
 20
40.388303020000002
 30
0.0
  0
VERTEX
  5
11DD
  8
OBJ02
 10
68.571000697499997
 20
40.17454653499999
 30
0.0
  0
VERTEX
  5
11DE
  8
OBJ02
 10
68.862251575000002
 20
39.974454430000002
 30
0.0
  0
VERTEX
  5
11DF
  8
OBJ02
 10
69.152041255
 20
39.788026700000003
 30
0.0
  0
VERTEX
  5
11E0
  8
OBJ02
 10
69.439394397499996
 20
39.615304032499999
 30
0.0
  0
VERTEX
  5
11E1
  8
OBJ02
 10
69.721382605000002
 20
39.456489849999997
 30
0.0
  0
VERTEX
  5
11E2
  8
OBJ02
 10
69.994589207499999
 20
39.311828265000003
 30
0.0
  0
VERTEX
  5
11E3
  8
OBJ02
 10
70.255597530000003
 20
39.181563387499999
 30
0.0
  0
VERTEX
  5
11E4
  8
OBJ02
 10
70.500990902500007
 20
39.0659393225
 30
0.0
  0
VERTEX
  5
11E5
  8
OBJ02
 10
70.727352657500006
 20
38.965200185
 30
0.0
  0
VERTEX
  5
11E6
  8
OBJ02
 10
70.931266122500006
 20
38.879590082500002
 30
0.0
  0
VERTEX
  5
11E7
  8
OBJ02
 10
71.109314627499984
 20
38.809353122499999
 30
0.0
  0
VERTEX
  5
11E8
  8
OBJ02
 10
71.259464405000003
 20
38.754530064999997
 30
0.0
  0
VERTEX
  5
11E9
  8
OBJ02
 10
71.385213302500006
 20
38.714348254999997
 30
0.0
  0
VERTEX
  5
11EA
  8
OBJ02
 10
71.491442074999995
 20
38.687831687500001
 30
0.0
  0
VERTEX
  5
11EB
  8
OBJ02
 10
71.583031472499997
 20
38.674004355000001
 30
0.0
  0
VERTEX
  5
11EC
  8
OBJ02
 10
71.664862247499997
 20
38.671890249999997
 30
0.0
  0
VERTEX
  5
11ED
  8
OBJ02
 10
71.741815152499996
 20
38.68051337
 30
0.0
  0
VERTEX
  5
11EE
  8
OBJ02
 10
71.818770937500005
 20
38.698897705
 30
0.0
  0
VERTEX
  5
11EF
  8
OBJ02
 10
71.900610360000002
 20
38.726067247499998
 30
0.0
  0
VERTEX
  5
11F0
  8
OBJ02
 10
71.990953270000006
 20
38.761167954999998
 30
0.0
  0
VERTEX
  5
11F1
  8
OBJ02
 10
72.088375937500004
 20
38.8038336125
 30
0.0
  0
VERTEX
  5
11F2
  8
OBJ02
 10
72.190193730000004
 20
38.853819965
 30
0.0
  0
VERTEX
  5
11F3
  8
OBJ02
 10
72.293722020000004
 20
38.91088276
 30
0.0
  0
VERTEX
  5
11F4
  8
OBJ02
 10
72.396276177499999
 20
38.974777742500002
 30
0.0
  0
VERTEX
  5
11F5
  8
OBJ02
 10
72.495171572499999
 20
39.045260659999997
 30
0.0
  0
VERTEX
  5
11F6
  8
OBJ02
 10
72.587723574999984
 20
39.122087260000001
 30
0.0
  0
VERTEX
  5
11F7
  8
OBJ02
 10
72.671247554999994
 20
39.205013285
 30
0.0
  0
VERTEX
  5
11F8
  8
OBJ02
 10
72.742286012500003
 20
39.295380645000002
 30
0.0
  0
VERTEX
  5
11F9
  8
OBJ02
 10
72.794289967500006
 20
39.4008758875
 30
0.0
  0
VERTEX
  5
11FA
  8
OBJ02
 10
72.819937572499995
 20
39.530771719999997
 30
0.0
  0
VERTEX
  5
11FB
  8
OBJ02
 10
72.811906980000003
 20
39.69434085000001
 30
0.0
  0
VERTEX
  5
11FC
  8
OBJ02
 10
72.762876340000005
 20
39.900855989999997
 30
0.0
  0
VERTEX
  5
11FD
  8
OBJ02
 10
72.665523802500005
 20
40.159589847500001
 30
0.0
  0
VERTEX
  5
11FE
  8
OBJ02
 10
72.512527520000006
 20
40.479815129999992
 30
0.0
  0
VERTEX
  5
11FF
  8
OBJ02
 10
72.296565645000001
 20
40.870804544999991
 30
0.0
  0
VERTEX
  5
1200
  8
OBJ02
 10
72.012919850000003
 20
41.3389432775
 30
0.0
  0
VERTEX
  5
1201
  8
OBJ02
 10
71.667285907500002
 20
41.879066402500001
 30
0.0
  0
VERTEX
  5
1202
  8
OBJ02
 10
71.267963115000001
 20
42.483121474999997
 30
0.0
  0
VERTEX
  5
1203
  8
OBJ02
 10
70.823250767499999
 20
43.143056045000002
 30
0.0
  0
VERTEX
  5
1204
  8
OBJ02
 10
70.341448165000003
 20
43.850817662499992
 30
0.0
  0
VERTEX
  5
1205
  8
OBJ02
 10
69.830854597499993
 20
44.598353877500003
 30
0.0
  0
VERTEX
  5
1206
  8
OBJ02
 10
69.299769365000003
 20
45.377612247499989
 30
0.0
  0
VERTEX
  5
1207
  8
OBJ02
 10
68.756491762500005
 20
46.18054031749999
 30
0.0
  0
VERTEX
  5
1208
  8
OBJ02
 10
68.208018902500001
 20
47.000509039999997
 30
0.0
  0
VERTEX
  5
1209
  8
OBJ02
 10
67.656139172500005
 20
47.836582947499998
 30
0.0
  0
VERTEX
  5
120A
  8
OBJ02
 10
67.101338775000002
 20
48.689249969999999
 30
0.0
  0
VERTEX
  5
120B
  8
OBJ02
 10
66.544103907500002
 20
49.558998039999999
 30
0.0
  0
VERTEX
  5
120C
  8
OBJ02
 10
65.984920772500004
 20
50.446315089999999
 30
0.0
  0
VERTEX
  5
120D
  8
OBJ02
 10
65.424275574999996
 20
51.351689049999997
 30
0.0
  0
VERTEX
  5
120E
  8
OBJ02
 10
64.862654515000003
 20
52.27560785
 30
0.0
  0
VERTEX
  5
120F
  8
OBJ02
 10
64.300543794999996
 20
53.2185594225
 30
0.0
  0
VERTEX
  5
1210
  8
OBJ02
 10
63.739406055000003
 20
54.178510240000001
 30
0.0
  0
VERTEX
  5
1211
  8
OBJ02
 10
63.184609690000002
 20
55.1433409475
 30
0.0
  0
VERTEX
  5
1212
  8
OBJ02
 10
62.642499532499997
 20
56.098410722499999
 30
0.0
  0
VERTEX
  5
1213
  8
OBJ02
 10
62.119420419999997
 20
57.029078757500002
 30
0.0
  0
VERTEX
  5
1214
  8
OBJ02
 10
61.621717185000001
 20
57.9207042325
 30
0.0
  0
VERTEX
  5
1215
  8
OBJ02
 10
61.155734657499991
 20
58.758646332499993
 30
0.0
  0
VERTEX
  5
1216
  8
OBJ02
 10
60.727817674999997
 20
59.528264242500001
 30
0.0
  0
VERTEX
  5
1217
  8
OBJ02
 10
60.344311070000003
 20
60.214917147500003
 30
0.0
  0
VERTEX
  5
1218
  8
OBJ02
 10
60.009485467499999
 20
60.807827787500003
 30
0.0
  0
VERTEX
  5
1219
  8
OBJ02
 10
59.719314637499991
 20
61.311673127500001
 30
0.0
  0
VERTEX
  5
121A
  8
OBJ02
 10
59.467698147500002
 20
61.734993697500002
 30
0.0
  0
VERTEX
  5
121B
  8
OBJ02
 10
59.248535562500003
 20
62.086330015000001
 30
0.0
  0
VERTEX
  5
121C
  8
OBJ02
 10
59.055726444999998
 20
62.374222607500002
 30
0.0
  0
VERTEX
  5
121D
  8
OBJ02
 10
58.883170360000001
 20
62.607211997500002
 30
0.0
  0
VERTEX
  5
121E
  8
OBJ02
 10
58.724766870000003
 20
62.793838707500001
 30
0.0
  0
VERTEX
  5
121F
  8
OBJ02
 10
58.574415542499999
 20
62.942643265000001
 30
0.0
  0
VERTEX
  5
1220
  8
OBJ02
 10
58.427032677500002
 20
63.060986807500001
 30
0.0
  0
VERTEX
  5
1221
  8
OBJ02
 10
58.281601537500002
 20
63.151512942499998
 30
0.0
  0
VERTEX
  5
1222
  8
OBJ02
 10
58.138122119999998
 20
63.215685899999997
 30
0.0
  0
VERTEX
  5
1223
  8
OBJ02
 10
57.996594430000002
 20
63.254969902500001
 30
0.0
  0
VERTEX
  5
1224
  8
OBJ02
 10
57.857018462500001
 20
63.270829177499998
 30
0.0
  0
VERTEX
  5
1225
  8
OBJ02
 10
57.719394219999991
 20
63.264727950000001
 30
0.0
  0
VERTEX
  5
1226
  8
OBJ02
 10
57.5837217025
 20
63.238130442500001
 30
0.0
  0
VERTEX
  5
1227
  8
OBJ02
 10
57.450000907499998
 20
63.192500887500003
 30
0.0
  0
SEQEND
  5
1228
  8
OBJ02
  0
POLYLINE
  5
61B
  8
OBJ02
 66
     1
 10
0.0
 20
0.0
 30
0.0
 70
     1
  0
VERTEX
  5
1229
  8
OBJ02
 10
71.671767880000004
 20
31.896281272500001
 30
0.0
 42
0.10318604
  0
VERTEX
  5
122A
  8
OBJ02
 10
72.476985177499984
 20
30.103755702499999
 30
0.0
 42
0.02621704
  0
VERTEX
  5
122B
  8
OBJ02
 10
77.293841049999997
 20
24.150362980000001
 30
0.0
 42
0.00391844
  0
VERTEX
  5
122C
  8
OBJ02
 10
82.263871477500004
 20
18.712958177499999
 30
0.0
 42
0.01323243
  0
VERTEX
  5
122D
  8
OBJ02
 10
83.790213002499996
 20
17.1539806625
 30
0.0
 42
0.00884469
  0
VERTEX
  5
122E
  8
OBJ02
 10
85.948174304999995
 20
15.136269355
 30
0.0
 42
0.00662095
  0
VERTEX
  5
122F
  8
OBJ02
 10
88.912792269999997
 20
12.531411759999999
 30
0.0
 42
0.0212466
  0
VERTEX
  5
1230
  8
OBJ02
 10
92.153241249999994
 20
9.9895609074999996
 30
0.0
 42
0.04633714
  0
VERTEX
  5
1231
  8
OBJ02
 10
93.785255684999996
 20
9.0331837124999996
 30
0.0
 42
0.0365038
  0
VERTEX
  5
1232
  8
OBJ02
 10
94.513876052499995
 20
8.7551907599999996
 30
0.0
 42
0.05385633
  0
VERTEX
  5
1233
  8
OBJ02
 10
95.034359342499997
 20
8.6583788350000006
 30
0.0
 42
0.05020881
  0
VERTEX
  5
1234
  8
OBJ02
 10
95.449482612500006
 20
8.6683602349999997
 30
0.0
 42
0.03494732
  0
VERTEX
  5
1235
  8
OBJ02
 10
96.034084952499995
 20
8.7833629799999997
 30
0.0
 42
0.06608511
  0
VERTEX
  5
1236
  8
OBJ02
 10
96.641161205000003
 20
9.0372329725
 30
0.0
 42
0.0399019
  0
VERTEX
  5
1237
  8
OBJ02
 10
97.533304465000015
 20
9.6578831024999996
 30
0.0
 42
0.07395926
  0
VERTEX
  5
1238
  8
OBJ02
 10
98.394271807500004
 20
10.609245885
 30
0.0
 42
0.09514259
  0
VERTEX
  5
1239
  8
OBJ02
 10
98.782408125000003
 20
11.5319074925
 30
0.0
 42
0.05216813
  0
VERTEX
  5
123A
  8
OBJ02
 10
98.866063567500007
 20
12.33151236
 30
0.0
 42
0.04396679
  0
VERTEX
  5
123B
  8
OBJ02
 10
98.782408125000003
 20
13.281021517499999
 30
0.0
 42
0.03647841
  0
VERTEX
  5
123C
  8
OBJ02
 10
98.554403227500003
 20
14.178909562499999
 30
0.0
 42
0.05128536
  0
VERTEX
  5
123D
  8
OBJ02
 10
98.282914222499997
 20
14.780241029999999
 30
0.0
 42
0.08281944
  0
VERTEX
  5
123E
  8
OBJ02
 10
97.088856895000006
 20
16.221623085000001
 30
0.0
 42
0.01085258
  0
VERTEX
  5
123F
  8
OBJ02
 10
86.164469100000005
 20
25.274777615000001
 30
0.0
 42
0.00157372
  0
VERTEX
  5
1240
  8
OBJ02
 10
81.947180579999994
 20
28.596436844999999
 30
0.0
 42
0.00437763
  0
VERTEX
  5
1241
  8
OBJ02
 10
80.416969100000003
 20
29.772436150000001
 30
0.0
 42
0.03646638
  0
VERTEX
  5
1242
  8
OBJ02
 10
76.589425570000003
 20
32.245222502499999
 30
0.0
 42
0.0550978
  0
VERTEX
  5
1243
  8
OBJ02
 10
73.795908124999997
 20
33.395500785000003
 30
0.0
 42
0.04749704
  0
VERTEX
  5
1244
  8
OBJ02
 10
72.895900352500007
 20
33.5644889175
 30
0.0
 42
0.09183081
  0
VERTEX
  5
1245
  8
OBJ02
 10
72.421377634999999
 20
33.520484932499997
 30
0.0
 42
0.1281399
  0
VERTEX
  5
1246
  8
OBJ02
 10
71.960577137499996
 20
33.250179907499998
 30
0.0
 42
0.12215184
  0
VERTEX
  5
1247
  8
OBJ02
 10
71.671767880000004
 20
32.770875175
 30
0.0
 42
0.07493968
  0
VERTEX
  5
1248
  8
OBJ02
 10
71.616533189999998
 20
32.404417129999999
 30
0.0
 42
0.05419071
  0
VERTEX
  5
1249
  8
OBJ02
 10
71.671767880000004
 20
31.896281272500001
 30
0.0
  0
SEQEND
  5
124A
  8
OBJ02
  0
POLYLINE
  5
63E
  8
OBJ02
 66
     1
 10
0.0
 20
0.0
 30
0.0
 70
     1
  0
VERTEX
  5
124B
  8
OBJ02
 10
162.31437837749999
 20
63.4714284625
 30
0.0
  0
VERTEX
  5
124C
  8
OBJ02
 10
162.4458627475
 20
63.408271669999998
 30
0.0
  0
VERTEX
  5
124D
  8
OBJ02
 10
162.5736872025
 20
63.3292548075
 30
0.0
  0
VERTEX
  5
124E
  8
OBJ02
 10
162.69614355249999
 20
63.236085639999999
 30
0.0
  0
VERTEX
  5
124F
  8
OBJ02
 10
162.81152360249999
 20
63.130471919999991
 30
0.0
  0
VERTEX
  5
1250
  8
OBJ02
 10
162.91811916250001
 20
63.01412141250001
 30
0.0
  0
VERTEX
  5
1251
  8
OBJ02
 10
163.01422204249999
 20
62.888741872499999
 30
0.0
  0
VERTEX
  5
1252
  8
OBJ02
 10
163.09812405
 20
62.756041060000001
 30
0.0
  0
VERTEX
  5
1253
  8
OBJ02
 10
163.16811699499999
 20
62.617726734999998
 30
0.0
  0
VERTEX
  5
1254
  8
OBJ02
 10
163.22171998499999
 20
62.472578612500001
 30
0.0
  0
VERTEX
  5
1255
  8
OBJ02
 10
163.25336132000001
 20
62.307664234999997
 30
0.0
  0
VERTEX
  5
1256
  8
OBJ02
 10
163.25669659499999
 20
62.107123104999992
 30
0.0
  0
VERTEX
  5
1257
  8
OBJ02
 10
163.22538141499999
 20
61.855094722499999
 30
0.0
  0
VERTEX
  5
1258
  8
OBJ02
 10
163.15307137249999
 20
61.535718590000002
 30
0.0
  0
VERTEX
  5
1259
  8
OBJ02
 10
163.03342207
 20
61.13313420499999
 30
0.0
  0
VERTEX
  5
125A
  8
OBJ02
 10
162.86008910250001
 20
60.631481069999992
 30
0.0
  0
VERTEX
  5
125B
  8
OBJ02
 10
162.62672807249999
 20
60.014898687500001
 30
0.0
  0
VERTEX
  5
125C
  8
OBJ02
 10
162.32955676750001
 20
59.273667435
 30
0.0
  0
VERTEX
  5
125D
  8
OBJ02
 10
161.97504173999999
 20
58.42263122
 30
0.0
  0
VERTEX
  5
125E
  8
OBJ02
 10
161.57221173249999
 20
57.482774825
 30
0.0
  0
VERTEX
  5
125F
  8
OBJ02
 10
161.13009549
 20
56.475083034999997
 30
0.0
  0
VERTEX
  5
1260
  8
OBJ02
 10
160.65772175250001
 20
55.420540637499997
 30
0.0
  0
VERTEX
  5
1261
  8
OBJ02
 10
160.16411926500001
 20
54.34013241249999
 30
0.0
  0
VERTEX
  5
1262
  8
OBJ02
 10
159.65831677
 20
53.254843149999999
 30
0.0
  0
VERTEX
  5
1263
  8
OBJ02
 10
159.1493430125
 20
52.185657630000001
 30
0.0
  0
VERTEX
  5
1264
  8
OBJ02
 10
158.64512859999999
 20
51.150754602500001
 30
0.0
  0
VERTEX
  5
1265
  8
OBJ02
 10
158.14921161000001
 20
50.157088672500002
 30
0.0
  0
VERTEX
  5
1266
  8
OBJ02
 10
157.66403198750001
 20
49.208808404999999
 30
0.0
  0
VERTEX
  5
1267
  8
OBJ02
 10
157.19202967250001
 20
48.310062367500002
 30
0.0
  0
VERTEX
  5
1268
  8
OBJ02
 10
156.73564461500001
 20
47.464999130000002
 30
0.0
  0
VERTEX
  5
1269
  8
OBJ02
 10
156.297316755
 20
46.677767257500001
 30
0.0
  0
VERTEX
  5
126A
  8
OBJ02
 10
155.87948603500001
 20
45.952515317500001
 30
0.0
  0
VERTEX
  5
126B
  8
OBJ02
 10
155.4845924025
 20
45.293391877499992
 30
0.0
  0
VERTEX
  5
126C
  8
OBJ02
 10
155.11409986499999
 20
44.702674647499997
 30
0.0
  0
VERTEX
  5
126D
  8
OBJ02
 10
154.76556869250001
 20
44.1751578975
 30
0.0
  0
VERTEX
  5
126E
  8
OBJ02
 10
154.43558322749999
 20
43.70376504
 30
0.0
  0
VERTEX
  5
126F
  8
OBJ02
 10
154.1207278075
 20
43.281419494999987
 30
0.0
  0
VERTEX
  5
1270
  8
OBJ02
 10
153.81758676499999
 20
42.90104466999999
 30
0.0
  0
VERTEX
  5
1271
  8
OBJ02
 10
153.522744445
 20
42.555563980000002
 30
0.0
  0
VERTEX
  5
1272
  8
OBJ02
 10
153.23278518250001
 20
42.237900842499997
 30
0.0
  0
VERTEX
  5
1273
  8
OBJ02
 10
152.94429331750001
 20
41.940978665000003
 30
0.0
  0
VERTEX
  5
1274
  8
OBJ02
 10
152.65450364
 20
41.65890029749999
 30
0.0
  0
VERTEX
  5
1275
  8
OBJ02
 10
152.3632527625
 20
41.390486307499991
 30
0.0
  0
VERTEX
  5
1276
  8
OBJ02
 10
152.07102775249999
 20
41.135736692499997
 30
0.0
  0
VERTEX
  5
1277
  8
OBJ02
 10
151.77831567499999
 20
40.894651455000002
 30
0.0
  0
VERTEX
  5
1278
  8
OBJ02
 10
151.48560359749999
 20
40.667230594999999
 30
0.0
  0
VERTEX
  5
1279
  8
OBJ02
 10
151.19337858750001
 20
40.45347411249999
 30
0.0
  0
VERTEX
  5
127A
  8
OBJ02
 10
150.90212771
 20
40.253382004999999
 30
0.0
  0
VERTEX
  5
127B
  8
OBJ02
 10
150.61233803249999
 20
40.066954275000001
 30
0.0
  0
VERTEX
  5
127C
  8
OBJ02
 10
150.32498488749999
 20
39.894231607499997
 30
0.0
  0
VERTEX
  5
127D
  8
OBJ02
 10
150.04299667999999
 20
39.73541742750001
 30
0.0
  0
VERTEX
  5
127E
  8
OBJ02
 10
149.76979008000001
 20
39.590755842500002
 30
0.0
  0
VERTEX
  5
127F
  8
OBJ02
 10
149.5087817575
 20
39.460490962500003
 30
0.0
  0
VERTEX
  5
1280
  8
OBJ02
 10
149.26338838250001
 20
39.3448669
 30
0.0
  0
VERTEX
  5
1281
  8
OBJ02
 10
149.03702662750001
 20
39.244127759999998
 30
0.0
  0
VERTEX
  5
1282
  8
OBJ02
 10
148.83311316250001
 20
39.158517657499999
 30
0.0
  0
VERTEX
  5
1283
  8
OBJ02
 10
148.65506465749999
 20
39.088280697499997
 30
0.0
  0
VERTEX
  5
1284
  8
OBJ02
 10
148.50491488
 20
39.033457640000002
 30
0.0
  0
VERTEX
  5
1285
  8
OBJ02
 10
148.37916598250001
 20
38.993275832499997
 30
0.0
  0
VERTEX
  5
1286
  8
OBJ02
 10
148.27293721000001
 20
38.966759262499998
 30
0.0
  0
VERTEX
  5
1287
  8
OBJ02
 10
148.18134781500001
 20
38.952931929999998
 30
0.0
  0
VERTEX
  5
1288
  8
OBJ02
 10
148.09951703999999
 20
38.950817827500011
 30
0.0
  0
VERTEX
  5
1289
  8
OBJ02
 10
148.02256413500001
 20
38.959440944999997
 30
0.0
  0
VERTEX
  5
128A
  8
OBJ02
 10
147.94560834750001
 20
38.977825279999998
 30
0.0
  0
VERTEX
  5
128B
  8
OBJ02
 10
147.86376892749999
 20
39.004994824999997
 30
0.0
  0
VERTEX
  5
128C
  8
OBJ02
 10
147.77342601749999
 20
39.040095532499997
 30
0.0
  0
VERTEX
  5
128D
  8
OBJ02
 10
147.67600335
 20
39.082761187499997
 30
0.0
  0
VERTEX
  5
128E
  8
OBJ02
 10
147.57418555500001
 20
39.132747539999997
 30
0.0
  0
VERTEX
  5
128F
  8
OBJ02
 10
147.470657265
 20
39.189810334999997
 30
0.0
  0
VERTEX
  5
1290
  8
OBJ02
 10
147.36810310749999
 20
39.2537053175
 30
0.0
  0
VERTEX
  5
1291
  8
OBJ02
 10
147.26920771249999
 20
39.324188237500003
 30
0.0
  0
VERTEX
  5
1292
  8
OBJ02
 10
147.17665571000001
 20
39.401014834999998
 30
0.0
  0
VERTEX
  5
1293
  8
OBJ02
 10
147.09313173250001
 20
39.483940859999997
 30
0.0
  0
VERTEX
  5
1294
  8
OBJ02
 10
147.022093275
 20
39.574308219999999
 30
0.0
  0
VERTEX
  5
1295
  8
OBJ02
 10
146.9700893175
 20
39.679803462499997
 30
0.0
  0
VERTEX
  5
1296
  8
OBJ02
 10
146.94444171250001
 20
39.809699295000001
 30
0.0
  0
VERTEX
  5
1297
  8
OBJ02
 10
146.95247230499999
 20
39.973268427500003
 30
0.0
  0
VERTEX
  5
1298
  8
OBJ02
 10
147.0015029475
 20
40.179783567500003
 30
0.0
  0
VERTEX
  5
1299
  8
OBJ02
 10
147.0988554825
 20
40.438517422499999
 30
0.0
  0
VERTEX
  5
129A
  8
OBJ02
 10
147.251851765
 20
40.758742705000003
 30
0.0
  0
VERTEX
  5
129B
  8
OBJ02
 10
147.4678136425
 20
41.149732122499991
 30
0.0
  0
VERTEX
  5
129C
  8
OBJ02
 10
147.75145943749999
 20
41.617870852499998
 30
0.0
  0
VERTEX
  5
129D
  8
OBJ02
 10
148.09709337999999
 20
42.157993980000001
 30
0.0
  0
VERTEX
  5
129E
  8
OBJ02
 10
148.49641617
 20
42.762049052499997
 30
0.0
  0
VERTEX
  5
129F
  8
OBJ02
 10
148.9411285175
 20
43.421983619999999
 30
0.0
  0
VERTEX
  5
12A0
  8
OBJ02
 10
149.42293112249999
 20
44.129745237500003
 30
0.0
  0
VERTEX
  5
12A1
  8
OBJ02
 10
149.93352469000001
 20
44.877281455000002
 30
0.0
  0
VERTEX
  5
12A2
  8
OBJ02
 10
150.46460992249999
 20
45.656539822500001
 30
0.0
  0
VERTEX
  5
12A3
  8
OBJ02
 10
151.007887525
 20
46.459467895000003
 30
0.0
  0
VERTEX
  5
12A4
  8
OBJ02
 10
151.5563603825
 20
47.279436615000002
 30
0.0
  0
VERTEX
  5
12A5
  8
OBJ02
 10
152.1082401125
 20
48.115510522500003
 30
0.0
  0
VERTEX
  5
12A6
  8
OBJ02
 10
152.6630405125
 20
48.968177545000003
 30
0.0
  0
VERTEX
  5
12A7
  8
OBJ02
 10
153.22027538
 20
49.837925617499998
 30
0.0
  0
VERTEX
  5
12A8
  8
OBJ02
 10
153.77945851250001
 20
50.725242667499998
 30
0.0
  0
VERTEX
  5
12A9
  8
OBJ02
 10
154.3401037125
 20
51.63061662749999
 30
0.0
  0
VERTEX
  5
12AA
  8
OBJ02
 10
154.90172477249999
 20
52.554535427499999
 30
0.0
  0
VERTEX
  5
12AB
  8
OBJ02
 10
155.46383549250001
 20
53.497487
 30
0.0
  0
VERTEX
  5
12AC
  8
OBJ02
 10
156.0249732325
 20
54.457437817500001
 30
0.0
  0
VERTEX
  5
12AD
  8
OBJ02
 10
156.57976959749999
 20
55.422268522499991
 30
0.0
  0
VERTEX
  5
12AE
  8
OBJ02
 10
157.12187975250001
 20
56.377338299999998
 30
0.0
  0
VERTEX
  5
12AF
  8
OBJ02
 10
157.64495886500001
 20
57.308006335000002
 30
0.0
  0
VERTEX
  5
12B0
  8
OBJ02
 10
158.1426621025
 20
58.199631807499998
 30
0.0
  0
VERTEX
  5
12B1
  8
OBJ02
 10
158.60864462750001
 20
59.037573907499997
 30
0.0
  0
VERTEX
  5
12B2
  8
OBJ02
 10
159.03656161000001
 20
59.807191817499998
 30
0.0
  0
VERTEX
  5
12B3
  8
OBJ02
 10
159.42006821499999
 20
60.4938447225
 30
0.0
  0
VERTEX
  5
12B4
  8
OBJ02
 10
159.75489382000001
 20
61.0867553625
 30
0.0
  0
VERTEX
  5
12B5
  8
OBJ02
 10
160.04506465
 20
61.590600705
 30
0.0
  0
VERTEX
  5
12B6
  8
OBJ02
 10
160.2966811375
 20
62.013921272499999
 30
0.0
  0
VERTEX
  5
12B7
  8
OBJ02
 10
160.51584372249999
 20
62.365257592500001
 30
0.0
  0
VERTEX
  5
12B8
  8
OBJ02
 10
160.70865284000001
 20
62.653150182499992
 30
0.0
  0
VERTEX
  5
12B9
  8
OBJ02
 10
160.88120892500001
 20
62.886139572499992
 30
0.0
  0
VERTEX
  5
12BA
  8
OBJ02
 10
161.03961241499999
 20
63.072766285
 30
0.0
  0
VERTEX
  5
12BB
  8
OBJ02
 10
161.189963745
 20
63.221570839999998
 30
0.0
  0
VERTEX
  5
12BC
  8
OBJ02
 10
161.3373466075
 20
63.339914382499991
 30
0.0
  0
VERTEX
  5
12BD
  8
OBJ02
 10
161.48277775
 20
63.430440519999991
 30
0.0
  0
VERTEX
  5
12BE
  8
OBJ02
 10
161.626257165
 20
63.49461347750001
 30
0.0
  0
VERTEX
  5
12BF
  8
OBJ02
 10
161.7677848575
 20
63.53389748
 30
0.0
  0
VERTEX
  5
12C0
  8
OBJ02
 10
161.90736082250001
 20
63.549756754999997
 30
0.0
  0
VERTEX
  5
12C1
  8
OBJ02
 10
162.04498506499999
 20
63.543655524999998
 30
0.0
  0
VERTEX
  5
12C2
  8
OBJ02
 10
162.18065758500001
 20
63.51705802
 30
0.0
  0
VERTEX
  5
12C3
  8
OBJ02
 10
162.31437837749999
 20
63.4714284625
 30
0.0
  0
SEQEND
  5
12C4
  8
OBJ02
  0
ENDSEC
  0
EOF
