  0
SECTION
  2
HEADER
  9
$ACADVER
  1
AC1009
  9
$EXTMIN
 10
-0.00017969
 20
0.00002594
 30
0.0
  9
$EXTMAX
 10
878.86136556
 20
935.67938605
 30
0.0
  0
ENDSEC
  0
SECTION
  2
TABLES
  0
TABLE
  2
LAYER
 70
2
 0
LAYER
 2
0
 70
0
 62
1
 6
CONTINUOUS
 0
LAYER
 2
OBJ02
 70
0
 62
1
 6
CONTINUOUS
 0
ENDTAB
 0
ENDSEC
  0
SECTION
  2
ENTITIES
  0
POLYLINE
  8
0
 66
   1
 39
0.000000
 70
    0
  0
VERTEX
  8
0
 10
698.00549636
 20
72.82410953
  0
VERTEX
  8
0
 10
686.69864146
 20
68.51539371
  0
SEQEND
  0
POLYLINE
  8
0
 66
   1
 39
0.000000
 70
    0
  0
VERTEX
  8
0
 10
648.45601069
 20
68.51539371
  0
VERTEX
  8
0
 10
637.14915578
 20
72.82410953
  0
SEQEND
  0
POLYLINE
  8
OBJ02
 66
   1
 39
0.000000
 70
    0
  0
VERTEX
  8
0
 10
11.80425444
 20
14.52650930
  0
VERTEX
  8
0
 10
36.34232013
 20
23.86157793
  0
VERTEX
  8
0
 10
34.19111762
 20
29.51620681
  0
VERTEX
  8
0
 10
9.65305192
 20
20.18113818
  0
SEQEND
  0
POLYLINE
  8
OBJ02
 66
   1
 39
0.000000
 70
    0
  0
VERTEX
  8
0
 10
186.70544824
 20
69.55404131
  0
VERTEX
  8
0
 10
176.20561684
 20
42.00057181
  0
VERTEX
  8
0
 10
180.74212762
 20
40.63039338
  0
SEQEND
  0
POLYLINE
  8
OBJ02
 66
   1
 39
0.000000
 70
    0
  0
VERTEX
  8
0
 10
113.34132357
 20
594.72089807
  0
VERTEX
  8
0
 10
115.96288075
 20
600.17341473
  0
SEQEND
  0
POLYLINE
  8
OBJ02
 66
   1
 39
0.000000
 70
    0
  0
VERTEX
  8
0
 10
753.71619901
 20
604.01101051
  0
VERTEX
  8
0
 10
739.78545128
 20
589.88152743
  0
SEQEND
  0
POLYLINE
  8
OBJ02
 66
   1
 39
0.000000
 70
    0
  0
VERTEX
  8
0
 10
771.35108365
 20
676.87359665
  0
VERTEX
  8
0
 10
762.09384356
 20
694.41798492
  0
SEQEND
  0
POLYLINE
  8
OBJ02
 66
   1
 39
0.000000
 70
    0
  0
VERTEX
  8
0
 10
825.36954675
 20
595.07890449
  0
VERTEX
  8
0
 10
835.40518702
 20
577.96183848
  0
SEQEND
  0
POLYLINE
  8
OBJ02
 66
   1
 39
0.000000
 70
    0
  0
VERTEX
  8
0
 10
830.65601077
 20
665.99045090
  0
VERTEX
  8
0
 10
843.93708731
 20
680.72527562
  0
VERTEX
  8
0
 10
830.65601077
 20
665.99045090
  0
VERTEX
  8
0
 10
826.16207514
 20
670.04101168
  0
VERTEX
  8
0
 10
839.44315169
 20
684.77583639
  0
VERTEX
  8
0
 10
826.16207514
 20
670.04101168
  0
SEQEND
  0
POLYLINE
  8
OBJ02
 66
   1
 39
0.000000
 70
    0
  0
VERTEX
  8
0
 10
869.40446522
 20
21.29684848
  0
VERTEX
  8
0
 10
844.86639953
 20
30.63191711
  0
VERTEX
  8
0
 10
842.71519701
 20
24.97728824
  0
VERTEX
  8
0
 10
867.25326271
 20
15.64221961
  0
SEQEND
  0
POLYLINE
  8
OBJ02
 66
   1
 39
0.000000
 70
    1
  0
VERTEX
  8
0
 10
567.19189103
 20
836.35588034
 42
0.04694483
  0
VERTEX
  8
0
 10
588.26596611
 20
824.78941281
 42
0.25452743
  0
VERTEX
  8
0
 10
615.69946986
 20
831.15823262
  0
VERTEX
  8
0
 10
694.52849043
 20
901.22029630
 42
-0.31503627
  0
VERTEX
  8
0
 10
700.15773925
 20
902.28564789
 42
-0.31503627
  0
VERTEX
  8
0
 10
703.08886209
 20
897.36305353
 42
-0.03115372
  0
VERTEX
  8
0
 10
702.08213105
 20
866.25079226
 42
0.05497412
  0
VERTEX
  8
0
 10
703.36769368
 20
850.90973491
 42
0.19035588
  0
VERTEX
  8
0
 10
714.89693857
 20
835.12543713
 42
0.02099438
  0
VERTEX
  8
0
 10
726.43721569
 20
828.55371419
 42
-0.19704981
  0
VERTEX
  8
0
 10
729.36085044
 20
825.13592366
 42
-0.03409156
  0
VERTEX
  8
0
 10
731.79032941
 20
815.37670783
 42
0.23494469
  0
VERTEX
  8
0
 10
739.64046553
 20
806.96882554
 42
0.27712007
  0
VERTEX
  8
0
 10
756.93584106
 20
810.58248496
 42
0.04199174
  0
VERTEX
  8
0
 10
766.90693821
 20
828.22597462
  0
VERTEX
  8
0
 10
742.03443736
 20
839.18445815
  0
VERTEX
  8
0
 10
744.47372529
 20
844.72091681
  0
VERTEX
  8
0
 10
769.34622614
 20
833.76243327
 42
0.08258063
  0
VERTEX
  8
0
 10
772.41890774
 20
845.52891669
 42
0.34050708
  0
VERTEX
  8
0
 10
768.62997575
 20
851.49598785
 42
-0.03645657
  0
VERTEX
  8
0
 10
733.52405378
 20
869.47186992
 42
-0.20072046
  0
VERTEX
  8
0
 10
723.07837722
 20
885.52672946
 42
-0.01365913
  0
VERTEX
  8
0
 10
717.42342688
 20
922.12040469
 42
0.26743495
  0
VERTEX
  8
0
 10
711.19100907
 20
930.34187819
 42
0.26743495
  0
VERTEX
  8
0
 10
700.95234440
 20
929.07483281
 42
0.03094295
  0
VERTEX
  8
0
 10
691.07865254
 20
920.62871291
  0
VERTEX
  8
0
 10
609.80195779
 20
841.89664619
 42
-0.29753822
  0
VERTEX
  8
0
 10
587.14046925
 20
837.63698198
 42
0.03487403
  0
VERTEX
  8
0
 10
569.85455879
 20
843.23727541
 42
0.31109865
  0
VERTEX
  8
0
 10
566.15304008
 20
840.71369057
 42
0.31109865
  0
VERTEX
  8
0
 10
567.19189103
 20
836.35588034
  0
SEQEND
  0
POLYLINE
  8
OBJ02
 66
   1
 39
0.000000
 70
    1
  0
VERTEX
  8
0
 10
377.83112041
 20
832.47226049
 42
-0.08258063
  0
VERTEX
  8
0
 10
373.59006445
 20
843.86984570
 42
-0.34050708
  0
VERTEX
  8
0
 10
376.75934686
 20
850.18788280
 42
0.03645657
  0
VERTEX
  8
0
 10
409.87832383
 20
871.60496613
 42
0.20072046
  0
VERTEX
  8
0
 10
418.65551074
 20
888.62940925
 42
0.01365913
  0
VERTEX
  8
0
 10
420.59962553
 20
925.60637435
 42
-0.26743495
  0
VERTEX
  8
0
 10
425.97314951
 20
934.41324089
 42
-0.26743495
  0
VERTEX
  8
0
 10
436.28734284
 20
934.18286280
 42
-0.03094295
  0
VERTEX
  8
0
 10
446.96078977
 20
926.77312171
  0
VERTEX
  8
0
 10
535.74717318
 20
856.61888050
 42
0.29753822
  0
VERTEX
  8
0
 10
558.72226476
 20
854.66108349
 42
-0.03487403
  0
VERTEX
  8
0
 10
575.35693053
 20
861.97229963
 42
-0.31109865
  0
VERTEX
  8
0
 10
579.29359154
 20
859.83397756
 42
-0.31109865
  0
VERTEX
  8
0
 10
578.69850539
 20
855.39375305
 42
-0.04694483
  0
VERTEX
  8
0
 10
558.89523042
 20
841.76546952
 42
-0.25452743
  0
VERTEX
  8
0
 10
530.96011518
 20
845.34154702
  0
VERTEX
  8
0
 10
445.48137782
 20
907.11607827
 42
0.31503627
  0
VERTEX
  8
0
 10
439.77350108
 20
907.60959566
 42
0.31503627
  0
VERTEX
  8
0
 10
437.35257666
 20
902.41704895
 42
0.03115372
  0
VERTEX
  8
0
 10
441.48478151
 20
871.56399089
 42
-0.05497412
  0
VERTEX
  8
0
 10
441.74939398
 20
856.17143775
 42
-0.19035588
  0
VERTEX
  8
0
 10
431.86691364
 20
839.30715221
 42
-0.02099438
  0
VERTEX
  8
0
 10
421.04646781
 20
831.60757494
 42
0.19704981
  0
VERTEX
  8
0
 10
418.48157685
 20
827.91294820
 42
0.03409156
  0
VERTEX
  8
0
 10
417.04642167
 20
817.95880378
 42
-0.23494469
  0
VERTEX
  8
0
 10
410.08214664
 20
808.80369619
 42
-0.27712007
  0
VERTEX
  8
0
 10
392.51093590
 20
810.65871701
 42
-0.04199174
  0
VERTEX
  8
0
 10
380.81511872
 20
827.20934741
  0
VERTEX
  8
0
 10
404.45871802
 20
840.61493849
  0
VERTEX
  8
0
 10
401.47471970
 20
845.87785156
  0
VERTEX
  8
0
 10
377.83112041
 20
832.47226049
  0
SEQEND
  0
POLYLINE
  8
OBJ02
 66
   1
 39
0.000000
 70
    1
  0
VERTEX
  8
0
 10
231.91919853
 20
795.00451061
 42
-0.08258063
  0
VERTEX
  8
0
 10
230.77250261
 20
807.11139265
 42
-0.34050708
  0
VERTEX
  8
0
 10
235.46899537
 20
812.39390148
 42
0.03645657
  0
VERTEX
  8
0
 10
273.00255701
 20
824.50958736
 42
0.20072046
  0
VERTEX
  8
0
 10
285.88684540
 20
838.68230010
 42
0.01365913
  0
VERTEX
  8
0
 10
297.33487690
 20
873.89619089
 42
-0.26743495
  0
VERTEX
  8
0
 10
304.80465050
 20
881.01223899
 42
-0.26743495
  0
VERTEX
  8
0
 10
314.70778493
 20
878.12025235
 42
-0.03094295
  0
VERTEX
  8
0
 10
323.09981212
 20
868.20054410
  0
VERTEX
  8
0
 10
390.70408810
 20
777.45749308
 42
0.29753822
  0
VERTEX
  8
0
 10
412.38964777
 20
769.62012718
 42
-0.03487403
  0
VERTEX
  8
0
 10
430.34976879
 20
772.37694419
 42
-0.31109865
  0
VERTEX
  8
0
 10
433.59886879
 20
769.29261762
 42
-0.31109865
  0
VERTEX
  8
0
 10
431.87486641
 20
765.15770081
 42
-0.04694483
  0
VERTEX
  8
0
 10
409.21915388
 20
757.11913741
 42
-0.25452743
  0
VERTEX
  8
0
 10
383.16140636
 20
767.80336822
  0
VERTEX
  8
0
 10
316.58328885
 20
849.59616448
 42
0.31503627
  0
VERTEX
  8
0
 10
311.19762489
 20
851.55014505
 42
0.31503627
  0
VERTEX
  8
0
 10
307.51528417
 20
847.16109240
 42
0.03115372
  0
VERTEX
  8
0
 10
303.52148807
 20
816.28981284
 42
-0.05497412
  0
VERTEX
  8
0
 10
299.79327536
 20
801.35324222
 42
-0.19035588
  0
VERTEX
  8
0
 10
285.88280507
 20
787.62129551
 42
-0.02099438
  0
VERTEX
  8
0
 10
273.43828371
 20
782.98454811
 42
0.19704981
  0
VERTEX
  8
0
 10
270.00456454
 20
780.07963762
 42
0.03409156
  0
VERTEX
  8
0
 10
266.04203670
 20
770.83609746
 42
-0.23494469
  0
VERTEX
  8
0
 10
256.94558376
 20
763.79538260
 42
-0.27712007
  0
VERTEX
  8
0
 10
240.45317947
 20
770.13487388
 42
-0.04199174
  0
VERTEX
  8
0
 10
233.43940770
 20
789.14861921
  0
VERTEX
  8
0
 10
259.74695787
 20
795.97814800
  0
VERTEX
  8
0
 10
258.22674871
 20
801.83403940
  0
VERTEX
  8
0
 10
231.91919853
 20
795.00451061
  0
SEQEND
  0
POLYLINE
  8
OBJ02
 66
   1
 39
0.000000
 70
    1
  0
VERTEX
  8
0
 10
12.71863392
 20
784.89720908
 42
0.04694483
  0
VERTEX
  8
0
 10
33.16900025
 20
772.26066174
 42
0.25452743
  0
VERTEX
  8
0
 10
60.89412132
 20
777.20805049
  0
VERTEX
  8
0
 10
143.22709809
 20
843.11698909
 42
-0.31503627
  0
VERTEX
  8
0
 10
148.90374678
 20
843.89098907
 42
-0.31503627
  0
VERTEX
  8
0
 10
151.57743822
 20
838.82395933
 42
-0.03115372
  0
VERTEX
  8
0
 10
148.96958919
 20
807.80484535
 42
0.05497412
  0
VERTEX
  8
0
 10
149.46329586
 20
792.41793645
 42
0.19035588
  0
VERTEX
  8
0
 10
160.16425911
 20
776.06076891
 42
0.02099438
  0
VERTEX
  8
0
 10
171.35073868
 20
768.90338021
 42
-0.19704981
  0
VERTEX
  8
0
 10
174.09445773
 20
765.33954265
 42
-0.03409156
  0
VERTEX
  8
0
 10
176.01805826
 20
755.46814850
 42
0.23494469
  0
VERTEX
  8
0
 10
183.42472233
 20
746.66710032
 42
0.27712007
  0
VERTEX
  8
0
 10
200.88326538
 20
749.38515548
 42
0.04199174
  0
VERTEX
  8
0
 10
211.74986567
 20
766.49166021
  0
VERTEX
  8
0
 10
187.47480064
 20
778.71667055
  0
VERTEX
  8
0
 10
190.19600928
 20
784.12014383
  0
VERTEX
  8
0
 10
214.47107431
 20
771.89513350
 42
0.08258063
  0
VERTEX
  8
0
 10
218.14571680
 20
783.48773919
 42
0.34050708
  0
VERTEX
  8
0
 10
214.66915113
 20
789.64204135
 42
-0.03645657
  0
VERTEX
  8
0
 10
180.53568269
 20
809.40221409
 42
-0.20072046
  0
VERTEX
  8
0
 10
170.93078501
 20
825.97377449
 42
-0.01365913
  0
VERTEX
  8
0
 10
167.16811792
 20
862.81014057
 42
0.26743495
  0
VERTEX
  8
0
 10
161.36742388
 20
871.34170590
 42
0.26743495
  0
VERTEX
  8
0
 10
151.07708903
 20
870.60369034
 42
0.03094295
  0
VERTEX
  8
0
 10
140.78148037
 20
862.67733087
  0
VERTEX
  8
0
 10
55.55752490
 20
788.23596567
 42
-0.29753822
  0
VERTEX
  8
0
 10
32.70671840
 20
785.14914777
 42
0.03487403
  0
VERTEX
  8
0
 10
15.73219760
 20
791.63232835
 42
0.31109865
  0
VERTEX
  8
0
 10
11.90561326
 20
789.30274180
 42
0.31109865
  0
VERTEX
  8
0
 10
12.71863392
 20
784.89720908
  0
SEQEND
  0
POLYLINE
  8
OBJ02
 66
   1
 39
0.000000
 70
    1
  0
VERTEX
  8
0
 10
61.02825570
 20
700.83371203
 42
0.08981009
  0
VERTEX
  8
0
 10
69.88935230
 20
696.60990959
  0
VERTEX
  8
0
 10
82.32936770
 20
723.79555455
  0
VERTEX
  8
0
 10
87.83074733
 20
721.27815070
  0
VERTEX
  8
0
 10
75.39073193
 20
694.09250574
 42
0.19172222
  0
VERTEX
  8
0
 10
101.71783315
 20
687.83377561
 42
0.06239620
  0
VERTEX
  8
0
 10
134.11548272
 20
696.64611217
 42
0.13660035
  0
VERTEX
  8
0
 10
153.52255184
 20
712.10484990
 42
-0.20140378
  0
VERTEX
  8
0
 10
164.41051885
 20
713.70279110
 42
0.04891133
  0
VERTEX
  8
0
 10
235.52113464
 20
706.58686543
 42
0.05833870
  0
VERTEX
  8
0
 10
338.28587110
 20
714.75849201
 42
0.05138425
  0
VERTEX
  8
0
 10
431.95313646
 20
741.01856108
 42
0.01007432
  0
VERTEX
  8
0
 10
475.59033709
 20
760.14786994
 42
0.36959693
  0
VERTEX
  8
0
 10
477.53534123
 20
766.23060363
 42
0.36959693
  0
VERTEX
  8
0
 10
471.82492783
 20
769.08960152
 42
-0.02982448
  0
VERTEX
  8
0
 10
425.94024754
 20
751.05259274
 42
-0.04823653
  0
VERTEX
  8
0
 10
326.02196224
 20
728.16447376
 42
-0.05102716
  0
VERTEX
  8
0
 10
226.91452211
 20
724.77325528
 42
-0.04755514
  0
VERTEX
  8
0
 10
164.82552786
 20
732.61512939
 42
-0.24747671
  0
VERTEX
  8
0
 10
158.68595175
 20
738.04664632
 42
0.14485042
  0
VERTEX
  8
0
 10
141.31169064
 20
764.71523888
 42
0.28264804
  0
VERTEX
  8
0
 10
102.12244330
 20
767.31632835
 42
-0.11575824
  0
VERTEX
  8
0
 10
87.08780829
 20
760.84633114
 42
-0.04120714
  0
VERTEX
  8
0
 10
78.36644010
 20
761.19445724
 42
0.38897541
  0
VERTEX
  8
0
 10
56.60334500
 20
744.76901319
 42
0.01920955
  0
VERTEX
  8
0
 10
52.49846748
 20
715.98094988
 42
0.30031206
  0
VERTEX
  8
0
 10
61.02825570
 20
700.83371203
  0
SEQEND
  0
POLYLINE
  8
OBJ02
 66
   1
 39
0.000000
 70
    1
  0
VERTEX
  8
0
 10
149.98812145
 20
637.97423381
 42
-0.16198814
  0
VERTEX
  8
0
 10
145.04846737
 20
669.63683134
 42
-0.26778291
  0
VERTEX
  8
0
 10
152.91282706
 20
679.17107468
 42
-0.26778291
  0
VERTEX
  8
0
 10
165.10316974
 20
677.13502587
 42
0.22577075
  0
VERTEX
  8
0
 10
295.93441221
 20
644.46782884
 42
-0.08947341
  0
VERTEX
  8
0
 10
366.75310309
 20
638.48136094
 42
0.23794926
  0
VERTEX
  8
0
 10
376.14144533
 20
641.70481964
 42
0.23794926
  0
VERTEX
  8
0
 10
379.12831385
 20
651.17108988
  0
VERTEX
  8
0
 10
378.30739150
 20
660.03281380
  0
VERTEX
  8
0
 10
414.13720369
 20
667.96824996
  0
VERTEX
  8
0
 10
412.73278500
 20
673.85380981
  0
VERTEX
  8
0
 10
377.02154052
 20
665.94463353
 42
-0.41414083
  0
VERTEX
  8
0
 10
390.04570770
 20
686.32372136
 42
-0.00172169
  0
VERTEX
  8
0
 10
447.40941357
 20
699.65431831
 42
-0.09858179
  0
VERTEX
  8
0
 10
457.85920802
 20
700.62235454
 42
-0.40856430
  0
VERTEX
  8
0
 10
473.91294167
 20
679.02286583
 42
0.03050824
  0
VERTEX
  8
0
 10
470.85389076
 20
668.70209177
 42
0.27078218
  0
VERTEX
  8
0
 10
478.21687528
 20
650.25727439
 42
0.27078218
  0
VERTEX
  8
0
 10
497.90101804
 20
647.61921587
 42
0.05424965
  0
VERTEX
  8
0
 10
507.29984376
 20
654.51244811
  0
VERTEX
  8
0
 10
539.57823517
 20
696.14744041
 42
0.23780252
  0
VERTEX
  8
0
 10
539.57714339
 20
723.24883431
 42
0.21093114
  0
VERTEX
  8
0
 10
512.56904784
 20
739.79066824
 42
0.21093114
  0
VERTEX
  8
0
 10
482.14869622
 20
730.97751319
 42
0.04610812
  0
VERTEX
  8
0
 10
468.96284162
 20
716.20526939
 42
-0.25628611
  0
VERTEX
  8
0
 10
464.23413209
 20
716.81970685
 42
-0.25628611
  0
VERTEX
  8
0
 10
462.21152522
 20
721.13795750
 42
-0.07430331
  0
VERTEX
  8
0
 10
471.55134038
 20
737.02221966
 42
-0.28793383
  0
VERTEX
  8
0
 10
528.21035041
 20
754.73714448
 42
-0.28793383
  0
VERTEX
  8
0
 10
568.78018089
 20
711.39950687
 42
0.00874959
  0
VERTEX
  8
0
 10
570.17236030
 20
690.95131416
 42
0.20137717
  0
VERTEX
  8
0
 10
591.81087718
 20
657.82436976
 42
0.00122035
  0
VERTEX
  8
0
 10
615.99151106
 20
646.01185970
 42
-0.18931105
  0
VERTEX
  8
0
 10
639.16876513
 20
612.52538196
 42
-0.22784347
  0
VERTEX
  8
0
 10
636.79151882
 20
609.48246952
 42
-0.22784347
  0
VERTEX
  8
0
 10
632.93034844
 20
609.43797809
 42
0.21403965
  0
VERTEX
  8
0
 10
615.28568898
 20
623.86195414
 42
0.21403965
  0
VERTEX
  8
0
 10
592.78000519
 20
620.27318141
 42
0.01588275
  0
VERTEX
  8
0
 10
576.52556254
 20
600.69975739
 42
-0.15438769
  0
VERTEX
  8
0
 10
559.92961535
 20
595.64930284
  0
VERTEX
  8
0
 10
528.19782118
 20
604.36212010
  0
VERTEX
  8
0
 10
537.87247980
 20
633.54205013
  0
VERTEX
  8
0
 10
532.12988406
 20
635.44601814
  0
VERTEX
  8
0
 10
522.55407243
 20
606.56422249
  0
VERTEX
  8
0
 10
492.39175927
 20
614.98866377
 42
0.21232095
  0
VERTEX
  8
0
 10
478.11395900
 20
612.88821248
 42
0.21232095
  0
VERTEX
  8
0
 10
470.11035325
 20
600.87947519
 42
-0.04560898
  0
VERTEX
  8
0
 10
467.50304685
 20
591.10203368
 42
-0.31167602
  0
VERTEX
  8
0
 10
451.95777452
 20
580.12635591
 42
-0.05322185
  0
VERTEX
  8
0
 10
439.05098907
 20
581.36713347
  0
VERTEX
  8
0
 10
449.11980641
 20
626.06577777
  0
VERTEX
  8
0
 10
443.22806746
 20
627.44132838
  0
VERTEX
  8
0
 10
433.15660071
 20
582.73092251
  0
VERTEX
  8
0
 10
415.70547080
 20
586.80574556
 42
-0.23606174
  0
VERTEX
  8
0
 10
408.63739693
 20
592.67531653
 42
0.15981049
  0
VERTEX
  8
0
 10
398.84112055
 20
606.32242555
 42
0.15247188
  0
VERTEX
  8
0
 10
392.23400724
 20
607.21600188
 42
0.06892112
  0
VERTEX
  8
0
 10
384.54893883
 20
603.49280398
 42
-0.03170284
  0
VERTEX
  8
0
 10
357.97345548
 20
586.97810977
 42
-0.24500014
  0
VERTEX
  8
0
 10
198.85785053
 20
581.77404721
 42
-0.18264403
  0
VERTEX
  8
0
 10
149.98812145
 20
637.97423381
  0
SEQEND
  0
POLYLINE
  8
OBJ02
 66
   1
 39
0.000000
 70
    1
  0
VERTEX
  8
0
 10
239.03651022
 20
266.01288400
 42
0.27840688
  0
VERTEX
  8
0
 10
254.42826538
 20
264.88893780
 42
0.27840688
  0
VERTEX
  8
0
 10
262.59407749
 20
277.98431464
 42
0.08812650
  0
VERTEX
  8
0
 10
248.20700567
 20
331.97980070
 42
0.08353683
  0
VERTEX
  8
0
 10
200.73191786
 20
399.94343485
 42
-0.04328025
  0
VERTEX
  8
0
 10
148.50145301
 20
495.51092957
 42
0.37638506
  0
VERTEX
  8
0
 10
140.60872497
 20
497.68260457
 42
0.37638506
  0
VERTEX
  8
0
 10
137.42573077
 20
490.14072972
 42
0.01981301
  0
VERTEX
  8
0
 10
162.75149347
 20
403.44062997
 42
0.02827123
  0
VERTEX
  8
0
 10
191.73660079
 20
325.48121534
 42
0.09359677
  0
VERTEX
  8
0
 10
239.03651022
 20
266.01288400
  0
SEQEND
  0
POLYLINE
  8
OBJ02
 66
   1
 39
0.000000
 70
    1
  0
VERTEX
  8
0
 10
382.13836420
 20
12.14531119
 42
-0.10883797
  0
VERTEX
  8
0
 10
303.67724225
 20
76.11202021
 42
-0.07698286
  0
VERTEX
  8
0
 10
224.21949347
 20
208.54297875
 42
0.00497392
  0
VERTEX
  8
0
 10
181.24206420
 20
307.99228851
 42
0.00115477
  0
VERTEX
  8
0
 10
146.26007884
 20
403.94233729
 42
0.02011995
  0
VERTEX
  8
0
 10
124.77136420
 20
477.90284948
 42
0.18400538
  0
VERTEX
  8
0
 10
107.11195958
 20
502.62885996
 42
-0.13657666
  0
VERTEX
  8
0
 10
88.79009591
 20
521.87897143
 42
-0.21348650
  0
VERTEX
  8
0
 10
90.88134354
 20
537.67715677
  0
VERTEX
  8
0
 10
116.03289401
 20
527.51397456
  0
VERTEX
  8
0
 10
118.29951242
 20
533.12333647
  0
VERTEX
  8
0
 10
93.14796194
 20
543.28651868
 42
-0.21936467
  0
VERTEX
  8
0
 10
103.78229103
 20
555.86226412
 42
-0.19733273
  0
VERTEX
  8
0
 10
116.27568859
 20
556.86272753
 42
0.00199282
  0
VERTEX
  8
0
 10
166.24986908
 20
540.37131290
 42
0.09194265
  0
VERTEX
  8
0
 10
240.71090810
 20
534.37443485
 42
0.06318915
  0
VERTEX
  8
0
 10
319.17114469
 20
548.86492265
 42
-0.05014451
  0
VERTEX
  8
0
 10
359.14836420
 20
562.35789826
 42
-0.33229592
  0
VERTEX
  8
0
 10
401.62821786
 20
535.37194704
 42
-0.12184415
  0
VERTEX
  8
0
 10
405.12541298
 20
508.38599582
 42
-0.06756604
  0
VERTEX
  8
0
 10
396.13009591
 20
482.89926412
 42
0.16833130
  0
VERTEX
  8
0
 10
396.62885201
 20
472.40472753
 42
0.05460192
  0
VERTEX
  8
0
 10
412.12275445
 20
449.91643485
 42
-0.22632397
  0
VERTEX
  8
0
 10
414.12073006
 20
431.92580070
 42
-0.02008863
  0
VERTEX
  8
0
 10
405.12541298
 20
411.93719094
 42
0.18539953
  0
VERTEX
  8
0
 10
405.12541298
 20
401.94141046
 42
0.05440637
  0
VERTEX
  8
0
 10
417.61792518
 20
381.45404460
 42
-0.21394288
  0
VERTEX
  8
0
 10
420.11760810
 20
364.46092265
 42
-0.04079715
  0
VERTEX
  8
0
 10
412.62151054
 20
347.47075192
 42
0.20925182
  0
VERTEX
  8
0
 10
413.12026664
 20
331.97980070
 42
-0.07678029
  0
VERTEX
  8
0
 10
423.61480323
 20
312.48994704
 42
-0.08714091
  0
VERTEX
  8
0
 10
424.61526664
 20
302.99292265
 42
-0.09687365
  0
VERTEX
  8
0
 10
415.12119347
 20
281.50509338
 42
0.14734178
  0
VERTEX
  8
0
 10
414.12073006
 20
271.51019826
 42
0.12087599
  0
VERTEX
  8
0
 10
424.61526664
 20
251.02106168
 42
-0.16076422
  0
VERTEX
  8
0
 10
426.61324225
 20
234.02971046
 42
-0.06165154
  0
VERTEX
  8
0
 10
416.62041298
 20
215.53943485
 42
0.16183470
  0
VERTEX
  8
0
 10
415.61994957
 20
202.54610070
 42
-0.02599616
  0
VERTEX
  8
0
 10
425.61573006
 20
180.55774460
 42
-0.09907367
  0
VERTEX
  8
0
 10
425.61573006
 20
168.06405192
 42
0.09557853
  0
VERTEX
  8
0
 10
413.62197396
 20
142.57732021
 42
0.12576563
  0
VERTEX
  8
0
 10
413.62197396
 20
134.58158119
 42
0.06559186
  0
VERTEX
  8
0
 10
423.61480323
 20
115.59136899
 42
-0.22899905
  0
VERTEX
  8
0
 10
423.61480323
 20
95.60187387
 42
-0.03593077
  0
VERTEX
  8
0
 10
412.12275445
 20
79.61010070
 42
0.19911623
  0
VERTEX
  8
0
 10
409.62307152
 20
63.61862265
 42
0.09914652
  0
VERTEX
  8
0
 10
422.11558371
 20
40.63039338
 42
-0.30926701
  0
VERTEX
  8
0
 10
417.34811035
 20
14.84547508
 42
-0.35889010
  0
VERTEX
  8
0
 10
382.13836420
 20
12.14531119
  0
SEQEND
  0
POLYLINE
  8
OBJ02
 66
   1
 39
0.000000
 70
    1
  0
VERTEX
  8
0
 10
159.86958879
 20
47.96719879
 42
-0.26383061
  0
VERTEX
  8
0
 10
156.86762931
 20
78.50407806
 42
-0.11111136
  0
VERTEX
  8
0
 10
173.73876753
 20
101.72069976
 42
0.20780371
  0
VERTEX
  8
0
 10
188.94445446
 20
127.99478565
  0
VERTEX
  8
0
 10
188.94445446
 20
145.45625016
  0
VERTEX
  8
0
 10
208.45519107
 20
145.45625016
  0
VERTEX
  8
0
 10
208.45519107
 20
113.07907536
  0
VERTEX
  8
0
 10
214.50519107
 20
113.07907536
  0
VERTEX
  8
0
 10
214.50519107
 20
145.45625016
  0
VERTEX
  8
0
 10
234.01592769
 20
145.45625016
  0
VERTEX
  8
0
 10
234.01592769
 20
127.99478565
 42
0.28784516
  0
VERTEX
  8
0
 10
249.22161462
 20
101.72069976
 42
-0.20160452
  0
VERTEX
  8
0
 10
266.09275284
 20
78.50407806
 42
-0.27169212
  0
VERTEX
  8
0
 10
263.09079335
 20
47.96719879
 42
-0.13330375
  0
VERTEX
  8
0
 10
252.56089278
 20
43.75421706
  0
VERTEX
  8
0
 10
241.90836137
 20
71.70839923
  0
VERTEX
  8
0
 10
236.25493391
 20
69.55404131
  0
VERTEX
  8
0
 10
246.75476530
 20
42.00057181
 42
0.19450766
  0
VERTEX
  8
0
 10
225.01396607
 20
22.85761125
 42
0.01565442
  0
VERTEX
  8
0
 10
221.61385493
 20
16.80464853
 42
-0.24094289
  0
VERTEX
  8
0
 10
211.48019107
 20
11.62041730
 42
-0.24094289
  0
VERTEX
  8
0
 10
201.34652722
 20
16.80464853
 42
-0.01685549
  0
VERTEX
  8
0
 10
197.94641608
 20
22.85761125
 42
0.22492028
  0
VERTEX
  8
0
 10
176.20561684
 20
42.00057181
  0
VERTEX
  8
0
 10
186.70544824
 20
69.55404131
  0
VERTEX
  8
0
 10
181.05202078
 20
71.70839923
  0
VERTEX
  8
0
 10
170.39948937
 20
43.75421706
 42
-0.18305102
  0
VERTEX
  8
0
 10
159.86958879
 20
47.96719879
  0
SEQEND
  0
POLYLINE
  8
OBJ02
 66
   1
 39
0.000000
 70
    1
  0
VERTEX
  8
0
 10
93.28775445
 20
72.61393973
 42
0.31501815
  0
VERTEX
  8
0
 10
94.78823795
 20
67.84315689
 42
0.31501815
  0
VERTEX
  8
0
 10
99.78427396
 20
67.61634460
 42
0.06632439
  0
VERTEX
  8
0
 10
123.27214469
 20
103.09797143
 42
0.05413732
  0
VERTEX
  8
0
 10
146.26007884
 20
151.57263729
 42
0.04015712
  0
VERTEX
  8
0
 10
166.24986908
 20
217.03865436
 42
0.02289017
  0
VERTEX
  8
0
 10
167.74908859
 20
227.53319094
 42
0.32675370
  0
VERTEX
  8
0
 10
165.25029103
 20
231.53120802
 42
0.05588837
  0
VERTEX
  8
0
 10
148.25923493
 20
233.53006899
 42
0.27439039
  0
VERTEX
  8
0
 10
143.76157640
 20
230.53162997
 42
-0.02805684
  0
VERTEX
  8
0
 10
133.26703981
 20
174.56086655
 42
-0.05938219
  0
VERTEX
  8
0
 10
116.77562518
 20
122.58782509
 42
-0.03443671
  0
VERTEX
  8
0
 10
108.27994957
 20
103.59761290
 42
-0.00412707
  0
VERTEX
  8
0
 10
93.28775445
 20
72.61393973
  0
SEQEND
  0
POLYLINE
  8
OBJ02
 66
   1
 39
0.000000
 70
    1
  0
VERTEX
  8
0
 10
9.65305192
 20
20.18113818
 42
-0.38151100
  0
VERTEX
  8
0
 10
14.82869835
 20
43.62883241
 42
0.21761284
  0
VERTEX
  8
0
 10
44.81308859
 20
88.60541777
 42
0.13663085
  0
VERTEX
  8
0
 10
40.31543006
 20
172.06206899
 42
0.12770617
  0
VERTEX
  8
0
 10
5.83338128
 20
229.53205192
 42
-0.36246753
  0
VERTEX
  8
0
 10
6.33302274
 20
262.01523973
 42
0.32869182
  0
VERTEX
  8
0
 10
25.32323493
 20
296.49728851
 42
0.12052047
  0
VERTEX
  8
0
 10
1.83536420
 20
331.97980070
 42
-0.26713415
  0
VERTEX
  8
0
 10
1.59649947
 20
340.48804863
 42
-0.26713415
  0
VERTEX
  8
0
 10
8.83182030
 20
344.97106899
 42
0.36034485
  0
VERTEX
  8
0
 10
36.81705445
 20
359.46450802
 42
0.03101737
  0
VERTEX
  8
0
 10
36.81705445
 20
389.94765436
 42
0.02887037
  0
VERTEX
  8
0
 10
26.82245445
 20
480.90128851
 42
-0.19403751
  0
VERTEX
  8
0
 10
28.32167396
 20
509.88521534
 42
0.08239869
  0
VERTEX
  8
0
 10
43.81351054
 20
529.37506899
 42
0.13489751
  0
VERTEX
  8
0
 10
49.81038859
 20
552.86382509
 42
-0.37978531
  0
VERTEX
  8
0
 10
57.35931220
 20
556.43802343
 42
-0.37978531
  0
VERTEX
  8
0
 10
61.80414469
 20
549.36662997
 42
0.22673577
  0
VERTEX
  8
0
 10
77.20525197
 20
517.27412018
 42
-0.17321946
  0
VERTEX
  8
0
 10
83.79279591
 20
491.39582509
 42
-0.02537369
  0
VERTEX
  8
0
 10
75.60751210
 20
440.34656184
 42
0.03597686
  0
VERTEX
  8
0
 10
69.79988371
 20
369.95904460
 42
0.27826855
  0
VERTEX
  8
0
 10
75.83999423
 20
363.58828642
 42
0.27826855
  0
VERTEX
  8
0
 10
84.29243737
 20
365.96014216
 42
0.15176217
  0
VERTEX
  8
0
 10
97.28577152
 20
389.44889826
 42
-0.38092582
  0
VERTEX
  8
0
 10
103.34171629
 20
391.70844960
 42
-0.38092582
  0
VERTEX
  8
0
 10
106.28108859
 20
385.95170314
 42
0.11248506
  0
VERTEX
  8
0
 10
109.27952762
 20
348.96997143
 42
0.31741807
  0
VERTEX
  8
0
 10
112.74819879
 20
345.39800524
 42
0.31741807
  0
VERTEX
  8
0
 10
117.27526664
 20
347.47075192
 42
0.09661210
  0
VERTEX
  8
0
 10
129.26902274
 20
378.45560558
 42
-0.36441460
  0
VERTEX
  8
0
 10
134.85732911
 20
381.44510241
 42
-0.36441460
  0
VERTEX
  8
0
 10
138.76398128
 20
376.45467875
 42
0.09337275
  0
VERTEX
  8
0
 10
143.76157640
 20
345.97153241
 42
-0.17918199
  0
VERTEX
  8
0
 10
150.75773737
 20
302.49416655
 42
0.26645087
  0
VERTEX
  8
0
 10
154.07578976
 20
299.59457485
 42
0.26645087
  0
VERTEX
  8
0
 10
158.25383493
 20
300.99494704
 42
0.06688931
  0
VERTEX
  8
0
 10
161.25227396
 20
306.99182509
 42
-0.36885073
  0
VERTEX
  8
0
 10
167.06710468
 20
309.79584645
 42
-0.36885073
  0
VERTEX
  8
0
 10
170.74752762
 20
304.49214216
 42
0.12559997
  0
VERTEX
  8
0
 10
183.24092518
 20
272.01013485
 42
-0.13782277
  0
VERTEX
  8
0
 10
186.73900567
 20
242.52538607
 42
-0.04082356
  0
VERTEX
  8
0
 10
178.24362518
 20
198.54837875
 42
-0.09264720
  0
VERTEX
  8
0
 10
134.26632274
 20
94.10265436
 42
-0.07405715
  0
VERTEX
  8
0
 10
86.79123493
 20
31.63507631
 42
-0.16112920
  0
VERTEX
  8
0
 10
34.81819347
 20
0.15155509
 42
-0.24651965
  0
VERTEX
  8
0
 10
15.32833981
 20
7.64765265
 42
-0.09399819
  0
VERTEX
  8
0
 10
11.80425444
 20
14.52650930
  0
VERTEX
  8
0
 10
36.34232013
 20
23.86157793
  0
VERTEX
  8
0
 10
34.19111762
 20
29.51620681
  0
VERTEX
  8
0
 10
9.65305192
 20
20.18113818
  0
SEQEND
  0
POLYLINE
  8
OBJ02
 66
   1
 39
0.000000
 70
    1
  0
VERTEX
  8
0
 10
91.28889347
 20
113.59250802
 42
0.36021542
  0
VERTEX
  8
0
 10
93.33903373
 20
108.94758732
 42
0.36021542
  0
VERTEX
  8
0
 10
98.28505445
 20
110.09442753
 42
0.06079098
  0
VERTEX
  8
0
 10
121.27328371
 20
177.55930558
 42
0.05044455
  0
VERTEX
  8
0
 10
130.76824225
 20
237.02814948
 42
0.02217740
  0
VERTEX
  8
0
 10
131.26788371
 20
281.00545192
 42
0.31209416
  0
VERTEX
  8
0
 10
128.26944469
 20
286.00275192
 42
0.03624079
  0
VERTEX
  8
0
 10
111.77803006
 20
287.50197143
 42
0.39214619
  0
VERTEX
  8
0
 10
108.27994957
 20
284.00477631
 42
-0.04152318
  0
VERTEX
  8
0
 10
109.77916908
 20
213.54057387
 42
-0.06451473
  0
VERTEX
  8
0
 10
94.78697396
 20
128.58470314
 42
-0.02785095
  0
VERTEX
  8
0
 10
91.28889347
 20
113.59250802
  0
SEQEND
  0
POLYLINE
  8
OBJ02
 66
   1
 39
0.000000
 70
    1
  0
VERTEX
  8
0
 10
85.29201542
 20
180.05780802
 42
0.10218417
  0
VERTEX
  8
0
 10
58.80570567
 20
248.52226412
 42
-0.32637771
  0
VERTEX
  8
0
 10
59.80528371
 20
252.02034460
 42
0.26349355
  0
VERTEX
  8
0
 10
80.79435689
 20
283.50306899
 42
-0.07738752
  0
VERTEX
  8
0
 10
79.21586414
 20
295.83871562
 42
-0.35166744
  0
VERTEX
  8
0
 10
83.85795617
 20
300.95907729
 42
-0.35166744
  0
VERTEX
  8
0
 10
89.86165035
 20
297.53522299
 42
-0.04008198
  0
VERTEX
  8
0
 10
95.78655201
 20
246.52340314
 42
-0.06582715
  0
VERTEX
  8
0
 10
93.78739591
 20
181.05738607
 42
-0.31644669
  0
VERTEX
  8
0
 10
89.89121884
 20
177.57009830
 42
-0.31644669
  0
VERTEX
  8
0
 10
85.29201542
 20
180.05780802
  0
SEQEND
  0
POLYLINE
  8
OBJ02
 66
   1
 39
0.000000
 70
    1
  0
VERTEX
  8
0
 10
55.30762518
 20
74.11315924
 42
0.01690836
  0
VERTEX
  8
0
 10
52.30918615
 20
62.11940314
 42
0.33592507
  0
VERTEX
  8
0
 10
55.17168295
 20
57.59256029
 42
0.33592507
  0
VERTEX
  8
0
 10
60.30492518
 20
59.12096412
 42
0.13299387
  0
VERTEX
  8
0
 10
76.79633981
 20
142.07767875
 42
0.13766130
  0
VERTEX
  8
0
 10
54.80768859
 20
223.03553241
 42
0.23653944
  0
VERTEX
  8
0
 10
50.80996664
 20
224.03511046
 42
0.07859566
  0
VERTEX
  8
0
 10
38.81621054
 20
216.03907631
 42
0.28787525
  0
VERTEX
  8
0
 10
37.81663250
 20
209.54255680
 42
-0.10462683
  0
VERTEX
  8
0
 10
59.80528371
 20
144.07653973
 42
-0.11015679
  0
VERTEX
  8
0
 10
55.30762518
 20
74.11315924
  0
SEQEND
  0
POLYLINE
  8
OBJ02
 66
   1
 39
0.000000
 70
    1
  0
VERTEX
  8
0
 10
36.94147533
 20
564.96417518
 42
-0.26743495
  0
VERTEX
  8
0
 10
26.64265268
 20
564.35597271
 42
-0.26743495
  0
VERTEX
  8
0
 10
20.94999729
 20
572.96000274
 42
-0.03094295
  0
VERTEX
  8
0
 10
20.94999729
 20
585.95333689
  0
VERTEX
  8
0
 10
27.94615826
 20
698.89444176
 42
0.29753822
  0
VERTEX
  8
0
 10
16.45233875
 20
718.88393689
 42
-0.03487403
  0
VERTEX
  8
0
 10
0.96020704
 20
728.37919054
 42
-0.31109865
  0
VERTEX
  8
0
 10
0.47177416
 20
732.83240899
 42
-0.31109865
  0
VERTEX
  8
0
 10
4.45858265
 20
734.87571006
 42
-0.04694483
  0
VERTEX
  8
0
 10
26.94687533
 20
726.38003445
 42
-0.25452743
  0
VERTEX
  8
0
 10
39.93991436
 20
701.39323932
  0
VERTEX
  8
0
 10
37.94105338
 20
595.94793689
 42
0.31503627
  0
VERTEX
  8
0
 10
40.79069588
 20
590.97773026
 42
0.31503627
  0
VERTEX
  8
0
 10
46.43672899
 20
591.95021493
 42
0.03115372
  0
VERTEX
  8
0
 10
69.42466314
 20
612.93928811
 42
-0.05497412
  0
VERTEX
  8
0
 10
81.91806070
 20
621.93460518
 42
-0.19035588
  0
VERTEX
  8
0
 10
101.40702899
 20
623.43382469
 42
-0.02099438
  0
VERTEX
  8
0
 10
113.90249241
 20
618.93616615
 42
0.19704981
  0
VERTEX
  8
0
 10
118.40015094
 20
618.93616615
 42
0.03409156
  0
VERTEX
  8
0
 10
127.39546802
 20
623.43382469
 42
-0.23494469
  0
VERTEX
  8
0
 10
138.88751680
 20
622.93388811
 42
-0.27712007
  0
VERTEX
  8
0
 10
147.38407777
 20
607.44205152
 42
-0.04199174
  0
VERTEX
  8
0
 10
140.45827281
 20
588.39608787
  0
VERTEX
  8
0
 10
115.96288075
 20
600.17341473
  0
VERTEX
  8
0
 10
113.34132357
 20
594.72089807
  0
VERTEX
  8
0
 10
137.83671563
 20
582.94357120
 42
-0.08258063
  0
VERTEX
  8
0
 10
130.89266314
 20
572.96000274
 42
-0.34050708
  0
VERTEX
  8
0
 10
123.89532168
 20
571.96042469
 42
0.03645657
  0
VERTEX
  8
0
 10
87.41529729
 20
586.95261981
 42
0.20072046
  0
VERTEX
  8
0
 10
68.42508509
 20
584.45411737
 42
0.01365913
  0
VERTEX
  8
0
 10
36.94147533
 20
564.96417518
  0
SEQEND
  0
POLYLINE
  8
OBJ02
 66
   1
 39
0.000000
 70
    1
  0
VERTEX
  8
0
 10
456.94193343
 20
41.74610369
 42
0.30926701
  0
VERTEX
  8
0
 10
461.70940679
 20
15.96118539
 42
0.35889010
  0
VERTEX
  8
0
 10
496.91915294
 20
13.26102149
 42
0.10883797
  0
VERTEX
  8
0
 10
575.38027489
 20
77.22773052
 42
0.07698286
  0
VERTEX
  8
0
 10
654.83802367
 20
209.65868905
 42
-0.00497392
  0
VERTEX
  8
0
 10
697.81545294
 20
309.10799881
 42
-0.00115477
  0
VERTEX
  8
0
 10
732.79743831
 20
405.05804759
 42
-0.02011995
  0
VERTEX
  8
0
 10
754.28615294
 20
479.01855979
 42
-0.18400538
  0
VERTEX
  8
0
 10
771.94555757
 20
503.74457027
 42
0.13657666
  0
VERTEX
  8
0
 10
790.26742124
 20
522.99468174
 42
0.21348650
  0
VERTEX
  8
0
 10
788.17617361
 20
538.79286707
  0
VERTEX
  8
0
 10
763.02462313
 20
528.62968486
  0
VERTEX
  8
0
 10
760.75800473
 20
534.23904677
  0
VERTEX
  8
0
 10
785.90955520
 20
544.40222898
 42
0.21936467
  0
VERTEX
  8
0
 10
775.27522611
 20
556.97797442
 42
0.19733273
  0
VERTEX
  8
0
 10
762.78182855
 20
557.97843784
 42
-0.00199282
  0
VERTEX
  8
0
 10
712.80764806
 20
541.48702320
 42
-0.09194265
  0
VERTEX
  8
0
 10
638.34660904
 20
535.49014515
 42
-0.06318915
  0
VERTEX
  8
0
 10
559.88637245
 20
549.98063296
 42
0.05014451
  0
VERTEX
  8
0
 10
519.90915294
 20
563.47360857
 42
0.33229592
  0
VERTEX
  8
0
 10
477.42929928
 20
536.48765735
 42
0.12184415
  0
VERTEX
  8
0
 10
473.93210416
 20
509.50170613
 42
0.06756604
  0
VERTEX
  8
0
 10
482.92742124
 20
484.01497442
 42
-0.16833130
  0
VERTEX
  8
0
 10
482.42866514
 20
473.52043784
 42
-0.05460192
  0
VERTEX
  8
0
 10
466.93476270
 20
451.03214515
 42
0.22632397
  0
VERTEX
  8
0
 10
464.93678709
 20
433.04151101
 42
0.02008863
  0
VERTEX
  8
0
 10
473.93210416
 20
413.05290125
 42
-0.18539953
  0
VERTEX
  8
0
 10
473.93210416
 20
403.05712076
 42
-0.05440637
  0
VERTEX
  8
0
 10
461.43959197
 20
382.56975491
 42
0.21394288
  0
VERTEX
  8
0
 10
458.93990904
 20
365.57663296
 42
0.04079715
  0
VERTEX
  8
0
 10
466.43600660
 20
348.58646223
 42
-0.20925182
  0
VERTEX
  8
0
 10
465.93725050
 20
333.09551101
 42
0.07678029
  0
VERTEX
  8
0
 10
455.44271392
 20
313.60565735
 42
0.08714091
  0
VERTEX
  8
0
 10
454.44225050
 20
304.10863296
 42
0.09687365
  0
VERTEX
  8
0
 10
463.93632367
 20
282.62080369
 42
-0.14734178
  0
VERTEX
  8
0
 10
464.93678709
 20
272.62590857
 42
-0.12087599
  0
VERTEX
  8
0
 10
454.44225050
 20
252.13677198
 42
0.16076422
  0
VERTEX
  8
0
 10
452.44427489
 20
235.14542076
 42
0.06165154
  0
VERTEX
  8
0
 10
462.43710416
 20
216.65514515
 42
-0.16183470
  0
VERTEX
  8
0
 10
463.43756758
 20
203.66181101
 42
0.02599616
  0
VERTEX
  8
0
 10
453.44178709
 20
181.67345491
 42
0.09907367
  0
VERTEX
  8
0
 10
453.44178709
 20
169.17976223
 42
-0.09557853
  0
VERTEX
  8
0
 10
465.43554319
 20
143.69303052
 42
-0.12576563
  0
VERTEX
  8
0
 10
465.43554319
 20
135.69729149
 42
-0.06559186
  0
VERTEX
  8
0
 10
455.44271392
 20
116.70707930
 42
0.22899905
  0
VERTEX
  8
0
 10
455.44271392
 20
96.71758418
 42
0.03593077
  0
VERTEX
  8
0
 10
466.93476270
 20
80.72581101
 42
-0.19911623
  0
VERTEX
  8
0
 10
469.43444563
 20
64.73433296
 42
-0.09914652
  0
VERTEX
  8
0
 10
456.94193343
 20
41.74610369
  0
SEQEND
  0
POLYLINE
  8
OBJ02
 66
   1
 39
0.000000
 70
    1
  0
VERTEX
  8
0
 10
844.23932367
 20
1.26726540
 42
-0.16112920
  0
VERTEX
  8
0
 10
792.26628221
 20
32.75078662
 42
-0.07405715
  0
VERTEX
  8
0
 10
744.79119441
 20
95.21836466
 42
-0.09264720
  0
VERTEX
  8
0
 10
700.81389197
 20
199.66408905
 42
-0.04082356
  0
VERTEX
  8
0
 10
692.31851148
 20
243.64109637
 42
-0.13782277
  0
VERTEX
  8
0
 10
695.81659197
 20
273.12584515
 42
0.12559997
  0
VERTEX
  8
0
 10
708.30998953
 20
305.60785247
 42
-0.36885073
  0
VERTEX
  8
0
 10
711.99041246
 20
310.91155675
 42
-0.36885073
  0
VERTEX
  8
0
 10
717.80524319
 20
308.10753540
 42
0.06688931
  0
VERTEX
  8
0
 10
720.80368221
 20
302.11065735
 42
0.26645087
  0
VERTEX
  8
0
 10
724.98172738
 20
300.71028515
 42
0.26645087
  0
VERTEX
  8
0
 10
728.29977977
 20
303.60987686
 42
-0.17918199
  0
VERTEX
  8
0
 10
735.29594075
 20
347.08724271
 42
0.09337275
  0
VERTEX
  8
0
 10
740.29353587
 20
377.57038905
 42
-0.36441460
  0
VERTEX
  8
0
 10
744.20018803
 20
382.56081271
 42
-0.36441460
  0
VERTEX
  8
0
 10
749.78849441
 20
379.57131588
 42
0.09661210
  0
VERTEX
  8
0
 10
761.78225050
 20
348.58646223
 42
0.31741807
  0
VERTEX
  8
0
 10
766.30931836
 20
346.51371554
 42
0.31741807
  0
VERTEX
  8
0
 10
769.77798953
 20
350.08568174
 42
0.11248506
  0
VERTEX
  8
0
 10
772.77642855
 20
387.06741344
 42
-0.38092582
  0
VERTEX
  8
0
 10
775.71580085
 20
392.82415991
 42
-0.38092582
  0
VERTEX
  8
0
 10
781.77174563
 20
390.56460857
 42
0.15176217
  0
VERTEX
  8
0
 10
794.76507977
 20
367.07585247
 42
0.27826855
  0
VERTEX
  8
0
 10
803.21752292
 20
364.70399673
 42
0.27826855
  0
VERTEX
  8
0
 10
809.25763343
 20
371.07475491
 42
0.03597686
  0
VERTEX
  8
0
 10
803.45000504
 20
441.46227214
 42
-0.02537369
  0
VERTEX
  8
0
 10
795.26472124
 20
492.51153540
 42
-0.17321946
  0
VERTEX
  8
0
 10
801.85226518
 20
518.38983048
 42
0.22673577
  0
VERTEX
  8
0
 10
817.25337245
 20
550.48234027
 42
-0.37978531
  0
VERTEX
  8
0
 10
821.69820495
 20
557.55373374
 42
-0.37978531
  0
VERTEX
  8
0
 10
829.24712855
 20
553.97953540
 42
0.13489751
  0
VERTEX
  8
0
 10
835.24400660
 20
530.49077930
 42
0.08239869
  0
VERTEX
  8
0
 10
850.73584319
 20
511.00092564
 42
-0.19403751
  0
VERTEX
  8
0
 10
852.23506270
 20
482.01699881
 42
0.02887037
  0
VERTEX
  8
0
 10
842.24046270
 20
391.06336466
 42
0.03101737
  0
VERTEX
  8
0
 10
842.24046270
 20
360.58021832
 42
0.36034485
  0
VERTEX
  8
0
 10
870.22569685
 20
346.08677930
 42
-0.26713415
  0
VERTEX
  8
0
 10
877.46101768
 20
341.60375893
 42
-0.26713415
  0
VERTEX
  8
0
 10
877.22215294
 20
333.09551101
 42
0.12052047
  0
VERTEX
  8
0
 10
853.73428221
 20
297.61299881
 42
0.32869182
  0
VERTEX
  8
0
 10
872.72449441
 20
263.13095003
 42
-0.36246753
  0
VERTEX
  8
0
 10
873.22413587
 20
230.64776223
 42
0.12770617
  0
VERTEX
  8
0
 10
838.74208709
 20
173.17777930
 42
0.13663085
  0
VERTEX
  8
0
 10
834.24442855
 20
89.72112808
 42
0.21761284
  0
VERTEX
  8
0
 10
864.22881880
 20
44.74454271
 42
-0.38151100
  0
VERTEX
  8
0
 10
869.40446522
 20
21.29684848
  0
VERTEX
  8
0
 10
844.86639953
 20
30.63191711
  0
VERTEX
  8
0
 10
842.71519701
 20
24.97728824
  0
VERTEX
  8
0
 10
867.25326271
 20
15.64221961
 42
-0.09399819
  0
VERTEX
  8
0
 10
863.72917733
 20
8.76336296
 42
-0.24651965
  0
VERTEX
  8
0
 10
844.23932367
 20
1.26726540
  0
SEQEND
  0
POLYLINE
  8
OBJ02
 66
   1
 39
0.000000
 70
    0
  0
VERTEX
  8
0
 10
698.00549636
 20
72.82410953
  0
VERTEX
  8
0
 10
708.65802778
 20
44.86992736
 42
0.18305102
  0
VERTEX
  8
0
 10
719.18792835
 20
49.08290909
 42
0.26383061
  0
VERTEX
  8
0
 10
722.18988784
 20
79.61978836
 42
0.11111136
  0
VERTEX
  8
0
 10
705.31874961
 20
102.83641006
 42
-0.20780371
  0
VERTEX
  8
0
 10
690.11306269
 20
129.11049596
  0
VERTEX
  8
0
 10
690.11306269
 20
146.57196047
  0
VERTEX
  8
0
 10
670.60232607
 20
146.57196047
  0
VERTEX
  8
0
 10
670.60232607
 20
114.19478566
  0
VERTEX
  8
0
 10
664.55232607
 20
114.19478566
  0
VERTEX
  8
0
 10
664.55232607
 20
146.57196047
  0
VERTEX
  8
0
 10
645.04158946
 20
146.57196047
  0
VERTEX
  8
0
 10
645.04158946
 20
129.11049596
 42
-0.28784516
  0
VERTEX
  8
0
 10
629.83590253
 20
102.83641006
 42
0.20160452
  0
VERTEX
  8
0
 10
612.96476430
 20
79.61978836
 42
0.27169212
  0
VERTEX
  8
0
 10
615.96672379
 20
49.08290909
 42
0.13330375
  0
VERTEX
  8
0
 10
626.49662437
 20
44.86992736
  0
VERTEX
  8
0
 10
637.14915578
 20
72.82410953
  0
SEQEND
  0
POLYLINE
  8
OBJ02
 66
   1
 39
0.000000
 70
    1
  0
VERTEX
  8
0
 10
410.07615043
 20
779.61831374
 42
-0.02982448
  0
VERTEX
  8
0
 10
458.03848937
 20
791.03547689
 42
-0.04823653
  0
VERTEX
  8
0
 10
560.18037833
 20
799.67053622
 42
-0.05102716
  0
VERTEX
  8
0
 10
658.78249791
 20
789.11558170
 42
-0.04755514
  0
VERTEX
  8
0
 10
719.15584446
 20
772.63537470
 42
-0.24747671
  0
VERTEX
  8
0
 10
724.47215528
 20
766.39577454
 42
0.14485042
  0
VERTEX
  8
0
 10
737.93066648
 20
737.55227866
 42
0.28264804
  0
VERTEX
  8
0
 10
776.36671824
 20
729.47560242
 42
-0.11575824
  0
VERTEX
  8
0
 10
792.16072919
 20
733.77098738
 42
-0.04120714
  0
VERTEX
  8
0
 10
800.74686759
 20
732.20201246
 42
0.38897541
  0
VERTEX
  8
0
 10
824.60024705
 20
745.40973023
 42
0.01920955
  0
VERTEX
  8
0
 10
832.70571393
 20
773.33649186
 42
0.30031206
  0
VERTEX
  8
0
 10
826.38674136
 20
789.53114182
 42
0.08981009
  0
VERTEX
  8
0
 10
818.20632132
 20
794.95703050
  0
VERTEX
  8
0
 10
802.07319800
 20
769.78689726
  0
VERTEX
  8
0
 10
796.97968418
 20
773.05165100
  0
VERTEX
  8
0
 10
813.11280750
 20
798.22178423
 42
0.19172222
  0
VERTEX
  8
0
 10
787.92499461
 20
808.11430884
 42
0.06239620
  0
VERTEX
  8
0
 10
754.61108515
 20
803.93717945
 42
0.13660035
  0
VERTEX
  8
0
 10
733.22610711
 20
791.35585922
 42
-0.20140378
  0
VERTEX
  8
0
 10
722.22163709
 20
791.30218182
 42
0.04891133
  0
VERTEX
  8
0
 10
652.81409455
 20
808.33007405
 42
0.05833870
  0
VERTEX
  8
0
 10
549.91982531
 20
814.66536397
 42
0.05138425
  0
VERTEX
  8
0
 10
453.49370719
 20
801.81423282
 42
0.01007432
  0
VERTEX
  8
0
 10
407.60325716
 20
789.00008700
 42
0.36959693
  0
VERTEX
  8
0
 10
404.82362532
 20
783.25062294
 42
0.36959693
  0
VERTEX
  8
0
 10
410.07615043
 20
779.61831374
  0
SEQEND
  0
POLYLINE
  8
OBJ02
 66
   1
 39
0.000000
 70
    0
  0
VERTEX
  8
0
 10
756.74302650
 20
691.59464349
  0
VERTEX
  8
0
 10
766.00026659
 20
674.05025523
  0
VERTEX
  8
0
 10
771.35108365
 20
676.87359665
  0
VERTEX
  8
0
 10
762.09384356
 20
694.41798492
 42
-0.24275734
  0
VERTEX
  8
0
 10
775.42319585
 20
696.45099911
 42
-0.09707837
  0
VERTEX
  8
0
 10
787.54260278
 20
688.38956252
 42
0.27270166
  0
VERTEX
  8
0
 10
813.25997729
 20
685.18370651
 42
-0.10252760
  0
VERTEX
  8
0
 10
827.02082524
 20
690.01898287
 42
-0.24275734
  0
VERTEX
  8
0
 10
839.44315169
 20
684.77583639
  0
SEQEND
  0
POLYLINE
  8
OBJ02
 66
   1
 39
0.000000
 70
    0
  0
VERTEX
  8
0
 10
843.93708731
 20
680.72527562
 42
-0.17304415
  0
VERTEX
  8
0
 10
864.51023385
 20
651.53215246
  0
VERTEX
  8
0
 10
844.57843375
 20
645.22163208
  0
VERTEX
  8
0
 10
846.40455866
 20
639.45381032
  0
VERTEX
  8
0
 10
866.33635876
 20
645.76433070
 42
-0.07629659
  0
VERTEX
  8
0
 10
867.83468118
 20
639.47260995
 42
-0.34012072
  0
VERTEX
  8
0
 10
859.55513460
 20
627.13504745
 42
0.07096611
  0
VERTEX
  8
0
 10
845.23544414
 20
621.48221176
 42
0.23605907
  0
VERTEX
  8
0
 10
838.28650187
 20
608.29195476
 42
0.10379752
  0
VERTEX
  8
0
 10
843.34845296
 20
593.53722228
 42
-0.40971163
  0
VERTEX
  8
0
 10
835.40518702
 20
577.96183848
  0
VERTEX
  8
0
 10
825.36954675
 20
595.07890449
  0
VERTEX
  8
0
 10
820.15042333
 20
592.01896156
  0
VERTEX
  8
0
 10
830.18606360
 20
574.90189554
 42
-0.09450258
  0
VERTEX
  8
0
 10
822.41293035
 20
570.03969557
 42
-0.33395700
  0
VERTEX
  8
0
 10
811.69679502
 20
574.77958023
 42
0.22846688
  0
VERTEX
  8
0
 10
791.67026866
 20
592.15655992
  0
VERTEX
  8
0
 10
795.12506571
 20
619.87093925
  0
VERTEX
  8
0
 10
789.12153161
 20
620.61932303
  0
VERTEX
  8
0
 10
785.66673456
 20
592.90494370
 42
0.22375741
  0
VERTEX
  8
0
 10
762.00545090
 20
580.97396427
 42
-0.31570929
  0
VERTEX
  8
0
 10
750.43522024
 20
579.01223570
 42
-0.10690822
  0
VERTEX
  8
0
 10
744.09363798
 20
585.63393665
  0
VERTEX
  8
0
 10
758.02438571
 20
599.76341973
  0
VERTEX
  8
0
 10
753.71619901
 20
604.01101051
  0
VERTEX
  8
0
 10
739.78545128
 20
589.88152743
 42
-0.20362070
  0
VERTEX
  8
0
 10
734.20716363
 20
597.57720765
 42
-0.20362070
  0
VERTEX
  8
0
 10
735.87402132
 20
606.93468448
 42
0.09330039
  0
VERTEX
  8
0
 10
744.43834219
 20
619.99080399
 42
0.23605907
  0
VERTEX
  8
0
 10
740.94026170
 20
634.48335765
 42
0.03573736
  0
VERTEX
  8
0
 10
728.44656902
 20
643.47867472
 42
-0.34012072
  0
VERTEX
  8
0
 10
723.44926902
 20
657.47129179
 42
-0.06058880
  0
VERTEX
  8
0
 10
726.44635209
 20
663.20262787
  0
VERTEX
  8
0
 10
744.21894420
 20
652.19198336
  0
VERTEX
  8
0
 10
747.40518100
 20
657.33497812
  0
VERTEX
  8
0
 10
729.63258889
 20
668.34562263
 42
-0.17304415
  0
VERTEX
  8
0
 10
756.74302650
 20
691.59464349
  0
VERTEX
  8
0
 10
766.00026659
 20
674.05025523
  0
SEQEND
  0
POLYLINE
  8
OBJ02
 66
   1
 39
0.000000
 70
    1
  0
VERTEX
  8
0
 10
780.77246270
 20
111.21013784
 42
0.36021542
  0
VERTEX
  8
0
 10
785.71848341
 20
110.06329762
 42
0.36021542
  0
VERTEX
  8
0
 10
787.76862367
 20
114.70821832
 42
-0.02785095
  0
VERTEX
  8
0
 10
784.27054319
 20
129.70041344
 42
-0.06451473
  0
VERTEX
  8
0
 10
769.27834806
 20
214.65628418
 42
-0.04152318
  0
VERTEX
  8
0
 10
770.77756758
 20
285.12048662
 42
0.39214619
  0
VERTEX
  8
0
 10
767.27948709
 20
288.61768174
 42
0.03624079
  0
VERTEX
  8
0
 10
750.78807245
 20
287.11846223
 42
0.31209416
  0
VERTEX
  8
0
 10
747.78963343
 20
282.12116223
 42
0.02217740
  0
VERTEX
  8
0
 10
748.28927489
 20
238.14385979
 42
0.05044455
  0
VERTEX
  8
0
 10
757.78423343
 20
178.67501588
 42
0.06079098
  0
VERTEX
  8
0
 10
780.77246270
 20
111.21013784
  0
SEQEND
  0
POLYLINE
  8
OBJ02
 66
   1
 39
0.000000
 70
    1
  0
VERTEX
  8
0
 10
779.27324319
 20
68.73205491
 42
0.31501815
  0
VERTEX
  8
0
 10
784.26927919
 20
68.95886720
 42
0.31501815
  0
VERTEX
  8
0
 10
785.76976270
 20
73.72965003
 42
-0.00412707
  0
VERTEX
  8
0
 10
770.77756758
 20
104.71332320
 42
-0.03443671
  0
VERTEX
  8
0
 10
762.28189197
 20
123.70353540
 42
-0.05938219
  0
VERTEX
  8
0
 10
745.79047733
 20
175.67657686
 42
-0.02805684
  0
VERTEX
  8
0
 10
735.29594075
 20
231.64734027
 42
0.27439039
  0
VERTEX
  8
0
 10
730.79828221
 20
234.64577930
 42
0.05588837
  0
VERTEX
  8
0
 10
713.80722611
 20
232.64691832
 42
0.32675370
  0
VERTEX
  8
0
 10
711.30842855
 20
228.64890125
 42
0.02289017
  0
VERTEX
  8
0
 10
712.80764806
 20
218.15436466
 42
0.04015712
  0
VERTEX
  8
0
 10
732.79743831
 20
152.68834759
 42
0.05413732
  0
VERTEX
  8
0
 10
755.78537245
 20
104.21368174
 42
0.06632439
  0
VERTEX
  8
0
 10
779.27324319
 20
68.73205491
  0
SEQEND
  0
POLYLINE
  8
OBJ02
 66
   1
 39
0.000000
 70
    1
  0
VERTEX
  8
0
 10
515.96207276
 20
476.22372887
 42
0.05995443
  0
VERTEX
  8
0
 10
512.66299384
 20
475.54280349
 42
0.02421950
  0
VERTEX
  8
0
 10
504.91695782
 20
472.52292564
 42
0.18999839
  0
VERTEX
  8
0
 10
496.65396070
 20
464.08814188
 42
0.15728058
  0
VERTEX
  8
0
 10
495.41993343
 20
450.03463296
 42
0.15663096
  0
VERTEX
  8
0
 10
502.65790270
 20
437.82620524
 42
0.21043872
  0
VERTEX
  8
0
 10
512.91181148
 20
434.54073052
 42
0.01651191
  0
VERTEX
  8
0
 10
521.79116558
 20
435.77182848
 42
0.02572702
  0
VERTEX
  8
0
 10
527.40525050
 20
437.04041344
 42
0.00805110
  0
VERTEX
  8
0
 10
545.67000365
 20
442.48641416
 42
0.01418500
  0
VERTEX
  8
0
 10
555.89042124
 20
446.03573052
 42
0.01601459
  0
VERTEX
  8
0
 10
572.01227085
 20
452.75033708
 42
0.01126777
  0
VERTEX
  8
0
 10
594.36842124
 20
463.52760857
 42
0.01564615
  0
VERTEX
  8
0
 10
607.35578704
 20
470.67376656
 42
0.01699720
  0
VERTEX
  8
0
 10
618.85675538
 20
478.01809637
 42
0.04580683
  0
VERTEX
  8
0
 10
622.76883166
 20
481.27226618
 42
0.06782790
  0
VERTEX
  8
0
 10
624.85363343
 20
484.01497442
 42
0.26581593
  0
VERTEX
  8
0
 10
624.83452364
 20
487.75138416
 42
0.22369136
  0
VERTEX
  8
0
 10
621.25517604
 20
490.23142927
 42
0.12894944
  0
VERTEX
  8
0
 10
608.11491355
 20
489.03643970
 42
-0.05583330
  0
VERTEX
  8
0
 10
578.87747002
 20
482.01699881
 42
-0.00140168
  0
VERTEX
  8
0
 10
543.99642025
 20
477.76610743
 42
-0.00690234
  0
VERTEX
  8
0
 10
536.89932367
 20
477.02058418
 42
-0.02549685
  0
VERTEX
  8
0
 10
526.80778162
 20
476.61796794
 42
0.02372504
  0
VERTEX
  8
0
 10
515.96207276
 20
476.22372887
  0
SEQEND
  0
POLYLINE
  8
OBJ02
 66
   1
 39
0.000000
 70
    1
  0
VERTEX
  8
0
 10
520.90666514
 20
418.55102320
 42
0.00269260
  0
VERTEX
  8
0
 10
542.89620172
 20
425.54541344
 42
0.01648086
  0
VERTEX
  8
0
 10
577.56804846
 20
440.62907791
 42
-0.31354729
  0
VERTEX
  8
0
 10
582.96670271
 20
439.42043380
 42
-0.31354729
  0
VERTEX
  8
0
 10
583.71236245
 20
433.93862024
 42
-0.10532183
  0
VERTEX
  8
0
 10
563.88527489
 20
410.05446223
 42
-0.02122504
  0
VERTEX
  8
0
 10
536.89932367
 20
395.56102320
 42
-0.04190966
  0
VERTEX
  8
0
 10
509.35609727
 20
384.43927152
 42
-0.38676795
  0
VERTEX
  8
0
 10
490.92227489
 20
395.56102320
 42
-0.38912592
  0
VERTEX
  8
0
 10
499.91759197
 20
413.05290125
 42
-0.00548822
  0
VERTEX
  8
0
 10
520.90666514
 20
418.55102320
  0
SEQEND
  0
POLYLINE
  8
OBJ02
 66
   1
 39
0.000000
 70
    1
  0
VERTEX
  8
0
 10
487.42507977
 20
299.11221832
 42
0.02678518
  0
VERTEX
  8
0
 10
536.89932367
 20
327.09863296
 42
-0.03767697
  0
VERTEX
  8
0
 10
564.88573831
 20
346.08677930
 42
-0.00186239
  0
VERTEX
  8
0
 10
608.86186026
 20
380.07007198
 42
0.04749880
  0
VERTEX
  8
0
 10
662.83376270
 20
436.03995003
 42
0.03881818
  0
VERTEX
  8
0
 10
699.81460904
 20
486.01590125
 42
-0.20373260
  0
VERTEX
  8
0
 10
702.76004635
 20
488.24163480
 42
-0.20373260
  0
VERTEX
  8
0
 10
706.40655915
 20
487.66506281
 42
-0.20373260
  0
VERTEX
  8
0
 10
708.52163218
 20
484.63918163
 42
-0.20373260
  0
VERTEX
  8
0
 10
707.81034806
 20
481.01653540
 42
0.00391426
  0
VERTEX
  8
0
 10
692.31851148
 20
453.03307198
 42
-0.03892132
  0
VERTEX
  8
0
 10
655.83730660
 20
398.55946223
 42
-0.02717072
  0
VERTEX
  8
0
 10
610.36107977
 20
346.08677930
 42
-0.03311260
  0
VERTEX
  8
0
 10
557.38964075
 20
299.11221832
 42
-0.05158740
  0
VERTEX
  8
0
 10
506.41617733
 20
264.63016954
 42
-0.32025419
  0
VERTEX
  8
0
 10
483.42617733
 20
273.12584515
 42
-0.40879534
  0
VERTEX
  8
0
 10
487.42507977
 20
299.11221832
  0
SEQEND
  0
POLYLINE
  8
OBJ02
 66
   1
 39
0.000000
 70
    1
  0
VERTEX
  8
0
 10
616.46343965
 20
279.10002495
 42
0.27840688
  0
VERTEX
  8
0
 10
624.62925176
 20
266.00464810
 42
0.27840688
  0
VERTEX
  8
0
 10
640.02100693
 20
267.12859430
 42
0.09359677
  0
VERTEX
  8
0
 10
687.32091636
 20
326.59692564
 42
0.02827123
  0
VERTEX
  8
0
 10
716.30602367
 20
404.55634027
 42
0.01981301
  0
VERTEX
  8
0
 10
741.63178637
 20
491.25644002
 42
0.37638506
  0
VERTEX
  8
0
 10
738.44879218
 20
498.79831487
 42
0.37638506
  0
VERTEX
  8
0
 10
730.55606413
 20
496.62663988
 42
-0.04328025
  0
VERTEX
  8
0
 10
678.32559928
 20
401.05914515
 42
0.08353683
  0
VERTEX
  8
0
 10
630.85051148
 20
333.09551101
 42
0.08812650
  0
VERTEX
  8
0
 10
616.46343965
 20
279.10002495
  0
SEQEND
  0
POLYLINE
  8
OBJ02
 66
   1
 39
0.000000
 70
    1
  0
VERTEX
  8
0
 10
268.69643737
 20
344.97106899
 42
-0.02717072
  0
VERTEX
  8
0
 10
223.22021054
 20
397.44375192
 42
-0.03892132
  0
VERTEX
  8
0
 10
186.73900567
 20
451.91736168
 42
0.00391426
  0
VERTEX
  8
0
 10
171.24716908
 20
479.90082509
 42
-0.20373260
  0
VERTEX
  8
0
 10
170.53588497
 20
483.52347132
 42
-0.20373260
  0
VERTEX
  8
0
 10
172.65095800
 20
486.54935250
 42
-0.20373260
  0
VERTEX
  8
0
 10
176.29747079
 20
487.12592450
 42
-0.20373260
  0
VERTEX
  8
0
 10
179.24290810
 20
484.90019094
 42
0.03881818
  0
VERTEX
  8
0
 10
216.22375445
 20
434.92423973
 42
0.04749880
  0
VERTEX
  8
0
 10
270.19565689
 20
378.95436168
 42
-0.00186239
  0
VERTEX
  8
0
 10
314.17177884
 20
344.97106899
 42
-0.03767697
  0
VERTEX
  8
0
 10
342.15819347
 20
325.98292265
 42
0.02678518
  0
VERTEX
  8
0
 10
391.63243737
 20
297.99650802
 42
-0.40879534
  0
VERTEX
  8
0
 10
395.63133981
 20
272.01013485
 42
-0.32025419
  0
VERTEX
  8
0
 10
372.64133981
 20
263.51445924
 42
-0.05158740
  0
VERTEX
  8
0
 10
321.66787640
 20
297.99650802
 42
-0.03311260
  0
VERTEX
  8
0
 10
268.69643737
 20
344.97106899
  0
SEQEND
  0
POLYLINE
  8
OBJ02
 66
   1
 39
0.000000
 70
    1
  0
VERTEX
  8
0
 10
243.20970567
 20
427.42814216
 42
0.02521587
  0
VERTEX
  8
0
 10
273.84860752
 20
396.17885917
 42
0.12572803
  0
VERTEX
  8
0
 10
281.69065689
 20
391.94858119
 42
0.21490203
  0
VERTEX
  8
0
 10
285.52340210
 20
392.64132347
 42
0.12795529
  0
VERTEX
  8
0
 10
289.68551054
 20
397.44375192
 42
0.17796873
  0
VERTEX
  8
0
 10
290.71761180
 20
407.02436847
 42
0.06914614
  0
VERTEX
  8
0
 10
281.69065689
 20
429.42906899
 42
0.02876839
  0
VERTEX
  8
0
 10
265.28629778
 20
454.54402156
 42
0.08210778
  0
VERTEX
  8
0
 10
257.70225932
 20
461.91019094
 42
0.00004987
  0
VERTEX
  8
0
 10
247.33348745
 20
469.10904865
 42
0.00001657
  0
VERTEX
  8
0
 10
216.13328476
 20
490.76466205
 42
0.00003057
  0
VERTEX
  8
0
 10
195.01286830
 20
505.42109004
 42
0.00015102
  0
VERTEX
  8
0
 10
190.73702274
 20
508.38599582
 42
0.34648230
  0
VERTEX
  8
0
 10
185.58858125
 20
508.07109056
 42
0.27400652
  0
VERTEX
  8
0
 10
183.69219223
 20
502.10470573
 42
0.09770726
  0
VERTEX
  8
0
 10
186.70400193
 20
495.39529941
 42
0.02125112
  0
VERTEX
  8
0
 10
207.22843737
 20
468.90753241
 42
0.00320403
  0
VERTEX
  8
0
 10
223.37712835
 20
450.04843743
 42
0.00264434
  0
VERTEX
  8
0
 10
243.20970567
 20
427.42814216
  0
SEQEND
  0
POLYLINE
  8
OBJ02
 66
   1
 39
0.000000
 70
    1
  0
VERTEX
  8
0
 10
315.17224225
 20
408.93875192
 42
-0.10532183
  0
VERTEX
  8
0
 10
295.34515470
 20
432.82290994
 42
-0.31354729
  0
VERTEX
  8
0
 10
296.09081444
 20
438.30472349
 42
-0.31354729
  0
VERTEX
  8
0
 10
301.48946869
 20
439.51336760
 42
0.01648086
  0
VERTEX
  8
0
 10
336.16131542
 20
424.42970314
 42
0.00269260
  0
VERTEX
  8
0
 10
358.15085201
 20
417.43531290
 42
-0.00548822
  0
VERTEX
  8
0
 10
379.13992518
 20
411.93719094
 42
-0.38912592
  0
VERTEX
  8
0
 10
388.13524225
 20
394.44531290
 42
-0.38676795
  0
VERTEX
  8
0
 10
369.70141987
 20
383.32356121
 42
-0.04190966
  0
VERTEX
  8
0
 10
342.15819347
 20
394.44531290
 42
-0.02122504
  0
VERTEX
  8
0
 10
315.17224225
 20
408.93875192
  0
SEQEND
  0
POLYLINE
  8
OBJ02
 66
   1
 39
0.000000
 70
    1
  0
VERTEX
  8
0
 10
256.28868549
 20
480.15655588
 42
0.04580683
  0
VERTEX
  8
0
 10
260.20076176
 20
476.90238607
 42
0.01699720
  0
VERTEX
  8
0
 10
271.70173011
 20
469.55805626
 42
0.01564615
  0
VERTEX
  8
0
 10
284.68909591
 20
462.41189826
 42
0.01126777
  0
VERTEX
  8
0
 10
307.04524629
 20
451.63462678
 42
0.01601459
  0
VERTEX
  8
0
 10
323.16709591
 20
444.92002021
 42
0.01418500
  0
VERTEX
  8
0
 10
333.38751349
 20
441.37070386
 42
0.00805110
  0
VERTEX
  8
0
 10
351.65226664
 20
435.92470314
 42
0.02572702
  0
VERTEX
  8
0
 10
357.26635157
 20
434.65611817
 42
0.01651191
  0
VERTEX
  8
0
 10
366.14570567
 20
433.42502021
 42
0.21043872
  0
VERTEX
  8
0
 10
376.39961445
 20
436.71049494
 42
0.15663096
  0
VERTEX
  8
0
 10
383.63758371
 20
448.91892265
 42
0.15728058
  0
VERTEX
  8
0
 10
382.40355644
 20
462.97243157
 42
0.18999839
  0
VERTEX
  8
0
 10
374.14055932
 20
471.40721534
 42
0.02421950
  0
VERTEX
  8
0
 10
366.39452331
 20
474.42709319
 42
0.05995443
  0
VERTEX
  8
0
 10
363.09544439
 20
475.10801857
 42
0.02372504
  0
VERTEX
  8
0
 10
352.24973552
 20
475.50225763
 42
-0.02549685
  0
VERTEX
  8
0
 10
342.15819347
 20
475.90487387
 42
-0.00690234
  0
VERTEX
  8
0
 10
335.06109689
 20
476.65039712
 42
-0.00140168
  0
VERTEX
  8
0
 10
300.18004713
 20
480.90128851
 42
-0.05583330
  0
VERTEX
  8
0
 10
270.94260359
 20
487.92072940
 42
0.12894944
  0
VERTEX
  8
0
 10
257.80234110
 20
489.11571896
 42
0.22369136
  0
VERTEX
  8
0
 10
254.22299350
 20
486.63567386
 42
0.26581593
  0
VERTEX
  8
0
 10
254.20388371
 20
482.89926412
 42
0.06782790
  0
VERTEX
  8
0
 10
256.28868549
 20
480.15655588
  0
SEQEND
  0
POLYLINE
  8
OBJ02
 66
   1
 39
0.000000
 70
    1
  0
VERTEX
  8
0
 10
382.13836420
 20
88.60541777
 42
-0.04081657
  0
VERTEX
  8
0
 10
352.15397396
 20
115.59136899
 42
-0.02018002
  0
VERTEX
  8
0
 10
324.16755932
 20
145.57575924
 42
-0.00508104
  0
VERTEX
  8
0
 10
294.18316908
 20
180.55774460
 42
-0.03995948
  0
VERTEX
  8
0
 10
256.20303981
 20
237.02814948
 42
-0.35226993
  0
VERTEX
  8
0
 10
257.33821385
 20
243.29132097
 42
-0.35226993
  0
VERTEX
  8
0
 10
263.69913737
 20
243.52496412
 42
-0.01544576
  0
VERTEX
  8
0
 10
291.68348615
 20
209.04291534
 42
0.01037489
  0
VERTEX
  8
0
 10
321.66787640
 20
177.55930558
 42
0.00632953
  0
VERTEX
  8
0
 10
361.14929103
 20
142.57732021
 42
0.00179301
  0
VERTEX
  8
0
 10
388.13524225
 20
121.58824704
 42
-0.04405082
  0
VERTEX
  8
0
 10
400.62775445
 20
111.59364704
 42
-0.40714039
  0
VERTEX
  8
0
 10
396.62885201
 20
90.10463729
 42
-0.24847629
  0
VERTEX
  8
0
 10
382.13836420
 20
88.60541777
  0
SEQEND
  0
POLYLINE
  8
OBJ02
 66
   1
 39
0.000000
 70
    1
  0
VERTEX
  8
0
 10
363.64602274
 20
162.56711046
 42
0.08440860
  0
VERTEX
  8
0
 10
381.13790079
 20
150.07341777
 42
0.28041227
  0
VERTEX
  8
0
 10
398.62977884
 20
155.57065436
 42
0.40780193
  0
VERTEX
  8
0
 10
396.62885201
 20
175.56014948
 42
0.02346671
  0
VERTEX
  8
0
 10
355.15241298
 20
203.04603729
 42
-0.01820813
  0
VERTEX
  8
0
 10
321.66787640
 20
230.03198851
 42
0.01256514
  0
VERTEX
  8
0
 10
284.68909591
 20
264.51403729
 42
0.38641759
  0
VERTEX
  8
0
 10
274.44764586
 20
263.78388889
 42
0.38641759
  0
VERTEX
  8
0
 10
274.19455932
 20
253.51956412
 42
0.02677421
  0
VERTEX
  8
0
 10
298.18207152
 20
225.03439338
 42
0.01899863
  0
VERTEX
  8
0
 10
326.66724225
 20
195.05000314
 42
0.01665519
  0
VERTEX
  8
0
 10
363.64602274
 20
162.56711046
  0
SEQEND
  0
POLYLINE
  8
OBJ02
 66
   1
 39
0.000000
 70
    1
  0
VERTEX
  8
0
 10
309.67412030
 20
261.01566168
 42
-0.01610195
  0
VERTEX
  8
0
 10
275.69377884
 20
294.49931290
 42
-0.09343238
  0
VERTEX
  8
0
 10
272.19363250
 20
300.49619094
 42
-0.32028952
  0
VERTEX
  8
0
 10
275.51513462
 20
308.52484120
 42
-0.32028952
  0
VERTEX
  8
0
 10
284.18738859
 20
307.99228851
 42
-0.00195373
  0
VERTEX
  8
0
 10
316.67146176
 20
282.00384948
 42
0.00409606
  0
VERTEX
  8
0
 10
351.65226664
 20
258.01722265
 42
0.00632359
  0
VERTEX
  8
0
 10
382.13836420
 20
240.52652509
 42
-0.04216006
  0
VERTEX
  8
0
 10
396.13009591
 20
232.53049094
 42
-0.40164752
  0
VERTEX
  8
0
 10
395.63133981
 20
211.54141777
 42
-0.25816008
  0
VERTEX
  8
0
 10
378.13946176
 20
208.04333729
 42
-0.06128981
  0
VERTEX
  8
0
 10
342.15819347
 20
233.53006899
 42
0.00966672
  0
VERTEX
  8
0
 10
309.67412030
 20
261.01566168
  0
SEQEND
  0
POLYLINE
  8
OBJ02
 66
   1
 39
0.000000
 70
    1
  0
VERTEX
  8
0
 10
337.66053493
 20
346.97199582
 42
0.03609453
  0
VERTEX
  8
0
 10
357.49738807
 20
331.57076338
 42
0.06180051
  0
VERTEX
  8
0
 10
370.64336420
 20
324.98245924
 42
0.15072553
  0
VERTEX
  8
0
 10
379.41077405
 20
324.61457038
 42
0.11345520
  0
VERTEX
  8
0
 10
389.63446176
 20
329.97887387
 42
0.17592610
  0
VERTEX
  8
0
 10
396.77643006
 20
342.64700362
 42
0.22160363
  0
VERTEX
  8
0
 10
393.63041298
 20
353.96638607
 42
0.05505239
  0
VERTEX
  8
0
 10
385.40982547
 20
361.67940822
 42
0.07009173
  0
VERTEX
  8
0
 10
377.64070567
 20
365.96014216
 42
0.02516717
  0
VERTEX
  8
0
 10
363.58479331
 20
370.51426016
 42
-0.03539696
  0
VERTEX
  8
0
 10
353.65319347
 20
373.95794704
 42
-0.00592493
  0
VERTEX
  8
0
 10
345.57322838
 20
377.53123176
 42
-0.00318433
  0
VERTEX
  8
0
 10
330.66319347
 20
384.45248363
 42
-0.04742033
  0
VERTEX
  8
0
 10
320.48926216
 20
390.49225788
 42
0.06763394
  0
VERTEX
  8
0
 10
313.17426664
 20
394.44531290
 42
0.20190421
  0
VERTEX
  8
0
 10
309.12007255
 20
394.29090457
 42
0.16870933
  0
VERTEX
  8
0
 10
305.67816908
 20
390.94811777
 42
0.22684294
  0
VERTEX
  8
0
 10
305.55631626
 20
384.73170657
 42
0.07195903
  0
VERTEX
  8
0
 10
315.67099835
 20
368.95858119
 42
0.01789890
  0
VERTEX
  8
0
 10
324.68871821
 20
359.27234294
 42
0.01324886
  0
VERTEX
  8
0
 10
337.66053493
 20
346.97199582
  0
SEQEND
  0
POLYLINE
  8
OBJ02
 66
   1
 39
0.000000
 70
    1
  0
VERTEX
  8
0
 10
496.91915294
 20
241.64223540
 42
0.00632359
  0
VERTEX
  8
0
 10
527.40525050
 20
259.13293296
 42
0.00409606
  0
VERTEX
  8
0
 10
562.38605538
 20
283.11955979
 42
-0.00195373
  0
VERTEX
  8
0
 10
594.87012855
 20
309.10799881
 42
-0.32028952
  0
VERTEX
  8
0
 10
603.54238252
 20
309.64055150
 42
-0.32028952
  0
VERTEX
  8
0
 10
606.86388465
 20
301.61190125
 42
-0.09343238
  0
VERTEX
  8
0
 10
603.36373831
 20
295.61502320
 42
-0.01610195
  0
VERTEX
  8
0
 10
569.38339685
 20
262.13137198
 42
0.00966672
  0
VERTEX
  8
0
 10
536.89932367
 20
234.64577930
 42
-0.06128981
  0
VERTEX
  8
0
 10
500.91805538
 20
209.15904759
 42
-0.25816008
  0
VERTEX
  8
0
 10
483.42617733
 20
212.65712808
 42
-0.40164752
  0
VERTEX
  8
0
 10
482.92742124
 20
233.64620125
 42
-0.04216006
  0
VERTEX
  8
0
 10
496.91915294
 20
241.64223540
  0
SEQEND
  0
POLYLINE
  8
OBJ02
 66
   1
 39
0.000000
 70
    1
  0
VERTEX
  8
0
 10
490.92227489
 20
122.70395735
 42
0.04405082
  0
VERTEX
  8
0
 10
478.42976270
 20
112.70935735
 42
0.40714039
  0
VERTEX
  8
0
 10
482.42866514
 20
91.22034759
 42
0.24847629
  0
VERTEX
  8
0
 10
496.91915294
 20
89.72112808
 42
0.04081657
  0
VERTEX
  8
0
 10
526.90354319
 20
116.70707930
 42
0.02018002
  0
VERTEX
  8
0
 10
554.88995782
 20
146.69146954
 42
0.00508104
  0
VERTEX
  8
0
 10
584.87434806
 20
181.67345491
 42
0.03995948
  0
VERTEX
  8
0
 10
622.85447733
 20
238.14385979
 42
0.35226993
  0
VERTEX
  8
0
 10
621.71930330
 20
244.40703128
 42
0.35226993
  0
VERTEX
  8
0
 10
615.35837977
 20
244.64067442
 42
0.01544576
  0
VERTEX
  8
0
 10
587.37403099
 20
210.15862564
 42
-0.01037489
  0
VERTEX
  8
0
 10
557.38964075
 20
178.67501588
 42
-0.00632953
  0
VERTEX
  8
0
 10
517.90822611
 20
143.69303052
 42
-0.00179301
  0
VERTEX
  8
0
 10
490.92227489
 20
122.70395735
  0
SEQEND
  0
POLYLINE
  8
OBJ02
 66
   1
 39
0.000000
 70
    1
  0
VERTEX
  8
0
 10
482.42866514
 20
176.67585979
 42
-0.02346671
  0
VERTEX
  8
0
 10
523.90510416
 20
204.16174759
 42
0.01820813
  0
VERTEX
  8
0
 10
557.38964075
 20
231.14769881
 42
-0.01256514
  0
VERTEX
  8
0
 10
594.36842124
 20
265.62974759
 42
-0.38641759
  0
VERTEX
  8
0
 10
604.60987128
 20
264.89959919
 42
-0.38641759
  0
VERTEX
  8
0
 10
604.86295782
 20
254.63527442
 42
-0.02677421
  0
VERTEX
  8
0
 10
580.87544563
 20
226.15010369
 42
-0.01899863
  0
VERTEX
  8
0
 10
552.39027489
 20
196.16571344
 42
-0.01665519
  0
VERTEX
  8
0
 10
515.41149441
 20
163.68282076
 42
-0.08440860
  0
VERTEX
  8
0
 10
497.91961636
 20
151.18912808
 42
-0.28041227
  0
VERTEX
  8
0
 10
480.42773831
 20
156.68636466
 42
-0.40780193
  0
VERTEX
  8
0
 10
482.42866514
 20
176.67585979
  0
SEQEND
  0
POLYLINE
  8
OBJ02
 66
   1
 39
0.000000
 70
    1
  0
VERTEX
  8
0
 10
492.49287233
 20
37.26464220
 42
-0.03990190
  0
VERTEX
  8
0
 10
488.92429928
 20
39.74724271
 42
-0.07395926
  0
VERTEX
  8
0
 10
485.48042992
 20
43.55269384
 42
-0.09514259
  0
VERTEX
  8
0
 10
483.92788465
 20
47.24334027
 42
-0.05216813
  0
VERTEX
  8
0
 10
483.59326287
 20
50.44175974
 42
-0.04396679
  0
VERTEX
  8
0
 10
483.92788465
 20
54.23979637
 42
-0.03647841
  0
VERTEX
  8
0
 10
484.83990424
 20
57.83134855
 42
-0.05128536
  0
VERTEX
  8
0
 10
485.92586026
 20
60.23667442
 42
-0.08281944
  0
VERTEX
  8
0
 10
490.70208956
 20
66.00220264
 42
-0.01085258
  0
VERTEX
  8
0
 10
534.39964075
 20
102.21482076
 42
-0.00157372
  0
VERTEX
  8
0
 10
551.26879483
 20
115.50145768
 42
-0.00437763
  0
VERTEX
  8
0
 10
557.38964075
 20
120.20545491
 42
-0.03646638
  0
VERTEX
  8
0
 10
572.69981487
 20
130.09660032
 42
-0.05509780
  0
VERTEX
  8
0
 10
583.87388465
 20
134.69771344
 42
-0.04749704
  0
VERTEX
  8
0
 10
587.47391574
 20
135.37366598
 42
-0.09183081
  0
VERTEX
  8
0
 10
589.37200660
 20
135.19765003
 42
-0.12813990
  0
VERTEX
  8
0
 10
591.21520860
 20
134.11642994
 42
-0.12215184
  0
VERTEX
  8
0
 10
592.37044563
 20
132.19921101
 42
-0.07493968
  0
VERTEX
  8
0
 10
592.59138439
 20
130.73337883
 42
-0.05419071
  0
VERTEX
  8
0
 10
592.37044563
 20
128.70083540
 42
-0.10318604
  0
VERTEX
  8
0
 10
589.14957643
 20
121.53073311
 42
-0.02621704
  0
VERTEX
  8
0
 10
569.88215294
 20
97.71716223
 42
-0.00391844
  0
VERTEX
  8
0
 10
550.00203123
 20
75.96754301
 42
-0.01323243
  0
VERTEX
  8
0
 10
543.89666514
 20
69.73163296
 42
-0.00884469
  0
VERTEX
  8
0
 10
535.26481993
 20
61.66078772
 42
-0.00662095
  0
VERTEX
  8
0
 10
523.40634806
 20
51.24135735
 42
-0.02124660
  0
VERTEX
  8
0
 10
510.44455214
 20
41.07395394
 42
-0.04633714
  0
VERTEX
  8
0
 10
503.91649441
 20
37.24844515
 42
-0.03650380
  0
VERTEX
  8
0
 10
501.00201293
 20
36.13647335
 42
-0.05385633
  0
VERTEX
  8
0
 10
498.92007977
 20
35.74922564
 42
-0.05020881
  0
VERTEX
  8
0
 10
497.25958670
 20
35.78915124
 42
-0.03494732
  0
VERTEX
  8
0
 10
494.92117733
 20
36.24916223
 42
-0.06608511
  0
VERTEX
  8
0
 10
492.49287233
 20
37.26464220
  0
SEQEND
  0
POLYLINE
  8
OBJ02
 66
   1
 39
0.000000
 70
    1
  0
VERTEX
  8
0
 10
501.41681148
 20
367.07585247
 42
-0.02516717
  0
VERTEX
  8
0
 10
515.47272383
 20
371.62997047
 42
0.03539696
  0
VERTEX
  8
0
 10
525.40432367
 20
375.07365735
 42
0.00592493
  0
VERTEX
  8
0
 10
533.48428877
 20
378.64694207
 42
0.00318433
  0
VERTEX
  8
0
 10
548.39432367
 20
385.56819393
 42
0.04742033
  0
VERTEX
  8
0
 10
558.56825498
 20
391.60796819
 42
-0.06763394
  0
VERTEX
  8
0
 10
565.88325050
 20
395.56102320
 42
-0.20190421
  0
VERTEX
  8
0
 10
569.93744460
 20
395.40661488
 42
-0.16870933
  0
VERTEX
  8
0
 10
573.37934806
 20
392.06382808
 42
-0.22684294
  0
VERTEX
  8
0
 10
573.50120088
 20
385.84741688
 42
-0.07195903
  0
VERTEX
  8
0
 10
563.38651880
 20
370.07429149
 42
-0.01789890
  0
VERTEX
  8
0
 10
554.36879893
 20
360.38805325
 42
-0.01324886
  0
VERTEX
  8
0
 10
541.39698221
 20
348.08770613
 42
-0.03609453
  0
VERTEX
  8
0
 10
521.56012908
 20
332.68647368
 42
-0.06180051
  0
VERTEX
  8
0
 10
508.41415294
 20
326.09816954
 42
-0.15072553
  0
VERTEX
  8
0
 10
499.64674310
 20
325.73028069
 42
-0.11345520
  0
VERTEX
  8
0
 10
489.42305538
 20
331.09458418
 42
-0.17592610
  0
VERTEX
  8
0
 10
482.28108709
 20
343.76271392
 42
-0.22160363
  0
VERTEX
  8
0
 10
485.42710416
 20
355.08209637
 42
-0.05505239
  0
VERTEX
  8
0
 10
493.64769167
 20
362.79511852
 42
-0.07009173
  0
VERTEX
  8
0
 10
501.41681148
 20
367.07585247
  0
SEQEND
  0
POLYLINE
  8
OBJ02
 66
   1
 39
0.000000
 70
    1
  0
VERTEX
  8
0
 10
233.24073161
 20
508.22558141
 42
-0.35946637
  0
VERTEX
  8
0
 10
229.53500390
 20
513.70561203
 42
-0.35946637
  0
VERTEX
  8
0
 10
234.21438859
 20
518.38177631
 42
0.05826523
  0
VERTEX
  8
0
 10
292.18519347
 20
523.87989826
 42
0.03974909
  0
VERTEX
  8
0
 10
336.16131542
 20
536.37241046
 42
-0.04717135
  0
VERTEX
  8
0
 10
354.65070567
 20
543.36975192
 42
-0.34846621
  0
VERTEX
  8
0
 10
380.13743737
 20
530.87428851
 42
-0.37660097
  0
VERTEX
  8
0
 10
372.64133981
 20
496.89394704
 42
-0.13482146
  0
VERTEX
  8
0
 10
352.65273006
 20
492.39628851
 42
-0.03235800
  0
VERTEX
  8
0
 10
293.68441298
 20
496.39223973
 42
-0.04051424
  0
VERTEX
  8
0
 10
233.24073161
 20
508.22558141
  0
SEQEND
  0
POLYLINE
  8
OBJ02
 66
   1
 39
0.000000
 70
    1
  0
VERTEX
  8
0
 10
617.34124814
 20
549.64000507
 42
0.08258063
  0
VERTEX
  8
0
 10
626.97078529
 20
542.21279035
 42
0.34050708
  0
VERTEX
  8
0
 10
633.94410875
 20
543.36808414
 42
-0.03645657
  0
VERTEX
  8
0
 10
664.21129409
 20
568.65554319
 42
-0.20072046
  0
VERTEX
  8
0
 10
683.07176009
 20
571.99522820
 42
-0.01365913
  0
VERTEX
  8
0
 10
718.96478608
 20
562.89763424
 42
0.26743495
  0
VERTEX
  8
0
 10
728.96822353
 20
565.42090538
 42
0.26743495
  0
VERTEX
  8
0
 10
731.80377021
 20
575.34034757
 42
0.03094295
  0
VERTEX
  8
0
 10
727.88866212
 20
587.72980522
  0
VERTEX
  8
0
 10
687.18661694
 20
693.31381423
 42
-0.29753822
  0
VERTEX
  8
0
 10
692.12308323
 20
715.83755954
 42
0.03487403
  0
VERTEX
  8
0
 10
704.03412650
 20
729.55955046
 42
0.31109865
  0
VERTEX
  8
0
 10
703.15803012
 20
733.95297468
 42
0.31109865
  0
VERTEX
  8
0
 10
698.74083136
 20
734.70001972
 42
0.04694483
  0
VERTEX
  8
0
 10
679.85759025
 20
719.82309071
 42
0.25452743
  0
VERTEX
  8
0
 10
674.99735173
 20
692.08255943
  0
VERTEX
  8
0
 10
708.67574059
 20
592.14020918
 42
-0.31503627
  0
VERTEX
  8
0
 10
707.45614378
 20
586.54235245
 42
-0.31503627
  0
VERTEX
  8
0
 10
701.77948913
 20
585.76839620
 42
-0.03115372
  0
VERTEX
  8
0
 10
673.53558171
 20
598.85533634
 42
0.05497412
  0
VERTEX
  8
0
 10
658.91238673
 20
603.66811937
 42
0.19035588
  0
VERTEX
  8
0
 10
639.87744535
 20
599.22531046
 42
0.02099438
  0
VERTEX
  8
0
 10
629.31793892
 20
591.17159317
 42
-0.19704981
  0
VERTEX
  8
0
 10
625.02931297
 20
589.81637371
 42
-0.03409156
  0
VERTEX
  8
0
 10
615.09684161
 20
591.39456073
 42
0.23494469
  0
VERTEX
  8
0
 10
604.28953501
 20
587.45511334
 42
0.27712007
  0
VERTEX
  8
0
 10
600.85580760
 20
570.12311792
 42
0.04199174
  0
VERTEX
  8
0
 10
613.19859597
 20
554.04919242
  0
VERTEX
  8
0
 10
633.00683856
 20
572.66002758
  0
VERTEX
  8
0
 10
637.14949072
 20
568.25084023
  0
VERTEX
  8
0
 10
617.34124814
 20
549.64000507
  0
SEQEND
  0
POLYLINE
  8
OBJ02
 66
   1
 39
0.000000
 70
    1
  0
VERTEX
  8
0
 10
524.40681148
 20
544.48546223
 42
-0.04717135
  0
VERTEX
  8
0
 10
542.89620172
 20
537.48812076
 42
0.03974909
  0
VERTEX
  8
0
 10
586.87232367
 20
524.99560857
 42
0.05826523
  0
VERTEX
  8
0
 10
644.84312855
 20
519.49748662
 42
-0.35946637
  0
VERTEX
  8
0
 10
649.52251324
 20
514.82132234
 42
-0.35946637
  0
VERTEX
  8
0
 10
645.81678553
 20
509.34129172
 42
-0.04051424
  0
VERTEX
  8
0
 10
585.37310416
 20
497.50795003
 42
-0.03235800
  0
VERTEX
  8
0
 10
526.40478709
 20
493.51199881
 42
-0.13482146
  0
VERTEX
  8
0
 10
506.41617733
 20
498.00965735
 42
-0.37660097
  0
VERTEX
  8
0
 10
498.92007977
 20
531.98999881
 42
-0.34846621
  0
VERTEX
  8
0
 10
524.40681148
 20
544.48546223
  0
SEQEND
  0
POLYLINE
  8
OBJ02
 66
   1
 39
0.000000
 70
    1
  0
VERTEX
  8
0
 10
820.75145294
 20
393.06429149
 42
0.35330135
  0
VERTEX
  8
0
 10
825.77633955
 20
389.45602466
 42
0.35330135
  0
VERTEX
  8
0
 10
830.36257106
 20
393.60759732
  0
VERTEX
  8
0
 10
835.08623431
 20
456.53000069
 42
0.21195778
  0
VERTEX
  8
0
 10
832.65515994
 20
463.96360057
 42
0.21195778
  0
VERTEX
  8
0
 10
825.51149050
 20
467.14739024
 42
0.21195778
  0
VERTEX
  8
0
 10
818.35816005
 20
463.98536665
 42
0.21195778
  0
VERTEX
  8
0
 10
815.90446284
 20
456.55920346
  0
VERTEX
  8
0
 10
820.75145294
 20
393.06429149
  0
SEQEND
  0
POLYLINE
  8
OBJ02
 66
   1
 39
0.000000
 70
    1
  0
VERTEX
  8
0
 10
785.27012124
 20
182.17309637
 42
-0.06582715
  0
VERTEX
  8
0
 10
783.27096514
 20
247.63911344
 42
-0.04008198
  0
VERTEX
  8
0
 10
789.19586679
 20
298.65093330
 42
-0.35166744
  0
VERTEX
  8
0
 10
795.19956097
 20
302.07478760
 42
-0.35166744
  0
VERTEX
  8
0
 10
799.84165301
 20
296.95442593
 42
-0.07738752
  0
VERTEX
  8
0
 10
798.26316026
 20
284.61877930
 42
0.26349355
  0
VERTEX
  8
0
 10
819.25223343
 20
253.13605491
 42
-0.32637771
  0
VERTEX
  8
0
 10
820.25181148
 20
249.63797442
 42
0.10218417
  0
VERTEX
  8
0
 10
793.76550172
 20
181.17351832
 42
-0.31644669
  0
VERTEX
  8
0
 10
789.16629830
 20
178.68580860
 42
-0.31644669
  0
VERTEX
  8
0
 10
785.27012124
 20
182.17309637
  0
SEQEND
  0
POLYLINE
  8
OBJ02
 66
   1
 39
0.000000
 70
    1
  0
VERTEX
  8
0
 10
818.75259197
 20
60.23667442
 42
0.33592507
  0
VERTEX
  8
0
 10
823.88583420
 20
58.70827060
 42
0.33592507
  0
VERTEX
  8
0
 10
826.74833099
 20
63.23511344
 42
0.01690836
  0
VERTEX
  8
0
 10
823.74989197
 20
75.22886954
 42
-0.11015679
  0
VERTEX
  8
0
 10
819.25223343
 20
145.19225003
 42
-0.10462683
  0
VERTEX
  8
0
 10
841.24088465
 20
210.65826710
 42
0.28787525
  0
VERTEX
  8
0
 10
840.24130660
 20
217.15478662
 42
0.07859566
  0
VERTEX
  8
0
 10
828.24755050
 20
225.15082076
 42
0.23653944
  0
VERTEX
  8
0
 10
824.24982855
 20
224.15124271
 42
0.13766130
  0
VERTEX
  8
0
 10
802.26117733
 20
143.19338905
 42
0.13299387
  0
VERTEX
  8
0
 10
818.75259197
 20
60.23667442
  0
SEQEND
  0
POLYLINE
  8
OBJ02
 66
   1
 39
0.000000
 70
    0
  0
VERTEX
  8
0
 10
686.69864146
 20
68.51539371
  0
VERTEX
  8
0
 10
697.20909325
 20
40.93405434
 42
0.17831933
  0
VERTEX
  8
0
 10
681.11110107
 20
23.97332156
 42
-0.01685549
  0
VERTEX
  8
0
 10
677.71098993
 20
17.92035884
 42
-0.24094289
  0
VERTEX
  8
0
 10
667.57732607
 20
12.73612761
 42
-0.24094289
  0
VERTEX
  8
0
 10
657.44366221
 20
17.92035884
 42
0.01565442
  0
VERTEX
  8
0
 10
654.04355108
 20
23.97332156
 42
0.15407461
  0
VERTEX
  8
0
 10
637.84380583
 20
40.66703577
  0
VERTEX
  8
0
 10
648.45601069
 20
68.51539371
  0
SEQEND
  0
POLYLINE
  8
OBJ02
 66
   1
 39
0.000000
 70
    1
  0
VERTEX
  8
0
 10
30.66221809
 20
258.15804016
 42
-0.41421356
  0
VERTEX
  8
0
 10
43.32183833
 20
245.49841991
 42
-0.41421356
  0
VERTEX
  8
0
 10
30.66221809
 20
232.83879967
 42
-0.41421356
  0
VERTEX
  8
0
 10
18.00259784
 20
245.49841991
 42
-0.41421356
  0
VERTEX
  8
0
 10
30.66221809
 20
258.15804016
  0
SEQEND
  0
POLYLINE
  8
OBJ02
 66
   1
 39
0.000000
 70
    1
  0
VERTEX
  8
0
 10
53.77996745
 20
293.70408452
 42
-0.41421356
  0
VERTEX
  8
0
 10
66.43958770
 20
281.04446427
 42
-0.41421356
  0
VERTEX
  8
0
 10
53.77996745
 20
268.38484403
 42
-0.41421356
  0
VERTEX
  8
0
 10
41.12034720
 20
281.04446427
 42
-0.41421356
  0
VERTEX
  8
0
 10
53.77996745
 20
293.70408452
  0
SEQEND
  0
POLYLINE
  8
OBJ02
 66
   1
 39
0.000000
 70
    1
  0
VERTEX
  8
0
 10
45.53328514
 20
336.68371083
 42
-0.41421356
  0
VERTEX
  8
0
 10
58.19290539
 20
324.02409058
 42
-0.41421356
  0
VERTEX
  8
0
 10
45.53328514
 20
311.36447034
 42
-0.41421356
  0
VERTEX
  8
0
 10
32.87366490
 20
324.02409058
 42
-0.41421356
  0
VERTEX
  8
0
 10
45.53328514
 20
336.68371083
  0
SEQEND
  0
POLYLINE
  8
OBJ02
 66
   1
 39
0.000000
 70
    1
  0
VERTEX
  8
0
 10
84.87402855
 20
347.09071490
 42
-0.41421356
  0
VERTEX
  8
0
 10
97.53364880
 20
334.43109465
 42
-0.41421356
  0
VERTEX
  8
0
 10
84.87402855
 20
321.77147440
 42
-0.41421356
  0
VERTEX
  8
0
 10
72.21440831
 20
334.43109465
 42
-0.41421356
  0
VERTEX
  8
0
 10
84.87402855
 20
347.09071490
  0
SEQEND
  0
POLYLINE
  8
OBJ02
 66
   1
 39
0.000000
 70
    1
  0
VERTEX
  8
0
 10
122.99802098
 20
327.35794147
 42
-0.41421356
  0
VERTEX
  8
0
 10
135.65764123
 20
314.69832123
 42
-0.41421356
  0
VERTEX
  8
0
 10
122.99802098
 20
302.03870098
 42
-0.41421356
  0
VERTEX
  8
0
 10
110.33840074
 20
314.69832123
 42
-0.41421356
  0
VERTEX
  8
0
 10
122.99802098
 20
327.35794147
  0
SEQEND
  0
POLYLINE
  8
OBJ02
 66
   1
 39
0.000000
 70
    1
  0
VERTEX
  8
0
 10
158.41821507
 20
272.07911036
 42
-0.41421356
  0
VERTEX
  8
0
 10
171.07783532
 20
259.41949011
 42
-0.41421356
  0
VERTEX
  8
0
 10
158.41821507
 20
246.75986987
 42
-0.41421356
  0
VERTEX
  8
0
 10
145.75859483
 20
259.41949011
 42
-0.41421356
  0
VERTEX
  8
0
 10
158.41821507
 20
272.07911036
  0
SEQEND
  0
POLYLINE
  8
OBJ02
 66
   1
 39
0.000000
 70
    1
  0
VERTEX
  8
0
 10
54.72308391
 20
509.90926695
 42
-0.41421356
  0
VERTEX
  8
0
 10
70.07854285
 20
494.55380801
 42
-0.41421356
  0
VERTEX
  8
0
 10
54.72308391
 20
479.19834907
 42
-0.41421356
  0
VERTEX
  8
0
 10
39.36762497
 20
494.55380801
 42
-0.41421356
  0
VERTEX
  8
0
 10
54.72308391
 20
509.90926695
  0
SEQEND
  0
POLYLINE
  8
OBJ02
 66
   1
 39
0.000000
 70
    1
  0
VERTEX
  8
0
 10
759.29123868
 20
781.42687047
 42
-0.41421356
  0
VERTEX
  8
0
 10
773.02171477
 20
767.69639437
 42
-0.41421356
  0
VERTEX
  8
0
 10
759.29123868
 20
753.96591827
 42
-0.41421356
  0
VERTEX
  8
0
 10
745.56076258
 20
767.69639437
 42
-0.41421356
  0
VERTEX
  8
0
 10
759.29123868
 20
781.42687047
  0
SEQEND
  0
POLYLINE
  8
OBJ02
 66
   1
 39
0.000000
 70
    1
  0
VERTEX
  8
0
 10
124.39423147
 20
745.60151715
 42
-0.41421356
  0
VERTEX
  8
0
 10
138.12470756
 20
731.87104105
 42
-0.41421356
  0
VERTEX
  8
0
 10
124.39423147
 20
718.14056495
 42
-0.41421356
  0
VERTEX
  8
0
 10
110.66375537
 20
731.87104105
 42
-0.41421356
  0
VERTEX
  8
0
 10
124.39423147
 20
745.60151715
  0
SEQEND
  0
POLYLINE
  8
OBJ02
 66
   1
 39
0.000000
 70
    1
  0
VERTEX
  8
0
 10
794.18348859
 20
348.20642520
 42
-0.41421356
  0
VERTEX
  8
0
 10
806.84310884
 20
335.54680496
 42
-0.41421356
  0
VERTEX
  8
0
 10
794.18348859
 20
322.88718471
 42
-0.41421356
  0
VERTEX
  8
0
 10
781.52386834
 20
335.54680496
 42
-0.41421356
  0
VERTEX
  8
0
 10
794.18348859
 20
348.20642520
  0
SEQEND
  0
POLYLINE
  8
OBJ02
 66
   1
 39
0.000000
 70
    1
  0
VERTEX
  8
0
 10
848.39529906
 20
259.27375047
 42
-0.41421356
  0
VERTEX
  8
0
 10
861.05491931
 20
246.61413022
 42
-0.41421356
  0
VERTEX
  8
0
 10
848.39529906
 20
233.95450997
 42
-0.41421356
  0
VERTEX
  8
0
 10
835.73567881
 20
246.61413022
 42
-0.41421356
  0
VERTEX
  8
0
 10
848.39529906
 20
259.27375047
  0
SEQEND
  0
POLYLINE
  8
OBJ02
 66
   1
 39
0.000000
 70
    1
  0
VERTEX
  8
0
 10
833.52423200
 20
337.79942114
 42
-0.41421356
  0
VERTEX
  8
0
 10
846.18385225
 20
325.13980089
 42
-0.41421356
  0
VERTEX
  8
0
 10
833.52423200
 20
312.48018064
 42
-0.41421356
  0
VERTEX
  8
0
 10
820.86461175
 20
325.13980089
 42
-0.41421356
  0
VERTEX
  8
0
 10
833.52423200
 20
337.79942114
  0
SEQEND
  0
POLYLINE
  8
OBJ02
 66
   1
 39
0.000000
 70
    1
  0
VERTEX
  8
0
 10
825.27754970
 20
294.81979483
 42
-0.41421356
  0
VERTEX
  8
0
 10
837.93716994
 20
282.16017458
 42
-0.41421356
  0
VERTEX
  8
0
 10
825.27754970
 20
269.50055433
 42
-0.41421356
  0
VERTEX
  8
0
 10
812.61792945
 20
282.16017458
 42
-0.41421356
  0
VERTEX
  8
0
 10
825.27754970
 20
294.81979483
  0
SEQEND
  0
POLYLINE
  8
OBJ02
 66
   1
 39
0.000000
 70
    1
  0
VERTEX
  8
0
 10
824.33443323
 20
511.02497726
 42
-0.41421356
  0
VERTEX
  8
0
 10
839.68989217
 20
495.66951832
 42
-0.41421356
  0
VERTEX
  8
0
 10
824.33443323
 20
480.31405938
 42
-0.41421356
  0
VERTEX
  8
0
 10
808.97897429
 20
495.66951832
 42
-0.41421356
  0
VERTEX
  8
0
 10
824.33443323
 20
511.02497726
  0
SEQEND
  0
POLYLINE
  8
OBJ02
 66
   1
 39
0.000000
 70
    1
  0
VERTEX
  8
0
 10
756.05949616
 20
328.47365178
 42
-0.41421356
  0
VERTEX
  8
0
 10
768.71911641
 20
315.81403153
 42
-0.41421356
  0
VERTEX
  8
0
 10
756.05949616
 20
303.15441129
 42
-0.41421356
  0
VERTEX
  8
0
 10
743.39987591
 20
315.81403153
 42
-0.41421356
  0
VERTEX
  8
0
 10
756.05949616
 20
328.47365178
  0
SEQEND
  0
POLYLINE
  8
OBJ02
 66
   1
 39
0.000000
 70
    1
  0
VERTEX
  8
0
 10
720.63930207
 20
273.19482067
 42
-0.41421356
  0
VERTEX
  8
0
 10
733.29892232
 20
260.53520042
 42
-0.41421356
  0
VERTEX
  8
0
 10
720.63930207
 20
247.87558017
 42
-0.41421356
  0
VERTEX
  8
0
 10
707.97968183
 20
260.53520042
 42
-0.41421356
  0
VERTEX
  8
0
 10
720.63930207
 20
273.19482067
  0
SEQEND
  0
POLYLINE
  8
OBJ02
 66
   1
 39
0.000000
 70
    1
  0
VERTEX
  8
0
 10
58.30606420
 20
391.94858119
  0
VERTEX
  8
0
 10
63.15305430
 20
455.44349316
 42
0.21195778
  0
VERTEX
  8
0
 10
60.69935709
 20
462.86965634
 42
0.21195778
  0
VERTEX
  8
0
 10
53.54602664
 20
466.03167993
 42
0.21195778
  0
VERTEX
  8
0
 10
46.40235720
 20
462.84789027
 42
0.21195778
  0
VERTEX
  8
0
 10
43.97128284
 20
455.41429039
  0
VERTEX
  8
0
 10
48.69494608
 20
392.49188701
 42
0.35330135
  0
VERTEX
  8
0
 10
53.28117759
 20
388.34031436
 42
0.35330135
  0
VERTEX
  8
0
 10
58.30606420
 20
391.94858119
  0
SEQEND
  0
POLYLINE
  8
OBJ02
 66
   1
 39
0.000000
 70
    1
  0
VERTEX
  8
0
 10
621.35525782
 20
463.02590125
 42
0.08210778
  0
VERTEX
  8
0
 10
613.77121936
 20
455.65973186
 42
0.02876839
  0
VERTEX
  8
0
 10
597.36686026
 20
430.54477930
 42
0.06914614
  0
VERTEX
  8
0
 10
588.33990535
 20
408.14007878
 42
0.17796873
  0
VERTEX
  8
0
 10
589.37200660
 20
398.55946223
 42
0.12795529
  0
VERTEX
  8
0
 10
593.53411504
 20
393.75703377
 42
0.21490203
  0
VERTEX
  8
0
 10
597.36686026
 20
393.06429149
 42
0.12572803
  0
VERTEX
  8
0
 10
605.20890962
 20
397.29456947
 42
0.02521587
  0
VERTEX
  8
0
 10
635.84781148
 20
428.54385247
 42
0.00264434
  0
VERTEX
  8
0
 10
655.68038879
 20
451.16414773
 42
0.00320403
  0
VERTEX
  8
0
 10
671.82907977
 20
470.02324271
 42
0.02125112
  0
VERTEX
  8
0
 10
692.35351522
 20
496.51100971
 42
0.09770726
  0
VERTEX
  8
0
 10
695.36532492
 20
503.22041604
 42
0.27400652
  0
VERTEX
  8
0
 10
693.46893589
 20
509.18680087
 42
0.34648230
  0
VERTEX
  8
0
 10
688.32049441
 20
509.50170613
 42
0.00015102
  0
VERTEX
  8
0
 10
684.04464885
 20
506.53680035
 42
0.00003057
  0
VERTEX
  8
0
 10
662.92423238
 20
491.88037236
 42
0.00001657
  0
VERTEX
  8
0
 10
631.72402969
 20
470.22475896
 42
0.00004987
  0
VERTEX
  8
0
 10
621.35525782
 20
463.02590125
  0
SEQEND
  0
POLYLINE
  8
OBJ02
 66
   1
 39
0.000000
 70
    1
  0
VERTEX
  8
0
 10
229.80000363
 20
252.77000355
  0
VERTEX
  8
0
 10
229.27406615
 20
252.51737637
  0
VERTEX
  8
0
 10
228.76276833
 20
252.20130893
  0
VERTEX
  8
0
 10
228.27294294
 20
251.82863225
  0
VERTEX
  8
0
 10
227.81142274
 20
251.40617738
  0
VERTEX
  8
0
 10
227.38504050
 20
250.94077534
  0
VERTEX
  8
0
 10
227.00062898
 20
250.43925719
  0
VERTEX
  8
0
 10
226.66502094
 20
249.90845394
  0
VERTEX
  8
0
 10
226.38504916
 20
249.35519664
  0
VERTEX
  8
0
 10
226.17063720
 20
248.77460414
  0
VERTEX
  8
0
 10
226.04407187
 20
248.11494664
  0
VERTEX
  8
0
 10
226.03073076
 20
247.31278212
  0
VERTEX
  8
0
 10
226.15599149
 20
246.30466859
  0
VERTEX
  8
0
 10
226.44523166
 20
245.02716405
  0
VERTEX
  8
0
 10
226.92382887
 20
243.41682651
  0
VERTEX
  8
0
 10
227.61716073
 20
241.41021398
  0
VERTEX
  8
0
 10
228.55060485
 20
238.94388444
  0
VERTEX
  8
0
 10
229.73929007
 20
235.97895943
  0
VERTEX
  8
0
 10
231.15735018
 20
232.57481457
  0
VERTEX
  8
0
 10
232.76867021
 20
228.81538899
  0
VERTEX
  8
0
 10
234.53713519
 20
224.78462184
  0
VERTEX
  8
0
 10
236.42663014
 20
220.56645224
  0
VERTEX
  8
0
 10
238.40104009
 20
216.24481935
  0
VERTEX
  8
0
 10
240.42425006
 20
211.90366229
  0
VERTEX
  8
0
 10
242.46014510
 20
207.62692021
  0
VERTEX
  8
0
 10
244.47700275
 20
203.48730810
  0
VERTEX
  8
0
 10
246.46067071
 20
199.51264438
  0
VERTEX
  8
0
 10
248.40138920
 20
195.71952331
  0
VERTEX
  8
0
 10
250.28939845
 20
192.12453917
  0
VERTEX
  8
0
 10
252.11493868
 20
188.74428621
  0
VERTEX
  8
0
 10
253.86825013
 20
185.59535872
  0
VERTEX
  8
0
 10
255.53957300
 20
182.69435096
  0
VERTEX
  8
0
 10
257.11914754
 20
180.05785721
  0
VERTEX
  8
0
 10
258.60111769
 20
177.69498828
  0
VERTEX
  8
0
 10
259.99524237
 20
175.58492128
  0
VERTEX
  8
0
 10
261.31518423
 20
173.69934986
  0
VERTEX
  8
0
 10
262.57460592
 20
172.00996767
  0
VERTEX
  8
0
 10
263.78717008
 20
170.48846837
  0
VERTEX
  8
0
 10
264.96653936
 20
169.10654562
  0
VERTEX
  8
0
 10
266.12637641
 20
167.83589306
  0
VERTEX
  8
0
 10
267.28034388
 20
166.64820436
  0
VERTEX
  8
0
 10
268.43950259
 20
165.51989089
  0
VERTEX
  8
0
 10
269.60450610
 20
164.44623492
  0
VERTEX
  8
0
 10
270.77340614
 20
163.42723647
  0
VERTEX
  8
0
 10
271.94425445
 20
162.46289552
  0
VERTEX
  8
0
 10
273.11510275
 20
161.55321208
  0
VERTEX
  8
0
 10
274.28400279
 20
160.69818614
  0
VERTEX
  8
0
 10
275.44900630
 20
159.89781772
  0
VERTEX
  8
0
 10
276.60816502
 20
159.15210680
  0
VERTEX
  8
0
 10
277.75757759
 20
158.46121613
  0
VERTEX
  8
0
 10
278.88553042
 20
157.82595940
  0
VERTEX
  8
0
 10
279.97835683
 20
157.24731306
  0
VERTEX
  8
0
 10
281.02239012
 20
156.72625355
  0
VERTEX
  8
0
 10
282.00396361
 20
156.26375729
  0
VERTEX
  8
0
 10
282.90941063
 20
155.86080074
  0
VERTEX
  8
0
 10
283.72506449
 20
155.51836033
  0
VERTEX
  8
0
 10
284.43725851
 20
155.23741249
  0
VERTEX
  8
0
 10
285.03785762
 20
155.01812026
  0
VERTEX
  8
0
 10
285.54085321
 20
154.85739302
  0
VERTEX
  8
0
 10
285.96576830
 20
154.75132675
  0
VERTEX
  8
0
 10
286.33212589
 20
154.69601742
  0
VERTEX
  8
0
 10
286.65944899
 20
154.68756100
  0
VERTEX
  8
0
 10
286.96726061
 20
154.72205348
  0
VERTEX
  8
0
 10
287.27508375
 20
154.79559082
  0
VERTEX
  8
0
 10
287.60244144
 20
154.90426899
  0
VERTEX
  8
0
 10
287.96381308
 20
155.04467182
  0
VERTEX
  8
0
 10
288.35350375
 20
155.21533445
  0
VERTEX
  8
0
 10
288.76077492
 20
155.41527986
  0
VERTEX
  8
0
 10
289.17488808
 20
155.64353104
  0
VERTEX
  8
0
 10
289.58510471
 20
155.89911097
  0
VERTEX
  8
0
 10
289.98068629
 20
156.18104264
  0
VERTEX
  8
0
 10
290.35089430
 20
156.48834904
  0
VERTEX
  8
0
 10
290.68499022
 20
156.82005314
  0
VERTEX
  8
0
 10
290.96914405
 20
157.18152258
  0
VERTEX
  8
0
 10
291.17715987
 20
157.60350355
  0
VERTEX
  8
0
 10
291.27975029
 20
158.12308688
  0
VERTEX
  8
0
 10
291.24762792
 20
158.77736340
  0
VERTEX
  8
0
 10
291.05150536
 20
159.60342396
  0
VERTEX
  8
0
 10
290.66209521
 20
160.63835939
  0
VERTEX
  8
0
 10
290.05011008
 20
161.91926052
  0
VERTEX
  8
0
 10
289.18626258
 20
163.48321818
  0
VERTEX
  8
0
 10
288.05167940
 20
165.35577311
  0
VERTEX
  8
0
 10
286.66914363
 20
167.51626561
  0
VERTEX
  8
0
 10
285.07185246
 20
169.93248590
  0
VERTEX
  8
0
 10
283.29300307
 20
172.57222418
  0
VERTEX
  8
0
 10
281.36579266
 20
175.40327065
  0
VERTEX
  8
0
 10
279.32341839
 20
178.39341551
  0
VERTEX
  8
0
 10
277.19907746
 20
181.51044899
  0
VERTEX
  8
0
 10
275.02596705
 20
184.72216127
  0
VERTEX
  8
0
 10
272.83207561
 20
188.00203616
  0
VERTEX
  8
0
 10
270.62455669
 20
191.34633179
  0
VERTEX
  8
0
 10
268.40535510
 20
194.75699988
  0
VERTEX
  8
0
 10
266.17641563
 20
198.23599216
  0
VERTEX
  8
0
 10
263.93968309
 20
201.78526036
  0
VERTEX
  8
0
 10
261.69710230
 20
205.40675620
  0
VERTEX
  8
0
 10
259.45061806
 20
209.10243140
  0
VERTEX
  8
0
 10
257.20217518
 20
212.87423769
  0
VERTEX
  8
0
 10
254.95762422
 20
216.71404096
  0
VERTEX
  8
0
 10
252.73843876
 20
220.57336379
  0
VERTEX
  8
0
 10
250.56999813
 20
224.39364289
  0
VERTEX
  8
0
 10
248.47768168
 20
228.11631503
  0
VERTEX
  8
0
 10
246.48686874
 20
231.68281693
  0
VERTEX
  8
0
 10
244.62293863
 20
235.03458533
  0
VERTEX
  8
0
 10
242.91127070
 20
238.11305697
  0
VERTEX
  8
0
 10
241.37724428
 20
240.85966859
  0
VERTEX
  8
0
 10
240.03794187
 20
243.23131115
  0
VERTEX
  8
0
 10
238.87725855
 20
245.24669251
  0
VERTEX
  8
0
 10
237.87079259
 20
246.93997479
  0
VERTEX
  8
0
 10
236.99414225
 20
248.34532006
  0
VERTEX
  8
0
 10
236.22290578
 20
249.49689043
  0
VERTEX
  8
0
 10
235.53268144
 20
250.42884799
  0
VERTEX
  8
0
 10
234.89906748
 20
251.17535483
  0
VERTEX
  8
0
 10
234.29766217
 20
251.77057306
  0
VERTEX
  8
0
 10
233.70813071
 20
252.24394723
  0
VERTEX
  8
0
 10
233.12640615
 20
252.60605177
  0
VERTEX
  8
0
 10
232.55248848
 20
252.86274360
  0
VERTEX
  8
0
 10
231.98637772
 20
253.01987961
  0
VERTEX
  8
0
 10
231.42807385
 20
253.08331671
  0
VERTEX
  8
0
 10
230.87757688
 20
253.05891180
  0
VERTEX
  8
0
 10
230.33488681
 20
252.95252177
  0
VERTEX
  8
0
 10
229.80000363
 20
252.77000355
  0
SEQEND
  0
POLYLINE
  8
OBJ02
 66
   1
 39
0.000000
 70
    1
  0
VERTEX
  8
0
 10
286.68707152
 20
127.58512509
 42
0.10318604
  0
VERTEX
  8
0
 10
289.90794071
 20
120.41502281
 42
0.02621704
  0
VERTEX
  8
0
 10
309.17536420
 20
96.60145192
 42
0.00391844
  0
VERTEX
  8
0
 10
329.05548591
 20
74.85183271
 42
0.01323243
  0
VERTEX
  8
0
 10
335.16085201
 20
68.61592265
 42
0.00884469
  0
VERTEX
  8
0
 10
343.79269722
 20
60.54507742
 42
0.00662095
  0
VERTEX
  8
0
 10
355.65116908
 20
50.12564704
 42
0.02124660
  0
VERTEX
  8
0
 10
368.61296500
 20
39.95824363
 42
0.04633714
  0
VERTEX
  8
0
 10
375.14102274
 20
36.13273485
 42
0.03650380
  0
VERTEX
  8
0
 10
378.05550421
 20
35.02076304
 42
0.05385633
  0
VERTEX
  8
0
 10
380.13743737
 20
34.63351534
 42
0.05020881
  0
VERTEX
  8
0
 10
381.79793045
 20
34.67344094
 42
0.03494732
  0
VERTEX
  8
0
 10
384.13633981
 20
35.13345192
 42
0.06608511
  0
VERTEX
  8
0
 10
386.56464482
 20
36.14893189
 42
0.03990190
  0
VERTEX
  8
0
 10
390.13321786
 20
38.63153241
 42
0.07395926
  0
VERTEX
  8
0
 10
393.57708723
 20
42.43698354
 42
0.09514259
  0
VERTEX
  8
0
 10
395.12963250
 20
46.12762997
 42
0.05216813
  0
VERTEX
  8
0
 10
395.46425427
 20
49.32604944
 42
0.04396679
  0
VERTEX
  8
0
 10
395.12963250
 20
53.12408607
 42
0.03647841
  0
VERTEX
  8
0
 10
394.21761291
 20
56.71563825
 42
0.05128536
  0
VERTEX
  8
0
 10
393.13165689
 20
59.12096412
 42
0.08281944
  0
VERTEX
  8
0
 10
388.35542758
 20
64.88649234
 42
0.01085258
  0
VERTEX
  8
0
 10
344.65787640
 20
101.09911046
 42
0.00157372
  0
VERTEX
  8
0
 10
327.78872232
 20
114.38574738
 42
0.00437763
  0
VERTEX
  8
0
 10
321.66787640
 20
119.08974460
 42
0.03646638
  0
VERTEX
  8
0
 10
306.35770228
 20
128.98089001
 42
0.05509780
  0
VERTEX
  8
0
 10
295.18363250
 20
133.58200314
 42
0.04749704
  0
VERTEX
  8
0
 10
291.58360141
 20
134.25795567
 42
0.09183081
  0
VERTEX
  8
0
 10
289.68551054
 20
134.08193973
 42
0.12813990
  0
VERTEX
  8
0
 10
287.84230855
 20
133.00071963
 42
0.12215184
  0
VERTEX
  8
0
 10
286.68707152
 20
131.08350070
 42
0.07493968
  0
VERTEX
  8
0
 10
286.46613276
 20
129.61766852
 42
0.05419071
  0
VERTEX
  8
0
 10
286.68707152
 20
127.58512509
  0
SEQEND
  0
POLYLINE
  8
OBJ02
 66
   1
 39
0.000000
 70
    1
  0
VERTEX
  8
0
 10
649.25751351
 20
253.88571385
  0
VERTEX
  8
0
 10
649.78345099
 20
253.63308668
  0
VERTEX
  8
0
 10
650.29474881
 20
253.31701923
  0
VERTEX
  8
0
 10
650.78457421
 20
252.94434256
  0
VERTEX
  8
0
 10
651.24609441
 20
252.52188768
  0
VERTEX
  8
0
 10
651.67247665
 20
252.05648565
  0
VERTEX
  8
0
 10
652.05688817
 20
251.55496749
  0
VERTEX
  8
0
 10
652.39249620
 20
251.02416424
  0
VERTEX
  8
0
 10
652.67246798
 20
250.47090694
  0
VERTEX
  8
0
 10
652.88687994
 20
249.89031445
  0
VERTEX
  8
0
 10
653.01344528
 20
249.23065694
  0
VERTEX
  8
0
 10
653.02678638
 20
248.42849242
  0
VERTEX
  8
0
 10
652.90152566
 20
247.42037889
  0
VERTEX
  8
0
 10
652.61228549
 20
246.14287436
  0
VERTEX
  8
0
 10
652.13368828
 20
244.53253682
  0
VERTEX
  8
0
 10
651.44035641
 20
242.52592428
  0
VERTEX
  8
0
 10
650.50691229
 20
240.05959475
  0
VERTEX
  8
0
 10
649.31822707
 20
237.09466974
  0
VERTEX
  8
0
 10
647.90016696
 20
233.69052488
  0
VERTEX
  8
0
 10
646.28884693
 20
229.93109930
  0
VERTEX
  8
0
 10
644.52038196
 20
225.90033214
  0
VERTEX
  8
0
 10
642.63088701
 20
221.68216255
  0
VERTEX
  8
0
 10
640.65647706
 20
217.36052965
  0
VERTEX
  8
0
 10
638.63326708
 20
213.01937260
  0
VERTEX
  8
0
 10
636.59737205
 20
208.74263052
  0
VERTEX
  8
0
 10
634.58051440
 20
204.60301841
  0
VERTEX
  8
0
 10
632.59684644
 20
200.62835469
  0
VERTEX
  8
0
 10
630.65612795
 20
196.83523362
  0
VERTEX
  8
0
 10
628.76811869
 20
193.24024947
  0
VERTEX
  8
0
 10
626.94257846
 20
189.85999652
  0
VERTEX
  8
0
 10
625.18926702
 20
186.71106903
  0
VERTEX
  8
0
 10
623.51794414
 20
183.81006127
  0
VERTEX
  8
0
 10
621.93836961
 20
181.17356751
  0
VERTEX
  8
0
 10
620.45639946
 20
178.81069859
  0
VERTEX
  8
0
 10
619.06227477
 20
176.70063159
  0
VERTEX
  8
0
 10
617.74233291
 20
174.81506016
  0
VERTEX
  8
0
 10
616.48291123
 20
173.12567798
  0
VERTEX
  8
0
 10
615.27034706
 20
171.60417868
  0
VERTEX
  8
0
 10
614.09097778
 20
170.22225592
  0
VERTEX
  8
0
 10
612.93114073
 20
168.95160337
  0
VERTEX
  8
0
 10
611.77717327
 20
167.76391466
  0
VERTEX
  8
0
 10
610.61801456
 20
166.63560119
  0
VERTEX
  8
0
 10
609.45301105
 20
165.56194523
  0
VERTEX
  8
0
 10
608.28411101
 20
164.54294677
  0
VERTEX
  8
0
 10
607.11326270
 20
163.57860582
  0
VERTEX
  8
0
 10
605.94241439
 20
162.66892238
  0
VERTEX
  8
0
 10
604.77351435
 20
161.81389645
  0
VERTEX
  8
0
 10
603.60851084
 20
161.01352802
  0
VERTEX
  8
0
 10
602.44935213
 20
160.26781710
  0
VERTEX
  8
0
 10
601.29993955
 20
159.57692643
  0
VERTEX
  8
0
 10
600.17198672
 20
158.94166971
  0
VERTEX
  8
0
 10
599.07916032
 20
158.36302337
  0
VERTEX
  8
0
 10
598.03512703
 20
157.84196385
  0
VERTEX
  8
0
 10
597.05355353
 20
157.37946760
  0
VERTEX
  8
0
 10
596.14810651
 20
156.97651104
  0
VERTEX
  8
0
 10
595.33245265
 20
156.63407063
  0
VERTEX
  8
0
 10
594.62025863
 20
156.35312279
  0
VERTEX
  8
0
 10
594.01965952
 20
156.13383056
  0
VERTEX
  8
0
 10
593.51666393
 20
155.97310333
  0
VERTEX
  8
0
 10
593.09174884
 20
155.86703705
  0
VERTEX
  8
0
 10
592.72539126
 20
155.81172772
  0
VERTEX
  8
0
 10
592.39806816
 20
155.80327131
  0
VERTEX
  8
0
 10
592.09025654
 20
155.83776378
  0
VERTEX
  8
0
 10
591.78243339
 20
155.91130112
  0
VERTEX
  8
0
 10
591.45507571
 20
156.01997930
  0
VERTEX
  8
0
 10
591.09370407
 20
156.16038213
  0
VERTEX
  8
0
 10
590.70401340
 20
156.33104475
  0
VERTEX
  8
0
 10
590.29674222
 20
156.53099016
  0
VERTEX
  8
0
 10
589.88262906
 20
156.75924134
  0
VERTEX
  8
0
 10
589.47241243
 20
157.01482127
  0
VERTEX
  8
0
 10
589.07683085
 20
157.29675295
  0
VERTEX
  8
0
 10
588.70662284
 20
157.60405934
  0
VERTEX
  8
0
 10
588.37252693
 20
157.93576344
  0
VERTEX
  8
0
 10
588.08837310
 20
158.29723288
  0
VERTEX
  8
0
 10
587.88035727
 20
158.71921385
  0
VERTEX
  8
0
 10
587.77776685
 20
159.23879718
  0
VERTEX
  8
0
 10
587.80988922
 20
159.89307371
  0
VERTEX
  8
0
 10
588.00601179
 20
160.71913427
  0
VERTEX
  8
0
 10
588.39542193
 20
161.75406969
  0
VERTEX
  8
0
 10
589.00740706
 20
163.03497082
  0
VERTEX
  8
0
 10
589.87125457
 20
164.59892849
  0
VERTEX
  8
0
 10
591.00583775
 20
166.47148341
  0
VERTEX
  8
0
 10
592.38837352
 20
168.63197592
  0
VERTEX
  8
0
 10
593.98566468
 20
171.04819621
  0
VERTEX
  8
0
 10
595.76451407
 20
173.68793448
  0
VERTEX
  8
0
 10
597.69172449
 20
176.51898095
  0
VERTEX
  8
0
 10
599.73409876
 20
179.50912582
  0
VERTEX
  8
0
 10
601.85843969
 20
182.62615929
  0
VERTEX
  8
0
 10
604.03155010
 20
185.83787158
  0
VERTEX
  8
0
 10
606.22544153
 20
189.11774646
  0
VERTEX
  8
0
 10
608.43296045
 20
192.46204209
  0
VERTEX
  8
0
 10
610.65216205
 20
195.87271018
  0
VERTEX
  8
0
 10
612.88110152
 20
199.35170247
  0
VERTEX
  8
0
 10
615.11783405
 20
202.90097067
  0
VERTEX
  8
0
 10
617.36041485
 20
206.52246651
  0
VERTEX
  8
0
 10
619.60689909
 20
210.21814171
  0
VERTEX
  8
0
 10
621.85534197
 20
213.98994800
  0
VERTEX
  8
0
 10
624.09989293
 20
217.82975127
  0
VERTEX
  8
0
 10
626.31907839
 20
221.68907409
  0
VERTEX
  8
0
 10
628.48751901
 20
225.50935320
  0
VERTEX
  8
0
 10
630.57983546
 20
229.23202534
  0
VERTEX
  8
0
 10
632.57064841
 20
232.79852723
  0
VERTEX
  8
0
 10
634.43457851
 20
236.15029563
  0
VERTEX
  8
0
 10
636.14624644
 20
239.22876727
  0
VERTEX
  8
0
 10
637.68027286
 20
241.97537889
  0
VERTEX
  8
0
 10
639.01957528
 20
244.34702145
  0
VERTEX
  8
0
 10
640.18025860
 20
246.36240282
  0
VERTEX
  8
0
 10
641.18672455
 20
248.05568509
  0
VERTEX
  8
0
 10
642.06337489
 20
249.46103037
  0
VERTEX
  8
0
 10
642.83461136
 20
250.61260073
  0
VERTEX
  8
0
 10
643.52483570
 20
251.54455829
  0
VERTEX
  8
0
 10
644.15844966
 20
252.29106514
  0
VERTEX
  8
0
 10
644.75985498
 20
252.88628336
  0
VERTEX
  8
0
 10
645.34938643
 20
253.35965753
  0
VERTEX
  8
0
 10
645.93111100
 20
253.72176208
  0
VERTEX
  8
0
 10
646.50502866
 20
253.97845391
  0
VERTEX
  8
0
 10
647.07113943
 20
254.13558992
  0
VERTEX
  8
0
 10
647.62944329
 20
254.19902702
  0
VERTEX
  8
0
 10
648.17994026
 20
254.17462210
  0
VERTEX
  8
0
 10
648.72263034
 20
254.06823208
  0
VERTEX
  8
0
 10
649.25751351
 20
253.88571385
  0
SEQEND
  0
ENDSEC
  0
EOF
