  0
SECTION
  2
HEADER
  9
$ACADVER
  1
AC1009
  9
$INSBASE
 10
0.0
 20
0.0
 30
0.0
  9
$EXTMIN
 10
-0.0000000000000568
 20
0.0
 30
0.0
  9
$EXTMAX
 10
802.67869282442177
 20
964.06891260999987
 30
0.0
  9
$LIMMIN
 10
0.0
 20
0.0
  9
$LIMMAX
 10
12.0
 20
9.0
  9
$ORTHOMODE
 70
     0
  9
$REGENMODE
 70
     1
  9
$FILLMODE
 70
     1
  9
$QTEXTMODE
 70
     0
  9
$MIRRTEXT
 70
     0
  9
$DRAGMODE
 70
     2
  9
$LTSCALE
 40
1.0
  9
$OSMODE
 70
   167
  9
$ATTMODE
 70
     1
  9
$TEXTSIZE
 40
0.2
  9
$TRACEWID
 40
0.05
  9
$TEXTSTYLE
  7
STANDARD
  9
$CLAYER
  8
0
  9
$CELTYPE
  6
CONTINUOUS
  9
$CECOLOR
 62
   256
  9
$DIMSCALE
 40
1.0
  9
$DIMASZ
 40
0.18
  9
$DIMEXO
 40
0.0625
  9
$DIMDLI
 40
0.38
  9
$DIMRND
 40
0.0
  9
$DIMDLE
 40
0.0
  9
$DIMEXE
 40
0.18
  9
$DIMTP
 40
0.0
  9
$DIMTM
 40
0.0
  9
$DIMTXT
 40
0.18
  9
$DIMCEN
 40
0.09
  9
$DIMTSZ
 40
0.0
  9
$DIMTOL
 70
     0
  9
$DIMLIM
 70
     0
  9
$DIMTIH
 70
     1
  9
$DIMTOH
 70
     1
  9
$DIMSE1
 70
     0
  9
$DIMSE2
 70
     0
  9
$DIMTAD
 70
     0
  9
$DIMZIN
 70
     0
  9
$DIMBLK
  1

  9
$DIMASO
 70
     1
  9
$DIMSHO
 70
     1
  9
$DIMPOST
  1

  9
$DIMAPOST
  1

  9
$DIMALT
 70
     0
  9
$DIMALTD
 70
     2
  9
$DIMALTF
 40
25.399999999999999
  9
$DIMLFAC
 40
1.0
  9
$DIMTOFL
 70
     0
  9
$DIMTVP
 40
0.0
  9
$DIMTIX
 70
     0
  9
$DIMSOXD
 70
     0
  9
$DIMSAH
 70
     0
  9
$DIMBLK1
  1

  9
$DIMBLK2
  1

  9
$DIMSTYLE
  2
STANDARD
  9
$DIMCLRD
 70
     0
  9
$DIMCLRE
 70
     0
  9
$DIMCLRT
 70
     0
  9
$DIMTFAC
 40
1.0
  9
$DIMGAP
 40
0.09
  9
$LUNITS
 70
     2
  9
$LUPREC
 70
     4
  9
$SKETCHINC
 40
0.1
  9
$FILLETRAD
 40
0.0
  9
$AUNITS
 70
     0
  9
$AUPREC
 70
     0
  9
$MENU
  1
.
  9
$ELEVATION
 40
0.0
  9
$PELEVATION
 40
0.0
  9
$THICKNESS
 40
0.0
  9
$LIMCHECK
 70
     0
  9
$BLIPMODE
 70
     0
  9
$CHAMFERA
 40
0.0
  9
$CHAMFERB
 40
0.0
  9
$SKPOLY
 70
     0
  9
$TDCREATE
 40
2455328.0487232301
  9
$TDUPDATE
 40
2455328.0489293979
  9
$TDINDWG
 40
0.0002070718
  9
$TDUSRTIMER
 40
0.0002070718
  9
$USRTIMER
 70
     1
  9
$ANGBASE
 50
0.0
  9
$ANGDIR
 70
     0
  9
$PDMODE
 70
     0
  9
$PDSIZE
 40
0.0
  9
$PLINEWID
 40
0.0
  9
$COORDS
 70
     1
  9
$SPLFRAME
 70
     0
  9
$SPLINETYPE
 70
     6
  9
$SPLINESEGS
 70
     8
  9
$ATTDIA
 70
     0
  9
$ATTREQ
 70
     1
  9
$HANDLING
 70
     1
  9
$HANDSEED
  5
834
  9
$SURFTAB1
 70
     6
  9
$SURFTAB2
 70
     6
  9
$SURFTYPE
 70
     6
  9
$SURFU
 70
     6
  9
$SURFV
 70
     6
  9
$UCSNAME
  2

  9
$UCSORG
 10
0.0
 20
0.0
 30
0.0
  9
$UCSXDIR
 10
1.0
 20
0.0
 30
0.0
  9
$UCSYDIR
 10
0.0
 20
1.0
 30
0.0
  9
$PUCSNAME
  2

  9
$PUCSORG
 10
0.0
 20
0.0
 30
0.0
  9
$PUCSXDIR
 10
1.0
 20
0.0
 30
0.0
  9
$PUCSYDIR
 10
0.0
 20
1.0
 30
0.0
  9
$USERI1
 70
     0
  9
$USERI2
 70
     0
  9
$USERI3
 70
     0
  9
$USERI4
 70
     0
  9
$USERI5
 70
     0
  9
$USERR1
 40
0.0
  9
$USERR2
 40
0.0
  9
$USERR3
 40
0.0
  9
$USERR4
 40
0.0
  9
$USERR5
 40
0.0
  9
$WORLDVIEW
 70
     1
  9
$SHADEDGE
 70
     3
  9
$SHADEDIF
 70
    70
  9
$TILEMODE
 70
     1
  9
$MAXACTVP
 70
    64
  9
$PLIMCHECK
 70
     0
  9
$PEXTMIN
 10
1.0000000000000000E+020
 20
1.0000000000000000E+020
 30
1.0000000000000000E+020
  9
$PEXTMAX
 10
-1.0000000000000000E+020
 20
-1.0000000000000000E+020
 30
-1.0000000000000000E+020
  9
$PLIMMIN
 10
0.0
 20
0.0
  9
$PLIMMAX
 10
12.0
 20
9.0
  9
$UNITMODE
 70
     0
  9
$VISRETAIN
 70
     1
  9
$PLINEGEN
 70
     0
  9
$PSLTSCALE
 70
     1
  0
ENDSEC
  0
SECTION
  2
TABLES
  0
TABLE
  2
VPORT
 70
     1
  0
VPORT
  2
*ACTIVE
 70
     0
 10
0.0
 20
0.0
 11
1.0
 21
1.0
 12
7.8038793103448274
 22
4.5
 13
0.0
 23
0.0
 14
1.0
 24
1.0
 15
0.0
 25
0.0
 16
0.0
 26
0.0
 36
1.0
 17
0.0
 27
0.0
 37
0.0
 40
9.0
 41
1.7341954022988499
 42
50.0
 43
0.0
 44
0.0
 50
0.0
 51
0.0
 71
     0
 72
   100
 73
     1
 74
     1
 75
     0
 76
     0
 77
     0
 78
     0
  0
ENDTAB
  0
TABLE
  2
LTYPE
 70
     1
  0
LTYPE
  2
CONTINUOUS
 70
     0
  3
Solid line
 72
    65
 73
     0
 40
0.0
  0
ENDTAB
  0
TABLE
  2
LAYER
 70
     2
  0
LAYER
  2
0
 70
     0
 62
     7
  6
CONTINUOUS
  0
LAYER
  2
CYAN
 70
     0
 62
     1
  6
CONTINUOUS
  0
ENDTAB
  0
TABLE
  2
STYLE
 70
     2
  0
STYLE
  2
STANDARD
 70
     0
 40
0.0
 41
1.0
 50
0.0
 71
     0
 42
0.2
  3
txt
  4

  0
STYLE
  2
ANNOTATIVE
 70
     0
 40
0.0
 41
1.0
 50
0.0
 71
     0
 42
0.2
  3
txt
  4

  0
ENDTAB
  0
TABLE
  2
VIEW
 70
     0
  0
ENDTAB
  0
TABLE
  2
UCS
 70
     0
  0
ENDTAB
  0
TABLE
  2
APPID
 70
     3
  0
APPID
  2
ACAD
 70
     0
  0
APPID
  2
ACADANNOTATIVE
 70
     0
  0
APPID
  2
ACAD_MLEADERVER
 70
     0
  0
ENDTAB
  0
TABLE
  2
DIMSTYLE
 70
     2
  0
DIMSTYLE
  2
STANDARD
 70
     0
  3

  4

  5

  6

  7

 40
1.0
 41
0.18
 42
0.0625
 43
0.38
 44
0.18
 45
0.0
 46
0.0
 47
0.0
 48
0.0
140
0.18
141
0.09
142
0.0
143
25.399999999999999
144
1.0
145
0.0
146
1.0
147
0.09
 71
     0
 72
     0
 73
     1
 74
     1
 75
     0
 76
     0
 77
     0
 78
     0
170
     0
171
     2
172
     0
173
     0
174
     0
175
     0
176
     0
177
     0
178
     0
  0
DIMSTYLE
  2
ANNOTATIVE
 70
     0
  3

  4

  5

  6

  7

 40
1.0
 41
0.18
 42
0.0625
 43
0.38
 44
0.18
 45
0.0
 46
0.0
 47
0.0
 48
0.0
140
0.18
141
0.09
142
0.0
143
25.399999999999999
144
1.0
145
0.0
146
1.0
147
0.09
 71
     0
 72
     0
 73
     1
 74
     1
 75
     0
 76
     0
 77
     0
 78
     0
170
     0
171
     2
172
     0
173
     0
174
     0
175
     0
176
     0
177
     0
178
     0
  0
ENDTAB
  0
ENDSEC
  0
SECTION
  2
BLOCKS
  0
BLOCK
  8
0
  2
$MODEL_SPACE
 70
     0
 10
0.0
 20
0.0
 30
0.0
  3
$MODEL_SPACE
  1

  0
ENDBLK
  5
76
  8
0
  0
BLOCK
 67
     1
  8
0
  2
$PAPER_SPACE
 70
     0
 10
0.0
 20
0.0
 30
0.0
  3
$PAPER_SPACE
  1

  0
ENDBLK
  5
72
 67
     1
  8
0
  0
ENDSEC
  0
SECTION
  2
ENTITIES
  0
POLYLINE
  5
7B
  8
CYAN
 66
     1
 10
0.0
 20
0.0
 30
0.0
 70
     1
  0
VERTEX
  5
47E
  8
CYAN
 10
198.11025684000001
 20
21.108405605000002
 30
0.0
 42
-0.25304434
  0
VERTEX
  5
47F
  8
CYAN
 10
188.59320898499999
 20
21.907402305000002
 30
0.0
 42
-0.25304434
  0
VERTEX
  5
480
  8
CYAN
 10
184.05076718000001
 20
30.308522350000001
 30
0.0
  0
VERTEX
  5
481
  8
CYAN
 10
184.05682121500001
 20
56.419579720000002
 30
0.0
 42
0.34939932
  0
VERTEX
  5
482
  8
CYAN
 10
180.46927668999999
 20
60.143804074999998
 30
0.0
 42
0.34939932
  0
VERTEX
  5
483
  8
CYAN
 10
176.03522348000001
 20
57.48307204999999
 30
0.0
 42
0.14269292
  0
VERTEX
  5
484
  8
CYAN
 10
172.9456471
 20
16.253068715000001
 30
0.0
 42
0.29817379
  0
VERTEX
  5
485
  8
CYAN
 10
188.17558371999999
 20
0.0
 30
0.0
 42
0.01507438
  0
VERTEX
  5
486
  8
CYAN
 10
192.14501333999999
 20
0.458088725
 30
0.0
 42
0.29209963
  0
VERTEX
  5
487
  8
CYAN
 10
193.36613090500001
 20
1.5292229150000001
 30
0.0
 42
0.29209963
  0
VERTEX
  5
488
  8
CYAN
 10
192.90782188
 20
3.0875583699999991
 30
0.0
  0
VERTEX
  5
489
  8
CYAN
 10
190.0987491649999
 20
5.5132088049999988
 30
0.0
  0
VERTEX
  5
48A
  8
CYAN
 10
192.068328885
 20
7.8399766499999988
 30
0.0
  0
VERTEX
  5
48B
  8
CYAN
 10
199.09504670000001
 20
1.848498999999999
 30
0.0
 42
0.0472051
  0
VERTEX
  5
48C
  8
CYAN
 10
210.84593061999999
 20
6.0742161450000003
 30
0.0
  0
VERTEX
  5
48D
  8
CYAN
 10
205.59102734999999
 20
11.656037359999999
 30
0.0
  0
VERTEX
  5
48E
  8
CYAN
 10
207.79066044000001
 20
13.752751835
 30
0.0
  0
VERTEX
  5
48F
  8
CYAN
 10
213.67921948
 20
7.5110406950000002
 30
0.0
 42
0.05053256
  0
VERTEX
  5
490
  8
CYAN
 10
224.79039359500001
 20
14.931270845
 30
0.0
  0
VERTEX
  5
491
  8
CYAN
 10
218.00180119999999
 20
21.336440960000001
 30
0.0
  0
VERTEX
  5
492
  8
CYAN
 10
220.07429953499999
 20
23.53607405
 30
0.0
  0
VERTEX
  5
493
  8
CYAN
 10
227.101017345
 20
16.912958639999999
 30
0.0
 42
0.04788363
  0
VERTEX
  5
494
  8
CYAN
 10
235.63720814000001
 20
26.270480320000001
 30
0.0
  0
VERTEX
  5
495
  8
CYAN
 10
228.36429286000001
 20
32.104553035000002
 30
0.0
  0
VERTEX
  5
496
  8
CYAN
 10
230.26122415
 20
34.479753170000002
 30
0.0
  0
VERTEX
  5
497
  8
CYAN
 10
237.413058705
 20
28.742545029999999
 30
0.0
 42
0.03307194
  0
VERTEX
  5
498
  8
CYAN
 10
244.03617411499999
 20
41.15331888
 30
0.0
  0
VERTEX
  5
499
  8
CYAN
 10
236.073098735
 20
44.717128084999999
 30
0.0
  0
VERTEX
  5
49A
  8
CYAN
 10
237.362608405
 20
47.445480319999987
 30
0.0
  0
VERTEX
  5
49B
  8
CYAN
 10
245.24899933500001
 20
43.932121414999997
 30
0.0
 42
0.03106605
  0
VERTEX
  5
49C
  8
CYAN
 10
249.571581055
 20
56.419579720000002
 30
0.0
  0
VERTEX
  5
49D
  8
CYAN
 10
241.634739825
 20
58.617194795000003
 30
0.0
  0
VERTEX
  5
49E
  8
CYAN
 10
242.46817878499999
 20
61.549366245000002
 30
0.0
  0
VERTEX
  5
49F
  8
CYAN
 10
250.354569715
 20
59.402201470000001
 30
0.0
 42
0.03045216
  0
VERTEX
  5
4A0
  8
CYAN
 10
252.69748165499999
 20
72.141911274999998
 30
0.0
  0
VERTEX
  5
4A1
  8
CYAN
 10
245.071414275
 20
73.631204135000004
 30
0.0
  0
VERTEX
  5
4A2
  8
CYAN
 10
245.47703469000001
 20
76.640060039999995
 30
0.0
  0
VERTEX
  5
4A3
  8
CYAN
 10
253.00825550499999
 20
75.148749164999998
 30
0.0
 42
0.02841437
  0
VERTEX
  5
4A4
  8
CYAN
 10
253.43809206
 20
87.230587060000005
 30
0.0
  0
VERTEX
  5
4A5
  8
CYAN
 10
245.93108738999999
 20
88.695663774999986
 30
0.0
  0
VERTEX
  5
4A6
  8
CYAN
 10
246.03198799
 20
91.779186124999995
 30
0.0
  0
VERTEX
  5
4A7
  8
CYAN
 10
253.58944296000001
 20
90.287875249999999
 30
0.0
 42
0.03287729
  0
VERTEX
  5
4A8
  8
CYAN
 10
253.12731821
 20
103.43118746
 30
0.0
 42
-0.20184992
  0
VERTEX
  5
4A9
  8
CYAN
 10
255.36419777
 20
108.730289085
 30
0.0
 42
-0.20184992
  0
VERTEX
  5
4AA
  8
CYAN
 10
260.71706137500001
 20
110.835273515
 30
0.0
 42
0.14118571
  0
VERTEX
  5
4AB
  8
CYAN
 10
274.03795864
 20
113.44052702
 30
0.0
 42
0.35160523
  0
VERTEX
  5
4AC
  8
CYAN
 10
274.81085724000002
 20
115.155837225
 30
0.0
  0
VERTEX
  5
4AD
  8
CYAN
 10
271.10578719
 20
129.919613075
 30
0.0
  0
VERTEX
  5
4AE
  8
CYAN
 10
274.064192795
 20
130.65416944500001
 30
0.0
  0
VERTEX
  5
4AF
  8
CYAN
 10
277.77935289999999
 20
115.81572715
 30
0.0
 42
0.4135070800000001
  0
VERTEX
  5
4B0
  8
CYAN
 10
279.01639426499997
 20
115.083188795
 30
0.0
  0
VERTEX
  5
4B1
  8
CYAN
 10
280.18078718999999
 20
115.38589059500001
 30
0.0
 42
0.33680066
  0
VERTEX
  5
4B2
  8
CYAN
 10
281.29271181000001
 20
116.85298532500001
 30
0.0
  0
VERTEX
  5
4B3
  8
CYAN
 10
281.39361241
 20
132.49863242000001
 30
0.0
 42
0.17737588
  0
VERTEX
  5
4B4
  8
CYAN
 10
267.79422948500002
 20
177.43774182999999
 30
0.0
 42
0.17659898
  0
VERTEX
  5
4B5
  8
CYAN
 10
259.70603735999998
 20
180.92083055500001
 30
0.0
 42
0.2359124
  0
VERTEX
  5
4B6
  8
CYAN
 10
258.88039304500001
 20
180.56294725000001
 30
0.0
 42
0.2359124
  0
VERTEX
  5
4B7
  8
CYAN
 10
258.67079719999998
 20
179.687825215
 30
0.0
  0
VERTEX
  5
4B8
  8
CYAN
 10
263.32029686499999
 20
161.035340225
 30
0.0
  0
VERTEX
  5
4B9
  8
CYAN
 10
260.39014343000002
 20
160.30078385499999
 30
0.0
  0
VERTEX
  5
4BA
  8
CYAN
 10
255.33502335
 20
180.54749833
 30
0.0
 42
0.31464179
  0
VERTEX
  5
4BB
  8
CYAN
 10
254.44911607500001
 20
181.306270845
 30
0.0
 42
-0.00994167
  0
VERTEX
  5
4BC
  8
CYAN
 10
239.84072714999999
 20
182.99938291999999
 30
0.0
  0
VERTEX
  5
4BD
  8
CYAN
 10
239.71359239500001
 20
162.77890260000001
 30
0.0
  0
VERTEX
  5
4BE
  8
CYAN
 10
236.68052034499999
 20
162.77890260000001
 30
0.0
  0
VERTEX
  5
4BF
  8
CYAN
 10
236.93277184999999
 20
204.93920947500001
 30
0.0
  0
VERTEX
  5
4C0
  8
CYAN
 10
219.51934623
 20
204.93920947500001
 30
0.0
  0
VERTEX
  5
4C1
  8
CYAN
 10
219.51934623
 20
207.86936291000001
 30
0.0
  0
VERTEX
  5
4C2
  8
CYAN
 10
236.93277184999999
 20
207.86936291000001
 30
0.0
  0
VERTEX
  5
4C3
  8
CYAN
 10
237.08412275000001
 20
230.618412275
 30
0.0
 42
0.34479252
  0
VERTEX
  5
4C4
  8
CYAN
 10
230.38634089499999
 20
239.263575715
 30
0.0
  0
VERTEX
  5
4C5
  8
CYAN
 10
230.38634089499999
 20
225.46239159500001
 30
0.0
  0
VERTEX
  5
4C6
  8
CYAN
 10
227.353268845
 20
225.46239159500001
 30
0.0
  0
VERTEX
  5
4C7
  8
CYAN
 10
227.353268845
 20
239.51582722000001
 30
0.0
 42
-0.27028323
  0
VERTEX
  5
4C8
  8
CYAN
 10
214.19784856499999
 20
245.06536023999999
 30
0.0
 42
0.24999545
  0
VERTEX
  5
4C9
  8
CYAN
 10
210.24141101999999
 20
246.06215249499999
 30
0.0
 42
0.24999545
  0
VERTEX
  5
4CA
  8
CYAN
 10
207.20947297999999
 20
243.33188792499999
 30
0.0
  0
VERTEX
  5
4CB
  8
CYAN
 10
210.521030685
 20
238.226317545
 30
0.0
  0
VERTEX
  5
4CC
  8
CYAN
 10
208.04291194000001
 20
236.63410607
 30
0.0
  0
VERTEX
  5
4CD
  8
CYAN
 10
202.17856904499999
 20
245.70708805999999
 30
0.0
 42
0.3485596
  0
VERTEX
  5
4CE
  8
CYAN
 10
192.44771514499999
 20
232.94316211
 30
0.0
  0
VERTEX
  5
4CF
  8
CYAN
 10
206.376034025
 20
227.93849233
 30
0.0
  0
VERTEX
  5
4D0
  8
CYAN
 10
205.41546030500001
 20
225.18390593500001
 30
0.0
  0
VERTEX
  5
4D1
  8
CYAN
 10
175.74059373
 20
235.623082055
 30
0.0
 42
0.36663078
  0
VERTEX
  5
4D2
  8
CYAN
 10
168.43740826999999
 20
232.81804536499999
 30
0.0
 42
0.20528912
  0
VERTEX
  5
4D3
  8
CYAN
 10
167.91877918500001
 20
218.85945630500001
 30
0.0
 42
0.27587016
  0
VERTEX
  5
4D4
  8
CYAN
 10
170.527650505
 20
217.21112278999999
 30
0.0
 42
0.27587016
  0
VERTEX
  5
4D5
  8
CYAN
 10
173.21606070499999
 20
218.72626751000001
 30
0.0
  0
VERTEX
  5
4D6
  8
CYAN
 10
176.42268179000001
 20
224.40091727999999
 30
0.0
 42
-0.35786431
  0
VERTEX
  5
4D7
  8
CYAN
 10
179.60912275000001
 20
225.63997664999999
 30
0.0
 42
-0.26916279
  0
VERTEX
  5
4D8
  8
CYAN
 10
189.53975983999999
 20
214.59337891999999
 30
0.0
 42
0.28235561
  0
VERTEX
  5
4D9
  8
CYAN
 10
204.680903935
 20
195.281004005
 30
0.0
 42
-0.4082282300000001
  0
VERTEX
  5
4DA
  8
CYAN
 10
210.69659773000001
 20
188.23208806
 30
0.0
  0
VERTEX
  5
4DB
  8
CYAN
 10
210.29299533
 20
180.29524683
 30
0.0
 42
-0.28555351
  0
VERTEX
  5
4DC
  8
CYAN
 10
205.33877584999999
 20
173.191844565
 30
0.0
 42
-0.06798974
  0
VERTEX
  5
4DD
  8
CYAN
 10
190.02206471
 20
171.87811874499999
 30
0.0
 42
0.35556729
  0
VERTEX
  5
4DE
  8
CYAN
 10
183.92968646
 20
166.52029686500001
 30
0.0
 42
0.01786216
  0
VERTEX
  5
4DF
  8
CYAN
 10
182.7269513
 20
145.89419613000001
 30
0.0
  0
VERTEX
  5
4E0
  8
CYAN
 10
182.71686123999999
 20
145.13542361500001
 30
0.0
 42
0.00212111
  0
VERTEX
  5
4E1
  8
CYAN
 10
182.67851901500001
 20
142.68152101499999
 30
0.0
  0
VERTEX
  5
4E2
  8
CYAN
 10
182.668428955
 20
141.67251501000001
 30
0.0
 42
0.02147565
  0
VERTEX
  5
4E3
  8
CYAN
 10
183.53819213
 20
116.85096731
 30
0.0
 42
0.36205528
  0
VERTEX
  5
4E4
  8
CYAN
 10
192.24591394500001
 20
107.19276184
 30
0.0
  0
VERTEX
  5
4E5
  8
CYAN
 10
192.24591394500001
 20
135.455020015
 30
0.0
  0
VERTEX
  5
4E6
  8
CYAN
 10
195.17808539000001
 20
135.455020015
 30
0.0
  0
VERTEX
  5
4E7
  8
CYAN
 10
195.17808539000001
 20
106.94454636499999
 30
0.0
  0
VERTEX
  5
4E8
  8
CYAN
 10
226.34224483
 20
104.593562375
 30
0.0
 42
-0.38793397
  0
VERTEX
  5
4E9
  8
CYAN
 10
235.11454302999999
 20
95.292545029999999
 30
0.0
 42
-0.06215803
  0
VERTEX
  5
4EA
  8
CYAN
 10
231.27224816500001
 20
59.452651770000003
 30
0.0
 42
-0.22556692
  0
VERTEX
  5
4EB
  8
CYAN
 10
198.11025684000001
 20
21.108405605000002
 30
0.0
  0
SEQEND
  5
4EC
  8
CYAN
  0
POLYLINE
  5
EB
  8
CYAN
 66
     1
 10
0.0
 20
0.0
 30
0.0
 70
     1
  0
VERTEX
  5
4ED
  8
CYAN
 10
286.27114742999998
 20
276.54432955499999
 30
0.0
 42
0.39804018
  0
VERTEX
  5
4EE
  8
CYAN
 10
294.42189793
 20
273.589959975
 30
0.0
 42
0.02247646
  0
VERTEX
  5
4EF
  8
CYAN
 10
298.57900267000002
 20
275.35370246999997
 30
0.0
  0
VERTEX
  5
4F0
  8
CYAN
 10
299.50527018000002
 20
275.77748499
 30
0.0
  0
VERTEX
  5
4F1
  8
CYAN
 10
288.82393261999999
 20
292.84784856499999
 30
0.0
  0
VERTEX
  5
4F2
  8
CYAN
 10
291.40295197
 20
294.44006003999999
 30
0.0
  0
VERTEX
  5
4F3
  8
CYAN
 10
302.32241494499999
 20
276.97416611
 30
0.0
 42
0.22270269
  0
VERTEX
  5
4F4
  8
CYAN
 10
305.88028481999999
 20
278.48176328
 30
0.0
 42
0.22270269
  0
VERTEX
  5
4F5
  8
CYAN
 10
306.998148765
 20
282.18063709
 30
0.0
 42
0.04096139
  0
VERTEX
  5
4F6
  8
CYAN
 10
307.09904936499998
 20
341.98240493499998
 30
0.0
 42
0.19156009
  0
VERTEX
  5
4F7
  8
CYAN
 10
284.40650433500002
 20
429.52174782999992
 30
0.0
 42
0.39109135
  0
VERTEX
  5
4F8
  8
CYAN
 10
253.00825550499999
 20
443.08480653999999
 30
0.0
 42
0.23195912
  0
VERTEX
  5
4F9
  8
CYAN
 10
240.44613075500001
 20
427.99613075500002
 30
0.0
 42
0.07594386
  0
VERTEX
  5
4FA
  8
CYAN
 10
238.29694796499999
 20
354.974366245
 30
0.0
 42
0.02785605
  0
VERTEX
  5
4FB
  8
CYAN
 10
235.290110075
 20
330.27995329999999
 30
0.0
 42
0.15552875
  0
VERTEX
  5
4FC
  8
CYAN
 10
247.06924616500001
 20
308.66906270999999
 30
0.0
 42
0.18820351
  0
VERTEX
  5
4FD
  8
CYAN
 10
258.51742828499999
 20
302.93790860500002
 30
0.0
 42
-0.17864056
  0
VERTEX
  5
4FE
  8
CYAN
 10
278.27981987999999
 20
289.73405603499998
 30
0.0
 42
-0.05868416
  0
VERTEX
  5
4FF
  8
CYAN
 10
286.27114742999998
 20
276.54432955499999
 30
0.0
  0
SEQEND
  5
500
  8
CYAN
  0
POLYLINE
  5
100
  8
CYAN
 66
     1
 10
0.0
 20
0.0
 30
0.0
 70
     1
  0
VERTEX
  5
501
  8
CYAN
 10
286.34783189000001
 20
343.37281521
 30
0.0
 42
0.4079767000000001
  0
VERTEX
  5
502
  8
CYAN
 10
288.35628188999999
 20
341.82565625000001
 30
0.0
 42
0.4079767000000001
  0
VERTEX
  5
503
  8
CYAN
 10
289.9459473
 20
343.80063375499998
 30
0.0
 42
0.07939118
  0
VERTEX
  5
504
  8
CYAN
 10
271.33382254999998
 20
426.17588392499988
 30
0.0
 42
0.09388269
  0
VERTEX
  5
505
  8
CYAN
 10
265.29189459499997
 20
435.62825216999988
 30
0.0
 42
0.37290044
  0
VERTEX
  5
506
  8
CYAN
 10
260.11049653499998
 20
436.15693339500001
 30
0.0
 42
0.37290044
  0
VERTEX
  5
507
  8
CYAN
 10
258.84838225499999
 20
431.103869245
 30
0.0
 42
-0.08318241
  0
VERTEX
  5
508
  8
CYAN
 10
286.34783189000001
 20
343.37281521
 30
0.0
  0
SEQEND
  5
509
  8
CYAN
  0
POLYLINE
  5
10A
  8
CYAN
 66
     1
 10
0.0
 20
0.0
 30
0.0
 70
     1
  0
VERTEX
  5
50A
  8
CYAN
 10
271.43472315000002
 20
375.85271848000002
 30
0.0
 42
0.36254478
  0
VERTEX
  5
50B
  8
CYAN
 10
272.869212215
 20
375.446220025
 30
0.0
 42
0.36254478
  0
VERTEX
  5
50C
  8
CYAN
 10
273.52538358999999
 20
376.785040025
 30
0.0
 42
0.09072705
  0
VERTEX
  5
50D
  8
CYAN
 10
249.995363575
 20
430.57111407500003
 30
0.0
 42
0.28706032
  0
VERTEX
  5
50E
  8
CYAN
 10
248.88385853
 20
431.09246256500001
 30
0.0
 42
0.28706032
  0
VERTEX
  5
50F
  8
CYAN
 10
247.92891928
 20
430.32088058499988
 30
0.0
 42
0.23346482
  0
VERTEX
  5
510
  8
CYAN
 10
250.99226150999999
 20
402.12723482500002
 30
0.0
 42
0.04413355
  0
VERTEX
  5
511
  8
CYAN
 10
263.69968311999997
 20
385.60778852499999
 30
0.0
 42
-0.03588286
  0
VERTEX
  5
512
  8
CYAN
 10
271.43472315000002
 20
375.85271848000002
 30
0.0
  0
SEQEND
  5
513
  8
CYAN
  0
POLYLINE
  5
115
  8
CYAN
 66
     1
 10
0.0
 20
0.0
 30
0.0
 70
     1
  0
VERTEX
  5
514
  8
CYAN
 10
242.08879253000001
 20
335.96671113999997
 30
0.0
 42
0.31787391
  0
VERTEX
  5
515
  8
CYAN
 10
264.05283522500002
 20
305.98914275999999
 30
0.0
 42
0.24610557
  0
VERTEX
  5
516
  8
CYAN
 10
266.83266083000001
 20
306.46680551999998
 30
0.0
 42
0.24610557
  0
VERTEX
  5
517
  8
CYAN
 10
268.022264845
 20
309.02423282000001
 30
0.0
 42
0.17348791
  0
VERTEX
  5
518
  8
CYAN
 10
265.41902935500002
 20
318.98110407000001
 30
0.0
 42
-0.12555404
  0
VERTEX
  5
519
  8
CYAN
 10
254.247314875
 20
336.77593395500003
 30
0.0
 42
0.17521599
  0
VERTEX
  5
51A
  8
CYAN
 10
245.62636757999999
 20
341.66355904
 30
0.0
 42
0.36267579
  0
VERTEX
  5
51B
  8
CYAN
 10
242.93837558499999
 20
340.11574382999999
 30
0.0
 42
0.07664491
  0
VERTEX
  5
51C
  8
CYAN
 10
242.08879253000001
 20
335.96671113999997
 30
0.0
  0
SEQEND
  5
51D
  8
CYAN
  0
POLYLINE
  5
120
  8
CYAN
 66
     1
 10
0.0
 20
0.0
 30
0.0
 70
     1
  0
VERTEX
  5
51E
  8
CYAN
 10
287.02991994500002
 20
315.26594396500002
 30
0.0
 42
0.09851933
  0
VERTEX
  5
51F
  8
CYAN
 10
245.303485655
 20
389.85973982500002
 30
0.0
 42
-0.4080058700000001
  0
VERTEX
  5
520
  8
CYAN
 10
245.541564225
 20
393.37897290000001
 30
0.0
 42
-0.4080058700000001
  0
VERTEX
  5
521
  8
CYAN
 10
249.06506003999999
 20
393.21569379499999
 30
0.0
 42
-0.1326822
  0
VERTEX
  5
522
  8
CYAN
 10
289.84706470999998
 20
316.04086057500001
 30
0.0
 42
-0.4000659800000001
  0
VERTEX
  5
523
  8
CYAN
 10
288.80758429999997
 20
314.31159917000002
 30
0.0
 42
-0.4000659800000001
  0
VERTEX
  5
524
  8
CYAN
 10
287.02991994500002
 20
315.26594396500002
 30
0.0
  0
SEQEND
  5
525
  8
CYAN
  0
POLYLINE
  5
129
  8
CYAN
 66
     1
 10
0.0
 20
0.0
 30
0.0
 70
     1
  0
VERTEX
  5
526
  8
CYAN
 10
252.72976984499999
 20
344.51097398500002
 30
0.0
 42
-0.01547197
  0
VERTEX
  5
527
  8
CYAN
 10
258.23894263
 20
340.69087725000003
 30
0.0
 42
0.33827317
  0
VERTEX
  5
528
  8
CYAN
 10
264.75900961000002
 20
340.81507857000003
 30
0.0
 42
0.33827317
  0
VERTEX
  5
529
  8
CYAN
 10
266.35336891499998
 20
347.13842561500002
 30
0.0
 42
0.01460392
  0
VERTEX
  5
52A
  8
CYAN
 10
259.64549699999998
 20
358.93572381500002
 30
0.0
 42
0.10265901
  0
VERTEX
  5
52B
  8
CYAN
 10
248.407188125
 20
370.99738158999997
 30
0.0
 42
0.26157763
  0
VERTEX
  5
52C
  8
CYAN
 10
245.991321365
 20
371.25912918500001
 30
0.0
 42
0.26157763
  0
VERTEX
  5
52D
  8
CYAN
 10
244.51040694
 20
369.33252168000001
 30
0.0
 42
0.09580498
  0
VERTEX
  5
52E
  8
CYAN
 10
245.09764842999999
 20
355.32751834499999
 30
0.0
 42
0.1928731
  0
VERTEX
  5
52F
  8
CYAN
 10
252.72976984499999
 20
344.51097398500002
 30
0.0
  0
SEQEND
  5
530
  8
CYAN
  0
POLYLINE
  5
135
  8
CYAN
 66
     1
 10
0.0
 20
0.0
 30
0.0
 70
     1
  0
VERTEX
  5
531
  8
CYAN
 10
296.12510006500003
 20
356.009606405
 30
0.0
 42
0.37940013
  0
VERTEX
  5
532
  8
CYAN
 10
297.549293675
 20
355.04090221500002
 30
0.0
 42
0.37940013
  0
VERTEX
  5
533
  8
CYAN
 10
298.68192127999998
 20
356.33854236000002
 30
0.0
 42
0.08897169
  0
VERTEX
  5
534
  8
CYAN
 10
284.24909939999998
 20
421.87953635499991
 30
0.0
 42
0.39704248
  0
VERTEX
  5
535
  8
CYAN
 10
281.68128874000001
 20
423.03291764999989
 30
0.0
 42
0.39704248
  0
VERTEX
  5
536
  8
CYAN
 10
280.37855237000002
 20
420.53755837
 30
0.0
 42
-0.00755847
  0
VERTEX
  5
537
  8
CYAN
 10
288.73715810499999
 20
388.38457304999997
 30
0.0
 42
-0.00755517
  0
VERTEX
  5
538
  8
CYAN
 10
296.12510006500003
 20
356.009606405
 30
0.0
  0
SEQEND
  5
539
  8
CYAN
  0
POLYLINE
  5
13F
  8
CYAN
 66
     1
 10
0.0
 20
0.0
 30
0.0
 70
     1
  0
VERTEX
  5
53A
  8
CYAN
 10
295.39659773
 20
320.22016344000002
 30
0.0
 42
0.03339495
  0
VERTEX
  5
53B
  8
CYAN
 10
297.20675450499999
 20
336.82638425499999
 30
0.0
 42
-0.37032058
  0
VERTEX
  5
53C
  8
CYAN
 10
298.74107885000001
 20
338.47283033000002
 30
0.0
 42
-0.37032058
  0
VERTEX
  5
53D
  8
CYAN
 10
300.60105069999997
 20
337.20577051499998
 30
0.0
 42
-0.04020562
  0
VERTEX
  5
53E
  8
CYAN
 10
301.14793195499999
 20
318.50283522500001
 30
0.0
 42
-0.04015744
  0
VERTEX
  5
53F
  8
CYAN
 10
298.70613742500001
 20
299.97546698000002
 30
0.0
 42
-0.34498474
  0
VERTEX
  5
540
  8
CYAN
 10
297.62240659000003
 20
299.04368872499998
 30
0.0
 42
-0.34498474
  0
VERTEX
  5
541
  8
CYAN
 10
296.45807205
 20
299.872548365
 30
0.0
 42
-0.11481731
  0
VERTEX
  5
542
  8
CYAN
 10
295.39659773
 20
320.22016344000002
 30
0.0
  0
SEQEND
  5
543
  8
CYAN
  0
POLYLINE
  5
14A
  8
CYAN
 66
     1
 10
0.0
 20
0.0
 30
0.0
 70
     1
  0
VERTEX
  5
544
  8
CYAN
 10
23.20310207
 20
310.51352568499999
 30
0.0
 42
-0.17851858
  0
VERTEX
  5
545
  8
CYAN
 10
42.935223485000002
 20
297.28949299499999
 30
0.0
 42
-0.05882864
  0
VERTEX
  5
546
  8
CYAN
 10
50.942695129999997
 20
284.06949632999999
 30
0.0
 42
0.39582796
  0
VERTEX
  5
547
  8
CYAN
 10
59.09949966500001
 20
281.08283856000003
 30
0.0
 42
-0.00624753
  0
VERTEX
  5
548
  8
CYAN
 10
63.238442294999999
 20
282.88694129499999
 30
0.0
  0
VERTEX
  5
549
  8
CYAN
 10
64.194979985000003
 20
283.26027351499999
 30
0.0
  0
VERTEX
  5
54A
  8
CYAN
 10
53.507588390000002
 20
300.37906937999998
 30
0.0
  0
VERTEX
  5
54B
  8
CYAN
 10
56.086607739999998
 20
301.99751500999997
 30
0.0
  0
VERTEX
  5
54C
  8
CYAN
 10
66.979836559999995
 20
284.50538692499998
 30
0.0
 42
0.22281783
  0
VERTEX
  5
54D
  8
CYAN
 10
70.541965974999997
 20
286.00945689000002
 30
0.0
 42
0.22281783
  0
VERTEX
  5
54E
  8
CYAN
 10
71.663642429999996
 20
289.70983989500002
 30
0.0
 42
0.04096595
  0
VERTEX
  5
54F
  8
CYAN
 10
71.833155434999995
 20
349.51564376499999
 30
0.0
 42
0.19156752
  0
VERTEX
  5
550
  8
CYAN
 10
49.211240824999997
 20
437.06911273999992
 30
0.0
 42
0.39075351
  0
VERTEX
  5
551
  8
CYAN
 10
17.819046029999999
 20
450.64226150999991
 30
0.0
 42
0.23183699
  0
VERTEX
  5
552
  8
CYAN
 10
5.2569212800000003
 20
435.57780186999992
 30
0.0
 42
0.07592106
  0
VERTEX
  5
553
  8
CYAN
 10
3.033072049999999
 20
362.582271515
 30
0.0
 42
0.02785853
  0
VERTEX
  5
554
  8
CYAN
 10
0.0
 20
337.88785856999999
 30
0.0
 42
0.15559365
  0
VERTEX
  5
555
  8
CYAN
 10
11.77913609
 20
316.25275183500003
 30
0.0
 42
0.18791782
  0
VERTEX
  5
556
  8
CYAN
 10
23.20310207
 20
310.51352568499999
 30
0.0
  0
SEQEND
  5
557
  8
CYAN
  0
POLYLINE
  5
15F
  8
CYAN
 66
     1
 10
0.0
 20
0.0
 30
0.0
 70
     1
  0
VERTEX
  5
558
  8
CYAN
 10
51.065793865000003
 20
350.90201801000001
 30
0.0
 42
0.38549323
  0
VERTEX
  5
559
  8
CYAN
 10
53.068458024999991
 20
349.48148678000001
 30
0.0
 42
0.38549323
  0
VERTEX
  5
55A
  8
CYAN
 10
54.68005337000001
 20
351.33387257999999
 30
0.0
 42
0.06180758
  0
VERTEX
  5
55B
  8
CYAN
 10
36.144613075000002
 20
433.73333889000003
 30
0.0
 42
0.09408689
  0
VERTEX
  5
55C
  8
CYAN
 10
30.102685125000001
 20
443.20992327999988
 30
0.0
 42
0.37180676
  0
VERTEX
  5
55D
  8
CYAN
 10
24.908322214999998
 20
443.76084056000002
 30
0.0
 42
0.37493687
  0
VERTEX
  5
55E
  8
CYAN
 10
23.632938625000001
 20
438.66132421499998
 30
0.0
 42
-0.08319278
  0
VERTEX
  5
55F
  8
CYAN
 10
51.065793865000003
 20
350.90201801000001
 30
0.0
  0
SEQEND
  5
560
  8
CYAN
  0
POLYLINE
  5
169
  8
CYAN
 66
     1
 10
0.0
 20
0.0
 30
0.0
 70
     1
  0
VERTEX
  5
561
  8
CYAN
 10
14.557938625
 20
411.79351234000001
 30
0.0
 42
0.01891779
  0
VERTEX
  5
562
  8
CYAN
 10
15.772781855
 20
409.69679786500001
 30
0.0
 42
0.04413606
  0
VERTEX
  5
563
  8
CYAN
 10
28.451951300000001
 20
393.15717145000002
 30
0.0
 42
-0.03588288
  0
VERTEX
  5
564
  8
CYAN
 10
36.195063374999997
 20
383.41017345
 30
0.0
 42
0.36254478
  0
VERTEX
  5
565
  8
CYAN
 10
37.629552439999998
 20
383.00367499499998
 30
0.0
 42
0.36254478
  0
VERTEX
  5
566
  8
CYAN
 10
38.285723814999997
 20
384.34249499499998
 30
0.0
 42
0.09075393
  0
VERTEX
  5
567
  8
CYAN
 10
14.785973985
 20
438.15682121499992
 30
0.0
 42
0.2800927899999999
  0
VERTEX
  5
568
  8
CYAN
 10
13.68415525
 20
438.65385811499988
 30
0.0
 42
0.2800927899999999
  0
VERTEX
  5
569
  8
CYAN
 10
12.735673784999999
 20
437.90456971499992
 30
0.0
 42
0.2135659
  0
VERTEX
  5
56A
  8
CYAN
 10
14.557938625
 20
411.79351234000001
 30
0.0
  0
SEQEND
  5
56B
  8
CYAN
  0
POLYLINE
  5
175
  8
CYAN
 66
     1
 10
0.0
 20
0.0
 30
0.0
 70
     1
  0
VERTEX
  5
56C
  8
CYAN
 10
13.016177450000001
 20
325.07146431000001
 30
0.0
 42
-0.18998182
  0
VERTEX
  5
56D
  8
CYAN
 10
6.8007004650000002
 20
343.55040026500001
 30
0.0
 42
-0.07659866
  0
VERTEX
  5
56E
  8
CYAN
 10
7.656337559999999
 20
347.69539693000002
 30
0.0
 42
-0.35853289
  0
VERTEX
  5
56F
  8
CYAN
 10
10.338275514999999
 20
349.23715810499999
 30
0.0
 42
-0.17550706
  0
VERTEX
  5
570
  8
CYAN
 10
18.973348900000001
 20
344.35558706
 30
0.0
 42
0.12562077
  0
VERTEX
  5
571
  8
CYAN
 10
30.128919280000002
 20
326.53855904
 30
0.0
 42
-0.17371245
  0
VERTEX
  5
572
  8
CYAN
 10
32.707938624999997
 20
316.57966978000002
 30
0.0
 42
-0.24914245
  0
VERTEX
  5
573
  8
CYAN
 10
31.528900749999998
 20
314.00873153999999
 30
0.0
 42
-0.24914245
  0
VERTEX
  5
574
  8
CYAN
 10
28.738509005000001
 20
313.54659772999997
 30
0.0
 42
-0.15508428
  0
VERTEX
  5
575
  8
CYAN
 10
13.016177450000001
 20
325.07146431000001
 30
0.0
  0
SEQEND
  5
576
  8
CYAN
  0
POLYLINE
  5
181
  8
CYAN
 66
     1
 10
0.0
 20
0.0
 30
0.0
 70
     1
  0
VERTEX
  5
577
  8
CYAN
 10
51.739809874999999
 20
322.79918278999997
 30
0.0
 42
0.40088627
  0
VERTEX
  5
578
  8
CYAN
 10
53.519439335000001
 20
321.844016125
 30
0.0
 42
0.40088627
  0
VERTEX
  5
579
  8
CYAN
 10
54.554936625000003
 20
323.57813542500003
 30
0.0
 42
0.13323644
  0
VERTEX
  5
57A
  8
CYAN
 10
13.819346230000001
 20
400.79332888499999
 30
0.0
 42
0.40758014
  0
VERTEX
  5
57B
  8
CYAN
 10
10.303224849999999
 20
400.95497518500002
 30
0.0
 42
0.40758014
  0
VERTEX
  5
57C
  8
CYAN
 10
10.061807870000001
 20
397.44342895
 30
0.0
 42
-0.09024156
  0
VERTEX
  5
57D
  8
CYAN
 10
51.739809874999999
 20
322.79918278999997
 30
0.0
  0
SEQEND
  5
57E
  8
CYAN
  0
POLYLINE
  5
18A
  8
CYAN
 66
     1
 10
0.0
 20
0.0
 30
0.0
 70
     1
  0
VERTEX
  5
57F
  8
CYAN
 10
17.461857904999999
 20
352.06439293
 30
0.0
 42
-0.19341008
  0
VERTEX
  5
580
  8
CYAN
 10
9.8277184799999997
 20
362.90918945999999
 30
0.0
 42
-0.09587046
  0
VERTEX
  5
581
  8
CYAN
 10
9.2505670450000004
 20
376.91419279500002
 30
0.0
 42
-0.25835964
  0
VERTEX
  5
582
  8
CYAN
 10
10.755304625000001
 20
378.82044817000002
 30
0.0
 42
-0.25835964
  0
VERTEX
  5
583
  8
CYAN
 10
13.169546365
 20
378.55685456999998
 30
0.0
 42
-0.10246886
  0
VERTEX
  5
584
  8
CYAN
 10
24.379603070000002
 20
366.51739493000002
 30
0.0
 42
-0.01462409
  0
VERTEX
  5
585
  8
CYAN
 10
31.069312875000001
 20
354.68780853999999
 30
0.0
 42
-0.33843341
  0
VERTEX
  5
586
  8
CYAN
 10
29.470547509999999
 20
348.36611579499998
 30
0.0
 42
-0.33843341
  0
VERTEX
  5
587
  8
CYAN
 10
22.950850565
 20
348.25035023499998
 30
0.0
 42
0.01542708
  0
VERTEX
  5
588
  8
CYAN
 10
17.461857904999999
 20
352.06439293
 30
0.0
  0
SEQEND
  5
589
  8
CYAN
  0
POLYLINE
  5
196
  8
CYAN
 66
     1
 10
0.0
 20
0.0
 30
0.0
 70
     1
  0
VERTEX
  5
58A
  8
CYAN
 10
60.859206135000001
 20
363.54082721999998
 30
0.0
 42
0.41424299
  0
VERTEX
  5
58B
  8
CYAN
 10
62.303110355000001
 20
362.42776513500002
 30
0.0
 42
0.41424299
  0
VERTEX
  5
58C
  8
CYAN
 10
63.41602735
 20
363.87178118499997
 30
0.0
 42
0.08895407
  0
VERTEX
  5
58D
  8
CYAN
 10
49.035673785
 20
429.41075717000001
 30
0.0
 42
0.39605586
  0
VERTEX
  5
58E
  8
CYAN
 10
46.475524944999997
 20
430.56984098999988
 30
0.0
 42
0.39605586
  0
VERTEX
  5
58F
  8
CYAN
 10
45.159072715000001
 20
428.08694129499992
 30
0.0
 42
-0.01511587
  0
VERTEX
  5
590
  8
CYAN
 10
60.859206135000001
 20
363.54082721999998
 30
0.0
  0
SEQEND
  5
591
  8
CYAN
  0
POLYLINE
  5
19F
  8
CYAN
 66
     1
 10
0.0
 20
0.0
 30
0.0
 70
     1
  0
VERTEX
  5
592
  8
CYAN
 10
63.385757169999998
 20
307.48247164999998
 30
0.0
 42
0.08053661
  0
VERTEX
  5
593
  8
CYAN
 10
65.300850565000005
 20
344.73699133000002
 30
0.0
 42
0.36408302
  0
VERTEX
  5
594
  8
CYAN
 10
63.450358665000003
 20
345.96872471
 30
0.0
 42
0.36408302
  0
VERTEX
  5
595
  8
CYAN
 10
61.916644429999998
 20
344.35962308000001
 30
0.0
 42
-0.03340034
  0
VERTEX
  5
596
  8
CYAN
 10
60.080253499999998
 20
327.75340226999998
 30
0.0
 42
0.11480288
  0
VERTEX
  5
597
  8
CYAN
 10
61.13365576999999
 20
307.40376917999998
 30
0.0
 42
0.34603708
  0
VERTEX
  5
598
  8
CYAN
 10
62.290645085000001
 20
306.557800095
 30
0.0
 42
0.34603708
  0
VERTEX
  5
599
  8
CYAN
 10
63.385757169999998
 20
307.48247164999998
 30
0.0
  0
SEQEND
  5
59A
  8
CYAN
  0
POLYLINE
  5
1A9
  8
CYAN
 66
     1
 10
0.0
 20
0.0
 30
0.0
 70
     1
  0
VERTEX
  5
59B
  8
CYAN
 10
6.4959806550000003
 20
59.553552369999998
 30
0.0
  0
VERTEX
  5
59C
  8
CYAN
 10
19.891544365000001
 20
64.128385589999993
 30
0.0
  0
VERTEX
  5
59D
  8
CYAN
 10
18.906754504999999
 20
67.010106739999983
 30
0.0
  0
VERTEX
  5
59E
  8
CYAN
 10
5.4970647100000001
 20
62.427201469999993
 30
0.0
 42
-0.22938868
  0
VERTEX
  5
59F
  8
CYAN
 10
4.9226662550000002
 20
67.271051639999996
 30
0.0
 42
-0.22938868
  0
VERTEX
  5
5A0
  8
CYAN
 10
8.3666777850000003
 20
70.725266844999993
 30
0.0
 42
-0.0553845
  0
VERTEX
  5
5A1
  8
CYAN
 10
18.476917945
 20
74.718912610000004
 30
0.0
 42
0.21979875
  0
VERTEX
  5
5A2
  8
CYAN
 10
27.247198130000001
 20
92.336157439999994
 30
0.0
  0
VERTEX
  5
5A3
  8
CYAN
 10
27.212891930000001
 20
93.092911939999993
 30
0.0
 42
0.21162992
  0
VERTEX
  5
5A4
  8
CYAN
 10
18.476917945
 20
109.97761841000001
 30
0.0
 42
-0.0553845
  0
VERTEX
  5
5A5
  8
CYAN
 10
8.3666777850000003
 20
113.971264175
 30
0.0
 42
-0.2298108
  0
VERTEX
  5
5A6
  8
CYAN
 10
4.9265695899999988
 20
117.422960045
 30
0.0
 42
-0.2298108
  0
VERTEX
  5
5A7
  8
CYAN
 10
5.5091727800000001
 20
122.261257505
 30
0.0
  0
VERTEX
  5
5A8
  8
CYAN
 10
18.906754504999999
 20
117.686424285
 30
0.0
  0
VERTEX
  5
5A9
  8
CYAN
 10
19.891544365000001
 20
120.56814543
 30
0.0
  0
VERTEX
  5
5AA
  8
CYAN
 10
6.483872579999999
 20
125.14499666499999
 30
0.0
 42
-0.22913862
  0
VERTEX
  5
5AB
  8
CYAN
 10
8.9936174149999992
 20
129.32086841500001
 30
0.0
 42
-0.22913862
  0
VERTEX
  5
5AC
  8
CYAN
 10
13.825400265000001
 20
129.94584723
 30
0.0
  0
VERTEX
  5
5AD
  8
CYAN
 10
28.205753834999999
 20
125.02795197
 30
0.0
 42
0.14457
  0
VERTEX
  5
5AE
  8
CYAN
 10
38.368462309999998
 20
126.281137425
 30
0.0
  0
VERTEX
  5
5AF
  8
CYAN
 10
47.390993995000002
 20
117.837775185
 30
0.0
  0
VERTEX
  5
5B0
  8
CYAN
 10
49.463492330000001
 20
120.06364243
 30
0.0
  0
VERTEX
  5
5B1
  8
CYAN
 10
40.44096064
 20
128.50498665999999
 30
0.0
  0
VERTEX
  5
5B2
  8
CYAN
 10
43.70206804499999
 20
131.96789526500001
 30
0.0
 42
-0.20451185
  0
VERTEX
  5
5B3
  8
CYAN
 10
45.510537810000002
 20
132.76971285499999
 30
0.0
 42
-0.20451185
  0
VERTEX
  5
5B4
  8
CYAN
 10
47.340543694999987
 20
132.018345565
 30
0.0
  0
VERTEX
  5
5B5
  8
CYAN
 10
58.286240825
 20
120.87084723
 30
0.0
 42
0.4157080500000001
  0
VERTEX
  5
5B6
  8
CYAN
 10
77.721714474999985
 20
120.745730485
 30
0.0
  0
VERTEX
  5
5B7
  8
CYAN
 10
82.120980654999997
 20
125.01786190999999
 30
0.0
 42
-0.34735841
  0
VERTEX
  5
5B8
  8
CYAN
 10
91.976951299999996
 20
126.281137425
 30
0.0
  0
VERTEX
  5
5B9
  8
CYAN
 10
84.875567044999997
 20
115.690610405
 30
0.0
  0
VERTEX
  5
5BA
  8
CYAN
 10
87.402118079999994
 20
114.021714475
 30
0.0
  0
VERTEX
  5
5BB
  8
CYAN
 10
94.505520344999994
 20
124.61224149500001
 30
0.0
 42
-0.34763047
  0
VERTEX
  5
5BC
  8
CYAN
 10
97.084539695000004
 20
115.00852235000001
 30
0.0
  0
VERTEX
  5
5BD
  8
CYAN
 10
94.784006004999995
 20
109.295530355
 30
0.0
 42
0.16903174
  0
VERTEX
  5
5BE
  8
CYAN
 10
97.716177450000004
 20
93.851684454999983
 30
0.0
  0
VERTEX
  5
5BF
  8
CYAN
 10
61.14172782
 20
93.851684454999983
 30
0.0
  0
VERTEX
  5
5C0
  8
CYAN
 10
61.14172782
 20
90.81861241
 30
0.0
  0
VERTEX
  5
5C1
  8
CYAN
 10
97.702051370000007
 20
90.826684455000006
 30
0.0
 42
0.16877805
  0
VERTEX
  5
5C2
  8
CYAN
 10
94.784006004999995
 20
75.401000664999984
 30
0.0
  0
VERTEX
  5
5C3
  8
CYAN
 10
97.072431620000003
 20
69.683972650000001
 30
0.0
 42
-0.31285202
  0
VERTEX
  5
5C4
  8
CYAN
 10
95.280436960000003
 20
60.740143430000003
 30
0.0
  0
VERTEX
  5
5C5
  8
CYAN
 10
94.465160104999995
 20
60.142811874999992
 30
0.0
  0
VERTEX
  5
5C6
  8
CYAN
 10
87.402118079999994
 20
70.674816544999985
 30
0.0
  0
VERTEX
  5
5C7
  8
CYAN
 10
84.875567044999997
 20
69.005920614999994
 30
0.0
  0
VERTEX
  5
5C8
  8
CYAN
 10
91.976951299999996
 20
58.415393594999998
 30
0.0
 42
-0.34674099
  0
VERTEX
  5
5C9
  8
CYAN
 10
82.120980654999997
 20
59.678669114999991
 30
0.0
  0
VERTEX
  5
5CA
  8
CYAN
 10
77.721714474999985
 20
63.950800534999999
 30
0.0
 42
0.41573885
  0
VERTEX
  5
5CB
  8
CYAN
 10
58.286240825
 20
63.823665775000002
 30
0.0
  0
VERTEX
  5
5CC
  8
CYAN
 10
47.340543694999987
 20
52.678185454999991
 30
0.0
 42
-0.20436129
  0
VERTEX
  5
5CD
  8
CYAN
 10
45.510546429999991
 20
51.927439724999999
 30
0.0
 42
-0.20436129
  0
VERTEX
  5
5CE
  8
CYAN
 10
43.70206804499999
 20
52.728635754999999
 30
0.0
  0
VERTEX
  5
5CF
  8
CYAN
 10
40.44096064
 20
56.191544364999999
 30
0.0
  0
VERTEX
  5
5D0
  8
CYAN
 10
49.463492330000001
 20
64.632888589999993
 30
0.0
  0
VERTEX
  5
5D1
  8
CYAN
 10
47.390993995000002
 20
66.856737824999996
 30
0.0
  0
VERTEX
  5
5D2
  8
CYAN
 10
38.36240827000001
 20
58.40126750999999
 30
0.0
 42
0.14457563
  0
VERTEX
  5
5D3
  8
CYAN
 10
28.20777185
 20
59.654452970000001
 30
0.0
  0
VERTEX
  5
5D4
  8
CYAN
 10
13.821364245
 20
54.760773849999993
 30
0.0
 42
-0.22914515
  0
VERTEX
  5
5D5
  8
CYAN
 10
8.9995688900000008
 20
55.385564825000003
 30
0.0
 42
-0.22914515
  0
VERTEX
  5
5D6
  8
CYAN
 10
6.4959806550000003
 20
59.553552369999998
 30
0.0
  0
SEQEND
  5
5D7
  8
CYAN
  0
POLYLINE
  5
1E7
  8
CYAN
 66
     1
 10
0.0
 20
0.0
 30
0.0
 70
     1
  0
VERTEX
  5
5D8
  8
CYAN
 10
311.55280187
 20
235.340560375
 30
0.0
 42
0.19751874
  0
VERTEX
  5
5D9
  8
CYAN
 10
384.07409940000002
 20
213.61867912
 30
0.0
 42
0.22818605
  0
VERTEX
  5
5DA
  8
CYAN
 10
391.099812525
 20
217.90353358499999
 30
0.0
 42
0.22818605
  0
VERTEX
  5
5DB
  8
CYAN
 10
392.13202135
 20
226.067795195
 30
0.0
 42
-0.07364012
  0
VERTEX
  5
5DC
  8
CYAN
 10
388.41887925499998
 20
247.04704803000001
 30
0.0
  0
VERTEX
  5
5DD
  8
CYAN
 10
359.09918278999999
 20
247.04704803000001
 30
0.0
  0
VERTEX
  5
5DE
  8
CYAN
 10
359.09918278999999
 20
250.08012008
 30
0.0
  0
VERTEX
  5
5DF
  8
CYAN
 10
388.41887925499998
 20
250.08012008
 30
0.0
 42
-0.00734718
  0
VERTEX
  5
5E0
  8
CYAN
 10
388.44107738500003
 20
251.089126085
 30
0.0
 42
-0.07427623
  0
VERTEX
  5
5E1
  8
CYAN
 10
392.2753002
 20
271.610290195
 30
0.0
 42
0.22307879
  0
VERTEX
  5
5E2
  8
CYAN
 10
391.41492531
 20
279.61841797
 30
0.0
 42
0.22307879
  0
VERTEX
  5
5E3
  8
CYAN
 10
384.70371914499998
 20
284.07151434500003
 30
0.0
 42
0.24449222
  0
VERTEX
  5
5E4
  8
CYAN
 10
310.94941627999998
 20
258.62236490999999
 30
0.0
 42
0.1921427
  0
VERTEX
  5
5E5
  8
CYAN
 10
309.20585390500003
 20
254.275567045
 30
0.0
  0
VERTEX
  5
5E6
  8
CYAN
 10
309.21594396500001
 20
240.24836557500001
 30
0.0
 42
0.22623438
  0
VERTEX
  5
5E7
  8
CYAN
 10
311.55280187
 20
235.340560375
 30
0.0
  0
SEQEND
  5
5E8
  8
CYAN
  0
POLYLINE
  5
1F9
  8
CYAN
 66
     1
 10
0.0
 20
0.0
 30
0.0
 70
     1
  0
VERTEX
  5
5E9
  8
CYAN
 10
124.00280187
 20
157.49574716500001
 30
0.0
 42
-0.26511558
  0
VERTEX
  5
5EA
  8
CYAN
 10
128.95538514
 20
156.65235806000001
 30
0.0
 42
-0.26511558
  0
VERTEX
  5
5EB
  8
CYAN
 10
130.751034025
 20
151.96034022500001
 30
0.0
 42
0.21500641
  0
VERTEX
  5
5EC
  8
CYAN
 10
132.44665080999999
 20
145.77366257
 30
0.0
 42
0.21500641
  0
VERTEX
  5
5ED
  8
CYAN
 10
138.20557038000001
 20
142.9478986
 30
0.0
  0
VERTEX
  5
5EE
  8
CYAN
 10
139.54754836500001
 20
162.72845229999999
 30
0.0
  0
VERTEX
  5
5EF
  8
CYAN
 10
142.55438626
 20
162.37328219
 30
0.0
  0
VERTEX
  5
5F0
  8
CYAN
 10
141.264876585
 20
142.93780853999999
 30
0.0
 42
0.2163565
  0
VERTEX
  5
5F1
  8
CYAN
 10
148.69721480999999
 20
147.68820880499999
 30
0.0
 42
0.19287232
  0
VERTEX
  5
5F2
  8
CYAN
 10
152.66462641999999
 20
177.53864243000001
 30
0.0
 42
-0.15252575
  0
VERTEX
  5
5F3
  8
CYAN
 10
150.46297531499999
 20
189.54581387499999
 30
0.0
  0
VERTEX
  5
5F4
  8
CYAN
 10
150.46499333
 20
190.30458639
 30
0.0
  0
VERTEX
  5
5F5
  8
CYAN
 10
150.46499333
 20
225.00632088
 30
0.0
 42
0.20316808
  0
VERTEX
  5
5F6
  8
CYAN
 10
141.89651434500001
 20
238.85795530499999
 30
0.0
 42
0.09738112
  0
VERTEX
  5
5F7
  8
CYAN
 10
133.98590727000001
 20
240.57326551
 30
0.0
  0
VERTEX
  5
5F8
  8
CYAN
 10
128.551400935
 20
203.59924950000001
 30
0.0
  0
VERTEX
  5
5F9
  8
CYAN
 10
125.54456304
 20
204.02908605499999
 30
0.0
  0
VERTEX
  5
5FA
  8
CYAN
 10
130.926601065
 20
240.72865243499999
 30
0.0
  0
VERTEX
  5
5FB
  8
CYAN
 10
129.91154102499999
 20
240.75488659000001
 30
0.0
 42
0.05176089
  0
VERTEX
  5
5FC
  8
CYAN
 10
113.76542695000001
 20
239.39272848499999
 30
0.0
 42
0.22081156
  0
VERTEX
  5
5FD
  8
CYAN
 10
97.740393595000015
 20
224.55226818
 30
0.0
 42
0.13405998
  0
VERTEX
  5
5FE
  8
CYAN
 10
99.163092060000011
 20
162.87374916499999
 30
0.0
 42
0.39022496
  0
VERTEX
  5
5FF
  8
CYAN
 10
116.06394263
 20
154.72299866500001
 30
0.0
  0
VERTEX
  5
600
  8
CYAN
 10
124.00280187
 20
157.49574716500001
 30
0.0
  0
SEQEND
  5
601
  8
CYAN
  0
POLYLINE
  5
213
  8
CYAN
 66
     1
 10
0.0
 20
0.0
 30
0.0
 70
     1
  0
VERTEX
  5
602
  8
CYAN
 10
106.312908605
 20
103.12848565500001
 30
0.0
 42
0.00265956
  0
VERTEX
  5
603
  8
CYAN
 10
106.30887258
 20
67.665960639999994
 30
0.0
 42
0.20313683
  0
VERTEX
  5
604
  8
CYAN
 10
114.87735157
 20
53.816344229999999
 30
0.0
 42
0.09738328
  0
VERTEX
  5
605
  8
CYAN
 10
122.78795864
 20
52.096997999999999
 30
0.0
  0
VERTEX
  5
606
  8
CYAN
 10
128.22246497500001
 20
89.075050035000004
 30
0.0
  0
VERTEX
  5
607
  8
CYAN
 10
131.23132088
 20
88.645213475000006
 30
0.0
  0
VERTEX
  5
608
  8
CYAN
 10
125.847264845
 20
51.945647100000002
 30
0.0
 42
0.05500662
  0
VERTEX
  5
609
  8
CYAN
 10
143.00843896000001
 20
53.285607069999998
 30
0.0
 42
0.22074982
  0
VERTEX
  5
60A
  8
CYAN
 10
159.01732822
 20
68.128085389999995
 30
0.0
 42
0.05886859
  0
VERTEX
  5
60B
  8
CYAN
 10
162.3248499
 20
96.388325550000005
 30
0.0
  0
VERTEX
  5
60C
  8
CYAN
 10
162.318795865
 20
97.397331554999994
 30
0.0
 42
0.0678149
  0
VERTEX
  5
60D
  8
CYAN
 10
157.59261174
 20
129.79449632999999
 30
0.0
 42
0.39068273
  0
VERTEX
  5
60E
  8
CYAN
 10
140.70992328
 20
137.95735490499999
 30
0.0
  0
VERTEX
  5
60F
  8
CYAN
 10
132.7972982
 20
135.20276851
 30
0.0
 42
-0.26563084
  0
VERTEX
  5
610
  8
CYAN
 10
127.83094958
 20
136.01993769000001
 30
0.0
 42
-0.26563084
  0
VERTEX
  5
611
  8
CYAN
 10
126.01475984
 20
140.713959305
 30
0.0
 42
0.2149216
  0
VERTEX
  5
612
  8
CYAN
 10
124.318662355
 20
146.890019005
 30
0.0
 42
0.2149216
  0
VERTEX
  5
613
  8
CYAN
 10
118.56829553
 20
149.71025684
 30
0.0
  0
VERTEX
  5
614
  8
CYAN
 10
117.228335555
 20
129.94584723
 30
0.0
  0
VERTEX
  5
615
  8
CYAN
 10
114.219479655
 20
130.29899933499999
 30
0.0
  0
VERTEX
  5
616
  8
CYAN
 10
115.53522348
 20
149.736490995
 30
0.0
 42
0.21690454
  0
VERTEX
  5
617
  8
CYAN
 10
108.078669115
 20
144.984072715
 30
0.0
 42
0.19290453
  0
VERTEX
  5
618
  8
CYAN
 10
104.099149435
 20
115.13162108
 30
0.0
 42
-0.15258631
  0
VERTEX
  5
619
  8
CYAN
 10
106.312908605
 20
103.12848565500001
 30
0.0
  0
SEQEND
  5
61A
  8
CYAN
  0
POLYLINE
  5
22D
  8
CYAN
 66
     1
 10
0.0
 20
0.0
 30
0.0
 70
     1
  0
VERTEX
  5
61B
  8
CYAN
 10
293.499666445
 20
91.956771180000004
 30
0.0
 42
-0.17684919
  0
VERTEX
  5
61C
  8
CYAN
 10
287.853268845
 20
140.23569046
 30
0.0
 42
-0.36786433
  0
VERTEX
  5
61D
  8
CYAN
 10
291.18448314
 20
142.60915814500001
 30
0.0
 42
-0.36786433
  0
VERTEX
  5
61E
  8
CYAN
 10
294.06067378
 20
139.70091728
 30
0.0
  0
VERTEX
  5
61F
  8
CYAN
 10
295.16856237500002
 20
124.031054035
 30
0.0
  0
VERTEX
  5
620
  8
CYAN
 10
298.17540026500001
 20
124.232855235
 30
0.0
  0
VERTEX
  5
621
  8
CYAN
 10
296.00200133499999
 20
155.725950635
 30
0.0
 42
-0.25037606
  0
VERTEX
  5
622
  8
CYAN
 10
304.61750933500002
 20
157.84368756500001
 30
0.0
 42
-0.25037606
  0
VERTEX
  5
623
  8
CYAN
 10
311.16736157499997
 20
151.85943962499999
 30
0.0
  0
VERTEX
  5
624
  8
CYAN
 10
315.11055704
 20
140.68772515000001
 30
0.0
 42
0.21513708
  0
VERTEX
  5
625
  8
CYAN
 10
322.31889593
 20
133.15246830999999
 30
0.0
 42
0.01316576
  0
VERTEX
  5
626
  8
CYAN
 10
323.32588392500003
 20
132.77711808000001
 30
0.0
  0
VERTEX
  5
627
  8
CYAN
 10
323.249199465
 20
113.289176115
 30
0.0
  0
VERTEX
  5
628
  8
CYAN
 10
326.28227151499999
 20
113.289176115
 30
0.0
  0
VERTEX
  5
629
  8
CYAN
 10
326.23182121500002
 20
132.77711808000001
 30
0.0
 42
0.23713081
  0
VERTEX
  5
62A
  8
CYAN
 10
334.420913945
 20
140.68772515000001
 30
0.0
  0
VERTEX
  5
62B
  8
CYAN
 10
338.39034356000002
 20
151.85943962499999
 30
0.0
 42
-0.24996372
  0
VERTEX
  5
62C
  8
CYAN
 10
344.92900658000002
 20
157.82913145000001
 30
0.0
 42
-0.24996372
  0
VERTEX
  5
62D
  8
CYAN
 10
353.52946964500001
 20
155.725950635
 30
0.0
  0
VERTEX
  5
62E
  8
CYAN
 10
351.35607071499999
 20
124.232855235
 30
0.0
  0
VERTEX
  5
62F
  8
CYAN
 10
354.38914276000003
 20
124.031054035
 30
0.0
  0
VERTEX
  5
630
  8
CYAN
 10
355.47685123500003
 20
139.70293529
 30
0.0
 42
-0.36418091
  0
VERTEX
  5
631
  8
CYAN
 10
358.36275976000002
 20
142.57882429
 30
0.0
 42
-0.36418091
  0
VERTEX
  5
632
  8
CYAN
 10
361.69434623000001
 20
140.23367245
 30
0.0
 42
-0.17687821
  0
VERTEX
  5
633
  8
CYAN
 10
356.03180453499999
 20
91.956771180000004
 30
0.0
 42
-0.35987132
  0
VERTEX
  5
634
  8
CYAN
 10
333.91237491499999
 20
82.240043360000001
 30
0.0
 42
0.13990213
  0
VERTEX
  5
635
  8
CYAN
 10
315.641294195
 20
82.250133419999997
 30
0.0
 42
-0.36029651
  0
VERTEX
  5
636
  8
CYAN
 10
293.499666445
 20
91.956771180000004
 30
0.0
  0
SEQEND
  5
637
  8
CYAN
  0
POLYLINE
  5
24B
  8
CYAN
 66
     1
 10
0.0
 20
0.0
 30
0.0
 70
     1
  0
VERTEX
  5
638
  8
CYAN
 10
21.225450299999999
 20
140.931904605
 30
0.0
 42
-0.23427032
  0
VERTEX
  5
639
  8
CYAN
 10
4.6555537049999991
 20
181.53228819
 30
0.0
 42
-0.29643809
  0
VERTEX
  5
63A
  8
CYAN
 10
18.275116744999998
 20
202.638675785
 30
0.0
 42
-0.08574172
  0
VERTEX
  5
63B
  8
CYAN
 10
41.833388925000001
 20
205.907855235
 30
0.0
  0
VERTEX
  5
63C
  8
CYAN
 10
42.842394929999998
 20
205.89574716499999
 30
0.0
  0
VERTEX
  5
63D
  8
CYAN
 10
42.842394929999998
 20
183.124499665
 30
0.0
  0
VERTEX
  5
63E
  8
CYAN
 10
45.875466979999992
 20
183.124499665
 30
0.0
  0
VERTEX
  5
63F
  8
CYAN
 10
45.873448965000001
 20
205.86345897499999
 30
0.0
 42
-0.08930923
  0
VERTEX
  5
640
  8
CYAN
 10
70.410456969999998
 20
202.62051367500001
 30
0.0
 42
-0.2964164
  0
VERTEX
  5
641
  8
CYAN
 10
84.015893930000004
 20
181.53228819
 30
0.0
 42
-0.23436774
  0
VERTEX
  5
642
  8
CYAN
 10
67.468195464999994
 20
140.96015677
 30
0.0
 42
-0.34382123
  0
VERTEX
  5
643
  8
CYAN
 10
64.996923225000003
 20
140.78541293999999
 30
0.0
 42
-0.34382123
  0
VERTEX
  5
644
  8
CYAN
 10
64.225250165000006
 20
143.13960974
 30
0.0
  0
VERTEX
  5
645
  8
CYAN
 10
76.280853905000001
 20
177.05835557
 30
0.0
  0
VERTEX
  5
646
  8
CYAN
 10
73.425366909999994
 20
178.06937958500001
 30
0.0
  0
VERTEX
  5
647
  8
CYAN
 10
60.054019345
 20
140.459689795
 30
0.0
  0
VERTEX
  5
648
  8
CYAN
 10
52.092961975000001
 20
139.17219813
 30
0.0
  0
VERTEX
  5
649
  8
CYAN
 10
58.968328884999998
 20
171.09513008499999
 30
0.0
  0
VERTEX
  5
64A
  8
CYAN
 10
56.009923280000002
 20
171.72676784500001
 30
0.0
  0
VERTEX
  5
64B
  8
CYAN
 10
49.465510340000002
 20
141.45053368999999
 30
0.0
 42
-0.35311736
  0
VERTEX
  5
64C
  8
CYAN
 10
44.335334019999998
 20
137.30796402499999
 30
0.0
 42
-0.35311736
  0
VERTEX
  5
64D
  8
CYAN
 10
39.20190127
 20
141.44649766500001
 30
0.0
  0
VERTEX
  5
64E
  8
CYAN
 10
32.68170447
 20
171.72676784500001
 30
0.0
  0
VERTEX
  5
64F
  8
CYAN
 10
29.723298865
 20
171.09513008499999
 30
0.0
  0
VERTEX
  5
650
  8
CYAN
 10
36.598665775000001
 20
139.17219813
 30
0.0
  0
VERTEX
  5
651
  8
CYAN
 10
28.637608405000002
 20
140.459689795
 30
0.0
  0
VERTEX
  5
652
  8
CYAN
 10
15.266260839999999
 20
178.06937958500001
 30
0.0
  0
VERTEX
  5
653
  8
CYAN
 10
12.41077385
 20
177.05835557
 30
0.0
  0
VERTEX
  5
654
  8
CYAN
 10
24.466377585
 20
143.13960974
 30
0.0
 42
-0.33749961
  0
VERTEX
  5
655
  8
CYAN
 10
23.686794949999999
 20
140.8013377
 30
0.0
 42
-0.33749961
  0
VERTEX
  5
656
  8
CYAN
 10
21.225450299999999
 20
140.931904605
 30
0.0
  0
SEQEND
  5
657
  8
CYAN
  0
POLYLINE
  5
26C
  8
CYAN
 66
     1
 10
0.0
 20
0.0
 30
0.0
 70
     1
  0
VERTEX
  5
658
  8
CYAN
 10
190.50235157
 20
347.118245495
 30
0.0
 42
-0.18755345
  0
VERTEX
  5
659
  8
CYAN
 10
206.47693462500001
 20
346.50275183500003
 30
0.0
 42
0.09317286
  0
VERTEX
  5
65A
  8
CYAN
 10
209.88939293000001
 20
345.71976317500003
 30
0.0
  0
VERTEX
  5
65B
  8
CYAN
 10
214.877918615
 20
345.51594396500002
 30
0.0
 42
0.26533932
  0
VERTEX
  5
65C
  8
CYAN
 10
223.21836224
 20
349.86072381499997
 30
0.0
 42
0.19943659
  0
VERTEX
  5
65D
  8
CYAN
 10
231.102735155
 20
393.23587391500001
 30
0.0
 42
0.21200935
  0
VERTEX
  5
65E
  8
CYAN
 10
226.563361525
 20
399.45229687
 30
0.0
 42
0.21200935
  0
VERTEX
  5
65F
  8
CYAN
 10
218.907888595
 20
400.25451967999987
 30
0.0
 42
-0.06298175
  0
VERTEX
  5
660
  8
CYAN
 10
200.87896931500001
 20
396.833989325
 30
0.0
  0
VERTEX
  5
661
  8
CYAN
 10
199.86996331
 20
396.82591728
 30
0.0
  0
VERTEX
  5
662
  8
CYAN
 10
199.86996331
 20
375.00515343500001
 30
0.0
  0
VERTEX
  5
663
  8
CYAN
 10
196.84294529499999
 20
375.00515343500001
 30
0.0
  0
VERTEX
  5
664
  8
CYAN
 10
196.84294529499999
 20
396.833989325
 30
0.0
 42
-0.07394963
  0
VERTEX
  5
665
  8
CYAN
 10
176.62650099999999
 20
399.49978319000002
 30
0.0
 42
0.22460066
  0
VERTEX
  5
666
  8
CYAN
 10
168.61242609999999
 20
398.18131097999998
 30
0.0
 42
0.22460066
  0
VERTEX
  5
667
  8
CYAN
 10
164.54869913499999
 20
391.1492495
 30
0.0
 42
0.1450341
  0
VERTEX
  5
668
  8
CYAN
 10
172.84071047500001
 20
351.79599732999998
 30
0.0
 42
0.26523041
  0
VERTEX
  5
669
  8
CYAN
 10
180.82598399
 20
346.85186791000001
 30
0.0
  0
VERTEX
  5
66A
  8
CYAN
 10
187.05356904499999
 20
346.59961641000001
 30
0.0
 42
0.09498745
  0
VERTEX
  5
66B
  8
CYAN
 10
190.50235157
 20
347.118245495
 30
0.0
  0
SEQEND
  5
66C
  8
CYAN
  0
POLYLINE
  5
282
  8
CYAN
 66
     1
 10
0.0
 20
0.0
 30
0.0
 70
     1
  0
VERTEX
  5
66D
  8
CYAN
 10
4.67371581
 20
33.317378249999997
 30
0.0
 42
0.31201392
  0
VERTEX
  5
66E
  8
CYAN
 10
30.473154869999998
 20
1.8469479550000001
 30
0.0
 42
0.31201392
  0
VERTEX
  5
66F
  8
CYAN
 10
69.028118745
 20
14.866694465
 30
0.0
 42
0.18503482
  0
VERTEX
  5
670
  8
CYAN
 10
74.355670445000001
 20
35.135607069999999
 30
0.0
  0
VERTEX
  5
671
  8
CYAN
 10
74.226517680000001
 20
35.894379585000003
 30
0.0
  0
VERTEX
  5
672
  8
CYAN
 10
44.511290860000003
 20
35.894379585000003
 30
0.0
  0
VERTEX
  5
673
  8
CYAN
 10
44.511290860000003
 20
38.927451634999997
 30
0.0
  0
VERTEX
  5
674
  8
CYAN
 10
73.154953300000003
 20
38.927451634999997
 30
0.0
  0
VERTEX
  5
675
  8
CYAN
 10
73.154953300000003
 20
39.93645764
 30
0.0
 42
0.14575276
  0
VERTEX
  5
676
  8
CYAN
 10
70.745446964999999
 20
41.960523680000001
 30
0.0
 42
0.15806454
  0
VERTEX
  5
677
  8
CYAN
 10
11.571280854999999
 20
43.443762509999992
 30
0.0
 42
0.35385256
  0
VERTEX
  5
678
  8
CYAN
 10
4.67371581
 20
33.317378249999997
 30
0.0
  0
SEQEND
  5
679
  8
CYAN
  0
POLYLINE
  5
290
  8
CYAN
 66
     1
 10
0.0
 20
0.0
 30
0.0
 70
     1
  0
VERTEX
  5
67A
  8
CYAN
 10
83.559823214999994
 20
33.317378249999997
 30
0.0
 42
0.31189002
  0
VERTEX
  5
67B
  8
CYAN
 10
109.361331685
 20
1.858382435
 30
0.0
 42
0.31189002
  0
VERTEX
  5
67C
  8
CYAN
 10
147.91220813999999
 20
14.866694465
 30
0.0
 42
0.18503482
  0
VERTEX
  5
67D
  8
CYAN
 10
153.23975984
 20
35.135607069999999
 30
0.0
  0
VERTEX
  5
67E
  8
CYAN
 10
153.14289526499999
 20
35.894379585000003
 30
0.0
  0
VERTEX
  5
67F
  8
CYAN
 10
123.39538025500001
 20
35.894379585000003
 30
0.0
  0
VERTEX
  5
680
  8
CYAN
 10
123.39538025500001
 20
38.927451634999997
 30
0.0
  0
VERTEX
  5
681
  8
CYAN
 10
152.03904269500001
 20
38.927451634999997
 30
0.0
  0
VERTEX
  5
682
  8
CYAN
 10
152.03904269500001
 20
39.93645764
 30
0.0
 42
0.14562619
  0
VERTEX
  5
683
  8
CYAN
 10
149.63155437
 20
41.960523680000001
 30
0.0
 42
0.15806454
  0
VERTEX
  5
684
  8
CYAN
 10
90.457388260000002
 20
43.443762509999992
 30
0.0
 42
0.35316267
  0
VERTEX
  5
685
  8
CYAN
 10
83.559823214999994
 20
33.317378249999997
 30
0.0
  0
SEQEND
  5
686
  8
CYAN
  0
POLYLINE
  5
29E
  8
CYAN
 66
     1
 10
0.0
 20
0.0
 30
0.0
 70
     1
  0
VERTEX
  5
687
  8
CYAN
 10
322.98887591499999
 20
361.14746497499999
 30
0.0
 42
0.30504057
  0
VERTEX
  5
688
  8
CYAN
 10
327.91242632000001
 20
360.66700645999998
 30
0.0
 42
0.30504057
  0
VERTEX
  5
689
  8
CYAN
 10
330.21335890500001
 20
365.04626417499998
 30
0.0
 42
0.03997039
  0
VERTEX
  5
68A
  8
CYAN
 10
328.191310875
 20
375.98792528500002
 30
0.0
 42
0.03489365
  0
VERTEX
  5
68B
  8
CYAN
 10
328.00161774499998
 20
376.72853569
 30
0.0
 42
-0.23437744
  0
VERTEX
  5
68C
  8
CYAN
 10
330.15371198999998
 20
392.06690078000003
 30
0.0
 42
-0.23437744
  0
VERTEX
  5
68D
  8
CYAN
 10
343.66744496500002
 20
399.63498999500001
 30
0.0
  0
VERTEX
  5
68E
  8
CYAN
 10
343.66744496500002
 20
408.34674783000003
 30
0.0
  0
VERTEX
  5
68F
  8
CYAN
 10
346.69446297500002
 20
408.34674783000003
 30
0.0
  0
VERTEX
  5
690
  8
CYAN
 10
346.69446297500002
 20
399.63498999500001
 30
0.0
 42
-0.23437262
  0
VERTEX
  5
691
  8
CYAN
 10
360.20907461500002
 20
392.06731209499998
 30
0.0
 42
-0.23437262
  0
VERTEX
  5
692
  8
CYAN
 10
362.36230820499998
 20
376.72853569
 30
0.0
 42
0.0349061
  0
VERTEX
  5
693
  8
CYAN
 10
362.17261507500001
 20
375.98792528500002
 30
0.0
 42
0.03997153
  0
VERTEX
  5
694
  8
CYAN
 10
360.150567045
 20
365.04626417499998
 30
0.0
 42
0.30509532
  0
VERTEX
  5
695
  8
CYAN
 10
362.45121599999999
 20
360.666480885
 30
0.0
 42
0.30509532
  0
VERTEX
  5
696
  8
CYAN
 10
367.37505003500002
 20
361.14746497499999
 30
0.0
 42
0.3168249
  0
VERTEX
  5
697
  8
CYAN
 10
378.07784738499998
 20
399.91393407499999
 30
0.0
 42
0.3168249
  0
VERTEX
  5
698
  8
CYAN
 10
345.18095397000002
 20
423.04796530999988
 30
0.0
 42
0.31683105
  0
VERTEX
  5
699
  8
CYAN
 10
312.28455263500001
 20
399.91340870499999
 30
0.0
 42
0.31683105
  0
VERTEX
  5
69A
  8
CYAN
 10
322.98887591499999
 20
361.14746497499999
 30
0.0
  0
SEQEND
  5
69B
  8
CYAN
  0
POLYLINE
  5
2B4
  8
CYAN
 66
     1
 10
0.0
 20
0.0
 30
0.0
 70
     1
  0
VERTEX
  5
69C
  8
CYAN
 10
9.5028185450000002
 20
235.42128085499999
 30
0.0
 42
-0.26448973
  0
VERTEX
  5
69D
  8
CYAN
 10
4.3467978650000001
 20
244.39336223999999
 30
0.0
  0
VERTEX
  5
69E
  8
CYAN
 10
12.991961310000001
 20
243.40857238000001
 30
0.0
  0
VERTEX
  5
69F
  8
CYAN
 10
13.34511341
 20
246.415410275
 30
0.0
  0
VERTEX
  5
6A0
  8
CYAN
 10
4.3326717800000001
 20
247.4789026
 30
0.0
  0
VERTEX
  5
6A1
  8
CYAN
 10
4.3346897950000001
 20
248.457638425
 30
0.0
 42
-0.215549
  0
VERTEX
  5
6A2
  8
CYAN
 10
5.7514519899999987
 20
252.006240795
 30
0.0
 42
-0.215549
  0
VERTEX
  5
6A3
  8
CYAN
 10
9.3514676449999996
 20
253.28674115999999
 30
0.0
 42
0.04233126
  0
VERTEX
  5
6A4
  8
CYAN
 10
12.20897265
 20
252.65913942500001
 30
0.0
  0
VERTEX
  5
6A5
  8
CYAN
 10
12.939492995
 20
252.568328885
 30
0.0
 42
0.07313282
  0
VERTEX
  5
6A6
  8
CYAN
 10
17.97039693
 20
252.86094062500001
 30
0.0
 42
-0.34716246
  0
VERTEX
  5
6A7
  8
CYAN
 10
30.532521679999999
 20
247.80582054499999
 30
0.0
 42
0.05687603
  0
VERTEX
  5
6A8
  8
CYAN
 10
59.801767845000001
 20
229.07463308999999
 30
0.0
 42
0.21848633
  0
VERTEX
  5
6A9
  8
CYAN
 10
67.615316410000005
 20
228.049372995
 30
0.0
 42
0.21848633
  0
VERTEX
  5
6AA
  8
CYAN
 10
73.487925285000003
 20
233.304386255
 30
0.0
 42
-0.26252709
  0
VERTEX
  5
6AB
  8
CYAN
 10
169.90248499
 20
303.21034022499998
 30
0.0
  0
VERTEX
  5
6AC
  8
CYAN
 10
169.90652101500001
 20
303.18410606999998
 30
0.0
 42
-0.3957304
  0
VERTEX
  5
6AD
  8
CYAN
 10
171.48027909000001
 20
302.03281924999999
 30
0.0
 42
-0.3957304
  0
VERTEX
  5
6AE
  8
CYAN
 10
170.431204135
 20
300.38915944000001
 30
0.0
 42
0.23563437
  0
VERTEX
  5
6AF
  8
CYAN
 10
81.335973984999995
 20
224.65316877999999
 30
0.0
 42
-0.2253601
  0
VERTEX
  5
6B0
  8
CYAN
 10
70.445204285000003
 20
215.056388465
 30
0.0
 42
-0.2253601
  0
VERTEX
  5
6B1
  8
CYAN
 10
56.124949964999999
 20
217.43070380500001
 30
0.0
 42
0.1216339
  0
VERTEX
  5
6B2
  8
CYAN
 10
9.5028185450000002
 20
235.42128085499999
 30
0.0
  0
SEQEND
  5
6B3
  8
CYAN
  0
POLYLINE
  5
2CD
  8
CYAN
 66
     1
 10
0.0
 20
0.0
 30
0.0
 70
     1
  0
VERTEX
  5
6B4
  8
CYAN
 10
9.6763675800000009
 20
272.54261173999998
 30
0.0
 42
-0.12158983
  0
VERTEX
  5
6B5
  8
CYAN
 10
56.284372914999999
 20
254.57423281999999
 30
0.0
 42
0.22573579
  0
VERTEX
  5
6B6
  8
CYAN
 10
70.611446589999986
 20
252.18094354499999
 30
0.0
 42
0.22573579
  0
VERTEX
  5
6B7
  8
CYAN
 10
81.507505004999999
 20
261.78660774000002
 30
0.0
 42
-0.23557502
  0
VERTEX
  5
6B8
  8
CYAN
 10
170.58457304999999
 20
337.51250834000001
 30
0.0
 42
0.39315718
  0
VERTEX
  5
6B9
  8
CYAN
 10
171.639660445
 20
339.15072008499999
 30
0.0
 42
0.39315718
  0
VERTEX
  5
6BA
  8
CYAN
 10
170.08208805999999
 20
340.32158105500002
 30
0.0
  0
VERTEX
  5
6BB
  8
CYAN
 10
170.08007004500001
 20
340.33974316000001
 30
0.0
 42
0.26256318
  0
VERTEX
  5
6BC
  8
CYAN
 10
73.653402270000001
 20
270.42773515499999
 30
0.0
 42
-0.21824184
  0
VERTEX
  5
6BD
  8
CYAN
 10
67.771148420000003
 20
265.176377215
 30
0.0
 42
-0.21824184
  0
VERTEX
  5
6BE
  8
CYAN
 10
59.953118744999998
 20
266.20403602499999
 30
0.0
 42
-0.0568754
  0
VERTEX
  5
6BF
  8
CYAN
 10
30.683872579999999
 20
284.93522347999999
 30
0.0
 42
0.34644606
  0
VERTEX
  5
6C0
  8
CYAN
 10
18.147981990000002
 20
289.99034355999999
 30
0.0
 42
-0.07313282
  0
VERTEX
  5
6C1
  8
CYAN
 10
13.11707805
 20
289.69773182
 30
0.0
  0
VERTEX
  5
6C2
  8
CYAN
 10
12.36032355
 20
289.78854236000001
 30
0.0
 42
-0.0419927
  0
VERTEX
  5
6C3
  8
CYAN
 10
9.5250166800000002
 20
290.41009006000002
 30
0.0
 42
0.21586261
  0
VERTEX
  5
6C4
  8
CYAN
 10
5.9257325600000001
 20
289.13149602499999
 30
0.0
 42
0.21586261
  0
VERTEX
  5
6C5
  8
CYAN
 10
4.5122748499999989
 20
285.583005335
 30
0.0
  0
VERTEX
  5
6C6
  8
CYAN
 10
4.518328884999999
 20
284.56390927500001
 30
0.0
 42
-0.00675691
  0
VERTEX
  5
6C7
  8
CYAN
 10
13.522698465
 20
283.54481320999997
 30
0.0
  0
VERTEX
  5
6C8
  8
CYAN
 10
13.169546365
 20
280.53797531499998
 30
0.0
  0
VERTEX
  5
6C9
  8
CYAN
 10
4.4981487649999989
 20
281.52276517500002
 30
0.0
 42
0.26503264
  0
VERTEX
  5
6CA
  8
CYAN
 10
9.6763675800000009
 20
272.54261173999998
 30
0.0
  0
SEQEND
  5
6CB
  8
CYAN
  0
POLYLINE
  5
2E6
  8
CYAN
 66
     1
 10
0.0
 20
0.0
 30
0.0
 70
     1
  0
VERTEX
  5
6CC
  8
CYAN
 10
355.76744496499998
 20
295.70737157999997
 30
0.0
 42
0.29142928
  0
VERTEX
  5
6CD
  8
CYAN
 10
386.93907887500001
 20
315.58387062999998
 30
0.0
 42
0.29142928
  0
VERTEX
  5
6CE
  8
CYAN
 10
382.10451968000001
 20
352.23592394999997
 30
0.0
 42
0.2985939
  0
VERTEX
  5
6CF
  8
CYAN
 10
377.38686476499998
 20
353.65543987000001
 30
0.0
 42
0.2985939
  0
VERTEX
  5
6D0
  8
CYAN
 10
374.20400267000002
 20
349.89503001999998
 30
0.0
 42
0.01330811
  0
VERTEX
  5
6D1
  8
CYAN
 10
374.26656104
 20
338.70717144999998
 30
0.0
 42
-0.11815312
  0
VERTEX
  5
6D2
  8
CYAN
 10
372.69251167499999
 20
330.41112408499998
 30
0.0
 42
0.0063288
  0
VERTEX
  5
6D3
  8
CYAN
 10
372.37971981499999
 20
329.69069379500002
 30
0.0
 42
-0.3038231
  0
VERTEX
  5
6D4
  8
CYAN
 10
357.28095396999998
 20
319.71969646500003
 30
0.0
  0
VERTEX
  5
6D5
  8
CYAN
 10
357.28095396999998
 20
309.82740159999997
 30
0.0
  0
VERTEX
  5
6D6
  8
CYAN
 10
354.25393595499997
 20
309.82740159999997
 30
0.0
  0
VERTEX
  5
6D7
  8
CYAN
 10
354.25393595499997
 20
319.71969646500003
 30
0.0
 42
-0.30380233
  0
VERTEX
  5
6D8
  8
CYAN
 10
339.15517011499998
 20
329.69069379500002
 30
0.0
 42
0.0063288
  0
VERTEX
  5
6D9
  8
CYAN
 10
338.84237825000002
 20
330.41112408499998
 30
0.0
 42
-0.11815312
  0
VERTEX
  5
6DA
  8
CYAN
 10
337.26832888500002
 20
338.70717144999998
 30
0.0
 42
0.01330806
  0
VERTEX
  5
6DB
  8
CYAN
 10
337.33290527000003
 20
349.89503001999998
 30
0.0
 42
0.29860135
  0
VERTEX
  5
6DC
  8
CYAN
 10
334.14905707000003
 20
353.65617873000002
 30
0.0
 42
0.29860135
  0
VERTEX
  5
6DD
  8
CYAN
 10
329.43037024500001
 20
352.23592394999997
 30
0.0
 42
0.29142928
  0
VERTEX
  5
6DE
  8
CYAN
 10
324.59581105000001
 20
315.58387062999998
 30
0.0
 42
0.29142928
  0
VERTEX
  5
6DF
  8
CYAN
 10
355.76744496499998
 20
295.70737157999997
 30
0.0
  0
SEQEND
  5
6E0
  8
CYAN
  0
POLYLINE
  5
2FC
  8
CYAN
 66
     1
 10
0.0
 20
0.0
 30
0.0
 70
     1
  0
VERTEX
  5
6E1
  8
CYAN
 10
103.26167445
 20
372.54721481000001
 30
0.0
  0
VERTEX
  5
6E2
  8
CYAN
 10
102.95291861
 20
373.22930287000003
 30
0.0
 42
-0.11848011
  0
VERTEX
  5
6E3
  8
CYAN
 10
101.38290526999999
 20
381.55562041500002
 30
0.0
 42
0.01330975
  0
VERTEX
  5
6E4
  8
CYAN
 10
101.45353569
 20
392.745497
 30
0.0
 42
0.29811886
  0
VERTEX
  5
6E5
  8
CYAN
 10
98.283191895000002
 20
396.50912828499997
 30
0.0
 42
0.29811886
  0
VERTEX
  5
6E6
  8
CYAN
 10
93.565126750000005
 20
395.11060707000001
 30
0.0
 42
0.29056912
  0
VERTEX
  5
6E7
  8
CYAN
 10
88.596301424999993
 20
358.54665519000002
 30
0.0
 42
0.29056912
  0
VERTEX
  5
6E8
  8
CYAN
 10
119.56785886999999
 20
338.48738222499998
 30
0.0
 42
0.29056912
  0
VERTEX
  5
6E9
  8
CYAN
 10
150.90204175
 20
357.97534737000001
 30
0.0
 42
0.29056912
  0
VERTEX
  5
6EA
  8
CYAN
 10
146.60453636
 20
394.624266175
 30
0.0
 42
0.31416151
  0
VERTEX
  5
6EB
  8
CYAN
 10
141.13282881000001
 20
396.23017345
 30
0.0
 42
0.31416151
  0
VERTEX
  5
6EC
  8
CYAN
 10
137.73335556999999
 20
391.65173449000002
 30
0.0
 42
0.03140772
  0
VERTEX
  5
6ED
  8
CYAN
 10
138.07439959999999
 20
378.44182788500001
 30
0.0
 42
-0.32330456
  0
VERTEX
  5
6EE
  8
CYAN
 10
122.35610407
 20
362.721514345
 30
0.0
  0
VERTEX
  5
6EF
  8
CYAN
 10
121.347098065
 20
362.62868579000002
 30
0.0
  0
VERTEX
  5
6F0
  8
CYAN
 10
121.347098065
 20
352.64558038500002
 30
0.0
  0
VERTEX
  5
6F1
  8
CYAN
 10
118.32008005500001
 20
352.64558038500002
 30
0.0
  0
VERTEX
  5
6F2
  8
CYAN
 10
118.32008005500001
 20
362.53787525000001
 30
0.0
 42
-0.26665136
  0
VERTEX
  5
6F3
  8
CYAN
 10
103.26167445
 20
372.54721481000001
 30
0.0
  0
SEQEND
  5
6F4
  8
CYAN
  0
POLYLINE
  5
311
  8
CYAN
 66
     1
 10
0.0
 20
0.0
 30
0.0
 70
     1
  0
VERTEX
  5
6F5
  8
CYAN
 10
84.954269514999979
 20
411.21434289500002
 30
0.0
 42
-0.29055837
  0
VERTEX
  5
6F6
  8
CYAN
 10
80.186385549999997
 20
447.79588792499999
 30
0.0
 42
-0.29055837
  0
VERTEX
  5
6F7
  8
CYAN
 10
111.25860278499999
 20
467.68205071
 30
0.0
 42
-0.29055837
  0
VERTEX
  5
6F8
  8
CYAN
 10
142.47976325499999
 20
448.03055475999992
 30
0.0
 42
-0.29055837
  0
VERTEX
  5
6F9
  8
CYAN
 10
137.98762508499999
 20
411.41412608500002
 30
0.0
 42
-0.31451535
  0
VERTEX
  5
6FA
  8
CYAN
 10
132.50284407999999
 20
409.83785891999997
 30
0.0
 42
-0.31451535
  0
VERTEX
  5
6FB
  8
CYAN
 10
129.13258839
 20
414.44316210999989
 30
0.0
 42
-0.03136833
  0
VERTEX
  5
6FC
  8
CYAN
 10
129.55031688
 20
427.63288858999988
 30
0.0
 42
0.32328225
  0
VERTEX
  5
6FD
  8
CYAN
 10
113.930903935
 20
443.43190460499989
 30
0.0
  0
VERTEX
  5
6FE
  8
CYAN
 10
112.92189793
 20
443.56912942000002
 30
0.0
  0
VERTEX
  5
6FF
  8
CYAN
 10
112.905753835
 20
453.51792861999991
 30
0.0
  0
VERTEX
  5
700
  8
CYAN
 10
109.8746998
 20
453.51792861999991
 30
0.0
  0
VERTEX
  5
701
  8
CYAN
 10
109.87873582500001
 20
443.62765177
 30
0.0
 42
0.26689443
  0
VERTEX
  5
702
  8
CYAN
 10
94.771897929999994
 20
433.70306871000003
 30
0.0
 42
0.00877353
  0
VERTEX
  5
703
  8
CYAN
 10
94.449016009999994
 20
433.02098065500002
 30
0.0
 42
0.11843931
  0
VERTEX
  5
704
  8
CYAN
 10
92.854786524999994
 20
424.70071714499989
 30
0.0
 42
-0.01330444
  0
VERTEX
  5
705
  8
CYAN
 10
92.860840559999986
 20
413.51487658500002
 30
0.0
 42
-0.29820697
  0
VERTEX
  5
706
  8
CYAN
 10
89.660552315000004
 20
409.77667698499988
 30
0.0
 42
-0.29820697
  0
VERTEX
  5
707
  8
CYAN
 10
84.954269514999979
 20
411.21434289500002
 30
0.0
  0
SEQEND
  5
708
  8
CYAN
  0
POLYLINE
  5
326
  8
CYAN
 66
     1
 10
0.0
 20
0.0
 30
0.0
 70
     1
  0
VERTEX
  5
709
  8
CYAN
 10
299.03507337999997
 20
162.5771014
 30
0.0
 42
-0.22664453
  0
VERTEX
  5
70A
  8
CYAN
 10
292.14052161000001
 20
165.180895115
 30
0.0
 42
-0.22664453
  0
VERTEX
  5
70B
  8
CYAN
 10
289.83495663999997
 20
172.18082054499999
 30
0.0
 42
0.07086273
  0
VERTEX
  5
70C
  8
CYAN
 10
289.280003335
 20
223.464559705
 30
0.0
 42
0.17820088
  0
VERTEX
  5
70D
  8
CYAN
 10
267.77001333999999
 20
262.13774182999998
 30
0.0
  0
VERTEX
  5
70E
  8
CYAN
 10
257.15325216999997
 20
265.80245163500001
 30
0.0
 42
-0.41424534
  0
VERTEX
  5
70F
  8
CYAN
 10
255.28325694500001
 20
269.59339141999999
 30
0.0
 42
-0.41424534
  0
VERTEX
  5
710
  8
CYAN
 10
259.07439959999999
 20
271.46297531499999
 30
0.0
  0
VERTEX
  5
711
  8
CYAN
 10
276.43939293
 20
265.49773182000001
 30
0.0
 42
-0.23275017
  0
VERTEX
  5
712
  8
CYAN
 10
299.35391928000001
 20
207.77048031999999
 30
0.0
 42
0.06477364
  0
VERTEX
  5
713
  8
CYAN
 10
300.576834555
 20
183.402985325
 30
0.0
 42
0.39823835
  0
VERTEX
  5
714
  8
CYAN
 10
314.65246831000002
 20
173.08690794
 30
0.0
 42
0.06052172
  0
VERTEX
  5
715
  8
CYAN
 10
341.92791861000001
 20
181.25582054500001
 30
0.0
 42
-0.26440714
  0
VERTEX
  5
716
  8
CYAN
 10
363.51055703999998
 20
175.13519012500001
 30
0.0
 42
-0.1191604
  0
VERTEX
  5
717
  8
CYAN
 10
364.09376250999998
 20
170.05787191499999
 30
0.0
  0
VERTEX
  5
718
  8
CYAN
 10
364.00093395499999
 20
169.28093729
 30
0.0
  0
VERTEX
  5
719
  8
CYAN
 10
354.161107405
 20
172.43307204999999
 30
0.0
  0
VERTEX
  5
71A
  8
CYAN
 10
353.22676784499998
 20
169.52713475499999
 30
0.0
  0
VERTEX
  5
71B
  8
CYAN
 10
362.95762174999999
 20
166.41737825000001
 30
0.0
 42
-0.11835832
  0
VERTEX
  5
71C
  8
CYAN
 10
359.646064045
 20
162.5771014
 30
0.0
 42
0.01935618
  0
VERTEX
  5
71D
  8
CYAN
 10
331.05285190000001
 20
163.8181787849999
 30
0.0
  0
VERTEX
  5
71E
  8
CYAN
 10
330.043845895
 20
163.82019679999999
 30
0.0
 42
0.02098987
  0
VERTEX
  5
71F
  8
CYAN
 10
299.03507337999997
 20
162.5771014
 30
0.0
  0
SEQEND
  5
720
  8
CYAN
  0
POLYLINE
  5
33F
  8
CYAN
 66
     1
 10
0.0
 20
0.0
 30
0.0
 70
     1
  0
VERTEX
  5
721
  8
CYAN
 10
396.77546697999998
 20
83.008905935000001
 30
0.0
 42
0.41421356
  0
VERTEX
  5
722
  8
CYAN
 10
400.89624750000002
 20
83.993695794999994
 30
0.0
 42
0.41421356
  0
VERTEX
  5
723
  8
CYAN
 10
399.91145763999998
 20
88.114476315000005
 30
0.0
  0
VERTEX
  5
724
  8
CYAN
 10
390.30168445499999
 20
93.950567044999985
 30
0.0
 42
-0.17825439
  0
VERTEX
  5
725
  8
CYAN
 10
377.63664109500002
 20
136.36514342999999
 30
0.0
 42
-0.07086549
  0
VERTEX
  5
726
  8
CYAN
 10
388.15653768999999
 20
186.56319213
 30
0.0
 42
0.22635154
  0
VERTEX
  5
727
  8
CYAN
 10
387.41440455999998
 20
193.88390946999999
 30
0.0
 42
0.22635154
  0
VERTEX
  5
728
  8
CYAN
 10
381.256954635
 20
197.91249166
 30
0.0
 42
-0.04105544
  0
VERTEX
  5
729
  8
CYAN
 10
322.05857237999999
 20
210.98719145999999
 30
0.0
 42
0.11834161
  0
VERTEX
  5
72A
  8
CYAN
 10
317.99227818499998
 20
207.946047365
 30
0.0
  0
VERTEX
  5
72B
  8
CYAN
 10
326.81300867499999
 20
202.81424283000001
 30
0.0
  0
VERTEX
  5
72C
  8
CYAN
 10
325.29748165500001
 20
200.18679119500001
 30
0.0
  0
VERTEX
  5
72D
  8
CYAN
 10
316.50903935999997
 20
205.29841561000001
 30
0.0
  0
VERTEX
  5
72E
  8
CYAN
 10
316.04086057500001
 20
204.40241828000001
 30
0.0
 42
0.11406169
  0
VERTEX
  5
72F
  8
CYAN
 10
315.59084389499998
 20
199.52891928
 30
0.0
 42
0.26387346
  0
VERTEX
  5
730
  8
CYAN
 10
335.32901934500001
 20
188.94848232000001
 30
0.0
 42
-0.06054163
  0
VERTEX
  5
731
  8
CYAN
 10
363.74061040499998
 20
191.03712475
 30
0.0
 42
-0.39848283
  0
VERTEX
  5
732
  8
CYAN
 10
375.26144096000002
 20
177.918028685
 30
0.0
 42
-0.06477895
  0
VERTEX
  5
733
  8
CYAN
 10
371.19716477499998
 20
153.85727151500001
 30
0.0
 42
0.23277638
  0
VERTEX
  5
734
  8
CYAN
 10
381.12981988000001
 20
92.537958639999999
 30
0.0
  0
VERTEX
  5
735
  8
CYAN
 10
396.77546697999998
 20
83.008905935000001
 30
0.0
  0
SEQEND
  5
736
  8
CYAN
  0
POLYLINE
  5
356
  8
CYAN
 66
     1
 10
0.0
 20
0.0
 30
0.0
 70
     1
  0
VERTEX
  5
737
  8
CYAN
 10
348.62570046500002
 20
9.5835390250000003
 30
0.0
 42
-0.39022799
  0
VERTEX
  5
738
  8
CYAN
 10
348.31906046500001
 20
16.58666981
 30
0.0
 42
-0.39022799
  0
VERTEX
  5
739
  8
CYAN
 10
355.27303202000002
 20
17.469929955000001
 30
0.0
 42
0.26102232
  0
VERTEX
  5
73A
  8
CYAN
 10
370.97681183499998
 20
15.962329
 30
0.0
 42
0.26102232
  0
VERTEX
  5
73B
  8
CYAN
 10
380.46387591500002
 20
28.566977985000001
 30
0.0
  0
VERTEX
  5
73C
  8
CYAN
 10
380.469929955
 20
29.575983990000001
 30
0.0
  0
VERTEX
  5
73D
  8
CYAN
 10
389.34514676499998
 20
29.575983990000001
 30
0.0
  0
VERTEX
  5
73E
  8
CYAN
 10
389.34514676499998
 20
32.609056035000002
 30
0.0
  0
VERTEX
  5
73F
  8
CYAN
 10
380.469929955
 20
32.609056035000002
 30
0.0
  0
VERTEX
  5
740
  8
CYAN
 10
380.40535356999999
 20
33.367828549999999
 30
0.0
 42
0.25253046
  0
VERTEX
  5
741
  8
CYAN
 10
371.01908521000001
 20
45.495634934999991
 30
0.0
 42
0.25253046
  0
VERTEX
  5
742
  8
CYAN
 10
355.72910273500003
 20
44.311507669999997
 30
0.0
 42
-0.35912048
  0
VERTEX
  5
743
  8
CYAN
 10
348.67497130499999
 20
45.373370429999987
 30
0.0
 42
-0.35912048
  0
VERTEX
  5
744
  8
CYAN
 10
348.37344896500002
 20
52.50060040000001
 30
0.0
 42
-0.30492704
  0
VERTEX
  5
745
  8
CYAN
 10
381.879167585
 20
59.67384770999999
 30
0.0
 42
-0.30492704
  0
VERTEX
  5
746
  8
CYAN
 10
401.16491287500003
 20
31.351618179999999
 30
0.0
 42
-0.30492704
  0
VERTEX
  5
747
  8
CYAN
 10
382.21342491000001
 20
2.8046435449999989
 30
0.0
 42
-0.30492704
  0
VERTEX
  5
748
  8
CYAN
 10
348.62570046500002
 20
9.5835390250000003
 30
0.0
  0
SEQEND
  5
749
  8
CYAN
  0
POLYLINE
  5
36A
  8
CYAN
 66
     1
 10
0.0
 20
0.0
 30
0.0
 70
     1
  0
VERTEX
  5
74A
  8
CYAN
 10
311.09269512999998
 20
21.057955305
 30
0.0
 42
-0.01457432
  0
VERTEX
  5
74B
  8
CYAN
 10
312.10170113499998
 20
21.271864574999999
 30
0.0
 42
0.25083091
  0
VERTEX
  5
74C
  8
CYAN
 10
324.028345495
 20
30.724805745000001
 30
0.0
 42
0.25083091
  0
VERTEX
  5
74D
  8
CYAN
 10
322.77496664500001
 20
45.891611074999993
 30
0.0
 42
-0.36191149
  0
VERTEX
  5
74E
  8
CYAN
 10
323.787187555
 20
52.996511679999998
 30
0.0
 42
-0.36191149
  0
VERTEX
  5
74F
  8
CYAN
 10
330.958005335
 20
53.285607069999998
 30
0.0
 42
-0.30500634
  0
VERTEX
  5
750
  8
CYAN
 10
338.14929451500001
 20
19.775132325000001
 30
0.0
 42
-0.30500634
  0
VERTEX
  5
751
  8
CYAN
 10
309.82386690999999
 20
0.47910401
 30
0.0
 42
-0.30500634
  0
VERTEX
  5
752
  8
CYAN
 10
281.27166369499997
 20
19.437960765
 30
0.0
 42
-0.30500634
  0
VERTEX
  5
753
  8
CYAN
 10
288.06516010500002
 20
53.031337559999997
 30
0.0
 42
-0.38927522
  0
VERTEX
  5
754
  8
CYAN
 10
295.05715018000001
 20
53.30272549
 30
0.0
 42
-0.38927522
  0
VERTEX
  5
755
  8
CYAN
 10
295.92733489
 20
46.359789859999999
 30
0.0
 42
0.26962828
  0
VERTEX
  5
756
  8
CYAN
 10
294.63654413500001
 20
30.181205304999999
 30
0.0
 42
0.26962828
  0
VERTEX
  5
757
  8
CYAN
 10
308.05962307999999
 20
21.057955305
 30
0.0
  0
VERTEX
  5
758
  8
CYAN
 10
308.05962307999999
 20
12.287675115000001
 30
0.0
  0
VERTEX
  5
759
  8
CYAN
 10
311.09269512999998
 20
12.287675115000001
 30
0.0
  0
VERTEX
  5
75A
  8
CYAN
 10
311.09269512999998
 20
21.057955305
 30
0.0
  0
SEQEND
  5
75B
  8
CYAN
  0
POLYLINE
  5
37D
  8
CYAN
 66
     1
 10
0.0
 20
0.0
 30
0.0
 70
     1
  0
VERTEX
  5
75C
  8
CYAN
 10
170.13052034500001
 20
406.96642761999999
 30
0.0
 42
0.12378953
  0
VERTEX
  5
75D
  8
CYAN
 10
211.93565710499999
 20
408.709989995
 30
0.0
 42
0.3143559
  0
VERTEX
  5
75E
  8
CYAN
 10
217.21881253999999
 20
415.35732154999988
 30
0.0
  0
VERTEX
  5
75F
  8
CYAN
 10
205.08652434999999
 20
415.35732154999988
 30
0.0
  0
VERTEX
  5
760
  8
CYAN
 10
205.08652434999999
 20
418.39039359499998
 30
0.0
  0
VERTEX
  5
761
  8
CYAN
 10
217.29549700000001
 20
418.39039359499998
 30
0.0
  0
VERTEX
  5
762
  8
CYAN
 10
217.263208805
 20
419.39939959999992
 30
0.0
 42
0.34122671
  0
VERTEX
  5
763
  8
CYAN
 10
212.365493665
 20
425.291994665
 30
0.0
  0
VERTEX
  5
764
  8
CYAN
 10
199.77713475499991
 20
427.98402268000001
 30
0.0
 42
0.33110774
  0
VERTEX
  5
765
  8
CYAN
 10
192.24591394500001
 20
423.47174783000003
 30
0.0
 42
-0.30351741
  0
VERTEX
  5
766
  8
CYAN
 10
183.32428285500001
 20
417.50650433499999
 30
0.0
  0
VERTEX
  5
767
  8
CYAN
 10
176.37223148999999
 20
417.50246830999998
 30
0.0
 42
-0.22494915
  0
VERTEX
  5
768
  8
CYAN
 10
170.395206715
 20
420.33773416999992
 30
0.0
 42
-0.22494915
  0
VERTEX
  5
769
  8
CYAN
 10
168.80468646
 20
426.75908939499988
 30
0.0
 42
0.21997629
  0
VERTEX
  5
76A
  8
CYAN
 10
159.926970595
 20
464.40853688499988
 30
0.0
 42
0.21997629
  0
VERTEX
  5
76B
  8
CYAN
 10
125.49411274000001
 20
482.03445630499988
 30
0.0
  0
VERTEX
  5
76C
  8
CYAN
 10
115.585673785
 20
482.01024016000002
 30
0.0
 42
0.41231494
  0
VERTEX
  5
76D
  8
CYAN
 10
113.563582655
 20
480.00122439500001
 30
0.0
 42
0.41231494
  0
VERTEX
  5
76E
  8
CYAN
 10
115.559439625
 20
477.966144095
 30
0.0
  0
VERTEX
  5
76F
  8
CYAN
 10
124.75753836
 20
477.94798199000002
 30
0.0
 42
-0.2445965
  0
VERTEX
  5
770
  8
CYAN
 10
161.30978986
 20
447.28025350000001
 30
0.0
 42
-0.04720231
  0
VERTEX
  5
771
  8
CYAN
 10
159.354336225
 20
424.43433956000001
 30
0.0
 42
0.20562714
  0
VERTEX
  5
772
  8
CYAN
 10
160.991972785
 20
413.38667837000003
 30
0.0
 42
0.20562714
  0
VERTEX
  5
773
  8
CYAN
 10
170.13052034500001
 20
406.96642761999999
 30
0.0
  0
SEQEND
  5
774
  8
CYAN
  0
POLYLINE
  5
397
  8
CYAN
 66
     1
 10
0.0
 20
0.0
 30
0.0
 70
     1
  0
VERTEX
  5
775
  8
CYAN
 10
220.47991994500001
 20
0.458088725
 30
0.0
 42
-0.41231494
  0
VERTEX
  5
776
  8
CYAN
 10
218.45782882
 20
2.4671044900000001
 30
0.0
 42
-0.41231494
  0
VERTEX
  5
777
  8
CYAN
 10
220.45368579000001
 20
4.5021847900000003
 30
0.0
  0
VERTEX
  5
778
  8
CYAN
 10
229.65178452500001
 20
4.5142928600000003
 30
0.0
 42
0.24473626
  0
VERTEX
  5
779
  8
CYAN
 10
266.21816210999998
 20
35.188075384999998
 30
0.0
 42
0.04725891
  0
VERTEX
  5
77A
  8
CYAN
 10
264.24858239000002
 20
58.060223479999991
 30
0.0
 42
-0.20562714
  0
VERTEX
  5
77B
  8
CYAN
 10
265.88621895
 20
69.107884670000004
 30
0.0
 42
-0.20562714
  0
VERTEX
  5
77C
  8
CYAN
 10
275.02476651000001
 20
75.528135425000002
 30
0.0
 42
-0.12378832
  0
VERTEX
  5
77D
  8
CYAN
 10
316.82990326999999
 20
73.782555035000001
 30
0.0
 42
-0.27703638
  0
VERTEX
  5
77E
  8
CYAN
 10
321.97986991499999
 20
68.144229484999997
 30
0.0
 42
-0.00504017
  0
VERTEX
  5
77F
  8
CYAN
 10
322.17359906500002
 20
67.135223479999993
 30
0.0
  0
VERTEX
  5
780
  8
CYAN
 10
309.98077051500002
 20
67.135223479999993
 30
0.0
  0
VERTEX
  5
781
  8
CYAN
 10
309.98077051500002
 20
64.102151434999996
 30
0.0
  0
VERTEX
  5
782
  8
CYAN
 10
322.17359906500002
 20
64.102151434999996
 30
0.0
  0
VERTEX
  5
783
  8
CYAN
 10
322.16149099500001
 20
63.345396929999993
 30
0.0
 42
-0.35239577
  0
VERTEX
  5
784
  8
CYAN
 10
317.259739825
 20
57.202568380000002
 30
0.0
  0
VERTEX
  5
785
  8
CYAN
 10
304.67138091999999
 20
54.49843228999999
 30
0.0
 42
-0.33083327
  0
VERTEX
  5
786
  8
CYAN
 10
297.14016010500001
 20
58.996581055
 30
0.0
 42
0.30393868
  0
VERTEX
  5
787
  8
CYAN
 10
288.21852902000001
 20
64.988058705
 30
0.0
  0
VERTEX
  5
788
  8
CYAN
 10
281.26647765000001
 20
64.988058705
 30
0.0
 42
0.22512535
  0
VERTEX
  5
789
  8
CYAN
 10
275.29355372999999
 20
62.153972424999992
 30
0.0
 42
0.22512535
  0
VERTEX
  5
78A
  8
CYAN
 10
273.70902267999998
 20
55.735473650000003
 30
0.0
 42
-0.21994326
  0
VERTEX
  5
78B
  8
CYAN
 10
264.83672322500001
 20
18.089937689999999
 30
0.0
 42
-0.21994326
  0
VERTEX
  5
78C
  8
CYAN
 10
230.41257504999999
 20
0.458088725
 30
0.0
  0
VERTEX
  5
78D
  8
CYAN
 10
220.47991994500001
 20
0.458088725
 30
0.0
  0
SEQEND
  5
78E
  8
CYAN
  0
POLYLINE
  5
3B2
  8
CYAN
 66
     1
 10
0.0
 20
0.0
 30
0.0
 70
     1
  0
VERTEX
  5
78F
  8
CYAN
 10
293.10615410499997
 20
431.95345229999992
 30
0.0
 42
0.29316816
  0
VERTEX
  5
790
  8
CYAN
 10
322.77152179500001
 20
427.76485471500001
 30
0.0
 42
0.29316816
  0
VERTEX
  5
791
  8
CYAN
 10
338.94763346000002
 20
452.98214643
 30
0.0
 42
0.29316816
  0
VERTEX
  5
792
  8
CYAN
 10
322.77152179500001
 20
478.19943814999988
 30
0.0
 42
0.29316816
  0
VERTEX
  5
793
  8
CYAN
 10
293.10615410499997
 20
474.01084056000002
 30
0.0
 42
0.36118311
  0
VERTEX
  5
794
  8
CYAN
 10
292.22080822999999
 20
468.57467658500002
 30
0.0
 42
0.36118311
  0
VERTEX
  5
795
  8
CYAN
 10
297.40250166999999
 20
466.70765510500001
 30
0.0
 42
-0.22568066
  0
VERTEX
  5
796
  8
CYAN
 10
310.55517838999998
 20
465.47765505500001
 30
0.0
 42
-0.22568066
  0
VERTEX
  5
797
  8
CYAN
 10
317.90146764500003
 20
454.49868245499999
 30
0.0
  0
VERTEX
  5
798
  8
CYAN
 10
325.66072381499998
 20
454.49868245499999
 30
0.0
  0
VERTEX
  5
799
  8
CYAN
 10
325.66072381499998
 20
451.46561040500001
 30
0.0
  0
VERTEX
  5
79A
  8
CYAN
 10
317.77433288999998
 20
451.46561040500001
 30
0.0
  0
VERTEX
  5
79B
  8
CYAN
 10
317.73397265
 20
450.45660440500001
 30
0.0
 42
-0.21700609
  0
VERTEX
  5
79C
  8
CYAN
 10
310.12432352500002
 20
440.21442128500001
 30
0.0
 42
-0.21700609
  0
VERTEX
  5
79D
  8
CYAN
 10
297.40250166999999
 20
439.23242161500002
 30
0.0
 42
0.36040992
  0
VERTEX
  5
79E
  8
CYAN
 10
292.23927372000003
 20
437.37254614
 30
0.0
 42
0.36040992
  0
VERTEX
  5
79F
  8
CYAN
 10
293.10615410499997
 20
431.95345229999992
 30
0.0
  0
SEQEND
  5
7A0
  8
CYAN
  0
POLYLINE
  5
3C5
  8
CYAN
 66
     1
 10
0.0
 20
0.0
 30
0.0
 70
     1
  0
VERTEX
  5
7A1
  8
CYAN
 10
119.238275515
 20
251.87413275500001
 30
0.0
 42
-0.22812088
  0
VERTEX
  5
7A2
  8
CYAN
 10
149.23804203
 20
246.05822215000001
 30
0.0
 42
0.21393465
  0
VERTEX
  5
7A3
  8
CYAN
 10
164.51237491500001
 20
242.59127752000001
 30
0.0
 42
0.20846565
  0
VERTEX
  5
7A4
  8
CYAN
 10
172.10466102999999
 20
247.89464190000001
 30
0.0
 42
0.20846565
  0
VERTEX
  5
7A5
  8
CYAN
 10
173.38759173
 20
257.06647765000002
 30
0.0
  0
VERTEX
  5
7A6
  8
CYAN
 10
154.071180785
 20
256.97970313500002
 30
0.0
  0
VERTEX
  5
7A7
  8
CYAN
 10
154.069162775
 20
259.97645096500003
 30
0.0
  0
VERTEX
  5
7A8
  8
CYAN
 10
173.38759173
 20
260.06726150999998
 30
0.0
 42
0.0303241
  0
VERTEX
  5
7A9
  8
CYAN
 10
173.62773515500001
 20
261.07828552500001
 30
0.0
 42
0.4099187000000001
  0
VERTEX
  5
7AA
  8
CYAN
 10
164.36707805
 20
274.455687125
 30
0.0
 42
0.21346548
  0
VERTEX
  5
7AB
  8
CYAN
 10
149.125033355
 20
270.85757171500001
 30
0.0
 42
-0.22808429
  0
VERTEX
  5
7AC
  8
CYAN
 10
119.16159106000001
 20
264.77124750000002
 30
0.0
 42
0.23148062
  0
VERTEX
  5
7AD
  8
CYAN
 10
116.45390238
 20
264.19258851000001
 30
0.0
 42
0.23148062
  0
VERTEX
  5
7AE
  8
CYAN
 10
115.24866577500001
 20
261.69983322000002
 30
0.0
  0
VERTEX
  5
7AF
  8
CYAN
 10
115.268845895
 20
254.91527685
 30
0.0
 42
0.23238509
  0
VERTEX
  5
7B0
  8
CYAN
 10
116.50650082999999
 20
252.41961072000001
 30
0.0
 42
0.23238509
  0
VERTEX
  5
7B1
  8
CYAN
 10
119.238275515
 20
251.87413275500001
 30
0.0
  0
SEQEND
  5
7B2
  8
CYAN
  0
POLYLINE
  5
3D8
  8
CYAN
 66
     1
 10
0.0
 20
0.0
 30
0.0
 70
     1
  0
VERTEX
  5
7B3
  8
CYAN
 10
249.86621080500001
 20
195.98932621500001
 30
0.0
 42
-0.32932366
  0
VERTEX
  5
7B4
  8
CYAN
 10
246.927948265
 20
196.10514979999999
 30
0.0
 42
-0.32932366
  0
VERTEX
  5
7B5
  8
CYAN
 10
246.17526684500001
 20
198.94773182
 30
0.0
 42
0.09090539
  0
VERTEX
  5
7B6
  8
CYAN
 10
248.57670113500001
 20
213.10005003500001
 30
0.0
  0
VERTEX
  5
7B7
  8
CYAN
 10
248.12264843
 20
232.33574049500001
 30
0.0
 42
-0.23099658
  0
VERTEX
  5
7B8
  8
CYAN
 10
251.92861908
 20
240.740760505
 30
0.0
 42
-0.05706493
  0
VERTEX
  5
7B9
  8
CYAN
 10
254.87491661000001
 20
242.05246830999999
 30
0.0
  0
VERTEX
  5
7BA
  8
CYAN
 10
255.62965310000001
 20
242.26839559499999
 30
0.0
 42
-0.05925755
  0
VERTEX
  5
7BB
  8
CYAN
 10
258.94121080500003
 20
242.728502335
 30
0.0
  0
VERTEX
  5
7BC
  8
CYAN
 10
259.95021680999997
 20
242.74262841999999
 30
0.0
  0
VERTEX
  5
7BD
  8
CYAN
 10
259.95223482500001
 20
226.346280855
 30
0.0
  0
VERTEX
  5
7BE
  8
CYAN
 10
262.98328886000002
 20
226.346280855
 30
0.0
  0
VERTEX
  5
7BF
  8
CYAN
 10
262.98328886000002
 20
242.73253836000001
 30
0.0
 42
-0.14552932
  0
VERTEX
  5
7C0
  8
CYAN
 10
270.79501334000003
 20
240.72663442499999
 30
0.0
 42
-0.2306839
  0
VERTEX
  5
7C1
  8
CYAN
 10
274.61107405000001
 20
232.33574049500001
 30
0.0
  0
VERTEX
  5
7C2
  8
CYAN
 10
274.15702134999998
 20
213.10005003500001
 30
0.0
 42
0.09092909
  0
VERTEX
  5
7C3
  8
CYAN
 10
276.57661774500002
 20
198.943695795
 30
0.0
 42
-0.33449913
  0
VERTEX
  5
7C4
  8
CYAN
 10
275.83480264999997
 20
196.06950805
 30
0.0
 42
-0.33449913
  0
VERTEX
  5
7C5
  8
CYAN
 10
272.867511675
 20
195.98932621500001
 30
0.0
 42
-0.09696144
  0
VERTEX
  5
7C6
  8
CYAN
 10
270.56697798499999
 20
198.31407605000001
 30
0.0
 42
0.16291737
  0
VERTEX
  5
7C7
  8
CYAN
 10
262.22048031999998
 20
206.21459306
 30
0.0
 42
0.21916151
  0
VERTEX
  5
7C8
  8
CYAN
 10
260.52938626000002
 20
206.23477317999999
 30
0.0
 42
0.16309614
  0
VERTEX
  5
7C9
  8
CYAN
 10
252.16674449499999
 20
198.31407605000001
 30
0.0
 42
-0.09714065
  0
VERTEX
  5
7CA
  8
CYAN
 10
249.86621080500001
 20
195.98932621500001
 30
0.0
  0
SEQEND
  5
7CB
  8
CYAN
  0
POLYLINE
  5
3F2
  8
CYAN
 66
     1
 10
0.0
 20
0.0
 30
0.0
 70
     1
  0
VERTEX
  5
7CC
  8
CYAN
 10
187.9031521
 20
302.39506337500001
 30
0.0
 42
0.31513175
  0
VERTEX
  5
7CD
  8
CYAN
 10
192.80287512000001
 20
301.47959623000003
 30
0.0
 42
0.31513175
  0
VERTEX
  5
7CE
  8
CYAN
 10
195.341544365
 20
305.76917945000002
 30
0.0
 42
-0.00088234
  0
VERTEX
  5
7CF
  8
CYAN
 10
195.04287858500001
 20
309.768879255
 30
0.0
 42
-0.16286948
  0
VERTEX
  5
7D0
  8
CYAN
 10
196.01959640000001
 20
313.65153435500002
 30
0.0
 42
-0.02744172
  0
VERTEX
  5
7D1
  8
CYAN
 10
196.46355904000001
 20
314.26904603000003
 30
0.0
 42
-0.19577194
  0
VERTEX
  5
7D2
  8
CYAN
 10
200.65496998
 20
316.52720147000002
 30
0.0
  0
VERTEX
  5
7D3
  8
CYAN
 10
200.620663775
 20
325.115860575
 30
0.0
  0
VERTEX
  5
7D4
  8
CYAN
 10
203.65373582500001
 20
325.115860575
 30
0.0
  0
VERTEX
  5
7D5
  8
CYAN
 10
203.66786191
 20
316.54132755000001
 30
0.0
 42
-0.40383492
  0
VERTEX
  5
7D6
  8
CYAN
 10
209.30215143500001
 20
309.803185455
 30
0.0
  0
VERTEX
  5
7D7
  8
CYAN
 10
209.02366577500001
 20
305.82366577499999
 30
0.0
 42
0.31603523
  0
VERTEX
  5
7D8
  8
CYAN
 10
211.59214310499999
 20
301.52825067999999
 30
0.0
 42
0.31603523
  0
VERTEX
  5
7D9
  8
CYAN
 10
216.50443629
 20
302.48587391500001
 30
0.0
 42
0.30161148
  0
VERTEX
  5
7DA
  8
CYAN
 10
220.53743828
 20
324.20038560500001
 30
0.0
 42
0.30161148
  0
VERTEX
  5
7DB
  8
CYAN
 10
202.09611798
 20
336.35369086499998
 30
0.0
 42
0.30161148
  0
VERTEX
  5
7DC
  8
CYAN
 10
183.732343445
 20
324.08352754999999
 30
0.0
 42
0.30161148
  0
VERTEX
  5
7DD
  8
CYAN
 10
187.9031521
 20
302.39506337500001
 30
0.0
  0
SEQEND
  5
7DE
  8
CYAN
  0
POLYLINE
  5
406
  8
CYAN
 66
     1
 10
0.0
 20
0.0
 30
0.0
 70
     1
  0
VERTEX
  5
7DF
  8
CYAN
 10
200.48949299500001
 20
52.494546364999998
 30
0.0
 42
0.02000638
  0
VERTEX
  5
7E0
  8
CYAN
 10
201.23615744
 20
52.304853235000003
 30
0.0
  0
VERTEX
  5
7E1
  8
CYAN
 10
205.486090725
 20
52.538942630000001
 30
0.0
  0
VERTEX
  5
7E2
  8
CYAN
 10
205.484072715
 20
61.690627085000003
 30
0.0
  0
VERTEX
  5
7E3
  8
CYAN
 10
208.509072715
 20
61.690627085000003
 30
0.0
  0
VERTEX
  5
7E4
  8
CYAN
 10
208.511090725
 20
52.538942630000001
 30
0.0
  0
VERTEX
  5
7E5
  8
CYAN
 10
212.759006005
 20
52.304853235000003
 30
0.0
 42
0.23662362
  0
VERTEX
  5
7E6
  8
CYAN
 10
218.930086725
 20
56.885740495
 30
0.0
 42
0.14240034
  0
VERTEX
  5
7E7
  8
CYAN
 10
220.449649765
 20
65.018328885000003
 30
0.0
 42
-0.18807888
  0
VERTEX
  5
7E8
  8
CYAN
 10
226.02945296999999
 20
84.278235490000014
 30
0.0
 42
0.34801404
  0
VERTEX
  5
7E9
  8
CYAN
 10
225.835793045
 20
87.311370514999993
 30
0.0
 42
0.34801404
  0
VERTEX
  5
7EA
  8
CYAN
 10
222.83897598499999
 20
87.817828550000016
 30
0.0
 42
0.09521438
  0
VERTEX
  5
7EB
  8
CYAN
 10
216.750633755
 20
83.327751835000001
 30
0.0
 42
-0.06137402
  0
VERTEX
  5
7EC
  8
CYAN
 10
208.618045365
 20
73.37491661
 30
0.0
 42
-0.2271531
  0
VERTEX
  5
7ED
  8
CYAN
 10
207.10273000500001
 20
72.661450930000001
 30
0.0
 42
-0.2271531
  0
VERTEX
  5
7EE
  8
CYAN
 10
205.59708139
 20
73.395096730000006
 30
0.0
 42
-0.06143279
  0
VERTEX
  5
7EF
  8
CYAN
 10
197.44229486500001
 20
83.331787860000006
 30
0.0
 42
0.09516688
  0
VERTEX
  5
7F0
  8
CYAN
 10
191.345880585
 20
87.815810540000001
 30
0.0
 42
0.34992187
  0
VERTEX
  5
7F1
  8
CYAN
 10
188.34428675000001
 20
87.314182189999997
 30
0.0
 42
0.34992187
  0
VERTEX
  5
7F2
  8
CYAN
 10
188.16549366000001
 20
84.276217479999985
 30
0.0
 42
-0.18822074
  0
VERTEX
  5
7F3
  8
CYAN
 10
193.74933289000001
 20
65.010256839999997
 30
0.0
 42
0.14259699
  0
VERTEX
  5
7F4
  8
CYAN
 10
195.26687792000001
 20
56.879686460000002
 30
0.0
 42
0.20424439
  0
VERTEX
  5
7F5
  8
CYAN
 10
200.48949299500001
 20
52.494546364999998
 30
0.0
  0
SEQEND
  5
7F6
  8
CYAN
  0
POLYLINE
  5
41F
  8
CYAN
 66
     1
 10
0.0
 20
0.0
 30
0.0
 70
     1
  0
VERTEX
  5
7F7
  8
CYAN
 10
266.10111740999997
 20
326.31254169499999
 30
0.0
 42
0.15168242
  0
VERTEX
  5
7F8
  8
CYAN
 10
278.71369246
 20
312.78984322999997
 30
0.0
 42
0.2760067
  0
VERTEX
  5
7F9
  8
CYAN
 10
279.90752736500002
 20
312.86518525499997
 30
0.0
 42
0.2760067
  0
VERTEX
  5
7FA
  8
CYAN
 10
280.40680453499999
 20
313.95221814500002
 30
0.0
 42
0.13253643
  0
VERTEX
  5
7FB
  8
CYAN
 10
271.331804535
 20
335.35928952500001
 30
0.0
 42
0.41476174
  0
VERTEX
  5
7FC
  8
CYAN
 10
268.27451634499999
 20
335.738675785
 30
0.0
 42
0.35198568
  0
VERTEX
  5
7FD
  8
CYAN
 10
266.10111740999997
 20
326.31254169499999
 30
0.0
  0
SEQEND
  5
7FE
  8
CYAN
  0
POLYLINE
  5
428
  8
CYAN
 66
     1
 10
0.0
 20
0.0
 30
0.0
 70
     1
  0
VERTEX
  5
7FF
  8
CYAN
 10
30.81100734
 20
333.86999666499997
 30
0.0
 42
0.1515771
  0
VERTEX
  5
800
  8
CYAN
 10
43.395330219999998
 20
320.34124416499998
 30
0.0
 42
0.29172993
  0
VERTEX
  5
801
  8
CYAN
 10
44.628586470000002
 20
320.37657136500002
 30
0.0
 42
0.29172993
  0
VERTEX
  5
802
  8
CYAN
 10
45.116694465000002
 20
321.509673115
 30
0.0
 42
0.13263124
  0
VERTEX
  5
803
  8
CYAN
 10
36.043712475
 20
342.91876251000002
 30
0.0
 42
0.41438045
  0
VERTEX
  5
804
  8
CYAN
 10
32.984406270000001
 20
343.29613075499998
 30
0.0
 42
0.35207534
  0
VERTEX
  5
805
  8
CYAN
 10
30.81100734
 20
333.86999666499997
 30
0.0
  0
SEQEND
  5
806
  8
CYAN
  0
POLYLINE
  5
431
  8
CYAN
 66
     1
 10
0.0
 20
0.0
 30
0.0
 70
     1
  0
VERTEX
  5
807
  8
CYAN
 10
237.67943629000001
 20
464.24568045500001
 30
0.0
  0
VERTEX
  5
808
  8
CYAN
 10
237.691544365
 20
465.25468646000002
 30
0.0
  0
VERTEX
  5
809
  8
CYAN
 10
224.36459306
 20
465.042795195
 30
0.0
  0
VERTEX
  5
80A
  8
CYAN
 10
224.31414276000001
 20
468.07788525500001
 30
0.0
  0
VERTEX
  5
80B
  8
CYAN
 10
235.822865245
 20
468.27565043499999
 30
0.0
 42
0.01416451
  0
VERTEX
  5
80C
  8
CYAN
 10
235.481821215
 20
469.97683455499993
 30
0.0
 42
0.26772923
  0
VERTEX
  5
80D
  8
CYAN
 10
232.03505670499999
 20
473.67585056500002
 30
0.0
 42
0.11075882
  0
VERTEX
  5
80E
  8
CYAN
 10
187.06567712
 20
477.06005670500002
 30
0.0
 42
0.37267458
  0
VERTEX
  5
80F
  8
CYAN
 10
174.98787525
 20
463.04698131999999
 30
0.0
 42
0.22901728
  0
VERTEX
  5
810
  8
CYAN
 10
186.64735813499999
 20
439.05922626500001
 30
0.0
 42
0.22901728
  0
VERTEX
  5
811
  8
CYAN
 10
212.68837558499999
 20
433.29543028500001
 30
0.0
 42
0.29390052
  0
VERTEX
  5
812
  8
CYAN
 10
237.67943629000001
 20
464.24568045500001
 30
0.0
  0
SEQEND
  5
813
  8
CYAN
  0
POLYLINE
  5
43F
  8
CYAN
 66
     1
 10
0.0
 20
0.0
 30
0.0
 70
     1
  0
VERTEX
  5
814
  8
CYAN
 10
221.452601735
 20
461.75141760999998
 30
0.0
 42
0.0977601
  0
VERTEX
  5
815
  8
CYAN
 10
188.05450300000001
 20
462.80280187
 30
0.0
 42
0.21828054
  0
VERTEX
  5
816
  8
CYAN
 10
183.75106703
 20
459.90359260499997
 30
0.0
 42
0.21828054
  0
VERTEX
  5
817
  8
CYAN
 10
183.13862574999999
 20
454.75093395499999
 30
0.0
 42
0.31624442
  0
VERTEX
  5
818
  8
CYAN
 10
203.99585051
 20
439.09365744500002
 30
0.0
 42
0.31624442
  0
VERTEX
  5
819
  8
CYAN
 10
225.79334556500001
 20
453.41299199500003
 30
0.0
 42
0.21746043
  0
VERTEX
  5
81A
  8
CYAN
 10
225.52625564499999
 20
458.57299850499999
 30
0.0
 42
0.21746043
  0
VERTEX
  5
81B
  8
CYAN
 10
221.452601735
 20
461.75141760999998
 30
0.0
  0
SEQEND
  5
81C
  8
CYAN
  0
POLYLINE
  5
449
  8
CYAN
 66
     1
 10
0.0
 20
0.0
 30
0.0
 70
     1
  0
VERTEX
  5
81D
  8
CYAN
 10
242.776934625
 20
281.40370246999998
 30
0.0
  0
VERTEX
  5
81E
  8
CYAN
 10
242.79307872000001
 20
282.41270846999998
 30
0.0
  0
VERTEX
  5
81F
  8
CYAN
 10
229.48832555000001
 20
282.36629419500002
 30
0.0
  0
VERTEX
  5
820
  8
CYAN
 10
229.49034356000001
 20
285.37515009999998
 30
0.0
  0
VERTEX
  5
821
  8
CYAN
 10
240.99906604500001
 20
285.43770847000002
 30
0.0
 42
0.0141627
  0
VERTEX
  5
822
  8
CYAN
 10
240.67820213499999
 20
287.14292862000002
 30
0.0
 42
0.26891686
  0
VERTEX
  5
823
  8
CYAN
 10
237.26372581499999
 20
290.89441294
 30
0.0
 42
0.11071948
  0
VERTEX
  5
824
  8
CYAN
 10
192.35690460500001
 20
294.835590395
 30
0.0
 42
0.3732979
  0
VERTEX
  5
825
  8
CYAN
 10
180.099499665
 20
280.96377584999999
 30
0.0
 42
0.22886172
  0
VERTEX
  5
826
  8
CYAN
 10
191.46049714500001
 20
256.85094008999999
 30
0.0
 42
0.22886172
  0
VERTEX
  5
827
  8
CYAN
 10
217.41052368499999
 20
250.76019012500001
 30
0.0
 42
0.29399543
  0
VERTEX
  5
828
  8
CYAN
 10
242.776934625
 20
281.40370246999998
 30
0.0
  0
SEQEND
  5
829
  8
CYAN
  0
POLYLINE
  5
457
  8
CYAN
 66
     1
 10
0.0
 20
0.0
 30
0.0
 70
     1
  0
VERTEX
  5
82A
  8
CYAN
 10
209.933789195
 20
281.46424282999999
 30
0.0
 42
0.04878808
  0
VERTEX
  5
82B
  8
CYAN
 10
193.162091395
 20
280.56824549499999
 30
0.0
 42
0.21876346
  0
VERTEX
  5
82C
  8
CYAN
 10
188.81732159000001
 20
277.71925998
 30
0.0
 42
0.21876346
  0
VERTEX
  5
82D
  8
CYAN
 10
188.14934956499999
 20
272.56682788500001
 30
0.0
 42
0.31566599
  0
VERTEX
  5
82E
  8
CYAN
 10
208.81246633999999
 20
256.68403863499998
 30
0.0
 42
0.31566599
  0
VERTEX
  5
82F
  8
CYAN
 10
230.78590727
 20
270.69814876499998
 30
0.0
 42
0.22008142
  0
VERTEX
  5
830
  8
CYAN
 10
230.59347124499999
 20
275.88275525
 30
0.0
 42
0.22008142
  0
VERTEX
  5
831
  8
CYAN
 10
226.51781187500001
 20
279.09307871999999
 30
0.0
 42
0.04866643
  0
VERTEX
  5
832
  8
CYAN
 10
209.933789195
 20
281.46424282999999
 30
0.0
  0
SEQEND
  5
833
  8
CYAN
  0
ENDSEC
  0
EOF
