  0
SECTION
  2
HEADER
  9
$ACADVER
  1
AC1009
  9
$EXTMIN
 10
0.00000000
 20
0.00000000
 30
0.0
  9
$EXTMAX
 10
802.67821123
 20
964.06891261
 30
0.0
  0
ENDSEC
  0
SECTION
  2
TABLES
  0
TABLE
  2
LAYER
 70
1
 0
LAYER
 2
CYAN
 70
0
 62
1
 6
CONTINUOUS
 0
ENDTAB
 0
ENDSEC
  0
SECTION
  2
ENTITIES
  0
POLYLINE
  8
CYAN
 66
   1
 39
0.000000
 70
    1
  0
VERTEX
  8
0
 10
396.22051368
 20
42.21681121
 42
-0.25304434
  0
VERTEX
  8
0
 10
377.18641797
 20
43.81480461
 42
-0.25304434
  0
VERTEX
  8
0
 10
368.10153436
 20
60.61704470
  0
VERTEX
  8
0
 10
368.11364243
 20
112.83915944
 42
0.34939932
  0
VERTEX
  8
0
 10
360.93855338
 20
120.28760815
 42
0.34939932
  0
VERTEX
  8
0
 10
352.07044696
 20
114.96614410
 42
0.14269292
  0
VERTEX
  8
0
 10
345.89129420
 20
32.50613743
 42
0.29817379
  0
VERTEX
  8
0
 10
376.35116744
 20
0.00000000
 42
0.01507438
  0
VERTEX
  8
0
 10
384.29002668
 20
0.91617745
 42
0.29209963
  0
VERTEX
  8
0
 10
386.73226181
 20
3.05844583
 42
0.29209963
  0
VERTEX
  8
0
 10
385.81564376
 20
6.17511674
  0
VERTEX
  8
0
 10
380.19749833
 20
11.02641761
  0
VERTEX
  8
0
 10
384.13665777
 20
15.67995330
  0
VERTEX
  8
0
 10
398.19009340
 20
3.69699800
 42
0.04720510
  0
VERTEX
  8
0
 10
421.69186124
 20
12.14843229
  0
VERTEX
  8
0
 10
411.18205470
 20
23.31207472
  0
VERTEX
  8
0
 10
415.58132088
 20
27.50550367
  0
VERTEX
  8
0
 10
427.35843896
 20
15.02208139
 42
0.05053256
  0
VERTEX
  8
0
 10
449.58078719
 20
29.86254169
  0
VERTEX
  8
0
 10
436.00360240
 20
42.67288192
  0
VERTEX
  8
0
 10
440.14859907
 20
47.07214810
  0
VERTEX
  8
0
 10
454.20203469
 20
33.82591728
 42
0.04788363
  0
VERTEX
  8
0
 10
471.27441628
 20
52.54096064
  0
VERTEX
  8
0
 10
456.72858572
 20
64.20910607
  0
VERTEX
  8
0
 10
460.52244830
 20
68.95950634
  0
VERTEX
  8
0
 10
474.82611741
 20
57.48509006
 42
0.03307194
  0
VERTEX
  8
0
 10
488.07234823
 20
82.30663776
  0
VERTEX
  8
0
 10
472.14619747
 20
89.43425617
  0
VERTEX
  8
0
 10
474.72521681
 20
94.89096064
  0
VERTEX
  8
0
 10
490.49799867
 20
87.86424283
 42
0.03106605
  0
VERTEX
  8
0
 10
499.14316211
 20
112.83915944
  0
VERTEX
  8
0
 10
483.26947965
 20
117.23438959
  0
VERTEX
  8
0
 10
484.93635757
 20
123.09873249
  0
VERTEX
  8
0
 10
500.70913943
 20
118.80440294
 42
0.03045216
  0
VERTEX
  8
0
 10
505.39496331
 20
144.28382255
  0
VERTEX
  8
0
 10
490.14282855
 20
147.26240827
  0
VERTEX
  8
0
 10
490.95406938
 20
153.28012008
  0
VERTEX
  8
0
 10
506.01651101
 20
150.29749833
 42
0.02841437
  0
VERTEX
  8
0
 10
506.87618412
 20
174.46117412
  0
VERTEX
  8
0
 10
491.86217478
 20
177.39132755
  0
VERTEX
  8
0
 10
492.06397598
 20
183.55837225
  0
VERTEX
  8
0
 10
507.17888592
 20
180.57575050
 42
0.03287729
  0
VERTEX
  8
0
 10
506.25463642
 20
206.86237492
 42
-0.20184992
  0
VERTEX
  8
0
 10
510.72839554
 20
217.46057817
 42
-0.20184992
  0
VERTEX
  8
0
 10
521.43412275
 20
221.67054703
 42
0.14118571
  0
VERTEX
  8
0
 10
548.07591728
 20
226.88105404
 42
0.35160523
  0
VERTEX
  8
0
 10
549.62171448
 20
230.31167445
  0
VERTEX
  8
0
 10
542.21157438
 20
259.83922615
  0
VERTEX
  8
0
 10
548.12838559
 20
261.30833889
  0
VERTEX
  8
0
 10
555.55870580
 20
231.63145430
 42
0.41350708
  0
VERTEX
  8
0
 10
558.03278853
 20
230.16637759
  0
VERTEX
  8
0
 10
560.36157438
 20
230.77178119
 42
0.33680066
  0
VERTEX
  8
0
 10
562.58542362
 20
233.70597065
  0
VERTEX
  8
0
 10
562.78722482
 20
264.99726484
 42
0.17737588
  0
VERTEX
  8
0
 10
535.58845897
 20
354.87548366
 42
0.17659898
  0
VERTEX
  8
0
 10
519.41207472
 20
361.84166111
 42
0.23591240
  0
VERTEX
  8
0
 10
517.76078609
 20
361.12589450
 42
0.23591240
  0
VERTEX
  8
0
 10
517.34159440
 20
359.37565043
  0
VERTEX
  8
0
 10
526.64059373
 20
322.07068045
  0
VERTEX
  8
0
 10
520.78028686
 20
320.60156771
  0
VERTEX
  8
0
 10
510.67004670
 20
361.09499666
 42
0.31464179
  0
VERTEX
  8
0
 10
508.89823215
 20
362.61254169
 42
-0.00994167
  0
VERTEX
  8
0
 10
479.68145430
 20
365.99876584
  0
VERTEX
  8
0
 10
479.42718479
 20
325.55780520
  0
VERTEX
  8
0
 10
473.36104069
 20
325.55780520
  0
VERTEX
  8
0
 10
473.86554370
 20
409.87841895
  0
VERTEX
  8
0
 10
439.03869246
 20
409.87841895
  0
VERTEX
  8
0
 10
439.03869246
 20
415.73872582
  0
VERTEX
  8
0
 10
473.86554370
 20
415.73872582
  0
VERTEX
  8
0
 10
474.16824550
 20
461.23682455
 42
0.34479252
  0
VERTEX
  8
0
 10
460.77268179
 20
478.52715143
  0
VERTEX
  8
0
 10
460.77268179
 20
450.92478319
  0
VERTEX
  8
0
 10
454.70653769
 20
450.92478319
  0
VERTEX
  8
0
 10
454.70653769
 20
479.03165444
 42
-0.27028323
  0
VERTEX
  8
0
 10
428.39569713
 20
490.13072048
 42
0.24999545
  0
VERTEX
  8
0
 10
420.48282204
 20
492.12430499
 42
0.24999545
  0
VERTEX
  8
0
 10
414.41894596
 20
486.66377585
  0
VERTEX
  8
0
 10
421.04206137
 20
476.45263509
  0
VERTEX
  8
0
 10
416.08582388
 20
473.26821214
  0
VERTEX
  8
0
 10
404.35713809
 20
491.41417612
 42
0.34855960
  0
VERTEX
  8
0
 10
384.89543029
 20
465.88632422
  0
VERTEX
  8
0
 10
412.75206805
 20
455.87698466
  0
VERTEX
  8
0
 10
410.83092061
 20
450.36781187
  0
VERTEX
  8
0
 10
351.48118746
 20
471.24616411
 42
0.36663078
  0
VERTEX
  8
0
 10
336.87481654
 20
465.63609073
 42
0.20528912
  0
VERTEX
  8
0
 10
335.83755837
 20
437.71891261
 42
0.27587016
  0
VERTEX
  8
0
 10
341.05530101
 20
434.42224558
 42
0.27587016
  0
VERTEX
  8
0
 10
346.43212141
 20
437.45253502
  0
VERTEX
  8
0
 10
352.84536358
 20
448.80183456
 42
-0.35786431
  0
VERTEX
  8
0
 10
359.21824550
 20
451.27995330
 42
-0.26916279
  0
VERTEX
  8
0
 10
379.07951968
 20
429.18675784
 42
0.28235561
  0
VERTEX
  8
0
 10
409.36180787
 20
390.56200801
 42
-0.40822823
  0
VERTEX
  8
0
 10
421.39319546
 20
376.46417612
  0
VERTEX
  8
0
 10
420.58599066
 20
360.59049366
 42
-0.28555351
  0
VERTEX
  8
0
 10
410.67755170
 20
346.38368913
 42
-0.06798974
  0
VERTEX
  8
0
 10
380.04412942
 20
343.75623749
 42
0.35556729
  0
VERTEX
  8
0
 10
367.85937292
 20
333.04059373
 42
0.01786216
  0
VERTEX
  8
0
 10
365.45390260
 20
291.78839226
  0
VERTEX
  8
0
 10
365.43372248
 20
290.27084723
 42
0.00212111
  0
VERTEX
  8
0
 10
365.35703803
 20
285.36304203
  0
VERTEX
  8
0
 10
365.33685791
 20
283.34503002
 42
0.02147565
  0
VERTEX
  8
0
 10
367.07638426
 20
233.70193462
 42
0.36205528
  0
VERTEX
  8
0
 10
384.49182789
 20
214.38552368
  0
VERTEX
  8
0
 10
384.49182789
 20
270.91004003
  0
VERTEX
  8
0
 10
390.35617078
 20
270.91004003
  0
VERTEX
  8
0
 10
390.35617078
 20
213.88909273
  0
VERTEX
  8
0
 10
452.68448966
 20
209.18712475
 42
-0.38793397
  0
VERTEX
  8
0
 10
470.22908606
 20
190.58509006
 42
-0.06215803
  0
VERTEX
  8
0
 10
462.54449633
 20
118.90530354
 42
-0.22556692
  0
VERTEX
  8
0
 10
396.22051368
 20
42.21681121
  0
SEQEND
  0
POLYLINE
  8
CYAN
 66
   1
 39
0.000000
 70
    1
  0
VERTEX
  8
0
 10
572.54229486
 20
553.08865911
 42
0.39804018
  0
VERTEX
  8
0
 10
588.84379586
 20
547.17991995
 42
0.02247646
  0
VERTEX
  8
0
 10
597.15800534
 20
550.70740494
  0
VERTEX
  8
0
 10
599.01054036
 20
551.55496998
  0
VERTEX
  8
0
 10
577.64786524
 20
585.69569713
  0
VERTEX
  8
0
 10
582.80590394
 20
588.88012008
  0
VERTEX
  8
0
 10
604.64482989
 20
553.94833222
 42
0.22270269
  0
VERTEX
  8
0
 10
611.76056964
 20
556.96352656
 42
0.22270269
  0
VERTEX
  8
0
 10
613.99629753
 20
564.36127418
 42
0.04096139
  0
VERTEX
  8
0
 10
614.19809873
 20
683.96480987
 42
0.19156009
  0
VERTEX
  8
0
 10
568.81300867
 20
859.04349566
 42
0.39109135
  0
VERTEX
  8
0
 10
506.01651101
 20
886.16961308
 42
0.23195912
  0
VERTEX
  8
0
 10
480.89226151
 20
855.99226151
 42
0.07594386
  0
VERTEX
  8
0
 10
476.59389593
 20
709.94873249
 42
0.02785605
  0
VERTEX
  8
0
 10
470.58022015
 20
660.55990660
 42
0.15552875
  0
VERTEX
  8
0
 10
494.13849233
 20
617.33812542
 42
0.18820351
  0
VERTEX
  8
0
 10
517.03485657
 20
605.87581721
 42
-0.17864056
  0
VERTEX
  8
0
 10
556.55963976
 20
579.46811207
 42
-0.05868416
  0
VERTEX
  8
0
 10
572.54229486
 20
553.08865911
  0
SEQEND
  0
POLYLINE
  8
CYAN
 66
   1
 39
0.000000
 70
    1
  0
VERTEX
  8
0
 10
572.69566378
 20
686.74563042
 42
0.40797670
  0
VERTEX
  8
0
 10
576.71256378
 20
683.65131250
 42
0.40797670
  0
VERTEX
  8
0
 10
579.89189460
 20
687.60126751
 42
0.07939118
  0
VERTEX
  8
0
 10
542.66764510
 20
852.35176785
 42
0.09388269
  0
VERTEX
  8
0
 10
530.58378919
 20
871.25650434
 42
0.37290044
  0
VERTEX
  8
0
 10
520.22099307
 20
872.31386679
 42
0.37290044
  0
VERTEX
  8
0
 10
517.69676451
 20
862.20773849
 42
-0.08318241
  0
VERTEX
  8
0
 10
572.69566378
 20
686.74563042
  0
SEQEND
  0
POLYLINE
  8
CYAN
 66
   1
 39
0.000000
 70
    1
  0
VERTEX
  8
0
 10
542.86944630
 20
751.70543696
 42
0.36254478
  0
VERTEX
  8
0
 10
545.73842443
 20
750.89244005
 42
0.36254478
  0
VERTEX
  8
0
 10
547.05076718
 20
753.57008005
 42
0.09072705
  0
VERTEX
  8
0
 10
499.99072715
 20
861.14222815
 42
0.28706032
  0
VERTEX
  8
0
 10
497.76771706
 20
862.18492513
 42
0.28706032
  0
VERTEX
  8
0
 10
495.85783856
 20
860.64176117
 42
0.23346482
  0
VERTEX
  8
0
 10
501.98452302
 20
804.25446965
 42
0.04413355
  0
VERTEX
  8
0
 10
527.39936624
 20
771.21557705
 42
-0.03588286
  0
VERTEX
  8
0
 10
542.86944630
 20
751.70543696
  0
SEQEND
  0
POLYLINE
  8
CYAN
 66
   1
 39
0.000000
 70
    1
  0
VERTEX
  8
0
 10
484.17758506
 20
671.93342228
 42
0.31787391
  0
VERTEX
  8
0
 10
528.10567045
 20
611.97828552
 42
0.24610557
  0
VERTEX
  8
0
 10
533.66532166
 20
612.93361104
 42
0.24610557
  0
VERTEX
  8
0
 10
536.04452969
 20
618.04846564
 42
0.17348791
  0
VERTEX
  8
0
 10
530.83805871
 20
637.96220814
 42
-0.12555404
  0
VERTEX
  8
0
 10
508.49462975
 20
673.55186791
 42
0.17521599
  0
VERTEX
  8
0
 10
491.25273516
 20
683.32711808
 42
0.36267579
  0
VERTEX
  8
0
 10
485.87675117
 20
680.23148766
 42
0.07664491
  0
VERTEX
  8
0
 10
484.17758506
 20
671.93342228
  0
SEQEND
  0
POLYLINE
  8
CYAN
 66
   1
 39
0.000000
 70
    1
  0
VERTEX
  8
0
 10
574.05983989
 20
630.53188793
 42
0.09851933
  0
VERTEX
  8
0
 10
490.60697131
 20
779.71947965
 42
-0.40800587
  0
VERTEX
  8
0
 10
491.08312845
 20
786.75794580
 42
-0.40800587
  0
VERTEX
  8
0
 10
498.13012008
 20
786.43138759
 42
-0.13268220
  0
VERTEX
  8
0
 10
579.69412942
 20
632.08172115
 42
-0.40006598
  0
VERTEX
  8
0
 10
577.61516860
 20
628.62319834
 42
-0.40006598
  0
VERTEX
  8
0
 10
574.05983989
 20
630.53188793
  0
SEQEND
  0
POLYLINE
  8
CYAN
 66
   1
 39
0.000000
 70
    1
  0
VERTEX
  8
0
 10
505.45953969
 20
689.02194797
 42
-0.01547197
  0
VERTEX
  8
0
 10
516.47788526
 20
681.38175450
 42
0.33827317
  0
VERTEX
  8
0
 10
529.51801922
 20
681.63015714
 42
0.33827317
  0
VERTEX
  8
0
 10
532.70673783
 20
694.27685123
 42
0.01460392
  0
VERTEX
  8
0
 10
519.29099400
 20
717.87144763
 42
0.10265901
  0
VERTEX
  8
0
 10
496.81437625
 20
741.99476318
 42
0.26157763
  0
VERTEX
  8
0
 10
491.98264273
 20
742.51825837
 42
0.26157763
  0
VERTEX
  8
0
 10
489.02081388
 20
738.66504336
 42
0.09580498
  0
VERTEX
  8
0
 10
490.19529686
 20
710.65503669
 42
0.19287310
  0
VERTEX
  8
0
 10
505.45953969
 20
689.02194797
  0
SEQEND
  0
POLYLINE
  8
CYAN
 66
   1
 39
0.000000
 70
    1
  0
VERTEX
  8
0
 10
592.25020013
 20
712.01921281
 42
0.37940013
  0
VERTEX
  8
0
 10
595.09858735
 20
710.08180443
 42
0.37940013
  0
VERTEX
  8
0
 10
597.36384256
 20
712.67708472
 42
0.08897169
  0
VERTEX
  8
0
 10
568.49819880
 20
843.75907271
 42
0.39704248
  0
VERTEX
  8
0
 10
563.36257748
 20
846.06583530
 42
0.39704248
  0
VERTEX
  8
0
 10
560.75710474
 20
841.07511674
 42
-0.00755847
  0
VERTEX
  8
0
 10
577.47431621
 20
776.76914610
 42
-0.00755517
  0
VERTEX
  8
0
 10
592.25020013
 20
712.01921281
  0
SEQEND
  0
POLYLINE
  8
CYAN
 66
   1
 39
0.000000
 70
    1
  0
VERTEX
  8
0
 10
590.79319546
 20
640.44032688
 42
0.03339495
  0
VERTEX
  8
0
 10
594.41350901
 20
673.65276851
 42
-0.37032058
  0
VERTEX
  8
0
 10
597.48215770
 20
676.94566066
 42
-0.37032058
  0
VERTEX
  8
0
 10
601.20210140
 20
674.41154103
 42
-0.04020562
  0
VERTEX
  8
0
 10
602.29586391
 20
637.00567045
 42
-0.04015744
  0
VERTEX
  8
0
 10
597.41227485
 20
599.95093396
 42
-0.34498474
  0
VERTEX
  8
0
 10
595.24481318
 20
598.08737745
 42
-0.34498474
  0
VERTEX
  8
0
 10
592.91614410
 20
599.74509673
 42
-0.11481731
  0
VERTEX
  8
0
 10
590.79319546
 20
640.44032688
  0
SEQEND
  0
POLYLINE
  8
CYAN
 66
   1
 39
0.000000
 70
    1
  0
VERTEX
  8
0
 10
46.40620414
 20
621.02705137
 42
-0.17851858
  0
VERTEX
  8
0
 10
85.87044697
 20
594.57898599
 42
-0.05882864
  0
VERTEX
  8
0
 10
101.88539026
 20
568.13899266
 42
0.39582796
  0
VERTEX
  8
0
 10
118.19899933
 20
562.16567712
 42
-0.00624753
  0
VERTEX
  8
0
 10
126.47688459
 20
565.77388259
  0
VERTEX
  8
0
 10
128.38995997
 20
566.52054703
  0
VERTEX
  8
0
 10
107.01517678
 20
600.75813876
  0
VERTEX
  8
0
 10
112.17321548
 20
603.99503002
  0
VERTEX
  8
0
 10
133.95967312
 20
569.01077385
 42
0.22281783
  0
VERTEX
  8
0
 10
141.08393195
 20
572.01891378
 42
0.22281783
  0
VERTEX
  8
0
 10
143.32728486
 20
579.41967979
 42
0.04096595
  0
VERTEX
  8
0
 10
143.66631087
 20
699.03128753
 42
0.19156752
  0
VERTEX
  8
0
 10
98.42248165
 20
874.13822548
 42
0.39075351
  0
VERTEX
  8
0
 10
35.63809206
 20
901.28452302
 42
0.23183699
  0
VERTEX
  8
0
 10
10.51384256
 20
871.15560374
 42
0.07592106
  0
VERTEX
  8
0
 10
6.06614410
 20
725.16454303
 42
0.02785853
  0
VERTEX
  8
0
 10
0.00000000
 20
675.77571714
 42
0.15559365
  0
VERTEX
  8
0
 10
23.55827218
 20
632.50550367
 42
0.18791782
  0
VERTEX
  8
0
 10
46.40620414
 20
621.02705137
  0
SEQEND
  0
POLYLINE
  8
CYAN
 66
   1
 39
0.000000
 70
    1
  0
VERTEX
  8
0
 10
102.13158773
 20
701.80403602
 42
0.38549323
  0
VERTEX
  8
0
 10
106.13691605
 20
698.96297356
 42
0.38549323
  0
VERTEX
  8
0
 10
109.36010674
 20
702.66774516
 42
0.06180758
  0
VERTEX
  8
0
 10
72.28922615
 20
867.46667778
 42
0.09408689
  0
VERTEX
  8
0
 10
60.20537025
 20
886.41984656
 42
0.37180676
  0
VERTEX
  8
0
 10
49.81664443
 20
887.52168112
 42
0.37493687
  0
VERTEX
  8
0
 10
47.26587725
 20
877.32264843
 42
-0.08319278
  0
VERTEX
  8
0
 10
102.13158773
 20
701.80403602
  0
SEQEND
  0
POLYLINE
  8
CYAN
 66
   1
 39
0.000000
 70
    1
  0
VERTEX
  8
0
 10
29.11587725
 20
823.58702468
 42
0.01891779
  0
VERTEX
  8
0
 10
31.54556371
 20
819.39359573
 42
0.04413606
  0
VERTEX
  8
0
 10
56.90390260
 20
786.31434290
 42
-0.03588288
  0
VERTEX
  8
0
 10
72.39012675
 20
766.82034690
 42
0.36254478
  0
VERTEX
  8
0
 10
75.25910488
 20
766.00734999
 42
0.36254478
  0
VERTEX
  8
0
 10
76.57144763
 20
768.68498999
 42
0.09075393
  0
VERTEX
  8
0
 10
29.57194797
 20
876.31364243
 42
0.28009279
  0
VERTEX
  8
0
 10
27.36831050
 20
877.30771623
 42
0.28009279
  0
VERTEX
  8
0
 10
25.47134757
 20
875.80913943
 42
0.21356590
  0
VERTEX
  8
0
 10
29.11587725
 20
823.58702468
  0
SEQEND
  0
POLYLINE
  8
CYAN
 66
   1
 39
0.000000
 70
    1
  0
VERTEX
  8
0
 10
26.03235490
 20
650.14292862
 42
-0.18998182
  0
VERTEX
  8
0
 10
13.60140093
 20
687.10080053
 42
-0.07659866
  0
VERTEX
  8
0
 10
15.31267512
 20
695.39079386
 42
-0.35853289
  0
VERTEX
  8
0
 10
20.67655103
 20
698.47431621
 42
-0.17550706
  0
VERTEX
  8
0
 10
37.94669780
 20
688.71117412
 42
0.12562077
  0
VERTEX
  8
0
 10
60.25783856
 20
653.07711808
 42
-0.17371245
  0
VERTEX
  8
0
 10
65.41587725
 20
633.15933956
 42
-0.24914245
  0
VERTEX
  8
0
 10
63.05780150
 20
628.01746308
 42
-0.24914245
  0
VERTEX
  8
0
 10
57.47701801
 20
627.09319546
 42
-0.15508428
  0
VERTEX
  8
0
 10
26.03235490
 20
650.14292862
  0
SEQEND
  0
POLYLINE
  8
CYAN
 66
   1
 39
0.000000
 70
    1
  0
VERTEX
  8
0
 10
103.47961975
 20
645.59836558
 42
0.40088627
  0
VERTEX
  8
0
 10
107.03887867
 20
643.68803225
 42
0.40088627
  0
VERTEX
  8
0
 10
109.10987325
 20
647.15627085
 42
0.13323644
  0
VERTEX
  8
0
 10
27.63869246
 20
801.58665777
 42
0.40758014
  0
VERTEX
  8
0
 10
20.60644970
 20
801.90995037
 42
0.40758014
  0
VERTEX
  8
0
 10
20.12361574
 20
794.88685790
 42
-0.09024156
  0
VERTEX
  8
0
 10
103.47961975
 20
645.59836558
  0
SEQEND
  0
POLYLINE
  8
CYAN
 66
   1
 39
0.000000
 70
    1
  0
VERTEX
  8
0
 10
34.92371581
 20
704.12878586
 42
-0.19341008
  0
VERTEX
  8
0
 10
19.65543696
 20
725.81837892
 42
-0.09587046
  0
VERTEX
  8
0
 10
18.50113409
 20
753.82838559
 42
-0.25835964
  0
VERTEX
  8
0
 10
21.51060925
 20
757.64089634
 42
-0.25835964
  0
VERTEX
  8
0
 10
26.33909273
 20
757.11370914
 42
-0.10246886
  0
VERTEX
  8
0
 10
48.75920614
 20
733.03478986
 42
-0.01462409
  0
VERTEX
  8
0
 10
62.13862575
 20
709.37561708
 42
-0.33843341
  0
VERTEX
  8
0
 10
58.94109502
 20
696.73223159
 42
-0.33843341
  0
VERTEX
  8
0
 10
45.90170113
 20
696.50070047
 42
0.01542708
  0
VERTEX
  8
0
 10
34.92371581
 20
704.12878586
  0
SEQEND
  0
POLYLINE
  8
CYAN
 66
   1
 39
0.000000
 70
    1
  0
VERTEX
  8
0
 10
121.71841227
 20
727.08165444
 42
0.41424299
  0
VERTEX
  8
0
 10
124.60622071
 20
724.85553027
 42
0.41424299
  0
VERTEX
  8
0
 10
126.83205470
 20
727.74356237
 42
0.08895407
  0
VERTEX
  8
0
 10
98.07134757
 20
858.82151434
 42
0.39605586
  0
VERTEX
  8
0
 10
92.95104989
 20
861.13968198
 42
0.39605586
  0
VERTEX
  8
0
 10
90.31814543
 20
856.17388259
 42
-0.01511587
  0
VERTEX
  8
0
 10
121.71841227
 20
727.08165444
  0
SEQEND
  0
POLYLINE
  8
CYAN
 66
   1
 39
0.000000
 70
    1
  0
VERTEX
  8
0
 10
126.77151434
 20
614.96494330
 42
0.08053661
  0
VERTEX
  8
0
 10
130.60170113
 20
689.47398266
 42
0.36408302
  0
VERTEX
  8
0
 10
126.90071733
 20
691.93744942
 42
0.36408302
  0
VERTEX
  8
0
 10
123.83328886
 20
688.71924616
 42
-0.03340034
  0
VERTEX
  8
0
 10
120.16050700
 20
655.50680454
 42
0.11480288
  0
VERTEX
  8
0
 10
122.26731154
 20
614.80753836
 42
0.34603708
  0
VERTEX
  8
0
 10
124.58129017
 20
613.11560019
 42
0.34603708
  0
VERTEX
  8
0
 10
126.77151434
 20
614.96494330
  0
SEQEND
  0
POLYLINE
  8
CYAN
 66
   1
 39
0.000000
 70
    1
  0
VERTEX
  8
0
 10
12.99196131
 20
119.10710474
  0
VERTEX
  8
0
 10
39.78308873
 20
128.25677118
  0
VERTEX
  8
0
 10
37.81350901
 20
134.02021348
  0
VERTEX
  8
0
 10
10.99412942
 20
124.85440294
 42
-0.22938868
  0
VERTEX
  8
0
 10
9.84533251
 20
134.54210328
 42
-0.22938868
  0
VERTEX
  8
0
 10
16.73335557
 20
141.45053369
 42
-0.05538450
  0
VERTEX
  8
0
 10
36.95383589
 20
149.43782522
 42
0.21979875
  0
VERTEX
  8
0
 10
54.49439626
 20
184.67231488
  0
VERTEX
  8
0
 10
54.42578386
 20
186.18582388
 42
0.21162992
  0
VERTEX
  8
0
 10
36.95383589
 20
219.95523682
 42
-0.05538450
  0
VERTEX
  8
0
 10
16.73335557
 20
227.94252835
 42
-0.22981080
  0
VERTEX
  8
0
 10
9.85313918
 20
234.84592009
 42
-0.22981080
  0
VERTEX
  8
0
 10
11.01834556
 20
244.52251501
  0
VERTEX
  8
0
 10
37.81350901
 20
235.37284857
  0
VERTEX
  8
0
 10
39.78308873
 20
241.13629086
  0
VERTEX
  8
0
 10
12.96774516
 20
250.28999333
 42
-0.22913862
  0
VERTEX
  8
0
 10
17.98723483
 20
258.64173683
 42
-0.22913862
  0
VERTEX
  8
0
 10
27.65080053
 20
259.89169446
  0
VERTEX
  8
0
 10
56.41150767
 20
250.05590394
 42
0.14457000
  0
VERTEX
  8
0
 10
76.73692462
 20
252.56227485
  0
VERTEX
  8
0
 10
94.78198799
 20
235.67555037
  0
VERTEX
  8
0
 10
98.92698466
 20
240.12728486
  0
VERTEX
  8
0
 10
80.88192128
 20
257.00997332
  0
VERTEX
  8
0
 10
87.40413609
 20
263.93579053
 42
-0.20451185
  0
VERTEX
  8
0
 10
91.02107562
 20
265.53942571
 42
-0.20451185
  0
VERTEX
  8
0
 10
94.68108739
 20
264.03669113
  0
VERTEX
  8
0
 10
116.57248165
 20
241.74169446
 42
0.41570805
  0
VERTEX
  8
0
 10
155.44342895
 20
241.49146097
  0
VERTEX
  8
0
 10
164.24196131
 20
250.03572382
 42
-0.34735841
  0
VERTEX
  8
0
 10
183.95390260
 20
252.56227485
  0
VERTEX
  8
0
 10
169.75113409
 20
231.38122081
  0
VERTEX
  8
0
 10
174.80423616
 20
228.04342895
  0
VERTEX
  8
0
 10
189.01104069
 20
249.22448299
 42
-0.34763047
  0
VERTEX
  8
0
 10
194.16907939
 20
230.01704470
  0
VERTEX
  8
0
 10
189.56801201
 20
218.59106071
 42
0.16903174
  0
VERTEX
  8
0
 10
195.43235490
 20
187.70336891
  0
VERTEX
  8
0
 10
122.28345564
 20
187.70336891
  0
VERTEX
  8
0
 10
122.28345564
 20
181.63722482
  0
VERTEX
  8
0
 10
195.40410274
 20
181.65336891
 42
0.16877805
  0
VERTEX
  8
0
 10
189.56801201
 20
150.80200133
  0
VERTEX
  8
0
 10
194.14486324
 20
139.36794530
 42
-0.31285202
  0
VERTEX
  8
0
 10
190.56087392
 20
121.48028686
  0
VERTEX
  8
0
 10
188.93032021
 20
120.28562375
  0
VERTEX
  8
0
 10
174.80423616
 20
141.34963309
  0
VERTEX
  8
0
 10
169.75113409
 20
138.01184123
  0
VERTEX
  8
0
 10
183.95390260
 20
116.83078719
 42
-0.34674099
  0
VERTEX
  8
0
 10
164.24196131
 20
119.35733823
  0
VERTEX
  8
0
 10
155.44342895
 20
127.90160107
 42
0.41573885
  0
VERTEX
  8
0
 10
116.57248165
 20
127.64733155
  0
VERTEX
  8
0
 10
94.68108739
 20
105.35637091
 42
-0.20436129
  0
VERTEX
  8
0
 10
91.02109286
 20
103.85487945
 42
-0.20436129
  0
VERTEX
  8
0
 10
87.40413609
 20
105.45727151
  0
VERTEX
  8
0
 10
80.88192128
 20
112.38308873
  0
VERTEX
  8
0
 10
98.92698466
 20
129.26577718
  0
VERTEX
  8
0
 10
94.78198799
 20
133.71347565
  0
VERTEX
  8
0
 10
76.72481654
 20
116.80253502
 42
0.14457563
  0
VERTEX
  8
0
 10
56.41554370
 20
119.30890594
  0
VERTEX
  8
0
 10
27.64272849
 20
109.52154770
 42
-0.22914515
  0
VERTEX
  8
0
 10
17.99913778
 20
110.77112965
 42
-0.22914515
  0
VERTEX
  8
0
 10
12.99196131
 20
119.10710474
  0
SEQEND
  0
POLYLINE
  8
CYAN
 66
   1
 39
0.000000
 70
    1
  0
VERTEX
  8
0
 10
623.10560374
 20
470.68112075
 42
0.19751874
  0
VERTEX
  8
0
 10
768.14819880
 20
427.23735824
 42
0.22818605
  0
VERTEX
  8
0
 10
782.19962505
 20
435.80706717
 42
0.22818605
  0
VERTEX
  8
0
 10
784.26404270
 20
452.13559039
 42
-0.07364012
  0
VERTEX
  8
0
 10
776.83775851
 20
494.09409606
  0
VERTEX
  8
0
 10
718.19836558
 20
494.09409606
  0
VERTEX
  8
0
 10
718.19836558
 20
500.16024016
  0
VERTEX
  8
0
 10
776.83775851
 20
500.16024016
 42
-0.00734718
  0
VERTEX
  8
0
 10
776.88215477
 20
502.17825217
 42
-0.07427623
  0
VERTEX
  8
0
 10
784.55060040
 20
543.22058039
 42
0.22307879
  0
VERTEX
  8
0
 10
782.82985062
 20
559.23683594
 42
0.22307879
  0
VERTEX
  8
0
 10
769.40743829
 20
568.14302869
 42
0.24449222
  0
VERTEX
  8
0
 10
621.89883256
 20
517.24472982
 42
0.19214270
  0
VERTEX
  8
0
 10
618.41170781
 20
508.55113409
  0
VERTEX
  8
0
 10
618.43188793
 20
480.49673115
 42
0.22623438
  0
VERTEX
  8
0
 10
623.10560374
 20
470.68112075
  0
SEQEND
  0
POLYLINE
  8
CYAN
 66
   1
 39
0.000000
 70
    1
  0
VERTEX
  8
0
 10
248.00560374
 20
314.99149433
 42
-0.26511558
  0
VERTEX
  8
0
 10
257.91077028
 20
313.30471612
 42
-0.26511558
  0
VERTEX
  8
0
 10
261.50206805
 20
303.92068045
 42
0.21500641
  0
VERTEX
  8
0
 10
264.89330162
 20
291.54732514
 42
0.21500641
  0
VERTEX
  8
0
 10
276.41114076
 20
285.89579720
  0
VERTEX
  8
0
 10
279.09509673
 20
325.45690460
  0
VERTEX
  8
0
 10
285.10877252
 20
324.74656438
  0
VERTEX
  8
0
 10
282.52975317
 20
285.87561708
 42
0.21635650
  0
VERTEX
  8
0
 10
297.39442962
 20
295.37641761
 42
0.19287232
  0
VERTEX
  8
0
 10
305.32925284
 20
355.07728486
 42
-0.15252575
  0
VERTEX
  8
0
 10
300.92595063
 20
379.09162775
  0
VERTEX
  8
0
 10
300.92998666
 20
380.60917278
  0
VERTEX
  8
0
 10
300.92998666
 20
450.01264176
 42
0.20316808
  0
VERTEX
  8
0
 10
283.79302869
 20
477.71591061
 42
0.09738112
  0
VERTEX
  8
0
 10
267.97181454
 20
481.14653102
  0
VERTEX
  8
0
 10
257.10280187
 20
407.19849900
  0
VERTEX
  8
0
 10
251.08912608
 20
408.05817211
  0
VERTEX
  8
0
 10
261.85320213
 20
481.45730487
  0
VERTEX
  8
0
 10
259.82308205
 20
481.50977318
 42
0.05176089
  0
VERTEX
  8
0
 10
227.53085390
 20
478.78545697
 42
0.22081156
  0
VERTEX
  8
0
 10
195.48078719
 20
449.10453636
 42
0.13405998
  0
VERTEX
  8
0
 10
198.32618412
 20
325.74749833
 42
0.39022496
  0
VERTEX
  8
0
 10
232.12788526
 20
309.44599733
  0
VERTEX
  8
0
 10
248.00560374
 20
314.99149433
  0
SEQEND
  0
POLYLINE
  8
CYAN
 66
   1
 39
0.000000
 70
    1
  0
VERTEX
  8
0
 10
212.62581721
 20
206.25697131
 42
0.00265956
  0
VERTEX
  8
0
 10
212.61774516
 20
135.33192128
 42
0.20313683
  0
VERTEX
  8
0
 10
229.75470314
 20
107.63268846
 42
0.09738328
  0
VERTEX
  8
0
 10
245.57591728
 20
104.19399600
  0
VERTEX
  8
0
 10
256.44492995
 20
178.15010007
  0
VERTEX
  8
0
 10
262.46264176
 20
177.29042695
  0
VERTEX
  8
0
 10
251.69452969
 20
103.89129420
 42
0.05500662
  0
VERTEX
  8
0
 10
286.01687792
 20
106.57121414
 42
0.22074982
  0
VERTEX
  8
0
 10
318.03465644
 20
136.25617078
 42
0.05886859
  0
VERTEX
  8
0
 10
324.64969980
 20
192.77665110
  0
VERTEX
  8
0
 10
324.63759173
 20
194.79466311
 42
0.06781490
  0
VERTEX
  8
0
 10
315.18522348
 20
259.58899266
 42
0.39068273
  0
VERTEX
  8
0
 10
281.41984656
 20
275.91470981
  0
VERTEX
  8
0
 10
265.59459640
 20
270.40553702
 42
-0.26563084
  0
VERTEX
  8
0
 10
255.66189916
 20
272.03987538
 42
-0.26563084
  0
VERTEX
  8
0
 10
252.02951968
 20
281.42791861
 42
0.21492160
  0
VERTEX
  8
0
 10
248.63732471
 20
293.78003801
 42
0.21492160
  0
VERTEX
  8
0
 10
237.13659106
 20
299.42051368
  0
VERTEX
  8
0
 10
234.45667111
 20
259.89169446
  0
VERTEX
  8
0
 10
228.43895931
 20
260.59799867
  0
VERTEX
  8
0
 10
231.07044696
 20
299.47298199
 42
0.21690454
  0
VERTEX
  8
0
 10
216.15733823
 20
289.96814543
 42
0.19290453
  0
VERTEX
  8
0
 10
208.19829887
 20
230.26324216
 42
-0.15258631
  0
VERTEX
  8
0
 10
212.62581721
 20
206.25697131
  0
SEQEND
  0
POLYLINE
  8
CYAN
 66
   1
 39
0.000000
 70
    1
  0
VERTEX
  8
0
 10
586.99933289
 20
183.91354236
 42
-0.17684919
  0
VERTEX
  8
0
 10
575.70653769
 20
280.47138092
 42
-0.36786433
  0
VERTEX
  8
0
 10
582.36896628
 20
285.21831629
 42
-0.36786433
  0
VERTEX
  8
0
 10
588.12134756
 20
279.40183456
  0
VERTEX
  8
0
 10
590.33712475
 20
248.06210807
  0
VERTEX
  8
0
 10
596.35080053
 20
248.46571047
  0
VERTEX
  8
0
 10
592.00400267
 20
311.45190127
 42
-0.25037606
  0
VERTEX
  8
0
 10
609.23501867
 20
315.68737513
 42
-0.25037606
  0
VERTEX
  8
0
 10
622.33472315
 20
303.71887925
  0
VERTEX
  8
0
 10
630.22111408
 20
281.37545030
 42
0.21513708
  0
VERTEX
  8
0
 10
644.63779186
 20
266.30493662
 42
0.01316576
  0
VERTEX
  8
0
 10
646.65176785
 20
265.55423616
  0
VERTEX
  8
0
 10
646.49839893
 20
226.57835223
  0
VERTEX
  8
0
 10
652.56454303
 20
226.57835223
  0
VERTEX
  8
0
 10
652.46364243
 20
265.55423616
 42
0.23713081
  0
VERTEX
  8
0
 10
668.84182789
 20
281.37545030
  0
VERTEX
  8
0
 10
676.78068712
 20
303.71887925
 42
-0.24996372
  0
VERTEX
  8
0
 10
689.85801316
 20
315.65826290
 42
-0.24996372
  0
VERTEX
  8
0
 10
707.05893929
 20
311.45190127
  0
VERTEX
  8
0
 10
702.71214143
 20
248.46571047
  0
VERTEX
  8
0
 10
708.77828552
 20
248.06210807
  0
VERTEX
  8
0
 10
710.95370247
 20
279.40587058
 42
-0.36418091
  0
VERTEX
  8
0
 10
716.72551952
 20
285.15764858
 42
-0.36418091
  0
VERTEX
  8
0
 10
723.38869246
 20
280.46734490
 42
-0.17687821
  0
VERTEX
  8
0
 10
712.06360907
 20
183.91354236
 42
-0.35987132
  0
VERTEX
  8
0
 10
667.82474983
 20
164.48008672
 42
0.13990213
  0
VERTEX
  8
0
 10
631.28258839
 20
164.50026684
 42
-0.36029651
  0
VERTEX
  8
0
 10
586.99933289
 20
183.91354236
  0
SEQEND
  0
POLYLINE
  8
CYAN
 66
   1
 39
0.000000
 70
    1
  0
VERTEX
  8
0
 10
42.45090060
 20
281.86380921
 42
-0.23427032
  0
VERTEX
  8
0
 10
9.31110741
 20
363.06457638
 42
-0.29643809
  0
VERTEX
  8
0
 10
36.55023349
 20
405.27735157
 42
-0.08574172
  0
VERTEX
  8
0
 10
83.66677785
 20
411.81571047
  0
VERTEX
  8
0
 10
85.68478986
 20
411.79149433
  0
VERTEX
  8
0
 10
85.68478986
 20
366.24899933
  0
VERTEX
  8
0
 10
91.75093396
 20
366.24899933
  0
VERTEX
  8
0
 10
91.74689793
 20
411.72691795
 42
-0.08930923
  0
VERTEX
  8
0
 10
140.82091394
 20
405.24102735
 42
-0.29641640
  0
VERTEX
  8
0
 10
168.03178786
 20
363.06457638
 42
-0.23436774
  0
VERTEX
  8
0
 10
134.93639093
 20
281.92031354
 42
-0.34382123
  0
VERTEX
  8
0
 10
129.99384645
 20
281.57082588
 42
-0.34382123
  0
VERTEX
  8
0
 10
128.45050033
 20
286.27921948
  0
VERTEX
  8
0
 10
152.56170781
 20
354.11671114
  0
VERTEX
  8
0
 10
146.85073382
 20
356.13875917
  0
VERTEX
  8
0
 10
120.10803869
 20
280.91937959
  0
VERTEX
  8
0
 10
104.18592395
 20
278.34439626
  0
VERTEX
  8
0
 10
117.93665777
 20
342.19026017
  0
VERTEX
  8
0
 10
112.01984656
 20
343.45353569
  0
VERTEX
  8
0
 10
98.93102068
 20
282.90106738
 42
-0.35311736
  0
VERTEX
  8
0
 10
88.67066804
 20
274.61592805
 42
-0.35311736
  0
VERTEX
  8
0
 10
78.40380254
 20
282.89299533
  0
VERTEX
  8
0
 10
65.36340894
 20
343.45353569
  0
VERTEX
  8
0
 10
59.44659773
 20
342.19026017
  0
VERTEX
  8
0
 10
73.19733155
 20
278.34439626
  0
VERTEX
  8
0
 10
57.27521681
 20
280.91937959
  0
VERTEX
  8
0
 10
30.53252168
 20
356.13875917
  0
VERTEX
  8
0
 10
24.82154770
 20
354.11671114
  0
VERTEX
  8
0
 10
48.93275517
 20
286.27921948
 42
-0.33749961
  0
VERTEX
  8
0
 10
47.37358990
 20
281.60267540
 42
-0.33749961
  0
VERTEX
  8
0
 10
42.45090060
 20
281.86380921
  0
SEQEND
  0
POLYLINE
  8
CYAN
 66
   1
 39
0.000000
 70
    1
  0
VERTEX
  8
0
 10
381.00470314
 20
694.23649099
 42
-0.18755345
  0
VERTEX
  8
0
 10
412.95386925
 20
693.00550367
 42
0.09317286
  0
VERTEX
  8
0
 10
419.77878586
 20
691.43952635
  0
VERTEX
  8
0
 10
429.75583723
 20
691.03188793
 42
0.26533932
  0
VERTEX
  8
0
 10
446.43672448
 20
699.72144763
 42
0.19943659
  0
VERTEX
  8
0
 10
462.20547031
 20
786.47174783
 42
0.21200935
  0
VERTEX
  8
0
 10
453.12672305
 20
798.90459374
 42
0.21200935
  0
VERTEX
  8
0
 10
437.81577719
 20
800.50903936
 42
-0.06298175
  0
VERTEX
  8
0
 10
401.75793863
 20
793.66797865
  0
VERTEX
  8
0
 10
399.73992662
 20
793.65183456
  0
VERTEX
  8
0
 10
399.73992662
 20
750.01030687
  0
VERTEX
  8
0
 10
393.68589059
 20
750.01030687
  0
VERTEX
  8
0
 10
393.68589059
 20
793.66797865
 42
-0.07394963
  0
VERTEX
  8
0
 10
353.25300200
 20
798.99956638
 42
0.22460066
  0
VERTEX
  8
0
 10
337.22485220
 20
796.36262196
 42
0.22460066
  0
VERTEX
  8
0
 10
329.09739827
 20
782.29849900
 42
0.14503410
  0
VERTEX
  8
0
 10
345.68142095
 20
703.59199466
 42
0.26523041
  0
VERTEX
  8
0
 10
361.65196798
 20
693.70373582
  0
VERTEX
  8
0
 10
374.10713809
 20
693.19923282
 42
0.09498745
  0
VERTEX
  8
0
 10
381.00470314
 20
694.23649099
  0
SEQEND
  0
POLYLINE
  8
CYAN
 66
   1
 39
0.000000
 70
    1
  0
VERTEX
  8
0
 10
9.34743162
 20
66.63475650
 42
0.31201392
  0
VERTEX
  8
0
 10
60.94630974
 20
3.69389591
 42
0.31201392
  0
VERTEX
  8
0
 10
138.05623749
 20
29.73338893
 42
0.18503482
  0
VERTEX
  8
0
 10
148.71134089
 20
70.27121414
  0
VERTEX
  8
0
 10
148.45303536
 20
71.78875917
  0
VERTEX
  8
0
 10
89.02258172
 20
71.78875917
  0
VERTEX
  8
0
 10
89.02258172
 20
77.85490327
  0
VERTEX
  8
0
 10
146.30990660
 20
77.85490327
  0
VERTEX
  8
0
 10
146.30990660
 20
79.87291528
 42
0.14575276
  0
VERTEX
  8
0
 10
141.49089393
 20
83.92104736
 42
0.15806454
  0
VERTEX
  8
0
 10
23.14256171
 20
86.88752502
 42
0.35385256
  0
VERTEX
  8
0
 10
9.34743162
 20
66.63475650
  0
SEQEND
  0
POLYLINE
  8
CYAN
 66
   1
 39
0.000000
 70
    1
  0
VERTEX
  8
0
 10
167.11964643
 20
66.63475650
 42
0.31189002
  0
VERTEX
  8
0
 10
218.72266337
 20
3.71676487
 42
0.31189002
  0
VERTEX
  8
0
 10
295.82441628
 20
29.73338893
 42
0.18503482
  0
VERTEX
  8
0
 10
306.47951968
 20
70.27121414
  0
VERTEX
  8
0
 10
306.28579053
 20
71.78875917
  0
VERTEX
  8
0
 10
246.79076051
 20
71.78875917
  0
VERTEX
  8
0
 10
246.79076051
 20
77.85490327
  0
VERTEX
  8
0
 10
304.07808539
 20
77.85490327
  0
VERTEX
  8
0
 10
304.07808539
 20
79.87291528
 42
0.14562619
  0
VERTEX
  8
0
 10
299.26310874
 20
83.92104736
 42
0.15806454
  0
VERTEX
  8
0
 10
180.91477652
 20
86.88752502
 42
0.35316267
  0
VERTEX
  8
0
 10
167.11964643
 20
66.63475650
  0
SEQEND
  0
POLYLINE
  8
CYAN
 66
   1
 39
0.000000
 70
    1
  0
VERTEX
  8
0
 10
645.97775183
 20
722.29492995
 42
0.30504057
  0
VERTEX
  8
0
 10
655.82485264
 20
721.33401292
 42
0.30504057
  0
VERTEX
  8
0
 10
660.42671781
 20
730.09252835
 42
0.03997039
  0
VERTEX
  8
0
 10
656.38262175
 20
751.97585057
 42
0.03489365
  0
VERTEX
  8
0
 10
656.00323549
 20
753.45707138
 42
-0.23437744
  0
VERTEX
  8
0
 10
660.30742398
 20
784.13380156
 42
-0.23437744
  0
VERTEX
  8
0
 10
687.33488993
 20
799.26997999
  0
VERTEX
  8
0
 10
687.33488993
 20
816.69349566
  0
VERTEX
  8
0
 10
693.38892595
 20
816.69349566
  0
VERTEX
  8
0
 10
693.38892595
 20
799.26997999
 42
-0.23437262
  0
VERTEX
  8
0
 10
720.41814923
 20
784.13462419
 42
-0.23437262
  0
VERTEX
  8
0
 10
724.72461641
 20
753.45707138
 42
0.03490610
  0
VERTEX
  8
0
 10
724.34523015
 20
751.97585057
 42
0.03997153
  0
VERTEX
  8
0
 10
720.30113409
 20
730.09252835
 42
0.30509532
  0
VERTEX
  8
0
 10
724.90243200
 20
721.33296177
 42
0.30509532
  0
VERTEX
  8
0
 10
734.75010007
 20
722.29492995
 42
0.31682490
  0
VERTEX
  8
0
 10
756.15569477
 20
799.82786815
 42
0.31682490
  0
VERTEX
  8
0
 10
690.36190794
 20
846.09593062
 42
0.31683105
  0
VERTEX
  8
0
 10
624.56910527
 20
799.82681741
 42
0.31683105
  0
VERTEX
  8
0
 10
645.97775183
 20
722.29492995
  0
SEQEND
  0
POLYLINE
  8
CYAN
 66
   1
 39
0.000000
 70
    1
  0
VERTEX
  8
0
 10
19.00563709
 20
470.84256171
 42
-0.26448973
  0
VERTEX
  8
0
 10
8.69359573
 20
488.78672448
  0
VERTEX
  8
0
 10
25.98392262
 20
486.81714476
  0
VERTEX
  8
0
 10
26.69022682
 20
492.83082055
  0
VERTEX
  8
0
 10
8.66534356
 20
494.95780520
  0
VERTEX
  8
0
 10
8.66937959
 20
496.91527685
 42
-0.21554900
  0
VERTEX
  8
0
 10
11.50290398
 20
504.01248159
 42
-0.21554900
  0
VERTEX
  8
0
 10
18.70293529
 20
506.57348232
 42
0.04233126
  0
VERTEX
  8
0
 10
24.41794530
 20
505.31827885
  0
VERTEX
  8
0
 10
25.87898599
 20
505.13665777
 42
0.07313282
  0
VERTEX
  8
0
 10
35.94079386
 20
505.72188125
 42
-0.34716246
  0
VERTEX
  8
0
 10
61.06504336
 20
495.61164109
 42
0.05687603
  0
VERTEX
  8
0
 10
119.60353569
 20
458.14926618
 42
0.21848633
  0
VERTEX
  8
0
 10
135.23063282
 20
456.09874599
 42
0.21848633
  0
VERTEX
  8
0
 10
146.97585057
 20
466.60877251
 42
-0.26252709
  0
VERTEX
  8
0
 10
339.80496998
 20
606.42068045
  0
VERTEX
  8
0
 10
339.81304203
 20
606.36821214
 42
-0.39573040
  0
VERTEX
  8
0
 10
342.96055818
 20
604.06563850
 42
-0.39573040
  0
VERTEX
  8
0
 10
340.86240827
 20
600.77831888
 42
0.23563437
  0
VERTEX
  8
0
 10
162.67194797
 20
449.30633756
 42
-0.22536010
  0
VERTEX
  8
0
 10
140.89040857
 20
430.11277693
 42
-0.22536010
  0
VERTEX
  8
0
 10
112.24989993
 20
434.86140761
 42
0.12163390
  0
VERTEX
  8
0
 10
19.00563709
 20
470.84256171
  0
SEQEND
  0
POLYLINE
  8
CYAN
 66
   1
 39
0.000000
 70
    1
  0
VERTEX
  8
0
 10
19.35273516
 20
545.08522348
 42
-0.12158983
  0
VERTEX
  8
0
 10
112.56874583
 20
509.14846564
 42
0.22573579
  0
VERTEX
  8
0
 10
141.22289318
 20
504.36188709
 42
0.22573579
  0
VERTEX
  8
0
 10
163.01501001
 20
523.57321548
 42
-0.23557502
  0
VERTEX
  8
0
 10
341.16914610
 20
675.02501668
 42
0.39315718
  0
VERTEX
  8
0
 10
343.27932089
 20
678.30144017
 42
0.39315718
  0
VERTEX
  8
0
 10
340.16417612
 20
680.64316211
  0
VERTEX
  8
0
 10
340.16014009
 20
680.67948632
 42
0.26256318
  0
VERTEX
  8
0
 10
147.30680454
 20
540.85547031
 42
-0.21824184
  0
VERTEX
  8
0
 10
135.54229684
 20
530.35275443
 42
-0.21824184
  0
VERTEX
  8
0
 10
119.90623749
 20
532.40807205
 42
-0.05687540
  0
VERTEX
  8
0
 10
61.36774516
 20
569.87044696
 42
0.34644606
  0
VERTEX
  8
0
 10
36.29596398
 20
579.98068712
 42
-0.07313282
  0
VERTEX
  8
0
 10
26.23415610
 20
579.39546364
  0
VERTEX
  8
0
 10
24.72064710
 20
579.57708472
 42
-0.04199270
  0
VERTEX
  8
0
 10
19.05003336
 20
580.82018012
 42
0.21586261
  0
VERTEX
  8
0
 10
11.85146512
 20
578.26299205
 42
0.21586261
  0
VERTEX
  8
0
 10
9.02454970
 20
571.16601067
  0
VERTEX
  8
0
 10
9.03665777
 20
569.12781855
 42
-0.00675691
  0
VERTEX
  8
0
 10
27.04539693
 20
567.08962642
  0
VERTEX
  8
0
 10
26.33909273
 20
561.07595063
  0
VERTEX
  8
0
 10
8.99629753
 20
563.04553035
 42
0.26503264
  0
VERTEX
  8
0
 10
19.35273516
 20
545.08522348
  0
SEQEND
  0
POLYLINE
  8
CYAN
 66
   1
 39
0.000000
 70
    1
  0
VERTEX
  8
0
 10
711.53488993
 20
591.41474316
 42
0.29142928
  0
VERTEX
  8
0
 10
773.87815775
 20
631.16774126
 42
0.29142928
  0
VERTEX
  8
0
 10
764.20903936
 20
704.47184790
 42
0.29859390
  0
VERTEX
  8
0
 10
754.77372953
 20
707.31087974
 42
0.29859390
  0
VERTEX
  8
0
 10
748.40800534
 20
699.79006004
 42
0.01330811
  0
VERTEX
  8
0
 10
748.53312208
 20
677.41434290
 42
-0.11815312
  0
VERTEX
  8
0
 10
745.38502335
 20
660.82224817
 42
0.00632880
  0
VERTEX
  8
0
 10
744.75943963
 20
659.38138759
 42
-0.30382310
  0
VERTEX
  8
0
 10
714.56190794
 20
639.43939293
  0
VERTEX
  8
0
 10
714.56190794
 20
619.65480320
  0
VERTEX
  8
0
 10
708.50787191
 20
619.65480320
  0
VERTEX
  8
0
 10
708.50787191
 20
639.43939293
 42
-0.30380233
  0
VERTEX
  8
0
 10
678.31034023
 20
659.38138759
 42
0.00632880
  0
VERTEX
  8
0
 10
677.68475650
 20
660.82224817
 42
-0.11815312
  0
VERTEX
  8
0
 10
674.53665777
 20
677.41434290
 42
0.01330806
  0
VERTEX
  8
0
 10
674.66581054
 20
699.79006004
 42
0.29860135
  0
VERTEX
  8
0
 10
668.29811414
 20
707.31235746
 42
0.29860135
  0
VERTEX
  8
0
 10
658.86074049
 20
704.47184790
 42
0.29142928
  0
VERTEX
  8
0
 10
649.19162210
 20
631.16774126
 42
0.29142928
  0
VERTEX
  8
0
 10
711.53488993
 20
591.41474316
  0
SEQEND
  0
POLYLINE
  8
CYAN
 66
   1
 39
0.000000
 70
    1
  0
VERTEX
  8
0
 10
206.52334890
 20
745.09442962
  0
VERTEX
  8
0
 10
205.90583722
 20
746.45860574
 42
-0.11848011
  0
VERTEX
  8
0
 10
202.76581054
 20
763.11124083
 42
0.01330975
  0
VERTEX
  8
0
 10
202.90707138
 20
785.49099400
 42
0.29811886
  0
VERTEX
  8
0
 10
196.56638379
 20
793.01825657
 42
0.29811886
  0
VERTEX
  8
0
 10
187.13025350
 20
790.22121414
 42
0.29056912
  0
VERTEX
  8
0
 10
177.19260285
 20
717.09331038
 42
0.29056912
  0
VERTEX
  8
0
 10
239.13571774
 20
676.97476445
 42
0.29056912
  0
VERTEX
  8
0
 10
301.80408350
 20
715.95069474
 42
0.29056912
  0
VERTEX
  8
0
 10
293.20907272
 20
789.24853235
 42
0.31416151
  0
VERTEX
  8
0
 10
282.26565762
 20
792.46034690
 42
0.31416151
  0
VERTEX
  8
0
 10
275.46671114
 20
783.30346898
 42
0.03140772
  0
VERTEX
  8
0
 10
276.14879920
 20
756.88365577
 42
-0.32330456
  0
VERTEX
  8
0
 10
244.71220814
 20
725.44302869
  0
VERTEX
  8
0
 10
242.69419613
 20
725.25737158
  0
VERTEX
  8
0
 10
242.69419613
 20
705.29116077
  0
VERTEX
  8
0
 10
236.64016011
 20
705.29116077
  0
VERTEX
  8
0
 10
236.64016011
 20
725.07575050
 42
-0.26665136
  0
VERTEX
  8
0
 10
206.52334890
 20
745.09442962
  0
SEQEND
  0
POLYLINE
  8
CYAN
 66
   1
 39
0.000000
 70
    1
  0
VERTEX
  8
0
 10
169.90853903
 20
822.42868579
 42
-0.29055837
  0
VERTEX
  8
0
 10
160.37277110
 20
895.59177585
 42
-0.29055837
  0
VERTEX
  8
0
 10
222.51720557
 20
935.36410142
 42
-0.29055837
  0
VERTEX
  8
0
 10
284.95952651
 20
896.06110952
 42
-0.29055837
  0
VERTEX
  8
0
 10
275.97525017
 20
822.82825217
 42
-0.31451535
  0
VERTEX
  8
0
 10
265.00568816
 20
819.67571784
 42
-0.31451535
  0
VERTEX
  8
0
 10
258.26517678
 20
828.88632422
 42
-0.03136833
  0
VERTEX
  8
0
 10
259.10063376
 20
855.26577718
 42
0.32328225
  0
VERTEX
  8
0
 10
227.86180787
 20
886.86380921
  0
VERTEX
  8
0
 10
225.84379586
 20
887.13825884
  0
VERTEX
  8
0
 10
225.81150767
 20
907.03585724
  0
VERTEX
  8
0
 10
219.74939960
 20
907.03585724
  0
VERTEX
  8
0
 10
219.75747165
 20
887.25530354
 42
0.26689443
  0
VERTEX
  8
0
 10
189.54379586
 20
867.40613742
 42
0.00877353
  0
VERTEX
  8
0
 10
188.89803202
 20
866.04196131
 42
0.11843931
  0
VERTEX
  8
0
 10
185.70957305
 20
849.40143429
 42
-0.01330444
  0
VERTEX
  8
0
 10
185.72168112
 20
827.02975317
 42
-0.29820697
  0
VERTEX
  8
0
 10
179.32110463
 20
819.55335397
 42
-0.29820697
  0
VERTEX
  8
0
 10
169.90853903
 20
822.42868579
  0
SEQEND
  0
POLYLINE
  8
CYAN
 66
   1
 39
0.000000
 70
    1
  0
VERTEX
  8
0
 10
598.07014676
 20
325.15420280
 42
-0.22664453
  0
VERTEX
  8
0
 10
584.28104322
 20
330.36179023
 42
-0.22664453
  0
VERTEX
  8
0
 10
579.66991328
 20
344.36164109
 42
0.07086273
  0
VERTEX
  8
0
 10
578.56000667
 20
446.92911941
 42
0.17820088
  0
VERTEX
  8
0
 10
535.54002668
 20
524.27548366
  0
VERTEX
  8
0
 10
514.30650434
 20
531.60490327
 42
-0.41424534
  0
VERTEX
  8
0
 10
510.56651389
 20
539.18678284
 42
-0.41424534
  0
VERTEX
  8
0
 10
518.14879920
 20
542.92595063
  0
VERTEX
  8
0
 10
552.87878586
 20
530.99546364
 42
-0.23275017
  0
VERTEX
  8
0
 10
598.70783856
 20
415.54096064
 42
0.06477364
  0
VERTEX
  8
0
 10
601.15366911
 20
366.80597065
 42
0.39823835
  0
VERTEX
  8
0
 10
629.30493662
 20
346.17381588
 42
0.06052172
  0
VERTEX
  8
0
 10
683.85583722
 20
362.51164109
 42
-0.26440714
  0
VERTEX
  8
0
 10
727.02111408
 20
350.27038025
 42
-0.11916040
  0
VERTEX
  8
0
 10
728.18752502
 20
340.11574383
  0
VERTEX
  8
0
 10
728.00186791
 20
338.56187458
  0
VERTEX
  8
0
 10
708.32221481
 20
344.86614410
  0
VERTEX
  8
0
 10
706.45353569
 20
339.05426951
  0
VERTEX
  8
0
 10
725.91524350
 20
332.83475650
 42
-0.11835832
  0
VERTEX
  8
0
 10
719.29212809
 20
325.15420280
 42
0.01935618
  0
VERTEX
  8
0
 10
662.10570380
 20
327.63635757
  0
VERTEX
  8
0
 10
660.08769179
 20
327.64039360
 42
0.02098987
  0
VERTEX
  8
0
 10
598.07014676
 20
325.15420280
  0
SEQEND
  0
POLYLINE
  8
CYAN
 66
   1
 39
0.000000
 70
    1
  0
VERTEX
  8
0
 10
793.55093396
 20
166.01781187
 42
0.41421356
  0
VERTEX
  8
0
 10
801.79249500
 20
167.98739159
 42
0.41421356
  0
VERTEX
  8
0
 10
799.82291528
 20
176.22895263
  0
VERTEX
  8
0
 10
780.60336891
 20
187.90113409
 42
-0.17825439
  0
VERTEX
  8
0
 10
755.27328219
 20
272.73028686
 42
-0.07086549
  0
VERTEX
  8
0
 10
776.31307538
 20
373.12638426
 42
0.22635154
  0
VERTEX
  8
0
 10
774.82880912
 20
387.76781894
 42
0.22635154
  0
VERTEX
  8
0
 10
762.51390927
 20
395.82498332
 42
-0.04105544
  0
VERTEX
  8
0
 10
644.11714476
 20
421.97438292
 42
0.11834161
  0
VERTEX
  8
0
 10
635.98455637
 20
415.89209473
  0
VERTEX
  8
0
 10
653.62601735
 20
405.62848566
  0
VERTEX
  8
0
 10
650.59496331
 20
400.37358239
  0
VERTEX
  8
0
 10
633.01807872
 20
410.59683122
  0
VERTEX
  8
0
 10
632.08172115
 20
408.80483656
 42
0.11406169
  0
VERTEX
  8
0
 10
631.18168779
 20
399.05783856
 42
0.26387346
  0
VERTEX
  8
0
 10
670.65803869
 20
377.89696464
 42
-0.06054163
  0
VERTEX
  8
0
 10
727.48122081
 20
382.07424950
 42
-0.39848283
  0
VERTEX
  8
0
 10
750.52288192
 20
355.83605737
 42
-0.06477895
  0
VERTEX
  8
0
 10
742.39432955
 20
307.71454303
 42
0.23277638
  0
VERTEX
  8
0
 10
762.25963976
 20
185.07591728
  0
VERTEX
  8
0
 10
793.55093396
 20
166.01781187
  0
SEQEND
  0
POLYLINE
  8
CYAN
 66
   1
 39
0.000000
 70
    1
  0
VERTEX
  8
0
 10
697.25140093
 20
19.16707805
 42
-0.39022799
  0
VERTEX
  8
0
 10
696.63812093
 20
33.17333962
 42
-0.39022799
  0
VERTEX
  8
0
 10
710.54606404
 20
34.93985991
 42
0.26102232
  0
VERTEX
  8
0
 10
741.95362367
 20
31.92465800
 42
0.26102232
  0
VERTEX
  8
0
 10
760.92775183
 20
57.13395597
  0
VERTEX
  8
0
 10
760.93985991
 20
59.15196798
  0
VERTEX
  8
0
 10
778.69029353
 20
59.15196798
  0
VERTEX
  8
0
 10
778.69029353
 20
65.21811207
  0
VERTEX
  8
0
 10
760.93985991
 20
65.21811207
  0
VERTEX
  8
0
 10
760.81070714
 20
66.73565710
 42
0.25253046
  0
VERTEX
  8
0
 10
742.03817042
 20
90.99126987
 42
0.25253046
  0
VERTEX
  8
0
 10
711.45820547
 20
88.62301534
 42
-0.35912048
  0
VERTEX
  8
0
 10
697.34994261
 20
90.74674086
 42
-0.35912048
  0
VERTEX
  8
0
 10
696.74689793
 20
105.00120080
 42
-0.30492704
  0
VERTEX
  8
0
 10
763.75833517
 20
119.34769542
 42
-0.30492704
  0
VERTEX
  8
0
 10
802.32982575
 20
62.70323636
 42
-0.30492704
  0
VERTEX
  8
0
 10
764.42684982
 20
5.60928709
 42
-0.30492704
  0
VERTEX
  8
0
 10
697.25140093
 20
19.16707805
  0
SEQEND
  0
POLYLINE
  8
CYAN
 66
   1
 39
0.000000
 70
    1
  0
VERTEX
  8
0
 10
622.18539026
 20
42.11591061
 42
-0.01457432
  0
VERTEX
  8
0
 10
624.20340227
 20
42.54372915
 42
0.25083091
  0
VERTEX
  8
0
 10
648.05669099
 20
61.44961149
 42
0.25083091
  0
VERTEX
  8
0
 10
645.54993329
 20
91.78322215
 42
-0.36191149
  0
VERTEX
  8
0
 10
647.57437511
 20
105.99302336
 42
-0.36191149
  0
VERTEX
  8
0
 10
661.91601067
 20
106.57121414
 42
-0.30500634
  0
VERTEX
  8
0
 10
676.29858903
 20
39.55026465
 42
-0.30500634
  0
VERTEX
  8
0
 10
619.64773382
 20
0.95820802
 42
-0.30500634
  0
VERTEX
  8
0
 10
562.54332739
 20
38.87592153
 42
-0.30500634
  0
VERTEX
  8
0
 10
576.13032021
 20
106.06267512
 42
-0.38927522
  0
VERTEX
  8
0
 10
590.11430036
 20
106.60545098
 42
-0.38927522
  0
VERTEX
  8
0
 10
591.85466978
 20
92.71957972
 42
0.26962828
  0
VERTEX
  8
0
 10
589.27308827
 20
60.36241061
 42
0.26962828
  0
VERTEX
  8
0
 10
616.11924616
 20
42.11591061
  0
VERTEX
  8
0
 10
616.11924616
 20
24.57535023
  0
VERTEX
  8
0
 10
622.18539026
 20
24.57535023
  0
VERTEX
  8
0
 10
622.18539026
 20
42.11591061
  0
SEQEND
  0
POLYLINE
  8
CYAN
 66
   1
 39
0.000000
 70
    1
  0
VERTEX
  8
0
 10
340.26104069
 20
813.93285524
 42
0.12378953
  0
VERTEX
  8
0
 10
423.87131421
 20
817.41997999
 42
0.31435590
  0
VERTEX
  8
0
 10
434.43762508
 20
830.71464310
  0
VERTEX
  8
0
 10
410.17304870
 20
830.71464310
  0
VERTEX
  8
0
 10
410.17304870
 20
836.78078719
  0
VERTEX
  8
0
 10
434.59099400
 20
836.78078719
  0
VERTEX
  8
0
 10
434.52641761
 20
838.79879920
 42
0.34122671
  0
VERTEX
  8
0
 10
424.73098733
 20
850.58398933
  0
VERTEX
  8
0
 10
399.55426951
 20
855.96804536
 42
0.33110774
  0
VERTEX
  8
0
 10
384.49182789
 20
846.94349566
 42
-0.30351741
  0
VERTEX
  8
0
 10
366.64856571
 20
835.01300867
  0
VERTEX
  8
0
 10
352.74446298
 20
835.00493662
 42
-0.22494915
  0
VERTEX
  8
0
 10
340.79041343
 20
840.67546834
 42
-0.22494915
  0
VERTEX
  8
0
 10
337.60937292
 20
853.51817879
 42
0.21997629
  0
VERTEX
  8
0
 10
319.85394119
 20
928.81707377
 42
0.21997629
  0
VERTEX
  8
0
 10
250.98822548
 20
964.06891261
  0
VERTEX
  8
0
 10
231.17134757
 20
964.02048032
 42
0.41231494
  0
VERTEX
  8
0
 10
227.12716531
 20
960.00244879
 42
0.41231494
  0
VERTEX
  8
0
 10
231.11887925
 20
955.93228819
  0
VERTEX
  8
0
 10
249.51507672
 20
955.89596398
 42
-0.24459650
  0
VERTEX
  8
0
 10
322.61957972
 20
894.56050700
 42
-0.04720231
  0
VERTEX
  8
0
 10
318.70867245
 20
848.86867912
 42
0.20562714
  0
VERTEX
  8
0
 10
321.98394557
 20
826.77335674
 42
0.20562714
  0
VERTEX
  8
0
 10
340.26104069
 20
813.93285524
  0
SEQEND
  0
POLYLINE
  8
CYAN
 66
   1
 39
0.000000
 70
    1
  0
VERTEX
  8
0
 10
440.95983989
 20
0.91617745
 42
-0.41231494
  0
VERTEX
  8
0
 10
436.91565764
 20
4.93420898
 42
-0.41231494
  0
VERTEX
  8
0
 10
440.90737158
 20
9.00436958
  0
VERTEX
  8
0
 10
459.30356905
 20
9.02858572
 42
0.24473626
  0
VERTEX
  8
0
 10
532.43632422
 20
70.37615077
 42
0.04725891
  0
VERTEX
  8
0
 10
528.49716478
 20
116.12044696
 42
-0.20562714
  0
VERTEX
  8
0
 10
531.77243790
 20
138.21576934
 42
-0.20562714
  0
VERTEX
  8
0
 10
550.04953302
 20
151.05627085
 42
-0.12378832
  0
VERTEX
  8
0
 10
633.65980654
 20
147.56511007
 42
-0.27703638
  0
VERTEX
  8
0
 10
643.95973983
 20
136.28845897
 42
-0.00504017
  0
VERTEX
  8
0
 10
644.34719813
 20
134.27044696
  0
VERTEX
  8
0
 10
619.96154103
 20
134.27044696
  0
VERTEX
  8
0
 10
619.96154103
 20
128.20430287
  0
VERTEX
  8
0
 10
644.34719813
 20
128.20430287
  0
VERTEX
  8
0
 10
644.32298199
 20
126.69079386
 42
-0.35239577
  0
VERTEX
  8
0
 10
634.51947965
 20
114.40513676
  0
VERTEX
  8
0
 10
609.34276184
 20
108.99686458
 42
-0.33083327
  0
VERTEX
  8
0
 10
594.28032021
 20
117.99316211
 42
0.30393868
  0
VERTEX
  8
0
 10
576.43705804
 20
129.97611741
  0
VERTEX
  8
0
 10
562.53295530
 20
129.97611741
 42
0.22512535
  0
VERTEX
  8
0
 10
550.58710746
 20
124.30794485
 42
0.22512535
  0
VERTEX
  8
0
 10
547.41804536
 20
111.47094730
 42
-0.21994326
  0
VERTEX
  8
0
 10
529.67344645
 20
36.17987538
 42
-0.21994326
  0
VERTEX
  8
0
 10
460.82515010
 20
0.91617745
  0
VERTEX
  8
0
 10
440.95983989
 20
0.91617745
  0
SEQEND
  0
POLYLINE
  8
CYAN
 66
   1
 39
0.000000
 70
    1
  0
VERTEX
  8
0
 10
586.21230821
 20
863.90690460
 42
0.29316816
  0
VERTEX
  8
0
 10
645.54304359
 20
855.52970943
 42
0.29316816
  0
VERTEX
  8
0
 10
677.89526692
 20
905.96429286
 42
0.29316816
  0
VERTEX
  8
0
 10
645.54304359
 20
956.39887630
 42
0.29316816
  0
VERTEX
  8
0
 10
586.21230821
 20
948.02168112
 42
0.36118311
  0
VERTEX
  8
0
 10
584.44161646
 20
937.14935317
 42
0.36118311
  0
VERTEX
  8
0
 10
594.80500334
 20
933.41531021
 42
-0.22568066
  0
VERTEX
  8
0
 10
621.11035678
 20
930.95531011
 42
-0.22568066
  0
VERTEX
  8
0
 10
635.80293529
 20
908.99736491
  0
VERTEX
  8
0
 10
651.32144763
 20
908.99736491
  0
VERTEX
  8
0
 10
651.32144763
 20
902.93122081
  0
VERTEX
  8
0
 10
635.54866578
 20
902.93122081
  0
VERTEX
  8
0
 10
635.46794530
 20
900.91320881
 42
-0.21700609
  0
VERTEX
  8
0
 10
620.24864705
 20
880.42884257
 42
-0.21700609
  0
VERTEX
  8
0
 10
594.80500334
 20
878.46484323
 42
0.36040992
  0
VERTEX
  8
0
 10
584.47854744
 20
874.74509228
 42
0.36040992
  0
VERTEX
  8
0
 10
586.21230821
 20
863.90690460
  0
SEQEND
  0
POLYLINE
  8
CYAN
 66
   1
 39
0.000000
 70
    1
  0
VERTEX
  8
0
 10
238.47655103
 20
503.74826551
 42
-0.22812088
  0
VERTEX
  8
0
 10
298.47608406
 20
492.11644430
 42
0.21393465
  0
VERTEX
  8
0
 10
329.02474983
 20
485.18255504
 42
0.20846565
  0
VERTEX
  8
0
 10
344.20932206
 20
495.78928380
 42
0.20846565
  0
VERTEX
  8
0
 10
346.77518346
 20
514.13295530
  0
VERTEX
  8
0
 10
308.14236157
 20
513.95940627
  0
VERTEX
  8
0
 10
308.13832555
 20
519.95290193
  0
VERTEX
  8
0
 10
346.77518346
 20
520.13452302
 42
0.03032410
  0
VERTEX
  8
0
 10
347.25547031
 20
522.15657105
 42
0.40991870
  0
VERTEX
  8
0
 10
328.73415610
 20
548.91137425
 42
0.21346548
  0
VERTEX
  8
0
 10
298.25006671
 20
541.71514343
 42
-0.22808429
  0
VERTEX
  8
0
 10
238.32318212
 20
529.54249500
 42
0.23148062
  0
VERTEX
  8
0
 10
232.90780476
 20
528.38517702
 42
0.23148062
  0
VERTEX
  8
0
 10
230.49733155
 20
523.39966644
  0
VERTEX
  8
0
 10
230.53769179
 20
509.83055370
 42
0.23238509
  0
VERTEX
  8
0
 10
233.01300166
 20
504.83922144
 42
0.23238509
  0
VERTEX
  8
0
 10
238.47655103
 20
503.74826551
  0
SEQEND
  0
POLYLINE
  8
CYAN
 66
   1
 39
0.000000
 70
    1
  0
VERTEX
  8
0
 10
499.73242161
 20
391.97865243
 42
-0.32932366
  0
VERTEX
  8
0
 10
493.85589653
 20
392.21029960
 42
-0.32932366
  0
VERTEX
  8
0
 10
492.35053369
 20
397.89546364
 42
0.09090539
  0
VERTEX
  8
0
 10
497.15340227
 20
426.20010007
  0
VERTEX
  8
0
 10
496.24529686
 20
464.67148099
 42
-0.23099658
  0
VERTEX
  8
0
 10
503.85723816
 20
481.48152101
 42
-0.05706493
  0
VERTEX
  8
0
 10
509.74983322
 20
484.10493662
  0
VERTEX
  8
0
 10
511.25930620
 20
484.53679119
 42
-0.05925755
  0
VERTEX
  8
0
 10
517.88242161
 20
485.45700467
  0
VERTEX
  8
0
 10
519.90043362
 20
485.48525684
  0
VERTEX
  8
0
 10
519.90446965
 20
452.69256171
  0
VERTEX
  8
0
 10
525.96657772
 20
452.69256171
  0
VERTEX
  8
0
 10
525.96657772
 20
485.46507672
 42
-0.14552932
  0
VERTEX
  8
0
 10
541.59002668
 20
481.45326885
 42
-0.23068390
  0
VERTEX
  8
0
 10
549.22214810
 20
464.67148099
  0
VERTEX
  8
0
 10
548.31404270
 20
426.20010007
 42
0.09092909
  0
VERTEX
  8
0
 10
553.15323549
 20
397.88739159
 42
-0.33449913
  0
VERTEX
  8
0
 10
551.66960530
 20
392.13901610
 42
-0.33449913
  0
VERTEX
  8
0
 10
545.73502335
 20
391.97865243
 42
-0.09696144
  0
VERTEX
  8
0
 10
541.13395597
 20
396.62815210
 42
0.16291737
  0
VERTEX
  8
0
 10
524.44096064
 20
412.42918612
 42
0.21916151
  0
VERTEX
  8
0
 10
521.05877252
 20
412.46954636
 42
0.16309614
  0
VERTEX
  8
0
 10
504.33348899
 20
396.62815210
 42
-0.09714065
  0
VERTEX
  8
0
 10
499.73242161
 20
391.97865243
  0
SEQEND
  0
POLYLINE
  8
CYAN
 66
   1
 39
0.000000
 70
    1
  0
VERTEX
  8
0
 10
375.80630420
 20
604.79012675
 42
0.31513175
  0
VERTEX
  8
0
 10
385.60575024
 20
602.95919246
 42
0.31513175
  0
VERTEX
  8
0
 10
390.68308873
 20
611.53835890
 42
-0.00088234
  0
VERTEX
  8
0
 10
390.08575717
 20
619.53775851
 42
-0.16286948
  0
VERTEX
  8
0
 10
392.03919280
 20
627.30306871
 42
-0.02744172
  0
VERTEX
  8
0
 10
392.92711808
 20
628.53809206
 42
-0.19577194
  0
VERTEX
  8
0
 10
401.30993996
 20
633.05440294
  0
VERTEX
  8
0
 10
401.24132755
 20
650.23172115
  0
VERTEX
  8
0
 10
407.30747165
 20
650.23172115
  0
VERTEX
  8
0
 10
407.33572382
 20
633.08265510
 42
-0.40383492
  0
VERTEX
  8
0
 10
418.60430287
 20
619.60637091
  0
VERTEX
  8
0
 10
418.04733155
 20
611.64733155
 42
0.31603523
  0
VERTEX
  8
0
 10
423.18428621
 20
603.05650136
 42
0.31603523
  0
VERTEX
  8
0
 10
433.00887258
 20
604.97174783
 42
0.30161148
  0
VERTEX
  8
0
 10
441.07487656
 20
648.40077121
 42
0.30161148
  0
VERTEX
  8
0
 10
404.19223596
 20
672.70738173
 42
0.30161148
  0
VERTEX
  8
0
 10
367.46468689
 20
648.16705510
 42
0.30161148
  0
VERTEX
  8
0
 10
375.80630420
 20
604.79012675
  0
SEQEND
  0
POLYLINE
  8
CYAN
 66
   1
 39
0.000000
 70
    1
  0
VERTEX
  8
0
 10
400.97898599
 20
104.98909273
 42
0.02000638
  0
VERTEX
  8
0
 10
402.47231488
 20
104.60970647
  0
VERTEX
  8
0
 10
410.97218145
 20
105.07788526
  0
VERTEX
  8
0
 10
410.96814543
 20
123.38125417
  0
VERTEX
  8
0
 10
417.01814543
 20
123.38125417
  0
VERTEX
  8
0
 10
417.02218145
 20
105.07788526
  0
VERTEX
  8
0
 10
425.51801201
 20
104.60970647
 42
0.23662362
  0
VERTEX
  8
0
 10
437.86017345
 20
113.77148099
 42
0.14240034
  0
VERTEX
  8
0
 10
440.89929953
 20
130.03665777
 42
-0.18807888
  0
VERTEX
  8
0
 10
452.05890594
 20
168.55647098
 42
0.34801404
  0
VERTEX
  8
0
 10
451.67158609
 20
174.62274103
 42
0.34801404
  0
VERTEX
  8
0
 10
445.67795197
 20
175.63565710
 42
0.09521438
  0
VERTEX
  8
0
 10
433.50126751
 20
166.65550367
 42
-0.06137402
  0
VERTEX
  8
0
 10
417.23609073
 20
146.74983322
 42
-0.22715310
  0
VERTEX
  8
0
 10
414.20546001
 20
145.32290186
 42
-0.22715310
  0
VERTEX
  8
0
 10
411.19416278
 20
146.79019346
 42
-0.06143279
  0
VERTEX
  8
0
 10
394.88458973
 20
166.66357572
 42
0.09516688
  0
VERTEX
  8
0
 10
382.69176117
 20
175.63162108
 42
0.34992187
  0
VERTEX
  8
0
 10
376.68857350
 20
174.62836438
 42
0.34992187
  0
VERTEX
  8
0
 10
376.33098732
 20
168.55243496
 42
-0.18822074
  0
VERTEX
  8
0
 10
387.49866578
 20
130.02051368
 42
0.14259699
  0
VERTEX
  8
0
 10
390.53375584
 20
113.75937292
 42
0.20424439
  0
VERTEX
  8
0
 10
400.97898599
 20
104.98909273
  0
SEQEND
  0
POLYLINE
  8
CYAN
 66
   1
 39
0.000000
 70
    1
  0
VERTEX
  8
0
 10
532.20223482
 20
652.62508339
 42
0.15168242
  0
VERTEX
  8
0
 10
557.42738492
 20
625.57968646
 42
0.27600670
  0
VERTEX
  8
0
 10
559.81505473
 20
625.73037051
 42
0.27600670
  0
VERTEX
  8
0
 10
560.81360907
 20
627.90443629
 42
0.13253643
  0
VERTEX
  8
0
 10
542.66360907
 20
670.71857905
 42
0.41476174
  0
VERTEX
  8
0
 10
536.54903269
 20
671.47735157
 42
0.35198568
  0
VERTEX
  8
0
 10
532.20223482
 20
652.62508339
  0
SEQEND
  0
POLYLINE
  8
CYAN
 66
   1
 39
0.000000
 70
    1
  0
VERTEX
  8
0
 10
61.62201468
 20
667.73999333
 42
0.15157710
  0
VERTEX
  8
0
 10
86.79066044
 20
640.68248833
 42
0.29172993
  0
VERTEX
  8
0
 10
89.25717294
 20
640.75314273
 42
0.29172993
  0
VERTEX
  8
0
 10
90.23338893
 20
643.01934623
 42
0.13263124
  0
VERTEX
  8
0
 10
72.08742495
 20
685.83752502
 42
0.41438045
  0
VERTEX
  8
0
 10
65.96881254
 20
686.59226151
 42
0.35207534
  0
VERTEX
  8
0
 10
61.62201468
 20
667.73999333
  0
SEQEND
  0
POLYLINE
  8
CYAN
 66
   1
 39
0.000000
 70
    1
  0
VERTEX
  8
0
 10
475.35887258
 20
928.49136091
  0
VERTEX
  8
0
 10
475.38308873
 20
930.50937292
  0
VERTEX
  8
0
 10
448.72918612
 20
930.08559039
  0
VERTEX
  8
0
 10
448.62828552
 20
936.15577051
  0
VERTEX
  8
0
 10
471.64573049
 20
936.55130087
 42
0.01416451
  0
VERTEX
  8
0
 10
470.96364243
 20
939.95366911
 42
0.26772923
  0
VERTEX
  8
0
 10
464.07011341
 20
947.35170113
 42
0.11075882
  0
VERTEX
  8
0
 10
374.13135424
 20
954.12011341
 42
0.37267458
  0
VERTEX
  8
0
 10
349.97575050
 20
926.09396264
 42
0.22901728
  0
VERTEX
  8
0
 10
373.29471627
 20
878.11845253
 42
0.22901728
  0
VERTEX
  8
0
 10
425.37675117
 20
866.59086057
 42
0.29390052
  0
VERTEX
  8
0
 10
475.35887258
 20
928.49136091
  0
SEQEND
  0
POLYLINE
  8
CYAN
 66
   1
 39
0.000000
 70
    1
  0
VERTEX
  8
0
 10
442.90520347
 20
923.50283522
 42
0.09776010
  0
VERTEX
  8
0
 10
376.10900600
 20
925.60560374
 42
0.21828054
  0
VERTEX
  8
0
 10
367.50213406
 20
919.80718521
 42
0.21828054
  0
VERTEX
  8
0
 10
366.27725150
 20
909.50186791
 42
0.31624442
  0
VERTEX
  8
0
 10
407.99170102
 20
878.18731489
 42
0.31624442
  0
VERTEX
  8
0
 10
451.58669113
 20
906.82598399
 42
0.21746043
  0
VERTEX
  8
0
 10
451.05251129
 20
917.14599701
 42
0.21746043
  0
VERTEX
  8
0
 10
442.90520347
 20
923.50283522
  0
SEQEND
  0
POLYLINE
  8
CYAN
 66
   1
 39
0.000000
 70
    1
  0
VERTEX
  8
0
 10
485.55386925
 20
562.80740494
  0
VERTEX
  8
0
 10
485.58615744
 20
564.82541694
  0
VERTEX
  8
0
 10
458.97665110
 20
564.73258839
  0
VERTEX
  8
0
 10
458.98068712
 20
570.75030020
  0
VERTEX
  8
0
 10
481.99813209
 20
570.87541694
 42
0.01416270
  0
VERTEX
  8
0
 10
481.35640427
 20
574.28585724
 42
0.26891686
  0
VERTEX
  8
0
 10
474.52745163
 20
581.78882588
 42
0.11071948
  0
VERTEX
  8
0
 10
384.71380921
 20
589.67118079
 42
0.37329790
  0
VERTEX
  8
0
 10
360.19899933
 20
561.92755170
 42
0.22886172
  0
VERTEX
  8
0
 10
382.92099429
 20
513.70188018
 42
0.22886172
  0
VERTEX
  8
0
 10
434.82104737
 20
501.52038025
 42
0.29399543
  0
VERTEX
  8
0
 10
485.55386925
 20
562.80740494
  0
SEQEND
  0
POLYLINE
  8
CYAN
 66
   1
 39
0.000000
 70
    1
  0
VERTEX
  8
0
 10
419.86757839
 20
562.92848566
 42
0.04878808
  0
VERTEX
  8
0
 10
386.32418279
 20
561.13649099
 42
0.21876346
  0
VERTEX
  8
0
 10
377.63464318
 20
555.43851996
 42
0.21876346
  0
VERTEX
  8
0
 10
376.29869913
 20
545.13365577
 42
0.31566599
  0
VERTEX
  8
0
 10
417.62493268
 20
513.36807727
 42
0.31566599
  0
VERTEX
  8
0
 10
461.57181454
 20
541.39629753
 42
0.22008142
  0
VERTEX
  8
0
 10
461.18694249
 20
551.76551050
 42
0.22008142
  0
VERTEX
  8
0
 10
453.03562375
 20
558.18615744
 42
0.04866643
  0
VERTEX
  8
0
 10
419.86757839
 20
562.92848566
  0
SEQEND
  0
ENDSEC
  0
EOF
