<?xml version="1.0" encoding="UTF-8"?>
<svg id="Capa_2" xmlns="http://www.w3.org/2000/svg" viewBox="0 0 654.61 731.16">
  <g id="Layer_1">
    <g>
      <path d="M80.71,335.46c-.2-.2-.3-.4-.4-.6-.6-1.6-.2-3.3.3-4.9,3.4-11.5,7.2-21,14.3-30.9,3.3-4.6,6.2-9.4,9.7-13.9,4.3-5.6,8.8-12.2,12.8-2.5,4.1,10.1,11.8,18.7,21.1,24.4,4.9,3,10.3,5.2,15.9,6.5,2.4.5,12.2,3.3,14.3,1.7.3-.3,2.2,0,2.7-.1-2.9-1.9-5.2-6.4-6.7-9.4-1.3-2.4-5-12.6,2.1-8.7,1.2.6,2.1,1.6,3.1,2.5,1.5,1.4,3.3,2.6,5.3,3,5.2,1.2,8.2-3,10.7-6.8,1.6-2.4,3.6-5.8,6.5-6.6,1.1-.3.9,18,1.2,19.3,9-2,18.7-11.1,24.1-18.2,6-7.9,9.5-17.9,8.7-27.7-.5-6.3-2.6-13.2,5.9-12.3,10.5,1.2,22.2,5.3,31.4,10.3,5.5,3,10.6,6.8,14.9,11.4.9,1,11.4,14.2,5.1,13.4l-.9-.1-1.8-.2c-6.5,1.3-12.7,5-17.7,9.3-4.1,3.5-7.4,8.1-8.2,13.4-.3,2.1-.5,4.7-2.4,5.7-3.5,1.8-8.9.5-12.9,2.4-4.7,2.2-8.7,5.9-10.6,10.8-1.4,3.7-1.7,7.7-1.6,11.7,0,1.2.1,2.4-.4,3.5h0c-1,2.4-9.5.8-12.6,1.9-6,2.2-11.1,6.6-14.4,12-3,4.9-2.3,13.8-9,9.4-8.9-6-20.2-16-31.6-11h0c-4.4,3.4-6,3.8-10-.8-6.7-7.9-19.8-12.4-29.2-7,0,.3-.2.4-.5.4h0c-.5,3.6-7.1-6.1-7.9-6.9-3.7-3.4-8.4-5.6-13.4-6-4.2-.2-15.5,4.3-17.9,1.6Z" fill="#ed2024"/>
      <path d="M269.21,697.36l-.4,10.4h11l-.4,23.4h-114.1l-.6-23.4h11l-.2-10.4h7.9l-11.4-76.3h17.7v-13.1c0-16.6,12.6-29.8,28.8-31.9v-20.5h-9.1v-7.5h9.1v-10h7.7v10h8.9v7.5h-8.9v20.5c16,2.1,28.8,15.8,28.8,32.5v12.6h17.5l-11.4,76.3h8.1v-.1ZM214.61,663.06c-.2-.4-.6-.6-1-.6-.6-.2-.8,0-1,0l-.6.6c0,.2-.2.4-.4.6l-.4.4s-.2-.2-.8-.4l-1.2-1-1-1.7-1.2-3.1c-.6-1.4-.8-2.7-1.4-4.8v-.6c0-.2-.2-.2-.2-.4,1.8-.8,3.2-1.7,4.1-2.7.8-1,1.6-1.9,1.8-2.7.6-.6.4-1.2.6-1.7v-1.7c0-.6-.2-1.2-.2-1.7l-.6-1.7c-.4-1-1-1.9-1.8-2.5s-1.8-1-3-1.2c-.2-.2-.6-.2-1.4-.2-.6-.2-1.4-.2-2.4-.2-1.2,0-2.2,0-2.8-.2h-2.8c-1,0-1.6,0-2,.2h-.8v.4c0,.2-.2.4-.2,1v12.7c-.2,1.7-.2,3.5-.2,5.2v4.8c0,1.4,0,2.7-.2,3.7v2.1c0,.6.2.8.6.8h1.6c.6,0,.6.2,1.2.2h1.2c.2,0,.4-.2.6-.2h.6c.2,0,.4-.2.4-.6v-12.5h.4c.2,0,.4,0,.6-.2.2,1,.6,1.7.8,2.3l.8,2.1c.2.6.6,1.4.8,2.3.6.8.6,1.2.8,1.7.8,1.7,1.8,2.9,2.8,3.5,1,1,2,1.4,3,1.5,1,.2,1.8.2,2.6,0,1-.2,1.4-.6,2-.8.6-.6.6-.8.8-1.4.1-.4-.1-1-.5-1.3ZM206.11,646.06v-2.7l-.4-2.7c0-.6,0-.8-.2-1,0-.2-.2-.6-.6-.8-.2-.2-.6-.6-1.2-.8l-1.6-.4h-2.4v13l3.2-.6c1-.2,1.8-.6,2-.8s.6-.8.8-1.4l.4-1.8ZM226.41,636.16q0-.2-.2-.4t-.4-.2h-7.4c-.6,0-.8.2-.8.6v1.5c0,.2.2.2.2.4.2,0,.4.2.6.2h.8v12c0,2.1,0,3.9-.2,5.6v7.9h-1.2c0,.2-.2.4-.2.6v1.5c0,.2.2.2.2.4.2.2.4.2.6.2h7.4c.2,0,.2-.2.4-.2.2-.2.2-.4.2-.6v-1.4q0-.2-.2-.4-.2-.2-.4-.2h-1v-6.4c0-1.7.2-3.3.2-5.4v-13.5h.8q.2,0,.4-.2c.2-.2.2-.4.2-.4v-1.6ZM248.31,645.06v-1.9c0-1.4-.2-2.1-.8-3.5-.4-1.2-1-1.9-1.6-2.5s-1.4-1-2.8-1.2c-.2-.2-1-.2-2.2-.2-.6-.2-1.8-.2-3.5-.2h-6.7c-.2,0-.4,0-.6.2-.2.2-.4.6-.4.8v26.9c-.2,1.4-.2,2.1-.2,2.3,0,.4.2.6.6.8h5.2c.4,0,.6-.2.6-.6v-12.6c1.4,0,2.8-.2,3.7-.2l2.8-.6,1.8-.6c.4-.2.8-.6,1.4-.8l1.2-1,.8-1,.6-1.2c0-.6.2-.6.2-.8v-2.1h-.1ZM242.21,646.06c-.2,1.4-.8,2.3-1.8,3.1-1.2.6-2.8,1.2-4.5,1.5v-13h2.4l1.6.4c.6.2,1,.6,1.4.8.2.2.4.6.4.8.2.2.2.4.2,1,.2,1,.4,1.7.4,2.7.1.9-.1,1.7-.1,2.7Z" fill="#ed2024"/>
      <path d="M289.21,437.96c.4-.2,2.8-.9,7.1-2.3,1.2-.3,2.5-.8,3.9-1.6s2.4-1.4,3.2-2c.8-.5,1.9-1.5,3.4-2.7,1.5-1.3,2.4-2.1,2.9-2.4.4-.3,2.4-2.2,5.8-5.9,1.9-1.9,3.2-2.7,3.8-2.6.6.2,1.3,1.4,2.1,3.8.7,2.1,1.7,5.1,3.1,8.8s2.6,7.2,3.7,10.4,1.9,6.3,2.4,9.1c.5,1.6.5,2.5,0,2.8-.4.3-1.4.1-2.8-.7-3.4-2.1-6.2-3.3-8.3-3.5-3.4-.6-5.6.9-6.6,4.4-.7,2.5-1,5.6-.7,9.3-.1,2.3-1.2,3-3.1,2.3-5.3-2.2-11.8-2.4-19.5-.5-2.2.7-3.1,2-2.8,3.8,1.1,8.8,2.7,16,4.9,21.5,2,4.7,4.8,8.5,8.3,11.3,3.5,2.9,7.5,4.5,12.1,4.9s9.2-.3,13.8-2.2c13.9-6,27.4-4.1,40.4,5.8,1.6,1.1,2.1,2.3,1.6,3.7-.6,1.1-1.6,1.7-3,1.6-5.8-.9-13.7.6-23.8,4.6-5.1,1.9-13.8,6.6-26.3,14.3-8.8,5.2-15.8,8.6-21,10.1-20.5,5.9-39.8,3.7-58-6.4-17.2-9.4-32.1-22.4-44.9-38.7-1.2-1.7-2.5-1.9-4-.7-3.6,2.6-6.1,5.2-7.5,7.8-.9,1.7-2.1,2-3.7.9-2.1-1.8-3.7-2.9-4.8-3.3-2.9-1.5-5.1-.8-6.6,2.1-.4.6-.8,1.3-1.3,2.2-.4.8-.8,1.7-1.2,2.7-.4.9-.8,1.7-1.2,2.3-.3.8-.7,1.2-1.2,1.2-.7.1-1-.5-1-1.6-.4-2-.6-3.3-.6-3.7-.3-7.4-2.6-17.7-7-30.9-.8-2.3,0-3.6,2.3-4,.7,0,1.5-.1,2.7-.1h2.4c6.4-.2,10-.4,10.6-.4,4.3-.5,6.8-1.1,7.6-2s.9-3.3.5-7.4c-1-11.7,1.2-22.6,6.5-32.6,5.4-10,12-17.6,19.7-22.8,7.8-5.2,15.8-8.4,24.1-9.7,21.5-3.4,39.1,3.3,52.8,20.2,3.6,4.7,5.6,10.3,5.9,16.8.3,1.8,1.3,2.6,3.3,2Z" fill="#ed2024"/>
      <path d="M241.51,171.76c-.1-.1-.2-.3-.3-.5-.4-1.2-.1-2.5.3-3.7,2.7-8.6,5.8-15.7,11.2-23,2.5-3.4,4.8-7,7.5-10.3,3.3-4.1,6.8-9,9.7-1.7,3,7.7,8.6,14.3,15.5,18.7,3.6,2.3,7.7,4.1,11.9,5.1,1.8.4,9.1,2.7,10.8,1.5.3-.2,1.6.1,2,0-2.1-1.5-3.8-4.9-4.9-7.1-.9-1.8-3.6-9.5,1.7-6.5.9.5,1.6,1.3,2.3,2,1.1,1.1,2.5,2,4,2.4,3.9,1,6.2-2.1,8.2-4.9,1.3-1.8,2.8-4.3,5-4.8.8-.2.4,13.5.6,14.6,6.8-1.4,14.2-8.1,18.4-13.4,4.6-5.9,7.4-13.3,7-20.8-.3-4.7-1.7-10,4.6-9.1,7.9,1.1,16.6,4.3,23.5,8.2,4.1,2.3,7.9,5.3,11,8.8.7.7,8.4,10.8,3.6,10.1l-.7-.1-1.4-.2c-4.9.9-9.6,3.5-13.5,6.7-3.1,2.6-5.7,6-6.4,10-.3,1.6-.4,3.5-1.9,4.2-2.7,1.3-6.7.3-9.8,1.6-3.6,1.6-6.7,4.3-8.2,8-1.1,2.8-1.4,5.8-1.4,8.8,0,.9,0,1.8-.4,2.6h0c-.8,1.8-7.2.4-9.5,1.3-4.5,1.6-8.4,4.8-11.1,8.8-2.4,3.6-2,10.4-6.9,6.9-6.6-4.6-15-12.3-23.6-8.7h0c-3.3,2.5-4.6,2.8-7.5-.7-5-6-14.7-9.6-21.9-5.7,0,.2-.2.3-.4.3h0c-.4,2.7-5.2-4.7-5.8-5.3-2.7-2.6-6.3-4.4-10-4.8-2.8-.4-11.4,2.8-13.2.7Z" fill="#ed2024"/>
      <path d="M61.51,229.16c-6.3,7.1-5.4,14.6,2.6,23.2,2.5,3,4.8,7,2.4,10.5-2,2.4-5.6,1.9-8.6.1-9.1-4.7-14.5-2.2-17.8,5.6-1.6,3.7-4.2,7.7-9.9,5.4-5.3-2.7-6.9-7.6-7.3-12.3-.3-7.9-4.5-11.2-11.5-11.7-1.7-.2-3.8-.8-5.5-1.4-2.8-1.2-4.9-3.4-5.6-6.4-1-3.5.5-5.9,3.1-6.1,12.2-1.4,13.2-10,11.9-21.5-.9-8.3,2.5-9.1,9.7-4.1,1.1.6,2.3,1.6,3.4,2.7,7.4,7.2,14.4,9.6,21.7,4.9,3.3-2.4,7.3-2.1,11.1,2.2,2.7,3.5,2.2,6.6.3,8.9Z" fill="#ed2024"/>
      <path d="M650.01,192.06c-8.1,1.3-11.6,6.8-11,16.9,0,3.4-.6,7.3-4.2,8.3-2.7.5-4.8-1.8-5.8-4.7-3.5-8.1-8.5-9.4-15-6-3.1,1.6-7.1,2.9-9.6-1.8-2.1-4.7-.4-8.8,1.9-12.2,4.2-5.5,3.1-9.9-1.2-14-1-1-2.1-2.6-2.9-3.9-1.2-2.3-1.5-4.9-.2-7.3,1.2-2.9,3.5-3.6,5.4-2.3,8.9,5.7,14.3.5,19.7-7.8,3.9-6,6.6-4.7,8.7,2.6.4,1,.6,2.3.8,3.6,1,8.8,4.4,14.3,11.8,15.1,3.5.3,6,2.6,6.2,7.5,0,3.6-2.1,5.5-4.6,6Z" fill="#ed2024"/>
      <path d="M290.31,44.76c-9.4,1.5-13.4,7.9-12.7,19.6,0,3.9-.7,8.5-4.8,9.7-3.1.6-5.5-2.1-6.7-5.4-4.1-9.4-9.8-10.9-17.3-6.9-3.6,1.8-8.2,3.3-11-2.1-2.4-5.4-.5-10.3,2.2-14.2,4.8-6.3,3.6-11.5-1.4-16.3-1.2-1.2-2.4-3-3.4-4.5-1.4-2.7-1.7-5.7-.2-8.5,1.4-3.3,4.1-4.2,6.2-2.7,10.3,6.6,16.6.6,22.8-9.1,4.6-6.9,7.7-5.4,10.1,3,.5,1.2.7,2.7,1,4.2,1.2,10.3,5,16.6,13.7,17.5,4.1.3,7,3,7.2,8.8-.4,4.2-2.8,6.3-5.7,6.9Z" fill="#ed2024"/>
    </g>
  </g>
</svg>