<?xml version="1.0" encoding="UTF-8"?>
<svg id="Capa_2" xmlns="http://www.w3.org/2000/svg" viewBox="0 0 831.3 831.7">
  <g id="Layer_1">
    <g id="top_layer">
      <path d="M777.3,152.3c-2.8-.1-5.6.2-8.5.7-4.9,1-11.2,3.3-16.9,8.9-.4-1.7-10.4-12.6-27-12.2-3.1.2-6.4.9-9.6,1.8-5.4,1.7-11.9,5.1-16.5,11.6-3.6-5.4-10.2-8.3-16.3-9.8-3.6-.9-7-1.6-10.9-1.9-7.5-.5-14.6,2.9-20.2,7-7.5,15.3-14,26.5-14.8,26-4.8-2.5-5.7-11.6-12.2-13.6-6.8-2.1-12.5,5.1-18,4.5-.6,0,.4-13.1,2.5-29.6-2.4-6.5-6.1-13.3-12.9-16.9-3.4-2-6.8-3.3-10.2-4.7-5.9-2-13-3.2-19.1-.8-.2-8-3.8-14.3-7.1-18.8-2.1-2.6-4.1-5-6.8-6.9-13.6-9.6-28.3-5.8-29.4-4.7-1.6-7.9-5.7-13.1-9.1-16.8-2-2.1-4.3-3.9-6.4-5.2-2.6-1.5-5.2-2.6-8.2-3.8-5.3-2-11.6-4.5-19.3-6.6,10.8-6.3,23-10.8,32.8-14.3,5.7-2,11.1-3.8,16.4-5.2,3.1-.9,6.5-1.6,9.9-2.3H38.2v754.4h754.1V155.1c-2.3-.6-4.6-1.1-6.5-1.4-2.7-.8-5.7-1.4-8.5-1.4Z" fill="none"/>
      <path d="M617.4,69.7c-1.3-7.9,14.8,7.9,19.1,18.3,13.3-1.4,14.6-.7,24.8,7.6,9.1-6.2,31.6-10.1,26-4.8-2.1,2-10.8,18.6-20.3,37.3,13.7-6.5,36.8-19.5,72.6-45.1,8.7,5.4,17.7,13.6,24.8,20.2,4.1,4,8,7.9,11.6,12,3.6,4.2,7.2,8.6,10.8,13.4,1.9,2.5,3.9,5.2,5.9,8.1V38.4h-212.8c14.8,38.5,26,60.8,33.4,73.4,2.4-20.5,4.6-39.2,4.1-42.1Z" fill="none"/>
      <path d="M0,0v831.7h831.3V0H0ZM792.7,38.6v98.3c-2-2.9-4-5.6-5.9-8.1-3.6-4.8-7.2-9.3-10.8-13.4-3.6-4.2-7.6-8-11.6-12-7.1-6.6-16.1-14.8-24.8-20.2-35.9,25.6-59,38.6-72.6,45.1,9.5-18.7,18.2-35.3,20.3-37.3,5.6-5.3-16.8-1.4-26,4.8-10.2-8.3-11.4-8.9-24.8-7.6-4.4-10.4-20.4-26.2-19.1-18.3.5,2.8-1.6,21.5-4,42.3-7.4-12.6-18.7-34.9-33.4-73.4h212.7v-.2ZM792.7,793H38.6V38.6h501.3c-3.4.7-6.8,1.5-9.9,2.3-5.4,1.4-10.7,3.1-16.4,5.2-9.8,3.5-22,8-32.8,14.3,7.8,2.1,14.1,4.6,19.3,6.6,2.9,1.2,5.6,2.3,8.2,3.8,2.1,1.3,4.4,3.1,6.4,5.2,3.5,3.7,7.5,9,9.1,16.8,1.1-1.1,15.8-4.9,29.4,4.7,2.8,2,4.7,4.3,6.8,6.9,3.3,4.5,6.8,10.8,7.1,18.8,6-2.3,13.2-1.2,19.1.8,3.4,1.3,6.8,2.7,10.2,4.7,6.8,3.6,10.5,10.4,12.9,16.9-2.1,16.5-3.1,29.6-2.5,29.6,5.5.6,11.2-6.6,18-4.5,6.5,2.1,7.5,11.1,12.2,13.6.8.5,7.2-10.7,14.8-26,5.6-4.1,12.8-7.5,20.2-7,3.9.3,7.3,1,10.9,1.9,6,1.6,12.7,4.4,16.3,9.8,4.6-6.4,11.1-9.9,16.5-11.6,3.2-.9,6.5-1.5,9.6-1.8,16.6-.5,26.6,10.4,27,12.2,5.7-5.6,12-8,16.9-8.9,2.8-.5,5.7-.8,8.5-.7,2.8.1,5.8.6,8.9,1.3,2,.3,4.2.8,6.5,1.4v638.1h-.4Z" fill="#27aae1"/>
    </g>
  </g>
</svg>