<?xml version="1.0" encoding="UTF-8"?>
<svg id="Capa_2" xmlns="http://www.w3.org/2000/svg" viewBox="0 0 831.3 831.7">
  <g id="Layer_1">
    <path id="middle_layer" d="M0,0v831.7h831.3V0H0ZM772.6,594.2v-12.8c.6-1.2.9-3.1.9-5.5,3.6-24,3.9-48.8,5.5-73.1.4-6.2-.8-52.6,5.6-54.6,2.5-.8,5.4-1.8,8.1-3v149.9c-6.6-.4-13.4-.7-20.1-.9ZM38.6,38.6h71.7c-.1.7-.2,1.3-.3,2-.1.7-.1,1.3-.1,2-17.4,5-32.6,14.8-45.6,29.3-11,12.4-18.5,26.1-22.4,41.1h-1.1c-.7,0-1.4-.1-2.2-.1V38.6ZM448.2,582.3c0-2.4-.3-4.3-.9-5.5-1.2-4.9-1.8-8.9-1.8-12-.6-2.4-.9-6.1-.9-11.1l7.4-7.4,7.4-7.4,1.8,8.3c1.8,6.8,3.1,11.1,3.7,12.9l.9,3.7-3.7,2.8-2.8,3.7-3.7,3.7-5.5,7.4-1.9.9ZM444.5,542.7c0-3.7.6-8,1.8-12.9l1.8-8.3,2.8-6.5.9-2.8,5.5,17.5-12.8,13ZM482.3,528l3.7,6.5c0,.6.1,1.7.5,3.2.3,1.5.1,2.6-.5,3.2l-1.8,3.7c-.6,1.2-2.2,3.1-4.6,5.5l-5.5,5.5-1.8,1.8c0-1.2-.3-2.1-.9-2.8-1.2-6.1-2.5-10.1-3.7-12-1.2-4.9-1.8-8-1.8-9.2l5.5-6.5,7.4-6.5v.9l3.5,6.7ZM470.3,686.5c-1.2.6-3.4.9-6.5.9v-.9l2.8-7.4,7.4-14.7,2.8-2.8c0-.6.6-1.5,1.8-2.8.6-1.8,1.8-3.1,3.7-3.7l.9-.9,2.8-1.8v6.5c0,6.1.3,10.5.9,12.9v13.8l-16.6.9ZM486.9,690.2v33.2h-1.8l-15.7.9c-2.5.6-6.1.9-11.1.9v-7.4c.6-1.2.9-3.7.9-7.4.6-1.8.9-4.3.9-7.4l1.8-8.3c0-1.2.3-2.1.9-2.8,4.9,0,8.3-.3,10.1-.9,6.3.1,10.9-.2,14-.8ZM470.3,516l-7.4,8.3-2.8-9.2v.9l-2.8-10.1v-.9l3.7-1.8,2.8-.9h.9l1.8.9c.6,0,1.5.6,2.8,1.8,1.2,1.2,1.8,2.2,1.8,2.8l2.8,4.6-3.6,3.6ZM485,767.6h-7.3l-9.2.9h-10.1c-.6,0-1.2-.3-1.8-.9-.6-.6-.6-1.2,0-1.8v-1.8c-.6-1.2-.9-2.8-.9-4.6v-11.1c.6-1.2.9-3.4.9-6.5l.9-7.4v-.9h8.3l15.7-.9h5.5v22.1c.6,2.5.9,6.1.9,11.1l.9,2.8-3.8-1ZM491.5,651.5h1.8c2.4,0,4.3.3,5.5.9,3.7,1.2,6.5,3.4,8.3,6.5l5.5,7.4,1.8,3.7.9,2.8.9.9.9,4.6.9,2.8-9.2,1.8-10.1.9c-1.2.6-3.1.9-5.5.9l-.9-15.7-.8-17.5ZM540.3,488.3l-.9,1.8-1.8,1.8c-.6,0-1.5.6-2.8,1.8l-7.4,8.3-.9-.9c-.6-1.2-1.2-2.6-1.8-4.1s-1.2-3.2-1.8-5.1l-2.8-7.4v-.9c2.4-1.2,5.5-3.7,9.2-7.4l4.6-4.6,4.6,6.5c0,1.2.6,2.5,1.8,3.7v2.8c.6.7.6,1.9,0,3.7ZM526.5,469l-8.3,8.3-1.8-5.5-1.8-7.4c-1.2-2.4-1.8-4.3-1.8-5.5l-1.8-2.8c0-.6.6-.9,1.8-.9l.9-.9.9.9,2.8.9,5.5,5.5c1.2.6,3.1,2.2,5.5,4.6-1.3,1.2-1.9,2.2-1.9,2.8ZM511.8,492c1.2,2.5,1.8,4.3,1.8,5.5l5.5,12h-.9l-4.6,5.5-5.5,5.5-.9.9c-.6-1.8-1.5-4.1-2.8-6.9-1.2-2.8-2.2-6-2.8-9.7l-.9-1.8,3.7-3.7c3.1-1.8,5.5-4.2,7.4-7.3ZM500.7,494.8l-1.8.9-.9-5.5v-.9c0-3.1.3-5.5.9-7.4l4.6-15.7c.6,0,.9-.6.9-1.8.6.6.9,1.5.9,2.8.6.6.9,1.8.9,3.7,1.2,3.7,2.4,8.6,3.7,14.7l-9.2,9.2ZM493.3,693.9v-3.7h.9c1.8-.6,4.9-.9,9.2-.9,3.7,0,6.5-.3,8.3-.9h8.3v1.8c0,1.8.3,3.4.9,4.6v7.4c.6,1.2.9,3.7.9,7.4,0,4.3.3,7.4.9,9.2l-8.3.9c-6.1,1.2-10.8,1.8-13.8,1.8-2.5,0-4,.3-4.6.9l-.9-3.7c.1-5.5-.6-13.8-1.8-24.8ZM497.9,759.3c-.6-3.1-.9-8.3-.9-15.7,0-4.9-.3-8.9-.9-12,7.4,0,12.6-.3,15.7-.9,4.3,0,7.4-.3,9.2-.9h2.8c.6,2.5.9,6.5.9,12,.6.6.9,1.8.9,3.7v3.7l-.9,8.3v3.7c0,1.2-.3,2.2-.9,2.8,0,.6-.9,1.8-2.8,3.7-1.2.6-3.1.9-5.5.9h-16.6v-.9l-1-8.4ZM611.5,793h-75.9c-10-.5-20-.9-29.9-1.4,21.2-.5,42.3-1.6,63.3-3.8-1-17.5.3-35.1,3.7-52.2,1.4-7.2,3.6-14.8,9.3-19.4,5.7-4.6,15.9-3.9,18.7,2.9.4,2.8-4.2,2-7,1.3-7.6-1.8-12.6,7.8-14.1,15.5-3.2,16.6-3.9,33.7-2.2,50.5,11.5.4,22.9.8,34.4,1.2-.6,1.8-.7,3.7-.3,5.4ZM585.5,304c-4.9,1.2-8.9,1.8-12,1.8.6,0,.9-.3.9-.9l.9-3.7,2.8-6.5.9-1.8.9-1.8,2.8-3.7c0-1.2.9-2.1,2.8-2.8v19.4h0ZM586.4,432.1l1.8,1.8.9,1.8c.6,0,.9.6.9,1.8v1.8c0,.6-.6,1.5-1.8,2.8l-.9.9-2.8,2.8-5.5,3.7c0-.6-.6-2.1-1.8-4.6l-3.7-6.5,8.3-7.4,2.8-1.8c0,.8.6,1.7,1.8,2.9ZM582.7,313.2l2.8-.9v17.5h-6.5l-3.7-.9-.9.9h-.9v-.9c-.6-3.1-.9-7.4-.9-12.9v-.9c4.9-1.3,8.3-1.9,10.1-1.9ZM574.4,417.4l2.8,2.8,3.7,4.6-9.2,8.3-5.5-10.1-2.8-8.3.9-.9h4.6l2.8.9,2.7,2.7ZM573.5,455.1l-.9.9-11.1,12.9-1.8.9-.9-3.7c-1.2-3.7-1.8-6.5-1.8-8.3-.6-1.2-.9-2.8-.9-4.6l.9-.9,3.7-2.8,6.5-5.5.9-.9,5.4,12ZM564.3,433.9l1.8,4.6c-1.2.6-2.5,1.5-3.7,2.8-1.2,1.2-3.1,2.5-5.5,3.7,0,.6-.6,1.5-1.8,2.8-1.2-8.6-1.8-14.4-1.8-17.5v-4.6l1.8-3.7,2.8-2.8.9,2.8,5.5,11.9ZM608.5,326.1v2.8c-.6,0-.9.3-.9.9h-.9l-.9.9h-3.7l-7.4-.9h-.9v-18.4h9.2l.9.9c.6.6.9,1.4.9,2.3s.3,1.7.9,2.3l1.8,6.5v1.8l1,.9ZM602.1,303.1h-8.3v-15.7c0-1.8-.3-3.1-.9-3.7,1.8,1.2,3.4,3.4,4.6,6.5l1.8,3.7,2.8,7.4v1.8h0ZM621.4,661.6c-2.5,0-4-.3-4.6-.9h-7.4l-1.8-1.8v-3.7l-.9-1.9v-6.5l15.7-1.8-1,16.6ZM623.3,628.4c0,3.7-.3,6.1-.9,7.4-4.9,1.8-10.1,2.8-15.7,2.8v-3.7l.9-7.4c0-3.1.3-5.2.9-6.5,1.2-.6,3.4-.9,6.5-.9,1.8-.6,4.6-.9,8.3-.9v9.2ZM623.3,613.7c-6.1,1.2-10.8,1.8-13.8,1.8l.9-3.7,3.7-7.4,5.5-5.5c1.2-1.2,2.1-1.8,2.8-1.8v7.4c0,3.1.3,5.2.9,6.5v2.7h0ZM627,598v-2.7h.9l.9.9c1.2,0,3.1.6,5.5,1.8l3.7,2.8c0,.6.6,1.5,1.8,2.8l2.8,5.5.9,2.8h-7.4c-1.8.6-4.6.9-8.3.9v-1.8l-.8-13ZM647.3,656.1l-.9,1.8-.9,1.8-1.8.9-3.7.9c-3.7,0-6.1.3-7.4.9h-3.7v-19.4l10.1-.9c1.8-.6,4.6-.9,8.3-.9v14.9h0ZM641.7,632.1l-12.9,2.8v-16.6h4.6c1.2-.6,3.1-.9,5.5-.9h6.5c0,1.8.3,3.1.9,3.7v3.7c.6,1.8.9,4,.9,6.5l-5.5.8ZM645.4,480l-7.4-8.3-2.8-2.8-3.7-1.8-.9-.9-.9-1.8c0-1.2.3-1.8.9-1.8,1.2-1.2,2.1-1.8,2.8-1.8l2.8-2.8c1.2-.6,3.1-2.1,5.5-4.6,1.2-1.2,2.1-1.8,2.8-1.8l.9-.9,2.8,1.8,8.3,11.1.9.9-.9,1.8-6.5,8.3-4.6,5.4ZM651.9,445.9h.9l3.7-1.8h4.6c3.1,0,5.5.3,7.4.9h3.7l-8.3,12c-.6,0-.9.3-.9.9l-3.7-4.6-7.4-7.4ZM650.9,485.6l1.8-2.8c3.7-5.5,5.8-8.6,6.5-9.2l1.8-3.7,7.4,7.4,1.8,2.8-2.8,6.5v2.8l-2.8,3.7-2.8.9-1.8-.9c-.6,0-1.5-.6-2.8-1.8l-.9-.9-2.8-2.8c-1-1.4-2-2-2.6-2ZM679.5,760.2h-7.4c-1.8-.6-4.3-.9-7.4-.9-1.2,0-2.2.3-2.8.9h-3.7c-1.2,0-1.8-.3-1.8-.9l-.9-1.8.9-.9c-1.2,0-1.8-.6-1.8-1.8s-.2-2.4-.5-3.7c-.3-1.2-.2-2.8.5-4.6v-5.5l.9-1.8,8.3-.9,15.7-2.8v24.7ZM679.5,727.1l-12.9,2.8c-2.5,0-6.1.6-11.1,1.8v-22.1l1.8-.9h5.5l11.1-1.8,5.5-.9v21.1h.1ZM679.5,699.4l-5.5.9-8.3,1.8h-7.4l-1.8.9c0-2.4.3-4.3.9-5.5,0-1.8.6-4,1.8-6.5l1.8-3.7c1.8-4.3,4.9-8.6,9.2-12.9l2.8-2.8c1.8-1.8,4-2.8,6.5-2.8-.6,1.8-.9,4.6-.9,8.3v10.1l.9,12.2ZM681.4,454.2l-1.8,4.6-2.8,6.5-1.8,3.7-5.5-3.7-2.8-3.7,5.5-6.5,5.5-7.4,1.8.9.9,1.8c.6,0,.9.6.9,1.8v2h.1ZM683.2,683.7v-14.7h6.5c.6.6,1.5.9,2.8.9l3.7,2.8,5.5,5.5,2.8,5.5c1.2,3.7,1.8,6.5,1.8,8.3.6.6.9,1.8.9,3.7h-.9l-22.1,2.8-1-14.8ZM704.4,506.8l8.3,11.1-11.1,23-.9-.9c-1.2-1.2-2.2-2.4-2.8-3.7-.6-1.2-1.2-2.4-1.8-3.7-.6-.6-1.2-1.4-1.8-2.3-.6-.9-1.2-2.3-1.8-4.1l-1.8-3.7,6.5-13.8,2.8-7.4c.6,0,.9-.3.9-.9v.9c1,1.2,2.3,3,3.5,5.5ZM704.4,495.7l1.8-.9.9-.9,4.6-2.8c2.4-1.2,4.3-1.8,5.5-1.8h5.5c.6.6,1.8.9,3.7.9l-.9,1.8c-1.2,1.2-2.2,2.5-2.8,3.7s-1.2,2.5-1.8,3.7c0,1.2-1.5,4.6-4.6,10.1l-2.8-2.8-9.1-11ZM695.2,704l12.9-1.8c.6,1.2.9,3.1.9,5.5l1.8,12c-3.7,1.2-8,2.5-12.9,3.7l-12,2.8c-.6-4.9-.9-12-.9-21.2l10.2-1ZM714.5,754.7l-.9.9-.9.9c-.6.6-1.5.9-2.8.9l-1.8.9h-12.9l-7.4.9c-.6-.6-.9-1.8-.9-3.7v-9.2c0-4.9-.3-8.6-.9-11.1v-.9c2.4,0,5.5-.6,9.2-1.8,3.1,0,8.3-.6,15.7-1.8h.9c.6,1.8.9,4.6.9,8.3.6,1.2.9,3.7.9,7.4l.9,3.7v4.6ZM723.8,542.7c-.6.6-1.8,2.8-3.7,6.5l-.9,1.8-.9,1.8-1.8.9h-2.8l-.9-.9-1.8-.9-5.5-5.5.9-.9c1.2-3.7,2.4-6.5,3.7-8.3,1.2-3.7,2.4-6.5,3.7-8.3l2.8-6.5,5.5,6.5,3.7,4.6.9,1.8-2.9,7.4ZM735.7,505.8l-.9,7.4-2.8,8.3c0,1.2-.3,2.2-.9,2.8v-.9l-8.3-6.5-2.8-3.7.9-.9c1.2-3.7,3.7-9.2,7.4-16.6l1.8-3.7,1.8,1.8,2.8,3.7c0,1.2.3,2.2.9,2.8v5.5h.1ZM700.7,385.2c-10,8.1-19.3,17.1-29.5,24.8-4.8,3.6-22.6,28.5-26.5,12.9,4-1.6,9.2-2.6,12.3-5.8,8.8-9.1-9.4-23.9-13.6-31-2.6-4.3-13.8-29.6-18.3-29.6,3.1,0,5.2-.3,6.5-.9,8.8-4.4,28.3.9,31.4-13.1,1.5-6.6-5.4-14.7-8.2-20.2-18.8-37-29.7-76.3-43.4-115.2l-1.8-3.7-.9-3.7-2.8-7.4v-.9c0-14.4-12.3-3-15.2,2.2-6.5,11.5-12.3,23.4-18.4,35-12.3,23.3-24.6,46.7-36.9,70-5.8,11-11.6,22-18.6,32.3-2.9,4.3-20.7,20.2-11.4,24.5,2.3,1.1,5.1.6,7.6,0,4.6-1.1,8.9-1,13.6-1l4.6.9h3.7c-8.5,10.8-16.6,22.9-26.3,32.6-2.5,3.1-13.3,12.3-13.3,16.2l-3.7,2.8-1.8-1.8v-.9c0-6.3-19.9-28.2-26.4-27.3-11,1.6-21,28.7-25.9,37.1-8.7,14.8-17.4,29.6-26.2,44.3-7.6,12.8-15.1,25.5-22.7,38.3-1.9,3.2-18.8,24.5-10.2,26.1,1.6.3,3.2-.2,4.7-.7,4.7-1.6,18-8.9,22.6-5.5,3.6,2.6,3.1,18.6,3.2,22.7.6,15.6-1.2,31.1-1.8,46.7-.7,18.2-.9,38.3-11.6,53.9-8.3,12.1-16.5,24.2-24.8,36.3-4.5,6.6-13,14.6-15.5,22.3-.6,1.8-.6,3.7,0,5.5,3.9,11.6,39.4-1.6,48.5-2.4,4.5,15.2-1.6,38.8-1.9,55.2-.2,8-4.3,27.5,2.9,33.4-.6.8-1,1.8-1.3,2.8h-220c-7.6-48.5-9.2-74.9-9.2-88.6,0-8.5.6-14,2-16.3l25.1-18.4c8.8-6.4,23.6-12.8,34.1-14.9l4.4-.9,7.3-1.5c4.7-.9,11.1-2,20.1-4.1l-.3-5.8c-22.2,2.3-33.6,3.2-39.4,3.8l-5.8.6c-3.2-.9,1.5-5.5,5.3-12.3.9-1.7,2.3-3.5,3.8-5.3,2.9-3.2,7.3-5.8,12.8-7.9l14.6.9.9-2c-4.7-.3-7.9-.9-9.9-1.7-1.2-.3-2-.9-2.6-1.2-3.2-2-3.2-10.8,1.8-19.5l2.9-5.3c1.7-3.2,5.3-7.3,9.9-10.8l16.6-16.1-4.4-2.9c-4.4,7-7.3,10.2-9.3,12.3-1.2.9-2,1.5-2.9,1.8-3.2,0-9.3-32.4-8.8-36.8l1.5-4.1c1.2-3.2,3.5-8.2,8.5-16.3l-4.1-2c-3.2,7-5.3,9.3-6.4,10.2-.9.6-1.5.6-1.8-.3l-1.4-3.2c-.9-2.3-2-5.8-3.2-11.4l-2.3.3c3.8,24.2,5,37.3,5.8,44.6.3,4.4.6,7.3.3,8.8-1.5,5.5-4.7,14.9-7.9,20.7-3.2,5.8-6.1,7.6-7,3.8-.3-.9-.6-1.8-1.5-2.9-1.2-2-3.5-5.5-7-10.5l-1.5.9c2.3,6.1,3.8,9.9,4.4,13.1l.9,4.1c0,5.5-3.5,17.5-8.8,26.6l-2,3.5c-5.3,9-13.7,14.9-19.3,11.7-1.2-.9-2.3-2.6-3.8-5.5-2.3-5-5.5-14-8.8-31.2l-4.1.3c6.7,27.7,7.9,42.6,7.6,50.8-.3,5-1.2,7.9-2.6,9.3-8.8,5.5-20.4,10.5-20.4,7.9.3-7.9.6-15.8.6-23.1,0-12.5-.6-26.8-3.8-34.7-2-10.2-1.5-21.9,1.8-26.3,3.2-4.4,8.2-7.9,12.5-8.2.9,0,2,.3,3.8.6,2.9.6,8.2,2.3,15.5,5.5l2-2.9-20.1-13.1c3.5-17.8,5.3-27.1,6.7-32.7l1.5-5.8c.3-.9,1.2-1.7,2.9-2.9,3.2-2,8.5-5,19.8-10.5l-1.2-3.2c-7.9,3.5-12,5-14.3,5.8-1.5.6-2.3.9-2.9.9-.3,0-.6-.3-.9-1.2-.9-1.2-.9-3.5-.6-8.2l-5-.3c-6.1,23.6-9.3,36.2-11.1,42.9-1.2,3.8-1.7,6.4-2.3,7.9-1.2,3.5-7.6,11.1-13.4,16.6-6.1,5.5-10.5,16.9-9.3,25.4.9,8.5-.9,7.3-4.1-2.9l-6.1-19c-3.2-10.2-3.8-21-1.8-24.8.6-.9,1.5-2,2.3-3.8,2-3.2,4.1-7,8.5-14.9l-2.6-.6-9.9,12.5-2.6,3.8c-3.2,4.4-9.9,6.7-15.5,4.7-5.5-2-8.2-7.9-5-13.4.6-.9,1.8-2.6,3.8-4.7,3.2-3.5,8.8-9,18.4-17.2l-3.2-4.7-17.8,9.3-11.7-18.7-2,1.5c3.8,14,5.3,21.9,6.1,26.3.3,2.6.3,4.4,0,5.5-1.5,3.8-7.3,6.4-12.8,5.3-5.5-.9-9.9-4.4-10.8-7.9l-.9-3.5-4.3-16-6.1,2c1.5,7.3,2.6,11.7,3.5,14.9l.9,3.8.6,2.3.9,5-17.5,9.6,1.2,3.5,19.5-6.4,12,2.6,5.8,1.8,11.1,3.8c10.2,3.5,19,13.4,20.4,22.5,1.2,9-.3,15.5-3.5,14.3l-4.4-1.5-21.6-7-.9,3.2c12,6.1,18.4,9.6,22.8,11.7,2,1.2,3.8,2,5,2.9,4.4,2,9.9,12,13.7,22.2l1.2,3.2c3.8,10.2,6.1,21,5.3,24.8-.9,4.4-1.5,9.3-2.3,12.5-.9,3.2-4.1,4.7-8.5,3.5-.9-.3-2.3-1.5-3.8-2.9-2.6-2.6-7-7-13.7-16l-1.8,1.5,8.5,19c3.5,3.8,5.5,5.8,7,7.9l2,2.3c2,2.9,2.3,5.5.9,8.2-1.2,2-53.1-28.9-54.3-33.6-.3-1.2,0-3.5.3-6.7.9-5.5,1.8-15.2,5.5-32.7l-2.3.9c-5,10.5-8.5,14.6-10.5,16.6-1.5.9-2.3,1.5-3.2,1.2-.9-.6-2-2-3.5-4.1-2.3-3.5-5.8-9.6-11.4-21l-3.2,1.2,7.3,21-19.9-6.8-2,4.7,23,10.8,5,2.6c3.8,3.2,7.3,11.1,7.3,17.8s62.7,49.3,62.7,59.8l-10.2,67.6H38.6V151.3c.2,0,.5,0,.7.1,2.2,19.4,9.5,37.1,22,53,14.7,18.7,33.3,30.9,56.1,36.7,8.3,1.4,12.5,2.1,12.8,2.1,23.7,2.8,45.5-2,65.3-14.5,19.8-12.4,33.5-29.9,41.2-52.4,5-15,6.6-30.5,4.7-46.7-.5-2.9-1.7-4.4-3.7-4.5-2-.1-3.2,1-3.6,3.4-.2,1.7-.9,4.1-2,7.2-1.1,3.1-1.8,5-2,5.7-4.4,16.3-13.4,28.7-27,36.9-22.2,13.8-45.7,15.7-70.4,5.7-9.8-4-17.9-10.5-24.3-19.5-6.5-9-10.4-19.1-11.7-30.3-1.3-11.2.1-21.9,4.4-32,2.1-4.7,5.8-10.5,10.9-17.4,10.3-14.3,22.9-23,37.5-26,6.3-1.4,12.9-1.8,19.7-1.3,1.2.1,6.3.3,15.2.9,2.3.3,3.8-.4,4.5-2.2.8-2.1.1-3.7-2-5-.4-.4-1-.8-1.8-1.2-7.8-4-15.8-6.9-24.2-8.8.2-.5.4-1.1.6-1.7.1-.2.1-.5.1-.7h631.1v378.4c-17.3-15.3-34.7-30.6-52-45.9-13.8-12.5-28,4.3-40,13.9ZM133.8,241.5c.3-.4.7-.6,1.2-.4.2.1.4.3.5.9-.1.2-.2.4-.5.4-.3.1-.5.1-.7,0-.4-.1-.6-.4-.5-.9ZM792.8,793h-42.4c0-.1,0-.2-.1-.2,6.3-.7,10.9-2.9,8.5-8.6-5.1-12.2-2.3-30.2-2.5-43.1-.3-17.8-.4-35.5-.4-53.3,0-14.6-.5-29.4.4-44,1-16.1,8.9-9.8,22.7-9.8h0c1,0,1.9-.1,2.8-.3,3.6.2,7.3.2,10.9,0v159.3h.1Z" fill="#8dc63f"/>
  </g>
</svg>