  0
SECTION
  2
HEADER
  9
$ACADVER
  1
AC1021
  9
$ACADMAINTVER
 70
    25
  9
$DWGCODEPAGE
  3
ANSI_1252
  9
$INSBASE
 10
0.0
 20
0.0
 30
0.0
  9
$EXTMIN
 10
1.000000000000000E+20
 20
1.000000000000000E+20
 30
1.000000000000000E+20
  9
$EXTMAX
 10
-1.000000000000000E+20
 20
-1.000000000000000E+20
 30
-1.000000000000000E+20
  9
$LIMMIN
 10
0.0
 20
0.0
  9
$LIMMAX
 10
12.0
 20
9.0
  9
$ORTHOMODE
 70
     0
  9
$REGENMODE
 70
     1
  9
$FILLMODE
 70
     1
  9
$QTEXTMODE
 70
     0
  9
$MIRRTEXT
 70
     1
  9
$LTSCALE
 40
1.0
  9
$ATTMODE
 70
     1
  9
$TEXTSIZE
 40
0.2
  9
$TRACEWID
 40
0.05
  9
$TEXTSTYLE
  7
Standard
  9
$CLAYER
  8
0
  9
$CELTYPE
  6
ByLayer
  9
$CECOLOR
 62
   256
  9
$CELTSCALE
 40
1.0
  9
$DISPSILH
 70
     0
  9
$DIMSCALE
 40
1.0
  9
$DIMASZ
 40
0.18
  9
$DIMEXO
 40
0.0625
  9
$DIMDLI
 40
0.38
  9
$DIMRND
 40
0.0
  9
$DIMDLE
 40
0.0
  9
$DIMEXE
 40
0.18
  9
$DIMTP
 40
0.0
  9
$DIMTM
 40
0.0
  9
$DIMTXT
 40
0.18
  9
$DIMCEN
 40
0.09
  9
$DIMTSZ
 40
0.0
  9
$DIMTOL
 70
     0
  9
$DIMLIM
 70
     0
  9
$DIMTIH
 70
     1
  9
$DIMTOH
 70
     1
  9
$DIMSE1
 70
     0
  9
$DIMSE2
 70
     0
  9
$DIMTAD
 70
     0
  9
$DIMZIN
 70
     0
  9
$DIMBLK
  1

  9
$DIMASO
 70
     1
  9
$DIMSHO
 70
     1
  9
$DIMPOST
  1

  9
$DIMAPOST
  1

  9
$DIMALT
 70
     0
  9
$DIMALTD
 70
     2
  9
$DIMALTF
 40
25.4
  9
$DIMLFAC
 40
1.0
  9
$DIMTOFL
 70
     0
  9
$DIMTVP
 40
0.0
  9
$DIMTIX
 70
     0
  9
$DIMSOXD
 70
     0
  9
$DIMSAH
 70
     0
  9
$DIMBLK1
  1

  9
$DIMBLK2
  1

  9
$DIMSTYLE
  2
Standard
  9
$DIMCLRD
 70
     0
  9
$DIMCLRE
 70
     0
  9
$DIMCLRT
 70
     0
  9
$DIMTFAC
 40
1.0
  9
$DIMGAP
 40
0.09
  9
$DIMJUST
 70
     0
  9
$DIMSD1
 70
     0
  9
$DIMSD2
 70
     0
  9
$DIMTOLJ
 70
     1
  9
$DIMTZIN
 70
     0
  9
$DIMALTZ
 70
     0
  9
$DIMALTTZ
 70
     0
  9
$DIMUPT
 70
     0
  9
$DIMDEC
 70
     4
  9
$DIMTDEC
 70
     4
  9
$DIMALTU
 70
     2
  9
$DIMALTTD
 70
     2
  9
$DIMTXSTY
  7
Standard
  9
$DIMAUNIT
 70
     0
  9
$DIMADEC
 70
     0
  9
$DIMALTRND
 40
0.0
  9
$DIMAZIN
 70
     0
  9
$DIMDSEP
 70
    46
  9
$DIMATFIT
 70
     3
  9
$DIMFRAC
 70
     0
  9
$DIMLDRBLK
  1

  9
$DIMLUNIT
 70
     2
  9
$DIMLWD
 70
    -2
  9
$DIMLWE
 70
    -2
  9
$DIMTMOVE
 70
     0
  9
$DIMFXL
 40
1.0
  9
$DIMFXLON
 70
     0
  9
$DIMJOGANG
 40
0.7853981633974483
  9
$DIMTFILL
 70
     0
  9
$DIMTFILLCLR
 70
     0
  9
$DIMARCSYM
 70
     0
  9
$DIMLTYPE
  6

  9
$DIMLTEX1
  6

  9
$DIMLTEX2
  6

  9
$LUNITS
 70
     2
  9
$LUPREC
 70
     4
  9
$SKETCHINC
 40
0.1
  9
$FILLETRAD
 40
0.5
  9
$AUNITS
 70
     0
  9
$AUPREC
 70
     0
  9
$MENU
  1
.
  9
$ELEVATION
 40
0.0
  9
$PELEVATION
 40
0.0
  9
$THICKNESS
 40
0.0
  9
$LIMCHECK
 70
     0
  9
$CHAMFERA
 40
0.5
  9
$CHAMFERB
 40
0.5
  9
$CHAMFERC
 40
1.0
  9
$CHAMFERD
 40
0.0
  9
$SKPOLY
 70
     0
  9
$TDCREATE
 40
2459442.950848426
  9
$TDUCREATE
 40
2459442.867515093
  9
$TDUPDATE
 40
2459442.950848518
  9
$TDUUPDATE
 40
2459442.867515185
  9
$TDINDWG
 40
0.0000000116
  9
$TDUSRTIMER
 40
0.0000000116
  9
$USRTIMER
 70
     1
  9
$ANGBASE
 50
0.0
  9
$ANGDIR
 70
     0
  9
$PDMODE
 70
     0
  9
$PDSIZE
 40
0.0
  9
$PLINEWID
 40
0.0
  9
$SPLFRAME
 70
     0
  9
$SPLINETYPE
 70
     6
  9
$SPLINESEGS
 70
     8
  9
$HANDSEED
  5
11D
  9
$SURFTAB1
 70
     6
  9
$SURFTAB2
 70
     6
  9
$SURFTYPE
 70
     6
  9
$SURFU
 70
     6
  9
$SURFV
 70
     6
  9
$UCSBASE
  2

  9
$UCSNAME
  2

  9
$UCSORG
 10
0.0
 20
0.0
 30
0.0
  9
$UCSXDIR
 10
1.0
 20
0.0
 30
0.0
  9
$UCSYDIR
 10
0.0
 20
1.0
 30
0.0
  9
$UCSORTHOREF
  2

  9
$UCSORTHOVIEW
 70
     0
  9
$UCSORGTOP
 10
0.0
 20
0.0
 30
0.0
  9
$UCSORGBOTTOM
 10
0.0
 20
0.0
 30
0.0
  9
$UCSORGLEFT
 10
0.0
 20
0.0
 30
0.0
  9
$UCSORGRIGHT
 10
0.0
 20
0.0
 30
0.0
  9
$UCSORGFRONT
 10
0.0
 20
0.0
 30
0.0
  9
$UCSORGBACK
 10
0.0
 20
0.0
 30
0.0
  9
$PUCSBASE
  2

  9
$PUCSNAME
  2

  9
$PUCSORG
 10
0.0
 20
0.0
 30
0.0
  9
$PUCSXDIR
 10
1.0
 20
0.0
 30
0.0
  9
$PUCSYDIR
 10
0.0
 20
1.0
 30
0.0
  9
$PUCSORTHOREF
  2

  9
$PUCSORTHOVIEW
 70
     0
  9
$PUCSORGTOP
 10
0.0
 20
0.0
 30
0.0
  9
$PUCSORGBOTTOM
 10
0.0
 20
0.0
 30
0.0
  9
$PUCSORGLEFT
 10
0.0
 20
0.0
 30
0.0
  9
$PUCSORGRIGHT
 10
0.0
 20
0.0
 30
0.0
  9
$PUCSORGFRONT
 10
0.0
 20
0.0
 30
0.0
  9
$PUCSORGBACK
 10
0.0
 20
0.0
 30
0.0
  9
$USERI1
 70
     0
  9
$USERI2
 70
     0
  9
$USERI3
 70
     0
  9
$USERI4
 70
     0
  9
$USERI5
 70
     0
  9
$USERR1
 40
0.0
  9
$USERR2
 40
0.0
  9
$USERR3
 40
0.0
  9
$USERR4
 40
0.0
  9
$USERR5
 40
0.0
  9
$WORLDVIEW
 70
     1
  9
$SHADEDGE
 70
     3
  9
$SHADEDIF
 70
    70
  9
$TILEMODE
 70
     1
  9
$MAXACTVP
 70
    64
  9
$PINSBASE
 10
0.0
 20
0.0
 30
0.0
  9
$PLIMCHECK
 70
     0
  9
$PEXTMIN
 10
1.000000000000000E+20
 20
1.000000000000000E+20
 30
1.000000000000000E+20
  9
$PEXTMAX
 10
-1.000000000000000E+20
 20
-1.000000000000000E+20
 30
-1.000000000000000E+20
  9
$PLIMMIN
 10
0.0
 20
0.0
  9
$PLIMMAX
 10
12.0
 20
9.0
  9
$UNITMODE
 70
     0
  9
$VISRETAIN
 70
     1
  9
$PLINEGEN
 70
     0
  9
$PSLTSCALE
 70
     1
  9
$TREEDEPTH
 70
  3020
  9
$CMLSTYLE
  2
Standard
  9
$CMLJUST
 70
     0
  9
$CMLSCALE
 40
1.0
  9
$PROXYGRAPHICS
 70
     1
  9
$MEASUREMENT
 70
     0
  9
$CELWEIGHT
370
    -1
  9
$ENDCAPS
280
     0
  9
$JOINSTYLE
280
     0
  9
$LWDISPLAY
290
     1
  9
$INSUNITS
 70
     1
  9
$HYPERLINKBASE
  1

  9
$STYLESHEET
  1

  9
$XEDIT
290
     1
  9
$CEPSNTYPE
380
     0
  9
$PSTYLEMODE
290
     1
  9
$FINGERPRINTGUID
  2
{60E351F1-6BCD-47B5-AE8C-7BA853D658B0}
  9
$VERSIONGUID
  2
{FAEB1C32-E019-11D5-929B-00C0DF256EC4}
  9
$EXTNAMES
290
     1
  9
$PSVPSCALE
 40
0.0
  9
$OLESTARTUP
290
     0
  9
$SORTENTS
280
   127
  9
$INDEXCTL
280
     0
  9
$HIDETEXT
280
     1
  9
$XCLIPFRAME
290
     0
  9
$HALOGAP
280
     0
  9
$OBSCOLOR
 70
   257
  9
$OBSLTYPE
280
     0
  9
$INTERSECTIONDISPLAY
280
     0
  9
$INTERSECTIONCOLOR
 70
   257
  9
$DIMASSOC
280
     2
  9
$PROJECTNAME
  1

  9
$CAMERADISPLAY
290
     0
  9
$LENSLENGTH
 40
50.0
  9
$CAMERAHEIGHT
 40
0.0
  9
$STEPSPERSEC
 40
2.0
  9
$STEPSIZE
 40
6.0
  9
$3DDWFPREC
 40
2.0
  9
$PSOLWIDTH
 40
0.25
  9
$PSOLHEIGHT
 40
4.0
  9
$LOFTANG1
 40
1.570796326794897
  9
$LOFTANG2
 40
1.570796326794897
  9
$LOFTMAG1
 40
0.0
  9
$LOFTMAG2
 40
0.0
  9
$LOFTPARAM
 70
     7
  9
$LOFTNORMALS
280
     1
  9
$LATITUDE
 40
37.795
  9
$LONGITUDE
 40
-122.394
  9
$NORTHDIRECTION
 40
0.0
  9
$TIMEZONE
 70
 -8000
  9
$LIGHTGLYPHDISPLAY
280
     1
  9
$TILEMODELIGHTSYNCH
280
     1
  9
$CMATERIAL
347
3C
  9
$SOLIDHIST
280
     1
  9
$SHOWHIST
280
     1
  9
$DWFFRAME
280
     2
  9
$DGNFRAME
280
     2
  9
$REALWORLDSCALE
290
     1
  9
$INTERFERECOLOR
 62
   256
  9
$CSHADOW
280
     0
  9
$SHADOWPLANELOCATION
 40
0.0
  0
ENDSEC
  0
SECTION
  2
CLASSES
  0
CLASS
  1
ACDBDICTIONARYWDFLT
  2
AcDbDictionaryWithDefault
  3
ObjectDBX Classes
 90
        0
 91
        4
280
     0
281
     0
  0
CLASS
  1
VISUALSTYLE
  2
AcDbVisualStyle
  3
ObjectDBX Classes
 90
     4095
 91
        4
280
     0
281
     0
  0
CLASS
  1
MATERIAL
  2
AcDbMaterial
  3
ObjectDBX Classes
 90
     1153
 91
        4
280
     0
281
     0
  0
CLASS
  1
SUN
  2
AcDbSun
  3
SCENEOE
 90
     1024
 91
        4
280
     0
281
     0
  0
ENDSEC
  0
SECTION
  2
TABLES
  0
TABLE
  2
VPORT
  5
8
330
0
100
AcDbSymbolTable
 70
     1
  0
VPORT
  5
29
330
8
100
AcDbSymbolTableRecord
100
AcDbViewportTableRecord
  2
*Active
 70
     0
 10
0.0
 20
0.0
 11
1.0
 21
1.0
 12
0.0
 22
0.0
 13
0.0
 23
0.0
 14
0.5
 24
0.5
 15
0.5
 25
0.5
 16
0.0
 26
0.0
 36
1.0
 17
6.0
 27
-6.0
 37
0.0
 40
12.0
 41
1.0
 42
50.0
 43
0.0
 44
0.0
 50
0.0
 51
0.0
 71
     0
 72
   100
 73
     1
 74
     3
 75
     0
 76
     0
 77
     0
 78
     0
281
     0
 65
     1
110
0.0
120
0.0
130
0.0
111
1.0
121
0.0
131
0.0
112
0.0
122
1.0
132
0.0
 79
     0
146
0.0
 60
     3
 61
     5
292
     1
282
     1
141
0.0
142
0.0
 63
   250
361
3F
  0
ENDTAB
  0
TABLE
  2
LTYPE
  5
5
330
0
100
AcDbSymbolTable
 70
     1
  0
LTYPE
  5
14
330
5
100
AcDbSymbolTableRecord
100
AcDbLinetypeTableRecord
  2
ByBlock
 70
     0
  3

 72
    65
 73
     0
 40
0.0
  0
LTYPE
  5
15
330
5
100
AcDbSymbolTableRecord
100
AcDbLinetypeTableRecord
  2
ByLayer
 70
     0
  3

 72
    65
 73
     0
 40
0.0
  0
LTYPE
  5
16
330
5
100
AcDbSymbolTableRecord
100
AcDbLinetypeTableRecord
  2
Continuous
 70
     0
  3
Solid line
 72
    65
 73
     0
 40
0.0
  0
ENDTAB
  0
TABLE
  2
LAYER
  5
2
330
0
100
AcDbSymbolTable
 70
     2
  0
LAYER
  5
10
330
2
100
AcDbSymbolTableRecord
100
AcDbLayerTableRecord
  2
0
 70
     0
 62
     7
  6
Continuous
370
    -3
390
F
347
3E
  0
LAYER
  5
40
330
2
100
AcDbSymbolTableRecord
100
AcDbLayerTableRecord
  2
Layer 1
 70
     0
 62
     7
  6
Continuous
370
    -3
390
F
347
3E
  0
ENDTAB
  0
TABLE
  2
STYLE
  5
3
330
0
100
AcDbSymbolTable
 70
     1
  0
STYLE
  5
11
330
3
100
AcDbSymbolTableRecord
100
AcDbTextStyleTableRecord
  2
Standard
 70
     0
 40
0.0
 41
1.0
 50
0.0
 71
     0
 42
0.2
  3
txt
  4

  0
ENDTAB
  0
TABLE
  2
VIEW
  5
6
330
0
100
AcDbSymbolTable
 70
     0
  0
ENDTAB
  0
TABLE
  2
UCS
  5
7
330
0
100
AcDbSymbolTable
 70
     0
  0
ENDTAB
  0
TABLE
  2
APPID
  5
9
330
0
100
AcDbSymbolTable
 70
     1
  0
APPID
  5
12
330
9
100
AcDbSymbolTableRecord
100
AcDbRegAppTableRecord
  2
ACAD
 70
     0
  0
ENDTAB
  0
TABLE
  2
DIMSTYLE
  5
A
330
0
100
AcDbSymbolTable
 70
     1
100
AcDbDimStyleTable
  0
DIMSTYLE
105
27
330
A
100
AcDbSymbolTableRecord
100
AcDbDimStyleTableRecord
  2
Standard
 70
     0
178
     0
340
11
  0
ENDTAB
  0
TABLE
  2
BLOCK_RECORD
  5
1
330
0
100
AcDbSymbolTable
 70
     1
  0
BLOCK_RECORD
  5
1F
330
1
100
AcDbSymbolTableRecord
100
AcDbBlockTableRecord
  2
*Model_Space
340
22
 70
     0
280
     1
281
     0
  0
BLOCK_RECORD
  5
1B
330
1
100
AcDbSymbolTableRecord
100
AcDbBlockTableRecord
  2
*Paper_Space
340
1E
 70
     0
280
     1
281
     0
  0
BLOCK_RECORD
  5
23
330
1
100
AcDbSymbolTableRecord
100
AcDbBlockTableRecord
  2
*Paper_Space0
340
26
 70
     0
280
     1
281
     0
  0
ENDTAB
  0
ENDSEC
  0
SECTION
  2
BLOCKS
  0
BLOCK
  5
20
330
1F
100
AcDbEntity
  8
0
100
AcDbBlockBegin
  2
*Model_Space
 70
     0
 10
0.0
 20
0.0
 30
0.0
  3
*Model_Space
  1

  0
ENDBLK
  5
21
330
1F
100
AcDbEntity
  8
0
100
AcDbBlockEnd
  0
BLOCK
  5
1C
330
1B
100
AcDbEntity
 67
     1
  8
0
100
AcDbBlockBegin
  2
*Paper_Space
 70
     0
 10
0.0
 20
0.0
 30
0.0
  3
*Paper_Space
  1

  0
ENDBLK
  5
1D
330
1B
100
AcDbEntity
 67
     1
  8
0
100
AcDbBlockEnd
  0
BLOCK
  5
24
330
23
100
AcDbEntity
  8
0
100
AcDbBlockBegin
  2
*Paper_Space0
 70
     0
 10
0.0
 20
0.0
 30
0.0
  3
*Paper_Space0
  1

  0
ENDBLK
  5
25
330
23
100
AcDbEntity
  8
0
100
AcDbBlockEnd
  0
ENDSEC
  0
SECTION
  2
ENTITIES
  0
SPLINE
  5
41
330
1F
100
AcDbEntity
  8
Layer 1
370
     0
100
AcDbSpline
210
0.0
220
0.0
230
1.0
 70
    11
 71
     3
 72
    56
 73
    52
 74
     0
 42
0.0000000001
 43
0.0000000001
 12
1.0
 22
0.0
 32
0.0
 13
1.0
 23
0.0
 33
0.0
 40
0.0
 40
0.0
 40
0.0
 40
0.0
 40
1.0
 40
1.0
 40
1.0
 40
2.0
 40
2.0
 40
2.0
 40
3.0
 40
3.0
 40
3.0
 40
4.0
 40
4.0
 40
4.0
 40
5.0
 40
5.0
 40
5.0
 40
6.0
 40
6.0
 40
6.0
 40
7.0
 40
7.0
 40
7.0
 40
8.0
 40
8.0
 40
8.0
 40
9.0
 40
9.0
 40
9.0
 40
10.0
 40
10.0
 40
10.0
 40
11.0
 40
11.0
 40
11.0
 40
12.0
 40
12.0
 40
12.0
 40
13.0
 40
13.0
 40
13.0
 40
14.0
 40
14.0
 40
14.0
 40
15.0
 40
15.0
 40
15.0
 40
16.0
 40
16.0
 40
16.0
 40
17.0
 40
17.0
 40
17.0
 40
17.0
 10
11.28072306772285
 20
-4.436523045755179
 30
0.0
 10
11.07888185357433
 20
-3.75471820370971
 30
0.0
 10
10.75081469494557
 20
-3.125887013653406
 30
0.0
 10
10.30562979477385
 20
-2.567494025086337
 30
0.0
 10
9.860444894602121
 20
-2.009093875982368
 30
0.0
 10
9.320497449090478
 20
-1.549179751406528
 30
0.0
 10
8.70079594358218
 20
-1.200533209726005
 30
0.0
 10
8.059097268715858
 20
-0.839506099744704
 30
0.0
 10
7.359713308579911
 20
-0.6142570904687797
 30
0.0
 10
6.622092081395825
 20
-0.5310516516861222
 30
0.0
 10
5.884456533137912
 20
-0.4478175707558623
 30
0.0
 10
5.152499290642039
 20
-0.5116251150753391
 30
0.0
 10
4.44649183387321
 20
-0.7206268661242473
 30
0.0
 10
3.764694152364629
 20
-0.9224609197358404
 30
0.0
 10
3.135862962308339
 20
-1.250535238901496
 30
0.0
 10
2.577462813204369
 20
-1.695720139073235
 30
0.0
 10
2.0190698246373
 20
-2.140905039244962
 30
0.0
 10
1.559155700061461
 20
-2.680852484756592
 30
0.0
 10
1.210501997844037
 20
-3.300553990264878
 30
0.0
 10
0.8494748878627231
 20
-3.942245504594312
 30
0.0
 10
0.6242330391236994
 20
-4.641622304193371
 30
0.0
 10
0.5410276003410546
 20
-5.379250691914359
 30
0.0
 10
0.4578150010214964
 20
-6.116871919098458
 30
0.0
 10
0.5216010637302588
 20
-6.848850643205044
 30
0.0
 10
0.7306028147791671
 20
-7.554850939436973
 30
0.0
 10
0.9324368683907727
 20
-8.236648620945541
 30
0.0
 10
1.260511187556429
 20
-8.865486971538733
 30
0.0
 10
1.705696087728155
 20
-9.4238799601058
 30
0.0
 10
2.150880987899882
 20
-9.98227294867287
 30
0.0
 10
2.690828433411512
 20
-10.44219423378561
 30
0.0
 10
3.31052993891981
 20
-10.79084077546612
 30
0.0
 10
3.952221453249232
 20
-11.15187504598435
 30
0.0
 10
4.651598252848291
 20
-11.37711689472336
 30
0.0
 10
5.389226640569277
 20
-11.460322333506
 30
0.0
 10
5.598393083966887
 20
-11.48392346312974
 30
0.0
 10
5.806986684412474
 20
-11.495695385794
 30
0.0
 10
6.014778304725218
 20
-11.495695385794
 30
0.0
 10
6.539774549188804
 20
-11.495695385794
 30
0.0
 10
7.059028043058283
 20
-11.42048110619218
 30
0.0
 10
7.564819727555005
 20
-11.27073995853102
 30
0.0
 10
8.246617409063573
 20
-11.0689130654563
 30
0.0
 10
8.87545575965679
 20
-10.74083158575374
 30
0.0
 10
9.433848748223832
 20
-10.29564668558202
 30
0.0
 10
9.992241736790902
 20
-9.850461785410289
 30
0.0
 10
10.45216302190364
 20
-9.31051433989867
 30
0.0
 10
10.80080956358418
 20
-8.690812834390346
 30
0.0
 10
11.16184383410235
 20
-8.049114159524025
 30
0.0
 10
11.38708568284139
 20
-7.349744520461879
 30
0.0
 10
11.47029112162403
 20
-6.612123293277793
 30
0.0
 10
11.55349656040671
 20
-5.874494905556781
 30
0.0
 10
11.48972481877174
 20
-5.142516181450206
 30
0.0
 10
11.28072306772285
 20
-4.436523045755179
 30
0.0
  0
SPLINE
  5
42
330
1F
100
AcDbEntity
  8
Layer 1
370
     0
100
AcDbSpline
210
0.0
220
0.0
230
1.0
 70
    11
 71
     3
 72
    50
 73
    46
 74
     0
 42
0.0000000001
 43
0.0000000001
 12
1.0
 22
0.0
 32
0.0
 13
1.0
 23
0.0
 33
0.0
 40
0.0
 40
0.0
 40
0.0
 40
0.0
 40
1.0
 40
1.0
 40
1.0
 40
2.0
 40
2.0
 40
2.0
 40
3.0
 40
3.0
 40
3.0
 40
4.0
 40
4.0
 40
4.0
 40
5.0
 40
5.0
 40
5.0
 40
6.0
 40
6.0
 40
6.0
 40
7.0
 40
7.0
 40
7.0
 40
8.0
 40
8.0
 40
8.0
 40
9.0
 40
9.0
 40
9.0
 40
10.0
 40
10.0
 40
10.0
 40
11.0
 40
11.0
 40
11.0
 40
12.0
 40
12.0
 40
12.0
 40
13.0
 40
13.0
 40
13.0
 40
14.0
 40
14.0
 40
14.0
 40
15.0
 40
15.0
 40
15.0
 40
15.0
 10
9.961637602078579
 20
-2.841749748908594
 30
0.0
 10
10.80407476841075
 20
-3.898423018763853
 30
0.0
 10
11.18461434144564
 20
-5.219921585343538
 30
0.0
 10
11.03312602278076
 20
-6.562801515107822
 30
0.0
 10
11.02735821030748
 20
-6.61393490911357
 30
0.0
 10
11.02059508320505
 20
-6.664712961475667
 30
0.0
 10
11.01334235439208
 20
-6.71531021028103
 30
0.0
 10
10.85130925007424
 20
-6.575634987367569
 30
0.0
 10
10.61095777340827
 20
-6.369779397219291
 30
0.0
 10
10.47599328870817
 20
-6.260512289320483
 30
0.0
 10
10.51305712277174
 20
-5.9766820325953
 30
0.0
 10
10.62012594584214
 20
-5.752265435734052
 30
0.0
 10
10.68373478526261
 20
-5.473168293900029
 30
0.0
 10
10.68373478526261
 20
-5.473168293900029
 30
0.0
 10
10.13243072822694
 20
-4.105799327936362
 30
0.0
 10
10.13243072822694
 20
-4.105799327936362
 30
0.0
 10
9.889350191934808
 20
-4.407679508053244
 30
0.0
 10
9.642967753064466
 20
-4.701897018619611
 30
0.0
 10
9.34888181736369
 20
-4.956320740429078
 30
0.0
 10
9.34888181736369
 20
-4.956320740429078
 30
0.0
 10
9.190791483676623
 20
-4.927614147995377
 30
0.0
 10
9.190791483676623
 20
-4.927614147995377
 30
0.0
 10
9.1512653199864
 20
-4.69912141550358
 30
0.0
 10
9.135426212362718
 20
-4.50178417906544
 30
0.0
 10
9.12908197666896
 20
-4.384422979267861
 30
0.0
 10
9.12908197666896
 20
-4.384422979267861
 30
0.0
 10
9.637508738745028
 20
-4.366013238896926
 30
0.0
 10
9.637508738745028
 20
-4.366013238896926
 30
0.0
 10
9.402915228814107
 20
-4.163737917198849
 30
0.0
 10
9.191476210017727
 20
-3.937023683059692
 30
0.0
 10
8.996927107635175
 20
-3.696023282737125
 30
0.0
 10
9.159550061180171
 20
-3.615416223782201
 30
0.0
 10
9.225557680462316
 20
-3.470452944367796
 30
0.0
 10
9.253274328669526
 20
-3.301927023215537
 30
0.0
 10
9.288566824917375
 20
-3.08733557804875
 30
0.0
 10
9.314433369402952
 20
-2.871049770837923
 30
0.0
 10
9.340890658182817
 20
-2.655232083726951
 30
0.0
 10
9.340890658182817
 20
-2.655232083726951
 30
0.0
 10
9.629574863859387
 20
-2.714950961476297
 30
0.0
 10
9.629574863859387
 20
-2.714950961476297
 30
0.0
 10
9.628166028224237
 20
-2.675839213859199
 30
0.0
 10
9.51692798254362
 20
-2.458000465208076
 30
0.0
 10
9.403577578477375
 20
-2.246124653660786
 30
0.0
 10
9.603250940079306
 20
-2.427843864052041
 30
0.0
 10
9.790048761267169
 20
-2.626527281427469
 30
0.0
 10
9.961637602078579
 20
-2.841749748908594
 30
0.0
  0
SPLINE
  5
43
330
1F
100
AcDbEntity
  8
Layer 1
370
     0
100
AcDbSpline
210
0.0
220
0.0
230
1.0
 70
    11
 71
     3
 72
    17
 73
    13
 74
     0
 42
0.0000000001
 43
0.0000000001
 12
1.0
 22
0.0
 32
0.0
 13
1.0
 23
0.0
 33
0.0
 40
0.0
 40
0.0
 40
0.0
 40
0.0
 40
1.0
 40
1.0
 40
1.0
 40
2.0
 40
2.0
 40
2.0
 40
3.0
 40
3.0
 40
3.0
 40
4.0
 40
4.0
 40
4.0
 40
4.0
 10
6.16306407326139
 20
-6.397654472305425
 30
0.0
 10
6.16306407326139
 20
-6.397654472305425
 30
0.0
 10
6.215586611425831
 20
-6.16355414435351
 30
0.0
 10
6.426288094921447
 20
-6.06567049999214
 30
0.0
 10
6.426288094921447
 20
-6.06567049999214
 30
0.0
 10
6.489726871590569
 20
-6.336441727545257
 30
0.0
 10
6.489726871590569
 20
-6.336441727545257
 30
0.0
 10
6.489726871590569
 20
-6.336441727545257
 30
0.0
 10
6.186744863858141
 20
-6.446853626280976
 30
0.0
 10
6.186744863858141
 20
-6.446853626280976
 30
0.0
 10
6.186744863858141
 20
-6.446853626280976
 30
0.0
 10
6.16306407326139
 20
-6.397654472305425
 30
0.0
 10
6.16306407326139
 20
-6.397654472305425
 30
0.0
  0
POLYLINE
  5
44
330
1F
100
AcDbEntity
  8
Layer 1
370
     0
100
AcDb2dPolyline
 66
     1
 10
0.0
 20
0.0
 30
0.0
  0
VERTEX
  5
45
330
44
100
AcDbEntity
  8
Layer 1
370
     0
100
AcDbVertex
100
AcDb2dVertex
 10
6.526789810587034
 20
-6.494634098883125
 30
0.0
  0
VERTEX
  5
46
330
44
100
AcDbEntity
  8
Layer 1
370
     0
100
AcDbVertex
100
AcDb2dVertex
 10
6.599859509387165
 20
-6.806508598378741
 30
0.0
  0
VERTEX
  5
47
330
44
100
AcDbEntity
  8
Layer 1
370
     0
100
AcDbVertex
100
AcDb2dVertex
 10
6.351802399949267
 20
-6.789779794045191
 30
0.0
  0
VERTEX
  5
48
330
44
100
AcDbEntity
  8
Layer 1
370
     0
100
AcDbVertex
100
AcDb2dVertex
 10
6.257054175683152
 20
-6.592930369183376
 30
0.0
  0
VERTEX
  5
49
330
44
100
AcDbEntity
  8
Layer 1
370
     0
100
AcDbVertex
100
AcDb2dVertex
 10
6.526789810587034
 20
-6.494634098883125
 30
0.0
  0
SEQEND
  5
4A
330
44
100
AcDbEntity
  8
Layer 1
370
     0
  0
POLYLINE
  5
4B
330
1F
100
AcDbEntity
  8
Layer 1
370
     0
100
AcDb2dPolyline
 66
     1
 10
0.0
 20
0.0
 30
0.0
  0
VERTEX
  5
4C
330
4B
100
AcDbEntity
  8
Layer 1
370
     0
100
AcDbVertex
100
AcDb2dVertex
 10
6.76821536778809
 20
-6.817862524701442
 30
0.0
  0
VERTEX
  5
4D
330
4B
100
AcDbEntity
  8
Layer 1
370
     0
100
AcDbVertex
100
AcDb2dVertex
 10
6.679450667169375
 20
-6.43900120250257
 30
0.0
  0
VERTEX
  5
4E
330
4B
100
AcDbEntity
  8
Layer 1
370
     0
100
AcDbVertex
100
AcDb2dVertex
 10
7.034849595146978
 20
-6.309487676517922
 30
0.0
  0
VERTEX
  5
4F
330
4B
100
AcDbEntity
  8
Layer 1
370
     0
100
AcDbVertex
100
AcDb2dVertex
 10
7.090486966863081
 20
-6.839596544328388
 30
0.0
  0
VERTEX
  5
50
330
4B
100
AcDbEntity
  8
Layer 1
370
     0
100
AcDbVertex
100
AcDb2dVertex
 10
6.76821536778809
 20
-6.817862524701442
 30
0.0
  0
SEQEND
  5
51
330
4B
100
AcDbEntity
  8
Layer 1
370
     0
  0
POLYLINE
  5
52
330
1F
100
AcDbEntity
  8
Layer 1
370
     0
100
AcDb2dPolyline
 66
     1
 10
0.0
 20
0.0
 30
0.0
  0
VERTEX
  5
53
330
52
100
AcDbEntity
  8
Layer 1
370
     0
100
AcDbVertex
100
AcDb2dVertex
 10
7.107575588175879
 20
-7.002420887973711
 30
0.0
  0
VERTEX
  5
54
330
52
100
AcDbEntity
  8
Layer 1
370
     0
100
AcDbVertex
100
AcDb2dVertex
 10
7.13282632648803
 20
-7.243013137692969
 30
0.0
  0
VERTEX
  5
55
330
52
100
AcDbEntity
  8
Layer 1
370
     0
100
AcDbVertex
100
AcDb2dVertex
 10
6.852005285395206
 20
-7.175491959923495
 30
0.0
  0
VERTEX
  5
56
330
52
100
AcDbEntity
  8
Layer 1
370
     0
100
AcDbVertex
100
AcDb2dVertex
 10
6.806701463493507
 20
-6.982130611599309
 30
0.0
  0
VERTEX
  5
57
330
52
100
AcDbEntity
  8
Layer 1
370
     0
100
AcDbVertex
100
AcDb2dVertex
 10
7.107575588175879
 20
-7.002420887973711
 30
0.0
  0
SEQEND
  5
58
330
52
100
AcDbEntity
  8
Layer 1
370
     0
  0
SPLINE
  5
59
330
1F
100
AcDbEntity
  8
Layer 1
370
     0
100
AcDbSpline
210
0.0
220
0.0
230
1.0
 70
    11
 71
     3
 72
    14
 73
    10
 74
     0
 42
0.0000000001
 43
0.0000000001
 12
1.0
 22
0.0
 32
0.0
 13
1.0
 23
0.0
 33
0.0
 40
0.0
 40
0.0
 40
0.0
 40
0.0
 40
1.0
 40
1.0
 40
1.0
 40
2.0
 40
2.0
 40
2.0
 40
3.0
 40
3.0
 40
3.0
 40
3.0
 10
6.642386833105775
 20
-6.280809726231811
 30
0.0
 10
6.642386833105775
 20
-6.280809726231811
 30
0.0
 10
6.582442398444073
 20
-6.024955687176467
 30
0.0
 10
6.582442398444073
 20
-6.024955687176467
 30
0.0
 10
6.786864986145146
 20
-6.005488872545609
 30
0.0
 10
6.936485299746159
 20
-6.105532313849557
 30
0.0
 10
6.994408672867721
 20
-6.152526917526883
 30
0.0
 10
6.994408672867721
 20
-6.152526917526883
 30
0.0
 10
6.642386833105775
 20
-6.280809726231811
 30
0.0
 10
6.642386833105775
 20
-6.280809726231811
 30
0.0
  0
POLYLINE
  5
5A
330
1F
100
AcDbEntity
  8
Layer 1
370
     0
100
AcDb2dPolyline
 66
     1
 10
0.0
 20
0.0
 30
0.0
  0
VERTEX
  5
5B
330
5A
100
AcDbEntity
  8
Layer 1
370
     0
100
AcDbVertex
100
AcDb2dVertex
 10
6.676418179792032
 20
-7.133273434358746
 30
0.0
  0
VERTEX
  5
5C
330
5A
100
AcDbEntity
  8
Layer 1
370
     0
100
AcDbVertex
100
AcDb2dVertex
 10
6.496286818458454
 20
-7.089962926916693
 30
0.0
  0
VERTEX
  5
5D
330
5A
100
AcDbEntity
  8
Layer 1
370
     0
100
AcDbVertex
100
AcDb2dVertex
 10
6.432229550414578
 20
-6.956876293018695
 30
0.0
  0
VERTEX
  5
5E
330
5A
100
AcDbEntity
  8
Layer 1
370
     0
100
AcDbVertex
100
AcDb2dVertex
 10
6.638346500159741
 20
-6.970776685276607
 30
0.0
  0
VERTEX
  5
5F
330
5A
100
AcDbEntity
  8
Layer 1
370
     0
100
AcDbVertex
100
AcDb2dVertex
 10
6.676418179792032
 20
-7.133273434358746
 30
0.0
  0
SEQEND
  5
60
330
5A
100
AcDbEntity
  8
Layer 1
370
     0
  0
POLYLINE
  5
61
330
1F
100
AcDbEntity
  8
Layer 1
370
     0
100
AcDb2dPolyline
 66
     1
 10
0.0
 20
0.0
 30
0.0
  0
VERTEX
  5
62
330
61
100
AcDbEntity
  8
Layer 1
370
     0
100
AcDbVertex
100
AcDb2dVertex
 10
8.082591885353192
 20
-7.290159902779426
 30
0.0
  0
VERTEX
  5
63
330
61
100
AcDbEntity
  8
Layer 1
370
     0
100
AcDbVertex
100
AcDb2dVertex
 10
8.09763169804536
 20
-7.796504738751688
 30
0.0
  0
VERTEX
  5
64
330
61
100
AcDbEntity
  8
Layer 1
370
     0
100
AcDbVertex
100
AcDb2dVertex
 10
7.847235778242369
 20
-7.856681890862647
 30
0.0
  0
VERTEX
  5
65
330
61
100
AcDbEntity
  8
Layer 1
370
     0
100
AcDbVertex
100
AcDb2dVertex
 10
7.762551688589761
 20
-7.257348532567549
 30
0.0
  0
VERTEX
  5
66
330
61
100
AcDbEntity
  8
Layer 1
370
     0
100
AcDbVertex
100
AcDb2dVertex
 10
8.082591885353192
 20
-7.290159902779426
 30
0.0
  0
SEQEND
  5
67
330
61
100
AcDbEntity
  8
Layer 1
370
     0
  0
POLYLINE
  5
68
330
1F
100
AcDbEntity
  8
Layer 1
370
     0
100
AcDb2dPolyline
 66
     1
 10
0.0
 20
0.0
 30
0.0
  0
VERTEX
  5
69
330
68
100
AcDbEntity
  8
Layer 1
370
     0
100
AcDbVertex
100
AcDb2dVertex
 10
7.730848411463259
 20
-7.032973108793485
 30
0.0
  0
VERTEX
  5
6A
330
68
100
AcDbEntity
  8
Layer 1
370
     0
100
AcDbVertex
100
AcDb2dVertex
 10
7.681767406346554
 20
-6.685612778553705
 30
0.0
  0
VERTEX
  5
6B
330
68
100
AcDbEntity
  8
Layer 1
370
     0
100
AcDbVertex
100
AcDb2dVertex
 10
8.061607931966567
 20
-6.583705807521432
 30
0.0
  0
VERTEX
  5
6C
330
68
100
AcDbEntity
  8
Layer 1
370
     0
100
AcDbVertex
100
AcDb2dVertex
 10
8.076003296337705
 20
-7.068358692021067
 30
0.0
  0
VERTEX
  5
6D
330
68
100
AcDbEntity
  8
Layer 1
370
     0
100
AcDbVertex
100
AcDb2dVertex
 10
7.730848411463259
 20
-7.032973108793485
 30
0.0
  0
SEQEND
  5
6E
330
68
100
AcDbEntity
  8
Layer 1
370
     0
  0
POLYLINE
  5
6F
330
1F
100
AcDbEntity
  8
Layer 1
370
     0
100
AcDb2dPolyline
 66
     1
 10
0.0
 20
0.0
 30
0.0
  0
VERTEX
  5
70
330
6F
100
AcDbEntity
  8
Layer 1
370
     0
100
AcDbVertex
100
AcDb2dVertex
 10
8.056229473687228
 20
-5.192543272504849
 30
0.0
  0
VERTEX
  5
71
330
6F
100
AcDbEntity
  8
Layer 1
370
     0
100
AcDbVertex
100
AcDb2dVertex
 10
8.324143647017081
 20
-5.147030899965898
 30
0.0
  0
VERTEX
  5
72
330
6F
100
AcDbEntity
  8
Layer 1
370
     0
100
AcDbVertex
100
AcDb2dVertex
 10
8.300620388232169
 20
-5.557207935231569
 30
0.0
  0
VERTEX
  5
73
330
6F
100
AcDbEntity
  8
Layer 1
370
     0
100
AcDbVertex
100
AcDb2dVertex
 10
8.15841212539019
 20
-5.562355466195855
 30
0.0
  0
VERTEX
  5
74
330
6F
100
AcDbEntity
  8
Layer 1
370
     0
100
AcDbVertex
100
AcDb2dVertex
 10
8.056229473687228
 20
-5.192543272504849
 30
0.0
  0
SEQEND
  5
75
330
6F
100
AcDbEntity
  8
Layer 1
370
     0
  0
POLYLINE
  5
76
330
1F
100
AcDbEntity
  8
Layer 1
370
     0
100
AcDb2dPolyline
 66
     1
 10
0.0
 20
0.0
 30
0.0
  0
VERTEX
  5
77
330
76
100
AcDbEntity
  8
Layer 1
370
     0
100
AcDbVertex
100
AcDb2dVertex
 10
8.303343182388542
 20
-7.312791674720251
 30
0.0
  0
VERTEX
  5
78
330
76
100
AcDbEntity
  8
Layer 1
370
     0
100
AcDbVertex
100
AcDb2dVertex
 10
8.633876250912383
 20
-7.346678915601387
 30
0.0
  0
VERTEX
  5
79
330
76
100
AcDbEntity
  8
Layer 1
370
     0
100
AcDbVertex
100
AcDb2dVertex
 10
8.604919039687173
 20
-7.674588542418355
 30
0.0
  0
VERTEX
  5
7A
330
76
100
AcDbEntity
  8
Layer 1
370
     0
100
AcDbVertex
100
AcDb2dVertex
 10
8.316151592769124
 20
-7.74398757098993
 30
0.0
  0
VERTEX
  5
7B
330
76
100
AcDbEntity
  8
Layer 1
370
     0
100
AcDbVertex
100
AcDb2dVertex
 10
8.303343182388542
 20
-7.312791674720251
 30
0.0
  0
SEQEND
  5
7C
330
76
100
AcDbEntity
  8
Layer 1
370
     0
  0
POLYLINE
  5
7D
330
1F
100
AcDbEntity
  8
Layer 1
370
     0
100
AcDb2dPolyline
 66
     1
 10
0.0
 20
0.0
 30
0.0
  0
VERTEX
  5
7E
330
7D
100
AcDbEntity
  8
Layer 1
370
     0
100
AcDbVertex
100
AcDb2dVertex
 10
8.296755488440162
 20
-7.090991359029001
 30
0.0
  0
VERTEX
  5
7F
330
7D
100
AcDbEntity
  8
Layer 1
370
     0
100
AcDbVertex
100
AcDb2dVertex
 10
8.279947918200707
 20
-6.525128140340585
 30
0.0
  0
VERTEX
  5
80
330
7D
100
AcDbEntity
  8
Layer 1
370
     0
100
AcDbVertex
100
AcDb2dVertex
 10
8.7167782619439
 20
-6.407931632891732
 30
0.0
  0
VERTEX
  5
81
330
7D
100
AcDbEntity
  8
Layer 1
370
     0
100
AcDbVertex
100
AcDb2dVertex
 10
8.653229392019941
 20
-7.127537844301539
 30
0.0
  0
VERTEX
  5
82
330
7D
100
AcDbEntity
  8
Layer 1
370
     0
100
AcDbVertex
100
AcDb2dVertex
 10
8.296755488440162
 20
-7.090991359029001
 30
0.0
  0
SEQEND
  5
83
330
7D
100
AcDbEntity
  8
Layer 1
370
     0
  0
POLYLINE
  5
84
330
1F
100
AcDbEntity
  8
Layer 1
370
     0
100
AcDb2dPolyline
 66
     1
 10
0.0
 20
0.0
 30
0.0
  0
VERTEX
  5
85
330
84
100
AcDbEntity
  8
Layer 1
370
     0
100
AcDbVertex
100
AcDb2dVertex
 10
8.700133593918887
 20
-5.542745440826985
 30
0.0
  0
VERTEX
  5
86
330
84
100
AcDbEntity
  8
Layer 1
370
     0
100
AcDbVertex
100
AcDb2dVertex
 10
8.462541609160931
 20
-5.551346140711479
 30
0.0
  0
VERTEX
  5
87
330
84
100
AcDbEntity
  8
Layer 1
370
     0
100
AcDbVertex
100
AcDb2dVertex
 10
8.487317961903424
 20
-5.119311566557346
 30
0.0
  0
VERTEX
  5
88
330
84
100
AcDbEntity
  8
Layer 1
370
     0
100
AcDbVertex
100
AcDb2dVertex
 10
8.742449681798941
 20
-5.075970626833446
 30
0.0
  0
VERTEX
  5
89
330
84
100
AcDbEntity
  8
Layer 1
370
     0
100
AcDbVertex
100
AcDb2dVertex
 10
8.700133593918887
 20
-5.542745440826985
 30
0.0
  0
SEQEND
  5
8A
330
84
100
AcDbEntity
  8
Layer 1
370
     0
  0
POLYLINE
  5
8B
330
1F
100
AcDbEntity
  8
Layer 1
370
     0
100
AcDb2dPolyline
 66
     1
 10
0.0
 20
0.0
 30
0.0
  0
VERTEX
  5
8C
330
8B
100
AcDbEntity
  8
Layer 1
370
     0
100
AcDbVertex
100
AcDb2dVertex
 10
8.496794037424
 20
-4.954077702245033
 30
0.0
  0
VERTEX
  5
8D
330
8B
100
AcDbEntity
  8
Layer 1
370
     0
100
AcDbVertex
100
AcDb2dVertex
 10
8.510537792937207
 20
-4.714410951920159
 30
0.0
  0
VERTEX
  5
8E
330
8B
100
AcDbEntity
  8
Layer 1
370
     0
100
AcDbVertex
100
AcDb2dVertex
 10
8.773541628087589
 20
-4.732997020512268
 30
0.0
  0
VERTEX
  5
8F
330
8B
100
AcDbEntity
  8
Layer 1
370
     0
100
AcDbVertex
100
AcDb2dVertex
 10
8.757514556370248
 20
-4.909787096314719
 30
0.0
  0
VERTEX
  5
90
330
8B
100
AcDbEntity
  8
Layer 1
370
     0
100
AcDbVertex
100
AcDb2dVertex
 10
8.496794037424
 20
-4.954077702245033
 30
0.0
  0
SEQEND
  5
91
330
8B
100
AcDbEntity
  8
Layer 1
370
     0
  0
SPLINE
  5
92
330
1F
100
AcDbEntity
  8
Layer 1
370
     0
100
AcDbSpline
210
0.0
220
0.0
230
1.0
 70
    11
 71
     3
 72
    14
 73
    10
 74
     0
 42
0.0000000001
 43
0.0000000001
 12
1.0
 22
0.0
 32
0.0
 13
1.0
 23
0.0
 33
0.0
 40
0.0
 40
0.0
 40
0.0
 40
0.0
 40
1.0
 40
1.0
 40
1.0
 40
2.0
 40
2.0
 40
2.0
 40
3.0
 40
3.0
 40
3.0
 40
3.0
 10
8.163954380951104
 20
-4.044423680961687
 30
0.0
 10
8.163954380951104
 20
-4.044423680961687
 30
0.0
 10
8.47503048058234
 20
-3.721741246082034
 30
0.0
 10
8.47503048058234
 20
-3.721741246082034
 30
0.0
 10
8.511929622297203
 20
-3.810954375324122
 30
0.0
 10
8.532656691422542
 20
-3.9135460726975
 30
0.0
 10
8.536625418999595
 20
-4.023190898917783
 30
0.0
 10
8.384667190100622
 20
-4.028691086324405
 30
0.0
 10
8.270683078518687
 20
-4.036829036511714
 30
0.0
 10
8.163954380951104
 20
-4.044423680961687
 30
0.0
  0
SPLINE
  5
93
330
1F
100
AcDbEntity
  8
Layer 1
370
     0
100
AcDbSpline
210
0.0
220
0.0
230
1.0
 70
    11
 71
     3
 72
    14
 73
    10
 74
     0
 42
0.0000000001
 43
0.0000000001
 12
1.0
 22
0.0
 32
0.0
 13
1.0
 23
0.0
 33
0.0
 40
0.0
 40
0.0
 40
0.0
 40
0.0
 40
1.0
 40
1.0
 40
1.0
 40
2.0
 40
2.0
 40
2.0
 40
3.0
 40
3.0
 40
3.0
 40
3.0
 10
8.069762888429016
 20
-3.909691018643747
 30
0.0
 10
8.069762888429016
 20
-3.909691018643747
 30
0.0
 10
8.053907669597315
 20
-3.398477017579189
 30
0.0
 10
8.053907669597315
 20
-3.398477017579189
 30
0.0
 10
8.197807609281982
 20
-3.410239094505224
 30
0.0
 10
8.310537731839228
 20
-3.47583498291557
 30
0.0
 10
8.390808245559835
 20
-3.576666978345681
 30
0.0
 10
8.390808245559835
 20
-3.576666978345681
 30
0.0
 10
8.069762888429016
 20
-3.909691018643747
 30
0.0
 10
8.069762888429016
 20
-3.909691018643747
 30
0.0
  0
POLYLINE
  5
94
330
1F
100
AcDbEntity
  8
Layer 1
370
     0
100
AcDb2dPolyline
 66
     1
 10
0.0
 20
0.0
 30
0.0
  0
VERTEX
  5
95
330
94
100
AcDbEntity
  8
Layer 1
370
     0
100
AcDbVertex
100
AcDb2dVertex
 10
8.349605621167786
 20
-4.703038229188096
 30
0.0
  0
VERTEX
  5
96
330
94
100
AcDbEntity
  8
Layer 1
370
     0
100
AcDbVertex
100
AcDb2dVertex
 10
8.333619722537655
 20
-4.981797035653598
 30
0.0
  0
VERTEX
  5
97
330
94
100
AcDbEntity
  8
Layer 1
370
     0
100
AcDbVertex
100
AcDb2dVertex
 10
8.013046065775168
 20
-5.03625470891537
 30
0.0
  0
VERTEX
  5
98
330
94
100
AcDbEntity
  8
Layer 1
370
     0
100
AcDbVertex
100
AcDb2dVertex
 10
7.912438732190316
 20
-4.672144092731324
 30
0.0
  0
VERTEX
  5
99
330
94
100
AcDbEntity
  8
Layer 1
370
     0
100
AcDbVertex
100
AcDb2dVertex
 10
8.349605621167786
 20
-4.703038229188096
 30
0.0
  0
SEQEND
  5
9A
330
94
100
AcDbEntity
  8
Layer 1
370
     0
  0
POLYLINE
  5
9B
330
1F
100
AcDbEntity
  8
Layer 1
370
     0
100
AcDb2dPolyline
 66
     1
 10
0.0
 20
0.0
 30
0.0
  0
VERTEX
  5
9C
330
9B
100
AcDbEntity
  8
Layer 1
370
     0
100
AcDbVertex
100
AcDb2dVertex
 10
7.992700295239779
 20
-5.568354205984153
 30
0.0
  0
VERTEX
  5
9D
330
9B
100
AcDbEntity
  8
Layer 1
370
     0
100
AcDbVertex
100
AcDb2dVertex
 10
7.688926153112738
 20
-5.579351000528946
 30
0.0
  0
VERTEX
  5
9E
330
9B
100
AcDbEntity
  8
Layer 1
370
     0
100
AcDbVertex
100
AcDb2dVertex
 10
7.637799919643889
 20
-5.263624132180906
 30
0.0
  0
VERTEX
  5
9F
330
9B
100
AcDbEntity
  8
Layer 1
370
     0
100
AcDbVertex
100
AcDb2dVertex
 10
7.896364221916023
 20
-5.219700503766742
 30
0.0
  0
VERTEX
  5
A0
330
9B
100
AcDbEntity
  8
Layer 1
370
     0
100
AcDbVertex
100
AcDb2dVertex
 10
7.992700295239779
 20
-5.568354205984153
 30
0.0
  0
SEQEND
  5
A1
330
9B
100
AcDbEntity
  8
Layer 1
370
     0
  0
POLYLINE
  5
A2
330
1F
100
AcDbEntity
  8
Layer 1
370
     0
100
AcDb2dPolyline
 66
     1
 10
0.0
 20
0.0
 30
0.0
  0
VERTEX
  5
A3
330
A2
100
AcDbEntity
  8
Layer 1
370
     0
100
AcDbVertex
100
AcDb2dVertex
 10
7.612013036131328
 20
-5.104380952052893
 30
0.0
  0
VERTEX
  5
A4
330
A2
100
AcDbEntity
  8
Layer 1
370
     0
100
AcDbVertex
100
AcDb2dVertex
 10
7.537732311527886
 20
-4.645663532206527
 30
0.0
  0
VERTEX
  5
A5
330
A2
100
AcDbEntity
  8
Layer 1
370
     0
100
AcDbVertex
100
AcDb2dVertex
 10
7.741736007820312
 20
-4.660080378188367
 30
0.0
  0
VERTEX
  5
A6
330
A2
100
AcDbEntity
  8
Layer 1
370
     0
100
AcDbVertex
100
AcDb2dVertex
 10
7.853180814003912
 20
-5.063411940177262
 30
0.0
  0
VERTEX
  5
A7
330
A2
100
AcDbEntity
  8
Layer 1
370
     0
100
AcDbVertex
100
AcDb2dVertex
 10
7.612013036131328
 20
-5.104380952052893
 30
0.0
  0
SEQEND
  5
A8
330
A2
100
AcDbEntity
  8
Layer 1
370
     0
  0
SPLINE
  5
A9
330
1F
100
AcDbEntity
  8
Layer 1
370
     0
100
AcDbSpline
210
0.0
220
0.0
230
1.0
 70
    11
 71
     3
 72
    14
 73
    10
 74
     0
 42
0.0000000001
 43
0.0000000001
 12
1.0
 22
0.0
 32
0.0
 13
1.0
 23
0.0
 33
0.0
 40
0.0
 40
0.0
 40
0.0
 40
0.0
 40
1.0
 40
1.0
 40
1.0
 40
2.0
 40
2.0
 40
2.0
 40
3.0
 40
3.0
 40
3.0
 40
3.0
 10
7.576984584681668
 20
-3.627957904163243
 30
0.0
 10
7.646121358589248
 20
-3.515277905364314
 30
0.0
 10
7.751348133541973
 20
-3.435143441844818
 30
0.0
 10
7.892799169606708
 20
-3.40728268783246
 30
0.0
 10
7.892799169606708
 20
-3.40728268783246
 30
0.0
 10
7.908879945350791
 20
-3.925780745058937
 30
0.0
 10
7.908879945350791
 20
-3.925780745058937
 30
0.0
 10
7.908879945350791
 20
-3.925780745058937
 30
0.0
 10
7.576984584681668
 20
-3.627957904163243
 30
0.0
 10
7.576984584681668
 20
-3.627957904163243
 30
0.0
  0
SPLINE
  5
AA
330
1F
100
AcDbEntity
  8
Layer 1
370
     0
100
AcDbSpline
210
0.0
220
0.0
230
1.0
 70
    11
 71
     3
 72
    14
 73
    10
 74
     0
 42
0.0000000001
 43
0.0000000001
 12
1.0
 22
0.0
 32
0.0
 13
1.0
 23
0.0
 33
0.0
 40
0.0
 40
0.0
 40
0.0
 40
0.0
 40
1.0
 40
1.0
 40
1.0
 40
2.0
 40
2.0
 40
2.0
 40
3.0
 40
3.0
 40
3.0
 40
3.0
 10
7.819987250135
 20
-4.062745704755583
 30
0.0
 10
7.724887264493645
 20
-4.065041551899273
 30
0.0
 10
7.615615681259341
 20
-4.065109576999841
 30
0.0
 10
7.478342818475968
 20
-4.061499771334916
 30
0.0
 10
7.474767920428449
 20
-3.96275596747839
 30
0.0
 10
7.485168600276286
 20
-3.868735432774795
 30
0.0
 10
7.509428499294851
 20
-3.784068349397343
 30
0.0
 10
7.509428499294851
 20
-3.784068349397343
 30
0.0
 10
7.819987250135
 20
-4.062745704755583
 30
0.0
 10
7.819987250135
 20
-4.062745704755583
 30
0.0
  0
SPLINE
  5
AB
330
1F
100
AcDbEntity
  8
Layer 1
370
     0
100
AcDbSpline
210
0.0
220
0.0
230
1.0
 70
    11
 71
     3
 72
    17
 73
    13
 74
     0
 42
0.0000000001
 43
0.0000000001
 12
1.0
 22
0.0
 32
0.0
 13
1.0
 23
0.0
 33
0.0
 40
0.0
 40
0.0
 40
0.0
 40
0.0
 40
1.0
 40
1.0
 40
1.0
 40
2.0
 40
2.0
 40
2.0
 40
3.0
 40
3.0
 40
3.0
 40
4.0
 40
4.0
 40
4.0
 40
4.0
 10
7.878151396309855
 20
-8.075478361324206
 30
0.0
 10
7.878151396309855
 20
-8.075478361324206
 30
0.0
 10
8.104303528302328
 20
-8.02112809611592
 30
0.0
 10
8.104303528302328
 20
-8.02112809611592
 30
0.0
 10
8.104303528302328
 20
-8.02112809611592
 30
0.0
 10
8.115229612545237
 20
-8.38897651256199
 30
0.0
 10
8.115229612545237
 20
-8.38897651256199
 30
0.0
 10
8.051239474534794
 20
-8.393171692118509
 30
0.0
 10
7.987620789376049
 20
-8.397775917345472
 30
0.0
 10
7.924403989350871
 20
-8.402819620524673
 30
0.0
 10
7.924403989350871
 20
-8.402819620524673
 30
0.0
 10
7.878151396309855
 20
-8.075478361324206
 30
0.0
 10
7.878151396309855
 20
-8.075478361324206
 30
0.0
  0
SPLINE
  5
AC
330
1F
100
AcDbEntity
  8
Layer 1
370
     0
100
AcDbSpline
210
0.0
220
0.0
230
1.0
 70
    11
 71
     3
 72
    17
 73
    13
 74
     0
 42
0.0000000001
 43
0.0000000001
 12
1.0
 22
0.0
 32
0.0
 13
1.0
 23
0.0
 33
0.0
 40
0.0
 40
0.0
 40
0.0
 40
0.0
 40
1.0
 40
1.0
 40
1.0
 40
2.0
 40
2.0
 40
2.0
 40
3.0
 40
3.0
 40
3.0
 40
4.0
 40
4.0
 40
4.0
 40
4.0
 10
8.334929205723306
 20
-8.376203904865886
 30
0.0
 10
8.334929205723306
 20
-8.376203904865886
 30
0.0
 10
8.322823423026092
 20
-7.968610928354185
 30
0.0
 10
8.322823423026092
 20
-7.968610928354185
 30
0.0
 10
8.322823423026092
 20
-7.968610928354185
 30
0.0
 10
8.58450703418546
 20
-7.905720827825057
 30
0.0
 10
8.58450703418546
 20
-7.905720827825057
 30
0.0
 10
8.58450703418546
 20
-7.905720827825057
 30
0.0
 10
8.54370539985987
 20
-8.367745520652306
 30
0.0
 10
8.54370539985987
 20
-8.367745520652306
 30
0.0
 10
8.473738003671794
 20
-8.370097757024066
 30
0.0
 10
8.404050763490002
 20
-8.372805335039528
 30
0.0
 10
8.334929205723306
 20
-8.376203904865886
 30
0.0
  0
POLYLINE
  5
AD
330
1F
100
AcDbEntity
  8
Layer 1
370
     0
100
AcDb2dPolyline
 66
     1
 10
0.0
 20
0.0
 30
0.0
  0
VERTEX
  5
AE
330
AD
100
AcDbEntity
  8
Layer 1
370
     0
100
AcDbVertex
100
AcDb2dVertex
 10
9.81850742011069
 20
-5.570302767088176
 30
0.0
  0
VERTEX
  5
AF
330
AD
100
AcDbEntity
  8
Layer 1
370
     0
100
AcDbVertex
100
AcDb2dVertex
 10
9.773230450222348
 20
-5.854884880187923
 30
0.0
  0
VERTEX
  5
B0
330
AD
100
AcDbEntity
  8
Layer 1
370
     0
100
AcDbVertex
100
AcDb2dVertex
 10
9.377005721107126
 20
-5.841569861821628
 30
0.0
  0
VERTEX
  5
B1
330
AD
100
AcDbEntity
  8
Layer 1
370
     0
100
AcDbVertex
100
AcDb2dVertex
 10
9.52110615582501
 20
-5.463729811198188
 30
0.0
  0
VERTEX
  5
B2
330
AD
100
AcDbEntity
  8
Layer 1
370
     0
100
AcDbVertex
100
AcDb2dVertex
 10
9.81850742011069
 20
-5.570302767088176
 30
0.0
  0
SEQEND
  5
B3
330
AD
100
AcDbEntity
  8
Layer 1
370
     0
  0
SPLINE
  5
B4
330
1F
100
AcDbEntity
  8
Layer 1
370
     0
100
AcDbSpline
210
0.0
220
0.0
230
1.0
 70
    11
 71
     3
 72
    14
 73
    10
 74
     0
 42
0.0000000001
 43
0.0000000001
 12
1.0
 22
0.0
 32
0.0
 13
1.0
 23
0.0
 33
0.0
 40
0.0
 40
0.0
 40
0.0
 40
0.0
 40
1.0
 40
1.0
 40
1.0
 40
2.0
 40
2.0
 40
2.0
 40
3.0
 40
3.0
 40
3.0
 40
3.0
 10
9.596830623680969
 20
-5.31950317201741
 30
0.0
 10
9.645087271986995
 20
-5.278934255141078
 30
0.0
 10
9.74500361376095
 20
-5.210347947507708
 30
0.0
 10
9.877301693532774
 20
-5.200760883665175
 30
0.0
 10
9.877301693532774
 20
-5.200760883665175
 30
0.0
 10
9.844300569093042
 20
-5.408183736327538
 30
0.0
 10
9.844300569093042
 20
-5.408183736327538
 30
0.0
 10
9.844300569093042
 20
-5.408183736327538
 30
0.0
 10
9.596830623680969
 20
-5.31950317201741
 30
0.0
 10
9.596830623680969
 20
-5.31950317201741
 30
0.0
  0
POLYLINE
  5
B5
330
1F
100
AcDbEntity
  8
Layer 1
370
     0
100
AcDb2dPolyline
 66
     1
 10
0.0
 20
0.0
 30
0.0
  0
VERTEX
  5
B6
330
B5
100
AcDbEntity
  8
Layer 1
370
     0
100
AcDbVertex
100
AcDb2dVertex
 10
9.747687024964382
 20
-6.015431278031807
 30
0.0
  0
VERTEX
  5
B7
330
B5
100
AcDbEntity
  8
Layer 1
370
     0
100
AcDbVertex
100
AcDb2dVertex
 10
9.711498566536875
 20
-6.242890208008602
 30
0.0
  0
VERTEX
  5
B8
330
B5
100
AcDbEntity
  8
Layer 1
370
     0
100
AcDbVertex
100
AcDb2dVertex
 10
9.264574550965486
 20
-6.1363727462796
 30
0.0
  0
VERTEX
  5
B9
330
B5
100
AcDbEntity
  8
Layer 1
370
     0
100
AcDbVertex
100
AcDb2dVertex
 10
9.316229769097845
 20
-6.000929400674281
 30
0.0
  0
VERTEX
  5
BA
330
B5
100
AcDbEntity
  8
Layer 1
370
     0
100
AcDbVertex
100
AcDb2dVertex
 10
9.747687024964382
 20
-6.015431278031807
 30
0.0
  0
SEQEND
  5
BB
330
B5
100
AcDbEntity
  8
Layer 1
370
     0
  0
POLYLINE
  5
BC
330
1F
100
AcDbEntity
  8
Layer 1
370
     0
100
AcDb2dPolyline
 66
     1
 10
0.0
 20
0.0
 30
0.0
  0
VERTEX
  5
BD
330
BC
100
AcDbEntity
  8
Layer 1
370
     0
100
AcDbVertex
100
AcDb2dVertex
 10
9.730809639490138
 20
-7.447948598849532
 30
0.0
  0
VERTEX
  5
BE
330
BC
100
AcDbEntity
  8
Layer 1
370
     0
100
AcDbVertex
100
AcDb2dVertex
 10
9.911312453675437
 20
-7.469798082133997
 30
0.0
  0
VERTEX
  5
BF
330
BC
100
AcDbEntity
  8
Layer 1
370
     0
100
AcDbVertex
100
AcDb2dVertex
 10
9.840719405575731
 20
-7.864033077058037
 30
0.0
  0
VERTEX
  5
C0
330
BC
100
AcDbEntity
  8
Layer 1
370
     0
100
AcDbVertex
100
AcDb2dVertex
 10
9.720510102226019
 20
-7.899464308708325
 30
0.0
  0
VERTEX
  5
C1
330
BC
100
AcDbEntity
  8
Layer 1
370
     0
100
AcDbVertex
100
AcDb2dVertex
 10
9.730809639490138
 20
-7.447948598849532
 30
0.0
  0
SEQEND
  5
C2
330
BC
100
AcDbEntity
  8
Layer 1
370
     0
  0
POLYLINE
  5
C3
330
1F
100
AcDbEntity
  8
Layer 1
370
     0
100
AcDb2dPolyline
 66
     1
 10
0.0
 20
0.0
 30
0.0
  0
VERTEX
  5
C4
330
C3
100
AcDbEntity
  8
Layer 1
370
     0
100
AcDbVertex
100
AcDb2dVertex
 10
9.582668871826222
 20
-6.868121438138233
 30
0.0
  0
VERTEX
  5
C5
330
C3
100
AcDbEntity
  8
Layer 1
370
     0
100
AcDbVertex
100
AcDb2dVertex
 10
9.573583045566718
 20
-7.266430778558591
 30
0.0
  0
VERTEX
  5
C6
330
C3
100
AcDbEntity
  8
Layer 1
370
     0
100
AcDbVertex
100
AcDb2dVertex
 10
9.312265516856364
 20
-7.23479821173396
 30
0.0
  0
VERTEX
  5
C7
330
C3
100
AcDbEntity
  8
Layer 1
370
     0
100
AcDbVertex
100
AcDb2dVertex
 10
9.36233646619952
 20
-6.810120194177872
 30
0.0
  0
VERTEX
  5
C8
330
C3
100
AcDbEntity
  8
Layer 1
370
     0
100
AcDbVertex
100
AcDb2dVertex
 10
9.582668871826222
 20
-6.868121438138233
 30
0.0
  0
SEQEND
  5
C9
330
C3
100
AcDbEntity
  8
Layer 1
370
     0
  0
POLYLINE
  5
CA
330
1F
100
AcDbEntity
  8
Layer 1
370
     0
100
AcDb2dPolyline
 66
     1
 10
0.0
 20
0.0
 30
0.0
  0
VERTEX
  5
CB
330
CA
100
AcDbEntity
  8
Layer 1
370
     0
100
AcDbVertex
100
AcDb2dVertex
 10
9.29337781064732
 20
-7.39499732353819
 30
0.0
  0
VERTEX
  5
CC
330
CA
100
AcDbEntity
  8
Layer 1
370
     0
100
AcDbVertex
100
AcDb2dVertex
 10
9.569886418391862
 20
-7.428468358212007
 30
0.0
  0
VERTEX
  5
CD
330
CA
100
AcDbEntity
  8
Layer 1
370
     0
100
AcDbVertex
100
AcDb2dVertex
 10
9.558050050895519
 20
-7.947347714028435
 30
0.0
  0
VERTEX
  5
CE
330
CA
100
AcDbEntity
  8
Layer 1
370
     0
100
AcDbVertex
100
AcDb2dVertex
 10
9.21638145242443
 20
-8.048051714861433
 30
0.0
  0
VERTEX
  5
CF
330
CA
100
AcDbEntity
  8
Layer 1
370
     0
100
AcDbVertex
100
AcDb2dVertex
 10
9.29337781064732
 20
-7.39499732353819
 30
0.0
  0
SEQEND
  5
D0
330
CA
100
AcDbEntity
  8
Layer 1
370
     0
  0
POLYLINE
  5
D1
330
1F
100
AcDbEntity
  8
Layer 1
370
     0
100
AcDb2dPolyline
 66
     1
 10
0.0
 20
0.0
 30
0.0
  0
VERTEX
  5
D2
330
D1
100
AcDbEntity
  8
Layer 1
370
     0
100
AcDbVertex
100
AcDb2dVertex
 10
9.939789908928333
 20
-7.310759872374748
 30
0.0
  0
VERTEX
  5
D3
330
D1
100
AcDbEntity
  8
Layer 1
370
     0
100
AcDbVertex
100
AcDb2dVertex
 10
9.734505371597859
 20
-7.285910124129032
 30
0.0
  0
VERTEX
  5
D4
330
D1
100
AcDbEntity
  8
Layer 1
370
     0
100
AcDbVertex
100
AcDb2dVertex
 10
9.74307295399919
 20
-6.910347124239908
 30
0.0
  0
VERTEX
  5
D5
330
D1
100
AcDbEntity
  8
Layer 1
370
     0
100
AcDbVertex
100
AcDb2dVertex
 10
9.999405853959741
 20
-6.977825338787953
 30
0.0
  0
VERTEX
  5
D6
330
D1
100
AcDbEntity
  8
Layer 1
370
     0
100
AcDbVertex
100
AcDb2dVertex
 10
9.939789908928333
 20
-7.310759872374748
 30
0.0
  0
SEQEND
  5
D7
330
D1
100
AcDbEntity
  8
Layer 1
370
     0
  0
POLYLINE
  5
D8
330
1F
100
AcDbEntity
  8
Layer 1
370
     0
100
AcDb2dPolyline
 66
     1
 10
0.0
 20
0.0
 30
0.0
  0
VERTEX
  5
D9
330
D8
100
AcDbEntity
  8
Layer 1
370
     0
100
AcDbVertex
100
AcDb2dVertex
 10
9.86887195146677
 20
-6.280397100292904
 30
0.0
  0
VERTEX
  5
DA
330
D8
100
AcDbEntity
  8
Layer 1
370
     0
100
AcDbVertex
100
AcDb2dVertex
 10
9.910158712167357
 20
-6.020892082485463
 30
0.0
  0
VERTEX
  5
DB
330
D8
100
AcDbEntity
  8
Layer 1
370
     0
100
AcDbVertex
100
AcDb2dVertex
 10
10.22209855156221
 20
-6.031376898641889
 30
0.0
  0
VERTEX
  5
DC
330
D8
100
AcDbEntity
  8
Layer 1
370
     0
100
AcDbVertex
100
AcDb2dVertex
 10
10.1815099432094
 20
-6.354909647278468
 30
0.0
  0
VERTEX
  5
DD
330
D8
100
AcDbEntity
  8
Layer 1
370
     0
100
AcDbVertex
100
AcDb2dVertex
 10
9.86887195146677
 20
-6.280397100292904
 30
0.0
  0
SEQEND
  5
DE
330
D8
100
AcDbEntity
  8
Layer 1
370
     0
  0
POLYLINE
  5
DF
330
1F
100
AcDbEntity
  8
Layer 1
370
     0
100
AcDb2dPolyline
 66
     1
 10
0.0
 20
0.0
 30
0.0
  0
VERTEX
  5
E0
330
DF
100
AcDbEntity
  8
Layer 1
370
     0
100
AcDbVertex
100
AcDb2dVertex
 10
9.935702137425324
 20
-5.860344789574482
 30
0.0
  0
VERTEX
  5
E1
330
DF
100
AcDbEntity
  8
Layer 1
370
     0
100
AcDbVertex
100
AcDb2dVertex
 10
9.973037176824011
 20
-5.625678779207432
 30
0.0
  0
VERTEX
  5
E2
330
DF
100
AcDbEntity
  8
Layer 1
370
     0
100
AcDbVertex
100
AcDb2dVertex
 10
10.26009146528865
 20
-5.728543472050142
 30
0.0
  0
VERTEX
  5
E3
330
DF
100
AcDbEntity
  8
Layer 1
370
     0
100
AcDbVertex
100
AcDb2dVertex
 10
10.24226351854087
 20
-5.870647012039941
 30
0.0
  0
VERTEX
  5
E4
330
DF
100
AcDbEntity
  8
Layer 1
370
     0
100
AcDbVertex
100
AcDb2dVertex
 10
9.935702137425324
 20
-5.860344789574482
 30
0.0
  0
SEQEND
  5
E5
330
DF
100
AcDbEntity
  8
Layer 1
370
     0
  0
SPLINE
  5
E6
330
1F
100
AcDbEntity
  8
Layer 1
370
     0
100
AcDbSpline
210
0.0
220
0.0
230
1.0
 70
    11
 71
     3
 72
    17
 73
    13
 74
     0
 42
0.0000000001
 43
0.0000000001
 12
1.0
 22
0.0
 32
0.0
 13
1.0
 23
0.0
 33
0.0
 40
0.0
 40
0.0
 40
0.0
 40
0.0
 40
1.0
 40
1.0
 40
1.0
 40
2.0
 40
2.0
 40
2.0
 40
3.0
 40
3.0
 40
3.0
 40
4.0
 40
4.0
 40
4.0
 40
4.0
 10
9.998830325806365
 20
-5.463559748446793
 30
0.0
 10
9.998830325806365
 20
-5.463559748446793
 30
0.0
 10
10.03759657751804
 20
-5.219899208665727
 30
0.0
 10
10.03759657751804
 20
-5.219899208665727
 30
0.0
 10
10.24427562940989
 20
-5.290649788577247
 30
0.0
 10
10.28461630417248
 20
-5.533055444266526
 30
0.0
 10
10.28461630417248
 20
-5.533055444266526
 30
0.0
 10
10.28461630417248
 20
-5.533055444266526
 30
0.0
 10
10.28066458287059
 20
-5.564554646091387
 30
0.0
 10
10.28066458287059
 20
-5.564554646091387
 30
0.0
 10
10.28066458287059
 20
-5.564554646091387
 30
0.0
 10
9.998830325806365
 20
-5.463559748446793
 30
0.0
 10
9.998830325806365
 20
-5.463559748446793
 30
0.0
  0
SPLINE
  5
E7
330
1F
100
AcDbEntity
  8
Layer 1
370
     0
100
AcDbSpline
210
0.0
220
0.0
230
1.0
 70
    11
 71
     3
 72
    50
 73
    46
 74
     0
 42
0.0000000001
 43
0.0000000001
 12
1.0
 22
0.0
 32
0.0
 13
1.0
 23
0.0
 33
0.0
 40
0.0
 40
0.0
 40
0.0
 40
0.0
 40
1.0
 40
1.0
 40
1.0
 40
2.0
 40
2.0
 40
2.0
 40
3.0
 40
3.0
 40
3.0
 40
4.0
 40
4.0
 40
4.0
 40
5.0
 40
5.0
 40
5.0
 40
6.0
 40
6.0
 40
6.0
 40
7.0
 40
7.0
 40
7.0
 40
8.0
 40
8.0
 40
8.0
 40
9.0
 40
9.0
 40
9.0
 40
10.0
 40
10.0
 40
10.0
 40
11.0
 40
11.0
 40
11.0
 40
12.0
 40
12.0
 40
12.0
 40
13.0
 40
13.0
 40
13.0
 40
14.0
 40
14.0
 40
14.0
 40
15.0
 40
15.0
 40
15.0
 40
15.0
 10
9.112613636865161
 20
-2.000703516869331
 30
0.0
 10
9.112613636865161
 20
-2.000703516869331
 30
0.0
 10
8.566464271330663
 20
-2.495029391654283
 30
0.0
 10
8.566464271330663
 20
-2.495029391654283
 30
0.0
 10
8.566464271330663
 20
-2.495029391654283
 30
0.0
 10
8.852155372582855
 20
-2.554132463230189
 30
0.0
 10
8.852155372582855
 20
-2.554132463230189
 30
0.0
 10
8.837682137372944
 20
-2.666002426292279
 30
0.0
 10
8.823208902162984
 20
-2.777873284421452
 30
0.0
 10
8.808735666953073
 20
-2.889743247483529
 30
0.0
 10
8.792022078760409
 20
-3.018927388770774
 30
0.0
 10
8.79192988684781
 20
-3.161729081108357
 30
0.0
 10
8.643898317371598
 20
-3.21133370048589
 30
0.0
 10
8.491832680419115
 20
-2.978686961524747
 30
0.0
 10
8.139569172536792
 20
-2.236770307267521
 30
0.0
 10
8.096081441806442
 20
-2.111472547382972
 30
0.0
 10
8.05832035046218
 20
-2.002677139852507
 30
0.0
 10
7.985206793373536
 20
-1.627047009929937
 30
0.0
 10
8.038707639891982
 20
-1.51392037264183
 30
0.0
 10
8.069941006784422
 20
-1.447879635876562
 30
0.0
 10
8.135971002744352
 20
-1.416860190024029
 30
0.0
 10
8.193460268316306
 20
-1.431311048556141
 30
0.0
 10
8.206496920810626
 20
-1.437546981129281
 30
0.0
 10
8.219642771492646
 20
-1.443565412394074
 30
0.0
 10
8.232622139691733
 20
-1.449912333289161
 30
0.0
 10
8.24992468204444
 20
-1.462472810079564
 30
0.0
 10
8.265168570038263
 20
-1.48025868867305
 30
0.0
 10
8.27637749548876
 20
-1.504387012826075
 30
0.0
 10
8.29576643928082
 20
-1.546124887351387
 30
0.0
 10
8.283862046683883
 20
-1.682818641712932
 30
0.0
 10
8.261463887259424
 20
-1.70609575704192
 30
0.0
 10
8.245748298897272
 20
-1.722427151577499
 30
0.0
 10
8.228708906275667
 20
-1.733615490484377
 30
0.0
 10
8.23753695320675
 20
-1.758667523897543
 30
0.0
 10
8.252752199052996
 20
-1.801839295937182
 30
0.0
 10
8.307974259628862
 20
-1.81061363884151
 30
0.0
 10
8.334285652469386
 20
-1.79111639192883
 30
0.0
 10
8.384161477182033
 20
-1.754157280717398
 30
0.0
 10
8.427761986368573
 20
-1.652118734819573
 30
0.0
 10
8.431507842234598
 20
-1.593948323174939
 30
0.0
 10
8.432378742535093
 20
-1.580422964037199
 30
0.0
 10
8.432566706628727
 20
-1.566832265000231
 30
0.0
 10
8.43204935783769
 20
-1.553285424251802
 30
0.0
 10
8.670232981957042
 20
-1.683355681980465
 30
0.0
 10
8.897682961262742
 20
-1.832911550749347
 30
0.0
 10
9.112613636865161
 20
-2.000703516869331
 30
0.0
  0
SPLINE
  5
E8
330
1F
100
AcDbEntity
  8
Layer 1
370
     0
100
AcDbSpline
210
0.0
220
0.0
230
1.0
 70
    11
 71
     3
 72
   488
 73
   484
 74
     0
 42
0.0000000001
 43
0.0000000001
 12
1.0
 22
0.0
 32
0.0
 13
1.0
 23
0.0
 33
0.0
 40
0.0
 40
0.0
 40
0.0
 40
0.0
 40
1.0
 40
1.0
 40
1.0
 40
2.0
 40
2.0
 40
2.0
 40
3.0
 40
3.0
 40
3.0
 40
4.0
 40
4.0
 40
4.0
 40
5.0
 40
5.0
 40
5.0
 40
6.0
 40
6.0
 40
6.0
 40
7.0
 40
7.0
 40
7.0
 40
8.0
 40
8.0
 40
8.0
 40
9.0
 40
9.0
 40
9.0
 40
10.0
 40
10.0
 40
10.0
 40
11.0
 40
11.0
 40
11.0
 40
12.0
 40
12.0
 40
12.0
 40
13.0
 40
13.0
 40
13.0
 40
14.0
 40
14.0
 40
14.0
 40
15.0
 40
15.0
 40
15.0
 40
16.0
 40
16.0
 40
16.0
 40
17.0
 40
17.0
 40
17.0
 40
18.0
 40
18.0
 40
18.0
 40
19.0
 40
19.0
 40
19.0
 40
20.0
 40
20.0
 40
20.0
 40
21.0
 40
21.0
 40
21.0
 40
22.0
 40
22.0
 40
22.0
 40
23.0
 40
23.0
 40
23.0
 40
24.0
 40
24.0
 40
24.0
 40
25.0
 40
25.0
 40
25.0
 40
26.0
 40
26.0
 40
26.0
 40
27.0
 40
27.0
 40
27.0
 40
28.0
 40
28.0
 40
28.0
 40
29.0
 40
29.0
 40
29.0
 40
30.0
 40
30.0
 40
30.0
 40
31.0
 40
31.0
 40
31.0
 40
32.0
 40
32.0
 40
32.0
 40
33.0
 40
33.0
 40
33.0
 40
34.0
 40
34.0
 40
34.0
 40
35.0
 40
35.0
 40
35.0
 40
36.0
 40
36.0
 40
36.0
 40
37.0
 40
37.0
 40
37.0
 40
38.0
 40
38.0
 40
38.0
 40
39.0
 40
39.0
 40
39.0
 40
40.0
 40
40.0
 40
40.0
 40
41.0
 40
41.0
 40
41.0
 40
42.0
 40
42.0
 40
42.0
 40
43.0
 40
43.0
 40
43.0
 40
44.0
 40
44.0
 40
44.0
 40
45.0
 40
45.0
 40
45.0
 40
46.0
 40
46.0
 40
46.0
 40
47.0
 40
47.0
 40
47.0
 40
48.0
 40
48.0
 40
48.0
 40
49.0
 40
49.0
 40
49.0
 40
50.0
 40
50.0
 40
50.0
 40
51.0
 40
51.0
 40
51.0
 40
52.0
 40
52.0
 40
52.0
 40
53.0
 40
53.0
 40
53.0
 40
54.0
 40
54.0
 40
54.0
 40
55.0
 40
55.0
 40
55.0
 40
56.0
 40
56.0
 40
56.0
 40
57.0
 40
57.0
 40
57.0
 40
58.0
 40
58.0
 40
58.0
 40
59.0
 40
59.0
 40
59.0
 40
60.0
 40
60.0
 40
60.0
 40
61.0
 40
61.0
 40
61.0
 40
62.0
 40
62.0
 40
62.0
 40
63.0
 40
63.0
 40
63.0
 40
64.0
 40
64.0
 40
64.0
 40
65.0
 40
65.0
 40
65.0
 40
66.0
 40
66.0
 40
66.0
 40
67.0
 40
67.0
 40
67.0
 40
68.0
 40
68.0
 40
68.0
 40
69.0
 40
69.0
 40
69.0
 40
70.0
 40
70.0
 40
70.0
 40
71.0
 40
71.0
 40
71.0
 40
72.0
 40
72.0
 40
72.0
 40
73.0
 40
73.0
 40
73.0
 40
74.0
 40
74.0
 40
74.0
 40
75.0
 40
75.0
 40
75.0
 40
76.0
 40
76.0
 40
76.0
 40
77.0
 40
77.0
 40
77.0
 40
78.0
 40
78.0
 40
78.0
 40
79.0
 40
79.0
 40
79.0
 40
80.0
 40
80.0
 40
80.0
 40
81.0
 40
81.0
 40
81.0
 40
82.0
 40
82.0
 40
82.0
 40
83.0
 40
83.0
 40
83.0
 40
84.0
 40
84.0
 40
84.0
 40
85.0
 40
85.0
 40
85.0
 40
86.0
 40
86.0
 40
86.0
 40
87.0
 40
87.0
 40
87.0
 40
88.0
 40
88.0
 40
88.0
 40
89.0
 40
89.0
 40
89.0
 40
90.0
 40
90.0
 40
90.0
 40
91.0
 40
91.0
 40
91.0
 40
92.0
 40
92.0
 40
92.0
 40
93.0
 40
93.0
 40
93.0
 40
94.0
 40
94.0
 40
94.0
 40
95.0
 40
95.0
 40
95.0
 40
96.0
 40
96.0
 40
96.0
 40
97.0
 40
97.0
 40
97.0
 40
98.0
 40
98.0
 40
98.0
 40
99.0
 40
99.0
 40
99.0
 40
100.0
 40
100.0
 40
100.0
 40
101.0
 40
101.0
 40
101.0
 40
102.0
 40
102.0
 40
102.0
 40
103.0
 40
103.0
 40
103.0
 40
104.0
 40
104.0
 40
104.0
 40
105.0
 40
105.0
 40
105.0
 40
106.0
 40
106.0
 40
106.0
 40
107.0
 40
107.0
 40
107.0
 40
108.0
 40
108.0
 40
108.0
 40
109.0
 40
109.0
 40
109.0
 40
110.0
 40
110.0
 40
110.0
 40
111.0
 40
111.0
 40
111.0
 40
112.0
 40
112.0
 40
112.0
 40
113.0
 40
113.0
 40
113.0
 40
114.0
 40
114.0
 40
114.0
 40
115.0
 40
115.0
 40
115.0
 40
116.0
 40
116.0
 40
116.0
 40
117.0
 40
117.0
 40
117.0
 40
118.0
 40
118.0
 40
118.0
 40
119.0
 40
119.0
 40
119.0
 40
120.0
 40
120.0
 40
120.0
 40
121.0
 40
121.0
 40
121.0
 40
122.0
 40
122.0
 40
122.0
 40
123.0
 40
123.0
 40
123.0
 40
124.0
 40
124.0
 40
124.0
 40
125.0
 40
125.0
 40
125.0
 40
126.0
 40
126.0
 40
126.0
 40
127.0
 40
127.0
 40
127.0
 40
128.0
 40
128.0
 40
128.0
 40
129.0
 40
129.0
 40
129.0
 40
130.0
 40
130.0
 40
130.0
 40
131.0
 40
131.0
 40
131.0
 40
132.0
 40
132.0
 40
132.0
 40
133.0
 40
133.0
 40
133.0
 40
134.0
 40
134.0
 40
134.0
 40
135.0
 40
135.0
 40
135.0
 40
136.0
 40
136.0
 40
136.0
 40
137.0
 40
137.0
 40
137.0
 40
138.0
 40
138.0
 40
138.0
 40
139.0
 40
139.0
 40
139.0
 40
140.0
 40
140.0
 40
140.0
 40
141.0
 40
141.0
 40
141.0
 40
142.0
 40
142.0
 40
142.0
 40
143.0
 40
143.0
 40
143.0
 40
144.0
 40
144.0
 40
144.0
 40
145.0
 40
145.0
 40
145.0
 40
146.0
 40
146.0
 40
146.0
 40
147.0
 40
147.0
 40
147.0
 40
148.0
 40
148.0
 40
148.0
 40
149.0
 40
149.0
 40
149.0
 40
150.0
 40
150.0
 40
150.0
 40
151.0
 40
151.0
 40
151.0
 40
152.0
 40
152.0
 40
152.0
 40
153.0
 40
153.0
 40
153.0
 40
154.0
 40
154.0
 40
154.0
 40
155.0
 40
155.0
 40
155.0
 40
156.0
 40
156.0
 40
156.0
 40
157.0
 40
157.0
 40
157.0
 40
158.0
 40
158.0
 40
158.0
 40
159.0
 40
159.0
 40
159.0
 40
160.0
 40
160.0
 40
160.0
 40
161.0
 40
161.0
 40
161.0
 40
161.0
 10
1.07137276586924
 20
-7.11470616217601
 30
0.0
 10
1.271729958745141
 20
-7.128083835240179
 30
0.0
 10
1.466415111328792
 20
-7.222960054103396
 30
0.0
 10
1.59790584056509
 20
-7.375111617498659
 30
0.0
 10
1.814967670962498
 20
-7.28930779888828
 30
0.0
 10
2.248126449410001
 20
-7.39919787349739
 30
0.0
 10
2.248126449410001
 20
-7.39919787349739
 30
0.0
 10
2.245738410353725
 20
-7.479034279668414
 30
0.0
 10
2.35466002234706
 20
-7.478794401682257
 30
0.0
 10
2.35134290362795
 20
-7.387609439591213
 30
0.0
 10
2.35134290362795
 20
-7.387609439591213
 30
0.0
 10
2.420562023709888
 20
-7.363035372016131
 30
0.0
 10
2.446360543094923
 20
-7.340972862758892
 30
0.0
 10
2.463774968836712
 20
-7.326079841073174
 30
0.0
 10
2.476339920962687
 20
-7.283839833897698
 30
0.0
 10
2.492698167511649
 20
-7.274324375424182
 30
0.0
 10
2.514120703783419
 20
-7.261863251083266
 30
0.0
 10
2.547093186075535
 20
-7.273770328881508
 30
0.0
 10
2.573110996903147
 20
-7.272731155963861
 30
0.0
 10
2.61380880344369
 20
-7.271105714087449
 30
0.0
 10
2.696634733770629
 20
-7.240761148837767
 30
0.0
 10
2.696634733770629
 20
-7.240761148837767
 30
0.0
 10
2.731475221126642
 20
-7.27070561908815
 30
0.0
 10
2.743790449528218
 20
-7.296570373439509
 30
0.0
 10
2.780523108760159
 20
-7.26279412088032
 30
0.0
 10
2.798802169332652
 20
-7.245986550640863
 30
0.0
 10
2.82258499758023
 20
-7.182690984709754
 30
0.0
 10
2.794730509037663
 20
-7.165194212793621
 30
0.0
 10
2.794730509037663
 20
-7.165194212793621
 30
0.0
 10
3.096946339321764
 20
-6.915423049835201
 30
0.0
 10
3.307154640838386
 20
-6.904450422102425
 30
0.0
 10
3.292491651400585
 20
-6.727183275528987
 30
0.0
 10
3.440084637991655
 20
-6.55247423076321
 30
0.0
 10
3.617310611477908
 20
-6.537313584010841
 30
0.0
 10
3.556119348328416
 20
-6.428443885910054
 30
0.0
 10
3.612880924337888
 20
-6.271303218429416
 30
0.0
 10
3.729520700042763
 20
-6.226668906727885
 30
0.0
 10
3.729520700042763
 20
-6.226668906727885
 30
0.0
 10
3.725722930284203
 20
-6.215761618894324
 30
0.0
 10
3.725722930284203
 20
-6.215761618894324
 30
0.0
 10
3.563093711269403
 20
-6.154218594369594
 30
0.0
 10
3.326274169429565
 20
-6.291407320844377
 30
0.0
 10
3.186840614636505
 20
-6.366138264205447
 30
0.0
 10
3.016448478554568
 20
-6.457461961698906
 30
0.0
 10
2.858096785270656
 20
-6.569208405499467
 30
0.0
 10
2.700468306213679
 20
-6.680592347119399
 30
0.0
 10
2.682309184634252
 20
-6.590599614422293
 30
0.0
 10
2.613958279651481
 20
-6.475403581969986
 30
0.0
 10
2.633371390255585
 20
-6.385545109339723
 30
0.0
 10
2.539054588337724
 20
-6.380800358576127
 30
0.0
 10
2.552020530530133
 20
-6.512641059053395
 30
0.0
 10
2.509758146676859
 20
-6.55638209377662
 30
0.0
 10
2.43624986499156
 20
-6.63246279834339
 30
0.0
 10
2.35684219596745
 20
-6.422623264477124
 30
0.0
 10
2.260165102073794
 20
-6.454849260797371
 30
0.0
 10
2.308757400547039
 20
-6.55203385774386
 30
0.0
 10
2.283250673040698
 20
-6.672439180791192
 30
0.0
 10
2.270043957795009
 20
-6.774219052293498
 30
0.0
 10
1.982753371612704
 20
-6.706822288852688
 30
0.0
 10
1.690080746882611
 20
-6.65271727203329
 30
0.0
 10
1.394241374708321
 20
-6.647661037914481
 30
0.0
 10
1.279336239067586
 20
-6.645696365602412
 30
0.0
 10
1.126228743996093
 20
-6.637928078132593
 30
0.0
 10
0.9902850558748797
 20
-6.664549164194063
 30
0.0
 10
0.9367027582491749
 20
-6.263068600993948
 30
0.0
 10
0.9307827843667711
 20
-5.848851232782218
 30
0.0
 10
0.9781926991843193
 20
-5.428558149010516
 30
0.0
 10
1.058996672904009
 20
-4.712263685917151
 30
0.0
 10
1.286089520431776
 20
-4.035669029533842
 30
0.0
 10
1.640705264685898
 20
-3.432324875507384
 30
0.0
 10
1.627009842796762
 20
-3.496725849322489
 30
0.0
 10
1.616230549560328
 20
-3.562351274947559
 30
0.0
 10
1.608696769673998
 20
-3.629135812483367
 30
0.0
 10
1.483185088749539
 20
-4.741783894356167
 30
0.0
 10
2.28341805059074
 20
-5.745512154369862
 30
0.0
 10
3.396065237396429
 20
-5.87102383529432
 30
0.0
 10
3.780246838512299
 20
-5.91436119474977
 30
0.0
 10
4.151417744080151
 20
-5.847283970268146
 30
0.0
 10
4.477957023147799
 20
-5.695131511805761
 30
0.0
 10
4.377988767481295
 20
-5.696810657708903
 30
0.0
 10
4.276392384737076
 20
-5.692111555368013
 30
0.0
 10
4.173736242531592
 20
-5.680531177065833
 30
0.0
 10
3.539582983424048
 20
-5.608995623296614
 30
0.0
 10
3.052865179095786
 20
-5.297744090511324
 30
0.0
 10
2.771490986527422
 20
-4.865415934344266
 30
0.0
 10
2.814259978366395
 20
-4.771609320680555
 30
0.0
 10
2.958440074057307
 20
-4.782685776198377
 30
0.0
 10
3.029872695108603
 20
-4.84518920773486
 30
0.0
 10
3.049872969738531
 20
-4.758189579462092
 30
0.0
 10
3.150467772383801
 20
-4.700735221507519
 30
0.0
 10
3.23484306388256
 20
-4.698117150203302
 30
0.0
 10
3.277399924815882
 20
-4.696796031145178
 30
0.0
 10
3.328192298251754
 20
-4.703987895394511
 30
0.0
 10
3.367765900498941
 20
-4.719940676541492
 30
0.0
 10
3.408921086334001
 20
-4.736530745472615
 30
0.0
 10
3.447562923716999
 20
-4.764826502101666
 30
0.0
 10
3.487234983346563
 20
-4.727387634917918
 30
0.0
 10
3.517955476783502
 20
-4.698397306209535
 30
0.0
 10
3.503880546438659
 20
-4.653356634038901
 30
0.0
 10
3.51151904917717
 20
-4.615574061083925
 30
0.0
 10
3.520886821577101
 20
-4.569236436667211
 30
0.0
 10
3.541631792044679
 20
-4.516064079779059
 30
0.0
 10
3.564163316468908
 20
-4.474874881393728
 30
0.0
 10
3.601271008821022
 20
-4.407037744933556
 30
0.0
 10
3.690126111218079
 20
-4.325084505041357
 30
0.0
 10
3.774472760569248
 20
-4.350303020937455
 30
0.0
 10
3.753177323827458
 20
-4.264562752092059
 30
0.0
 10
3.794086366206557
 20
-4.167162443971455
 30
0.0
 10
3.870218984665838
 20
-4.122341958310509
 30
0.0
 10
3.87022077480007
 20
-4.06625973823946
 30
0.0
 10
3.892891034626738
 20
-4.010501532463157
 30
0.0
 10
3.932024263854537
 20
-3.970330025384783
 30
0.0
 10
3.860090405220224
 20
-3.917248070275011
 30
0.0
 10
3.762067130389293
 20
-3.953332700917473
 30
0.0
 10
3.688685053166889
 20
-3.983198405261924
 30
0.0
 10
3.614575286381953
 20
-4.013359481753519
 30
0.0
 10
3.534153506319335
 20
-4.04802811622393
 30
0.0
 10
3.486356027442045
 20
-4.115507225839084
 30
0.0
 10
3.440960013627723
 20
-4.179594031097659
 30
0.0
 10
3.429677692674027
 20
-4.278517743443823
 30
0.0
 10
3.356275028908019
 20
-4.320361235888425
 30
0.0
 10
3.294695306631676
 20
-4.355465768042639
 30
0.0
 10
3.246861130002786
 20
-4.264758771789704
 30
0.0
 10
3.197112404820132
 20
-4.304907902190254
 30
0.0
 10
3.134807678182622
 20
-4.355189192304869
 30
0.0
 10
3.235051614519787
 20
-4.417832254310913
 30
0.0
 10
3.142407693035302
 20
-4.461194675645515
 30
0.0
 10
3.059490465862874
 20
-4.500004785645678
 30
0.0
 10
2.963365628377674
 20
-4.482388074736478
 30
0.0
 10
2.87829934506802
 20
-4.513467490085544
 30
0.0
 10
2.801270764429066
 20
-4.541610190238353
 30
0.0
 10
2.745211816102938
 20
-4.604231770633697
 30
0.0
 10
2.700913154568613
 20
-4.670860566491923
 30
0.0
 10
2.693756197936674
 20
-4.681624643587459
 30
0.0
 10
2.686351307714542
 20
-4.692894433601572
 30
0.0
 10
2.678968794170221
 20
-4.704499873782892
 30
0.0
 10
2.53234964059762
 20
-4.412870897306044
 30
0.0
 10
2.471159272515238
 20
-4.078257217816081
 30
0.0
 10
2.510348890971133
 20
-3.730846763817997
 30
0.0
 10
2.565623760506658
 20
-3.240844958253774
 30
0.0
 10
2.809888470588703
 20
-2.820157149885429
 30
0.0
 10
3.183476057360432
 20
-2.542057112814784
 30
0.0
 10
3.33653611387495
 20
-2.526630631129983
 30
0.0
 10
3.427517000664327
 20
-2.721066955056358
 30
0.0
 10
3.398833679975546
 20
-2.858885808778357
 30
0.0
 10
3.52914381569038
 20
-2.820328107703934
 30
0.0
 10
3.681317755763479
 20
-2.914387130293373
 30
0.0
 10
3.742742631429349
 20
-3.027063548823864
 30
0.0
 10
3.775585328990145
 20
-3.087308726035379
 30
0.0
 10
3.802935894748341
 20
-3.160748087552999
 30
0.0
 10
3.805912887964685
 20
-3.22942658709898
 30
0.0
 10
3.808483520711926
 20
-3.288707777030279
 30
0.0
 10
3.819687970826824
 20
-3.345723552099722
 30
0.0
 10
3.886408958597649
 20
-3.36290884066068
 30
0.0
 10
3.949472702146585
 20
-3.379152518619245
 30
0.0
 10
4.013603365693699
 20
-3.315743279164849
 30
0.0
 10
4.074924413574498
 20
-3.302629650898881
 30
0.0
 10
4.13893066279296
 20
-3.288940494479549
 30
0.0
 10
4.210867206628614
 20
-3.27444756779313
 30
0.0
 10
4.276504268126144
 20
-3.276542024836506
 30
0.0
 10
4.386482059312294
 20
-3.280051582984798
 30
0.0
 10
4.545518478937311
 20
-3.334302495743587
 30
0.0
 10
4.573186793520449
 20
-3.456253599694314
 30
0.0
 10
4.667817763994814
 20
-3.36683639515056
 30
0.0
 10
4.822454928761645
 20
-3.348817799107817
 30
0.0
 10
4.935108970614313
 20
-3.414081617619407
 30
0.0
 10
5.00709295300693
 20
-3.37347510792434
 30
0.0
 10
5.095074469902152
 20
-3.362199052440423
 30
0.0
 10
5.174971740636831
 20
-3.383339642571753
 30
0.0
 10
5.187815058634808
 20
-3.278667809228813
 30
0.0
 10
5.111685125376867
 20
-3.191653859882257
 30
0.0
 10
5.038903638186954
 20
-3.127133842141183
 30
0.0
 10
4.959550568256721
 20
-3.056788727631644
 30
0.0
 10
4.869557835559602
 20
-2.984964067185059
 30
0.0
 10
4.770968878313536
 20
-2.944115889369616
 30
0.0
 10
4.664084439068372
 20
-2.899830653841971
 30
0.0
 10
4.562810280484655
 20
-2.925286362522898
 30
0.0
 10
4.451678747790437
 20
-2.927044274331946
 30
0.0
 10
4.379346584291031
 20
-2.928188170101774
 30
0.0
 10
4.258312924130678
 20
-2.909327315906125
 30
0.0
 10
4.252848539408546
 20
-2.817097810494741
 30
0.0
 10
4.250588494949359
 20
-2.778959000828978
 30
0.0
 10
4.269634628037326
 20
-2.737420726269748
 30
0.0
 10
4.243661570565337
 20
-2.703731295220476
 30
0.0
 10
4.220207231948077
 20
-2.673307964064899
 30
0.0
 10
4.176983546015915
 20
-2.671513354504226
 30
0.0
 10
4.145278478755168
 20
-2.687475086322352
 30
0.0
 10
4.117330903232906
 20
-2.701544646264513
 30
0.0
 10
4.102568561345619
 20
-2.730524234167547
 30
0.0
 10
4.076990228470271
 20
-2.746797449340836
 30
0.0
 10
4.040067815010464
 20
-2.770288485709708
 30
0.0
 10
4.007525859999482
 20
-2.749667034503659
 30
0.0
 10
3.97540100626294
 20
-2.726881311019472
 30
0.0
 10
3.893000232814466
 20
-2.668437008838408
 30
0.0
 10
3.845069388937405
 20
-2.576732907822083
 30
0.0
 10
3.784145750854577
 20
-2.498804784735019
 30
0.0
 10
3.724713294581243
 20
-2.422784944731916
 30
0.0
 10
3.651213068499967
 20
-2.36945237083061
 30
0.0
 10
3.558795598994948
 20
-2.340701025041287
 30
0.0
 10
3.553647172963552
 20
-2.339099749976917
 30
0.0
 10
3.548423561294713
 20
-2.337814433603297
 30
0.0
 10
3.543240227645937
 20
-2.336356369276965
 30
0.0
 10
3.840159945825071
 20
-2.210512618453751
 30
0.0
 10
4.187062001703225
 20
-2.157941746665238
 30
0.0
 10
4.566275980344446
 20
-2.200718794108234
 30
0.0
 10
4.668932122549942
 20
-2.212298277343292
 30
0.0
 10
4.769022107343744
 20
-2.230350885936319
 30
0.0
 10
4.866104666639368
 20
-2.254258128512522
 30
0.0
 10
4.581666659344743
 20
-2.03318371224955
 30
0.0
 10
4.23476639360082
 20
-1.885104704216372
 30
0.0
 10
3.85058479248495
 20
-1.841767344760923
 30
0.0
 10
3.553965816855629
 20
-1.808307050892457
 30
0.0
 10
3.265100807622325
 20
-1.840671782615156
 30
0.0
 10
2.998539080699553
 20
-1.927175543707563
 30
0.0
 10
3.874256632410556
 20
-1.278710161470359
 30
0.0
 10
4.916358209673502
 20
-0.9356649497801754
 30
0.0
 10
5.995788560865346
 20
-0.9356649497801754
 30
0.0
 10
6.187132427917858
 20
-0.9356649497801754
 30
0.0
 10
6.379836796981458
 20
-0.9464558788890827
 30
0.0
 10
6.572770303225853
 20
-0.9682167505293995
 30
0.0
 10
7.061715034530152
 20
-1.023373471206077
 30
0.0
 10
7.532039684692083
 20
-1.146966128241224
 30
0.0
 10
7.973333728125529
 20
-1.332455361310546
 30
0.0
 10
7.946702796325856
 20
-1.349910960139495
 30
0.0
 10
7.922928023682289
 20
-1.370607596982988
 30
0.0
 10
7.904034947070563
 20
-1.394280331975715
 30
0.0
 10
7.808951072637253
 20
-1.513421820260141
 30
0.0
 10
7.836123520040044
 20
-1.716420356185166
 30
0.0
 10
7.827339331397474
 20
-1.860663106573977
 30
0.0
 10
7.804179469860249
 20
-2.240989653636082
 30
0.0
 10
7.592015446702716
 20
-2.780369626598359
 30
0.0
 10
7.397893291332846
 20
-3.149058511063104
 30
0.0
 10
7.397893291332846
 20
-3.149058511063104
 30
0.0
 10
7.282966674081409
 20
-2.652017002658681
 30
0.0
 10
7.282966674081409
 20
-2.652017002658681
 30
0.0
 10
7.282966674081409
 20
-2.652017002658681
 30
0.0
 10
7.510156188857334
 20
-2.510023555923719
 30
0.0
 10
7.510156188857334
 20
-2.510023555923719
 30
0.0
 10
7.044258540634094
 20
-2.280279519608585
 30
0.0
 10
6.721614593640273
 20
-1.968202734945521
 30
0.0
 10
6.476847750908089
 20
-1.506631841144339
 30
0.0
 10
6.476847750908089
 20
-1.506631841144339
 30
0.0
 10
6.441722632210283
 20
-1.418862455154795
 30
0.0
 10
6.336973823095629
 20
-1.439494647166195
 30
0.0
 10
6.20668158872306
 20
-1.465158011417227
 30
0.0
 10
6.140643537159121
 20
-1.663125375102608
 30
0.0
 10
6.19867073806573
 20
-1.75555537554721
 30
0.0
 10
6.222693444299466
 20
-1.793821284742952
 30
0.0
 10
6.303284392046382
 20
-1.778334833561606
 30
0.0
 10
6.292979484379581
 20
-1.732790238606602
 30
0.0
 10
6.281793830674056
 20
-1.683350311577795
 30
0.0
 10
6.312587719614233
 20
-1.616400186626151
 30
0.0
 10
6.350748905957794
 20
-1.604392861311289
 30
0.0
 10
6.374204139642162
 20
-1.597013032968322
 30
0.0
 10
6.400442136979462
 20
-1.61039070603249
 30
0.0
 10
6.42142519529898
 20
-1.661349561951308
 30
0.0
 10
6.438347334128846
 20
-2.135370839288056
 30
0.0
 10
6.371412425318113
 20
-2.544019994992608
 30
0.0
 10
6.131666909087344
 20
-2.949966943084354
 30
0.0
 10
6.131666909087344
 20
-2.949966943084354
 30
0.0
 10
6.349318588711943
 20
-2.929888797615629
 30
0.0
 10
6.349318588711943
 20
-2.929888797615629
 30
0.0
 10
6.349318588711943
 20
-2.929888797615629
 30
0.0
 10
6.904861683592647
 20
-3.930058270789825
 30
0.0
 10
6.904861683592647
 20
-3.930058270789825
 30
0.0
 10
6.759684483138344
 20
-4.125234815218278
 30
0.0
 10
6.603317153642946
 20
-4.310426886006224
 30
0.0
 10
6.431134883335921
 20
-4.482085542052434
 30
0.0
 10
6.431134883335921
 20
-4.482085542052434
 30
0.0
 10
6.983283883725839
 20
-4.462100483563416
 30
0.0
 10
6.983283883725839
 20
-4.462100483563416
 30
0.0
 10
7.021406582183545
 20
-4.634304235481156
 30
0.0
 10
7.076714569202269
 20
-4.939407552270331
 30
0.0
 10
7.081111138859114
 20
-5.275143645919431
 30
0.0
 10
6.824690522321538
 20
-5.156884693807974
 30
0.0
 10
6.580610196064677
 20
-5.013836858014441
 30
0.0
 10
6.330715513844678
 20
-4.88278202646197
 30
0.0
 10
6.223495424432308
 20
-5.051310632815582
 30
0.0
 10
6.113261644051994
 20
-5.217947962360364
 30
0.0
 10
6.00105871602404
 20
-5.383196147746477
 30
0.0
 10
5.86265001307485
 20
-5.414502015075034
 30
0.0
 10
5.7213905213722
 20
-5.426341067772733
 30
0.0
 10
5.672464362865981
 20
-5.264277531173067
 30
0.0
 10
5.639899136110077
 20
-5.156406727969877
 30
0.0
 10
5.608865369183743
 20
-5.048051693458786
 30
0.0
 10
5.577069005077507
 20
-4.939951753074764
 30
0.0
 10
5.577069005077507
 20
-4.939951753074764
 30
0.0
 10
5.811504983196628
 20
-4.859159415227547
 30
0.0
 10
5.811504983196628
 20
-4.859159415227547
 30
0.0
 10
5.811504983196628
 20
-4.859159415227547
 30
0.0
 10
5.207864561955931
 20
-4.439294173535637
 30
0.0
 10
5.207864561955931
 20
-4.439294173535637
 30
0.0
 10
5.131175211752634
 20
-4.630458132098523
 30
0.0
 10
4.951821663739843
 20
-5.096124853006724
 30
0.0
 10
4.9571097202408
 20
-5.153600692572025
 30
0.0
 10
4.9571097202408
 20
-5.153600692572025
 30
0.0
 10
5.17968784925285
 20
-5.07689702129494
 30
0.0
 10
5.17968784925285
 20
-5.07689702129494
 30
0.0
 10
5.228965769134308
 20
-5.251613226597593
 30
0.0
 10
5.275943366536492
 20
-5.42794502803843
 30
0.0
 10
5.334617700965484
 20
-5.599832821265434
 30
0.0
 10
5.383909046853634
 20
-5.744233998533142
 30
0.0
 10
5.508361863383925
 20
-5.84962099049902
 30
0.0
 10
5.663403598485628
 20
-5.862565451080715
 30
0.0
 10
5.515713049579302
 20
-6.062910113017046
 30
0.0
 10
5.359420905721373
 20
-6.250929700813534
 30
0.0
 10
5.185187141592362
 20
-6.428283668896888
 30
0.0
 10
5.330577368019438
 20
-6.386397213230894
 30
0.0
 10
5.471336517206181
 20
-6.345922278401353
 30
0.0
 10
5.6251591709006
 20
-6.358869424184402
 30
0.0
 10
5.75200181662141
 20
-6.496870871597391
 30
0.0
 10
5.861195529016968
 20
-6.650039231232515
 30
0.0
 10
5.957003512744323
 20
-6.811701777765746
 30
0.0
 10
5.953750838857318
 20
-6.81147532578628
 30
0.0
 10
5.950480263628062
 20
-6.81123186753166
 30
0.0
 10
5.947270552962449
 20
-6.81104390343805
 30
0.0
 10
5.847786528603844
 20
-6.805225072139339
 30
0.0
 10
5.734906034771711
 20
-6.801909743554461
 30
0.0
 10
5.641913037113315
 20
-6.842845637946917
 30
0.0
 10
5.544313129026616
 20
-6.885809754416439
 30
0.0
 10
5.487947172680896
 20
-6.997590210767283
 30
0.0
 10
5.382450087460168
 20
-7.024599755955604
 30
0.0
 10
5.33809682683198
 20
-7.035955472412525
 30
0.0
 10
5.305795644874264
 20
-7.028346506888738
 30
0.0
 10
5.278259800223774
 20
-6.993198116445986
 30
0.0
 10
5.257044024454999
 20
-6.966117860955793
 30
0.0
 10
5.247744277155599
 20
-6.931839475746478
 30
0.0
 10
5.20695069843402
 20
-6.932785561684416
 30
0.0
 10
5.118756155565999
 20
-6.93483079003661
 30
0.0
 10
5.165538628337672
 20
-7.048788049605137
 30
0.0
 10
5.104959591093158
 20
-7.077866094890547
 30
0.0
 10
5.057096772316653
 20
-7.100840677535492
 30
0.0
 10
4.979201766712751
 20
-7.078118503816313
 30
0.0
 10
4.931747993606677
 20
-7.064946696188017
 30
0.0
 10
4.873807614209984
 20
-7.048864130309716
 30
0.0
 10
4.817396009441508
 20
-7.025629978202131
 30
0.0
 10
4.757266295887512
 20
-7.018522250261387
 30
0.0
 10
4.6439391635662
 20
-7.005124885720735
 30
0.0
 10
4.538903932975548
 20
-7.054606880903848
 30
0.0
 10
4.44750504984462
 20
-7.11691160754132
 30
0.0
 10
4.367309721761456
 20
-7.171579621574564
 30
0.0
 10
4.269770678238425
 20
-7.239158083639217
 30
0.0
 10
4.23745786040825
 20
-7.335433292399304
 30
0.0
 10
4.23745786040825
 20
-7.335433292399304
 30
0.0
 10
4.24623667864815
 20
-7.344097542048807
 30
0.0
 10
4.24623667864815
 20
-7.344097542048807
 30
0.0
 10
4.301337010096733
 20
-7.282496338161764
 30
0.0
 10
4.407223449511409
 20
-7.317119324209443
 30
0.0
 10
4.415560999664813
 20
-7.399124477994165
 30
0.0
 10
4.499538881365601
 20
-7.254918425356967
 30
0.0
 10
4.689672617681948
 20
-7.343641057821388
 30
0.0
 10
4.746146877148299
 20
-7.460909170639247
 30
0.0
 10
4.810452973849451
 20
-7.372548145288318
 30
0.0
 10
4.950564094446715
 20
-7.3569068474965
 30
0.0
 10
5.046596740019329
 20
-7.394268738908572
 30
0.0
 10
5.097102691979191
 20
-7.413918147230383
 30
0.0
 10
5.153777446478746
 20
-7.448418509083618
 30
0.0
 10
5.190732977421716
 20
-7.488092358847426
 30
0.0
 10
5.226001306857534
 20
-7.525954592775406
 30
0.0
 10
5.251957358054382
 20
-7.566337335692323
 30
0.0
 10
5.310679131040337
 20
-7.548939021158579
 30
0.0
 10
5.361141224711698
 20
-7.533987820110521
 30
0.0
 10
5.366040822085791
 20
-7.480059131512284
 30
0.0
 10
5.391446407008402
 20
-7.440526702352271
 30
0.0
 10
5.42327141326224
 20
-7.391005324216216
 30
0.0
 10
5.474479097838349
 20
-7.339274025379281
 30
0.0
 10
5.520268941182179
 20
-7.302609391247895
 30
0.0
 10
5.594187163605018
 20
-7.243421288296278
 30
0.0
 10
5.734632144235269
 20
-7.193057652007332
 30
0.0
 10
5.817678261071882
 20
-7.262115660009006
 30
0.0
 10
5.834804475203415
 20
-7.155796903178977
 30
0.0
 10
5.927252376990269
 20
-7.066152351588622
 30
0.0
 10
6.034048204591297
 20
-7.052306558424586
 30
0.0
 10
6.041555132464256
 20
-7.0347077488576
 30
0.0
 10
6.051219172078441
 20
-7.018118574993625
 30
0.0
 10
6.062371708300841
 20
-7.002584685255315
 30
0.0
 10
6.132313147542592
 20
-7.138774516832477
 30
0.0
 10
6.194352934314818
 20
-7.278969773738329
 30
0.0
 10
6.250527346298441
 20
-7.419723552522403
 30
0.0
 10
6.365419055932484
 20
-7.707602197797642
 30
0.0
 10
6.457494609800531
 20
-8.00526213647888
 30
0.0
 10
6.52755509296829
 20
-8.307181699548714
 30
0.0
 10
6.537805401541188
 20
-8.351354156620168
 30
0.0
 10
6.557456599997244
 20
-8.483587791559886
 30
0.0
 10
6.571999650441941
 20
-8.579090557401868
 30
0.0
 10
6.224465677182327
 20
-8.64212655387031
 30
0.0
 10
5.893217450035548
 20
-8.715942738642298
 30
0.0
 10
5.57978016336142
 20
-8.796836219073258
 30
0.0
 10
5.578920898933372
 20
-8.789913770024794
 30
0.0
 10
5.57736258709042
 20
-8.782976104835445
 30
0.0
 10
5.575006770450196
 20
-8.776116310484843
 30
0.0
 10
5.575006770450196
 20
-8.776116310484843
 30
0.0
 10
5.542874756176742
 20
-8.68256031561264
 30
0.0
 10
5.542874756176742
 20
-8.68256031561264
 30
0.0
 10
5.524528565570815
 20
-8.629140920201431
 30
0.0
 10
5.466350993389268
 20
-8.60070911337127
 30
0.0
 10
5.41293249304518
 20
-8.619055303977222
 30
0.0
 10
5.41293249304518
 20
-8.619055303977222
 30
0.0
 10
5.36490677205418
 20
-8.635549600727295
 30
0.0
 10
5.36490677205418
 20
-8.635549600727295
 30
0.0
 10
5.36490677205418
 20
-8.635549600727295
 30
0.0
 10
5.242569894177942
 20
-8.279344217281302
 30
0.0
 10
5.242569894177942
 20
-8.279344217281302
 30
0.0
 10
5.236009052242959
 20
-8.260241694965265
 30
0.0
 10
5.215205007345958
 20
-8.250074627633795
 30
0.0
 10
5.19610248502992
 20
-8.25663457450168
 30
0.0
 10
5.19610248502992
 20
-8.25663457450168
 30
0.0
 10
5.17510331550237
 20
-8.263847025294606
 30
0.0
 10
5.17510331550237
 20
-8.263847025294606
 30
0.0
 10
5.122157410593697
 20
-8.211481123874844
 30
0.0
 10
5.042197485161144
 20
-8.190432725656112
 30
0.0
 10
4.966995736498903
 20
-8.216260782255883
 30
0.0
 10
4.891793092769565
 20
-8.242088838855604
 30
0.0
 10
4.84163890218493
 20
-8.307824357735525
 30
0.0
 10
4.832041097537058
 20
-8.381670079722248
 30
0.0
 10
4.832041097537058
 20
-8.381670079722248
 30
0.0
 10
4.811041928009508
 20
-8.388882530515174
 30
0.0
 10
4.811041928009508
 20
-8.388882530515174
 30
0.0
 10
4.79193940569347
 20
-8.395443372450169
 30
0.0
 10
4.781772338362012
 20
-8.41624741734717
 30
0.0
 10
4.788332285229899
 20
-8.435349939663208
 30
0.0
 10
4.788332285229899
 20
-8.435349939663208
 30
0.0
 10
4.910670058173246
 20
-8.7915553231092
 30
0.0
 10
4.910670058173246
 20
-8.7915553231092
 30
0.0
 10
4.910670058173246
 20
-8.7915553231092
 30
0.0
 10
4.85908734047699
 20
-8.809271386467925
 30
0.0
 10
4.85908734047699
 20
-8.809271386467925
 30
0.0
 10
4.805668840132878
 20
-8.82761847214096
 30
0.0
 10
4.777237033302716
 20
-8.885795149255399
 30
0.0
 10
4.795583223908655
 20
-8.939214544666608
 30
0.0
 10
4.795583223908655
 20
-8.939214544666608
 30
0.0
 10
4.821794369232584
 20
-9.015534232152428
 30
0.0
 10
4.821794369232584
 20
-9.015534232152428
 30
0.0
 10
4.74222200785976
 20
-9.04094518747772
 30
0.0
 10
4.664161414840034
 20
-9.06664703961461
 30
0.0
 10
4.587651078059265
 20
-9.092583399334973
 30
0.0
 10
4.587651078059265
 20
-9.092583399334973
 30
0.0
 10
4.52489344746281
 20
-8.933183582462233
 30
0.0
 10
4.52489344746281
 20
-8.933183582462233
 30
0.0
 10
4.487870786486408
 20
-8.83914783161774
 30
0.0
 10
4.38162721529381
 20
-8.792930146194092
 30
0.0
 10
4.287592359516414
 20
-8.829952807170482
 30
0.0
 10
4.287592359516414
 20
-8.829952807170482
 30
0.0
 10
4.203052375668941
 20
-8.8632367728178
 30
0.0
 10
4.203052375668941
 20
-8.8632367728178
 30
0.0
 10
4.203052375668941
 20
-8.8632367728178
 30
0.0
 10
3.956179440020934
 20
-8.23619661205372
 30
0.0
 10
3.956179440020934
 20
-8.23619661205372
 30
0.0
 10
3.942940502359205
 20
-8.202569835702281
 30
0.0
 10
3.904947588632795
 20
-8.186042421469057
 30
0.0
 10
3.871320812281384
 20
-8.199281359130786
 30
0.0
 10
3.871320812281384
 20
-8.199281359130786
 30
0.0
 10
3.834355435600186
 20
-8.213835150380849
 30
0.0
 10
3.834355435600186
 20
-8.213835150380849
 30
0.0
 10
3.735570458656475
 20
-8.124421526105555
 30
0.0
 10
3.59097505182534
 20
-8.093124609448118
 30
0.0
 10
3.458593730812077
 20
-8.145244367411932
 30
0.0
 10
3.326212409798801
 20
-8.197364125375719
 30
0.0
 10
3.241764617863926
 20
-8.318837263488325
 30
0.0
 10
3.230451864628397
 20
-8.451598092957333
 30
0.0
 10
3.230451864628397
 20
-8.451598092957333
 30
0.0
 10
3.193486487947186
 20
-8.466151884207395
 30
0.0
 10
3.193486487947186
 20
-8.466151884207395
 30
0.0
 10
3.1598597115958
 20
-8.47939082186915
 30
0.0
 10
3.143332297362563
 20
-8.517383735595534
 30
0.0
 10
3.156571235024292
 20
-8.551010511946945
 30
0.0
 10
3.156571235024292
 20
-8.551010511946945
 30
0.0
 10
3.40344327560519
 20
-9.178051567778134
 30
0.0
 10
3.40344327560519
 20
-9.178051567778134
 30
0.0
 10
3.40344327560519
 20
-9.178051567778134
 30
0.0
 10
3.312640507171194
 20
-9.213801443320511
 30
0.0
 10
3.312640507171194
 20
-9.213801443320511
 30
0.0
 10
3.218605651393798
 20
-9.250824104296926
 30
0.0
 10
3.172387965970163
 20
-9.357067675489512
 30
0.0
 10
3.209410626946565
 20
-9.451102531266896
 30
0.0
 10
3.209410626946565
 20
-9.451102531266896
 30
0.0
 10
3.274064009687411
 20
-9.615318704272239
 30
0.0
 10
3.274064009687411
 20
-9.615318704272239
 30
0.0
 10
3.077332733684456
 20
-9.706128633243123
 30
0.0
 10
2.903619898614958
 20
-9.792465016785474
 30
0.0
 10
2.754741595650267
 20
-9.87027409594657
 30
0.0
 10
1.917722270550371
 20
-9.165805259544236
 30
0.0
 10
1.318374591181459
 20
-8.19925271698321
 30
0.0
 10
1.07137276586924
 20
-7.11470616217601
 30
0.0
  0
POLYLINE
  5
E9
330
1F
100
AcDbEntity
  8
Layer 1
370
     0
100
AcDb2dPolyline
 66
     1
 10
0.0
 20
0.0
 30
0.0
  0
VERTEX
  5
EA
330
E9
100
AcDbEntity
  8
Layer 1
370
     0
100
AcDbVertex
100
AcDb2dVertex
 10
3.467143411871158
 20
-8.385346120353486
 30
0.0
  0
VERTEX
  5
EB
330
E9
100
AcDbEntity
  8
Layer 1
370
     0
100
AcDbVertex
100
AcDb2dVertex
 10
3.616027085238506
 20
-8.326729070219699
 30
0.0
  0
VERTEX
  5
EC
330
E9
100
AcDbEntity
  8
Layer 1
370
     0
100
AcDbVertex
100
AcDb2dVertex
 10
3.651037635345915
 20
-8.465700770382657
 30
0.0
  0
VERTEX
  5
ED
330
E9
100
AcDbEntity
  8
Layer 1
370
     0
100
AcDbVertex
100
AcDb2dVertex
 10
3.762106513342259
 20
-8.406580692531634
 30
0.0
  0
VERTEX
  5
EE
330
E9
100
AcDbEntity
  8
Layer 1
370
     0
100
AcDbVertex
100
AcDb2dVertex
 10
3.805231741892031
 20
-8.516116320564151
 30
0.0
  0
VERTEX
  5
EF
330
E9
100
AcDbEntity
  8
Layer 1
370
     0
100
AcDbVertex
100
AcDb2dVertex
 10
3.681656986199136
 20
-8.549122815406589
 30
0.0
  0
VERTEX
  5
F0
330
E9
100
AcDbEntity
  8
Layer 1
370
     0
100
AcDbVertex
100
AcDb2dVertex
 10
3.84398188239566
 20
-8.90572023824787
 30
0.0
  0
VERTEX
  5
F1
330
E9
100
AcDbEntity
  8
Layer 1
370
     0
100
AcDbVertex
100
AcDb2dVertex
 10
3.6950982090283
 20
-8.964337288381659
 30
0.0
  0
VERTEX
  5
F2
330
E9
100
AcDbEntity
  8
Layer 1
370
     0
100
AcDbVertex
100
AcDb2dVertex
 10
3.570744744947483
 20
-8.592789559559428
 30
0.0
  0
VERTEX
  5
F3
330
E9
100
AcDbEntity
  8
Layer 1
370
     0
100
AcDbVertex
100
AcDb2dVertex
 10
3.457837399101966
 20
-8.652888840831615
 30
0.0
  0
VERTEX
  5
F4
330
E9
100
AcDbEntity
  8
Layer 1
370
     0
100
AcDbVertex
100
AcDb2dVertex
 10
3.414711275485085
 20
-8.543353212799072
 30
0.0
  0
VERTEX
  5
F5
330
E9
100
AcDbEntity
  8
Layer 1
370
     0
100
AcDbVertex
100
AcDb2dVertex
 10
3.536273025241851
 20
-8.510884653291315
 30
0.0
  0
VERTEX
  5
F6
330
E9
100
AcDbEntity
  8
Layer 1
370
     0
100
AcDbVertex
100
AcDb2dVertex
 10
3.467143411871158
 20
-8.385346120353486
 30
0.0
  0
SEQEND
  5
F7
330
E9
100
AcDbEntity
  8
Layer 1
370
     0
  0
SPLINE
  5
F8
330
1F
100
AcDbEntity
  8
Layer 1
370
     0
100
AcDbSpline
210
0.0
220
0.0
230
1.0
 70
    11
 71
     3
 72
    26
 73
    22
 74
     0
 42
0.0000000001
 43
0.0000000001
 12
1.0
 22
0.0
 32
0.0
 13
1.0
 23
0.0
 33
0.0
 40
0.0
 40
0.0
 40
0.0
 40
0.0
 40
1.0
 40
1.0
 40
1.0
 40
2.0
 40
2.0
 40
2.0
 40
3.0
 40
3.0
 40
3.0
 40
4.0
 40
4.0
 40
4.0
 40
5.0
 40
5.0
 40
5.0
 40
6.0
 40
6.0
 40
6.0
 40
7.0
 40
7.0
 40
7.0
 40
7.0
 10
7.848664305354001
 20
-9.772536347524566
 30
0.0
 10
7.935028435976847
 20
-10.0233198313873
 30
0.0
 10
8.126076930882238
 20
-10.22369761080679
 30
0.0
 10
8.349953802274587
 20
-10.47731845741631
 30
0.0
 10
7.644202334699962
 20
-10.84782522318662
 30
0.0
 10
6.845466820138022
 20
-11.05537965071456
 30
0.0
 10
6.009415062586817
 20
-11.05535100856696
 30
0.0
 10
5.974087658721563
 20
-11.0553483233656
 30
0.0
 10
5.938667167876625
 20
-11.05485156111813
 30
0.0
 10
5.903201923676041
 20
-11.05410507514628
 30
0.0
 10
6.452428529943492
 20
-10.76647704866254
 30
0.0
 10
6.831079511370919
 20
-10.09881605712957
 30
0.0
 10
6.677707076434116
 20
-9.65345572380377
 30
0.0
 10
6.449316381593134
 20
-8.99025574675976
 30
0.0
 10
7.605433397786959
 20
-8.834234808236943
 30
0.0
 10
7.605433397786959
 20
-8.834234808236943
 30
0.0
 10
7.605433397786959
 20
-8.834234808236943
 30
0.0
 10
8.404707742750613
 20
-8.771884433176712
 30
0.0
 10
8.404707742750613
 20
-8.771884433176712
 30
0.0
 10
8.404707742750613
 20
-8.771884433176712
 30
0.0
 10
7.620272715445935
 20
-9.109337265547664
 30
0.0
 10
7.848664305354001
 20
-9.772536347524566
 30
0.0
  0
SPLINE
  5
F9
330
1F
100
AcDbEntity
  8
Layer 1
370
     0
100
AcDbSpline
210
0.0
220
0.0
230
1.0
 70
    11
 71
     3
 72
    17
 73
    13
 74
     0
 42
0.0000000001
 43
0.0000000001
 12
1.0
 22
0.0
 32
0.0
 13
1.0
 23
0.0
 33
0.0
 40
0.0
 40
0.0
 40
0.0
 40
0.0
 40
1.0
 40
1.0
 40
1.0
 40
2.0
 40
2.0
 40
2.0
 40
3.0
 40
3.0
 40
3.0
 40
4.0
 40
4.0
 40
4.0
 40
4.0
 10
10.43635882189735
 20
-8.437991282712346
 30
0.0
 10
10.29387845865318
 20
-8.422527208208823
 30
0.0
 10
10.15276128262141
 20
-8.409785927861675
 30
0.0
 10
10.01275936021188
 20
-8.399085400531122
 30
0.0
 10
10.15169078235479
 20
-7.824924909709402
 30
0.0
 10
10.3649637936648
 20
-6.940094679725512
 30
0.0
 10
10.39540860643107
 20
-6.792855244643912
 30
0.0
 10
10.59042851411484
 20
-6.832637397528288
 30
0.0
 10
10.79053598326631
 20
-6.856104267085129
 30
0.0
 10
10.99019054845884
 20
-6.8610360868753
 30
0.0
 10
10.892207551648
 20
-7.427331622979055
 30
0.0
 10
10.70191091311717
 20
-7.957703640520625
 30
0.0
 10
10.43635882189735
 20
-8.437991282712346
 30
0.0
  0
HATCH
  5
FA
330
1F
100
AcDbEntity
  8
Layer 1
 62
     7
100
AcDbHatch
 10
0.0
 20
0.0
 30
0.0
210
0.0
220
0.0
230
1.0
  2
SOLID
 70
     1
 71
     0
 91
       39
 92
        1
 93
        1
 72
     4
 94
        3
 73
     0
 74
     1
 95
       56
 96
       52
 40
0.0
 40
0.0
 40
0.0
 40
0.0
 40
1.0
 40
1.0
 40
1.0
 40
2.0
 40
2.0
 40
2.0
 40
3.0
 40
3.0
 40
3.0
 40
4.0
 40
4.0
 40
4.0
 40
5.0
 40
5.0
 40
5.0
 40
6.0
 40
6.0
 40
6.0
 40
7.0
 40
7.0
 40
7.0
 40
8.0
 40
8.0
 40
8.0
 40
9.0
 40
9.0
 40
9.0
 40
10.0
 40
10.0
 40
10.0
 40
11.0
 40
11.0
 40
11.0
 40
12.0
 40
12.0
 40
12.0
 40
13.0
 40
13.0
 40
13.0
 40
14.0
 40
14.0
 40
14.0
 40
15.0
 40
15.0
 40
15.0
 40
16.0
 40
16.0
 40
16.0
 40
17.0
 40
17.0
 40
17.0
 40
17.0
 10
11.28072306772285
 20
-4.436523045755179
 10
11.07888185357433
 20
-3.75471820370971
 10
10.75081469494557
 20
-3.125887013653406
 10
10.30562979477385
 20
-2.567494025086337
 10
9.860444894602121
 20
-2.009093875982368
 10
9.320497449090478
 20
-1.549179751406528
 10
8.70079594358218
 20
-1.200533209726005
 10
8.059097268715858
 20
-0.839506099744704
 10
7.359713308579911
 20
-0.6142570904687797
 10
6.622092081395825
 20
-0.5310516516861222
 10
5.884456533137912
 20
-0.4478175707558623
 10
5.152499290642039
 20
-0.5116251150753391
 10
4.44649183387321
 20
-0.7206268661242473
 10
3.764694152364629
 20
-0.9224609197358404
 10
3.135862962308339
 20
-1.250535238901496
 10
2.577462813204369
 20
-1.695720139073235
 10
2.0190698246373
 20
-2.140905039244962
 10
1.559155700061461
 20
-2.680852484756592
 10
1.210501997844037
 20
-3.300553990264878
 10
0.8494748878627231
 20
-3.942245504594312
 10
0.6242330391236994
 20
-4.641622304193371
 10
0.5410276003410546
 20
-5.379250691914359
 10
0.4578150010214964
 20
-6.116871919098458
 10
0.5216010637302588
 20
-6.848850643205044
 10
0.7306028147791671
 20
-7.554850939436973
 10
0.9324368683907727
 20
-8.236648620945541
 10
1.260511187556429
 20
-8.865486971538733
 10
1.705696087728155
 20
-9.4238799601058
 10
2.150880987899882
 20
-9.98227294867287
 10
2.690828433411512
 20
-10.44219423378561
 10
3.31052993891981
 20
-10.79084077546612
 10
3.952221453249232
 20
-11.15187504598435
 10
4.651598252848291
 20
-11.37711689472336
 10
5.389226640569277
 20
-11.460322333506
 10
5.598393083966887
 20
-11.48392346312974
 10
5.806986684412474
 20
-11.495695385794
 10
6.014778304725218
 20
-11.495695385794
 10
6.539774549188804
 20
-11.495695385794
 10
7.059028043058283
 20
-11.42048110619218
 10
7.564819727555005
 20
-11.27073995853102
 10
8.246617409063573
 20
-11.0689130654563
 10
8.87545575965679
 20
-10.74083158575374
 10
9.433848748223832
 20
-10.29564668558202
 10
9.992241736790902
 20
-9.850461785410289
 10
10.45216302190364
 20
-9.31051433989867
 10
10.80080956358418
 20
-8.690812834390346
 10
11.16184383410235
 20
-8.049114159524025
 10
11.38708568284139
 20
-7.349744520461879
 10
11.47029112162403
 20
-6.612123293277793
 10
11.55349656040671
 20
-5.874494905556781
 10
11.48972481877174
 20
-5.142516181450206
 10
11.28072306772285
 20
-4.436523045755179
 97
        0
 92
        1
 93
        1
 72
     4
 94
        3
 73
     0
 74
     1
 95
       50
 96
       46
 40
0.0
 40
0.0
 40
0.0
 40
0.0
 40
1.0
 40
1.0
 40
1.0
 40
2.0
 40
2.0
 40
2.0
 40
3.0
 40
3.0
 40
3.0
 40
4.0
 40
4.0
 40
4.0
 40
5.0
 40
5.0
 40
5.0
 40
6.0
 40
6.0
 40
6.0
 40
7.0
 40
7.0
 40
7.0
 40
8.0
 40
8.0
 40
8.0
 40
9.0
 40
9.0
 40
9.0
 40
10.0
 40
10.0
 40
10.0
 40
11.0
 40
11.0
 40
11.0
 40
12.0
 40
12.0
 40
12.0
 40
13.0
 40
13.0
 40
13.0
 40
14.0
 40
14.0
 40
14.0
 40
15.0
 40
15.0
 40
15.0
 40
15.0
 10
9.961637602078579
 20
-2.841749748908594
 10
10.80407476841075
 20
-3.898423018763853
 10
11.18461434144564
 20
-5.219921585343538
 10
11.03312602278076
 20
-6.562801515107822
 10
11.02735821030748
 20
-6.61393490911357
 10
11.02059508320505
 20
-6.664712961475667
 10
11.01334235439208
 20
-6.71531021028103
 10
10.85130925007424
 20
-6.575634987367569
 10
10.61095777340827
 20
-6.369779397219291
 10
10.47599328870817
 20
-6.260512289320483
 10
10.51305712277174
 20
-5.9766820325953
 10
10.62012594584214
 20
-5.752265435734052
 10
10.68373478526261
 20
-5.473168293900029
 10
10.68373478526261
 20
-5.473168293900029
 10
10.13243072822694
 20
-4.105799327936362
 10
10.13243072822694
 20
-4.105799327936362
 10
9.889350191934808
 20
-4.407679508053244
 10
9.642967753064466
 20
-4.701897018619611
 10
9.34888181736369
 20
-4.956320740429078
 10
9.34888181736369
 20
-4.956320740429078
 10
9.190791483676623
 20
-4.927614147995377
 10
9.190791483676623
 20
-4.927614147995377
 10
9.1512653199864
 20
-4.69912141550358
 10
9.135426212362718
 20
-4.50178417906544
 10
9.12908197666896
 20
-4.384422979267861
 10
9.12908197666896
 20
-4.384422979267861
 10
9.637508738745028
 20
-4.366013238896926
 10
9.637508738745028
 20
-4.366013238896926
 10
9.402915228814107
 20
-4.163737917198849
 10
9.191476210017727
 20
-3.937023683059692
 10
8.996927107635175
 20
-3.696023282737125
 10
9.159550061180171
 20
-3.615416223782201
 10
9.225557680462316
 20
-3.470452944367796
 10
9.253274328669526
 20
-3.301927023215537
 10
9.288566824917375
 20
-3.08733557804875
 10
9.314433369402952
 20
-2.871049770837923
 10
9.340890658182817
 20
-2.655232083726951
 10
9.340890658182817
 20
-2.655232083726951
 10
9.629574863859387
 20
-2.714950961476297
 10
9.629574863859387
 20
-2.714950961476297
 10
9.628166028224237
 20
-2.675839213859199
 10
9.51692798254362
 20
-2.458000465208076
 10
9.403577578477375
 20
-2.246124653660786
 10
9.603250940079306
 20
-2.427843864052041
 10
9.790048761267169
 20
-2.626527281427469
 10
9.961637602078579
 20
-2.841749748908594
 97
        0
 92
        1
 93
        1
 72
     4
 94
        3
 73
     0
 74
     1
 95
       17
 96
       13
 40
0.0
 40
0.0
 40
0.0
 40
0.0
 40
1.0
 40
1.0
 40
1.0
 40
2.0
 40
2.0
 40
2.0
 40
3.0
 40
3.0
 40
3.0
 40
4.0
 40
4.0
 40
4.0
 40
4.0
 10
6.16306407326139
 20
-6.397654472305425
 10
6.16306407326139
 20
-6.397654472305425
 10
6.215586611425831
 20
-6.16355414435351
 10
6.426288094921447
 20
-6.06567049999214
 10
6.426288094921447
 20
-6.06567049999214
 10
6.489726871590569
 20
-6.336441727545257
 10
6.489726871590569
 20
-6.336441727545257
 10
6.489726871590569
 20
-6.336441727545257
 10
6.186744863858141
 20
-6.446853626280976
 10
6.186744863858141
 20
-6.446853626280976
 10
6.186744863858141
 20
-6.446853626280976
 10
6.16306407326139
 20
-6.397654472305425
 10
6.16306407326139
 20
-6.397654472305425
 97
        0
 92
        1
 93
        4
 72
     1
 10
6.526789810587034
 20
-6.494634098883125
 11
6.599859509387165
 21
-6.806508598378741
 72
     1
 10
6.599859509387165
 20
-6.806508598378741
 11
6.351802399949267
 21
-6.789779794045191
 72
     1
 10
6.351802399949267
 20
-6.789779794045191
 11
6.257054175683152
 21
-6.592930369183376
 72
     1
 10
6.257054175683152
 20
-6.592930369183376
 11
6.526789810587034
 21
-6.494634098883125
 97
        0
 92
        1
 93
        4
 72
     1
 10
6.76821536778809
 20
-6.817862524701442
 11
6.679450667169375
 21
-6.43900120250257
 72
     1
 10
6.679450667169375
 20
-6.43900120250257
 11
7.034849595146978
 21
-6.309487676517922
 72
     1
 10
7.034849595146978
 20
-6.309487676517922
 11
7.090486966863081
 21
-6.839596544328388
 72
     1
 10
7.090486966863081
 20
-6.839596544328388
 11
6.76821536778809
 21
-6.817862524701442
 97
        0
 92
        1
 93
        4
 72
     1
 10
7.107575588175879
 20
-7.002420887973711
 11
7.13282632648803
 21
-7.243013137692969
 72
     1
 10
7.13282632648803
 20
-7.243013137692969
 11
6.852005285395206
 21
-7.175491959923495
 72
     1
 10
6.852005285395206
 20
-7.175491959923495
 11
6.806701463493507
 21
-6.982130611599309
 72
     1
 10
6.806701463493507
 20
-6.982130611599309
 11
7.107575588175879
 21
-7.002420887973711
 97
        0
 92
        1
 93
        1
 72
     4
 94
        3
 73
     0
 74
     1
 95
       14
 96
       10
 40
0.0
 40
0.0
 40
0.0
 40
0.0
 40
1.0
 40
1.0
 40
1.0
 40
2.0
 40
2.0
 40
2.0
 40
3.0
 40
3.0
 40
3.0
 40
3.0
 10
6.642386833105775
 20
-6.280809726231811
 10
6.642386833105775
 20
-6.280809726231811
 10
6.582442398444073
 20
-6.024955687176467
 10
6.582442398444073
 20
-6.024955687176467
 10
6.786864986145146
 20
-6.005488872545609
 10
6.936485299746159
 20
-6.105532313849557
 10
6.994408672867721
 20
-6.152526917526883
 10
6.994408672867721
 20
-6.152526917526883
 10
6.642386833105775
 20
-6.280809726231811
 10
6.642386833105775
 20
-6.280809726231811
 97
        0
 92
        1
 93
        4
 72
     1
 10
6.676418179792032
 20
-7.133273434358746
 11
6.496286818458454
 21
-7.089962926916693
 72
     1
 10
6.496286818458454
 20
-7.089962926916693
 11
6.432229550414578
 21
-6.956876293018695
 72
     1
 10
6.432229550414578
 20
-6.956876293018695
 11
6.638346500159741
 21
-6.970776685276607
 72
     1
 10
6.638346500159741
 20
-6.970776685276607
 11
6.676418179792032
 21
-7.133273434358746
 97
        0
 92
        1
 93
        4
 72
     1
 10
8.082591885353192
 20
-7.290159902779426
 11
8.09763169804536
 21
-7.796504738751688
 72
     1
 10
8.09763169804536
 20
-7.796504738751688
 11
7.847235778242369
 21
-7.856681890862647
 72
     1
 10
7.847235778242369
 20
-7.856681890862647
 11
7.762551688589761
 21
-7.257348532567549
 72
     1
 10
7.762551688589761
 20
-7.257348532567549
 11
8.082591885353192
 21
-7.290159902779426
 97
        0
 92
        1
 93
        4
 72
     1
 10
7.730848411463259
 20
-7.032973108793485
 11
7.681767406346554
 21
-6.685612778553705
 72
     1
 10
7.681767406346554
 20
-6.685612778553705
 11
8.061607931966567
 21
-6.583705807521432
 72
     1
 10
8.061607931966567
 20
-6.583705807521432
 11
8.076003296337705
 21
-7.068358692021067
 72
     1
 10
8.076003296337705
 20
-7.068358692021067
 11
7.730848411463259
 21
-7.032973108793485
 97
        0
 92
        1
 93
        4
 72
     1
 10
8.056229473687228
 20
-5.192543272504849
 11
8.324143647017081
 21
-5.147030899965898
 72
     1
 10
8.324143647017081
 20
-5.147030899965898
 11
8.300620388232169
 21
-5.557207935231569
 72
     1
 10
8.300620388232169
 20
-5.557207935231569
 11
8.15841212539019
 21
-5.562355466195855
 72
     1
 10
8.15841212539019
 20
-5.562355466195855
 11
8.056229473687228
 21
-5.192543272504849
 97
        0
 92
        1
 93
        4
 72
     1
 10
8.303343182388542
 20
-7.312791674720251
 11
8.633876250912383
 21
-7.346678915601387
 72
     1
 10
8.633876250912383
 20
-7.346678915601387
 11
8.604919039687173
 21
-7.674588542418355
 72
     1
 10
8.604919039687173
 20
-7.674588542418355
 11
8.316151592769124
 21
-7.74398757098993
 72
     1
 10
8.316151592769124
 20
-7.74398757098993
 11
8.303343182388542
 21
-7.312791674720251
 97
        0
 92
        1
 93
        4
 72
     1
 10
8.296755488440162
 20
-7.090991359029001
 11
8.279947918200707
 21
-6.525128140340585
 72
     1
 10
8.279947918200707
 20
-6.525128140340585
 11
8.7167782619439
 21
-6.407931632891732
 72
     1
 10
8.7167782619439
 20
-6.407931632891732
 11
8.653229392019941
 21
-7.127537844301539
 72
     1
 10
8.653229392019941
 20
-7.127537844301539
 11
8.296755488440162
 21
-7.090991359029001
 97
        0
 92
        1
 93
        4
 72
     1
 10
8.700133593918887
 20
-5.542745440826985
 11
8.462541609160931
 21
-5.551346140711479
 72
     1
 10
8.462541609160931
 20
-5.551346140711479
 11
8.487317961903424
 21
-5.119311566557346
 72
     1
 10
8.487317961903424
 20
-5.119311566557346
 11
8.742449681798941
 21
-5.075970626833446
 72
     1
 10
8.742449681798941
 20
-5.075970626833446
 11
8.700133593918887
 21
-5.542745440826985
 97
        0
 92
        1
 93
        4
 72
     1
 10
8.496794037424
 20
-4.954077702245033
 11
8.510537792937207
 21
-4.714410951920159
 72
     1
 10
8.510537792937207
 20
-4.714410951920159
 11
8.773541628087589
 21
-4.732997020512268
 72
     1
 10
8.773541628087589
 20
-4.732997020512268
 11
8.757514556370248
 21
-4.909787096314719
 72
     1
 10
8.757514556370248
 20
-4.909787096314719
 11
8.496794037424
 21
-4.954077702245033
 97
        0
 92
        1
 93
        1
 72
     4
 94
        3
 73
     0
 74
     1
 95
       14
 96
       10
 40
0.0
 40
0.0
 40
0.0
 40
0.0
 40
1.0
 40
1.0
 40
1.0
 40
2.0
 40
2.0
 40
2.0
 40
3.0
 40
3.0
 40
3.0
 40
3.0
 10
8.163954380951104
 20
-4.044423680961687
 10
8.163954380951104
 20
-4.044423680961687
 10
8.47503048058234
 20
-3.721741246082034
 10
8.47503048058234
 20
-3.721741246082034
 10
8.511929622297203
 20
-3.810954375324122
 10
8.532656691422542
 20
-3.9135460726975
 10
8.536625418999595
 20
-4.023190898917783
 10
8.384667190100622
 20
-4.028691086324405
 10
8.270683078518687
 20
-4.036829036511714
 10
8.163954380951104
 20
-4.044423680961687
 97
        0
 92
        1
 93
        1
 72
     4
 94
        3
 73
     0
 74
     1
 95
       14
 96
       10
 40
0.0
 40
0.0
 40
0.0
 40
0.0
 40
1.0
 40
1.0
 40
1.0
 40
2.0
 40
2.0
 40
2.0
 40
3.0
 40
3.0
 40
3.0
 40
3.0
 10
8.069762888429016
 20
-3.909691018643747
 10
8.069762888429016
 20
-3.909691018643747
 10
8.053907669597315
 20
-3.398477017579189
 10
8.053907669597315
 20
-3.398477017579189
 10
8.197807609281982
 20
-3.410239094505224
 10
8.310537731839228
 20
-3.47583498291557
 10
8.390808245559835
 20
-3.576666978345681
 10
8.390808245559835
 20
-3.576666978345681
 10
8.069762888429016
 20
-3.909691018643747
 10
8.069762888429016
 20
-3.909691018643747
 97
        0
 92
        1
 93
        4
 72
     1
 10
8.349605621167786
 20
-4.703038229188096
 11
8.333619722537655
 21
-4.981797035653598
 72
     1
 10
8.333619722537655
 20
-4.981797035653598
 11
8.013046065775168
 21
-5.03625470891537
 72
     1
 10
8.013046065775168
 20
-5.03625470891537
 11
7.912438732190316
 21
-4.672144092731324
 72
     1
 10
7.912438732190316
 20
-4.672144092731324
 11
8.349605621167786
 21
-4.703038229188096
 97
        0
 92
        1
 93
        4
 72
     1
 10
7.992700295239779
 20
-5.568354205984153
 11
7.688926153112738
 21
-5.579351000528946
 72
     1
 10
7.688926153112738
 20
-5.579351000528946
 11
7.637799919643889
 21
-5.263624132180906
 72
     1
 10
7.637799919643889
 20
-5.263624132180906
 11
7.896364221916023
 21
-5.219700503766742
 72
     1
 10
7.896364221916023
 20
-5.219700503766742
 11
7.992700295239779
 21
-5.568354205984153
 97
        0
 92
        1
 93
        4
 72
     1
 10
7.612013036131328
 20
-5.104380952052893
 11
7.537732311527886
 21
-4.645663532206527
 72
     1
 10
7.537732311527886
 20
-4.645663532206527
 11
7.741736007820312
 21
-4.660080378188367
 72
     1
 10
7.741736007820312
 20
-4.660080378188367
 11
7.853180814003912
 21
-5.063411940177262
 72
     1
 10
7.853180814003912
 20
-5.063411940177262
 11
7.612013036131328
 21
-5.104380952052893
 97
        0
 92
        1
 93
        1
 72
     4
 94
        3
 73
     0
 74
     1
 95
       14
 96
       10
 40
0.0
 40
0.0
 40
0.0
 40
0.0
 40
1.0
 40
1.0
 40
1.0
 40
2.0
 40
2.0
 40
2.0
 40
3.0
 40
3.0
 40
3.0
 40
3.0
 10
7.576984584681668
 20
-3.627957904163243
 10
7.646121358589248
 20
-3.515277905364314
 10
7.751348133541973
 20
-3.435143441844818
 10
7.892799169606708
 20
-3.40728268783246
 10
7.892799169606708
 20
-3.40728268783246
 10
7.908879945350791
 20
-3.925780745058937
 10
7.908879945350791
 20
-3.925780745058937
 10
7.908879945350791
 20
-3.925780745058937
 10
7.576984584681668
 20
-3.627957904163243
 10
7.576984584681668
 20
-3.627957904163243
 97
        0
 92
        1
 93
        1
 72
     4
 94
        3
 73
     0
 74
     1
 95
       14
 96
       10
 40
0.0
 40
0.0
 40
0.0
 40
0.0
 40
1.0
 40
1.0
 40
1.0
 40
2.0
 40
2.0
 40
2.0
 40
3.0
 40
3.0
 40
3.0
 40
3.0
 10
7.819987250135
 20
-4.062745704755583
 10
7.724887264493645
 20
-4.065041551899273
 10
7.615615681259341
 20
-4.065109576999841
 10
7.478342818475968
 20
-4.061499771334916
 10
7.474767920428449
 20
-3.96275596747839
 10
7.485168600276286
 20
-3.868735432774795
 10
7.509428499294851
 20
-3.784068349397343
 10
7.509428499294851
 20
-3.784068349397343
 10
7.819987250135
 20
-4.062745704755583
 10
7.819987250135
 20
-4.062745704755583
 97
        0
 92
        1
 93
        1
 72
     4
 94
        3
 73
     0
 74
     1
 95
       17
 96
       13
 40
0.0
 40
0.0
 40
0.0
 40
0.0
 40
1.0
 40
1.0
 40
1.0
 40
2.0
 40
2.0
 40
2.0
 40
3.0
 40
3.0
 40
3.0
 40
4.0
 40
4.0
 40
4.0
 40
4.0
 10
7.878151396309855
 20
-8.075478361324206
 10
7.878151396309855
 20
-8.075478361324206
 10
8.104303528302328
 20
-8.02112809611592
 10
8.104303528302328
 20
-8.02112809611592
 10
8.104303528302328
 20
-8.02112809611592
 10
8.115229612545237
 20
-8.38897651256199
 10
8.115229612545237
 20
-8.38897651256199
 10
8.051239474534794
 20
-8.393171692118509
 10
7.987620789376049
 20
-8.397775917345472
 10
7.924403989350871
 20
-8.402819620524673
 10
7.924403989350871
 20
-8.402819620524673
 10
7.878151396309855
 20
-8.075478361324206
 10
7.878151396309855
 20
-8.075478361324206
 97
        0
 92
        1
 93
        1
 72
     4
 94
        3
 73
     0
 74
     1
 95
       17
 96
       13
 40
0.0
 40
0.0
 40
0.0
 40
0.0
 40
1.0
 40
1.0
 40
1.0
 40
2.0
 40
2.0
 40
2.0
 40
3.0
 40
3.0
 40
3.0
 40
4.0
 40
4.0
 40
4.0
 40
4.0
 10
8.334929205723306
 20
-8.376203904865886
 10
8.334929205723306
 20
-8.376203904865886
 10
8.322823423026092
 20
-7.968610928354185
 10
8.322823423026092
 20
-7.968610928354185
 10
8.322823423026092
 20
-7.968610928354185
 10
8.58450703418546
 20
-7.905720827825057
 10
8.58450703418546
 20
-7.905720827825057
 10
8.58450703418546
 20
-7.905720827825057
 10
8.54370539985987
 20
-8.367745520652306
 10
8.54370539985987
 20
-8.367745520652306
 10
8.473738003671794
 20
-8.370097757024066
 10
8.404050763490002
 20
-8.372805335039528
 10
8.334929205723306
 20
-8.376203904865886
 97
        0
 92
        1
 93
        4
 72
     1
 10
9.81850742011069
 20
-5.570302767088176
 11
9.773230450222348
 21
-5.854884880187923
 72
     1
 10
9.773230450222348
 20
-5.854884880187923
 11
9.377005721107126
 21
-5.841569861821628
 72
     1
 10
9.377005721107126
 20
-5.841569861821628
 11
9.52110615582501
 21
-5.463729811198188
 72
     1
 10
9.52110615582501
 20
-5.463729811198188
 11
9.81850742011069
 21
-5.570302767088176
 97
        0
 92
        1
 93
        1
 72
     4
 94
        3
 73
     0
 74
     1
 95
       14
 96
       10
 40
0.0
 40
0.0
 40
0.0
 40
0.0
 40
1.0
 40
1.0
 40
1.0
 40
2.0
 40
2.0
 40
2.0
 40
3.0
 40
3.0
 40
3.0
 40
3.0
 10
9.596830623680969
 20
-5.31950317201741
 10
9.645087271986995
 20
-5.278934255141078
 10
9.74500361376095
 20
-5.210347947507708
 10
9.877301693532774
 20
-5.200760883665175
 10
9.877301693532774
 20
-5.200760883665175
 10
9.844300569093042
 20
-5.408183736327538
 10
9.844300569093042
 20
-5.408183736327538
 10
9.844300569093042
 20
-5.408183736327538
 10
9.596830623680969
 20
-5.31950317201741
 10
9.596830623680969
 20
-5.31950317201741
 97
        0
 92
        1
 93
        4
 72
     1
 10
9.747687024964382
 20
-6.015431278031807
 11
9.711498566536875
 21
-6.242890208008602
 72
     1
 10
9.711498566536875
 20
-6.242890208008602
 11
9.264574550965486
 21
-6.1363727462796
 72
     1
 10
9.264574550965486
 20
-6.1363727462796
 11
9.316229769097845
 21
-6.000929400674281
 72
     1
 10
9.316229769097845
 20
-6.000929400674281
 11
9.747687024964382
 21
-6.015431278031807
 97
        0
 92
        1
 93
        4
 72
     1
 10
9.730809639490138
 20
-7.447948598849532
 11
9.911312453675437
 21
-7.469798082133997
 72
     1
 10
9.911312453675437
 20
-7.469798082133997
 11
9.840719405575731
 21
-7.864033077058037
 72
     1
 10
9.840719405575731
 20
-7.864033077058037
 11
9.720510102226019
 21
-7.899464308708325
 72
     1
 10
9.720510102226019
 20
-7.899464308708325
 11
9.730809639490138
 21
-7.447948598849532
 97
        0
 92
        1
 93
        4
 72
     1
 10
9.582668871826222
 20
-6.868121438138233
 11
9.573583045566718
 21
-7.266430778558591
 72
     1
 10
9.573583045566718
 20
-7.266430778558591
 11
9.312265516856364
 21
-7.23479821173396
 72
     1
 10
9.312265516856364
 20
-7.23479821173396
 11
9.36233646619952
 21
-6.810120194177872
 72
     1
 10
9.36233646619952
 20
-6.810120194177872
 11
9.582668871826222
 21
-6.868121438138233
 97
        0
 92
        1
 93
        4
 72
     1
 10
9.29337781064732
 20
-7.39499732353819
 11
9.569886418391862
 21
-7.428468358212007
 72
     1
 10
9.569886418391862
 20
-7.428468358212007
 11
9.558050050895519
 21
-7.947347714028435
 72
     1
 10
9.558050050895519
 20
-7.947347714028435
 11
9.21638145242443
 21
-8.048051714861433
 72
     1
 10
9.21638145242443
 20
-8.048051714861433
 11
9.29337781064732
 21
-7.39499732353819
 97
        0
 92
        1
 93
        4
 72
     1
 10
9.939789908928333
 20
-7.310759872374748
 11
9.734505371597859
 21
-7.285910124129032
 72
     1
 10
9.734505371597859
 20
-7.285910124129032
 11
9.74307295399919
 21
-6.910347124239908
 72
     1
 10
9.74307295399919
 20
-6.910347124239908
 11
9.999405853959741
 21
-6.977825338787953
 72
     1
 10
9.999405853959741
 20
-6.977825338787953
 11
9.939789908928333
 21
-7.310759872374748
 97
        0
 92
        1
 93
        4
 72
     1
 10
9.86887195146677
 20
-6.280397100292904
 11
9.910158712167357
 21
-6.020892082485463
 72
     1
 10
9.910158712167357
 20
-6.020892082485463
 11
10.22209855156221
 21
-6.031376898641889
 72
     1
 10
10.22209855156221
 20
-6.031376898641889
 11
10.1815099432094
 21
-6.354909647278468
 72
     1
 10
10.1815099432094
 20
-6.354909647278468
 11
9.86887195146677
 21
-6.280397100292904
 97
        0
 92
        1
 93
        4
 72
     1
 10
9.935702137425324
 20
-5.860344789574482
 11
9.973037176824011
 21
-5.625678779207432
 72
     1
 10
9.973037176824011
 20
-5.625678779207432
 11
10.26009146528865
 21
-5.728543472050142
 72
     1
 10
10.26009146528865
 20
-5.728543472050142
 11
10.24226351854087
 21
-5.870647012039941
 72
     1
 10
10.24226351854087
 20
-5.870647012039941
 11
9.935702137425324
 21
-5.860344789574482
 97
        0
 92
        1
 93
        1
 72
     4
 94
        3
 73
     0
 74
     1
 95
       17
 96
       13
 40
0.0
 40
0.0
 40
0.0
 40
0.0
 40
1.0
 40
1.0
 40
1.0
 40
2.0
 40
2.0
 40
2.0
 40
3.0
 40
3.0
 40
3.0
 40
4.0
 40
4.0
 40
4.0
 40
4.0
 10
9.998830325806365
 20
-5.463559748446793
 10
9.998830325806365
 20
-5.463559748446793
 10
10.03759657751804
 20
-5.219899208665727
 10
10.03759657751804
 20
-5.219899208665727
 10
10.24427562940989
 20
-5.290649788577247
 10
10.28461630417248
 20
-5.533055444266526
 10
10.28461630417248
 20
-5.533055444266526
 10
10.28461630417248
 20
-5.533055444266526
 10
10.28066458287059
 20
-5.564554646091387
 10
10.28066458287059
 20
-5.564554646091387
 10
10.28066458287059
 20
-5.564554646091387
 10
9.998830325806365
 20
-5.463559748446793
 10
9.998830325806365
 20
-5.463559748446793
 97
        0
 92
        1
 93
        1
 72
     4
 94
        3
 73
     0
 74
     1
 95
       50
 96
       46
 40
0.0
 40
0.0
 40
0.0
 40
0.0
 40
1.0
 40
1.0
 40
1.0
 40
2.0
 40
2.0
 40
2.0
 40
3.0
 40
3.0
 40
3.0
 40
4.0
 40
4.0
 40
4.0
 40
5.0
 40
5.0
 40
5.0
 40
6.0
 40
6.0
 40
6.0
 40
7.0
 40
7.0
 40
7.0
 40
8.0
 40
8.0
 40
8.0
 40
9.0
 40
9.0
 40
9.0
 40
10.0
 40
10.0
 40
10.0
 40
11.0
 40
11.0
 40
11.0
 40
12.0
 40
12.0
 40
12.0
 40
13.0
 40
13.0
 40
13.0
 40
14.0
 40
14.0
 40
14.0
 40
15.0
 40
15.0
 40
15.0
 40
15.0
 10
9.112613636865161
 20
-2.000703516869331
 10
9.112613636865161
 20
-2.000703516869331
 10
8.566464271330663
 20
-2.495029391654283
 10
8.566464271330663
 20
-2.495029391654283
 10
8.566464271330663
 20
-2.495029391654283
 10
8.852155372582855
 20
-2.554132463230189
 10
8.852155372582855
 20
-2.554132463230189
 10
8.837682137372944
 20
-2.666002426292279
 10
8.823208902162984
 20
-2.777873284421452
 10
8.808735666953073
 20
-2.889743247483529
 10
8.792022078760409
 20
-3.018927388770774
 10
8.79192988684781
 20
-3.161729081108357
 10
8.643898317371598
 20
-3.21133370048589
 10
8.491832680419115
 20
-2.978686961524747
 10
8.139569172536792
 20
-2.236770307267521
 10
8.096081441806442
 20
-2.111472547382972
 10
8.05832035046218
 20
-2.002677139852507
 10
7.985206793373536
 20
-1.627047009929937
 10
8.038707639891982
 20
-1.51392037264183
 10
8.069941006784422
 20
-1.447879635876562
 10
8.135971002744352
 20
-1.416860190024029
 10
8.193460268316306
 20
-1.431311048556141
 10
8.206496920810626
 20
-1.437546981129281
 10
8.219642771492646
 20
-1.443565412394074
 10
8.232622139691733
 20
-1.449912333289161
 10
8.24992468204444
 20
-1.462472810079564
 10
8.265168570038263
 20
-1.48025868867305
 10
8.27637749548876
 20
-1.504387012826075
 10
8.29576643928082
 20
-1.546124887351387
 10
8.283862046683883
 20
-1.682818641712932
 10
8.261463887259424
 20
-1.70609575704192
 10
8.245748298897272
 20
-1.722427151577499
 10
8.228708906275667
 20
-1.733615490484377
 10
8.23753695320675
 20
-1.758667523897543
 10
8.252752199052996
 20
-1.801839295937182
 10
8.307974259628862
 20
-1.81061363884151
 10
8.334285652469386
 20
-1.79111639192883
 10
8.384161477182033
 20
-1.754157280717398
 10
8.427761986368573
 20
-1.652118734819573
 10
8.431507842234598
 20
-1.593948323174939
 10
8.432378742535093
 20
-1.580422964037199
 10
8.432566706628727
 20
-1.566832265000231
 10
8.43204935783769
 20
-1.553285424251802
 10
8.670232981957042
 20
-1.683355681980465
 10
8.897682961262742
 20
-1.832911550749347
 10
9.112613636865161
 20
-2.000703516869331
 97
        0
 92
        1
 93
        1
 72
     4
 94
        3
 73
     0
 74
     1
 95
      488
 96
      484
 40
0.0
 40
0.0
 40
0.0
 40
0.0
 40
1.0
 40
1.0
 40
1.0
 40
2.0
 40
2.0
 40
2.0
 40
3.0
 40
3.0
 40
3.0
 40
4.0
 40
4.0
 40
4.0
 40
5.0
 40
5.0
 40
5.0
 40
6.0
 40
6.0
 40
6.0
 40
7.0
 40
7.0
 40
7.0
 40
8.0
 40
8.0
 40
8.0
 40
9.0
 40
9.0
 40
9.0
 40
10.0
 40
10.0
 40
10.0
 40
11.0
 40
11.0
 40
11.0
 40
12.0
 40
12.0
 40
12.0
 40
13.0
 40
13.0
 40
13.0
 40
14.0
 40
14.0
 40
14.0
 40
15.0
 40
15.0
 40
15.0
 40
16.0
 40
16.0
 40
16.0
 40
17.0
 40
17.0
 40
17.0
 40
18.0
 40
18.0
 40
18.0
 40
19.0
 40
19.0
 40
19.0
 40
20.0
 40
20.0
 40
20.0
 40
21.0
 40
21.0
 40
21.0
 40
22.0
 40
22.0
 40
22.0
 40
23.0
 40
23.0
 40
23.0
 40
24.0
 40
24.0
 40
24.0
 40
25.0
 40
25.0
 40
25.0
 40
26.0
 40
26.0
 40
26.0
 40
27.0
 40
27.0
 40
27.0
 40
28.0
 40
28.0
 40
28.0
 40
29.0
 40
29.0
 40
29.0
 40
30.0
 40
30.0
 40
30.0
 40
31.0
 40
31.0
 40
31.0
 40
32.0
 40
32.0
 40
32.0
 40
33.0
 40
33.0
 40
33.0
 40
34.0
 40
34.0
 40
34.0
 40
35.0
 40
35.0
 40
35.0
 40
36.0
 40
36.0
 40
36.0
 40
37.0
 40
37.0
 40
37.0
 40
38.0
 40
38.0
 40
38.0
 40
39.0
 40
39.0
 40
39.0
 40
40.0
 40
40.0
 40
40.0
 40
41.0
 40
41.0
 40
41.0
 40
42.0
 40
42.0
 40
42.0
 40
43.0
 40
43.0
 40
43.0
 40
44.0
 40
44.0
 40
44.0
 40
45.0
 40
45.0
 40
45.0
 40
46.0
 40
46.0
 40
46.0
 40
47.0
 40
47.0
 40
47.0
 40
48.0
 40
48.0
 40
48.0
 40
49.0
 40
49.0
 40
49.0
 40
50.0
 40
50.0
 40
50.0
 40
51.0
 40
51.0
 40
51.0
 40
52.0
 40
52.0
 40
52.0
 40
53.0
 40
53.0
 40
53.0
 40
54.0
 40
54.0
 40
54.0
 40
55.0
 40
55.0
 40
55.0
 40
56.0
 40
56.0
 40
56.0
 40
57.0
 40
57.0
 40
57.0
 40
58.0
 40
58.0
 40
58.0
 40
59.0
 40
59.0
 40
59.0
 40
60.0
 40
60.0
 40
60.0
 40
61.0
 40
61.0
 40
61.0
 40
62.0
 40
62.0
 40
62.0
 40
63.0
 40
63.0
 40
63.0
 40
64.0
 40
64.0
 40
64.0
 40
65.0
 40
65.0
 40
65.0
 40
66.0
 40
66.0
 40
66.0
 40
67.0
 40
67.0
 40
67.0
 40
68.0
 40
68.0
 40
68.0
 40
69.0
 40
69.0
 40
69.0
 40
70.0
 40
70.0
 40
70.0
 40
71.0
 40
71.0
 40
71.0
 40
72.0
 40
72.0
 40
72.0
 40
73.0
 40
73.0
 40
73.0
 40
74.0
 40
74.0
 40
74.0
 40
75.0
 40
75.0
 40
75.0
 40
76.0
 40
76.0
 40
76.0
 40
77.0
 40
77.0
 40
77.0
 40
78.0
 40
78.0
 40
78.0
 40
79.0
 40
79.0
 40
79.0
 40
80.0
 40
80.0
 40
80.0
 40
81.0
 40
81.0
 40
81.0
 40
82.0
 40
82.0
 40
82.0
 40
83.0
 40
83.0
 40
83.0
 40
84.0
 40
84.0
 40
84.0
 40
85.0
 40
85.0
 40
85.0
 40
86.0
 40
86.0
 40
86.0
 40
87.0
 40
87.0
 40
87.0
 40
88.0
 40
88.0
 40
88.0
 40
89.0
 40
89.0
 40
89.0
 40
90.0
 40
90.0
 40
90.0
 40
91.0
 40
91.0
 40
91.0
 40
92.0
 40
92.0
 40
92.0
 40
93.0
 40
93.0
 40
93.0
 40
94.0
 40
94.0
 40
94.0
 40
95.0
 40
95.0
 40
95.0
 40
96.0
 40
96.0
 40
96.0
 40
97.0
 40
97.0
 40
97.0
 40
98.0
 40
98.0
 40
98.0
 40
99.0
 40
99.0
 40
99.0
 40
100.0
 40
100.0
 40
100.0
 40
101.0
 40
101.0
 40
101.0
 40
102.0
 40
102.0
 40
102.0
 40
103.0
 40
103.0
 40
103.0
 40
104.0
 40
104.0
 40
104.0
 40
105.0
 40
105.0
 40
105.0
 40
106.0
 40
106.0
 40
106.0
 40
107.0
 40
107.0
 40
107.0
 40
108.0
 40
108.0
 40
108.0
 40
109.0
 40
109.0
 40
109.0
 40
110.0
 40
110.0
 40
110.0
 40
111.0
 40
111.0
 40
111.0
 40
112.0
 40
112.0
 40
112.0
 40
113.0
 40
113.0
 40
113.0
 40
114.0
 40
114.0
 40
114.0
 40
115.0
 40
115.0
 40
115.0
 40
116.0
 40
116.0
 40
116.0
 40
117.0
 40
117.0
 40
117.0
 40
118.0
 40
118.0
 40
118.0
 40
119.0
 40
119.0
 40
119.0
 40
120.0
 40
120.0
 40
120.0
 40
121.0
 40
121.0
 40
121.0
 40
122.0
 40
122.0
 40
122.0
 40
123.0
 40
123.0
 40
123.0
 40
124.0
 40
124.0
 40
124.0
 40
125.0
 40
125.0
 40
125.0
 40
126.0
 40
126.0
 40
126.0
 40
127.0
 40
127.0
 40
127.0
 40
128.0
 40
128.0
 40
128.0
 40
129.0
 40
129.0
 40
129.0
 40
130.0
 40
130.0
 40
130.0
 40
131.0
 40
131.0
 40
131.0
 40
132.0
 40
132.0
 40
132.0
 40
133.0
 40
133.0
 40
133.0
 40
134.0
 40
134.0
 40
134.0
 40
135.0
 40
135.0
 40
135.0
 40
136.0
 40
136.0
 40
136.0
 40
137.0
 40
137.0
 40
137.0
 40
138.0
 40
138.0
 40
138.0
 40
139.0
 40
139.0
 40
139.0
 40
140.0
 40
140.0
 40
140.0
 40
141.0
 40
141.0
 40
141.0
 40
142.0
 40
142.0
 40
142.0
 40
143.0
 40
143.0
 40
143.0
 40
144.0
 40
144.0
 40
144.0
 40
145.0
 40
145.0
 40
145.0
 40
146.0
 40
146.0
 40
146.0
 40
147.0
 40
147.0
 40
147.0
 40
148.0
 40
148.0
 40
148.0
 40
149.0
 40
149.0
 40
149.0
 40
150.0
 40
150.0
 40
150.0
 40
151.0
 40
151.0
 40
151.0
 40
152.0
 40
152.0
 40
152.0
 40
153.0
 40
153.0
 40
153.0
 40
154.0
 40
154.0
 40
154.0
 40
155.0
 40
155.0
 40
155.0
 40
156.0
 40
156.0
 40
156.0
 40
157.0
 40
157.0
 40
157.0
 40
158.0
 40
158.0
 40
158.0
 40
159.0
 40
159.0
 40
159.0
 40
160.0
 40
160.0
 40
160.0
 40
161.0
 40
161.0
 40
161.0
 40
161.0
 10
1.07137276586924
 20
-7.11470616217601
 10
1.271729958745141
 20
-7.128083835240179
 10
1.466415111328792
 20
-7.222960054103396
 10
1.59790584056509
 20
-7.375111617498659
 10
1.814967670962498
 20
-7.28930779888828
 10
2.248126449410001
 20
-7.39919787349739
 10
2.248126449410001
 20
-7.39919787349739
 10
2.245738410353725
 20
-7.479034279668414
 10
2.35466002234706
 20
-7.478794401682257
 10
2.35134290362795
 20
-7.387609439591213
 10
2.35134290362795
 20
-7.387609439591213
 10
2.420562023709888
 20
-7.363035372016131
 10
2.446360543094923
 20
-7.340972862758892
 10
2.463774968836712
 20
-7.326079841073174
 10
2.476339920962687
 20
-7.283839833897698
 10
2.492698167511649
 20
-7.274324375424182
 10
2.514120703783419
 20
-7.261863251083266
 10
2.547093186075535
 20
-7.273770328881508
 10
2.573110996903147
 20
-7.272731155963861
 10
2.61380880344369
 20
-7.271105714087449
 10
2.696634733770629
 20
-7.240761148837767
 10
2.696634733770629
 20
-7.240761148837767
 10
2.731475221126642
 20
-7.27070561908815
 10
2.743790449528218
 20
-7.296570373439509
 10
2.780523108760159
 20
-7.26279412088032
 10
2.798802169332652
 20
-7.245986550640863
 10
2.82258499758023
 20
-7.182690984709754
 10
2.794730509037663
 20
-7.165194212793621
 10
2.794730509037663
 20
-7.165194212793621
 10
3.096946339321764
 20
-6.915423049835201
 10
3.307154640838386
 20
-6.904450422102425
 10
3.292491651400585
 20
-6.727183275528987
 10
3.440084637991655
 20
-6.55247423076321
 10
3.617310611477908
 20
-6.537313584010841
 10
3.556119348328416
 20
-6.428443885910054
 10
3.612880924337888
 20
-6.271303218429416
 10
3.729520700042763
 20
-6.226668906727885
 10
3.729520700042763
 20
-6.226668906727885
 10
3.725722930284203
 20
-6.215761618894324
 10
3.725722930284203
 20
-6.215761618894324
 10
3.563093711269403
 20
-6.154218594369594
 10
3.326274169429565
 20
-6.291407320844377
 10
3.186840614636505
 20
-6.366138264205447
 10
3.016448478554568
 20
-6.457461961698906
 10
2.858096785270656
 20
-6.569208405499467
 10
2.700468306213679
 20
-6.680592347119399
 10
2.682309184634252
 20
-6.590599614422293
 10
2.613958279651481
 20
-6.475403581969986
 10
2.633371390255585
 20
-6.385545109339723
 10
2.539054588337724
 20
-6.380800358576127
 10
2.552020530530133
 20
-6.512641059053395
 10
2.509758146676859
 20
-6.55638209377662
 10
2.43624986499156
 20
-6.63246279834339
 10
2.35684219596745
 20
-6.422623264477124
 10
2.260165102073794
 20
-6.454849260797371
 10
2.308757400547039
 20
-6.55203385774386
 10
2.283250673040698
 20
-6.672439180791192
 10
2.270043957795009
 20
-6.774219052293498
 10
1.982753371612704
 20
-6.706822288852688
 10
1.690080746882611
 20
-6.65271727203329
 10
1.394241374708321
 20
-6.647661037914481
 10
1.279336239067586
 20
-6.645696365602412
 10
1.126228743996093
 20
-6.637928078132593
 10
0.9902850558748797
 20
-6.664549164194063
 10
0.9367027582491749
 20
-6.263068600993948
 10
0.9307827843667711
 20
-5.848851232782218
 10
0.9781926991843193
 20
-5.428558149010516
 10
1.058996672904009
 20
-4.712263685917151
 10
1.286089520431776
 20
-4.035669029533842
 10
1.640705264685898
 20
-3.432324875507384
 10
1.627009842796762
 20
-3.496725849322489
 10
1.616230549560328
 20
-3.562351274947559
 10
1.608696769673998
 20
-3.629135812483367
 10
1.483185088749539
 20
-4.741783894356167
 10
2.28341805059074
 20
-5.745512154369862
 10
3.396065237396429
 20
-5.87102383529432
 10
3.780246838512299
 20
-5.91436119474977
 10
4.151417744080151
 20
-5.847283970268146
 10
4.477957023147799
 20
-5.695131511805761
 10
4.377988767481295
 20
-5.696810657708903
 10
4.276392384737076
 20
-5.692111555368013
 10
4.173736242531592
 20
-5.680531177065833
 10
3.539582983424048
 20
-5.608995623296614
 10
3.052865179095786
 20
-5.297744090511324
 10
2.771490986527422
 20
-4.865415934344266
 10
2.814259978366395
 20
-4.771609320680555
 10
2.958440074057307
 20
-4.782685776198377
 10
3.029872695108603
 20
-4.84518920773486
 10
3.049872969738531
 20
-4.758189579462092
 10
3.150467772383801
 20
-4.700735221507519
 10
3.23484306388256
 20
-4.698117150203302
 10
3.277399924815882
 20
-4.696796031145178
 10
3.328192298251754
 20
-4.703987895394511
 10
3.367765900498941
 20
-4.719940676541492
 10
3.408921086334001
 20
-4.736530745472615
 10
3.447562923716999
 20
-4.764826502101666
 10
3.487234983346563
 20
-4.727387634917918
 10
3.517955476783502
 20
-4.698397306209535
 10
3.503880546438659
 20
-4.653356634038901
 10
3.51151904917717
 20
-4.615574061083925
 10
3.520886821577101
 20
-4.569236436667211
 10
3.541631792044679
 20
-4.516064079779059
 10
3.564163316468908
 20
-4.474874881393728
 10
3.601271008821022
 20
-4.407037744933556
 10
3.690126111218079
 20
-4.325084505041357
 10
3.774472760569248
 20
-4.350303020937455
 10
3.753177323827458
 20
-4.264562752092059
 10
3.794086366206557
 20
-4.167162443971455
 10
3.870218984665838
 20
-4.122341958310509
 10
3.87022077480007
 20
-4.06625973823946
 10
3.892891034626738
 20
-4.010501532463157
 10
3.932024263854537
 20
-3.970330025384783
 10
3.860090405220224
 20
-3.917248070275011
 10
3.762067130389293
 20
-3.953332700917473
 10
3.688685053166889
 20
-3.983198405261924
 10
3.614575286381953
 20
-4.013359481753519
 10
3.534153506319335
 20
-4.04802811622393
 10
3.486356027442045
 20
-4.115507225839084
 10
3.440960013627723
 20
-4.179594031097659
 10
3.429677692674027
 20
-4.278517743443823
 10
3.356275028908019
 20
-4.320361235888425
 10
3.294695306631676
 20
-4.355465768042639
 10
3.246861130002786
 20
-4.264758771789704
 10
3.197112404820132
 20
-4.304907902190254
 10
3.134807678182622
 20
-4.355189192304869
 10
3.235051614519787
 20
-4.417832254310913
 10
3.142407693035302
 20
-4.461194675645515
 10
3.059490465862874
 20
-4.500004785645678
 10
2.963365628377674
 20
-4.482388074736478
 10
2.87829934506802
 20
-4.513467490085544
 10
2.801270764429066
 20
-4.541610190238353
 10
2.745211816102938
 20
-4.604231770633697
 10
2.700913154568613
 20
-4.670860566491923
 10
2.693756197936674
 20
-4.681624643587459
 10
2.686351307714542
 20
-4.692894433601572
 10
2.678968794170221
 20
-4.704499873782892
 10
2.53234964059762
 20
-4.412870897306044
 10
2.471159272515238
 20
-4.078257217816081
 10
2.510348890971133
 20
-3.730846763817997
 10
2.565623760506658
 20
-3.240844958253774
 10
2.809888470588703
 20
-2.820157149885429
 10
3.183476057360432
 20
-2.542057112814784
 10
3.33653611387495
 20
-2.526630631129983
 10
3.427517000664327
 20
-2.721066955056358
 10
3.398833679975546
 20
-2.858885808778357
 10
3.52914381569038
 20
-2.820328107703934
 10
3.681317755763479
 20
-2.914387130293373
 10
3.742742631429349
 20
-3.027063548823864
 10
3.775585328990145
 20
-3.087308726035379
 10
3.802935894748341
 20
-3.160748087552999
 10
3.805912887964685
 20
-3.22942658709898
 10
3.808483520711926
 20
-3.288707777030279
 10
3.819687970826824
 20
-3.345723552099722
 10
3.886408958597649
 20
-3.36290884066068
 10
3.949472702146585
 20
-3.379152518619245
 10
4.013603365693699
 20
-3.315743279164849
 10
4.074924413574498
 20
-3.302629650898881
 10
4.13893066279296
 20
-3.288940494479549
 10
4.210867206628614
 20
-3.27444756779313
 10
4.276504268126144
 20
-3.276542024836506
 10
4.386482059312294
 20
-3.280051582984798
 10
4.545518478937311
 20
-3.334302495743587
 10
4.573186793520449
 20
-3.456253599694314
 10
4.667817763994814
 20
-3.36683639515056
 10
4.822454928761645
 20
-3.348817799107817
 10
4.935108970614313
 20
-3.414081617619407
 10
5.00709295300693
 20
-3.37347510792434
 10
5.095074469902152
 20
-3.362199052440423
 10
5.174971740636831
 20
-3.383339642571753
 10
5.187815058634808
 20
-3.278667809228813
 10
5.111685125376867
 20
-3.191653859882257
 10
5.038903638186954
 20
-3.127133842141183
 10
4.959550568256721
 20
-3.056788727631644
 10
4.869557835559602
 20
-2.984964067185059
 10
4.770968878313536
 20
-2.944115889369616
 10
4.664084439068372
 20
-2.899830653841971
 10
4.562810280484655
 20
-2.925286362522898
 10
4.451678747790437
 20
-2.927044274331946
 10
4.379346584291031
 20
-2.928188170101774
 10
4.258312924130678
 20
-2.909327315906125
 10
4.252848539408546
 20
-2.817097810494741
 10
4.250588494949359
 20
-2.778959000828978
 10
4.269634628037326
 20
-2.737420726269748
 10
4.243661570565337
 20
-2.703731295220476
 10
4.220207231948077
 20
-2.673307964064899
 10
4.176983546015915
 20
-2.671513354504226
 10
4.145278478755168
 20
-2.687475086322352
 10
4.117330903232906
 20
-2.701544646264513
 10
4.102568561345619
 20
-2.730524234167547
 10
4.076990228470271
 20
-2.746797449340836
 10
4.040067815010464
 20
-2.770288485709708
 10
4.007525859999482
 20
-2.749667034503659
 10
3.97540100626294
 20
-2.726881311019472
 10
3.893000232814466
 20
-2.668437008838408
 10
3.845069388937405
 20
-2.576732907822083
 10
3.784145750854577
 20
-2.498804784735019
 10
3.724713294581243
 20
-2.422784944731916
 10
3.651213068499967
 20
-2.36945237083061
 10
3.558795598994948
 20
-2.340701025041287
 10
3.553647172963552
 20
-2.339099749976917
 10
3.548423561294713
 20
-2.337814433603297
 10
3.543240227645937
 20
-2.336356369276965
 10
3.840159945825071
 20
-2.210512618453751
 10
4.187062001703225
 20
-2.157941746665238
 10
4.566275980344446
 20
-2.200718794108234
 10
4.668932122549942
 20
-2.212298277343292
 10
4.769022107343744
 20
-2.230350885936319
 10
4.866104666639368
 20
-2.254258128512522
 10
4.581666659344743
 20
-2.03318371224955
 10
4.23476639360082
 20
-1.885104704216372
 10
3.85058479248495
 20
-1.841767344760923
 10
3.553965816855629
 20
-1.808307050892457
 10
3.265100807622325
 20
-1.840671782615156
 10
2.998539080699553
 20
-1.927175543707563
 10
3.874256632410556
 20
-1.278710161470359
 10
4.916358209673502
 20
-0.9356649497801754
 10
5.995788560865346
 20
-0.9356649497801754
 10
6.187132427917858
 20
-0.9356649497801754
 10
6.379836796981458
 20
-0.9464558788890827
 10
6.572770303225853
 20
-0.9682167505293995
 10
7.061715034530152
 20
-1.023373471206077
 10
7.532039684692083
 20
-1.146966128241224
 10
7.973333728125529
 20
-1.332455361310546
 10
7.946702796325856
 20
-1.349910960139495
 10
7.922928023682289
 20
-1.370607596982988
 10
7.904034947070563
 20
-1.394280331975715
 10
7.808951072637253
 20
-1.513421820260141
 10
7.836123520040044
 20
-1.716420356185166
 10
7.827339331397474
 20
-1.860663106573977
 10
7.804179469860249
 20
-2.240989653636082
 10
7.592015446702716
 20
-2.780369626598359
 10
7.397893291332846
 20
-3.149058511063104
 10
7.397893291332846
 20
-3.149058511063104
 10
7.282966674081409
 20
-2.652017002658681
 10
7.282966674081409
 20
-2.652017002658681
 10
7.282966674081409
 20
-2.652017002658681
 10
7.510156188857334
 20
-2.510023555923719
 10
7.510156188857334
 20
-2.510023555923719
 10
7.044258540634094
 20
-2.280279519608585
 10
6.721614593640273
 20
-1.968202734945521
 10
6.476847750908089
 20
-1.506631841144339
 10
6.476847750908089
 20
-1.506631841144339
 10
6.441722632210283
 20
-1.418862455154795
 10
6.336973823095629
 20
-1.439494647166195
 10
6.20668158872306
 20
-1.465158011417227
 10
6.140643537159121
 20
-1.663125375102608
 10
6.19867073806573
 20
-1.75555537554721
 10
6.222693444299466
 20
-1.793821284742952
 10
6.303284392046382
 20
-1.778334833561606
 10
6.292979484379581
 20
-1.732790238606602
 10
6.281793830674056
 20
-1.683350311577795
 10
6.312587719614233
 20
-1.616400186626151
 10
6.350748905957794
 20
-1.604392861311289
 10
6.374204139642162
 20
-1.597013032968322
 10
6.400442136979462
 20
-1.61039070603249
 10
6.42142519529898
 20
-1.661349561951308
 10
6.438347334128846
 20
-2.135370839288056
 10
6.371412425318113
 20
-2.544019994992608
 10
6.131666909087344
 20
-2.949966943084354
 10
6.131666909087344
 20
-2.949966943084354
 10
6.349318588711943
 20
-2.929888797615629
 10
6.349318588711943
 20
-2.929888797615629
 10
6.349318588711943
 20
-2.929888797615629
 10
6.904861683592647
 20
-3.930058270789825
 10
6.904861683592647
 20
-3.930058270789825
 10
6.759684483138344
 20
-4.125234815218278
 10
6.603317153642946
 20
-4.310426886006224
 10
6.431134883335921
 20
-4.482085542052434
 10
6.431134883335921
 20
-4.482085542052434
 10
6.983283883725839
 20
-4.462100483563416
 10
6.983283883725839
 20
-4.462100483563416
 10
7.021406582183545
 20
-4.634304235481156
 10
7.076714569202269
 20
-4.939407552270331
 10
7.081111138859114
 20
-5.275143645919431
 10
6.824690522321538
 20
-5.156884693807974
 10
6.580610196064677
 20
-5.013836858014441
 10
6.330715513844678
 20
-4.88278202646197
 10
6.223495424432308
 20
-5.051310632815582
 10
6.113261644051994
 20
-5.217947962360364
 10
6.00105871602404
 20
-5.383196147746477
 10
5.86265001307485
 20
-5.414502015075034
 10
5.7213905213722
 20
-5.426341067772733
 10
5.672464362865981
 20
-5.264277531173067
 10
5.639899136110077
 20
-5.156406727969877
 10
5.608865369183743
 20
-5.048051693458786
 10
5.577069005077507
 20
-4.939951753074764
 10
5.577069005077507
 20
-4.939951753074764
 10
5.811504983196628
 20
-4.859159415227547
 10
5.811504983196628
 20
-4.859159415227547
 10
5.811504983196628
 20
-4.859159415227547
 10
5.207864561955931
 20
-4.439294173535637
 10
5.207864561955931
 20
-4.439294173535637
 10
5.131175211752634
 20
-4.630458132098523
 10
4.951821663739843
 20
-5.096124853006724
 10
4.9571097202408
 20
-5.153600692572025
 10
4.9571097202408
 20
-5.153600692572025
 10
5.17968784925285
 20
-5.07689702129494
 10
5.17968784925285
 20
-5.07689702129494
 10
5.228965769134308
 20
-5.251613226597593
 10
5.275943366536492
 20
-5.42794502803843
 10
5.334617700965484
 20
-5.599832821265434
 10
5.383909046853634
 20
-5.744233998533142
 10
5.508361863383925
 20
-5.84962099049902
 10
5.663403598485628
 20
-5.862565451080715
 10
5.515713049579302
 20
-6.062910113017046
 10
5.359420905721373
 20
-6.250929700813534
 10
5.185187141592362
 20
-6.428283668896888
 10
5.330577368019438
 20
-6.386397213230894
 10
5.471336517206181
 20
-6.345922278401353
 10
5.6251591709006
 20
-6.358869424184402
 10
5.75200181662141
 20
-6.496870871597391
 10
5.861195529016968
 20
-6.650039231232515
 10
5.957003512744323
 20
-6.811701777765746
 10
5.953750838857318
 20
-6.81147532578628
 10
5.950480263628062
 20
-6.81123186753166
 10
5.947270552962449
 20
-6.81104390343805
 10
5.847786528603844
 20
-6.805225072139339
 10
5.734906034771711
 20
-6.801909743554461
 10
5.641913037113315
 20
-6.842845637946917
 10
5.544313129026616
 20
-6.885809754416439
 10
5.487947172680896
 20
-6.997590210767283
 10
5.382450087460168
 20
-7.024599755955604
 10
5.33809682683198
 20
-7.035955472412525
 10
5.305795644874264
 20
-7.028346506888738
 10
5.278259800223774
 20
-6.993198116445986
 10
5.257044024454999
 20
-6.966117860955793
 10
5.247744277155599
 20
-6.931839475746478
 10
5.20695069843402
 20
-6.932785561684416
 10
5.118756155565999
 20
-6.93483079003661
 10
5.165538628337672
 20
-7.048788049605137
 10
5.104959591093158
 20
-7.077866094890547
 10
5.057096772316653
 20
-7.100840677535492
 10
4.979201766712751
 20
-7.078118503816313
 10
4.931747993606677
 20
-7.064946696188017
 10
4.873807614209984
 20
-7.048864130309716
 10
4.817396009441508
 20
-7.025629978202131
 10
4.757266295887512
 20
-7.018522250261387
 10
4.6439391635662
 20
-7.005124885720735
 10
4.538903932975548
 20
-7.054606880903848
 10
4.44750504984462
 20
-7.11691160754132
 10
4.367309721761456
 20
-7.171579621574564
 10
4.269770678238425
 20
-7.239158083639217
 10
4.23745786040825
 20
-7.335433292399304
 10
4.23745786040825
 20
-7.335433292399304
 10
4.24623667864815
 20
-7.344097542048807
 10
4.24623667864815
 20
-7.344097542048807
 10
4.301337010096733
 20
-7.282496338161764
 10
4.407223449511409
 20
-7.317119324209443
 10
4.415560999664813
 20
-7.399124477994165
 10
4.499538881365601
 20
-7.254918425356967
 10
4.689672617681948
 20
-7.343641057821388
 10
4.746146877148299
 20
-7.460909170639247
 10
4.810452973849451
 20
-7.372548145288318
 10
4.950564094446715
 20
-7.3569068474965
 10
5.046596740019329
 20
-7.394268738908572
 10
5.097102691979191
 20
-7.413918147230383
 10
5.153777446478746
 20
-7.448418509083618
 10
5.190732977421716
 20
-7.488092358847426
 10
5.226001306857534
 20
-7.525954592775406
 10
5.251957358054382
 20
-7.566337335692323
 10
5.310679131040337
 20
-7.548939021158579
 10
5.361141224711698
 20
-7.533987820110521
 10
5.366040822085791
 20
-7.480059131512284
 10
5.391446407008402
 20
-7.440526702352271
 10
5.42327141326224
 20
-7.391005324216216
 10
5.474479097838349
 20
-7.339274025379281
 10
5.520268941182179
 20
-7.302609391247895
 10
5.594187163605018
 20
-7.243421288296278
 10
5.734632144235269
 20
-7.193057652007332
 10
5.817678261071882
 20
-7.262115660009006
 10
5.834804475203415
 20
-7.155796903178977
 10
5.927252376990269
 20
-7.066152351588622
 10
6.034048204591297
 20
-7.052306558424586
 10
6.041555132464256
 20
-7.0347077488576
 10
6.051219172078441
 20
-7.018118574993625
 10
6.062371708300841
 20
-7.002584685255315
 10
6.132313147542592
 20
-7.138774516832477
 10
6.194352934314818
 20
-7.278969773738329
 10
6.250527346298441
 20
-7.419723552522403
 10
6.365419055932484
 20
-7.707602197797642
 10
6.457494609800531
 20
-8.00526213647888
 10
6.52755509296829
 20
-8.307181699548714
 10
6.537805401541188
 20
-8.351354156620168
 10
6.557456599997244
 20
-8.483587791559886
 10
6.571999650441941
 20
-8.579090557401868
 10
6.224465677182327
 20
-8.64212655387031
 10
5.893217450035548
 20
-8.715942738642298
 10
5.57978016336142
 20
-8.796836219073258
 10
5.578920898933372
 20
-8.789913770024794
 10
5.57736258709042
 20
-8.782976104835445
 10
5.575006770450196
 20
-8.776116310484843
 10
5.575006770450196
 20
-8.776116310484843
 10
5.542874756176742
 20
-8.68256031561264
 10
5.542874756176742
 20
-8.68256031561264
 10
5.524528565570815
 20
-8.629140920201431
 10
5.466350993389268
 20
-8.60070911337127
 10
5.41293249304518
 20
-8.619055303977222
 10
5.41293249304518
 20
-8.619055303977222
 10
5.36490677205418
 20
-8.635549600727295
 10
5.36490677205418
 20
-8.635549600727295
 10
5.36490677205418
 20
-8.635549600727295
 10
5.242569894177942
 20
-8.279344217281302
 10
5.242569894177942
 20
-8.279344217281302
 10
5.236009052242959
 20
-8.260241694965265
 10
5.215205007345958
 20
-8.250074627633795
 10
5.19610248502992
 20
-8.25663457450168
 10
5.19610248502992
 20
-8.25663457450168
 10
5.17510331550237
 20
-8.263847025294606
 10
5.17510331550237
 20
-8.263847025294606
 10
5.122157410593697
 20
-8.211481123874844
 10
5.042197485161144
 20
-8.190432725656112
 10
4.966995736498903
 20
-8.216260782255883
 10
4.891793092769565
 20
-8.242088838855604
 10
4.84163890218493
 20
-8.307824357735525
 10
4.832041097537058
 20
-8.381670079722248
 10
4.832041097537058
 20
-8.381670079722248
 10
4.811041928009508
 20
-8.388882530515174
 10
4.811041928009508
 20
-8.388882530515174
 10
4.79193940569347
 20
-8.395443372450169
 10
4.781772338362012
 20
-8.41624741734717
 10
4.788332285229899
 20
-8.435349939663208
 10
4.788332285229899
 20
-8.435349939663208
 10
4.910670058173246
 20
-8.7915553231092
 10
4.910670058173246
 20
-8.7915553231092
 10
4.910670058173246
 20
-8.7915553231092
 10
4.85908734047699
 20
-8.809271386467925
 10
4.85908734047699
 20
-8.809271386467925
 10
4.805668840132878
 20
-8.82761847214096
 10
4.777237033302716
 20
-8.885795149255399
 10
4.795583223908655
 20
-8.939214544666608
 10
4.795583223908655
 20
-8.939214544666608
 10
4.821794369232584
 20
-9.015534232152428
 10
4.821794369232584
 20
-9.015534232152428
 10
4.74222200785976
 20
-9.04094518747772
 10
4.664161414840034
 20
-9.06664703961461
 10
4.587651078059265
 20
-9.092583399334973
 10
4.587651078059265
 20
-9.092583399334973
 10
4.52489344746281
 20
-8.933183582462233
 10
4.52489344746281
 20
-8.933183582462233
 10
4.487870786486408
 20
-8.83914783161774
 10
4.38162721529381
 20
-8.792930146194092
 10
4.287592359516414
 20
-8.829952807170482
 10
4.287592359516414
 20
-8.829952807170482
 10
4.203052375668941
 20
-8.8632367728178
 10
4.203052375668941
 20
-8.8632367728178
 10
4.203052375668941
 20
-8.8632367728178
 10
3.956179440020934
 20
-8.23619661205372
 10
3.956179440020934
 20
-8.23619661205372
 10
3.942940502359205
 20
-8.202569835702281
 10
3.904947588632795
 20
-8.186042421469057
 10
3.871320812281384
 20
-8.199281359130786
 10
3.871320812281384
 20
-8.199281359130786
 10
3.834355435600186
 20
-8.213835150380849
 10
3.834355435600186
 20
-8.213835150380849
 10
3.735570458656475
 20
-8.124421526105555
 10
3.59097505182534
 20
-8.093124609448118
 10
3.458593730812077
 20
-8.145244367411932
 10
3.326212409798801
 20
-8.197364125375719
 10
3.241764617863926
 20
-8.318837263488325
 10
3.230451864628397
 20
-8.451598092957333
 10
3.230451864628397
 20
-8.451598092957333
 10
3.193486487947186
 20
-8.466151884207395
 10
3.193486487947186
 20
-8.466151884207395
 10
3.1598597115958
 20
-8.47939082186915
 10
3.143332297362563
 20
-8.517383735595534
 10
3.156571235024292
 20
-8.551010511946945
 10
3.156571235024292
 20
-8.551010511946945
 10
3.40344327560519
 20
-9.178051567778134
 10
3.40344327560519
 20
-9.178051567778134
 10
3.40344327560519
 20
-9.178051567778134
 10
3.312640507171194
 20
-9.213801443320511
 10
3.312640507171194
 20
-9.213801443320511
 10
3.218605651393798
 20
-9.250824104296926
 10
3.172387965970163
 20
-9.357067675489512
 10
3.209410626946565
 20
-9.451102531266896
 10
3.209410626946565
 20
-9.451102531266896
 10
3.274064009687411
 20
-9.615318704272239
 10
3.274064009687411
 20
-9.615318704272239
 10
3.077332733684456
 20
-9.706128633243123
 10
2.903619898614958
 20
-9.792465016785474
 10
2.754741595650267
 20
-9.87027409594657
 10
1.917722270550371
 20
-9.165805259544236
 10
1.318374591181459
 20
-8.19925271698321
 10
1.07137276586924
 20
-7.11470616217601
 97
        0
 92
        1
 93
       12
 72
     1
 10
3.467143411871158
 20
-8.385346120353486
 11
3.616027085238506
 21
-8.326729070219699
 72
     1
 10
3.616027085238506
 20
-8.326729070219699
 11
3.651037635345915
 21
-8.465700770382657
 72
     1
 10
3.651037635345915
 20
-8.465700770382657
 11
3.762106513342259
 21
-8.406580692531634
 72
     1
 10
3.762106513342259
 20
-8.406580692531634
 11
3.805231741892031
 21
-8.516116320564151
 72
     1
 10
3.805231741892031
 20
-8.516116320564151
 11
3.681656986199136
 21
-8.549122815406589
 72
     1
 10
3.681656986199136
 20
-8.549122815406589
 11
3.84398188239566
 21
-8.90572023824787
 72
     1
 10
3.84398188239566
 20
-8.90572023824787
 11
3.6950982090283
 21
-8.964337288381659
 72
     1
 10
3.6950982090283
 20
-8.964337288381659
 11
3.570744744947483
 21
-8.592789559559428
 72
     1
 10
3.570744744947483
 20
-8.592789559559428
 11
3.457837399101966
 21
-8.652888840831615
 72
     1
 10
3.457837399101966
 20
-8.652888840831615
 11
3.414711275485085
 21
-8.543353212799072
 72
     1
 10
3.414711275485085
 20
-8.543353212799072
 11
3.536273025241851
 21
-8.510884653291315
 72
     1
 10
3.536273025241851
 20
-8.510884653291315
 11
3.467143411871158
 21
-8.385346120353486
 97
        0
 92
        1
 93
        1
 72
     4
 94
        3
 73
     0
 74
     1
 95
       26
 96
       22
 40
0.0
 40
0.0
 40
0.0
 40
0.0
 40
1.0
 40
1.0
 40
1.0
 40
2.0
 40
2.0
 40
2.0
 40
3.0
 40
3.0
 40
3.0
 40
4.0
 40
4.0
 40
4.0
 40
5.0
 40
5.0
 40
5.0
 40
6.0
 40
6.0
 40
6.0
 40
7.0
 40
7.0
 40
7.0
 40
7.0
 10
7.848664305354001
 20
-9.772536347524566
 10
7.935028435976847
 20
-10.0233198313873
 10
8.126076930882238
 20
-10.22369761080679
 10
8.349953802274587
 20
-10.47731845741631
 10
7.644202334699962
 20
-10.84782522318662
 10
6.845466820138022
 20
-11.05537965071456
 10
6.009415062586817
 20
-11.05535100856696
 10
5.974087658721563
 20
-11.0553483233656
 10
5.938667167876625
 20
-11.05485156111813
 10
5.903201923676041
 20
-11.05410507514628
 10
6.452428529943492
 20
-10.76647704866254
 10
6.831079511370919
 20
-10.09881605712957
 10
6.677707076434116
 20
-9.65345572380377
 10
6.449316381593134
 20
-8.99025574675976
 10
7.605433397786959
 20
-8.834234808236943
 10
7.605433397786959
 20
-8.834234808236943
 10
7.605433397786959
 20
-8.834234808236943
 10
8.404707742750613
 20
-8.771884433176712
 10
8.404707742750613
 20
-8.771884433176712
 10
8.404707742750613
 20
-8.771884433176712
 10
7.620272715445935
 20
-9.109337265547664
 10
7.848664305354001
 20
-9.772536347524566
 97
        0
 92
        1
 93
        1
 72
     4
 94
        3
 73
     0
 74
     1
 95
       17
 96
       13
 40
0.0
 40
0.0
 40
0.0
 40
0.0
 40
1.0
 40
1.0
 40
1.0
 40
2.0
 40
2.0
 40
2.0
 40
3.0
 40
3.0
 40
3.0
 40
4.0
 40
4.0
 40
4.0
 40
4.0
 10
10.43635882189735
 20
-8.437991282712346
 10
10.29387845865318
 20
-8.422527208208823
 10
10.15276128262141
 20
-8.409785927861675
 10
10.01275936021188
 20
-8.399085400531122
 10
10.15169078235479
 20
-7.824924909709402
 10
10.3649637936648
 20
-6.940094679725512
 10
10.39540860643107
 20
-6.792855244643912
 10
10.59042851411484
 20
-6.832637397528288
 10
10.79053598326631
 20
-6.856104267085129
 10
10.99019054845884
 20
-6.8610360868753
 10
10.892207551648
 20
-7.427331622979055
 10
10.70191091311717
 20
-7.957703640520625
 10
10.43635882189735
 20
-8.437991282712346
 97
        0
 75
     2
 76
     1
 98
        0
  0
ENDSEC
  0
SECTION
  2
OBJECTS
  0
DICTIONARY
  5
C
330
0
100
AcDbDictionary
281
     1
  3
ACAD_GROUP
350
D
  3
ACAD_LAYOUT
350
1A
  3
ACAD_MATERIAL
350
3B
  3
ACAD_MLEADERSTYLE
350
11C
  3
ACAD_MLINESTYLE
350
17
  3
ACAD_PLOTSETTINGS
350
19
  3
ACAD_PLOTSTYLENAME
350
E
  3
ACAD_TABLESTYLE
350
11B
  3
ACAD_VISUALSTYLE
350
2A
  0
SUN
  5
3F
330
29
100
AcDbSun
 90
        1
290
     0
 63
     7
421
 16777215
 40
1.0
291
     1
 91
  2455826
 92
 54000000
292
     0
 70
     2
 71
   256
280
     1
  0
DICTIONARY
  5
D
102
{ACAD_REACTORS
330
C
102
}
330
C
100
AcDbDictionary
281
     1
  0
DICTIONARY
  5
1A
102
{ACAD_REACTORS
330
C
102
}
330
C
100
AcDbDictionary
281
     1
  3
Layout1
350
1E
  3
Layout2
350
26
  3
Model
350
22
  0
DICTIONARY
  5
3B
102
{ACAD_REACTORS
330
C
102
}
330
C
100
AcDbDictionary
281
     1
  3
ByBlock
350
3D
  3
ByLayer
350
3C
  3
Global
350
3E
  0
DICTIONARY
  5
11C
102
{ACAD_REACTORS
330
C
102
}
330
C
100
AcDbDictionary
281
     1
  0
DICTIONARY
  5
17
102
{ACAD_REACTORS
330
C
102
}
330
C
100
AcDbDictionary
281
     1
  3
Standard
350
18
  0
DICTIONARY
  5
19
102
{ACAD_REACTORS
330
C
102
}
330
C
100
AcDbDictionary
281
     1
  0
ACDBDICTIONARYWDFLT
  5
E
102
{ACAD_REACTORS
330
C
102
}
330
C
100
AcDbDictionary
281
     1
  3
Normal
350
F
100
AcDbDictionaryWithDefault
340
F
  0
DICTIONARY
  5
11B
102
{ACAD_REACTORS
330
C
102
}
330
C
100
AcDbDictionary
281
     1
  0
DICTIONARY
  5
2A
102
{ACAD_REACTORS
330
C
102
}
330
C
100
AcDbDictionary
281
     1
  3
2dWireframe
350
2F
  3
3D Hidden
350
31
  3
3dWireframe
350
30
  3
Basic
350
32
  3
Brighten
350
36
  3
ColorChange
350
3A
  3
Conceptual
350
34
  3
Dim
350
35
  3
Facepattern
350
39
  3
Flat
350
2B
  3
FlatWithEdges
350
2C
  3
Gouraud
350
2D
  3
GouraudWithEdges
350
2E
  3
Linepattern
350
38
  3
Realistic
350
33
  3
Thicken
350
37
  0
LAYOUT
  5
1E
102
{ACAD_REACTORS
330
1A
102
}
330
1A
100
AcDbPlotSettings
  1

  2
none_device
  4

  6

 40
0.0
 41
0.0
 42
0.0
 43
0.0
 44
0.0
 45
0.0
 46
0.0
 47
0.0
 48
0.0
 49
0.0
140
0.0
141
0.0
142
1.0
143
1.0
 70
   688
 72
     0
 73
     0
 74
     5
  7

 75
    16
 76
     0
 77
     2
 78
   300
147
1.0
148
0.0
149
0.0
100
AcDbLayout
  1
Layout1
 70
     1
 71
     1
 10
0.0
 20
0.0
 11
12.0
 21
9.0
 12
0.0
 22
0.0
 32
0.0
 14
1.000000000000000E+20
 24
1.000000000000000E+20
 34
1.000000000000000E+20
 15
-1.000000000000000E+20
 25
-1.000000000000000E+20
 35
-1.000000000000000E+20
146
0.0
 13
0.0
 23
0.0
 33
0.0
 16
1.0
 26
0.0
 36
0.0
 17
0.0
 27
1.0
 37
0.0
 76
     0
330
1B
  0
LAYOUT
  5
26
102
{ACAD_REACTORS
330
1A
102
}
330
1A
100
AcDbPlotSettings
  1

  2
none_device
  4

  6

 40
0.0
 41
0.0
 42
0.0
 43
0.0
 44
0.0
 45
0.0
 46
0.0
 47
0.0
 48
0.0
 49
0.0
140
0.0
141
0.0
142
1.0
143
1.0
 70
   688
 72
     0
 73
     0
 74
     5
  7

 75
    16
 76
     0
 77
     2
 78
   300
147
1.0
148
0.0
149
0.0
100
AcDbLayout
  1
Layout2
 70
     1
 71
     2
 10
0.0
 20
0.0
 11
0.0
 21
0.0
 12
0.0
 22
0.0
 32
0.0
 14
0.0
 24
0.0
 34
0.0
 15
0.0
 25
0.0
 35
0.0
146
0.0
 13
0.0
 23
0.0
 33
0.0
 16
1.0
 26
0.0
 36
0.0
 17
0.0
 27
1.0
 37
0.0
 76
     0
330
23
  0
LAYOUT
  5
22
102
{ACAD_REACTORS
330
1A
102
}
330
1A
100
AcDbPlotSettings
  1

  2
none_device
  4

  6

 40
0.0
 41
0.0
 42
0.0
 43
0.0
 44
0.0
 45
0.0
 46
0.0
 47
0.0
 48
0.0
 49
0.0
140
0.0
141
0.0
142
1.0
143
1.0
 70
  1712
 72
     0
 73
     0
 74
     0
  7

 75
     0
 76
     0
 77
     2
 78
   300
147
1.0
148
0.0
149
0.0
100
AcDbLayout
  1
Model
 70
     1
 71
     0
 10
0.0
 20
0.0
 11
12.0
 21
9.0
 12
0.0
 22
0.0
 32
0.0
 14
1.000000000000000E+20
 24
1.000000000000000E+20
 34
1.000000000000000E+20
 15
-1.000000000000000E+20
 25
-1.000000000000000E+20
 35
-1.000000000000000E+20
146
0.0
 13
0.0
 23
0.0
 33
0.0
 16
1.0
 26
0.0
 36
0.0
 17
0.0
 27
1.0
 37
0.0
 76
     0
330
1F
331
29
  0
MATERIAL
  5
3D
102
{ACAD_REACTORS
330
3B
102
}
330
3B
100
AcDbMaterial
  1
ByBlock
 72
     1
 94
      127
  0
MATERIAL
  5
3C
102
{ACAD_REACTORS
330
3B
102
}
330
3B
100
AcDbMaterial
  1
ByLayer
 72
     1
 94
      127
  0
MATERIAL
  5
3E
102
{ACAD_REACTORS
330
3B
102
}
330
3B
100
AcDbMaterial
  1
Global
 72
     1
 94
      127
  0
MLINESTYLE
  5
18
102
{ACAD_REACTORS
330
17
102
}
330
17
100
AcDbMlineStyle
  2
Standard
 70
     0
  3

 62
   256
 51
90.0
 52
90.0
 71
     2
 49
0.5
 62
   256
  6
BYLAYER
 49
-0.5
 62
   256
  6
BYLAYER
  0
ACDBPLACEHOLDER
  5
F
102
{ACAD_REACTORS
330
E
102
}
330
E
  0
VISUALSTYLE
  5
2F
102
{ACAD_REACTORS
330
2A
102
}
102
{ACAD_XDICTIONARY
360
103
102
}
330
2A
100
AcDbVisualStyle
  2
2dWireframe
 70
     4
 71
     0
 72
     2
 73
     0
 90
        0
 40
-0.6
 41
-30.0
 62
     5
 63
     7
421
 16777215
 74
     1
 91
        4
 64
     7
 65
   257
 75
     1
175
     1
 42
1.0
 92
        0
 66
   257
 43
1.0
 76
     1
 77
     6
 78
     2
 67
     7
 79
     5
170
     0
171
     0
290
     0
174
     0
 93
        1
 44
0.0
173
     0
291
     0
 45
0.0
  0
VISUALSTYLE
  5
31
102
{ACAD_REACTORS
330
2A
102
}
102
{ACAD_XDICTIONARY
360
107
102
}
330
2A
100
AcDbVisualStyle
  2
3D Hidden
 70
     6
 71
     1
 72
     2
 73
     2
 90
        0
 40
-0.6
 41
-30.0
 62
     5
 63
     7
421
 16777215
 74
     2
 91
        2
 64
     7
 65
   257
 75
     2
175
     1
 42
40.0
 92
        0
 66
   257
 43
1.0
 76
     1
 77
     6
 78
     2
 67
     7
 79
     3
170
     0
171
     0
290
     0
174
     0
 93
        1
 44
0.0
173
     0
291
     0
 45
0.0
  0
VISUALSTYLE
  5
30
102
{ACAD_REACTORS
330
2A
102
}
102
{ACAD_XDICTIONARY
360
105
102
}
330
2A
100
AcDbVisualStyle
  2
3dWireframe
 70
     5
 71
     0
 72
     2
 73
     0
 90
        0
 40
-0.6
 41
-30.0
 62
     5
 63
     7
421
 16777215
 74
     1
 91
        4
 64
     7
 65
   257
 75
     1
175
     1
 42
1.0
 92
        0
 66
   257
 43
1.0
 76
     1
 77
     6
 78
     2
 67
     7
 79
     5
170
     0
171
     0
290
     0
174
     0
 93
        1
 44
0.0
173
     0
291
     0
 45
0.0
  0
VISUALSTYLE
  5
32
102
{ACAD_REACTORS
330
2A
102
}
102
{ACAD_XDICTIONARY
360
109
102
}
330
2A
100
AcDbVisualStyle
  2
Basic
 70
     7
 71
     1
 72
     0
 73
     1
 90
        0
 40
-0.6
 41
-30.0
 62
     5
 63
     7
421
 16777215
 74
     0
 91
        4
 64
     7
 65
   257
 75
     1
175
     1
 42
1.0
 92
        8
 66
     7
 43
1.0
 76
     1
 77
     6
 78
     2
 67
     7
 79
     5
170
     0
171
     0
290
     0
174
     0
 93
        1
 44
0.0
173
     0
291
     1
 45
0.0
  0
VISUALSTYLE
  5
36
102
{ACAD_REACTORS
330
2A
102
}
102
{ACAD_XDICTIONARY
360
111
102
}
330
2A
100
AcDbVisualStyle
  2
Brighten
 70
    12
 71
     2
 72
     2
 73
     0
 90
        0
 40
-0.6
 41
-30.0
 62
     5
 63
     7
421
 16777215
 74
     1
 91
        4
 64
     7
 65
   257
 75
     1
175
     1
 42
1.0
 92
        8
 66
     7
 43
1.0
 76
     1
 77
     6
 78
     2
 67
     7
 79
     5
170
     0
171
     0
290
     0
174
     0
 93
        1
 44
50.0
173
     0
291
     1
 45
0.0
  0
VISUALSTYLE
  5
3A
102
{ACAD_REACTORS
330
2A
102
}
102
{ACAD_XDICTIONARY
360
119
102
}
330
2A
100
AcDbVisualStyle
  2
ColorChange
 70
    16
 71
     2
 72
     2
 73
     3
 90
        0
 40
-0.6
 41
-30.0
 62
     5
 63
     8
421
  8421504
 74
     1
 91
        4
 64
     7
 65
   257
 75
     1
175
     1
 42
1.0
 92
        8
 66
     8
424
  8421504
 43
1.0
 76
     1
 77
     6
 78
     2
 67
     7
 79
     5
170
     0
171
     0
290
     0
174
     0
 93
        1
 44
0.0
173
     0
291
     1
 45
0.0
  0
VISUALSTYLE
  5
34
102
{ACAD_REACTORS
330
2A
102
}
102
{ACAD_XDICTIONARY
360
10D
102
}
330
2A
100
AcDbVisualStyle
  2
Conceptual
 70
     9
 71
     3
 72
     2
 73
     0
 90
        0
 40
-0.6
 41
-30.0
 62
     5
 63
     7
421
 16777215
 74
     2
 91
        2
 64
     7
 65
   257
 75
     1
175
     1
 42
40.0
 92
        8
 66
     7
 43
1.0
 76
     1
 77
     6
 78
     2
 67
     7
 79
     3
170
     0
171
     0
290
     0
174
     0
 93
        1
 44
0.0
173
     0
291
     0
 45
0.0
  0
VISUALSTYLE
  5
35
102
{ACAD_REACTORS
330
2A
102
}
102
{ACAD_XDICTIONARY
360
10F
102
}
330
2A
100
AcDbVisualStyle
  2
Dim
 70
    11
 71
     2
 72
     2
 73
     0
 90
        0
 40
-0.6
 41
-30.0
 62
     5
 63
     7
421
 16777215
 74
     1
 91
        4
 64
     7
 65
   257
 75
     1
175
     1
 42
1.0
 92
        8
 66
     7
 43
1.0
 76
     1
 77
     6
 78
     2
 67
     7
 79
     5
170
     0
171
     0
290
     0
174
     0
 93
        1
 44
-50.0
173
     0
291
     1
 45
0.0
  0
VISUALSTYLE
  5
39
102
{ACAD_REACTORS
330
2A
102
}
102
{ACAD_XDICTIONARY
360
117
102
}
330
2A
100
AcDbVisualStyle
  2
Facepattern
 70
    15
 71
     2
 72
     2
 73
     0
 90
        0
 40
-0.6
 41
-30.0
 62
     5
 63
     7
421
 16777215
 74
     1
 91
        4
 64
     7
 65
   257
 75
     1
175
     1
 42
1.0
 92
        8
 66
     7
 43
1.0
 76
     1
 77
     6
 78
     2
 67
     7
 79
     5
170
     0
171
     0
290
     0
174
     0
 93
        1
 44
0.0
173
     0
291
     1
 45
0.0
  0
VISUALSTYLE
  5
2B
102
{ACAD_REACTORS
330
2A
102
}
102
{ACAD_XDICTIONARY
360
FB
102
}
330
2A
100
AcDbVisualStyle
  2
Flat
 70
     0
 71
     2
 72
     1
 73
     1
 90
        2
 40
-0.6
 41
30.0
 62
     5
 63
     7
421
 16777215
 74
     0
 91
        4
 64
     7
 65
   257
 75
     1
175
     1
 42
1.0
 92
        8
 66
     7
 43
1.0
 76
     1
 77
     6
 78
     2
 67
     7
 79
     5
170
     0
171
     0
290
     0
174
     0
 93
       13
 44
0.0
173
     0
291
     1
 45
0.0
  0
VISUALSTYLE
  5
2C
102
{ACAD_REACTORS
330
2A
102
}
102
{ACAD_XDICTIONARY
360
FD
102
}
330
2A
100
AcDbVisualStyle
  2
FlatWithEdges
 70
     1
 71
     2
 72
     1
 73
     1
 90
        2
 40
-0.6
 41
30.0
 62
     5
 63
     7
421
 16777215
 74
     1
 91
        4
 64
     7
 65
   257
 75
     1
175
     1
 42
1.0
 92
        0
 66
   257
 43
1.0
 76
     1
 77
     6
 78
     2
 67
     7
 79
     5
170
     0
171
     0
290
     0
174
     0
 93
       13
 44
0.0
173
     0
291
     1
 45
0.0
  0
VISUALSTYLE
  5
2D
102
{ACAD_REACTORS
330
2A
102
}
102
{ACAD_XDICTIONARY
360
FF
102
}
330
2A
100
AcDbVisualStyle
  2
Gouraud
 70
     2
 71
     2
 72
     2
 73
     1
 90
        2
 40
-0.6
 41
30.0
 62
     5
 63
     7
421
 16777215
 74
     0
 91
        4
 64
     7
 65
   257
 75
     1
175
     1
 42
1.0
 92
        0
 66
     7
 43
1.0
 76
     1
 77
     6
 78
     2
 67
     7
 79
     5
170
     0
171
     0
290
     0
174
     0
 93
       13
 44
0.0
173
     0
291
     1
 45
0.0
  0
VISUALSTYLE
  5
2E
102
{ACAD_REACTORS
330
2A
102
}
102
{ACAD_XDICTIONARY
360
101
102
}
330
2A
100
AcDbVisualStyle
  2
GouraudWithEdges
 70
     3
 71
     2
 72
     2
 73
     1
 90
        2
 40
-0.6
 41
30.0
 62
     5
 63
     7
421
 16777215
 74
     1
 91
        4
 64
     7
 65
   257
 75
     1
175
     1
 42
1.0
 92
        0
 66
   257
 43
1.0
 76
     1
 77
     6
 78
     2
 67
     7
 79
     5
170
     0
171
     0
290
     0
174
     0
 93
       13
 44
0.0
173
     0
291
     1
 45
0.0
  0
VISUALSTYLE
  5
38
102
{ACAD_REACTORS
330
2A
102
}
102
{ACAD_XDICTIONARY
360
115
102
}
330
2A
100
AcDbVisualStyle
  2
Linepattern
 70
    14
 71
     2
 72
     2
 73
     0
 90
        0
 40
-0.6
 41
-30.0
 62
     5
 63
     7
421
 16777215
 74
     1
 91
        4
 64
     7
 65
   257
 75
     7
175
     7
 42
1.0
 92
        8
 66
     7
 43
1.0
 76
     1
 77
     6
 78
     2
 67
     7
 79
     5
170
     0
171
     0
290
     0
174
     0
 93
        1
 44
0.0
173
     0
291
     1
 45
0.0
  0
VISUALSTYLE
  5
33
102
{ACAD_REACTORS
330
2A
102
}
102
{ACAD_XDICTIONARY
360
10B
102
}
330
2A
100
AcDbVisualStyle
  2
Realistic
 70
     8
 71
     2
 72
     2
 73
     0
 90
        0
 40
-0.6
 41
-30.0
 62
     5
 63
     7
421
 16777215
 74
     1
 91
        0
 64
     7
 65
   257
 75
     1
175
     1
 42
1.0
 92
        8
 66
     8
424
  7895160
 43
1.0
 76
     1
 77
     6
 78
     2
 67
     7
 79
     5
170
     0
171
     0
290
     0
174
     0
 93
       13
 44
0.0
173
     0
291
     0
 45
0.0
  0
VISUALSTYLE
  5
37
102
{ACAD_REACTORS
330
2A
102
}
102
{ACAD_XDICTIONARY
360
113
102
}
330
2A
100
AcDbVisualStyle
  2
Thicken
 70
    13
 71
     2
 72
     2
 73
     0
 90
        0
 40
-0.6
 41
-30.0
 62
     5
 63
     7
421
 16777215
 74
     1
 91
        4
 64
     7
 65
   257
 75
     1
175
     1
 42
1.0
 92
       12
 66
     7
 43
1.0
 76
     1
 77
     6
 78
     2
 67
     7
 79
     5
170
     0
171
     0
290
     0
174
     0
 93
        1
 44
0.0
173
     0
291
     1
 45
0.0
  0
DICTIONARY
  5
103
330
2F
100
AcDbDictionary
280
     1
281
     1
  3
ACAD_XREC_ROUNDTRIP
360
104
  0
DICTIONARY
  5
107
330
31
100
AcDbDictionary
280
     1
281
     1
  3
ACAD_XREC_ROUNDTRIP
360
108
  0
DICTIONARY
  5
105
330
30
100
AcDbDictionary
280
     1
281
     1
  3
ACAD_XREC_ROUNDTRIP
360
106
  0
DICTIONARY
  5
109
330
32
100
AcDbDictionary
280
     1
281
     1
  3
ACAD_XREC_ROUNDTRIP
360
10A
  0
DICTIONARY
  5
111
330
36
100
AcDbDictionary
280
     1
281
     1
  3
ACAD_XREC_ROUNDTRIP
360
112
  0
DICTIONARY
  5
119
330
3A
100
AcDbDictionary
280
     1
281
     1
  3
ACAD_XREC_ROUNDTRIP
360
11A
  0
DICTIONARY
  5
10D
330
34
100
AcDbDictionary
280
     1
281
     1
  3
ACAD_XREC_ROUNDTRIP
360
10E
  0
DICTIONARY
  5
10F
330
35
100
AcDbDictionary
280
     1
281
     1
  3
ACAD_XREC_ROUNDTRIP
360
110
  0
DICTIONARY
  5
117
330
39
100
AcDbDictionary
280
     1
281
     1
  3
ACAD_XREC_ROUNDTRIP
360
118
  0
DICTIONARY
  5
FB
330
2B
100
AcDbDictionary
280
     1
281
     1
  3
ACAD_XREC_ROUNDTRIP
360
FC
  0
DICTIONARY
  5
FD
330
2C
100
AcDbDictionary
280
     1
281
     1
  3
ACAD_XREC_ROUNDTRIP
360
FE
  0
DICTIONARY
  5
FF
330
2D
100
AcDbDictionary
280
     1
281
     1
  3
ACAD_XREC_ROUNDTRIP
360
100
  0
DICTIONARY
  5
101
330
2E
100
AcDbDictionary
280
     1
281
     1
  3
ACAD_XREC_ROUNDTRIP
360
102
  0
DICTIONARY
  5
115
330
38
100
AcDbDictionary
280
     1
281
     1
  3
ACAD_XREC_ROUNDTRIP
360
116
  0
DICTIONARY
  5
10B
330
33
100
AcDbDictionary
280
     1
281
     1
  3
ACAD_XREC_ROUNDTRIP
360
10C
  0
DICTIONARY
  5
113
330
37
100
AcDbDictionary
280
     1
281
     1
  3
ACAD_XREC_ROUNDTRIP
360
114
  0
XRECORD
  5
104
102
{ACAD_REACTORS
330
103
102
}
330
103
100
AcDbXrecord
280
     1
102
RTVSPropertyOp0
 70
     1
102
RTVSPropertyOp1
 70
     1
102
RTVSPropertyOp2
 70
     1
102
RTVSPropertyOp3
 70
     1
102
RTVSPropertyOp4
 70
     1
102
RTVSPropertyOp5
 70
     1
102
RTVSPropertyOp6
 70
     1
102
RTVSPropertyOp7
 70
     1
102
RTVSPropertyOp8
 70
     1
102
RTVSPropertyOp9
 70
     1
102
RTVSPropertyOp10
 70
     1
102
RTVSPropertyOp11
 70
     1
102
RTVSPropertyOp12
 70
     1
102
RTVSPropertyOp13
 70
     1
102
RTVSPropertyOp14
 70
     1
102
RTVSPropertyOp15
 70
     1
102
RTVSPropertyOp16
 70
     1
102
RTVSPropertyOp17
 70
     1
102
RTVSPropertyOp18
 70
     1
102
RTVSPropertyOp19
 70
     1
102
RTVSPropertyOp20
 70
     1
102
RTVSPropertyOp21
 70
     1
102
RTVSPropertyOp22
 70
     1
102
RTVSPropertyOp23
 70
     1
102
RTVSPropertyOp24
 70
     1
102
RTVSPropertyOp25
 70
     1
102
RTVSPropertyOp26
 70
     1
102
RTVSPropertyOp27
 70
     1
102
RTVSPropertyOp28
 70
     1
102
RTVSPropertyOp29
 70
     1
102
RTVSPropertyOp30
 70
     1
102
RTVSPropertyOp31
 70
     1
102
RTVSPropertyOp32
 70
     1
  0
XRECORD
  5
108
102
{ACAD_REACTORS
330
107
102
}
330
107
100
AcDbXrecord
280
     1
102
RTVSPropertyOp0
 70
     1
102
RTVSPropertyOp1
 70
     1
102
RTVSPropertyOp2
 70
     1
102
RTVSPropertyOp3
 70
     1
102
RTVSPropertyOp4
 70
     1
102
RTVSPropertyOp5
 70
     1
102
RTVSPropertyOp6
 70
     1
102
RTVSPropertyOp7
 70
     1
102
RTVSPropertyOp8
 70
     1
102
RTVSPropertyOp9
 70
     1
102
RTVSPropertyOp10
 70
     1
102
RTVSPropertyOp11
 70
     1
102
RTVSPropertyOp12
 70
     1
102
RTVSPropertyOp13
 70
     1
102
RTVSPropertyOp14
 70
     1
102
RTVSPropertyOp15
 70
     1
102
RTVSPropertyOp16
 70
     1
102
RTVSPropertyOp17
 70
     1
102
RTVSPropertyOp18
 70
     1
102
RTVSPropertyOp19
 70
     1
102
RTVSPropertyOp20
 70
     1
102
RTVSPropertyOp21
 70
     1
102
RTVSPropertyOp22
 70
     1
102
RTVSPropertyOp23
 70
     1
102
RTVSPropertyOp24
 70
     1
102
RTVSPropertyOp25
 70
     1
102
RTVSPropertyOp26
 70
     1
102
RTVSPropertyOp27
 70
     1
102
RTVSPropertyOp28
 70
     1
102
RTVSPropertyOp29
 70
     1
102
RTVSPropertyOp30
 70
     1
102
RTVSPropertyOp31
 70
     1
102
RTVSPropertyOp32
 70
     1
  0
XRECORD
  5
106
102
{ACAD_REACTORS
330
105
102
}
330
105
100
AcDbXrecord
280
     1
102
RTVSPropertyOp0
 70
     1
102
RTVSPropertyOp1
 70
     1
102
RTVSPropertyOp2
 70
     1
102
RTVSPropertyOp3
 70
     1
102
RTVSPropertyOp4
 70
     1
102
RTVSPropertyOp5
 70
     1
102
RTVSPropertyOp6
 70
     1
102
RTVSPropertyOp7
 70
     1
102
RTVSPropertyOp8
 70
     1
102
RTVSPropertyOp9
 70
     1
102
RTVSPropertyOp10
 70
     1
102
RTVSPropertyOp11
 70
     1
102
RTVSPropertyOp12
 70
     1
102
RTVSPropertyOp13
 70
     1
102
RTVSPropertyOp14
 70
     1
102
RTVSPropertyOp15
 70
     1
102
RTVSPropertyOp16
 70
     1
102
RTVSPropertyOp17
 70
     1
102
RTVSPropertyOp18
 70
     1
102
RTVSPropertyOp19
 70
     1
102
RTVSPropertyOp20
 70
     1
102
RTVSPropertyOp21
 70
     1
102
RTVSPropertyOp22
 70
     1
102
RTVSPropertyOp23
 70
     1
102
RTVSPropertyOp24
 70
     1
102
RTVSPropertyOp25
 70
     1
102
RTVSPropertyOp26
 70
     1
102
RTVSPropertyOp27
 70
     1
102
RTVSPropertyOp28
 70
     1
102
RTVSPropertyOp29
 70
     1
102
RTVSPropertyOp30
 70
     1
102
RTVSPropertyOp31
 70
     1
102
RTVSPropertyOp32
 70
     1
  0
XRECORD
  5
10A
102
{ACAD_REACTORS
330
109
102
}
330
109
100
AcDbXrecord
280
     1
102
RTVSPropertyOp0
 70
     1
102
RTVSPropertyOp1
 70
     1
102
RTVSPropertyOp2
 70
     1
102
RTVSPropertyOp3
 70
     1
102
RTVSPropertyOp4
 70
     1
102
RTVSPropertyOp5
 70
     1
102
RTVSPropertyOp6
 70
     1
102
RTVSPropertyOp7
 70
     1
102
RTVSPropertyOp8
 70
     1
102
RTVSPropertyOp9
 70
     1
102
RTVSPropertyOp10
 70
     1
102
RTVSPropertyOp11
 70
     1
102
RTVSPropertyOp12
 70
     1
102
RTVSPropertyOp13
 70
     1
102
RTVSPropertyOp14
 70
     1
102
RTVSPropertyOp15
 70
     1
102
RTVSPropertyOp16
 70
     1
102
RTVSPropertyOp17
 70
     1
102
RTVSPropertyOp18
 70
     1
102
RTVSPropertyOp19
 70
     1
102
RTVSPropertyOp20
 70
     1
102
RTVSPropertyOp21
 70
     1
102
RTVSPropertyOp22
 70
     1
102
RTVSPropertyOp23
 70
     1
102
RTVSPropertyOp24
 70
     1
102
RTVSPropertyOp25
 70
     1
102
RTVSPropertyOp26
 70
     1
102
RTVSPropertyOp27
 70
     1
102
RTVSPropertyOp28
 70
     1
102
RTVSPropertyOp29
 70
     1
102
RTVSPropertyOp30
 70
     1
102
RTVSPropertyOp31
 70
     1
102
RTVSPropertyOp32
 70
     1
  0
XRECORD
  5
112
102
{ACAD_REACTORS
330
111
102
}
330
111
100
AcDbXrecord
280
     1
102
RTVSPropertyOp0
 70
     1
102
RTVSPropertyOp1
 70
     1
102
RTVSPropertyOp2
 70
     1
102
RTVSPropertyOp3
 70
     1
102
RTVSPropertyOp4
 70
     1
102
RTVSPropertyOp5
 70
     1
102
RTVSPropertyOp6
 70
     1
102
RTVSPropertyOp7
 70
     1
102
RTVSPropertyOp8
 70
     1
102
RTVSPropertyOp9
 70
     1
102
RTVSPropertyOp10
 70
     1
102
RTVSPropertyOp11
 70
     1
102
RTVSPropertyOp12
 70
     1
102
RTVSPropertyOp13
 70
     1
102
RTVSPropertyOp14
 70
     1
102
RTVSPropertyOp15
 70
     1
102
RTVSPropertyOp16
 70
     1
102
RTVSPropertyOp17
 70
     1
102
RTVSPropertyOp18
 70
     1
102
RTVSPropertyOp19
 70
     1
102
RTVSPropertyOp20
 70
     1
102
RTVSPropertyOp21
 70
     1
102
RTVSPropertyOp22
 70
     1
102
RTVSPropertyOp23
 70
     1
102
RTVSPropertyOp24
 70
     1
102
RTVSPropertyOp25
 70
     1
102
RTVSPropertyOp26
 70
     1
102
RTVSPropertyOp27
 70
     1
102
RTVSPropertyOp28
 70
     1
102
RTVSPropertyOp29
 70
     1
102
RTVSPropertyOp30
 70
     1
102
RTVSPropertyOp31
 70
     1
102
RTVSPropertyOp32
 70
     1
  0
XRECORD
  5
11A
102
{ACAD_REACTORS
330
119
102
}
330
119
100
AcDbXrecord
280
     1
102
RTVSPropertyOp0
 70
     1
102
RTVSPropertyOp1
 70
     1
102
RTVSPropertyOp2
 70
     1
102
RTVSPropertyOp3
 70
     1
102
RTVSPropertyOp4
 70
     1
102
RTVSPropertyOp5
 70
     1
102
RTVSPropertyOp6
 70
     1
102
RTVSPropertyOp7
 70
     1
102
RTVSPropertyOp8
 70
     1
102
RTVSPropertyOp9
 70
     1
102
RTVSPropertyOp10
 70
     1
102
RTVSPropertyOp11
 70
     1
102
RTVSPropertyOp12
 70
     1
102
RTVSPropertyOp13
 70
     1
102
RTVSPropertyOp14
 70
     1
102
RTVSPropertyOp15
 70
     1
102
RTVSPropertyOp16
 70
     1
102
RTVSPropertyOp17
 70
     1
102
RTVSPropertyOp18
 70
     1
102
RTVSPropertyOp19
 70
     1
102
RTVSPropertyOp20
 70
     1
102
RTVSPropertyOp21
 70
     1
102
RTVSPropertyOp22
 70
     1
102
RTVSPropertyOp23
 70
     1
102
RTVSPropertyOp24
 70
     1
102
RTVSPropertyOp25
 70
     1
102
RTVSPropertyOp26
 70
     1
102
RTVSPropertyOp27
 70
     1
102
RTVSPropertyOp28
 70
     1
102
RTVSPropertyOp29
 70
     1
102
RTVSPropertyOp30
 70
     1
102
RTVSPropertyOp31
 70
     1
102
RTVSPropertyOp32
 70
     1
  0
XRECORD
  5
10E
102
{ACAD_REACTORS
330
10D
102
}
330
10D
100
AcDbXrecord
280
     1
102
RTVSPropertyOp0
 70
     1
102
RTVSPropertyOp1
 70
     1
102
RTVSPropertyOp2
 70
     1
102
RTVSPropertyOp3
 70
     1
102
RTVSPropertyOp4
 70
     1
102
RTVSPropertyOp5
 70
     1
102
RTVSPropertyOp6
 70
     1
102
RTVSPropertyOp7
 70
     1
102
RTVSPropertyOp8
 70
     1
102
RTVSPropertyOp9
 70
     1
102
RTVSPropertyOp10
 70
     1
102
RTVSPropertyOp11
 70
     1
102
RTVSPropertyOp12
 70
     1
102
RTVSPropertyOp13
 70
     1
102
RTVSPropertyOp14
 70
     1
102
RTVSPropertyOp15
 70
     1
102
RTVSPropertyOp16
 70
     1
102
RTVSPropertyOp17
 70
     1
102
RTVSPropertyOp18
 70
     1
102
RTVSPropertyOp19
 70
     1
102
RTVSPropertyOp20
 70
     1
102
RTVSPropertyOp21
 70
     1
102
RTVSPropertyOp22
 70
     1
102
RTVSPropertyOp23
 70
     1
102
RTVSPropertyOp24
 70
     1
102
RTVSPropertyOp25
 70
     1
102
RTVSPropertyOp26
 70
     1
102
RTVSPropertyOp27
 70
     1
102
RTVSPropertyOp28
 70
     1
102
RTVSPropertyOp29
 70
     1
102
RTVSPropertyOp30
 70
     1
102
RTVSPropertyOp31
 70
     1
102
RTVSPropertyOp32
 70
     1
  0
XRECORD
  5
110
102
{ACAD_REACTORS
330
10F
102
}
330
10F
100
AcDbXrecord
280
     1
102
RTVSPropertyOp0
 70
     1
102
RTVSPropertyOp1
 70
     1
102
RTVSPropertyOp2
 70
     1
102
RTVSPropertyOp3
 70
     1
102
RTVSPropertyOp4
 70
     1
102
RTVSPropertyOp5
 70
     1
102
RTVSPropertyOp6
 70
     1
102
RTVSPropertyOp7
 70
     1
102
RTVSPropertyOp8
 70
     1
102
RTVSPropertyOp9
 70
     1
102
RTVSPropertyOp10
 70
     1
102
RTVSPropertyOp11
 70
     1
102
RTVSPropertyOp12
 70
     1
102
RTVSPropertyOp13
 70
     1
102
RTVSPropertyOp14
 70
     1
102
RTVSPropertyOp15
 70
     1
102
RTVSPropertyOp16
 70
     1
102
RTVSPropertyOp17
 70
     1
102
RTVSPropertyOp18
 70
     1
102
RTVSPropertyOp19
 70
     1
102
RTVSPropertyOp20
 70
     1
102
RTVSPropertyOp21
 70
     1
102
RTVSPropertyOp22
 70
     1
102
RTVSPropertyOp23
 70
     1
102
RTVSPropertyOp24
 70
     1
102
RTVSPropertyOp25
 70
     1
102
RTVSPropertyOp26
 70
     1
102
RTVSPropertyOp27
 70
     1
102
RTVSPropertyOp28
 70
     1
102
RTVSPropertyOp29
 70
     1
102
RTVSPropertyOp30
 70
     1
102
RTVSPropertyOp31
 70
     1
102
RTVSPropertyOp32
 70
     1
  0
XRECORD
  5
118
102
{ACAD_REACTORS
330
117
102
}
330
117
100
AcDbXrecord
280
     1
102
RTVSPropertyOp0
 70
     1
102
RTVSPropertyOp1
 70
     1
102
RTVSPropertyOp2
 70
     1
102
RTVSPropertyOp3
 70
     1
102
RTVSPropertyOp4
 70
     1
102
RTVSPropertyOp5
 70
     1
102
RTVSPropertyOp6
 70
     1
102
RTVSPropertyOp7
 70
     1
102
RTVSPropertyOp8
 70
     1
102
RTVSPropertyOp9
 70
     1
102
RTVSPropertyOp10
 70
     1
102
RTVSPropertyOp11
 70
     1
102
RTVSPropertyOp12
 70
     1
102
RTVSPropertyOp13
 70
     1
102
RTVSPropertyOp14
 70
     1
102
RTVSPropertyOp15
 70
     1
102
RTVSPropertyOp16
 70
     1
102
RTVSPropertyOp17
 70
     1
102
RTVSPropertyOp18
 70
     1
102
RTVSPropertyOp19
 70
     1
102
RTVSPropertyOp20
 70
     1
102
RTVSPropertyOp21
 70
     1
102
RTVSPropertyOp22
 70
     1
102
RTVSPropertyOp23
 70
     1
102
RTVSPropertyOp24
 70
     1
102
RTVSPropertyOp25
 70
     1
102
RTVSPropertyOp26
 70
     1
102
RTVSPropertyOp27
 70
     1
102
RTVSPropertyOp28
 70
     1
102
RTVSPropertyOp29
 70
     1
102
RTVSPropertyOp30
 70
     1
102
RTVSPropertyOp31
 70
     1
102
RTVSPropertyOp32
 70
     1
  0
XRECORD
  5
FC
102
{ACAD_REACTORS
330
FB
102
}
330
FB
100
AcDbXrecord
280
     1
102
RTVSPropertyOp0
 70
     1
102
RTVSPropertyOp1
 70
     1
102
RTVSPropertyOp2
 70
     1
102
RTVSPropertyOp3
 70
     1
102
RTVSPropertyOp4
 70
     1
102
RTVSPropertyOp5
 70
     1
102
RTVSPropertyOp6
 70
     1
102
RTVSPropertyOp7
 70
     1
102
RTVSPropertyOp8
 70
     1
102
RTVSPropertyOp9
 70
     1
102
RTVSPropertyOp10
 70
     1
102
RTVSPropertyOp11
 70
     1
102
RTVSPropertyOp12
 70
     1
102
RTVSPropertyOp13
 70
     1
102
RTVSPropertyOp14
 70
     1
102
RTVSPropertyOp15
 70
     1
102
RTVSPropertyOp16
 70
     1
102
RTVSPropertyOp17
 70
     1
102
RTVSPropertyOp18
 70
     1
102
RTVSPropertyOp19
 70
     1
102
RTVSPropertyOp20
 70
     1
102
RTVSPropertyOp21
 70
     1
102
RTVSPropertyOp22
 70
     1
102
RTVSPropertyOp23
 70
     1
102
RTVSPropertyOp24
 70
     1
102
RTVSPropertyOp25
 70
     1
102
RTVSPropertyOp26
 70
     1
102
RTVSPropertyOp27
 70
     1
102
RTVSPropertyOp28
 70
     1
102
RTVSPropertyOp29
 70
     1
102
RTVSPropertyOp30
 70
     1
102
RTVSPropertyOp31
 70
     1
102
RTVSPropertyOp32
 70
     1
  0
XRECORD
  5
FE
102
{ACAD_REACTORS
330
FD
102
}
330
FD
100
AcDbXrecord
280
     1
102
RTVSPropertyOp0
 70
     1
102
RTVSPropertyOp1
 70
     1
102
RTVSPropertyOp2
 70
     1
102
RTVSPropertyOp3
 70
     1
102
RTVSPropertyOp4
 70
     1
102
RTVSPropertyOp5
 70
     1
102
RTVSPropertyOp6
 70
     1
102
RTVSPropertyOp7
 70
     1
102
RTVSPropertyOp8
 70
     1
102
RTVSPropertyOp9
 70
     1
102
RTVSPropertyOp10
 70
     1
102
RTVSPropertyOp11
 70
     1
102
RTVSPropertyOp12
 70
     1
102
RTVSPropertyOp13
 70
     1
102
RTVSPropertyOp14
 70
     1
102
RTVSPropertyOp15
 70
     1
102
RTVSPropertyOp16
 70
     1
102
RTVSPropertyOp17
 70
     1
102
RTVSPropertyOp18
 70
     1
102
RTVSPropertyOp19
 70
     1
102
RTVSPropertyOp20
 70
     1
102
RTVSPropertyOp21
 70
     1
102
RTVSPropertyOp22
 70
     1
102
RTVSPropertyOp23
 70
     1
102
RTVSPropertyOp24
 70
     1
102
RTVSPropertyOp25
 70
     1
102
RTVSPropertyOp26
 70
     1
102
RTVSPropertyOp27
 70
     1
102
RTVSPropertyOp28
 70
     1
102
RTVSPropertyOp29
 70
     1
102
RTVSPropertyOp30
 70
     1
102
RTVSPropertyOp31
 70
     1
102
RTVSPropertyOp32
 70
     1
  0
XRECORD
  5
100
102
{ACAD_REACTORS
330
FF
102
}
330
FF
100
AcDbXrecord
280
     1
102
RTVSPropertyOp0
 70
     1
102
RTVSPropertyOp1
 70
     1
102
RTVSPropertyOp2
 70
     1
102
RTVSPropertyOp3
 70
     1
102
RTVSPropertyOp4
 70
     1
102
RTVSPropertyOp5
 70
     1
102
RTVSPropertyOp6
 70
     1
102
RTVSPropertyOp7
 70
     1
102
RTVSPropertyOp8
 70
     1
102
RTVSPropertyOp9
 70
     1
102
RTVSPropertyOp10
 70
     1
102
RTVSPropertyOp11
 70
     1
102
RTVSPropertyOp12
 70
     1
102
RTVSPropertyOp13
 70
     1
102
RTVSPropertyOp14
 70
     1
102
RTVSPropertyOp15
 70
     1
102
RTVSPropertyOp16
 70
     1
102
RTVSPropertyOp17
 70
     1
102
RTVSPropertyOp18
 70
     1
102
RTVSPropertyOp19
 70
     1
102
RTVSPropertyOp20
 70
     1
102
RTVSPropertyOp21
 70
     1
102
RTVSPropertyOp22
 70
     1
102
RTVSPropertyOp23
 70
     1
102
RTVSPropertyOp24
 70
     1
102
RTVSPropertyOp25
 70
     1
102
RTVSPropertyOp26
 70
     1
102
RTVSPropertyOp27
 70
     1
102
RTVSPropertyOp28
 70
     1
102
RTVSPropertyOp29
 70
     1
102
RTVSPropertyOp30
 70
     1
102
RTVSPropertyOp31
 70
     1
102
RTVSPropertyOp32
 70
     1
  0
XRECORD
  5
102
102
{ACAD_REACTORS
330
101
102
}
330
101
100
AcDbXrecord
280
     1
102
RTVSPropertyOp0
 70
     1
102
RTVSPropertyOp1
 70
     1
102
RTVSPropertyOp2
 70
     1
102
RTVSPropertyOp3
 70
     1
102
RTVSPropertyOp4
 70
     1
102
RTVSPropertyOp5
 70
     1
102
RTVSPropertyOp6
 70
     1
102
RTVSPropertyOp7
 70
     1
102
RTVSPropertyOp8
 70
     1
102
RTVSPropertyOp9
 70
     1
102
RTVSPropertyOp10
 70
     1
102
RTVSPropertyOp11
 70
     1
102
RTVSPropertyOp12
 70
     1
102
RTVSPropertyOp13
 70
     1
102
RTVSPropertyOp14
 70
     1
102
RTVSPropertyOp15
 70
     1
102
RTVSPropertyOp16
 70
     1
102
RTVSPropertyOp17
 70
     1
102
RTVSPropertyOp18
 70
     1
102
RTVSPropertyOp19
 70
     1
102
RTVSPropertyOp20
 70
     1
102
RTVSPropertyOp21
 70
     1
102
RTVSPropertyOp22
 70
     1
102
RTVSPropertyOp23
 70
     1
102
RTVSPropertyOp24
 70
     1
102
RTVSPropertyOp25
 70
     1
102
RTVSPropertyOp26
 70
     1
102
RTVSPropertyOp27
 70
     1
102
RTVSPropertyOp28
 70
     1
102
RTVSPropertyOp29
 70
     1
102
RTVSPropertyOp30
 70
     1
102
RTVSPropertyOp31
 70
     1
102
RTVSPropertyOp32
 70
     1
  0
XRECORD
  5
116
102
{ACAD_REACTORS
330
115
102
}
330
115
100
AcDbXrecord
280
     1
102
RTVSPropertyOp0
 70
     1
102
RTVSPropertyOp1
 70
     1
102
RTVSPropertyOp2
 70
     1
102
RTVSPropertyOp3
 70
     1
102
RTVSPropertyOp4
 70
     1
102
RTVSPropertyOp5
 70
     1
102
RTVSPropertyOp6
 70
     1
102
RTVSPropertyOp7
 70
     1
102
RTVSPropertyOp8
 70
     1
102
RTVSPropertyOp9
 70
     1
102
RTVSPropertyOp10
 70
     1
102
RTVSPropertyOp11
 70
     1
102
RTVSPropertyOp12
 70
     1
102
RTVSPropertyOp13
 70
     1
102
RTVSPropertyOp14
 70
     1
102
RTVSPropertyOp15
 70
     1
102
RTVSPropertyOp16
 70
     1
102
RTVSPropertyOp17
 70
     1
102
RTVSPropertyOp18
 70
     1
102
RTVSPropertyOp19
 70
     1
102
RTVSPropertyOp20
 70
     1
102
RTVSPropertyOp21
 70
     1
102
RTVSPropertyOp22
 70
     1
102
RTVSPropertyOp23
 70
     1
102
RTVSPropertyOp24
 70
     1
102
RTVSPropertyOp25
 70
     1
102
RTVSPropertyOp26
 70
     1
102
RTVSPropertyOp27
 70
     1
102
RTVSPropertyOp28
 70
     1
102
RTVSPropertyOp29
 70
     1
102
RTVSPropertyOp30
 70
     1
102
RTVSPropertyOp31
 70
     1
102
RTVSPropertyOp32
 70
     1
  0
XRECORD
  5
10C
102
{ACAD_REACTORS
330
10B
102
}
330
10B
100
AcDbXrecord
280
     1
102
RTVSPropertyOp0
 70
     1
102
RTVSPropertyOp1
 70
     1
102
RTVSPropertyOp2
 70
     1
102
RTVSPropertyOp3
 70
     1
102
RTVSPropertyOp4
 70
     1
102
RTVSPropertyOp5
 70
     1
102
RTVSPropertyOp6
 70
     1
102
RTVSPropertyOp7
 70
     1
102
RTVSPropertyOp8
 70
     1
102
RTVSPropertyOp9
 70
     1
102
RTVSPropertyOp10
 70
     1
102
RTVSPropertyOp11
 70
     1
102
RTVSPropertyOp12
 70
     1
102
RTVSPropertyOp13
 70
     1
102
RTVSPropertyOp14
 70
     1
102
RTVSPropertyOp15
 70
     1
102
RTVSPropertyOp16
 70
     1
102
RTVSPropertyOp17
 70
     1
102
RTVSPropertyOp18
 70
     1
102
RTVSPropertyOp19
 70
     1
102
RTVSPropertyOp20
 70
     1
102
RTVSPropertyOp21
 70
     1
102
RTVSPropertyOp22
 70
     1
102
RTVSPropertyOp23
 70
     1
102
RTVSPropertyOp24
 70
     1
102
RTVSPropertyOp25
 70
     1
102
RTVSPropertyOp26
 70
     1
102
RTVSPropertyOp27
 70
     1
102
RTVSPropertyOp28
 70
     1
102
RTVSPropertyOp29
 70
     1
102
RTVSPropertyOp30
 70
     1
102
RTVSPropertyOp31
 70
     1
102
RTVSPropertyOp32
 70
     1
  0
XRECORD
  5
114
102
{ACAD_REACTORS
330
113
102
}
330
113
100
AcDbXrecord
280
     1
102
RTVSPropertyOp0
 70
     1
102
RTVSPropertyOp1
 70
     1
102
RTVSPropertyOp2
 70
     1
102
RTVSPropertyOp3
 70
     1
102
RTVSPropertyOp4
 70
     1
102
RTVSPropertyOp5
 70
     1
102
RTVSPropertyOp6
 70
     1
102
RTVSPropertyOp7
 70
     1
102
RTVSPropertyOp8
 70
     1
102
RTVSPropertyOp9
 70
     1
102
RTVSPropertyOp10
 70
     1
102
RTVSPropertyOp11
 70
     1
102
RTVSPropertyOp12
 70
     1
102
RTVSPropertyOp13
 70
     1
102
RTVSPropertyOp14
 70
     1
102
RTVSPropertyOp15
 70
     1
102
RTVSPropertyOp16
 70
     1
102
RTVSPropertyOp17
 70
     1
102
RTVSPropertyOp18
 70
     1
102
RTVSPropertyOp19
 70
     1
102
RTVSPropertyOp20
 70
     1
102
RTVSPropertyOp21
 70
     1
102
RTVSPropertyOp22
 70
     1
102
RTVSPropertyOp23
 70
     1
102
RTVSPropertyOp24
 70
     1
102
RTVSPropertyOp25
 70
     1
102
RTVSPropertyOp26
 70
     1
102
RTVSPropertyOp27
 70
     1
102
RTVSPropertyOp28
 70
     1
102
RTVSPropertyOp29
 70
     1
102
RTVSPropertyOp30
 70
     1
102
RTVSPropertyOp31
 70
     1
102
RTVSPropertyOp32
 70
     1
  0
ENDSEC
  0
EOF
