<?xml version="1.0" encoding="iso-8859-1"?>
<!-- Generator: Adobe Illustrator 22.1.0, SVG Export Plug-In . SVG Version: 6.00 Build 0)  -->
<svg version="1.1" id="Layer_1" xmlns="http://www.w3.org/2000/svg" xmlns:xlink="http://www.w3.org/1999/xlink" x="0px" y="0px"
	 width="864px" height="864px" viewBox="0 0 864 864" enable-background="new 0 0 864 864" xml:space="preserve">
<path d="M812.212,319.43c-14.533-49.09-38.153-94.366-70.207-134.57c-32.053-40.205-70.93-73.319-115.548-98.421
	c-46.202-25.994-96.558-42.212-149.667-48.203c-53.11-5.993-105.811-1.399-156.643,13.649
	c-49.089,14.532-94.365,38.153-134.57,70.207c-40.204,32.053-73.318,70.93-98.421,115.548
	c-25.994,46.202-42.211,96.557-48.202,149.666c-5.991,53.109-1.399,105.811,13.649,156.643
	c14.532,49.089,38.153,94.366,70.207,134.57s70.93,73.319,115.548,98.421c46.202,25.994,96.557,42.212,149.666,48.203
	c15.06,1.699,30.079,2.547,45.04,2.547c37.8,0,75.186-5.415,111.603-16.197c49.089-14.532,94.366-38.153,134.57-70.207
	s73.319-70.93,98.421-115.548c25.995-46.202,42.212-96.557,48.203-149.666C831.852,422.964,827.26,370.261,812.212,319.43z
	 M717.238,204.606c60.655,76.08,88.054,171.228,77.147,267.916c-0.415,3.682-0.902,7.338-1.424,10.981
	c-11.666-10.057-28.972-24.878-38.689-32.745c2.669-20.436,10.378-36.594,14.957-56.689l-39.694-98.451
	c-17.502,21.735-35.241,42.919-56.416,61.238l-11.383-2.067c-2.846-16.451-3.986-30.66-4.443-39.11l36.607-1.326
	c-16.891-14.564-32.114-30.887-46.122-48.239c11.709-5.804,16.461-16.241,18.457-28.375c2.541-15.451,4.403-31.023,6.308-46.562
	l20.785,4.3c-0.101-2.816-8.111-18.5-16.272-33.755C691.434,174.805,704.883,189.11,717.238,204.606z M443.741,460.631
	c0,0,3.782-16.855,18.952-23.903l4.568,19.496l-21.815,7.95L443.741,460.631z M469.929,467.614l5.261,22.455l-17.86-1.204
	l-6.822-14.173L469.929,467.614z M487.311,490.886l-6.391-27.278l25.589-9.325l4.006,38.168L487.311,490.886z M511.745,504.174
	l1.818,17.323l-20.219-4.862l-3.262-13.922L511.745,504.174z M478.252,452.218l-4.316-18.421
	c14.718-1.402,25.491,5.802,29.662,9.185L478.252,452.218z M480.702,513.596l-12.969-3.118l-4.612-9.582l14.84,1.001
	L480.702,513.596z M581.947,524.892l1.083,36.457l-18.029,4.333l-6.097-43.152L581.947,524.892z M556.621,506.374l-3.534-25.01
	l27.349-7.337l1.036,34.895L556.621,506.374z M580.049,373.863l19.29-3.277l-1.694,29.533l-10.239,0.371L580.049,373.863z
	 M597.841,526.521l23.798,2.44l-2.085,23.609l-20.791,4.997L597.841,526.521z M597.366,510.551l-1.21-40.742l31.452-8.438
	l-4.576,51.812L597.366,510.551z M626.41,399.078l-17.107,0.619l1.784-31.107l18.369-3.121L626.41,399.078z M611.769,356.694
	l0.99-17.256l18.936,1.338l-1.154,12.729L611.769,356.694z M587.805,291.199l22.398-23.233c2.657,6.423,4.149,13.81,4.435,21.704
	C603.696,290.066,595.489,290.652,587.805,291.199z M581.023,281.498l-1.142-36.807c10.361,0.847,18.477,5.57,24.257,12.83
	L581.023,281.498z M601.172,338.619l-1.151,20.071l-23.081,3.921l-7.244-26.216L601.172,338.619z M575.474,400.922l-21.872,0.792
	l-3.681-22.732l18.617-3.162L575.474,400.922z M548.065,367.515l-5.348-33.028l14.688,1.038l8.024,29.04L548.065,367.515z
	 M545.543,261.213c4.978-8.113,12.554-13.883,22.739-15.889l1.158,37.332L545.543,261.213z M563.039,292.518
	c-6.847,0.165-14.715,0.17-24.598-0.09c-0.257-7.11,0.491-13.879,2.238-19.975L563.039,292.518z M567.227,581.434l16.283-3.913
	l0.787,26.485c-4.607,0.302-9.188,0.634-13.739,0.997L567.227,581.434z M600.115,603.087l-0.872-29.347l18.841-4.528l-2.938,33.266
	C610.109,602.647,605.092,602.842,600.115,603.087z M706.933,401.062l-3.26,20.49l-28.528-0.959l10.375-27.204L706.933,401.062z
	 M690.972,383.004c3.474-2.921,10.668-7.859,20.194-8.549l-2.376,14.934L690.972,383.004z M701.833,433.111l-2.606,16.377
	l-32.179-7.669l3.719-9.752L701.833,433.111z M700.618,536.252l12.996,1.573l-5.083,28.385l-8.655,2.551L700.618,536.252z
	 M689.952,494.505l-0.654,28.678l-18.815-2.278l3.605-30.577L689.952,494.505z M669.123,532.44l19.909,2.41l-0.852,37.359
	l-24.6,7.251L669.123,532.44z M715.665,526.375l-14.78-1.789l0.617-27.041l18.456,4.858L715.665,526.375z M710.559,452.189
	l2.973-18.684l22.46,0.755l-2.922,23.294L710.559,452.189z M715.371,421.945l2.688-16.896l20.668,7.406l-1.284,10.231
	L715.371,421.945z M719.916,393.376l2.791-17.544c14.881,5.094,17.785,22.547,17.785,22.547l-0.285,2.268L719.916,393.376z
	 M656.108,144.051l-39.323,35.591l20.57,4.255c-1.042,8.055-2.084,16.109-3.126,24.164c-1.203,9.301-1.21,19.583-11.868,23.155
	c-10.949-16.751-36.312-70.169-39.443-79.19c-2.719-7.833-7.983-34.879-4.131-43.024c2.249-4.755,7.003-6.988,11.142-5.948
	c0.939,0.449,1.885,0.882,2.82,1.339c1.246,0.904,2.343,2.185,3.15,3.922c1.396,3.005,0.539,12.847-1.074,14.523
	c-1.132,1.176-2.358,1.981-1.723,3.785c1.096,3.108,5.071,3.74,6.966,2.336c3.591-2.661,6.73-10.008,7-14.196
	c0.063-0.974,0.076-1.952,0.039-2.928C624.257,121.202,640.633,131.97,656.108,144.051z M77.139,512.259
	c14.426,0.963,28.443,7.794,37.91,18.749c15.628-6.178,46.816,1.734,46.816,1.734c-0.172,5.748,7.67,5.731,7.432-0.834
	c0,0,4.984-1.769,6.841-3.358c1.254-1.072,2.159-4.114,3.336-4.799c1.542-0.897,3.916-0.04,5.79-0.115
	c2.93-0.117,8.894-2.302,8.894-2.302c2.509,2.156,3.395,4.018,6.04,1.586c1.316-1.21,3.028-5.767,1.023-7.027
	c0,0,21.76-17.984,36.895-18.774c-1.056-12.763,9.571-25.342,22.331-26.434c-4.406-7.839-0.319-19.153,8.079-22.366l-0.273-0.785
	c-11.709-4.431-28.76,5.446-38.8,10.827c-12.268,6.575-23.67,14.621-35.019,22.641c-1.307-6.479-6.229-14.774-4.831-21.243
	c-6.791-0.342-5.857,9.151-8.9,12.3c-5.293,5.478-11.01-9.631-17.971-7.31c3.499,6.997,1.662,15.666,0.711,22.995
	c-20.685-4.853-41.757-8.748-63.058-9.112c-8.273-0.141-19.297-0.701-29.085,1.216c-3.858-28.907-4.284-58.73-0.871-88.991
	c5.818-51.573,22.169-100.288,47.701-143.729c-0.986,4.637-1.762,9.362-2.305,14.17c-9.037,80.111,48.58,152.379,128.691,161.416
	c27.661,3.12,54.385-1.709,77.896-12.664c-7.198,0.121-14.513-0.217-21.904-1.051c-45.659-5.151-80.703-27.561-100.962-58.688
	c3.079-6.754,13.46-5.957,18.603-1.456c1.44-6.264,8.683-10.401,14.758-10.589c3.064-0.095,6.721,0.423,9.57,1.571
	c2.963,1.194,5.745,3.232,8.602,0.536c2.212-2.087,1.198-5.33,1.748-8.051c0.674-3.336,2.168-7.165,3.79-10.13
	c2.672-4.884,9.069-10.785,15.142-8.969c-1.533-6.173,1.412-13.186,6.894-16.413c0-4.038,1.632-8.053,4.45-10.945
	c-5.179-3.822-12.237-1.224-17.52,0.927c-5.336,2.172-11.126,4.668-14.568,9.526c-3.269,4.614-4.081,11.737-9.366,14.749
	c-4.434,2.528-7.878-4.003-11.46-1.113c-4.486,3.62,2.732,8.131-3.939,11.253c-5.97,2.794-12.891,1.526-19.016,3.764
	c-5.546,2.026-9.582,6.535-12.772,11.332c-0.515,0.775-1.048,1.586-1.58,2.422c-10.557-20.997-14.962-45.089-12.141-70.103
	c3.98-35.28,21.567-65.57,48.465-85.593c11.02-1.111,17.571,12.889,15.506,22.812c9.382-2.776,20.339,3.996,24.761,12.109
	c2.365,4.338,4.334,9.625,4.548,14.57c0.185,4.268,0.992,8.373,5.796,9.611c4.541,1.17,9.158-3.396,13.573-4.34
	c4.608-0.986,9.788-2.029,14.514-1.878c7.918,0.253,19.369,4.159,21.361,12.939c6.813-6.438,17.947-7.735,26.058-3.036
	c5.183-2.924,11.518-3.736,17.27-2.213c0.925-7.536-4.557-13.801-9.797-18.447c-5.713-5.065-12.193-10.236-19.291-13.177
	c-7.696-3.189-14.987-1.356-22.989-1.229c-5.208,0.082-13.922-1.276-14.316-7.916c-0.163-2.746,1.209-5.737-0.661-8.162
	c-1.689-2.19-4.801-2.32-7.084-1.17c-2.012,1.013-3.075,3.1-4.917,4.271c-2.658,1.691-5.001,0.207-7.314-1.434
	c-5.933-4.208-9.384-10.811-13.77-16.422c-4.279-5.473-9.571-9.313-16.225-11.383c-0.371-0.115-0.747-0.208-1.12-0.313
	c21.378-9.061,46.355-12.846,73.659-9.766c7.391,0.834,14.598,2.134,21.588,3.855c-20.48-15.917-45.456-26.579-73.117-29.699
	c-21.357-2.409-42.155-0.079-61.347,6.149c63.052-46.69,138.083-71.389,215.802-71.389c13.777,0,27.651,0.777,41.543,2.344
	c35.204,3.971,69.067,12.87,100.841,26.225c-1.917,1.257-3.629,2.747-4.99,4.451c-6.846,8.578-4.89,23.194-5.522,33.58
	c-1.667,27.384-16.943,66.219-30.92,92.764l-8.275-35.787l16.358-10.224c-33.545-16.542-56.775-39.011-74.398-72.244
	c0,0-2.529-6.319-10.071-4.834c-9.381,1.848-14.136,16.101-9.958,22.756c1.73,2.755,7.532,1.64,6.79-1.639
	c-0.805-3.56,1.412-8.38,4.159-9.245c1.689-0.531,3.578,0.432,5.089,4.101c1.218,34.13-3.601,63.552-20.863,92.78l15.671-1.446
	l39.999,72.012c-10.453,14.053-21.711,27.387-34.108,39.746l39.755-1.439c2.745,12.399,6.727,34.366,7.044,58.539
	c-18.462-8.515-36.036-18.814-54.028-28.25c-7.72,12.134-15.657,24.132-23.735,36.03c-9.965,2.254-20.136,3.106-23.659-8.562
	c-2.345-7.767-4.579-15.568-6.868-23.351l16.879-5.817l-43.462-30.23c-5.522,13.764-18.435,47.292-18.054,51.43l16.026-5.523
	c3.548,12.58,6.93,25.275,11.155,37.651c3.549,10.397,12.51,17.985,23.673,18.917c-10.634,14.425-21.887,27.962-34.432,40.732
	c10.468-3.016,20.603-5.93,31.678-4.998c9.133,9.936,16.995,20.964,23.893,32.604c-0.234-0.016-0.47-0.034-0.701-0.047
	c-7.163-0.419-15.29-0.658-21.986,2.29c-7.027,3.093-11.086,11.142-18.681,13.086c-3.193,0.818-5.519,0.27-7.502-2.261
	c-1.528-1.95-2.197-4.418-5.134-4.35c-6.35,0.147-2.982,8.352-7.343,10.446c-3.446,1.654-9.055,0.018-12.471-0.93
	c-4.172-1.158-8.233-2.831-12.563-3.343c-8.16-0.965-15.722,2.598-22.303,7.084c-5.774,3.936-12.797,8.802-15.123,15.734
	l0.632,0.624c3.967-4.435,11.591-1.942,12.191,3.962c6.046-10.383,19.736-3.995,23.802,4.449c4.63-6.362,14.718-7.488,21.632-4.798
	c3.636,1.415,7.717,3.899,10.378,6.755c2.539,2.726,4.408,5.634,8.636,4.381c3.633-1.076,3.986-4.959,5.815-7.806
	c2.291-3.565,5.978-7.29,9.275-9.93c5.322-4.262,15.434-7.888,21.413-2.916c1.233-7.655,7.889-14.109,15.579-15.106
	c0.54-1.267,1.236-2.462,2.039-3.58c5.036,9.806,9.503,19.9,13.547,30.034c8.272,20.727,14.902,42.159,19.946,63.897
	c0.738,3.18,2.153,12.701,3.2,19.577c-25.022,4.539-48.872,9.853-71.44,15.678c-0.062-0.498-0.174-0.998-0.344-1.492l-2.314-6.736
	c-1.321-3.846-5.51-5.893-9.356-4.572l-3.458,1.188l-8.808-25.647c-0.472-1.375-1.97-2.107-3.346-1.635l-1.512,0.519
	c-3.812-3.77-9.569-5.286-14.984-3.426c-5.415,1.86-9.026,6.593-9.717,11.909L346.395,604c-1.375,0.472-2.107,1.97-1.635,3.346
	l8.808,25.647l-3.714,1.276c-3.846,1.321-5.893,5.51-4.572,9.356l1.887,5.495c-5.729,1.83-11.35,3.68-16.858,5.548l-4.519-11.477
	c-2.666-6.771-10.315-10.098-17.086-7.433l-6.087,2.396l-17.775-45.147c-0.953-2.421-3.689-3.611-6.11-2.658l-2.662,1.048
	c-7.113-6.438-17.523-8.691-27.055-4.939c-9.531,3.753-15.612,12.499-16.426,22.057l-2.661,1.048
	c-2.421,0.953-3.611,3.689-2.658,6.11l17.775,45.147l-6.538,2.574c-6.771,2.666-10.098,10.315-7.433,17.086l4.655,11.824
	c-14.165,6.538-26.672,12.755-37.391,18.357C138.076,659.938,94.923,590.346,77.139,512.259z M249.634,603.745l10.72-4.22
	l2.521,10.006l7.997-4.257l3.105,7.887l-8.897,2.376l11.687,25.675l-10.72,4.22l-8.953-26.751l-8.129,4.327l-3.105-7.887
	l8.752-2.338L249.634,603.745z M565.104,703.623c6.218,18.056,19.974,32.484,36.093,50.744
	c-50.814,26.676-108.323,41.62-168.519,41.618c-2.544,0-5.094-0.036-7.647-0.09c39.544-20.709,66.807-68.781,55.764-100.847
	c-16.444-47.75,66.796-58.984,66.796-58.984l57.548-4.489C605.139,631.576,548.66,655.872,565.104,703.623z M751.418,607.535
	c-10.259-1.113-20.419-2.031-30.499-2.801c10.003-41.34,25.359-105.047,27.551-115.649c14.041,2.864,28.449,4.554,42.824,4.909
	C784.239,534.768,770.538,572.955,751.418,607.535z"/>
<g>
</g>
<g>
</g>
<g>
</g>
<g>
</g>
<g>
</g>
<g>
</g>
<g>
</g>
<g>
</g>
<g>
</g>
<g>
</g>
<g>
</g>
<g>
</g>
<g>
</g>
<g>
</g>
<g>
</g>
</svg>
