<?xml version="1.0" encoding="utf-8"?>
<!-- Generator: Adobe Illustrator 24.1.2, SVG Export Plug-In . SVG Version: 6.00 Build 0)  -->
<svg version="1.1" id="Layer_1" xmlns="http://www.w3.org/2000/svg" xmlns:xlink="http://www.w3.org/1999/xlink" x="0px" y="0px"
	 viewBox="0 0 234.5 226.8" style="enable-background:new 0 0 234.5 226.8;" xml:space="preserve">
<style type="text/css">
	.st0{fill:none;stroke:#ED252B;stroke-width:0.2835;stroke-linecap:round;stroke-linejoin:round;stroke-miterlimit:11.3386;}
</style>
<path class="st0" d="M88.7,79.4L88.5,79c-3.9-6.4-6.9-13.5-8.9-21.2c-0.2-1.1-0.8-1.4-1.7-1.1c-2.2,0.5-3.9,1.3-5.1,2.2
	c-0.7,0.6-1.4,0.5-1.9-0.3c-0.6-1.3-1.2-2.1-1.6-2.5c-1.1-1.3-2.2-1.4-3.5-0.3c-0.3,0.2-0.7,0.5-1,0.8c-0.4,0.3-0.7,0.7-1.1,1
	c-0.4,0.4-0.7,0.7-1,0.9c-0.3,0.3-0.6,0.4-0.8,0.3c-0.3-0.1-0.4-0.4-0.2-0.9c0.2-1.1,0.4-1.7,0.5-1.9c1.4-3.6,2.4-9,3-16.1
	c0.1-1.3,0.7-1.7,1.9-1.4c0.3,0.1,0.7,0.3,1.3,0.5c0.5,0.2,0.9,0.4,1.1,0.5c3.1,1.2,4.7,1.8,5.1,1.9c2.1,0.6,3.4,0.8,4,0.6
	c0.5-0.3,1.1-1.4,1.7-3.4c1.9-5.8,5.1-10.5,9.6-14.2s9.1-6,13.8-7c4.7-0.9,9.1-0.9,13.2,0.2c10.8,2.6,17.6,9.3,20.6,20.1
	c0.7,3,0.5,6-0.6,9.2c-0.4,1.1-0.1,1.6,0.9,1.7c0.2,0,1.5,0.1,3.8,0.3c0.6,0.1,1.3,0.1,2.1,0s1.4-0.2,1.9-0.3s1.2-0.3,2.1-0.6
	c0.9-0.3,1.6-0.5,1.8-0.6c0.3-0.1,1-0.3,2.1-0.9l1.7-0.8c1.3-0.5,2-0.7,2.3-0.5s0.3,0.9,0.2,2.2c-0.1,1.2-0.2,2.8-0.3,4.8
	c-0.1,2.1-0.2,4-0.4,5.7s-0.4,3.3-0.7,4.8c-0.1,0.8-0.3,1.3-0.6,1.3c-0.3,0.1-0.7-0.2-1.2-0.9c-1.2-1.7-2.2-2.8-3.2-3.3
	c-1.5-0.9-2.8-0.7-4,0.8c-0.8,1.1-1.6,2.5-2.2,4.3c-0.5,1.1-1.2,1.2-1.9,0.5c-2-2.1-5-3.5-9-4.1c-1.2-0.1-1.8,0.3-2.1,1.3
	c-0.6,2.2-1.1,4.3-1.5,6.1l-0.2,1l0,0c34.3,2.6,61.4,31.3,61.4,66.3c0,36.7-29.8,66.5-66.5,66.5S56.9,172.7,56.9,136
	c0-22.9,11.6-43.2,29.3-55.1L88.7,79.4z M115.6,45.9c-1-1.1-2.1-1.7-3.4-1.7c-3.3,0-6,4.4-6,9.8s2.7,9.8,6,9.8s6-4.4,6-9.8
	C118.2,50.7,117.2,47.7,115.6,45.9z M159.8,175.6c-9.8,8.9-22.7,13.9-36,13.9c-14.2,0-27.9-5.7-37.9-15.7
	c-10.1-10.1-15.7-23.7-15.7-37.9c0-14.2,5.7-27.9,15.7-37.9c3.1-3.1,6.6-5.9,10.4-8.1l0.4-0.2l1.3,1.2c5.6,5,12.5,7.9,20.6,8.9
	c2.7,0.3,6.7,0.1,11.9-0.6c7.4-1.2,12.4-1.7,15.2-1.6c5.5,0.1,9.5,0.9,12,2.5c0.6,0.3,1.2,0.3,1.7-0.2s0.5-1.2,0-2.1
	s-1.1-1.8-1.6-2.6l-0.5-0.7h0.3h0.6l0.8,0.6c1,0.9,2,1.8,2.9,2.7c10.1,10.1,15.7,23.7,15.7,37.9c0,14.2-5.7,27.9-15.7,37.9
	C161.1,174.3,160.5,175,159.8,175.6z M131.4,82.7L131.4,82.7c0.9,1.1,2,2,3.3,2.7c2.1,1.1,4.3,1.7,6.9,1.7c1.9,0,3.7,0.2,5.4,0.6
	l1,0.3l-1.3-0.6c-4.7-2.2-9.8-3.8-15-4.6L131.4,82.7z M104.1,39c-1.7-0.5-2.7-3.1-2.4-6.2c0.3-3.3,2.1-5.7,4-5.6
	c1.9,0.2,3.1,3,2.8,6.2c-0.1,1.2-0.4,2.3-0.9,3.2l-0.1,0.2v-0.7c0-1.9-0.7-3.5-1.7-3.5c-0.9,0-1.7,1.5-1.7,3.5c0,1,0.2,1.8,0.5,2.4
	l0.2,0.4l0,0c-0.1,0-0.2,0-0.3,0C104.4,39,104.3,39,104.1,39z M117.6,38.5c-1.7-0.5-2.7-3.1-2.4-6.2c0.3-3.3,2.1-5.7,4-5.6
	c1.9,0.2,3.1,3,2.8,6.2c-0.1,1.2-0.4,2.3-0.9,3.2l-0.1,0.2v-0.7c0-1.9-0.7-3.5-1.7-3.5c-0.9,0-1.7,1.5-1.7,3.5c0,1,0.2,1.8,0.5,2.4
	l0.2,0.4l0,0c-0.1,0-0.2,0-0.3,0C117.8,38.5,117.7,38.5,117.6,38.5z"/>
</svg>
