  0
SECTION
  2
HEADER
  9
$ACADVER
  1
AC1024
  9
$ACADMAINTVER
 70
     6
  9
$DWGCODEPAGE
  3
ANSI_1252
  9
$INSBASE
 10
0.0
 20
0.0
 30
0.0
  9
$EXTMIN
 10
1.000000000000000E+20
 20
1.000000000000000E+20
 30
1.000000000000000E+20
  9
$EXTMAX
 10
-1.000000000000000E+20
 20
-1.000000000000000E+20
 30
-1.000000000000000E+20
  9
$LIMMIN
 10
0.0
 20
0.0
  9
$LIMMAX
 10
12.0
 20
9.0
  9
$ORTHOMODE
 70
     0
  9
$REGENMODE
 70
     1
  9
$FILLMODE
 70
     1
  9
$QTEXTMODE
 70
     0
  9
$MIRRTEXT
 70
     1
  9
$LTSCALE
 40
1.0
  9
$ATTMODE
 70
     1
  9
$TEXTSIZE
 40
0.2
  9
$TRACEWID
 40
0.05
  9
$TEXTSTYLE
  7
Standard
  9
$CLAYER
  8
0
  9
$CELTYPE
  6
ByLayer
  9
$CECOLOR
 62
   256
  9
$CELTSCALE
 40
1.0
  9
$DISPSILH
 70
     0
  9
$DIMSCALE
 40
1.0
  9
$DIMASZ
 40
0.18
  9
$DIMEXO
 40
0.0625
  9
$DIMDLI
 40
0.38
  9
$DIMRND
 40
0.0
  9
$DIMDLE
 40
0.0
  9
$DIMEXE
 40
0.18
  9
$DIMTP
 40
0.0
  9
$DIMTM
 40
0.0
  9
$DIMTXT
 40
0.18
  9
$DIMCEN
 40
0.09
  9
$DIMTSZ
 40
0.0
  9
$DIMTOL
 70
     0
  9
$DIMLIM
 70
     0
  9
$DIMTIH
 70
     1
  9
$DIMTOH
 70
     1
  9
$DIMSE1
 70
     0
  9
$DIMSE2
 70
     0
  9
$DIMTAD
 70
     0
  9
$DIMZIN
 70
     0
  9
$DIMBLK
  1

  9
$DIMASO
 70
     1
  9
$DIMSHO
 70
     1
  9
$DIMPOST
  1

  9
$DIMAPOST
  1

  9
$DIMALT
 70
     0
  9
$DIMALTD
 70
     2
  9
$DIMALTF
 40
25.4
  9
$DIMLFAC
 40
1.0
  9
$DIMTOFL
 70
     0
  9
$DIMTVP
 40
0.0
  9
$DIMTIX
 70
     0
  9
$DIMSOXD
 70
     0
  9
$DIMSAH
 70
     0
  9
$DIMBLK1
  1

  9
$DIMBLK2
  1

  9
$DIMSTYLE
  2
Standard
  9
$DIMCLRD
 70
     0
  9
$DIMCLRE
 70
     0
  9
$DIMCLRT
 70
     0
  9
$DIMTFAC
 40
1.0
  9
$DIMGAP
 40
0.09
  9
$DIMJUST
 70
     0
  9
$DIMSD1
 70
     0
  9
$DIMSD2
 70
     0
  9
$DIMTOLJ
 70
     1
  9
$DIMTZIN
 70
     0
  9
$DIMALTZ
 70
     0
  9
$DIMALTTZ
 70
     0
  9
$DIMUPT
 70
     0
  9
$DIMDEC
 70
     4
  9
$DIMTDEC
 70
     4
  9
$DIMALTU
 70
     2
  9
$DIMALTTD
 70
     2
  9
$DIMTXSTY
  7
Standard
  9
$DIMAUNIT
 70
     0
  9
$DIMADEC
 70
     0
  9
$DIMALTRND
 40
0.0
  9
$DIMAZIN
 70
     0
  9
$DIMDSEP
 70
    46
  9
$DIMATFIT
 70
     3
  9
$DIMFRAC
 70
     0
  9
$DIMLDRBLK
  1

  9
$DIMLUNIT
 70
     2
  9
$DIMLWD
 70
    -2
  9
$DIMLWE
 70
    -2
  9
$DIMTMOVE
 70
     0
  9
$DIMFXL
 40
1.0
  9
$DIMFXLON
 70
     0
  9
$DIMJOGANG
 40
0.7853981633974483
  9
$DIMTFILL
 70
     0
  9
$DIMTFILLCLR
 70
     0
  9
$DIMARCSYM
 70
     0
  9
$DIMLTYPE
  6

  9
$DIMLTEX1
  6

  9
$DIMLTEX2
  6

  9
$DIMTXTDIRECTION
 70
     0
  9
$LUNITS
 70
     2
  9
$LUPREC
 70
     4
  9
$SKETCHINC
 40
0.1
  9
$FILLETRAD
 40
0.5
  9
$AUNITS
 70
     0
  9
$AUPREC
 70
     0
  9
$MENU
  1
.
  9
$ELEVATION
 40
0.0
  9
$PELEVATION
 40
0.0
  9
$THICKNESS
 40
0.0
  9
$LIMCHECK
 70
     0
  9
$CHAMFERA
 40
0.5
  9
$CHAMFERB
 40
0.5
  9
$CHAMFERC
 40
1.0
  9
$CHAMFERD
 40
0.0
  9
$SKPOLY
 70
     0
  9
$TDCREATE
 40
2459143.741823808
  9
$TDUCREATE
 40
2459143.908490474
  9
$TDUPDATE
 40
2459143.741823831
  9
$TDUUPDATE
 40
2459143.908490498
  9
$TDINDWG
 40
0.0000000116
  9
$TDUSRTIMER
 40
0.0000000116
  9
$USRTIMER
 70
     1
  9
$ANGBASE
 50
0.0
  9
$ANGDIR
 70
     0
  9
$PDMODE
 70
     0
  9
$PDSIZE
 40
0.0
  9
$PLINEWID
 40
0.0
  9
$SPLFRAME
 70
     0
  9
$SPLINETYPE
 70
     6
  9
$SPLINESEGS
 70
     8
  9
$HANDSEED
  5
49
  9
$SURFTAB1
 70
     6
  9
$SURFTAB2
 70
     6
  9
$SURFTYPE
 70
     6
  9
$SURFU
 70
     6
  9
$SURFV
 70
     6
  9
$UCSBASE
  2

  9
$UCSNAME
  2

  9
$UCSORG
 10
0.0
 20
0.0
 30
0.0
  9
$UCSXDIR
 10
1.0
 20
0.0
 30
0.0
  9
$UCSYDIR
 10
0.0
 20
1.0
 30
0.0
  9
$UCSORTHOREF
  2

  9
$UCSORTHOVIEW
 70
     0
  9
$UCSORGTOP
 10
0.0
 20
0.0
 30
0.0
  9
$UCSORGBOTTOM
 10
0.0
 20
0.0
 30
0.0
  9
$UCSORGLEFT
 10
0.0
 20
0.0
 30
0.0
  9
$UCSORGRIGHT
 10
0.0
 20
0.0
 30
0.0
  9
$UCSORGFRONT
 10
0.0
 20
0.0
 30
0.0
  9
$UCSORGBACK
 10
0.0
 20
0.0
 30
0.0
  9
$PUCSBASE
  2

  9
$PUCSNAME
  2

  9
$PUCSORG
 10
0.0
 20
0.0
 30
0.0
  9
$PUCSXDIR
 10
1.0
 20
0.0
 30
0.0
  9
$PUCSYDIR
 10
0.0
 20
1.0
 30
0.0
  9
$PUCSORTHOREF
  2

  9
$PUCSORTHOVIEW
 70
     0
  9
$PUCSORGTOP
 10
0.0
 20
0.0
 30
0.0
  9
$PUCSORGBOTTOM
 10
0.0
 20
0.0
 30
0.0
  9
$PUCSORGLEFT
 10
0.0
 20
0.0
 30
0.0
  9
$PUCSORGRIGHT
 10
0.0
 20
0.0
 30
0.0
  9
$PUCSORGFRONT
 10
0.0
 20
0.0
 30
0.0
  9
$PUCSORGBACK
 10
0.0
 20
0.0
 30
0.0
  9
$USERI1
 70
     0
  9
$USERI2
 70
     0
  9
$USERI3
 70
     0
  9
$USERI4
 70
     0
  9
$USERI5
 70
     0
  9
$USERR1
 40
0.0
  9
$USERR2
 40
0.0
  9
$USERR3
 40
0.0
  9
$USERR4
 40
0.0
  9
$USERR5
 40
0.0
  9
$WORLDVIEW
 70
     1
  9
$SHADEDGE
 70
     3
  9
$SHADEDIF
 70
    70
  9
$TILEMODE
 70
     1
  9
$MAXACTVP
 70
    64
  9
$PINSBASE
 10
0.0
 20
0.0
 30
0.0
  9
$PLIMCHECK
 70
     0
  9
$PEXTMIN
 10
1.000000000000000E+20
 20
1.000000000000000E+20
 30
1.000000000000000E+20
  9
$PEXTMAX
 10
-1.000000000000000E+20
 20
-1.000000000000000E+20
 30
-1.000000000000000E+20
  9
$PLIMMIN
 10
0.0
 20
0.0
  9
$PLIMMAX
 10
12.0
 20
9.0
  9
$UNITMODE
 70
     0
  9
$VISRETAIN
 70
     1
  9
$PLINEGEN
 70
     0
  9
$PSLTSCALE
 70
     1
  9
$TREEDEPTH
 70
  3020
  9
$CMLSTYLE
  2
Standard
  9
$CMLJUST
 70
     0
  9
$CMLSCALE
 40
1.0
  9
$PROXYGRAPHICS
 70
     1
  9
$MEASUREMENT
 70
     0
  9
$CELWEIGHT
370
    -1
  9
$ENDCAPS
280
     0
  9
$JOINSTYLE
280
     0
  9
$LWDISPLAY
290
     1
  9
$INSUNITS
 70
     1
  9
$HYPERLINKBASE
  1

  9
$STYLESHEET
  1

  9
$XEDIT
290
     1
  9
$CEPSNTYPE
380
     0
  9
$PSTYLEMODE
290
     1
  9
$FINGERPRINTGUID
  2
{98F96530-3611-4642-B908-F12EB6F01466}
  9
$VERSIONGUID
  2
{FAEB1C32-E019-11D5-929B-00C0DF256EC4}
  9
$EXTNAMES
290
     1
  9
$PSVPSCALE
 40
0.0
  9
$OLESTARTUP
290
     0
  9
$SORTENTS
280
   127
  9
$INDEXCTL
280
     0
  9
$HIDETEXT
280
     1
  9
$XCLIPFRAME
280
     2
  9
$HALOGAP
280
     0
  9
$OBSCOLOR
 70
   257
  9
$OBSLTYPE
280
     0
  9
$INTERSECTIONDISPLAY
280
     0
  9
$INTERSECTIONCOLOR
 70
   257
  9
$DIMASSOC
280
     2
  9
$PROJECTNAME
  1

  9
$CAMERADISPLAY
290
     0
  9
$LENSLENGTH
 40
50.0
  9
$CAMERAHEIGHT
 40
0.0
  9
$STEPSPERSEC
 40
2.0
  9
$STEPSIZE
 40
6.0
  9
$3DDWFPREC
 40
2.0
  9
$PSOLWIDTH
 40
0.25
  9
$PSOLHEIGHT
 40
4.0
  9
$LOFTANG1
 40
1.570796326794897
  9
$LOFTANG2
 40
1.570796326794897
  9
$LOFTMAG1
 40
0.0
  9
$LOFTMAG2
 40
0.0
  9
$LOFTPARAM
 70
     7
  9
$LOFTNORMALS
280
     1
  9
$LATITUDE
 40
37.795
  9
$LONGITUDE
 40
-122.394
  9
$NORTHDIRECTION
 40
0.0
  9
$TIMEZONE
 70
 -8000
  9
$LIGHTGLYPHDISPLAY
280
     1
  9
$TILEMODELIGHTSYNCH
280
     1
  9
$CMATERIAL
347
3C
  9
$SOLIDHIST
280
     1
  9
$SHOWHIST
280
     1
  9
$DWFFRAME
280
     2
  9
$DGNFRAME
280
     2
  9
$REALWORLDSCALE
290
     1
  9
$INTERFERECOLOR
 62
   256
  9
$CSHADOW
280
     0
  9
$SHADOWPLANELOCATION
 40
0.0
  0
ENDSEC
  0
SECTION
  2
CLASSES
  0
CLASS
  1
ACDBDICTIONARYWDFLT
  2
AcDbDictionaryWithDefault
  3
ObjectDBX Classes
 90
        0
 91
        4
280
     0
281
     0
  0
CLASS
  1
VISUALSTYLE
  2
AcDbVisualStyle
  3
ObjectDBX Classes
 90
     4095
 91
        4
280
     0
281
     0
  0
CLASS
  1
MATERIAL
  2
AcDbMaterial
  3
ObjectDBX Classes
 90
     1153
 91
        4
280
     0
281
     0
  0
CLASS
  1
SUN
  2
AcDbSun
  3
SCENEOE
 90
     1024
 91
        4
280
     0
281
     0
  0
ENDSEC
  0
SECTION
  2
TABLES
  0
TABLE
  2
VPORT
  5
8
330
0
100
AcDbSymbolTable
 70
     1
  0
VPORT
  5
29
330
8
100
AcDbSymbolTableRecord
100
AcDbViewportTableRecord
  2
*Active
 70
     0
 10
0.0
 20
0.0
 11
1.0
 21
1.0
 12
0.0
 22
0.0
 13
0.0
 23
0.0
 14
0.5
 24
0.5
 15
0.5
 25
0.5
 16
0.0
 26
0.0
 36
1.0
 17
1.628472222222222
 27
1.575000021192769
 37
0.0
 40
3.150000042385538
 41
1.033950603371394
 42
50.0
 43
0.0
 44
0.0
 50
0.0
 51
0.0
 71
     0
 72
   100
 73
     1
 74
     3
 75
     0
 76
     0
 77
     0
 78
     0
281
     0
 65
     1
110
0.0
120
0.0
130
0.0
111
1.0
121
0.0
131
0.0
112
0.0
122
1.0
132
0.0
 79
     0
146
0.0
 60
     3
 61
     5
292
     1
282
     1
141
0.0
142
0.0
 63
   250
361
3F
  0
ENDTAB
  0
TABLE
  2
LTYPE
  5
5
330
0
100
AcDbSymbolTable
 70
     1
  0
LTYPE
  5
14
330
5
100
AcDbSymbolTableRecord
100
AcDbLinetypeTableRecord
  2
ByBlock
 70
     0
  3

 72
    65
 73
     0
 40
0.0
  0
LTYPE
  5
15
330
5
100
AcDbSymbolTableRecord
100
AcDbLinetypeTableRecord
  2
ByLayer
 70
     0
  3

 72
    65
 73
     0
 40
0.0
  0
LTYPE
  5
16
330
5
100
AcDbSymbolTableRecord
100
AcDbLinetypeTableRecord
  2
Continuous
 70
     0
  3
Solid line
 72
    65
 73
     0
 40
0.0
  0
ENDTAB
  0
TABLE
  2
LAYER
  5
2
330
0
100
AcDbSymbolTable
 70
     2
  0
LAYER
  5
10
330
2
100
AcDbSymbolTableRecord
100
AcDbLayerTableRecord
  2
0
 70
     0
 62
     7
  6
Continuous
370
    -3
390
F
347
3E
  0
LAYER
  5
40
330
2
100
AcDbSymbolTableRecord
100
AcDbLayerTableRecord
  2
Layer 1
 70
     0
 62
     7
  6
Continuous
370
    -3
390
F
347
3E
  0
ENDTAB
  0
TABLE
  2
STYLE
  5
3
330
0
100
AcDbSymbolTable
 70
     1
  0
STYLE
  5
11
330
3
100
AcDbSymbolTableRecord
100
AcDbTextStyleTableRecord
  2
Standard
 70
     0
 40
0.0
 41
1.0
 50
0.0
 71
     0
 42
0.2
  3
txt
  4

  0
ENDTAB
  0
TABLE
  2
VIEW
  5
6
330
0
100
AcDbSymbolTable
 70
     0
  0
ENDTAB
  0
TABLE
  2
UCS
  5
7
330
0
100
AcDbSymbolTable
 70
     0
  0
ENDTAB
  0
TABLE
  2
APPID
  5
9
330
0
100
AcDbSymbolTable
 70
     1
  0
APPID
  5
12
330
9
100
AcDbSymbolTableRecord
100
AcDbRegAppTableRecord
  2
ACAD
 70
     0
  0
ENDTAB
  0
TABLE
  2
DIMSTYLE
  5
A
330
0
100
AcDbSymbolTable
 70
     1
100
AcDbDimStyleTable
  0
DIMSTYLE
105
27
330
A
100
AcDbSymbolTableRecord
100
AcDbDimStyleTableRecord
  2
Standard
 70
     0
178
     0
340
11
  0
ENDTAB
  0
TABLE
  2
BLOCK_RECORD
  5
1
330
0
100
AcDbSymbolTable
 70
     1
  0
BLOCK_RECORD
  5
1F
330
1
100
AcDbSymbolTableRecord
100
AcDbBlockTableRecord
  2
*Model_Space
340
22
 70
     0
280
     1
281
     0
  0
BLOCK_RECORD
  5
1B
330
1
100
AcDbSymbolTableRecord
100
AcDbBlockTableRecord
  2
*Paper_Space
340
1E
 70
     0
280
     1
281
     0
  0
BLOCK_RECORD
  5
23
330
1
100
AcDbSymbolTableRecord
100
AcDbBlockTableRecord
  2
*Paper_Space0
340
26
 70
     0
280
     1
281
     0
  0
ENDTAB
  0
ENDSEC
  0
SECTION
  2
BLOCKS
  0
BLOCK
  5
20
330
1F
100
AcDbEntity
  8
0
100
AcDbBlockBegin
  2
*Model_Space
 70
     0
 10
0.0
 20
0.0
 30
0.0
  3
*Model_Space
  1

  0
ENDBLK
  5
21
330
1F
100
AcDbEntity
  8
0
100
AcDbBlockEnd
  0
BLOCK
  5
1C
330
1B
100
AcDbEntity
 67
     1
  8
0
100
AcDbBlockBegin
  2
*Paper_Space
 70
     0
 10
0.0
 20
0.0
 30
0.0
  3
*Paper_Space
  1

  0
ENDBLK
  5
1D
330
1B
100
AcDbEntity
 67
     1
  8
0
100
AcDbBlockEnd
  0
BLOCK
  5
24
330
23
100
AcDbEntity
  8
0
100
AcDbBlockBegin
  2
*Paper_Space0
 70
     0
 10
0.0
 20
0.0
 30
0.0
  3
*Paper_Space0
  1

  0
ENDBLK
  5
25
330
23
100
AcDbEntity
  8
0
100
AcDbBlockEnd
  0
ENDSEC
  0
SECTION
  2
ENTITIES
  0
SPLINE
  5
41
330
1F
100
AcDbEntity
  8
Layer 1
 62
   240
420
 15541547
370
     9
100
AcDbSpline
210
0.0
220
0.0
230
1.0
 70
    11
 71
     3
 72
   167
 73
   163
 74
     0
 42
0.0000000001
 43
0.0000000001
 12
1.0
 22
0.0
 32
0.0
 13
1.0
 23
0.0
 33
0.0
 40
0.0
 40
0.0
 40
0.0
 40
0.0
 40
1.0
 40
1.0
 40
1.0
 40
2.0
 40
2.0
 40
2.0
 40
3.0
 40
3.0
 40
3.0
 40
4.0
 40
4.0
 40
4.0
 40
5.0
 40
5.0
 40
5.0
 40
6.0
 40
6.0
 40
6.0
 40
7.0
 40
7.0
 40
7.0
 40
8.0
 40
8.0
 40
8.0
 40
9.0
 40
9.0
 40
9.0
 40
10.0
 40
10.0
 40
10.0
 40
11.0
 40
11.0
 40
11.0
 40
12.0
 40
12.0
 40
12.0
 40
13.0
 40
13.0
 40
13.0
 40
14.0
 40
14.0
 40
14.0
 40
15.0
 40
15.0
 40
15.0
 40
16.0
 40
16.0
 40
16.0
 40
17.0
 40
17.0
 40
17.0
 40
18.0
 40
18.0
 40
18.0
 40
19.0
 40
19.0
 40
19.0
 40
20.0
 40
20.0
 40
20.0
 40
21.0
 40
21.0
 40
21.0
 40
22.0
 40
22.0
 40
22.0
 40
23.0
 40
23.0
 40
23.0
 40
24.0
 40
24.0
 40
24.0
 40
25.0
 40
25.0
 40
25.0
 40
26.0
 40
26.0
 40
26.0
 40
27.0
 40
27.0
 40
27.0
 40
28.0
 40
28.0
 40
28.0
 40
29.0
 40
29.0
 40
29.0
 40
30.0
 40
30.0
 40
30.0
 40
31.0
 40
31.0
 40
31.0
 40
32.0
 40
32.0
 40
32.0
 40
33.0
 40
33.0
 40
33.0
 40
34.0
 40
34.0
 40
34.0
 40
35.0
 40
35.0
 40
35.0
 40
36.0
 40
36.0
 40
36.0
 40
37.0
 40
37.0
 40
37.0
 40
38.0
 40
38.0
 40
38.0
 40
39.0
 40
39.0
 40
39.0
 40
40.0
 40
40.0
 40
40.0
 40
41.0
 40
41.0
 40
41.0
 40
42.0
 40
42.0
 40
42.0
 40
43.0
 40
43.0
 40
43.0
 40
44.0
 40
44.0
 40
44.0
 40
45.0
 40
45.0
 40
45.0
 40
46.0
 40
46.0
 40
46.0
 40
47.0
 40
47.0
 40
47.0
 40
48.0
 40
48.0
 40
48.0
 40
49.0
 40
49.0
 40
49.0
 40
50.0
 40
50.0
 40
50.0
 40
51.0
 40
51.0
 40
51.0
 40
52.0
 40
52.0
 40
52.0
 40
53.0
 40
53.0
 40
53.0
 40
54.0
 40
54.0
 40
54.0
 40
54.0
 10
1.231944402058919
 20
2.047222073872894
 30
0.0
 10
1.231944402058919
 20
2.047222073872894
 30
0.0
 10
1.229166666666667
 20
2.052777650621212
 30
0.0
 10
1.229166666666667
 20
2.052777650621212
 30
0.0
 10
1.174999978807237
 20
2.141666560702864
 30
0.0
 10
1.133333312140571
 20
2.240277650621212
 30
0.0
 10
1.105555534362793
 20
2.347222105662038
 30
0.0
 10
1.10277779897054
 20
2.362499862247053
 30
0.0
 10
1.094444380866157
 20
2.366666571299245
 30
0.0
 10
1.081944465637207
 20
2.362499862247053
 30
0.0
 10
1.051388952467177
 20
2.355555417802609
 30
0.0
 10
1.027777777777778
 20
2.344444317287879
 30
0.0
 10
1.011111153496636
 20
2.331944296095116
 30
0.0
 10
1.001388973659939
 20
2.323610983954545
 30
0.0
 10
0.9916666878594292
 20
2.324999851650672
 30
0.0
 10
0.9847222434149847
 20
2.336110952165402
 30
0.0
 10
0.9763889312744141
 20
2.354166497124576
 30
0.0
 10
0.9680556191338433
 20
2.365277597639306
 30
0.0
 10
0.9625000423855251
 20
2.370833174387624
 30
0.0
 10
0.9472222858005099
 20
2.388888719346798
 30
0.0
 10
0.9319445292154948
 20
2.390277640024831
 30
0.0
 10
0.9138889312744141
 20
2.374999830457909
 30
0.0
 10
0.9097222222222222
 20
2.37222204208375
 30
0.0
 10
0.904166751437717
 20
2.368055386013465
 30
0.0
 10
0.9000000423855251
 20
2.363888729943179
 30
0.0
 10
0.894444465637207
 20
2.359722073872894
 30
0.0
 10
0.8902778625488281
 20
2.354166497124576
 30
0.0
 10
0.8847222858005099
 20
2.349999841054291
 30
0.0
 10
0.8791667090521917
 20
2.344444264305972
 30
0.0
 10
0.8750000529819064
 20
2.340277608235687
 30
0.0
 10
0.8708333969116211
 20
2.337499819861528
 30
0.0
 10
0.8666667408413357
 20
2.333333163791242
 30
0.0
 10
0.8625000847710503
 20
2.33194424311321
 30
0.0
 10
0.8597222963968912
 20
2.333333163791242
 30
0.0
 10
0.8555556403266058
 20
2.334722031487369
 30
0.0
 10
0.854166719648573
 20
2.338888740539561
 30
0.0
 10
0.8569445080227321
 20
2.345833184984005
 30
0.0
 10
0.8597222963968912
 20
2.361110941569021
 30
0.0
 10
0.8625000847710503
 20
2.369444306691498
 30
0.0
 10
0.8638889524671766
 20
2.372222095065657
 30
0.0
 10
0.8833334181043836
 20
2.422222073872894
 30
0.0
 10
0.8972223069932725
 20
2.497222095065657
 30
0.0
 10
0.9055556191338433
 20
2.595833184984005
 30
0.0
 10
0.9069444868299695
 20
2.613888729943179
 30
0.0
 10
0.9152777989705403
 20
2.619444306691498
 30
0.0
 10
0.9319445292154948
 20
2.615277650621212
 30
0.0
 10
0.9361112382676866
 20
2.613888782925086
 30
0.0
 10
0.9416667090521917
 20
2.611110994550927
 30
0.0
 10
0.9500001271565754
 20
2.608333206176768
 30
0.0
 10
0.9569445716010199
 20
2.605555417802609
 30
0.0
 10
0.9625001483493381
 20
2.602777629428449
 30
0.0
 10
0.9652778837415906
 20
2.601388761732323
 30
0.0
 10
1.008333418104384
 20
2.584722084469275
 30
0.0
 10
1.030555619133843
 20
2.576388772328705
 30
0.0
 10
1.036111195882161
 20
2.574999851650672
 30
0.0
 10
1.065277841356066
 20
2.566666539510101
 30
0.0
 10
1.083333439297146
 20
2.563888751135942
 30
0.0
 10
1.091666751437717
 20
2.566666539510101
 30
0.0
 10
1.098611195882161
 20
2.570833195580386
 30
0.0
 10
1.106944508022732
 20
2.586111005147308
 30
0.0
 10
1.115277820163303
 20
2.613888782925086
 30
0.0
 10
1.141666730244954
 20
2.69444432788426
 30
0.0
 10
1.186111132303874
 20
2.759722116258419
 30
0.0
 10
1.248611132303874
 20
2.811111015743689
 30
0.0
 10
1.311111132303874
 20
2.862499915228959
 30
0.0
 10
1.375
 20
2.894444349077023
 30
0.0
 10
1.440277841356066
 20
2.908333237965912
 30
0.0
 10
1.505555576748318
 20
2.920833232667721
 30
0.0
 10
1.566666709052192
 20
2.920833232667721
 30
0.0
 10
1.623611132303874
 20
2.905555449591752
 30
0.0
 10
1.773611174689399
 20
2.869444333182451
 30
0.0
 10
1.868055555555555
 20
2.776388793521467
 30
0.0
 10
1.909722222222222
 20
2.626388804117849
 30
0.0
 10
1.919444402058919
 20
2.584722137451182
 30
0.0
 10
1.916666666666667
 20
2.543055470784515
 30
0.0
 10
1.901388804117838
 20
2.498611015743689
 30
0.0
 10
1.895833333333333
 20
2.483333259158674
 30
0.0
 10
1.899999830457899
 20
2.47638881471423
 30
0.0
 10
1.913888719346788
 20
2.474999894036197
 30
0.0
 10
1.916666454739041
 20
2.474999894036197
 30
0.0
 10
1.934722052680121
 20
2.473611026340071
 30
0.0
 10
1.966666539510091
 20
2.470833237965912
 30
0.0
 10
1.974999957614475
 20
2.469444370269785
 30
0.0
 10
1.984722137451172
 20
2.469444370269785
 30
0.0
 10
1.995833290947808
 20
2.470833237965912
 30
0.0
 10
2.006944444444444
 20
2.472222105662038
 30
0.0
 10
2.015277650621202
 20
2.473611026340071
 30
0.0
 10
2.022222095065647
 20
2.474999894036197
 30
0.0
 10
2.029166539510091
 20
2.476388761732323
 30
0.0
 10
2.038888719346788
 20
2.479166550106482
 30
0.0
 10
2.051388846503364
 20
2.483333206176768
 30
0.0
 10
2.063888761732313
 20
2.487499862247053
 30
0.0
 10
2.073611153496636
 20
2.490277650621212
 30
0.0
 10
2.076388888888889
 20
2.491666518317338
 30
0.0
 10
2.080555597941081
 20
2.493055386013465
 30
0.0
 10
2.090277777777778
 20
2.495833174387624
 30
0.0
 10
2.105555640326606
 20
2.504166539510101
 30
0.0
 10
2.105555640326606
 20
2.504166539510101
 30
0.0
 10
2.129166709052192
 20
2.515277640024831
 30
0.0
 10
2.129166709052192
 20
2.515277640024831
 30
0.0
 10
2.147222306993272
 20
2.522222084469275
 30
0.0
 10
2.156944486829969
 20
2.524999872843435
 30
0.0
 10
2.161111195882161
 20
2.522222084469275
 30
0.0
 10
2.165277904934353
 20
2.519444296095116
 30
0.0
 10
2.165277904934353
 20
2.509722063276513
 30
0.0
 10
2.163888931274414
 20
2.491666518317338
 30
0.0
 10
2.162499957614475
 20
2.474999841054291
 30
0.0
 10
2.161111195882161
 20
2.452777640024831
 30
0.0
 10
2.159722222222222
 20
2.424999862247053
 30
0.0
 10
2.158333248562283
 20
2.395833216773149
 30
0.0
 10
2.156944486829969
 20
2.369444306691498
 30
0.0
 10
2.154166751437717
 20
2.345833184984005
 30
0.0
 10
2.151389016045465
 20
2.322222063276513
 30
0.0
 10
2.148611280653212
 20
2.299999862247053
 30
0.0
 10
2.14444457160102
 20
2.27916652891372
 30
0.0
 10
2.143055597941081
 20
2.26805542839899
 30
0.0
 10
2.140277862548828
 20
2.261110983954545
 30
0.0
 10
2.136111153496636
 20
2.261110983954545
 30
0.0
 10
2.131944444444444
 20
2.259722116258419
 30
0.0
 10
2.126388973659939
 20
2.263888772328705
 30
0.0
 10
2.119444529215495
 20
2.273611005147308
 30
0.0
 10
2.102777904934353
 20
2.297222126854801
 30
0.0
 10
2.088889016045465
 20
2.312499883439816
 30
0.0
 10
2.075000127156575
 20
2.31944432788426
 30
0.0
 10
2.054166793823242
 20
2.331944349077023
 30
0.0
 10
2.036111195882161
 20
2.329166560702864
 30
0.0
 10
2.01944457160102
 20
2.308333227369531
 30
0.0
 10
2.008333418104383
 20
2.293055470784515
 30
0.0
 10
1.997222264607747
 20
2.273611005147308
 30
0.0
 10
1.98888905843099
 20
2.248610962761783
 30
0.0
 10
1.981944613986545
 20
2.233333206176768
 30
0.0
 10
1.972222434149848
 20
2.231944338480642
 30
0.0
 10
1.962500254313151
 20
2.241666518317338
 30
0.0
 10
1.934722476535373
 20
2.270833163791242
 30
0.0
 10
1.893055809868706
 20
2.290277629428449
 30
0.0
 10
1.837500254313151
 20
2.298610941569021
 30
0.0
 10
1.820833630032009
 20
2.299999809265147
 30
0.0
 10
1.812500211927626
 20
2.294444285498735
 30
0.0
 10
1.808333502875434
 20
2.280555396609846
 30
0.0
 10
1.80000008477105
 20
2.249999830457909
 30
0.0
 10
1.793055640326606
 20
2.220833184984005
 30
0.0
 10
1.787500169542101
 20
2.19583314259848
 30
0.0
 10
1.787500169542101
 20
2.19583314259848
 30
0.0
 10
1.784722434149848
 20
2.181944253709591
 30
0.0
 10
1.784722434149848
 20
2.181944253709591
 30
0.0
 10
1.784722434149848
 20
2.181944253709591
 30
0.0
 10
1.784722434149848
 20
2.181944253709591
 30
0.0
 10
1.784722434149848
 20
2.181944253709591
 30
0.0
 10
2.261111365424262
 20
2.145833163791242
 30
0.0
 10
2.637500339084201
 20
1.747222095065657
 30
0.0
 10
2.637500339084201
 20
1.261110983954546
 30
0.0
 10
2.637500339084201
 20
0.7513888041178486
 30
0.0
 10
2.223611407809787
 20
0.3374998728434346
 30
0.0
 10
1.71388922797309
 20
0.3374998728434346
 30
0.0
 10
1.204167048136393
 20
0.3374998728434346
 30
0.0
 10
0.7902781168619791
 20
0.7513888041178486
 30
0.0
 10
0.7902781168619791
 20
1.261110983954546
 30
0.0
 10
0.7902781168619791
 20
1.579166560702864
 30
0.0
 10
0.9513892067803277
 20
1.86111094156902
 30
0.0
 10
1.197222603691949
 20
2.026388740539561
 30
0.0
 10
1.197222603691949
 20
2.026388740539561
 30
0.0
 10
1.231944402058919
 20
2.047222073872894
 30
0.0
 10
1.231944402058919
 20
2.047222073872894
 30
0.0
  0
SPLINE
  5
42
330
1F
100
AcDbEntity
  8
Layer 1
 62
   240
420
 15541547
370
     9
100
AcDbSpline
210
0.0
220
0.0
230
1.0
 70
    11
 71
     3
 72
    20
 73
    16
 74
     0
 42
0.0000000001
 43
0.0000000001
 12
1.0
 22
0.0
 32
0.0
 13
1.0
 23
0.0
 33
0.0
 40
0.0
 40
0.0
 40
0.0
 40
0.0
 40
1.0
 40
1.0
 40
1.0
 40
2.0
 40
2.0
 40
2.0
 40
3.0
 40
3.0
 40
3.0
 40
4.0
 40
4.0
 40
4.0
 40
5.0
 40
5.0
 40
5.0
 40
5.0
 10
1.605555534362793
 20
2.512499851650672
 30
0.0
 10
1.591666645473904
 20
2.527777608235687
 30
0.0
 10
1.576388888888889
 20
2.536110973358164
 30
0.0
 10
1.558333290947808
 20
2.536110973358164
 30
0.0
 10
1.51249991522895
 20
2.536110973358164
 30
0.0
 10
1.474999957614475
 20
2.474999841054291
 30
0.0
 10
1.474999957614475
 20
2.399999872843435
 30
0.0
 10
1.474999957614475
 20
2.324999851650672
 30
0.0
 10
1.51249991522895
 20
2.263888772328705
 30
0.0
 10
1.558333290947808
 20
2.263888772328705
 30
0.0
 10
1.604166666666667
 20
2.263888772328705
 30
0.0
 10
1.641666624281141
 20
2.324999904632578
 30
0.0
 10
1.641666624281141
 20
2.399999872843435
 30
0.0
 10
1.641666624281141
 20
2.445833195580386
 30
0.0
 10
1.627777735392252
 20
2.487499862247053
 30
0.0
 10
1.605555534362793
 20
2.512499851650672
 30
0.0
  0
SPLINE
  5
43
330
1F
100
AcDbEntity
  8
Layer 1
 62
   240
420
 15541547
370
     9
100
AcDbSpline
210
0.0
220
0.0
230
1.0
 70
    11
 71
     3
 72
    71
 73
    67
 74
     0
 42
0.0000000001
 43
0.0000000001
 12
1.0
 22
0.0
 32
0.0
 13
1.0
 23
0.0
 33
0.0
 40
0.0
 40
0.0
 40
0.0
 40
0.0
 40
1.0
 40
1.0
 40
1.0
 40
2.0
 40
2.0
 40
2.0
 40
3.0
 40
3.0
 40
3.0
 40
4.0
 40
4.0
 40
4.0
 40
5.0
 40
5.0
 40
5.0
 40
6.0
 40
6.0
 40
6.0
 40
7.0
 40
7.0
 40
7.0
 40
8.0
 40
8.0
 40
8.0
 40
9.0
 40
9.0
 40
9.0
 40
10.0
 40
10.0
 40
10.0
 40
11.0
 40
11.0
 40
11.0
 40
12.0
 40
12.0
 40
12.0
 40
13.0
 40
13.0
 40
13.0
 40
14.0
 40
14.0
 40
14.0
 40
15.0
 40
15.0
 40
15.0
 40
16.0
 40
16.0
 40
16.0
 40
17.0
 40
17.0
 40
17.0
 40
18.0
 40
18.0
 40
18.0
 40
19.0
 40
19.0
 40
19.0
 40
20.0
 40
20.0
 40
20.0
 40
21.0
 40
21.0
 40
21.0
 40
22.0
 40
22.0
 40
22.0
 40
22.0
 10
2.219444486829969
 20
0.7111108991834953
 30
0.0
 10
2.083333333333333
 20
0.5874998728434345
 30
0.0
 10
1.904166751437717
 20
0.5180554283989901
 30
0.0
 10
1.719444486829969
 20
0.5180554283989901
 30
0.0
 10
1.522222306993273
 20
0.5180554283989901
 30
0.0
 10
1.331944465637207
 20
0.5972220526801316
 30
0.0
 10
1.193055576748318
 20
0.7361109415690205
 30
0.0
 10
1.052777820163303
 20
0.8763888041178486
 30
0.0
 10
0.9750000635782877
 20
1.065277565850162
 30
0.0
 10
0.9750000635782877
 20
1.262499957614485
 30
0.0
 10
0.9750000635782877
 20
1.459722137451182
 30
0.0
 10
1.054166687859429
 20
1.649999978807247
 30
0.0
 10
1.193055576748318
 20
1.788888867696136
 30
0.0
 10
1.236111111111111
 20
1.831944402058929
 30
0.0
 10
1.284722222222222
 20
1.870833333333343
 30
0.0
 10
1.337500042385525
 20
1.901388846503374
 30
0.0
 10
1.337500042385525
 20
1.901388846503374
 30
0.0
 10
1.343055619133843
 20
1.904166581895626
 30
0.0
 10
1.343055619133843
 20
1.904166581895626
 30
0.0
 10
1.343055619133843
 20
1.904166581895626
 30
0.0
 10
1.361111217074924
 20
1.887499957614485
 30
0.0
 10
1.361111217074924
 20
1.887499957614485
 30
0.0
 10
1.438888973659939
 20
1.81805551317004
 30
0.0
 10
1.534722328186035
 20
1.7777777141995
 30
0.0
 10
1.647222306993273
 20
1.763888825310611
 30
0.0
 10
1.684722264607747
 20
1.759722116258419
 30
0.0
 10
1.740277820163303
 20
1.762499957614485
 30
0.0
 10
1.8125
 20
1.772222137451182
 30
0.0
 10
1.915277693006727
 20
1.788888761732323
 30
0.0
 10
1.984722137451172
 20
1.795833206176768
 30
0.0
 10
2.023611068725586
 20
1.794444338480641
 30
0.0
 10
2.099999957614475
 20
1.793055470784515
 30
0.0
 10
2.15555551317003
 20
1.781944317287879
 30
0.0
 10
2.190277735392252
 20
1.759722116258419
 30
0.0
 10
2.198611153496636
 20
1.755555407206227
 30
0.0
 10
2.206944359673394
 20
1.755555407206227
 30
0.0
 10
2.213888804117838
 20
1.762499851650672
 30
0.0
 10
2.220833248562283
 20
1.769444296095116
 30
0.0
 10
2.220833248562283
 20
1.779166475931813
 30
0.0
 10
2.213888804117838
 20
1.791666497124576
 30
0.0
 10
2.206944359673394
 20
1.804166518317339
 30
0.0
 10
2.19861094156901
 20
1.816666539510101
 30
0.0
 10
2.191666497124566
 20
1.827777587042924
 30
0.0
 10
2.191666497124566
 20
1.827777587042924
 30
0.0
 10
2.184722052680121
 20
1.837499766879622
 30
0.0
 10
2.184722052680121
 20
1.837499766879622
 30
0.0
 10
2.184722052680121
 20
1.837499766879622
 30
0.0
 10
2.188888761732313
 20
1.837499766879622
 30
0.0
 10
2.188888761732313
 20
1.837499766879622
 30
0.0
 10
2.188888761732313
 20
1.837499766879622
 30
0.0
 10
2.197222179836697
 20
1.837499766879622
 30
0.0
 10
2.197222179836697
 20
1.837499766879622
 30
0.0
 10
2.197222179836697
 20
1.837499766879622
 30
0.0
 10
2.208333333333333
 20
1.829166454739051
 30
0.0
 10
2.208333333333333
 20
1.829166454739051
 30
0.0
 10
2.222222222222222
 20
1.816666433546288
 30
0.0
 10
2.236111111111111
 20
1.804166412353526
 30
0.0
 10
2.248611026340061
 20
1.791666497124576
 30
0.0
 10
2.388888888888889
 20
1.651388740539561
 30
0.0
 10
2.466666539510091
 20
1.462499872843434
 30
0.0
 10
2.466666539510091
 20
1.265277481079112
 30
0.0
 10
2.466666539510091
 20
1.068055301242415
 30
0.0
 10
2.38749991522895
 20
0.877777565850162
 30
0.0
 10
2.248611026340061
 20
0.7388886769612731
 30
0.0
 10
2.23750008477105
 20
0.729166497124576
 30
0.0
 10
2.229166666666667
 20
0.7194443172878789
 30
0.0
 10
2.219444486829969
 20
0.7111108991834953
 30
0.0
  0
SPLINE
  5
44
330
1F
100
AcDbEntity
  8
Layer 1
 62
   240
420
 15541547
370
     9
100
AcDbSpline
210
0.0
220
0.0
230
1.0
 70
    11
 71
     3
 72
    29
 73
    25
 74
     0
 42
0.0000000001
 43
0.0000000001
 12
1.0
 22
0.0
 32
0.0
 13
1.0
 23
0.0
 33
0.0
 40
0.0
 40
0.0
 40
0.0
 40
0.0
 40
1.0
 40
1.0
 40
1.0
 40
2.0
 40
2.0
 40
2.0
 40
3.0
 40
3.0
 40
3.0
 40
4.0
 40
4.0
 40
4.0
 40
5.0
 40
5.0
 40
5.0
 40
6.0
 40
6.0
 40
6.0
 40
7.0
 40
7.0
 40
7.0
 40
8.0
 40
8.0
 40
8.0
 40
8.0
 10
1.82499991522895
 20
2.001388804117849
 30
0.0
 10
1.82499991522895
 20
2.001388804117849
 30
0.0
 10
1.82499991522895
 20
2.001388804117849
 30
0.0
 10
1.82499991522895
 20
2.001388804117849
 30
0.0
 10
1.837499830457899
 20
1.986111047532833
 30
0.0
 10
1.852777693006727
 20
1.973611026340071
 30
0.0
 10
1.870833290947808
 20
1.963888846503374
 30
0.0
 10
1.900000042385525
 20
1.948611089918359
 30
0.0
 10
1.930555555555555
 20
1.940277777777788
 30
0.0
 10
1.966666539510091
 20
1.940277777777788
 30
0.0
 10
1.99305534362793
 20
1.940277777777788
 30
0.0
 10
2.018055386013455
 20
1.937500042385535
 30
0.0
 10
2.041666454739041
 20
1.931944465637217
 30
0.0
 10
2.041666454739041
 20
1.931944465637217
 30
0.0
 10
2.05555534362793
 20
1.927777756585025
 30
0.0
 10
2.05555534362793
 20
1.927777756585025
 30
0.0
 10
2.05555534362793
 20
1.927777756585025
 30
0.0
 10
2.037499745686849
 20
1.936111068725596
 30
0.0
 10
2.037499745686849
 20
1.936111068725596
 30
0.0
 10
1.972222010294596
 20
1.966666581895626
 30
0.0
 10
1.901388592190213
 20
1.988888888888899
 30
0.0
 10
1.829166412353516
 20
1.999999936421722
 30
0.0
 10
1.829166412353516
 20
1.999999936421722
 30
0.0
 10
1.82499991522895
 20
2.001388804117849
 30
0.0
 10
1.82499991522895
 20
2.001388804117849
 30
0.0
  0
SPLINE
  5
45
330
1F
100
AcDbEntity
  8
Layer 1
 62
   240
420
 15541547
370
     9
100
AcDbSpline
210
0.0
220
0.0
230
1.0
 70
    11
 71
     3
 72
    44
 73
    40
 74
     0
 42
0.0000000001
 43
0.0000000001
 12
1.0
 22
0.0
 32
0.0
 13
1.0
 23
0.0
 33
0.0
 40
0.0
 40
0.0
 40
0.0
 40
0.0
 40
1.0
 40
1.0
 40
1.0
 40
2.0
 40
2.0
 40
2.0
 40
3.0
 40
3.0
 40
3.0
 40
4.0
 40
4.0
 40
4.0
 40
5.0
 40
5.0
 40
5.0
 40
6.0
 40
6.0
 40
6.0
 40
7.0
 40
7.0
 40
7.0
 40
8.0
 40
8.0
 40
8.0
 40
9.0
 40
9.0
 40
9.0
 40
10.0
 40
10.0
 40
10.0
 40
11.0
 40
11.0
 40
11.0
 40
12.0
 40
12.0
 40
12.0
 40
13.0
 40
13.0
 40
13.0
 40
13.0
 10
1.445833312140571
 20
2.608333206176768
 30
0.0
 10
1.422222243414985
 20
2.615277650621212
 30
0.0
 10
1.408333354526096
 20
2.651388740539561
 30
0.0
 10
1.412499957614475
 20
2.69444432788426
 30
0.0
 10
1.416666666666667
 20
2.740277650621212
 30
0.0
 10
1.441666603088379
 20
2.773611005147308
 30
0.0
 10
1.46805551317003
 20
2.772222110960229
 30
0.0
 10
1.494444423251682
 20
2.769444322586069
 30
0.0
 10
1.511111047532823
 20
2.730555444293562
 30
0.0
 10
1.506944444444444
 20
2.686111015743689
 30
0.0
 10
1.505555576748318
 20
2.669444338480642
 30
0.0
 10
1.501388867696126
 20
2.654166581895626
 30
0.0
 10
1.494444423251682
 20
2.641666560702864
 30
0.0
 10
1.494444423251682
 20
2.641666560702864
 30
0.0
 10
1.493055555555556
 20
2.638888772328705
 30
0.0
 10
1.493055555555556
 20
2.638888772328705
 30
0.0
 10
1.493055555555556
 20
2.638888772328705
 30
0.0
 10
1.493055555555556
 20
2.648611005147308
 30
0.0
 10
1.493055555555556
 20
2.648611005147308
 30
0.0
 10
1.493055555555556
 20
2.674999915228959
 30
0.0
 10
1.483333375718858
 20
2.697222116258419
 30
0.0
 10
1.46944448682997
 20
2.697222116258419
 30
0.0
 10
1.456944465637207
 20
2.697222116258419
 30
0.0
 10
1.445833418104384
 20
2.676388782925086
 30
0.0
 10
1.445833418104384
 20
2.648611005147308
 30
0.0
 10
1.445833418104384
 20
2.634722116258419
 30
0.0
 10
1.448611153496636
 20
2.623611015743689
 30
0.0
 10
1.452777862548828
 20
2.615277650621212
 30
0.0
 10
1.452777862548828
 20
2.615277650621212
 30
0.0
 10
1.455555597941081
 20
2.609722073872894
 30
0.0
 10
1.455555597941081
 20
2.609722073872894
 30
0.0
 10
1.455555597941081
 20
2.609722073872894
 30
0.0
 10
1.455555597941081
 20
2.609722073872894
 30
0.0
 10
1.455555597941081
 20
2.609722073872894
 30
0.0
 10
1.454166730244954
 20
2.609722073872894
 30
0.0
 10
1.452777862548828
 20
2.609722073872894
 30
0.0
 10
1.451388888888889
 20
2.609722073872894
 30
0.0
 10
1.450000021192763
 20
2.608333206176768
 30
0.0
 10
1.448611153496636
 20
2.608333206176768
 30
0.0
 10
1.445833312140571
 20
2.608333206176768
 30
0.0
  0
SPLINE
  5
46
330
1F
100
AcDbEntity
  8
Layer 1
 62
   240
420
 15541547
370
     9
100
AcDbSpline
210
0.0
220
0.0
230
1.0
 70
    11
 71
     3
 72
    44
 73
    40
 74
     0
 42
0.0000000001
 43
0.0000000001
 12
1.0
 22
0.0
 32
0.0
 13
1.0
 23
0.0
 33
0.0
 40
0.0
 40
0.0
 40
0.0
 40
0.0
 40
1.0
 40
1.0
 40
1.0
 40
2.0
 40
2.0
 40
2.0
 40
3.0
 40
3.0
 40
3.0
 40
4.0
 40
4.0
 40
4.0
 40
5.0
 40
5.0
 40
5.0
 40
6.0
 40
6.0
 40
6.0
 40
7.0
 40
7.0
 40
7.0
 40
8.0
 40
8.0
 40
8.0
 40
9.0
 40
9.0
 40
9.0
 40
10.0
 40
10.0
 40
10.0
 40
11.0
 40
11.0
 40
11.0
 40
12.0
 40
12.0
 40
12.0
 40
13.0
 40
13.0
 40
13.0
 40
13.0
 10
1.633333312140571
 20
2.615277650621212
 30
0.0
 10
1.609722243414985
 20
2.622222095065657
 30
0.0
 10
1.595833354526096
 20
2.658333184984005
 30
0.0
 10
1.599999957614475
 20
2.701388772328705
 30
0.0
 10
1.604166666666667
 20
2.747222095065657
 30
0.0
 10
1.629166603088379
 20
2.780555449591752
 30
0.0
 10
1.65555551317003
 20
2.779166555404673
 30
0.0
 10
1.681944423251682
 20
2.776388767030514
 30
0.0
 10
1.698611047532823
 20
2.737499888738006
 30
0.0
 10
1.694444444444444
 20
2.693055460188134
 30
0.0
 10
1.693055576748318
 20
2.676388782925086
 30
0.0
 10
1.688888867696126
 20
2.661111026340071
 30
0.0
 10
1.681944423251682
 20
2.648611005147308
 30
0.0
 10
1.681944423251682
 20
2.648611005147308
 30
0.0
 10
1.680555555555555
 20
2.645833216773149
 30
0.0
 10
1.680555555555555
 20
2.645833216773149
 30
0.0
 10
1.680555555555555
 20
2.645833216773149
 30
0.0
 10
1.680555555555555
 20
2.655555449591752
 30
0.0
 10
1.680555555555555
 20
2.655555449591752
 30
0.0
 10
1.680555555555555
 20
2.681944359673404
 30
0.0
 10
1.670833375718858
 20
2.704166560702864
 30
0.0
 10
1.656944486829969
 20
2.704166560702864
 30
0.0
 10
1.644444465637207
 20
2.704166560702864
 30
0.0
 10
1.633333418104383
 20
2.683333227369531
 30
0.0
 10
1.633333418104383
 20
2.655555449591752
 30
0.0
 10
1.633333418104383
 20
2.641666560702864
 30
0.0
 10
1.636111153496636
 20
2.630555460188134
 30
0.0
 10
1.640277862548828
 20
2.622222095065657
 30
0.0
 10
1.640277862548828
 20
2.622222095065657
 30
0.0
 10
1.643055597941081
 20
2.616666518317338
 30
0.0
 10
1.643055597941081
 20
2.616666518317338
 30
0.0
 10
1.643055597941081
 20
2.616666518317338
 30
0.0
 10
1.643055597941081
 20
2.616666518317338
 30
0.0
 10
1.643055597941081
 20
2.616666518317338
 30
0.0
 10
1.641666730244954
 20
2.616666518317338
 30
0.0
 10
1.640277862548828
 20
2.616666518317338
 30
0.0
 10
1.638888888888889
 20
2.616666518317338
 30
0.0
 10
1.636111153496636
 20
2.615277650621212
 30
0.0
 10
1.634722179836697
 20
2.615277650621212
 30
0.0
 10
1.633333312140571
 20
2.615277650621212
 30
0.0
  0
ENDSEC
  0
SECTION
  2
OBJECTS
  0
DICTIONARY
  5
C
330
0
100
AcDbDictionary
281
     1
  3
ACAD_GROUP
350
D
  3
ACAD_LAYOUT
350
1A
  3
ACAD_MATERIAL
350
3B
  3
ACAD_MLEADERSTYLE
350
48
  3
ACAD_MLINESTYLE
350
17
  3
ACAD_PLOTSETTINGS
350
19
  3
ACAD_PLOTSTYLENAME
350
E
  3
ACAD_TABLESTYLE
350
47
  3
ACAD_VISUALSTYLE
350
2A
  0
SUN
  5
3F
330
29
100
AcDbSun
 90
        1
290
     0
 63
     7
421
 16777215
 40
1.0
291
     1
 91
  2455826
 92
 54000000
292
     0
 70
     2
 71
   256
280
     1
  0
DICTIONARY
  5
D
102
{ACAD_REACTORS
330
C
102
}
330
C
100
AcDbDictionary
281
     1
  0
DICTIONARY
  5
1A
102
{ACAD_REACTORS
330
C
102
}
330
C
100
AcDbDictionary
281
     1
  3
Layout1
350
1E
  3
Layout2
350
26
  3
Model
350
22
  0
DICTIONARY
  5
3B
102
{ACAD_REACTORS
330
C
102
}
330
C
100
AcDbDictionary
281
     1
  3
ByBlock
350
3D
  3
ByLayer
350
3C
  3
Global
350
3E
  0
DICTIONARY
  5
48
102
{ACAD_REACTORS
330
C
102
}
330
C
100
AcDbDictionary
281
     1
  0
DICTIONARY
  5
17
102
{ACAD_REACTORS
330
C
102
}
330
C
100
AcDbDictionary
281
     1
  3
Standard
350
18
  0
DICTIONARY
  5
19
102
{ACAD_REACTORS
330
C
102
}
330
C
100
AcDbDictionary
281
     1
  0
ACDBDICTIONARYWDFLT
  5
E
102
{ACAD_REACTORS
330
C
102
}
330
C
100
AcDbDictionary
281
     1
  3
Normal
350
F
100
AcDbDictionaryWithDefault
340
F
  0
DICTIONARY
  5
47
102
{ACAD_REACTORS
330
C
102
}
330
C
100
AcDbDictionary
281
     1
  0
DICTIONARY
  5
2A
102
{ACAD_REACTORS
330
C
102
}
330
C
100
AcDbDictionary
281
     1
  3
2dWireframe
350
2F
  3
3D Hidden
350
31
  3
3dWireframe
350
30
  3
Basic
350
32
  3
Brighten
350
36
  3
ColorChange
350
3A
  3
Conceptual
350
34
  3
Dim
350
35
  3
Facepattern
350
39
  3
Flat
350
2B
  3
FlatWithEdges
350
2C
  3
Gouraud
350
2D
  3
GouraudWithEdges
350
2E
  3
Linepattern
350
38
  3
Realistic
350
33
  3
Thicken
350
37
  0
LAYOUT
  5
1E
102
{ACAD_REACTORS
330
1A
102
}
330
1A
100
AcDbPlotSettings
  1

  2
none_device
  4

  6

 40
0.0
 41
0.0
 42
0.0
 43
0.0
 44
0.0
 45
0.0
 46
0.0
 47
0.0
 48
0.0
 49
0.0
140
0.0
141
0.0
142
1.0
143
1.0
 70
   688
 72
     0
 73
     0
 74
     5
  7

 75
    16
 76
     0
 77
     2
 78
   300
147
1.0
148
0.0
149
0.0
100
AcDbLayout
  1
Layout1
 70
     1
 71
     1
 10
0.0
 20
0.0
 11
12.0
 21
9.0
 12
0.0
 22
0.0
 32
0.0
 14
1.000000000000000E+20
 24
1.000000000000000E+20
 34
1.000000000000000E+20
 15
-1.000000000000000E+20
 25
-1.000000000000000E+20
 35
-1.000000000000000E+20
146
0.0
 13
0.0
 23
0.0
 33
0.0
 16
1.0
 26
0.0
 36
0.0
 17
0.0
 27
1.0
 37
0.0
 76
     0
330
1B
  0
LAYOUT
  5
26
102
{ACAD_REACTORS
330
1A
102
}
330
1A
100
AcDbPlotSettings
  1

  2
none_device
  4

  6

 40
0.0
 41
0.0
 42
0.0
 43
0.0
 44
0.0
 45
0.0
 46
0.0
 47
0.0
 48
0.0
 49
0.0
140
0.0
141
0.0
142
1.0
143
1.0
 70
   688
 72
     0
 73
     0
 74
     5
  7

 75
    16
 76
     0
 77
     2
 78
   300
147
1.0
148
0.0
149
0.0
100
AcDbLayout
  1
Layout2
 70
     1
 71
     2
 10
0.0
 20
0.0
 11
0.0
 21
0.0
 12
0.0
 22
0.0
 32
0.0
 14
0.0
 24
0.0
 34
0.0
 15
0.0
 25
0.0
 35
0.0
146
0.0
 13
0.0
 23
0.0
 33
0.0
 16
1.0
 26
0.0
 36
0.0
 17
0.0
 27
1.0
 37
0.0
 76
     0
330
23
  0
LAYOUT
  5
22
102
{ACAD_REACTORS
330
1A
102
}
330
1A
100
AcDbPlotSettings
  1

  2
none_device
  4

  6

 40
0.0
 41
0.0
 42
0.0
 43
0.0
 44
0.0
 45
0.0
 46
0.0
 47
0.0
 48
0.0
 49
0.0
140
0.0
141
0.0
142
1.0
143
1.0
 70
  1712
 72
     0
 73
     0
 74
     0
  7

 75
     0
 76
     0
 77
     2
 78
   300
147
1.0
148
0.0
149
0.0
100
AcDbLayout
  1
Model
 70
     1
 71
     0
 10
0.0
 20
0.0
 11
12.0
 21
9.0
 12
0.0
 22
0.0
 32
0.0
 14
1.000000000000000E+20
 24
1.000000000000000E+20
 34
1.000000000000000E+20
 15
-1.000000000000000E+20
 25
-1.000000000000000E+20
 35
-1.000000000000000E+20
146
0.0
 13
0.0
 23
0.0
 33
0.0
 16
1.0
 26
0.0
 36
0.0
 17
0.0
 27
1.0
 37
0.0
 76
     0
330
1F
331
29
  0
MATERIAL
  5
3D
102
{ACAD_REACTORS
330
3B
102
}
330
3B
100
AcDbMaterial
  1
ByBlock
 72
     1
 94
      127
  0
MATERIAL
  5
3C
102
{ACAD_REACTORS
330
3B
102
}
330
3B
100
AcDbMaterial
  1
ByLayer
 72
     1
 94
      127
  0
MATERIAL
  5
3E
102
{ACAD_REACTORS
330
3B
102
}
330
3B
100
AcDbMaterial
  1
Global
 72
     1
 94
      127
  0
MLINESTYLE
  5
18
102
{ACAD_REACTORS
330
17
102
}
330
17
100
AcDbMlineStyle
  2
Standard
 70
     0
  3

 62
   256
 51
90.0
 52
90.0
 71
     2
 49
0.5
 62
   256
  6
BYLAYER
 49
-0.5
 62
   256
  6
BYLAYER
  0
ACDBPLACEHOLDER
  5
F
102
{ACAD_REACTORS
330
E
102
}
330
E
  0
VISUALSTYLE
  5
2F
102
{ACAD_REACTORS
330
2A
102
}
330
2A
100
AcDbVisualStyle
  2
2dWireframe
 70
     4
177
     2
291
     0
 71
     0
176
     1
 72
     2
176
     1
 73
     0
176
     1
 90
        0
176
     1
 40
-0.6
176
     1
 41
-30.0
176
     1
 62
     5
 63
     7
421
 16777215
176
     1
 74
     1
176
     1
 91
        4
176
     1
 64
     7
176
     1
 65
   257
176
     1
 75
     1
176
     1
175
     1
176
     1
 42
1.0
176
     1
 92
        0
176
     1
 66
   257
176
     1
 43
1.0
176
     1
 76
     1
176
     1
 77
     6
176
     1
 78
     2
176
     1
 67
     7
176
     1
 79
     5
176
     1
170
     0
176
     1
171
     0
176
     1
290
     0
176
     1
 93
        1
176
     1
 44
0.0
176
     1
173
     0
176
     1
  0
VISUALSTYLE
  5
31
102
{ACAD_REACTORS
330
2A
102
}
330
2A
100
AcDbVisualStyle
  2
3D Hidden
 70
     6
177
     2
291
     0
 71
     1
176
     1
 72
     2
176
     1
 73
     2
176
     1
 90
        0
176
     1
 40
-0.6
176
     1
 41
-30.0
176
     1
 62
     5
 63
     7
421
 16777215
176
     1
 74
     2
176
     1
 91
        2
176
     1
 64
     7
176
     1
 65
   257
176
     1
 75
     2
176
     1
175
     1
176
     1
 42
40.0
176
     1
 92
        0
176
     1
 66
   257
176
     1
 43
1.0
176
     1
 76
     1
176
     1
 77
     6
176
     1
 78
     2
176
     1
 67
     7
176
     1
 79
     3
176
     1
170
     0
176
     1
171
     0
176
     1
290
     0
176
     1
 93
        1
176
     1
 44
0.0
176
     1
173
     0
176
     1
  0
VISUALSTYLE
  5
30
102
{ACAD_REACTORS
330
2A
102
}
330
2A
100
AcDbVisualStyle
  2
3dWireframe
 70
     5
177
     2
291
     0
 71
     0
176
     1
 72
     2
176
     1
 73
     0
176
     1
 90
        0
176
     1
 40
-0.6
176
     1
 41
-30.0
176
     1
 62
     5
 63
     7
421
 16777215
176
     1
 74
     1
176
     1
 91
        4
176
     1
 64
     7
176
     1
 65
   257
176
     1
 75
     1
176
     1
175
     1
176
     1
 42
1.0
176
     1
 92
        0
176
     1
 66
   257
176
     1
 43
1.0
176
     1
 76
     1
176
     1
 77
     6
176
     1
 78
     2
176
     1
 67
     7
176
     1
 79
     5
176
     1
170
     0
176
     1
171
     0
176
     1
290
     0
176
     1
 93
        1
176
     1
 44
0.0
176
     1
173
     0
176
     1
  0
VISUALSTYLE
  5
32
102
{ACAD_REACTORS
330
2A
102
}
330
2A
100
AcDbVisualStyle
  2
Basic
 70
     7
177
     2
291
     1
 71
     1
176
     1
 72
     0
176
     1
 73
     1
176
     1
 90
        0
176
     1
 40
-0.6
176
     1
 41
-30.0
176
     1
 62
     5
 63
     7
421
 16777215
176
     1
 74
     0
176
     1
 91
        4
176
     1
 64
     7
176
     1
 65
   257
176
     1
 75
     1
176
     1
175
     1
176
     1
 42
1.0
176
     1
 92
        8
176
     1
 66
     7
176
     1
 43
1.0
176
     1
 76
     1
176
     1
 77
     6
176
     1
 78
     2
176
     1
 67
     7
176
     1
 79
     5
176
     1
170
     0
176
     1
171
     0
176
     1
290
     0
176
     1
 93
        1
176
     1
 44
0.0
176
     1
173
     0
176
     1
  0
VISUALSTYLE
  5
36
102
{ACAD_REACTORS
330
2A
102
}
330
2A
100
AcDbVisualStyle
  2
Brighten
 70
    12
177
     2
291
     1
 71
     2
176
     1
 72
     2
176
     1
 73
     0
176
     1
 90
        0
176
     1
 40
-0.6
176
     1
 41
-30.0
176
     1
 62
     5
 63
     7
421
 16777215
176
     1
 74
     1
176
     1
 91
        4
176
     1
 64
     7
176
     1
 65
   257
176
     1
 75
     1
176
     1
175
     1
176
     1
 42
1.0
176
     1
 92
        8
176
     1
 66
     7
176
     1
 43
1.0
176
     1
 76
     1
176
     1
 77
     6
176
     1
 78
     2
176
     1
 67
     7
176
     1
 79
     5
176
     1
170
     0
176
     1
171
     0
176
     1
290
     0
176
     1
 93
        1
176
     1
 44
50.0
176
     1
173
     0
176
     1
  0
VISUALSTYLE
  5
3A
102
{ACAD_REACTORS
330
2A
102
}
330
2A
100
AcDbVisualStyle
  2
ColorChange
 70
    16
177
     2
291
     1
 71
     2
176
     1
 72
     2
176
     1
 73
     3
176
     1
 90
        0
176
     1
 40
-0.6
176
     1
 41
-30.0
176
     1
 62
     5
 63
     8
421
  8421504
176
     1
 74
     1
176
     1
 91
        4
176
     1
 64
     7
176
     1
 65
   257
176
     1
 75
     1
176
     1
175
     1
176
     1
 42
1.0
176
     1
 92
        8
176
     1
 66
     8
424
  8421504
176
     1
 43
1.0
176
     1
 76
     1
176
     1
 77
     6
176
     1
 78
     2
176
     1
 67
     7
176
     1
 79
     5
176
     1
170
     0
176
     1
171
     0
176
     1
290
     0
176
     1
 93
        1
176
     1
 44
0.0
176
     1
173
     0
176
     1
  0
VISUALSTYLE
  5
34
102
{ACAD_REACTORS
330
2A
102
}
330
2A
100
AcDbVisualStyle
  2
Conceptual
 70
     9
177
     2
291
     0
 71
     3
176
     1
 72
     2
176
     1
 73
     0
176
     1
 90
        0
176
     1
 40
-0.6
176
     1
 41
-30.0
176
     1
 62
     5
 63
     7
421
 16777215
176
     1
 74
     2
176
     1
 91
        2
176
     1
 64
     7
176
     1
 65
   257
176
     1
 75
     1
176
     1
175
     1
176
     1
 42
40.0
176
     1
 92
        8
176
     1
 66
     7
176
     1
 43
1.0
176
     1
 76
     1
176
     1
 77
     6
176
     1
 78
     2
176
     1
 67
     7
176
     1
 79
     3
176
     1
170
     0
176
     1
171
     0
176
     1
290
     0
176
     1
 93
        1
176
     1
 44
0.0
176
     1
173
     0
176
     1
  0
VISUALSTYLE
  5
35
102
{ACAD_REACTORS
330
2A
102
}
330
2A
100
AcDbVisualStyle
  2
Dim
 70
    11
177
     2
291
     1
 71
     2
176
     1
 72
     2
176
     1
 73
     0
176
     1
 90
        0
176
     1
 40
-0.6
176
     1
 41
-30.0
176
     1
 62
     5
 63
     7
421
 16777215
176
     1
 74
     1
176
     1
 91
        4
176
     1
 64
     7
176
     1
 65
   257
176
     1
 75
     1
176
     1
175
     1
176
     1
 42
1.0
176
     1
 92
        8
176
     1
 66
     7
176
     1
 43
1.0
176
     1
 76
     1
176
     1
 77
     6
176
     1
 78
     2
176
     1
 67
     7
176
     1
 79
     5
176
     1
170
     0
176
     1
171
     0
176
     1
290
     0
176
     1
 93
        1
176
     1
 44
-50.0
176
     1
173
     0
176
     1
  0
VISUALSTYLE
  5
39
102
{ACAD_REACTORS
330
2A
102
}
330
2A
100
AcDbVisualStyle
  2
Facepattern
 70
    15
177
     2
291
     1
 71
     2
176
     1
 72
     2
176
     1
 73
     0
176
     1
 90
        0
176
     1
 40
-0.6
176
     1
 41
-30.0
176
     1
 62
     5
 63
     7
421
 16777215
176
     1
 74
     1
176
     1
 91
        4
176
     1
 64
     7
176
     1
 65
   257
176
     1
 75
     1
176
     1
175
     1
176
     1
 42
1.0
176
     1
 92
        8
176
     1
 66
     7
176
     1
 43
1.0
176
     1
 76
     1
176
     1
 77
     6
176
     1
 78
     2
176
     1
 67
     7
176
     1
 79
     5
176
     1
170
     0
176
     1
171
     0
176
     1
290
     0
176
     1
 93
        1
176
     1
 44
0.0
176
     1
173
     0
176
     1
  0
VISUALSTYLE
  5
2B
102
{ACAD_REACTORS
330
2A
102
}
330
2A
100
AcDbVisualStyle
  2
Flat
 70
     0
177
     2
291
     1
 71
     2
176
     1
 72
     1
176
     1
 73
     1
176
     1
 90
        2
176
     1
 40
-0.6
176
     1
 41
30.0
176
     1
 62
     5
 63
     7
421
 16777215
176
     1
 74
     0
176
     1
 91
        4
176
     1
 64
     7
176
     1
 65
   257
176
     1
 75
     1
176
     1
175
     1
176
     1
 42
1.0
176
     1
 92
        8
176
     1
 66
     7
176
     1
 43
1.0
176
     1
 76
     1
176
     1
 77
     6
176
     1
 78
     2
176
     1
 67
     7
176
     1
 79
     5
176
     1
170
     0
176
     1
171
     0
176
     1
290
     0
176
     1
 93
       13
176
     1
 44
0.0
176
     1
173
     0
176
     1
  0
VISUALSTYLE
  5
2C
102
{ACAD_REACTORS
330
2A
102
}
330
2A
100
AcDbVisualStyle
  2
FlatWithEdges
 70
     1
177
     2
291
     1
 71
     2
176
     1
 72
     1
176
     1
 73
     1
176
     1
 90
        2
176
     1
 40
-0.6
176
     1
 41
30.0
176
     1
 62
     5
 63
     7
421
 16777215
176
     1
 74
     1
176
     1
 91
        4
176
     1
 64
     7
176
     1
 65
   257
176
     1
 75
     1
176
     1
175
     1
176
     1
 42
1.0
176
     1
 92
        0
176
     1
 66
   257
176
     1
 43
1.0
176
     1
 76
     1
176
     1
 77
     6
176
     1
 78
     2
176
     1
 67
     7
176
     1
 79
     5
176
     1
170
     0
176
     1
171
     0
176
     1
290
     0
176
     1
 93
       13
176
     1
 44
0.0
176
     1
173
     0
176
     1
  0
VISUALSTYLE
  5
2D
102
{ACAD_REACTORS
330
2A
102
}
330
2A
100
AcDbVisualStyle
  2
Gouraud
 70
     2
177
     2
291
     1
 71
     2
176
     1
 72
     2
176
     1
 73
     1
176
     1
 90
        2
176
     1
 40
-0.6
176
     1
 41
30.0
176
     1
 62
     5
 63
     7
421
 16777215
176
     1
 74
     0
176
     1
 91
        4
176
     1
 64
     7
176
     1
 65
   257
176
     1
 75
     1
176
     1
175
     1
176
     1
 42
1.0
176
     1
 92
        0
176
     1
 66
     7
176
     1
 43
1.0
176
     1
 76
     1
176
     1
 77
     6
176
     1
 78
     2
176
     1
 67
     7
176
     1
 79
     5
176
     1
170
     0
176
     1
171
     0
176
     1
290
     0
176
     1
 93
       13
176
     1
 44
0.0
176
     1
173
     0
176
     1
  0
VISUALSTYLE
  5
2E
102
{ACAD_REACTORS
330
2A
102
}
330
2A
100
AcDbVisualStyle
  2
GouraudWithEdges
 70
     3
177
     2
291
     1
 71
     2
176
     1
 72
     2
176
     1
 73
     1
176
     1
 90
        2
176
     1
 40
-0.6
176
     1
 41
30.0
176
     1
 62
     5
 63
     7
421
 16777215
176
     1
 74
     1
176
     1
 91
        4
176
     1
 64
     7
176
     1
 65
   257
176
     1
 75
     1
176
     1
175
     1
176
     1
 42
1.0
176
     1
 92
        0
176
     1
 66
   257
176
     1
 43
1.0
176
     1
 76
     1
176
     1
 77
     6
176
     1
 78
     2
176
     1
 67
     7
176
     1
 79
     5
176
     1
170
     0
176
     1
171
     0
176
     1
290
     0
176
     1
 93
       13
176
     1
 44
0.0
176
     1
173
     0
176
     1
  0
VISUALSTYLE
  5
38
102
{ACAD_REACTORS
330
2A
102
}
330
2A
100
AcDbVisualStyle
  2
Linepattern
 70
    14
177
     2
291
     1
 71
     2
176
     1
 72
     2
176
     1
 73
     0
176
     1
 90
        0
176
     1
 40
-0.6
176
     1
 41
-30.0
176
     1
 62
     5
 63
     7
421
 16777215
176
     1
 74
     1
176
     1
 91
        4
176
     1
 64
     7
176
     1
 65
   257
176
     1
 75
     7
176
     1
175
     7
176
     1
 42
1.0
176
     1
 92
        8
176
     1
 66
     7
176
     1
 43
1.0
176
     1
 76
     1
176
     1
 77
     6
176
     1
 78
     2
176
     1
 67
     7
176
     1
 79
     5
176
     1
170
     0
176
     1
171
     0
176
     1
290
     0
176
     1
 93
        1
176
     1
 44
0.0
176
     1
173
     0
176
     1
  0
VISUALSTYLE
  5
33
102
{ACAD_REACTORS
330
2A
102
}
330
2A
100
AcDbVisualStyle
  2
Realistic
 70
     8
177
     2
291
     0
 71
     2
176
     1
 72
     2
176
     1
 73
     0
176
     1
 90
        0
176
     1
 40
-0.6
176
     1
 41
-30.0
176
     1
 62
     5
 63
     7
421
 16777215
176
     1
 74
     1
176
     1
 91
        0
176
     1
 64
     7
176
     1
 65
   257
176
     1
 75
     1
176
     1
175
     1
176
     1
 42
1.0
176
     1
 92
        8
176
     1
 66
     8
424
  7895160
176
     1
 43
1.0
176
     1
 76
     1
176
     1
 77
     6
176
     1
 78
     2
176
     1
 67
     7
176
     1
 79
     5
176
     1
170
     0
176
     1
171
     0
176
     1
290
     0
176
     1
 93
       13
176
     1
 44
0.0
176
     1
173
     0
176
     1
  0
VISUALSTYLE
  5
37
102
{ACAD_REACTORS
330
2A
102
}
330
2A
100
AcDbVisualStyle
  2
Thicken
 70
    13
177
     2
291
     1
 71
     2
176
     1
 72
     2
176
     1
 73
     0
176
     1
 90
        0
176
     1
 40
-0.6
176
     1
 41
-30.0
176
     1
 62
     5
 63
     7
421
 16777215
176
     1
 74
     1
176
     1
 91
        4
176
     1
 64
     7
176
     1
 65
   257
176
     1
 75
     1
176
     1
175
     1
176
     1
 42
1.0
176
     1
 92
       12
176
     1
 66
     7
176
     1
 43
1.0
176
     1
 76
     1
176
     1
 77
     6
176
     1
 78
     2
176
     1
 67
     7
176
     1
 79
     5
176
     1
170
     0
176
     1
171
     0
176
     1
290
     0
176
     1
 93
        1
176
     1
 44
0.0
176
     1
173
     0
176
     1
  0
ENDSEC
  0
EOF
