<?xml version="1.0" encoding="utf-8"?>
<!-- Generator: Adobe Illustrator 25.4.1, SVG Export Plug-In . SVG Version: 6.00 Build 0)  -->
<svg version="1.1" id="Layer_1" xmlns="http://www.w3.org/2000/svg" xmlns:xlink="http://www.w3.org/1999/xlink" x="0px" y="0px"
	 viewBox="0 0 1783.9 887.2" style="enable-background:new 0 0 1783.9 887.2;" xml:space="preserve">
<style type="text/css">
	
		.st0{fill-rule:evenodd;clip-rule:evenodd;fill:none;stroke:#FF0000;stroke-width:7.0866;stroke-linecap:round;stroke-linejoin:round;stroke-miterlimit:2.6131;}
	
		.st1{fill-rule:evenodd;clip-rule:evenodd;fill:#373435;stroke:#000000;stroke-width:0.5;stroke-linecap:round;stroke-linejoin:round;stroke-miterlimit:2.6131;}
	
		.st2{fill-rule:evenodd;clip-rule:evenodd;fill:#FFFF00;stroke:#000000;stroke-width:0.5;stroke-linecap:round;stroke-linejoin:round;stroke-miterlimit:2.6131;}
	
		.st3{fill-rule:evenodd;clip-rule:evenodd;fill:none;stroke:#000000;stroke-width:0.2835;stroke-linecap:round;stroke-linejoin:round;stroke-miterlimit:2.6131;}
	
		.st4{fill-rule:evenodd;clip-rule:evenodd;fill:none;stroke:#FFFF00;stroke-width:0.2835;stroke-linecap:round;stroke-linejoin:round;stroke-miterlimit:2.6131;}
</style>
<g>
	<path class="st0" d="M52.5,3.5h1678.8c26.9,0,49,22,49,49v782.1c0,26.9-22,49-49,49H52.5c-26.9,0-49-22-49-49V52.5
		C3.5,25.6,25.6,3.5,52.5,3.5z"/>
	<path class="st1" d="M189,842.4h-21v-3.6h21V842.4L189,842.4z M189,832.7h-21V829h21V832.7L189,832.7z M140.5,851.4l-7-23.1h4.1
		l3.7,13.3l1.3,5c0.1-0.2,0.5-1.8,1.2-4.8l3.7-13.5h4l3.5,13.4l1.1,4.4l1.3-4.5l4-13.3h3.8l-7.2,23.1h-4l-3.7-13.8l-0.9-4l-4.7,17.8
		H140.5L140.5,851.4z M114.2,839.9c0,3,0.6,5.2,1.9,6.6c1.3,1.5,2.9,2.2,4.9,2.2c1.9,0,3.6-0.7,4.9-2.2c1.3-1.5,1.9-3.7,1.9-6.7
		c0-2.8-0.7-5-1.9-6.5c-1.3-1.5-2.9-2.2-4.8-2.2c-2,0-3.6,0.7-4.9,2.2C114.8,834.7,114.2,836.9,114.2,839.9L114.2,839.9z
		 M110.2,839.9c0-4.3,1.2-7.4,3.6-9.5c2-1.7,4.4-2.6,7.3-2.6c3.2,0,5.8,1,7.8,3.1c2,2.1,3,4.9,3,8.6c0,3-0.4,5.3-1.3,7
		c-0.9,1.7-2.2,3-3.9,4c-1.7,0.9-3.6,1.4-5.6,1.4c-3.2,0-5.8-1-7.8-3.1C111.2,846.7,110.2,843.8,110.2,839.9L110.2,839.9z
		 M101.7,851.4v-31.9h3.9v31.9H101.7L101.7,851.4z M91.8,851.4v-31.9h3.9v31.9H91.8L91.8,851.4z M70.1,837.7h12.9
		c-0.2-1.9-0.7-3.4-1.5-4.4c-1.2-1.5-2.9-2.3-4.8-2.3c-1.8,0-3.3,0.6-4.5,1.8C70.9,834.1,70.2,835.7,70.1,837.7L70.1,837.7z
		 M82.9,844l4,0.5c-0.6,2.4-1.8,4.2-3.5,5.5c-1.7,1.3-3.9,2-6.6,2c-3.4,0-6-1-8-3.1c-2-2.1-3-5-3-8.7c0-3.9,1-6.9,3-9
		c2-2.1,4.6-3.2,7.8-3.2c3.1,0,5.6,1,7.5,3.1c1.9,2.1,2.9,5,2.9,8.9c0,0.2,0,0.6,0,1H69.8c0.1,2.5,0.9,4.5,2.1,5.8
		c1.3,1.3,2.9,2,4.8,2c1.4,0,2.7-0.4,3.7-1.1C81.5,846.8,82.3,845.6,82.9,844L82.9,844z M51,851.4h4.2v-13.5L68,819.6H63l-6.2,9.4
		c-1.4,2.1-2.6,3.9-3.5,5.6c-1-1.8-2.1-3.6-3.3-5.4l-6.3-9.6h-5.1L51,837.9V851.4z"/>
	<path class="st2" d="M204.1,842.2l3.4-0.3c0.2,1.4,0.5,2.5,1.1,3.4c0.6,0.9,1.5,1.6,2.8,2.2c1.3,0.5,2.7,0.8,4.3,0.8
		c1.4,0,2.6-0.2,3.7-0.6c1.1-0.4,1.9-1,2.4-1.7c0.5-0.7,0.8-1.5,0.8-2.4c0-0.9-0.3-1.6-0.8-2.3c-0.5-0.6-1.3-1.2-2.5-1.6
		c-0.7-0.3-2.4-0.7-4.9-1.4c-2.6-0.6-4.3-1.2-5.4-1.7c-1.3-0.7-2.3-1.6-3-2.6c-0.7-1-1-2.2-1-3.5c0-1.4,0.4-2.7,1.2-3.9
		c0.8-1.2,2-2.1,3.5-2.8c1.5-0.6,3.2-0.9,5.1-0.9c2.1,0,3.9,0.3,5.4,1c1.6,0.7,2.8,1.6,3.6,2.9c0.8,1.3,1.3,2.7,1.4,4.4l-3.5,0.3
		c-0.2-1.8-0.8-3.1-1.9-4c-1.1-0.9-2.7-1.3-4.8-1.3c-2.2,0-3.8,0.4-4.9,1.2c-1,0.8-1.5,1.8-1.5,2.9c0,1,0.4,1.8,1.1,2.5
		c0.7,0.6,2.6,1.3,5.5,2c3,0.7,5,1.3,6.1,1.8c1.6,0.7,2.8,1.7,3.6,2.8c0.8,1.1,1.1,2.4,1.1,3.9c0,1.5-0.4,2.9-1.3,4.2
		c-0.8,1.3-2.1,2.3-3.6,3c-1.6,0.7-3.4,1.1-5.3,1.1c-2.5,0-4.6-0.4-6.3-1.1c-1.7-0.7-3-1.8-4-3.3
		C204.7,845.7,204.2,844.1,204.1,842.2L204.1,842.2z M251,841.4l3.7,0.9c-0.8,3-2.2,5.3-4.1,6.9c-2,1.6-4.4,2.4-7.3,2.4
		c-3,0-5.4-0.6-7.3-1.8c-1.9-1.2-3.3-3-4.3-5.3c-1-2.3-1.5-4.8-1.5-7.4c0-2.9,0.5-5.4,1.7-7.6c1.1-2.2,2.7-3.8,4.7-4.9
		c2-1.1,4.3-1.7,6.7-1.7c2.8,0,5.1,0.7,7,2.1c1.9,1.4,3.2,3.4,4,6l-3.6,0.9c-0.6-2-1.6-3.5-2.8-4.4c-1.2-0.9-2.8-1.4-4.6-1.4
		c-2.1,0-3.9,0.5-5.3,1.5s-2.4,2.4-3,4.1c-0.6,1.7-0.9,3.5-0.9,5.3c0,2.4,0.3,4.4,1,6.2c0.7,1.8,1.8,3.1,3.2,3.9
		c1.4,0.9,3,1.3,4.7,1.3c2.1,0,3.8-0.6,5.2-1.8C249.5,845.5,250.5,843.7,251,841.4L251,841.4z M258.1,837.6c0-4.6,1.2-8.2,3.7-10.8
		c2.5-2.6,5.7-3.9,9.6-3.9c2.6,0,4.9,0.6,6.9,1.8c2.1,1.2,3.6,2.9,4.7,5.1c1.1,2.2,1.6,4.7,1.6,7.4c0,2.8-0.6,5.3-1.7,7.5
		c-1.1,2.2-2.7,3.9-4.8,5c-2.1,1.1-4.3,1.7-6.7,1.7c-2.6,0-4.9-0.6-7-1.9c-2.1-1.3-3.6-3-4.7-5.2
		C258.6,842.4,258.1,840.1,258.1,837.6L258.1,837.6z M261.9,837.7c0,3.3,0.9,6,2.7,7.9c1.8,1.9,4.1,2.9,6.8,2.9c2.8,0,5-1,6.8-2.9
		c1.8-1.9,2.7-4.7,2.7-8.3c0-2.3-0.4-4.2-1.1-5.9c-0.8-1.7-1.9-3-3.3-3.9c-1.5-0.9-3.1-1.4-4.9-1.4c-2.6,0-4.8,0.9-6.7,2.7
		C262.8,830.5,261.9,833.5,261.9,837.7L261.9,837.7z M289.4,851.1v-27.8h12.3c2.5,0,4.4,0.3,5.6,0.7c1.3,0.5,2.3,1.4,3.1,2.6
		c0.8,1.3,1.1,2.7,1.1,4.2c0,2-0.6,3.6-1.9,5c-1.3,1.4-3.2,2.2-5.9,2.6c1,0.5,1.7,0.9,2.2,1.4c1.1,1,2.1,2.2,3,3.7l4.8,7.6h-4.6
		l-3.7-5.8c-1.1-1.7-2-2.9-2.6-3.8c-0.7-0.9-1.3-1.5-1.9-1.9c-0.5-0.3-1.1-0.6-1.7-0.7c-0.4-0.1-1.1-0.1-2-0.1h-4.3v12.3H289.4
		L289.4,851.1z M293.1,835.6h7.9c1.7,0,3-0.2,3.9-0.5c0.9-0.3,1.7-0.9,2.1-1.7c0.5-0.8,0.7-1.6,0.7-2.5c0-1.3-0.5-2.4-1.4-3.2
		c-0.9-0.8-2.4-1.3-4.5-1.3h-8.8V835.6L293.1,835.6z M317.4,851.1v-27.8h20v3.3h-16.4v8.5h15.3v3.3h-15.3v9.5h17v3.3H317.4z"/>
	<path class="st2" d="M361.4,851.2v-28.6h3.8v11.8h14.8v-11.8h3.8v28.6h-3.8v-13.5h-14.8v13.5H361.4L361.4,851.2z M403.2,848.6
		c-1.3,1.1-2.6,1.9-3.8,2.4c-1.2,0.5-2.5,0.7-3.9,0.7c-2.3,0-4-0.6-5.3-1.7c-1.2-1.1-1.8-2.5-1.8-4.2c0-1,0.2-1.9,0.7-2.8
		c0.5-0.8,1.1-1.5,1.8-2c0.8-0.5,1.6-0.9,2.5-1.2c0.7-0.2,1.7-0.4,3.1-0.5c2.8-0.3,4.9-0.7,6.3-1.2c0-0.5,0-0.8,0-0.9
		c0-1.4-0.3-2.4-1-3c-0.9-0.8-2.2-1.2-4-1.2c-1.7,0-2.9,0.3-3.7,0.9c-0.8,0.6-1.4,1.6-1.8,3.1l-3.4-0.5c0.3-1.5,0.8-2.7,1.5-3.6
		c0.7-0.9,1.8-1.6,3.1-2.1c1.4-0.5,2.9-0.7,4.7-0.7c1.8,0,3.2,0.2,4.3,0.6c1.1,0.4,1.9,0.9,2.4,1.6c0.5,0.6,0.9,1.4,1.1,2.4
		c0.1,0.6,0.2,1.7,0.2,3.2v4.7c0,3.3,0.1,5.3,0.2,6.2c0.1,0.9,0.4,1.7,0.9,2.5h-3.7C403.5,850.4,403.3,849.6,403.2,848.6
		L403.2,848.6z M402.9,840.8c-1.3,0.5-3.2,1-5.8,1.3c-1.5,0.2-2.5,0.4-3.1,0.7c-0.6,0.3-1.1,0.6-1.4,1.1c-0.3,0.5-0.5,1.1-0.5,1.7
		c0,0.9,0.4,1.7,1.1,2.3c0.7,0.6,1.8,0.9,3.1,0.9c1.4,0,2.6-0.3,3.6-0.9c1.1-0.6,1.8-1.4,2.3-2.4c0.4-0.8,0.6-2,0.6-3.5L402.9,840.8
		L402.9,840.8z M411.8,851.2v-28.6h3.5v28.6H411.8L411.8,851.2z M421.6,851.2v-18h-3.1v-2.7h3.1v-2.2c0-1.4,0.1-2.4,0.4-3.1
		c0.3-0.9,0.9-1.6,1.8-2.2c0.8-0.6,2-0.8,3.6-0.8c1,0,2.1,0.1,3.3,0.4l-0.5,3.1c-0.7-0.1-1.4-0.2-2.1-0.2c-1.1,0-1.8,0.2-2.3,0.7
		c-0.4,0.5-0.7,1.3-0.7,2.5v1.9h4v2.7h-4v18H421.6L421.6,851.2z M463.7,841.1l3.8,1c-0.8,3.1-2.2,5.5-4.3,7.1
		c-2.1,1.6-4.6,2.5-7.6,2.5c-3.1,0-5.6-0.6-7.5-1.9c-1.9-1.3-3.4-3.1-4.4-5.4c-1-2.4-1.5-4.9-1.5-7.7c0-3,0.6-5.6,1.7-7.8
		c1.1-2.2,2.8-3.9,4.9-5.1c2.1-1.2,4.4-1.7,6.9-1.7c2.9,0,5.3,0.7,7.2,2.2c2,1.5,3.3,3.5,4.1,6.1l-3.7,0.9c-0.7-2.1-1.6-3.6-2.9-4.5
		c-1.3-1-2.8-1.4-4.8-1.4c-2.2,0-4,0.5-5.5,1.6c-1.5,1.1-2.5,2.5-3.1,4.2c-0.6,1.8-0.9,3.6-0.9,5.5c0,2.4,0.4,4.6,1.1,6.4
		c0.7,1.8,1.8,3.2,3.3,4.1c1.5,0.9,3.1,1.3,4.8,1.3c2.1,0,3.9-0.6,5.4-1.8C462.2,845.4,463.2,843.6,463.7,841.1L463.7,841.1z
		 M485.3,851.2v-3.1c-1.6,2.4-3.8,3.5-6.6,3.5c-1.2,0-2.4-0.2-3.4-0.7c-1.1-0.5-1.8-1.1-2.4-1.8c-0.5-0.7-0.9-1.6-1.1-2.6
		c-0.1-0.7-0.2-1.8-0.2-3.3v-12.8h3.5v11.5c0,1.8,0.1,3.1,0.2,3.7c0.2,0.9,0.7,1.6,1.4,2.2c0.7,0.5,1.6,0.8,2.6,0.8
		c1.1,0,2-0.3,3-0.8c0.9-0.5,1.6-1.3,2-2.2c0.4-0.9,0.6-2.3,0.6-4v-11.1h3.5v20.7H485.3L485.3,851.2z M501.6,848l0.5,3.1
		c-1,0.2-1.9,0.3-2.6,0.3c-1.3,0-2.3-0.2-3-0.6c-0.7-0.4-1.2-0.9-1.5-1.6c-0.3-0.7-0.4-2-0.4-4.2v-11.9H492v-2.7h2.6v-5.1l3.5-2.1
		v7.2h3.5v2.7h-3.5v12.1c0,1,0.1,1.7,0.2,1.9c0.1,0.3,0.3,0.5,0.6,0.7c0.3,0.2,0.7,0.3,1.2,0.3C500.5,848.2,501,848.1,501.6,848z"/>
	
		<rect x="331.1" y="835.7" transform="matrix(0.2564 -0.9666 0.9666 0.2564 -548.4147 960.9243)" class="st2" width="38.4" height="2.3"/>
</g>
<g>
	<g>
		<path class="st3" d="M1416.6,577c1.3-5.3,2.4-10.7,3.2-16.1l0-0.3l0-0.3c5.6-68.3-15-148.6-73.7-186c12.8,0,25.6,0,38.3,0
			c31.9,0,63.7,0,95.6,0c9.8,0,17.7-7.9,17.7-17.7c0-7.8-5-14.3-11.9-16.7c0-2.5,0-4.9-0.3-7.4c-1-7.9-4.8-14-11-18.8
			c0.7-1.7,1.1-3.5,1.1-5.5c0-1.4-0.2-2.7-0.6-4c0.4-1.3,0.6-2.7,0.6-4.1c0-2-0.4-3.8-1.1-5.5c6.1-4.8,9.9-10.8,10.9-18.7
			c0.3-2.5,0.4-4.9,0.3-7.4c6.8-2.5,11.7-9,11.7-16.7c0-9.8-7.9-17.7-17.7-17.7c-37.3,0-74.6,0-112,0c3.1-10.8,0.8-23.5-4.3-33.2
			c-6.1-11.6-18-18.3-31-18.9c-5.4-0.2-10.6,0.5-15.5,2c1.2-3.4,2.6-6.6,4.3-9.6c2.9-5,6.7-9.3,11.5-12.5c0,1-0.1,2-0.1,3.1
			c0,0.6,0,1.9-0.2,2.5l-2.6,6.3l5.7,3.9c5.4,3.7,11.3,5.5,17.6,3.3c0.3-0.1,0.6-0.2,0.9-0.3c2.1,4.7,5.1,9.1,8.3,12.3
			c1.6,1.6,3.2,3.2,4.8,4.8c3.2,3.2,7.4,4.6,11.9,4c4.5-0.6,8.2-3.1,10.4-7.1c1.3-2.3,2.4-4.5,3.3-7c1-3,1.5-6,1.5-8.8
			c6.9-0.1,13.9-1.5,18.6-4.2c3.6-2.1,6.8-4.9,10.1-7.5c1.7-1.4,4.6-3.6,6.7-4.2c0.1,0,0.2,0,0.2-0.1l8-1.7c2.4-0.5,4.1-2.4,4.4-4.9
			c0.3-2.4-0.9-4.7-3.2-5.8l-7.4-3.6c-0.1,0-0.1-0.1-0.2-0.1c-1.9-1.1-4.2-3.9-5.5-5.6c-2.6-3.3-5-6.8-8-9.7c-4.1-3.9-11-6.5-18-7.8
			c0.6-2.5,0.9-5.2,0.8-8c-0.1-2.9-0.5-5.4-1-7.9c-1-4.7-3.9-8.2-8.2-10.1c-4.4-1.9-9-1.6-13,0.9c-1.8,1.1-3.5,2.2-5.3,3.3
			c-3.9,2.4-7.8,5.9-11,10c-0.2-0.2-0.5-0.4-0.8-0.5c-5.6-3.7-11.8-3.2-17.9-0.9l-6.5,2.5l1.1,6.7c0,1.7-1.1,6-1.4,7.9
			c-0.2,1.6-0.4,3.2-0.4,4.8c-8.1,1.3-15.6,4.6-22.5,9.9c-4.1,3.2-7.7,6.8-10.8,10.6l1.3-4.7c1.4-4.8,1.3-9.5-1.3-13.7
			c2.3-2.4,4.2-5,5.5-7.6c0.4-0.8,0.8-1.6,1.2-2.4c2.1-4.3,2.1-8.9-0.2-13.1c-2.3-4.2-6.1-6.8-10.9-7.3c-0.9-0.1-1.8-0.2-2.7-0.2
			c-1.7,0-3.4,0.2-4.9,0.5c-1.7-4.3-4.2-8.2-7-10.6c-2.4-2.1-5.1-3.7-7.7-5.4c-0.9-0.6-3.1-2-3.7-2.9c0,0,0-0.1-0.1-0.1l-4.1-7
			c-1.3-2.1-3.6-3.2-6-2.7c-2.4,0.5-4.2,2.4-4.5,4.8l-1.1,8.1c0,0,0,0.1,0,0.1c-0.2,1.1-1.6,3.2-2.2,4.2c-1.7,2.6-3.6,5.1-4.9,8
			c-1.7,3.5-2.1,8.3-1.7,13c-1.3,0.3-2.5,0.6-3.8,1.1c-0.9,0.3-1.7,0.7-2.5,1c-4.5,2.1-7.3,6.1-8,11c-0.6,4.9,1.1,9.5,4.9,12.6
			c0.5,0.4,1.1,0.9,1.6,1.3c2.2,1.9,5,3.6,8.1,4.8c-0.7,4.7,1,9,3.9,12.8c-8.3-0.7-16.6,1.2-22.8,6.2c-3.3-5.2-7-10.1-10-13.8
			l-2.2-2.7c-1.1-1.4-2.6-2.1-4.4-2.1c-1.8,0-3.3,0.7-4.4,2.1l-2.2,2.7c-3,3.7-6.7,8.7-10,13.8c-6.2-5.1-14.5-6.9-22.8-6.2
			c3-3.8,4.7-8.1,3.9-12.8c3-1.3,5.8-3,8.1-4.8c0.5-0.4,1.1-0.9,1.6-1.3c3.8-3.2,5.6-7.7,4.9-12.6c-0.6-4.9-3.5-8.9-8-11
			c-0.8-0.4-1.6-0.7-2.5-1c-1.3-0.5-2.5-0.8-3.8-1.1c0.4-4.8-0.1-9.5-1.7-13c-1.3-2.8-3.2-5.4-4.9-8c-0.6-0.9-2-3.1-2.2-4.2
			c0,0,0-0.1,0-0.1l-1.1-8.1c-0.3-2.4-2.1-4.3-4.5-4.8c-2.4-0.5-4.8,0.5-6,2.7l-4.1,7c0,0,0,0.1-0.1,0.1c-0.6,0.9-2.8,2.3-3.7,2.9
			c-2.6,1.7-5.3,3.3-7.7,5.4c-2.8,2.5-5.2,6.4-7,10.6c-1.6-0.3-3.2-0.5-4.9-0.5c-0.9,0-1.8,0.1-2.7,0.2c-4.7,0.5-8.6,3.1-10.9,7.3
			c-2.3,4.2-2.4,8.8-0.2,13.1c0.4,0.8,0.8,1.6,1.2,2.4c1.3,2.6,3.2,5.3,5.5,7.6c-2.6,4.1-2.7,8.9-1.3,13.7l1.3,4.7
			c-3.1-3.9-6.6-7.5-10.8-10.6c-6.9-5.3-14.3-8.7-22.5-9.9c0-1.6-0.2-3.2-0.4-4.8c-0.3-1.9-1.4-6.2-1.4-7.9l1.1-6.7l-6.5-2.5
			c-6.1-2.3-12.3-2.7-17.9,0.9c-0.3,0.2-0.5,0.3-0.8,0.5c-3.2-4.1-7.1-7.7-11-10c-1.8-1.1-3.5-2.2-5.3-3.3c-4.1-2.5-8.7-2.8-13-0.9
			c-4.4,1.9-7.3,5.5-8.2,10.1c-0.5,2.5-0.9,5-1,7.9c-0.1,2.8,0.2,5.5,0.8,8c-7,1.3-13.9,3.9-18,7.8c-3,2.9-5.5,6.4-8,9.7
			c-1.4,1.7-3.6,4.6-5.5,5.6c-0.1,0-0.2,0.1-0.2,0.1l-7.4,3.6c-2.2,1.1-3.4,3.3-3.2,5.8c0.3,2.4,2,4.3,4.4,4.9l8,1.7
			c0.1,0,0.2,0,0.2,0.1c2.1,0.6,5,2.8,6.7,4.2c3.3,2.6,6.5,5.4,10.1,7.5c4.7,2.7,11.7,4.1,18.6,4.2c0,2.9,0.4,5.8,1.5,8.8
			c0.8,2.5,2,4.7,3.3,7c2.2,4,5.9,6.5,10.4,7.1c4.5,0.6,8.7-0.8,11.9-4c1.6-1.6,3.2-3.2,4.8-4.8c3.2-3.2,6.2-7.6,8.3-12.3
			c0.3,0.1,0.6,0.2,0.9,0.3c6.3,2.3,12.3,0.4,17.6-3.3l5.7-3.9l-2.6-6.3c-0.2-0.6-0.2-1.8-0.2-2.5c0-1-0.1-2-0.1-3.1
			c4.7,3.2,8.5,7.5,11.5,12.5c1.7,3,3.1,6.2,4.3,9.6c-4.9-1.5-10.1-2.3-15.5-2c-12.9,0.6-24.9,7.3-31,18.9
			c-5.1,9.7-7.4,22.4-4.3,33.2c-37.3,0-74.6,0-112,0c-9.8,0-17.7,7.9-17.7,17.7c0,9.8,7.9,17.7,17.7,17.7c4.8,0,9.5,0,14.3,0
			c0,1.7-0.2,3.5-0.4,4.6c-0.8,3.8-1.6,7.5-2.4,11.3l0,0.1l0,0.1c-0.7,4.1-2.9,9.4-6.2,12.1l-6.8,5.6l5.8,6.6
			c1.5,1.8,0.9,7.6,0.5,9.7c-0.8,3.8-1.6,7.7-2.4,11.6c-0.4,2.1-1.6,5.5-3,7.9c-9.3,0.5-16.8,8.2-16.8,17.7
			c0,9.8,7.9,17.7,17.7,17.7c31.9,0,63.7,0,95.6,0c14.3,0,28.6,0,42.9,0h1.4c-63.7,41.7-92.8,129.1-76,202.4
			c-21.2,8.9-44.2,12.3-66.8,5.8c-7-2-14.1-5.6-20.8-8.4c-1.1-0.5-2.3-0.8-3.5-0.8c-5.7-0.3-10.5,4.1-10.8,9.7
			c-0.1,1.2,0.1,2.5,0.5,3.6c8,25.7,1.6,48.5-20.2,64.7c-12.2,9.1-25.6,14.2-40.9,13.5c-6.8-0.3-11.4,6.2-8.8,12.5
			c16.4,41-12.6,77.2-48.2,94.8c-6.9,3.4-10.3,10.3-8.3,17.8c2.2,8.2,6.9,14.2,14.8,17.5c6.1,2.5,13,3,19.5,3.5
			c36,2.9,71-1.9,104.9-14.4c15.4-5.7,29.5-13.9,44.4-20.4c1.6-0.7,3-0.7,4.7,0c3.3,1.4,6.9,2.1,10.5,2.1c15,0,27.1-12.1,27.1-27.1
			c0-5.3-1.5-10.5-4.5-14.9c-1.4-2.2-1.4-4.7,0.2-6.8c16.7-22.5,41.3-47.4,68-58.4c15.9,11.5,33.7,19.9,52.4,25.6l0.3,0.1l0.3,0.1
			c10.8,2.5,21.2,3,31.9-0.1c6.3-1.8,12-4.6,17.7-7.7c2.1,1.9,4.1,3.7,5.9,5.7c2.4,2.7,2.7,6.5,2.5,10c-0.3,5.4-2,10.5-3.6,15.6
			c-2.1,6.8-3.5,13.1-2.8,20.3l0.4,4l3.3,2.2c12.6,8.5,25.4,15.9,39,22.7c7.6,3.8,14.8,8.3,23.2,10.5c11.5,3.1,21.7,0.4,29.3-9.1
			l1.6-2l0.2-2.5c0.8-8.1-0.4-11.6-5.9-17.4c-12.8-13.2-30.7-35.6-17.1-54.1c1.1-1.5,4.6-6.2,6.6-7.9c1.3,0.6,3.2,1.8,4.1,2.3
			c4.1,2.2,8.2,3.9,12.7,5.2c30.8,8.6,60.5-2.3,84.2-21.9c25,11.7,47.9,35.1,64,56.6c1.6,2.1,1.6,4.6,0.2,6.8
			c-2.9,4.4-4.5,9.6-4.5,14.9c0,15,12.1,27.1,27.1,27.1c3.6,0,7.2-0.7,10.5-2.1c1.6-0.7,3-0.7,4.7,0c15,6.5,29,14.7,44.4,20.4
			c33.9,12.5,68.9,17.3,104.9,14.4c6.5-0.5,13.4-1,19.5-3.5c7.8-3.3,12.5-9.3,14.8-17.5c2-7.5-1.4-14.4-8.3-17.8
			c-35.6-17.6-64.6-53.8-48.2-94.8c2.5-6.3-2-12.8-8.8-12.5c-15.3,0.6-28.7-4.5-40.9-13.5c-21.8-16.2-28.2-39-20.2-64.7
			c0.4-1.2,0.5-2.4,0.5-3.6c-0.3-5.7-5.2-10-10.8-9.7c-1.2,0.1-2.4,0.3-3.5,0.8c-6.7,2.9-13.8,6.4-20.8,8.4
			C1460.4,589,1437.6,585.8,1416.6,577L1416.6,577z M991.2,751.1c0-5.5-4.5-10-10-10c-5.5,0-10,4.5-10,10c0,5.5,4.5,10,10,10
			C986.7,761.1,991.2,756.6,991.2,751.1L991.2,751.1z M1435.2,751.1c0-5.5,4.5-10,10-10s10,4.5,10,10c0,5.5-4.5,10-10,10
			S1435.2,756.6,1435.2,751.1z"/>
		<path class="st4" d="M1411.4,559.7c-1.1,7.4-2.8,14.8-4.9,22.1c24.8,11.8,51.9,16.6,78.6,8.9c7-2,14.7-5.7,21.8-8.8
			c0.2-0.1,0.4-0.1,0.6-0.1c1-0.1,1.9,0.7,1.9,1.7c0,0.2,0,0.4-0.1,0.6c-9.3,29.8-1,56,23.2,74.1c13.7,10.2,28.8,15.9,46.3,15.2
			c0.7,0,0.9,0.3,0.6,0.9c-18.2,45.6,13,86.1,52.3,105.5c3.3,1.7,4.8,4.5,3.8,7.9c-3.6,13-13.8,13.7-26.7,14.8
			c-34.7,2.8-68.5-1.8-101.3-13.9c-15.1-5.6-29.6-14-44-20.2c-3.8-1.6-7.6-1.7-11.4-0.1c-2.2,0.9-4.7,1.4-7.2,1.4
			c-10.3,0-18.6-8.3-18.6-18.6c0-3.8,1.1-7.3,3.1-10.2c3.4-5.2,3.2-11.6-0.5-16.5c-17.8-23.9-43.7-50-72.3-61.4
			c-23.3,20.9-51.7,31.7-80.4,23.6c-19.2-5.4-17.6-16.8-32.6,3.7c-16.8,22.9,2.1,48.7,17.9,65c3.2,3.3,4.2,4.3,3.6,10.6
			c-11.9,14.8-28.7,2.9-42-3.8c-13.9-6.9-25.7-13.7-38-22.1c-1.2-12.2,5.7-21.6,6.4-34.7c0.4-6.9-1.2-12.1-4.7-16.1
			c-2.9-3.2-6.8-6.3-10.9-10.5c-14.5,7.9-26.1,15.3-49.1,9.9c-21-6.4-38.8-15.7-53.6-27.1c-30.1,10.6-57.6,38-76.2,62.9
			c-3.7,5-3.9,11.4-0.5,16.5c1.9,2.9,3.1,6.4,3.1,10.2c0,10.3-8.3,18.6-18.6,18.6c-2.6,0-5-0.5-7.2-1.4c-3.8-1.6-7.6-1.6-11.4,0.1
			c-14.3,6.3-28.8,14.6-44,20.2c-32.8,12.1-66.5,16.7-101.3,13.9c-13-1-23.2-1.7-26.7-14.8c-0.9-3.4,0.5-6.3,3.8-7.9
			c39.4-19.5,70.6-60,52.3-105.5c-0.3-0.6,0-0.9,0.6-0.9c17.6,0.7,32.7-5.1,46.3-15.2c24.2-18,32.6-44.3,23.2-74.1
			c-0.1-0.2-0.1-0.4-0.1-0.6c0.1-1,0.9-1.8,1.9-1.7c0.2,0,0.4,0.1,0.6,0.1c7.1,3.1,14.8,6.8,21.8,8.8c26.9,7.8,54.2,2.9,79.1-9.1
			c-21.6-78.5,14.2-173.8,85.9-208.8c6.5-3.3,15.3-5.5,25.7-6.9h-47c-14.3,0-28.6,0-42.9,0c-31.9,0-63.7,0-95.6,0
			c-5.1,0-9.2-4.1-9.2-9.2c0-5.1,4.1-9.2,9.2-9.2h3c3.2-2.8,6.2-8.9,7.4-14.7l2.4-11.5c1.5-7.3,0.5-13.7-2.4-17
			c4.2-3.4,7.8-9.7,9.2-17.1l2.4-11.4c1.1-5.9,0.7-12.1-1.5-14.7h-20.7c-5.1,0-9.2-4.1-9.2-9.2c0-5.1,4.1-9.2,9.2-9.2h127.5
			c-2.6-2.1-4.7-4.5-6.1-7.4c-4.4-9.2-2.3-21.7,2.3-30.4c4.7-8.9,13.9-13.9,23.8-14.3c11.7-0.5,21.3,4.3,29.1,11.6
			c-3.2-10.8-5.2-22.1-11-32c-4.7-8-11.2-14.5-19.6-18.4c-4.2-1.9-8.4-2.8-12.6-3.1c7.1,7.1,3.8,17.1,5.9,22
			c-8,5.5-12.3,2.3-18.9-5.2c0.5,7-4.2,16.5-9.2,21.4c-4.9,4.9-5.1,5.2-10.1,10c-3-7-12.3-15.7-3.5-28.5c-6.7,2.8-20.3,2.4-26.6-1.2
			c-5.8-3.3-12.1-10.7-18.7-12.6c-0.2-0.1-0.5-0.1-0.7-0.2c0.2-0.1,0.4-0.2,0.7-0.3c6-3.3,10.5-12,15.3-16.6
			c5.3-5,19.2-7.2,26.4-6.1c-10.7-9.4-5.4-22.3-4.1-29.8c6.1,3.5,6.2,3.7,12.2,7.4c6,3.6,12.8,11.8,13.9,18.7
			c4.6-8.8,8.1-12.9,17.1-9.4c-0.8,5.1,4.3,13.7-0.1,22c9.5-0.6,18.7,1.8,27.6,8.7c13.8,10.7,20.4,26.8,25.3,43
			c3.7-15.2,12.6-29.6,13.7-45.1c-6.4,3.2-12.4-1.3-16.2-1.1c-1.9-6.7,1.2-8.9,7.8-11.7c-4.9-1.2-10.3-6.6-12.5-11.1
			c-2.2-4.5-2.4-4.6-4.5-9.2c5.5-0.5,13.5-4.8,20.2,4.1c-0.3-5.2,2.9-14.4,6.9-17.8c3.6-3.2,10.1-5.8,12.8-9.9
			c0.1-0.1,0.2-0.3,0.3-0.4c0,0.2,0.1,0.3,0.1,0.5c0.9,4.8,5.8,9.8,7.8,14.2c2.2,4.7,0.6,14.7-1.8,19.4c8.9-5.2,16.4,1.4,21.2,3.9
			c-3.8,3.3-3.9,3.4-7.8,6.6c-3.8,3.2-10.9,6.1-15.9,5.2c5,5.1,6.9,8.4,2.5,13.8c-3.5-1.8-11.2,0-15.8-6c0.9,12.3-3.7,24.5-7.9,36.3
			c-2.7,7.8-4.8,16.4-4.3,24.5c1.8,3.1,3.8,6.1,6.1,8.8c-5.1-14.8,0-34.3,12.4-43.7c12-9.2,34.1-10.6,39.5,6.8
			c0.2,0.5,0.3,1.1,0.4,1.7c2.9-9.8,15.7-25.7,15.7-25.7s12.8,15.8,15.7,25.7c0.1-0.6,0.3-1.1,0.4-1.7c5.4-17.4,27.5-15.9,39.5-6.8
			c12.4,9.4,17.5,28.9,12.4,43.7c2.3-2.8,4.3-5.7,6.1-8.8c0.5-8.1-1.5-16.8-4.3-24.5c-4.2-11.8-8.8-24-7.9-36.3
			c-4.6,6.1-12.3,4.2-15.8,6c-4.4-5.4-2.4-8.7,2.5-13.8c-5,0.8-12-2-15.9-5.2c-3.8-3.2-4-3.3-7.8-6.6c4.8-2.6,12.4-9.1,21.2-3.9
			c-2.4-4.7-4.1-14.7-1.8-19.4c2-4.3,6.9-9.3,7.8-14.2c0-0.2,0.1-0.3,0.1-0.5c0.1,0.2,0.2,0.3,0.3,0.4c2.8,4.1,9.2,6.7,12.8,9.9
			c3.9,3.5,7.2,12.6,6.9,17.8c6.7-8.9,14.7-4.5,20.2-4.1c-2.1,4.5-2.3,4.7-4.5,9.2c-2.2,4.5-7.6,9.9-12.5,11.1
			c6.6,2.8,9.7,5,7.8,11.7c-3.8-0.3-9.8,4.2-16.2,1.1c1.2,15.5,10,29.9,13.7,45.1c4.9-16.2,11.5-32.4,25.3-43
			c8.8-6.8,18.1-9.3,27.6-8.7c-4.4-8.3,0.7-16.9-0.1-22c9.1-3.4,12.5,0.6,17.1,9.4c1.1-6.9,7.9-15,13.9-18.7c6-3.7,6.1-3.9,12.2-7.4
			c1.3,7.5,6.6,20.4-4.1,29.8c7.2-1.1,21.2,1.1,26.4,6.1c4.8,4.6,9.3,13.2,15.3,16.6c0.2,0.1,0.4,0.2,0.7,0.3
			c-0.2,0.1-0.5,0.1-0.7,0.2c-6.6,1.9-13,9.2-18.7,12.6c-6.3,3.7-19.8,4-26.6,1.2c8.8,12.8-0.5,21.5-3.5,28.5
			c-5.1-4.8-5.2-5.1-10.1-10c-4.9-4.9-9.7-14.4-9.2-21.4c-6.5,7.5-10.9,10.6-18.9,5.2c2.1-4.9-1.3-14.9,5.9-22
			c-4.2,0.3-8.4,1.2-12.6,3.1c-8.5,3.9-15,10.4-19.6,18.4c-5.8,9.9-7.8,21.1-11,32c7.8-7.3,17.5-12.2,29.1-11.6
			c9.9,0.4,19.1,5.4,23.8,14.3c4.6,8.7,6.7,21.2,2.3,30.4c-1.4,2.9-3.5,5.4-6.1,7.4h127.5c5.1,0,9.2,4.1,9.2,9.2
			c0,5.1-4.1,9.2-9.2,9.2h-2.3c-1.3,8.6,3,18.9-9.2,27.6c0-8.2-7.4-15.1-16.6-15.1c-5.4,0-9.8,4-9.8,8.9v9c0,4.9,4.4,8.9,9.8,8.9
			c3,0,8.6-1.9,8.6-6.4c3.8,0,6.8,2.7,6.8,6.2c0,1.5-0.6,3-1.7,4.1c1.1,1.1,1.7,2.5,1.7,4c0,3.4-3,6.2-6.8,6.2
			c0-4.4-5.6-6.4-8.6-6.4c-5.4,0-9.8,4-9.8,8.9v9c0,4.9,4.4,8.9,9.8,8.9c9.2,0,16.6-6.7,16.6-15.1c12.2,8.8,7.9,19.1,9.2,27.7h2.4
			c5.1,0,9.2,4.1,9.2,9.2c0,5.1-4.1,9.2-9.2,9.2c-31.9,0-63.7,0-95.6,0h-42.9h-36.7C1388,386.6,1417.9,480.2,1411.4,559.7z"/>
	</g>
	<path class="st3" d="M333.6,531.2c2.2,2.8,2.8,8.9,1.5,14.7l-2.3,11.5c-0.8,4-2.3,7.5-4.1,10.7c-1.7-3.2-3.2-6.7-3.9-10.7
		l-2.4-11.5c-1.2-5.8-0.6-11.9,1.6-14.7H333.6L333.6,531.2z M368.3,557.4c-0.8,4-2.3,7.5-4.1,10.7c-1.7-3.2-3.2-6.7-3.9-10.7
		l-2.4-11.5c-1.1-5.8-0.6-12,1.7-14.7h9.6c2.2,2.8,2.6,8.9,1.4,14.7L368.3,557.4L368.3,557.4z M350.5,591.5l2.4,11.4
		c1.1,5.9,0.6,12.1-1.6,14.7h-9.6c-2.2-2.6-2.8-8.8-1.5-14.7l2.3-11.4c0.9-4,2.3-7.7,4.1-10.7C348.4,583.9,349.7,587.6,350.5,591.5
		L350.5,591.5z M408.8,602.9c0,5.8-1.7,12-4.4,14.7h-27.2c-2.2-2.6-2.8-8.8-1.5-14.7l2.3-11.4c1.5-7.4,5.1-13.7,9.2-17.1
		c-2.7-3.3-3.8-9.7-2.3-17l2.3-11.5c1.2-5.8,4.2-11.9,7.5-14.7h9.8c2.7,2.8,4.4,8.9,4.4,14.7v11.5c0,7.3-2.3,13.7-5.7,17
		c3.5,3.4,5.7,9.7,5.7,17.1V602.9L408.8,602.9z M753.3,557.4v-11.4c0-5.9,1.7-12.1,4.4-14.8H770c2.7,2.8,4.4,8.9,4.4,14.7v11.5
		c0,7.3-2.3,13.7-5.7,17c3.5,3.4,5.7,9.7,5.7,17.1v11.4c0,5.8-1.7,12-4.4,14.7h-12.4c-2.7-2.8-4.3-8.9-4.3-14.7v-11.4
		c0-7.3,2.3-13.7,5.7-17C755.6,571.1,753.3,564.7,753.3,557.4L753.3,557.4z M660.2,672.6c-6.7-4.1-12.1-10-17.3-15.9
		c-6-8.6-14-15.5-23.1-20.6h46.7c-1.8,2-3.1,4.5-3.9,7.6c-1.9,7.6,1.2,18.3,8.9,21.5c7.9,3.3,14.4-4,14.8-11.4c0.2-4-6.2-4.9-7-1
		c-0.4,2-2.8,2.5-4.7,1.9c-5.4-1.9-2.9-7.3-0.4-9.8c3.8-3.9,9.6-3.6,14.2-1.3c9.9,5.1,9,19.6,2.5,27.4
		C683,680.4,669.6,678.3,660.2,672.6L660.2,672.6z M508.1,655.4c4.7-5.3,10.9-11,17.7-15c11.9-3.1,24.1-1.9,36.3-2.3
		c12.3,0.3,24.4-0.8,36.3,2.3c6.7,4.1,13,9.7,17.7,15c8.7,9.9,9.5,24.2,3.2,35.8c-4.8,8.9-23.8,20.2-30.9,7.4
		c-2.6-4.7-2-11.6,1.7-15.6c2.1-2.2,4.9-3.5,7.9-2.3c4.7,1.8,2.9,8.8,0.5,6.3c-3-3-7.6,1.6-4.7,4.7c4.5,5,12.9,3.7,15.5-2.7
		c2.8-7-1.7-14.3-8.3-16.9c-12.5-4.9-22.1,5.6-23.6,17.1c-3.4-9.6-15.4-23.3-15.4-23.3s-12,13.8-15.4,23.3
		c-1.5-11.5-11-22-23.6-17.1c-6.6,2.6-11.1,9.9-8.3,16.9c2.5,6.4,10.9,7.7,15.5,2.7c2.9-3.1-1.7-7.7-4.7-4.7
		c-2.5,2.5-4.3-4.5,0.5-6.3c3-1.2,5.9,0.1,7.9,2.3c3.7,4,4.3,10.8,1.7,15.6c-7,12.8-26,1.5-30.9-7.4
		C498.6,679.6,499.4,665.3,508.1,655.4L508.1,655.4z M457.6,636.1h46.7c-9.1,5-17,12-23.1,20.6c-5.2,6-10.5,11.8-17.3,15.9
		c-9.4,5.7-22.7,7.9-30.7-1.6c-6.5-7.7-7.4-22.3,2.5-27.4c4.6-2.4,10.4-2.6,14.2,1.3c2.5,2.5,5,7.9-0.4,9.8
		c-1.8,0.6-4.3,0.2-4.7-1.9c-0.8-3.9-7.3-3.1-7,1c0.4,7.4,6.9,14.6,14.8,11.4c7.8-3.2,10.9-13.9,8.9-21.5
		C460.7,640.6,459.4,638.1,457.6,636.1L457.6,636.1z M717.1,581.1c0,0-19.6-24.8-19.6-35.1c0-5.9,1.8-12.1,4.5-14.8h30.2
		c2.7,2.8,4.4,8.9,4.4,14.8C736.7,556.3,717.1,581.1,717.1,581.1L717.1,581.1z M702,617.7c-2.7-2.8-4.5-8.9-4.5-14.7v-11.4
		c0-7,2.1-13,5.4-16.6c0.6,0.8,1.2,1.8,2,2.9c3.6,5.2,4.2,11.8,1.7,17.4c-0.9,2.1-2.1,3.6-3.5,4.4c1.7,0.8,3.6,1.4,5.7,1.4
		c3,0,5.7-0.6,7.8-1.5c0.1-0.1,0.3-0.3,0.4-0.3c0.2,0,0.5,0.1,0.6,0.3c2.1,1,4.7,1.5,7.7,1.5c2.1,0,4.1-0.6,5.9-1.4
		c-1.4-0.8-2.6-2.3-3.5-4.4c-2.7-5.6-2-12.2,1.7-17.4c0.6-1.1,1.4-2.1,2-2.9c3.2,3.6,5.3,9.6,5.3,16.6v11.4c0,5.9-1.7,11.9-4.3,14.7
		H702L702,617.7z M659.9,549.4c0-7.9-4.8-14.7-12-18.1h28.7c2.7,2.8,4.4,8.9,4.4,14.8v11.4c0,7.3-2.3,13.7-5.7,17.1
		c3.5,3.3,5.7,9.7,5.7,17v11.4c0,5.9-1.7,11.9-4.3,14.7h-28.5c7-3.5,11.8-10.2,11.8-18v-8.1c0-7.4,2.4-13.7,5.9-17.1
		c-3.5-3.3-5.9-9.7-5.9-17V549.4L659.9,549.4z M623.7,552.8c0-4.9,4.4-8.9,9.8-8.9c5.4,0,9.8,4,9.8,8.9v4.7c0,7.3-2.3,13.7-5.7,17
		c3.5,3.4,5.7,9.7,5.7,17.1v4.7c0,4.9-4.4,8.9-9.8,8.9c-5.4,0-9.8-4-9.8-8.9v-4.7c0-7.4,2.4-13.7,5.9-17.1c-3.5-3.3-5.9-9.7-5.9-17
		V552.8L623.7,552.8z M561.5,574.4c-3.5-3.3-5.9-9.7-5.9-17v-4.7c0-4.9,4.4-8.9,9.8-8.9c5.4,0,9.8,4,9.8,8.9c0,4.5-1.2,8.6-3.5,11.9
		c1.1,0.1,2.3,0.3,3.5,0.3c9.2,0,16.6-5.5,16.6-12.2v-3.4c0-7.9-4.8-14.7-12-18.1h39.4c-7.1,3.5-12,10.3-12,18.1v8.1
		c0,7.3-2.3,13.7-5.7,17c3.5,3.4,5.7,9.7,5.7,17.1v8.1c0,7.8,4.8,14.6,11.8,18h-39c7-3.5,11.8-10.2,11.8-18v-3.4
		c0-4.5,1.4-8.6,3.5-11.9c-1.1-0.1-2.3-0.3-3.5-0.3c-9.2,0-16.6,5.5-16.6,12.2c0,4.9-4.4,8.9-9.8,8.9c-5.4,0-9.8-4-9.8-8.9v-4.7
		C555.6,584.1,558,577.8,561.5,574.4L561.5,574.4z M505,605.1c-5.4,0-9.8-4-9.8-8.9v-4.7c0-7.4,2.4-13.7,5.9-17.1
		c-3.5-3.3-5.9-9.7-5.9-17v-11.5c0-5.8,1.8-11.9,4.5-14.7H551c-7.1,3.5-12,10.3-12,18.1v8.1c0,7.3-2.3,13.7-5.7,17
		c3.5,3.4,5.7,9.7,5.7,17.1v8.1c0,7.8,4.8,14.6,11.8,18h-20.1c-1.3-8.6,3-18.9-9.2-27.6C521.5,598.3,514.1,605.1,505,605.1
		L505,605.1z M340.2,127.5c0,5.5-4.5,10-10,10c-5.5,0-10-4.5-10-10c0-5.5,4.5-10,10-10C335.7,117.6,340.2,122,340.2,127.5
		L340.2,127.5z M722.2,219.7c25.3-15.5,47.5-34.8,66.3-57.7c3.7-4.5,10.4-2.4,10.8,3.5c0.2,2.6-0.3,5.2-1.8,7.3
		c-18.8,26.3-43.2,46-72.9,59l-0.1,0l-0.1,0c-0.7,0.3-1.6,0.5-2.4,0.5c-3.4,0-6.2-2.8-6.2-6.2c0-1.1,0.3-2.1,0.8-3
		C717.9,221,720,219.7,722.2,219.7L722.2,219.7z M957.6,98.8c-6.7,0.3-13.3,0.6-20,0.8c-38,1.5-69.9,15.6-105.1,28.1
		c-0.7,0.2-1.4,0.4-2.1,0.4c-3.5,0-6.3-2.8-6.3-6.3c0-1.5,0.6-3,1.6-4.1l0.1-0.1l0.1-0.1c1.2-1.3,2.8-2.2,4.6-2.4
		c39.6-21.5,82.1-31.1,127.2-29c3.4,0.1,6.1,2.9,6.1,6.3C963.7,96,961,98.7,957.6,98.8L957.6,98.8z M402.1,219.7
		c2.3,0,4.4,1.2,5.5,3.3c0.5,0.9,0.8,2,0.8,3c0,3.4-2.8,6.2-6.2,6.2c-0.8,0-1.6-0.2-2.4-0.5l-0.1,0l-0.1,0c-29.6-13-54-32.7-72.9-59
		c-1.5-2.1-2-4.7-1.8-7.3c0.4-5.8,7.1-8,10.8-3.5C354.6,185,376.8,204.3,402.1,219.7L402.1,219.7z M166.7,98.8
		c-3.4-0.1-6.1-2.9-6.1-6.3c0-3.4,2.7-6.2,6.1-6.3c45.1-2.2,87.6,7.4,127.2,29c1.7,0.2,3.3,1.1,4.6,2.4l0.1,0.1l0.1,0.1
		c1,1.1,1.6,2.6,1.6,4.1c0,3.5-2.8,6.3-6.3,6.3c-0.7,0-1.4-0.1-2.1-0.4c-35.2-12.5-67.1-26.6-105.1-28.1
		C180,99.4,173.4,99.1,166.7,98.8L166.7,98.8z M760.4,319c-1.1-7.4-2.8-14.8-4.9-22.1c24.8-11.8,51.9-16.6,78.6-8.9
		c7,2,14.7,5.7,21.8,8.8c0.2,0.1,0.4,0.1,0.6,0.1c1,0.1,1.9-0.7,1.9-1.7c0-0.2,0-0.4-0.1-0.6c-9.3-29.8-1-56,23.2-74.1
		c13.7-10.2,28.8-15.9,46.3-15.2c0.7,0,0.9-0.3,0.6-0.9c-18.2-45.6,13-86.1,52.3-105.5c3.3-1.7,4.8-4.5,3.8-7.9
		c-3.6-13-13.8-13.7-26.7-14.8c-34.7-2.8-68.5,1.8-101.3,13.9c-15.1,5.6-29.6,14-44,20.2c-3.8,1.6-7.6,1.7-11.4,0.1
		c-2.2-0.9-4.7-1.4-7.2-1.4c-10.3,0-18.6,8.3-18.6,18.6c0,3.8,1.1,7.3,3.1,10.2c3.4,5.2,3.2,11.6-0.5,16.5
		c-17.8,23.9-43.7,50-72.3,61.4c-23.3-20.9-51.7-31.7-80.4-23.6c-19.2,5.4-17.6,16.8-32.6-3.7c-16.8-22.9,2.1-48.7,17.9-65
		c3.2-3.3,4.2-4.3,3.6-10.6c-11.9-14.8-28.7-2.9-42,3.8c-13.9,6.9-25.7,13.7-38,22.1c-1.2,12.2,5.7,21.6,6.4,34.7
		c0.4,6.9-1.2,12.1-4.7,16.1c-2.9,3.2-6.8,6.3-10.9,10.5c-14.5-7.9-26.1-15.3-49.1-9.9c-21,6.4-38.8,15.7-53.6,27.1
		c-30.1-10.6-57.6-38-76.2-62.9c-3.7-5-3.9-11.4-0.5-16.5c1.9-2.9,3.1-6.4,3.1-10.2c0-10.3-8.3-18.6-18.6-18.6c-2.6,0-5,0.5-7.2,1.4
		c-3.8,1.6-7.6,1.6-11.4-0.1c-14.3-6.3-28.8-14.6-44-20.2C234.9,78,201.1,73.4,166.4,76.2c-13,1-23.2,1.7-26.7,14.8
		c-0.9,3.4,0.5,6.3,3.8,7.9c39.4,19.5,70.6,60,52.3,105.5c-0.3,0.6,0,0.9,0.6,0.9c17.6-0.7,32.7,5.1,46.3,15.2
		c24.2,18,32.6,44.3,23.2,74.1c-0.1,0.2-0.1,0.4-0.1,0.6c0.1,1,0.9,1.8,1.9,1.7c0.2,0,0.4-0.1,0.6-0.1c7.1-3.1,14.8-6.8,21.8-8.8
		c26.9-7.8,54.2-2.9,79.1,9.1c-21.6,78.5,14.2,173.8,85.9,208.8c6.5,3.3,15.3,5.5,25.7,6.9h-47c-14.3,0-28.6,0-42.9,0
		c-31.9,0-63.7,0-95.6,0c-5.1,0-9.2,4.1-9.2,9.2c0,5.1,4.1,9.2,9.2,9.2h3c3.2,2.8,6.2,8.9,7.4,14.7l2.4,11.5
		c1.5,7.3,0.5,13.7-2.4,17c4.2,3.4,7.8,9.7,9.2,17.1l2.4,11.4c1.1,5.9,0.7,12.1-1.5,14.7h-20.7c-5.1,0-9.2,4.1-9.2,9.2
		c0,5.1,4.1,9.2,9.2,9.2h127.5c-2.6,2.1-4.7,4.5-6.1,7.4c-4.4,9.2-2.3,21.7,2.3,30.4c4.7,8.9,13.9,13.9,23.8,14.3
		c11.7,0.5,21.3-4.3,29.1-11.6c-3.2,10.8-5.2,22.1-11,32c-4.7,8-11.2,14.5-19.6,18.4c-4.2,1.9-8.4,2.8-12.6,3.1
		c7.1-7.1,3.8-17.1,5.9-22c-8-5.5-12.3-2.3-18.9,5.2c0.5-7-4.2-16.5-9.2-21.4c-4.9-4.9-5.1-5.2-10.1-10c-3,7-12.3,15.7-3.5,28.5
		c-6.7-2.8-20.3-2.4-26.6,1.2c-5.8,3.3-12.1,10.7-18.7,12.6c-0.2,0.1-0.5,0.1-0.7,0.2c0.2,0.1,0.4,0.2,0.7,0.3
		c6,3.3,10.5,12,15.3,16.6c5.3,5,19.2,7.2,26.4,6.1c-10.7,9.4-5.4,22.3-4.1,29.8c6.1-3.5,6.2-3.7,12.2-7.4
		c6-3.6,12.8-11.8,13.9-18.7c4.6,8.8,8.1,12.9,17.1,9.4c-0.8-5.1,4.3-13.7-0.1-22c9.5,0.6,18.7-1.8,27.6-8.7
		c13.8-10.7,20.4-26.8,25.3-43c3.7,15.2,12.6,29.6,13.7,45.1c-6.4-3.2-12.4,1.3-16.2,1.1c-1.9,6.7,1.2,8.9,7.8,11.7
		c-4.9,1.2-10.3,6.6-12.5,11.1c-2.2,4.5-2.4,4.6-4.5,9.2c5.5,0.5,13.5,4.8,20.2-4.1c-0.3,5.2,2.9,14.4,6.9,17.8
		c3.6,3.2,10.1,5.8,12.8,9.9c0.1,0.1,0.2,0.3,0.3,0.4c0-0.2,0.1-0.3,0.1-0.5c0.9-4.8,5.8-9.8,7.8-14.2c2.2-4.7,0.6-14.7-1.8-19.4
		c8.9,5.2,16.4-1.4,21.2-3.9c-3.8-3.3-3.9-3.4-7.8-6.6c-3.8-3.2-10.9-6.1-15.9-5.2c5-5.1,6.9-8.4,2.5-13.8c-3.5,1.8-11.2,0-15.8,6
		c0.9-12.3-3.7-24.5-7.9-36.3c-2.7-7.8-4.8-16.4-4.3-24.5c1.8-3.1,3.8-6.1,6.1-8.8c-5.1,14.8,0,34.3,12.4,43.7
		c12,9.2,34.1,10.6,39.5-6.8c0.2-0.5,0.3-1.1,0.4-1.7c2.9,9.8,15.7,25.7,15.7,25.7s12.8-15.8,15.7-25.7c0.1,0.6,0.3,1.1,0.4,1.7
		c5.4,17.4,27.5,15.9,39.5,6.8c12.4-9.4,17.5-28.9,12.4-43.7c2.3,2.8,4.3,5.7,6.1,8.8c0.5,8.1-1.5,16.8-4.3,24.5
		c-4.2,11.8-8.8,24-7.9,36.3c-4.6-6.1-12.3-4.2-15.8-6c-4.4,5.4-2.4,8.7,2.5,13.8c-5-0.8-12,2-15.9,5.2c-3.8,3.2-4,3.3-7.8,6.6
		c4.8,2.6,12.4,9.1,21.2,3.9c-2.4,4.7-4.1,14.7-1.8,19.4c2,4.3,6.9,9.3,7.8,14.2c0,0.2,0.1,0.3,0.1,0.5c0.1-0.2,0.2-0.3,0.3-0.4
		c2.8-4.1,9.2-6.7,12.8-9.9c3.9-3.5,7.2-12.6,6.9-17.8c6.7,8.9,14.7,4.5,20.2,4.1c-2.1-4.5-2.3-4.7-4.5-9.2
		c-2.2-4.5-7.6-9.9-12.5-11.1c6.6-2.8,9.7-5,7.8-11.7c-3.8,0.3-9.8-4.2-16.2-1.1c1.2-15.5,10-29.9,13.7-45.1
		c4.9,16.2,11.5,32.4,25.3,43c8.8,6.8,18.1,9.3,27.6,8.7c-4.4,8.3,0.7,16.9-0.1,22c9.1,3.4,12.5-0.6,17.1-9.4
		c1.1,6.9,7.9,15,13.9,18.7c6,3.7,6.1,3.9,12.2,7.4c1.3-7.5,6.6-20.4-4.1-29.8c7.2,1.1,21.2-1.1,26.4-6.1
		c4.8-4.6,9.3-13.2,15.3-16.6c0.2-0.1,0.4-0.2,0.7-0.3c-0.2-0.1-0.5-0.1-0.7-0.2c-6.6-1.9-13-9.2-18.7-12.6
		c-6.3-3.7-19.8-4-26.6-1.2c8.8-12.8-0.5-21.5-3.5-28.5c-5.1,4.8-5.2,5.1-10.1,10c-4.9,4.9-9.7,14.4-9.2,21.4
		c-6.5-7.5-10.9-10.6-18.9-5.2c2.1,4.9-1.3,14.9,5.9,22c-4.2-0.3-8.4-1.2-12.6-3.1c-8.5-3.9-15-10.4-19.6-18.4
		c-5.8-9.9-7.8-21.1-11-32c7.8,7.3,17.5,12.2,29.1,11.6c9.9-0.4,19.1-5.4,23.8-14.3c4.6-8.7,6.7-21.2,2.3-30.4
		c-1.4-2.9-3.5-5.4-6.1-7.4h127.5c5.1,0,9.2-4.1,9.2-9.2c0-5.1-4.1-9.2-9.2-9.2h-2.3c-1.3-8.6,3-18.9-9.2-27.6
		c0,8.2-7.4,15.1-16.6,15.1c-5.4,0-9.8-4-9.8-8.9v-9c0-4.9,4.4-8.9,9.8-8.9c3,0,8.6,1.9,8.6,6.4c3.8,0,6.8-2.7,6.8-6.2
		c0-1.5-0.6-3-1.7-4.1c1.1-1.1,1.7-2.5,1.7-4c0-3.4-3-6.2-6.8-6.2c0,4.4-5.6,6.4-8.6,6.4c-5.4,0-9.8-4-9.8-8.9v-9
		c0-4.9,4.4-8.9,9.8-8.9c9.2,0,16.6,6.7,16.6,15.1c12.2-8.8,7.9-19.1,9.2-27.7h2.4c5.1,0,9.2-4.1,9.2-9.2c0-5.1-4.1-9.2-9.2-9.2
		c-31.9,0-63.7,0-95.6,0h-42.9h-36.7C737,492.1,766.8,398.5,760.4,319L760.4,319z M784.2,127.5c0,5.5,4.5,10,10,10
		c5.5,0,10-4.5,10-10c0-5.5-4.5-10-10-10C788.6,117.6,784.2,122,784.2,127.5L784.2,127.5z M540.4,360
		c-15.4,13.4-32.2,10.3-34.9,24.2c-1.2,6.3-0.8,12.4-4.1,16.6c-5.5-4.7-7-14-9.5-21.9c-32.8-5.9-15-3.5-38.1-10.2
		c0.1,5.7,0.7,19.8,2.7,24.5c3,7.2,11.9,4.6,17,9.2c5.4,4.9-0.9,10.1,10.2,16.2c5,2.7,13,8.2,19,8.7l7.7-13
		c3.4,0.5,31.6,6.6,33.2,7.5l5.1,16.8c9.1,1.6,33.6,1.9,40.8-0.8l3.4-15.8c4.2-2.1,23.8-4.7,26.9-4.9c1.6,1.5,9.3,11.3,11.8,11.8
		c18.4-2.5,14.9-4,21-18.9c2.9-7.1,7.4-22.9,7.7-31.1l-15.5-0.1c-2.3,4.7-5.7,15.4-7.6,19.7c-5.2-5.5-3.6-19.8-5.6-22.7
		c-8.1-5.6-24.7-10.1-33.7-16c3.5-5.1,24.4-21.2,31.7-28c8.9-8.4,8-5.6,5.2-20.7c-1.6-8.2-3.5-16.8-5.8-24.5
		c-19.8-66-73-78.4-99.8-42.1c-14.1,19.2-20.6,41.7-25.4,65.5c-3.9,19.6-5.1,11.8,20.6,35C528.2,348.5,537.8,355.8,540.4,360
		L540.4,360z M700.2,277.6c4.5-2,0.9-1.9,5.9-2.5c15.1,24.4,12.7,60.3-6.7,83.1c-8.7,10.2-4.2,4.8-4,28.9
		c7.8-1.9,15.4-9.1,23.4-11.8c-5.9,27.4-32.4,51.3-52,63.5c-18,11.1-2.6,0.4-15.5,5.4c-9.9,3.8-21.1,11-31.5,15l-3.7-9.5
		c-5.9,0.5-12.6,6.3-19.2,8.7l-0.2,9l-20.3,3.2l-2.3-6.3c-3.2-0.2-8.2-0.7-11-0.5c-9.6,0.9-1.6-0.1-7.8,4.8l-18.8-4l-0.6-11.6
		c-4.4-2.4-10.5-7-17.6-7.3c-3.6,4.6-3.2,5-6.4,11.6l-9.7-1.9c0.3,4.3,24.2,30.7,29.7,34.8c30.2,22,68.2,17.4,94-9.4l21.7-28.3
		c1.2-1.5,1.8-2.7,3.7-4.3c4.1-3.6,0.7-3.5,5.7-1.4c0.9,4.9-6,18-8.9,23.3c-7.2,13.2-12.9,17.2-14.9,20.3
		c19.5-0.7,39.1-12.4,50.1-27.2c3.9-5.2,6.2-10.3,10.1-15.7c2.7,5.4-11,33.1-38.5,45.3c-6.7,3-16.6,3.8-22.3,7.1
		c62.2,0.9,148.1-114.1,88.8-229.5c-9.8-19.2-37-56.6-67-51.6c7.7,7.3,14.3,7.7,27.7,23.9C686.4,247.8,698.4,269.8,700.2,277.6
		L700.2,277.6z M513.8,501.3l-10.3-3.7c-21-6.7-47.3-28.4-58.8-46.3c-4.6-7.1-12.1-22-18.6-37.5c-0.6-1.4,0-3,1.4-3.6
		c1.4-0.7,3-0.1,3.7,1.2c18.1,32.9,48.5,74.5,83.5,77.5c-4.3-6-17-15.8-25-36.9c-1.5-4.1,0.1-5.9-14.4-11.6
		c-16.3-6.4-23.1-15.7-34.3-30.2c-6.6-8.5-15.5-20-18.7-33.3c11.2,3.5,23.6,14.8,31.6,16.2c-1.1-6-2.2-10.6-2.6-17.1
		c-1.1-22.6-5.2-2.3-21.3-37.7c-14.6-32-7.7-40.7-0.9-64c0.3,0.2,0.6,0.3,0.8,0.7c0.1,0.5,0.6,0.6,0.7,0.7c0.2,0.2,1.1,1.2,1.3,1.5
		c1.6,1.8,0.7,1.3,2.9,3.5c2-4,4-11.5,6.9-17.2c3.3-6.7,5.7-10.7,9.9-16.4c14.8-20,19.6-17.4,26.2-25c-9.7-11.6-35.5,6.5-42.3,11.6
		c-10.3,7.7-19.6,20.6-27.2,34.7c-14.7,27.6-21.6,69.5-17.5,105c5,44.1,36.9,96.9,73.2,113.8C472.6,491.2,503.4,501,513.8,501.3
		L513.8,501.3z M606.1,228.2c9.2,16.6,29.6,15.3,43.1,89.4c5.3-1.5,8.1-3.1,12.1-6.8c1.5-9.6-7.5-40-11.2-48
		c-7.7-16.9-14.6-20.5-31.3-28.6c29.1-1.5,44.2,42,46.7,72.3c11.4-4.3,24.9-17.8,32.9-24.1c-8.4-26.7-30.1-51.9-58.3-58.4
		C624.8,220.5,617.3,223.2,606.1,228.2L606.1,228.2z M463.5,301c4.1,4.7,17.8,14.1,24.7,16c0.2-0.3,0.5-1.1,0.5-0.9l2.9-10.6
		c9.4-53.2,26.4-61.6,30-72.8C492.3,232.9,464.6,283.7,463.5,301L463.5,301z M438.4,282.6c3.9,4.7,15.3,14.5,22.2,16.6
		c4.3-6.7,8.9-27.1,21.8-46.1c5.9-8.6,17.2-20.8,27.5-23.8c7.7-2.3,8.2,0.2,13.4-0.1c-6.3-3.3-21.5-4.9-30.6-2.6
		C470.4,232.5,448.6,261.5,438.4,282.6L438.4,282.6z M481.7,322.5c-5.2,4.5-13.1,18.6-10.5,29.5c2.4,9.8,15,14.5,27.2,10.5
		c4.7-1.6,9.7-4.7,11.4-8.6c3.1-7.1-2.9-10-6.5-12.9C498.4,337,487.1,324.4,481.7,322.5L481.7,322.5z M627.4,348.3
		c4.6,21.2,49.3,22.9,38.8-9.6c-2.4-7.6-5-11.9-10.9-15.7L627.4,348.3L627.4,348.3z M550.5,401.7l43.6,3
		c1.1-5.4-16.2-35.7-20.3-41.9C568.2,364.9,550.6,398.3,550.5,401.7L550.5,401.7z M662.3,403.1c10.3-2.1,23.1-8.2,30.1-14
		c1.3-7.2-0.4-15-0.5-22.5c-7.2,2.5-10.7,6.8-21.5,9.9C662,378.9,663.4,376.1,662.3,403.1L662.3,403.1z M461,617.7
		c-1.3-8.6,3-18.9-9.2-27.6c0,8.2-7.4,15.1-16.6,15.1c-5.4,0-9.8-4-9.8-8.9v-9c0-4.9,4.4-8.9,9.8-8.9c3,0,8.6,1.9,8.6,6.4
		c3.8,0,6.8-2.7,6.8-6.2c0-1.5-0.6-3-1.7-4.1c1.1-1.1,1.7-2.5,1.7-4c0-3.4-3-6.2-6.8-6.2c0,4.4-5.6,6.4-8.6,6.4
		c-5.4,0-9.8-4-9.8-8.9v-9c0-4.9,4.4-8.9,9.8-8.9c9.2,0,16.6,6.7,16.6,15.1c12.2-8.8,7.9-19.1,9.2-27.7h13.2
		c2.7,2.8,4.4,8.9,4.4,14.7v11.5c0,7.3-2.3,13.7-5.7,17c3.5,3.4,5.7,9.7,5.7,17.1v11.4c0,5.8-1.7,12-4.4,14.7H461z"/>
</g>
</svg>
