<?xml version="1.0" encoding="utf-8"?>
<!-- Generator: Adobe Illustrator 25.4.1, SVG Export Plug-In . SVG Version: 6.00 Build 0)  -->
<svg version="1.1" id="Layer_1" xmlns="http://www.w3.org/2000/svg" xmlns:xlink="http://www.w3.org/1999/xlink" x="0px" y="0px"
	 viewBox="0 0 750 500" enable-background="new 0 0 750 500" xml:space="preserve">
<path fill="#3F3F3F" d="M159.64,343.33h-33.6v-3.6h-37.2v37.2h3.6v33.6h-3.6v37.2h37.2v-3.6h33.6v3.6h12.05v-49H152.1
	c-1.77,3.24-5.2,5.43-9.15,5.43c-5.76,0-10.43-4.67-10.43-10.43s4.67-10.43,10.43-10.43c3.95,0,7.38,2.19,9.15,5.43h24.59
	c2.76,0,5,2.24,5,5v54h15.15v-37.2h-3.6v-33.6h3.6v-37.2h-37.2V343.33z"/>
<path fill="#3F3F3F" d="M196.84,129.07v-38.4h-3.6v-38.4l-104.4,0v38.4h3.6v38.4h-3.6v38.4h3.6v38.4h-3.6v38.4h3.6v38.4h33.6v3.6
	h33.6v-3.6l37.2,0v-38.4h-3.6v-38.4h3.6v-38.4h-3.6v-38.4C193.24,129.07,196.84,129.07,196.84,129.07z M99.64,59.71
	c1.92,1.2,3.88,2.42,5.52,3.97c1.75,1.65,3.35,3.84,3.72,6.26c0.18,1.16,0.07,2.35,0.28,3.5c0.18,1.04,0.6,2.03,1.19,2.9
	c0.61,0.89,1.33,1.68,2.17,2.36c0.08,0.07,0.17,0.13,0.26,0.2c-0.03,0.01-0.07,0.02-0.1,0.04c-0.54,0.19-1.09,0.34-1.65,0.44
	c-0.57,0.1-1.15,0.18-1.73,0.2c-0.5,0.02-0.9,0.02-1.35,0.28c-0.13,0.07-0.12,0.25,0,0.33c0.01,0.01,0.02,0.01,0.03,0.02
	c-0.04,0.13,0.03,0.29,0.12,0.38c0.22,0.22,0.5,0.38,0.8,0.5c-0.3,0.09-0.59,0.19-0.88,0.3c-0.14,0.05-0.29,0.11-0.43,0.15
	c-0.79-0.16-1.57-0.33-2.35-0.53c-1.18-0.31-2.39-0.64-3.48-1.2c-0.51-0.26-1.01-0.5-1.56-0.68c-0.17-0.06-0.36-0.09-0.55-0.12
	L99.64,59.71L99.64,59.71z M124.13,251.8c-0.23,1.15-0.65,2.27-1.07,3.36c-0.89,2.34-1.37,4.56-1.2,7.07
	c0.16,2.25,0.75,4.45,1.14,6.66c0.21,1.19,0.33,2.39,0.36,3.6c0.01,0.59-0.02,1.17-0.07,1.76c-0.03,0.42-0.02,0.82,0,1.22H99.64
	v-11.09c0.1,0.05,0.21,0.1,0.34,0.09h0.13c0.2,0,0.4-0.09,0.55-0.24c0.04-0.01,0.08-0.03,0.1-0.07c1.15-2.91,2.72-5.6,4.28-8.31
	c1.53-2.64,3.1-5.25,4.72-7.84c2.02-3.23,4.11-6.43,6.33-9.53c0.11,0.16,0.21,0.32,0.32,0.48c1.53,2.24,3.22,4.37,4.84,6.54
	c1,1.35,2.02,2.69,3.03,4.03c0.03,0.04,0.06,0.08,0.08,0.11C124.29,250.36,124.27,251.09,124.13,251.8z M137.35,257.73
	c-0.52,1.81-0.35,3.51-0.23,5.36c0.01,0.19-0.29,0.28-0.37,0.1c-1.72-4.04,1.08-6.9,2.27-10.62c0.03-0.09,0.17-0.05,0.14,0.04
	C138.72,254.39,137.85,255.98,137.35,257.73z M137.22,241.35c-0.77,1.85-2.03,3.2-3.69,4.29c-2.57,1.69-4.25,2.85-4.78,6
	c-0.03,0.19-0.32,0.14-0.32-0.04c0.01-1.34-0.18-3.36,0.9-4.43c1.71-1.68,4.1-2.59,5.68-4.41c3.94-4.54,4.55-12.48,3.88-18.16
	c-0.01-0.04,0.07-0.05,0.08-0.01C139.99,230.05,139.36,236.2,137.22,241.35z M145.96,180.95c9.73,3.99,5.61,16.15,6.25,23.97
	c0.01,0.14-0.21,0.17-0.24,0.03c-0.54-2.39-0.95-4.69-0.8-7.15c0.11-1.79,0.21-3.58,0.2-5.38c-0.02-4.69-1.07-8.88-5.51-11.21
	C145.71,181.14,145.81,180.89,145.96,180.95z M160.66,264.1c-13.2-5.7-8.03-22.78-13.67-33.28c-0.07-0.13,0.12-0.24,0.2-0.12
	c3.5,5.23,4.06,11.1,5.12,17.15c1.12,6.43,3.29,11.84,8.58,15.94C161.09,263.93,160.84,264.18,160.66,264.1z M166.58,257.38
	c-2.87-1.43-5.81-3.48-7.22-6.49c-1.49-3.18-1.92-6.4-2.69-9.79c-0.46-2.04-0.93-4.08-1.57-6.07c-0.58-1.8-1.44-5.76-3.85-5.84
	c-0.12,0-0.15-0.18-0.03-0.21c3.44-0.87,5.47,6.38,6.14,8.58c0.88,2.9,1.27,5.91,2.07,8.82c1.28,4.63,4.26,7.22,7.55,10.45
	C167.28,257.13,166.92,257.55,166.58,257.38z M168.29,244.15c-2.58-1.48-3.96-3.66-4.02-6.66c-0.09-4.51,1.44-9.94-3.06-12.83
	c-0.09-0.06-0.01-0.2,0.09-0.15c3.09,1.76,4.24,4.68,4.26,8.13c0.01,2.07-0.35,4.34,0.14,6.38c0.46,1.91,1.6,3.29,2.91,4.71
	C168.81,243.95,168.55,244.3,168.29,244.15z M186.04,275.47h-15.86c0.45-0.23,0.09-0.84-0.34-0.77c-0.23,0.04-0.38,0.03-0.5,0.01
	c0.09-0.23,0.17-0.46,0.24-0.7c0.27-0.94,0.56-1.88,0.84-2.82c0.59-2.03,1.29-4.04,1.8-6.1c0.9-3.67,0.66-7.52-0.26-11.16
	c-0.42-1.66-0.94-3.29-1.21-4.98c-0.21-1.29-0.28-2.97,0.68-3.98c0.68-0.71,1.75-1.15,2.73-1.23c0.83-0.07,1.46,0.27,2.04,0.77
	c0.01,0.04,0.03,0.09,0.05,0.13c0.07,0.18,0.22,0.26,0.36,0.24c0.12,0.06,0.27,0,0.31-0.14c0.16-0.5,0.11-0.99-0.1-1.41
	c0-0.39,0-0.78-0.05-1.17c-0.07-0.63-0.08-1.26-0.06-1.89c0.04-1.31,0.42-2.6,0.88-3.81c0.94-2.48,2.54-4.76,3.84-7.07
	c1.32-2.34,2.35-4.87,2.52-7.58c0.18-2.74-0.98-5.23-2.65-7.32c-1.68-2.1-3.77-3.77-5.79-5.51c-1.97-1.7-4.16-3.65-5.1-6.15
	c-0.82-2.17-0.4-4.48,0.02-6.68c0.07-0.38,0.14-0.77,0.19-1.15c2.11-1.27,4.22-2.53,6.35-3.75c3.15-1.8,6.22-3.74,9.03-6.03
	c0.01,0,0.02-0.01,0.03-0.02L186.04,275.47L186.04,275.47z M186.04,136.11c-0.32,0.09-0.66,0.12-0.95,0.22
	c-0.7,0.24-1.35,0.54-2.01,0.88c-1.41,0.73-2.96,1.16-4.49,1.55c-1.01,0.26-2.02,0.47-3.03,0.68c-0.19-0.05-0.38-0.12-0.56-0.2
	c-0.38-0.15-0.75-0.27-1.14-0.39c0.39-0.15,0.74-0.36,1.03-0.65c0.12-0.11,0.2-0.33,0.15-0.49c0.01-0.01,0.03-0.02,0.04-0.02
	c0.15-0.1,0.17-0.33,0-0.43c-0.58-0.34-1.09-0.33-1.75-0.37c-0.75-0.04-1.5-0.13-2.24-0.26c-0.73-0.13-1.44-0.33-2.14-0.57
	c-0.04-0.01-0.09-0.03-0.13-0.05c0.11-0.08,0.23-0.16,0.34-0.25c1.09-0.87,2.02-1.89,2.8-3.04c0.76-1.12,1.3-2.41,1.54-3.75
	c0.26-1.49,0.12-3.03,0.36-4.52c0.49-3.12,2.55-5.96,4.81-8.09c2.19-2.06,4.82-3.68,7.37-5.28L186.04,136.11L186.04,136.11z
	 M186.04,108.67c-0.85,0.18-1.7,0.35-2.55,0.53c-1.62,0.35-3.12,0.89-4.61,1.62c-2.84,1.4-5.43,3.26-8.43,4.33
	c-2.31,0.82-4.88,1.41-6.34,3.58c-1.68,2.51-1.3,5.81-2.53,8.5c-1.25,2.73-4.06,3.97-6.91,4.47c-0.4-0.04-0.79-0.08-1.19-0.09
	c-1.05-0.03-2.07-0.16-3.09-0.4c-0.13-0.03-0.26-0.06-0.39-0.1c0.56-0.19,1.11-0.42,1.63-0.7c0.44-0.24,0.88-0.54,1.19-0.94
	c0.3-0.37,0.35-0.73,0.45-1.19c0.02-0.09-0.11-0.15-0.15-0.06c-0.17,0.34-0.63,0.55-0.96,0.73c-0.43,0.24-0.85,0.47-1.29,0.66
	c-1,0.42-2.05,0.71-3.11,0.93c0,0,0,0,0,0c-0.08-0.02-0.16-0.04-0.24-0.05c-0.37-0.07-0.9-0.21-1.4-0.25
	c0.18-0.11,0.35-0.22,0.52-0.34c0.48-0.35,0.9-0.76,1.25-1.23c0.18-0.24,0.33-0.48,0.43-0.76c0.12-0.31,0.11-0.54,0.5-0.51
	c0.06,0,0.07-0.09,0.01-0.1c-0.11-0.02-0.31-0.14-0.42-0.11c-0.21,0.06-0.46,0.35-0.65,0.48c-0.46,0.31-0.84,0.74-1.29,1.07
	c-0.92,0.68-1.96,1.09-3.08,1.3c-0.61,0.12-1.24,0.17-1.87,0.22c0.95-0.56,1.8-1.29,2.52-2.12c0.36-0.41,0.66-0.88,0.93-1.36
	c0.29-0.51,0.39-1.04,0.57-1.58c0.05-0.15-0.17-0.23-0.25-0.1c-0.24,0.39-0.59,0.69-0.88,1.04c-0.32,0.39-0.65,0.77-1,1.13
	c-0.69,0.71-1.4,1.37-2.24,1.9c-0.81,0.52-1.7,0.86-2.64,1.03c-0.02,0-0.05,0.01-0.07,0.01c0.45-0.68,0.69-1.52,0.81-2.36
	c0.13-0.84,0.17-1.7,0.25-2.55c0.04-0.4,0.06-0.8,0.04-1.2c-0.01-0.37-0.07-0.74,0.11-1.08c0.06-0.12-0.1-0.2-0.17-0.1
	c-0.4,0.54-0.78,1.01-0.95,1.68c-0.2,0.77-0.2,1.6-0.28,2.38c-0.13,1.15-0.33,2.6-1.37,3.22c-0.39-0.07-0.74-0.21-1.13-0.15
	c-0.37-0.21-0.63-0.59-0.85-0.95c-0.22-0.36-0.39-0.71-0.54-1.07c0.02-0.31,0.03-0.62,0.02-0.94c-0.01-0.77-0.18-1.54-0.49-2.24
	c-0.15-0.34-0.32-0.67-0.57-0.95c-0.26-0.29-0.6-0.44-0.89-0.67c-0.2-0.15-0.39,0.13-0.31,0.31c0.17,0.37,0.21,0.81,0.42,1.17
	c0.2,0.33,0.36,0.66,0.49,1.03c0.27,0.8,0.24,1.64,0.18,2.47c-0.14,1.83-0.46,3.64-0.43,5.48c0.02,1.38,0.23,2.74,1.52,3.48
	c0.58,0.33,1.21,0.4,1.85,0.45c0.09,0.07,0.18,0.14,0.27,0.21c0.63,0.46,1.44,0.24,2.14,0.15c0.76-0.1,1.71,0.26,2.43,0.49
	c0.83,0.26,1.63,0.63,2.43,0.98c1.54,0.69,3.06,1.39,4.64,1.98c0.88,0.33,1.76,0.66,2.63,1.01c0.08,0.03,0.16,0.06,0.23,0.1
	c-0.95,0.19-1.91,0.51-2.71,1.05c-0.81,0.55-1.33,1.35-1.4,2.33c-0.08,1.18,0.65,1.97,1.33,2.81c-0.03,0.57-0.05,1.14-0.05,1.71
	c0,0.78,0,1.57,0.09,2.34c0.09,0.8,0.39,1.62,0.59,2.4c0.01,0.03,0.05,0.03,0.06,0c0.05-0.26,0.11-0.53,0.16-0.79
	c0.21-0.26,0.46-0.49,0.67-0.75c0.24-0.3,0.41-0.66,0.6-0.99c0.41-0.73,0.8-1.47,1.22-2.19c0.26-0.44,0.52-0.89,0.79-1.32
	c0.63,0.07,1.27-0.06,1.88-0.2c0.65-0.15,1.27-0.39,1.92-0.53c0.6-0.13,1.21-0.03,1.78,0.15c1.04,0.32,1.97,1,2.92,1.52
	c0.74,0.4,1.59,0.72,2.44,0.8c0.21,0.16,0.43,0.31,0.62,0.43c0.65,0.42,1.26,0.83,1.36,1.66c0.05,0.42,0.02,0.85-0.05,1.28
	c-0.18,0.38-0.4,0.73-0.68,1.05c-0.19,0.21-0.36,0.41-0.45,0.65c-0.12,0.07-0.21,0.19-0.22,0.38c-0.05,0.91-0.17,1.82-0.23,2.73
	c-0.01,0-0.01,0.01-0.02,0.01c-0.19,0.11-0.22,0.33-0.13,0.51c0.1,0.21,0.24,0.28,0.45,0.35c0.27,0.1,0.52,0.28,0.77,0.43
	c0.51,0.31,0.92,0.55,1.26,1.06c0.02,0.03,0.08,0.02,0.08-0.02c-0.04-0.54-0.34-1.23-0.71-1.62c-0.27-0.29-0.79-0.72-1.26-0.79
	c0.38-0.76,0.44-1.65,0.67-2.48c0.02-0.01,0.04-0.02,0.07-0.03c0.61,0.27,1.29,0.24,1.94,0.41c0.78,0.21,1.6,0.7,2.21,1.22
	c0.07,0.06,0.16-0.03,0.1-0.1c-0.53-0.62-1.02-1.22-1.68-1.7c-0.33-0.24-0.69-0.41-1.07-0.56c-0.19-0.07-0.4-0.1-0.6-0.13
	c0.05-0.07,0.1-0.14,0.15-0.21c0.56-0.79,0.64-1.58,0.56-2.51c-0.01-0.05-0.03-0.09-0.06-0.13c-0.03-0.32-0.13-0.63-0.27-0.91
	c0.09-0.04,0.19-0.06,0.3-0.08c0.01,0.58,0.1,1.15,0.38,1.67c0.3,0.58,0.71,1.1,0.99,1.69c0.04,0.07,0.16,0.02,0.13-0.06
	c-0.39-1.06-0.49-2.32-0.41-3.46c0.06-0.01,0.12-0.02,0.19-0.03c0.31-0.04,0.63-0.01,0.94,0.01c0.32,0.02,0.63,0.07,0.96,0.05
	c0.25-0.02,0.54-0.09,0.77-0.02c0.12,0.03,0.18-0.13,0.08-0.19c-0.27-0.17-0.49-0.45-0.77-0.63c-0.3-0.2-0.7-0.26-1.05-0.31
	c-0.29-0.04-0.69-0.09-1.05-0.04c0-0.37-0.02-0.73-0.04-1.1c-0.02-0.34-0.04-0.67-0.08-1.01c0.38-0.01,0.77,0,1.16,0.01
	c1.41,0.05,2.76,0.11,4.16-0.13c1.33-0.23,2.6-0.71,3.79-1.32c2.32-1.19,4.27-2.99,6.21-4.7c0.96-0.84,1.97-1.63,2.91-2.51
	c0.14-0.13,0.3-0.29,0.46-0.47v40.8c-0.34,0.21-0.68,0.42-1.02,0.63c-0.21-0.27-0.43-0.54-0.64-0.8c-0.66-0.84-1.39-1.62-2.14-2.37
	c-1.65-1.64-3.51-3.13-5.46-4.4c-1.65-1.07-3.55-2.17-5.56-2.91c-3.9-2.38-8.05-4.33-12.34-5.88c-5.27-1.91-10.79-3.11-16.38-3.65
	c-4.36-0.42-8.93-0.47-13.32,0.17c-0.21,0.01-0.42,0.01-0.62,0.03c-0.2,0.01-0.37,0.07-0.52,0.16c-0.93,0.16-1.86,0.35-2.77,0.58
	c-2.29,0.58-4.58,1.24-6.77,2.14c-2.26,0.93-4.35,2.15-6.51,3.26c-0.09,0.05-0.01,0.17,0.08,0.13c1.12-0.5,2.28-0.91,3.46-1.28
	c-1.42,0.55-2.82,1.15-4.19,1.81c-0.08,0.04-0.01,0.15,0.07,0.12c8.27-3.52,17.16-3.94,25.82-2.44c2.96,0.75,5.92,1.5,8.89,2.21
	c0.23,0.07,0.45,0.14,0.67,0.21c5.22,1.74,10.4,3.63,15.26,6.23c2.42,1.3,4.75,2.8,6.9,4.49c2.34,1.84,4.47,3.95,6.73,5.9
	c0.46,0.39,0.92,0.77,1.39,1.15c-2.21,1.35-4.42,2.7-6.63,4.05c-0.01-0.02-0.01-0.04-0.01-0.06c-0.02-0.07-0.13-0.06-0.12,0.02
	c0,0.04,0.01,0.08,0.01,0.12c-1.92,1.17-3.83,2.35-5.75,3.53c-0.57-0.09-1.13-0.21-1.7-0.42c-0.99-0.36-1.94-0.91-2.79-1.57
	c-0.1-0.17-0.2-0.34-0.31-0.5c-0.52-0.79-1-1.61-1.45-2.44c-0.77-1.43-1.36-2.93-1.96-4.44c-0.99-2.5-2.03-5.08-3.66-7.23
	c-1.59-2.09-3.79-3.46-6.45-3.45c-2.51,0.01-4.63,1.65-5.28,4c-1.36,1.74-2.39,3.86-3.32,5.79c-1.25,2.6-2.33,5.26-3.49,7.9
	c-0.94,2.16-1.38,4.43-0.35,6.58c-4.14,2.32-7.47,6.23-9.87,10.21c-1.04,1.73-1.99,3.51-3.17,5.15c-1.17,1.62-2.53,3.1-3.76,4.68
	c-1.17,1.51-2.15,3.15-3.07,4.82c-0.43,0.78-0.8,1.59-1.13,2.41c-0.17,0.43-0.3,0.87-0.41,1.32c-0.14,0.54,0.08,0.99,0.15,1.51
	c0.02,0.13,0.09,0.21,0.18,0.25c-0.05,0.26-0.09,0.51-0.12,0.75c-0.17,1.19,0.01,2.35,0.32,3.51c0.08,0.3,0.17,0.6,0.27,0.89
	c-2.05,2.44-3.99,4.97-5.82,7.59c-0.92,1.13-1.81,2.29-2.64,3.49c-1.75,2.52-3.13,5.27-4.56,7.97c-0.17,0.32-0.34,0.63-0.51,0.94
	V81.56c0.06,0.06,0.12,0.12,0.17,0.17c0.72,0.68,1.51,1.29,2.25,1.94c1.5,1.32,3.01,2.71,4.81,3.63c0.93,0.48,1.91,0.85,2.94,1.02
	c1.09,0.19,2.13,0.15,3.22,0.1c0.31-0.01,0.61-0.02,0.9-0.01c-0.03,0.26-0.04,0.52-0.06,0.78c-0.02,0.29-0.03,0.57-0.03,0.85
	c-0.28-0.03-0.59,0-0.81,0.03c-0.27,0.04-0.58,0.09-0.81,0.24c-0.21,0.14-0.39,0.36-0.6,0.49c-0.08,0.05-0.03,0.17,0.06,0.15
	c0.18-0.05,0.4,0,0.6,0.02c0.25,0.02,0.49-0.02,0.74-0.04c0.24-0.02,0.49-0.04,0.73-0.01c0.05,0.01,0.1,0.02,0.15,0.02
	c0.06,0.89-0.01,1.86-0.32,2.68c-0.02,0.06,0.08,0.1,0.1,0.04c0.22-0.46,0.53-0.86,0.77-1.31c0.21-0.4,0.29-0.84,0.29-1.29
	c0.08,0.01,0.16,0.03,0.23,0.06c-0.11,0.22-0.19,0.45-0.21,0.7c-0.02,0.02-0.04,0.06-0.04,0.1c-0.06,0.72-0.01,1.34,0.43,1.94
	c0.04,0.05,0.08,0.11,0.12,0.16c-0.15,0.03-0.31,0.05-0.46,0.1c-0.29,0.11-0.57,0.25-0.82,0.43c-0.52,0.38-0.89,0.84-1.3,1.32
	c-0.05,0.06,0.02,0.13,0.08,0.08c0.48-0.4,1.11-0.79,1.71-0.94c0.5-0.13,1.03-0.11,1.5-0.32c0.02,0.01,0.03,0.02,0.05,0.03
	c0.17,0.64,0.22,1.33,0.52,1.92c-0.36,0.05-0.77,0.38-0.98,0.61c-0.28,0.31-0.52,0.84-0.55,1.26c0,0.04,0.04,0.04,0.06,0.02
	c0.27-0.39,0.58-0.58,0.98-0.82c0.19-0.12,0.38-0.25,0.6-0.33c0.17-0.06,0.28-0.11,0.35-0.28c0.06-0.15,0.04-0.31-0.1-0.4
	c0,0-0.01-0.01-0.02-0.01c-0.05-0.71-0.14-1.41-0.18-2.11c-0.01-0.15-0.08-0.24-0.17-0.29c-0.07-0.19-0.2-0.34-0.35-0.51
	c-0.22-0.25-0.39-0.52-0.53-0.81c-0.05-0.33-0.07-0.66-0.04-0.99c0.08-0.64,0.56-0.96,1.06-1.29c0.15-0.1,0.32-0.21,0.48-0.33
	c0.66-0.06,1.32-0.31,1.89-0.62c0.74-0.4,1.45-0.93,2.26-1.18c0.44-0.14,0.92-0.21,1.38-0.11c0.5,0.11,0.99,0.29,1.49,0.41
	c0.47,0.11,0.97,0.21,1.46,0.16c0.21,0.34,0.41,0.68,0.61,1.03c0.32,0.56,0.62,1.13,0.94,1.7c0.15,0.26,0.28,0.54,0.47,0.77
	c0.16,0.2,0.35,0.38,0.52,0.58c0.04,0.21,0.08,0.41,0.12,0.61c0,0.02,0.04,0.02,0.05,0c0.16-0.61,0.39-1.24,0.46-1.86
	c0.07-0.6,0.07-1.21,0.07-1.81c0-0.44-0.01-0.88-0.04-1.32c0.52-0.65,1.09-1.26,1.03-2.17c-0.06-0.76-0.46-1.38-1.08-1.81
	c-0.62-0.42-1.37-0.67-2.1-0.82c0.06-0.02,0.12-0.05,0.18-0.07c0.68-0.27,1.35-0.53,2.03-0.78c1.23-0.46,2.4-1,3.59-1.54
	c0.62-0.27,1.23-0.55,1.88-0.76c0.56-0.18,1.29-0.46,1.88-0.38c0.54,0.07,1.17,0.23,1.65-0.12c0.07-0.05,0.14-0.11,0.21-0.16
	c0.5-0.03,0.99-0.09,1.44-0.35c1-0.57,1.16-1.62,1.18-2.69c0.02-1.42-0.23-2.83-0.33-4.24c-0.05-0.65-0.07-1.29,0.14-1.91
	c0.1-0.28,0.23-0.54,0.38-0.8c0.16-0.28,0.19-0.62,0.33-0.9c0.06-0.14-0.08-0.35-0.24-0.24c-0.23,0.18-0.49,0.3-0.69,0.52
	c-0.2,0.22-0.32,0.47-0.44,0.74c-0.24,0.54-0.37,1.14-0.38,1.73c0,0.24,0,0.48,0.02,0.72c-0.11,0.28-0.25,0.55-0.42,0.83
	c-0.17,0.27-0.37,0.57-0.65,0.73c-0.3-0.05-0.57,0.06-0.87,0.11c-0.8-0.48-0.96-1.6-1.06-2.49c-0.07-0.61-0.07-1.25-0.22-1.85
	c-0.13-0.52-0.43-0.88-0.74-1.3c-0.06-0.08-0.18-0.01-0.13,0.08c0.14,0.26,0.1,0.54,0.08,0.83c-0.01,0.31,0,0.62,0.03,0.93
	c0.06,0.66,0.09,1.32,0.19,1.97c0.1,0.66,0.28,1.31,0.63,1.83c-0.02,0-0.04-0.01-0.05-0.01c-0.73-0.13-1.42-0.4-2.04-0.8
	c-0.65-0.41-1.2-0.92-1.74-1.47c-0.27-0.28-0.52-0.58-0.77-0.87c-0.23-0.27-0.49-0.51-0.68-0.81c-0.06-0.1-0.23-0.04-0.2,0.08
	c0.14,0.42,0.21,0.83,0.44,1.23c0.21,0.37,0.44,0.73,0.72,1.05c0.56,0.64,1.21,1.21,1.95,1.64c-0.48-0.04-0.97-0.08-1.44-0.17
	c-0.87-0.17-1.67-0.48-2.38-1.01c-0.35-0.25-0.65-0.58-1-0.83c-0.15-0.1-0.34-0.33-0.5-0.37c-0.08-0.02-0.24,0.07-0.32,0.09
	c-0.05,0.01-0.04,0.08,0.01,0.08c0.3-0.03,0.29,0.15,0.38,0.39c0.08,0.21,0.2,0.4,0.33,0.59c0.27,0.36,0.6,0.68,0.97,0.95
	c0.13,0.1,0.27,0.18,0.4,0.26c-0.39,0.02-0.8,0.13-1.08,0.19c-0.06,0.01-0.12,0.03-0.19,0.04c0,0,0,0,0,0
	c-0.82-0.17-1.63-0.39-2.4-0.72c-0.35-0.15-0.67-0.33-1-0.51c-0.26-0.14-0.62-0.3-0.75-0.57c-0.03-0.07-0.13-0.02-0.11,0.05
	c0.07,0.36,0.11,0.64,0.35,0.92c0.24,0.31,0.58,0.54,0.92,0.73c0.4,0.22,0.82,0.4,1.26,0.54c-0.1,0.03-0.2,0.05-0.3,0.08
	c-0.79,0.19-1.58,0.29-2.39,0.31c-0.31,0.01-0.62,0.04-0.92,0.07c-2.21-0.39-4.39-1.35-5.35-3.46c-0.95-2.08-0.66-4.64-1.96-6.58
	c-1.12-1.68-3.11-2.13-4.9-2.77c-2.26-0.81-4.23-2.19-6.36-3.27h80.88L186.04,108.67L186.04,108.67z"/>
<path fill="#3F3F3F" d="M351.61,129.07v-38.4h-3.6v-38.4l-104.4,0v38.4h3.6v38.4h-3.6v38.4h3.6v38.4h-3.6v38.4h3.6v38.4h33.6v3.6
	h33.6v-3.6l37.2,0v-38.4h-3.6v-38.4h3.6v-38.4h-3.6v-38.4C348.02,129.07,351.61,129.07,351.61,129.07z M254.41,59.71
	c1.92,1.2,3.88,2.42,5.52,3.97c1.74,1.65,3.35,3.84,3.72,6.26c0.18,1.16,0.07,2.35,0.28,3.5c0.18,1.04,0.6,2.03,1.19,2.9
	c0.61,0.89,1.33,1.68,2.17,2.36c0.08,0.07,0.17,0.13,0.26,0.2c-0.03,0.01-0.07,0.02-0.1,0.04c-0.54,0.19-1.09,0.34-1.65,0.44
	c-0.57,0.1-1.15,0.18-1.73,0.2c-0.51,0.02-0.91,0.02-1.35,0.28c-0.13,0.07-0.12,0.25,0,0.33c0.01,0.01,0.02,0.01,0.03,0.02
	c-0.04,0.13,0.02,0.29,0.12,0.38c0.22,0.22,0.5,0.38,0.8,0.5c-0.3,0.09-0.59,0.19-0.88,0.3c-0.14,0.05-0.29,0.11-0.43,0.15
	c-0.79-0.16-1.57-0.33-2.35-0.53c-1.18-0.31-2.39-0.64-3.48-1.2c-0.51-0.26-1.01-0.5-1.56-0.68c-0.17-0.06-0.36-0.09-0.55-0.12
	L254.41,59.71L254.41,59.71z M278.9,251.8c-0.23,1.15-0.65,2.27-1.07,3.36c-0.89,2.34-1.37,4.56-1.2,7.07
	c0.16,2.25,0.75,4.45,1.14,6.66c0.21,1.19,0.33,2.39,0.36,3.6c0.01,0.59-0.02,1.17-0.07,1.76c-0.03,0.42-0.02,0.82-0.01,1.22h-23.65
	v-11.09c0.1,0.05,0.21,0.1,0.34,0.09h0.13c0.2,0,0.4-0.09,0.55-0.24c0.04-0.01,0.08-0.03,0.1-0.07c1.16-2.91,2.72-5.6,4.28-8.31
	c1.53-2.64,3.1-5.25,4.72-7.84c2.02-3.23,4.11-6.43,6.33-9.53c0.11,0.16,0.22,0.32,0.32,0.48c1.53,2.24,3.22,4.37,4.84,6.54
	c1.01,1.35,2.02,2.69,3.03,4.03c0.03,0.04,0.06,0.08,0.08,0.11C279.06,250.36,279.04,251.09,278.9,251.8z M292.13,257.73
	c-0.52,1.81-0.35,3.51-0.23,5.36c0.01,0.19-0.29,0.28-0.37,0.1c-1.72-4.04,1.08-6.9,2.27-10.62c0.03-0.09,0.17-0.05,0.14,0.04
	C293.5,254.39,292.62,255.98,292.13,257.73z M291.99,241.35c-0.77,1.85-2.03,3.2-3.69,4.29c-2.57,1.69-4.26,2.85-4.78,6
	c-0.03,0.19-0.32,0.14-0.32-0.04c0.01-1.34-0.18-3.36,0.9-4.43c1.72-1.68,4.1-2.59,5.68-4.41c3.94-4.54,4.55-12.48,3.88-18.16
	c-0.01-0.04,0.07-0.05,0.08-0.01C294.76,230.05,294.14,236.2,291.99,241.35z M300.73,180.95c9.73,3.99,5.61,16.15,6.25,23.97
	c0.01,0.14-0.21,0.17-0.24,0.03c-0.54-2.39-0.95-4.69-0.8-7.15c0.11-1.79,0.21-3.58,0.2-5.38c-0.02-4.69-1.07-8.88-5.52-11.21
	C300.48,181.14,300.58,180.89,300.73,180.95z M315.43,264.1c-13.2-5.7-8.03-22.78-13.67-33.28c-0.07-0.13,0.12-0.24,0.2-0.12
	c3.5,5.23,4.06,11.1,5.12,17.15c1.12,6.43,3.29,11.84,8.58,15.94C315.87,263.93,315.62,264.18,315.43,264.1z M321.36,257.38
	c-2.87-1.43-5.81-3.48-7.22-6.49c-1.49-3.18-1.92-6.4-2.69-9.79c-0.46-2.04-0.93-4.08-1.57-6.07c-0.58-1.8-1.44-5.76-3.85-5.84
	c-0.12,0-0.15-0.18-0.03-0.21c3.44-0.87,5.47,6.38,6.14,8.58c0.88,2.9,1.27,5.91,2.08,8.82c1.28,4.63,4.26,7.22,7.55,10.45
	C322.06,257.13,321.7,257.55,321.36,257.38z M323.06,244.15c-2.58-1.48-3.96-3.66-4.02-6.66c-0.09-4.51,1.44-9.94-3.06-12.83
	c-0.09-0.06-0.01-0.2,0.09-0.15c3.09,1.76,4.24,4.68,4.26,8.13c0.01,2.07-0.35,4.34,0.14,6.38c0.46,1.91,1.6,3.29,2.91,4.71
	C323.58,243.95,323.33,244.3,323.06,244.15z M340.81,275.47h-15.86c0.45-0.23,0.09-0.84-0.34-0.77c-0.23,0.04-0.38,0.03-0.5,0.01
	c0.09-0.23,0.17-0.46,0.24-0.7c0.27-0.94,0.56-1.88,0.84-2.82c0.59-2.03,1.29-4.04,1.8-6.1c0.9-3.67,0.66-7.52-0.26-11.16
	c-0.42-1.66-0.94-3.29-1.21-4.98c-0.21-1.29-0.28-2.97,0.68-3.98c0.68-0.71,1.75-1.15,2.73-1.23c0.83-0.07,1.46,0.27,2.04,0.77
	c0.02,0.04,0.03,0.09,0.05,0.13c0.07,0.18,0.22,0.26,0.36,0.24c0.12,0.06,0.27,0,0.31-0.14c0.17-0.5,0.11-0.99-0.1-1.41
	c0-0.39,0-0.78-0.05-1.17c-0.07-0.63-0.08-1.26-0.06-1.89c0.04-1.31,0.42-2.6,0.88-3.81c0.94-2.48,2.54-4.76,3.84-7.07
	c1.32-2.34,2.35-4.87,2.52-7.58c0.17-2.74-0.98-5.23-2.65-7.32c-1.67-2.1-3.77-3.77-5.79-5.51c-1.97-1.7-4.16-3.65-5.1-6.15
	c-0.82-2.17-0.4-4.48,0.02-6.68c0.07-0.38,0.14-0.77,0.19-1.15c2.11-1.27,4.22-2.53,6.36-3.75c3.15-1.8,6.22-3.74,9.03-6.03
	c0.01,0,0.02-0.01,0.03-0.02L340.81,275.47L340.81,275.47z M340.81,136.11c-0.32,0.09-0.66,0.12-0.95,0.22
	c-0.7,0.24-1.35,0.54-2.01,0.88c-1.41,0.73-2.96,1.16-4.49,1.55c-1.01,0.26-2.02,0.47-3.03,0.68c-0.19-0.05-0.38-0.12-0.56-0.2
	c-0.38-0.15-0.75-0.27-1.14-0.39c0.39-0.15,0.74-0.36,1.03-0.65c0.12-0.11,0.2-0.33,0.15-0.49c0.01-0.01,0.03-0.02,0.04-0.02
	c0.15-0.1,0.17-0.33,0-0.43c-0.58-0.34-1.09-0.33-1.75-0.37c-0.75-0.04-1.5-0.13-2.23-0.26c-0.73-0.13-1.44-0.33-2.14-0.57
	c-0.05-0.01-0.09-0.03-0.13-0.05c0.11-0.08,0.23-0.16,0.33-0.25c1.09-0.87,2.02-1.89,2.8-3.04c0.76-1.12,1.3-2.41,1.54-3.75
	c0.26-1.49,0.12-3.03,0.36-4.52c0.49-3.12,2.55-5.96,4.81-8.09c2.19-2.06,4.82-3.68,7.37-5.28L340.81,136.11L340.81,136.11z
	 M340.81,108.67c-0.85,0.18-1.7,0.35-2.55,0.53c-1.62,0.35-3.12,0.89-4.61,1.62c-2.84,1.4-5.43,3.26-8.43,4.33
	c-2.31,0.82-4.88,1.41-6.34,3.58c-1.68,2.51-1.3,5.81-2.53,8.5c-1.25,2.73-4.06,3.97-6.91,4.47c-0.4-0.04-0.79-0.08-1.19-0.09
	c-1.05-0.03-2.07-0.16-3.09-0.4c-0.13-0.03-0.26-0.06-0.39-0.1c0.56-0.19,1.11-0.42,1.63-0.7c0.44-0.24,0.88-0.54,1.19-0.94
	c0.3-0.37,0.35-0.73,0.45-1.19c0.02-0.09-0.11-0.15-0.15-0.06c-0.17,0.34-0.63,0.55-0.96,0.73c-0.43,0.24-0.84,0.47-1.29,0.66
	c-1,0.42-2.05,0.71-3.11,0.93c0,0,0,0,0,0c-0.08-0.02-0.16-0.04-0.24-0.05c-0.37-0.07-0.9-0.21-1.4-0.25
	c0.18-0.11,0.35-0.22,0.52-0.34c0.48-0.35,0.89-0.76,1.25-1.23c0.18-0.24,0.33-0.48,0.43-0.76c0.12-0.31,0.11-0.54,0.5-0.51
	c0.06,0,0.07-0.09,0.01-0.1c-0.11-0.02-0.31-0.14-0.42-0.11c-0.21,0.06-0.46,0.35-0.65,0.48c-0.46,0.31-0.84,0.74-1.29,1.07
	c-0.92,0.68-1.96,1.09-3.08,1.3c-0.61,0.12-1.24,0.17-1.87,0.22c0.95-0.56,1.8-1.29,2.52-2.12c0.36-0.41,0.66-0.88,0.93-1.36
	c0.29-0.51,0.39-1.04,0.57-1.58c0.05-0.15-0.17-0.23-0.25-0.1c-0.24,0.39-0.59,0.69-0.88,1.04c-0.33,0.39-0.65,0.77-1,1.13
	c-0.69,0.71-1.4,1.37-2.24,1.9c-0.81,0.52-1.7,0.86-2.64,1.03c-0.02,0-0.05,0.01-0.07,0.01c0.45-0.68,0.69-1.52,0.81-2.36
	c0.13-0.84,0.17-1.7,0.25-2.55c0.04-0.4,0.06-0.8,0.04-1.2c-0.02-0.37-0.07-0.74,0.11-1.08c0.06-0.12-0.1-0.2-0.17-0.1
	c-0.4,0.54-0.78,1.01-0.95,1.68c-0.2,0.77-0.2,1.6-0.28,2.38c-0.13,1.15-0.33,2.6-1.37,3.22c-0.39-0.07-0.74-0.21-1.13-0.15
	c-0.37-0.21-0.63-0.59-0.85-0.95c-0.22-0.36-0.39-0.71-0.54-1.07c0.02-0.31,0.03-0.62,0.02-0.94c-0.01-0.77-0.18-1.54-0.49-2.24
	c-0.16-0.34-0.32-0.67-0.57-0.95c-0.26-0.29-0.59-0.44-0.89-0.67c-0.2-0.15-0.39,0.13-0.31,0.31c0.17,0.37,0.21,0.81,0.42,1.17
	c0.2,0.33,0.36,0.66,0.49,1.03c0.27,0.8,0.24,1.64,0.18,2.47c-0.14,1.83-0.46,3.64-0.43,5.48c0.02,1.38,0.23,2.74,1.52,3.48
	c0.58,0.33,1.21,0.4,1.85,0.45c0.09,0.07,0.18,0.14,0.27,0.21c0.63,0.46,1.44,0.24,2.14,0.15c0.76-0.1,1.72,0.26,2.43,0.49
	c0.83,0.26,1.63,0.63,2.42,0.98c1.54,0.69,3.06,1.39,4.64,1.98c0.88,0.33,1.76,0.66,2.63,1.01c0.08,0.03,0.16,0.06,0.23,0.1
	c-0.95,0.19-1.91,0.51-2.71,1.05c-0.81,0.55-1.33,1.35-1.4,2.33c-0.08,1.18,0.65,1.97,1.33,2.81c-0.03,0.57-0.05,1.14-0.05,1.71
	c0,0.78,0,1.57,0.09,2.34c0.09,0.8,0.39,1.62,0.59,2.4c0.01,0.03,0.05,0.03,0.06,0c0.05-0.26,0.11-0.53,0.16-0.79
	c0.21-0.26,0.46-0.49,0.67-0.75c0.24-0.3,0.41-0.66,0.6-0.99c0.41-0.73,0.8-1.47,1.22-2.19c0.26-0.44,0.52-0.89,0.79-1.32
	c0.63,0.07,1.27-0.06,1.88-0.2c0.65-0.15,1.27-0.39,1.92-0.53c0.6-0.13,1.21-0.03,1.78,0.15c1.04,0.32,1.97,1,2.92,1.52
	c0.74,0.4,1.59,0.72,2.44,0.8c0.21,0.16,0.43,0.31,0.62,0.43c0.65,0.42,1.27,0.83,1.36,1.66c0.05,0.42,0.02,0.85-0.05,1.28
	c-0.18,0.38-0.4,0.73-0.68,1.05c-0.19,0.21-0.36,0.41-0.45,0.65c-0.12,0.07-0.21,0.19-0.22,0.38c-0.05,0.91-0.17,1.82-0.23,2.73
	c-0.01,0-0.02,0.01-0.02,0.01c-0.19,0.11-0.22,0.33-0.14,0.51c0.1,0.21,0.24,0.28,0.45,0.35c0.27,0.1,0.52,0.28,0.77,0.43
	c0.51,0.31,0.92,0.55,1.26,1.06c0.02,0.03,0.08,0.02,0.08-0.02c-0.04-0.54-0.34-1.23-0.71-1.62c-0.27-0.29-0.79-0.72-1.27-0.79
	c0.38-0.76,0.44-1.65,0.67-2.48c0.02-0.01,0.05-0.02,0.07-0.03c0.61,0.27,1.29,0.24,1.94,0.41c0.78,0.21,1.59,0.7,2.21,1.22
	c0.07,0.06,0.17-0.03,0.1-0.1c-0.53-0.62-1.02-1.22-1.68-1.7c-0.33-0.24-0.69-0.41-1.07-0.56c-0.19-0.07-0.4-0.1-0.6-0.13
	c0.05-0.07,0.1-0.14,0.15-0.21c0.56-0.79,0.64-1.58,0.56-2.51c-0.01-0.05-0.03-0.09-0.06-0.13c-0.03-0.32-0.13-0.63-0.27-0.91
	c0.09-0.04,0.19-0.06,0.3-0.08c0.01,0.58,0.11,1.15,0.38,1.67c0.3,0.58,0.71,1.1,0.99,1.69c0.04,0.07,0.16,0.02,0.13-0.06
	c-0.39-1.06-0.49-2.32-0.41-3.46c0.06-0.01,0.12-0.02,0.19-0.03c0.31-0.04,0.63-0.01,0.94,0.01c0.32,0.02,0.63,0.07,0.96,0.05
	c0.25-0.02,0.54-0.09,0.77-0.02c0.11,0.03,0.18-0.13,0.08-0.19c-0.27-0.17-0.49-0.45-0.77-0.63c-0.3-0.2-0.7-0.26-1.05-0.31
	c-0.29-0.04-0.69-0.09-1.05-0.04c0-0.37-0.02-0.73-0.04-1.1c-0.02-0.34-0.04-0.67-0.08-1.01c0.38-0.01,0.77,0,1.16,0.01
	c1.42,0.05,2.76,0.11,4.16-0.13c1.33-0.23,2.6-0.71,3.79-1.32c2.32-1.19,4.27-2.99,6.21-4.7c0.96-0.84,1.97-1.63,2.91-2.51
	c0.14-0.13,0.3-0.29,0.46-0.47v40.8c-0.34,0.21-0.68,0.42-1.02,0.63c-0.21-0.27-0.43-0.54-0.64-0.8c-0.66-0.84-1.39-1.62-2.14-2.37
	c-1.65-1.64-3.51-3.13-5.46-4.4c-1.65-1.07-3.55-2.17-5.56-2.91c-3.9-2.38-8.05-4.33-12.34-5.88c-5.27-1.91-10.8-3.11-16.38-3.65
	c-4.36-0.42-8.92-0.47-13.33,0.17c-0.21,0.01-0.42,0.01-0.62,0.03c-0.2,0.01-0.37,0.07-0.52,0.16c-0.93,0.16-1.86,0.35-2.77,0.58
	c-2.29,0.58-4.58,1.24-6.77,2.14c-2.26,0.93-4.35,2.15-6.51,3.26c-0.09,0.05-0.01,0.17,0.08,0.13c1.12-0.5,2.28-0.91,3.46-1.28
	c-1.42,0.55-2.82,1.15-4.19,1.81c-0.08,0.04-0.01,0.15,0.07,0.12c8.27-3.52,17.16-3.94,25.82-2.44c2.96,0.75,5.92,1.5,8.89,2.21
	c0.23,0.07,0.45,0.14,0.67,0.21c5.22,1.74,10.4,3.63,15.26,6.23c2.42,1.3,4.75,2.8,6.9,4.49c2.34,1.84,4.47,3.95,6.73,5.9
	c0.46,0.39,0.92,0.77,1.39,1.15c-2.21,1.35-4.42,2.7-6.63,4.05c-0.01-0.02-0.01-0.04-0.02-0.06c-0.02-0.07-0.13-0.06-0.12,0.02
	c0,0.04,0.01,0.08,0.01,0.12c-1.92,1.17-3.83,2.35-5.75,3.53c-0.58-0.09-1.14-0.21-1.7-0.42c-0.99-0.36-1.94-0.91-2.79-1.57
	c-0.1-0.17-0.2-0.34-0.31-0.5c-0.52-0.79-1-1.61-1.45-2.44c-0.77-1.43-1.36-2.93-1.96-4.44c-0.99-2.5-2.03-5.08-3.66-7.23
	c-1.59-2.09-3.79-3.46-6.45-3.45c-2.51,0.01-4.63,1.65-5.28,4c-1.36,1.74-2.39,3.86-3.32,5.79c-1.25,2.6-2.33,5.26-3.49,7.9
	c-0.94,2.16-1.38,4.43-0.35,6.58c-4.14,2.32-7.47,6.23-9.87,10.21c-1.04,1.73-1.99,3.51-3.17,5.15c-1.17,1.62-2.53,3.1-3.76,4.68
	c-1.17,1.51-2.15,3.15-3.07,4.82c-0.43,0.78-0.8,1.59-1.13,2.41c-0.17,0.43-0.3,0.87-0.41,1.32c-0.14,0.54,0.08,0.99,0.15,1.51
	c0.02,0.13,0.09,0.21,0.18,0.25c-0.05,0.26-0.09,0.51-0.12,0.75c-0.17,1.19,0.01,2.35,0.32,3.51c0.08,0.3,0.17,0.6,0.27,0.89
	c-2.05,2.44-3.99,4.97-5.82,7.59c-0.92,1.13-1.81,2.29-2.64,3.49c-1.74,2.52-3.13,5.27-4.56,7.97c-0.17,0.32-0.34,0.63-0.51,0.94
	V81.56c0.06,0.06,0.12,0.12,0.17,0.17c0.72,0.68,1.51,1.29,2.25,1.94c1.5,1.32,3.01,2.71,4.81,3.63c0.92,0.48,1.91,0.85,2.94,1.02
	c1.09,0.19,2.13,0.15,3.22,0.1c0.3-0.01,0.61-0.02,0.9-0.01c-0.03,0.26-0.04,0.52-0.06,0.78c-0.02,0.29-0.03,0.57-0.03,0.85
	c-0.28-0.03-0.59,0-0.81,0.03c-0.27,0.04-0.58,0.09-0.81,0.24c-0.21,0.14-0.39,0.36-0.6,0.49c-0.08,0.05-0.03,0.17,0.06,0.15
	c0.18-0.05,0.4,0,0.6,0.02c0.25,0.02,0.49-0.02,0.74-0.04c0.24-0.02,0.49-0.04,0.73-0.01c0.05,0.01,0.1,0.02,0.15,0.02
	c0.06,0.89-0.01,1.86-0.32,2.68c-0.02,0.06,0.08,0.1,0.1,0.04c0.22-0.46,0.53-0.86,0.77-1.31c0.21-0.4,0.29-0.84,0.29-1.29
	c0.08,0.01,0.16,0.03,0.23,0.06c-0.11,0.22-0.19,0.45-0.21,0.7c-0.02,0.02-0.04,0.06-0.05,0.1c-0.06,0.72-0.01,1.34,0.43,1.94
	c0.04,0.05,0.08,0.11,0.12,0.16c-0.15,0.03-0.31,0.05-0.46,0.1c-0.29,0.11-0.57,0.25-0.82,0.43c-0.52,0.38-0.89,0.84-1.3,1.32
	c-0.05,0.06,0.02,0.13,0.08,0.08c0.48-0.4,1.11-0.79,1.71-0.94c0.5-0.13,1.03-0.11,1.5-0.32c0.02,0.01,0.03,0.02,0.05,0.03
	c0.17,0.64,0.22,1.33,0.52,1.92c-0.36,0.05-0.77,0.38-0.98,0.61c-0.28,0.31-0.52,0.84-0.55,1.26c0,0.04,0.04,0.04,0.06,0.02
	c0.27-0.39,0.58-0.58,0.98-0.82c0.19-0.12,0.38-0.25,0.6-0.33c0.17-0.06,0.28-0.11,0.35-0.28c0.06-0.15,0.04-0.31-0.1-0.4
	c-0.01,0-0.01-0.01-0.02-0.01c-0.05-0.71-0.14-1.41-0.18-2.11c-0.01-0.15-0.08-0.24-0.17-0.29c-0.07-0.19-0.2-0.34-0.35-0.51
	c-0.22-0.25-0.39-0.52-0.53-0.81c-0.05-0.33-0.07-0.66-0.03-0.99c0.08-0.64,0.56-0.96,1.05-1.29c0.15-0.1,0.32-0.21,0.48-0.33
	c0.66-0.06,1.32-0.31,1.89-0.62c0.74-0.4,1.45-0.93,2.26-1.18c0.44-0.14,0.92-0.21,1.38-0.11c0.5,0.11,0.98,0.29,1.49,0.41
	c0.47,0.11,0.97,0.21,1.46,0.16c0.2,0.34,0.41,0.68,0.61,1.03c0.32,0.56,0.62,1.13,0.94,1.7c0.15,0.26,0.28,0.54,0.47,0.77
	c0.16,0.2,0.35,0.38,0.52,0.58c0.04,0.21,0.08,0.41,0.12,0.61c0,0.02,0.04,0.02,0.05,0c0.16-0.61,0.39-1.24,0.46-1.86
	c0.07-0.6,0.07-1.21,0.07-1.81c0-0.44-0.01-0.88-0.04-1.32c0.52-0.65,1.09-1.26,1.03-2.17c-0.05-0.76-0.46-1.38-1.08-1.81
	c-0.62-0.42-1.37-0.67-2.1-0.82c0.06-0.02,0.12-0.05,0.18-0.07c0.67-0.27,1.35-0.53,2.03-0.78c1.23-0.46,2.4-1,3.59-1.54
	c0.61-0.27,1.23-0.55,1.88-0.76c0.56-0.18,1.29-0.46,1.88-0.38c0.54,0.07,1.16,0.23,1.65-0.12c0.07-0.05,0.14-0.11,0.21-0.16
	c0.5-0.03,0.99-0.09,1.44-0.35c1-0.57,1.16-1.62,1.18-2.69c0.02-1.42-0.23-2.83-0.33-4.24c-0.05-0.65-0.08-1.29,0.14-1.91
	c0.1-0.28,0.23-0.54,0.38-0.8c0.17-0.28,0.19-0.62,0.33-0.9c0.06-0.14-0.08-0.35-0.24-0.24c-0.23,0.18-0.49,0.3-0.69,0.52
	c-0.2,0.22-0.32,0.47-0.44,0.74c-0.24,0.54-0.37,1.14-0.38,1.73c0,0.24,0.01,0.48,0.02,0.72c-0.11,0.28-0.25,0.55-0.42,0.83
	c-0.17,0.27-0.37,0.57-0.66,0.73c-0.3-0.05-0.57,0.06-0.87,0.11c-0.8-0.48-0.96-1.6-1.06-2.49c-0.07-0.61-0.07-1.25-0.22-1.85
	c-0.13-0.52-0.43-0.88-0.74-1.3c-0.06-0.08-0.18-0.01-0.13,0.08c0.14,0.26,0.09,0.54,0.08,0.83c-0.01,0.31,0.01,0.62,0.03,0.93
	c0.06,0.66,0.09,1.32,0.19,1.97c0.1,0.66,0.28,1.31,0.63,1.83c-0.02,0-0.03-0.01-0.05-0.01c-0.73-0.13-1.42-0.4-2.04-0.8
	c-0.65-0.41-1.2-0.92-1.73-1.47c-0.27-0.28-0.52-0.58-0.77-0.87c-0.23-0.27-0.49-0.51-0.68-0.81c-0.06-0.1-0.23-0.04-0.2,0.08
	c0.14,0.42,0.21,0.83,0.44,1.23c0.21,0.37,0.44,0.73,0.72,1.05c0.56,0.64,1.21,1.21,1.95,1.64c-0.48-0.04-0.97-0.08-1.44-0.17
	c-0.87-0.17-1.67-0.48-2.38-1.01c-0.35-0.25-0.65-0.58-1-0.83c-0.15-0.1-0.34-0.33-0.5-0.37c-0.08-0.02-0.24,0.07-0.32,0.09
	c-0.05,0.01-0.03,0.08,0.01,0.08c0.3-0.03,0.29,0.15,0.38,0.39c0.08,0.21,0.2,0.4,0.33,0.59c0.27,0.36,0.6,0.68,0.97,0.95
	c0.13,0.1,0.27,0.18,0.4,0.26c-0.39,0.02-0.8,0.13-1.09,0.19c-0.06,0.01-0.12,0.03-0.19,0.04c0,0,0,0,0,0
	c-0.82-0.17-1.63-0.39-2.4-0.72c-0.35-0.15-0.67-0.33-1-0.51c-0.26-0.14-0.62-0.3-0.75-0.57c-0.03-0.07-0.13-0.02-0.11,0.05
	c0.07,0.36,0.11,0.64,0.35,0.92c0.24,0.31,0.58,0.54,0.92,0.73c0.4,0.22,0.82,0.4,1.26,0.54c-0.1,0.03-0.2,0.05-0.3,0.08
	c-0.79,0.19-1.58,0.29-2.4,0.31c-0.31,0.01-0.62,0.04-0.92,0.07c-2.21-0.39-4.39-1.35-5.35-3.46c-0.95-2.08-0.66-4.64-1.96-6.58
	c-1.12-1.68-3.11-2.13-4.9-2.77c-2.26-0.81-4.23-2.19-6.36-3.27h80.88L340.81,108.67L340.81,108.67z"/>
<path fill="#3F3F3F" d="M506.39,129.07v-38.4h-3.6v-38.4l-104.4,0v38.4h3.6v38.4h-3.6v38.4h3.6v38.4h-3.6v38.4h3.6v38.4h33.6v3.6
	h33.6v-3.6l37.2,0v-38.4h-3.6v-38.4h3.6v-38.4h-3.6v-38.4C502.79,129.07,506.39,129.07,506.39,129.07z M409.19,59.71
	c1.92,1.2,3.88,2.42,5.52,3.97c1.74,1.65,3.35,3.84,3.72,6.26c0.18,1.16,0.07,2.35,0.28,3.5c0.18,1.04,0.6,2.03,1.19,2.9
	c0.6,0.89,1.33,1.68,2.17,2.36c0.08,0.07,0.17,0.13,0.26,0.2c-0.03,0.01-0.07,0.02-0.1,0.04c-0.54,0.19-1.09,0.34-1.65,0.44
	c-0.57,0.1-1.15,0.18-1.73,0.2c-0.51,0.02-0.91,0.02-1.35,0.28c-0.13,0.07-0.12,0.25,0,0.33c0.01,0.01,0.02,0.01,0.03,0.02
	c-0.04,0.13,0.03,0.29,0.12,0.38c0.22,0.22,0.5,0.38,0.8,0.5c-0.3,0.09-0.59,0.19-0.88,0.3c-0.14,0.05-0.29,0.11-0.43,0.15
	c-0.78-0.16-1.57-0.33-2.35-0.53c-1.18-0.31-2.39-0.64-3.48-1.2c-0.51-0.26-1.01-0.5-1.56-0.68c-0.17-0.06-0.36-0.09-0.55-0.12
	L409.19,59.71L409.19,59.71z M433.68,251.8c-0.23,1.15-0.65,2.27-1.07,3.36c-0.89,2.34-1.37,4.56-1.2,7.07
	c0.16,2.25,0.75,4.45,1.14,6.66c0.21,1.19,0.33,2.39,0.36,3.6c0.01,0.59-0.02,1.17-0.07,1.76c-0.03,0.42-0.02,0.82-0.01,1.22h-23.65
	v-11.09c0.1,0.05,0.21,0.1,0.34,0.09h0.13c0.2,0,0.4-0.09,0.55-0.24c0.04-0.01,0.08-0.03,0.1-0.07c1.16-2.91,2.72-5.6,4.28-8.31
	c1.53-2.64,3.1-5.25,4.72-7.84c2.02-3.23,4.11-6.43,6.33-9.53c0.11,0.16,0.22,0.32,0.32,0.48c1.53,2.24,3.22,4.37,4.84,6.54
	c1.01,1.35,2.02,2.69,3.03,4.03c0.03,0.04,0.06,0.08,0.08,0.11C433.84,250.36,433.82,251.09,433.68,251.8z M446.9,257.73
	c-0.52,1.81-0.35,3.51-0.23,5.36c0.01,0.19-0.29,0.28-0.37,0.1c-1.72-4.04,1.08-6.9,2.27-10.62c0.03-0.09,0.17-0.05,0.14,0.04
	C448.27,254.39,447.4,255.98,446.9,257.73z M446.76,241.35c-0.77,1.85-2.03,3.2-3.69,4.29c-2.57,1.69-4.26,2.85-4.78,6
	c-0.03,0.19-0.32,0.14-0.32-0.04c0.01-1.34-0.18-3.36,0.91-4.43c1.71-1.68,4.1-2.59,5.68-4.41c3.94-4.54,4.55-12.48,3.88-18.16
	c-0.01-0.04,0.07-0.05,0.08-0.01C449.53,230.05,448.91,236.2,446.76,241.35z M455.51,180.95c9.73,3.99,5.61,16.15,6.25,23.97
	c0.01,0.14-0.21,0.17-0.24,0.03c-0.54-2.39-0.95-4.69-0.8-7.15c0.11-1.79,0.21-3.58,0.2-5.38c-0.02-4.69-1.07-8.88-5.52-11.21
	C455.25,181.14,455.36,180.89,455.51,180.95z M470.2,264.1c-13.2-5.7-8.03-22.78-13.67-33.28c-0.07-0.13,0.12-0.24,0.2-0.12
	c3.5,5.23,4.06,11.1,5.12,17.15c1.12,6.43,3.29,11.84,8.58,15.94C470.64,263.93,470.39,264.18,470.2,264.1z M476.13,257.38
	c-2.87-1.43-5.81-3.48-7.22-6.49c-1.49-3.18-1.92-6.4-2.69-9.79c-0.46-2.04-0.93-4.08-1.57-6.07c-0.58-1.8-1.44-5.76-3.85-5.84
	c-0.12,0-0.15-0.18-0.03-0.21c3.44-0.87,5.47,6.38,6.14,8.58c0.88,2.9,1.27,5.91,2.08,8.82c1.28,4.63,4.26,7.22,7.55,10.45
	C476.83,257.13,476.47,257.55,476.13,257.38z M477.84,244.15c-2.58-1.48-3.96-3.66-4.02-6.66c-0.09-4.51,1.44-9.94-3.06-12.83
	c-0.09-0.06-0.01-0.2,0.09-0.15c3.09,1.76,4.24,4.68,4.26,8.13c0.01,2.07-0.35,4.34,0.14,6.38c0.46,1.91,1.6,3.29,2.91,4.71
	C478.36,243.95,478.1,244.3,477.84,244.15z M495.59,275.47h-15.86c0.45-0.23,0.09-0.84-0.34-0.77c-0.23,0.04-0.38,0.03-0.5,0.01
	c0.09-0.23,0.17-0.46,0.24-0.7c0.27-0.94,0.56-1.88,0.84-2.82c0.59-2.03,1.29-4.04,1.8-6.1c0.9-3.67,0.66-7.52-0.26-11.16
	c-0.42-1.66-0.94-3.29-1.21-4.98c-0.21-1.29-0.28-2.97,0.68-3.98c0.68-0.71,1.75-1.15,2.73-1.23c0.83-0.07,1.46,0.27,2.04,0.77
	c0.02,0.04,0.03,0.09,0.05,0.13c0.07,0.18,0.22,0.26,0.36,0.24c0.12,0.06,0.27,0,0.31-0.14c0.16-0.5,0.11-0.99-0.1-1.41
	c0-0.39,0-0.78-0.05-1.17c-0.07-0.63-0.08-1.26-0.06-1.89c0.04-1.31,0.42-2.6,0.88-3.81c0.94-2.48,2.54-4.76,3.84-7.07
	c1.32-2.34,2.35-4.87,2.52-7.58c0.17-2.74-0.98-5.23-2.65-7.32c-1.67-2.1-3.77-3.77-5.79-5.51c-1.97-1.7-4.16-3.65-5.1-6.15
	c-0.82-2.17-0.4-4.48,0.02-6.68c0.07-0.38,0.14-0.77,0.19-1.15c2.11-1.27,4.22-2.53,6.35-3.75c3.15-1.8,6.22-3.74,9.03-6.03
	c0.01,0,0.02-0.01,0.03-0.02L495.59,275.47L495.59,275.47z M495.59,136.11c-0.32,0.09-0.66,0.12-0.95,0.22
	c-0.7,0.24-1.35,0.54-2.01,0.88c-1.41,0.73-2.96,1.16-4.49,1.55c-1.01,0.26-2.02,0.47-3.03,0.68c-0.19-0.05-0.38-0.12-0.56-0.2
	c-0.38-0.15-0.75-0.27-1.14-0.39c0.39-0.15,0.74-0.36,1.03-0.65c0.12-0.11,0.2-0.33,0.15-0.49c0.01-0.01,0.03-0.02,0.04-0.02
	c0.15-0.1,0.17-0.33,0-0.43c-0.58-0.34-1.09-0.33-1.75-0.37c-0.75-0.04-1.5-0.13-2.23-0.26c-0.73-0.13-1.44-0.33-2.14-0.57
	c-0.04-0.01-0.09-0.03-0.13-0.05c0.11-0.08,0.23-0.16,0.34-0.25c1.08-0.87,2.02-1.89,2.8-3.04c0.76-1.12,1.3-2.41,1.54-3.75
	c0.26-1.49,0.12-3.03,0.36-4.52c0.49-3.12,2.55-5.96,4.81-8.09c2.19-2.06,4.82-3.68,7.37-5.28L495.59,136.11L495.59,136.11z
	 M495.59,108.67c-0.85,0.18-1.7,0.35-2.55,0.53c-1.62,0.35-3.12,0.89-4.61,1.62c-2.84,1.4-5.43,3.26-8.43,4.33
	c-2.31,0.82-4.88,1.41-6.34,3.58c-1.68,2.51-1.3,5.81-2.53,8.5c-1.25,2.73-4.06,3.97-6.91,4.47c-0.4-0.04-0.79-0.08-1.19-0.09
	c-1.05-0.03-2.07-0.16-3.09-0.4c-0.13-0.03-0.26-0.06-0.39-0.1c0.56-0.19,1.11-0.42,1.63-0.7c0.44-0.24,0.88-0.54,1.19-0.94
	c0.3-0.37,0.35-0.73,0.45-1.19c0.02-0.09-0.11-0.15-0.15-0.06c-0.17,0.34-0.63,0.55-0.96,0.73c-0.43,0.24-0.85,0.47-1.3,0.66
	c-1,0.42-2.05,0.71-3.11,0.93c0,0,0,0,0,0c-0.08-0.02-0.16-0.04-0.24-0.05c-0.37-0.07-0.9-0.21-1.4-0.25
	c0.18-0.11,0.35-0.22,0.52-0.34c0.48-0.35,0.9-0.76,1.25-1.23c0.18-0.24,0.33-0.48,0.43-0.76c0.12-0.31,0.11-0.54,0.5-0.51
	c0.06,0,0.07-0.09,0.01-0.1c-0.11-0.02-0.31-0.14-0.42-0.11c-0.21,0.06-0.46,0.35-0.65,0.48c-0.46,0.31-0.84,0.74-1.29,1.07
	c-0.92,0.68-1.96,1.09-3.08,1.3c-0.61,0.12-1.24,0.17-1.87,0.22c0.95-0.56,1.8-1.29,2.52-2.12c0.36-0.41,0.66-0.88,0.93-1.36
	c0.29-0.51,0.39-1.04,0.57-1.58c0.05-0.15-0.17-0.23-0.25-0.1c-0.24,0.39-0.59,0.69-0.88,1.04c-0.33,0.39-0.65,0.77-1,1.13
	c-0.69,0.71-1.4,1.37-2.24,1.9c-0.81,0.52-1.7,0.86-2.64,1.03c-0.02,0-0.05,0.01-0.07,0.01c0.45-0.68,0.69-1.52,0.81-2.36
	c0.13-0.84,0.17-1.7,0.25-2.55c0.04-0.4,0.06-0.8,0.04-1.2c-0.02-0.37-0.07-0.74,0.11-1.08c0.06-0.12-0.1-0.2-0.17-0.1
	c-0.4,0.54-0.78,1.01-0.95,1.68c-0.2,0.77-0.2,1.6-0.28,2.38c-0.13,1.15-0.33,2.6-1.37,3.22c-0.39-0.07-0.74-0.21-1.13-0.15
	c-0.37-0.21-0.63-0.59-0.85-0.95c-0.22-0.36-0.39-0.71-0.54-1.07c0.02-0.31,0.03-0.62,0.02-0.94c-0.01-0.77-0.18-1.54-0.49-2.24
	c-0.15-0.34-0.32-0.67-0.57-0.95c-0.26-0.29-0.6-0.44-0.89-0.67c-0.2-0.15-0.39,0.13-0.31,0.31c0.17,0.37,0.21,0.81,0.42,1.17
	c0.2,0.33,0.36,0.66,0.49,1.03c0.27,0.8,0.24,1.64,0.18,2.47c-0.14,1.83-0.46,3.64-0.43,5.48c0.02,1.38,0.23,2.74,1.52,3.48
	c0.58,0.33,1.21,0.4,1.85,0.45c0.09,0.07,0.18,0.14,0.27,0.21c0.63,0.46,1.44,0.24,2.14,0.15c0.76-0.1,1.71,0.26,2.43,0.49
	c0.83,0.26,1.63,0.63,2.42,0.98c1.54,0.69,3.06,1.39,4.64,1.98c0.88,0.33,1.76,0.66,2.63,1.01c0.08,0.03,0.16,0.06,0.23,0.1
	c-0.95,0.19-1.92,0.51-2.71,1.05c-0.81,0.55-1.33,1.35-1.4,2.33c-0.08,1.18,0.65,1.97,1.33,2.81c-0.03,0.57-0.05,1.14-0.05,1.71
	c0,0.78,0,1.57,0.09,2.34c0.09,0.8,0.39,1.62,0.59,2.4c0.01,0.03,0.05,0.03,0.06,0c0.05-0.26,0.11-0.53,0.16-0.79
	c0.22-0.26,0.46-0.49,0.67-0.75c0.24-0.3,0.41-0.66,0.6-0.99c0.41-0.73,0.8-1.47,1.22-2.19c0.26-0.44,0.52-0.89,0.79-1.32
	c0.63,0.07,1.27-0.06,1.88-0.2c0.65-0.15,1.27-0.39,1.92-0.53c0.6-0.13,1.21-0.03,1.78,0.15c1.04,0.32,1.97,1,2.92,1.52
	c0.74,0.4,1.59,0.72,2.44,0.8c0.21,0.16,0.43,0.31,0.62,0.43c0.64,0.42,1.27,0.83,1.36,1.66c0.05,0.42,0.02,0.85-0.05,1.28
	c-0.18,0.38-0.4,0.73-0.68,1.05c-0.19,0.21-0.36,0.41-0.45,0.65c-0.12,0.07-0.21,0.19-0.22,0.38c-0.05,0.91-0.17,1.82-0.23,2.73
	c-0.01,0-0.02,0.01-0.02,0.01c-0.19,0.11-0.22,0.33-0.14,0.51c0.1,0.21,0.24,0.28,0.45,0.35c0.28,0.1,0.52,0.28,0.77,0.43
	c0.51,0.31,0.92,0.55,1.26,1.06c0.02,0.03,0.08,0.02,0.08-0.02c-0.04-0.54-0.34-1.23-0.71-1.62c-0.27-0.29-0.79-0.72-1.27-0.79
	c0.38-0.76,0.44-1.65,0.67-2.48c0.02-0.01,0.04-0.02,0.07-0.03c0.61,0.27,1.3,0.24,1.94,0.41c0.78,0.21,1.6,0.7,2.21,1.22
	c0.07,0.06,0.16-0.03,0.1-0.1c-0.53-0.62-1.02-1.22-1.68-1.7c-0.33-0.24-0.69-0.41-1.07-0.56c-0.19-0.07-0.4-0.1-0.6-0.13
	c0.05-0.07,0.1-0.14,0.15-0.21c0.56-0.79,0.64-1.58,0.56-2.51c-0.01-0.05-0.03-0.09-0.06-0.13c-0.03-0.32-0.13-0.63-0.28-0.91
	c0.09-0.04,0.19-0.06,0.3-0.08c0.01,0.58,0.1,1.15,0.38,1.67c0.3,0.58,0.71,1.1,0.99,1.69c0.03,0.07,0.16,0.02,0.13-0.06
	c-0.39-1.06-0.49-2.32-0.41-3.46c0.06-0.01,0.12-0.02,0.19-0.03c0.31-0.04,0.63-0.01,0.94,0.01c0.32,0.02,0.63,0.07,0.95,0.05
	c0.25-0.02,0.54-0.09,0.77-0.02c0.11,0.03,0.18-0.13,0.08-0.19c-0.27-0.17-0.49-0.45-0.77-0.63c-0.3-0.2-0.7-0.26-1.05-0.31
	c-0.29-0.04-0.69-0.09-1.05-0.04c0-0.37-0.02-0.73-0.04-1.1c-0.02-0.34-0.05-0.67-0.08-1.01c0.38-0.01,0.77,0,1.17,0.01
	c1.41,0.05,2.76,0.11,4.16-0.13c1.33-0.23,2.6-0.71,3.8-1.32c2.32-1.19,4.27-2.99,6.21-4.7c0.96-0.84,1.97-1.63,2.91-2.51
	c0.14-0.13,0.3-0.29,0.46-0.47v40.8c-0.34,0.21-0.68,0.42-1.02,0.63c-0.21-0.27-0.43-0.54-0.64-0.8c-0.66-0.84-1.39-1.62-2.14-2.37
	c-1.65-1.64-3.51-3.13-5.46-4.4c-1.65-1.07-3.55-2.17-5.56-2.91c-3.9-2.38-8.05-4.33-12.34-5.88c-5.27-1.91-10.79-3.11-16.38-3.65
	c-4.36-0.42-8.92-0.47-13.33,0.17c-0.21,0.01-0.42,0.01-0.62,0.03c-0.2,0.01-0.37,0.07-0.52,0.16c-0.93,0.16-1.86,0.35-2.77,0.58
	c-2.29,0.58-4.58,1.24-6.77,2.14c-2.26,0.93-4.35,2.15-6.51,3.26c-0.09,0.05-0.01,0.17,0.08,0.13c1.12-0.5,2.28-0.91,3.46-1.28
	c-1.42,0.55-2.82,1.15-4.19,1.81c-0.08,0.04-0.01,0.15,0.07,0.12c8.27-3.52,17.16-3.94,25.82-2.44c2.96,0.75,5.92,1.5,8.89,2.21
	c0.23,0.07,0.45,0.14,0.67,0.21c5.22,1.74,10.4,3.63,15.26,6.23c2.42,1.3,4.75,2.8,6.9,4.49c2.34,1.84,4.47,3.95,6.73,5.9
	c0.46,0.39,0.92,0.77,1.39,1.15c-2.21,1.35-4.42,2.7-6.63,4.05c-0.01-0.02-0.01-0.04-0.02-0.06c-0.02-0.07-0.13-0.06-0.12,0.02
	c0,0.04,0.01,0.08,0.01,0.12c-1.92,1.17-3.83,2.35-5.75,3.53c-0.58-0.09-1.14-0.21-1.7-0.42c-0.99-0.36-1.94-0.91-2.79-1.57
	c-0.1-0.17-0.2-0.34-0.31-0.5c-0.52-0.79-1-1.61-1.45-2.44c-0.77-1.43-1.36-2.93-1.96-4.44c-0.99-2.5-2.03-5.08-3.66-7.23
	c-1.59-2.09-3.79-3.46-6.45-3.45c-2.51,0.01-4.63,1.65-5.28,4c-1.36,1.74-2.39,3.86-3.32,5.79c-1.25,2.6-2.33,5.26-3.49,7.9
	c-0.94,2.16-1.38,4.43-0.35,6.58c-4.14,2.32-7.47,6.23-9.87,10.21c-1.04,1.73-1.99,3.51-3.17,5.15c-1.17,1.62-2.53,3.1-3.76,4.68
	c-1.17,1.51-2.15,3.15-3.07,4.82c-0.43,0.78-0.8,1.59-1.13,2.41c-0.17,0.43-0.3,0.87-0.41,1.32c-0.14,0.54,0.08,0.99,0.15,1.51
	c0.02,0.13,0.09,0.21,0.18,0.25c-0.05,0.26-0.09,0.51-0.12,0.75c-0.17,1.19,0.01,2.35,0.32,3.51c0.08,0.3,0.17,0.6,0.27,0.89
	c-2.05,2.44-3.99,4.97-5.82,7.59c-0.92,1.13-1.81,2.29-2.64,3.49c-1.74,2.52-3.13,5.27-4.56,7.97c-0.17,0.32-0.34,0.63-0.51,0.94
	V81.56c0.06,0.06,0.12,0.12,0.17,0.17c0.72,0.68,1.51,1.29,2.25,1.94c1.5,1.32,3.01,2.71,4.81,3.63c0.92,0.48,1.91,0.85,2.94,1.02
	c1.09,0.19,2.13,0.15,3.22,0.1c0.3-0.01,0.61-0.02,0.9-0.01c-0.03,0.26-0.04,0.52-0.06,0.78c-0.02,0.29-0.03,0.57-0.03,0.85
	c-0.28-0.03-0.59,0-0.81,0.03c-0.27,0.04-0.58,0.09-0.81,0.24c-0.21,0.14-0.39,0.36-0.6,0.49c-0.08,0.05-0.03,0.17,0.06,0.15
	c0.18-0.05,0.41,0,0.6,0.02c0.25,0.02,0.49-0.02,0.74-0.04c0.24-0.02,0.49-0.04,0.73-0.01c0.05,0.01,0.1,0.02,0.15,0.02
	c0.06,0.89-0.01,1.86-0.32,2.68c-0.02,0.06,0.08,0.1,0.1,0.04c0.22-0.46,0.53-0.86,0.77-1.31c0.21-0.4,0.29-0.84,0.29-1.29
	c0.08,0.01,0.16,0.03,0.23,0.06c-0.11,0.22-0.19,0.45-0.21,0.7c-0.02,0.02-0.04,0.06-0.05,0.1c-0.06,0.72-0.01,1.34,0.43,1.94
	c0.04,0.05,0.08,0.11,0.12,0.16c-0.15,0.03-0.31,0.05-0.46,0.1c-0.29,0.11-0.57,0.25-0.83,0.43c-0.52,0.38-0.89,0.84-1.3,1.32
	c-0.05,0.06,0.02,0.13,0.08,0.08c0.48-0.4,1.11-0.79,1.71-0.94c0.5-0.13,1.03-0.11,1.5-0.32c0.02,0.01,0.03,0.02,0.05,0.03
	c0.17,0.64,0.22,1.33,0.52,1.92c-0.36,0.05-0.77,0.38-0.98,0.61c-0.28,0.31-0.52,0.84-0.55,1.26c0,0.04,0.04,0.04,0.06,0.02
	c0.27-0.39,0.58-0.58,0.98-0.82c0.19-0.12,0.38-0.25,0.6-0.33c0.17-0.06,0.28-0.11,0.35-0.28c0.06-0.15,0.04-0.31-0.1-0.4
	c-0.01,0-0.01-0.01-0.02-0.01c-0.05-0.71-0.14-1.41-0.18-2.11c-0.01-0.15-0.08-0.24-0.17-0.29c-0.07-0.19-0.2-0.34-0.35-0.51
	c-0.22-0.25-0.39-0.52-0.53-0.81c-0.05-0.33-0.08-0.66-0.04-0.99c0.08-0.64,0.56-0.96,1.05-1.29c0.15-0.1,0.32-0.21,0.48-0.33
	c0.66-0.06,1.32-0.31,1.89-0.62c0.74-0.4,1.45-0.93,2.26-1.18c0.44-0.14,0.92-0.21,1.38-0.11c0.5,0.11,0.98,0.29,1.49,0.41
	c0.47,0.11,0.97,0.21,1.45,0.16c0.21,0.34,0.41,0.68,0.61,1.03c0.32,0.56,0.62,1.13,0.94,1.7c0.15,0.26,0.28,0.54,0.47,0.77
	c0.16,0.2,0.35,0.38,0.52,0.58c0.04,0.21,0.08,0.41,0.12,0.61c0,0.02,0.04,0.02,0.05,0c0.16-0.61,0.39-1.24,0.46-1.86
	c0.07-0.6,0.07-1.21,0.07-1.81c0-0.44-0.01-0.88-0.04-1.32c0.52-0.65,1.09-1.26,1.03-2.17c-0.05-0.76-0.46-1.38-1.08-1.81
	c-0.62-0.42-1.37-0.67-2.1-0.82c0.06-0.02,0.12-0.05,0.18-0.07c0.67-0.27,1.35-0.53,2.03-0.78c1.23-0.46,2.4-1,3.59-1.54
	c0.61-0.27,1.23-0.55,1.88-0.76c0.56-0.18,1.29-0.46,1.88-0.38c0.54,0.07,1.17,0.23,1.65-0.12c0.07-0.05,0.14-0.11,0.21-0.16
	c0.5-0.03,0.99-0.09,1.44-0.35c1-0.57,1.16-1.62,1.18-2.69c0.02-1.42-0.23-2.83-0.33-4.24c-0.05-0.65-0.08-1.29,0.14-1.91
	c0.1-0.28,0.23-0.54,0.38-0.8c0.16-0.28,0.19-0.62,0.33-0.9c0.06-0.14-0.08-0.35-0.24-0.24c-0.23,0.18-0.49,0.3-0.69,0.52
	c-0.2,0.22-0.32,0.47-0.44,0.74c-0.24,0.54-0.37,1.14-0.38,1.73c0,0.24,0.01,0.48,0.02,0.72c-0.11,0.28-0.25,0.55-0.42,0.83
	c-0.17,0.27-0.37,0.57-0.65,0.73c-0.3-0.05-0.57,0.06-0.87,0.11c-0.8-0.48-0.96-1.6-1.06-2.49c-0.07-0.61-0.07-1.25-0.22-1.85
	c-0.13-0.52-0.43-0.88-0.74-1.3c-0.06-0.08-0.18-0.01-0.13,0.08c0.14,0.26,0.1,0.54,0.08,0.83c-0.01,0.31,0.01,0.62,0.03,0.93
	c0.06,0.66,0.09,1.32,0.19,1.97c0.1,0.66,0.28,1.31,0.63,1.83c-0.02,0-0.04-0.01-0.05-0.01c-0.73-0.13-1.42-0.4-2.04-0.8
	c-0.65-0.41-1.2-0.92-1.73-1.47c-0.27-0.28-0.52-0.58-0.77-0.87c-0.23-0.27-0.49-0.51-0.68-0.81c-0.06-0.1-0.23-0.04-0.2,0.08
	c0.14,0.42,0.22,0.83,0.44,1.23c0.21,0.37,0.44,0.73,0.72,1.05c0.56,0.64,1.21,1.21,1.95,1.64c-0.48-0.04-0.97-0.08-1.44-0.17
	c-0.87-0.17-1.67-0.48-2.38-1.01c-0.35-0.25-0.65-0.58-1-0.83c-0.15-0.1-0.34-0.33-0.5-0.37c-0.08-0.02-0.24,0.07-0.32,0.09
	c-0.05,0.01-0.04,0.08,0.01,0.08c0.3-0.03,0.29,0.15,0.38,0.39c0.08,0.21,0.2,0.4,0.33,0.59c0.27,0.36,0.6,0.68,0.97,0.95
	c0.13,0.1,0.27,0.18,0.4,0.26c-0.39,0.02-0.8,0.13-1.08,0.19c-0.06,0.01-0.12,0.03-0.19,0.04c0,0,0,0,0,0
	c-0.82-0.17-1.63-0.39-2.4-0.72c-0.35-0.15-0.67-0.33-1-0.51c-0.26-0.14-0.62-0.3-0.75-0.57c-0.03-0.07-0.13-0.02-0.11,0.05
	c0.07,0.36,0.11,0.64,0.34,0.92c0.24,0.31,0.58,0.54,0.92,0.73c0.4,0.22,0.82,0.4,1.26,0.54c-0.1,0.03-0.2,0.05-0.3,0.08
	c-0.79,0.19-1.58,0.29-2.39,0.31c-0.31,0.01-0.62,0.04-0.92,0.07c-2.21-0.39-4.39-1.35-5.35-3.46c-0.95-2.08-0.66-4.64-1.96-6.58
	c-1.12-1.68-3.11-2.13-4.9-2.77c-2.26-0.81-4.23-2.19-6.36-3.27h80.88L495.59,108.67L495.59,108.67z"/>
<path fill="#3F3F3F" d="M661.16,129.07v-38.4h-3.6v-38.4l-104.4,0v38.4h3.6v38.4h-3.6v38.4h3.6v38.4h-3.6v38.4h3.6v38.4h33.6v3.6
	h33.6v-3.6l37.2,0v-38.4h-3.6v-38.4h3.6v-38.4h-3.6v-38.4C657.56,129.07,661.16,129.07,661.16,129.07z M563.96,59.71
	c1.92,1.2,3.88,2.42,5.52,3.97c1.74,1.65,3.35,3.84,3.72,6.26c0.18,1.16,0.07,2.35,0.28,3.5c0.18,1.04,0.6,2.03,1.19,2.9
	c0.6,0.89,1.33,1.68,2.17,2.36c0.09,0.07,0.17,0.13,0.26,0.2c-0.03,0.01-0.07,0.02-0.1,0.04c-0.54,0.19-1.09,0.34-1.65,0.44
	c-0.57,0.1-1.15,0.18-1.73,0.2c-0.51,0.02-0.91,0.02-1.35,0.28c-0.13,0.07-0.12,0.25,0,0.33c0.01,0.01,0.02,0.01,0.03,0.02
	c-0.04,0.13,0.03,0.29,0.12,0.38c0.22,0.22,0.5,0.38,0.8,0.5c-0.3,0.09-0.59,0.19-0.88,0.3c-0.14,0.05-0.29,0.11-0.43,0.15
	c-0.78-0.16-1.57-0.33-2.35-0.53c-1.18-0.31-2.39-0.64-3.48-1.2c-0.51-0.26-1.01-0.5-1.56-0.68c-0.17-0.06-0.36-0.09-0.55-0.12
	L563.96,59.71L563.96,59.71z M588.45,251.8c-0.23,1.15-0.65,2.27-1.07,3.36c-0.89,2.34-1.37,4.56-1.2,7.07
	c0.16,2.25,0.75,4.45,1.14,6.66c0.21,1.19,0.33,2.39,0.36,3.6c0.01,0.59-0.02,1.17-0.07,1.76c-0.03,0.42-0.02,0.82-0.01,1.22h-23.65
	v-11.09c0.1,0.05,0.21,0.1,0.34,0.09h0.13c0.2,0,0.4-0.09,0.55-0.24c0.04-0.01,0.08-0.03,0.1-0.07c1.16-2.91,2.72-5.6,4.28-8.31
	c1.53-2.64,3.1-5.25,4.72-7.84c2.02-3.23,4.11-6.43,6.33-9.53c0.11,0.16,0.22,0.32,0.32,0.48c1.53,2.24,3.22,4.37,4.84,6.54
	c1.01,1.35,2.02,2.69,3.03,4.03c0.03,0.04,0.06,0.08,0.08,0.11C588.61,250.36,588.59,251.09,588.45,251.8z M601.67,257.73
	c-0.52,1.81-0.35,3.51-0.23,5.36c0.01,0.19-0.29,0.28-0.37,0.1c-1.72-4.04,1.08-6.9,2.27-10.62c0.03-0.09,0.17-0.05,0.14,0.04
	C603.05,254.39,602.17,255.98,601.67,257.73z M601.54,241.35c-0.77,1.85-2.03,3.2-3.69,4.29c-2.57,1.69-4.26,2.85-4.78,6
	c-0.03,0.19-0.32,0.14-0.32-0.04c0.01-1.34-0.18-3.36,0.91-4.43c1.72-1.68,4.1-2.59,5.68-4.41c3.94-4.54,4.55-12.48,3.88-18.16
	c-0.01-0.04,0.07-0.05,0.08-0.01C604.31,230.05,603.68,236.2,601.54,241.35z M610.28,180.95c9.73,3.99,5.61,16.15,6.25,23.97
	c0.01,0.14-0.22,0.17-0.24,0.03c-0.54-2.39-0.95-4.69-0.8-7.15c0.11-1.79,0.21-3.58,0.2-5.38c-0.02-4.69-1.07-8.88-5.52-11.21
	C610.03,181.14,610.13,180.89,610.28,180.95z M624.98,264.1c-13.2-5.7-8.03-22.78-13.67-33.28c-0.07-0.13,0.12-0.24,0.2-0.12
	c3.5,5.23,4.06,11.1,5.12,17.15c1.12,6.43,3.29,11.84,8.58,15.94C625.41,263.93,625.17,264.18,624.98,264.1z M630.91,257.38
	c-2.87-1.43-5.81-3.48-7.22-6.49c-1.49-3.18-1.92-6.4-2.69-9.79c-0.46-2.04-0.93-4.08-1.57-6.07c-0.58-1.8-1.44-5.76-3.85-5.84
	c-0.12,0-0.15-0.18-0.03-0.21c3.44-0.87,5.47,6.38,6.14,8.58c0.88,2.9,1.27,5.91,2.08,8.82c1.28,4.63,4.26,7.22,7.55,10.45
	C631.61,257.13,631.24,257.55,630.91,257.38z M632.61,244.15c-2.58-1.48-3.96-3.66-4.02-6.66c-0.09-4.51,1.44-9.94-3.06-12.83
	c-0.09-0.06-0.01-0.2,0.09-0.15c3.09,1.76,4.24,4.68,4.26,8.13c0.01,2.07-0.35,4.34,0.14,6.38c0.46,1.91,1.6,3.29,2.91,4.71
	C633.13,243.95,632.88,244.3,632.61,244.15z M650.36,275.47H634.5c0.45-0.23,0.09-0.84-0.34-0.77c-0.23,0.04-0.38,0.03-0.5,0.01
	c0.09-0.23,0.17-0.46,0.24-0.7c0.27-0.94,0.56-1.88,0.84-2.82c0.59-2.03,1.29-4.04,1.8-6.1c0.9-3.67,0.66-7.52-0.26-11.16
	c-0.42-1.66-0.94-3.29-1.21-4.98c-0.21-1.29-0.28-2.97,0.68-3.98c0.68-0.71,1.75-1.15,2.73-1.23c0.83-0.07,1.46,0.27,2.04,0.77
	c0.02,0.04,0.03,0.09,0.05,0.13c0.07,0.18,0.22,0.26,0.36,0.24c0.12,0.06,0.27,0,0.31-0.14c0.16-0.5,0.11-0.99-0.1-1.41
	c0-0.39,0-0.78-0.05-1.17c-0.07-0.63-0.08-1.26-0.06-1.89c0.04-1.31,0.42-2.6,0.88-3.81c0.94-2.48,2.54-4.76,3.84-7.07
	c1.32-2.34,2.35-4.87,2.52-7.58c0.17-2.74-0.98-5.23-2.65-7.32c-1.67-2.1-3.77-3.77-5.79-5.51c-1.97-1.7-4.16-3.65-5.1-6.15
	c-0.82-2.17-0.4-4.48,0.02-6.68c0.07-0.38,0.14-0.77,0.19-1.15c2.11-1.27,4.22-2.53,6.35-3.75c3.15-1.8,6.22-3.74,9.03-6.03
	c0.01,0,0.02-0.01,0.03-0.02L650.36,275.47L650.36,275.47z M650.36,136.11c-0.32,0.09-0.66,0.12-0.95,0.22
	c-0.7,0.24-1.35,0.54-2.01,0.88c-1.41,0.73-2.96,1.16-4.49,1.55c-1.01,0.26-2.02,0.47-3.03,0.68c-0.19-0.05-0.38-0.12-0.56-0.2
	c-0.38-0.15-0.75-0.27-1.14-0.39c0.39-0.15,0.74-0.36,1.03-0.65c0.12-0.11,0.2-0.33,0.15-0.49c0.01-0.01,0.03-0.02,0.04-0.02
	c0.15-0.1,0.17-0.33,0-0.43c-0.58-0.34-1.09-0.33-1.75-0.37c-0.75-0.04-1.5-0.13-2.23-0.26c-0.73-0.13-1.44-0.33-2.14-0.57
	c-0.04-0.01-0.09-0.03-0.13-0.05c0.11-0.08,0.23-0.16,0.34-0.25c1.09-0.87,2.02-1.89,2.8-3.04c0.76-1.12,1.3-2.41,1.54-3.75
	c0.26-1.49,0.12-3.03,0.36-4.52c0.49-3.12,2.55-5.96,4.81-8.09c2.19-2.06,4.82-3.68,7.37-5.28L650.36,136.11L650.36,136.11z
	 M650.36,108.67c-0.85,0.18-1.7,0.35-2.55,0.53c-1.62,0.35-3.12,0.89-4.61,1.62c-2.84,1.4-5.43,3.26-8.43,4.33
	c-2.31,0.82-4.88,1.41-6.34,3.58c-1.68,2.51-1.3,5.81-2.53,8.5c-1.25,2.73-4.06,3.97-6.91,4.47c-0.4-0.04-0.79-0.08-1.19-0.09
	c-1.05-0.03-2.07-0.16-3.09-0.4c-0.13-0.03-0.26-0.06-0.39-0.1c0.56-0.19,1.11-0.42,1.63-0.7c0.44-0.24,0.88-0.54,1.19-0.94
	c0.3-0.37,0.35-0.73,0.45-1.19c0.02-0.09-0.11-0.15-0.15-0.06c-0.17,0.34-0.63,0.55-0.96,0.73c-0.43,0.24-0.84,0.47-1.29,0.66
	c-1,0.42-2.05,0.71-3.11,0.93c0,0,0,0,0,0c-0.08-0.02-0.16-0.04-0.24-0.05c-0.37-0.07-0.9-0.21-1.4-0.25
	c0.18-0.11,0.35-0.22,0.52-0.34c0.48-0.35,0.9-0.76,1.25-1.23c0.18-0.24,0.33-0.48,0.43-0.76c0.12-0.31,0.11-0.54,0.5-0.51
	c0.06,0,0.07-0.09,0.01-0.1c-0.11-0.02-0.31-0.14-0.42-0.11c-0.21,0.06-0.46,0.35-0.65,0.48c-0.46,0.31-0.84,0.74-1.29,1.07
	c-0.92,0.68-1.96,1.09-3.08,1.3c-0.61,0.12-1.24,0.17-1.87,0.22c0.95-0.56,1.8-1.29,2.52-2.12c0.36-0.41,0.66-0.88,0.93-1.36
	c0.29-0.51,0.39-1.04,0.57-1.58c0.05-0.15-0.17-0.23-0.25-0.1c-0.24,0.39-0.59,0.69-0.88,1.04c-0.33,0.39-0.65,0.77-1,1.13
	c-0.69,0.71-1.4,1.37-2.24,1.9c-0.81,0.52-1.7,0.86-2.64,1.03c-0.02,0-0.05,0.01-0.07,0.01c0.45-0.68,0.69-1.52,0.81-2.36
	c0.13-0.84,0.17-1.7,0.25-2.55c0.04-0.4,0.06-0.8,0.04-1.2c-0.02-0.37-0.07-0.74,0.11-1.08c0.06-0.12-0.1-0.2-0.17-0.1
	c-0.4,0.54-0.78,1.01-0.95,1.68c-0.2,0.77-0.2,1.6-0.28,2.38c-0.13,1.15-0.33,2.6-1.37,3.22c-0.39-0.07-0.74-0.21-1.13-0.15
	c-0.37-0.21-0.63-0.59-0.85-0.95c-0.22-0.36-0.39-0.71-0.54-1.07c0.02-0.31,0.03-0.62,0.02-0.94c-0.01-0.77-0.18-1.54-0.49-2.24
	c-0.16-0.34-0.32-0.67-0.57-0.95c-0.26-0.29-0.59-0.44-0.89-0.67c-0.2-0.15-0.39,0.13-0.31,0.31c0.17,0.37,0.21,0.81,0.42,1.17
	c0.2,0.33,0.36,0.66,0.49,1.03c0.27,0.8,0.24,1.64,0.18,2.47c-0.14,1.83-0.46,3.64-0.43,5.48c0.02,1.38,0.23,2.74,1.52,3.48
	c0.58,0.33,1.21,0.4,1.85,0.45c0.09,0.07,0.18,0.14,0.27,0.21c0.63,0.46,1.44,0.24,2.14,0.15c0.76-0.1,1.72,0.26,2.43,0.49
	c0.83,0.26,1.63,0.63,2.42,0.98c1.54,0.69,3.06,1.39,4.64,1.98c0.88,0.33,1.76,0.66,2.63,1.01c0.08,0.03,0.16,0.06,0.23,0.1
	c-0.95,0.19-1.91,0.51-2.71,1.05c-0.81,0.55-1.33,1.35-1.4,2.33c-0.08,1.18,0.65,1.97,1.33,2.81c-0.03,0.57-0.05,1.14-0.05,1.71
	c0,0.78,0,1.57,0.09,2.34c0.09,0.8,0.39,1.62,0.59,2.4c0.01,0.03,0.05,0.03,0.06,0c0.05-0.26,0.11-0.53,0.16-0.79
	c0.22-0.26,0.46-0.49,0.67-0.75c0.24-0.3,0.41-0.66,0.6-0.99c0.41-0.73,0.8-1.47,1.22-2.19c0.26-0.44,0.52-0.89,0.79-1.32
	c0.63,0.07,1.27-0.06,1.88-0.2c0.65-0.15,1.27-0.39,1.92-0.53c0.6-0.13,1.21-0.03,1.78,0.15c1.04,0.32,1.97,1,2.92,1.52
	c0.74,0.4,1.59,0.72,2.44,0.8c0.21,0.16,0.43,0.31,0.62,0.43c0.65,0.42,1.27,0.83,1.36,1.66c0.05,0.42,0.02,0.85-0.05,1.28
	c-0.18,0.38-0.4,0.73-0.68,1.05c-0.19,0.21-0.36,0.41-0.45,0.65c-0.12,0.07-0.21,0.19-0.22,0.38c-0.05,0.91-0.17,1.82-0.23,2.73
	c-0.01,0-0.02,0.01-0.02,0.01c-0.19,0.11-0.22,0.33-0.14,0.51c0.1,0.21,0.24,0.28,0.45,0.35c0.28,0.1,0.52,0.28,0.77,0.43
	c0.51,0.31,0.92,0.55,1.26,1.06c0.02,0.03,0.08,0.02,0.08-0.02c-0.04-0.54-0.34-1.23-0.71-1.62c-0.27-0.29-0.79-0.72-1.27-0.79
	c0.38-0.76,0.44-1.65,0.67-2.48c0.02-0.01,0.04-0.02,0.07-0.03c0.61,0.27,1.29,0.24,1.94,0.41c0.78,0.21,1.59,0.7,2.21,1.22
	c0.07,0.06,0.16-0.03,0.1-0.1c-0.53-0.62-1.02-1.22-1.68-1.7c-0.33-0.24-0.69-0.41-1.07-0.56c-0.19-0.07-0.4-0.1-0.6-0.13
	c0.05-0.07,0.1-0.14,0.15-0.21c0.56-0.79,0.64-1.58,0.56-2.51c-0.01-0.05-0.03-0.09-0.06-0.13c-0.03-0.32-0.13-0.63-0.28-0.91
	c0.09-0.04,0.19-0.06,0.3-0.08c0.01,0.58,0.1,1.15,0.38,1.67c0.3,0.58,0.71,1.1,0.99,1.69c0.03,0.07,0.16,0.02,0.13-0.06
	c-0.39-1.06-0.49-2.32-0.41-3.46c0.06-0.01,0.12-0.02,0.19-0.03c0.31-0.04,0.63-0.01,0.94,0.01c0.32,0.02,0.63,0.07,0.96,0.05
	c0.25-0.02,0.54-0.09,0.77-0.02c0.11,0.03,0.18-0.13,0.08-0.19c-0.27-0.17-0.49-0.45-0.77-0.63c-0.3-0.2-0.7-0.26-1.05-0.31
	c-0.29-0.04-0.69-0.09-1.05-0.04c0-0.37-0.02-0.73-0.04-1.1c-0.02-0.34-0.04-0.67-0.08-1.01c0.38-0.01,0.77,0,1.16,0.01
	c1.41,0.05,2.76,0.11,4.16-0.13c1.33-0.23,2.6-0.71,3.79-1.32c2.32-1.19,4.27-2.99,6.21-4.7c0.96-0.84,1.97-1.63,2.91-2.51
	c0.14-0.13,0.3-0.29,0.46-0.47v40.8c-0.34,0.21-0.68,0.42-1.02,0.63c-0.21-0.27-0.43-0.54-0.64-0.8c-0.66-0.84-1.39-1.62-2.14-2.37
	c-1.65-1.64-3.51-3.13-5.46-4.4c-1.65-1.07-3.55-2.17-5.56-2.91c-3.9-2.38-8.05-4.33-12.34-5.88c-5.27-1.91-10.79-3.11-16.38-3.65
	c-4.36-0.42-8.92-0.47-13.33,0.17c-0.21,0.01-0.42,0.01-0.62,0.03c-0.2,0.01-0.37,0.07-0.52,0.16c-0.93,0.16-1.86,0.35-2.77,0.58
	c-2.29,0.58-4.58,1.24-6.77,2.14c-2.26,0.93-4.35,2.15-6.51,3.26c-0.09,0.05-0.01,0.17,0.08,0.13c1.12-0.5,2.28-0.91,3.46-1.28
	c-1.42,0.55-2.82,1.15-4.19,1.81c-0.08,0.04-0.01,0.15,0.07,0.12c8.27-3.52,17.16-3.94,25.82-2.44c2.96,0.75,5.92,1.5,8.89,2.21
	c0.22,0.07,0.45,0.14,0.67,0.21c5.22,1.74,10.4,3.63,15.26,6.23c2.42,1.3,4.75,2.8,6.91,4.49c2.34,1.84,4.47,3.95,6.73,5.9
	c0.46,0.39,0.92,0.77,1.39,1.15c-2.21,1.35-4.42,2.7-6.63,4.05c-0.01-0.02-0.01-0.04-0.02-0.06c-0.02-0.07-0.13-0.06-0.12,0.02
	c0,0.04,0.01,0.08,0.01,0.12c-1.92,1.17-3.83,2.35-5.75,3.53c-0.58-0.09-1.14-0.21-1.7-0.42c-0.99-0.36-1.94-0.91-2.79-1.57
	c-0.1-0.17-0.2-0.34-0.31-0.5c-0.52-0.79-1-1.61-1.45-2.44c-0.77-1.43-1.36-2.93-1.96-4.44c-0.99-2.5-2.03-5.08-3.66-7.23
	c-1.59-2.09-3.79-3.46-6.45-3.45c-2.51,0.01-4.63,1.65-5.28,4c-1.36,1.74-2.39,3.86-3.32,5.79c-1.25,2.6-2.33,5.26-3.49,7.9
	c-0.94,2.16-1.38,4.43-0.35,6.58c-4.14,2.32-7.47,6.23-9.87,10.21c-1.04,1.73-1.99,3.51-3.17,5.15c-1.17,1.62-2.53,3.1-3.76,4.68
	c-1.17,1.51-2.15,3.15-3.07,4.82c-0.43,0.78-0.8,1.59-1.13,2.41c-0.17,0.43-0.3,0.87-0.41,1.32c-0.14,0.54,0.08,0.99,0.15,1.51
	c0.02,0.13,0.09,0.21,0.18,0.25c-0.05,0.26-0.09,0.51-0.12,0.75c-0.17,1.19,0.01,2.35,0.32,3.51c0.08,0.3,0.17,0.6,0.27,0.89
	c-2.05,2.44-3.99,4.97-5.82,7.59c-0.92,1.13-1.81,2.29-2.64,3.49c-1.74,2.52-3.13,5.27-4.56,7.97c-0.17,0.32-0.34,0.63-0.51,0.94
	V81.56c0.06,0.06,0.12,0.12,0.17,0.17c0.72,0.68,1.51,1.29,2.25,1.94c1.5,1.32,3.01,2.71,4.81,3.63c0.92,0.48,1.91,0.85,2.94,1.02
	c1.09,0.19,2.13,0.15,3.22,0.1c0.3-0.01,0.61-0.02,0.9-0.01c-0.03,0.26-0.04,0.52-0.06,0.78c-0.02,0.29-0.03,0.57-0.03,0.85
	c-0.28-0.03-0.59,0-0.81,0.03c-0.27,0.04-0.58,0.09-0.81,0.24c-0.22,0.14-0.39,0.36-0.6,0.49c-0.08,0.05-0.03,0.17,0.06,0.15
	c0.18-0.05,0.41,0,0.6,0.02c0.25,0.02,0.49-0.02,0.74-0.04c0.24-0.02,0.49-0.04,0.73-0.01c0.05,0.01,0.1,0.02,0.15,0.02
	c0.06,0.89-0.01,1.86-0.32,2.68c-0.02,0.06,0.08,0.1,0.1,0.04c0.22-0.46,0.53-0.86,0.77-1.31c0.21-0.4,0.29-0.84,0.29-1.29
	c0.08,0.01,0.16,0.03,0.23,0.06c-0.11,0.22-0.19,0.45-0.21,0.7c-0.02,0.02-0.04,0.06-0.04,0.1c-0.06,0.72-0.01,1.34,0.43,1.94
	c0.04,0.05,0.08,0.11,0.12,0.16c-0.15,0.03-0.31,0.05-0.46,0.1c-0.29,0.11-0.57,0.25-0.83,0.43c-0.52,0.38-0.89,0.84-1.3,1.32
	c-0.05,0.06,0.02,0.13,0.08,0.08c0.48-0.4,1.11-0.79,1.71-0.94c0.5-0.13,1.03-0.11,1.5-0.32c0.02,0.01,0.03,0.02,0.05,0.03
	c0.17,0.64,0.22,1.33,0.52,1.92c-0.36,0.05-0.77,0.38-0.98,0.61c-0.28,0.31-0.52,0.84-0.55,1.26c0,0.04,0.04,0.04,0.06,0.02
	c0.27-0.39,0.58-0.58,0.98-0.82c0.19-0.12,0.38-0.25,0.6-0.33c0.16-0.06,0.28-0.11,0.35-0.28c0.06-0.15,0.04-0.31-0.1-0.4
	c-0.01,0-0.01-0.01-0.02-0.01c-0.05-0.71-0.14-1.41-0.18-2.11c-0.01-0.15-0.08-0.24-0.17-0.29c-0.07-0.19-0.2-0.34-0.35-0.51
	c-0.22-0.25-0.39-0.52-0.53-0.81c-0.05-0.33-0.08-0.66-0.03-0.99c0.08-0.64,0.56-0.96,1.05-1.29c0.15-0.1,0.32-0.21,0.48-0.33
	c0.66-0.06,1.32-0.31,1.89-0.62c0.74-0.4,1.45-0.93,2.26-1.18c0.44-0.14,0.92-0.21,1.38-0.11c0.5,0.11,0.98,0.29,1.49,0.41
	c0.47,0.11,0.97,0.21,1.46,0.16c0.21,0.34,0.41,0.68,0.61,1.03c0.32,0.56,0.62,1.13,0.94,1.7c0.15,0.26,0.28,0.54,0.47,0.77
	c0.16,0.2,0.35,0.38,0.52,0.58c0.04,0.21,0.08,0.41,0.12,0.61c0,0.02,0.04,0.02,0.05,0c0.16-0.61,0.39-1.24,0.46-1.86
	c0.07-0.6,0.07-1.21,0.07-1.81c0-0.44-0.01-0.88-0.04-1.32c0.52-0.65,1.09-1.26,1.03-2.17c-0.05-0.76-0.46-1.38-1.08-1.81
	c-0.62-0.42-1.37-0.67-2.1-0.82c0.06-0.02,0.12-0.05,0.18-0.07c0.67-0.27,1.35-0.53,2.03-0.78c1.23-0.46,2.4-1,3.59-1.54
	c0.61-0.27,1.23-0.55,1.88-0.76c0.56-0.18,1.29-0.46,1.88-0.38c0.54,0.07,1.16,0.23,1.65-0.12c0.07-0.05,0.14-0.11,0.21-0.16
	c0.5-0.03,0.99-0.09,1.44-0.35c1-0.57,1.16-1.62,1.18-2.69c0.02-1.42-0.23-2.83-0.33-4.24c-0.05-0.65-0.08-1.29,0.14-1.91
	c0.1-0.28,0.23-0.54,0.38-0.8c0.16-0.28,0.19-0.62,0.33-0.9c0.06-0.14-0.08-0.35-0.24-0.24c-0.23,0.18-0.49,0.3-0.69,0.52
	c-0.2,0.22-0.32,0.47-0.44,0.74c-0.24,0.54-0.37,1.14-0.38,1.73c0,0.24,0.01,0.48,0.02,0.72c-0.11,0.28-0.25,0.55-0.42,0.83
	c-0.17,0.27-0.37,0.57-0.66,0.73c-0.3-0.05-0.57,0.06-0.87,0.11c-0.8-0.48-0.96-1.6-1.06-2.49c-0.07-0.61-0.07-1.25-0.22-1.85
	c-0.13-0.52-0.43-0.88-0.74-1.3c-0.06-0.08-0.18-0.01-0.13,0.08c0.14,0.26,0.09,0.54,0.08,0.83c-0.01,0.31,0.01,0.62,0.03,0.93
	c0.06,0.66,0.09,1.32,0.19,1.97c0.1,0.66,0.28,1.31,0.63,1.83c-0.02,0-0.03-0.01-0.05-0.01c-0.73-0.13-1.42-0.4-2.04-0.8
	c-0.65-0.41-1.2-0.92-1.73-1.47c-0.27-0.28-0.52-0.58-0.77-0.87c-0.23-0.27-0.49-0.51-0.68-0.81c-0.06-0.1-0.23-0.04-0.2,0.08
	c0.14,0.42,0.22,0.83,0.44,1.23c0.21,0.37,0.44,0.73,0.72,1.05c0.56,0.64,1.21,1.21,1.95,1.64c-0.48-0.04-0.97-0.08-1.44-0.17
	c-0.87-0.17-1.67-0.48-2.38-1.01c-0.35-0.25-0.65-0.58-1-0.83c-0.15-0.1-0.34-0.33-0.5-0.37c-0.08-0.02-0.24,0.07-0.32,0.09
	c-0.05,0.01-0.03,0.08,0.01,0.08c0.3-0.03,0.29,0.15,0.38,0.39c0.08,0.21,0.2,0.4,0.33,0.59c0.27,0.36,0.6,0.68,0.97,0.95
	c0.13,0.1,0.27,0.18,0.4,0.26c-0.39,0.02-0.8,0.13-1.09,0.19c-0.06,0.01-0.12,0.03-0.19,0.04c0,0,0,0,0,0
	c-0.82-0.17-1.63-0.39-2.4-0.72c-0.35-0.15-0.67-0.33-1-0.51c-0.26-0.14-0.62-0.3-0.75-0.57c-0.03-0.07-0.13-0.02-0.11,0.05
	c0.07,0.36,0.11,0.64,0.34,0.92c0.24,0.31,0.58,0.54,0.92,0.73c0.4,0.22,0.82,0.4,1.26,0.54c-0.1,0.03-0.2,0.05-0.3,0.08
	c-0.79,0.19-1.58,0.29-2.4,0.31c-0.31,0.01-0.62,0.04-0.92,0.07c-2.21-0.39-4.39-1.35-5.35-3.46c-0.95-2.08-0.66-4.64-1.96-6.58
	c-1.12-1.68-3.11-2.13-4.9-2.77c-2.26-0.81-4.23-2.19-6.36-3.27h80.88L650.36,108.67L650.36,108.67z"/>
</svg>
