<?xml version="1.0" encoding="utf-8"?>
<!-- Generator: Adobe Illustrator 26.0.1, SVG Export Plug-In . SVG Version: 6.00 Build 0)  -->
<svg version="1.1" id="Livello_1" xmlns="http://www.w3.org/2000/svg" xmlns:xlink="http://www.w3.org/1999/xlink" x="0px" y="0px"
	 viewBox="0 0 2000 2000" enable-background="new 0 0 2000 2000" xml:space="preserve">
<path d="M1186.9,350H814.5L647.4,771.3l165,878.7h382.2c0.7-4.1,156.7-871.8,158-878.7L1186.9,350z M1201.4,465.2
	c-28.2,2.4-39-37.8-100-46.8c-16-2.5-15.8,8-10.2,9.2c74,15,66.4,45.3,88.4,77c12.6,18.2,42.4,20,45.8,30.3
	c3.2,9.5-16.9,11.8-30,6.3c-16.3-6.9-26.3-25.9-44.3-28.9c-11-1.8-23.1,2.5-33.1-2.4c-12-5.9-14.8-21.4-22.2-32.6
	c-2.2-3.3-7.4-2.2-8.1,1.8c-2.6,15.5,8.8,32.5,23.1,41c16.8,10.1,41.8,0.3,54.5,21.5c-7.1,13.3-9.9,28.9-8.1,43.8
	c0.6,4.8,7.1,6.2,9.6,2.1c5.6-9.3,1.5-20.2,7.8-28.1c8.2-10.3,26.2-4.1,36.2,1.1c2.9,1.5,5.1,4.2,5.7,7.4
	c1.9,11.7-26,25.4-24.3,35.3c0.6,3.7,2.6,3.2,6.3,3c14-0.8,29.8-37.3,53.7-11.8c9.2,23.3,8.6,20.8,8.2,23.8
	c-4.8,30.4-38.5,32.1-55.1,43.9c-23.2,3.7-35.7,83.2-62.1,78.4c-27.3-5-24-55.4-26.4-78.5c-2.4-22.7-35.7-57.3-68.9-52.1
	c-3.5-24.2-0.4-38,37-51.6c3-1.1,3.6-4.2-0.5-5.1c-9.3-2.1-20.4,6.6-30.8,5.7c-19-1.6-14.5-20.1-50.8-18.4
	c-8.9,0.4-23.9,7.3-27.1-22.8c-0.8-7.7,1.6-15,8-19.8c15.4-11.6,28,5,42.5,9.9c14.2,4.7,30.3-5.1,35.8-18.6
	c2.3-5.5,3.9-12.6-10.1-2.7c-21.9,15.5-61.3-5.6-58.1-47.8c0.5-7.1-8.9-9.9-12.4-3.8c-14.2,24.8-13,56.8-22,84.6
	c-4.1,12.5-16.2,26.5-27.9,20.4c-2.9-1.5-5.2-4.1-8.2-5.3c-8.9-3.5-17.2,6.8-20,15.9c-3,9.5-5.6,21.2-15.5,23.8
	c-6,1.7-12.4-1-16-6.1c-24.3-34,59.2-70.3,35.9-110.3c-13.1-22.5-48.5-17.2-22.4-79.2h282.1L1201.4,465.2z M1115.2,1422l0.1-53.7
	c2.9-28.9,46.7-24.6,43.8,4.4l-9.5,52.7L1115.2,1422z M1105.9,1556.9l-7.4,64.4h-61.1l6-70.6c1.7-17.2,17.1-29.8,34.3-28.1
	C1095,1524.3,1107.6,1539.7,1105.9,1556.9z M910.6,1485.6l-2.4,53.5l-34.5,1.2l-7-53.2C865.6,1458,909.6,1456.5,910.6,1485.6z
	 M946.2,1541.6c0,0,7.8-12.3,28.1-5.2c0.5,39.3,0.8,70.2,0.6,85h-21L946.2,1541.6z M1021.6,1363.3c1.2-28.3,44-26.5,42.8,1.8
	l-6.3,51.8l-33.6-1.4L1021.6,1363.3z M1058.8,1271.8l-33.6-1.4l-2.9-52.2c1.2-28.3,44-26.5,42.8,1.8L1058.8,1271.8z M844.5,838.5
	c-19.8-19.1-30-29.5-7.1-67c1.7-2.8,0.2-5.5-3.5-3.7c-8.6,4.2-11.8,17.9-20.5,23.7c-15.9,10.6-23.9-6.7-51.2,17.3
	c-6.7,5.9-14.2,20.6-35.3-0.9c-5.4-5.6-8.1-12.8-6.1-20.5c4.8-18.6,25-13.6,39.4-18.8c14.1-5.2,20.5-22.9,16.3-36.9
	c-1.7-5.7-4.9-12.3-9.6,4.2c-7.3,25-49.6,34.3-74.5-0.1L810.5,438c15.3,14.9,46,15.7,51.2,36.6c5.5,22.2-24.9,38.1-27,60.9
	c-1.6,17.2,13.8,33,11.2,50.1c-4.2,27.3-45,30.3-65.9,87.6c-1.3,3.6-2.9,11.4,0.5,13.6c11,7.7,11.2-37.3,48.7-56.6
	c16.1-8.3,34.6-9.3,51.1-16.3c16.3-7,21.5-22.9,32.7-35c5.9-6.6,12.4-4.7,13.1,4.6c2.2,31.6-35.4,37.5-44,59.8
	c-4,10.4-2.2,23.1-9,32c-8.2,10.6-24,10.1-36.5,15.2c-3.7,1.5-3.6,6.9,0.1,8.3c14.6,5.6,33.6-2.1,44.8-14.3
	c13.3-14.4,8.7-40.9,32.1-49.1c11.6,9.6,26.3,15.5,41.3,16.7c5.6,0.5,10.7-8.5-4.2-13.8c-6.3-2.2-13.5-3.4-17.8-8.5
	c-8.4-10.2,1.3-26.5,8.3-35.2c2.1-2.5,5.1-4.2,8.4-4.1c11.8,0.5,19.6,30.5,29.7,30.9c3.8,0.1,3.6-1.9,4.2-5.6
	c1.1-7.6-10.9-23.4-12.7-30.1c-7.3-26.6,45.8-50.5,61.2,0.9c0.9,3.1,2.2,15.4,4.9,25.6c-88.6,29.2-47.6,193.6-88.5,198.1
	c-14.9,1.7-28.9-44.6-47.9-42.1C884.8,770.5,857.3,809.7,844.5,838.5z M725.4,1031.2c-17.7-94.3-16.8-81.7-13.2-88.4
	c10.4-19.4-1.3-46.9,6.3-54.6c6.9-7.1,18.2,9.5,19.2,23.9c1.3,17.7-11.2,35.2-5.7,52.6c3.4,10.6,12.7,19.4,12.9,30.6
	C745.1,1010.4,727,1023.9,725.4,1031.2z M1013.7,690.5c10.5-37.4,28.6-26.4,28.6,0c0,13.4-5.4,24.2-12.1,24.2
	C1015.9,714.8,1009.8,704.3,1013.7,690.5z M1055.6,722.4c32.1,0,32.1,73.8,0,73.8C1023.5,796.2,1023.5,722.4,1055.6,722.4z
	 M1068.8,690.5c0-29.9,21.2-34.2,29.7,0c3.3,13.2-1.1,24.2-17.6,24.2C1074.2,714.8,1068.8,703.9,1068.8,690.5z M684.1,756.5
	c8,21.4,22.8,41.2,31,62.9c4.6,12.3,3.9,30.8-9,33.3c-4.6,0.9-9.5-0.7-13.6,3.2l-15.4-81.8L684.1,756.5z M726,1034.6
	c4.9,7.4,29.2-8.7,31.2-37.3c1.4-19.5-18.7-37.4-5.5-58.4c15.1,0.3,30.2-4.2,42.7-12.7c4.6-3.1,3.2-13.4-11.8-8.2
	c-6.3,2.2-12.7,5.8-19.2,4.4c-12.9-2.7-15.5-21.5-15.5-32.7c0-3.3,1.4-6.4,4-8.4c9.6-7,34.4,11.7,42.5,5.7c3-2.3,1.7-3.7-0.2-7
	c-3.8-6.6-23.1-11.6-28.7-15.6c-22.3-16.2,4.3-68,48.4-37.4c3.4,2.4,16.4,15.9,26.7,21.4c-8.5,24.5-6.2,71.3,6.9,71.3
	c11.6,0,50.4-52.1,62.8-49.6c12.4,2.5-5,34.7,6.6,39.7c11.6,5,41.3-30.6,55.4-21.5c14,9.1-17.4,104.1-21.5,124.8
	c-4.1,20.7-15.7,35.5,0.8,33.9c16.5-1.7,57.8-53.7,66.1-52.1c5.2,1,6.8,28.3,11,49.3c-20.1,33.2-39.6,61-75.9,101.3l19.7,6.1
	c-2.7,27.1-0.6,191.5,1.1,320.4c-18.9-0.9-33.1,8.4-33.1,8.4l-12.9-135.6l34.3-1.3c-17.4-16.9-88.1-181.7-88.1-181.7
	s-34.2,107.4-81,184.5l35.9,1l5.3,261.9L726,1034.6z M1172.9,1608.9c6.2-145.6,7.9-132.1,34.6-326c50.4-5.2-4.2,14.4-49-126
	c-10.8,19.5-25.3,49.8-60.6,82.2l7.9-78.8l20.7-3.7c-41.4-56.2-54.5-73.4-68.2-93.5c6.2-6.2,11.9-16.9,18.1-31.9
	c11.6-28.1,8.3-41.3,15.7-43.8c7.4-2.5,33.4,31.9,35.5,41.3c6.6,29.7,31.4,9.1,27.3-29.7c-2.3-21.6-21.5-97.5-25.6-128.1
	c-4.1-30.6,3.3-54.5,12.4-53.7c9.1,0.8,35.5,34.7,49.6,34.7c14,0,10.7-44.6,23.1-47.9c12.4-3.3,25.6,42.1,35.5,43
	c9.9,0.8,14-36.4,14-36.4c0-39.2-23.4-120.3-45.7-142.8c23.1-8.3,37.1-7.3,57.6,26c1.7,2.8,4.9,2.7,4.9-1.5
	c0.3-15.9-20.2-19.5-7.7-45.5l50.1,127.3L1172.9,1608.9z"/>
</svg>
